<?xml version="1.0" encoding="iso-8859-1"?>
<!-- Generator: Adobe Illustrator 29.6.0, SVG Export Plug-In . SVG Version: 9.03 Build 0)  -->
<svg version="1.1" id="Layer_1" xmlns="http://www.w3.org/2000/svg" xmlns:xlink="http://www.w3.org/1999/xlink" x="0px" y="0px"
	 viewBox="0 0 4000 2774" style="enable-background:new 0 0 4000 2774;" xml:space="preserve">
<g>
	<path style="fill:#E4F9CF;" d="M1931.738,895.936C2061.013,715.642,2156.667,509.609,2209.519,287H609.138v1333.28
		c297.557-15.42,575.325-105.647,814.863-252.232C1623.234,1246.128,1796.017,1085.221,1931.738,895.936z"/>
</g>
<path style="fill:none;" d="M609.138,1620.28c-30.289,1.57-60.781,2.369-91.46,2.369c-189.595,0-372.097-30.35-542.923-86.443
	c-304.354,248.411-498.695,626.501-498.695,1049.997c0,748.156,606.48,1354.664,1354.664,1354.664
	c748.156,0,1354.664-606.508,1354.664-1354.664c0-33.365-1.228-66.443-3.6-99.203H609.138V1620.28z"/>
<path style="fill:none;" d="M4844.938-386.393c0-960.319-778.502-1738.821-1738.821-1738.821
	c-582.778,0-1098.57,286.688-1414.071,726.715C2038.969-1080.611,2256.5-623.795,2256.5-116.172
	c0,138.789-16.261,273.779-46.98,403.172h1181.343v1042.223C4215.725,1193.342,4844.938,476.952,4844.938-386.393z"/>
<path style="fill:#D4E1FC;stroke:#000000;stroke-width:18;stroke-miterlimit:10;" d="M1424.001,1368.049
	c-239.538,146.584-517.305,236.812-814.863,252.232V2487h1572.651C2146.111,1994.093,1846.711,1574.308,1424.001,1368.049z"/>
<path style="fill:#FCD4D2;stroke:#000000;stroke-width:18;stroke-miterlimit:10;" d="M2209.519,287
	c-52.851,222.609-148.506,428.642-277.781,608.936c309.38,283.489,721.668,456.492,1174.379,456.492
	c96.974,0,192.093-7.943,284.745-23.205V287H2209.519z"/>
<g>
	<path d="M76.8,198.601L31.2,61.4h30.2l33,99.8h0.8l32.6-99.8h28l-45.8,137.2H76.8z"/>
	<path d="M212.2,200.601c-9.334,0-17.7-2.1-25.1-6.3c-7.4-4.2-13.2-10.166-17.4-17.9c-4.2-7.731-6.3-16.8-6.3-27.2v-3.6
		c0-10.531,2.1-19.6,6.3-27.2c4.2-7.6,9.966-13.5,17.3-17.7c7.332-4.2,15.666-6.3,25-6.3h4c9.466,0,17.866,2.1,25.2,6.3
		c7.331,4.2,13.1,10.1,17.3,17.7c4.2,7.6,6.3,16.669,6.3,27.2v3.6c0,10.534-2.1,19.634-6.3,27.3c-4.2,7.669-9.969,13.6-17.3,17.8
		c-7.334,4.2-15.669,6.3-25,6.3H212.2z M214,182.601c4.131,0,7.832-0.966,11.1-2.9c3.266-1.931,5.866-4.832,7.8-8.7
		c1.931-3.866,2.9-8.465,2.9-13.8v-19.6c0-5.466-0.969-10.065-2.9-13.8c-1.935-3.731-4.535-6.6-7.8-8.6c-3.269-2-6.969-3-11.1-3
		c-4,0-7.668,1-11,3c-3.334,2-5.969,4.869-7.9,8.6c-1.934,3.734-2.9,8.334-2.9,13.8v19.6c0,5.334,0.966,9.934,2.9,13.8
		c1.931,3.869,4.566,6.769,7.9,8.7C206.332,181.635,210,182.601,214,182.601z"/>
	<path d="M321.801,200.601c-5.734,0-10.869-0.8-15.4-2.4c-4.534-1.6-8.068-4.3-10.6-8.1c-2.535-3.8-3.8-8.831-3.8-15.1v-58.2h-11.2
		V96.4h12l9.6-32.6h16.8v32.6h24v20.4h-24V169c0,5.869,1.2,9.6,3.601,11.2c2.399,1.6,5,2.4,7.8,2.4c1.466,0,3.5-0.3,6.1-0.9
		c2.601-0.6,4.7-1.231,6.301-1.9v16.8c-1.734,0.935-3.869,1.7-6.4,2.3c-2.534,0.6-5.1,1.031-7.7,1.3
		C326.301,200.466,323.932,200.601,321.801,200.601z"/>
	<path d="M365.397,75.801v-21.2h28.2v21.2H365.397z M365.797,198.601V96.4h27.4v102.2H365.797z"/>
	<path d="M421.395,198.601V96.4h20.2l3.2,15c4-5.731,8.831-10,14.5-12.8c5.666-2.8,12.1-4.2,19.3-4.2c6.932,0,13.031,1.334,18.3,4
		c5.266,2.669,9.332,6.469,12.2,11.4c2.866,4.934,4.3,10.934,4.3,18v70.8h-27.199v-65c0-6.531-1.601-11.331-4.801-14.4
		c-3.199-3.066-7.534-4.6-13-4.6c-3.469,0-6.734,0.9-9.8,2.7c-3.068,1.8-5.469,4.234-7.2,7.3c-1.734,3.069-2.6,6.534-2.6,10.4v63.6
		H421.395z"/>
	<path d="M557.792,236.201c-4.668,0-8.899-1.1-12.699-3.3c-3.801-2.2-6.869-5.168-9.2-8.9c-2.335-3.734-3.5-7.8-3.5-12.2
		c0-4.935,1.331-9.5,4-13.7c2.665-4.2,6.331-7.366,11-9.5c-2.935-1.866-5.234-4.3-6.9-7.3c-1.669-3-2.5-6.166-2.5-9.5
		c0-4.932,1.601-9.166,4.8-12.7c3.2-3.531,7.266-6.1,12.2-7.7c-4.134-2.531-7.534-5.666-10.2-9.4c-2.668-3.731-4-8.331-4-13.8
		c0-5.731,1.566-11.2,4.7-16.4c3.132-5.2,7.866-9.4,14.2-12.6c6.331-3.2,14.365-4.8,24.1-4.8c4,0,7.731,0.2,11.2,0.6
		c3.466,0.4,6.531,1.069,9.2,2c5.2-2.8,9.031-5.866,11.5-9.2c2.466-3.332,3.831-6.6,4.1-9.8h21.4c0,4.535-0.869,8.6-2.6,12.2
		c-1.734,3.6-4.169,6.569-7.301,8.9c-3.134,2.334-6.899,4.034-11.3,5.1l-0.2,0.6c3.2,2.668,5.766,5.8,7.7,9.4
		c1.932,3.6,2.9,7.534,2.9,11.8c0,5.869-1.635,11.269-4.9,16.2c-3.269,4.934-7.868,8.9-13.8,11.9c-5.935,3-12.9,4.5-20.9,4.5h-15
		c-4.134,0-7.334,0.834-9.6,2.5c-2.269,1.669-3.4,3.9-3.4,6.7c0,2.534,1.031,4.668,3.101,6.4c2.065,1.734,5.365,2.6,9.899,2.6h35.4
		c9.331,0,16.666,2.734,22,8.2c5.331,5.469,8,12.2,8,20.2c0,5.6-1.4,10.766-4.2,15.5c-2.8,4.731-6.7,8.5-11.7,11.3
		c-5,2.8-10.769,4.2-17.3,4.2H557.792z M568.192,219.201h34.6c3.601,0,6.7-1.169,9.301-3.5c2.6-2.334,3.899-5.169,3.899-8.5
		c0-3.069-1.1-5.669-3.3-7.8c-2.2-2.131-4.969-3.2-8.3-3.2h-36.2c-3.469,0-6.4,1.134-8.8,3.4c-2.4,2.266-3.601,4.931-3.601,8
		c0,3.065,1.2,5.766,3.601,8.1C561.792,218.032,564.724,219.201,568.192,219.201z M585.792,143.601c5.866,0,10.5-1.666,13.9-5
		c3.4-3.331,5.1-7.331,5.1-12c0-4.666-1.699-8.7-5.1-12.1s-8.034-5.1-13.9-5.1c-5.868,0-10.534,1.7-14,5.1
		c-3.469,3.4-5.199,7.435-5.199,12.1c0,4.669,1.73,8.669,5.199,12C575.258,141.935,579.924,143.601,585.792,143.601z"/>
	<path d="M747.989,200.601c-9.734,0-18.634-1.435-26.7-4.3c-8.068-2.866-14.534-7.366-19.399-13.5c-4.869-6.131-7.3-14.2-7.3-24.2
		c0-0.8,0-1.565,0-2.3c0-0.731,0.065-1.432,0.199-2.1h27c-0.134,0.668-0.199,1.269-0.199,1.8c0,0.535,0,1.134,0,1.8
		c0,4.269,1.031,7.934,3.1,11c2.065,3.068,5.131,5.4,9.2,7c4.065,1.6,8.899,2.4,14.5,2.4c6.266,0,11.399-0.631,15.399-1.9
		c4-1.266,7-3.231,9-5.9c2-2.666,3-5.931,3-9.8c0-4.131-1.434-7.431-4.3-9.9c-2.868-2.466-6.6-4.431-11.2-5.9
		c-4.6-1.466-9.668-2.832-15.199-4.1c-5.535-1.266-11.069-2.766-16.601-4.5c-5.534-1.731-10.634-4.066-15.3-7
		c-4.669-2.931-8.4-6.8-11.2-11.6s-4.2-10.931-4.2-18.4c0-8.931,2.432-16.332,7.301-22.2c4.865-5.866,11.331-10.266,19.399-13.2
		c8.065-2.932,16.831-4.4,26.3-4.4c9.466,0,18.066,1.369,25.801,4.1c7.73,2.734,13.931,7,18.6,12.8c4.666,5.8,7,13.3,7,22.5v2.6
		h-26.6V99c0-3.6-0.969-6.731-2.9-9.4c-1.935-2.666-4.7-4.7-8.3-6.1c-3.601-1.4-8-2.1-13.2-2.1c-4.8,0-9.034,0.5-12.7,1.5
		c-3.669,1-6.5,2.6-8.5,4.8c-2,2.2-3,5.034-3,8.5c0,4,1.4,7.2,4.2,9.6c2.8,2.4,6.531,4.3,11.2,5.7c4.665,1.4,9.831,2.734,15.5,4
		c5.665,1.269,11.266,2.734,16.8,4.4c5.531,1.669,10.631,3.935,15.3,6.8c4.666,2.869,8.4,6.668,11.2,11.4
		c2.8,4.734,4.2,10.769,4.2,18.1c0,10.668-2.534,19.234-7.601,25.7c-5.068,6.469-11.899,11.2-20.5,14.2
		C768.689,199.101,758.921,200.601,747.989,200.601z"/>
	<path d="M839.986,235.801c-3.334,0-6.399-0.234-9.199-0.7c-2.801-0.469-5.335-1.169-7.601-2.1v-19.8c1.466,0.666,3.466,1.231,6,1.7
		c2.531,0.466,5,0.7,7.4,0.7c3.6,0,6.531-0.7,8.8-2.1c2.266-1.4,4.166-3.534,5.7-6.4c1.531-2.869,3.031-6.369,4.5-10.5l-39.4-100.2
		h29.2l23.6,67h1.4l22.4-67h27l-37,97c-2.935,7.866-6.335,15-10.2,21.4c-3.869,6.4-8.435,11.5-13.7,15.3
		C853.618,233.9,847.318,235.801,839.986,235.801z"/>
	<path d="M971.786,200.601c-6.4,0-12.2-0.8-17.4-2.4s-9.7-3.766-13.5-6.5c-3.8-2.731-6.7-5.931-8.7-9.6c-2-3.666-3-7.631-3-11.9
		c0-0.8,0-1.466,0-2c0-0.531,0.066-1.266,0.2-2.2h23.2c-0.135,0.4-0.2,0.769-0.2,1.1c0,0.334,0,0.634,0,0.9
		c0,3.334,1.132,6.1,3.4,8.3c2.266,2.2,5.2,3.8,8.8,4.8s7.466,1.5,11.6,1.5c3.332,0,6.7-0.4,10.101-1.2c3.399-0.8,6.231-2.1,8.5-3.9
		c2.266-1.8,3.399-4.1,3.399-6.9c0-3.065-1.168-5.431-3.5-7.1c-2.334-1.666-5.469-3-9.399-4c-3.935-1-8.234-1.866-12.9-2.6
		c-4.669-0.731-9.368-1.666-14.1-2.8c-4.734-1.131-9.069-2.766-13-4.9c-3.935-2.131-7.069-5.031-9.4-8.7
		c-2.334-3.666-3.5-8.5-3.5-14.5c0-5.065,1.166-9.6,3.5-13.6c2.331-4,5.531-7.331,9.601-10c4.065-2.666,8.73-4.666,14-6
		c5.266-1.331,10.766-2,16.5-2h4c5.331,0,10.431,0.669,15.3,2c4.865,1.334,9.231,3.234,13.1,5.7c3.866,2.469,6.9,5.4,9.101,8.8
		c2.199,3.4,3.3,7.1,3.3,11.1c0,0.669-0.034,1.435-0.101,2.3c-0.068,0.869-0.168,1.434-0.3,1.7h-23.2v-1.6
		c0-1.465-0.368-2.9-1.1-4.3c-0.734-1.4-1.935-2.7-3.6-3.9c-1.669-1.2-3.801-2.166-6.4-2.9c-2.6-0.731-5.7-1.1-9.3-1.1
		c-3.2,0-6.069,0.3-8.601,0.9c-2.534,0.6-4.668,1.4-6.399,2.4c-1.734,1-3,2.169-3.8,3.5c-0.801,1.334-1.2,2.669-1.2,4
		c0,2.8,1.2,4.969,3.6,6.5c2.4,1.535,5.565,2.734,9.5,3.6c3.932,0.869,8.266,1.669,13,2.4c4.731,0.734,9.432,1.634,14.101,2.7
		c4.665,1.069,9,2.7,13,4.9s7.165,5.169,9.5,8.9c2.331,3.734,3.5,8.6,3.5,14.6c0,6.269-1.2,11.6-3.601,16
		c-2.399,4.4-5.734,7.9-10,10.5c-4.269,2.6-9.068,4.5-14.399,5.7c-5.335,1.2-10.935,1.8-16.801,1.8H971.786z"/>
	<path d="M1079.586,200.601c-5.734,0-10.869-0.8-15.4-2.4c-4.534-1.6-8.068-4.3-10.6-8.1c-2.534-3.8-3.8-8.831-3.8-15.1v-58.2h-11.2
		V96.4h12l9.6-32.6h16.8v32.6h24v20.4h-24V169c0,5.869,1.2,9.6,3.601,11.2c2.399,1.6,5,2.4,7.8,2.4c1.466,0,3.5-0.3,6.1-0.9
		c2.601-0.6,4.7-1.231,6.301-1.9v16.8c-1.734,0.935-3.869,1.7-6.4,2.3c-2.534,0.6-5.1,1.031-7.7,1.3
		C1084.086,200.466,1081.717,200.601,1079.586,200.601z"/>
	<path d="M1166.982,200.601c-9.6,0-18.1-1.969-25.5-5.9s-13.169-9.666-17.3-17.2c-4.135-7.531-6.2-16.7-6.2-27.5v-5
		c0-10.8,2.166-19.965,6.5-27.5c4.331-7.531,10.266-13.266,17.8-17.2c7.531-3.932,16.101-5.9,25.7-5.9h3.2
		c9.065,0,16.966,1.834,23.7,5.5c6.73,3.669,11.931,8.8,15.6,15.4c3.666,6.6,5.5,14.3,5.5,23.1V151h-69.2c0,6.4,0.8,12,2.4,16.8
		c1.6,4.8,4,8.469,7.2,11c3.199,2.534,7.399,3.8,12.6,3.8c4.266,0,8-0.831,11.2-2.5c3.2-1.666,5.731-4.166,7.6-7.5
		c1.866-3.331,2.8-7.4,2.8-12.2h25.4c0,7.869-2,14.834-6,20.9c-4,6.068-9.5,10.8-16.5,14.2s-15.1,5.1-24.3,5.1H1166.982z
		 M1146.982,137h42.2c0-8.4-1.835-14.631-5.5-18.7c-3.669-4.066-8.7-6.1-15.101-6.1c-6,0-11.034,2.1-15.1,6.3
		C1149.414,122.701,1147.248,128.869,1146.982,137z"/>
	<path d="M1238.979,198.601V96.4h20.4l3.6,15c3.466-5.331,7.566-9.5,12.301-12.5c4.73-3,10.5-4.5,17.3-4.5
		c6.665,0,12.531,1.269,17.6,3.8c5.065,2.534,9.065,6.734,12,12.6c3.2-5.332,7.331-9.4,12.4-12.2c5.065-2.8,11.065-4.2,18-4.2
		c6.531,0,12.3,1.334,17.3,4c5,2.669,8.9,6.469,11.7,11.4c2.8,4.934,4.2,10.934,4.2,18v70.8h-27V134c0-6.666-1.4-11.531-4.2-14.6
		c-2.8-3.065-6.669-4.6-11.601-4.6c-3.199,0-6.1,0.834-8.699,2.5c-2.601,1.668-4.635,4-6.101,7c-1.469,3-2.2,6.434-2.2,10.3v64h-27
		V134c0-6.666-1.399-11.531-4.199-14.6c-2.801-3.065-6.734-4.6-11.801-4.6c-3.199,0-6.068,0.834-8.6,2.5c-2.534,1.668-4.534,4-6,7
		c-1.469,3-2.2,6.434-2.2,10.3v64H1238.979z"/>
</g>
<g>
	<path d="M936.615,691.161c-7.788,0-14.907-1.147-21.36-3.44c-6.455-2.292-11.627-5.893-15.52-10.8
		c-3.895-4.905-5.84-11.36-5.84-19.36c0-0.64,0-1.252,0-1.84c0-0.585,0.052-1.145,0.16-1.68h21.6c-0.107,0.535-0.16,1.015-0.16,1.44
		c0,0.428,0,0.908,0,1.44c0,3.415,0.825,6.348,2.48,8.8c1.653,2.455,4.105,4.32,7.36,5.6c3.252,1.28,7.12,1.92,11.6,1.92
		c5.013,0,9.12-0.505,12.32-1.52c3.2-1.013,5.6-2.585,7.2-4.72c1.6-2.132,2.4-4.745,2.4-7.84c0-3.305-1.147-5.945-3.44-7.92
		c-2.295-1.973-5.28-3.545-8.96-4.72c-3.68-1.172-7.735-2.265-12.16-3.28c-4.428-1.013-8.855-2.213-13.28-3.6
		c-4.427-1.385-8.507-3.252-12.24-5.6c-3.735-2.345-6.72-5.44-8.96-9.28c-2.24-3.84-3.36-8.745-3.36-14.72
		c0-7.145,1.945-13.065,5.84-17.76c3.893-4.693,9.065-8.213,15.52-10.56c6.452-2.345,13.465-3.52,21.04-3.52
		c7.572,0,14.452,1.095,20.64,3.28c6.185,2.188,11.145,5.6,14.88,10.24c3.732,4.64,5.6,10.64,5.6,18v2.08h-21.28v-1.92
		c0-2.88-0.775-5.385-2.32-7.52c-1.548-2.132-3.76-3.76-6.64-4.88s-6.4-1.68-10.56-1.68c-3.84,0-7.228,0.4-10.16,1.2
		c-2.935,0.8-5.2,2.08-6.8,3.84c-1.6,1.76-2.4,4.028-2.4,6.8c0,3.2,1.12,5.76,3.36,7.68c2.24,1.92,5.225,3.44,8.96,4.56
		c3.732,1.12,7.865,2.188,12.4,3.2c4.533,1.015,9.013,2.188,13.44,3.52c4.425,1.335,8.505,3.147,12.24,5.44
		c3.732,2.295,6.72,5.335,8.96,9.12c2.24,3.788,3.36,8.615,3.36,14.48c0,8.535-2.027,15.387-6.08,20.56
		c-4.055,5.175-9.52,8.96-16.4,11.36S945.36,691.161,936.615,691.161z"/>
	<path d="M1027.013,691.161c-8.427,0-15.067-2.32-19.92-6.96c-4.855-4.64-7.28-11.44-7.28-20.4v-56h21.92v51.2
		c0,5.547,1.145,9.6,3.44,12.16c2.292,2.56,5.68,3.84,10.16,3.84c2.985,0,5.705-0.745,8.16-2.24c2.453-1.493,4.453-3.465,6-5.92
		c1.545-2.452,2.32-5.172,2.32-8.16v-50.88h21.76v63.36c0,2.027,0.505,3.467,1.52,4.32c1.013,0.855,2.105,1.28,3.28,1.28
		c1.065,0,2.16-0.185,3.28-0.56c1.12-0.373,2.212-0.825,3.28-1.36v12.8c-1.388,1.067-3.228,1.92-5.52,2.56
		c-2.295,0.64-5.04,0.96-8.24,0.96c-3.735,0-6.855-0.587-9.36-1.76c-2.508-1.172-4.4-2.8-5.68-4.88c-1.28-2.08-2.24-4.292-2.88-6.64
		c-2.667,4.16-6.348,7.415-11.04,9.76C1037.519,689.986,1032.454,691.161,1027.013,691.161z"/>
	<path d="M1105.412,689.561v-65.44h-9.6v-16.32h9.6v-13.28c0-7.572,2.24-13.04,6.72-16.4s10.185-5.04,17.12-5.04
		c1.705,0,3.6,0.135,5.68,0.4c2.08,0.268,4.16,0.615,6.24,1.04c2.08,0.428,3.812,1.015,5.2,1.76v13.28
		c-1.28-0.533-2.96-1.013-5.04-1.44c-2.08-0.425-3.707-0.64-4.88-0.64c-1.387,0-2.8,0.215-4.24,0.64
		c-1.44,0.427-2.64,1.308-3.6,2.64c-0.96,1.335-1.44,3.547-1.44,6.64v10.4h19.2v16.32h-19.2v65.44H1105.412z"/>
	<path d="M1167.011,689.561v-65.44h-9.6v-16.32h9.6v-13.28c0-7.572,2.24-13.04,6.72-16.4s10.185-5.04,17.12-5.04
		c1.705,0,3.6,0.135,5.68,0.4c2.08,0.268,4.16,0.615,6.24,1.04c2.08,0.428,3.812,1.015,5.2,1.76v13.28
		c-1.28-0.533-2.96-1.013-5.04-1.44c-2.08-0.425-3.707-0.64-4.88-0.64c-1.387,0-2.8,0.215-4.24,0.64
		c-1.44,0.427-2.64,1.308-3.6,2.64c-0.96,1.335-1.44,3.547-1.44,6.64v10.4h19.2v16.32h-19.2v65.44H1167.011z"/>
	<path d="M1223.65,689.561v-81.76h16.32l2.72,12c0.212-0.425,0.772-1.333,1.68-2.72c0.905-1.385,2.265-2.933,4.08-4.64
		c1.812-1.705,4.08-3.172,6.8-4.4c2.72-1.225,6-1.84,9.84-1.84c5.545,0,10.053,1.067,13.52,3.2c3.465,2.135,6.053,5.12,7.76,8.96
		c1.705,3.84,2.56,8.32,2.56,13.44c0,1.175-0.055,2.455-0.16,3.84c-0.107,1.387-0.215,2.615-0.32,3.68h-18.24v-3.36
		c0-2.025-0.4-4.08-1.2-6.16c-0.8-2.08-2.08-3.812-3.84-5.2c-1.76-1.385-4.188-2.08-7.28-2.08c-2.24,0-4.16,0.48-5.76,1.44
		s-2.907,2.16-3.92,3.6c-1.015,1.44-1.76,3.04-2.24,4.8c-0.48,1.76-0.72,3.388-0.72,4.88v52.32H1223.65z"/>
	<path d="M1324.609,691.161c-4.375,0-8.56-0.72-12.56-2.16s-7.28-3.84-9.84-7.2c-2.56-3.36-3.84-7.92-3.84-13.68
		c0-5.865,1.305-10.613,3.92-14.24c2.612-3.625,6.292-6.425,11.04-8.4c4.745-1.973,10.453-3.333,17.12-4.08
		c6.665-0.745,14.16-1.12,22.48-1.12v-7.2c0-4.692-1.28-8.025-3.84-10c-2.56-1.973-6.295-2.96-11.2-2.96
		c-4.16,0-7.815,0.935-10.96,2.8c-3.147,1.868-4.72,4.72-4.72,8.56v1.28h-20.96c-0.107-0.32-0.16-0.772-0.16-1.36
		c0-0.585,0-1.092,0-1.52c0-4.692,1.493-8.825,4.48-12.4c2.985-3.572,7.145-6.345,12.48-8.32c5.333-1.973,11.52-2.96,18.56-2.96
		h3.36c11.52,0,20.105,2.268,25.76,6.8c5.652,4.535,8.48,10.64,8.48,18.32v39.84c0,2.027,0.505,3.467,1.52,4.32
		c1.013,0.855,2.105,1.28,3.28,1.28c0.96,0,2.025-0.185,3.2-0.56c1.172-0.373,2.292-0.825,3.36-1.36v12.8
		c-1.387,1.067-3.227,1.92-5.52,2.56c-2.295,0.64-5.04,0.96-8.24,0.96c-3.84,0-7.04-0.615-9.6-1.84
		c-2.56-1.225-4.507-2.905-5.84-5.04c-1.335-2.133-2.16-4.585-2.48-7.36c-2.988,4.268-6.935,7.708-11.84,10.32
		C1337.142,689.854,1331.33,691.161,1324.609,691.161z M1334.85,676.761c2.985,0,5.84-0.693,8.56-2.08
		c2.72-1.385,4.985-3.44,6.8-6.16c1.812-2.72,2.72-6.105,2.72-10.16v-6.56c-6.828,0-12.615,0.427-17.36,1.28
		c-4.747,0.855-8.347,2.268-10.8,4.24c-2.455,1.975-3.68,4.828-3.68,8.56c0,3.948,1.2,6.748,3.6,8.4
		C1327.089,675.936,1330.475,676.761,1334.85,676.761z"/>
	<path d="M1414.047,719.641c-3.735,0-7.12-0.88-10.16-2.64c-3.04-1.76-5.495-4.135-7.36-7.12c-1.868-2.987-2.8-6.24-2.8-9.76
		c0-3.948,1.065-7.6,3.2-10.96c2.133-3.36,5.065-5.893,8.8-7.6c-2.348-1.493-4.188-3.44-5.52-5.84c-1.335-2.4-2-4.933-2-7.6
		c0-3.945,1.28-7.333,3.84-10.16c2.56-2.825,5.812-4.88,9.76-6.16c-3.308-2.025-6.028-4.533-8.16-7.52
		c-2.135-2.985-3.2-6.665-3.2-11.04c0-4.585,1.252-8.96,3.76-13.12c2.505-4.16,6.292-7.52,11.36-10.08
		c5.065-2.56,11.493-3.84,19.28-3.84c3.2,0,6.185,0.16,8.96,0.48c2.772,0.32,5.225,0.855,7.36,1.6c4.16-2.24,7.225-4.693,9.2-7.36
		c1.973-2.665,3.065-5.28,3.28-7.84h17.12c0,3.627-0.695,6.88-2.08,9.76c-1.388,2.88-3.335,5.255-5.84,7.12
		c-2.507,1.868-5.52,3.228-9.04,4.08l-0.16,0.48c2.56,2.135,4.612,4.64,6.16,7.52c1.545,2.88,2.32,6.027,2.32,9.44
		c0,4.695-1.308,9.015-3.92,12.96c-2.615,3.948-6.295,7.12-11.04,9.52c-4.748,2.4-10.32,3.6-16.72,3.6h-12
		c-3.308,0-5.867,0.667-7.68,2c-1.815,1.335-2.72,3.12-2.72,5.36c0,2.028,0.825,3.735,2.48,5.12c1.652,1.388,4.292,2.08,7.92,2.08
		h28.32c7.465,0,13.333,2.188,17.6,6.56c4.265,4.375,6.4,9.76,6.4,16.16c0,4.48-1.12,8.613-3.36,12.4
		c-2.24,3.785-5.36,6.8-9.36,9.04c-4,2.24-8.615,3.36-13.84,3.36H1414.047z M1422.367,706.041h27.68c2.88,0,5.36-0.935,7.44-2.8
		c2.08-1.868,3.12-4.135,3.12-6.8c0-2.455-0.88-4.535-2.64-6.24c-1.76-1.705-3.975-2.56-6.64-2.56h-28.96
		c-2.775,0-5.12,0.907-7.04,2.72c-1.92,1.812-2.88,3.945-2.88,6.4c0,2.452,0.96,4.612,2.88,6.48
		C1417.248,705.106,1419.592,706.041,1422.367,706.041z M1436.447,645.561c4.692,0,8.4-1.333,11.12-4
		c2.72-2.665,4.08-5.865,4.08-9.6c0-3.732-1.36-6.96-4.08-9.68c-2.72-2.72-6.428-4.08-11.12-4.08c-4.695,0-8.427,1.36-11.2,4.08
		c-2.775,2.72-4.16,5.947-4.16,9.68c0,3.735,1.385,6.935,4.16,9.6C1428.02,644.229,1431.752,645.561,1436.447,645.561z"/>
	<path d="M1528.927,691.161c-7.681,0-14.48-1.575-20.4-4.72s-10.535-7.732-13.84-13.76c-3.308-6.025-4.96-13.36-4.96-22v-4
		c0-8.64,1.732-15.973,5.2-22c3.465-6.025,8.212-10.613,14.24-13.76c6.025-3.145,12.88-4.72,20.561-4.72h2.56
		c7.253,0,13.572,1.467,18.96,4.4c5.386,2.935,9.545,7.04,12.48,12.32c2.933,5.28,4.399,11.44,4.399,18.48v10.08h-55.359
		c0,5.12,0.64,9.6,1.92,13.44c1.28,3.84,3.2,6.775,5.76,8.8c2.561,2.027,5.92,3.04,10.08,3.04c3.412,0,6.4-0.665,8.96-2
		c2.56-1.333,4.585-3.333,6.08-6c1.492-2.665,2.24-5.92,2.24-9.76h20.319c0,6.295-1.6,11.868-4.8,16.72
		c-3.2,4.855-7.6,8.64-13.2,11.36c-5.6,2.72-12.08,4.08-19.439,4.08H1528.927z M1512.927,640.281h33.76
		c0-6.72-1.468-11.705-4.4-14.96c-2.935-3.252-6.96-4.88-12.08-4.88c-4.8,0-8.827,1.68-12.08,5.04
		C1514.871,628.841,1513.139,633.776,1512.927,640.281z"/>
	<path d="M979.334,869.561v-109.76h52.8c5.865,0,11.225,1.387,16.08,4.16c4.853,2.775,8.72,6.535,11.6,11.28
		c2.88,4.748,4.32,10.055,4.32,15.92v2.24c0,5.868-1.495,11.308-4.48,16.32c-2.987,5.015-6.935,9.015-11.84,12
		c-4.907,2.987-10.348,4.48-16.32,4.48h-28.8v43.36H979.334z M1002.694,808.601h23.36c2.88,0,5.412-0.665,7.6-2
		c2.185-1.333,3.92-3.172,5.2-5.52c1.28-2.345,1.92-5.013,1.92-8c0-4.265-1.387-7.92-4.16-10.96c-2.775-3.04-6.455-4.56-11.04-4.56
		h-22.88V808.601z"/>
	<path d="M1100.612,871.161c-4.375,0-8.56-0.72-12.56-2.16s-7.28-3.84-9.84-7.2c-2.56-3.36-3.84-7.92-3.84-13.68
		c0-5.865,1.305-10.613,3.92-14.24c2.612-3.625,6.292-6.425,11.04-8.4c4.745-1.973,10.453-3.333,17.12-4.08
		c6.665-0.745,14.16-1.12,22.48-1.12v-7.2c0-4.692-1.28-8.025-3.84-10c-2.56-1.973-6.295-2.96-11.2-2.96
		c-4.16,0-7.815,0.935-10.96,2.8c-3.147,1.868-4.72,4.72-4.72,8.56v1.28h-20.96c-0.107-0.32-0.16-0.772-0.16-1.36
		c0-0.585,0-1.092,0-1.52c0-4.692,1.493-8.825,4.48-12.4c2.985-3.572,7.145-6.345,12.48-8.32c5.333-1.973,11.52-2.96,18.56-2.96
		h3.36c11.52,0,20.105,2.268,25.76,6.8c5.652,4.535,8.48,10.64,8.48,18.32v39.84c0,2.027,0.505,3.467,1.52,4.32
		c1.013,0.855,2.105,1.28,3.28,1.28c0.96,0,2.025-0.185,3.2-0.56c1.172-0.373,2.292-0.825,3.36-1.36v12.8
		c-1.387,1.067-3.227,1.92-5.52,2.56c-2.295,0.64-5.04,0.96-8.24,0.96c-3.84,0-7.04-0.615-9.6-1.84
		c-2.56-1.225-4.507-2.905-5.84-5.04c-1.335-2.133-2.16-4.585-2.48-7.36c-2.988,4.268-6.935,7.708-11.84,10.32
		C1113.145,869.854,1107.333,871.161,1100.612,871.161z M1110.853,856.761c2.985,0,5.84-0.693,8.56-2.08
		c2.72-1.385,4.985-3.44,6.8-6.16c1.812-2.72,2.72-6.105,2.72-10.16v-6.56c-6.828,0-12.615,0.427-17.36,1.28
		c-4.747,0.855-8.347,2.268-10.8,4.24c-2.455,1.975-3.68,4.828-3.68,8.56c0,3.948,1.2,6.748,3.6,8.4
		C1103.092,855.936,1106.478,856.761,1110.853,856.761z"/>
	<path d="M1176.45,869.561v-81.76h16.32l2.72,12c0.212-0.425,0.772-1.333,1.68-2.72c0.905-1.385,2.265-2.933,4.08-4.64
		c1.812-1.705,4.08-3.172,6.8-4.4c2.72-1.225,6-1.84,9.84-1.84c5.545,0,10.053,1.067,13.52,3.2c3.465,2.135,6.053,5.12,7.76,8.96
		c1.705,3.84,2.56,8.32,2.56,13.44c0,1.175-0.055,2.455-0.16,3.84c-0.107,1.387-0.215,2.615-0.32,3.68h-18.24v-3.36
		c0-2.025-0.4-4.08-1.2-6.16c-0.8-2.08-2.08-3.812-3.84-5.2c-1.76-1.385-4.188-2.08-7.28-2.08c-2.24,0-4.16,0.48-5.76,1.44
		s-2.907,2.16-3.92,3.6c-1.015,1.44-1.76,3.04-2.24,4.8c-0.48,1.76-0.72,3.388-0.72,4.88v52.32H1176.45z"/>
	<path d="M1291.489,871.161c-7.68,0-14.48-1.575-20.4-4.72s-10.535-7.732-13.84-13.76c-3.308-6.025-4.96-13.36-4.96-22v-4
		c0-8.64,1.732-15.973,5.2-22c3.465-6.025,8.212-10.613,14.24-13.76c6.025-3.145,12.88-4.72,20.56-4.72h2.56
		c7.253,0,13.573,1.467,18.96,4.4c5.385,2.935,9.545,7.04,12.48,12.32c2.932,5.28,4.4,11.44,4.4,18.48v10.08h-55.36
		c0,5.12,0.64,9.6,1.92,13.44c1.28,3.84,3.2,6.775,5.76,8.8c2.56,2.027,5.92,3.04,10.08,3.04c3.413,0,6.4-0.665,8.96-2
		c2.56-1.333,4.585-3.333,6.08-6c1.493-2.665,2.24-5.92,2.24-9.76h20.32c0,6.295-1.6,11.868-4.8,16.72
		c-3.2,4.855-7.6,8.64-13.2,11.36s-12.08,4.08-19.44,4.08H1291.489z M1275.489,820.281h33.76c0-6.72-1.468-11.705-4.4-14.96
		c-2.935-3.252-6.96-4.88-12.08-4.88c-4.8,0-8.828,1.68-12.08,5.04C1277.435,808.841,1275.702,813.776,1275.489,820.281z"/>
	<path d="M1376.767,871.161c-4.587,0-8.695-0.64-12.32-1.92c-3.628-1.28-6.455-3.44-8.48-6.48c-2.027-3.04-3.04-7.065-3.04-12.08
		v-46.56h-8.96v-16.32h9.6l7.68-26.08h13.44v26.08h19.2v16.32h-19.2v41.76c0,4.695,0.96,7.68,2.88,8.96c1.92,1.28,4,1.92,6.24,1.92
		c1.172,0,2.8-0.24,4.88-0.72s3.76-0.985,5.04-1.52v13.44c-1.388,0.748-3.095,1.36-5.12,1.84c-2.027,0.48-4.08,0.825-6.16,1.04
		C1380.367,871.054,1378.472,871.161,1376.767,871.161z"/>
	<path d="M1446.685,871.161c-7.467,0-14.16-1.68-20.08-5.04c-5.92-3.36-10.56-8.132-13.92-14.32c-3.36-6.185-5.04-13.44-5.04-21.76
		v-2.88c0-8.425,1.68-15.68,5.04-21.76s7.973-10.8,13.84-14.16c5.865-3.36,12.532-5.04,20-5.04h3.2c7.573,0,14.292,1.68,20.16,5.04
		c5.865,3.36,10.48,8.08,13.84,14.16s5.04,13.335,5.04,21.76v2.88c0,8.428-1.68,15.708-5.04,21.84
		c-3.36,6.135-7.975,10.88-13.84,14.24c-5.868,3.36-12.535,5.04-20,5.04H1446.685z M1448.125,856.761c3.305,0,6.265-0.772,8.88-2.32
		c2.612-1.545,4.692-3.865,6.24-6.96c1.545-3.092,2.32-6.772,2.32-11.04v-15.68c0-4.373-0.775-8.053-2.32-11.04
		c-1.547-2.985-3.627-5.28-6.24-6.88c-2.615-1.6-5.575-2.4-8.88-2.4c-3.2,0-6.135,0.8-8.8,2.4c-2.667,1.6-4.775,3.895-6.32,6.88
		c-1.548,2.987-2.32,6.667-2.32,11.04v15.68c0,4.268,0.772,7.948,2.32,11.04c1.545,3.095,3.652,5.415,6.32,6.96
		C1441.99,855.989,1444.925,856.761,1448.125,856.761z"/>
	<path d="M865.815,1049.561v-109.76h76.32l-2.56,17.92h-50.56v27.04h46.88v17.6h-46.88v29.28h51.2l2.56,17.92H865.815z"/>
	<path d="M964.373,1049.561v-65.44h-9.6v-16.32h9.6v-13.28c0-7.572,2.24-13.04,6.72-16.4s10.185-5.04,17.12-5.04
		c1.705,0,3.6,0.135,5.68,0.4c2.08,0.268,4.16,0.615,6.24,1.04c2.08,0.428,3.812,1.015,5.2,1.76v13.28
		c-1.28-0.533-2.96-1.013-5.04-1.44c-2.08-0.425-3.707-0.64-4.88-0.64c-1.387,0-2.8,0.215-4.24,0.64
		c-1.44,0.427-2.615,1.308-3.52,2.64c-0.908,1.335-1.36,3.547-1.36,6.64v10.4h35.2v-13.28c0-7.572,2.212-13.04,6.64-16.4
		c4.425-3.36,10.16-5.04,17.2-5.04c1.705,0,3.6,0.135,5.68,0.4c2.08,0.268,4.16,0.615,6.24,1.04c2.08,0.428,3.812,1.015,5.2,1.76
		v13.28c-1.28-0.533-2.96-1.013-5.04-1.44c-2.08-0.425-3.708-0.64-4.88-0.64c-1.388,0-2.8,0.215-4.24,0.64
		c-1.44,0.427-2.615,1.308-3.52,2.64c-0.908,1.335-1.36,3.547-1.36,6.64v10.4h19.04v16.32h-19.04v65.44h-21.92v-65.44h-35.2v65.44
		H964.373z M1076.853,951.321v-16.96h22.4v16.96H1076.853z M1077.333,1049.561v-81.76h21.76v81.76H1077.333z"/>
	<path d="M1154.771,1051.161c-6.935,0-13.2-1.705-18.8-5.12c-5.6-3.413-10-8.132-13.2-14.16c-3.2-6.025-4.8-12.932-4.8-20.72v-4.96
		c0-5.865,0.985-11.225,2.96-16.08c1.973-4.853,4.665-9.093,8.08-12.72c3.413-3.625,7.413-6.4,12-8.32
		c4.585-1.92,9.493-2.88,14.72-2.88h3.04c7.145,0,13.36,1.415,18.64,4.24c5.28,2.828,9.333,6.775,12.16,11.84
		c2.825,5.067,4.24,11.015,4.24,17.84h-19.04c0-4.373-0.667-8-2-10.88c-1.335-2.88-3.228-5.065-5.68-6.56
		c-2.455-1.493-5.388-2.24-8.8-2.24c-4.908,0-9.015,1.68-12.32,5.04c-3.307,3.36-4.96,8.295-4.96,14.8v16.48
		c0,6.4,1.573,11.335,4.72,14.8c3.145,3.467,7.385,5.2,12.72,5.2c3.732,0,6.88-0.64,9.44-1.92c2.56-1.28,4.505-3.36,5.84-6.24
		c1.333-2.88,2-6.72,2-11.52h18.08c0,7.255-1.548,13.415-4.64,18.48c-3.095,5.067-7.36,8.935-12.8,11.6
		c-5.44,2.665-11.627,4-18.56,4H1154.771z"/>
	<path d="M1211.57,951.321v-16.96h22.56v16.96H1211.57z M1211.891,1049.561v-81.76h21.92v81.76H1211.891z"/>
	<path d="M1291.889,1051.161c-7.68,0-14.48-1.574-20.4-4.72c-5.92-3.145-10.535-7.732-13.84-13.76c-3.308-6.025-4.96-13.36-4.96-22
		v-4c0-8.64,1.732-15.973,5.2-22c3.465-6.025,8.212-10.613,14.24-13.76c6.025-3.145,12.88-4.72,20.56-4.72h2.56
		c7.253,0,13.573,1.467,18.96,4.4c5.385,2.935,9.545,7.04,12.48,12.32c2.932,5.28,4.4,11.44,4.4,18.48v10.08h-55.36
		c0,5.12,0.64,9.6,1.92,13.44c1.28,3.84,3.2,6.775,5.76,8.8c2.56,2.027,5.92,3.04,10.08,3.04c3.413,0,6.4-0.665,8.96-2
		c2.56-1.333,4.585-3.333,6.08-6c1.493-2.665,2.24-5.92,2.24-9.76h20.32c0,6.295-1.6,11.868-4.8,16.72
		c-3.2,4.855-7.6,8.64-13.2,11.359c-5.6,2.721-12.08,4.08-19.44,4.08H1291.889z M1275.889,1000.281h33.76
		c0-6.72-1.468-11.705-4.4-14.96c-2.935-3.252-6.96-4.88-12.08-4.88c-4.8,0-8.828,1.68-12.08,5.04
		C1277.834,988.841,1276.101,993.776,1275.889,1000.281z"/>
	<path d="M1349.486,1049.561v-81.76h16.16l2.56,12c3.2-4.585,7.065-8,11.6-10.24c4.532-2.24,9.68-3.36,15.44-3.36
		c5.545,0,10.425,1.067,14.64,3.2c4.213,2.135,7.465,5.175,9.76,9.12c2.292,3.948,3.44,8.748,3.44,14.4v56.64h-21.76v-52
		c0-5.225-1.28-9.065-3.84-11.52c-2.56-2.453-6.027-3.68-10.4-3.68c-2.775,0-5.388,0.72-7.84,2.16
		c-2.455,1.44-4.375,3.388-5.76,5.84c-1.387,2.455-2.08,5.228-2.08,8.32v50.88H1349.486z"/>
	<path d="M1478.284,1051.161c-6.935,0-13.2-1.705-18.8-5.12c-5.6-3.413-10-8.132-13.2-14.16c-3.2-6.025-4.8-12.932-4.8-20.72v-4.96
		c0-5.865,0.985-11.225,2.96-16.08c1.973-4.853,4.665-9.093,8.08-12.72c3.413-3.625,7.413-6.4,12-8.32
		c4.585-1.92,9.493-2.88,14.72-2.88h3.04c7.145,0,13.36,1.415,18.64,4.24c5.28,2.828,9.333,6.775,12.16,11.84
		c2.825,5.067,4.24,11.015,4.24,17.84h-19.04c0-4.373-0.667-8-2-10.88c-1.335-2.88-3.228-5.065-5.68-6.56
		c-2.455-1.493-5.388-2.24-8.8-2.24c-4.908,0-9.015,1.68-12.32,5.04c-3.307,3.36-4.96,8.295-4.96,14.8v16.48
		c0,6.4,1.573,11.335,4.72,14.8c3.145,3.467,7.385,5.2,12.72,5.2c3.732,0,6.88-0.64,9.44-1.92c2.56-1.28,4.505-3.36,5.84-6.24
		c1.333-2.88,2-6.72,2-11.52h18.08c0,7.255-1.548,13.415-4.641,18.48c-3.095,5.067-7.359,8.935-12.8,11.6
		c-5.44,2.665-11.627,4-18.56,4H1478.284z"/>
	<path d="M1544.204,1079.321c-2.668,0-5.12-0.188-7.36-0.56c-2.24-0.375-4.268-0.936-6.08-1.681v-15.84
		c1.173,0.533,2.772,0.985,4.8,1.36c2.025,0.372,4,0.56,5.92,0.56c2.88,0,5.226-0.56,7.04-1.68c1.812-1.12,3.333-2.827,4.561-5.12
		c1.225-2.295,2.425-5.095,3.6-8.399l-31.52-80.16h23.359l18.88,53.6h1.12l17.92-53.6h21.601l-29.601,77.6
		c-2.348,6.293-5.067,12-8.16,17.12c-3.095,5.12-6.747,9.2-10.96,12.24C1555.108,1077.801,1550.068,1079.321,1544.204,1079.321z"/>
</g>
<g>
	<path d="M905.259,1994.938l-36.48-109.76h24.16l26.4,79.84h0.64l26.08-79.84h22.4l-36.64,109.76H905.259z"/>
	<path d="M1013.579,1996.538c-7.68,0-14.48-1.575-20.4-4.72c-5.92-3.146-10.535-7.732-13.84-13.76c-3.308-6.025-4.96-13.36-4.96-22
		v-4c0-8.641,1.732-15.973,5.2-22c3.465-6.025,8.212-10.613,14.24-13.761c6.025-3.145,12.88-4.72,20.56-4.72h2.56
		c7.253,0,13.573,1.468,18.96,4.4c5.385,2.935,9.545,7.04,12.48,12.319c2.932,5.28,4.4,11.44,4.4,18.48v10.08h-55.36
		c0,5.12,0.64,9.6,1.92,13.439c1.28,3.841,3.2,6.775,5.76,8.801c2.56,2.027,5.92,3.04,10.08,3.04c3.413,0,6.4-0.665,8.96-2
		c2.56-1.333,4.585-3.333,6.08-6c1.493-2.665,2.24-5.921,2.24-9.761h20.32c0,6.295-1.6,11.868-4.8,16.721
		c-3.2,4.854-7.6,8.64-13.2,11.359c-5.6,2.721-12.08,4.08-19.44,4.08H1013.579z M997.579,1945.658h33.76
		c0-6.72-1.468-11.705-4.4-14.96c-2.935-3.253-6.96-4.88-12.08-4.88c-4.8,0-8.828,1.68-12.08,5.04
		C999.524,1934.218,997.792,1939.153,997.579,1945.658z"/>
	<path d="M1071.177,1994.938v-81.76h16.32l2.72,12c0.212-0.426,0.772-1.333,1.68-2.721c0.905-1.385,2.265-2.933,4.08-4.64
		c1.812-1.705,4.08-3.173,6.8-4.4c2.72-1.225,6-1.84,9.84-1.84c5.545,0,10.053,1.067,13.52,3.2c3.465,2.135,6.053,5.12,7.76,8.96
		c1.705,3.84,2.56,8.32,2.56,13.44c0,1.175-0.055,2.454-0.16,3.84c-0.107,1.387-0.215,2.614-0.32,3.68h-18.24v-3.36
		c0-2.024-0.4-4.08-1.2-6.159c-0.8-2.08-2.08-3.812-3.84-5.2c-1.76-1.386-4.188-2.08-7.28-2.08c-2.24,0-4.16,0.479-5.76,1.439
		s-2.907,2.16-3.92,3.601c-1.015,1.439-1.76,3.04-2.24,4.8s-0.72,3.388-0.72,4.88v52.32H1071.177z"/>
	<path d="M1151.176,1896.698v-16.96h22.56v16.96H1151.176z M1151.496,1994.938v-81.76h21.92v81.76H1151.496z"/>
	<path d="M1200.136,1994.938v-65.44h-9.76v-16.319h9.76v-13.28c0-7.572,2.212-13.04,6.64-16.4c4.425-3.359,10.16-5.04,17.2-5.04
		c1.705,0,3.6,0.135,5.68,0.4c2.08,0.268,4.16,0.615,6.24,1.04c2.08,0.428,3.812,1.015,5.2,1.76v13.28
		c-1.175-0.533-2.828-1.013-4.96-1.44c-2.135-0.425-3.788-0.64-4.96-0.64c-1.388,0-2.8,0.215-4.24,0.64
		c-1.44,0.428-2.615,1.308-3.52,2.641c-0.908,1.335-1.36,3.547-1.36,6.64v10.4h19.2v16.319h-19.2v65.44H1200.136z
		 M1253.576,1896.698v-16.96h22.24v16.96H1253.576z M1253.735,1994.938v-81.76h21.92v81.76H1253.735z"/>
	<path d="M1322.695,1996.538c-4.375,0-8.56-0.72-12.56-2.16c-4-1.439-7.28-3.84-9.84-7.199c-2.56-3.36-3.84-7.921-3.84-13.681
		c0-5.865,1.305-10.612,3.92-14.24c2.612-3.625,6.292-6.425,11.04-8.399c4.745-1.973,10.453-3.333,17.12-4.08
		c6.665-0.745,14.16-1.12,22.48-1.12v-7.2c0-4.692-1.28-8.024-3.84-10c-2.56-1.973-6.295-2.96-11.2-2.96
		c-4.16,0-7.815,0.936-10.96,2.8c-3.147,1.868-4.72,4.721-4.72,8.561v1.28h-20.96c-0.107-0.32-0.16-0.772-0.16-1.36
		c0-0.585,0-1.093,0-1.521c0-4.692,1.493-8.824,4.48-12.399c2.985-3.572,7.145-6.345,12.48-8.32c5.333-1.973,11.52-2.96,18.56-2.96
		h3.36c11.52,0,20.105,2.268,25.76,6.8c5.652,4.535,8.48,10.641,8.48,18.32v39.84c0,2.027,0.505,3.468,1.52,4.32
		c1.013,0.854,2.105,1.28,3.28,1.28c0.96,0,2.025-0.186,3.2-0.561c1.172-0.372,2.292-0.825,3.36-1.36v12.801
		c-1.387,1.067-3.227,1.92-5.52,2.56c-2.295,0.64-5.04,0.96-8.24,0.96c-3.84,0-7.04-0.615-9.6-1.84s-4.507-2.905-5.84-5.04
		c-1.335-2.133-2.16-4.585-2.48-7.36c-2.988,4.268-6.935,7.708-11.84,10.32C1335.228,1995.23,1329.415,1996.538,1322.695,1996.538z
		 M1332.935,1982.139c2.985,0,5.84-0.693,8.56-2.08c2.72-1.386,4.985-3.44,6.8-6.16c1.812-2.72,2.72-6.105,2.72-10.16v-6.56
		c-6.828,0-12.615,0.427-17.36,1.279c-4.747,0.855-8.347,2.268-10.8,4.24c-2.455,1.975-3.68,4.827-3.68,8.56
		c0,3.948,1.2,6.748,3.6,8.4C1325.175,1981.313,1328.56,1982.139,1332.935,1982.139z"/>
	<path d="M1441.413,1996.538c-11.947,0-21.067-4.8-27.36-14.399l-7.52,12.8h-8v-115.2h21.92v43.04c2.24-3.093,5.333-5.732,9.28-7.92
		c3.945-2.186,8.64-3.28,14.08-3.28c5.865,0,11.2,1.36,16,4.08c4.8,2.72,8.64,6.96,11.52,12.72c2.88,5.761,4.32,13.176,4.32,22.24
		v3.521c0,9.707-1.547,17.707-4.64,24c-3.095,6.295-7.255,10.935-12.48,13.92
		C1453.305,1995.043,1447.598,1996.538,1441.413,1996.538z M1436.773,1982.139c3.092,0,5.812-0.745,8.16-2.24
		c2.345-1.493,4.213-3.812,5.6-6.96c1.385-3.146,2.08-7.173,2.08-12.08v-14.4c0-4.479-0.667-8.185-2-11.12
		c-1.335-2.933-3.147-5.172-5.44-6.72c-2.295-1.545-4.987-2.32-8.08-2.32c-2.987,0-5.76,0.775-8.32,2.32
		c-2.56,1.548-4.587,3.815-6.08,6.8c-1.495,2.987-2.24,6.721-2.24,11.2v14.24c0,4.907,0.72,8.935,2.16,12.08
		c1.44,3.147,3.413,5.467,5.92,6.96C1431.038,1981.394,1433.785,1982.139,1436.773,1982.139z"/>
	<path d="M1494.372,1896.698v-16.96h22.56v16.96H1494.372z M1494.692,1994.938v-81.76h21.92v81.76H1494.692z"/>
	<path d="M1540.608,1994.938v-115.2h21.92v115.2H1540.608z"/>
	<path d="M1586.526,1896.698v-16.96h22.559v16.96H1586.526z M1586.844,1994.938v-81.76h21.92v81.76H1586.844z"/>
	<path d="M1659.003,1996.538c-4.587,0-8.694-0.64-12.319-1.92c-3.628-1.28-6.455-3.439-8.48-6.479
		c-2.027-3.04-3.04-7.065-3.04-12.08v-46.561h-8.96v-16.319h9.601l7.68-26.08h13.44v26.08h19.199v16.319h-19.199v41.76
		c0,4.695,0.96,7.681,2.88,8.96c1.92,1.28,4,1.921,6.239,1.921c1.173,0,2.801-0.24,4.881-0.721c2.079-0.479,3.76-0.984,5.039-1.52
		v13.439c-1.387,0.748-3.095,1.36-5.119,1.841c-2.028,0.479-4.08,0.824-6.16,1.039
		C1662.604,1996.431,1660.708,1996.538,1659.003,1996.538z"/>
	<path d="M1703.001,2024.698c-2.668,0-5.12-0.188-7.36-0.56c-2.24-0.375-4.268-0.936-6.08-1.681v-15.84
		c1.173,0.532,2.772,0.985,4.8,1.36c2.025,0.372,4,0.56,5.92,0.56c2.88,0,5.226-0.56,7.04-1.68c1.812-1.12,3.333-2.828,4.561-5.12
		c1.225-2.295,2.425-5.095,3.6-8.4l-31.52-80.159h23.359l18.88,53.6h1.12l17.92-53.6h21.601l-29.601,77.6
		c-2.348,6.292-5.067,12-8.16,17.12c-3.095,5.12-6.747,9.2-10.96,12.24C1713.906,2023.179,1708.866,2024.698,1703.001,2024.698z"/>
	<path d="M807.103,2176.538c-6.508,0-12.56-0.96-18.16-2.88s-10.535-4.905-14.8-8.96c-4.267-4.053-7.6-9.28-10-15.68
		c-2.4-6.4-3.6-14.133-3.6-23.2v-11.68c0-8.745,1.225-16.32,3.68-22.721c2.453-6.399,5.812-11.652,10.08-15.76
		c4.265-4.104,9.172-7.145,14.72-9.12c5.545-1.973,11.465-2.96,17.76-2.96h2.88c5.973,0,11.6,0.827,16.88,2.48
		c5.28,1.654,9.92,4.268,13.92,7.84c4,3.575,7.145,8.188,9.44,13.84c2.292,5.655,3.44,12.479,3.44,20.479h-21.92
		c0-7.039-0.987-12.505-2.96-16.399c-1.975-3.893-4.695-6.612-8.16-8.16c-3.467-1.545-7.547-2.32-12.24-2.32
		c-3.308,0-6.375,0.508-9.2,1.521c-2.828,1.015-5.255,2.615-7.28,4.8c-2.028,2.188-3.6,5.067-4.72,8.64
		c-1.12,3.575-1.68,7.92-1.68,13.04v21.44c0,6.827,0.96,12.295,2.88,16.4c1.92,4.107,4.585,7.067,8,8.88
		c3.412,1.814,7.412,2.72,12,2.72c5.012,0,9.333-0.772,12.96-2.32c3.625-1.545,6.4-4.265,8.32-8.16
		c1.92-3.893,2.88-9.305,2.88-16.239h21.12c0,7.574-1.147,14.159-3.44,19.76c-2.295,5.6-5.415,10.215-9.36,13.84
		c-3.948,3.628-8.535,6.348-13.76,8.16c-5.228,1.812-10.828,2.72-16.8,2.72H807.103z"/>
	<path d="M906.781,2176.538c-7.467,0-14.16-1.68-20.08-5.04c-5.92-3.359-10.56-8.132-13.92-14.319
		c-3.36-6.186-5.04-13.44-5.04-21.761v-2.88c0-8.425,1.68-15.68,5.04-21.76s7.973-10.8,13.84-14.16c5.865-3.36,12.532-5.04,20-5.04
		h3.2c7.573,0,14.292,1.68,20.16,5.04c5.865,3.36,10.48,8.08,13.84,14.16s5.04,13.335,5.04,21.76v2.88
		c0,8.428-1.68,15.708-5.04,21.84c-3.36,6.136-7.975,10.881-13.84,14.24c-5.868,3.36-12.535,5.04-20,5.04H906.781z
		 M908.221,2162.139c3.305,0,6.265-0.772,8.88-2.32c2.612-1.545,4.692-3.865,6.24-6.96c1.545-3.093,2.32-6.772,2.32-11.04v-15.68
		c0-4.373-0.775-8.053-2.32-11.04c-1.547-2.985-3.627-5.28-6.24-6.881c-2.615-1.6-5.575-2.399-8.88-2.399
		c-3.2,0-6.135,0.8-8.8,2.399c-2.667,1.601-4.775,3.896-6.32,6.881c-1.548,2.987-2.32,6.667-2.32,11.04v15.68
		c0,4.268,0.772,7.947,2.32,11.04c1.545,3.095,3.652,5.415,6.32,6.96C902.086,2161.366,905.021,2162.139,908.221,2162.139z"/>
	<path d="M966.939,2174.938v-81.76h16.16l2.56,12c3.2-4.586,7.065-8,11.6-10.24c4.532-2.24,9.68-3.36,15.44-3.36
		c5.545,0,10.425,1.067,14.64,3.2c4.213,2.135,7.465,5.175,9.76,9.12c2.292,3.947,3.44,8.747,3.44,14.399v56.641h-21.76v-52
		c0-5.226-1.28-9.065-3.84-11.521c-2.56-2.452-6.027-3.68-10.4-3.68c-2.775,0-5.388,0.72-7.84,2.16
		c-2.455,1.439-4.375,3.388-5.76,5.84c-1.387,2.455-2.08,5.228-2.08,8.32v50.88H966.939z"/>
	<path d="M1066.458,2174.938v-65.44h-9.76v-16.319h9.76v-13.28c0-7.572,2.212-13.04,6.64-16.4c4.425-3.359,10.16-5.04,17.2-5.04
		c1.705,0,3.6,0.135,5.68,0.4c2.08,0.268,4.16,0.615,6.24,1.04c2.08,0.428,3.812,1.015,5.2,1.76v13.28
		c-1.175-0.533-2.828-1.013-4.96-1.44c-2.135-0.425-3.788-0.64-4.96-0.64c-1.388,0-2.8,0.215-4.24,0.64
		c-1.44,0.428-2.615,1.308-3.52,2.641c-0.908,1.335-1.36,3.547-1.36,6.64v10.4h19.2v16.319h-19.2v65.44H1066.458z
		 M1119.897,2076.698v-16.96h22.24v16.96H1119.897z M1120.057,2174.938v-81.76h21.92v81.76H1120.057z"/>
	<path d="M1197.497,2176.538c-6.4,0-12.107-1.495-17.12-4.479c-5.015-2.985-8.988-7.625-11.92-13.92c-2.935-6.293-4.4-14.293-4.4-24
		v-1.761c0-9.064,1.465-16.612,4.4-22.64c2.933-6.025,6.853-10.56,11.76-13.6c4.905-3.04,10.24-4.561,16-4.561
		c5.76,0,10.585,1.067,14.48,3.2c3.893,2.135,6.853,4.8,8.88,8v-43.04h21.76v115.2h-17.12l-2.4-10.88
		c-2.56,3.627-5.815,6.614-9.76,8.96C1208.109,2175.363,1203.257,2176.538,1197.497,2176.538z M1203.097,2162.139
		c3.093,0,5.865-0.745,8.32-2.24c2.452-1.493,4.425-3.812,5.92-6.96c1.492-3.146,2.24-7.173,2.24-12.08v-14.24
		c0-4.479-0.72-8.213-2.16-11.2c-1.44-2.984-3.415-5.252-5.92-6.8c-2.507-1.545-5.307-2.32-8.4-2.32c-4.48,0-8.268,1.735-11.36,5.2
		c-3.095,3.468-4.64,8.508-4.64,15.12v14.24c0,4.907,0.72,8.935,2.16,12.08c1.44,3.147,3.36,5.467,5.76,6.96
		C1197.417,2161.394,1200.109,2162.139,1203.097,2162.139z"/>
	<path d="M1298.614,2176.538c-7.68,0-14.48-1.575-20.4-4.72c-5.92-3.146-10.535-7.732-13.84-13.76c-3.308-6.025-4.96-13.36-4.96-22
		v-4c0-8.641,1.732-15.973,5.2-22c3.465-6.025,8.212-10.613,14.24-13.761c6.025-3.145,12.88-4.72,20.56-4.72h2.56
		c7.253,0,13.573,1.468,18.96,4.4c5.385,2.935,9.545,7.04,12.48,12.319c2.932,5.28,4.4,11.44,4.4,18.48v10.08h-55.36
		c0,5.12,0.64,9.6,1.92,13.439c1.28,3.841,3.2,6.775,5.76,8.801c2.56,2.027,5.92,3.04,10.08,3.04c3.413,0,6.4-0.665,8.96-2
		c2.56-1.333,4.585-3.333,6.08-6c1.493-2.665,2.24-5.921,2.24-9.761h20.32c0,6.295-1.6,11.868-4.8,16.721
		c-3.2,4.854-7.6,8.64-13.2,11.359c-5.6,2.721-12.08,4.08-19.44,4.08H1298.614z M1282.614,2125.658h33.76
		c0-6.72-1.468-11.705-4.4-14.96c-2.935-3.253-6.96-4.88-12.08-4.88c-4.8,0-8.828,1.68-12.08,5.04
		C1284.56,2114.218,1282.827,2119.153,1282.614,2125.658z"/>
	<path d="M1356.212,2174.938v-81.76h16.16l2.56,12c3.2-4.586,7.065-8,11.6-10.24c4.532-2.24,9.68-3.36,15.44-3.36
		c5.545,0,10.425,1.067,14.64,3.2c4.213,2.135,7.465,5.175,9.76,9.12c2.292,3.947,3.44,8.747,3.44,14.399v56.641h-21.76v-52
		c0-5.226-1.28-9.065-3.84-11.521c-2.56-2.452-6.027-3.68-10.4-3.68c-2.775,0-5.388,0.72-7.84,2.16
		c-2.455,1.439-4.375,3.388-5.76,5.84c-1.387,2.455-2.08,5.228-2.08,8.32v50.88H1356.212z"/>
	<path d="M1479.09,2176.538c-4.587,0-8.695-0.64-12.32-1.92c-3.628-1.28-6.455-3.439-8.48-6.479c-2.027-3.04-3.04-7.065-3.04-12.08
		v-46.561h-8.96v-16.319h9.6l7.68-26.08h13.44v26.08h19.2v16.319h-19.2v41.76c0,4.695,0.96,7.681,2.88,8.96
		c1.92,1.28,4,1.921,6.24,1.921c1.172,0,2.8-0.24,4.88-0.721c2.08-0.479,3.76-0.984,5.04-1.52v13.439
		c-1.388,0.748-3.095,1.36-5.12,1.841c-2.027,0.479-4.08,0.824-6.16,1.039C1482.69,2176.431,1480.795,2176.538,1479.09,2176.538z"/>
	<path d="M1513.967,2076.698v-16.96h22.56v16.96H1513.967z M1514.288,2174.938v-81.76h21.92v81.76H1514.288z"/>
	<path d="M1580.206,2176.538c-4.375,0-8.56-0.72-12.56-2.16c-4-1.439-7.28-3.84-9.84-7.199c-2.56-3.36-3.84-7.921-3.84-13.681
		c0-5.865,1.305-10.612,3.92-14.24c2.612-3.625,6.292-6.425,11.04-8.399c4.745-1.973,10.453-3.333,17.12-4.08
		c6.666-0.745,14.16-1.12,22.48-1.12v-7.2c0-4.692-1.279-8.024-3.84-10c-2.561-1.973-6.295-2.96-11.201-2.96
		c-4.158,0-7.814,0.936-10.959,2.8c-3.147,1.868-4.72,4.721-4.72,8.561v1.28h-20.96c-0.107-0.32-0.16-0.772-0.16-1.36
		c0-0.585,0-1.093,0-1.521c0-4.692,1.493-8.824,4.48-12.399c2.985-3.572,7.145-6.345,12.48-8.32c5.333-1.973,11.52-2.96,18.56-2.96
		h3.359c11.521,0,20.105,2.268,25.762,6.8c5.652,4.535,8.479,10.641,8.479,18.32v39.84c0,2.027,0.506,3.468,1.521,4.32
		c1.012,0.854,2.104,1.28,3.279,1.28c0.959,0,2.025-0.186,3.199-0.561c1.174-0.372,2.293-0.825,3.361-1.36v12.801
		c-1.389,1.067-3.229,1.92-5.521,2.56c-2.295,0.64-5.039,0.96-8.24,0.96c-3.84,0-7.039-0.615-9.6-1.84
		c-2.559-1.225-4.508-2.905-5.84-5.04c-1.334-2.133-2.16-4.585-2.48-7.36c-2.986,4.268-6.934,7.708-11.84,10.32
		S1586.926,2176.538,1580.206,2176.538z M1590.446,2162.139c2.984,0,5.84-0.693,8.561-2.08c2.719-1.386,4.984-3.44,6.799-6.16
		c1.812-2.72,2.721-6.105,2.721-10.16v-6.56c-6.828,0-12.615,0.427-17.359,1.279c-4.748,0.855-8.348,2.268-10.801,4.24
		c-2.455,1.975-3.68,4.827-3.68,8.56c0,3.948,1.2,6.748,3.6,8.4C1582.686,2161.313,1586.071,2162.139,1590.446,2162.139z"/>
	<path d="M1656.043,2174.938v-115.2h21.92v115.2H1656.043z"/>
	<path d="M1701.96,2076.698v-16.96h22.56v16.96H1701.96z M1702.28,2174.938v-81.76h21.92v81.76H1702.28z"/>
	<path d="M1774.439,2176.538c-4.587,0-8.694-0.64-12.319-1.92c-3.628-1.28-6.455-3.439-8.48-6.479
		c-2.027-3.04-3.04-7.065-3.04-12.08v-46.561h-8.96v-16.319h9.601l7.68-26.08h13.44v26.08h19.199v16.319h-19.199v41.76
		c0,4.695,0.96,7.681,2.88,8.96c1.92,1.28,4,1.921,6.239,1.921c1.173,0,2.801-0.24,4.881-0.721c2.079-0.479,3.76-0.984,5.039-1.52
		v13.439c-1.387,0.748-3.095,1.36-5.119,1.841c-2.028,0.479-4.08,0.824-6.16,1.039
		C1778.04,2176.431,1776.144,2176.538,1774.439,2176.538z"/>
	<path d="M1818.437,2204.698c-2.668,0-5.12-0.188-7.36-0.56c-2.24-0.375-4.268-0.936-6.08-1.681v-15.84
		c1.173,0.532,2.772,0.985,4.8,1.36c2.025,0.372,4,0.56,5.92,0.56c2.88,0,5.226-0.56,7.04-1.68c1.812-1.12,3.333-2.828,4.561-5.12
		c1.225-2.295,2.425-5.095,3.6-8.4l-31.52-80.159h23.359l18.88,53.6h1.12l17.92-53.6h21.601l-29.601,77.6
		c-2.348,6.292-5.067,12-8.16,17.12c-3.095,5.12-6.747,9.2-10.96,12.24C1829.341,2203.179,1824.301,2204.698,1818.437,2204.698z"/>
</g>
<g>
	<path d="M2191.391,758.873l40.319-109.76h27.84l40.16,109.76h-24.319l-8.48-22.72h-44.479l-8.48,22.72H2191.391z M2228.19,719.353
		h32.8l-16-45.6h-0.64L2228.19,719.353z"/>
	<path d="M2344.51,760.473c-6.935,0-13.2-1.705-18.8-5.12c-5.601-3.413-10-8.132-13.2-14.16c-3.2-6.025-4.8-12.932-4.8-20.72v-4.96
		c0-5.865,0.985-11.225,2.96-16.08c1.973-4.853,4.665-9.093,8.08-12.72c3.412-3.625,7.412-6.4,12-8.32
		c4.585-1.92,9.492-2.88,14.72-2.88h3.04c7.146,0,13.36,1.415,18.64,4.24c5.28,2.828,9.333,6.775,12.16,11.84
		c2.825,5.067,4.24,11.015,4.24,17.84h-19.04c0-4.373-0.667-8-2-10.88c-1.335-2.88-3.228-5.065-5.68-6.56
		c-2.455-1.493-5.388-2.24-8.8-2.24c-4.908,0-9.016,1.68-12.32,5.04c-3.308,3.36-4.96,8.295-4.96,14.8v16.48
		c0,6.4,1.572,11.335,4.72,14.8c3.146,3.467,7.385,5.2,12.72,5.2c3.732,0,6.881-0.64,9.44-1.92c2.56-1.28,4.505-3.36,5.84-6.24
		c1.333-2.88,2-6.72,2-11.52h18.08c0,7.255-1.548,13.415-4.64,18.48c-3.096,5.067-7.36,8.935-12.801,11.6
		c-5.439,2.665-11.627,4-18.56,4H2344.51z"/>
	<path d="M2434.109,760.473c-6.935,0-13.2-1.705-18.8-5.12c-5.601-3.413-10-8.132-13.2-14.16c-3.2-6.025-4.8-12.932-4.8-20.72v-4.96
		c0-5.865,0.985-11.225,2.96-16.08c1.973-4.853,4.665-9.093,8.08-12.72c3.412-3.625,7.412-6.4,12-8.32
		c4.585-1.92,9.492-2.88,14.72-2.88h3.04c7.146,0,13.36,1.415,18.64,4.24c5.28,2.828,9.333,6.775,12.16,11.84
		c2.825,5.067,4.24,11.015,4.24,17.84h-19.04c0-4.373-0.667-8-2-10.88c-1.335-2.88-3.228-5.065-5.68-6.56
		c-2.455-1.493-5.388-2.24-8.8-2.24c-4.908,0-9.016,1.68-12.32,5.04c-3.308,3.36-4.96,8.295-4.96,14.8v16.48
		c0,6.4,1.572,11.335,4.72,14.8c3.146,3.467,7.385,5.2,12.72,5.2c3.732,0,6.881-0.64,9.44-1.92c2.56-1.28,4.505-3.36,5.84-6.24
		c1.333-2.88,2-6.72,2-11.52h18.08c0,7.255-1.548,13.415-4.64,18.48c-3.096,5.067-7.36,8.935-12.801,11.6
		c-5.439,2.665-11.627,4-18.56,4H2434.109z"/>
	<path d="M2525.949,760.473c-7.468,0-14.16-1.68-20.08-5.04s-10.561-8.132-13.92-14.32c-3.36-6.185-5.04-13.44-5.04-21.76v-2.88
		c0-8.425,1.68-15.68,5.04-21.76c3.359-6.08,7.973-10.8,13.84-14.16c5.865-3.36,12.532-5.04,20-5.04h3.2
		c7.572,0,14.292,1.68,20.16,5.04c5.864,3.36,10.479,8.08,13.84,14.16c3.359,6.08,5.04,13.335,5.04,21.76v2.88
		c0,8.428-1.681,15.708-5.04,21.84c-3.36,6.135-7.976,10.88-13.84,14.24c-5.868,3.36-12.535,5.04-20,5.04H2525.949z
		 M2527.389,746.073c3.306,0,6.266-0.772,8.881-2.32c2.612-1.545,4.692-3.865,6.239-6.96c1.545-3.092,2.32-6.772,2.32-11.04v-15.68
		c0-4.373-0.775-8.053-2.32-11.04c-1.547-2.985-3.627-5.28-6.239-6.88c-2.615-1.6-5.575-2.4-8.881-2.4c-3.199,0-6.135,0.8-8.8,2.4
		c-2.667,1.6-4.774,3.895-6.319,6.88c-1.548,2.987-2.32,6.667-2.32,11.04v15.68c0,4.268,0.772,7.948,2.32,11.04
		c1.545,3.095,3.652,5.415,6.319,6.96C2521.254,745.301,2524.189,746.073,2527.389,746.073z"/>
	<path d="M2612.508,760.473c-8.428,0-15.067-2.32-19.92-6.96c-4.855-4.64-7.28-11.44-7.28-20.4v-56h21.92v51.2
		c0,5.547,1.146,9.6,3.44,12.16c2.292,2.56,5.68,3.84,10.16,3.84c2.984,0,5.705-0.745,8.159-2.24c2.453-1.493,4.453-3.465,6-5.92
		c1.546-2.452,2.32-5.172,2.32-8.16v-50.88h21.76v63.36c0,2.027,0.506,3.467,1.521,4.32c1.013,0.855,2.104,1.28,3.28,1.28
		c1.064,0,2.159-0.185,3.279-0.56c1.12-0.373,2.213-0.825,3.28-1.36v12.8c-1.388,1.067-3.228,1.92-5.52,2.56
		c-2.296,0.64-5.04,0.96-8.24,0.96c-3.735,0-6.855-0.587-9.36-1.76c-2.508-1.172-4.399-2.8-5.68-4.88s-2.24-4.292-2.88-6.64
		c-2.668,4.16-6.348,7.415-11.04,9.76C2623.013,759.298,2617.948,760.473,2612.508,760.473z"/>
	<path d="M2685.946,758.873v-81.76h16.16l2.561,12c3.199-4.585,7.064-8,11.6-10.24c4.532-2.24,9.68-3.36,15.44-3.36
		c5.545,0,10.425,1.067,14.64,3.2c4.213,2.135,7.465,5.175,9.76,9.12c2.293,3.948,3.44,8.748,3.44,14.4v56.64h-21.76v-52
		c0-5.225-1.28-9.065-3.841-11.52c-2.56-2.453-6.027-3.68-10.399-3.68c-2.775,0-5.388,0.72-7.84,2.16
		c-2.455,1.44-4.375,3.388-5.761,5.84c-1.387,2.455-2.08,5.228-2.08,8.32v50.88H2685.946z"/>
	<path d="M2808.824,760.473c-4.587,0-8.694-0.64-12.319-1.92c-3.628-1.28-6.455-3.44-8.48-6.48c-2.027-3.04-3.04-7.065-3.04-12.08
		v-46.56h-8.96v-16.32h9.6l7.681-26.08h13.439v26.08h19.2v16.32h-19.2v41.76c0,4.695,0.96,7.68,2.88,8.96
		c1.92,1.28,4,1.92,6.24,1.92c1.173,0,2.8-0.24,4.88-0.72s3.761-0.985,5.04-1.52v13.44c-1.388,0.748-3.095,1.36-5.12,1.84
		c-2.027,0.48-4.08,0.825-6.159,1.04C2812.425,760.366,2810.529,760.473,2808.824,760.473z"/>
	<path d="M2864.662,760.473c-4.375,0-8.561-0.72-12.561-2.16s-7.279-3.84-9.84-7.2c-2.56-3.36-3.84-7.92-3.84-13.68
		c0-5.865,1.305-10.613,3.92-14.24c2.612-3.625,6.293-6.425,11.04-8.4c4.745-1.973,10.453-3.333,17.12-4.08
		c6.665-0.745,14.16-1.12,22.48-1.12v-7.2c0-4.692-1.28-8.025-3.841-10c-2.56-1.973-6.295-2.96-11.199-2.96
		c-4.16,0-7.815,0.935-10.96,2.8c-3.147,1.868-4.721,4.72-4.721,8.56v1.28h-20.96c-0.107-0.32-0.16-0.772-0.16-1.36
		c0-0.585,0-1.092,0-1.52c0-4.692,1.493-8.825,4.48-12.4c2.985-3.572,7.145-6.345,12.479-8.32c5.333-1.973,11.521-2.96,18.561-2.96
		h3.36c11.52,0,20.104,2.268,25.76,6.8c5.652,4.535,8.479,10.64,8.479,18.32v39.84c0,2.027,0.505,3.467,1.521,4.32
		c1.013,0.855,2.104,1.28,3.28,1.28c0.96,0,2.024-0.185,3.199-0.56c1.173-0.373,2.293-0.825,3.36-1.36v12.8
		c-1.388,1.067-3.228,1.92-5.521,2.56c-2.295,0.64-5.039,0.96-8.239,0.96c-3.84,0-7.04-0.615-9.601-1.84
		c-2.56-1.225-4.507-2.905-5.84-5.04c-1.335-2.133-2.16-4.585-2.479-7.36c-2.988,4.268-6.936,7.708-11.841,10.32
		C2877.194,759.166,2871.382,760.473,2864.662,760.473z M2874.902,746.073c2.984,0,5.84-0.693,8.56-2.08
		c2.72-1.385,4.985-3.44,6.8-6.16c1.812-2.72,2.721-6.105,2.721-10.16v-6.56c-6.828,0-12.615,0.427-17.36,1.28
		c-4.747,0.855-8.348,2.268-10.8,4.24c-2.455,1.975-3.681,4.828-3.681,8.56c0,3.948,1.2,6.748,3.601,8.4
		C2867.142,745.248,2870.527,746.073,2874.902,746.073z"/>
	<path d="M2983.38,760.473c-11.947,0-21.067-4.8-27.36-14.4l-7.52,12.8h-8v-115.2h21.92v43.04c2.24-3.092,5.332-5.732,9.28-7.92
		c3.944-2.185,8.64-3.28,14.08-3.28c5.864,0,11.199,1.36,16,4.08c4.8,2.72,8.64,6.96,11.52,12.72c2.88,5.76,4.32,13.175,4.32,22.24
		v3.52c0,9.708-1.548,17.708-4.641,24c-3.095,6.295-7.255,10.935-12.479,13.92C2995.272,758.978,2989.564,760.473,2983.38,760.473z
		 M2978.74,746.073c3.092,0,5.812-0.745,8.159-2.24c2.346-1.493,4.213-3.812,5.601-6.96c1.385-3.145,2.08-7.172,2.08-12.08v-14.4
		c0-4.48-0.668-8.185-2-11.12c-1.335-2.933-3.147-5.172-5.44-6.72c-2.295-1.545-4.987-2.32-8.08-2.32
		c-2.987,0-5.76,0.775-8.319,2.32c-2.561,1.547-4.588,3.815-6.08,6.8c-1.495,2.987-2.24,6.72-2.24,11.2v14.24
		c0,4.908,0.72,8.935,2.16,12.08c1.439,3.147,3.412,5.467,5.92,6.96C2973.005,745.328,2975.752,746.073,2978.74,746.073z"/>
	<path d="M3036.34,660.633v-16.96h22.56v16.96H3036.34z M3036.659,758.873v-81.76h21.92v81.76H3036.659z"/>
	<path d="M3082.575,758.873v-115.2h21.92v115.2H3082.575z"/>
	<path d="M3128.492,660.633v-16.96h22.56v16.96H3128.492z M3128.812,758.873v-81.76h21.92v81.76H3128.812z"/>
	<path d="M3200.971,760.473c-4.587,0-8.694-0.64-12.319-1.92c-3.628-1.28-6.455-3.44-8.48-6.48c-2.027-3.04-3.04-7.065-3.04-12.08
		v-46.56h-8.96v-16.32h9.601l7.68-26.08h13.44v26.08h19.199v16.32h-19.199v41.76c0,4.695,0.96,7.68,2.88,8.96
		c1.92,1.28,4,1.92,6.239,1.92c1.173,0,2.801-0.24,4.881-0.72c2.079-0.48,3.76-0.985,5.039-1.52v13.44
		c-1.387,0.748-3.095,1.36-5.119,1.84c-2.028,0.48-4.08,0.825-6.16,1.04C3204.571,760.366,3202.676,760.473,3200.971,760.473z"/>
	<path d="M3244.969,788.633c-2.668,0-5.12-0.188-7.36-0.56c-2.24-0.375-4.268-0.935-6.08-1.68v-15.84
		c1.173,0.532,2.772,0.985,4.8,1.36c2.025,0.373,4,0.56,5.92,0.56c2.88,0,5.226-0.56,7.04-1.68c1.812-1.12,3.333-2.828,4.561-5.12
		c1.225-2.295,2.425-5.095,3.6-8.4l-31.52-80.16h23.359l18.88,53.6h1.12l17.92-53.6h21.601l-29.601,77.6
		c-2.348,6.292-5.067,12-8.16,17.12c-3.095,5.12-6.747,9.2-10.96,12.24C3255.873,787.113,3250.833,788.633,3244.969,788.633z"/>
	<path d="M2265.792,940.473c-7.787,0-14.907-1.147-21.359-3.44c-6.455-2.292-11.628-5.893-15.521-10.8
		c-3.895-4.905-5.84-11.36-5.84-19.36c0-0.64,0-1.252,0-1.84c0-0.585,0.053-1.145,0.16-1.68h21.6c-0.107,0.535-0.16,1.015-0.16,1.44
		c0,0.428,0,0.908,0,1.44c0,3.415,0.825,6.348,2.48,8.8c1.652,2.455,4.104,4.32,7.36,5.6c3.252,1.28,7.119,1.92,11.6,1.92
		c5.013,0,9.12-0.505,12.32-1.52c3.199-1.013,5.6-2.585,7.199-4.72c1.601-2.132,2.4-4.745,2.4-7.84c0-3.305-1.147-5.945-3.439-7.92
		c-2.296-1.973-5.28-3.545-8.961-4.72c-3.68-1.172-7.734-2.265-12.159-3.28c-4.428-1.013-8.855-2.213-13.28-3.6
		c-4.428-1.385-8.508-3.252-12.24-5.6c-3.734-2.345-6.72-5.44-8.96-9.28c-2.24-3.84-3.36-8.745-3.36-14.72
		c0-7.145,1.945-13.065,5.841-17.76c3.893-4.693,9.064-8.213,15.52-10.56c6.452-2.345,13.465-3.52,21.04-3.52
		c7.572,0,14.452,1.095,20.64,3.28c6.186,2.188,11.146,5.6,14.881,10.24c3.732,4.64,5.6,10.64,5.6,18v2.08h-21.28v-1.92
		c0-2.88-0.774-5.385-2.319-7.52c-1.548-2.132-3.761-3.76-6.641-4.88s-6.399-1.68-10.56-1.68c-3.84,0-7.228,0.4-10.16,1.2
		c-2.936,0.8-5.2,2.08-6.8,3.84c-1.601,1.76-2.4,4.028-2.4,6.8c0,3.2,1.12,5.76,3.36,7.68c2.24,1.92,5.225,3.44,8.96,4.56
		c3.732,1.12,7.865,2.188,12.399,3.2c4.533,1.015,9.013,2.188,13.44,3.52c4.425,1.335,8.505,3.147,12.24,5.44
		c3.732,2.295,6.72,5.335,8.96,9.12c2.24,3.788,3.359,8.615,3.359,14.48c0,8.535-2.027,15.387-6.08,20.56
		c-4.055,5.175-9.52,8.96-16.399,11.36S2274.537,940.473,2265.792,940.473z"/>
	<path d="M2356.19,940.473c-8.427,0-15.067-2.32-19.92-6.96c-4.854-4.64-7.279-11.44-7.279-20.4v-56h21.92v51.2
		c0,5.547,1.145,9.6,3.439,12.16c2.293,2.56,5.681,3.84,10.16,3.84c2.985,0,5.705-0.745,8.16-2.24c2.452-1.493,4.452-3.465,6-5.92
		c1.545-2.452,2.32-5.172,2.32-8.16v-50.88h21.76v63.36c0,2.027,0.505,3.467,1.52,4.32c1.013,0.855,2.105,1.28,3.28,1.28
		c1.065,0,2.16-0.185,3.28-0.56c1.12-0.373,2.212-0.825,3.28-1.36v12.8c-1.388,1.067-3.228,1.92-5.521,2.56
		c-2.295,0.64-5.04,0.96-8.24,0.96c-3.734,0-6.854-0.587-9.359-1.76c-2.508-1.172-4.4-2.8-5.681-4.88
		c-1.279-2.08-2.239-4.292-2.88-6.64c-2.667,4.16-6.348,7.415-11.04,9.76C2366.696,939.298,2361.631,940.473,2356.19,940.473z"/>
	<path d="M2458.91,940.473c-5.12,0-9.761-0.64-13.92-1.92c-4.16-1.28-7.761-3.013-10.801-5.2c-3.04-2.185-5.359-4.745-6.96-7.68
		c-1.6-2.932-2.399-6.105-2.399-9.52c0-0.64,0-1.172,0-1.6c0-0.425,0.052-1.013,0.16-1.76h18.56c-0.107,0.32-0.16,0.615-0.16,0.88
		c0,0.268,0,0.508,0,0.72c0,2.667,0.905,4.88,2.72,6.64c1.812,1.76,4.16,3.04,7.04,3.84s5.973,1.2,9.28,1.2
		c2.665,0,5.36-0.32,8.08-0.96c2.72-0.64,4.985-1.68,6.8-3.12c1.812-1.44,2.72-3.28,2.72-5.52c0-2.453-0.935-4.345-2.8-5.68
		c-1.867-1.333-4.375-2.4-7.52-3.2c-3.147-0.8-6.588-1.493-10.32-2.08c-3.735-0.585-7.495-1.333-11.28-2.24
		c-3.787-0.905-7.255-2.212-10.399-3.92c-3.147-1.705-5.655-4.025-7.521-6.96c-1.867-2.933-2.8-6.8-2.8-11.6
		c0-4.052,0.933-7.68,2.8-10.88c1.865-3.2,4.426-5.865,7.681-8c3.252-2.132,6.984-3.732,11.199-4.8c4.213-1.065,8.613-1.6,13.2-1.6
		h3.2c4.265,0,8.345,0.535,12.24,1.6c3.893,1.067,7.385,2.587,10.479,4.56c3.093,1.975,5.521,4.32,7.28,7.04
		c1.76,2.72,2.64,5.68,2.64,8.88c0,0.535-0.027,1.147-0.08,1.84c-0.055,0.695-0.135,1.147-0.239,1.36h-18.561v-1.28
		c0-1.173-0.295-2.32-0.88-3.44c-0.587-1.12-1.547-2.16-2.88-3.12c-1.335-0.96-3.04-1.732-5.12-2.32
		c-2.08-0.585-4.56-0.88-7.439-0.88c-2.561,0-4.855,0.24-6.881,0.72c-2.027,0.48-3.734,1.12-5.119,1.92
		c-1.388,0.8-2.4,1.735-3.04,2.8c-0.641,1.068-0.96,2.135-0.96,3.2c0,2.24,0.96,3.975,2.88,5.2c1.92,1.227,4.452,2.188,7.6,2.88
		c3.146,0.695,6.612,1.335,10.4,1.92c3.785,0.587,7.545,1.308,11.279,2.16c3.733,0.855,7.2,2.16,10.4,3.92
		c3.2,1.76,5.732,4.135,7.6,7.12c1.865,2.987,2.801,6.88,2.801,11.68c0,5.015-0.96,9.28-2.88,12.8c-1.921,3.52-4.588,6.32-8,8.4
		c-3.415,2.08-7.256,3.6-11.521,4.56c-4.268,0.96-8.747,1.44-13.44,1.44H2458.91z"/>
	<path d="M2545.149,940.473c-4.588,0-8.695-0.64-12.32-1.92c-3.628-1.28-6.455-3.44-8.48-6.48c-2.027-3.04-3.039-7.065-3.039-12.08
		v-46.56h-8.961v-16.32h9.601l7.68-26.08h13.44v26.08h19.2v16.32h-19.2v41.76c0,4.695,0.96,7.68,2.88,8.96
		c1.92,1.28,4,1.92,6.24,1.92c1.172,0,2.8-0.24,4.88-0.72s3.76-0.985,5.04-1.52v13.44c-1.388,0.748-3.096,1.36-5.12,1.84
		c-2.027,0.48-4.08,0.825-6.16,1.04C2548.749,940.366,2546.854,940.473,2545.149,940.473z"/>
	<path d="M2600.986,940.473c-4.375,0-8.56-0.72-12.56-2.16s-7.28-3.84-9.84-7.2c-2.561-3.36-3.84-7.92-3.84-13.68
		c0-5.865,1.305-10.613,3.92-14.24c2.612-3.625,6.292-6.425,11.04-8.4c4.745-1.973,10.452-3.333,17.12-4.08
		c6.665-0.745,14.159-1.12,22.479-1.12v-7.2c0-4.692-1.28-8.025-3.84-10c-2.56-1.973-6.295-2.96-11.2-2.96
		c-4.16,0-7.814,0.935-10.96,2.8c-3.147,1.868-4.72,4.72-4.72,8.56v1.28h-20.96c-0.107-0.32-0.16-0.772-0.16-1.36
		c0-0.585,0-1.092,0-1.52c0-4.692,1.492-8.825,4.479-12.4c2.985-3.572,7.146-6.345,12.48-8.32c5.332-1.973,11.52-2.96,18.56-2.96
		h3.36c11.521,0,20.105,2.268,25.76,6.8c5.652,4.535,8.48,10.64,8.48,18.32v39.84c0,2.027,0.505,3.467,1.52,4.32
		c1.013,0.855,2.105,1.28,3.28,1.28c0.96,0,2.025-0.185,3.2-0.56c1.172-0.373,2.292-0.825,3.359-1.36v12.8
		c-1.387,1.067-3.227,1.92-5.52,2.56c-2.295,0.64-5.04,0.96-8.24,0.96c-3.84,0-7.04-0.615-9.6-1.84
		c-2.561-1.225-4.508-2.905-5.84-5.04c-1.335-2.133-2.16-4.585-2.48-7.36c-2.987,4.268-6.935,7.708-11.84,10.32
		C2613.52,939.166,2607.707,940.473,2600.986,940.473z M2611.227,926.073c2.985,0,5.84-0.693,8.561-2.08
		c2.72-1.385,4.984-3.44,6.8-6.16c1.812-2.72,2.72-6.105,2.72-10.16v-6.56c-6.827,0-12.615,0.427-17.36,1.28
		c-4.747,0.855-8.347,2.268-10.8,4.24c-2.455,1.975-3.68,4.828-3.68,8.56c0,3.948,1.2,6.748,3.6,8.4
		C2603.467,925.248,2606.852,926.073,2611.227,926.073z"/>
	<path d="M2677.305,840.633v-16.96h22.56v16.96H2677.305z M2677.625,938.873v-81.76h21.92v81.76H2677.625z"/>
	<path d="M2722.103,938.873v-81.76h16.16l2.561,12c3.199-4.585,7.064-8,11.6-10.24c4.532-2.24,9.68-3.36,15.44-3.36
		c5.545,0,10.425,1.067,14.64,3.2c4.213,2.135,7.465,5.175,9.76,9.12c2.293,3.948,3.44,8.748,3.44,14.4v56.64h-21.76v-52
		c0-5.225-1.28-9.065-3.841-11.52c-2.56-2.453-6.027-3.68-10.399-3.68c-2.775,0-5.388,0.72-7.84,2.16
		c-2.455,1.44-4.375,3.388-5.761,5.84c-1.387,2.455-2.08,5.228-2.08,8.32v50.88H2722.103z"/>
	<path d="M2839.061,940.473c-4.375,0-8.561-0.72-12.561-2.16s-7.279-3.84-9.84-7.2c-2.56-3.36-3.84-7.92-3.84-13.68
		c0-5.865,1.305-10.613,3.92-14.24c2.612-3.625,6.293-6.425,11.04-8.4c4.745-1.973,10.453-3.333,17.12-4.08
		c6.665-0.745,14.16-1.12,22.48-1.12v-7.2c0-4.692-1.28-8.025-3.841-10c-2.56-1.973-6.295-2.96-11.199-2.96
		c-4.16,0-7.815,0.935-10.96,2.8c-3.147,1.868-4.721,4.72-4.721,8.56v1.28h-20.96c-0.107-0.32-0.16-0.772-0.16-1.36
		c0-0.585,0-1.092,0-1.52c0-4.692,1.493-8.825,4.48-12.4c2.985-3.572,7.145-6.345,12.479-8.32c5.333-1.973,11.521-2.96,18.561-2.96
		h3.36c11.52,0,20.104,2.268,25.76,6.8c5.652,4.535,8.479,10.64,8.479,18.32v39.84c0,2.027,0.505,3.467,1.521,4.32
		c1.013,0.855,2.104,1.28,3.28,1.28c0.96,0,2.024-0.185,3.199-0.56c1.173-0.373,2.293-0.825,3.36-1.36v12.8
		c-1.388,1.067-3.228,1.92-5.521,2.56c-2.295,0.64-5.039,0.96-8.239,0.96c-3.84,0-7.04-0.615-9.601-1.84
		c-2.56-1.225-4.507-2.905-5.84-5.04c-1.335-2.133-2.16-4.585-2.479-7.36c-2.988,4.268-6.936,7.708-11.841,10.32
		C2851.593,939.166,2845.78,940.473,2839.061,940.473z M2849.301,926.073c2.984,0,5.84-0.693,8.56-2.08
		c2.72-1.385,4.985-3.44,6.8-6.16c1.812-2.72,2.721-6.105,2.721-10.16v-6.56c-6.828,0-12.615,0.427-17.36,1.28
		c-4.747,0.855-8.348,2.268-10.8,4.24c-2.455,1.975-3.681,4.828-3.681,8.56c0,3.948,1.2,6.748,3.601,8.4
		C2841.54,925.248,2844.926,926.073,2849.301,926.073z"/>
	<path d="M2957.778,940.473c-11.947,0-21.067-4.8-27.36-14.4l-7.52,12.8h-8v-115.2h21.92v43.04c2.24-3.092,5.332-5.732,9.28-7.92
		c3.944-2.185,8.64-3.28,14.08-3.28c5.864,0,11.199,1.36,16,4.08c4.8,2.72,8.64,6.96,11.52,12.72c2.88,5.76,4.32,13.175,4.32,22.24
		v3.52c0,9.708-1.548,17.708-4.641,24c-3.095,6.295-7.255,10.935-12.479,13.92C2969.671,938.978,2963.963,940.473,2957.778,940.473z
		 M2953.139,926.073c3.092,0,5.812-0.745,8.159-2.24c2.346-1.493,4.213-3.812,5.601-6.96c1.385-3.145,2.08-7.172,2.08-12.08v-14.4
		c0-4.48-0.668-8.185-2-11.12c-1.335-2.933-3.147-5.172-5.44-6.72c-2.295-1.545-4.987-2.32-8.08-2.32
		c-2.987,0-5.76,0.775-8.319,2.32c-2.561,1.547-4.588,3.815-6.08,6.8c-1.495,2.987-2.24,6.72-2.24,11.2v14.24
		c0,4.908,0.72,8.935,2.16,12.08c1.439,3.147,3.412,5.467,5.92,6.96C2947.403,925.328,2950.15,926.073,2953.139,926.073z"/>
	<path d="M3010.737,840.633v-16.96h22.561v16.96H3010.737z M3011.058,938.873v-81.76h21.92v81.76H3011.058z"/>
	<path d="M3056.974,938.873v-115.2h21.92v115.2H3056.974z"/>
	<path d="M3102.891,840.633v-16.96h22.56v16.96H3102.891z M3103.21,938.873v-81.76h21.92v81.76H3103.21z"/>
	<path d="M3175.369,940.473c-4.587,0-8.694-0.64-12.319-1.92c-3.628-1.28-6.455-3.44-8.48-6.48c-2.027-3.04-3.04-7.065-3.04-12.08
		v-46.56h-8.96v-16.32h9.601l7.68-26.08h13.44v26.08h19.199v16.32h-19.199v41.76c0,4.695,0.96,7.68,2.88,8.96
		c1.92,1.28,4,1.92,6.239,1.92c1.173,0,2.801-0.24,4.881-0.72c2.079-0.48,3.76-0.985,5.039-1.52v13.44
		c-1.387,0.748-3.095,1.36-5.119,1.84c-2.028,0.48-4.08,0.825-6.16,1.04C3178.97,940.366,3177.074,940.473,3175.369,940.473z"/>
	<path d="M3219.367,968.633c-2.668,0-5.12-0.188-7.36-0.56c-2.24-0.375-4.268-0.935-6.08-1.68v-15.84
		c1.173,0.532,2.772,0.985,4.8,1.36c2.025,0.373,4,0.56,5.92,0.56c2.88,0,5.226-0.56,7.04-1.68c1.812-1.12,3.333-2.828,4.561-5.12
		c1.225-2.295,2.425-5.095,3.6-8.4l-31.52-80.16h23.359l18.88,53.6h1.12l17.92-53.6h21.601l-29.601,77.6
		c-2.348,6.292-5.067,12-8.16,17.12c-3.095,5.12-6.747,9.2-10.96,12.24C3230.271,967.113,3225.231,968.633,3219.367,968.633z"/>
</g>
<g>
	<path d="M2893.646,198.601v-21.8h16v-93.6h-16V61.4h61.2v21.8h-16v93.6h16v21.8H2893.646z"/>
	<path d="M2978.446,198.601V96.4h20.199l3.2,15c4-5.731,8.831-10,14.5-12.8c5.666-2.8,12.101-4.2,19.3-4.2
		c6.932,0,13.031,1.334,18.301,4c5.266,2.669,9.331,6.469,12.199,11.4c2.866,4.934,4.301,10.934,4.301,18v70.8h-27.2v-65
		c0-6.531-1.601-11.331-4.8-14.4c-3.2-3.066-7.535-4.6-13-4.6c-3.469,0-6.734,0.9-9.801,2.7c-3.068,1.8-5.469,4.234-7.199,7.3
		c-1.734,3.069-2.601,6.534-2.601,10.4v63.6H2978.446z"/>
	<path d="M3139.443,200.601c-8.669,0-16.5-2.131-23.5-6.4c-7-4.266-12.5-10.166-16.5-17.7c-4-7.531-6-16.166-6-25.9v-6.2
		c0-7.331,1.23-14.031,3.699-20.1c2.466-6.066,5.832-11.366,10.101-15.9c4.266-4.531,9.266-8,15-10.4
		c5.731-2.4,11.865-3.6,18.399-3.6h3.801c8.931,0,16.699,1.769,23.3,5.3c6.6,3.534,11.665,8.469,15.2,14.8
		c3.531,6.334,5.3,13.769,5.3,22.3h-23.8c0-5.466-0.835-10-2.5-13.6c-1.669-3.6-4.035-6.332-7.101-8.2
		c-3.068-1.866-6.734-2.8-11-2.8c-6.134,0-11.269,2.1-15.399,6.3c-4.135,4.2-6.2,10.369-6.2,18.5v20.6c0,8,1.966,14.169,5.899,18.5
		c3.932,4.334,9.231,6.5,15.9,6.5c4.666,0,8.6-0.8,11.8-2.4s5.632-4.2,7.3-7.8c1.666-3.6,2.5-8.4,2.5-14.4h22.601
		c0,9.069-1.935,16.769-5.8,23.1c-3.869,6.334-9.2,11.169-16,14.5c-6.801,3.331-14.535,5-23.2,5H3139.443z"/>
	<path d="M3254.242,200.601c-9.6,0-18.1-1.969-25.5-5.9c-7.399-3.931-13.169-9.666-17.3-17.2c-4.135-7.531-6.2-16.7-6.2-27.5v-5
		c0-10.8,2.166-19.965,6.5-27.5c4.331-7.531,10.266-13.266,17.8-17.2c7.531-3.932,16.101-5.9,25.7-5.9h3.2
		c9.065,0,16.966,1.834,23.7,5.5c6.731,3.669,11.931,8.8,15.6,15.4c3.666,6.6,5.5,14.3,5.5,23.1V151h-69.2c0,6.4,0.801,12,2.4,16.8
		c1.6,4.8,4,8.469,7.2,11c3.2,2.534,7.399,3.8,12.6,3.8c4.266,0,8-0.831,11.2-2.5c3.2-1.666,5.731-4.166,7.6-7.5
		c1.866-3.331,2.801-7.4,2.801-12.2h25.399c0,7.869-2,14.834-6,20.9c-4,6.068-9.5,10.8-16.5,14.2s-15.1,5.1-24.3,5.1H3254.242z
		 M3234.242,137h42.2c0-8.4-1.834-14.631-5.5-18.7c-3.669-4.066-8.7-6.1-15.1-6.1c-6,0-11.035,2.1-15.101,6.3
		C3236.674,122.701,3234.508,128.869,3234.242,137z"/>
	<path d="M3326.239,198.601V96.4h20.2l3.2,15c4-5.731,8.831-10,14.5-12.8c5.665-2.8,12.1-4.2,19.3-4.2c6.932,0,13.031,1.334,18.3,4
		c5.266,2.669,9.331,6.469,12.2,11.4c2.865,4.934,4.3,10.934,4.3,18v70.8h-27.2v-65c0-6.531-1.6-11.331-4.8-14.4
		c-3.2-3.066-7.534-4.6-13-4.6c-3.469,0-6.734,0.9-9.8,2.7c-3.068,1.8-5.469,4.234-7.2,7.3c-1.734,3.069-2.6,6.534-2.6,10.4v63.6
		H3326.239z"/>
	<path d="M3479.837,200.601c-5.734,0-10.869-0.8-15.4-2.4c-4.534-1.6-8.068-4.3-10.6-8.1c-2.534-3.8-3.8-8.831-3.8-15.1v-58.2h-11.2
		V96.4h12l9.6-32.6h16.801v32.6h24v20.4h-24V169c0,5.869,1.199,9.6,3.6,11.2s5,2.4,7.8,2.4c1.466,0,3.5-0.3,6.101-0.9
		c2.6-0.6,4.699-1.231,6.3-1.9v16.8c-1.734,0.935-3.869,1.7-6.4,2.3c-2.534,0.6-5.1,1.031-7.7,1.3
		C3484.337,200.466,3481.968,200.601,3479.837,200.601z"/>
	<path d="M3523.434,75.801v-21.2h28.2v21.2H3523.434z M3523.834,198.601V96.4h27.399v102.2H3523.834z"/>
	<path d="M3604.432,198.601l-36.399-102.2h29.199l23.2,70.6h1.2l23.4-70.6h26.6l-36.8,102.2H3604.432z"/>
	<path d="M3731.632,200.601c-9.6,0-18.1-1.969-25.5-5.9c-7.399-3.931-13.169-9.666-17.3-17.2c-4.135-7.531-6.2-16.7-6.2-27.5v-5
		c0-10.8,2.166-19.965,6.5-27.5c4.331-7.531,10.266-13.266,17.8-17.2c7.531-3.932,16.101-5.9,25.7-5.9h3.2
		c9.065,0,16.966,1.834,23.7,5.5c6.731,3.669,11.931,8.8,15.6,15.4c3.666,6.6,5.5,14.3,5.5,23.1V151h-69.2c0,6.4,0.801,12,2.4,16.8
		c1.6,4.8,4,8.469,7.2,11c3.2,2.534,7.399,3.8,12.6,3.8c4.266,0,8-0.831,11.2-2.5c3.2-1.666,5.731-4.166,7.6-7.5
		c1.866-3.331,2.801-7.4,2.801-12.2h25.399c0,7.869-2,14.834-6,20.9c-4,6.068-9.5,10.8-16.5,14.2s-15.1,5.1-24.3,5.1H3731.632z
		 M3711.632,137h42.2c0-8.4-1.834-14.631-5.5-18.7c-3.669-4.066-8.7-6.1-15.1-6.1c-6,0-11.035,2.1-15.101,6.3
		C3714.063,122.701,3711.897,128.869,3711.632,137z"/>
	<path d="M3840.229,200.601c-6.4,0-12.2-0.8-17.4-2.4s-9.7-3.766-13.5-6.5c-3.8-2.731-6.7-5.931-8.7-9.6c-2-3.666-3-7.631-3-11.9
		c0-0.8,0-1.466,0-2c0-0.531,0.065-1.266,0.2-2.2h23.2c-0.135,0.4-0.2,0.769-0.2,1.1c0,0.334,0,0.634,0,0.9
		c0,3.334,1.131,6.1,3.4,8.3c2.266,2.2,5.199,3.8,8.8,4.8c3.6,1,7.466,1.5,11.6,1.5c3.331,0,6.7-0.4,10.101-1.2
		c3.399-0.8,6.23-2.1,8.5-3.9c2.266-1.8,3.399-4.1,3.399-6.9c0-3.065-1.169-5.431-3.5-7.1c-2.334-1.666-5.469-3-9.399-4
		c-3.935-1-8.234-1.866-12.9-2.6c-4.669-0.731-9.369-1.666-14.1-2.8c-4.734-1.131-9.069-2.766-13-4.9
		c-3.935-2.131-7.069-5.031-9.4-8.7c-2.334-3.666-3.5-8.5-3.5-14.5c0-5.065,1.166-9.6,3.5-13.6c2.331-4,5.531-7.331,9.6-10
		c4.066-2.666,8.731-4.666,14-6c5.266-1.331,10.766-2,16.5-2h4c5.332,0,10.432,0.669,15.301,2c4.865,1.334,9.23,3.234,13.1,5.7
		c3.865,2.469,6.9,5.4,9.1,8.8c2.2,3.4,3.301,7.1,3.301,11.1c0,0.669-0.035,1.435-0.101,2.3c-0.068,0.869-0.169,1.434-0.3,1.7h-23.2
		v-1.6c0-1.465-0.368-2.9-1.1-4.3c-0.734-1.4-1.935-2.7-3.601-3.9c-1.668-1.2-3.8-2.166-6.399-2.9c-2.601-0.731-5.7-1.1-9.3-1.1
		c-3.2,0-6.069,0.3-8.601,0.9c-2.534,0.6-4.669,1.4-6.399,2.4c-1.734,1-3,2.169-3.801,3.5c-0.8,1.334-1.199,2.669-1.199,4
		c0,2.8,1.199,4.969,3.6,6.5c2.4,1.535,5.565,2.734,9.5,3.6c3.932,0.869,8.266,1.669,13,2.4c4.731,0.734,9.432,1.634,14.1,2.7
		c4.666,1.069,9,2.7,13,4.9s7.166,5.169,9.5,8.9c2.332,3.734,3.5,8.6,3.5,14.6c0,6.269-1.199,11.6-3.6,16s-5.734,7.9-10,10.5
		c-4.269,2.6-9.068,4.5-14.4,5.7c-5.334,1.2-10.934,1.8-16.8,1.8H3840.229z"/>
</g>
<g>
	<path d="M256.531,2707.743c-9.734,0-18.634-1.435-26.7-4.3c-8.069-2.865-14.535-7.365-19.4-13.5c-4.869-6.131-7.3-14.2-7.3-24.2
		c0-0.8,0-1.565,0-2.3c0-0.731,0.066-1.432,0.2-2.1h27c-0.134,0.668-0.2,1.269-0.2,1.8c0,0.534,0,1.134,0,1.8
		c0,4.269,1.031,7.935,3.1,11c2.065,3.068,5.131,5.4,9.2,7c4.065,1.6,8.9,2.4,14.5,2.4c6.266,0,11.4-0.632,15.4-1.9
		c4-1.266,7-3.231,9-5.9c2-2.665,3-5.931,3-9.8c0-4.131-1.435-7.431-4.3-9.899c-2.869-2.466-6.6-4.432-11.2-5.9
		c-4.6-1.466-9.669-2.831-15.2-4.1c-5.534-1.266-11.069-2.766-16.6-4.5c-5.534-1.731-10.634-4.066-15.3-7
		c-4.669-2.932-8.4-6.801-11.2-11.601c-2.8-4.8-4.2-10.931-4.2-18.399c0-8.932,2.431-16.332,7.3-22.2
		c4.866-5.866,11.332-10.266,19.4-13.2c8.066-2.932,16.832-4.4,26.3-4.4c9.465,0,18.065,1.369,25.8,4.101
		c7.731,2.734,13.931,7,18.6,12.8c4.666,5.8,7,13.3,7,22.5v2.6h-26.6v-2.399c0-3.601-0.969-6.731-2.9-9.4
		c-1.935-2.665-4.7-4.7-8.3-6.1c-3.6-1.4-8-2.101-13.2-2.101c-4.8,0-9.034,0.5-12.7,1.5c-3.668,1-6.5,2.601-8.5,4.801
		c-2,2.199-3,5.034-3,8.5c0,4,1.4,7.199,4.2,9.6s6.531,4.3,11.2,5.7c4.666,1.399,9.831,2.734,15.5,4
		c5.666,1.269,11.266,2.734,16.8,4.399c5.531,1.669,10.631,3.935,15.3,6.801c4.666,2.868,8.4,6.668,11.2,11.399
		c2.8,4.734,4.2,10.769,4.2,18.101c0,10.668-2.535,19.234-7.6,25.699c-5.069,6.469-11.9,11.2-20.5,14.2
		S267.462,2707.743,256.531,2707.743z"/>
	<path d="M380.929,2707.743c-9.6,0-18.1-1.969-25.5-5.899c-7.4-3.932-13.169-9.666-17.3-17.2c-4.135-7.531-6.2-16.7-6.2-27.5v-5
		c0-10.8,2.166-19.966,6.5-27.5c4.331-7.531,10.266-13.266,17.8-17.2c7.531-3.932,16.1-5.9,25.7-5.9h3.2
		c9.065,0,16.965,1.835,23.7,5.5c6.731,3.669,11.931,8.801,15.6,15.4c3.666,6.6,5.5,14.3,5.5,23.1v12.601h-69.2
		c0,6.399,0.8,12,2.4,16.8c1.6,4.8,4,8.469,7.2,11c3.2,2.534,7.4,3.8,12.6,3.8c4.266,0,8-0.831,11.2-2.5
		c3.2-1.665,5.731-4.165,7.6-7.5c1.866-3.331,2.8-7.399,2.8-12.2h25.4c0,7.869-2,14.835-6,20.9c-4,6.068-9.5,10.8-16.5,14.2
		c-7,3.399-15.1,5.1-24.3,5.1H380.929z M360.929,2644.144h42.2c0-8.4-1.834-14.632-5.5-18.7c-3.669-4.065-8.7-6.1-15.1-6.1
		c-6,0-11.035,2.1-15.1,6.3C363.36,2629.844,361.195,2636.012,360.929,2644.144z"/>
	<path d="M494.526,2707.743c-8.668,0-16.5-2.131-23.5-6.399c-7-4.266-12.5-10.166-16.5-17.7c-4-7.531-6-16.166-6-25.9v-6.2
		c0-7.331,1.231-14.031,3.7-20.1c2.466-6.065,5.832-11.365,10.1-15.9c4.266-4.531,9.266-8,15-10.399
		c5.73-2.4,11.865-3.601,18.4-3.601h3.799c8.932,0,16.701,1.77,23.301,5.301c6.6,3.534,11.666,8.469,15.199,14.8
		c3.531,6.334,5.301,13.769,5.301,22.3h-23.801c0-5.466-0.834-10-2.5-13.6c-1.668-3.601-4.033-6.332-7.1-8.2
		c-3.068-1.866-6.734-2.8-11-2.8c-6.135,0-11.27,2.1-15.4,6.3c-4.135,4.2-6.199,10.368-6.199,18.5v20.6c0,8,1.965,14.169,5.9,18.5
		c3.93,4.335,9.23,6.5,15.898,6.5c4.666,0,8.602-0.8,11.801-2.399c3.199-1.601,5.631-4.2,7.301-7.801
		c1.664-3.6,2.5-8.399,2.5-14.399h22.6c0,9.068-1.936,16.769-5.801,23.1c-3.869,6.335-9.199,11.169-16,14.5
		c-6.799,3.331-14.533,5-23.199,5H494.526z"/>
	<path d="M597.925,2707.743c-10.534,0-18.834-2.899-24.899-8.7c-6.069-5.8-9.101-14.3-9.101-25.5v-70h27.4v64
		c0,6.935,1.432,12,4.3,15.2c2.866,3.2,7.101,4.8,12.7,4.8c3.731,0,7.131-0.931,10.2-2.8c3.065-1.865,5.565-4.331,7.5-7.399
		c1.931-3.066,2.899-6.466,2.899-10.2v-63.601h27.2v79.2c0,2.534,0.632,4.335,1.9,5.4c1.266,1.068,2.631,1.6,4.1,1.6
		c1.331,0,2.7-0.231,4.101-0.7c1.399-0.465,2.766-1.031,4.1-1.699v16c-1.734,1.334-4.034,2.399-6.9,3.199
		c-2.868,0.801-6.3,1.2-10.3,1.2c-4.669,0-8.568-0.734-11.7-2.2c-3.134-1.465-5.5-3.5-7.1-6.1s-2.8-5.365-3.6-8.3
		c-3.335,5.2-7.935,9.269-13.801,12.2C611.057,2706.274,604.726,2707.743,597.925,2707.743z"/>
	<path d="M689.724,2705.743v-102.2h20.4l3.4,15c0.266-0.531,0.965-1.665,2.1-3.399c1.131-1.731,2.831-3.666,5.1-5.8
		c2.266-2.132,5.101-3.966,8.5-5.5c3.4-1.531,7.5-2.301,12.301-2.301c6.931,0,12.565,1.335,16.899,4c4.331,2.669,7.565,6.4,9.7,11.2
		c2.131,4.8,3.2,10.4,3.2,16.8c0,1.469-0.069,3.069-0.2,4.801c-0.135,1.734-0.269,3.269-0.4,4.6h-22.8v-4.2c0-2.531-0.5-5.1-1.5-7.7
		c-1-2.6-2.6-4.766-4.8-6.5c-2.2-1.73-5.234-2.6-9.1-2.6c-2.801,0-5.2,0.6-7.2,1.8s-3.635,2.7-4.9,4.5c-1.269,1.8-2.2,3.8-2.8,6
		s-0.9,4.234-0.9,6.101v65.399H689.724z"/>
	<path d="M789.723,2582.943v-21.2h28.2v21.2H789.723z M790.123,2705.743v-102.2h27.4v102.2H790.123z"/>
	<path d="M880.322,2707.743c-5.734,0-10.869-0.8-15.4-2.399c-4.534-1.601-8.068-4.301-10.6-8.101c-2.534-3.8-3.8-8.831-3.8-15.1
		v-58.2h-11.2v-20.4h12l9.6-32.6h16.8v32.6h24v20.4h-24v52.2c0,5.868,1.2,9.6,3.601,11.2c2.399,1.6,5,2.399,7.8,2.399
		c1.466,0,3.5-0.3,6.1-0.899c2.601-0.601,4.7-1.231,6.301-1.9v16.8c-1.734,0.935-3.869,1.7-6.4,2.3
		c-2.534,0.601-5.1,1.031-7.7,1.301C884.822,2707.609,882.453,2707.743,880.322,2707.743z"/>
	<path d="M935.318,2742.943c-3.334,0-6.399-0.234-9.199-0.7c-2.801-0.469-5.335-1.169-7.601-2.1v-19.8
		c1.466,0.665,3.466,1.23,6,1.699c2.531,0.466,5,0.7,7.4,0.7c3.6,0,6.531-0.7,8.8-2.1c2.266-1.4,4.166-3.534,5.7-6.4
		c1.531-2.868,3.031-6.368,4.5-10.5l-39.4-100.2h29.2l23.6,67h1.4l22.4-67h27l-37,97c-2.935,7.866-6.335,15-10.2,21.4
		c-3.869,6.4-8.435,11.5-13.7,15.3C948.95,2741.043,942.65,2742.943,935.318,2742.943z"/>
</g>
<g>
	<path d="M2970.751,2705.743v-114.601h-39.399v-22.6h107.8v22.6h-39.4v114.601H2970.751z"/>
	<path d="M3053.951,2582.943v-21.2h28.199v21.2H3053.951z M3054.351,2705.743v-102.2h27.399v102.2H3054.351z"/>
	<path d="M3109.948,2705.743v-102.2h20.399l3.601,15c3.466-5.331,7.565-9.5,12.3-12.5c4.731-3,10.5-4.5,17.301-4.5
		c6.665,0,12.531,1.269,17.6,3.8c5.065,2.534,9.065,6.734,12,12.601c3.199-5.332,7.331-9.4,12.4-12.2c5.064-2.8,11.064-4.2,18-4.2
		c6.531,0,12.299,1.334,17.299,4c5,2.669,8.9,6.469,11.701,11.4c2.799,4.934,4.199,10.934,4.199,18v70.8h-27v-64.601
		c0-6.665-1.4-11.531-4.199-14.6c-2.801-3.065-6.67-4.6-11.601-4.6c-3.2,0-6.101,0.834-8.7,2.5c-2.6,1.668-4.635,4-6.1,7
		c-1.469,3-2.2,6.434-2.2,10.3v64h-27v-64.601c0-6.665-1.399-11.531-4.2-14.6c-2.8-3.065-6.734-4.6-11.8-4.6
		c-3.2,0-6.069,0.834-8.601,2.5c-2.533,1.668-4.533,4-6,7c-1.469,3-2.199,6.434-2.199,10.3v64H3109.948z"/>
	<path d="M3328.545,2707.743c-9.6,0-18.1-1.969-25.5-5.9c-7.399-3.931-13.168-9.665-17.299-17.2
		c-4.135-7.531-6.201-16.699-6.201-27.5v-5c0-10.8,2.166-19.965,6.5-27.5c4.332-7.531,10.266-13.266,17.801-17.199
		c7.531-3.932,16.1-5.9,25.699-5.9h3.201c9.064,0,16.965,1.834,23.699,5.5c6.731,3.669,11.932,8.8,15.6,15.4
		c3.666,6.6,5.5,14.3,5.5,23.1v12.6h-69.199c0,6.4,0.8,12,2.4,16.801c1.6,4.8,4,8.469,7.199,11c3.2,2.534,7.4,3.8,12.6,3.8
		c4.266,0,8-0.831,11.201-2.5c3.199-1.666,5.73-4.166,7.6-7.5c1.865-3.331,2.8-7.4,2.8-12.2h25.399c0,7.869-2,14.834-6,20.9
		c-4,6.068-9.5,10.8-16.5,14.199c-7,3.4-15.1,5.101-24.299,5.101H3328.545z M3308.545,2644.143h42.201
		c0-8.399-1.835-14.631-5.5-18.699c-3.67-4.066-8.701-6.101-15.101-6.101c-6,0-11.034,2.101-15.101,6.3
		C3310.977,2629.843,3308.811,2636.012,3308.545,2644.143z"/>
	<path d="M3400.543,2705.743v-144h27.4v144H3400.543z"/>
	<path d="M3457.939,2582.943v-21.2h28.199v21.2H3457.939z M3458.339,2705.743v-102.2h27.399v102.2H3458.339z"/>
	<path d="M3513.938,2705.743v-102.2h20.199l3.2,15c4-5.731,8.831-10,14.5-12.8c5.665-2.8,12.101-4.2,19.3-4.2
		c6.932,0,13.031,1.334,18.301,4c5.266,2.669,9.33,6.469,12.199,11.4c2.865,4.934,4.301,10.934,4.301,18v70.8h-27.201v-65
		c0-6.531-1.6-11.331-4.799-14.4c-3.201-3.065-7.535-4.6-13-4.6c-3.469,0-6.734,0.899-9.801,2.7c-3.068,1.8-5.469,4.234-7.199,7.3
		c-1.734,3.068-2.601,6.534-2.601,10.399v63.601H3513.938z"/>
	<path d="M3677.734,2707.743c-9.601,0-18.101-1.969-25.5-5.9c-7.4-3.931-13.17-9.665-17.301-17.2
		c-4.135-7.531-6.199-16.699-6.199-27.5v-5c0-10.8,2.165-19.965,6.5-27.5c4.33-7.531,10.266-13.266,17.799-17.199
		c7.531-3.932,16.101-5.9,25.701-5.9h3.199c9.066,0,16.966,1.834,23.7,5.5c6.731,3.669,11.931,8.8,15.601,15.4
		c3.665,6.6,5.5,14.3,5.5,23.1v12.6h-69.201c0,6.4,0.801,12,2.4,16.801c1.6,4.8,4,8.469,7.2,11c3.2,2.534,7.399,3.8,12.601,3.8
		c4.266,0,8-0.831,11.199-2.5c3.2-1.666,5.731-4.166,7.6-7.5c1.866-3.331,2.801-7.4,2.801-12.2h25.4c0,7.869-2,14.834-6,20.9
		c-4,6.068-9.5,10.8-16.5,14.199c-7,3.4-15.101,5.101-24.301,5.101H3677.734z M3657.734,2644.143h42.199
		c0-8.399-1.834-14.631-5.5-18.699c-3.668-4.066-8.699-6.101-15.1-6.101c-6,0-11.035,2.101-15.1,6.3
		C3660.165,2629.843,3658,2636.012,3657.734,2644.143z"/>
	<path d="M3786.331,2707.743c-6.4,0-12.2-0.8-17.4-2.4c-5.2-1.6-9.7-3.766-13.5-6.5c-3.8-2.731-6.7-5.931-8.7-9.6
		c-2-3.666-3-7.632-3-11.9c0-0.8,0-1.466,0-2c0-0.531,0.066-1.266,0.2-2.2h23.2c-0.135,0.4-0.2,0.77-0.2,1.101
		c0,0.334,0,0.634,0,0.899c0,3.335,1.132,6.101,3.4,8.301c2.266,2.199,5.2,3.8,8.8,4.8s7.466,1.5,11.6,1.5
		c3.332,0,6.7-0.4,10.101-1.2c3.399-0.8,6.231-2.1,8.5-3.9c2.266-1.8,3.399-4.1,3.399-6.899c0-3.065-1.168-5.432-3.5-7.101
		c-2.334-1.665-5.469-3-9.399-4c-3.935-1-8.234-1.865-12.9-2.6c-4.669-0.731-9.368-1.666-14.1-2.8c-4.734-1.132-9.069-2.766-13-4.9
		c-3.935-2.131-7.069-5.031-9.4-8.7c-2.334-3.665-3.5-8.5-3.5-14.5c0-5.065,1.166-9.6,3.5-13.6c2.331-4,5.531-7.331,9.601-10
		c4.065-2.666,8.73-4.666,14-6c5.266-1.331,10.766-2,16.5-2h4c5.331,0,10.431,0.669,15.3,2c4.865,1.334,9.231,3.234,13.1,5.7
		c3.866,2.469,6.9,5.399,9.101,8.8c2.199,3.4,3.3,7.1,3.3,11.1c0,0.669-0.034,1.435-0.101,2.301c-0.068,0.868-0.168,1.434-0.3,1.699
		h-23.2v-1.6c0-1.466-0.368-2.9-1.1-4.3c-0.734-1.4-1.935-2.7-3.6-3.9c-1.669-1.2-3.801-2.165-6.4-2.899
		c-2.6-0.731-5.7-1.101-9.3-1.101c-3.2,0-6.069,0.3-8.601,0.9c-2.534,0.6-4.668,1.399-6.399,2.399c-1.734,1-3,2.169-3.8,3.5
		c-0.801,1.335-1.2,2.669-1.2,4c0,2.801,1.2,4.969,3.6,6.5c2.4,1.535,5.565,2.734,9.5,3.601c3.932,0.868,8.266,1.669,13,2.399
		c4.731,0.734,9.432,1.635,14.101,2.7c4.665,1.069,9,2.7,13,4.9s7.165,5.169,9.5,8.899c2.331,3.734,3.5,8.601,3.5,14.601
		c0,6.269-1.2,11.6-3.601,16c-2.399,4.399-5.734,7.899-10,10.5c-4.269,2.6-9.068,4.5-14.399,5.7c-5.335,1.199-10.935,1.8-16.801,1.8
		H3786.331z"/>
</g>
<path style="fill:#EDDEFF;stroke:#000000;stroke-width:18;stroke-miterlimit:10;" d="M1931.738,895.936
	c-135.721,189.285-308.504,350.192-507.738,472.112c422.71,206.259,722.11,626.044,757.788,1118.951h1209.073V1329.223
	c-92.652,15.263-187.771,23.205-284.745,23.205C2653.406,1352.428,2241.118,1179.426,1931.738,895.936z"/>
<rect x="609.138" y="287" style="fill:none;stroke:#000000;stroke-width:18;stroke-miterlimit:10;" width="2781.724" height="2200"/>
<g>
	<path d="M2394.536,1871.555v-109.76h23.36v91.52h45.92l2.72,18.24H2394.536z"/>
	<path d="M2479.815,1773.314v-16.96h22.56v16.96H2479.815z M2480.136,1871.555v-81.76h21.92v81.76H2480.136z"/>
	<path d="M2544.613,1871.555l-29.12-81.76h23.36l18.561,56.479h0.96l18.72-56.479h21.28l-29.44,81.76H2544.613z"/>
	<path d="M2646.374,1873.154c-7.68,0-14.48-1.575-20.4-4.72c-5.92-3.146-10.535-7.732-13.84-13.76c-3.308-6.025-4.96-13.36-4.96-22
		v-4c0-8.641,1.732-15.973,5.2-22c3.465-6.025,8.212-10.613,14.24-13.761c6.024-3.145,12.88-4.72,20.56-4.72h2.56
		c7.253,0,13.573,1.468,18.961,4.4c5.385,2.935,9.545,7.04,12.479,12.319c2.933,5.28,4.4,11.44,4.4,18.48v10.08h-55.36
		c0,5.12,0.64,9.6,1.92,13.439c1.28,3.841,3.2,6.775,5.76,8.801c2.561,2.027,5.92,3.04,10.08,3.04c3.413,0,6.4-0.665,8.96-2
		c2.561-1.333,4.585-3.333,6.08-6c1.493-2.665,2.24-5.921,2.24-9.761h20.32c0,6.295-1.601,11.868-4.801,16.721
		c-3.199,4.854-7.6,8.64-13.199,11.359c-5.601,2.721-12.08,4.08-19.44,4.08H2646.374z M2630.374,1822.274h33.76
		c0-6.72-1.468-11.705-4.4-14.96c-2.935-3.253-6.96-4.88-12.079-4.88c-4.801,0-8.828,1.68-12.08,5.04
		C2632.319,1810.834,2630.586,1815.77,2630.374,1822.274z"/>
	<path d="M2703.972,1871.555v-81.76h16.16l2.56,12c3.2-4.586,7.065-8,11.601-10.24c4.532-2.24,9.68-3.36,15.439-3.36
		c5.545,0,10.425,1.067,14.64,3.2c4.213,2.135,7.466,5.175,9.761,9.12c2.292,3.947,3.439,8.747,3.439,14.399v56.641h-21.76v-52
		c0-5.226-1.28-9.065-3.84-11.521c-2.561-2.452-6.027-3.68-10.4-3.68c-2.774,0-5.388,0.72-7.84,2.16
		c-2.455,1.439-4.375,3.388-5.76,5.84c-1.388,2.455-2.08,5.228-2.08,8.32v50.88H2703.972z"/>
	<path d="M2835.009,1873.154c-7.68,0-14.479-1.575-20.399-4.72c-5.92-3.146-10.535-7.732-13.84-13.76
		c-3.308-6.025-4.96-13.36-4.96-22v-4c0-8.641,1.732-15.973,5.199-22c3.466-6.025,8.213-10.613,14.24-13.761
		c6.025-3.145,12.88-4.72,20.561-4.72h2.56c7.253,0,13.572,1.468,18.96,4.4c5.385,2.935,9.545,7.04,12.48,12.319
		c2.932,5.28,4.399,11.44,4.399,18.48v10.08h-55.359c0,5.12,0.64,9.6,1.92,13.439c1.279,3.841,3.199,6.775,5.76,8.801
		c2.56,2.027,5.92,3.04,10.08,3.04c3.412,0,6.399-0.665,8.96-2c2.56-1.333,4.585-3.333,6.08-6c1.492-2.665,2.239-5.921,2.239-9.761
		h20.32c0,6.295-1.6,11.868-4.8,16.721c-3.2,4.854-7.6,8.64-13.2,11.359c-5.6,2.721-12.08,4.08-19.439,4.08H2835.009z
		 M2819.009,1822.274h33.761c0-6.72-1.468-11.705-4.4-14.96c-2.935-3.253-6.96-4.88-12.08-4.88c-4.8,0-8.827,1.68-12.08,5.04
		C2820.954,1810.834,2819.222,1815.77,2819.009,1822.274z"/>
	<path d="M2921.887,1873.154c-5.12,0-9.76-0.64-13.92-1.92s-7.76-3.013-10.8-5.2c-3.04-2.185-5.36-4.745-6.96-7.68
		c-1.601-2.933-2.4-6.105-2.4-9.521c0-0.64,0-1.172,0-1.6c0-0.425,0.053-1.013,0.16-1.76h18.56c-0.107,0.32-0.159,0.615-0.159,0.88
		c0,0.268,0,0.508,0,0.72c0,2.668,0.904,4.88,2.72,6.641c1.812,1.76,4.16,3.04,7.04,3.84s5.973,1.2,9.28,1.2
		c2.665,0,5.359-0.32,8.079-0.96c2.721-0.641,4.985-1.681,6.801-3.12c1.812-1.44,2.72-3.28,2.72-5.521c0-2.452-0.935-4.345-2.8-5.68
		c-1.868-1.333-4.375-2.4-7.521-3.2c-3.147-0.8-6.587-1.492-10.319-2.08c-3.735-0.585-7.495-1.332-11.28-2.24
		c-3.788-0.904-7.255-2.212-10.4-3.92c-3.147-1.705-5.654-4.024-7.52-6.96c-1.868-2.933-2.8-6.8-2.8-11.6
		c0-4.053,0.932-7.68,2.8-10.88c1.865-3.2,4.425-5.865,7.68-8c3.253-2.133,6.985-3.732,11.2-4.8c4.213-1.065,8.612-1.601,13.2-1.601
		h3.2c4.265,0,8.345,0.535,12.239,1.601c3.893,1.067,7.386,2.587,10.48,4.56c3.093,1.975,5.52,4.32,7.28,7.04
		c1.76,2.72,2.64,5.68,2.64,8.88c0,0.535-0.027,1.147-0.08,1.84c-0.055,0.695-0.135,1.147-0.24,1.36h-18.56v-1.28
		c0-1.173-0.295-2.32-0.88-3.439c-0.588-1.12-1.548-2.16-2.88-3.12c-1.336-0.96-3.04-1.732-5.12-2.32
		c-2.08-0.585-4.561-0.88-7.44-0.88c-2.56,0-4.854,0.24-6.88,0.72c-2.027,0.48-3.735,1.12-5.12,1.92c-1.388,0.8-2.4,1.735-3.04,2.8
		c-0.64,1.068-0.96,2.136-0.96,3.2c0,2.24,0.96,3.976,2.88,5.2c1.92,1.228,4.453,2.188,7.601,2.88
		c3.145,0.695,6.612,1.335,10.399,1.92c3.785,0.588,7.545,1.308,11.28,2.16c3.732,0.855,7.2,2.16,10.4,3.92
		c3.199,1.76,5.732,4.135,7.6,7.12c1.865,2.987,2.8,6.88,2.8,11.68c0,5.016-0.96,9.28-2.88,12.801c-1.92,3.52-4.588,6.319-8,8.399
		c-3.415,2.08-7.255,3.601-11.52,4.561c-4.268,0.96-8.748,1.439-13.44,1.439H2921.887z"/>
	<path d="M3009.727,1873.154c-5.12,0-9.76-0.64-13.92-1.92s-7.761-3.013-10.801-5.2c-3.04-2.185-5.359-4.745-6.96-7.68
		c-1.6-2.933-2.399-6.105-2.399-9.521c0-0.64,0-1.172,0-1.6c0-0.425,0.052-1.013,0.16-1.76h18.56c-0.107,0.32-0.16,0.615-0.16,0.88
		c0,0.268,0,0.508,0,0.72c0,2.668,0.905,4.88,2.721,6.641c1.812,1.76,4.159,3.04,7.04,3.84c2.88,0.8,5.972,1.2,9.279,1.2
		c2.665,0,5.36-0.32,8.08-0.96c2.721-0.641,4.985-1.681,6.8-3.12c1.812-1.44,2.721-3.28,2.721-5.521c0-2.452-0.936-4.345-2.8-5.68
		c-1.868-1.333-4.375-2.4-7.521-3.2c-3.147-0.8-6.588-1.492-10.32-2.08c-3.734-0.585-7.495-1.332-11.279-2.24
		c-3.788-0.904-7.255-2.212-10.4-3.92c-3.147-1.705-5.655-4.024-7.521-6.96c-1.867-2.933-2.8-6.8-2.8-11.6
		c0-4.053,0.933-7.68,2.8-10.88c1.865-3.2,4.426-5.865,7.681-8c3.252-2.133,6.985-3.732,11.2-4.8
		c4.212-1.065,8.612-1.601,13.199-1.601h3.2c4.266,0,8.346,0.535,12.24,1.601c3.893,1.067,7.385,2.587,10.48,4.56
		c3.092,1.975,5.52,4.32,7.279,7.04c1.761,2.72,2.641,5.68,2.641,8.88c0,0.535-0.028,1.147-0.08,1.84
		c-0.056,0.695-0.136,1.147-0.24,1.36h-18.56v-1.28c0-1.173-0.296-2.32-0.881-3.439c-0.587-1.12-1.547-2.16-2.88-3.12
		c-1.335-0.96-3.04-1.732-5.12-2.32c-2.08-0.585-4.56-0.88-7.439-0.88c-2.561,0-4.855,0.24-6.88,0.72
		c-2.027,0.48-3.735,1.12-5.12,1.92c-1.388,0.8-2.4,1.735-3.04,2.8c-0.64,1.068-0.96,2.136-0.96,3.2c0,2.24,0.96,3.976,2.88,5.2
		c1.92,1.228,4.452,2.188,7.6,2.88c3.146,0.695,6.613,1.335,10.4,1.92c3.785,0.588,7.545,1.308,11.28,2.16
		c3.732,0.855,7.199,2.16,10.399,3.92s5.732,4.135,7.601,7.12c1.864,2.987,2.8,6.88,2.8,11.68c0,5.016-0.96,9.28-2.88,12.801
		c-1.92,3.52-4.588,6.319-8,8.399c-3.415,2.08-7.255,3.601-11.521,4.561c-4.268,0.96-8.747,1.439-13.439,1.439H3009.727z"/>
</g>
<g>
	<path style="fill:#CCCCCC;" d="M2251.782,1688.81v-109.76h43.52c6.293,0,12.213,0.987,17.76,2.96
		c5.546,1.975,10.426,4.96,14.641,8.96c4.212,4,7.492,9.015,9.84,15.04c2.345,6.027,3.52,13.147,3.52,21.36v10.239
		c0,8.108-1.175,15.335-3.52,21.681c-2.348,6.348-5.628,11.707-9.84,16.08c-4.215,4.375-9.095,7.707-14.641,10
		c-5.547,2.295-11.467,3.439-17.76,3.439H2251.782z M2275.142,1670.89h18.24c4.373,0,8.293-0.984,11.76-2.96
		c3.466-1.973,6.213-5.04,8.24-9.2c2.025-4.16,3.04-9.545,3.04-16.16v-19.039c0-6.506-1.015-11.705-3.04-15.601
		c-2.027-3.893-4.774-6.72-8.24-8.479c-3.467-1.761-7.387-2.641-11.76-2.641h-18.24V1670.89z"/>
	<path style="fill:#CCCCCC;" d="M2395.621,1690.41c-7.68,0-14.479-1.575-20.399-4.721c-5.92-3.145-10.535-7.732-13.84-13.76
		c-3.308-6.024-4.96-13.36-4.96-22v-4c0-8.64,1.732-15.973,5.199-22c3.466-6.024,8.213-10.612,14.24-13.76
		c6.025-3.146,12.88-4.72,20.561-4.72h2.56c7.253,0,13.572,1.467,18.96,4.399c5.385,2.936,9.545,7.04,12.48,12.32
		c2.932,5.28,4.399,11.439,4.399,18.479v10.08h-55.359c0,5.12,0.64,9.601,1.92,13.44c1.279,3.84,3.199,6.774,5.76,8.8
		c2.56,2.027,5.92,3.04,10.08,3.04c3.412,0,6.399-0.665,8.96-2c2.56-1.332,4.585-3.332,6.08-6c1.492-2.665,2.239-5.92,2.239-9.76
		h20.32c0,6.295-1.6,11.867-4.8,16.72c-3.2,4.855-7.6,8.64-13.2,11.36c-5.6,2.72-12.08,4.08-19.439,4.08H2395.621z
		 M2379.621,1639.53h33.761c0-6.721-1.468-11.705-4.4-14.961c-2.935-3.252-6.96-4.88-12.08-4.88c-4.8,0-8.827,1.681-12.08,5.04
		C2381.566,1628.09,2379.834,1633.024,2379.621,1639.53z"/>
	<path style="fill:#CCCCCC;" d="M2453.219,1688.81v-115.2h21.92v115.2H2453.219z"/>
	<path style="fill:#CCCCCC;" d="M2499.136,1590.569v-16.96h22.561v16.96H2499.136z M2499.456,1688.81v-81.76h21.92v81.76H2499.456z"
		/>
	<path style="fill:#CCCCCC;" d="M2588.252,1690.41c-11.947,0-21.067-4.801-27.359-14.4l-7.521,12.8h-8v-115.2h21.92v43.04
		c2.24-3.092,5.333-5.732,9.28-7.92c3.945-2.185,8.641-3.279,14.08-3.279c5.865,0,11.2,1.359,16,4.08
		c4.8,2.72,8.64,6.96,11.521,12.72c2.88,5.76,4.319,13.175,4.319,22.24v3.52c0,9.708-1.547,17.708-4.64,24
		c-3.095,6.295-7.255,10.935-12.48,13.92C2600.145,1688.915,2594.438,1690.41,2588.252,1690.41z M2583.612,1676.01
		c3.093,0,5.812-0.745,8.16-2.24c2.345-1.492,4.213-3.812,5.6-6.96c1.386-3.145,2.08-7.172,2.08-12.08v-14.399
		c0-4.48-0.667-8.186-2-11.12c-1.335-2.933-3.147-5.173-5.439-6.72c-2.295-1.546-4.987-2.32-8.08-2.32
		c-2.987,0-5.76,0.774-8.32,2.32c-2.56,1.547-4.587,3.814-6.08,6.8c-1.495,2.987-2.24,6.72-2.24,11.2v14.239
		c0,4.908,0.721,8.936,2.16,12.08c1.44,3.147,3.413,5.468,5.92,6.96C2577.877,1675.265,2580.625,1676.01,2583.612,1676.01z"/>
	<path style="fill:#CCCCCC;" d="M2676.251,1690.41c-7.68,0-14.479-1.575-20.399-4.721c-5.92-3.145-10.535-7.732-13.84-13.76
		c-3.308-6.024-4.96-13.36-4.96-22v-4c0-8.64,1.732-15.973,5.199-22c3.466-6.024,8.213-10.612,14.24-13.76
		c6.025-3.146,12.88-4.72,20.561-4.72h2.56c7.253,0,13.572,1.467,18.96,4.399c5.385,2.936,9.545,7.04,12.48,12.32
		c2.932,5.28,4.399,11.439,4.399,18.479v10.08h-55.359c0,5.12,0.64,9.601,1.92,13.44c1.279,3.84,3.199,6.774,5.76,8.8
		c2.56,2.027,5.92,3.04,10.08,3.04c3.412,0,6.399-0.665,8.96-2c2.56-1.332,4.585-3.332,6.08-6c1.492-2.665,2.239-5.92,2.239-9.76
		h20.32c0,6.295-1.6,11.867-4.8,16.72c-3.2,4.855-7.6,8.64-13.2,11.36c-5.6,2.72-12.08,4.08-19.439,4.08H2676.251z
		 M2660.251,1639.53h33.761c0-6.721-1.468-11.705-4.4-14.961c-2.935-3.252-6.96-4.88-12.08-4.88c-4.8,0-8.827,1.681-12.08,5.04
		C2662.196,1628.09,2660.464,1633.024,2660.251,1639.53z"/>
	<path style="fill:#CCCCCC;" d="M2733.849,1688.81v-81.76h16.32l2.72,12c0.213-0.425,0.772-1.332,1.681-2.72
		c0.904-1.386,2.265-2.933,4.08-4.641c1.812-1.705,4.079-3.172,6.8-4.399c2.72-1.226,6-1.84,9.84-1.84
		c5.545,0,10.053,1.067,13.52,3.199c3.466,2.136,6.053,5.12,7.761,8.96c1.705,3.841,2.56,8.32,2.56,13.44
		c0,1.175-0.055,2.455-0.16,3.84c-0.107,1.388-0.215,2.615-0.319,3.68h-18.24v-3.359c0-2.025-0.4-4.08-1.2-6.16
		s-2.08-3.812-3.84-5.2c-1.76-1.385-4.188-2.08-7.28-2.08c-2.24,0-4.16,0.48-5.76,1.44c-1.601,0.96-2.907,2.16-3.92,3.6
		c-1.016,1.44-1.76,3.04-2.24,4.8c-0.479,1.761-0.72,3.388-0.72,4.881v52.319H2733.849z"/>
	<path style="fill:#CCCCCC;" d="M2834.808,1690.41c-4.375,0-8.56-0.721-12.56-2.16c-4-1.44-7.28-3.84-9.84-7.2
		c-2.561-3.36-3.84-7.92-3.84-13.68c0-5.865,1.305-10.613,3.92-14.24c2.612-3.625,6.292-6.425,11.04-8.4
		c4.745-1.973,10.452-3.332,17.12-4.08c6.665-0.744,14.159-1.119,22.479-1.119v-7.2c0-4.692-1.28-8.025-3.84-10
		c-2.56-1.973-6.295-2.96-11.2-2.96c-4.16,0-7.814,0.935-10.96,2.8c-3.147,1.867-4.72,4.72-4.72,8.56v1.28h-20.96
		c-0.107-0.32-0.16-0.772-0.16-1.36c0-0.585,0-1.092,0-1.52c0-4.692,1.492-8.825,4.479-12.4c2.985-3.572,7.146-6.345,12.48-8.319
		c5.332-1.973,11.52-2.96,18.56-2.96h3.36c11.521,0,20.105,2.268,25.76,6.8c5.652,4.535,8.48,10.64,8.48,18.319v39.841
		c0,2.027,0.505,3.467,1.52,4.319c1.013,0.855,2.105,1.28,3.28,1.28c0.96,0,2.025-0.185,3.2-0.56
		c1.172-0.373,2.292-0.825,3.359-1.36v12.8c-1.387,1.067-3.227,1.92-5.52,2.561c-2.295,0.64-5.04,0.96-8.24,0.96
		c-3.84,0-7.04-0.615-9.6-1.841c-2.561-1.225-4.508-2.904-5.84-5.039c-1.335-2.133-2.16-4.586-2.48-7.36
		c-2.987,4.268-6.935,7.707-11.84,10.32C2847.341,1689.103,2841.528,1690.41,2834.808,1690.41z M2845.048,1676.01
		c2.985,0,5.84-0.692,8.561-2.08c2.72-1.385,4.984-3.439,6.8-6.16c1.812-2.72,2.72-6.104,2.72-10.16v-6.56
		c-6.827,0-12.615,0.428-17.36,1.28c-4.747,0.854-8.347,2.268-10.8,4.239c-2.455,1.976-3.68,4.828-3.68,8.561
		c0,3.947,1.2,6.747,3.6,8.4C2837.288,1675.185,2840.673,1676.01,2845.048,1676.01z"/>
	<path style="fill:#CCCCCC;" d="M2938.167,1690.41c-4.587,0-8.694-0.641-12.319-1.92c-3.628-1.28-6.455-3.44-8.48-6.48
		c-2.027-3.04-3.04-7.065-3.04-12.08v-46.56h-8.96v-16.32h9.6l7.681-26.08h13.439v26.08h19.2v16.32h-19.2v41.76
		c0,4.695,0.96,7.68,2.88,8.96s4,1.92,6.24,1.92c1.173,0,2.8-0.24,4.88-0.72c2.08-0.48,3.761-0.985,5.04-1.521v13.44
		c-1.388,0.747-3.095,1.359-5.12,1.84c-2.027,0.48-4.08,0.825-6.159,1.04C2941.768,1690.303,2939.872,1690.41,2938.167,1690.41z"/>
	<path style="fill:#CCCCCC;" d="M2973.045,1590.569v-16.96h22.56v16.96H2973.045z M2973.365,1688.81v-81.76h21.919v81.76H2973.365z"
		/>
	<path style="fill:#CCCCCC;" d="M3053.363,1690.41c-7.468,0-14.16-1.681-20.08-5.04c-5.92-3.36-10.561-8.133-13.92-14.32
		c-3.36-6.185-5.04-13.44-5.04-21.76v-2.88c0-8.426,1.68-15.681,5.04-21.761c3.359-6.08,7.972-10.8,13.84-14.159
		c5.865-3.36,12.532-5.04,20-5.04h3.2c7.572,0,14.292,1.68,20.159,5.04c5.865,3.359,10.48,8.079,13.841,14.159
		c3.359,6.08,5.04,13.335,5.04,21.761v2.88c0,8.428-1.681,15.707-5.04,21.84c-3.36,6.135-7.976,10.88-13.841,14.24
		c-5.867,3.359-12.534,5.04-20,5.04H3053.363z M3054.803,1676.01c3.305,0,6.266-0.772,8.88-2.32c2.612-1.545,4.692-3.864,6.24-6.96
		c1.545-3.092,2.32-6.772,2.32-11.04v-15.68c0-4.372-0.775-8.053-2.32-11.04c-1.548-2.985-3.628-5.28-6.24-6.88
		c-2.614-1.6-5.575-2.4-8.88-2.4c-3.2,0-6.135,0.801-8.8,2.4c-2.668,1.6-4.775,3.895-6.32,6.88
		c-1.547,2.987-2.319,6.668-2.319,11.04v15.68c0,4.268,0.772,7.948,2.319,11.04c1.545,3.096,3.652,5.415,6.32,6.96
		C3048.668,1675.237,3051.603,1676.01,3054.803,1676.01z"/>
	<path style="fill:#CCCCCC;" d="M3113.521,1688.81v-81.76h16.16l2.56,12c3.2-4.585,7.065-8,11.601-10.24
		c4.532-2.24,9.68-3.359,15.439-3.359c5.545,0,10.426,1.067,14.641,3.199c4.212,2.136,7.465,5.176,9.76,9.12
		c2.292,3.948,3.44,8.748,3.44,14.4v56.64h-21.761v-52c0-5.225-1.279-9.064-3.84-11.52c-2.56-2.453-6.027-3.681-10.399-3.681
		c-2.775,0-5.388,0.721-7.841,2.16c-2.455,1.44-4.375,3.388-5.76,5.84c-1.388,2.455-2.08,5.228-2.08,8.32v50.88H3113.521z"/>
	<path style="fill:#CCCCCC;" d="M2348.979,2048.81v-109.76h76.319l-2.56,17.92h-50.56v27.04h46.88v17.6h-46.88v29.28h51.199
		l2.561,17.92H2348.979z"/>
	<path style="fill:#CCCCCC;" d="M2434.096,2048.81l28.48-42.72l-26.24-39.04h25.439l15.681,24.8h0.319l15.841-24.8h23.68
		l-26.56,39.52l28.319,42.24h-25.439l-17.601-28h-0.319l-17.921,28H2434.096z"/>
	<path style="fill:#CCCCCC;" d="M2566.575,2050.409c-7.68,0-14.48-1.574-20.4-4.72c-5.92-3.145-10.535-7.732-13.84-13.76
		c-3.308-6.024-4.96-13.36-4.96-22v-4c0-8.64,1.732-15.973,5.2-22c3.465-6.024,8.212-10.612,14.24-13.76
		c6.024-3.146,12.88-4.72,20.56-4.72h2.56c7.253,0,13.573,1.467,18.961,4.399c5.385,2.936,9.545,7.04,12.479,12.32
		c2.933,5.28,4.4,11.439,4.4,18.479v10.08h-55.36c0,5.12,0.64,9.601,1.92,13.44s3.2,6.774,5.76,8.8
		c2.561,2.027,5.92,3.04,10.08,3.04c3.413,0,6.4-0.665,8.96-2c2.561-1.332,4.585-3.332,6.08-6c1.493-2.665,2.24-5.92,2.24-9.76
		h20.32c0,6.295-1.601,11.867-4.801,16.72c-3.199,4.855-7.6,8.64-13.199,11.359c-5.601,2.721-12.08,4.08-19.44,4.08H2566.575z
		 M2550.575,1999.53h33.76c0-6.721-1.468-11.705-4.4-14.961c-2.935-3.252-6.96-4.88-12.079-4.88c-4.801,0-8.828,1.681-12.08,5.04
		C2552.521,1988.09,2550.787,1993.024,2550.575,1999.53z"/>
	<path style="fill:#CCCCCC;" d="M2657.453,2050.409c-6.936,0-13.2-1.705-18.801-5.119c-5.6-3.413-10-8.133-13.199-14.16
		c-3.2-6.025-4.801-12.933-4.801-20.72v-4.96c0-5.865,0.985-11.226,2.96-16.08c1.973-4.853,4.665-9.093,8.08-12.721
		c3.413-3.625,7.413-6.399,12-8.319c4.585-1.92,9.493-2.88,14.721-2.88h3.04c7.145,0,13.359,1.415,18.64,4.239
		c5.28,2.828,9.332,6.775,12.16,11.841c2.825,5.067,4.24,11.015,4.24,17.84h-19.04c0-4.373-0.668-8-2-10.88
		c-1.335-2.881-3.228-5.065-5.681-6.561c-2.455-1.492-5.388-2.24-8.8-2.24c-4.907,0-9.015,1.681-12.32,5.04
		c-3.307,3.36-4.96,8.295-4.96,14.801v16.479c0,6.4,1.573,11.335,4.721,14.8c3.145,3.468,7.385,5.2,12.72,5.2
		c3.732,0,6.88-0.64,9.439-1.92c2.561-1.28,4.506-3.36,5.841-6.24c1.332-2.88,2-6.72,2-11.52h18.08
		c0,7.255-1.548,13.415-4.641,18.479c-3.095,5.067-7.359,8.936-12.8,11.6c-5.44,2.665-11.628,4-18.56,4H2657.453z"/>
	<path style="fill:#CCCCCC;" d="M2740.172,2050.409c-8.427,0-15.067-2.319-19.92-6.959c-4.854-4.641-7.279-11.44-7.279-20.4v-56
		h21.92v51.2c0,5.547,1.145,9.6,3.439,12.16c2.293,2.56,5.681,3.84,10.16,3.84c2.985,0,5.705-0.745,8.16-2.24
		c2.452-1.492,4.452-3.465,6-5.92c1.545-2.452,2.32-5.173,2.32-8.16v-50.88h21.76v63.36c0,2.027,0.505,3.467,1.52,4.319
		c1.013,0.855,2.105,1.28,3.28,1.28c1.065,0,2.16-0.185,3.28-0.56c1.12-0.373,2.212-0.825,3.28-1.36v12.8
		c-1.388,1.067-3.228,1.92-5.521,2.56c-2.295,0.641-5.04,0.96-8.24,0.96c-3.734,0-6.854-0.587-9.359-1.76
		c-2.508-1.172-4.4-2.8-5.681-4.88c-1.279-2.08-2.239-4.292-2.88-6.64c-2.667,4.16-6.348,7.415-11.04,9.76
		C2750.678,2049.234,2745.612,2050.409,2740.172,2050.409z"/>
	<path style="fill:#CCCCCC;" d="M2840.972,2050.409c-4.588,0-8.695-0.64-12.32-1.92c-3.628-1.279-6.455-3.439-8.48-6.479
		c-2.027-3.04-3.039-7.065-3.039-12.08v-46.56h-8.961v-16.32h9.601l7.68-26.08h13.44v26.08h19.2v16.32h-19.2v41.76
		c0,4.695,0.96,7.68,2.88,8.96s4,1.92,6.24,1.92c1.172,0,2.8-0.24,4.88-0.72c2.08-0.48,3.76-0.985,5.04-1.521v13.44
		c-1.388,0.747-3.096,1.359-5.12,1.84c-2.027,0.479-4.08,0.825-6.16,1.04C2844.571,2050.302,2842.677,2050.409,2840.972,2050.409z"
		/>
	<path style="fill:#CCCCCC;" d="M2875.849,1950.569v-16.96h22.561v16.96H2875.849z M2876.169,2048.81v-81.76h21.92v81.76H2876.169z"
		/>
	<path style="fill:#CCCCCC;" d="M2956.167,2050.409c-7.467,0-14.159-1.68-20.08-5.039c-5.92-3.36-10.56-8.133-13.92-14.32
		c-3.359-6.185-5.04-13.44-5.04-21.76v-2.88c0-8.426,1.681-15.681,5.04-21.761c3.36-6.08,7.973-10.8,13.841-14.159
		c5.864-3.36,12.532-5.04,20-5.04h3.199c7.573,0,14.293,1.68,20.16,5.04c5.865,3.359,10.48,8.079,13.84,14.159
		s5.041,13.335,5.041,21.761v2.88c0,8.428-1.682,15.707-5.041,21.84c-3.359,6.135-7.975,10.88-13.84,14.24
		c-5.867,3.359-12.535,5.039-20,5.039H2956.167z M2957.607,2036.01c3.305,0,6.265-0.772,8.88-2.32
		c2.612-1.545,4.692-3.864,6.24-6.96c1.545-3.092,2.319-6.772,2.319-11.04v-15.68c0-4.372-0.774-8.053-2.319-11.04
		c-1.548-2.985-3.628-5.28-6.24-6.88c-2.615-1.6-5.575-2.4-8.88-2.4c-3.2,0-6.135,0.801-8.8,2.4c-2.668,1.6-4.775,3.895-6.32,6.88
		c-1.548,2.987-2.32,6.668-2.32,11.04v15.68c0,4.268,0.772,7.948,2.32,11.04c1.545,3.096,3.652,5.415,6.32,6.96
		C2951.473,2035.237,2954.407,2036.01,2957.607,2036.01z"/>
	<path style="fill:#CCCCCC;" d="M3016.325,2048.81v-81.76h16.16l2.56,12c3.2-4.585,7.065-8,11.601-10.24
		c4.532-2.24,9.68-3.359,15.439-3.359c5.545,0,10.426,1.067,14.641,3.199c4.212,2.136,7.465,5.176,9.76,9.12
		c2.292,3.948,3.44,8.748,3.44,14.4v56.64h-21.761v-52c0-5.225-1.279-9.064-3.84-11.52c-2.56-2.453-6.027-3.681-10.399-3.681
		c-2.775,0-5.388,0.721-7.841,2.16c-2.455,1.44-4.375,3.388-5.76,5.84c-1.388,2.455-2.08,5.228-2.08,8.32v50.88H3016.325z"/>
</g>
</svg>
