<?xml version="1.0" encoding="iso-8859-1"?>
<!-- Generator: Adobe Illustrator 29.6.0, SVG Export Plug-In . SVG Version: 9.03 Build 0)  -->
<svg version="1.1" id="Layer_1" xmlns="http://www.w3.org/2000/svg" xmlns:xlink="http://www.w3.org/1999/xlink" x="0px" y="0px"
	 viewBox="0 0 4000 1030" style="enable-background:new 0 0 4000 1030;" xml:space="preserve">
<polygon style="fill:none;stroke:#000000;stroke-width:12;stroke-miterlimit:10;" points="2460.744,211.749 1296.135,211.749 
	1550.607,589.855 1296.135,967.962 2460.744,967.962 2715.215,589.855 "/>
<g>
	<path style="fill:#0033AD;" d="M198.276,172.075c-6.553,0-12.715-1.111-18.488-3.331c-5.775-2.22-10.855-5.522-15.24-9.91
		c-4.388-4.385-7.802-9.853-10.244-16.406c-2.443-6.551-3.664-14.267-3.664-23.152V107.45c0-8.882,1.249-16.599,3.748-23.152
		c2.499-6.55,5.939-12.018,10.327-16.406c4.385-4.385,9.437-7.688,15.157-9.91c5.718-2.22,11.797-3.331,18.238-3.331h5.663
		c6.663,0,12.851,1.111,18.571,3.331c5.718,2.223,10.77,5.525,15.157,9.91c4.385,4.388,7.8,9.856,10.243,16.406
		c2.441,6.553,3.665,14.27,3.665,23.152v11.826c0,8.885-1.25,16.601-3.748,23.152c-2.499,6.553-5.941,12.021-10.327,16.406
		c-4.388,4.388-9.439,7.69-15.157,9.91c-5.72,2.22-11.799,3.331-18.238,3.331H198.276z M200.941,153.587
		c3.553,0,6.829-0.525,9.827-1.582c2.998-1.054,5.606-2.72,7.828-4.997c2.22-2.274,3.969-5.247,5.247-8.911
		c1.275-3.665,1.916-8.162,1.916-13.491v-22.319c0-5.33-0.64-9.853-1.916-13.574c-1.278-3.719-3.026-6.717-5.247-8.995
		c-2.222-2.274-4.83-3.94-7.828-4.997c-2.998-1.054-6.22-1.583-9.661-1.583c-3.443,0-6.691,0.528-9.744,1.583
		c-3.055,1.057-5.691,2.722-7.912,4.997c-2.222,2.277-3.971,5.247-5.247,8.911c-1.278,3.665-1.916,8.162-1.916,13.491v22.319
		c0,5.33,0.638,9.855,1.916,13.574c1.275,3.722,3.024,6.72,5.247,8.994c2.22,2.277,4.831,3.943,7.829,4.997
		C194.279,153.062,197.499,153.587,200.941,153.587z"/>
	<path style="fill:#0033AD;" d="M271.062,170.41V50.487h22.818V170.41H271.062z"/>
	<path style="fill:#0033AD;" d="M348.177,172.075c-6.662,0-12.604-1.556-17.822-4.664c-5.221-3.107-9.356-7.938-12.409-14.491
		c-3.055-6.55-4.581-14.878-4.581-24.984v-1.832c0-9.437,1.525-17.294,4.581-23.568c3.053-6.272,7.133-10.993,12.242-14.158
		c5.106-3.165,10.66-4.747,16.656-4.747s11.019,1.111,15.074,3.331c4.052,2.223,7.133,4.997,9.244,8.328V50.487h22.652V170.41
		h-17.822l-2.499-11.326c-2.665,3.776-6.053,6.886-10.16,9.328C359.225,170.852,354.173,172.075,348.177,172.075z M354.006,157.085
		c3.219,0,6.105-0.775,8.661-2.332c2.553-1.554,4.606-3.969,6.163-7.245c1.554-3.274,2.332-7.467,2.332-12.575v-14.824
		c0-4.664-0.75-8.549-2.249-11.659c-1.499-3.107-3.555-5.468-6.163-7.079c-2.61-1.608-5.525-2.415-8.745-2.415
		c-4.664,0-8.606,1.806-11.826,5.413c-3.222,3.61-4.83,8.856-4.83,15.74v14.824c0,5.108,0.75,9.301,2.249,12.575
		c1.499,3.276,3.498,5.691,5.996,7.245C348.094,156.31,350.896,157.085,354.006,157.085z"/>
	<path style="fill:#0033AD;" d="M453.771,170.41V56.15h55.631c5.772,0,10.936,1.111,15.49,3.331
		c4.552,2.223,8.078,5.33,10.576,9.327c2.499,3.998,3.748,8.719,3.748,14.158c0,5.663-0.973,10.355-2.915,14.074
		c-1.944,3.722-4.388,6.663-7.329,8.828c-2.943,2.166-6.025,3.748-9.244,4.747v1c2.22,0.333,4.635,1.083,7.246,2.249
		c2.607,1.166,5.051,2.748,7.329,4.747c2.274,1.999,4.106,4.497,5.496,7.495c1.387,2.998,2.082,6.719,2.082,11.159
		c0,6.441-1.444,12.159-4.331,17.156c-2.889,4.997-6.829,8.911-11.826,11.743c-4.997,2.832-10.717,4.247-17.156,4.247H453.771z
		 M476.757,103.286h24.984c2.998,0,5.58-0.721,7.745-2.165c2.165-1.442,3.802-3.357,4.913-5.747
		c1.109-2.386,1.666-4.968,1.666-7.745c0-4.552-1.14-7.966-3.415-10.243c-2.277-2.275-5.525-3.415-9.744-3.415h-26.15V103.286z
		 M476.757,152.255h26.316c2.998,0,5.634-0.721,7.912-2.166c2.274-1.442,4.052-3.386,5.33-5.83c1.275-2.441,1.916-5.218,1.916-8.328
		c0-3.107-0.666-5.746-1.999-7.912c-1.333-2.165-3.139-3.856-5.414-5.08c-2.277-1.22-4.804-1.832-7.578-1.832h-26.483V152.255z"/>
	<path style="fill:#0033AD;" d="M583.353,172.075c-4.554,0-8.911-0.75-13.075-2.249c-4.164-1.499-7.579-3.998-10.244-7.495
		s-3.998-8.245-3.998-14.241c0-6.105,1.359-11.048,4.081-14.824c2.719-3.774,6.55-6.688,11.492-8.745
		c4.94-2.053,10.881-3.469,17.822-4.247c6.938-0.776,14.74-1.166,23.401-1.166v-7.495c0-4.885-1.333-8.354-3.997-10.41
		c-2.665-2.053-6.553-3.082-11.659-3.082c-4.331,0-8.136,0.974-11.41,2.915c-3.276,1.944-4.914,4.914-4.914,8.911v1.332h-21.819
		c-0.112-0.333-0.167-0.804-0.167-1.416c0-0.609,0-1.137,0-1.583c0-4.885,1.554-9.187,4.664-12.908
		c3.107-3.719,7.438-6.605,12.992-8.661c5.551-2.053,11.993-3.081,19.321-3.081h3.498c11.992,0,20.929,2.36,26.816,7.079
		c5.884,4.721,8.828,11.076,8.828,19.071v41.474c0,2.11,0.526,3.609,1.583,4.497c1.054,0.89,2.191,1.333,3.415,1.333
		c1,0,2.108-0.193,3.331-0.583c1.221-0.388,2.387-0.859,3.498-1.416v13.325c-1.445,1.111-3.36,1.999-5.747,2.665
		c-2.389,0.667-5.247,1-8.578,1c-3.998,0-7.329-0.64-9.994-1.916c-2.665-1.275-4.692-3.024-6.08-5.247
		c-1.39-2.22-2.249-4.773-2.582-7.662c-3.11,4.442-7.219,8.023-12.326,10.743C596.399,170.714,590.349,172.075,583.353,172.075z
		 M594.013,157.085c3.107,0,6.08-0.721,8.911-2.166c2.832-1.441,5.189-3.581,7.079-6.412c1.887-2.832,2.832-6.355,2.832-10.577
		v-6.829c-7.107,0-13.132,0.445-18.072,1.333c-4.942,0.89-8.689,2.36-11.243,4.414c-2.556,2.056-3.831,5.025-3.831,8.911
		c0,4.109,1.249,7.024,3.748,8.745C585.935,156.226,589.458,157.085,594.013,157.085z"/>
	<path style="fill:#0033AD;" d="M662.3,170.41V50.487h22.818V170.41H662.3z"/>
	<path style="fill:#0033AD;" d="M730.587,172.075c-4.554,0-8.911-0.75-13.075-2.249c-4.164-1.499-7.579-3.998-10.244-7.495
		s-3.998-8.245-3.998-14.241c0-6.105,1.359-11.048,4.081-14.824c2.719-3.774,6.55-6.688,11.492-8.745
		c4.94-2.053,10.881-3.469,17.822-4.247c6.938-0.776,14.74-1.166,23.401-1.166v-7.495c0-4.885-1.333-8.354-3.997-10.41
		c-2.665-2.053-6.553-3.082-11.659-3.082c-4.331,0-8.136,0.974-11.41,2.915c-3.276,1.944-4.914,4.914-4.914,8.911v1.332H706.27
		c-0.112-0.333-0.167-0.804-0.167-1.416c0-0.609,0-1.137,0-1.583c0-4.885,1.554-9.187,4.664-12.908
		c3.107-3.719,7.438-6.605,12.992-8.661c5.551-2.053,11.993-3.081,19.321-3.081h3.498c11.992,0,20.929,2.36,26.816,7.079
		c5.884,4.721,8.828,11.076,8.828,19.071v41.474c0,2.11,0.526,3.609,1.583,4.497c1.054,0.89,2.191,1.333,3.415,1.333
		c1,0,2.108-0.193,3.331-0.583c1.221-0.388,2.387-0.859,3.498-1.416v13.325c-1.445,1.111-3.36,1.999-5.747,2.665
		c-2.389,0.667-5.247,1-8.578,1c-3.998,0-7.329-0.64-9.994-1.916c-2.665-1.275-4.692-3.024-6.08-5.247
		c-1.39-2.22-2.249-4.773-2.582-7.662c-3.11,4.442-7.219,8.023-12.326,10.743C743.634,170.714,737.583,172.075,730.587,172.075z
		 M741.247,157.085c3.107,0,6.08-0.721,8.911-2.166c2.832-1.441,5.189-3.581,7.079-6.412c1.887-2.832,2.832-6.355,2.832-10.577
		v-6.829c-7.107,0-13.132,0.445-18.072,1.333c-4.942,0.89-8.689,2.36-11.243,4.414c-2.556,2.056-3.831,5.025-3.831,8.911
		c0,4.109,1.249,7.024,3.748,8.745C733.169,156.226,736.693,157.085,741.247,157.085z"/>
	<path style="fill:#0033AD;" d="M809.534,170.41V85.298h16.822l2.665,12.492c3.331-4.773,7.354-8.328,12.076-10.66
		c4.718-2.332,10.077-3.498,16.073-3.498c5.772,0,10.853,1.111,15.24,3.331c4.385,2.223,7.771,5.387,10.16,9.494
		c2.387,4.109,3.581,9.106,3.581,14.991v58.962H863.5v-54.132c0-5.439-1.333-9.437-3.998-11.992
		c-2.665-2.553-6.274-3.831-10.826-3.831c-2.889,0-5.608,0.75-8.162,2.249c-2.556,1.499-4.554,3.526-5.996,6.08
		c-1.444,2.556-2.166,5.442-2.166,8.661v52.966H809.534z"/>
	<path style="fill:#0033AD;" d="M943.612,172.075c-7.219,0-13.741-1.775-19.57-5.33c-5.83-3.552-10.41-8.466-13.741-14.74
		c-3.332-6.272-4.997-13.463-4.997-21.569v-5.164c0-6.105,1.025-11.685,3.082-16.739c2.053-5.051,4.856-9.465,8.411-13.241
		c3.552-3.774,7.716-6.663,12.492-8.661c4.773-1.999,9.881-2.998,15.323-2.998h3.165c7.438,0,13.908,1.473,19.404,4.414
		c5.497,2.943,9.715,7.053,12.659,12.326c2.941,5.275,4.414,11.466,4.414,18.571h-19.82c0-4.552-0.695-8.328-2.082-11.326
		c-1.39-2.998-3.36-5.272-5.913-6.829c-2.556-1.554-5.608-2.332-9.161-2.332c-5.109,0-9.385,1.749-12.825,5.247
		c-3.443,3.498-5.163,8.635-5.163,15.407v17.156c0,6.662,1.637,11.799,4.914,15.407c3.274,3.609,7.688,5.413,13.241,5.413
		c3.886,0,7.162-0.667,9.827-1.999c2.665-1.333,4.689-3.498,6.08-6.496c1.387-2.998,2.082-6.996,2.082-11.992h18.821
		c0,7.552-1.611,13.965-4.83,19.238c-3.222,5.275-7.662,9.301-13.325,12.075c-5.663,2.774-12.104,4.164-19.321,4.164H943.612z"/>
	<path style="fill:#0033AD;" d="M1039.217,172.075c-7.995,0-15.074-1.64-21.236-4.914s-10.967-8.049-14.407-14.324
		c-3.443-6.272-5.164-13.908-5.164-22.902v-4.164c0-8.994,1.804-16.627,5.413-22.902c3.607-6.272,8.549-11.047,14.824-14.324
		c6.272-3.274,13.408-4.913,21.403-4.913h2.665c7.55,0,14.129,1.527,19.737,4.58c5.606,3.056,9.937,7.329,12.992,12.825
		c3.053,5.497,4.581,11.909,4.581,19.238v10.493h-57.629c0,5.33,0.666,9.994,1.999,13.991c1.333,3.998,3.331,7.053,5.996,9.161
		c2.665,2.11,6.163,3.165,10.493,3.165c3.553,0,6.663-0.692,9.328-2.082c2.665-1.387,4.773-3.469,6.329-6.246
		c1.554-2.774,2.332-6.163,2.332-10.16h21.153c0,6.553-1.666,12.354-4.997,17.406c-3.332,5.054-7.912,8.994-13.741,11.826
		s-12.575,4.247-20.237,4.247H1039.217z M1022.562,119.109h35.144c0-6.996-1.528-12.185-4.581-15.573
		c-3.055-3.386-7.245-5.08-12.575-5.08c-4.997,0-9.189,1.749-12.575,5.247C1024.586,107.2,1022.783,112.337,1022.562,119.109z"/>
	<path style="fill:#0033AD;" d="M1129.657,172.075c-5.33,0-10.16-0.666-14.491-1.999s-8.078-3.136-11.243-5.413
		c-3.165-2.275-5.58-4.94-7.246-7.995c-1.666-3.053-2.499-6.355-2.499-9.91c0-0.667,0-1.221,0-1.666
		c0-0.442,0.055-1.054,0.167-1.833h19.321c-0.112,0.333-0.167,0.641-0.167,0.917c0,0.278,0,0.528,0,0.75
		c0,2.777,0.942,5.08,2.832,6.912c1.887,1.832,4.33,3.165,7.329,3.998c2.998,0.833,6.217,1.249,9.66,1.249
		c2.774,0,5.58-0.333,8.411-1c2.832-0.666,5.189-1.749,7.079-3.248c1.887-1.499,2.832-3.414,2.832-5.746
		c0-2.553-0.974-4.523-2.915-5.913c-1.944-1.387-4.554-2.498-7.828-3.331c-3.277-0.833-6.857-1.554-10.743-2.165
		c-3.888-0.609-7.802-1.387-11.743-2.332c-3.942-0.942-7.552-2.303-10.826-4.081c-3.276-1.775-5.887-4.19-7.828-7.246
		c-1.944-3.053-2.915-7.079-2.915-12.075c0-4.219,0.971-7.995,2.915-11.326c1.941-3.331,4.606-6.105,7.995-8.328
		c3.386-2.22,7.271-3.885,11.659-4.997c4.385-1.109,8.966-1.666,13.741-1.666h3.331c4.44,0,8.688,0.557,12.742,1.666
		c4.052,1.111,7.688,2.693,10.91,4.747c3.219,2.056,5.746,4.498,7.578,7.329c1.832,2.832,2.749,5.913,2.749,9.244
		c0,0.557-0.029,1.195-0.083,1.916c-0.057,0.724-0.141,1.195-0.25,1.416h-19.321v-1.333c0-1.221-0.307-2.415-0.916-3.581
		c-0.612-1.166-1.611-2.249-2.998-3.248c-1.39-1-3.165-1.804-5.33-2.415c-2.165-0.609-4.747-0.916-7.745-0.916
		c-2.665,0-5.054,0.25-7.162,0.75c-2.111,0.5-3.888,1.166-5.33,1.999c-1.444,0.833-2.499,1.806-3.165,2.915
		c-0.667,1.111-1,2.222-1,3.331c0,2.332,1,4.138,2.998,5.413c1.999,1.278,4.635,2.277,7.912,2.998
		c3.274,0.724,6.884,1.39,10.826,1.999c3.94,0.611,7.854,1.361,11.743,2.249c3.886,0.89,7.495,2.249,10.826,4.081
		c3.332,1.832,5.968,4.305,7.912,7.412c1.941,3.11,2.915,7.162,2.915,12.159c0,5.221-1,9.66-2.998,13.325
		c-1.999,3.664-4.776,6.579-8.328,8.744c-3.555,2.166-7.552,3.748-11.992,4.747c-4.442,1-9.106,1.499-13.991,1.499H1129.657z"/>
</g>
<g>
	<path style="fill:#FF5553;" d="M2794.598,170.41V56.15h20.32l40.808,60.627l5.996,10.493l0.666-0.167V56.15h21.986v114.26h-20.82
		l-41.973-62.793l-4.164-7.662l-0.833,0.167v70.288H2794.598z"/>
	<path style="fill:#FF5553;" d="M2944.836,172.075c-7.995,0-15.074-1.64-21.236-4.914c-6.163-3.274-10.968-8.049-14.408-14.324
		c-3.442-6.272-5.163-13.908-5.163-22.902v-4.164c0-8.994,1.804-16.627,5.413-22.902c3.607-6.272,8.55-11.047,14.824-14.324
		c6.271-3.274,13.408-4.913,21.402-4.913h2.665c7.55,0,14.129,1.527,19.737,4.58c5.606,3.056,9.937,7.329,12.992,12.825
		c3.053,5.497,4.58,11.909,4.58,19.238v10.493h-57.63c0,5.33,0.667,9.994,1.999,13.991c1.332,3.998,3.331,7.053,5.996,9.161
		c2.665,2.11,6.163,3.165,10.493,3.165c3.553,0,6.662-0.692,9.327-2.082c2.665-1.387,4.773-3.469,6.329-6.246
		c1.554-2.774,2.332-6.163,2.332-10.16h21.153c0,6.553-1.666,12.354-4.997,17.406c-3.331,5.054-7.911,8.994-13.741,11.826
		c-5.829,2.832-12.575,4.247-20.236,4.247H2944.836z M2928.18,119.109h35.144c0-6.996-1.527-12.185-4.58-15.573
		c-3.056-3.386-7.245-5.08-12.575-5.08c-4.997,0-9.189,1.749-12.575,5.247C2930.204,107.2,2928.4,112.337,2928.18,119.109z"/>
	<path style="fill:#FF5553;" d="M3022.282,170.41l-26.316-85.112h23.651l15.657,54.132h0.833l15.989-54.132h23.485l15.989,54.132
		h0.999l15.657-54.132h21.985l-26.482,85.112h-24.651l-15.489-51.633h-1l-15.323,51.633H3022.282z"/>
	<path style="fill:#FF5553;" d="M3181.51,170.41V56.15h55.632c5.771,0,10.936,1.111,15.489,3.331
		c4.552,2.223,8.078,5.33,10.577,9.327c2.498,3.998,3.747,8.719,3.747,14.158c0,5.663-0.973,10.355-2.915,14.074
		c-1.943,3.722-4.388,6.663-7.328,8.828c-2.943,2.166-6.024,3.748-9.244,4.747v1c2.22,0.333,4.635,1.083,7.245,2.249
		c2.608,1.166,5.052,2.748,7.329,4.747c2.274,1.999,4.106,4.497,5.496,7.495c1.388,2.998,2.082,6.719,2.082,11.159
		c0,6.441-1.444,12.159-4.33,17.156c-2.889,4.997-6.829,8.911-11.826,11.743s-10.717,4.247-17.155,4.247H3181.51z M3204.495,103.286
		h24.984c2.998,0,5.58-0.721,7.745-2.165c2.165-1.442,3.802-3.357,4.913-5.747c1.108-2.386,1.666-4.968,1.666-7.745
		c0-4.552-1.14-7.966-3.415-10.243c-2.276-2.275-5.524-3.415-9.743-3.415h-26.15V103.286z M3204.495,152.255h26.316
		c2.998,0,5.635-0.721,7.912-2.166c2.274-1.442,4.052-3.386,5.33-5.83c1.274-2.441,1.915-5.218,1.915-8.328
		c0-3.107-0.666-5.746-1.999-7.912c-1.332-2.165-3.139-3.856-5.413-5.08c-2.277-1.22-4.804-1.832-7.578-1.832h-26.483V152.255z"/>
	<path style="fill:#FF5553;" d="M3311.093,172.075c-4.555,0-8.911-0.75-13.075-2.249s-7.579-3.998-10.243-7.495
		c-2.665-3.498-3.998-8.245-3.998-14.241c0-6.105,1.358-11.048,4.081-14.824c2.72-3.774,6.551-6.688,11.492-8.745
		c4.939-2.053,10.881-3.469,17.822-4.247c6.938-0.776,14.74-1.166,23.401-1.166v-7.495c0-4.885-1.332-8.354-3.997-10.41
		c-2.665-2.053-6.554-3.082-11.659-3.082c-4.331,0-8.136,0.974-11.409,2.915c-3.277,1.944-4.914,4.914-4.914,8.911v1.332h-21.819
		c-0.111-0.333-0.166-0.804-0.166-1.416c0-0.609,0-1.137,0-1.583c0-4.885,1.554-9.187,4.663-12.908
		c3.107-3.719,7.438-6.605,12.992-8.661c5.551-2.053,11.992-3.081,19.32-3.081h3.498c11.992,0,20.93,2.36,26.816,7.079
		c5.884,4.721,8.827,11.076,8.827,19.071v41.474c0,2.11,0.526,3.609,1.582,4.497c1.055,0.89,2.191,1.333,3.415,1.333
		c0.999,0,2.108-0.193,3.331-0.583c1.221-0.388,2.387-0.859,3.498-1.416v13.325c-1.444,1.111-3.36,1.999-5.746,2.665
		c-2.39,0.667-5.247,1-8.578,1c-3.998,0-7.329-0.64-9.994-1.916c-2.664-1.275-4.691-3.024-6.079-5.247
		c-1.39-2.22-2.248-4.773-2.582-7.662c-3.109,4.442-7.219,8.023-12.325,10.743C3324.139,170.714,3318.088,172.075,3311.093,172.075z
		 M3321.752,157.085c3.107,0,6.08-0.721,8.911-2.166c2.831-1.441,5.189-3.581,7.079-6.412c1.887-2.832,2.831-6.355,2.831-10.577
		v-6.829c-7.107,0-13.132,0.445-18.071,1.333c-4.942,0.89-8.69,2.36-11.243,4.414c-2.556,2.056-3.831,5.025-3.831,8.911
		c0,4.109,1.249,7.024,3.748,8.745C3313.674,156.226,3317.198,157.085,3321.752,157.085z"/>
	<path style="fill:#FF5553;" d="M3390.04,170.41V50.487h22.818V170.41H3390.04z"/>
	<path style="fill:#FF5553;" d="M3458.327,172.075c-4.555,0-8.911-0.75-13.075-2.249s-7.579-3.998-10.243-7.495
		c-2.665-3.498-3.998-8.245-3.998-14.241c0-6.105,1.358-11.048,4.081-14.824c2.72-3.774,6.551-6.688,11.492-8.745
		c4.939-2.053,10.881-3.469,17.822-4.247c6.938-0.776,14.74-1.166,23.401-1.166v-7.495c0-4.885-1.332-8.354-3.997-10.41
		c-2.665-2.053-6.554-3.082-11.659-3.082c-4.331,0-8.136,0.974-11.409,2.915c-3.277,1.944-4.914,4.914-4.914,8.911v1.332h-21.819
		c-0.111-0.333-0.166-0.804-0.166-1.416c0-0.609,0-1.137,0-1.583c0-4.885,1.554-9.187,4.663-12.908
		c3.107-3.719,7.438-6.605,12.992-8.661c5.551-2.053,11.992-3.081,19.32-3.081h3.498c11.992,0,20.93,2.36,26.816,7.079
		c5.884,4.721,8.827,11.076,8.827,19.071v41.474c0,2.11,0.526,3.609,1.582,4.497c1.055,0.89,2.191,1.333,3.415,1.333
		c0.999,0,2.108-0.193,3.331-0.583c1.221-0.388,2.387-0.859,3.498-1.416v13.325c-1.444,1.111-3.36,1.999-5.746,2.665
		c-2.39,0.667-5.247,1-8.578,1c-3.998,0-7.329-0.64-9.994-1.916c-2.664-1.275-4.691-3.024-6.079-5.247
		c-1.39-2.22-2.248-4.773-2.582-7.662c-3.109,4.442-7.219,8.023-12.325,10.743C3471.373,170.714,3465.322,172.075,3458.327,172.075z
		 M3468.986,157.085c3.107,0,6.08-0.721,8.911-2.166c2.831-1.441,5.189-3.581,7.079-6.412c1.887-2.832,2.831-6.355,2.831-10.577
		v-6.829c-7.107,0-13.132,0.445-18.071,1.333c-4.942,0.89-8.69,2.36-11.243,4.414c-2.556,2.056-3.831,5.025-3.831,8.911
		c0,4.109,1.249,7.024,3.748,8.745C3460.908,156.226,3464.433,157.085,3468.986,157.085z"/>
	<path style="fill:#FF5553;" d="M3537.273,170.41V85.298h16.822l2.665,12.492c3.331-4.773,7.354-8.328,12.075-10.66
		c4.719-2.332,10.077-3.498,16.073-3.498c5.772,0,10.853,1.111,15.24,3.331c4.386,2.223,7.771,5.387,10.16,9.494
		c2.387,4.109,3.581,9.106,3.581,14.991v58.962h-22.652v-54.132c0-5.439-1.332-9.437-3.997-11.992
		c-2.665-2.553-6.274-3.831-10.826-3.831c-2.889,0-5.608,0.75-8.162,2.249c-2.555,1.499-4.554,3.526-5.996,6.08
		c-1.444,2.556-2.165,5.442-2.165,8.661v52.966H3537.273z"/>
	<path style="fill:#FF5553;" d="M3671.352,172.075c-7.22,0-13.741-1.775-19.571-5.33c-5.829-3.552-10.41-8.466-13.741-14.74
		c-3.331-6.272-4.996-13.463-4.996-21.569v-5.164c0-6.105,1.025-11.685,3.081-16.739c2.054-5.051,4.856-9.465,8.411-13.241
		c3.553-3.774,7.717-6.663,12.492-8.661c4.772-1.999,9.882-2.998,15.323-2.998h3.165c7.438,0,13.907,1.473,19.404,4.414
		c5.496,2.943,9.715,7.053,12.658,12.326c2.94,5.275,4.414,11.466,4.414,18.571h-19.821c0-4.552-0.694-8.328-2.082-11.326
		c-1.39-2.998-3.359-5.272-5.912-6.829c-2.556-1.554-5.608-2.332-9.161-2.332c-5.108,0-9.385,1.749-12.825,5.247
		c-3.443,3.498-5.163,8.635-5.163,15.407v17.156c0,6.662,1.637,11.799,4.913,15.407c3.274,3.609,7.688,5.413,13.242,5.413
		c3.885,0,7.162-0.667,9.826-1.999c2.665-1.333,4.69-3.498,6.08-6.496c1.387-2.998,2.082-6.996,2.082-11.992h18.821
		c0,7.552-1.611,13.965-4.83,19.238c-3.223,5.275-7.662,9.301-13.325,12.075c-5.663,2.774-12.104,4.164-19.321,4.164H3671.352z"/>
	<path style="fill:#FF5553;" d="M3766.957,172.075c-7.995,0-15.074-1.64-21.236-4.914c-6.163-3.274-10.968-8.049-14.408-14.324
		c-3.442-6.272-5.163-13.908-5.163-22.902v-4.164c0-8.994,1.804-16.627,5.413-22.902c3.607-6.272,8.55-11.047,14.824-14.324
		c6.271-3.274,13.408-4.913,21.402-4.913h2.665c7.55,0,14.129,1.527,19.737,4.58c5.606,3.056,9.937,7.329,12.992,12.825
		c3.053,5.497,4.58,11.909,4.58,19.238v10.493h-57.63c0,5.33,0.667,9.994,1.999,13.991c1.332,3.998,3.331,7.053,5.996,9.161
		c2.665,2.11,6.163,3.165,10.493,3.165c3.553,0,6.662-0.692,9.327-2.082c2.665-1.387,4.773-3.469,6.329-6.246
		c1.554-2.774,2.332-6.163,2.332-10.16h21.153c0,6.553-1.666,12.354-4.997,17.406c-3.331,5.054-7.911,8.994-13.741,11.826
		c-5.829,2.832-12.575,4.247-20.236,4.247H3766.957z M3750.301,119.109h35.144c0-6.996-1.527-12.185-4.58-15.573
		c-3.056-3.386-7.245-5.08-12.575-5.08c-4.997,0-9.189,1.749-12.575,5.247C3752.325,107.2,3750.521,112.337,3750.301,119.109z"/>
	<path style="fill:#FF5553;" d="M3857.396,172.075c-5.33,0-10.16-0.666-14.491-1.999c-4.33-1.333-8.078-3.136-11.242-5.413
		c-3.165-2.275-5.58-4.94-7.245-7.995c-1.666-3.053-2.499-6.355-2.499-9.91c0-0.667,0-1.221,0-1.666
		c0-0.442,0.055-1.054,0.167-1.833h19.32c-0.111,0.333-0.166,0.641-0.166,0.917c0,0.278,0,0.528,0,0.75
		c0,2.777,0.941,5.08,2.831,6.912c1.887,1.832,4.331,3.165,7.329,3.998c2.998,0.833,6.217,1.249,9.66,1.249
		c2.774,0,5.58-0.333,8.411-1c2.832-0.666,5.189-1.749,7.079-3.248c1.887-1.499,2.831-3.414,2.831-5.746
		c0-2.553-0.973-4.523-2.914-5.913c-1.944-1.387-4.555-2.498-7.829-3.331c-3.276-0.833-6.857-1.554-10.743-2.165
		c-3.888-0.609-7.802-1.387-11.742-2.332c-3.942-0.942-7.552-2.303-10.826-4.081c-3.276-1.775-5.887-4.19-7.828-7.246
		c-1.944-3.053-2.915-7.079-2.915-12.075c0-4.219,0.971-7.995,2.915-11.326c1.941-3.331,4.606-6.105,7.995-8.328
		c3.386-2.22,7.271-3.885,11.659-4.997c4.385-1.109,8.965-1.666,13.741-1.666h3.331c4.439,0,8.687,0.557,12.741,1.666
		c4.053,1.111,7.688,2.693,10.91,4.747c3.219,2.056,5.746,4.498,7.578,7.329c1.832,2.832,2.748,5.913,2.748,9.244
		c0,0.557-0.028,1.195-0.083,1.916c-0.058,0.724-0.141,1.195-0.25,1.416h-19.32v-1.333c0-1.221-0.308-2.415-0.917-3.581
		c-0.611-1.166-1.61-2.249-2.998-3.248c-1.39-1-3.164-1.804-5.329-2.415c-2.166-0.609-4.747-0.916-7.745-0.916
		c-2.665,0-5.055,0.25-7.162,0.75c-2.11,0.5-3.889,1.166-5.33,1.999c-1.444,0.833-2.498,1.806-3.165,2.915
		c-0.666,1.111-0.999,2.222-0.999,3.331c0,2.332,0.999,4.138,2.998,5.413c1.999,1.278,4.635,2.277,7.912,2.998
		c3.273,0.724,6.883,1.39,10.826,1.999c3.939,0.611,7.854,1.361,11.742,2.249c3.886,0.89,7.495,2.249,10.826,4.081
		s5.968,4.305,7.912,7.412c1.941,3.11,2.914,7.162,2.914,12.159c0,5.221-0.999,9.66-2.998,13.325
		c-1.998,3.664-4.775,6.579-8.327,8.744c-3.556,2.166-7.553,3.748-11.993,4.747c-4.442,1-9.105,1.499-13.99,1.499H3857.396z"/>
</g>
<rect x="50" y="211.749" style="fill:#0033AD;" width="535.177" height="238.735"/>
<rect x="50" y="470.488" style="fill:#DCE8FF;" width="535.177" height="238.735"/>
<rect x="50" y="729.226" style="fill:#DCE8FF;" width="535.177" height="238.735"/>
<rect x="604.294" y="211.749" style="fill:#0033AD;" width="657.07" height="238.735"/>
<rect x="604.294" y="470.488" style="fill:#DCE8FF;" width="657.07" height="238.735"/>
<rect x="604.294" y="729.226" style="fill:#DCE8FF;" width="657.07" height="238.735"/>
<g>
	<path style="fill:#FFFFFF;" d="M140.203,371.762v-91.408h16.256l32.646,48.502l4.797,8.395l0.533-0.133v-56.763h17.589v91.408
		h-16.656l-33.578-50.234l-3.331-6.129l-0.667,0.133v56.23H140.203z"/>
	<path style="fill:#FFFFFF;" d="M249.065,373.094c-3.644,0-7.129-0.6-10.46-1.799s-6.062-3.198-8.195-5.996
		c-2.132-2.798-3.198-6.596-3.198-11.393c0-4.885,1.087-8.838,3.265-11.859c2.176-3.019,5.24-5.351,9.194-6.996
		c3.952-1.643,8.705-2.775,14.258-3.397c5.55-0.621,11.792-0.933,18.721-0.933v-5.997c0-3.908-1.066-6.683-3.198-8.328
		c-2.132-1.643-5.242-2.465-9.327-2.465c-3.464,0-6.508,0.779-9.127,2.332c-2.621,1.555-3.931,3.931-3.931,7.128v1.066h-17.456
		c-0.089-0.267-0.133-0.644-0.133-1.133c0-0.487,0-0.91,0-1.266c0-3.908,1.243-7.35,3.731-10.327
		c2.486-2.975,5.95-5.284,10.393-6.929c4.441-1.643,9.594-2.465,15.457-2.465h2.798c9.594,0,16.743,1.888,21.453,5.663
		c4.708,3.776,7.062,8.861,7.062,15.257v33.179c0,1.688,0.421,2.888,1.266,3.598c0.843,0.712,1.753,1.066,2.731,1.066
		c0.799,0,1.687-0.154,2.665-0.466c0.977-0.311,1.909-0.688,2.798-1.133v10.66c-1.156,0.889-2.688,1.599-4.597,2.132
		c-1.911,0.533-4.197,0.799-6.862,0.799c-3.198,0-5.863-0.512-7.995-1.532c-2.132-1.021-3.753-2.419-4.863-4.197
		c-1.112-1.776-1.799-3.818-2.065-6.129c-2.488,3.554-5.775,6.418-9.86,8.594C259.502,372.005,254.661,373.094,249.065,373.094z
		 M257.593,361.102c2.486,0,4.864-0.577,7.129-1.732c2.265-1.153,4.151-2.865,5.663-5.13c1.509-2.265,2.265-5.084,2.265-8.461
		v-5.463c-5.686,0-10.506,0.356-14.458,1.066c-3.954,0.712-6.952,1.888-8.994,3.531c-2.044,1.645-3.065,4.021-3.065,7.129
		c0,3.288,1,5.619,2.998,6.996C251.13,360.415,253.949,361.102,257.593,361.102z"/>
	<path style="fill:#FFFFFF;" d="M312.223,371.762v-68.089h13.591l2.398,9.993c2.309-3.552,5.041-6.329,8.194-8.328
		c3.152-1.999,6.996-2.998,11.526-2.998c4.441,0,8.349,0.845,11.726,2.532c3.375,1.688,6.04,4.486,7.995,8.395
		c2.132-3.552,4.885-6.263,8.262-8.128c3.375-1.865,7.372-2.798,11.992-2.798c4.351,0,8.195,0.889,11.526,2.665
		c3.331,1.778,5.93,4.31,7.795,7.595c1.866,3.288,2.798,7.285,2.798,11.992v47.17h-17.989v-43.039c0-4.441-0.933-7.683-2.798-9.727
		c-1.866-2.042-4.443-3.064-7.729-3.064c-2.132,0-4.064,0.556-5.796,1.666c-1.732,1.112-3.087,2.665-4.064,4.664
		c-0.979,1.999-1.466,4.287-1.466,6.862v42.639h-17.988v-43.039c0-4.441-0.933-7.683-2.798-9.727
		c-1.865-2.042-4.487-3.064-7.861-3.064c-2.132,0-4.043,0.556-5.73,1.666c-1.688,1.112-3.021,2.665-3.997,4.664
		c-0.979,1.999-1.466,4.287-1.466,6.862v42.639H312.223z"/>
	<path style="fill:#FFFFFF;" d="M457.86,373.094c-6.396,0-12.059-1.312-16.989-3.931s-8.773-6.44-11.526-11.459
		c-2.754-5.018-4.131-11.126-4.131-18.322v-3.331c0-7.195,1.443-13.302,4.331-18.321c2.886-5.018,6.839-8.838,11.859-11.459
		c5.018-2.619,10.727-3.931,17.123-3.931h2.132c6.04,0,11.303,1.222,15.79,3.664c4.484,2.444,7.949,5.863,10.393,10.26
		c2.442,4.397,3.665,9.527,3.665,15.39v8.395h-46.104c0,4.264,0.533,7.995,1.599,11.193c1.066,3.198,2.665,5.642,4.797,7.329
		c2.132,1.688,4.93,2.532,8.395,2.532c2.842,0,5.33-0.554,7.462-1.666c2.132-1.11,3.818-2.775,5.063-4.997
		c1.243-2.219,1.866-4.93,1.866-8.128h16.922c0,5.242-1.333,9.883-3.998,13.924c-2.665,4.043-6.329,7.195-10.993,9.46
		c-4.664,2.265-10.061,3.398-16.19,3.398H457.86z M444.536,330.722h28.115c0-5.597-1.222-9.748-3.664-12.459
		c-2.444-2.708-5.796-4.064-10.06-4.064c-3.998,0-7.352,1.399-10.061,4.197C446.156,321.194,444.713,325.304,444.536,330.722z"/>
</g>
<g>
	<path style="fill:#FFFFFF;" d="M684.394,371.762v-91.408h44.504c4.618,0,8.749,0.889,12.392,2.665
		c3.642,1.778,6.462,4.264,8.461,7.462c1.999,3.198,2.998,6.975,2.998,11.326c0,4.53-0.779,8.284-2.332,11.259
		c-1.555,2.978-3.51,5.33-5.863,7.062c-2.355,1.732-4.82,2.998-7.396,3.797v0.799c1.776,0.267,3.708,0.866,5.796,1.799
		c2.086,0.933,4.042,2.199,5.863,3.798c1.82,1.599,3.286,3.598,4.397,5.996c1.11,2.398,1.666,5.375,1.666,8.928
		c0,5.153-1.156,9.727-3.464,13.724c-2.311,3.998-5.463,7.129-9.46,9.394c-3.998,2.265-8.574,3.398-13.725,3.398H684.394z
		 M702.782,318.063h19.987c2.398,0,4.464-0.577,6.196-1.732c1.732-1.153,3.042-2.686,3.931-4.597
		c0.887-1.909,1.333-3.974,1.333-6.196c0-3.642-0.912-6.373-2.731-8.195c-1.822-1.819-4.42-2.731-7.795-2.731h-20.919V318.063z
		 M702.782,357.238h21.053c2.398,0,4.508-0.577,6.33-1.732c1.819-1.153,3.242-2.708,4.264-4.664
		c1.021-1.953,1.532-4.174,1.532-6.662c0-2.486-0.533-4.597-1.599-6.33c-1.066-1.732-2.511-3.085-4.331-4.064
		c-1.822-0.977-3.843-1.466-6.063-1.466h-21.186V357.238z"/>
	<path style="fill:#FFFFFF;" d="M788.059,373.094c-3.644,0-7.129-0.6-10.46-1.799s-6.062-3.198-8.195-5.996
		c-2.132-2.798-3.198-6.596-3.198-11.393c0-4.885,1.087-8.838,3.265-11.859c2.176-3.019,5.24-5.351,9.194-6.996
		c3.952-1.643,8.705-2.775,14.258-3.397c5.55-0.621,11.792-0.933,18.721-0.933v-5.997c0-3.908-1.066-6.683-3.198-8.328
		c-2.132-1.643-5.242-2.465-9.327-2.465c-3.464,0-6.508,0.779-9.127,2.332c-2.621,1.555-3.931,3.931-3.931,7.128v1.066h-17.456
		c-0.089-0.267-0.133-0.644-0.133-1.133c0-0.487,0-0.91,0-1.266c0-3.908,1.243-7.35,3.731-10.327
		c2.486-2.975,5.95-5.284,10.393-6.929c4.441-1.643,9.594-2.465,15.457-2.465h2.798c9.594,0,16.743,1.888,21.453,5.663
		c4.708,3.776,7.062,8.861,7.062,15.257v33.179c0,1.688,0.421,2.888,1.266,3.598c0.843,0.712,1.753,1.066,2.731,1.066
		c0.799,0,1.687-0.154,2.665-0.466c0.977-0.311,1.909-0.688,2.798-1.133v10.66c-1.156,0.889-2.688,1.599-4.597,2.132
		c-1.911,0.533-4.197,0.799-6.862,0.799c-3.198,0-5.863-0.512-7.995-1.532c-2.132-1.021-3.753-2.419-4.863-4.197
		c-1.112-1.776-1.799-3.818-2.065-6.129c-2.488,3.554-5.775,6.418-9.86,8.594C798.496,372.005,793.655,373.094,788.059,373.094z
		 M796.587,361.102c2.486,0,4.864-0.577,7.129-1.732c2.265-1.153,4.151-2.865,5.663-5.13c1.509-2.265,2.265-5.084,2.265-8.461
		v-5.463c-5.686,0-10.506,0.356-14.458,1.066c-3.954,0.712-6.952,1.888-8.994,3.531c-2.044,1.645-3.065,4.021-3.065,7.129
		c0,3.288,1,5.619,2.998,6.996C790.125,360.415,792.943,361.102,796.587,361.102z"/>
	<path style="fill:#FFFFFF;" d="M851.217,371.762v-95.938h18.255v95.938H851.217z"/>
	<path style="fill:#FFFFFF;" d="M905.846,373.094c-3.644,0-7.129-0.6-10.46-1.799s-6.062-3.198-8.195-5.996
		c-2.132-2.798-3.198-6.596-3.198-11.393c0-4.885,1.087-8.838,3.265-11.859c2.176-3.019,5.24-5.351,9.194-6.996
		c3.952-1.643,8.705-2.775,14.258-3.397c5.55-0.621,11.792-0.933,18.721-0.933v-5.997c0-3.908-1.066-6.683-3.198-8.328
		c-2.132-1.643-5.242-2.465-9.327-2.465c-3.464,0-6.508,0.779-9.127,2.332c-2.621,1.555-3.931,3.931-3.931,7.128v1.066h-17.456
		c-0.089-0.267-0.133-0.644-0.133-1.133c0-0.487,0-0.91,0-1.266c0-3.908,1.243-7.35,3.731-10.327
		c2.486-2.975,5.95-5.284,10.393-6.929c4.441-1.643,9.594-2.465,15.457-2.465h2.798c9.594,0,16.743,1.888,21.453,5.663
		c4.708,3.776,7.062,8.861,7.062,15.257v33.179c0,1.688,0.421,2.888,1.266,3.598c0.843,0.712,1.753,1.066,2.731,1.066
		c0.799,0,1.687-0.154,2.665-0.466c0.977-0.311,1.909-0.688,2.798-1.133v10.66c-1.156,0.889-2.688,1.599-4.597,2.132
		c-1.911,0.533-4.197,0.799-6.862,0.799c-3.198,0-5.863-0.512-7.995-1.532c-2.132-1.021-3.753-2.419-4.863-4.197
		c-1.112-1.776-1.799-3.818-2.065-6.129c-2.488,3.554-5.775,6.418-9.86,8.594C916.283,372.005,911.442,373.094,905.846,373.094z
		 M914.374,361.102c2.486,0,4.864-0.577,7.129-1.732c2.265-1.153,4.151-2.865,5.663-5.13c1.509-2.265,2.265-5.084,2.265-8.461
		v-5.463c-5.686,0-10.506,0.356-14.458,1.066c-3.954,0.712-6.952,1.888-8.994,3.531c-2.044,1.645-3.065,4.021-3.065,7.129
		c0,3.288,1,5.619,2.998,6.996C907.912,360.415,910.73,361.102,914.374,361.102z"/>
	<path style="fill:#FFFFFF;" d="M969.004,371.762v-68.089h13.458l2.132,9.993c2.665-3.818,5.884-6.662,9.66-8.528
		c3.775-1.865,8.062-2.798,12.859-2.798c4.618,0,8.682,0.889,12.192,2.665c3.508,1.778,6.217,4.31,8.128,7.595
		c1.909,3.288,2.865,7.285,2.865,11.992v47.17h-18.122v-43.306c0-4.351-1.066-7.549-3.198-9.594
		c-2.132-2.042-5.02-3.064-8.661-3.064c-2.311,0-4.487,0.6-6.529,1.799c-2.044,1.199-3.643,2.821-4.797,4.863
		c-1.155,2.044-1.732,4.354-1.732,6.929v42.373H969.004z"/>
	<path style="fill:#FFFFFF;" d="M1076.266,373.094c-5.775,0-10.993-1.42-15.657-4.264c-4.664-2.842-8.328-6.772-10.993-11.792
		c-2.665-5.018-3.998-10.771-3.998-17.256v-4.131c0-4.884,0.82-9.348,2.465-13.391c1.643-4.041,3.885-7.572,6.729-10.593
		c2.842-3.019,6.173-5.33,9.994-6.929c3.818-1.599,7.905-2.398,12.259-2.398h2.532c5.951,0,11.126,1.178,15.523,3.531
		c4.397,2.355,7.772,5.643,10.127,9.86c2.353,4.22,3.531,9.173,3.531,14.857h-15.856c0-3.642-0.556-6.663-1.666-9.061
		c-1.112-2.398-2.688-4.218-4.73-5.463c-2.045-1.243-4.487-1.865-7.329-1.865c-4.087,0-7.508,1.399-10.26,4.197
		c-2.754,2.798-4.131,6.908-4.131,12.326v13.724c0,5.33,1.31,9.44,3.931,12.326c2.619,2.888,6.15,4.331,10.593,4.331
		c3.109,0,5.73-0.533,7.862-1.599s3.752-2.798,4.864-5.197c1.109-2.398,1.666-5.596,1.666-9.594h15.057
		c0,6.042-1.289,11.172-3.864,15.39c-2.578,4.22-6.129,7.441-10.66,9.661c-4.53,2.219-9.683,3.331-15.457,3.331H1076.266z"/>
	<path style="fill:#FFFFFF;" d="M1152.75,373.094c-6.396,0-12.059-1.312-16.989-3.931s-8.773-6.44-11.526-11.459
		c-2.754-5.018-4.131-11.126-4.131-18.322v-3.331c0-7.195,1.443-13.302,4.331-18.321c2.886-5.018,6.839-8.838,11.859-11.459
		c5.018-2.619,10.727-3.931,17.123-3.931h2.132c6.04,0,11.303,1.222,15.79,3.664c4.484,2.444,7.949,5.863,10.393,10.26
		c2.442,4.397,3.665,9.527,3.665,15.39v8.395h-46.104c0,4.264,0.533,7.995,1.599,11.193c1.066,3.198,2.665,5.642,4.797,7.329
		c2.132,1.688,4.93,2.532,8.395,2.532c2.842,0,5.33-0.554,7.462-1.666c2.132-1.11,3.818-2.775,5.063-4.997
		c1.243-2.219,1.866-4.93,1.866-8.128h16.922c0,5.242-1.333,9.883-3.998,13.924c-2.665,4.043-6.329,7.195-10.993,9.46
		c-4.664,2.265-10.061,3.398-16.19,3.398H1152.75z M1139.425,330.722h28.115c0-5.597-1.222-9.748-3.664-12.459
		c-2.444-2.708-5.796-4.064-10.06-4.064c-3.998,0-7.352,1.399-10.061,4.197C1141.045,321.194,1139.602,325.304,1139.425,330.722z"/>
</g>
<g>
	<path d="M156.858,632.597l34.645-91.408h19.188l34.511,91.408h-17.322l-7.595-19.854h-39.708l-7.595,19.854H156.858z
		 M184.84,600.617h31.047l-15.19-41.44h-0.533L184.84,600.617z"/>
	<path d="M255.993,632.597v-95.938h15.457v95.938H255.993z"/>
	<path d="M293.034,549.184v-12.525h16.256v12.525H293.034z M293.434,632.597v-68.089h15.457v68.089H293.434z"/>
	<path d="M356.46,633.929c-5.686,0-10.793-1.399-15.324-4.197c-4.53-2.798-8.084-6.729-10.66-11.792
		c-2.578-5.063-3.864-10.926-3.864-17.589v-3.598c0-5.063,0.8-9.637,2.398-13.725c1.599-4.084,3.798-7.616,6.596-10.593
		c2.798-2.976,6.062-5.264,9.793-6.862c3.731-1.599,7.729-2.398,11.992-2.398h1.999c5.773,0,10.793,1.155,15.057,3.464
		c4.264,2.311,7.572,5.553,9.927,9.727c2.353,4.176,3.531,9.15,3.531,14.924h-13.724c0-3.908-0.646-7.173-1.932-9.794
		c-1.289-2.619-3.065-4.574-5.33-5.863c-2.265-1.287-4.909-1.932-7.928-1.932c-4.62,0-8.461,1.555-11.526,4.664
		c-3.065,3.111-4.597,7.818-4.597,14.125v11.726c0,6.309,1.487,11.083,4.464,14.324c2.975,3.244,6.906,4.864,11.792,4.864
		c3.198,0,5.973-0.6,8.328-1.799c2.353-1.199,4.174-3.085,5.463-5.663c1.287-2.576,1.932-5.951,1.932-10.127h13.058
		c0,5.952-1.289,11.039-3.864,15.257c-2.577,4.22-6.085,7.418-10.526,9.594c-4.443,2.176-9.46,3.265-15.057,3.265H356.46z"/>
	<path d="M432.01,633.929c-6.219,0-11.682-1.312-16.39-3.931c-4.709-2.619-8.374-6.463-10.993-11.526
		c-2.622-5.063-3.931-11.193-3.931-18.388v-3.065c0-7.195,1.399-13.325,4.198-18.388c2.798-5.063,6.616-8.905,11.459-11.526
		c4.841-2.619,10.371-3.931,16.589-3.931h1.732c5.773,0,10.836,1.178,15.19,3.531c4.352,2.355,7.729,5.709,10.127,10.061
		c2.398,4.353,3.598,9.46,3.598,15.323v8.395h-46.77c0,4.709,0.621,8.794,1.866,12.259c1.243,3.464,3.085,6.109,5.53,7.928
		c2.442,1.822,5.484,2.732,9.127,2.732c3.019,0,5.707-0.6,8.062-1.799c2.353-1.199,4.218-2.998,5.596-5.396
		c1.376-2.398,2.065-5.374,2.065-8.927h14.524c0,5.33-1.333,9.994-3.998,13.991c-2.665,3.998-6.263,7.108-10.793,9.328
		c-4.53,2.219-9.683,3.331-15.457,3.331H432.01z M416.953,591.956H448.4c0-6.217-1.355-10.814-4.064-13.791
		c-2.71-2.975-6.418-4.464-11.126-4.464c-4.443,0-8.195,1.532-11.259,4.597C418.885,581.363,417.22,585.917,416.953,591.956z"/>
</g>
<g>
	<path d="M681.861,632.597v-12.659h23.452v-61.161h-23.452v-9.327c3.108-0.267,6.529-0.82,10.26-1.666
		c3.731-0.843,7.595-1.953,11.593-3.332c3.998-1.376,7.861-2.908,11.592-4.597h5.597v80.082h23.185v12.659H681.861z"/>
	<path d="M791.789,633.929c-5.775,0-11.016-1.333-15.723-3.998c-4.709-2.665-8.44-6.35-11.193-11.06
		c-2.754-4.708-4.131-10.081-4.131-16.123v-31.713c0-6.04,1.376-11.414,4.131-16.123c2.752-4.707,6.483-8.395,11.193-11.06
		c4.707-2.665,9.948-3.997,15.723-3.997h3.064c5.863,0,11.126,1.333,15.79,3.997c4.664,2.665,8.349,6.353,11.06,11.06
		c2.708,4.709,4.064,10.083,4.064,16.123v31.713c0,6.042-1.355,11.416-4.064,16.123c-2.711,4.709-6.396,8.395-11.06,11.06
		s-9.927,3.998-15.79,3.998H791.789z M793.254,621.804c3.198,0,6.062-0.754,8.594-2.265c2.532-1.51,4.53-3.552,5.996-6.129
		c1.466-2.576,2.199-5.463,2.199-8.661v-35.71c0-3.286-0.733-6.196-2.199-8.728c-1.466-2.531-3.464-4.551-5.996-6.062
		c-2.532-1.509-5.396-2.265-8.594-2.265c-3.198,0-6.063,0.756-8.595,2.265c-2.532,1.512-4.53,3.531-5.996,6.062
		c-1.466,2.532-2.199,5.442-2.199,8.728v35.71c0,3.198,0.733,6.085,2.199,8.661c1.466,2.577,3.464,4.62,5.996,6.129
		C787.191,621.05,790.056,621.804,793.254,621.804z"/>
	<path d="M873.735,633.929c-5.775,0-11.016-1.333-15.723-3.998c-4.709-2.665-8.44-6.35-11.193-11.06
		c-2.754-4.708-4.131-10.081-4.131-16.123v-31.713c0-6.04,1.376-11.414,4.131-16.123c2.752-4.707,6.483-8.395,11.193-11.06
		c4.707-2.665,9.948-3.997,15.723-3.997h3.064c5.863,0,11.126,1.333,15.79,3.997c4.664,2.665,8.349,6.353,11.06,11.06
		c2.708,4.709,4.064,10.083,4.064,16.123v31.713c0,6.042-1.355,11.416-4.064,16.123c-2.711,4.709-6.396,8.395-11.06,11.06
		s-9.927,3.998-15.79,3.998H873.735z M875.201,621.804c3.198,0,6.062-0.754,8.594-2.265c2.532-1.51,4.53-3.552,5.996-6.129
		c1.466-2.576,2.199-5.463,2.199-8.661v-35.71c0-3.286-0.733-6.196-2.199-8.728c-1.466-2.531-3.464-4.551-5.996-6.062
		c-2.532-1.509-5.396-2.265-8.594-2.265c-3.198,0-6.063,0.756-8.595,2.265c-2.532,1.512-4.53,3.531-5.996,6.062
		c-1.466,2.532-2.199,5.442-2.199,8.728v35.71c0,3.198,0.733,6.085,2.199,8.661c1.466,2.577,3.464,4.62,5.996,6.129
		C869.138,621.05,872.002,621.804,875.201,621.804z"/>
	<path d="M957.012,632.597v-91.408h61.827l-1.865,12.792h-43.439v25.583h39.708v12.792h-39.708v27.449h44.105l1.999,12.792H957.012z
		"/>
	<path d="M1055.615,632.597V553.98h-27.316v-12.792h71.154v12.792h-27.315v78.616H1055.615z"/>
	<path d="M1113.975,632.597v-91.408h16.522v38.109h36.91v-38.109h16.523v91.408h-16.39v-39.974h-36.91v39.974H1113.975z"/>
</g>
<g>
	<path d="M202.228,890.947v-91.408h42.906c4.707,0,8.838,0.912,12.392,2.731c3.552,1.822,6.306,4.354,8.261,7.595
		c1.953,3.244,2.931,6.995,2.931,11.259c0,4.53-0.799,8.284-2.398,11.259c-1.599,2.978-3.598,5.309-5.996,6.996
		c-2.398,1.688-4.843,2.932-7.329,3.731v0.799c1.687,0.267,3.552,0.823,5.597,1.666c2.042,0.845,3.997,2.044,5.863,3.598
		c1.865,1.555,3.398,3.554,4.597,5.996c1.199,2.444,1.799,5.486,1.799,9.127c0,5.153-1.133,9.727-3.398,13.725
		c-2.265,3.997-5.375,7.151-9.327,9.46c-3.954,2.311-8.551,3.464-13.792,3.464H202.228z M218.218,838.181h21.453
		c2.665,0,4.974-0.643,6.929-1.932c1.953-1.287,3.464-2.975,4.53-5.063c1.066-2.086,1.599-4.374,1.599-6.862
		c0-3.997-1-7.039-2.999-9.127c-1.999-2.086-4.909-3.131-8.728-3.131h-22.785V838.181z M218.218,878.421h22.918
		c2.665,0,4.997-0.643,6.996-1.932c1.999-1.287,3.575-3.019,4.73-5.196c1.154-2.176,1.732-4.551,1.732-7.129
		c0-2.752-0.6-5.13-1.799-7.129c-1.199-1.999-2.821-3.552-4.864-4.664c-2.044-1.11-4.31-1.666-6.795-1.666h-22.918V878.421z"/>
	<path d="M316.421,892.279c-6.042,0-11.459-1.376-16.256-4.131c-4.797-2.752-8.551-6.706-11.259-11.859
		c-2.711-5.151-4.064-11.236-4.064-18.255v-2.265c0-7.106,1.354-13.212,4.064-18.322c2.708-5.107,6.439-9.038,11.192-11.792
		c4.751-2.752,10.148-4.13,16.19-4.13h2.132c6.129,0,11.57,1.378,16.323,4.13c4.751,2.754,8.482,6.686,11.193,11.792
		c2.708,5.109,4.064,11.216,4.064,18.322v2.265c0,7.019-1.355,13.104-4.064,18.255c-2.711,5.153-6.442,9.106-11.193,11.859
		c-4.753,2.754-10.15,4.131-16.189,4.131H316.421z M317.354,881.753c3.108,0,5.884-0.733,8.328-2.199
		c2.442-1.466,4.397-3.665,5.863-6.596c1.466-2.932,2.198-6.483,2.198-10.66v-10.793c0-4.264-0.732-7.838-2.198-10.727
		c-1.466-2.885-3.421-5.063-5.863-6.529c-2.444-1.466-5.22-2.199-8.328-2.199c-3.021,0-5.752,0.733-8.195,2.199
		c-2.444,1.466-4.397,3.644-5.863,6.529c-1.466,2.888-2.199,6.463-2.199,10.727v10.793c0,4.177,0.733,7.729,2.199,10.66
		c1.466,2.931,3.418,5.13,5.863,6.596C311.602,881.02,314.333,881.753,317.354,881.753z"/>
	<path d="M400.765,892.279c-10.039,0-17.678-4.041-22.918-12.125l-5.33,10.793h-5.729v-95.938h15.457v36.244
		c1.776-2.576,4.375-4.841,7.795-6.796c3.419-1.953,7.439-2.931,12.059-2.931c4.884,0,9.348,1.132,13.392,3.397
		c4.041,2.266,7.262,5.776,9.66,10.527c2.398,4.753,3.598,10.859,3.598,18.321v3.065c0,8.174-1.266,14.88-3.797,20.12
		c-2.532,5.243-5.909,9.107-10.127,11.593C410.603,891.034,405.916,892.279,400.765,892.279z M397.701,881.753
		c2.842,0,5.374-0.71,7.595-2.132c2.219-1.42,3.974-3.641,5.263-6.662c1.287-3.019,1.932-6.973,1.932-11.859v-9.46
		c0-4.352-0.623-7.949-1.866-10.793c-1.245-2.842-2.931-4.974-5.063-6.396c-2.132-1.42-4.62-2.132-7.462-2.132
		c-2.844,0-5.463,0.712-7.861,2.132c-2.398,1.422-4.331,3.577-5.796,6.462c-1.466,2.888-2.199,6.508-2.199,10.86v9.46
		c0,4.887,0.687,8.84,2.065,11.859c1.376,3.021,3.242,5.219,5.597,6.596C392.258,881.065,394.856,881.753,397.701,881.753z"/>
</g>
<g>
	<path d="M722.833,890.947v-12.659h23.452v-61.161h-23.452V807.8c3.108-0.267,6.529-0.82,10.26-1.666
		c3.731-0.843,7.595-1.953,11.593-3.332c3.998-1.376,7.861-2.908,11.592-4.597h5.597v80.082h23.185v12.659H722.833z"/>
	<path d="M832.761,892.279c-5.775,0-11.016-1.333-15.723-3.998c-4.709-2.665-8.44-6.35-11.193-11.06
		c-2.754-4.708-4.131-10.081-4.131-16.123v-31.713c0-6.04,1.376-11.414,4.131-16.123c2.752-4.707,6.483-8.395,11.193-11.06
		c4.707-2.665,9.948-3.997,15.723-3.997h3.064c5.863,0,11.126,1.333,15.79,3.997c4.664,2.665,8.349,6.353,11.06,11.06
		c2.708,4.709,4.064,10.083,4.064,16.123v31.713c0,6.042-1.355,11.416-4.064,16.123c-2.711,4.709-6.396,8.395-11.06,11.06
		s-9.927,3.998-15.79,3.998H832.761z M834.227,880.154c3.198,0,6.062-0.754,8.594-2.265c2.532-1.51,4.53-3.552,5.996-6.129
		c1.466-2.576,2.199-5.463,2.199-8.661v-35.71c0-3.286-0.733-6.196-2.199-8.728c-1.466-2.531-3.464-4.551-5.996-6.062
		c-2.532-1.509-5.396-2.265-8.594-2.265c-3.198,0-6.063,0.756-8.595,2.265c-2.532,1.512-4.53,3.531-5.996,6.062
		c-1.466,2.532-2.199,5.442-2.199,8.728v35.71c0,3.198,0.733,6.085,2.199,8.661c1.466,2.577,3.464,4.62,5.996,6.129
		C828.164,879.4,831.029,880.154,834.227,880.154z"/>
	<path d="M916.039,890.947v-91.408h61.827L976,812.331h-43.439v25.583h39.708v12.792h-39.708v27.449h44.105l1.999,12.792H916.039z"
		/>
	<path d="M1014.641,890.947v-78.616h-27.316v-12.792h71.154v12.792h-27.315v78.616H1014.641z"/>
	<path d="M1073.002,890.947v-91.408h16.522v38.109h36.91v-38.109h16.523v91.408h-16.39v-39.974h-36.91v39.974H1073.002z"/>
</g>
<rect x="2738.637" y="211.749" style="fill:#FF5553;" width="535.177" height="238.735"/>
<rect x="2738.637" y="470.488" style="fill:#FFDCDC;" width="535.177" height="238.735"/>
<rect x="2738.637" y="729.226" style="fill:#FFDCDC;" width="535.177" height="238.735"/>
<rect x="3292.93" y="211.749" style="fill:#FF5553;" width="657.07" height="238.735"/>
<rect x="3292.93" y="470.488" style="fill:#FFDCDC;" width="657.07" height="238.735"/>
<rect x="3292.93" y="729.226" style="fill:#FFDCDC;" width="657.07" height="238.735"/>
<g>
	<path style="fill:#FFFFFF;" d="M2828.84,371.762v-91.408h16.256l32.646,48.502l4.797,8.395l0.533-0.133v-56.763h17.589v91.408
		h-16.656l-33.578-50.234l-3.331-6.129l-0.666,0.133v56.23H2828.84z"/>
	<path style="fill:#FFFFFF;" d="M2937.702,373.094c-3.644,0-7.129-0.6-10.46-1.799s-6.062-3.198-8.194-5.996
		c-2.133-2.798-3.198-6.596-3.198-11.393c0-4.885,1.087-8.838,3.265-11.859c2.176-3.019,5.24-5.351,9.194-6.996
		c3.951-1.643,8.704-2.775,14.257-3.397c5.551-0.621,11.793-0.933,18.722-0.933v-5.997c0-3.908-1.066-6.683-3.198-8.328
		c-2.132-1.643-5.242-2.465-9.327-2.465c-3.465,0-6.509,0.779-9.128,2.332c-2.621,1.555-3.931,3.931-3.931,7.128v1.066h-17.455
		c-0.09-0.267-0.133-0.644-0.133-1.133c0-0.487,0-0.91,0-1.266c0-3.908,1.242-7.35,3.73-10.327c2.486-2.975,5.95-5.284,10.394-6.929
		c4.44-1.643,9.594-2.465,15.456-2.465h2.799c9.594,0,16.743,1.888,21.453,5.663c4.707,3.776,7.062,8.861,7.062,15.257v33.179
		c0,1.688,0.421,2.888,1.266,3.598c0.844,0.712,1.754,1.066,2.732,1.066c0.799,0,1.686-0.154,2.664-0.466
		c0.977-0.311,1.909-0.688,2.799-1.133v10.66c-1.155,0.889-2.688,1.599-4.598,2.132c-1.911,0.533-4.197,0.799-6.862,0.799
		c-3.197,0-5.862-0.512-7.994-1.532c-2.132-1.021-3.754-2.419-4.864-4.197c-1.111-1.776-1.799-3.818-2.064-6.129
		c-2.488,3.554-5.775,6.418-9.86,8.594C2948.14,372.005,2943.299,373.094,2937.702,373.094z M2946.23,361.102
		c2.485,0,4.863-0.577,7.128-1.732c2.266-1.153,4.152-2.865,5.663-5.13c1.51-2.265,2.266-5.084,2.266-8.461v-5.463
		c-5.687,0-10.506,0.356-14.457,1.066c-3.954,0.712-6.952,1.888-8.995,3.531c-2.044,1.645-3.064,4.021-3.064,7.129
		c0,3.288,1,5.619,2.998,6.996C2939.768,360.415,2942.587,361.102,2946.23,361.102z"/>
	<path style="fill:#FFFFFF;" d="M3000.859,371.762v-68.089h13.592l2.398,9.993c2.309-3.552,5.04-6.329,8.194-8.328
		c3.152-1.999,6.996-2.998,11.526-2.998c4.44,0,8.349,0.845,11.726,2.532c3.375,1.688,6.04,4.486,7.995,8.395
		c2.132-3.552,4.884-6.263,8.261-8.128c3.375-1.865,7.373-2.798,11.992-2.798c4.352,0,8.195,0.889,11.526,2.665
		c3.331,1.778,5.93,4.31,7.795,7.595c1.865,3.288,2.798,7.285,2.798,11.992v47.17h-17.988v-43.039c0-4.441-0.933-7.683-2.798-9.727
		c-1.865-2.042-4.443-3.064-7.729-3.064c-2.132,0-4.064,0.556-5.796,1.666c-1.732,1.112-3.088,2.665-4.064,4.664
		c-0.979,1.999-1.466,4.287-1.466,6.862v42.639h-17.988v-43.039c0-4.441-0.933-7.683-2.798-9.727
		c-1.866-2.042-4.487-3.064-7.862-3.064c-2.132,0-4.043,0.556-5.729,1.666c-1.688,1.112-3.021,2.665-3.997,4.664
		c-0.979,1.999-1.466,4.287-1.466,6.862v42.639H3000.859z"/>
	<path style="fill:#FFFFFF;" d="M3146.497,373.094c-6.396,0-12.059-1.312-16.989-3.931c-4.93-2.619-8.773-6.44-11.525-11.459
		c-2.755-5.018-4.131-11.126-4.131-18.322v-3.331c0-7.195,1.443-13.302,4.331-18.321c2.885-5.018,6.839-8.838,11.858-11.459
		c5.018-2.619,10.727-3.931,17.122-3.931h2.133c6.039,0,11.303,1.222,15.789,3.664c4.485,2.444,7.949,5.863,10.394,10.26
		c2.442,4.397,3.664,9.527,3.664,15.39v8.395h-46.104c0,4.264,0.533,7.995,1.6,11.193c1.065,3.198,2.664,5.642,4.797,7.329
		c2.132,1.688,4.93,2.532,8.395,2.532c2.842,0,5.33-0.554,7.462-1.666c2.132-1.11,3.818-2.775,5.063-4.997
		c1.242-2.219,1.865-4.93,1.865-8.128h16.922c0,5.242-1.332,9.883-3.997,13.924c-2.665,4.043-6.329,7.195-10.993,9.46
		c-4.663,2.265-10.06,3.398-16.189,3.398H3146.497z M3133.173,330.722h28.115c0-5.597-1.223-9.748-3.665-12.459
		c-2.443-2.708-5.796-4.064-10.06-4.064c-3.998,0-7.352,1.399-10.061,4.197C3134.792,321.194,3133.35,325.304,3133.173,330.722z"/>
</g>
<g>
	<path style="fill:#FFFFFF;" d="M3373.03,371.762v-91.408h44.505c4.617,0,8.748,0.889,12.392,2.665
		c3.642,1.778,6.463,4.264,8.461,7.462c1.999,3.198,2.998,6.975,2.998,11.326c0,4.53-0.778,8.284-2.331,11.259
		c-1.556,2.978-3.511,5.33-5.863,7.062c-2.354,1.732-4.82,2.998-7.396,3.797v0.799c1.776,0.267,3.708,0.866,5.797,1.799
		c2.086,0.933,4.041,2.199,5.862,3.798c1.82,1.599,3.285,3.598,4.397,5.996c1.109,2.398,1.665,5.375,1.665,8.928
		c0,5.153-1.155,9.727-3.464,13.724c-2.312,3.998-5.463,7.129-9.461,9.394c-3.997,2.265-8.573,3.398-13.725,3.398H3373.03z
		 M3391.418,318.063h19.987c2.398,0,4.464-0.577,6.196-1.732c1.732-1.153,3.042-2.686,3.931-4.597
		c0.887-1.909,1.332-3.974,1.332-6.196c0-3.642-0.911-6.373-2.731-8.195c-1.821-1.819-4.42-2.731-7.795-2.731h-20.92V318.063z
		 M3391.418,357.238h21.054c2.398,0,4.507-0.577,6.329-1.732c1.819-1.153,3.241-2.708,4.264-4.664
		c1.021-1.953,1.532-4.174,1.532-6.662c0-2.486-0.533-4.597-1.599-6.33c-1.066-1.732-2.511-3.085-4.331-4.064
		c-1.821-0.977-3.843-1.466-6.062-1.466h-21.187V357.238z"/>
	<path style="fill:#FFFFFF;" d="M3476.695,373.094c-3.644,0-7.129-0.6-10.46-1.799s-6.062-3.198-8.194-5.996
		c-2.133-2.798-3.198-6.596-3.198-11.393c0-4.885,1.087-8.838,3.265-11.859c2.176-3.019,5.24-5.351,9.194-6.996
		c3.951-1.643,8.704-2.775,14.257-3.397c5.551-0.621,11.793-0.933,18.722-0.933v-5.997c0-3.908-1.066-6.683-3.198-8.328
		c-2.132-1.643-5.242-2.465-9.327-2.465c-3.465,0-6.509,0.779-9.128,2.332c-2.621,1.555-3.931,3.931-3.931,7.128v1.066h-17.455
		c-0.09-0.267-0.133-0.644-0.133-1.133c0-0.487,0-0.91,0-1.266c0-3.908,1.242-7.35,3.73-10.327c2.486-2.975,5.95-5.284,10.394-6.929
		c4.44-1.643,9.594-2.465,15.456-2.465h2.799c9.594,0,16.743,1.888,21.453,5.663c4.707,3.776,7.062,8.861,7.062,15.257v33.179
		c0,1.688,0.421,2.888,1.266,3.598c0.844,0.712,1.754,1.066,2.732,1.066c0.799,0,1.686-0.154,2.664-0.466
		c0.977-0.311,1.909-0.688,2.799-1.133v10.66c-1.155,0.889-2.688,1.599-4.598,2.132c-1.911,0.533-4.197,0.799-6.862,0.799
		c-3.197,0-5.862-0.512-7.994-1.532c-2.132-1.021-3.754-2.419-4.864-4.197c-1.111-1.776-1.799-3.818-2.064-6.129
		c-2.488,3.554-5.775,6.418-9.86,8.594C3487.133,372.005,3482.292,373.094,3476.695,373.094z M3485.224,361.102
		c2.485,0,4.863-0.577,7.128-1.732c2.266-1.153,4.152-2.865,5.663-5.13c1.51-2.265,2.266-5.084,2.266-8.461v-5.463
		c-5.687,0-10.506,0.356-14.457,1.066c-3.954,0.712-6.952,1.888-8.995,3.531c-2.044,1.645-3.064,4.021-3.064,7.129
		c0,3.288,1,5.619,2.998,6.996C3478.761,360.415,3481.58,361.102,3485.224,361.102z"/>
	<path style="fill:#FFFFFF;" d="M3539.853,371.762v-95.938h18.255v95.938H3539.853z"/>
	<path style="fill:#FFFFFF;" d="M3594.482,373.094c-3.644,0-7.129-0.6-10.46-1.799s-6.062-3.198-8.194-5.996
		c-2.133-2.798-3.198-6.596-3.198-11.393c0-4.885,1.087-8.838,3.265-11.859c2.176-3.019,5.24-5.351,9.194-6.996
		c3.951-1.643,8.704-2.775,14.257-3.397c5.551-0.621,11.793-0.933,18.722-0.933v-5.997c0-3.908-1.066-6.683-3.198-8.328
		c-2.132-1.643-5.242-2.465-9.327-2.465c-3.465,0-6.509,0.779-9.128,2.332c-2.621,1.555-3.931,3.931-3.931,7.128v1.066h-17.455
		c-0.09-0.267-0.133-0.644-0.133-1.133c0-0.487,0-0.91,0-1.266c0-3.908,1.242-7.35,3.73-10.327c2.486-2.975,5.95-5.284,10.394-6.929
		c4.44-1.643,9.594-2.465,15.456-2.465h2.799c9.594,0,16.743,1.888,21.453,5.663c4.707,3.776,7.062,8.861,7.062,15.257v33.179
		c0,1.688,0.421,2.888,1.266,3.598c0.844,0.712,1.754,1.066,2.732,1.066c0.799,0,1.686-0.154,2.664-0.466
		c0.977-0.311,1.909-0.688,2.799-1.133v10.66c-1.155,0.889-2.688,1.599-4.598,2.132c-1.911,0.533-4.197,0.799-6.862,0.799
		c-3.197,0-5.862-0.512-7.994-1.532c-2.132-1.021-3.754-2.419-4.864-4.197c-1.111-1.776-1.799-3.818-2.064-6.129
		c-2.488,3.554-5.775,6.418-9.86,8.594C3604.92,372.005,3600.079,373.094,3594.482,373.094z M3603.011,361.102
		c2.485,0,4.863-0.577,7.128-1.732c2.266-1.153,4.152-2.865,5.663-5.13c1.51-2.265,2.266-5.084,2.266-8.461v-5.463
		c-5.687,0-10.506,0.356-14.457,1.066c-3.954,0.712-6.952,1.888-8.995,3.531c-2.044,1.645-3.064,4.021-3.064,7.129
		c0,3.288,1,5.619,2.998,6.996C3596.548,360.415,3599.367,361.102,3603.011,361.102z"/>
	<path style="fill:#FFFFFF;" d="M3657.641,371.762v-68.089h13.458l2.132,9.993c2.665-3.818,5.884-6.662,9.661-8.528
		c3.774-1.865,8.062-2.798,12.858-2.798c4.617,0,8.682,0.889,12.192,2.665c3.508,1.778,6.217,4.31,8.128,7.595
		c1.909,3.288,2.864,7.285,2.864,11.992v47.17h-18.121v-43.306c0-4.351-1.066-7.549-3.198-9.594
		c-2.132-2.042-5.02-3.064-8.661-3.064c-2.311,0-4.486,0.6-6.529,1.799c-2.044,1.199-3.644,2.821-4.797,4.863
		c-1.155,2.044-1.732,4.354-1.732,6.929v42.373H3657.641z"/>
	<path style="fill:#FFFFFF;" d="M3764.902,373.094c-5.775,0-10.993-1.42-15.656-4.264c-4.664-2.842-8.328-6.772-10.993-11.792
		c-2.665-5.018-3.998-10.771-3.998-17.256v-4.131c0-4.884,0.82-9.348,2.466-13.391c1.643-4.041,3.885-7.572,6.729-10.593
		c2.842-3.019,6.174-5.33,9.994-6.929c3.818-1.599,7.905-2.398,12.259-2.398h2.531c5.95,0,11.126,1.178,15.523,3.531
		c4.397,2.355,7.772,5.643,10.127,9.86c2.353,4.22,3.531,9.173,3.531,14.857h-15.856c0-3.642-0.557-6.663-1.666-9.061
		c-1.111-2.398-2.688-4.218-4.73-5.463c-2.044-1.243-4.486-1.865-7.328-1.865c-4.087,0-7.508,1.399-10.261,4.197
		c-2.754,2.798-4.13,6.908-4.13,12.326v13.724c0,5.33,1.31,9.44,3.931,12.326c2.619,2.888,6.15,4.331,10.593,4.331
		c3.108,0,5.729-0.533,7.862-1.599c2.132-1.066,3.751-2.798,4.863-5.197c1.109-2.398,1.665-5.596,1.665-9.594h15.058
		c0,6.042-1.289,11.172-3.864,15.39c-2.578,4.22-6.13,7.441-10.66,9.661c-4.53,2.219-9.684,3.331-15.457,3.331H3764.902z"/>
	<path style="fill:#FFFFFF;" d="M3841.387,373.094c-6.396,0-12.059-1.312-16.989-3.931c-4.93-2.619-8.773-6.44-11.525-11.459
		c-2.755-5.018-4.131-11.126-4.131-18.322v-3.331c0-7.195,1.443-13.302,4.331-18.321c2.885-5.018,6.839-8.838,11.858-11.459
		c5.018-2.619,10.727-3.931,17.122-3.931h2.133c6.039,0,11.303,1.222,15.789,3.664c4.485,2.444,7.949,5.863,10.394,10.26
		c2.442,4.397,3.664,9.527,3.664,15.39v8.395h-46.104c0,4.264,0.533,7.995,1.6,11.193c1.065,3.198,2.664,5.642,4.797,7.329
		c2.132,1.688,4.93,2.532,8.395,2.532c2.842,0,5.33-0.554,7.462-1.666c2.132-1.11,3.818-2.775,5.063-4.997
		c1.242-2.219,1.865-4.93,1.865-8.128h16.922c0,5.242-1.332,9.883-3.997,13.924c-2.665,4.043-6.329,7.195-10.993,9.46
		c-4.663,2.265-10.06,3.398-16.189,3.398H3841.387z M3828.062,330.722h28.115c0-5.597-1.223-9.748-3.665-12.459
		c-2.443-2.708-5.796-4.064-10.06-4.064c-3.998,0-7.352,1.399-10.061,4.197C3829.682,321.194,3828.239,325.304,3828.062,330.722z"/>
</g>
<g>
	<path d="M2845.495,632.597l34.645-91.408h19.188l34.512,91.408h-17.322l-7.596-19.854h-39.708l-7.595,19.854H2845.495z
		 M2873.478,600.617h31.047l-15.19-41.44h-0.533L2873.478,600.617z"/>
	<path d="M2944.63,632.597v-95.938h15.457v95.938H2944.63z"/>
	<path d="M2981.671,549.184v-12.525h16.256v12.525H2981.671z M2982.07,632.597v-68.089h15.457v68.089H2982.07z"/>
	<path d="M3045.097,633.929c-5.686,0-10.793-1.399-15.323-4.197s-8.085-6.729-10.66-11.792c-2.577-5.063-3.864-10.926-3.864-17.589
		v-3.598c0-5.063,0.8-9.637,2.398-13.725c1.6-4.084,3.798-7.616,6.596-10.593c2.799-2.976,6.063-5.264,9.794-6.862
		c3.73-1.599,7.729-2.398,11.992-2.398h1.999c5.773,0,10.793,1.155,15.057,3.464c4.264,2.311,7.572,5.553,9.927,9.727
		c2.353,4.176,3.531,9.15,3.531,14.924h-13.725c0-3.908-0.646-7.173-1.932-9.794c-1.289-2.619-3.064-4.574-5.33-5.863
		c-2.266-1.287-4.909-1.932-7.929-1.932c-4.619,0-8.461,1.555-11.525,4.664c-3.064,3.111-4.597,7.818-4.597,14.125v11.726
		c0,6.309,1.486,11.083,4.463,14.324c2.976,3.244,6.906,4.864,11.793,4.864c3.198,0,5.974-0.6,8.328-1.799
		c2.353-1.199,4.174-3.085,5.463-5.663c1.287-2.576,1.932-5.951,1.932-10.127h13.059c0,5.952-1.289,11.039-3.864,15.257
		c-2.577,4.22-6.085,7.418-10.526,9.594c-4.443,2.176-9.461,3.265-15.057,3.265H3045.097z"/>
	<path d="M3120.646,633.929c-6.219,0-11.682-1.312-16.389-3.931c-4.71-2.619-8.374-6.463-10.993-11.526
		c-2.621-5.063-3.931-11.193-3.931-18.388v-3.065c0-7.195,1.398-13.325,4.197-18.388c2.798-5.063,6.616-8.905,11.459-11.526
		c4.841-2.619,10.37-3.931,16.59-3.931h1.731c5.773,0,10.837,1.178,15.19,3.531c4.352,2.355,7.729,5.709,10.127,10.061
		c2.398,4.353,3.598,9.46,3.598,15.323v8.395h-46.77c0,4.709,0.62,8.794,1.865,12.259c1.243,3.464,3.085,6.109,5.529,7.928
		c2.442,1.822,5.484,2.732,9.128,2.732c3.019,0,5.707-0.6,8.062-1.799c2.353-1.199,4.218-2.998,5.597-5.396
		c1.376-2.398,2.064-5.374,2.064-8.927h14.524c0,5.33-1.332,9.994-3.997,13.991c-2.665,3.998-6.263,7.108-10.793,9.328
		c-4.531,2.219-9.684,3.331-15.457,3.331H3120.646z M3105.59,591.956h31.446c0-6.217-1.355-10.814-4.063-13.791
		c-2.711-2.975-6.419-4.464-11.127-4.464c-4.442,0-8.194,1.532-11.259,4.597C3107.522,581.363,3105.856,585.917,3105.59,591.956z"/>
</g>
<g>
	<path d="M3422.93,632.597c0-7.729,0.953-15.211,2.864-22.452c1.909-7.239,4.441-14.191,7.596-20.854
		c3.151-6.662,6.639-12.902,10.46-18.721c3.818-5.817,7.639-11.126,11.459-15.923h-46.104v-13.458h65.024v7.595
		c-5.419,6.752-10.283,13.481-14.591,20.187c-4.31,6.708-7.928,13.481-10.859,20.32c-2.932,6.842-5.109,13.858-6.529,21.053
		c-1.422,7.195-1.955,14.614-1.599,22.252H3422.93z"/>
	<path d="M3521.398,633.929c-5.775,0-11.016-1.333-15.724-3.998c-4.709-2.665-8.44-6.35-11.192-11.06
		c-2.755-4.708-4.131-10.081-4.131-16.123v-31.713c0-6.04,1.376-11.414,4.131-16.123c2.752-4.707,6.483-8.395,11.192-11.06
		c4.708-2.665,9.948-3.997,15.724-3.997h3.064c5.863,0,11.126,1.333,15.79,3.997c4.664,2.665,8.349,6.353,11.06,11.06
		c2.709,4.709,4.064,10.083,4.064,16.123v31.713c0,6.042-1.355,11.416-4.064,16.123c-2.711,4.709-6.396,8.395-11.06,11.06
		s-9.927,3.998-15.79,3.998H3521.398z M3522.864,621.804c3.198,0,6.062-0.754,8.595-2.265c2.531-1.51,4.53-3.552,5.996-6.129
		c1.465-2.576,2.198-5.463,2.198-8.661v-35.71c0-3.286-0.733-6.196-2.198-8.728c-1.466-2.531-3.465-4.551-5.996-6.062
		c-2.532-1.509-5.396-2.265-8.595-2.265s-6.062,0.756-8.595,2.265c-2.531,1.512-4.53,3.531-5.996,6.062
		c-1.466,2.532-2.198,5.442-2.198,8.728v35.71c0,3.198,0.732,6.085,2.198,8.661c1.466,2.577,3.465,4.62,5.996,6.129
		C3516.802,621.05,3519.666,621.804,3522.864,621.804z"/>
	<path d="M3604.676,632.597v-91.408h61.827l-1.866,12.792h-43.438v25.583h39.708v12.792h-39.708v27.449h44.105l1.998,12.792
		H3604.676z"/>
	<path d="M3703.278,632.597V553.98h-27.315v-12.792h71.154v12.792h-27.316v78.616H3703.278z"/>
	<path d="M3761.639,632.597v-91.408h16.522v38.109h36.91v-38.109h16.522v91.408h-16.39v-39.974h-36.909v39.974H3761.639z"/>
</g>
<g>
	<path d="M2890.864,890.947v-91.408h42.905c4.708,0,8.839,0.912,12.393,2.731c3.552,1.822,6.307,4.354,8.261,7.595
		c1.953,3.244,2.932,6.995,2.932,11.259c0,4.53-0.799,8.284-2.398,11.259c-1.599,2.978-3.598,5.309-5.996,6.996
		c-2.398,1.688-4.843,2.932-7.328,3.731v0.799c1.687,0.267,3.552,0.823,5.596,1.666c2.043,0.845,3.998,2.044,5.863,3.598
		c1.865,1.555,3.397,3.554,4.597,5.996c1.199,2.444,1.799,5.486,1.799,9.127c0,5.153-1.132,9.727-3.397,13.725
		c-2.266,3.997-5.376,7.151-9.327,9.46c-3.954,2.311-8.551,3.464-13.791,3.464H2890.864z M2906.854,838.181h21.453
		c2.665,0,4.974-0.643,6.929-1.932c1.953-1.287,3.465-2.975,4.53-5.063c1.066-2.086,1.6-4.374,1.6-6.862
		c0-3.997-1-7.039-2.998-9.127c-1.999-2.086-4.909-3.131-8.728-3.131h-22.786V838.181z M2906.854,878.421h22.919
		c2.665,0,4.997-0.643,6.995-1.932c1.999-1.287,3.575-3.019,4.73-5.196c1.153-2.176,1.732-4.551,1.732-7.129
		c0-2.752-0.6-5.13-1.799-7.129c-1.199-1.999-2.821-3.552-4.863-4.664c-2.045-1.11-4.31-1.666-6.796-1.666h-22.919V878.421z"/>
	<path d="M3005.058,892.279c-6.042,0-11.46-1.376-16.257-4.131c-4.797-2.752-8.551-6.706-11.259-11.859
		c-2.711-5.151-4.064-11.236-4.064-18.255v-2.265c0-7.106,1.354-13.212,4.064-18.322c2.708-5.107,6.439-9.038,11.192-11.792
		c4.751-2.752,10.147-4.13,16.189-4.13h2.132c6.13,0,11.57,1.378,16.323,4.13c4.751,2.754,8.482,6.686,11.192,11.792
		c2.709,5.109,4.064,11.216,4.064,18.322v2.265c0,7.019-1.355,13.104-4.064,18.255c-2.71,5.153-6.441,9.106-11.192,11.859
		c-4.753,2.754-10.149,4.131-16.189,4.131H3005.058z M3005.99,881.753c3.108,0,5.884-0.733,8.328-2.199
		c2.442-1.466,4.396-3.665,5.862-6.596c1.466-2.932,2.199-6.483,2.199-10.66v-10.793c0-4.264-0.733-7.838-2.199-10.727
		c-1.466-2.885-3.42-5.063-5.862-6.529c-2.444-1.466-5.22-2.199-8.328-2.199c-3.021,0-5.753,0.733-8.195,2.199
		c-2.443,1.466-4.396,3.644-5.862,6.529c-1.466,2.888-2.198,6.463-2.198,10.727v10.793c0,4.177,0.732,7.729,2.198,10.66
		c1.466,2.931,3.419,5.13,5.862,6.596C3000.237,881.02,3002.969,881.753,3005.99,881.753z"/>
	<path d="M3089.401,892.279c-10.04,0-17.679-4.041-22.919-12.125l-5.33,10.793h-5.729v-95.938h15.457v36.244
		c1.775-2.576,4.374-4.841,7.795-6.796c3.418-1.953,7.438-2.931,12.059-2.931c4.885,0,9.349,1.132,13.392,3.397
		c4.041,2.266,7.262,5.776,9.66,10.527c2.398,4.753,3.598,10.859,3.598,18.321v3.065c0,8.174-1.266,14.88-3.798,20.12
		c-2.531,5.243-5.908,9.107-10.126,11.593C3099.238,891.034,3094.552,892.279,3089.401,892.279z M3086.336,881.753
		c2.842,0,5.374-0.71,7.596-2.132c2.219-1.42,3.975-3.641,5.263-6.662c1.287-3.019,1.933-6.973,1.933-11.859v-9.46
		c0-4.352-0.623-7.949-1.865-10.793c-1.245-2.842-2.932-4.974-5.063-6.396c-2.132-1.42-4.62-2.132-7.462-2.132
		c-2.845,0-5.464,0.712-7.862,2.132c-2.398,1.422-4.33,3.577-5.796,6.462c-1.466,2.888-2.198,6.508-2.198,10.86v9.46
		c0,4.887,0.687,8.84,2.065,11.859c1.376,3.021,3.241,5.219,5.596,6.596C3080.894,881.065,3083.492,881.753,3086.336,881.753z"/>
</g>
<g>
	<path d="M3448.113,890.947v-22.785h-42.239V855.77c1.242-1.953,2.775-4.597,4.597-7.928c1.819-3.332,3.774-7.083,5.863-11.26
		c2.086-4.174,4.151-8.548,6.195-13.125c2.043-4.574,3.952-9.038,5.729-13.392c1.776-4.352,3.242-8.305,4.397-11.859h14.524
		c-0.979,3.82-2.355,7.928-4.131,12.325c-1.778,4.397-3.731,8.861-5.863,13.392c-2.132,4.53-4.376,8.861-6.729,12.992
		c-2.354,4.13-4.598,7.841-6.729,11.126c-2.132,3.288-4.087,5.909-5.862,7.862h30.247v-25.051c0.71-1.066,1.486-2.465,2.332-4.197
		c0.843-1.732,1.709-3.531,2.598-5.396c0.888-1.866,1.687-3.685,2.398-5.463c0.71-1.776,1.243-3.285,1.6-4.53h6.396v44.638h11.859
		v12.259h-11.859v22.785H3448.113z"/>
	<path d="M3521.398,892.279c-5.775,0-11.016-1.333-15.724-3.998c-4.709-2.665-8.44-6.35-11.192-11.06
		c-2.755-4.708-4.131-10.081-4.131-16.123v-31.713c0-6.04,1.376-11.414,4.131-16.123c2.752-4.707,6.483-8.395,11.192-11.06
		c4.708-2.665,9.948-3.997,15.724-3.997h3.064c5.863,0,11.126,1.333,15.79,3.997c4.664,2.665,8.349,6.353,11.06,11.06
		c2.709,4.709,4.064,10.083,4.064,16.123v31.713c0,6.042-1.355,11.416-4.064,16.123c-2.711,4.709-6.396,8.395-11.06,11.06
		s-9.927,3.998-15.79,3.998H3521.398z M3522.864,880.154c3.198,0,6.062-0.754,8.595-2.265c2.531-1.51,4.53-3.552,5.996-6.129
		c1.465-2.576,2.198-5.463,2.198-8.661v-35.71c0-3.286-0.733-6.196-2.198-8.728c-1.466-2.531-3.465-4.551-5.996-6.062
		c-2.532-1.509-5.396-2.265-8.595-2.265s-6.062,0.756-8.595,2.265c-2.531,1.512-4.53,3.531-5.996,6.062
		c-1.466,2.532-2.198,5.442-2.198,8.728v35.71c0,3.198,0.732,6.085,2.198,8.661c1.466,2.577,3.465,4.62,5.996,6.129
		C3516.802,879.4,3519.666,880.154,3522.864,880.154z"/>
	<path d="M3604.676,890.947v-91.408h61.827l-1.866,12.792h-43.438v25.583h39.708v12.792h-39.708v27.449h44.105l1.998,12.792
		H3604.676z"/>
	<path d="M3703.278,890.947v-78.616h-27.315v-12.792h71.154v12.792h-27.316v78.616H3703.278z"/>
	<path d="M3761.639,890.947v-91.408h16.522v38.109h36.91v-38.109h16.522v91.408h-16.39v-39.974h-36.909v39.974H3761.639z"/>
</g>
<g>
	<g>
		<path d="M1695.708,537.58l33.578-91.408h23.185l33.445,91.408h-20.254l-7.062-18.921h-37.043l-7.062,18.921H1695.708z
			 M1726.355,504.668h27.315l-13.325-37.976h-0.533L1726.355,504.668z"/>
		<path d="M1795.511,537.58v-95.938h18.255v95.938H1795.511z"/>
		<path d="M1833.75,455.766v-14.125h18.788v14.125H1833.75z M1834.017,537.58v-68.089h18.255v68.089H1834.017z"/>
		<path d="M1898.773,538.913c-5.775,0-10.993-1.42-15.657-4.264c-4.664-2.842-8.328-6.772-10.993-11.792
			c-2.665-5.018-3.998-10.771-3.998-17.256v-4.131c0-4.884,0.82-9.348,2.465-13.391c1.643-4.041,3.885-7.572,6.729-10.593
			c2.842-3.019,6.173-5.33,9.994-6.929c3.818-1.599,7.905-2.398,12.259-2.398h2.532c5.951,0,11.126,1.178,15.523,3.531
			c4.397,2.355,7.772,5.643,10.127,9.86c2.353,4.22,3.531,9.173,3.531,14.857h-15.856c0-3.642-0.556-6.663-1.666-9.061
			c-1.112-2.398-2.688-4.218-4.73-5.463c-2.045-1.243-4.487-1.865-7.329-1.865c-4.087,0-7.508,1.399-10.26,4.197
			c-2.754,2.798-4.131,6.908-4.131,12.326v13.724c0,5.33,1.31,9.44,3.931,12.326c2.619,2.888,6.15,4.331,10.593,4.331
			c3.109,0,5.73-0.533,7.862-1.599s3.752-2.798,4.864-5.197c1.109-2.398,1.666-5.596,1.666-9.594h15.057
			c0,6.042-1.289,11.172-3.864,15.39c-2.578,4.22-6.129,7.441-10.66,9.661c-4.53,2.219-9.683,3.331-15.457,3.331H1898.773z"/>
		<path d="M1975.257,538.913c-6.396,0-12.059-1.312-16.989-3.931s-8.773-6.44-11.526-11.459c-2.754-5.018-4.131-11.126-4.131-18.322
			v-3.331c0-7.195,1.443-13.302,4.331-18.321c2.886-5.018,6.839-8.838,11.859-11.459c5.018-2.619,10.727-3.931,17.123-3.931h2.132
			c6.04,0,11.303,1.222,15.79,3.664c4.484,2.444,7.949,5.863,10.393,10.26c2.443,4.397,3.665,9.527,3.665,15.39v8.395h-46.104
			c0,4.264,0.533,7.995,1.599,11.193c1.066,3.198,2.665,5.642,4.797,7.329c2.132,1.688,4.93,2.532,8.395,2.532
			c2.842,0,5.33-0.554,7.462-1.666c2.132-1.11,3.818-2.775,5.063-4.997c1.243-2.219,1.866-4.93,1.866-8.128h16.922
			c0,5.242-1.333,9.883-3.997,13.924c-2.666,4.043-6.33,7.195-10.993,9.46c-4.664,2.265-10.061,3.398-16.19,3.398H1975.257z
			 M1961.933,496.54h28.115c0-5.597-1.222-9.748-3.664-12.459c-2.444-2.708-5.796-4.064-10.06-4.064
			c-3.998,0-7.352,1.399-10.061,4.197C1963.553,487.013,1962.11,491.123,1961.933,496.54z"/>
		<path d="M2076.123,538.913c-4.264,0-8.128-0.533-11.593-1.599s-6.463-2.509-8.994-4.331c-2.531-1.819-4.464-3.952-5.796-6.396
			c-1.333-2.442-1.999-5.084-1.999-7.928c0-0.533,0-0.976,0-1.332c0-0.354,0.044-0.843,0.133-1.466h15.457
			c-0.09,0.267-0.133,0.512-0.133,0.733c0,0.223,0,0.422,0,0.6c0,2.221,0.753,4.064,2.265,5.53c1.51,1.465,3.465,2.532,5.863,3.198
			s4.974,1,7.729,1c2.219,0,4.464-0.267,6.729-0.8c2.266-0.533,4.151-1.399,5.663-2.598c1.51-1.199,2.266-2.731,2.266-4.597
			c0-2.042-0.779-3.618-2.332-4.73c-1.556-1.11-3.644-1.999-6.263-2.665c-2.621-0.667-5.486-1.243-8.595-1.732
			c-3.11-0.487-6.241-1.109-9.394-1.865c-3.154-0.754-6.042-1.843-8.661-3.265c-2.621-1.42-4.71-3.352-6.263-5.796
			c-1.556-2.442-2.332-5.663-2.332-9.661c0-3.375,0.776-6.396,2.332-9.061c1.553-2.665,3.685-4.884,6.396-6.663
			c2.709-1.776,5.817-3.108,9.327-3.997c3.509-0.887,7.173-1.333,10.993-1.333h2.665c3.552,0,6.95,0.445,10.193,1.333
			c3.242,0.889,6.15,2.155,8.728,3.797c2.576,1.645,4.598,3.598,6.063,5.863s2.198,4.73,2.198,7.396
			c0,0.445-0.022,0.956-0.066,1.532c-0.046,0.579-0.112,0.956-0.2,1.132h-15.457v-1.066c0-0.976-0.245-1.932-0.732-2.865
			c-0.489-0.933-1.289-1.799-2.398-2.598c-1.111-0.8-2.531-1.443-4.264-1.932c-1.732-0.487-3.798-0.733-6.196-0.733
			c-2.132,0-4.043,0.2-5.729,0.6c-1.688,0.4-3.11,0.933-4.264,1.599c-1.156,0.666-1.999,1.445-2.532,2.332
			c-0.533,0.889-0.8,1.778-0.8,2.665c0,1.866,0.8,3.311,2.398,4.331c1.6,1.022,3.708,1.822,6.33,2.398
			c2.619,0.579,5.507,1.112,8.661,1.599c3.151,0.489,6.283,1.089,9.394,1.799c3.108,0.712,5.996,1.799,8.661,3.265
			c2.665,1.465,4.774,3.443,6.329,5.929c1.554,2.488,2.332,5.73,2.332,9.727c0,4.177-0.8,7.729-2.398,10.66
			c-1.599,2.931-3.82,5.263-6.662,6.995c-2.845,1.732-6.042,2.999-9.594,3.798c-3.555,0.799-7.285,1.199-11.193,1.199H2076.123z"/>
		<path d="M2154.472,538.913c-6.396,0-12.059-1.312-16.989-3.931c-4.93-2.619-8.773-6.44-11.525-11.459
			c-2.755-5.018-4.131-11.126-4.131-18.322v-3.331c0-7.195,1.443-13.302,4.331-18.321c2.885-5.018,6.839-8.838,11.858-11.459
			c5.018-2.619,10.727-3.931,17.122-3.931h2.133c6.039,0,11.303,1.222,15.789,3.664c4.485,2.444,7.949,5.863,10.394,10.26
			c2.442,4.397,3.664,9.527,3.664,15.39v8.395h-46.104c0,4.264,0.533,7.995,1.6,11.193c1.065,3.198,2.664,5.642,4.797,7.329
			c2.132,1.688,4.93,2.532,8.395,2.532c2.842,0,5.33-0.554,7.462-1.666c2.132-1.11,3.818-2.775,5.063-4.997
			c1.242-2.219,1.865-4.93,1.865-8.128h16.922c0,5.242-1.332,9.883-3.997,13.924c-2.665,4.043-6.329,7.195-10.993,9.46
			c-4.663,2.265-10.06,3.398-16.189,3.398H2154.472z M2141.147,496.54h28.115c0-5.597-1.223-9.748-3.665-12.459
			c-2.443-2.708-5.796-4.064-10.06-4.064c-3.998,0-7.352,1.399-10.061,4.197C2142.767,487.013,2141.324,491.123,2141.147,496.54z"/>
		<path d="M2202.438,537.58v-68.089h13.458l2.132,9.993c2.665-3.818,5.884-6.662,9.661-8.528c3.774-1.865,8.062-2.798,12.858-2.798
			c4.617,0,8.682,0.889,12.192,2.665c3.508,1.778,6.217,4.31,8.128,7.595c1.909,3.288,2.864,7.285,2.864,11.992v47.17h-18.121
			v-43.306c0-4.351-1.066-7.549-3.198-9.594c-2.132-2.042-5.02-3.064-8.661-3.064c-2.311,0-4.486,0.6-6.529,1.799
			c-2.044,1.199-3.644,2.821-4.797,4.863c-1.155,2.044-1.732,4.354-1.732,6.929v42.373H2202.438z"/>
		<path d="M2306.903,538.913c-5.33,0-10.083-1.245-14.258-3.731c-4.177-2.486-7.484-6.35-9.927-11.593
			c-2.444-5.24-3.665-11.902-3.665-19.987v-1.466c0-7.549,1.221-13.835,3.665-18.854c2.442-5.018,5.706-8.794,9.794-11.326
			c4.084-2.532,8.527-3.797,13.324-3.797s8.815,0.889,12.059,2.665c3.242,1.778,5.707,3.998,7.396,6.663v-35.844h18.122v95.938
			h-14.258l-1.999-9.061c-2.132,3.021-4.843,5.509-8.128,7.462C2315.741,537.934,2311.7,538.913,2306.903,538.913z M2311.566,526.92
			c2.575,0,4.885-0.621,6.929-1.866c2.043-1.243,3.686-3.175,4.931-5.796c1.243-2.619,1.865-5.973,1.865-10.06v-11.859
			c0-3.731-0.6-6.839-1.799-9.328c-1.199-2.486-2.844-4.374-4.93-5.663c-2.089-1.287-4.421-1.932-6.996-1.932
			c-3.73,0-6.885,1.445-9.46,4.331c-2.578,2.888-3.864,7.085-3.864,12.592v11.859c0,4.087,0.6,7.441,1.799,10.06
			c1.199,2.622,2.798,4.554,4.797,5.796C2306.836,526.3,2309.079,526.92,2311.566,526.92z"/>
		<path d="M2385.917,538.913c-4.264,0-8.128-0.533-11.593-1.599s-6.463-2.509-8.994-4.331c-2.531-1.819-4.464-3.952-5.796-6.396
			c-1.333-2.442-1.999-5.084-1.999-7.928c0-0.533,0-0.976,0-1.332c0-0.354,0.044-0.843,0.133-1.466h15.457
			c-0.09,0.267-0.133,0.512-0.133,0.733c0,0.223,0,0.422,0,0.6c0,2.221,0.753,4.064,2.265,5.53c1.51,1.465,3.465,2.532,5.863,3.198
			s4.974,1,7.729,1c2.219,0,4.464-0.267,6.729-0.8c2.266-0.533,4.151-1.399,5.663-2.598c1.51-1.199,2.266-2.731,2.266-4.597
			c0-2.042-0.779-3.618-2.332-4.73c-1.556-1.11-3.644-1.999-6.263-2.665c-2.621-0.667-5.486-1.243-8.595-1.732
			c-3.11-0.487-6.241-1.109-9.394-1.865c-3.154-0.754-6.042-1.843-8.661-3.265c-2.621-1.42-4.71-3.352-6.263-5.796
			c-1.556-2.442-2.332-5.663-2.332-9.661c0-3.375,0.776-6.396,2.332-9.061c1.553-2.665,3.685-4.884,6.396-6.663
			c2.709-1.776,5.817-3.108,9.327-3.997c3.509-0.887,7.173-1.333,10.993-1.333h2.665c3.552,0,6.95,0.445,10.193,1.333
			c3.242,0.889,6.15,2.155,8.728,3.797c2.576,1.645,4.598,3.598,6.063,5.863s2.198,4.73,2.198,7.396
			c0,0.445-0.022,0.956-0.066,1.532c-0.046,0.579-0.112,0.956-0.2,1.132h-15.457v-1.066c0-0.976-0.245-1.932-0.732-2.865
			c-0.489-0.933-1.289-1.799-2.398-2.598c-1.111-0.8-2.531-1.443-4.264-1.932c-1.732-0.487-3.798-0.733-6.196-0.733
			c-2.132,0-4.043,0.2-5.729,0.6c-1.688,0.4-3.11,0.933-4.264,1.599c-1.156,0.666-1.999,1.445-2.532,2.332
			c-0.533,0.889-0.8,1.778-0.8,2.665c0,1.866,0.8,3.311,2.398,4.331c1.6,1.022,3.708,1.822,6.33,2.398
			c2.619,0.579,5.507,1.112,8.661,1.599c3.151,0.489,6.283,1.089,9.394,1.799c3.108,0.712,5.996,1.799,8.661,3.265
			c2.665,1.465,4.774,3.443,6.329,5.929c1.554,2.488,2.332,5.73,2.332,9.727c0,4.177-0.8,7.729-2.398,10.66
			c-1.599,2.931-3.82,5.263-6.662,6.995c-2.845,1.732-6.042,2.999-9.594,3.798c-3.555,0.799-7.285,1.199-11.193,1.199H2385.917z"/>
		<path d="M1673.589,705.472c-6.751,0-12.481-1.133-17.189-3.398c-4.709-2.265-8.261-5.374-10.66-9.327
			c-2.398-3.952-3.598-8.416-3.598-13.392v-2.532h16.656c0,5.33,1.576,9.084,4.73,11.26c3.152,2.178,7.262,3.264,12.326,3.264
			c5.063,0,9.171-1.153,12.325-3.464c3.152-2.309,4.73-5.863,4.73-10.66c0-3.198-0.689-5.796-2.065-7.795
			c-1.378-1.999-3.221-3.485-5.53-4.464c-2.311-0.977-4.843-1.466-7.595-1.466h-12.392v-12.125h10.926
			c2.576,0,4.997-0.487,7.262-1.466c2.265-0.977,4.064-2.442,5.396-4.397c1.333-1.953,1.999-4.397,1.999-7.329
			c0-2.842-0.666-5.174-1.999-6.996c-1.333-1.82-3.154-3.198-5.463-4.131c-2.311-0.933-4.886-1.399-7.728-1.399
			c-4.709,0-8.417,1.156-11.126,3.464c-2.71,2.311-4.064,5.597-4.064,9.86h-15.856v-2.798c0-4.884,1.376-9.171,4.131-12.858
			c2.752-3.685,6.483-6.596,11.193-8.728c4.707-2.132,10.081-3.198,16.123-3.198h2.665c5.863,0,11.06,1.045,15.59,3.131
			c4.531,2.088,8.105,4.976,10.727,8.661c2.619,3.687,3.931,7.974,3.931,12.858c0,3.377-0.579,6.352-1.732,8.927
			c-1.156,2.578-2.754,4.776-4.797,6.596c-2.044,1.822-4.443,3.354-7.195,4.597v0.799c4.707,1.512,8.571,4.021,11.592,7.529
			c3.019,3.51,4.531,8.24,4.531,14.191c0,5.153-1.466,9.75-4.397,13.791c-2.931,4.043-6.975,7.218-12.125,9.527
			c-5.153,2.309-11.06,3.464-17.722,3.464H1673.589z"/>
		<path d="M1757.134,705.472c-5.863,0-11.193-1.376-15.99-4.131c-4.797-2.752-8.594-6.529-11.393-11.326
			c-2.798-4.797-4.197-10.214-4.197-16.256v-30.647c0-6.129,1.399-11.57,4.197-16.323c2.798-4.751,6.596-8.505,11.393-11.26
			c4.797-2.752,10.127-4.13,15.99-4.13h3.864c5.95,0,11.303,1.378,16.056,4.13c4.751,2.754,8.505,6.508,11.26,11.26
			c2.752,4.753,4.13,10.193,4.13,16.323v30.647c0,6.042-1.378,11.459-4.13,16.256c-2.755,4.797-6.508,8.573-11.26,11.326
			c-4.753,2.754-10.106,4.131-16.056,4.131H1757.134z M1759,691.481c2.931,0,5.53-0.687,7.795-2.065
			c2.265-1.376,4.041-3.219,5.33-5.53c1.287-2.309,1.932-4.93,1.932-7.862v-35.311c0-2.932-0.646-5.551-1.932-7.862
			c-1.289-2.309-3.064-4.151-5.33-5.53c-2.265-1.376-4.864-2.065-7.795-2.065c-2.844,0-5.396,0.689-7.662,2.065
			c-2.265,1.378-4.064,3.221-5.396,5.53c-1.333,2.311-1.999,4.93-1.999,7.862v35.311c0,2.932,0.666,5.553,1.999,7.862
			c1.333,2.311,3.131,4.153,5.396,5.53C1753.603,690.794,1756.155,691.481,1759,691.481z"/>
		<path d="M1838.946,704.14v-91.408h63.559l-2.132,14.923h-42.106v22.519h39.042v14.657h-39.042v24.384h42.639l2.132,14.924
			H1838.946z"/>
		<path d="M1937.28,704.14v-76.351h-26.25v-15.057h71.82v15.057h-26.25v76.351H1937.28z"/>
		<path d="M1996.175,704.14v-91.408h19.454v37.042h33.045v-37.042h19.454v91.408h-19.32v-38.908h-33.046v38.908H1996.175z"/>
		<path d="M2139.147,705.472c-3.82,0-7.241-0.533-10.26-1.599c-3.021-1.066-5.376-2.865-7.062-5.396
			c-1.688-2.532-2.531-5.884-2.531-10.06v-38.775h-7.462V636.05h7.995l6.396-21.72h11.193v21.72h15.989v13.591h-15.989v34.778
			c0,3.91,0.799,6.396,2.398,7.462c1.599,1.066,3.331,1.599,5.196,1.599c0.977,0,2.332-0.2,4.064-0.6
			c1.731-0.4,3.131-0.82,4.197-1.266v11.193c-1.156,0.623-2.578,1.133-4.265,1.532c-1.688,0.4-3.397,0.687-5.13,0.866
			C2142.146,705.383,2140.567,705.472,2139.147,705.472z"/>
		<path d="M2197.375,705.472c-6.219,0-11.792-1.399-16.723-4.197c-4.93-2.798-8.794-6.773-11.592-11.926
			c-2.799-5.151-4.198-11.193-4.198-18.122v-2.398c0-7.017,1.399-13.059,4.198-18.122c2.798-5.063,6.639-8.995,11.525-11.792
			c4.885-2.798,10.438-4.197,16.656-4.197h2.665c6.306,0,11.902,1.399,16.789,4.197c4.884,2.798,8.728,6.729,11.525,11.792
			c2.799,5.063,4.197,11.105,4.197,18.122v2.398c0,7.019-1.398,13.081-4.197,18.188c-2.798,5.109-6.642,9.061-11.525,11.859
			c-4.887,2.798-10.439,4.197-16.656,4.197H2197.375z M2198.574,693.48c2.753,0,5.218-0.644,7.396-1.932
			c2.176-1.287,3.908-3.219,5.196-5.796c1.287-2.575,1.933-5.64,1.933-9.194v-13.059c0-3.641-0.646-6.706-1.933-9.194
			c-1.288-2.486-3.021-4.397-5.196-5.73c-2.178-1.333-4.643-1.999-7.396-1.999c-2.665,0-5.109,0.666-7.328,1.999
			c-2.222,1.333-3.977,3.244-5.264,5.73c-1.289,2.488-1.932,5.553-1.932,9.194v13.059c0,3.554,0.643,6.619,1.932,9.194
			c1.287,2.578,3.042,4.51,5.264,5.796C2193.465,692.836,2195.909,693.48,2198.574,693.48z"/>
		<path d="M2277.321,704.14v-91.408h44.505c4.617,0,8.748,0.889,12.392,2.665c3.642,1.778,6.463,4.264,8.461,7.462
			c1.999,3.198,2.998,6.975,2.998,11.326c0,4.53-0.778,8.284-2.331,11.259c-1.556,2.978-3.511,5.33-5.863,7.062
			c-2.354,1.732-4.82,2.998-7.396,3.797v0.799c1.776,0.267,3.708,0.866,5.797,1.799c2.086,0.933,4.041,2.199,5.862,3.798
			c1.82,1.599,3.285,3.598,4.397,5.996c1.109,2.398,1.665,5.375,1.665,8.928c0,5.153-1.155,9.727-3.464,13.724
			c-2.312,3.998-5.463,7.129-9.461,9.394c-3.997,2.265-8.573,3.398-13.725,3.398H2277.321z M2295.709,650.441h19.987
			c2.398,0,4.464-0.577,6.196-1.732c1.732-1.153,3.042-2.686,3.931-4.597c0.887-1.909,1.332-3.974,1.332-6.196
			c0-3.642-0.911-6.373-2.731-8.195c-1.821-1.819-4.42-2.731-7.795-2.731h-20.92V650.441z M2295.709,689.616h21.054
			c2.398,0,4.507-0.577,6.329-1.732c1.819-1.153,3.241-2.708,4.264-4.664c1.021-1.953,1.532-4.174,1.532-6.662
			c0-2.486-0.533-4.597-1.599-6.33c-1.066-1.732-2.511-3.085-4.331-4.064c-1.821-0.977-3.843-1.466-6.062-1.466h-21.187V689.616z"/>
		<path d="M2392.712,705.472c-6.219,0-11.792-1.399-16.723-4.197c-4.93-2.798-8.794-6.773-11.592-11.926
			c-2.799-5.151-4.198-11.193-4.198-18.122v-2.398c0-7.017,1.399-13.059,4.198-18.122c2.798-5.063,6.639-8.995,11.525-11.792
			c4.885-2.798,10.438-4.197,16.656-4.197h2.665c6.306,0,11.902,1.399,16.789,4.197c4.884,2.798,8.728,6.729,11.525,11.792
			c2.799,5.063,4.197,11.105,4.197,18.122v2.398c0,7.019-1.398,13.081-4.197,18.188c-2.798,5.109-6.642,9.061-11.525,11.859
			c-4.887,2.798-10.439,4.197-16.656,4.197H2392.712z M2393.911,693.48c2.753,0,5.218-0.644,7.396-1.932
			c2.176-1.287,3.908-3.219,5.196-5.796c1.287-2.575,1.933-5.64,1.933-9.194v-13.059c0-3.641-0.646-6.706-1.933-9.194
			c-1.288-2.486-3.021-4.397-5.196-5.73c-2.178-1.333-4.643-1.999-7.396-1.999c-2.665,0-5.109,0.666-7.328,1.999
			c-2.222,1.333-3.977,3.244-5.264,5.73c-1.289,2.488-1.932,5.553-1.932,9.194v13.059c0,3.554,0.643,6.619,1.932,9.194
			c1.287,2.578,3.042,4.51,5.264,5.796C2388.802,692.836,2391.246,693.48,2393.911,693.48z"/>
		<path d="M2478.523,705.472c-9.95,0-17.545-3.998-22.785-11.992l-6.263,10.66h-6.663v-95.938h18.255v35.844
			c1.866-2.575,4.441-4.774,7.729-6.596c3.285-1.82,7.195-2.731,11.726-2.731c4.885,0,9.328,1.132,13.325,3.397
			c3.997,2.266,7.195,5.796,9.594,10.593s3.598,10.972,3.598,18.521v2.932c0,8.084-1.289,14.747-3.864,19.987
			c-2.577,5.243-6.042,9.107-10.394,11.593C2488.427,704.227,2483.674,705.472,2478.523,705.472z M2474.659,693.48
			c2.575,0,4.841-0.621,6.796-1.866c1.952-1.243,3.508-3.175,4.663-5.796c1.153-2.619,1.732-5.973,1.732-10.06v-11.992
			c0-3.731-0.556-6.816-1.666-9.261c-1.111-2.442-2.621-4.308-4.53-5.596c-1.911-1.287-4.153-1.932-6.729-1.932
			c-2.488,0-4.797,0.645-6.929,1.932c-2.133,1.289-3.821,3.177-5.063,5.663c-1.245,2.488-1.866,5.597-1.866,9.328v11.859
			c0,4.087,0.6,7.441,1.799,10.06c1.199,2.622,2.842,4.554,4.931,5.796C2469.883,692.859,2472.171,693.48,2474.659,693.48z"/>
	</g>
</g>
<g>
	<rect x="1856.689" y="771.56" style="fill:none;" width="3.948" height="0"/>
</g>
</svg>
