<?xml version="1.0" encoding="iso-8859-1"?>
<!-- Generator: Adobe Illustrator 29.6.0, SVG Export Plug-In . SVG Version: 9.03 Build 0)  -->
<svg version="1.1" xmlns="http://www.w3.org/2000/svg" xmlns:xlink="http://www.w3.org/1999/xlink" x="0px" y="0px"
	 viewBox="0 0 4000 2000" style="enable-background:new 0 0 4000 2000;" xml:space="preserve">
<g id="Layer_3">
</g>
<g id="Shapes">
	<g>
		<g>
			
				<line style="fill:none;stroke:#000000;stroke-width:15.3142;stroke-miterlimit:10;" x1="1464.265" y1="1003.961" x2="1830.564" y2="1003.961"/>
			<g>
				<polygon points="1819.392,1042.142 1885.513,1003.961 1819.392,965.78 				"/>
			</g>
		</g>
	</g>
	<g>
		<g>
			
				<line style="fill:none;stroke:#000000;stroke-width:15.3142;stroke-miterlimit:10;" x1="2566.144" y1="794.644" x2="3244.753" y2="560.086"/>
			<g>
				<polygon points="3246.667,599.821 3296.687,542.135 3221.721,527.649 				"/>
			</g>
		</g>
	</g>
	<g>
		<g>
			
				<line style="fill:none;stroke:#000000;stroke-width:15.3142;stroke-miterlimit:10;" x1="2552.531" y1="1203.023" x2="3211.415" y2="1538.348"/>
			<g>
				<polygon points="3184.141,1567.308 3260.387,1563.271 3218.776,1499.253 				"/>
			</g>
		</g>
	</g>
	<path style="fill:#0033AD;" d="M2553.552,1246.436H1922.82c-23.081,0-41.966-18.885-41.966-41.966V803.452
		c0-23.081,18.885-41.966,41.966-41.966h630.732c23.081,0,41.966,18.885,41.966,41.966v401.019
		C2595.518,1227.551,2576.633,1246.436,2553.552,1246.436z"/>
	<g>
		<circle style="fill:#FF5553;stroke:#FFFFFF;stroke-width:1.2762;stroke-miterlimit:10;" cx="394.57" cy="388.332" r="344.57"/>
		<g>
			<path style="fill:#FFFFFF;" d="M242.323,347.232l32.16-87.546h22.206l32.032,87.546h-19.398l-6.764-18.122h-35.478l-6.764,18.122
				H242.323z M271.676,315.71h26.162l-12.762-36.371h-0.511L271.676,315.71z"/>
			<path style="fill:#FFFFFF;" d="M337.91,347.232v-91.885h17.483v91.885H337.91z"/>
			<path style="fill:#FFFFFF;" d="M374.534,268.874v-13.527h17.994v13.527H374.534z M374.789,347.232v-65.213h17.484v65.213H374.789
				z"/>
			<path style="fill:#FFFFFF;" d="M436.81,348.509c-5.531,0-10.528-1.36-14.995-4.084c-4.467-2.722-7.976-6.487-10.528-11.294
				c-2.553-4.806-3.829-10.315-3.829-16.526v-3.956c0-4.678,0.786-8.953,2.361-12.826c1.573-3.871,3.721-7.252,6.445-10.146
				c2.722-2.891,5.912-5.104,9.571-6.636c3.657-1.532,7.571-2.297,11.741-2.297H440c5.699,0,10.656,1.129,14.868,3.382
				c4.211,2.255,7.444,5.404,9.699,9.444c2.253,4.042,3.382,8.786,3.382,14.229h-15.187c0-3.488-0.532-6.381-1.595-8.678
				c-1.064-2.297-2.574-4.04-4.53-5.232c-1.958-1.19-4.297-1.787-7.019-1.787c-3.914,0-7.19,1.34-9.827,4.02
				c-2.638,2.68-3.956,6.616-3.956,11.805v13.145c0,5.104,1.254,9.041,3.765,11.805c2.508,2.766,5.891,4.147,10.146,4.147
				c2.978,0,5.488-0.51,7.53-1.531s3.593-2.68,4.658-4.977c1.062-2.297,1.595-5.36,1.595-9.189h14.421
				c0,5.787-1.234,10.7-3.701,14.74c-2.469,4.042-5.871,7.126-10.209,9.252c-4.339,2.125-9.274,3.19-14.804,3.19H436.81z"/>
			<path style="fill:#FFFFFF;" d="M510.062,348.509c-6.125,0-11.549-1.256-16.271-3.765c-4.722-2.508-8.403-6.167-11.039-10.975
				c-2.638-4.806-3.957-10.656-3.957-17.547v-3.19c0-6.892,1.382-12.74,4.148-17.548c2.764-4.805,6.55-8.464,11.358-10.975
				c4.806-2.508,10.273-3.765,16.399-3.765h2.042c5.785,0,10.826,1.17,15.123,3.51c4.295,2.341,7.613,5.615,9.955,9.826
				c2.339,4.211,3.509,9.125,3.509,14.74v8.04h-44.156c0,4.083,0.51,7.657,1.531,10.72s2.552,5.404,4.594,7.019
				c2.042,1.617,4.722,2.425,8.04,2.425c2.722,0,5.104-0.53,7.146-1.595c2.042-1.063,3.657-2.658,4.85-4.786
				c1.19-2.125,1.787-4.722,1.787-7.785h16.208c0,5.021-1.276,9.465-3.829,13.336c-2.552,3.873-6.062,6.892-10.528,9.061
				c-4.467,2.169-9.635,3.254-15.506,3.254H510.062z M497.301,307.926h26.927c0-5.36-1.17-9.336-3.509-11.932
				c-2.341-2.594-5.551-3.893-9.635-3.893c-3.829,0-7.041,1.34-9.635,4.02C498.852,298.801,497.47,302.737,497.301,307.926z"/>
			<path style="fill:#FFFFFF;" d="M209.907,488.889c-5.787,0-10.975-1.296-15.569-3.893c-4.594-2.594-8.231-6.167-10.912-10.72
				c-2.68-4.551-4.02-9.805-4.02-15.761v-29.352c0-5.954,1.36-11.23,4.084-15.825c2.722-4.594,6.401-8.167,11.039-10.72
				c4.636-2.552,9.891-3.828,15.761-3.828h2.169c5.444,0,10.357,1.128,14.74,3.382c4.381,2.255,7.89,5.531,10.528,9.827
				c2.636,4.297,3.956,9.507,3.956,15.633h-15.952c0-4.764-1.34-8.487-4.02-11.167c-2.68-2.68-6.062-4.02-10.146-4.02
				c-2.808,0-5.296,0.638-7.466,1.915c-2.169,1.276-3.914,2.999-5.232,5.168c-1.32,2.169-1.978,4.616-1.978,7.338v13.911
				c2.381-2.808,5.296-4.933,8.742-6.381c3.446-1.446,6.912-2.169,10.401-2.169c5.188,0,9.868,1.064,14.038,3.19
				c4.168,2.127,7.466,5.19,9.891,9.188c2.425,4,3.637,8.85,3.637,14.548c0,5.956-1.404,11.167-4.211,15.633
				s-6.594,7.934-11.358,10.401c-4.766,2.467-10.04,3.701-15.825,3.701H209.907z M211.694,475.872c3.146,0,5.785-0.68,7.913-2.042
				c2.125-1.36,3.785-3.254,4.977-5.679c1.19-2.425,1.787-5.252,1.787-8.486c0-3.402-0.618-6.317-1.851-8.742
				c-1.234-2.425-2.935-4.275-5.104-5.551c-2.17-1.276-4.744-1.914-7.721-1.914c-3.062,0-5.679,0.66-7.849,1.978
				c-2.169,1.32-3.872,3.17-5.104,5.551c-1.234,2.383-1.851,5.232-1.851,8.55c0,3.404,0.616,6.317,1.851,8.742
				c1.232,2.424,2.955,4.297,5.168,5.615C206.121,475.214,208.715,475.872,211.694,475.872z"/>
			<path style="fill:#FFFFFF;" d="M287.37,488.889c-5.615,0-10.72-1.318-15.314-3.957c-4.594-2.636-8.231-6.253-10.912-10.847
				c-2.68-4.594-4.02-9.783-4.02-15.57v-29.352c0-5.871,1.34-11.081,4.02-15.633c2.68-4.55,6.317-8.146,10.912-10.784
				c4.594-2.636,9.699-3.956,15.314-3.956h3.701c5.699,0,10.826,1.32,15.378,3.956c4.55,2.638,8.146,6.233,10.784,10.784
				c2.636,4.552,3.956,9.763,3.956,15.633v29.352c0,5.787-1.32,10.976-3.956,15.57c-2.638,4.594-6.233,8.211-10.784,10.847
				c-4.552,2.638-9.679,3.957-15.378,3.957H287.37z M289.157,475.489c2.808,0,5.296-0.658,7.466-1.979
				c2.169-1.318,3.871-3.083,5.105-5.296c1.232-2.211,1.85-4.722,1.85-7.53v-33.819c0-2.808-0.618-5.316-1.85-7.529
				c-1.234-2.211-2.936-3.976-5.105-5.296c-2.169-1.318-4.658-1.978-7.466-1.978c-2.724,0-5.168,0.66-7.338,1.978
				c-2.169,1.32-3.893,3.085-5.168,5.296c-1.276,2.213-1.915,4.722-1.915,7.529v33.819c0,2.808,0.638,5.318,1.915,7.53
				c1.276,2.213,2.999,3.978,5.168,5.296C283.988,474.831,286.433,475.489,289.157,475.489z"/>
			<path style="fill:#FFFFFF;" d="M356.282,487.613l32.16-87.546h22.206l32.032,87.546h-19.398l-6.764-18.122H381.04l-6.764,18.122
				H356.282z M385.634,456.091h26.162l-12.762-36.371h-0.511L385.634,456.091z"/>
			<path style="fill:#FFFFFF;" d="M452.762,487.613v-87.546h34.712c5.019,0,9.741,0.788,14.166,2.361
				c4.423,1.576,8.315,3.957,11.677,7.147c3.36,3.19,5.976,7.19,7.849,11.996c1.87,4.808,2.808,10.487,2.808,17.037v8.167
				c0,6.467-0.938,12.231-2.808,17.292c-1.873,5.062-4.489,9.338-7.849,12.826c-3.362,3.489-7.254,6.147-11.677,7.976
				c-4.425,1.831-9.146,2.744-14.166,2.744H452.762z M471.395,473.319h14.549c3.487,0,6.614-0.786,9.38-2.361
				c2.764-1.573,4.955-4.02,6.572-7.338c1.615-3.318,2.425-7.613,2.425-12.89v-15.187c0-5.188-0.81-9.336-2.425-12.443
				c-1.617-3.104-3.809-5.36-6.572-6.764c-2.766-1.404-5.893-2.106-9.38-2.106h-14.549V473.319z"/>
			<path style="fill:#FFFFFF;" d="M530.737,487.613l32.16-87.546h22.206l32.032,87.546h-19.398l-6.764-18.122h-35.478l-6.764,18.122
				H530.737z M560.089,456.091h26.162l-12.762-36.371h-0.511L560.089,456.091z"/>
		</g>
	</g>
	<g>
		<circle style="fill:#FF5553;" cx="394.57" cy="1609.12" r="344.57"/>
		<g>
			<path style="fill:#FFFFFF;" d="M286.606,1568.021v-87.546h42.625c4.423,0,8.379,0.852,11.869,2.552
				c3.488,1.703,6.189,4.084,8.104,7.146c1.914,3.063,2.871,6.681,2.871,10.848c0,4.339-0.746,7.935-2.233,10.784
				c-1.489,2.852-3.362,5.104-5.615,6.764c-2.255,1.659-4.616,2.871-7.083,3.637v0.767c1.701,0.255,3.551,0.829,5.551,1.723
				c1.998,0.893,3.871,2.105,5.615,3.637c1.743,1.531,3.146,3.446,4.211,5.743c1.063,2.297,1.595,5.148,1.595,8.55
				c0,4.936-1.106,9.316-3.318,13.146c-2.213,3.828-5.232,6.827-9.061,8.997c-3.829,2.169-8.211,3.254-13.145,3.254H286.606z
				 M304.217,1516.59h19.143c2.297,0,4.275-0.552,5.934-1.658c1.659-1.105,2.913-2.572,3.765-4.403
				c0.85-1.828,1.276-3.807,1.276-5.935c0-3.487-0.874-6.104-2.616-7.849c-1.745-1.742-4.233-2.615-7.466-2.615h-20.036V1516.59z
				 M304.217,1554.111h20.164c2.297,0,4.317-0.553,6.062-1.659c1.743-1.104,3.105-2.595,4.084-4.467
				c0.977-1.87,1.468-3.998,1.468-6.381c0-2.381-0.511-4.403-1.532-6.062c-1.021-1.659-2.405-2.955-4.147-3.893
				c-1.745-0.936-3.681-1.404-5.807-1.404h-20.292V1554.111z"/>
			<path style="fill:#FFFFFF;" d="M397.123,1569.297c-5.956,0-11.294-1.34-16.016-4.021c-4.722-2.68-8.423-6.486-11.103-11.422
				c-2.68-4.933-4.02-10.72-4.02-17.355v-2.298c0-6.72,1.34-12.506,4.02-17.355c2.68-4.85,6.359-8.614,11.039-11.294
				c4.678-2.681,9.997-4.021,15.953-4.021h2.552c6.04,0,11.4,1.34,16.08,4.021c4.678,2.68,8.359,6.444,11.039,11.294
				c2.68,4.85,4.02,10.636,4.02,17.355v2.298c0,6.722-1.34,12.528-4.02,17.42c-2.68,4.894-6.361,8.678-11.039,11.357
				c-4.68,2.681-9.998,4.021-15.953,4.021H397.123z M398.271,1557.811c2.636,0,4.997-0.615,7.083-1.85
				c2.084-1.232,3.743-3.083,4.977-5.552c1.232-2.467,1.851-5.402,1.851-8.806v-12.507c0-3.487-0.618-6.423-1.851-8.806
				c-1.234-2.381-2.893-4.211-4.977-5.487c-2.086-1.276-4.447-1.914-7.083-1.914c-2.552,0-4.893,0.638-7.019,1.914
				c-2.127,1.276-3.809,3.106-5.041,5.487c-1.234,2.383-1.851,5.318-1.851,8.806v12.507c0,3.403,0.616,6.339,1.851,8.806
				c1.232,2.469,2.913,4.319,5.041,5.552C393.378,1557.196,395.719,1557.811,398.271,1557.811z"/>
			<path style="fill:#FFFFFF;" d="M479.308,1569.297c-9.53,0-16.804-3.829-21.823-11.486l-5.998,10.21h-6.381v-91.886h17.483v34.33
				c1.787-2.467,4.253-4.572,7.402-6.317c3.147-1.743,6.892-2.616,11.23-2.616c4.678,0,8.934,1.085,12.762,3.254
				c3.828,2.17,6.891,5.552,9.188,10.146c2.297,4.594,3.445,10.508,3.445,17.738v2.808c0,7.743-1.234,14.124-3.701,19.143
				c-2.469,5.021-5.787,8.723-9.954,11.104C488.793,1568.105,484.241,1569.297,479.308,1569.297z M475.607,1557.811
				c2.467,0,4.636-0.594,6.509-1.786c1.87-1.19,3.36-3.041,4.467-5.552c1.104-2.508,1.659-5.721,1.659-9.635v-11.485
				c0-3.574-0.532-6.529-1.595-8.87c-1.065-2.339-2.51-4.125-4.339-5.359c-1.831-1.232-3.978-1.851-6.445-1.851
				c-2.383,0-4.594,0.618-6.636,1.851c-2.042,1.234-3.659,3.043-4.85,5.424c-1.192,2.383-1.787,5.359-1.787,8.933v11.358
				c0,3.914,0.574,7.127,1.723,9.635c1.148,2.511,2.722,4.361,4.722,5.552C471.033,1557.217,473.224,1557.811,475.607,1557.811z"/>
			<path style="fill:#FFFFFF;" d="M182.087,1708.401v-14.038h21.695v-54.11h-21.695v-10.337c3.146-0.255,6.614-0.85,10.401-1.787
				c3.785-0.935,7.635-2.169,11.549-3.7c3.913-1.531,7.572-3.146,10.976-4.85h6.253v74.784h21.312v14.038H182.087z"/>
			<path style="fill:#FFFFFF;" d="M287.371,1709.677c-5.615,0-10.72-1.318-15.314-3.956c-4.594-2.637-8.231-6.254-10.912-10.848
				c-2.68-4.595-4.02-9.783-4.02-15.569v-29.353c0-5.87,1.34-11.081,4.02-15.633c2.68-4.551,6.317-8.146,10.912-10.784
				c4.594-2.636,9.699-3.956,15.314-3.956h3.701c5.699,0,10.826,1.32,15.378,3.956c4.55,2.638,8.146,6.233,10.784,10.784
				c2.636,4.552,3.956,9.763,3.956,15.633v29.353c0,5.786-1.32,10.975-3.956,15.569c-2.638,4.594-6.233,8.211-10.784,10.848
				c-4.552,2.638-9.679,3.956-15.378,3.956H287.371z M289.157,1696.277c2.808,0,5.296-0.658,7.466-1.978
				c2.169-1.318,3.871-3.083,5.105-5.297c1.232-2.211,1.85-4.722,1.85-7.529v-33.818c0-2.808-0.618-5.316-1.85-7.529
				c-1.234-2.212-2.936-3.977-5.105-5.297c-2.169-1.317-4.658-1.978-7.466-1.978c-2.724,0-5.168,0.66-7.338,1.978
				c-2.169,1.32-3.893,3.085-5.168,5.297c-1.276,2.213-1.915,4.722-1.915,7.529v33.818c0,2.808,0.638,5.318,1.915,7.529
				c1.276,2.214,2.999,3.979,5.168,5.297C283.989,1695.619,286.434,1696.277,289.157,1696.277z"/>
			<path style="fill:#FFFFFF;" d="M356.282,1708.401l32.16-87.546h22.206l32.032,87.546h-19.398l-6.764-18.122h-35.478
				l-6.764,18.122H356.282z M385.635,1676.879h26.162l-12.762-36.371h-0.511L385.635,1676.879z"/>
			<path style="fill:#FFFFFF;" d="M452.763,1708.401v-87.546h34.712c5.019,0,9.741,0.787,14.166,2.36
				c4.423,1.575,8.315,3.956,11.677,7.146c3.36,3.19,5.976,7.19,7.849,11.996c1.87,4.808,2.808,10.487,2.808,17.037v8.168
				c0,6.467-0.938,12.231-2.808,17.292c-1.873,5.063-4.489,9.338-7.849,12.826c-3.362,3.489-7.254,6.147-11.677,7.976
				c-4.425,1.831-9.146,2.744-14.166,2.744H452.763z M471.395,1694.108h14.549c3.487,0,6.614-0.786,9.38-2.361
				c2.764-1.573,4.955-4.02,6.572-7.338c1.615-3.318,2.425-7.613,2.425-12.89v-15.187c0-5.188-0.81-9.336-2.425-12.442
				c-1.617-3.105-3.809-5.36-6.572-6.765c-2.766-1.403-5.893-2.105-9.38-2.105h-14.549V1694.108z"/>
			<path style="fill:#FFFFFF;" d="M530.737,1708.401l32.16-87.546h22.206l32.032,87.546h-19.398l-6.764-18.122h-35.478
				l-6.764,18.122H530.737z M560.09,1676.879h26.162l-12.762-36.371h-0.511L560.09,1676.879z"/>
		</g>
	</g>
	<g>
		<circle style="fill:#FF5553;" cx="3605.43" cy="388.332" r="344.57"/>
		<g>
			<path style="fill:#FFFFFF;" d="M3453.185,347.232l32.159-87.546h22.206l32.032,87.546h-19.398l-6.764-18.122h-35.478
				l-6.764,18.122H3453.185z M3482.536,315.71h26.162l-12.762-36.371h-0.511L3482.536,315.71z"/>
			<path style="fill:#FFFFFF;" d="M3548.77,347.232v-91.885h17.484v91.885H3548.77z"/>
			<path style="fill:#FFFFFF;" d="M3585.394,268.874v-13.527h17.994v13.527H3585.394z M3585.649,347.232v-65.213h17.483v65.213
				H3585.649z"/>
			<path style="fill:#FFFFFF;" d="M3647.671,348.509c-5.531,0-10.528-1.36-14.995-4.084c-4.467-2.722-7.977-6.487-10.528-11.294
				c-2.553-4.806-3.829-10.315-3.829-16.526v-3.956c0-4.678,0.786-8.953,2.361-12.826c1.573-3.871,3.721-7.252,6.444-10.146
				c2.723-2.891,5.913-5.104,9.571-6.636c3.657-1.532,7.572-2.297,11.741-2.297h2.425c5.699,0,10.656,1.129,14.867,3.382
				c4.212,2.255,7.444,5.404,9.699,9.444c2.254,4.042,3.382,8.786,3.382,14.229h-15.187c0-3.488-0.532-6.381-1.595-8.678
				c-1.065-2.297-2.574-4.04-4.531-5.232c-1.958-1.19-4.297-1.787-7.019-1.787c-3.914,0-7.19,1.34-9.826,4.02
				c-2.639,2.68-3.957,6.616-3.957,11.805v13.145c0,5.104,1.255,9.041,3.766,11.805c2.508,2.766,5.89,4.147,10.146,4.147
				c2.977,0,5.487-0.51,7.529-1.531s3.593-2.68,4.658-4.977c1.062-2.297,1.595-5.36,1.595-9.189h14.421
				c0,5.787-1.234,10.7-3.7,14.74c-2.469,4.042-5.871,7.126-10.21,9.252c-4.339,2.125-9.274,3.19-14.804,3.19H3647.671z"/>
			<path style="fill:#FFFFFF;" d="M3720.924,348.509c-6.126,0-11.55-1.256-16.271-3.765c-4.722-2.508-8.403-6.167-11.039-10.975
				c-2.639-4.806-3.956-10.656-3.956-17.547v-3.19c0-6.892,1.382-12.74,4.147-17.548c2.764-4.805,6.55-8.464,11.357-10.975
				c4.806-2.508,10.273-3.765,16.399-3.765h2.042c5.784,0,10.825,1.17,15.123,3.51c4.295,2.341,7.613,5.615,9.954,9.826
				c2.339,4.211,3.509,9.125,3.509,14.74v8.04h-44.155c0,4.083,0.51,7.657,1.531,10.72c1.021,3.063,2.553,5.404,4.594,7.019
				c2.042,1.617,4.723,2.425,8.04,2.425c2.723,0,5.105-0.53,7.147-1.595c2.041-1.063,3.656-2.658,4.849-4.786
				c1.19-2.125,1.787-4.722,1.787-7.785h16.207c0,5.021-1.275,9.465-3.828,13.336c-2.553,3.873-6.062,6.892-10.528,9.061
				s-9.636,3.254-15.506,3.254H3720.924z M3708.161,307.926h26.928c0-5.36-1.17-9.336-3.51-11.932
				c-2.341-2.594-5.551-3.893-9.635-3.893c-3.828,0-7.041,1.34-9.635,4.02C3709.713,298.801,3708.331,302.737,3708.161,307.926z"/>
			<path style="fill:#FFFFFF;" d="M3392.947,487.613v-14.038h21.694v-54.11h-21.694v-10.337c3.146-0.255,6.614-0.85,10.4-1.787
				c3.785-0.935,7.635-2.169,11.55-3.701c3.912-1.531,7.571-3.146,10.975-4.849h6.254v74.784h21.312v14.038H3392.947z"/>
			<path style="fill:#FFFFFF;" d="M3498.231,488.889c-5.615,0-10.721-1.318-15.314-3.957c-4.595-2.636-8.231-6.253-10.911-10.847
				c-2.681-4.594-4.021-9.783-4.021-15.57v-29.352c0-5.871,1.34-11.081,4.021-15.633c2.68-4.55,6.316-8.146,10.911-10.784
				c4.594-2.636,9.699-3.956,15.314-3.956h3.7c5.699,0,10.826,1.32,15.378,3.956c4.551,2.638,8.146,6.233,10.784,10.784
				c2.636,4.552,3.956,9.763,3.956,15.633v29.352c0,5.787-1.32,10.976-3.956,15.57c-2.638,4.594-6.233,8.211-10.784,10.847
				c-4.552,2.638-9.679,3.957-15.378,3.957H3498.231z M3500.018,475.489c2.808,0,5.296-0.658,7.466-1.979
				c2.17-1.318,3.87-3.083,5.104-5.296c1.232-2.211,1.851-4.722,1.851-7.53v-33.819c0-2.808-0.618-5.316-1.851-7.529
				c-1.234-2.211-2.935-3.976-5.104-5.296c-2.17-1.318-4.658-1.978-7.466-1.978c-2.724,0-5.168,0.66-7.338,1.978
				c-2.17,1.32-3.893,3.085-5.169,5.296c-1.275,2.213-1.914,4.722-1.914,7.529v33.819c0,2.808,0.639,5.318,1.914,7.53
				c1.276,2.213,2.999,3.978,5.169,5.296C3494.85,474.831,3497.294,475.489,3500.018,475.489z"/>
			<path style="fill:#FFFFFF;" d="M3567.143,487.613l32.159-87.546h22.206l32.032,87.546h-19.398l-6.764-18.122H3591.9
				l-6.764,18.122H3567.143z M3596.494,456.091h26.162l-12.762-36.371h-0.511L3596.494,456.091z"/>
			<path style="fill:#FFFFFF;" d="M3663.622,487.613v-87.546h34.712c5.02,0,9.741,0.788,14.166,2.361
				c4.423,1.576,8.315,3.957,11.677,7.147c3.36,3.19,5.977,7.19,7.849,11.996c1.871,4.808,2.808,10.487,2.808,17.037v8.167
				c0,6.467-0.937,12.231-2.808,17.292c-1.872,5.062-4.488,9.338-7.849,12.826c-3.361,3.489-7.254,6.147-11.677,7.976
				c-4.425,1.831-9.146,2.744-14.166,2.744H3663.622z M3682.255,473.319h14.548c3.488,0,6.614-0.786,9.38-2.361
				c2.764-1.573,4.955-4.02,6.572-7.338c1.615-3.318,2.425-7.613,2.425-12.89v-15.187c0-5.188-0.81-9.336-2.425-12.443
				c-1.617-3.104-3.809-5.36-6.572-6.764c-2.766-1.404-5.892-2.106-9.38-2.106h-14.548V473.319z"/>
			<path style="fill:#FFFFFF;" d="M3741.598,487.613l32.159-87.546h22.206l32.032,87.546h-19.398l-6.764-18.122h-35.478
				l-6.764,18.122H3741.598z M3770.949,456.091h26.162l-12.762-36.371h-0.511L3770.949,456.091z"/>
		</g>
	</g>
	<g>
		<circle style="fill:#FF5553;" cx="3605.43" cy="1609.12" r="344.57"/>
		<g>
			<path style="fill:#FFFFFF;" d="M3497.466,1568.02v-87.546h42.625c4.423,0,8.379,0.852,11.868,2.552
				c3.487,1.703,6.189,4.084,8.104,7.146c1.915,3.063,2.872,6.681,2.872,10.848c0,4.339-0.746,7.935-2.233,10.784
				c-1.49,2.852-3.362,5.104-5.615,6.764c-2.256,1.659-4.616,2.871-7.083,3.637v0.767c1.701,0.255,3.552,0.829,5.552,1.723
				c1.998,0.893,3.87,2.105,5.615,3.637c1.742,1.531,3.146,3.446,4.211,5.743c1.062,2.297,1.596,5.148,1.596,8.55
				c0,4.936-1.107,9.316-3.318,13.146c-2.214,3.828-5.232,6.827-9.062,8.997c-3.828,2.169-8.211,3.254-13.145,3.254H3497.466z
				 M3515.077,1516.589h19.143c2.298,0,4.275-0.552,5.935-1.658c1.659-1.105,2.913-2.572,3.765-4.403
				c0.85-1.828,1.276-3.807,1.276-5.935c0-3.487-0.873-6.104-2.616-7.849c-1.745-1.742-4.233-2.615-7.466-2.615h-20.036V1516.589z
				 M3515.077,1554.11h20.164c2.297,0,4.317-0.553,6.062-1.659c1.743-1.104,3.104-2.595,4.084-4.467
				c0.977-1.87,1.468-3.998,1.468-6.381c0-2.381-0.511-4.403-1.531-6.062c-1.021-1.659-2.405-2.955-4.148-3.893
				c-1.744-0.936-3.681-1.404-5.807-1.404h-20.291V1554.11z"/>
			<path style="fill:#FFFFFF;" d="M3607.982,1569.296c-5.957,0-11.295-1.34-16.017-4.021c-4.722-2.68-8.423-6.486-11.103-11.422
				c-2.681-4.933-4.021-10.72-4.021-17.355v-2.298c0-6.72,1.34-12.506,4.021-17.355c2.68-4.85,6.358-8.614,11.039-11.294
				c4.678-2.681,9.996-4.021,15.952-4.021h2.553c6.039,0,11.399,1.34,16.079,4.021c4.679,2.68,8.359,6.444,11.039,11.294
				c2.681,4.85,4.021,10.636,4.021,17.355v2.298c0,6.722-1.34,12.528-4.021,17.42c-2.68,4.894-6.36,8.678-11.039,11.357
				c-4.68,2.681-9.998,4.021-15.952,4.021H3607.982z M3609.131,1557.81c2.636,0,4.997-0.615,7.083-1.85
				c2.083-1.232,3.742-3.083,4.977-5.552c1.232-2.467,1.851-5.402,1.851-8.806v-12.507c0-3.487-0.618-6.423-1.851-8.806
				c-1.234-2.381-2.894-4.211-4.977-5.487c-2.086-1.276-4.447-1.914-7.083-1.914c-2.553,0-4.894,0.638-7.02,1.914
				c-2.127,1.276-3.809,3.106-5.041,5.487c-1.234,2.383-1.851,5.318-1.851,8.806v12.507c0,3.403,0.616,6.339,1.851,8.806
				c1.232,2.469,2.914,4.319,5.041,5.552C3604.237,1557.195,3606.578,1557.81,3609.131,1557.81z"/>
			<path style="fill:#FFFFFF;" d="M3690.168,1569.296c-9.529,0-16.804-3.829-21.823-11.486l-5.998,10.21h-6.381v-91.886h17.484
				v34.33c1.786-2.467,4.253-4.572,7.401-6.317c3.146-1.743,6.892-2.616,11.23-2.616c4.678,0,8.934,1.085,12.762,3.254
				c3.829,2.17,6.892,5.552,9.188,10.146c2.298,4.594,3.446,10.508,3.446,17.738v2.808c0,7.743-1.234,14.124-3.701,19.143
				c-2.469,5.021-5.787,8.723-9.954,11.104C3699.653,1568.104,3695.102,1569.296,3690.168,1569.296z M3686.467,1557.81
				c2.467,0,4.637-0.594,6.509-1.786c1.87-1.19,3.359-3.041,4.467-5.552c1.104-2.508,1.659-5.721,1.659-9.635v-11.485
				c0-3.574-0.533-6.529-1.596-8.87c-1.064-2.339-2.511-4.125-4.339-5.359c-1.831-1.232-3.979-1.851-6.444-1.851
				c-2.384,0-4.595,0.618-6.637,1.851c-2.042,1.234-3.659,3.043-4.85,5.424c-1.192,2.383-1.786,5.359-1.786,8.933v11.358
				c0,3.914,0.574,7.127,1.723,9.635c1.148,2.511,2.722,4.361,4.722,5.552C3681.893,1557.216,3684.084,1557.81,3686.467,1557.81z"/>
			<path style="fill:#FFFFFF;" d="M3418.215,1709.676c-6.466,0-11.954-1.085-16.462-3.255c-4.511-2.169-7.913-5.146-10.21-8.933
				c-2.297-3.785-3.445-8.061-3.445-12.826v-2.425h15.952c0,5.105,1.51,8.7,4.53,10.784c3.019,2.086,6.955,3.127,11.805,3.127
				s8.784-1.105,11.805-3.318c3.019-2.212,4.53-5.615,4.53-10.21c0-3.062-0.66-5.551-1.978-7.465
				c-1.32-1.915-3.085-3.339-5.297-4.275c-2.213-0.936-4.638-1.404-7.273-1.404h-11.869v-11.613h10.465
				c2.467,0,4.786-0.467,6.955-1.403c2.17-0.936,3.893-2.339,5.169-4.212c1.276-1.87,1.914-4.211,1.914-7.019
				c0-2.722-0.638-4.955-1.914-6.7c-1.276-1.743-3.021-3.062-5.232-3.956c-2.214-0.894-4.68-1.34-7.402-1.34
				c-4.51,0-8.062,1.106-10.656,3.317c-2.596,2.214-3.892,5.36-3.892,9.444h-15.187v-2.68c0-4.679,1.317-8.784,3.956-12.315
				c2.636-3.529,6.209-6.317,10.72-8.359c4.509-2.042,9.655-3.062,15.441-3.062h2.553c5.615,0,10.593,1.001,14.932,2.999
				c4.339,2,7.763,4.766,10.273,8.295c2.508,3.531,3.765,7.638,3.765,12.315c0,3.234-0.555,6.084-1.659,8.551
				c-1.106,2.468-2.639,4.574-4.595,6.316c-1.958,1.745-4.255,3.213-6.892,4.403v0.766c4.509,1.447,8.21,3.851,11.104,7.21
				c2.892,3.362,4.339,7.893,4.339,13.592c0,4.936-1.404,9.338-4.212,13.208c-2.808,3.873-6.68,6.914-11.613,9.125
				c-4.935,2.212-10.592,3.318-16.973,3.318H3418.215z"/>
			<path style="fill:#FFFFFF;" d="M3498.231,1709.676c-5.615,0-10.721-1.318-15.314-3.956c-4.595-2.637-8.231-6.254-10.911-10.848
				c-2.681-4.595-4.021-9.783-4.021-15.569v-29.353c0-5.87,1.34-11.081,4.021-15.633c2.68-4.551,6.316-8.146,10.911-10.784
				c4.594-2.636,9.699-3.956,15.314-3.956h3.7c5.699,0,10.826,1.32,15.378,3.956c4.551,2.638,8.146,6.233,10.784,10.784
				c2.636,4.552,3.956,9.763,3.956,15.633v29.353c0,5.786-1.32,10.975-3.956,15.569c-2.638,4.594-6.233,8.211-10.784,10.848
				c-4.552,2.638-9.679,3.956-15.378,3.956H3498.231z M3500.018,1696.276c2.808,0,5.296-0.658,7.466-1.978
				c2.17-1.318,3.87-3.083,5.104-5.297c1.232-2.211,1.851-4.722,1.851-7.529v-33.818c0-2.808-0.618-5.316-1.851-7.529
				c-1.234-2.212-2.935-3.977-5.104-5.297c-2.17-1.317-4.658-1.978-7.466-1.978c-2.724,0-5.168,0.66-7.338,1.978
				c-2.17,1.32-3.893,3.085-5.169,5.297c-1.275,2.213-1.914,4.722-1.914,7.529v33.818c0,2.808,0.639,5.318,1.914,7.529
				c1.276,2.214,2.999,3.979,5.169,5.297C3494.85,1695.618,3497.294,1696.276,3500.018,1696.276z"/>
			<path style="fill:#FFFFFF;" d="M3567.143,1708.4l32.159-87.546h22.206l32.032,87.546h-19.398l-6.764-18.122H3591.9l-6.764,18.122
				H3567.143z M3596.494,1676.878h26.162l-12.762-36.371h-0.511L3596.494,1676.878z"/>
			<path style="fill:#FFFFFF;" d="M3663.622,1708.4v-87.546h34.712c5.02,0,9.741,0.787,14.166,2.36
				c4.423,1.575,8.315,3.956,11.677,7.146c3.36,3.19,5.977,7.19,7.849,11.996c1.871,4.808,2.808,10.487,2.808,17.037v8.168
				c0,6.467-0.937,12.231-2.808,17.292c-1.872,5.063-4.488,9.338-7.849,12.826c-3.361,3.489-7.254,6.147-11.677,7.976
				c-4.425,1.831-9.146,2.744-14.166,2.744H3663.622z M3682.255,1694.107h14.548c3.488,0,6.614-0.786,9.38-2.361
				c2.764-1.573,4.955-4.02,6.572-7.338c1.615-3.318,2.425-7.613,2.425-12.89v-15.187c0-5.188-0.81-9.336-2.425-12.442
				c-1.617-3.105-3.809-5.36-6.572-6.765c-2.766-1.403-5.892-2.105-9.38-2.105h-14.548V1694.107z"/>
			<path style="fill:#FFFFFF;" d="M3741.598,1708.4l32.159-87.546h22.206l32.032,87.546h-19.398l-6.764-18.122h-35.478
				l-6.764,18.122H3741.598z M3770.949,1676.878h26.162l-12.762-36.371h-0.511L3770.949,1676.878z"/>
		</g>
	</g>
	<g>
		<path style="fill:#FFFFFF;" d="M2127.28,895.808v93.238h-25.383v-93.238h-32.352v-20.572h89.92v20.572H2127.28z"/>
		<path style="fill:#FFFFFF;" d="M2199.281,929.321l-34.84-54.084h30.029l21.567,34.84h0.663
			c11.282-17.031,18.636-28.645,22.065-34.84h27.706c-2.214,3.43-6.61,10.26-13.189,20.489
			c-6.581,10.231-13.853,21.318-21.816,33.264c7.632,11.836,15.264,23.698,22.896,35.586c7.631,11.891,12.828,20.048,15.595,24.471
			h-30.029l-25.217-40.646h-0.664c-14.268,22.011-22.785,35.561-25.549,40.646h-27.706L2199.281,929.321z"/>
		<path style="fill:#FFFFFF;" d="M2319.724,968.972h27.54v-65.201h-27.706v-14.765c6.192-0.441,13.215-2.017,21.069-4.729
			c7.853-2.708,15.264-5.999,22.231-9.871h8.793v94.565h27.042v20.074h-78.97V968.972z"/>
		<path style="fill:#FFFFFF;" d="M2015.177,1130.703c-6.212,0-11.891-0.916-17.038-2.744c-5.148-1.829-9.274-4.7-12.379-8.614
			c-3.107-3.912-4.658-9.061-4.658-15.442c0-0.51,0-0.999,0-1.467c0-0.467,0.042-0.914,0.128-1.34h17.229
			c-0.086,0.426-0.128,0.81-0.128,1.148c0,0.341,0,0.724,0,1.148c0,2.724,0.658,5.063,1.978,7.019
			c1.318,1.958,3.274,3.446,5.871,4.467c2.594,1.021,5.679,1.531,9.252,1.531c3.998,0,7.274-0.403,9.827-1.212
			c2.553-0.808,4.467-2.062,5.742-3.765c1.277-1.701,1.914-3.785,1.914-6.253c0-2.636-0.914-4.742-2.742-6.317
			c-1.832-1.573-4.213-2.828-7.148-3.765c-2.935-0.935-6.169-1.806-9.698-2.616c-3.531-0.808-7.063-1.765-10.593-2.872
			c-3.531-1.105-6.786-2.594-9.763-4.467c-2.979-1.87-5.36-4.339-7.146-7.402s-2.68-6.975-2.68-11.741
			c0-5.699,1.551-10.421,4.658-14.166c3.104-3.743,7.23-6.551,12.379-8.423c5.147-1.871,10.74-2.808,16.782-2.808
			c6.04,0,11.528,0.873,16.464,2.616c4.934,1.745,8.889,4.466,11.867,8.167c2.979,3.701,4.467,8.486,4.467,14.357v1.659h-16.973
			v-1.532c0-2.297-0.617-4.295-1.85-5.998c-1.234-1.701-3-2.999-5.297-3.892c-2.297-0.894-5.105-1.34-8.423-1.34
			c-3.063,0-5.765,0.319-8.104,0.957c-2.341,0.638-4.147,1.659-5.424,3.062c-1.275,1.404-1.914,3.212-1.914,5.424
			c0,2.553,0.894,4.594,2.681,6.126c1.786,1.531,4.167,2.744,7.146,3.637c2.977,0.893,6.272,1.745,9.89,2.552
			c3.615,0.81,7.189,1.745,10.721,2.808c3.529,1.065,6.783,2.51,9.764,4.339c2.977,1.831,5.359,4.255,7.146,7.274
			c1.785,3.021,2.68,6.872,2.68,11.549c0,6.808-1.617,12.273-4.85,16.399c-3.234,4.128-7.594,7.147-13.082,9.061
			C2028.386,1129.746,2022.151,1130.703,2015.177,1130.703z"/>
		<path style="fill:#FFFFFF;" d="M2066.605,1051.069v-13.527h17.994v13.527H2066.605z M2066.861,1129.427v-65.213h17.483v65.213
			H2066.861z"/>
		<path style="fill:#FFFFFF;" d="M2113.185,1153.419c-2.979,0-5.679-0.702-8.104-2.105s-4.383-3.298-5.87-5.679
			c-1.49-2.383-2.233-4.977-2.233-7.785c0-3.148,0.85-6.062,2.552-8.742c1.701-2.68,4.04-4.7,7.02-6.062
			c-1.873-1.19-3.34-2.744-4.403-4.658c-1.064-1.914-1.595-3.934-1.595-6.062c0-3.146,1.021-5.848,3.062-8.104
			c2.042-2.253,4.637-3.893,7.785-4.914c-2.639-1.615-4.808-3.615-6.509-5.998c-1.703-2.381-2.553-5.316-2.553-8.806
			c0-3.657,0.999-7.146,2.999-10.464c1.998-3.318,5.02-5.998,9.062-8.04c4.04-2.042,9.166-3.063,15.378-3.063
			c2.552,0,4.933,0.127,7.146,0.383c2.211,0.255,4.168,0.682,5.87,1.276c3.318-1.787,5.763-3.743,7.338-5.871
			c1.574-2.125,2.445-4.211,2.616-6.253h13.655c0,2.894-0.554,5.488-1.659,7.785c-1.106,2.297-2.659,4.192-4.657,5.679
			c-2,1.49-4.403,2.574-7.211,3.254l-0.128,0.383c2.042,1.703,3.68,3.701,4.914,5.998c1.232,2.297,1.851,4.808,1.851,7.529
			c0,3.745-1.043,7.191-3.127,10.337c-2.086,3.148-5.021,5.679-8.806,7.593c-3.787,1.914-8.231,2.871-13.336,2.871h-9.571
			c-2.639,0-4.681,0.533-6.126,1.596c-1.448,1.064-2.17,2.488-2.17,4.275c0,1.617,0.658,2.979,1.979,4.084
			c1.318,1.106,3.424,1.659,6.317,1.659h22.588c5.954,0,10.635,1.745,14.038,5.232c3.402,3.49,5.104,7.785,5.104,12.89
			c0,3.573-0.893,6.87-2.68,9.891c-1.787,3.019-4.275,5.423-7.466,7.21c-3.19,1.787-6.871,2.68-11.039,2.68H2113.185z
			 M2119.821,1142.572h22.078c2.297,0,4.274-0.746,5.934-2.233c1.659-1.49,2.488-3.298,2.488-5.424c0-1.958-0.701-3.617-2.105-4.978
			c-1.403-1.36-3.17-2.042-5.296-2.042h-23.099c-2.214,0-4.084,0.724-5.615,2.169s-2.298,3.146-2.298,5.104
			c0,1.957,0.767,3.679,2.298,5.169C2115.737,1141.826,2117.607,1142.572,2119.821,1142.572z M2131.052,1094.332
			c3.742,0,6.699-1.062,8.869-3.19c2.17-2.125,3.254-4.678,3.254-7.657c0-2.977-1.084-5.551-3.254-7.721s-5.127-3.254-8.869-3.254
			c-3.745,0-6.723,1.085-8.934,3.254c-2.214,2.169-3.318,4.744-3.318,7.721c0,2.979,1.104,5.532,3.318,7.657
			C2124.329,1093.269,2127.307,1094.332,2131.052,1094.332z"/>
		<path style="fill:#FFFFFF;" d="M2195.625,1129.427l32.159-87.546h22.206l32.032,87.546h-19.398l-6.764-18.122h-35.478
			l-6.764,18.122H2195.625z M2224.977,1097.905h26.162l-12.762-36.371h-0.511L2224.977,1097.905z"/>
		<path style="fill:#FFFFFF;" d="M2291.21,1129.427v-91.885h17.484v91.885H2291.21z"/>
		<path style="fill:#FFFFFF;" d="M2327.834,1051.069v-13.527h17.994v13.527H2327.834z M2328.09,1129.427v-65.213h17.483v65.213
			H2328.09z"/>
		<path style="fill:#FFFFFF;" d="M2390.111,1130.703c-5.531,0-10.528-1.36-14.995-4.084c-4.467-2.722-7.977-6.487-10.528-11.294
			c-2.553-4.806-3.829-10.315-3.829-16.526v-3.956c0-4.678,0.786-8.953,2.361-12.826c1.573-3.871,3.721-7.252,6.444-10.146
			c2.723-2.891,5.913-5.104,9.571-6.636c3.657-1.532,7.572-2.297,11.741-2.297h2.425c5.699,0,10.656,1.129,14.867,3.382
			c4.212,2.255,7.444,5.404,9.699,9.444c2.254,4.042,3.382,8.786,3.382,14.229h-15.187c0-3.488-0.532-6.381-1.595-8.678
			c-1.065-2.297-2.574-4.04-4.531-5.232c-1.958-1.19-4.297-1.787-7.019-1.787c-3.914,0-7.19,1.34-9.826,4.02
			c-2.639,2.68-3.957,6.616-3.957,11.805v13.145c0,5.104,1.255,9.041,3.766,11.805c2.508,2.766,5.89,4.147,10.146,4.147
			c2.977,0,5.487-0.51,7.529-1.531s3.593-2.68,4.658-4.977c1.062-2.297,1.595-5.36,1.595-9.189h14.421c0,5.787-1.234,10.7-3.7,14.74
			c-2.469,4.042-5.871,7.126-10.21,9.252c-4.339,2.125-9.274,3.19-14.804,3.19H2390.111z"/>
		<path style="fill:#FFFFFF;" d="M2463.364,1130.703c-6.126,0-11.55-1.256-16.271-3.765c-4.722-2.508-8.403-6.167-11.039-10.975
			c-2.639-4.806-3.956-10.656-3.956-17.547v-3.19c0-6.892,1.382-12.74,4.147-17.548c2.764-4.805,6.55-8.464,11.357-10.975
			c4.806-2.508,10.273-3.765,16.399-3.765h2.042c5.784,0,10.825,1.17,15.123,3.51c4.295,2.341,7.613,5.615,9.954,9.826
			c2.339,4.211,3.509,9.125,3.509,14.74v8.04h-44.155c0,4.083,0.51,7.657,1.531,10.72c1.021,3.063,2.553,5.404,4.594,7.019
			c2.042,1.617,4.723,2.425,8.04,2.425c2.723,0,5.105-0.53,7.147-1.595c2.041-1.063,3.656-2.658,4.849-4.786
			c1.19-2.125,1.787-4.722,1.787-7.785h16.207c0,5.021-1.275,9.465-3.828,13.336c-2.553,3.873-6.062,6.892-10.528,9.061
			s-9.636,3.254-15.506,3.254H2463.364z M2450.602,1090.12h26.928c0-5.36-1.17-9.336-3.51-11.932
			c-2.341-2.594-5.551-3.893-9.635-3.893c-3.828,0-7.041,1.34-9.635,4.02C2452.153,1080.996,2450.771,1084.932,2450.602,1090.12z"/>
	</g>
	<circle style="fill:#FF5553;" cx="1132.155" cy="1003.961" r="344.57"/>
	<g>
		<path style="fill:#FFFFFF;" d="M979.909,962.86l32.16-87.546h22.206l32.032,87.546h-19.398l-6.764-18.122h-35.478l-6.764,18.122
			H979.909z M1009.261,931.338h26.162l-12.762-36.371h-0.511L1009.261,931.338z"/>
		<path style="fill:#FFFFFF;" d="M1075.495,962.86v-91.885h17.483v91.885H1075.495z"/>
		<path style="fill:#FFFFFF;" d="M1112.119,884.502v-13.527h17.994v13.527H1112.119z M1112.374,962.86v-65.213h17.484v65.213
			H1112.374z"/>
		<path style="fill:#FFFFFF;" d="M1174.396,964.137c-5.531,0-10.528-1.36-14.995-4.084c-4.467-2.722-7.976-6.487-10.528-11.294
			c-2.553-4.806-3.829-10.315-3.829-16.526v-3.956c0-4.678,0.786-8.953,2.361-12.826c1.573-3.871,3.721-7.252,6.445-10.146
			c2.722-2.891,5.912-5.104,9.571-6.636c3.657-1.532,7.571-2.297,11.741-2.297h2.425c5.699,0,10.656,1.129,14.868,3.382
			c4.211,2.255,7.444,5.404,9.699,9.444c2.253,4.042,3.382,8.786,3.382,14.229h-15.187c0-3.488-0.532-6.381-1.595-8.678
			c-1.064-2.297-2.574-4.04-4.53-5.232c-1.958-1.19-4.297-1.787-7.019-1.787c-3.914,0-7.19,1.34-9.827,4.02
			c-2.638,2.68-3.956,6.616-3.956,11.805v13.145c0,5.104,1.254,9.041,3.765,11.805c2.508,2.766,5.891,4.147,10.146,4.147
			c2.978,0,5.488-0.51,7.53-1.531s3.593-2.68,4.658-4.977c1.062-2.297,1.595-5.36,1.595-9.189h14.421
			c0,5.787-1.234,10.7-3.701,14.74c-2.469,4.042-5.871,7.126-10.209,9.252c-4.339,2.125-9.274,3.19-14.804,3.19H1174.396z"/>
		<path style="fill:#FFFFFF;" d="M1247.648,964.137c-6.125,0-11.549-1.256-16.271-3.765c-4.722-2.508-8.403-6.167-11.039-10.975
			c-2.638-4.806-3.957-10.656-3.957-17.547v-3.19c0-6.892,1.382-12.74,4.148-17.548c2.764-4.805,6.55-8.464,11.358-10.975
			c4.806-2.508,10.273-3.765,16.399-3.765h2.042c5.785,0,10.826,1.17,15.123,3.51c4.295,2.341,7.613,5.615,9.955,9.826
			c2.339,4.211,3.509,9.125,3.509,14.74v8.04h-44.156c0,4.083,0.51,7.657,1.531,10.72s2.552,5.404,4.594,7.019
			c2.042,1.617,4.722,2.425,8.04,2.425c2.722,0,5.104-0.53,7.146-1.595c2.042-1.063,3.657-2.658,4.85-4.786
			c1.19-2.125,1.787-4.722,1.787-7.785h16.208c0,5.021-1.276,9.465-3.829,13.336c-2.552,3.873-6.062,6.892-10.528,9.061
			c-4.467,2.169-9.635,3.254-15.506,3.254H1247.648z M1234.886,923.554h26.927c0-5.36-1.17-9.336-3.509-11.932
			c-2.341-2.594-5.551-3.893-9.635-3.893c-3.829,0-7.041,1.34-9.635,4.02C1236.438,914.429,1235.056,918.365,1234.886,923.554z"/>
		<path style="fill:#FFFFFF;" d="M953.235,1103.241v-21.185h-39.179v-13.655c1.19-2.042,2.636-4.7,4.339-7.976
			c1.701-3.274,3.51-6.87,5.424-10.784c1.915-3.913,3.785-7.976,5.615-12.188c1.829-4.211,3.51-8.315,5.041-12.315
			c1.532-3.998,2.764-7.571,3.701-10.72h16.08c-0.766,3.404-1.958,7.126-3.573,11.167c-1.617,4.042-3.426,8.189-5.424,12.443
			c-2,4.255-4.105,8.339-6.317,12.251c-2.213,3.914-4.361,7.445-6.445,10.592c-2.086,3.148-3.978,5.701-5.679,7.657h26.417v-21.185
			c0.85-1.19,1.743-2.722,2.68-4.594c0.935-1.87,1.893-3.849,2.872-5.934c0.977-2.084,1.85-4.084,2.616-5.998
			c0.766-1.915,1.318-3.552,1.659-4.914h7.274v42.625h11.613v13.528h-11.613v21.185H953.235z"/>
		<path style="fill:#FFFFFF;" d="M1024.956,1104.517c-5.615,0-10.72-1.318-15.314-3.957c-4.594-2.636-8.231-6.253-10.912-10.847
			c-2.68-4.594-4.02-9.783-4.02-15.57v-29.352c0-5.871,1.34-11.081,4.02-15.633c2.68-4.55,6.317-8.146,10.912-10.784
			c4.594-2.636,9.699-3.956,15.314-3.956h3.701c5.699,0,10.826,1.32,15.378,3.956c4.55,2.638,8.146,6.233,10.784,10.784
			c2.636,4.552,3.956,9.763,3.956,15.633v29.352c0,5.787-1.32,10.976-3.956,15.57c-2.638,4.594-6.233,8.211-10.784,10.847
			c-4.552,2.638-9.679,3.957-15.378,3.957H1024.956z M1026.742,1091.117c2.808,0,5.296-0.658,7.466-1.979
			c2.169-1.318,3.871-3.083,5.105-5.296c1.232-2.211,1.85-4.722,1.85-7.53v-33.819c0-2.808-0.618-5.316-1.85-7.529
			c-1.234-2.211-2.936-3.976-5.105-5.296c-2.169-1.318-4.658-1.978-7.466-1.978c-2.724,0-5.168,0.66-7.338,1.978
			c-2.169,1.32-3.893,3.085-5.168,5.296c-1.276,2.213-1.915,4.722-1.915,7.529v33.819c0,2.808,0.638,5.318,1.915,7.53
			c1.276,2.213,2.999,3.978,5.168,5.296C1021.574,1090.459,1024.019,1091.117,1026.742,1091.117z"/>
		<path style="fill:#FFFFFF;" d="M1093.867,1103.241l32.16-87.546h22.206l32.032,87.546h-19.398l-6.764-18.122h-35.478
			l-6.764,18.122H1093.867z M1123.22,1071.719h26.162l-12.762-36.371h-0.511L1123.22,1071.719z"/>
		<path style="fill:#FFFFFF;" d="M1190.348,1103.241v-87.546h34.712c5.019,0,9.741,0.788,14.166,2.361
			c4.423,1.576,8.315,3.957,11.677,7.147c3.36,3.19,5.976,7.19,7.849,11.996c1.87,4.808,2.808,10.487,2.808,17.037v8.167
			c0,6.467-0.938,12.231-2.808,17.292c-1.873,5.062-4.489,9.338-7.849,12.826c-3.362,3.489-7.254,6.147-11.677,7.976
			c-4.425,1.831-9.146,2.744-14.166,2.744H1190.348z M1208.98,1088.947h14.549c3.487,0,6.614-0.786,9.38-2.361
			c2.764-1.573,4.955-4.02,6.572-7.338c1.615-3.318,2.425-7.613,2.425-12.89v-15.187c0-5.188-0.81-9.336-2.425-12.443
			c-1.617-3.104-3.809-5.36-6.572-6.764c-2.766-1.404-5.893-2.106-9.38-2.106h-14.549V1088.947z"/>
		<path style="fill:#FFFFFF;" d="M1268.322,1103.241l32.16-87.546h22.206l32.032,87.546h-19.398l-6.764-18.122h-35.478
			l-6.764,18.122H1268.322z M1297.675,1071.719h26.162l-12.762-36.371h-0.511L1297.675,1071.719z"/>
	</g>
</g>
</svg>
