<?xml version="1.0" encoding="iso-8859-1"?>
<!-- Generator: Adobe Illustrator 29.6.0, SVG Export Plug-In . SVG Version: 9.03 Build 0)  -->
<svg version="1.1" xmlns="http://www.w3.org/2000/svg" xmlns:xlink="http://www.w3.org/1999/xlink" x="0px" y="0px"
	 viewBox="0 0 4000 1430" style="enable-background:new 0 0 4000 1430;" xml:space="preserve">
<g id="Shapes">
	<g>
		<g>
			
				<line style="fill:none;stroke:#000000;stroke-width:18.9241;stroke-miterlimit:10;" x1="633.109" y1="713.115" x2="1131.472" y2="713.115"/>
			<g>
				<polygon points="1117.667,760.296 1199.374,713.115 1117.667,665.934 				"/>
			</g>
		</g>
	</g>
	<g>
		<g>
			
				<line style="fill:none;stroke:#000000;stroke-width:18.9241;stroke-miterlimit:10;" x1="1937.008" y1="713.115" x2="2510.015" y2="713.115"/>
			<g>
				<polygon points="2496.21,760.296 2577.917,713.115 2496.21,665.934 				"/>
			</g>
		</g>
	</g>
</g>
<g id="Text">
	<g>
		<circle style="fill:#FF5553;" cx="410.875" cy="713.115" r="331.172"/>
		<g>
			<path style="fill:#FFFFFF;" d="M296.544,645.869h-43.053l-7.569,21.29h-23.498l39.268-108.183h29.017l39.268,108.183h-25.548
				L296.544,645.869z M260.115,627.418h29.963c-3.997-11.879-8.832-26.021-14.509-42.421h-0.788L260.115,627.418z"/>
			<path style="fill:#FFFFFF;" d="M340.698,667.158V553.613h23.024v113.545H340.698z"/>
			<path style="fill:#FFFFFF;" d="M384.538,553.613h23.34v18.136h-23.34V553.613z M384.696,667.158v-80.585h23.024v80.585H384.696z"
				/>
			<path style="fill:#FFFFFF;" d="M452.35,647.682c2.732,3.523,6.412,5.283,11.039,5.283c4.834,0,8.646-1.499,11.433-4.495
				c2.785-2.997,4.179-7.437,4.179-13.326h21.763c0,7.466-1.604,13.72-4.81,18.766c-3.208,5.046-7.439,8.78-12.695,11.197
				c-5.258,2.417-11.039,3.627-17.347,3.627h-2.523c-11.776,0-21.132-3.494-28.071-10.487c-6.939-6.991-10.408-16.689-10.408-29.096
				v-4.573c0-8.201,1.656-15.27,4.967-21.211c3.312-5.938,7.858-10.487,13.641-13.641c5.781-3.154,12.404-4.731,19.871-4.731h2.523
				c6.202,0,11.958,1.34,17.269,4.021c5.308,2.681,9.565,6.572,12.774,11.67c3.206,5.101,4.81,11.118,4.81,18.057h-22.867
				c0-5.465-1.209-9.83-3.627-13.089c-2.42-3.257-5.993-4.889-10.724-4.889s-8.464,1.868-11.197,5.598
				c-2.735,3.733-4.1,8.437-4.1,14.114v14.036C448.25,639.773,449.614,644.161,452.35,647.682z"/>
			<path style="fill:#FFFFFF;" d="M587.655,654.779c-3.366,4.785-7.806,8.306-13.326,10.566c-5.52,2.259-11.54,3.391-18.057,3.391
				h-2.523c-7.466,0-14.193-1.577-20.186-4.731c-5.993-3.154-10.699-7.701-14.114-13.642c-3.417-5.938-5.125-13.01-5.125-21.21
				v-4.573c0-8.095,1.734-15.14,5.204-21.132c3.469-5.993,8.173-10.566,14.114-13.72c5.938-3.154,12.641-4.731,20.107-4.731h2.523
				c6.518,0,12.562,1.34,18.136,4.021c5.571,2.681,10.039,6.572,13.405,11.67c3.363,5.101,5.046,11.118,5.046,18.057v11.985h-55.195
				v3.785c0,5.258,1.55,9.647,4.652,13.168c3.1,3.523,7.333,5.283,12.695,5.283c4.834,0,8.646-1.341,11.433-4.021
				c2.784-2.681,4.179-6.648,4.179-11.907h22.078C592.702,644.082,591.019,649.996,587.655,654.779z M542.631,605.655
				c-2.893,3.26-4.548,7.412-4.967,12.458h31.855c0-5.362-1.237-9.593-3.706-12.695c-2.471-3.1-6.441-4.652-11.906-4.652
				C549.28,600.766,545.522,602.398,542.631,605.655z"/>
			<path style="fill:#FFFFFF;" d="M310.973,790.796c-1.158-1.68-2.735-4.179-4.731-7.49c-1.998-3.312-3.312-5.492-3.942-6.545
				l-0.631,0.474v63.396h-22.236V732.447h20.659l34.063,50.149l4.731,7.412c1.681,2.944,2.997,5.101,3.943,6.466l0.473-0.474
				v-63.553h22.236V840.63h-20.659L310.973,790.796z"/>
			<path style="fill:#FFFFFF;" d="M459.053,751.844h-46.679v25.863h41.948v19.397h-41.948v43.525h-23.971V732.447h73.173
				L459.053,751.844z"/>
			<path style="fill:#FFFFFF;" d="M521.816,752.002v88.628h-24.128v-88.628h-30.751v-19.555h85.474v19.555H521.816z"/>
		</g>
	</g>
	<g>
		<path style="fill:#0033AD;" d="M2032.533,1012.747h-779.41c-28.522,0-51.858-23.336-51.858-51.858V465.341
			c0-28.522,23.336-51.858,51.858-51.858h779.41c28.522,0,51.858,23.336,51.858,51.858v495.548
			C2084.391,989.411,2061.055,1012.747,2032.533,1012.747z"/>
		<g>
			<path style="fill:#FFFFFF;" d="M1505.78,579.469v115.216h-31.367V579.469h-39.977v-25.421h111.116v25.421H1505.78z"/>
			<path style="fill:#FFFFFF;" d="M1594.753,620.881l-43.052-66.833h37.107l26.652,43.052h0.82
				c13.941-21.046,23.028-35.396,27.267-43.052h34.237c-2.735,4.238-8.168,12.679-16.298,25.319
				c-8.133,12.644-17.119,26.344-26.959,41.104c9.431,14.626,18.861,29.285,28.292,43.975c9.431,14.694,15.853,24.774,19.271,30.239
				h-37.107l-31.162-50.228h-0.82c-17.631,27.2-28.157,43.943-31.572,50.228h-34.237L1594.753,620.881z"/>
			<path style="fill:#FFFFFF;" d="M1743.586,669.879h34.032v-80.57h-34.237v-18.246c7.653-0.544,16.331-2.492,26.037-5.843
				c9.703-3.347,18.861-7.413,27.472-12.198h10.865v116.857h33.417v24.806h-97.585V669.879z"/>
			<path style="fill:#FFFFFF;" d="M1367.25,869.734c-7.675,0-14.693-1.131-21.053-3.391c-6.362-2.26-11.46-5.808-15.297-10.645
				c-3.839-4.835-5.756-11.197-5.756-19.082c0-0.631,0-1.234,0-1.813c0-0.577,0.052-1.129,0.158-1.656h21.29
				c-0.106,0.527-0.158,1.001-0.158,1.419c0,0.422,0,0.895,0,1.42c0,3.366,0.813,6.256,2.444,8.674
				c1.629,2.419,4.046,4.258,7.254,5.52c3.206,1.261,7.018,1.892,11.433,1.892c4.94,0,8.989-0.497,12.143-1.498
				c3.154-0.998,5.52-2.548,7.097-4.652c1.577-2.102,2.365-4.677,2.365-7.727c0-3.258-1.131-5.86-3.39-7.807
				c-2.262-1.944-5.205-3.494-8.832-4.652c-3.627-1.155-7.624-2.232-11.985-3.232c-4.364-0.998-8.728-2.181-13.089-3.549
				c-4.364-1.364-8.385-3.205-12.064-5.52c-3.681-2.311-6.624-5.361-8.831-9.146c-2.208-3.784-3.312-8.619-3.312-14.509
				c0-7.042,1.917-12.877,5.756-17.504c3.836-4.625,8.935-8.095,15.297-10.409c6.36-2.312,13.271-3.469,20.738-3.469
				c7.464,0,14.245,1.079,20.343,3.232c6.096,2.156,10.985,5.52,14.667,10.093c3.679,4.573,5.52,10.487,5.52,17.741v2.051h-20.975
				v-1.893c0-2.839-0.764-5.308-2.287-7.412c-1.525-2.102-3.706-3.706-6.544-4.81c-2.838-1.104-6.308-1.656-10.408-1.656
				c-3.785,0-7.124,0.395-10.014,1.183c-2.893,0.789-5.125,2.051-6.702,3.785s-2.366,3.97-2.366,6.702
				c0,3.154,1.104,5.678,3.312,7.57c2.208,1.892,5.15,3.39,8.831,4.494c3.679,1.104,7.752,2.156,12.222,3.154
				c4.468,1,8.883,2.155,13.247,3.469c4.361,1.316,8.383,3.103,12.064,5.362c3.679,2.262,6.624,5.258,8.832,8.988
				c2.208,3.733,3.312,8.492,3.312,14.272c0,8.412-1.998,15.166-5.993,20.265c-3.997,5.101-9.383,8.831-16.164,11.196
				C1383.573,868.552,1375.87,869.734,1367.25,869.734z"/>
			<path style="fill:#FFFFFF;" d="M1430.803,771.329v-16.717h22.236v16.717H1430.803z M1431.118,868.157v-80.585h21.605v80.585
				H1431.118z"/>
			<path style="fill:#FFFFFF;" d="M1488.362,897.805c-3.682,0-7.018-0.867-10.014-2.602c-2.996-1.735-5.416-4.076-7.254-7.018
				c-1.84-2.945-2.76-6.15-2.76-9.62c0-3.891,1.05-7.491,3.154-10.803c2.102-3.312,4.992-5.808,8.673-7.49
				c-2.313-1.472-4.127-3.391-5.44-5.757c-1.316-2.365-1.972-4.861-1.972-7.49c0-3.889,1.262-7.228,3.785-10.014
				c2.523-2.785,5.729-4.811,9.62-6.072c-3.26-1.995-5.941-4.467-8.042-7.412c-2.104-2.941-3.154-6.568-3.154-10.881
				c0-4.52,1.234-8.831,3.706-12.932c2.469-4.101,6.202-7.412,11.197-9.936c4.992-2.522,11.327-3.784,19.003-3.784
				c3.154,0,6.096,0.157,8.831,0.473c2.733,0.315,5.15,0.843,7.254,1.577c4.1-2.208,7.121-4.625,9.068-7.254
				c1.944-2.627,3.021-5.204,3.233-7.728h16.874c0,3.575-0.685,6.781-2.05,9.62c-1.367,2.838-3.287,5.179-5.756,7.018
				c-2.472,1.841-5.441,3.181-8.91,4.021l-0.158,0.473c2.523,2.104,4.546,4.573,6.071,7.412c1.523,2.839,2.287,5.94,2.287,9.305
				c0,4.627-1.289,8.885-3.864,12.773c-2.578,3.891-6.205,7.018-10.881,9.383c-4.68,2.366-10.172,3.549-16.48,3.549h-11.828
				c-3.26,0-5.783,0.658-7.569,1.971c-1.789,1.316-2.681,3.075-2.681,5.283c0,1.998,0.813,3.682,2.444,5.047
				c1.629,1.367,4.231,2.05,7.806,2.05h27.913c7.358,0,13.141,2.156,17.347,6.466c4.204,4.312,6.308,9.62,6.308,15.928
				c0,4.416-1.104,8.489-3.312,12.222c-2.208,3.73-5.283,6.702-9.226,8.91c-3.943,2.208-8.491,3.312-13.641,3.312H1488.362z
				 M1496.562,884.4h27.282c2.839,0,5.283-0.922,7.333-2.76c2.05-1.841,3.075-4.075,3.075-6.702c0-2.42-0.868-4.47-2.602-6.15
				c-1.735-1.681-3.918-2.523-6.545-2.523h-28.544c-2.735,0-5.046,0.895-6.939,2.681c-1.892,1.787-2.838,3.889-2.838,6.309
				c0,2.417,0.946,4.546,2.838,6.387C1491.516,883.479,1493.828,884.4,1496.562,884.4z M1510.44,824.789
				c4.625,0,8.279-1.313,10.96-3.942c2.681-2.627,4.021-5.78,4.021-9.462c0-3.679-1.34-6.86-4.021-9.541
				c-2.681-2.681-6.335-4.021-10.96-4.021c-4.627,0-8.307,1.341-11.039,4.021c-2.735,2.681-4.101,5.862-4.101,9.541
				c0,3.682,1.365,6.835,4.101,9.462C1502.134,823.476,1505.813,824.789,1510.44,824.789z"/>
			<path style="fill:#FFFFFF;" d="M1590.234,868.157l39.741-108.183h27.44l39.583,108.183h-23.971l-8.358-22.394h-43.841
				l-8.358,22.394H1590.234z M1626.505,829.205h32.329l-15.771-44.945h-0.63L1626.505,829.205z"/>
			<path style="fill:#FFFFFF;" d="M1708.352,868.157V754.612h21.605v113.545H1708.352z"/>
			<path style="fill:#FFFFFF;" d="M1753.609,771.329v-16.717h22.236v16.717H1753.609z M1753.925,868.157v-80.585h21.605v80.585
				H1753.925z"/>
			<path style="fill:#FFFFFF;" d="M1830.566,869.734c-6.835,0-13.01-1.681-18.53-5.047c-5.52-3.363-9.856-8.016-13.01-13.956
				c-3.154-5.938-4.731-12.747-4.731-20.423v-4.889c0-5.78,0.971-11.063,2.917-15.849c1.944-4.783,4.598-8.962,7.964-12.537
				c3.363-3.573,7.306-6.309,11.828-8.2c4.519-1.893,9.356-2.839,14.508-2.839h2.997c7.042,0,13.168,1.395,18.372,4.179
				c5.204,2.787,9.198,6.678,11.985,11.67c2.784,4.995,4.179,10.856,4.179,17.584h-18.766c0-4.31-0.658-7.885-1.971-10.724
				c-1.316-2.839-3.181-4.992-5.599-6.466c-2.419-1.472-5.31-2.208-8.673-2.208c-4.837,0-8.886,1.656-12.143,4.968
				c-3.26,3.312-4.889,8.176-4.889,14.587v16.243c0,6.309,1.55,11.173,4.652,14.588c3.1,3.418,7.279,5.125,12.538,5.125
				c3.679,0,6.781-0.631,9.304-1.893s4.44-3.312,5.756-6.15c1.313-2.838,1.972-6.623,1.972-11.354h17.82
				c0,7.151-1.525,13.223-4.573,18.215c-3.05,4.995-7.254,8.807-12.616,11.434c-5.362,2.626-11.46,3.942-18.293,3.942H1830.566z"/>
			<path style="fill:#FFFFFF;" d="M1921.086,869.734c-7.57,0-14.272-1.553-20.107-4.652s-10.384-7.621-13.641-13.562
				c-3.26-5.938-4.889-13.168-4.889-21.684v-3.942c0-8.516,1.708-15.743,5.125-21.685c3.416-5.938,8.095-10.46,14.036-13.562
				c5.938-3.101,12.695-4.652,20.265-4.652h2.523c7.148,0,13.377,1.446,18.688,4.337c5.308,2.893,9.408,6.938,12.301,12.143
				c2.891,5.204,4.337,11.275,4.337,18.215v9.935h-54.564c0,5.047,0.631,9.462,1.892,13.247c1.262,3.785,3.154,6.678,5.677,8.674
				c2.523,1.998,5.835,2.996,9.936,2.996c3.363,0,6.308-0.655,8.831-1.971c2.523-1.313,4.519-3.285,5.993-5.914
				c1.471-2.627,2.208-5.835,2.208-9.62h20.028c0,6.205-1.577,11.697-4.731,16.479c-3.154,4.786-7.491,8.517-13.01,11.197
				s-11.907,4.021-19.161,4.021H1921.086z M1905.316,819.585h33.275c0-6.623-1.447-11.536-4.337-14.745
				c-2.893-3.205-6.86-4.81-11.906-4.81c-4.731,0-8.701,1.656-11.907,4.968C1907.233,808.31,1905.525,813.174,1905.316,819.585z"/>
		</g>
	</g>
	<g>
		<circle style="fill:#FF5553;" cx="3242.183" cy="713.115" r="678.115"/>
		<g>
			<path style="fill:#FFFFFF;" d="M3030.827,357.41c-3.708,0-7.256-0.61-10.646-1.831s-6.171-3.255-8.341-6.103
				s-3.255-6.713-3.255-11.596c0-4.972,1.106-8.996,3.323-12.071c2.214-3.072,5.334-5.446,9.357-7.12
				c4.022-1.672,8.86-2.825,14.512-3.458c5.65-0.631,12.003-0.949,19.056-0.949v-6.103c0-3.978-1.085-6.802-3.255-8.477
				c-2.17-1.672-5.336-2.509-9.494-2.509c-3.526,0-6.624,0.792-9.29,2.374c-2.668,1.583-4.001,4-4.001,7.256v1.085h-17.767
				c-0.091-0.271-0.136-0.655-0.136-1.153c0-0.496,0-0.926,0-1.289c0-3.978,1.266-7.48,3.798-10.511
				c2.53-3.028,6.057-5.378,10.578-7.052c4.521-1.672,9.766-2.509,15.732-2.509h2.849c9.765,0,17.042,1.922,21.835,5.764
				c4.791,3.844,7.188,9.019,7.188,15.529v33.77c0,1.719,0.428,2.939,1.288,3.662c0.858,0.725,1.784,1.085,2.78,1.085
				c0.813,0,1.717-0.157,2.712-0.475c0.994-0.315,1.943-0.699,2.849-1.153v10.85c-1.176,0.905-2.736,1.627-4.679,2.17
				c-1.945,0.542-4.272,0.814-6.985,0.814c-3.255,0-5.967-0.521-8.137-1.56c-2.17-1.038-3.821-2.462-4.95-4.272
				c-1.132-1.808-1.831-3.886-2.103-6.239c-2.532,3.618-5.878,6.533-10.036,8.748C3041.45,356.302,3036.523,357.41,3030.827,357.41z
				 M3039.508,345.204c2.529,0,4.95-0.587,7.256-1.763c2.305-1.174,4.225-2.916,5.764-5.222c1.536-2.306,2.306-5.175,2.306-8.612
				v-5.561c-5.787,0-10.693,0.362-14.716,1.085c-4.023,0.725-7.075,1.922-9.154,3.594c-2.081,1.674-3.119,4.092-3.119,7.256
				c0,3.346,1.018,5.72,3.052,7.12C3032.93,344.504,3035.799,345.204,3039.508,345.204z"/>
			<path style="fill:#FFFFFF;" d="M3118.439,357.41c-3.889,0-7.371-0.542-10.443-1.628c-3.075-1.085-5.472-2.916-7.188-5.493
				c-1.718-2.577-2.576-5.988-2.576-10.239v-39.466h-7.595v-13.833h8.137l6.51-22.106h11.393v22.106h16.275v13.833h-16.275v35.397
				c0,3.98,0.813,6.51,2.441,7.595c1.628,1.085,3.391,1.628,5.289,1.628c0.994,0,2.374-0.204,4.137-0.61
				c1.763-0.407,3.188-0.835,4.272-1.289v11.392c-1.177,0.634-2.624,1.153-4.34,1.56c-1.719,0.407-3.459,0.699-5.222,0.881
				C3121.49,357.319,3119.885,357.41,3118.439,357.41z"/>
			<path style="fill:#FFFFFF;" d="M3177.705,357.41c-6.33,0-12.003-1.424-17.021-4.272c-5.018-2.848-8.951-6.894-11.799-12.138
				c-2.848-5.243-4.272-11.392-4.272-18.445v-2.441c0-7.142,1.425-13.291,4.272-18.445s6.758-9.155,11.731-12.003
				c4.972-2.848,10.623-4.272,16.953-4.272h2.712c6.419,0,12.115,1.424,17.089,4.272c4.972,2.848,8.883,6.849,11.731,12.003
				c2.848,5.154,4.272,11.303,4.272,18.445v2.441c0,7.144-1.425,13.314-4.272,18.513c-2.849,5.2-6.76,9.222-11.731,12.07
				c-4.974,2.848-10.625,4.272-16.953,4.272H3177.705z M3178.926,345.204c2.801,0,5.31-0.655,7.526-1.967
				c2.215-1.31,3.978-3.276,5.289-5.899c1.311-2.622,1.967-5.741,1.967-9.358v-13.292c0-3.706-0.656-6.825-1.967-9.358
				c-1.312-2.53-3.074-4.476-5.289-5.832c-2.217-1.356-4.726-2.035-7.526-2.035c-2.713,0-5.201,0.678-7.46,2.035
				c-2.261,1.356-4.047,3.301-5.356,5.832c-1.312,2.533-1.967,5.652-1.967,9.358v13.292c0,3.617,0.654,6.736,1.967,9.358
				c1.31,2.624,3.096,4.59,5.356,5.899C3173.725,344.549,3176.213,345.204,3178.926,345.204z"/>
			<path style="fill:#FFFFFF;" d="M3228.698,356.054v-69.303h13.833l2.441,10.171c2.351-3.615,5.131-6.442,8.341-8.476
				c3.208-2.035,7.12-3.052,11.731-3.052c4.521,0,8.498,0.86,11.935,2.577c3.436,1.718,6.147,4.566,8.138,8.544
				c2.17-3.615,4.972-6.374,8.408-8.273c3.436-1.899,7.504-2.848,12.206-2.848c4.43,0,8.341,0.905,11.731,2.712
				c3.391,1.81,6.035,4.387,7.935,7.73c1.898,3.346,2.848,7.415,2.848,12.206v48.011h-18.309v-43.806c0-4.52-0.95-7.82-2.849-9.9
				c-1.898-2.079-4.522-3.12-7.866-3.12c-2.17,0-4.137,0.566-5.899,1.695c-1.763,1.132-3.143,2.712-4.137,4.747
				c-0.996,2.034-1.491,4.363-1.491,6.984v43.399h-18.31v-43.806c0-4.52-0.949-7.82-2.848-9.9c-1.899-2.079-4.567-3.12-8.002-3.12
				c-2.17,0-4.115,0.566-5.832,1.695c-1.719,1.132-3.075,2.712-4.068,4.747c-0.996,2.034-1.492,4.363-1.492,6.984v43.399H3228.698z"
				/>
			<path style="fill:#FFFFFF;" d="M3347.23,272.781v-14.376h19.123v14.376H3347.23z M3347.502,356.054v-69.303h18.58v69.303
				H3347.502z"/>
			<path style="fill:#FFFFFF;" d="M3413.413,357.41c-5.878,0-11.188-1.445-15.936-4.34c-4.747-2.893-8.477-6.893-11.188-12.002
				c-2.713-5.107-4.069-10.962-4.069-17.563V319.3c0-4.971,0.835-9.515,2.51-13.63c1.672-4.113,3.954-7.708,6.849-10.782
				c2.893-3.073,6.283-5.425,10.172-7.052c3.887-1.627,8.046-2.441,12.478-2.441h2.576c6.057,0,11.325,1.2,15.801,3.594
				c4.476,2.396,7.91,5.743,10.307,10.036c2.395,4.295,3.595,9.336,3.595,15.122h-16.14c0-3.706-0.565-6.781-1.695-9.222
				c-1.132-2.441-2.735-4.293-4.814-5.561c-2.081-1.265-4.566-1.899-7.459-1.899c-4.16,0-7.642,1.424-10.443,4.272
				c-2.804,2.848-4.204,7.031-4.204,12.545v13.969c0,5.425,1.333,9.608,4.001,12.545c2.666,2.939,6.26,4.408,10.782,4.408
				c3.163,0,5.831-0.542,8.001-1.628c2.17-1.085,3.819-2.848,4.95-5.289c1.13-2.441,1.695-5.696,1.695-9.765h15.326
				c0,6.149-1.312,11.371-3.934,15.664c-2.623,4.295-6.238,7.574-10.85,9.833c-4.611,2.259-9.856,3.391-15.732,3.391H3413.413z"/>
			<path style="fill:#FFFFFF;" d="M2801.695,508.803c-4.34,0-8.272-0.542-11.799-1.628c-3.526-1.085-6.578-2.553-9.154-4.408
				c-2.577-1.852-4.544-4.022-5.899-6.51c-1.356-2.486-2.035-5.175-2.035-8.069c0-0.542,0-0.994,0-1.356
				c0-0.36,0.045-0.858,0.136-1.492h15.732c-0.091,0.271-0.136,0.521-0.136,0.746c0,0.227,0,0.43,0,0.61
				c0,2.261,0.768,4.137,2.306,5.628c1.536,1.492,3.526,2.577,5.968,3.255c2.441,0.678,5.062,1.018,7.866,1.018
				c2.259,0,4.543-0.271,6.849-0.814s4.226-1.424,5.764-2.645c1.537-1.221,2.306-2.78,2.306-4.679c0-2.079-0.792-3.683-2.373-4.814
				c-1.583-1.129-3.709-2.035-6.374-2.712c-2.668-0.678-5.584-1.265-8.748-1.763c-3.166-0.496-6.354-1.129-9.562-1.899
				c-3.21-0.767-6.149-1.875-8.815-3.323c-2.668-1.445-4.793-3.412-6.374-5.899c-1.583-2.486-2.374-5.764-2.374-9.833
				c0-3.435,0.791-6.51,2.374-9.223c1.581-2.712,3.751-4.971,6.51-6.781c2.757-1.808,5.921-3.164,9.493-4.068
				c3.571-0.903,7.301-1.356,11.189-1.356h2.712c3.615,0,7.074,0.454,10.376,1.356c3.299,0.905,6.26,2.193,8.883,3.865
				c2.621,1.674,4.679,3.662,6.171,5.967s2.237,4.814,2.237,7.527c0,0.454-0.022,0.973-0.067,1.56
				c-0.047,0.589-0.114,0.973-0.203,1.153h-15.732v-1.085c0-0.994-0.25-1.967-0.746-2.916c-0.498-0.949-1.312-1.831-2.441-2.645
				c-1.132-0.814-2.576-1.469-4.34-1.967c-1.763-0.496-3.865-0.746-6.307-0.746c-2.17,0-4.115,0.204-5.831,0.61
				c-1.719,0.407-3.166,0.95-4.341,1.627c-1.176,0.678-2.034,1.471-2.576,2.374c-0.543,0.905-0.813,1.81-0.813,2.712
				c0,1.899,0.813,3.37,2.44,4.408c1.628,1.041,3.774,1.854,6.442,2.441c2.666,0.589,5.605,1.131,8.815,1.627
				c3.208,0.498,6.396,1.108,9.562,1.831c3.164,0.725,6.103,1.831,8.815,3.323c2.713,1.492,4.859,3.505,6.442,6.035
				c1.581,2.532,2.373,5.832,2.373,9.9c0,4.251-0.813,7.866-2.441,10.85c-1.627,2.983-3.889,5.357-6.781,7.12
				c-2.895,1.763-6.149,3.051-9.765,3.865c-3.617,0.813-7.415,1.221-11.393,1.221H2801.695z"/>
			<path style="fill:#FFFFFF;" d="M2865.573,507.447l-21.429-69.303h19.259l12.748,44.077h0.679l13.02-44.077h19.123l13.02,44.077
				h0.813l12.749-44.077h17.902l-21.564,69.303h-20.072l-12.612-42.043h-0.814l-12.477,42.043H2865.573z"/>
			<path style="fill:#FFFFFF;" d="M2983.021,508.803c-3.708,0-7.256-0.61-10.646-1.831s-6.171-3.255-8.341-6.103
				s-3.255-6.713-3.255-11.596c0-4.972,1.106-8.996,3.323-12.071c2.214-3.072,5.334-5.446,9.357-7.12
				c4.022-1.672,8.86-2.825,14.512-3.458c5.65-0.631,12.003-0.949,19.056-0.949v-6.103c0-3.978-1.085-6.802-3.255-8.477
				c-2.17-1.672-5.336-2.509-9.494-2.509c-3.526,0-6.624,0.792-9.29,2.374c-2.668,1.583-4.001,4-4.001,7.256v1.085h-17.767
				c-0.091-0.271-0.136-0.655-0.136-1.153c0-0.496,0-0.926,0-1.289c0-3.978,1.266-7.48,3.798-10.511
				c2.53-3.028,6.057-5.378,10.578-7.052c4.521-1.672,9.766-2.509,15.732-2.509h2.849c9.765,0,17.042,1.922,21.835,5.764
				c4.791,3.844,7.188,9.019,7.188,15.529v33.77c0,1.719,0.428,2.939,1.288,3.662c0.858,0.725,1.784,1.085,2.78,1.085
				c0.813,0,1.717-0.157,2.712-0.475c0.994-0.315,1.943-0.699,2.849-1.153v10.85c-1.176,0.905-2.736,1.627-4.679,2.17
				c-1.945,0.542-4.272,0.814-6.985,0.814c-3.255,0-5.967-0.521-8.137-1.56c-2.17-1.038-3.821-2.462-4.95-4.272
				c-1.132-1.808-1.831-3.886-2.103-6.239c-2.532,3.618-5.878,6.533-10.036,8.748
				C2993.645,507.695,2988.718,508.803,2983.021,508.803z M2991.702,496.597c2.529,0,4.95-0.587,7.256-1.763
				c2.305-1.174,4.225-2.916,5.764-5.222c1.536-2.306,2.306-5.175,2.306-8.612v-5.561c-5.787,0-10.693,0.362-14.716,1.085
				c-4.023,0.725-7.075,1.922-9.154,3.594c-2.081,1.674-3.119,4.092-3.119,7.256c0,3.346,1.018,5.72,3.052,7.12
				C2985.124,495.898,2987.993,496.597,2991.702,496.597z"/>
			<path style="fill:#FFFFFF;" d="M3047.17,531.995v-93.851h14.512l2.034,8.951c2.079-2.984,4.859-5.446,8.341-7.392
				c3.479-1.943,7.571-2.916,12.273-2.916c5.334,0,10.148,1.153,14.444,3.458c4.293,2.306,7.684,5.991,10.172,11.053
				c2.485,5.065,3.729,11.71,3.729,19.937v2.848c0,7.595-1.221,13.993-3.662,19.191c-2.441,5.2-5.742,9.086-9.9,11.664
				c-4.16,2.577-8.727,3.865-13.698,3.865c-4.793,0-8.815-0.905-12.07-2.713s-5.742-4.113-7.459-6.917v32.821H3047.17z
				 M3079.584,496.461c2.621,0,4.95-0.678,6.984-2.035c2.034-1.356,3.639-3.299,4.814-5.832c1.174-2.53,1.763-5.649,1.763-9.358
				v-12.071c0-4.157-0.589-7.571-1.763-10.239c-1.176-2.666-2.78-4.656-4.814-5.967c-2.034-1.31-4.363-1.967-6.984-1.967
				c-2.441,0-4.726,0.634-6.85,1.899c-2.125,1.267-3.82,3.21-5.086,5.832c-1.267,2.624-1.898,6.059-1.898,10.308v12.206
				c0,3.708,0.61,6.849,1.831,9.426c1.221,2.577,2.893,4.522,5.018,5.832C3074.723,495.807,3077.052,496.461,3079.584,496.461z"/>
			<path style="fill:#FFFFFF;" d="M3185.367,508.803c-5.878,0-11.188-1.445-15.936-4.34c-4.747-2.893-8.477-6.893-11.188-12.002
				c-2.713-5.107-4.069-10.962-4.069-17.563v-4.205c0-4.971,0.835-9.515,2.51-13.63c1.672-4.113,3.954-7.708,6.849-10.782
				c2.893-3.073,6.283-5.425,10.172-7.052c3.887-1.627,8.046-2.441,12.478-2.441h2.576c6.057,0,11.325,1.2,15.801,3.594
				c4.476,2.396,7.91,5.743,10.307,10.036c2.395,4.295,3.595,9.336,3.595,15.122h-16.14c0-3.706-0.565-6.781-1.695-9.222
				c-1.132-2.441-2.735-4.293-4.814-5.561c-2.081-1.265-4.566-1.899-7.459-1.899c-4.16,0-7.642,1.424-10.443,4.272
				c-2.804,2.848-4.204,7.031-4.204,12.545v13.969c0,5.425,1.333,9.608,4.001,12.545c2.666,2.939,6.26,4.408,10.782,4.408
				c3.163,0,5.831-0.542,8.001-1.628c2.17-1.085,3.819-2.848,4.95-5.289c1.13-2.441,1.695-5.696,1.695-9.765h15.326
				c0,6.149-1.312,11.371-3.934,15.664c-2.623,4.295-6.238,7.574-10.85,9.833c-4.611,2.259-9.856,3.391-15.732,3.391H3185.367z"/>
			<path style="fill:#FFFFFF;" d="M3263.215,508.803c-6.33,0-12.003-1.424-17.021-4.272c-5.018-2.848-8.951-6.894-11.799-12.138
				c-2.848-5.243-4.272-11.392-4.272-18.445v-2.441c0-7.142,1.425-13.291,4.272-18.445s6.758-9.155,11.731-12.003
				c4.972-2.848,10.623-4.272,16.953-4.272h2.712c6.419,0,12.115,1.424,17.089,4.272c4.972,2.848,8.883,6.849,11.731,12.003
				c2.848,5.154,4.272,11.303,4.272,18.445v2.441c0,7.144-1.425,13.314-4.272,18.513c-2.849,5.2-6.76,9.222-11.731,12.07
				c-4.974,2.848-10.625,4.272-16.953,4.272H3263.215z M3264.436,496.597c2.801,0,5.31-0.655,7.526-1.967
				c2.215-1.31,3.978-3.276,5.289-5.899c1.311-2.622,1.967-5.741,1.967-9.358v-13.292c0-3.706-0.656-6.825-1.967-9.358
				c-1.312-2.53-3.074-4.476-5.289-5.832c-2.217-1.356-4.726-2.035-7.526-2.035c-2.713,0-5.201,0.678-7.46,2.035
				c-2.261,1.356-4.047,3.301-5.356,5.832c-1.312,2.533-1.967,5.652-1.967,9.358v13.292c0,3.617,0.654,6.736,1.967,9.358
				c1.31,2.624,3.096,4.59,5.356,5.899C3259.234,495.942,3261.723,496.597,3264.436,496.597z"/>
			<path style="fill:#FFFFFF;" d="M3314.208,507.447v-69.303h13.697l2.17,10.171c2.713-3.886,5.989-6.781,9.833-8.68
				c3.842-1.899,8.205-2.848,13.088-2.848c4.7,0,8.837,0.905,12.409,2.712c3.571,1.81,6.328,4.387,8.273,7.73
				c1.943,3.346,2.916,7.415,2.916,12.206v48.011h-18.445v-44.078c0-4.429-1.085-7.684-3.255-9.765
				c-2.17-2.079-5.109-3.119-8.815-3.119c-2.353,0-4.566,0.61-6.646,1.831c-2.081,1.221-3.708,2.872-4.883,4.95
				c-1.176,2.081-1.763,4.431-1.763,7.053v43.128H3314.208z"/>
			<path style="fill:#FFFFFF;" d="M3418.364,508.803c-3.889,0-7.371-0.542-10.443-1.628c-3.075-1.085-5.472-2.916-7.188-5.493
				c-1.718-2.577-2.576-5.988-2.576-10.239v-39.466h-7.595v-13.833h8.137l6.51-22.106h11.393v22.106h16.275v13.833h-16.275v35.397
				c0,3.98,0.813,6.51,2.441,7.595c1.628,1.085,3.391,1.628,5.289,1.628c0.994,0,2.374-0.204,4.137-0.61
				c1.763-0.407,3.188-0.835,4.272-1.289v11.392c-1.177,0.634-2.624,1.153-4.34,1.56c-1.719,0.407-3.459,0.699-5.222,0.881
				C3421.415,508.712,3419.81,508.803,3418.364,508.803z"/>
			<path style="fill:#FFFFFF;" d="M3447.521,507.447v-69.303h13.833l2.306,10.171c0.181-0.36,0.655-1.129,1.424-2.305
				c0.768-1.174,1.92-2.486,3.459-3.933c1.536-1.445,3.458-2.689,5.764-3.73c2.306-1.038,5.086-1.56,8.341-1.56
				c4.7,0,8.521,0.905,11.46,2.712c2.938,1.81,5.131,4.34,6.578,7.595c1.445,3.255,2.17,7.052,2.17,11.392
				c0,0.996-0.047,2.081-0.136,3.255c-0.091,1.176-0.183,2.217-0.271,3.12h-15.461v-2.848c0-1.717-0.339-3.458-1.017-5.222
				c-0.679-1.763-1.764-3.231-3.255-4.408c-1.492-1.174-3.55-1.763-6.171-1.763c-1.899,0-3.526,0.407-4.883,1.221
				c-1.356,0.814-2.465,1.831-3.323,3.052c-0.86,1.22-1.491,2.577-1.898,4.068c-0.406,1.492-0.61,2.872-0.61,4.137v44.349H3447.521z
				"/>
			<path style="fill:#FFFFFF;" d="M3533.098,508.803c-3.708,0-7.256-0.61-10.646-1.831s-6.171-3.255-8.341-6.103
				s-3.255-6.713-3.255-11.596c0-4.972,1.106-8.996,3.323-12.071c2.214-3.072,5.334-5.446,9.357-7.12
				c4.022-1.672,8.86-2.825,14.512-3.458c5.65-0.631,12.003-0.949,19.056-0.949v-6.103c0-3.978-1.085-6.802-3.255-8.477
				c-2.17-1.672-5.336-2.509-9.494-2.509c-3.526,0-6.624,0.792-9.29,2.374c-2.668,1.583-4.001,4-4.001,7.256v1.085h-17.767
				c-0.091-0.271-0.136-0.655-0.136-1.153c0-0.496,0-0.926,0-1.289c0-3.978,1.266-7.48,3.798-10.511
				c2.53-3.028,6.057-5.378,10.578-7.052c4.521-1.672,9.766-2.509,15.732-2.509h2.849c9.765,0,17.042,1.922,21.835,5.764
				c4.791,3.844,7.188,9.019,7.188,15.529v33.77c0,1.719,0.428,2.939,1.288,3.662c0.858,0.725,1.784,1.085,2.78,1.085
				c0.813,0,1.717-0.157,2.712-0.475c0.994-0.315,1.943-0.699,2.849-1.153v10.85c-1.176,0.905-2.736,1.627-4.679,2.17
				c-1.945,0.542-4.272,0.814-6.985,0.814c-3.255,0-5.967-0.521-8.137-1.56c-2.17-1.038-3.821-2.462-4.95-4.272
				c-1.132-1.808-1.831-3.886-2.103-6.239c-2.532,3.618-5.878,6.533-10.036,8.748
				C3543.721,507.695,3538.794,508.803,3533.098,508.803z M3541.778,496.597c2.529,0,4.95-0.587,7.256-1.763
				c2.305-1.174,4.225-2.916,5.764-5.222c1.536-2.306,2.306-5.175,2.306-8.612v-5.561c-5.787,0-10.693,0.362-14.716,1.085
				c-4.023,0.725-7.075,1.922-9.154,3.594c-2.081,1.674-3.119,4.092-3.119,7.256c0,3.346,1.018,5.72,3.052,7.12
				C3535.2,495.898,3538.069,496.597,3541.778,496.597z"/>
			<path style="fill:#FFFFFF;" d="M3625.591,508.803c-5.878,0-11.188-1.445-15.936-4.34c-4.747-2.893-8.477-6.893-11.188-12.002
				c-2.713-5.107-4.069-10.962-4.069-17.563v-4.205c0-4.971,0.835-9.515,2.51-13.63c1.672-4.113,3.954-7.708,6.849-10.782
				c2.893-3.073,6.283-5.425,10.172-7.052c3.887-1.627,8.046-2.441,12.478-2.441h2.576c6.057,0,11.325,1.2,15.801,3.594
				c4.476,2.396,7.91,5.743,10.307,10.036c2.395,4.295,3.595,9.336,3.595,15.122h-16.14c0-3.706-0.565-6.781-1.695-9.222
				c-1.132-2.441-2.735-4.293-4.814-5.561c-2.081-1.265-4.566-1.899-7.459-1.899c-4.16,0-7.642,1.424-10.443,4.272
				c-2.804,2.848-4.204,7.031-4.204,12.545v13.969c0,5.425,1.333,9.608,4.001,12.545c2.666,2.939,6.26,4.408,10.782,4.408
				c3.163,0,5.831-0.542,8.001-1.628c2.17-1.085,3.819-2.848,4.95-5.289c1.13-2.441,1.695-5.696,1.695-9.765h15.326
				c0,6.149-1.312,11.371-3.934,15.664c-2.623,4.295-6.238,7.574-10.85,9.833c-4.611,2.259-9.856,3.391-15.732,3.391H3625.591z"/>
			<path style="fill:#FFFFFF;" d="M3696.794,508.803c-3.889,0-7.371-0.542-10.443-1.628c-3.075-1.085-5.472-2.916-7.188-5.493
				c-1.718-2.577-2.576-5.988-2.576-10.239v-39.466h-7.595v-13.833h8.137l6.51-22.106h11.393v22.106h16.275v13.833h-16.275v35.397
				c0,3.98,0.813,6.51,2.441,7.595c1.628,1.085,3.391,1.628,5.289,1.628c0.994,0,2.374-0.204,4.137-0.61
				c1.763-0.407,3.188-0.835,4.272-1.289v11.392c-1.177,0.634-2.624,1.153-4.34,1.56c-1.719,0.407-3.459,0.699-5.222,0.881
				C3699.845,508.712,3698.239,508.803,3696.794,508.803z"/>
			<path style="fill:#FFFFFF;" d="M3112.318,672.907c-1.505-2.186-3.556-5.434-6.15-9.738c-2.598-4.306-4.305-7.141-5.125-8.508
				l-0.82,0.614v82.415h-28.906V597.053h26.856l44.282,65.193l6.15,9.636c2.185,3.828,3.896,6.631,5.126,8.405l0.614-0.615v-82.619
				h28.907V737.69h-26.856L3112.318,672.907z"/>
			<path style="fill:#FFFFFF;" d="M3304.824,622.269h-60.684v33.622h54.533v25.217h-54.533v56.583h-31.162V597.053h95.125
				L3304.824,622.269z"/>
			<path style="fill:#FFFFFF;" d="M3386.416,622.474V737.69h-31.367V622.474h-39.977v-25.421h111.116v25.421H3386.416z"/>
			<path style="fill:#FFFFFF;" d="M2768.263,970.404v-93.852h14.512l2.034,8.951c2.079-2.983,4.859-5.446,8.341-7.392
				c3.479-1.942,7.571-2.915,12.273-2.915c5.334,0,10.148,1.152,14.444,3.458c4.293,2.306,7.684,5.99,10.172,11.054
				c2.485,5.064,3.729,11.71,3.729,19.937v2.848c0,7.595-1.221,13.992-3.662,19.19c-2.441,5.2-5.742,9.087-9.9,11.664
				c-4.16,2.576-8.727,3.865-13.698,3.865c-4.793,0-8.815-0.905-12.07-2.713s-5.742-4.113-7.459-6.917v32.821H2768.263z
				 M2800.677,934.871c2.621,0,4.95-0.679,6.984-2.034c2.034-1.356,3.639-3.3,4.814-5.832c1.174-2.53,1.763-5.649,1.763-9.358
				v-12.07c0-4.157-0.589-7.571-1.763-10.239c-1.176-2.666-2.78-4.655-4.814-5.968c-2.034-1.31-4.363-1.966-6.984-1.966
				c-2.441,0-4.726,0.633-6.85,1.898c-2.125,1.268-3.82,3.21-5.086,5.832c-1.267,2.623-1.898,6.059-1.898,10.307v12.206
				c0,3.709,0.61,6.85,1.831,9.426c1.221,2.577,2.893,4.522,5.018,5.832C2795.815,934.216,2798.145,934.871,2800.677,934.871z"/>
			<path style="fill:#FFFFFF;" d="M2849.229,945.857v-69.304h13.833l2.306,10.172c0.181-0.36,0.655-1.129,1.424-2.306
				c0.768-1.174,1.92-2.485,3.459-3.933c1.536-1.445,3.458-2.689,5.764-3.729c2.306-1.039,5.086-1.56,8.341-1.56
				c4.7,0,8.521,0.904,11.46,2.712c2.938,1.81,5.131,4.34,6.578,7.595c1.445,3.255,2.17,7.053,2.17,11.393
				c0,0.996-0.047,2.081-0.136,3.255c-0.091,1.176-0.183,2.217-0.271,3.119h-15.461v-2.848c0-1.717-0.339-3.459-1.017-5.222
				c-0.679-1.763-1.764-3.231-3.255-4.407c-1.492-1.175-3.55-1.764-6.171-1.764c-1.899,0-3.526,0.407-4.883,1.221
				s-2.465,1.831-3.323,3.052c-0.86,1.221-1.491,2.576-1.898,4.068c-0.406,1.492-0.61,2.871-0.61,4.137v44.349H2849.229z"/>
			<path style="fill:#FFFFFF;" d="M2917.039,862.584v-14.376h19.123v14.376H2917.039z M2917.311,945.857v-69.304h18.58v69.304
				H2917.311z"/>
			<path style="fill:#FFFFFF;" d="M2983.222,947.213c-5.878,0-11.188-1.445-15.936-4.34c-4.747-2.893-8.477-6.894-11.188-12.003
				c-2.713-5.107-4.069-10.962-4.069-17.563v-4.204c0-4.972,0.835-9.515,2.51-13.63c1.672-4.113,3.954-7.707,6.849-10.782
				c2.893-3.072,6.283-5.425,10.172-7.053c3.887-1.627,8.046-2.44,12.478-2.44h2.576c6.057,0,11.325,1.199,15.801,3.594
				c4.476,2.396,7.91,5.742,10.307,10.036c2.395,4.295,3.595,9.337,3.595,15.122h-16.14c0-3.707-0.565-6.781-1.695-9.223
				c-1.132-2.441-2.735-4.293-4.814-5.561c-2.081-1.265-4.566-1.898-7.459-1.898c-4.16,0-7.642,1.424-10.443,4.271
				c-2.804,2.849-4.204,7.031-4.204,12.546v13.969c0,5.425,1.333,9.608,4.001,12.545c2.666,2.939,6.26,4.408,10.782,4.408
				c3.163,0,5.831-0.543,8.001-1.628s3.819-2.848,4.95-5.289c1.13-2.441,1.695-5.696,1.695-9.765h15.326
				c0,6.149-1.312,11.371-3.934,15.664c-2.623,4.296-6.238,7.574-10.85,9.833s-9.856,3.391-15.732,3.391H2983.222z"/>
			<path style="fill:#FFFFFF;" d="M3061.069,947.213c-6.511,0-12.274-1.335-17.292-4.001c-5.019-2.666-8.931-6.555-11.731-11.664
				c-2.804-5.106-4.204-11.324-4.204-18.647v-3.391c0-7.324,1.468-13.539,4.407-18.648c2.938-5.107,6.961-8.996,12.07-11.664
				c5.107-2.665,10.918-4,17.428-4h2.17c6.147,0,11.505,1.243,16.071,3.729c4.564,2.487,8.091,5.967,10.579,10.442
				c2.485,4.476,3.729,9.697,3.729,15.665v8.544h-46.926c0,4.34,0.542,8.138,1.627,11.393s2.713,5.742,4.883,7.459
				c2.17,1.719,5.019,2.577,8.544,2.577c2.893,0,5.426-0.563,7.596-1.695c2.17-1.13,3.886-2.825,5.153-5.086
				c1.265-2.259,1.898-5.019,1.898-8.273h17.225c0,5.336-1.356,10.06-4.069,14.173c-2.712,4.115-6.441,7.323-11.188,9.629
				s-10.239,3.459-16.479,3.459H3061.069z M3047.507,904.085h28.616c0-5.696-1.244-9.922-3.729-12.682
				c-2.488-2.757-5.899-4.136-10.239-4.136c-4.069,0-7.483,1.424-10.24,4.271C3049.155,894.388,3047.687,898.57,3047.507,904.085z"
				/>
			<path style="fill:#FFFFFF;" d="M3110.434,894.998v-18.445h18.716v18.445H3110.434z M3110.434,945.857v-18.444h18.716v18.444
				H3110.434z"/>
			<path style="fill:#FFFFFF;" d="M3178.922,945.857v-14.919h23.056v-57.504h-23.056v-10.985c3.344-0.271,7.029-0.902,11.053-1.898
				c4.022-0.994,8.114-2.306,12.274-3.934c4.157-1.627,8.046-3.344,11.663-5.153h6.646v79.475h22.649v14.919H3178.922z"/>
			<path style="fill:#FFFFFF;" d="M3290.81,947.213c-5.967,0-11.393-1.401-16.274-4.204c-4.883-2.802-8.748-6.646-11.596-11.528
				c-2.849-4.883-4.272-10.396-4.272-16.546v-31.193c0-6.238,1.424-11.776,4.272-16.614c2.848-4.836,6.713-8.656,11.596-11.46
				c4.882-2.802,10.308-4.204,16.274-4.204h3.934c6.056,0,11.504,1.402,16.342,4.204c4.836,2.804,8.657,6.624,11.461,11.46
				c2.801,4.838,4.204,10.376,4.204,16.614v31.193c0,6.149-1.403,11.663-4.204,16.546c-2.804,4.883-6.625,8.727-11.461,11.528
				c-4.838,2.803-10.286,4.204-16.342,4.204H3290.81z M3292.709,932.973c2.983,0,5.628-0.699,7.934-2.103
				c2.306-1.4,4.113-3.276,5.425-5.628c1.31-2.351,1.967-5.019,1.967-8.002V881.3c0-2.983-0.657-5.649-1.967-8.002
				c-1.312-2.35-3.119-4.226-5.425-5.628c-2.306-1.4-4.95-2.103-7.934-2.103c-2.896,0-5.493,0.702-7.799,2.103
				c-2.306,1.402-4.137,3.278-5.493,5.628c-1.355,2.353-2.034,5.019-2.034,8.002v35.94c0,2.983,0.679,5.651,2.034,8.002
				c1.356,2.352,3.188,4.228,5.493,5.628C3287.216,932.273,3289.813,932.973,3292.709,932.973z"/>
			<path style="fill:#FFFFFF;" d="M3374.216,947.213c-5.967,0-11.393-1.401-16.274-4.204c-4.883-2.802-8.748-6.646-11.596-11.528
				c-2.849-4.883-4.272-10.396-4.272-16.546v-31.193c0-6.238,1.424-11.776,4.272-16.614c2.848-4.836,6.713-8.656,11.596-11.46
				c4.882-2.802,10.308-4.204,16.274-4.204h3.934c6.056,0,11.504,1.402,16.342,4.204c4.836,2.804,8.657,6.624,11.461,11.46
				c2.801,4.838,4.204,10.376,4.204,16.614v31.193c0,6.149-1.403,11.663-4.204,16.546c-2.804,4.883-6.625,8.727-11.461,11.528
				c-4.838,2.803-10.286,4.204-16.342,4.204H3374.216z M3376.115,932.973c2.983,0,5.628-0.699,7.934-2.103
				c2.306-1.4,4.113-3.276,5.425-5.628c1.31-2.351,1.967-5.019,1.967-8.002V881.3c0-2.983-0.657-5.649-1.967-8.002
				c-1.312-2.35-3.119-4.226-5.425-5.628c-2.306-1.4-4.95-2.103-7.934-2.103c-2.896,0-5.493,0.702-7.799,2.103
				c-2.306,1.402-4.137,3.278-5.493,5.628c-1.355,2.353-2.034,5.019-2.034,8.002v35.94c0,2.983,0.679,5.651,2.034,8.002
				c1.356,2.352,3.188,4.228,5.493,5.628C3370.622,932.273,3373.22,932.973,3376.115,932.973z"/>
			<path style="fill:#FFFFFF;" d="M3447.45,945.857l34.177-93.037h23.599l34.041,93.037h-20.615l-7.188-19.259h-37.703
				l-7.188,19.259H3447.45z M3478.643,912.357h27.803l-13.562-38.652h-0.543L3478.643,912.357z"/>
			<path style="fill:#FFFFFF;" d="M3549.981,945.857v-93.037h36.89c5.334,0,10.353,0.837,15.055,2.509
				c4.7,1.674,8.837,4.204,12.409,7.595c3.57,3.391,6.351,7.642,8.341,12.749c1.987,5.108,2.983,11.145,2.983,18.105v8.68
				c0,6.872-0.996,12.999-2.983,18.377c-1.99,5.381-4.771,9.924-8.341,13.63c-3.572,3.709-7.709,6.533-12.409,8.477
				c-4.702,1.945-9.721,2.916-15.055,2.916H3549.981z M3569.783,930.667h15.461c3.706,0,7.029-0.835,9.968-2.51
				c2.938-1.672,5.267-4.271,6.984-7.798c1.717-3.526,2.577-8.091,2.577-13.698v-16.139c0-5.514-0.86-9.922-2.577-13.224
				c-1.718-3.299-4.047-5.696-6.984-7.188c-2.938-1.492-6.262-2.238-9.968-2.238h-15.461V930.667z"/>
			<path style="fill:#FFFFFF;" d="M3632.848,945.857l34.177-93.037h23.599l34.041,93.037h-20.615l-7.188-19.259h-37.703
				l-7.188,19.259H3632.848z M3664.04,912.357h27.803l-13.562-38.652h-0.543L3664.04,912.357z"/>
			<path style="fill:#FFFFFF;" d="M3031.168,1098.606c-3.889,0-7.371-0.543-10.443-1.628c-3.075-1.085-5.472-2.916-7.188-5.492
				c-1.718-2.577-2.576-5.989-2.576-10.24v-39.466h-7.595v-13.834h8.137l6.51-22.107h11.393v22.107h16.275v13.834h-16.275v35.397
				c0,3.979,0.813,6.51,2.441,7.595s3.391,1.628,5.289,1.628c0.994,0,2.374-0.204,4.137-0.61c1.763-0.407,3.188-0.835,4.272-1.289
				v11.393c-1.177,0.634-2.624,1.153-4.34,1.56c-1.719,0.407-3.459,0.699-5.222,0.882
				C3034.219,1098.514,3032.613,1098.606,3031.168,1098.606z"/>
			<path style="fill:#FFFFFF;" d="M3090.434,1098.606c-6.33,0-12.003-1.424-17.021-4.272c-5.018-2.848-8.951-6.894-11.799-12.138
				c-2.848-5.243-4.272-11.393-4.272-18.445v-2.441c0-7.141,1.425-13.291,4.272-18.444s6.758-9.154,11.731-12.003
				c4.972-2.848,10.623-4.271,16.953-4.271h2.712c6.419,0,12.115,1.424,17.089,4.271c4.972,2.849,8.883,6.85,11.731,12.003
				c2.848,5.153,4.272,11.304,4.272,18.444v2.441c0,7.144-1.425,13.314-4.272,18.513c-2.849,5.2-6.76,9.223-11.731,12.07
				c-4.974,2.849-10.625,4.272-16.953,4.272H3090.434z M3091.654,1086.4c2.801,0,5.31-0.655,7.526-1.967
				c2.215-1.31,3.978-3.276,5.289-5.899c1.311-2.621,1.967-5.741,1.967-9.358v-13.291c0-3.706-0.656-6.825-1.967-9.357
				c-1.312-2.53-3.074-4.476-5.289-5.832c-2.217-1.356-4.726-2.034-7.526-2.034c-2.713,0-5.201,0.678-7.46,2.034
				c-2.261,1.356-4.047,3.302-5.356,5.832c-1.312,2.532-1.967,5.651-1.967,9.357v13.291c0,3.617,0.654,6.737,1.967,9.358
				c1.31,2.623,3.096,4.59,5.356,5.899C3086.453,1085.744,3088.941,1086.4,3091.654,1086.4z"/>
			<path style="fill:#FFFFFF;" d="M3161.769,1097.249l34.177-93.037h23.599l34.041,93.037h-20.615l-7.188-19.259h-37.703
				l-7.188,19.259H3161.769z M3192.961,1063.75h27.803l-13.562-38.652h-0.543L3192.961,1063.75z"/>
			<path style="fill:#FFFFFF;" d="M3263.35,1097.249v-97.648h18.58v97.648H3263.35z"/>
			<path style="fill:#FFFFFF;" d="M3302.271,1013.977v-14.376h19.123v14.376H3302.271z M3302.542,1097.249v-69.304h18.58v69.304
				H3302.542z"/>
			<path style="fill:#FFFFFF;" d="M3368.453,1098.606c-5.878,0-11.188-1.445-15.936-4.34c-4.747-2.893-8.477-6.894-11.188-12.003
				c-2.713-5.107-4.069-10.962-4.069-17.563v-4.204c0-4.972,0.835-9.515,2.51-13.63c1.672-4.113,3.954-7.707,6.849-10.782
				c2.893-3.072,6.283-5.425,10.172-7.053c3.887-1.627,8.046-2.44,12.478-2.44h2.576c6.057,0,11.325,1.199,15.801,3.594
				c4.476,2.396,7.91,5.742,10.307,10.036c2.395,4.295,3.595,9.337,3.595,15.122h-16.14c0-3.707-0.565-6.781-1.695-9.223
				c-1.132-2.441-2.735-4.293-4.814-5.561c-2.081-1.265-4.566-1.898-7.459-1.898c-4.16,0-7.642,1.424-10.443,4.271
				c-2.804,2.849-4.204,7.031-4.204,12.546v13.969c0,5.425,1.333,9.608,4.001,12.545c2.666,2.939,6.26,4.408,10.782,4.408
				c3.163,0,5.831-0.543,8.001-1.628s3.819-2.848,4.95-5.289c1.13-2.441,1.695-5.696,1.695-9.765h15.326
				c0,6.149-1.312,11.371-3.934,15.664c-2.623,4.296-6.238,7.574-10.85,9.833s-9.856,3.391-15.732,3.391H3368.453z"/>
			<path style="fill:#FFFFFF;" d="M3446.301,1098.606c-6.511,0-12.274-1.335-17.292-4.001c-5.019-2.666-8.931-6.555-11.731-11.664
				c-2.804-5.106-4.204-11.324-4.204-18.647v-3.391c0-7.324,1.468-13.539,4.407-18.648c2.938-5.107,6.961-8.996,12.07-11.664
				c5.107-2.665,10.918-4,17.428-4h2.17c6.147,0,11.505,1.243,16.071,3.729c4.564,2.487,8.091,5.967,10.579,10.442
				c2.485,4.476,3.729,9.697,3.729,15.665v8.544h-46.926c0,4.34,0.542,8.138,1.627,11.393s2.713,5.742,4.883,7.459
				c2.17,1.719,5.019,2.577,8.544,2.577c2.893,0,5.426-0.563,7.596-1.695c2.17-1.13,3.886-2.825,5.153-5.086
				c1.265-2.259,1.898-5.019,1.898-8.273h17.225c0,5.336-1.356,10.06-4.069,14.173c-2.712,4.115-6.441,7.323-11.188,9.629
				s-10.239,3.459-16.479,3.459H3446.301z M3432.738,1055.478h28.616c0-5.696-1.244-9.922-3.729-12.682
				c-2.488-2.757-5.899-4.136-10.239-4.136c-4.069,0-7.483,1.424-10.24,4.271C3434.387,1045.78,3432.918,1049.963,3432.738,1055.478
				z"/>
		</g>
		<g>
			<g>
				<path style="fill:#FFFFFF;stroke:#FFFFFF;stroke-width:5.5397;stroke-miterlimit:1;" d="M2748.551,1101.162h-11.345
					c-19.71,0-35.746-15.953-35.746-35.562v-79.888c0-7.38-3.266-14.342-8.96-19.097l-15.347-12.811l15.347-12.813
					c5.696-4.753,8.96-11.715,8.96-19.097v-79.888c0-19.609,16.036-35.562,35.746-35.562h11.345v10.612h-11.345
					c-13.858,0-25.134,11.193-25.134,24.949v79.888c0,10.537-4.654,20.469-12.772,27.241l-5.59,4.67l5.59,4.667
					c8.118,6.777,12.772,16.706,12.772,27.241v79.888c0,13.756,11.275,24.949,25.134,24.949h11.345V1101.162z"/>
			</g>
			<g>
				<path style="fill:#FFFFFF;stroke:#FFFFFF;stroke-width:5.5397;stroke-miterlimit:1;" d="M3735.946,806.443h11.345
					c19.71,0,35.746,15.953,35.746,35.562v79.888c0,7.38,3.266,14.342,8.96,19.097l15.347,12.811l-15.347,12.813
					c-5.696,4.753-8.96,11.715-8.96,19.097v79.888c0,19.609-16.036,35.562-35.746,35.562h-11.345v-10.612h11.345
					c13.858,0,25.134-11.193,25.134-24.949v-79.888c0-10.537,4.654-20.469,12.772-27.241l5.59-4.67l-5.59-4.667
					c-8.118-6.777-12.772-16.706-12.772-27.241v-79.888c0-13.757-11.275-24.949-25.134-24.949h-11.345V806.443z"/>
			</g>
		</g>
	</g>
</g>
</svg>
