<?xml version="1.0" encoding="iso-8859-1"?>
<!-- Generator: Adobe Illustrator 29.6.0, SVG Export Plug-In . SVG Version: 9.03 Build 0)  -->
<svg version="1.1" xmlns="http://www.w3.org/2000/svg" xmlns:xlink="http://www.w3.org/1999/xlink" x="0px" y="0px"
	 viewBox="0 0 4000 1500" style="enable-background:new 0 0 4000 1500;" xml:space="preserve">
<g id="Shapes">
	<g>
		<g>
			
				<line style="fill:none;stroke:#000000;stroke-width:12;stroke-miterlimit:10;" x1="2409.903" y1="1026.023" x2="2759.441" y2="763.531"/>
			<g>
				<polygon points="2770.407,792.711 2793.871,737.675 2734.475,744.864 				"/>
			</g>
		</g>
	</g>
	<g>
		<g>
			
				<line style="fill:none;stroke:#000000;stroke-width:12;stroke-miterlimit:10;" x1="419.347" y1="1025.92" x2="706.373" y2="1025.92"/>
			<g>
				<polygon points="697.619,1055.838 749.43,1025.92 697.619,996.002 				"/>
			</g>
		</g>
	</g>
	<g>
		<g>
			
				<line style="fill:none;stroke:#000000;stroke-width:12;stroke-miterlimit:10;" x1="1243.652" y1="1025.92" x2="1588.18" y2="1025.92"/>
			<g>
				<polygon points="1579.426,1055.838 1631.238,1025.92 1579.426,996.002 				"/>
			</g>
		</g>
	</g>
	<g>
		<g>
			
				<line style="fill:none;stroke:#000000;stroke-width:12;stroke-miterlimit:10;" x1="3316.536" y1="556.342" x2="3415.525" y2="470.731"/>
			<g>
				<polygon points="3428.474,499.086 3448.092,442.565 3389.333,453.828 				"/>
			</g>
		</g>
	</g>
	<g>
		<g>
			
				<line style="fill:none;stroke:#000000;stroke-width:12;stroke-miterlimit:10;" x1="3316.536" y1="879.897" x2="3415.525" y2="965.509"/>
			<g>
				<polygon points="3389.333,982.411 3448.092,993.675 3428.474,937.153 				"/>
			</g>
		</g>
	</g>
	<g>
		<g>
			
				<line style="fill:none;stroke:#000000;stroke-width:12;stroke-miterlimit:10;" x1="2766.491" y1="517.204" x2="2692.538" y2="458.565"/>
			<g>
				<polygon points="2778.22,488.323 2800.229,543.956 2741.043,535.208 				"/>
			</g>
		</g>
	</g>
	<circle style="fill:#FF5553;" cx="257.093" cy="1025.92" r="210"/>
	<circle style="fill:#FF5553;" cx="2470.232" cy="314.08" r="270"/>
	<circle style="fill:#FF5553;" cx="3682.907" cy="314.08" r="270"/>
	<circle style="fill:#FF5553;" cx="3682.907" cy="1134.465" r="270"/>
	<path style="fill:#0033AD;" d="M1275.683,1215.92H781.45c-18.086,0-32.884-14.798-32.884-32.884V868.804
		c0-18.086,14.798-32.884,32.884-32.884h494.232c18.086,0,32.884,14.798,32.884,32.884v314.232
		C1308.567,1201.122,1293.769,1215.92,1275.683,1215.92z"/>
	<path style="fill:#0033AD;" d="M3321.33,910.143h-494.232c-18.086,0-32.884-14.798-32.884-32.884V563.027
		c0-18.086,14.798-32.884,32.884-32.884h494.232c18.086,0,32.884,14.798,32.884,32.884v314.232
		C3354.214,895.345,3339.416,910.143,3321.33,910.143z"/>
	<circle style="fill:#FF5553;" cx="2052.455" cy="1025.92" r="430"/>
</g>
<g id="Text">
	<g>
		<path style="fill:#FFFFFF;" d="M184.595,983.279h-27.3l-4.8,13.5h-14.9l24.9-68.6h18.4l24.9,68.6h-16.2L184.595,983.279z
			 M161.495,971.578h19c-2.535-7.533-5.6-16.5-9.2-26.9h-0.5L161.495,971.578z"/>
		<path style="fill:#FFFFFF;" d="M212.594,996.779v-72h14.6v72H212.594z"/>
		<path style="fill:#FFFFFF;" d="M240.393,924.779h14.8v11.5h-14.8V924.779z M240.493,996.779v-51.1h14.6v51.1H240.493z"/>
		<path style="fill:#FFFFFF;" d="M283.393,984.429c1.732,2.234,4.065,3.35,7,3.35c3.065,0,5.482-0.95,7.25-2.85
			c1.766-1.9,2.65-4.715,2.65-8.45h13.8c0,4.734-1.017,8.7-3.05,11.9c-2.035,3.2-4.717,5.567-8.05,7.1c-3.334,1.533-7,2.3-11,2.3
			h-1.6c-7.467,0-13.4-2.216-17.8-6.65c-4.4-4.433-6.6-10.583-6.6-18.45v-2.9c0-5.2,1.05-9.683,3.15-13.45
			c2.1-3.766,4.982-6.65,8.65-8.65c3.666-2,7.866-3,12.6-3h1.6c3.933,0,7.583,0.85,10.95,2.55c3.366,1.7,6.065,4.167,8.1,7.4
			c2.033,3.234,3.05,7.05,3.05,11.45h-14.5c0-3.465-0.767-6.232-2.3-8.3c-1.535-2.065-3.8-3.1-6.8-3.1s-5.367,1.185-7.1,3.55
			c-1.734,2.367-2.6,5.35-2.6,8.95v8.9C280.792,979.413,281.658,982.196,283.393,984.429z"/>
		<path style="fill:#FFFFFF;" d="M369.191,988.929c-2.134,3.035-4.95,5.267-8.45,6.7c-3.5,1.433-7.317,2.15-11.45,2.15h-1.6
			c-4.734,0-9-1-12.8-3s-6.784-4.883-8.95-8.65c-2.167-3.766-3.25-8.25-3.25-13.45v-2.9c0-5.133,1.1-9.6,3.3-13.4
			c2.2-3.8,5.183-6.7,8.95-8.7c3.766-2,8.016-3,12.75-3h1.6c4.133,0,7.966,0.85,11.5,2.55c3.533,1.7,6.366,4.167,8.5,7.4
			c2.133,3.234,3.2,7.05,3.2,11.45v7.6h-35v2.4c0,3.334,0.983,6.117,2.95,8.35c1.966,2.234,4.65,3.35,8.05,3.35
			c3.065,0,5.483-0.85,7.25-2.55c1.766-1.7,2.65-4.216,2.65-7.55h14C372.391,982.146,371.324,985.896,369.191,988.929z
			 M340.641,957.779c-1.834,2.067-2.884,4.7-3.15,7.9h20.2c0-3.4-0.784-6.083-2.35-8.05c-1.567-1.966-4.084-2.95-7.55-2.95
			C344.857,954.679,342.474,955.713,340.641,957.779z"/>
		<path style="fill:#FFFFFF;" d="M193.744,1075.179c-0.734-1.065-1.734-2.65-3-4.75c-1.268-2.1-2.1-3.483-2.5-4.15l-0.4,0.3v40.2
			h-14.1v-68.6h13.1l21.6,31.8l3,4.7c1.066,1.867,1.9,3.234,2.5,4.1l0.3-0.3v-40.3h14.1v68.6h-13.1L193.744,1075.179z"/>
		<path style="fill:#FFFFFF;" d="M287.644,1050.479h-29.6v16.4h26.6v12.3h-26.6v27.6h-15.2v-68.6h46.4L287.644,1050.479z"/>
		<path style="fill:#FFFFFF;" d="M327.442,1050.578v56.2h-15.3v-56.2h-19.5v-12.4h54.2v12.4H327.442z"/>
	</g>
	<g>
		<path style="fill:#FFFFFF;" d="M2419.334,200.326c3.266,0,6.266,0.75,9,2.25c2.732,1.5,4.916,3.535,6.55,6.1
			c1.633,2.567,2.45,5.384,2.45,8.45c0,4.667-1.1,8.267-3.3,10.8c-2.2,2.534-5,4.267-8.4,5.2v0.5c3.666,0.734,6.8,2.434,9.4,5.1
			c2.6,2.667,3.899,6.635,3.899,11.9c0,3.334-0.85,6.4-2.55,9.2c-1.7,2.8-4,5.017-6.899,6.65c-2.9,1.635-6.085,2.45-9.551,2.45
			h-34.6v-68.6H2419.334z M2420.234,225.826c1.532-1.533,2.3-3.465,2.3-5.8c0-2.8-0.768-4.816-2.3-6.05
			c-1.535-1.232-3.301-1.85-5.301-1.85h-15v16h15C2416.934,228.126,2418.699,227.361,2420.234,225.826z M2421.634,254.226
			c1.533-1.533,2.3-3.4,2.3-5.6v-0.9c0-2.2-0.767-4.065-2.3-5.6c-1.534-1.533-3.399-2.3-5.6-2.3h-16.101v16.7h16.101
			C2418.234,256.526,2420.1,255.761,2421.634,254.226z"/>
		<path style="fill:#FFFFFF;" d="M2495.283,258.226c-2.167,3.8-5.15,6.7-8.95,8.7s-8.067,3-12.8,3h-1.601c-4.734,0-9-1-12.8-3
			s-6.784-4.9-8.95-8.7c-2.167-3.8-3.25-8.266-3.25-13.4v-2.9c0-5.133,1.083-9.6,3.25-13.4c2.166-3.8,5.15-6.7,8.95-8.7
			s8.065-3,12.8-3h1.601c4.732,0,9,1,12.8,3s6.783,4.9,8.95,8.7c2.165,3.8,3.25,8.267,3.25,13.4v2.9
			C2498.533,249.96,2497.448,254.426,2495.283,258.226z M2480.683,230.026c-2.034-2.133-4.684-3.2-7.949-3.2
			c-3.268,0-5.918,1.067-7.95,3.2c-2.034,2.134-3.05,5.234-3.05,9.3v8.1c0,4.067,1.016,7.167,3.05,9.3
			c2.032,2.135,4.683,3.2,7.95,3.2c3.266,0,5.915-1.065,7.949-3.2c2.033-2.133,3.051-5.232,3.051-9.3v-8.1
			C2483.733,235.261,2482.716,232.16,2480.683,230.026z"/>
		<path style="fill:#FFFFFF;" d="M2529.882,218.826c2.433-1.333,5.25-2,8.45-2c3.732,0,7.083,0.967,10.05,2.9
			c2.966,1.935,5.315,4.834,7.05,8.7c1.733,3.867,2.601,8.567,2.601,14.1v1.1c0,5.8-0.935,10.667-2.801,14.6
			c-1.867,3.935-4.399,6.867-7.6,8.8c-3.2,1.933-6.8,2.9-10.8,2.9c-3.667,0-6.935-0.75-9.8-2.25c-2.867-1.5-5.268-3.683-7.2-6.55
			l-1.7,2.6c-0.667,1.135-1.3,2.117-1.9,2.95c-0.6,0.834-1.1,1.584-1.5,2.25h-5.3v-72h14.601v26.8
			C2525.497,221.793,2527.447,220.16,2529.882,218.826z M2540.532,230.526c-1.801-2.066-4.101-3.1-6.9-3.1s-5.1,1.034-6.9,3.1
			c-1.8,2.067-2.699,5.067-2.699,9v8.3c0,3.867,0.899,6.85,2.699,8.95c1.801,2.1,4.101,3.15,6.9,3.15s5.1-1.05,6.9-3.15
			c1.8-2.1,2.699-5.083,2.699-8.95v-8.3C2543.231,235.593,2542.332,232.593,2540.532,230.526z"/>
		<path style="fill:#FFFFFF;" d="M2272.534,366.826h16.601v-39.3h-16.7v-8.9c3.732-0.266,7.966-1.216,12.7-2.85
			c4.732-1.633,9.199-3.616,13.399-5.95h5.3v57h16.301v12.1h-47.601V366.826z"/>
		<path style="fill:#FFFFFF;" d="M2378.534,368.126c-2.135,3.667-5.034,6.55-8.7,8.65c-3.667,2.1-7.7,3.15-12.1,3.15h-2.9
			c-4.399,0-8.435-1.05-12.1-3.15c-3.667-2.1-6.55-4.983-8.65-8.65c-2.1-3.666-3.149-7.733-3.149-12.2v-22.5
			c0-4.466,1.05-8.533,3.149-12.2c2.101-3.666,4.983-6.565,8.65-8.7c3.665-2.133,7.7-3.2,12.1-3.2h2.9c4.399,0,8.433,1.067,12.1,3.2
			c3.666,2.134,6.565,5.034,8.7,8.7c2.133,3.667,3.2,7.734,3.2,12.2v22.5C2381.734,360.393,2380.667,364.46,2378.534,368.126z
			 M2363.884,324.126c-2.034-2.066-4.55-3.1-7.55-3.1s-5.517,1.034-7.55,3.1c-2.034,2.067-3.05,4.6-3.05,7.6v25.8
			c0,3,1.016,5.534,3.05,7.6c2.033,2.067,4.55,3.1,7.55,3.1s5.516-1.033,7.55-3.1c2.033-2.066,3.051-4.6,3.051-7.6v-25.8
			C2366.935,328.726,2365.917,326.193,2363.884,324.126z"/>
		<path style="fill:#FFFFFF;" d="M2439.734,368.126c-2.135,3.667-5.034,6.55-8.7,8.65c-3.667,2.1-7.7,3.15-12.1,3.15h-2.9
			c-4.399,0-8.435-1.05-12.1-3.15c-3.667-2.1-6.55-4.983-8.65-8.65c-2.1-3.666-3.149-7.733-3.149-12.2v-22.5
			c0-4.466,1.05-8.533,3.149-12.2c2.101-3.666,4.983-6.565,8.65-8.7c3.665-2.133,7.7-3.2,12.1-3.2h2.9c4.399,0,8.433,1.067,12.1,3.2
			c3.666,2.134,6.565,5.034,8.7,8.7c2.133,3.667,3.2,7.734,3.2,12.2v22.5C2442.935,360.393,2441.867,364.46,2439.734,368.126z
			 M2425.084,324.126c-2.034-2.066-4.55-3.1-7.55-3.1s-5.517,1.034-7.55,3.1c-2.034,2.067-3.05,4.6-3.05,7.6v25.8
			c0,3,1.016,5.534,3.05,7.6c2.033,2.067,4.55,3.1,7.55,3.1s5.516-1.033,7.55-3.1c2.033-2.066,3.051-4.6,3.051-7.6v-25.8
			C2428.135,328.726,2427.117,326.193,2425.084,324.126z"/>
		<path style="fill:#FFFFFF;" d="M2517.333,365.426h-27.3l-4.8,13.5h-14.9l24.9-68.6h18.399l24.9,68.6h-16.2L2517.333,365.426z
			 M2494.233,353.726h19c-2.535-7.533-5.601-16.5-9.2-26.9h-0.5L2494.233,353.726z"/>
		<path style="fill:#FFFFFF;" d="M2587.382,313.926c4.633,2.4,8.315,5.9,11.05,10.5c2.732,4.6,4.1,10.034,4.1,16.3v7.8
			c0,6.267-1.367,11.7-4.1,16.3c-2.734,4.6-6.417,8.1-11.05,10.5c-4.635,2.4-9.784,3.6-15.45,3.6h-26v-68.6h26
			C2577.598,310.326,2582.747,311.526,2587.382,313.926z M2561.432,366.626h10.5c4.266,0,7.732-1.383,10.4-4.15
			c2.665-2.766,4-6.683,4-11.75v-12.2c0-5.066-1.335-8.983-4-11.75c-2.668-2.766-6.135-4.15-10.4-4.15h-10.5V366.626z"/>
		<path style="fill:#FFFFFF;" d="M2654.531,365.426h-27.301l-4.8,13.5h-14.899l24.899-68.6h18.4l24.899,68.6h-16.199
			L2654.531,365.426z M2631.431,353.726h19c-2.534-7.533-5.6-16.5-9.2-26.9h-0.5L2631.431,353.726z"/>
	</g>
	<g>
		<path style="fill:#FFFFFF;" d="M3598.309,288.646v-68.601h33.4c3.465,0,6.565,0.668,9.3,2c2.732,1.335,4.85,3.2,6.35,5.601
			c1.5,2.399,2.25,5.234,2.25,8.5c0,3.399-0.584,6.217-1.75,8.45c-1.167,2.234-2.634,4-4.399,5.3c-1.768,1.3-3.617,2.25-5.551,2.85
			v0.601c1.333,0.199,2.783,0.649,4.351,1.35c1.565,0.7,3.032,1.65,4.399,2.85c1.366,1.2,2.466,2.7,3.301,4.5
			c0.832,1.801,1.25,4.035,1.25,6.7c0,3.867-0.867,7.3-2.601,10.3c-1.734,3-4.1,5.351-7.1,7.051c-3,1.699-6.435,2.55-10.3,2.55
			H3598.309z M3612.108,248.346h15c1.8,0,3.351-0.434,4.65-1.301c1.3-0.865,2.282-2.016,2.95-3.449c0.665-1.434,1-2.983,1-4.65
			c0-2.732-0.685-4.783-2.051-6.15c-1.367-1.365-3.316-2.05-5.85-2.05h-15.7V248.346z M3612.108,277.745h15.8
			c1.801,0,3.383-0.433,4.75-1.3c1.366-0.865,2.434-2.033,3.2-3.5c0.766-1.466,1.15-3.133,1.15-5c0-1.865-0.4-3.45-1.2-4.75
			s-1.885-2.315-3.25-3.05c-1.367-0.733-2.885-1.101-4.55-1.101h-15.9V277.745z"/>
		<path style="fill:#FFFFFF;" d="M3684.907,289.646c-4.667,0-8.85-1.05-12.55-3.15c-3.7-2.1-6.6-5.083-8.7-8.95
			c-2.1-3.865-3.149-8.399-3.149-13.6v-1.8c0-5.266,1.05-9.8,3.149-13.601c2.101-3.8,4.983-6.75,8.65-8.85
			c3.665-2.1,7.833-3.15,12.5-3.15h2c4.732,0,8.933,1.051,12.6,3.15c3.666,2.1,6.55,5.05,8.65,8.85
			c2.1,3.801,3.149,8.335,3.149,13.601v1.8c0,5.268-1.05,9.817-3.149,13.65c-2.101,3.834-4.984,6.8-8.65,8.899
			c-3.667,2.101-7.834,3.15-12.5,3.15H3684.907z M3685.808,280.646c2.065,0,3.915-0.483,5.55-1.45c1.633-0.966,2.933-2.416,3.9-4.35
			c0.965-1.934,1.449-4.233,1.449-6.9v-9.8c0-2.733-0.484-5.033-1.449-6.9c-0.968-1.865-2.268-3.3-3.9-4.3
			c-1.635-1-3.484-1.5-5.55-1.5c-2,0-3.835,0.5-5.5,1.5c-1.667,1-2.984,2.435-3.95,4.3c-0.967,1.867-1.45,4.167-1.45,6.9v9.8
			c0,2.667,0.483,4.967,1.45,6.9c0.966,1.934,2.283,3.384,3.95,4.35C3681.973,280.162,3683.808,280.646,3685.808,280.646z"/>
		<path style="fill:#FFFFFF;" d="M3749.307,289.646c-7.467,0-13.167-3-17.1-9l-4.7,8h-5v-72h13.7v26.899
			c1.399-1.933,3.333-3.582,5.8-4.949c2.466-1.366,5.4-2.051,8.8-2.051c3.666,0,7,0.851,10,2.551c3,1.699,5.4,4.35,7.2,7.949
			c1.8,3.601,2.7,8.234,2.7,13.9v2.2c0,6.067-0.968,11.067-2.9,15c-1.935,3.935-4.534,6.834-7.8,8.7
			C3756.739,288.711,3753.173,289.646,3749.307,289.646z M3746.407,280.646c1.933,0,3.633-0.466,5.1-1.4
			c1.466-0.933,2.633-2.383,3.5-4.35c0.865-1.966,1.3-4.483,1.3-7.55v-9c0-2.801-0.417-5.116-1.25-6.95
			c-0.834-1.833-1.967-3.233-3.399-4.2c-1.435-0.966-3.117-1.45-5.051-1.45c-1.867,0-3.6,0.484-5.199,1.45
			c-1.601,0.967-2.867,2.385-3.801,4.25c-0.934,1.867-1.399,4.2-1.399,7v8.9c0,3.066,0.45,5.584,1.35,7.55
			c0.9,1.967,2.133,3.417,3.7,4.35C3742.822,280.18,3744.54,280.646,3746.407,280.646z"/>
		<path style="fill:#FFFFFF;" d="M3598.958,398.646v-68.601h12.2l24.5,36.4l3.601,6.3l0.399-0.1v-42.601h13.2v68.601h-12.5
			l-25.2-37.7l-2.5-4.6l-0.5,0.1v42.2H3598.958z"/>
		<path style="fill:#FFFFFF;" d="M3668.457,398.646v-68.601h45.9l-1.6,11.2h-29.9v17.9h26.7v11h-26.7v28.5H3668.457z"/>
		<path style="fill:#FFFFFF;" d="M3738.257,398.646v-57.3h-19.7v-11.301h53.9v11.301h-19.7v57.3H3738.257z"/>
	</g>
	<g>
		<path style="fill:#FFFFFF;" d="M3563.609,1102.26l25.2-68.6h17.4l25.1,68.6h-15.2l-5.3-14.2h-27.8l-5.3,14.2H3563.609z
			 M3586.609,1077.56h20.5l-10-28.5h-0.399L3586.609,1077.56z"/>
		<path style="fill:#FFFFFF;" d="M3638.509,1102.26v-72h13.7v72H3638.509z"/>
		<path style="fill:#FFFFFF;" d="M3667.208,1040.86v-10.6h14.1v10.6H3667.208z M3667.407,1102.26v-51.1h13.7v51.1H3667.407z"/>
		<path style="fill:#FFFFFF;" d="M3716.007,1103.26c-4.335,0-8.25-1.065-11.75-3.2c-3.5-2.133-6.25-5.083-8.25-8.85
			c-2-3.766-3-8.083-3-12.95v-3.1c0-3.666,0.615-7.016,1.85-10.05c1.232-3.033,2.916-5.683,5.05-7.95c2.133-2.266,4.633-4,7.5-5.2
			c2.866-1.2,5.933-1.8,9.2-1.8h1.9c4.465,0,8.35,0.884,11.649,2.65c3.3,1.768,5.833,4.234,7.601,7.4
			c1.766,3.167,2.649,6.884,2.649,11.15h-11.899c0-2.733-0.418-5-1.25-6.8c-0.835-1.8-2.018-3.166-3.551-4.1
			c-1.534-0.933-3.367-1.4-5.5-1.4c-3.066,0-5.634,1.05-7.699,3.15c-2.067,2.1-3.101,5.184-3.101,9.25v10.3
			c0,4,0.983,7.084,2.95,9.25c1.966,2.167,4.615,3.25,7.95,3.25c2.333,0,4.3-0.4,5.899-1.2c1.601-0.8,2.816-2.1,3.65-3.9
			c0.833-1.8,1.25-4.2,1.25-7.2h11.3c0,4.534-0.967,8.384-2.899,11.55c-1.935,3.167-4.601,5.584-8,7.25
			c-3.4,1.666-7.268,2.5-11.601,2.5H3716.007z"/>
		<path style="fill:#FFFFFF;" d="M3773.406,1103.26c-4.8,0-9.05-0.984-12.75-2.95c-3.7-1.965-6.584-4.833-8.649-8.6
			c-2.067-3.766-3.101-8.35-3.101-13.75v-2.5c0-5.4,1.083-9.983,3.25-13.75c2.166-3.766,5.133-6.633,8.9-8.6
			c3.766-1.966,8.05-2.95,12.85-2.95h1.601c4.532,0,8.482,0.917,11.85,2.75c3.365,1.834,5.966,4.4,7.8,7.7
			c1.833,3.3,2.75,7.15,2.75,11.55v6.3h-34.6c0,3.2,0.399,6,1.2,8.4c0.8,2.4,2,4.234,3.6,5.5c1.6,1.267,3.7,1.9,6.3,1.9
			c2.133,0,4-0.416,5.601-1.25c1.6-0.833,2.865-2.083,3.8-3.75c0.933-1.666,1.399-3.7,1.399-6.1h12.7c0,3.935-1,7.417-3,10.45
			c-2,3.034-4.75,5.4-8.25,7.1c-3.5,1.7-7.55,2.55-12.149,2.55H3773.406z M3763.406,1071.46h21.101c0-4.2-0.918-7.316-2.75-9.35
			c-1.835-2.033-4.351-3.05-7.551-3.05c-3,0-5.517,1.05-7.55,3.15C3764.622,1064.31,3763.539,1067.394,3763.406,1071.46z"/>
		<path style="fill:#FFFFFF;" d="M3485.659,1212.26v-11h17v-42.4h-17v-8.1c2.466-0.2,5.184-0.666,8.15-1.4
			c2.966-0.733,5.982-1.7,9.05-2.9c3.065-1.2,5.933-2.466,8.601-3.8h4.899v58.6h16.7v11H3485.659z"/>
		<path style="fill:#FFFFFF;" d="M3568.158,1213.26c-4.399,0-8.399-1.033-12-3.1c-3.6-2.065-6.449-4.9-8.55-8.5
			c-2.1-3.6-3.149-7.666-3.149-12.2v-23c0-4.6,1.05-8.683,3.149-12.25c2.101-3.566,4.95-6.383,8.55-8.45
			c3.601-2.065,7.601-3.1,12-3.1h2.9c4.466,0,8.482,1.035,12.05,3.1c3.565,2.067,6.383,4.884,8.45,8.45
			c2.065,3.567,3.1,7.65,3.1,12.25v23c0,4.534-1.034,8.6-3.1,12.2c-2.067,3.6-4.885,6.435-8.45,8.5
			c-3.567,2.067-7.584,3.1-12.05,3.1H3568.158z M3569.559,1202.76c2.2,0,4.15-0.516,5.85-1.55c1.7-1.033,3.033-2.416,4-4.15
			c0.966-1.732,1.45-3.7,1.45-5.9v-26.5c0-2.2-0.484-4.166-1.45-5.9c-0.967-1.733-2.3-3.116-4-4.15
			c-1.699-1.033-3.649-1.55-5.85-1.55c-2.135,0-4.05,0.518-5.75,1.55c-1.7,1.034-3.05,2.417-4.05,4.15c-1,1.734-1.5,3.7-1.5,5.9
			v26.5c0,2.2,0.5,4.167,1.5,5.9c1,1.734,2.35,3.117,4.05,4.15C3565.509,1202.245,3567.424,1202.76,3569.559,1202.76z"/>
		<path style="fill:#FFFFFF;" d="M3629.657,1213.26c-4.399,0-8.399-1.033-12-3.1c-3.6-2.065-6.449-4.9-8.55-8.5
			c-2.1-3.6-3.149-7.666-3.149-12.2v-23c0-4.6,1.05-8.683,3.149-12.25c2.101-3.566,4.95-6.383,8.55-8.45
			c3.601-2.065,7.601-3.1,12-3.1h2.9c4.466,0,8.482,1.035,12.05,3.1c3.565,2.067,6.383,4.884,8.45,8.45
			c2.065,3.567,3.1,7.65,3.1,12.25v23c0,4.534-1.034,8.6-3.1,12.2c-2.067,3.6-4.885,6.435-8.45,8.5
			c-3.567,2.067-7.584,3.1-12.05,3.1H3629.657z M3631.058,1202.76c2.2,0,4.15-0.516,5.85-1.55c1.7-1.033,3.033-2.416,4-4.15
			c0.966-1.732,1.45-3.7,1.45-5.9v-26.5c0-2.2-0.484-4.166-1.45-5.9c-0.967-1.733-2.3-3.116-4-4.15
			c-1.699-1.033-3.649-1.55-5.85-1.55c-2.135,0-4.05,0.518-5.75,1.55c-1.7,1.034-3.05,2.417-4.05,4.15c-1,1.734-1.5,3.7-1.5,5.9
			v26.5c0,2.2,0.5,4.167,1.5,5.9c1,1.734,2.35,3.117,4.05,4.15C3627.008,1202.245,3628.923,1202.76,3631.058,1202.76z"/>
		<path style="fill:#FFFFFF;" d="M3683.655,1212.26l25.2-68.6h17.4l25.1,68.6h-15.2l-5.3-14.2h-27.8l-5.3,14.2H3683.655z
			 M3706.655,1187.56h20.5l-10-28.5h-0.399L3706.655,1187.56z"/>
		<path style="fill:#FFFFFF;" d="M3759.256,1212.26v-68.6h27.2c3.933,0,7.633,0.617,11.101,1.85c3.465,1.234,6.516,3.1,9.149,5.6
			c2.633,2.5,4.683,5.634,6.15,9.4c1.466,3.767,2.2,8.217,2.2,13.35v6.4c0,5.067-0.734,9.584-2.2,13.55
			c-1.468,3.967-3.518,7.317-6.15,10.05c-2.634,2.734-5.685,4.817-9.149,6.25c-3.468,1.434-7.168,2.15-11.101,2.15H3759.256z
			 M3773.856,1201.06h11.399c2.733,0,5.184-0.615,7.351-1.85c2.165-1.233,3.883-3.15,5.149-5.75c1.266-2.6,1.9-5.966,1.9-10.1v-11.9
			c0-4.066-0.635-7.316-1.9-9.75c-1.267-2.433-2.984-4.2-5.149-5.3c-2.167-1.1-4.617-1.65-7.351-1.65h-11.399V1201.06z"/>
		<path style="fill:#FFFFFF;" d="M3820.356,1212.26l25.2-68.6h17.399l25.101,68.6h-15.2l-5.3-14.2h-27.801l-5.3,14.2H3820.356z
			 M3843.356,1187.56h20.5l-10-28.5h-0.4L3843.356,1187.56z"/>
	</g>
	<g>
		<path style="fill:#FFFFFF;" d="M941.664,941.174v73.06h-19.89v-73.06h-25.35v-16.12h70.46v16.12H941.664z"/>
		<path style="fill:#FFFFFF;" d="M998.083,967.434l-27.3-42.38h23.53l16.9,27.3h0.52c8.84-13.345,14.603-22.445,17.29-27.3h21.71
			c-1.735,2.688-5.18,8.04-10.335,16.055c-5.157,8.018-10.855,16.705-17.095,26.065c5.98,9.275,11.96,18.57,17.94,27.885
			c5.98,9.317,10.053,15.709,12.22,19.175h-23.53l-19.76-31.85h-0.52c-11.18,17.248-17.854,27.865-20.02,31.85h-21.71
			L998.083,967.434z"/>
		<path style="fill:#FFFFFF;" d="M1092.459,998.504h21.58v-51.09h-21.71v-11.57c4.853-0.345,10.355-1.58,16.51-3.705
			c6.153-2.123,11.96-4.7,17.42-7.735h6.89v74.1h21.19v15.73h-61.88V998.504z"/>
		<path style="fill:#FFFFFF;" d="M853.821,1125.234c-4.867,0-9.317-0.717-13.35-2.15c-4.034-1.433-7.267-3.683-9.7-6.75
			c-2.435-3.066-3.65-7.1-3.65-12.1c0-0.4,0-0.783,0-1.15c0-0.366,0.033-0.716,0.1-1.05h13.5c-0.067,0.334-0.1,0.635-0.1,0.9
			c0,0.267,0,0.567,0,0.9c0,2.134,0.516,3.967,1.55,5.5c1.033,1.534,2.565,2.7,4.6,3.5c2.033,0.8,4.45,1.2,7.25,1.2
			c3.133,0,5.7-0.315,7.7-0.95c2-0.633,3.5-1.616,4.5-2.95c1-1.333,1.5-2.965,1.5-4.9c0-2.065-0.717-3.716-2.15-4.95
			c-1.434-1.232-3.3-2.215-5.6-2.95c-2.3-0.733-4.834-1.416-7.6-2.05c-2.768-0.633-5.535-1.383-8.3-2.25
			c-2.767-0.865-5.317-2.033-7.65-3.5c-2.334-1.465-4.2-3.4-5.6-5.8s-2.1-5.466-2.1-9.2c0-4.465,1.216-8.166,3.65-11.1
			c2.433-2.933,5.666-5.133,9.7-6.6c4.033-1.466,8.416-2.2,13.15-2.2c4.733,0,9.033,0.685,12.9,2.05c3.865,1.367,6.965,3.5,9.3,6.4
			c2.333,2.9,3.5,6.65,3.5,11.25v1.3h-13.3v-1.2c0-1.8-0.484-3.366-1.45-4.7c-0.967-1.333-2.35-2.35-4.15-3.05
			c-1.8-0.7-4-1.05-6.6-1.05c-2.4,0-4.517,0.25-6.35,0.75c-1.834,0.5-3.25,1.3-4.25,2.4c-1,1.1-1.5,2.518-1.5,4.25
			c0,2,0.7,3.6,2.1,4.8c1.4,1.2,3.266,2.15,5.6,2.85c2.333,0.7,4.916,1.367,7.75,2c2.833,0.634,5.633,1.367,8.4,2.2
			c2.766,0.834,5.315,1.967,7.65,3.4c2.333,1.435,4.2,3.334,5.6,5.7c1.4,2.367,2.1,5.384,2.1,9.05c0,5.334-1.267,9.617-3.8,12.85
			c-2.534,3.234-5.95,5.6-10.25,7.1C864.171,1124.484,859.287,1125.234,853.821,1125.234z"/>
		<path style="fill:#FFFFFF;" d="M894.12,1062.834v-10.6h14.1v10.6H894.12z M894.32,1124.234v-51.1h13.7v51.1H894.32z"/>
		<path style="fill:#FFFFFF;" d="M930.619,1143.034c-2.334,0-4.45-0.55-6.35-1.65c-1.9-1.1-3.435-2.584-4.6-4.45
			c-1.167-1.867-1.75-3.9-1.75-6.1c0-2.467,0.666-4.75,2-6.85c1.333-2.1,3.166-3.683,5.5-4.75c-1.467-0.933-2.617-2.15-3.45-3.65
			c-0.834-1.5-1.25-3.083-1.25-4.75c0-2.466,0.8-4.583,2.4-6.35c1.6-1.766,3.633-3.05,6.1-3.85c-2.067-1.266-3.767-2.833-5.1-4.7
			c-1.334-1.866-2-4.166-2-6.9c0-2.865,0.783-5.6,2.35-8.2c1.566-2.6,3.933-4.7,7.1-6.3c3.166-1.6,7.183-2.4,12.05-2.4
			c2,0,3.866,0.1,5.6,0.3c1.733,0.2,3.266,0.534,4.6,1c2.6-1.4,4.516-2.933,5.75-4.6c1.233-1.666,1.916-3.3,2.05-4.9h10.7
			c0,2.267-0.435,4.3-1.3,6.1c-0.867,1.8-2.084,3.285-3.65,4.45c-1.567,1.167-3.45,2.017-5.65,2.55l-0.1,0.3
			c1.6,1.334,2.883,2.9,3.85,4.7c0.966,1.8,1.45,3.768,1.45,5.9c0,2.934-0.817,5.634-2.45,8.1c-1.634,2.467-3.934,4.45-6.9,5.95
			c-2.967,1.5-6.45,2.25-10.45,2.25h-7.5c-2.067,0-3.667,0.417-4.8,1.25c-1.134,0.834-1.7,1.95-1.7,3.35
			c0,1.267,0.516,2.334,1.55,3.2c1.033,0.867,2.683,1.3,4.95,1.3h17.7c4.666,0,8.333,1.367,11,4.1c2.666,2.734,4,6.1,4,10.1
			c0,2.8-0.7,5.383-2.1,7.75c-1.4,2.366-3.35,4.25-5.85,5.65c-2.5,1.4-5.384,2.1-8.65,2.1H930.619z M935.819,1134.534h17.3
			c1.8,0,3.35-0.584,4.65-1.75c1.3-1.167,1.95-2.584,1.95-4.25c0-1.534-0.55-2.834-1.65-3.9c-1.1-1.065-2.484-1.6-4.15-1.6h-18.1
			c-1.734,0-3.2,0.567-4.4,1.7c-1.2,1.133-1.8,2.466-1.8,4c0,1.533,0.6,2.883,1.8,4.05
			C932.619,1133.95,934.084,1134.534,935.819,1134.534z M944.619,1096.734c2.933,0,5.25-0.833,6.95-2.5c1.7-1.666,2.55-3.666,2.55-6
			c0-2.333-0.85-4.35-2.55-6.05c-1.7-1.7-4.017-2.55-6.95-2.55c-2.934,0-5.267,0.85-7,2.55c-1.734,1.7-2.6,3.717-2.6,6.05
			c0,2.334,0.865,4.334,2.6,6C939.352,1095.901,941.685,1096.734,944.619,1096.734z"/>
		<path style="fill:#FFFFFF;" d="M995.217,1124.234l25.2-68.6h17.4l25.1,68.6h-15.2l-5.3-14.2h-27.8l-5.3,14.2H995.217z
			 M1018.217,1099.534h20.5l-10-28.5h-0.4L1018.217,1099.534z"/>
		<path style="fill:#FFFFFF;" d="M1070.117,1124.234v-72h13.7v72H1070.117z"/>
		<path style="fill:#FFFFFF;" d="M1098.815,1062.834v-10.6h14.1v10.6H1098.815z M1099.015,1124.234v-51.1h13.7v51.1H1099.015z"/>
		<path style="fill:#FFFFFF;" d="M1147.614,1125.234c-4.334,0-8.25-1.065-11.75-3.2c-3.5-2.133-6.25-5.083-8.25-8.85
			c-2-3.766-3-8.083-3-12.95v-3.1c0-3.666,0.616-7.016,1.85-10.05c1.232-3.033,2.916-5.683,5.05-7.95c2.133-2.266,4.633-4,7.5-5.2
			c2.866-1.2,5.933-1.8,9.2-1.8h1.9c4.465,0,8.35,0.884,11.65,2.65c3.3,1.768,5.833,4.234,7.6,7.4
			c1.766,3.167,2.65,6.884,2.65,11.15h-11.9c0-2.733-0.417-5-1.25-6.8c-0.834-1.8-2.017-3.166-3.55-4.1
			c-1.534-0.933-3.367-1.4-5.5-1.4c-3.067,0-5.634,1.05-7.7,3.15c-2.067,2.1-3.1,5.184-3.1,9.25v10.3c0,4,0.983,7.084,2.95,9.25
			c1.965,2.167,4.615,3.25,7.95,3.25c2.333,0,4.3-0.4,5.9-1.2c1.6-0.8,2.816-2.1,3.65-3.9c0.833-1.8,1.25-4.2,1.25-7.2h11.3
			c0,4.534-0.967,8.384-2.9,11.55c-1.935,3.167-4.6,5.584-8,7.25s-7.267,2.5-11.6,2.5H1147.614z"/>
		<path style="fill:#FFFFFF;" d="M1205.014,1125.234c-4.8,0-9.05-0.984-12.75-2.95c-3.7-1.965-6.584-4.833-8.65-8.6
			c-2.067-3.766-3.1-8.35-3.1-13.75v-2.5c0-5.4,1.083-9.983,3.25-13.75c2.166-3.766,5.133-6.633,8.9-8.6
			c3.766-1.966,8.05-2.95,12.85-2.95h1.6c4.533,0,8.483,0.917,11.85,2.75c3.365,1.834,5.965,4.4,7.8,7.7
			c1.833,3.3,2.75,7.15,2.75,11.55v6.3h-34.6c0,3.2,0.4,6,1.2,8.4c0.8,2.4,2,4.234,3.6,5.5c1.6,1.267,3.7,1.9,6.3,1.9
			c2.133,0,4-0.416,5.6-1.25c1.6-0.833,2.866-2.083,3.8-3.75c0.933-1.666,1.4-3.7,1.4-6.1h12.7c0,3.935-1,7.417-3,10.45
			c-2,3.034-4.75,5.4-8.25,7.1c-3.5,1.7-7.55,2.55-12.15,2.55H1205.014z M1195.014,1093.434h21.1c0-4.2-0.917-7.316-2.75-9.35
			c-1.834-2.033-4.35-3.05-7.55-3.05c-3,0-5.517,1.05-7.55,3.15C1196.229,1086.284,1195.146,1089.369,1195.014,1093.434z"/>
	</g>
	<g>
		<g>
			<path style="fill:#FFFFFF;" d="M1918.433,783.349c-2.352,0-4.601-0.387-6.751-1.161c-2.15-0.774-3.913-2.064-5.289-3.87
				c-1.376-1.806-2.064-4.257-2.064-7.353c0-3.152,0.701-5.704,2.107-7.654c1.404-1.948,3.382-3.453,5.934-4.515
				c2.55-1.061,5.618-1.792,9.202-2.193c3.582-0.4,7.611-0.602,12.083-0.602v-3.87c0-2.522-0.688-4.313-2.064-5.375
				c-1.376-1.061-3.383-1.591-6.02-1.591c-2.236,0-4.2,0.503-5.891,1.505c-1.692,1.003-2.537,2.537-2.537,4.601v0.688h-11.266
				c-0.058-0.172-0.086-0.416-0.086-0.731c0-0.314,0-0.587,0-0.817c0-2.522,0.802-4.743,2.408-6.665
				c1.604-1.92,3.84-3.41,6.708-4.472c2.866-1.061,6.192-1.591,9.976-1.591h1.806c6.192,0,10.807,1.219,13.846,3.655
				c3.039,2.438,4.559,5.719,4.559,9.847v21.414c0,1.09,0.271,1.864,0.816,2.322c0.545,0.459,1.132,0.688,1.764,0.688
				c0.516,0,1.088-0.1,1.72-0.301c0.63-0.2,1.232-0.443,1.806-0.731v6.88c-0.745,0.574-1.734,1.032-2.967,1.376
				c-1.233,0.344-2.709,0.516-4.429,0.516c-2.064,0-3.784-0.331-5.16-0.989c-1.376-0.659-2.423-1.562-3.139-2.709
				c-0.717-1.146-1.161-2.464-1.333-3.956c-1.605,2.294-3.728,4.143-6.364,5.547
				C1925.169,782.647,1922.044,783.349,1918.433,783.349z M1923.937,775.61c1.604,0,3.139-0.373,4.601-1.118
				c1.462-0.745,2.679-1.849,3.655-3.311c0.975-1.462,1.462-3.281,1.462-5.461v-3.526c-3.67,0-6.781,0.229-9.331,0.688
				c-2.552,0.459-4.487,1.219-5.805,2.279c-1.319,1.062-1.978,2.595-1.978,4.601c0,2.122,0.645,3.627,1.935,4.515
				C1919.766,775.166,1921.585,775.61,1923.937,775.61z"/>
			<path style="fill:#FFFFFF;" d="M1973.987,783.349c-2.466,0-4.673-0.344-6.622-1.032s-3.469-1.849-4.558-3.483
				c-1.09-1.634-1.634-3.798-1.634-6.493v-25.026h-4.816v-8.772h5.16l4.128-14.018h7.225v14.018h10.319v8.772h-10.319v22.446
				c0,2.523,0.516,4.128,1.548,4.816s2.149,1.032,3.354,1.032c0.631,0,1.505-0.129,2.623-0.387c1.118-0.258,2.021-0.529,2.709-0.817
				v7.224c-0.745,0.402-1.663,0.731-2.752,0.989c-1.09,0.258-2.192,0.443-3.311,0.559
				C1975.923,783.292,1974.904,783.349,1973.987,783.349z"/>
			<path style="fill:#FFFFFF;" d="M2011.569,783.349c-4.015,0-7.611-0.903-10.793-2.709c-3.183-1.806-5.677-4.371-7.482-7.697
				c-1.806-3.325-2.709-7.224-2.709-11.696V759.7c0-4.528,0.903-8.428,2.709-11.696s4.285-5.805,7.438-7.611
				c3.153-1.806,6.736-2.709,10.75-2.709h1.721c4.07,0,7.682,0.903,10.836,2.709c3.152,1.806,5.633,4.343,7.438,7.611
				c1.807,3.268,2.709,7.167,2.709,11.696v1.548c0,4.53-0.902,8.443-2.709,11.739c-1.806,3.297-4.286,5.848-7.438,7.654
				c-3.154,1.806-6.737,2.709-10.75,2.709H2011.569z M2012.343,775.61c1.776,0,3.367-0.416,4.773-1.247
				c1.404-0.831,2.521-2.078,3.354-3.741c0.831-1.662,1.247-3.64,1.247-5.934v-8.428c0-2.35-0.416-4.328-1.247-5.934
				c-0.832-1.604-1.949-2.838-3.354-3.698c-1.406-0.86-2.997-1.29-4.773-1.29c-1.72,0-3.298,0.43-4.729,1.29
				c-1.435,0.86-2.567,2.093-3.397,3.698c-0.832,1.606-1.247,3.584-1.247,5.934v8.428c0,2.293,0.415,4.271,1.247,5.934
				c0.83,1.664,1.963,2.911,3.397,3.741C2009.045,775.194,2010.623,775.61,2012.343,775.61z"/>
			<path style="fill:#FFFFFF;" d="M2043.903,782.49v-43.946h8.772l1.548,6.45c1.49-2.292,3.253-4.085,5.289-5.375
				c2.034-1.29,4.515-1.935,7.439-1.935c2.866,0,5.388,0.546,7.567,1.634c2.179,1.09,3.898,2.896,5.16,5.418
				c1.376-2.292,3.152-4.042,5.332-5.246c2.178-1.204,4.758-1.806,7.74-1.806c2.809,0,5.289,0.574,7.438,1.72
				c2.15,1.147,3.827,2.782,5.031,4.902c1.204,2.122,1.806,4.702,1.806,7.74v30.444h-11.609v-27.778
				c0-2.866-0.603-4.958-1.807-6.278c-1.204-1.318-2.867-1.978-4.987-1.978c-1.376,0-2.623,0.359-3.741,1.075
				c-1.118,0.718-1.993,1.72-2.623,3.01c-0.632,1.29-0.946,2.767-0.946,4.429v27.52h-11.609v-27.778
				c0-2.866-0.603-4.958-1.807-6.278c-1.204-1.318-2.896-1.978-5.074-1.978c-1.376,0-2.609,0.359-3.697,1.075
				c-1.09,0.718-1.95,1.72-2.58,3.01c-0.632,1.29-0.946,2.767-0.946,4.429v27.52H2043.903z"/>
			<path style="fill:#FFFFFF;" d="M2119.067,729.685v-9.116h12.126v9.116H2119.067z M2119.239,782.49v-43.946h11.781v43.946
				H2119.239z"/>
			<path style="fill:#FFFFFF;" d="M2161.034,783.349c-3.728,0-7.096-0.917-10.105-2.752c-3.01-1.834-5.375-4.371-7.095-7.611
				c-1.72-3.238-2.58-6.951-2.58-11.137v-2.666c0-3.152,0.529-6.033,1.591-8.643c1.061-2.608,2.508-4.887,4.343-6.837
				c1.835-1.948,3.984-3.44,6.45-4.472c2.465-1.032,5.103-1.548,7.912-1.548h1.634c3.841,0,7.182,0.761,10.02,2.279
				c2.838,1.52,5.016,3.642,6.536,6.364c1.518,2.724,2.278,5.92,2.278,9.589h-10.233c0-2.35-0.359-4.3-1.075-5.848
				c-0.718-1.548-1.735-2.723-3.053-3.526c-1.32-0.802-2.896-1.204-4.73-1.204c-2.638,0-4.846,0.903-6.622,2.709
				c-1.777,1.806-2.666,4.458-2.666,7.955v8.858c0,3.44,0.846,6.092,2.537,7.955c1.69,1.864,3.97,2.795,6.837,2.795
				c2.007,0,3.698-0.344,5.074-1.032s2.421-1.806,3.139-3.354c0.717-1.548,1.075-3.612,1.075-6.192h9.718
				c0,3.899-0.831,7.21-2.494,9.933c-1.663,2.724-3.956,4.802-6.88,6.235s-6.249,2.15-9.976,2.15H2161.034z"/>
			<path style="fill:#FFFFFF;" d="M1773.138,879.349c-2.752,0-5.246-0.344-7.482-1.032s-4.171-1.619-5.805-2.795
				c-1.634-1.175-2.881-2.551-3.741-4.128c-0.86-1.576-1.29-3.281-1.29-5.117c0-0.344,0-0.63,0-0.86
				c0-0.229,0.028-0.544,0.086-0.946h9.976c-0.058,0.172-0.086,0.331-0.086,0.473c0,0.144,0,0.272,0,0.387
				c0,1.434,0.486,2.623,1.462,3.569c0.974,0.946,2.236,1.634,3.784,2.064c1.548,0.43,3.21,0.645,4.988,0.645
				c1.433,0,2.881-0.172,4.343-0.516c1.462-0.344,2.68-0.903,3.655-1.677c0.974-0.774,1.462-1.763,1.462-2.967
				c0-1.318-0.502-2.335-1.505-3.053c-1.004-0.716-2.352-1.29-4.042-1.72c-1.692-0.43-3.541-0.802-5.547-1.118
				c-2.008-0.314-4.029-0.716-6.063-1.204c-2.036-0.487-3.899-1.189-5.59-2.107c-1.692-0.916-3.04-2.163-4.042-3.741
				c-1.004-1.576-1.505-3.655-1.505-6.235c0-2.178,0.501-4.128,1.505-5.848c1.002-1.72,2.378-3.152,4.128-4.3
				c1.749-1.146,3.754-2.006,6.02-2.58c2.264-0.573,4.629-0.86,7.095-0.86h1.72c2.292,0,4.486,0.288,6.579,0.86
				c2.092,0.574,3.97,1.391,5.633,2.451c1.662,1.062,2.967,2.322,3.913,3.784c0.946,1.462,1.419,3.053,1.419,4.773
				c0,0.288-0.015,0.617-0.043,0.989c-0.029,0.374-0.072,0.617-0.129,0.731h-9.976v-0.688c0-0.63-0.158-1.247-0.473-1.849
				c-0.316-0.602-0.832-1.161-1.548-1.677c-0.717-0.516-1.634-0.931-2.752-1.247c-1.118-0.314-2.451-0.473-3.999-0.473
				c-1.376,0-2.609,0.129-3.698,0.387c-1.09,0.258-2.008,0.602-2.752,1.032c-0.746,0.43-1.29,0.933-1.634,1.505
				c-0.344,0.574-0.516,1.147-0.516,1.72c0,1.204,0.516,2.136,1.548,2.795c1.032,0.66,2.393,1.176,4.085,1.548
				c1.69,0.374,3.554,0.718,5.59,1.032c2.035,0.315,4.056,0.703,6.063,1.161c2.006,0.46,3.87,1.161,5.59,2.107
				c1.72,0.946,3.081,2.223,4.085,3.827c1.002,1.606,1.505,3.698,1.505,6.278c0,2.695-0.516,4.988-1.548,6.88
				c-1.032,1.892-2.466,3.397-4.3,4.515c-1.835,1.118-3.899,1.935-6.192,2.451c-2.294,0.516-4.702,0.774-7.224,0.774H1773.138z"/>
			<path style="fill:#FFFFFF;" d="M1813.644,878.49l-13.588-43.946h12.212l8.084,27.95h0.43l8.256-27.95h12.126l8.256,27.95h0.516
				l8.084-27.95h11.352l-13.674,43.946h-12.728l-7.998-26.66h-0.516l-7.912,26.66H1813.644z"/>
			<path style="fill:#FFFFFF;" d="M1888.119,879.349c-2.352,0-4.601-0.387-6.751-1.161c-2.15-0.774-3.913-2.064-5.289-3.87
				c-1.376-1.806-2.064-4.257-2.064-7.353c0-3.152,0.701-5.704,2.107-7.654c1.404-1.948,3.382-3.453,5.934-4.515
				c2.55-1.061,5.618-1.792,9.202-2.193c3.582-0.4,7.611-0.602,12.083-0.602v-3.87c0-2.522-0.688-4.313-2.064-5.375
				c-1.376-1.061-3.383-1.591-6.02-1.591c-2.236,0-4.2,0.503-5.891,1.505c-1.692,1.003-2.537,2.537-2.537,4.601v0.688h-11.266
				c-0.058-0.172-0.086-0.416-0.086-0.731c0-0.314,0-0.587,0-0.817c0-2.522,0.802-4.743,2.408-6.665
				c1.604-1.92,3.84-3.41,6.708-4.472c2.866-1.061,6.192-1.591,9.976-1.591h1.806c6.192,0,10.807,1.219,13.846,3.655
				c3.038,2.438,4.558,5.719,4.558,9.847v21.414c0,1.09,0.271,1.864,0.817,2.322c0.544,0.459,1.131,0.688,1.763,0.688
				c0.516,0,1.088-0.1,1.72-0.301c0.63-0.2,1.232-0.443,1.806-0.731v6.88c-0.746,0.574-1.735,1.032-2.967,1.376
				c-1.233,0.344-2.709,0.516-4.429,0.516c-2.064,0-3.784-0.331-5.16-0.989c-1.376-0.659-2.423-1.562-3.139-2.709
				c-0.717-1.146-1.161-2.464-1.333-3.956c-1.605,2.294-3.728,4.143-6.364,5.547
				C1894.855,878.647,1891.731,879.349,1888.119,879.349z M1893.623,871.61c1.604,0,3.139-0.373,4.601-1.118
				c1.462-0.745,2.679-1.849,3.655-3.311c0.975-1.462,1.462-3.281,1.462-5.461v-3.526c-3.67,0-6.781,0.229-9.331,0.688
				c-2.552,0.459-4.487,1.219-5.805,2.279c-1.319,1.062-1.978,2.595-1.978,4.601c0,2.122,0.645,3.627,1.935,4.515
				C1889.452,871.166,1891.271,871.61,1893.623,871.61z"/>
			<path style="fill:#FFFFFF;" d="M1928.796,894.055v-59.512h9.202l1.289,5.676c1.318-1.892,3.082-3.454,5.289-4.687
				c2.207-1.232,4.801-1.849,7.783-1.849c3.383,0,6.436,0.731,9.16,2.193c2.721,1.462,4.871,3.798,6.449,7.009
				c1.576,3.211,2.365,7.426,2.365,12.642v1.806c0,4.816-0.773,8.873-2.322,12.169c-1.549,3.297-3.641,5.762-6.277,7.396
				c-2.639,1.634-5.535,2.451-8.688,2.451c-3.039,0-5.59-0.574-7.652-1.72c-2.064-1.146-3.643-2.608-4.73-4.386v20.812H1928.796z
				 M1949.35,871.524c1.662,0,3.139-0.43,4.43-1.29c1.289-0.86,2.307-2.092,3.053-3.698c0.744-1.604,1.117-3.583,1.117-5.934v-7.654
				c0-2.636-0.373-4.801-1.117-6.493c-0.746-1.69-1.764-2.952-3.053-3.784c-1.291-0.831-2.768-1.247-4.43-1.247
				c-1.549,0-2.996,0.402-4.344,1.204c-1.348,0.803-2.422,2.036-3.225,3.698c-0.803,1.664-1.203,3.842-1.203,6.536v7.74
				c0,2.352,0.387,4.343,1.16,5.977c0.773,1.634,1.834,2.868,3.182,3.698C1946.268,871.108,1947.744,871.524,1949.35,871.524z"/>
			<path style="fill:#FFFFFF;" d="M2016.429,879.349c-3.728,0-7.096-0.917-10.105-2.752c-3.01-1.834-5.375-4.371-7.095-7.611
				c-1.72-3.238-2.58-6.951-2.58-11.137v-2.666c0-3.152,0.529-6.033,1.591-8.643c1.061-2.608,2.508-4.887,4.343-6.837
				c1.835-1.948,3.984-3.44,6.45-4.472c2.465-1.032,5.103-1.548,7.912-1.548h1.634c3.841,0,7.182,0.761,10.02,2.279
				c2.838,1.52,5.016,3.642,6.536,6.364c1.518,2.724,2.278,5.92,2.278,9.589h-10.233c0-2.35-0.359-4.3-1.075-5.848
				c-0.718-1.548-1.735-2.723-3.053-3.526c-1.32-0.802-2.896-1.204-4.73-1.204c-2.638,0-4.846,0.903-6.622,2.709
				c-1.777,1.806-2.666,4.458-2.666,7.955v8.858c0,3.44,0.846,6.092,2.537,7.955c1.69,1.864,3.97,2.795,6.837,2.795
				c2.007,0,3.698-0.344,5.074-1.032s2.421-1.806,3.139-3.354c0.717-1.548,1.075-3.612,1.075-6.192h9.718
				c0,3.899-0.831,7.21-2.494,9.933c-1.663,2.724-3.956,4.802-6.88,6.235s-6.249,2.15-9.976,2.15H2016.429z"/>
			<path style="fill:#FFFFFF;" d="M2065.793,879.349c-4.015,0-7.611-0.903-10.793-2.709c-3.183-1.806-5.677-4.371-7.482-7.697
				c-1.806-3.325-2.709-7.224-2.709-11.696V855.7c0-4.528,0.903-8.428,2.709-11.696s4.285-5.805,7.438-7.611
				c3.153-1.806,6.736-2.709,10.75-2.709h1.721c4.07,0,7.682,0.903,10.836,2.709c3.152,1.806,5.633,4.343,7.438,7.611
				c1.807,3.268,2.709,7.167,2.709,11.696v1.548c0,4.53-0.902,8.443-2.709,11.739c-1.806,3.297-4.286,5.848-7.438,7.654
				c-3.154,1.806-6.737,2.709-10.75,2.709H2065.793z M2066.566,871.61c1.776,0,3.367-0.416,4.773-1.247
				c1.404-0.831,2.521-2.078,3.354-3.741c0.831-1.662,1.247-3.64,1.247-5.934v-8.428c0-2.35-0.416-4.328-1.247-5.934
				c-0.832-1.604-1.949-2.838-3.354-3.698c-1.406-0.86-2.997-1.29-4.773-1.29c-1.72,0-3.298,0.43-4.729,1.29
				c-1.435,0.86-2.567,2.093-3.397,3.698c-0.832,1.606-1.247,3.584-1.247,5.934v8.428c0,2.293,0.415,4.271,1.247,5.934
				c0.83,1.664,1.963,2.911,3.397,3.741C2063.269,871.194,2064.847,871.61,2066.566,871.61z"/>
			<path style="fill:#FFFFFF;" d="M2098.127,878.49v-43.946h8.687l1.376,6.45c1.72-2.464,3.797-4.3,6.234-5.504
				c2.437-1.204,5.203-1.806,8.3-1.806c2.98,0,5.604,0.574,7.869,1.72c2.264,1.147,4.012,2.782,5.245,4.902
				c1.232,2.122,1.85,4.702,1.85,7.74v30.444h-11.696v-27.95c0-2.808-0.688-4.872-2.063-6.192c-1.376-1.318-3.24-1.978-5.591-1.978
				c-1.491,0-2.896,0.387-4.214,1.161c-1.319,0.774-2.352,1.821-3.096,3.139c-0.746,1.319-1.118,2.81-1.118,4.472v27.348H2098.127z"
				/>
			<path style="fill:#FFFFFF;" d="M2164.174,879.349c-2.466,0-4.673-0.344-6.622-1.032s-3.469-1.849-4.558-3.483
				c-1.09-1.634-1.634-3.798-1.634-6.493v-25.026h-4.816v-8.772h5.16l4.128-14.018h7.225v14.018h10.319v8.772h-10.319v22.446
				c0,2.523,0.516,4.128,1.548,4.816s2.149,1.032,3.354,1.032c0.631,0,1.505-0.129,2.623-0.387c1.118-0.258,2.021-0.529,2.709-0.817
				v7.224c-0.745,0.402-1.663,0.731-2.752,0.989c-1.09,0.258-2.192,0.443-3.311,0.559
				C2166.109,879.292,2165.091,879.349,2164.174,879.349z"/>
			<path style="fill:#FFFFFF;" d="M2182.663,878.49v-43.946h8.772l1.462,6.45c0.114-0.229,0.415-0.716,0.903-1.462
				c0.486-0.745,1.217-1.576,2.192-2.494c0.975-0.917,2.193-1.705,3.655-2.365c1.462-0.659,3.225-0.989,5.289-0.989
				c2.98,0,5.403,0.574,7.267,1.72c1.862,1.147,3.254,2.752,4.171,4.816s1.376,4.472,1.376,7.224c0,0.631-0.029,1.319-0.086,2.064
				c-0.058,0.746-0.115,1.405-0.172,1.978h-9.804v-1.806c0-1.088-0.215-2.193-0.646-3.311c-0.43-1.118-1.117-2.049-2.063-2.795
				c-0.946-0.745-2.251-1.118-3.913-1.118c-1.204,0-2.236,0.258-3.096,0.774c-0.86,0.516-1.563,1.161-2.107,1.935
				c-0.545,0.774-0.946,1.634-1.204,2.58c-0.258,0.946-0.387,1.821-0.387,2.623v28.122H2182.663z"/>
			<path style="fill:#FFFFFF;" d="M2236.929,879.349c-2.352,0-4.601-0.387-6.751-1.161c-2.15-0.774-3.913-2.064-5.289-3.87
				c-1.376-1.806-2.064-4.257-2.064-7.353c0-3.152,0.702-5.704,2.107-7.654c1.404-1.948,3.382-3.453,5.934-4.515
				c2.551-1.061,5.618-1.792,9.202-2.193c3.583-0.4,7.611-0.602,12.083-0.602v-3.87c0-2.522-0.688-4.313-2.063-5.375
				c-1.376-1.061-3.384-1.591-6.021-1.591c-2.235,0-4.2,0.503-5.891,1.505c-1.692,1.003-2.537,2.537-2.537,4.601v0.688h-11.266
				c-0.059-0.172-0.086-0.416-0.086-0.731c0-0.314,0-0.587,0-0.817c0-2.522,0.802-4.743,2.407-6.665
				c1.604-1.92,3.841-3.41,6.708-4.472c2.866-1.061,6.192-1.591,9.977-1.591h1.806c6.192,0,10.807,1.219,13.846,3.655
				c3.039,2.438,4.559,5.719,4.559,9.847v21.414c0,1.09,0.271,1.864,0.816,2.322c0.545,0.459,1.132,0.688,1.764,0.688
				c0.516,0,1.088-0.1,1.72-0.301c0.63-0.2,1.232-0.443,1.806-0.731v6.88c-0.745,0.574-1.734,1.032-2.967,1.376
				c-1.233,0.344-2.709,0.516-4.429,0.516c-2.064,0-3.784-0.331-5.16-0.989c-1.376-0.659-2.423-1.562-3.139-2.709
				c-0.718-1.146-1.161-2.464-1.333-3.956c-1.606,2.294-3.728,4.143-6.364,5.547
				C2243.665,878.647,2240.541,879.349,2236.929,879.349z M2242.433,871.61c1.604,0,3.139-0.373,4.601-1.118
				c1.463-0.745,2.68-1.849,3.655-3.311c0.975-1.462,1.462-3.281,1.462-5.461v-3.526c-3.67,0-6.78,0.229-9.331,0.688
				c-2.552,0.459-4.486,1.219-5.805,2.279c-1.319,1.062-1.978,2.595-1.978,4.601c0,2.122,0.645,3.627,1.935,4.515
				C2238.262,871.166,2240.081,871.61,2242.433,871.61z"/>
			<path style="fill:#FFFFFF;" d="M2295.58,879.349c-3.728,0-7.096-0.917-10.105-2.752c-3.01-1.834-5.375-4.371-7.095-7.611
				c-1.72-3.238-2.58-6.951-2.58-11.137v-2.666c0-3.152,0.529-6.033,1.591-8.643c1.061-2.608,2.508-4.887,4.343-6.837
				c1.835-1.948,3.984-3.44,6.45-4.472c2.465-1.032,5.103-1.548,7.912-1.548h1.634c3.841,0,7.182,0.761,10.02,2.279
				c2.838,1.52,5.016,3.642,6.536,6.364c1.518,2.724,2.278,5.92,2.278,9.589h-10.233c0-2.35-0.359-4.3-1.075-5.848
				c-0.718-1.548-1.735-2.723-3.053-3.526c-1.32-0.802-2.896-1.204-4.73-1.204c-2.638,0-4.846,0.903-6.622,2.709
				c-1.777,1.806-2.666,4.458-2.666,7.955v8.858c0,3.44,0.846,6.092,2.537,7.955c1.69,1.864,3.97,2.795,6.837,2.795
				c2.007,0,3.698-0.344,5.074-1.032s2.421-1.806,3.139-3.354c0.717-1.548,1.075-3.612,1.075-6.192h9.718
				c0,3.899-0.831,7.21-2.494,9.933c-1.663,2.724-3.956,4.802-6.88,6.235s-6.249,2.15-9.976,2.15H2295.58z"/>
			<path style="fill:#FFFFFF;" d="M2340.729,879.349c-2.466,0-4.673-0.344-6.622-1.032s-3.469-1.849-4.558-3.483
				c-1.09-1.634-1.634-3.798-1.634-6.493v-25.026h-4.816v-8.772h5.16l4.128-14.018h7.225v14.018h10.319v8.772h-10.319v22.446
				c0,2.523,0.516,4.128,1.548,4.816s2.149,1.032,3.354,1.032c0.631,0,1.505-0.129,2.623-0.387c1.118-0.258,2.021-0.529,2.709-0.817
				v7.224c-0.745,0.402-1.663,0.731-2.752,0.989c-1.09,0.258-2.192,0.443-3.311,0.559
				C2342.664,879.292,2341.646,879.349,2340.729,879.349z"/>
			<path style="fill:#FFFFFF;" d="M1970.107,983.409c-0.955-1.385-2.254-3.445-3.9-6.175s-2.729-4.528-3.25-5.395l-0.52,0.39v52.26
				h-18.33v-89.18h17.029l28.08,41.34l3.9,6.11c1.385,2.427,2.471,4.205,3.25,5.33l0.391-0.39v-52.39h18.33v89.18h-17.031
				L1970.107,983.409z"/>
			<path style="fill:#FFFFFF;" d="M2092.177,951.3h-38.479v21.32h34.58v15.99h-34.58v35.88h-19.76v-89.18h60.319L2092.177,951.3z"/>
			<path style="fill:#FFFFFF;" d="M2143.916,951.43v73.06h-19.891v-73.06h-25.35v-16.12h70.46v16.12H2143.916z"/>
			<path style="fill:#FFFFFF;" d="M1751.938,1172.056v-59.512h9.202l1.29,5.676c1.318-1.892,3.082-3.454,5.289-4.687
				c2.207-1.232,4.801-1.849,7.783-1.849c3.382,0,6.435,0.731,9.159,2.193c2.723,1.462,4.873,3.798,6.45,7.009
				c1.576,3.211,2.365,7.426,2.365,12.642v1.806c0,4.816-0.774,8.873-2.322,12.169c-1.548,3.297-3.642,5.762-6.278,7.396
				c-2.638,1.634-5.534,2.451-8.686,2.451c-3.04,0-5.59-0.574-7.654-1.72c-2.064-1.146-3.642-2.608-4.73-4.386v20.812H1751.938z
				 M1772.492,1149.524c1.662,0,3.139-0.43,4.429-1.29c1.29-0.86,2.307-2.092,3.053-3.698c0.745-1.604,1.118-3.583,1.118-5.934
				v-7.654c0-2.636-0.374-4.801-1.118-6.493c-0.746-1.69-1.763-2.952-3.053-3.784c-1.29-0.831-2.767-1.247-4.429-1.247
				c-1.548,0-2.997,0.402-4.343,1.204c-1.348,0.803-2.423,2.036-3.225,3.698c-0.804,1.664-1.204,3.842-1.204,6.536v7.74
				c0,2.352,0.387,4.343,1.161,5.977c0.774,1.634,1.834,2.868,3.182,3.698C1769.409,1149.108,1770.886,1149.524,1772.492,1149.524z"
				/>
			<path style="fill:#FFFFFF;" d="M1803.279,1156.49v-43.946h8.772l1.462,6.45c0.114-0.229,0.415-0.716,0.903-1.462
				c0.487-0.745,1.218-1.576,2.193-2.494c0.974-0.917,2.193-1.705,3.655-2.365c1.462-0.659,3.225-0.989,5.289-0.989
				c2.98,0,5.403,0.574,7.267,1.72c1.862,1.147,3.253,2.752,4.171,4.816c0.917,2.064,1.376,4.472,1.376,7.224
				c0,0.631-0.03,1.319-0.086,2.064c-0.058,0.746-0.116,1.405-0.172,1.978h-9.804v-1.806c0-1.088-0.215-2.193-0.645-3.311
				c-0.43-1.118-1.118-2.049-2.064-2.795c-0.946-0.745-2.251-1.118-3.913-1.118c-1.204,0-2.236,0.258-3.096,0.774
				c-0.86,0.516-1.562,1.161-2.107,1.935c-0.545,0.774-0.946,1.634-1.204,2.58c-0.258,0.946-0.387,1.821-0.387,2.623v28.122
				H1803.279z"/>
			<path style="fill:#FFFFFF;" d="M1846.279,1103.685v-9.116h12.126v9.116H1846.279z M1846.451,1156.49v-43.946h11.782v43.946
				H1846.451z"/>
			<path style="fill:#FFFFFF;" d="M1888.246,1157.349c-3.728,0-7.095-0.917-10.105-2.752c-3.01-1.834-5.375-4.371-7.095-7.611
				c-1.72-3.238-2.58-6.951-2.58-11.137v-2.666c0-3.152,0.529-6.033,1.591-8.643c1.061-2.608,2.507-4.887,4.343-6.837
				c1.834-1.948,3.984-3.44,6.45-4.472c2.464-1.032,5.103-1.548,7.912-1.548h1.634c3.84,0,7.181,0.761,10.019,2.279
				c2.838,1.52,5.017,3.642,6.536,6.364c1.519,2.724,2.279,5.92,2.279,9.589h-10.234c0-2.35-0.358-4.3-1.075-5.848
				c-0.718-1.548-1.735-2.723-3.053-3.526c-1.319-0.802-2.896-1.204-4.73-1.204c-2.638,0-4.846,0.903-6.622,2.709
				c-1.778,1.806-2.666,4.458-2.666,7.955v8.858c0,3.44,0.845,6.092,2.537,7.955c1.69,1.864,3.97,2.795,6.837,2.795
				c2.006,0,3.698-0.344,5.074-1.032s2.421-1.806,3.139-3.354c0.716-1.548,1.075-3.612,1.075-6.192h9.718
				c0,3.899-0.832,7.21-2.494,9.933c-1.664,2.724-3.956,4.802-6.88,6.235c-2.924,1.433-6.25,2.15-9.976,2.15H1888.246z"/>
			<path style="fill:#FFFFFF;" d="M1937.609,1157.349c-4.128,0-7.783-0.846-10.965-2.537c-3.182-1.691-5.663-4.156-7.439-7.396
				c-1.778-3.238-2.666-7.181-2.666-11.825v-2.15c0-4.644,0.931-8.585,2.795-11.825c1.862-3.238,4.414-5.704,7.654-7.396
				c3.239-1.69,6.923-2.537,11.051-2.537h1.377c3.898,0,7.295,0.789,10.189,2.365c2.895,1.578,5.131,3.784,6.709,6.622
				c1.576,2.838,2.365,6.149,2.365,9.933v5.418h-29.756c0,2.752,0.344,5.16,1.032,7.224s1.72,3.642,3.096,4.73
				c1.376,1.09,3.182,1.634,5.417,1.634c1.834,0,3.441-0.357,4.816-1.075c1.377-0.716,2.465-1.791,3.268-3.225
				c0.803-1.432,1.205-3.182,1.205-5.246h10.922c0,3.383-0.859,6.378-2.58,8.987c-1.721,2.609-4.086,4.644-7.096,6.106
				s-6.492,2.193-10.449,2.193H1937.609z M1929.009,1130.002h18.147c0-3.612-0.789-6.292-2.365-8.041
				c-1.578-1.749-3.742-2.623-6.494-2.623c-2.58,0-4.744,0.903-6.493,2.709C1930.055,1123.852,1929.124,1126.505,1929.009,1130.002z
				"/>
			<path style="fill:#FFFFFF;" d="M1968.913,1124.24v-11.696h11.867v11.696H1968.913z M1968.913,1156.49v-11.696h11.867v11.696
				H1968.913z"/>
			<path style="fill:#FFFFFF;" d="M2012.341,1156.49v-9.46h14.62v-36.464h-14.62v-6.966c2.121-0.172,4.458-0.572,7.01-1.204
				c2.55-0.63,5.145-1.462,7.782-2.494c2.637-1.032,5.103-2.121,7.396-3.268h4.214v50.396h14.362v9.46H2012.341z"/>
			<path style="fill:#FFFFFF;" d="M2083.291,1157.349c-3.784,0-7.225-0.888-10.32-2.666c-3.096-1.776-5.547-4.214-7.353-7.31
				c-1.807-3.096-2.709-6.592-2.709-10.492v-19.78c0-3.956,0.902-7.467,2.709-10.535c1.806-3.066,4.257-5.489,7.353-7.267
				c3.096-1.776,6.536-2.666,10.32-2.666h2.494c3.84,0,7.295,0.89,10.362,2.666c3.066,1.778,5.489,4.201,7.268,7.267
				c1.776,3.068,2.666,6.579,2.666,10.535v19.78c0,3.899-0.89,7.396-2.666,10.492c-1.778,3.096-4.201,5.534-7.268,7.31
				c-3.067,1.778-6.522,2.666-10.362,2.666H2083.291z M2084.495,1148.32c1.892,0,3.568-0.443,5.03-1.333
				c1.462-0.888,2.608-2.078,3.44-3.569c0.83-1.49,1.247-3.182,1.247-5.074v-22.79c0-1.892-0.417-3.583-1.247-5.074
				c-0.832-1.49-1.979-2.68-3.44-3.569c-1.462-0.888-3.139-1.333-5.03-1.333c-1.836,0-3.483,0.445-4.945,1.333
				c-1.462,0.89-2.623,2.079-3.483,3.569c-0.859,1.491-1.29,3.182-1.29,5.074v22.79c0,1.892,0.431,3.584,1.29,5.074
				c0.86,1.491,2.021,2.681,3.483,3.569C2081.012,1147.876,2082.659,1148.32,2084.495,1148.32z"/>
			<path style="fill:#FFFFFF;" d="M2136.18,1157.349c-3.784,0-7.225-0.888-10.32-2.666c-3.096-1.776-5.547-4.214-7.353-7.31
				c-1.807-3.096-2.709-6.592-2.709-10.492v-19.78c0-3.956,0.902-7.467,2.709-10.535c1.806-3.066,4.257-5.489,7.353-7.267
				c3.096-1.776,6.536-2.666,10.32-2.666h2.494c3.84,0,7.295,0.89,10.362,2.666c3.066,1.778,5.489,4.201,7.268,7.267
				c1.776,3.068,2.666,6.579,2.666,10.535v19.78c0,3.899-0.89,7.396-2.666,10.492c-1.778,3.096-4.201,5.534-7.268,7.31
				c-3.067,1.778-6.522,2.666-10.362,2.666H2136.18z M2137.384,1148.32c1.892,0,3.568-0.443,5.03-1.333
				c1.462-0.888,2.608-2.078,3.44-3.569c0.83-1.49,1.247-3.182,1.247-5.074v-22.79c0-1.892-0.417-3.583-1.247-5.074
				c-0.832-1.49-1.979-2.68-3.44-3.569c-1.462-0.888-3.139-1.333-5.03-1.333c-1.836,0-3.483,0.445-4.945,1.333
				c-1.462,0.89-2.623,2.079-3.483,3.569c-0.859,1.491-1.29,3.182-1.29,5.074v22.79c0,1.892,0.431,3.584,1.29,5.074
				c0.86,1.491,2.021,2.681,3.483,3.569C2133.9,1147.876,2135.548,1148.32,2137.384,1148.32z"/>
			<path style="fill:#FFFFFF;" d="M2182.617,1156.49l21.672-58.996h14.965l21.586,58.996h-13.072l-4.559-12.212h-23.907
				l-4.559,12.212H2182.617z M2202.397,1135.247h17.63l-8.6-24.51h-0.345L2202.397,1135.247z"/>
			<path style="fill:#FFFFFF;" d="M2247.635,1156.49v-58.996h23.392c3.383,0,6.564,0.531,9.547,1.591
				c2.979,1.062,5.603,2.666,7.868,4.816c2.265,2.15,4.027,4.845,5.289,8.084c1.261,3.24,1.893,7.067,1.893,11.481v5.504
				c0,4.358-0.632,8.243-1.893,11.653c-1.262,3.412-3.024,6.293-5.289,8.643c-2.266,2.352-4.889,4.143-7.868,5.375
				c-2.982,1.234-6.164,1.849-9.547,1.849H2247.635z M2260.19,1146.858h9.805c2.35,0,4.457-0.53,6.32-1.591
				c1.862-1.06,3.34-2.709,4.43-4.945c1.088-2.236,1.634-5.13,1.634-8.686v-10.234c0-3.497-0.546-6.292-1.634-8.385
				c-1.09-2.092-2.567-3.612-4.43-4.558c-1.863-0.946-3.971-1.419-6.32-1.419h-9.805V1146.858z"/>
			<path style="fill:#FFFFFF;" d="M2300.18,1156.49l21.672-58.996h14.965l21.586,58.996h-13.072l-4.559-12.212h-23.907
				l-4.559,12.212H2300.18z M2319.96,1135.247h17.63l-8.6-24.51h-0.345L2319.96,1135.247z"/>
			<path style="fill:#FFFFFF;" d="M1918.648,1253.349c-2.466,0-4.674-0.344-6.622-1.032c-1.95-0.688-3.47-1.849-4.558-3.483
				c-1.09-1.634-1.634-3.798-1.634-6.493v-25.026h-4.816v-8.772h5.16l4.128-14.018h7.224v14.018h10.32v8.772h-10.32v22.446
				c0,2.523,0.516,4.128,1.548,4.816c1.032,0.688,2.15,1.032,3.354,1.032c0.63,0,1.505-0.129,2.623-0.387
				c1.118-0.258,2.021-0.529,2.709-0.817v7.224c-0.746,0.402-1.664,0.731-2.752,0.989c-1.09,0.258-2.193,0.443-3.311,0.559
				C1920.583,1253.292,1919.565,1253.349,1918.648,1253.349z"/>
			<path style="fill:#FFFFFF;" d="M1956.229,1253.349c-4.015,0-7.611-0.903-10.793-2.709c-3.183-1.806-5.677-4.371-7.482-7.697
				c-1.806-3.325-2.709-7.224-2.709-11.696v-1.548c0-4.528,0.903-8.428,2.709-11.696c1.806-3.268,4.285-5.805,7.438-7.611
				c3.153-1.806,6.736-2.709,10.75-2.709h1.721c4.07,0,7.682,0.903,10.836,2.709c3.152,1.806,5.633,4.343,7.438,7.611
				c1.807,3.268,2.709,7.167,2.709,11.696v1.548c0,4.53-0.902,8.443-2.709,11.739c-1.806,3.297-4.286,5.848-7.438,7.654
				c-3.154,1.806-6.737,2.709-10.75,2.709H1956.229z M1957.003,1245.61c1.776,0,3.367-0.416,4.773-1.247
				c1.404-0.831,2.521-2.078,3.354-3.741c0.831-1.662,1.247-3.64,1.247-5.934v-8.428c0-2.35-0.416-4.328-1.247-5.934
				c-0.832-1.604-1.949-2.838-3.354-3.698c-1.406-0.86-2.997-1.29-4.773-1.29c-1.72,0-3.298,0.43-4.729,1.29
				c-1.435,0.86-2.567,2.093-3.397,3.698c-0.832,1.606-1.247,3.584-1.247,5.934v8.428c0,2.293,0.415,4.271,1.247,5.934
				c0.83,1.664,1.963,2.911,3.397,3.741C1953.705,1245.194,1955.283,1245.61,1957.003,1245.61z"/>
			<path style="fill:#FFFFFF;" d="M2001.463,1252.49l21.672-58.996h14.965l21.586,58.996h-13.072l-4.559-12.212h-23.907
				l-4.559,12.212H2001.463z M2021.243,1231.247h17.63l-8.6-24.51h-0.345L2021.243,1231.247z"/>
			<path style="fill:#FFFFFF;" d="M2065.877,1252.49v-61.92h11.782v61.92H2065.877z"/>
			<path style="fill:#FFFFFF;" d="M2090.558,1199.685v-9.116h12.126v9.116H2090.558z M2090.729,1252.49v-43.946h11.781v43.946
				H2090.729z"/>
			<path style="fill:#FFFFFF;" d="M2132.525,1253.349c-3.728,0-7.096-0.917-10.105-2.752c-3.01-1.834-5.375-4.371-7.095-7.611
				c-1.72-3.238-2.58-6.951-2.58-11.137v-2.666c0-3.152,0.529-6.033,1.591-8.643c1.061-2.608,2.508-4.887,4.343-6.837
				c1.835-1.948,3.984-3.44,6.45-4.472c2.465-1.032,5.103-1.548,7.912-1.548h1.634c3.841,0,7.182,0.761,10.02,2.279
				c2.838,1.52,5.016,3.642,6.536,6.364c1.518,2.724,2.278,5.92,2.278,9.589h-10.233c0-2.35-0.359-4.3-1.075-5.848
				c-0.718-1.548-1.735-2.723-3.053-3.526c-1.32-0.802-2.896-1.204-4.73-1.204c-2.638,0-4.846,0.903-6.622,2.709
				c-1.777,1.806-2.666,4.458-2.666,7.955v8.858c0,3.44,0.846,6.092,2.537,7.955c1.69,1.864,3.97,2.795,6.837,2.795
				c2.007,0,3.698-0.344,5.074-1.032s2.421-1.806,3.139-3.354c0.717-1.548,1.075-3.612,1.075-6.192h9.718
				c0,3.899-0.831,7.21-2.494,9.933c-1.663,2.724-3.956,4.802-6.88,6.235s-6.249,2.15-9.976,2.15H2132.525z"/>
			<path style="fill:#FFFFFF;" d="M2181.889,1253.349c-4.129,0-7.783-0.846-10.966-2.537c-3.182-1.691-5.662-4.156-7.438-7.396
				c-1.778-3.238-2.666-7.181-2.666-11.825v-2.15c0-4.644,0.931-8.585,2.795-11.825c1.862-3.238,4.414-5.704,7.654-7.396
				c3.238-1.69,6.923-2.537,11.051-2.537h1.376c3.898,0,7.295,0.789,10.19,2.365c2.895,1.578,5.131,3.784,6.708,6.622
				c1.577,2.838,2.365,6.149,2.365,9.933v5.418h-29.756c0,2.752,0.344,5.16,1.032,7.224c0.688,2.064,1.72,3.642,3.096,4.73
				c1.376,1.09,3.183,1.634,5.418,1.634c1.834,0,3.44-0.357,4.816-1.075c1.376-0.716,2.464-1.791,3.268-3.225
				c0.803-1.432,1.204-3.182,1.204-5.246h10.922c0,3.383-0.859,6.378-2.58,8.987c-1.72,2.609-4.085,4.644-7.095,6.106
				s-6.493,2.193-10.449,2.193H2181.889z M2173.288,1226.002h18.146c0-3.612-0.789-6.292-2.365-8.041
				c-1.578-1.749-3.741-2.623-6.493-2.623c-2.58,0-4.745,0.903-6.493,2.709C2174.334,1219.852,2173.402,1222.505,2173.288,1226.002z
				"/>
		</g>
		<g>
			<g>
				<path style="fill:#FFFFFF;stroke:#FFFFFF;stroke-width:3.5128;stroke-miterlimit:1;" d="M1741.44,1262.978h-7.194
					c-12.499,0-22.667-10.116-22.667-22.55v-50.658c0-4.68-2.071-9.094-5.682-12.11l-9.732-8.124l9.732-8.125
					c3.612-3.014,5.682-7.428,5.682-12.11v-50.658c0-12.434,10.168-22.55,22.667-22.55h7.194v6.729h-7.194
					c-8.788,0-15.938,7.097-15.938,15.82v50.658c0,6.682-2.951,12.98-8.099,17.274l-3.545,2.961l3.545,2.96
					c5.147,4.297,8.099,10.594,8.099,17.274v50.658c0,8.723,7.15,15.821,15.938,15.821h7.194V1262.978z"/>
			</g>
			<g>
				<path style="fill:#FFFFFF;stroke:#FFFFFF;stroke-width:3.5128;stroke-miterlimit:1;" d="M2360.552,1076.093h7.194
					c12.499,0,22.667,10.116,22.667,22.55v50.658c0,4.68,2.072,9.094,5.682,12.11l9.732,8.124l-9.732,8.125
					c-3.612,3.014-5.682,7.428-5.682,12.11v50.658c0,12.434-10.168,22.55-22.667,22.55h-7.194v-6.729h7.194
					c8.788,0,15.938-7.097,15.938-15.821v-50.658c0-6.682,2.951-12.98,8.099-17.274l3.545-2.961l-3.545-2.96
					c-5.147-4.297-8.099-10.594-8.099-17.274v-50.658c0-8.723-7.15-15.82-15.938-15.82h-7.194V1076.093z"/>
			</g>
		</g>
	</g>
	<g>
		<path style="fill:#FFFFFF;" d="M2985.521,635.397v73.06h-19.891v-73.06h-25.35v-16.12h70.46v16.12H2985.521z"/>
		<path style="fill:#FFFFFF;" d="M3041.939,661.658l-27.301-42.38h23.53l16.9,27.3h0.52c8.84-13.345,14.603-22.445,17.29-27.3h21.71
			c-1.734,2.688-5.18,8.04-10.335,16.055c-5.157,8.018-10.854,16.705-17.095,26.065c5.979,9.275,11.96,18.57,17.939,27.885
			c5.98,9.317,10.053,15.709,12.221,19.175h-23.53l-19.76-31.85h-0.521c-11.18,17.248-17.854,27.865-20.02,31.85h-21.71
			L3041.939,661.658z"/>
		<path style="fill:#FFFFFF;" d="M3136.381,690.972c1.95-3.335,4.701-6.391,8.256-9.165l25.35-19.89
			c3.293-2.513,5.567-5.09,6.825-7.735c1.255-2.643,1.885-5.395,1.885-8.255c0-3.206-1.04-6-3.12-8.385
			c-2.08-2.383-5.2-3.575-9.36-3.575c-3.38,0-6.175,0.76-8.385,2.275c-2.21,1.517-3.835,3.315-4.875,5.395
			c-1.04,2.08-1.56,3.9-1.56,5.46s0.042,2.73,0.13,3.51h-17.811c-0.087-0.692-0.13-1.515-0.13-2.47c0-4.68,1.04-9.295,3.12-13.845
			s5.633-8.405,10.66-11.57c5.025-3.163,11.612-4.745,19.76-4.745h1.95c6.24,0,11.591,1.3,16.055,3.9
			c4.463,2.6,7.82,6.002,10.075,10.205c2.253,4.205,3.38,8.689,3.38,13.455c0,5.115-0.975,9.642-2.925,13.585
			c-1.95,3.945-5.31,7.91-10.075,11.895c-5.46,4.595-12.047,9.794-19.76,15.6c-0.867,0.694-1.95,1.647-3.25,2.86
			c-1.3,1.215-1.95,1.995-1.95,2.34h38.221v16.64h-65.391v-3.9C3133.456,698.837,3134.432,694.31,3136.381,690.972z"/>
		<path style="fill:#FFFFFF;" d="M2924.976,819.457c-4.867,0-9.316-0.717-13.35-2.15c-4.034-1.433-7.268-3.683-9.7-6.75
			c-2.435-3.066-3.649-7.1-3.649-12.1c0-0.4,0-0.783,0-1.15c0-0.366,0.032-0.716,0.1-1.05h13.5c-0.067,0.334-0.1,0.635-0.1,0.9
			c0,0.267,0,0.567,0,0.9c0,2.134,0.516,3.967,1.55,5.5c1.032,1.534,2.565,2.7,4.6,3.5c2.033,0.8,4.45,1.2,7.25,1.2
			c3.133,0,5.7-0.315,7.7-0.95c2-0.633,3.5-1.616,4.5-2.95c1-1.333,1.5-2.965,1.5-4.9c0-2.065-0.717-3.716-2.15-4.95
			c-1.434-1.232-3.3-2.215-5.6-2.95c-2.3-0.733-4.834-1.416-7.6-2.05c-2.768-0.633-5.535-1.383-8.301-2.25
			c-2.767-0.865-5.316-2.033-7.649-3.5c-2.335-1.465-4.2-3.4-5.601-5.8c-1.399-2.4-2.1-5.466-2.1-9.2c0-4.465,1.216-8.166,3.65-11.1
			c2.433-2.933,5.665-5.133,9.699-6.6c4.033-1.466,8.416-2.2,13.15-2.2c4.732,0,9.033,0.685,12.9,2.05
			c3.865,1.367,6.965,3.5,9.3,6.4c2.333,2.9,3.5,6.65,3.5,11.25v1.3h-13.3v-1.2c0-1.8-0.484-3.366-1.45-4.7
			c-0.968-1.333-2.351-2.35-4.15-3.05c-1.8-0.7-4-1.05-6.6-1.05c-2.4,0-4.518,0.25-6.351,0.75c-1.834,0.5-3.25,1.3-4.25,2.4
			c-1,1.1-1.5,2.518-1.5,4.25c0,2,0.7,3.6,2.101,4.8c1.399,1.2,3.266,2.15,5.6,2.85c2.333,0.7,4.916,1.367,7.75,2
			c2.833,0.634,5.633,1.367,8.4,2.2c2.766,0.834,5.315,1.967,7.649,3.4c2.333,1.435,4.2,3.334,5.601,5.7
			c1.399,2.367,2.1,5.384,2.1,9.05c0,5.334-1.267,9.617-3.8,12.85c-2.534,3.234-5.95,5.6-10.25,7.1
			S2930.441,819.457,2924.976,819.457z"/>
		<path style="fill:#FFFFFF;" d="M2965.275,757.057v-10.6h14.1v10.6H2965.275z M2965.475,818.457v-51.1h13.7v51.1H2965.475z"/>
		<path style="fill:#FFFFFF;" d="M3001.773,837.257c-2.334,0-4.449-0.55-6.35-1.65s-3.435-2.584-4.6-4.45
			c-1.168-1.867-1.75-3.9-1.75-6.1c0-2.467,0.665-4.75,2-6.85c1.332-2.1,3.165-3.683,5.5-4.75c-1.468-0.933-2.617-2.15-3.45-3.65
			c-0.835-1.5-1.25-3.083-1.25-4.75c0-2.466,0.8-4.583,2.399-6.35c1.601-1.766,3.633-3.05,6.101-3.85
			c-2.067-1.266-3.768-2.833-5.101-4.7c-1.334-1.866-2-4.166-2-6.9c0-2.865,0.783-5.6,2.351-8.2c1.565-2.6,3.933-4.7,7.1-6.3
			c3.166-1.6,7.183-2.4,12.05-2.4c2,0,3.866,0.1,5.601,0.3c1.732,0.2,3.266,0.534,4.6,1c2.601-1.4,4.516-2.933,5.75-4.6
			c1.233-1.666,1.916-3.3,2.05-4.9h10.7c0,2.267-0.435,4.3-1.3,6.1c-0.867,1.8-2.084,3.285-3.65,4.45
			c-1.566,1.167-3.449,2.017-5.649,2.55l-0.101,0.3c1.601,1.334,2.883,2.9,3.851,4.7c0.966,1.8,1.45,3.768,1.45,5.9
			c0,2.934-0.817,5.634-2.45,8.1c-1.635,2.467-3.935,4.45-6.9,5.95c-2.967,1.5-6.45,2.25-10.45,2.25h-7.5
			c-2.066,0-3.667,0.417-4.8,1.25c-1.134,0.834-1.7,1.95-1.7,3.35c0,1.267,0.516,2.334,1.551,3.2c1.032,0.867,2.683,1.3,4.949,1.3
			h17.7c4.666,0,8.333,1.367,11,4.1c2.666,2.734,4,6.1,4,10.1c0,2.8-0.7,5.383-2.1,7.75c-1.4,2.366-3.351,4.25-5.851,5.65
			c-2.5,1.4-5.384,2.1-8.649,2.1H3001.773z M3006.974,828.757h17.3c1.801,0,3.351-0.584,4.65-1.75c1.3-1.167,1.95-2.584,1.95-4.25
			c0-1.534-0.55-2.834-1.65-3.9c-1.1-1.065-2.484-1.6-4.149-1.6h-18.101c-1.734,0-3.2,0.567-4.399,1.7
			c-1.2,1.133-1.801,2.466-1.801,4c0,1.533,0.601,2.883,1.801,4.05C3003.773,828.173,3005.239,828.757,3006.974,828.757z
			 M3015.773,790.957c2.934,0,5.25-0.833,6.95-2.5c1.7-1.666,2.55-3.666,2.55-6c0-2.333-0.85-4.35-2.55-6.05
			c-1.7-1.7-4.017-2.55-6.95-2.55s-5.267,0.85-7,2.55c-1.734,1.7-2.6,3.717-2.6,6.05c0,2.334,0.865,4.334,2.6,6
			C3010.507,790.124,3012.84,790.957,3015.773,790.957z"/>
		<path style="fill:#FFFFFF;" d="M3073.772,818.457v-68.6h33.4c3.465,0,6.565,0.667,9.3,2c2.732,1.334,4.85,3.2,6.35,5.6
			s2.25,5.234,2.25,8.5c0,3.4-0.584,6.217-1.75,8.45c-1.167,2.234-2.634,4-4.399,5.3c-1.768,1.3-3.617,2.25-5.551,2.85v0.6
			c1.333,0.2,2.783,0.65,4.351,1.35c1.565,0.7,3.032,1.65,4.399,2.85c1.366,1.2,2.466,2.7,3.301,4.5c0.832,1.8,1.25,4.035,1.25,6.7
			c0,3.867-0.867,7.3-2.601,10.3c-1.734,3-4.1,5.35-7.1,7.05c-3,1.7-6.435,2.55-10.3,2.55H3073.772z M3087.572,778.158h15
			c1.8,0,3.351-0.433,4.65-1.3c1.3-0.866,2.282-2.016,2.95-3.45c0.665-1.433,1-2.983,1-4.65c0-2.732-0.685-4.783-2.051-6.15
			c-1.367-1.366-3.316-2.05-5.85-2.05h-15.7V778.158z M3087.572,807.557h15.8c1.801,0,3.383-0.433,4.75-1.3
			c1.366-0.865,2.434-2.033,3.2-3.5c0.766-1.465,1.15-3.133,1.15-5c0-1.865-0.4-3.45-1.2-4.75c-0.8-1.3-1.885-2.315-3.25-3.05
			c-1.367-0.733-2.885-1.1-4.55-1.1h-15.9V807.557z"/>
		<path style="fill:#FFFFFF;" d="M3160.371,819.457c-4.667,0-8.85-1.05-12.55-3.15s-6.6-5.083-8.7-8.95
			c-2.1-3.866-3.149-8.4-3.149-13.6v-1.8c0-5.266,1.05-9.8,3.149-13.6c2.101-3.8,4.983-6.75,8.65-8.85
			c3.665-2.1,7.833-3.15,12.5-3.15h2c4.732,0,8.933,1.05,12.6,3.15c3.666,2.1,6.55,5.05,8.65,8.85c2.1,3.8,3.149,8.334,3.149,13.6
			v1.8c0,5.268-1.05,9.817-3.149,13.65c-2.101,3.834-4.984,6.8-8.65,8.9c-3.667,2.1-7.834,3.15-12.5,3.15H3160.371z
			 M3161.271,810.457c2.065,0,3.915-0.483,5.55-1.45c1.633-0.965,2.933-2.416,3.9-4.35c0.965-1.933,1.449-4.233,1.449-6.9v-9.8
			c0-2.733-0.484-5.033-1.449-6.9c-0.968-1.866-2.268-3.3-3.9-4.3c-1.635-1-3.484-1.5-5.55-1.5c-2,0-3.835,0.5-5.5,1.5
			c-1.667,1-2.984,2.435-3.95,4.3c-0.967,1.867-1.45,4.167-1.45,6.9v9.8c0,2.667,0.483,4.967,1.45,6.9
			c0.966,1.934,2.283,3.384,3.95,4.35C3157.437,809.974,3159.271,810.457,3161.271,810.457z"/>
		<path style="fill:#FFFFFF;" d="M3224.771,819.457c-7.467,0-13.167-3-17.1-9l-4.7,8h-5v-72h13.7v26.9
			c1.399-1.933,3.333-3.583,5.8-4.95c2.466-1.366,5.4-2.05,8.8-2.05c3.666,0,7,0.85,10,2.55c3,1.7,5.4,4.35,7.2,7.95
			s2.7,8.234,2.7,13.9v2.2c0,6.067-0.968,11.067-2.9,15c-1.935,3.935-4.534,6.834-7.8,8.7
			C3232.203,818.523,3228.637,819.457,3224.771,819.457z M3221.871,810.457c1.933,0,3.633-0.466,5.1-1.4
			c1.466-0.933,2.633-2.383,3.5-4.35c0.865-1.966,1.3-4.483,1.3-7.55v-9c0-2.8-0.417-5.116-1.25-6.95
			c-0.834-1.833-1.967-3.233-3.399-4.2c-1.435-0.965-3.117-1.45-5.051-1.45c-1.867,0-3.6,0.484-5.199,1.45
			c-1.601,0.967-2.867,2.385-3.801,4.25c-0.934,1.867-1.399,4.2-1.399,7v8.9c0,3.067,0.45,5.584,1.35,7.55
			c0.9,1.967,2.133,3.417,3.7,4.35C3218.286,809.992,3220.004,810.457,3221.871,810.457z"/>
	</g>
</g>
</svg>
