<?xml version="1.0" encoding="iso-8859-1"?>
<!-- Generator: Adobe Illustrator 29.6.0, SVG Export Plug-In . SVG Version: 9.03 Build 0)  -->
<svg version="1.1" xmlns="http://www.w3.org/2000/svg" xmlns:xlink="http://www.w3.org/1999/xlink" x="0px" y="0px"
	 viewBox="0 0 4000 2230" style="enable-background:new 0 0 4000 2230;" xml:space="preserve">
<g id="Shapes">
	<g>
		<g>
			
				<line style="fill:none;stroke:#000000;stroke-width:18.7516;stroke-miterlimit:10;" x1="2431.205" y1="1470.093" x2="3053.31" y2="1733.164"/>
			<g>
				<polygon points="3022.502,1770.895 3115.28,1759.369 3058.919,1684.777 				"/>
			</g>
		</g>
	</g>
	<g>
		<g>
			
				<line style="fill:none;stroke:#000000;stroke-width:18.7516;stroke-miterlimit:10;" x1="2422.051" y1="759.285" x2="3052.41" y2="518.99"/>
			<g>
				<polygon points="3056.281,567.547 3115.28,495.024 3022.975,480.178 				"/>
			</g>
		</g>
	</g>
	<g>
		<g>
			
				<line style="fill:none;stroke:#000000;stroke-width:18.7516;stroke-miterlimit:10;" x1="794.136" y1="492.596" x2="1476.936" y2="728.152"/>
			<g>
				<polygon points="1448.758,767.886 1540.54,750.095 1479.251,679.496 				"/>
			</g>
		</g>
	</g>
	<g>
		<g>
			
				<line style="fill:none;stroke:#000000;stroke-width:18.7516;stroke-miterlimit:10;" x1="827.472" y1="1759.369" x2="1484.796" y2="1508.321"/>
			<g>
				<polygon points="1488.698,1556.876 1547.651,1484.315 1455.337,1469.528 				"/>
			</g>
		</g>
	</g>
	<circle style="fill:#FF5553;" cx="471.911" cy="484.391" r="421.911"/>
	<circle style="fill:#FF5553;" cx="3528.088" cy="484.391" r="421.911"/>
	<circle style="fill:#FF5553;" cx="3528.089" cy="1745.609" r="421.911"/>
	<path style="fill:#0033AD;" d="M2407.779,1505.659h-815.557c-33.557,0-61.012-27.455-61.012-61.012V785.353
		c0-33.557,27.455-61.012,61.012-61.012h815.557c33.557,0,61.012,27.455,61.012,61.012v659.294
		C2468.791,1478.203,2441.335,1505.659,2407.779,1505.659z"/>
	<circle style="fill:#FF5553;" cx="471.911" cy="1745.609" r="421.911"/>
</g>
<g id="Text">
	<g>
		<path style="fill:#FFFFFF;" d="M358.623,426.073h-42.66l-7.5,21.096h-23.283l38.91-107.197h28.752l38.91,107.197h-25.315
			L358.623,426.073z M322.526,407.79h29.69c-3.96-11.771-8.751-25.784-14.376-42.035h-0.781L322.526,407.79z"/>
		<path style="fill:#FFFFFF;" d="M402.375,447.169v-112.51h22.814v112.51H402.375z"/>
		<path style="fill:#FFFFFF;" d="M445.815,334.659h23.127v17.97h-23.127V334.659z M445.972,447.169v-79.851h22.814v79.851H445.972z"
			/>
		<path style="fill:#FFFFFF;" d="M513.008,427.87c2.708,3.491,6.353,5.235,10.938,5.235c4.791,0,8.567-1.485,11.329-4.454
			c2.759-2.969,4.141-7.369,4.141-13.205h21.564c0,7.398-1.589,13.595-4.766,18.596c-3.179,5-7.372,8.699-12.58,11.095
			c-5.21,2.395-10.938,3.594-17.189,3.594h-2.5c-11.668,0-20.939-3.462-27.815-10.392c-6.875-6.927-10.313-16.537-10.313-28.831
			v-4.531c0-8.126,1.641-15.131,4.922-21.018c3.282-5.884,7.786-10.392,13.517-13.517c5.728-3.125,12.292-4.688,19.689-4.688h2.5
			c6.146,0,11.849,1.328,17.111,3.984c5.259,2.657,9.479,6.512,12.658,11.563c3.176,5.054,4.766,11.017,4.766,17.893h-22.658
			c0-5.416-1.199-9.74-3.594-12.97c-2.398-3.228-5.938-4.844-10.626-4.844s-8.387,1.851-11.095,5.547
			c-2.71,3.699-4.063,8.36-4.063,13.986v13.907C508.945,420.033,510.298,424.381,513.008,427.87z"/>
		<path style="fill:#FFFFFF;" d="M647.08,434.902c-3.335,4.742-7.735,8.23-13.204,10.47c-5.469,2.239-11.434,3.359-17.892,3.359
			h-2.5c-7.398,0-14.063-1.562-20.001-4.688c-5.938-3.125-10.602-7.63-13.986-13.517c-3.387-5.884-5.079-12.892-5.079-21.018v-4.531
			c0-8.021,1.719-15.001,5.157-20.939s8.099-10.47,13.986-13.595c5.884-3.125,12.525-4.688,19.923-4.688h2.5
			c6.458,0,12.447,1.328,17.97,3.984c5.521,2.657,9.947,6.512,13.282,11.563c3.333,5.054,5,11.017,5,17.893v11.876h-54.692v3.75
			c0,5.21,1.536,9.559,4.61,13.048c3.072,3.491,7.266,5.235,12.579,5.235c4.791,0,8.568-1.329,11.329-3.985
			c2.759-2.657,4.141-6.587,4.141-11.798h21.877C652.081,424.303,650.413,430.163,647.08,434.902z M602.467,386.226
			c-2.866,3.23-4.507,7.345-4.922,12.345h31.565c0-5.313-1.226-9.505-3.672-12.579c-2.449-3.071-6.382-4.61-11.798-4.61
			C609.054,381.382,605.331,382.998,602.467,386.226z"/>
		<path style="fill:#FFFFFF;" d="M372.921,569.679c-1.148-1.665-2.71-4.141-4.688-7.422c-1.98-3.282-3.282-5.442-3.907-6.485
			l-0.625,0.469v62.818h-22.033V511.862h20.471l33.753,49.692l4.688,7.344c1.666,2.918,2.969,5.054,3.907,6.407l0.469-0.469v-62.974
			h22.033v107.197h-20.471L372.921,569.679z"/>
		<path style="fill:#FFFFFF;" d="M519.651,531.082h-46.254v25.627h41.566v19.22h-41.566v43.129h-23.752V511.862h72.506
			L519.651,531.082z"/>
		<path style="fill:#FFFFFF;" d="M581.842,531.238v87.82h-23.908v-87.82h-30.472v-19.376h84.695v19.376H581.842z"/>
	</g>
	<g>
		<path style="fill:#FFFFFF;" d="M392.376,1590.078c5.103,0,9.791,1.172,14.064,3.516c4.271,2.344,7.681,5.522,10.235,9.532
			c2.551,4.012,3.828,8.413,3.828,13.204c0,7.293-1.719,12.918-5.157,16.876c-3.438,3.961-7.813,6.668-13.126,8.126v0.781
			c5.728,1.147,10.626,3.804,14.689,7.97c4.062,4.168,6.094,10.367,6.094,18.595c0,5.211-1.328,10.001-3.985,14.377
			c-2.656,4.375-6.25,7.84-10.782,10.392c-4.532,2.554-9.508,3.828-14.923,3.828h-54.067v-107.196H392.376z M393.783,1629.924
			c2.395-2.396,3.594-5.415,3.594-9.063c0-4.375-1.199-7.524-3.594-9.454c-2.398-1.926-5.157-2.891-8.282-2.891h-23.439v25.002
			H385.5C388.626,1633.518,391.385,1632.322,393.783,1629.924z M395.97,1674.303c2.395-2.396,3.594-5.312,3.594-8.751v-1.406
			c0-3.438-1.199-6.353-3.594-8.751c-2.397-2.395-5.313-3.594-8.751-3.594h-25.158v26.096h25.158
			C390.657,1677.897,393.573,1676.701,395.97,1674.303z"/>
		<path style="fill:#FFFFFF;" d="M511.057,1680.554c-3.387,5.938-8.048,10.469-13.986,13.595
			c-5.938,3.125-12.606,4.688-20.001,4.688h-2.5c-7.398,0-14.063-1.562-20.001-4.688c-5.938-3.126-10.602-7.657-13.986-13.595
			c-3.387-5.938-5.079-12.917-5.079-20.939v-4.532c0-8.021,1.692-15.001,5.079-20.939c3.384-5.938,8.048-10.47,13.986-13.595
			s12.604-4.688,20.001-4.688h2.5c7.396,0,14.063,1.562,20.001,4.688s10.599,7.657,13.986,13.595
			c3.384,5.938,5.078,12.919,5.078,20.939v4.532C516.135,1667.637,514.44,1674.616,511.057,1680.554z M488.242,1636.488
			c-3.179-3.333-7.32-5.001-12.423-5.001c-5.105,0-9.246,1.668-12.423,5.001c-3.179,3.335-4.766,8.179-4.766,14.532v12.657
			c0,6.355,1.587,11.2,4.766,14.532c3.177,3.336,7.317,5.001,12.423,5.001c5.103,0,9.244-1.665,12.423-5.001
			c3.176-3.332,4.766-8.177,4.766-14.532v-12.657C493.008,1644.666,491.418,1639.823,488.242,1636.488z"/>
		<path style="fill:#FFFFFF;" d="M565.122,1618.986c3.802-2.083,8.204-3.125,13.205-3.125c5.833,0,11.068,1.511,15.705,4.531
			c4.634,3.022,8.306,7.555,11.017,13.595c2.708,6.043,4.062,13.388,4.062,22.033v1.72c0,9.062-1.46,16.668-4.375,22.814
			c-2.917,6.147-6.875,10.73-11.876,13.751s-10.626,4.531-16.876,4.531c-5.73,0-10.836-1.172-15.313-3.516
			c-4.48-2.344-8.231-5.755-11.251-10.235l-2.657,4.062c-1.042,1.772-2.031,3.309-2.969,4.61c-0.938,1.304-1.719,2.476-2.344,3.516
			h-8.282v-112.51h22.814v41.879C558.271,1623.622,561.318,1621.071,565.122,1618.986z M581.764,1637.269
			c-2.812-3.229-6.407-4.845-10.782-4.845c-4.375,0-7.97,1.616-10.782,4.845c-2.813,3.229-4.219,7.918-4.219,14.063v12.97
			c0,6.043,1.406,10.704,4.219,13.985c2.812,3.282,6.407,4.923,10.782,4.923c4.375,0,7.969-1.641,10.782-4.923
			c2.813-3.281,4.219-7.942,4.219-13.985v-12.97C585.983,1645.187,584.577,1640.498,581.764,1637.269z"/>
		<path style="fill:#FFFFFF;" d="M162.982,1850.255h25.94v-61.411h-26.096v-13.907c5.833-0.415,12.447-1.899,19.846-4.454
			c7.396-2.551,14.376-5.649,20.939-9.298h8.282v89.07h25.471v18.908h-74.381V1850.255z"/>
		<path style="fill:#FFFFFF;" d="M328.622,1852.287c-3.335,5.73-7.867,10.234-13.595,13.517c-5.73,3.281-12.032,4.922-18.908,4.922
			h-4.532c-6.875,0-13.18-1.641-18.908-4.922c-5.73-3.282-10.235-7.786-13.517-13.517c-3.281-5.729-4.922-12.084-4.922-19.064
			v-35.159c0-6.979,1.641-13.334,4.922-19.064c3.282-5.728,7.787-10.26,13.517-13.595c5.728-3.333,12.032-5.001,18.908-5.001h4.532
			c6.875,0,13.177,1.668,18.908,5.001c5.728,3.335,10.26,7.867,13.595,13.595c3.333,5.73,5,12.086,5,19.064v35.159
			C333.622,1840.203,331.955,1846.559,328.622,1852.287z M305.729,1783.531c-3.179-3.228-7.11-4.844-11.798-4.844
			c-4.688,0-8.621,1.616-11.798,4.844c-3.179,3.23-4.766,7.188-4.766,11.876v40.316c0,4.688,1.587,8.648,4.766,11.876
			c3.177,3.23,7.11,4.845,11.798,4.845c4.688,0,8.619-1.614,11.798-4.845c3.176-3.228,4.766-7.188,4.766-11.876v-40.316
			C310.495,1790.719,308.906,1786.761,305.729,1783.531z"/>
		<path style="fill:#FFFFFF;" d="M424.255,1852.287c-3.335,5.73-7.867,10.234-13.595,13.517c-5.73,3.281-12.032,4.922-18.908,4.922
			h-4.532c-6.875,0-13.18-1.641-18.908-4.922c-5.73-3.282-10.235-7.786-13.517-13.517c-3.281-5.729-4.922-12.084-4.922-19.064
			v-35.159c0-6.979,1.641-13.334,4.922-19.064c3.282-5.728,7.787-10.26,13.517-13.595c5.728-3.333,12.032-5.001,18.908-5.001h4.532
			c6.875,0,13.177,1.668,18.908,5.001c5.728,3.335,10.26,7.867,13.595,13.595c3.333,5.73,5,12.086,5,19.064v35.159
			C429.255,1840.203,427.587,1846.559,424.255,1852.287z M401.362,1783.531c-3.179-3.228-7.11-4.844-11.798-4.844
			c-4.688,0-8.621,1.616-11.798,4.844c-3.179,3.23-4.766,7.188-4.766,11.876v40.316c0,4.688,1.587,8.648,4.766,11.876
			c3.177,3.23,7.11,4.845,11.798,4.845c4.688,0,8.619-1.614,11.798-4.845c3.176-3.228,4.766-7.188,4.766-11.876v-40.316
			C406.128,1790.719,404.539,1786.761,401.362,1783.531z"/>
		<path style="fill:#FFFFFF;" d="M545.513,1848.068h-42.66l-7.5,21.096h-23.283l38.91-107.196h28.752l38.91,107.196h-25.315
			L545.513,1848.068z M509.417,1829.786h29.69c-3.96-11.771-8.751-25.784-14.376-42.035h-0.781L509.417,1829.786z"/>
		<path style="fill:#FFFFFF;" d="M654.974,1767.592c7.24,3.75,12.995,9.22,17.267,16.407c4.271,7.188,6.407,15.681,6.407,25.472
			v12.188c0,9.793-2.137,18.282-6.407,25.471c-4.272,7.188-10.027,12.657-17.267,16.408c-7.242,3.75-15.289,5.625-24.143,5.625
			h-40.628v-107.196h40.628C639.685,1761.967,647.732,1763.842,654.974,1767.592z M614.423,1849.943h16.408
			c6.666,0,12.083-2.16,16.251-6.484c4.166-4.322,6.25-10.443,6.25-18.361v-19.064c0-7.915-2.085-14.036-6.25-18.36
			c-4.168-4.322-9.586-6.485-16.251-6.485h-16.408V1849.943z"/>
		<path style="fill:#FFFFFF;" d="M759.903,1848.068h-42.66l-7.5,21.096h-23.283l38.91-107.196h28.752l38.91,107.196h-25.315
			L759.903,1848.068z M723.807,1829.786h29.69c-3.96-11.771-8.751-25.784-14.376-42.035h-0.781L723.807,1829.786z"/>
	</g>
	<g>
		<path style="fill:#FFFFFF;" d="M3395.892,444.647V337.451h52.192c5.415,0,10.26,1.042,14.532,3.125
			c4.271,2.085,7.579,5,9.923,8.75s3.516,8.18,3.516,13.283c0,5.312-0.913,9.715-2.734,13.204c-1.824,3.491-4.116,6.25-6.876,8.282
			c-2.761,2.032-5.652,3.516-8.672,4.454v0.938c2.082,0.312,4.348,1.016,6.797,2.11c2.446,1.094,4.739,2.578,6.876,4.453
			c2.134,1.875,3.853,4.219,5.156,7.032c1.302,2.812,1.953,6.304,1.953,10.47c0,6.043-1.354,11.407-4.062,16.095
			c-2.71,4.688-6.407,8.36-11.095,11.017c-4.688,2.657-10.055,3.985-16.095,3.985H3395.892z M3417.456,381.673h23.439
			c2.812,0,5.235-0.676,7.267-2.031c2.031-1.353,3.567-3.15,4.609-5.391c1.04-2.239,1.562-4.661,1.562-7.267
			c0-4.27-1.069-7.474-3.203-9.61c-2.137-2.134-5.184-3.204-9.142-3.204h-24.533V381.673z M3417.456,427.615h24.689
			c2.812,0,5.286-0.676,7.423-2.031c2.134-1.353,3.802-3.177,5-5.469c1.196-2.291,1.797-4.896,1.797-7.813
			c0-2.915-0.625-5.391-1.875-7.422s-2.944-3.619-5.078-4.766c-2.137-1.145-4.508-1.719-7.11-1.719h-24.846V427.615z"/>
		<path style="fill:#FFFFFF;" d="M3531.215,446.21c-7.293,0-13.829-1.641-19.611-4.922c-5.781-3.281-10.313-7.942-13.595-13.985
			c-3.281-6.041-4.922-13.126-4.922-21.252v-2.812c0-8.229,1.641-15.314,4.922-21.252s7.786-10.548,13.517-13.83
			c5.729-3.281,12.24-4.922,19.533-4.922h3.125c7.396,0,13.959,1.641,19.689,4.922c5.729,3.282,10.235,7.892,13.517,13.83
			s4.923,13.023,4.923,21.252v2.812c0,8.231-1.642,15.341-4.923,21.33c-3.281,5.992-7.788,10.626-13.517,13.907
			c-5.73,3.282-12.242,4.922-19.533,4.922H3531.215z M3532.621,432.146c3.228,0,6.119-0.754,8.673-2.266
			c2.552-1.509,4.583-3.774,6.094-6.797c1.51-3.02,2.267-6.614,2.267-10.782v-15.313c0-4.271-0.757-7.865-2.267-10.782
			c-1.511-2.916-3.542-5.157-6.094-6.72c-2.554-1.562-5.445-2.344-8.673-2.344c-3.125,0-5.991,0.781-8.595,2.344
			c-2.604,1.563-4.663,3.804-6.172,6.72c-1.512,2.917-2.266,6.512-2.266,10.782v15.313c0,4.168,0.754,7.762,2.266,10.782
			c1.509,3.023,3.567,5.289,6.172,6.797C3526.63,431.392,3529.496,432.146,3532.621,432.146z"/>
		<path style="fill:#FFFFFF;" d="M3631.848,446.21c-11.669,0-20.576-4.688-26.722-14.063l-7.344,12.501h-7.813v-112.51h21.408
			v42.035c2.188-3.021,5.208-5.599,9.063-7.735c3.853-2.134,8.438-3.203,13.751-3.203c5.728,0,10.938,1.328,15.626,3.984
			c4.688,2.657,8.438,6.798,11.251,12.423s4.22,12.867,4.22,21.72v3.438c0,9.481-1.512,17.294-4.532,23.439
			c-3.022,6.148-7.085,10.68-12.188,13.595C3643.462,444.75,3637.888,446.21,3631.848,446.21z M3627.315,432.146
			c3.021,0,5.677-0.728,7.97-2.188c2.29-1.458,4.114-3.723,5.469-6.797c1.354-3.071,2.032-7.005,2.032-11.798V397.3
			c0-4.375-0.652-7.994-1.954-10.86c-1.304-2.864-3.073-5.052-5.312-6.563c-2.241-1.509-4.871-2.266-7.892-2.266
			c-2.917,0-5.625,0.757-8.125,2.266c-2.501,1.511-4.48,3.726-5.938,6.641c-1.46,2.917-2.188,6.563-2.188,10.938v13.907
			c0,4.793,0.703,8.727,2.109,11.798c1.406,3.074,3.333,5.34,5.782,6.797C3621.715,431.419,3624.397,432.146,3627.315,432.146z"/>
		<path style="fill:#FFFFFF;" d="M3396.907,616.537V509.34h19.064l38.284,56.88l5.626,9.845l0.625-0.156V509.34h20.627v107.197
			h-19.533l-39.379-58.911l-3.906-7.188l-0.781,0.156v65.943H3396.907z"/>
		<path style="fill:#FFFFFF;" d="M3505.509,616.537V509.34h71.725l-2.5,17.501h-46.723v27.971h41.723v17.189h-41.723v44.535
			H3505.509z"/>
		<path style="fill:#FFFFFF;" d="M3614.58,616.537v-89.539h-30.784V509.34h84.227v17.658h-30.784v89.539H3614.58z"/>
	</g>
	<g>
		<path style="fill:#FFFFFF;" d="M3341.671,1695.285l39.379-107.196h27.189l39.222,107.196h-23.752l-8.281-22.189h-43.441
			l-8.282,22.189H3341.671z M3377.611,1656.688h32.034l-15.626-44.535h-0.625L3377.611,1656.688z"/>
		<path style="fill:#FFFFFF;" d="M3458.712,1695.285v-112.51h21.408v112.51H3458.712z"/>
		<path style="fill:#FFFFFF;" d="M3503.557,1599.339v-16.564h22.033v16.564H3503.557z M3503.869,1695.285v-79.851h21.408v79.851
			H3503.869z"/>
		<path style="fill:#FFFFFF;" d="M3579.812,1696.847c-6.773,0-12.892-1.665-18.361-5c-5.469-3.333-9.767-7.943-12.892-13.83
			c-3.125-5.884-4.688-12.63-4.688-20.235v-4.845c0-5.728,0.962-10.963,2.891-15.704c1.927-4.739,4.556-8.88,7.892-12.423
			c3.332-3.541,7.239-6.251,11.72-8.126c4.478-1.875,9.271-2.812,14.376-2.812h2.969c6.979,0,13.048,1.382,18.205,4.141
			c5.156,2.762,9.114,6.617,11.876,11.563c2.759,4.949,4.141,10.758,4.141,17.424h-18.595c0-4.271-0.652-7.813-1.954-10.626
			c-1.304-2.812-3.151-4.947-5.547-6.407c-2.397-1.457-5.262-2.188-8.595-2.188c-4.793,0-8.805,1.641-12.032,4.922
			c-3.23,3.282-4.844,8.102-4.844,14.455v16.095c0,6.251,1.535,11.07,4.609,14.454c3.071,3.387,7.213,5.079,12.423,5.079
			c3.646,0,6.72-0.625,9.22-1.875s4.399-3.282,5.703-6.095c1.302-2.812,1.954-6.562,1.954-11.251h17.657
			c0,7.086-1.511,13.102-4.531,18.049c-3.022,4.949-7.188,8.727-12.501,11.329c-5.313,2.603-11.356,3.906-18.127,3.906H3579.812z"/>
		<path style="fill:#FFFFFF;" d="M3669.507,1696.847c-7.501,0-14.142-1.538-19.924-4.609c-5.781-3.072-10.289-7.552-13.517-13.438
			c-3.23-5.885-4.844-13.049-4.844-21.486v-3.907c0-8.438,1.691-15.6,5.078-21.486c3.384-5.884,8.021-10.364,13.907-13.438
			c5.885-3.071,12.579-4.609,20.08-4.609h2.5c7.083,0,13.256,1.433,18.518,4.297c5.259,2.866,9.322,6.876,12.188,12.032
			c2.864,5.157,4.297,11.173,4.297,18.049v9.845h-54.066c0,5,0.625,9.376,1.875,13.126s3.125,6.616,5.625,8.595
			c2.5,1.979,5.782,2.969,9.845,2.969c3.333,0,6.251-0.649,8.751-1.953c2.5-1.302,4.478-3.255,5.938-5.86
			c1.458-2.603,2.188-5.781,2.188-9.532h19.845c0,6.148-1.562,11.591-4.688,16.33c-3.125,4.741-7.423,8.438-12.892,11.095
			c-5.47,2.656-11.798,3.984-18.986,3.984H3669.507z M3653.881,1647.156h32.972c0-6.563-1.434-11.432-4.298-14.611
			c-2.866-3.176-6.797-4.766-11.798-4.766c-4.688,0-8.621,1.641-11.798,4.922C3655.78,1635.983,3654.088,1640.802,3653.881,1647.156
			z"/>
		<path style="fill:#FFFFFF;" d="M3219.863,1867.174v-17.189h26.564v-66.255h-26.564v-12.657c3.853-0.313,8.099-1.041,12.735-2.188
			c4.635-1.145,9.35-2.656,14.143-4.531c4.79-1.875,9.271-3.853,13.438-5.938h7.656v91.57h26.097v17.189H3219.863z"/>
		<path style="fill:#FFFFFF;" d="M3348.779,1868.737c-6.876,0-13.126-1.614-18.752-4.844c-5.625-3.229-10.079-7.657-13.36-13.282
			c-3.281-5.626-4.922-11.979-4.922-19.064v-35.94c0-7.188,1.641-13.568,4.922-19.143c3.281-5.572,7.735-9.974,13.36-13.204
			c5.626-3.228,11.876-4.845,18.752-4.845h4.531c6.979,0,13.256,1.617,18.83,4.845c5.572,3.23,9.974,7.632,13.204,13.204
			c3.229,5.574,4.845,11.954,4.845,19.143v35.94c0,7.085-1.616,13.438-4.845,19.064c-3.23,5.625-7.632,10.054-13.204,13.282
			c-5.574,3.229-11.852,4.844-18.83,4.844H3348.779z M3350.967,1852.329c3.438,0,6.485-0.806,9.142-2.423
			c2.656-1.613,4.739-3.774,6.251-6.484c1.509-2.708,2.266-5.782,2.266-9.22v-41.41c0-3.438-0.757-6.509-2.266-9.219
			c-1.512-2.708-3.595-4.869-6.251-6.485c-2.656-1.614-5.703-2.422-9.142-2.422c-3.335,0-6.328,0.808-8.985,2.422
			c-2.656,1.616-4.766,3.777-6.328,6.485c-1.562,2.71-2.344,5.781-2.344,9.219v41.41c0,3.438,0.781,6.512,2.344,9.22
			c1.562,2.71,3.672,4.871,6.328,6.484C3344.639,1851.524,3347.632,1852.329,3350.967,1852.329z"/>
		<path style="fill:#FFFFFF;" d="M3444.88,1868.737c-6.876,0-13.126-1.614-18.752-4.844c-5.625-3.229-10.079-7.657-13.36-13.282
			c-3.281-5.626-4.922-11.979-4.922-19.064v-35.94c0-7.188,1.641-13.568,4.922-19.143c3.281-5.572,7.735-9.974,13.36-13.204
			c5.626-3.228,11.876-4.845,18.752-4.845h4.531c6.979,0,13.256,1.617,18.83,4.845c5.572,3.23,9.974,7.632,13.204,13.204
			c3.229,5.574,4.845,11.954,4.845,19.143v35.94c0,7.085-1.616,13.438-4.845,19.064c-3.23,5.625-7.632,10.054-13.204,13.282
			c-5.574,3.229-11.852,4.844-18.83,4.844H3444.88z M3447.067,1852.329c3.438,0,6.485-0.806,9.142-2.423
			c2.656-1.613,4.739-3.774,6.251-6.484c1.509-2.708,2.266-5.782,2.266-9.22v-41.41c0-3.438-0.757-6.509-2.266-9.219
			c-1.512-2.708-3.595-4.869-6.251-6.485c-2.656-1.614-5.703-2.422-9.142-2.422c-3.335,0-6.328,0.808-8.985,2.422
			c-2.656,1.616-4.766,3.777-6.328,6.485c-1.562,2.71-2.344,5.781-2.344,9.219v41.41c0,3.438,0.781,6.512,2.344,9.22
			c1.562,2.71,3.672,4.871,6.328,6.484C3440.739,1851.524,3443.732,1852.329,3447.067,1852.329z"/>
		<path style="fill:#FFFFFF;" d="M3529.259,1867.174l39.379-107.196h27.189l39.222,107.196h-23.752l-8.281-22.189h-43.441
			l-8.282,22.189H3529.259z M3565.199,1828.578h32.034l-15.626-44.535h-0.625L3565.199,1828.578z"/>
		<path style="fill:#FFFFFF;" d="M3647.396,1867.174v-107.196h42.504c6.146,0,11.927,0.964,17.345,2.891
			c5.416,1.929,10.182,4.844,14.299,8.751c4.113,3.906,7.317,8.804,9.609,14.688c2.291,5.887,3.438,12.84,3.438,20.861v10.001
			c0,7.918-1.147,14.977-3.438,21.173c-2.292,6.2-5.496,11.435-9.609,15.705c-4.117,4.272-8.883,7.527-14.299,9.767
			c-5.418,2.241-11.199,3.359-17.345,3.359H3647.396z M3670.21,1849.672h17.814c4.271,0,8.099-0.962,11.485-2.891
			c3.384-1.926,6.067-4.922,8.047-8.985c1.979-4.062,2.97-9.321,2.97-15.782v-18.596c0-6.353-0.991-11.432-2.97-15.235
			c-1.979-3.802-4.663-6.563-8.047-8.282c-3.387-1.719-7.215-2.578-11.485-2.578h-17.814V1849.672z"/>
		<path style="fill:#FFFFFF;" d="M3742.872,1867.174l39.379-107.196h27.189l39.222,107.196h-23.752l-8.281-22.189h-43.441
			l-8.282,22.189H3742.872z M3778.812,1828.578h32.034l-15.626-44.535h-0.625L3778.812,1828.578z"/>
	</g>
	<g>
		<path style="fill:#FFFFFF;" d="M1948.709,888.238v114.166h-31.081V888.238h-39.613v-25.19h110.104v25.19H1948.709z"/>
		<path style="fill:#FFFFFF;" d="M2036.871,929.273l-42.66-66.225h36.77l26.408,42.66h0.812
			c13.813-20.854,22.818-35.074,27.018-42.66h33.925c-2.71,4.2-8.094,12.563-16.149,25.088
			c-8.059,12.528-16.962,26.104-26.713,40.73c9.344,14.493,18.688,29.018,28.033,43.574c9.345,14.56,15.709,24.548,19.096,29.963
			h-36.769l-30.878-49.77h-0.812c-17.471,26.951-27.9,43.542-31.284,49.77h-33.925L2036.871,929.273z"/>
		<path style="fill:#FFFFFF;" d="M1726.937,1175.856c-7.606,0-14.56-1.121-20.861-3.359c-6.304-2.239-11.356-5.755-15.158-10.548
			c-3.804-4.791-5.704-11.095-5.704-18.908c0-0.625,0-1.223,0-1.797c0-0.571,0.051-1.118,0.156-1.641h21.096
			c-0.105,0.522-0.156,0.991-0.156,1.406c0,0.417,0,0.886,0,1.406c0,3.335,0.806,6.199,2.422,8.595
			c1.614,2.397,4.009,4.219,7.188,5.469c3.176,1.25,6.954,1.875,11.329,1.875c4.895,0,8.907-0.493,12.032-1.484
			c3.125-0.989,5.469-2.525,7.032-4.61c1.562-2.083,2.344-4.634,2.344-7.657c0-3.228-1.121-5.806-3.359-7.735
			c-2.242-1.926-5.157-3.462-8.751-4.609c-3.594-1.146-7.554-2.212-11.876-3.204c-4.324-0.989-8.648-2.161-12.97-3.516
			c-4.324-1.353-8.309-3.176-11.954-5.469c-3.648-2.29-6.563-5.313-8.751-9.063c-2.188-3.75-3.281-8.541-3.281-14.376
			c0-6.978,1.899-12.76,5.704-17.345c3.801-4.583,8.853-8.021,15.157-10.313c6.302-2.29,13.151-3.438,20.549-3.438
			c7.396,0,14.115,1.069,20.158,3.203c6.041,2.137,10.885,5.469,14.533,10.001c3.646,4.532,5.469,10.392,5.469,17.58v2.032h-20.783
			v-1.875c0-2.812-0.757-5.259-2.266-7.344c-1.511-2.083-3.672-3.672-6.485-4.766c-2.813-1.094-6.25-1.641-10.313-1.641
			c-3.75,0-7.059,0.391-9.923,1.172c-2.866,0.781-5.079,2.031-6.641,3.75c-1.562,1.719-2.344,3.933-2.344,6.641
			c0,3.125,1.094,5.625,3.281,7.5c2.188,1.875,5.103,3.36,8.751,4.454c3.645,1.094,7.681,2.136,12.11,3.125
			c4.427,0.991,8.802,2.136,13.126,3.438c4.322,1.304,8.307,3.074,11.954,5.313c3.646,2.241,6.563,5.21,8.751,8.907
			c2.188,3.699,3.281,8.414,3.281,14.142c0,8.336-1.98,15.028-5.938,20.08c-3.96,5.054-9.297,8.75-16.017,11.095
			C1743.11,1174.684,1735.478,1175.856,1726.937,1175.856z"/>
		<path style="fill:#FFFFFF;" d="M1789.91,1078.348v-16.564h22.033v16.564H1789.91z M1790.222,1174.294v-79.851h21.408v79.851
			H1790.222z"/>
		<path style="fill:#FFFFFF;" d="M1846.944,1203.671c-3.647,0-6.954-0.859-9.923-2.578c-2.969-1.719-5.366-4.039-7.188-6.954
			c-1.824-2.918-2.734-6.095-2.734-9.532c0-3.855,1.04-7.422,3.125-10.704c2.083-3.282,4.947-5.755,8.595-7.422
			c-2.293-1.458-4.09-3.36-5.391-5.704c-1.304-2.344-1.954-4.817-1.954-7.423c0-3.853,1.25-7.161,3.75-9.922
			c2.5-2.759,5.677-4.766,9.532-6.017c-3.23-1.978-5.887-4.426-7.97-7.344c-2.085-2.915-3.125-6.509-3.125-10.782
			c0-4.478,1.223-8.75,3.672-12.813c2.446-4.063,6.146-7.344,11.094-9.845c4.947-2.5,11.224-3.75,18.83-3.75
			c3.125,0,6.041,0.156,8.75,0.469c2.708,0.312,5.103,0.835,7.188,1.562c4.062-2.188,7.056-4.583,8.985-7.188
			c1.927-2.603,2.994-5.157,3.204-7.657h16.72c0,3.543-0.679,6.72-2.032,9.532c-1.355,2.813-3.257,5.132-5.704,6.954
			c-2.449,1.824-5.391,3.152-8.829,3.985l-0.156,0.469c2.5,2.085,4.505,4.532,6.016,7.344c1.509,2.813,2.266,5.887,2.266,9.22
			c0,4.585-1.277,8.805-3.828,12.657c-2.554,3.855-6.148,6.954-10.782,9.298c-4.637,2.344-10.079,3.516-16.33,3.516h-11.72
			c-3.23,0-5.73,0.652-7.501,1.954c-1.772,1.304-2.656,3.047-2.656,5.235c0,1.98,0.806,3.647,2.422,5
			c1.614,1.355,4.192,2.031,7.735,2.031h27.659c7.291,0,13.021,2.136,17.189,6.407c4.165,4.273,6.25,9.532,6.25,15.783
			c0,4.375-1.094,8.411-3.282,12.11c-2.188,3.697-5.235,6.641-9.141,8.829c-3.907,2.188-8.414,3.281-13.517,3.281H1846.944z
			 M1855.07,1190.389h27.033c2.813,0,5.235-0.913,7.267-2.735c2.031-1.824,3.047-4.038,3.047-6.641c0-2.397-0.859-4.429-2.578-6.094
			s-3.882-2.5-6.485-2.5h-28.284c-2.71,0-5,0.886-6.876,2.656c-1.875,1.77-2.812,3.853-2.812,6.25c0,2.396,0.938,4.505,2.812,6.329
			C1850.069,1189.476,1852.359,1190.389,1855.07,1190.389z M1868.821,1131.321c4.583,0,8.204-1.301,10.86-3.906
			c2.656-2.603,3.985-5.728,3.985-9.376c0-3.646-1.329-6.797-3.985-9.454c-2.656-2.656-6.277-3.984-10.86-3.984
			c-4.585,0-8.23,1.328-10.938,3.984c-2.71,2.657-4.063,5.809-4.063,9.454c0,3.648,1.353,6.773,4.063,9.376
			C1860.59,1130.02,1864.235,1131.321,1868.821,1131.321z"/>
		<path style="fill:#FFFFFF;" d="M1947.888,1174.294l39.378-107.197h27.19l39.222,107.197h-23.751l-8.282-22.189h-43.442
			l-8.282,22.189H1947.888z M1983.828,1135.697h32.034l-15.626-44.535h-0.625L1983.828,1135.697z"/>
		<path style="fill:#FFFFFF;" d="M2064.929,1174.294v-112.51h21.408v112.51H2064.929z"/>
		<path style="fill:#FFFFFF;" d="M2109.773,1078.348v-16.564h22.033v16.564H2109.773z M2110.086,1174.294v-79.851h21.408v79.851
			H2110.086z"/>
		<path style="fill:#FFFFFF;" d="M2186.029,1175.856c-6.773,0-12.892-1.665-18.361-5c-5.469-3.333-9.767-7.942-12.892-13.829
			c-3.125-5.884-4.688-12.63-4.688-20.236v-4.844c0-5.728,0.962-10.963,2.891-15.705c1.927-4.739,4.556-8.88,7.892-12.423
			c3.332-3.541,7.239-6.251,11.72-8.126c4.478-1.875,9.271-2.812,14.376-2.812h2.969c6.979,0,13.048,1.382,18.205,4.141
			c5.156,2.762,9.114,6.617,11.876,11.563c2.759,4.949,4.141,10.758,4.141,17.423h-18.595c0-4.27-0.652-7.813-1.954-10.625
			c-1.304-2.813-3.151-4.947-5.547-6.407c-2.397-1.458-5.262-2.188-8.595-2.188c-4.793,0-8.805,1.641-12.032,4.922
			c-3.23,3.282-4.844,8.101-4.844,14.454v16.095c0,6.25,1.535,11.07,4.609,14.455c3.071,3.386,7.213,5.079,12.423,5.079
			c3.646,0,6.72-0.625,9.22-1.875c2.5-1.25,4.399-3.281,5.703-6.094c1.302-2.812,1.954-6.563,1.954-11.251h17.657
			c0,7.086-1.511,13.102-4.531,18.049c-3.022,4.949-7.188,8.726-12.501,11.329c-5.313,2.603-11.356,3.906-18.127,3.906H2186.029z"/>
		<path style="fill:#FFFFFF;" d="M2275.724,1175.856c-7.501,0-14.142-1.538-19.924-4.61c-5.781-3.071-10.289-7.552-13.517-13.438
			c-3.23-5.884-4.844-13.048-4.844-21.486v-3.906c0-8.438,1.691-15.6,5.078-21.486c3.384-5.884,8.021-10.365,13.907-13.439
			c5.885-3.071,12.579-4.609,20.08-4.609h2.5c7.083,0,13.256,1.433,18.518,4.297c5.259,2.867,9.322,6.876,12.188,12.032
			c2.864,5.157,4.297,11.173,4.297,18.049v9.844h-54.066c0,5,0.625,9.376,1.875,13.126c1.25,3.75,3.125,6.617,5.625,8.594
			c2.5,1.98,5.782,2.969,9.845,2.969c3.333,0,6.251-0.649,8.751-1.954c2.5-1.301,4.478-3.254,5.938-5.86
			c1.458-2.603,2.188-5.782,2.188-9.532h19.845c0,6.148-1.562,11.59-4.688,16.33c-3.125,4.741-7.423,8.438-12.892,11.095
			c-5.47,2.656-11.798,3.984-18.986,3.984H2275.724z M2260.098,1126.164h32.972c0-6.563-1.434-11.432-4.298-14.61
			c-2.866-3.177-6.797-4.766-11.798-4.766c-4.688,0-8.621,1.641-11.798,4.922
			C2261.997,1114.992,2260.305,1119.811,2260.098,1126.164z"/>
		<path style="fill:#FFFFFF;" d="M1769.595,1347.746c-7.606,0-14.56-1.121-20.861-3.359c-6.304-2.239-11.356-5.755-15.158-10.548
			c-3.804-4.791-5.704-11.095-5.704-18.908c0-0.625,0-1.223,0-1.797c0-0.571,0.051-1.118,0.156-1.641h21.096
			c-0.105,0.522-0.156,0.991-0.156,1.406c0,0.417,0,0.886,0,1.406c0,3.335,0.806,6.199,2.422,8.595
			c1.614,2.397,4.009,4.219,7.188,5.469c3.176,1.25,6.954,1.875,11.329,1.875c4.895,0,8.907-0.493,12.032-1.484
			c3.125-0.989,5.469-2.525,7.032-4.61c1.562-2.083,2.344-4.634,2.344-7.657c0-3.228-1.121-5.806-3.359-7.735
			c-2.242-1.926-5.157-3.462-8.751-4.609c-3.594-1.146-7.554-2.212-11.876-3.204c-4.324-0.989-8.648-2.161-12.97-3.516
			c-4.324-1.353-8.309-3.176-11.954-5.469c-3.648-2.29-6.563-5.313-8.751-9.063c-2.188-3.75-3.281-8.541-3.281-14.376
			c0-6.978,1.899-12.76,5.704-17.345c3.801-4.583,8.853-8.021,15.157-10.313c6.302-2.29,13.151-3.438,20.549-3.438
			c7.396,0,14.115,1.069,20.158,3.203c6.041,2.137,10.885,5.469,14.533,10.001c3.646,4.532,5.469,10.392,5.469,17.58v2.032h-20.783
			v-1.875c0-2.812-0.757-5.259-2.266-7.344c-1.511-2.083-3.672-3.672-6.485-4.766c-2.813-1.094-6.25-1.641-10.313-1.641
			c-3.75,0-7.059,0.391-9.923,1.172c-2.866,0.781-5.079,2.031-6.641,3.75c-1.562,1.719-2.344,3.933-2.344,6.641
			c0,3.125,1.094,5.625,3.281,7.5c2.188,1.875,5.103,3.36,8.751,4.454c3.645,1.094,7.681,2.136,12.11,3.125
			c4.427,0.991,8.802,2.136,13.126,3.438c4.322,1.304,8.307,3.074,11.954,5.313c3.646,2.241,6.563,5.21,8.751,8.907
			c2.188,3.699,3.281,8.414,3.281,14.142c0,8.336-1.98,15.028-5.938,20.08c-3.96,5.054-9.297,8.75-16.017,11.095
			C1785.768,1346.575,1778.135,1347.746,1769.595,1347.746z"/>
		<path style="fill:#FFFFFF;" d="M1832.567,1250.238v-16.564h22.033v16.564H1832.567z M1832.88,1346.184v-79.851h21.408v79.851
			H1832.88z"/>
		<path style="fill:#FFFFFF;" d="M1889.602,1375.561c-3.647,0-6.954-0.859-9.923-2.578c-2.969-1.719-5.366-4.039-7.188-6.954
			c-1.824-2.918-2.734-6.095-2.734-9.532c0-3.855,1.04-7.422,3.125-10.704c2.083-3.282,4.947-5.755,8.595-7.422
			c-2.293-1.458-4.09-3.36-5.391-5.704c-1.304-2.344-1.954-4.817-1.954-7.423c0-3.853,1.25-7.161,3.75-9.922
			c2.5-2.759,5.677-4.766,9.532-6.017c-3.23-1.978-5.887-4.426-7.97-7.344c-2.085-2.915-3.125-6.509-3.125-10.782
			c0-4.478,1.223-8.75,3.672-12.813c2.446-4.063,6.146-7.344,11.094-9.845c4.947-2.5,11.224-3.75,18.83-3.75
			c3.125,0,6.041,0.156,8.75,0.469c2.708,0.312,5.103,0.835,7.188,1.562c4.062-2.188,7.056-4.583,8.985-7.188
			c1.927-2.603,2.994-5.157,3.204-7.657h16.72c0,3.543-0.679,6.72-2.032,9.532c-1.355,2.813-3.257,5.132-5.704,6.954
			c-2.449,1.824-5.391,3.152-8.829,3.985l-0.156,0.469c2.5,2.085,4.505,4.532,6.016,7.344c1.509,2.813,2.266,5.887,2.266,9.22
			c0,4.585-1.277,8.805-3.828,12.657c-2.554,3.855-6.148,6.954-10.782,9.298c-4.637,2.344-10.079,3.516-16.33,3.516h-11.72
			c-3.23,0-5.73,0.652-7.501,1.954c-1.772,1.304-2.656,3.047-2.656,5.235c0,1.98,0.806,3.647,2.422,5
			c1.614,1.355,4.192,2.031,7.735,2.031h27.659c7.291,0,13.021,2.136,17.189,6.407c4.165,4.273,6.25,9.532,6.25,15.783
			c0,4.375-1.094,8.411-3.282,12.11c-2.188,3.697-5.235,6.641-9.141,8.829c-3.907,2.188-8.414,3.281-13.517,3.281H1889.602z
			 M1897.728,1362.279h27.033c2.813,0,5.235-0.913,7.267-2.735c2.031-1.824,3.047-4.038,3.047-6.641
			c0-2.397-0.859-4.429-2.578-6.094s-3.882-2.5-6.485-2.5h-28.284c-2.71,0-5,0.886-6.876,2.656c-1.875,1.77-2.812,3.853-2.812,6.25
			c0,2.396,0.938,4.505,2.812,6.329C1892.727,1361.366,1895.017,1362.279,1897.728,1362.279z M1911.479,1303.211
			c4.583,0,8.204-1.301,10.86-3.906c2.656-2.603,3.985-5.728,3.985-9.376c0-3.646-1.329-6.797-3.985-9.454
			c-2.656-2.656-6.277-3.984-10.86-3.984c-4.585,0-8.23,1.328-10.938,3.984c-2.71,2.657-4.063,5.809-4.063,9.454
			c0,3.648,1.353,6.773,4.063,9.376C1903.248,1301.91,1906.893,1303.211,1911.479,1303.211z"/>
		<path style="fill:#FFFFFF;" d="M2002.109,1346.184v-107.197h52.192c5.415,0,10.26,1.042,14.532,3.125
			c4.271,2.085,7.579,5,9.923,8.75s3.516,8.18,3.516,13.283c0,5.312-0.913,9.715-2.734,13.204c-1.824,3.491-4.116,6.25-6.876,8.282
			c-2.761,2.032-5.652,3.516-8.672,4.454v0.938c2.082,0.312,4.348,1.016,6.797,2.11c2.446,1.094,4.739,2.578,6.876,4.453
			c2.134,1.875,3.853,4.219,5.156,7.032c1.302,2.812,1.953,6.304,1.953,10.47c0,6.043-1.354,11.407-4.062,16.095
			c-2.71,4.688-6.407,8.36-11.095,11.017c-4.688,2.657-10.055,3.985-16.095,3.985H2002.109z M2023.674,1283.21h23.439
			c2.812,0,5.235-0.676,7.267-2.031c2.031-1.353,3.567-3.15,4.609-5.391c1.04-2.239,1.562-4.661,1.562-7.267
			c0-4.27-1.069-7.474-3.203-9.61c-2.137-2.134-5.184-3.204-9.142-3.204h-24.533V1283.21z M2023.674,1329.151h24.689
			c2.812,0,5.286-0.676,7.423-2.031c2.134-1.353,3.802-3.177,5-5.469c1.196-2.291,1.797-4.896,1.797-7.813
			c0-2.915-0.625-5.391-1.875-7.422s-2.944-3.619-5.078-4.766c-2.137-1.145-4.508-1.719-7.11-1.719h-24.846V1329.151z"/>
		<path style="fill:#FFFFFF;" d="M2137.433,1347.746c-7.293,0-13.829-1.641-19.611-4.922c-5.781-3.281-10.313-7.942-13.595-13.985
			c-3.281-6.041-4.922-13.126-4.922-21.252v-2.812c0-8.229,1.641-15.314,4.922-21.252s7.786-10.548,13.517-13.83
			c5.729-3.281,12.24-4.922,19.533-4.922h3.125c7.396,0,13.959,1.641,19.689,4.922c5.729,3.282,10.235,7.892,13.517,13.83
			s4.923,13.023,4.923,21.252v2.812c0,8.231-1.642,15.341-4.923,21.33c-3.281,5.992-7.788,10.626-13.517,13.907
			c-5.73,3.282-12.242,4.922-19.533,4.922H2137.433z M2138.839,1333.683c3.228,0,6.119-0.754,8.673-2.266
			c2.552-1.509,4.583-3.774,6.094-6.797c1.51-3.02,2.267-6.614,2.267-10.782v-15.313c0-4.271-0.757-7.865-2.267-10.782
			c-1.511-2.916-3.542-5.157-6.094-6.72c-2.554-1.562-5.445-2.344-8.673-2.344c-3.125,0-5.991,0.781-8.595,2.344
			c-2.604,1.563-4.663,3.804-6.172,6.72c-1.512,2.917-2.266,6.512-2.266,10.782v15.313c0,4.168,0.754,7.762,2.266,10.782
			c1.509,3.023,3.567,5.289,6.172,6.797C2132.848,1332.929,2135.714,1333.683,2138.839,1333.683z"/>
		<path style="fill:#FFFFFF;" d="M2238.065,1347.746c-11.669,0-20.576-4.688-26.722-14.063l-7.344,12.501h-7.813v-112.51h21.408
			v42.035c2.188-3.021,5.208-5.599,9.063-7.735c3.853-2.134,8.438-3.203,13.751-3.203c5.728,0,10.938,1.328,15.626,3.984
			c4.688,2.657,8.438,6.798,11.251,12.423s4.22,12.867,4.22,21.72v3.438c0,9.481-1.512,17.294-4.532,23.439
			c-3.022,6.148-7.085,10.68-12.188,13.595C2249.68,1346.286,2244.105,1347.746,2238.065,1347.746z M2233.533,1333.683
			c3.021,0,5.677-0.728,7.97-2.188c2.29-1.458,4.114-3.723,5.469-6.797c1.354-3.071,2.032-7.005,2.032-11.798v-14.063
			c0-4.375-0.652-7.994-1.954-10.86c-1.304-2.864-3.073-5.052-5.312-6.563c-2.241-1.509-4.871-2.266-7.892-2.266
			c-2.917,0-5.625,0.757-8.125,2.266c-2.501,1.511-4.48,3.726-5.938,6.641c-1.46,2.917-2.188,6.563-2.188,10.938v13.907
			c0,4.793,0.703,8.727,2.109,11.798c1.406,3.074,3.333,5.34,5.782,6.797C2227.933,1332.955,2230.615,1333.683,2233.533,1333.683z"
			/>
	</g>
</g>
</svg>
