<?xml version="1.0" encoding="iso-8859-1"?>
<!-- Generator: Adobe Illustrator 29.6.0, SVG Export Plug-In . SVG Version: 9.03 Build 0)  -->
<svg version="1.1" xmlns="http://www.w3.org/2000/svg" xmlns:xlink="http://www.w3.org/1999/xlink" x="0px" y="0px"
	 viewBox="0 0 2774 2774" style="enable-background:new 0 0 2774 2774;" xml:space="preserve">
<g id="Shapes">
	<circle style="fill:#FF5553;" cx="1387" cy="1387" r="1342.99"/>
</g>
<g id="Text">
	<g>
		<path style="fill:#FFFFFF;" d="M923.361,1169.76H748.772l-30.697,86.335h-95.289l159.241-438.71h117.671l159.24,438.71H955.337
			L923.361,1169.76z M775.632,1094.937h121.509c-16.208-48.174-35.813-105.521-58.836-172.031h-3.197L775.632,1094.937z"/>
		<path style="fill:#FFFFFF;" d="M1102.42,1256.095V795.641h93.37v460.454H1102.42z"/>
		<path style="fill:#FFFFFF;" d="M1280.201,795.641h94.649v73.545h-94.649V795.641z M1280.84,1256.095V929.301h93.37v326.794
			H1280.84z"/>
		<path style="fill:#FFFFFF;" d="M1555.193,1177.115c11.082,14.289,26.001,21.424,44.767,21.424
			c19.605,0,35.063-6.076,46.365-18.227c11.291-12.151,16.947-30.157,16.947-54.039h88.254c0,30.277-6.506,55.638-19.506,76.103
			c-13.01,20.465-30.167,35.604-51.481,45.406c-21.323,9.803-44.766,14.709-70.347,14.709h-10.232
			c-47.754,0-85.695-14.169-113.834-42.528c-28.14-28.349-42.209-67.679-42.209-117.991v-18.546
			c0-33.255,6.715-61.923,20.146-86.015c13.43-24.082,31.865-42.528,55.318-55.318c23.442-12.791,50.302-19.186,80.579-19.186
			h10.232c25.151,0,48.493,5.436,70.027,16.308c21.523,10.872,38.791,26.65,51.801,47.324c13,20.685,19.506,45.086,19.506,73.225
			h-92.73c0-22.163-4.906-39.86-14.709-53.08c-9.812-13.21-24.302-19.825-43.487-19.825s-34.324,7.575-45.406,22.703
			c-11.092,15.139-16.627,34.214-16.627,57.237v56.917C1538.566,1145.039,1544.102,1162.835,1555.193,1177.115z"/>
		<path style="fill:#FFFFFF;" d="M2103.893,1205.893c-13.65,19.405-31.656,33.685-54.04,42.848
			c-22.383,9.163-46.794,13.75-73.225,13.75h-10.232c-30.277,0-57.557-6.395-81.858-19.186
			c-24.302-12.79-43.388-31.227-57.236-55.318c-13.86-24.082-20.785-52.76-20.785-86.015v-18.546
			c0-32.825,7.035-61.394,21.104-85.695s33.146-42.848,57.237-55.638c24.081-12.791,51.261-19.186,81.538-19.186h10.232
			c26.431,0,50.941,5.436,73.545,16.308c22.593,10.872,40.709,26.65,54.359,47.324c13.64,20.685,20.464,45.086,20.464,73.225v48.604
			h-223.831v15.349c0,21.324,6.285,39.121,18.865,53.4c12.571,14.289,29.738,21.424,51.481,21.424
			c19.605,0,35.063-5.436,46.365-16.308c11.292-10.872,16.947-26.96,16.947-48.284h89.533
			C2124.357,1162.516,2117.532,1186.498,2103.893,1205.893z M1921.31,1006.683c-11.731,13.22-18.446,30.058-20.145,50.522h129.183
			c0-21.744-5.017-38.9-15.028-51.481c-10.022-12.571-26.121-18.866-48.284-18.866
			C1948.27,986.857,1933.031,993.473,1921.31,1006.683z"/>
		<path style="fill:#FFFFFF;" d="M666.6,1757.479c-4.696-6.815-11.092-16.947-19.186-30.377
			c-8.104-13.431-13.43-22.273-15.988-26.54l-2.558,1.918v257.087h-90.172v-438.71h83.777l138.136,203.367l19.186,30.057
			c6.815,11.941,12.151,20.685,15.988,26.221l1.918-1.919v-257.726h90.172v438.71h-83.777L666.6,1757.479z"/>
		<path style="fill:#FFFFFF;" d="M1267.104,1599.517h-189.297v104.882h170.112v78.66h-170.112v176.508H980.6v-438.71h296.737
			L1267.104,1599.517z"/>
		<path style="fill:#FFFFFF;" d="M1572.787,1600.156v359.41h-97.847v-359.41h-124.706v-79.3h346.619v79.3H1572.787z"/>
		<path style="fill:#FFFFFF;" d="M2144.504,1873.231h-174.589l-30.697,86.335h-95.288l159.24-438.71h117.671l159.241,438.71
			h-103.603L2144.504,1873.231z M1996.774,1798.407h121.509c-16.208-48.174-35.813-105.521-58.836-172.03h-3.197L1996.774,1798.407z
			"/>
	</g>
</g>
</svg>
