<?xml version="1.0" encoding="iso-8859-1"?>
<!-- Generator: Adobe Illustrator 29.6.0, SVG Export Plug-In . SVG Version: 9.03 Build 0)  -->
<svg version="1.1" xmlns="http://www.w3.org/2000/svg" xmlns:xlink="http://www.w3.org/1999/xlink" x="0px" y="0px"
	 viewBox="0 0 4000 2774" style="enable-background:new 0 0 4000 2774;" xml:space="preserve">
<g id="Layer_3">
	<path style="fill:#B6CEFF;" d="M2017.6,1089.105c0,235.882-68.287,424.409-204.862,565.581
		c-140.891,146.898-219.392,342.668-219.021,546.21c0.211,8.13,0.211,16.264,0,24.394
		c-6.736,260.093-223.044,465.479-483.137,458.743s-465.479-223.044-458.743-483.137c0.371-203.542-78.13-399.312-219.021-546.21
		c-136.575-141.136-204.862-329.663-204.862-565.581c0-427.304,400.775-773.443,894.823-773.443S2017.6,661.801,2017.6,1089.105
		L2017.6,1089.105z"/>
</g>
<g id="Shapes">
	<g>
		<g>
			
				<line style="fill:none;stroke:#000000;stroke-width:12;stroke-miterlimit:10;" x1="1824.26" y1="1280.714" x2="2111.286" y2="1280.714"/>
			<g>
				<polygon points="2102.532,1310.632 2154.344,1280.714 2102.532,1250.796 				"/>
			</g>
		</g>
	</g>
	<g>
		<g>
			
				<line style="fill:none;stroke:#000000;stroke-width:12;stroke-miterlimit:10;" x1="2687.676" y1="1116.697" x2="3219.424" y2="932.9"/>
			<g>
				<polygon points="3220.924,964.036 3260.119,918.834 3201.377,907.483 				"/>
			</g>
		</g>
	</g>
	<g>
		<g>
			
				<line style="fill:none;stroke:#000000;stroke-width:12;stroke-miterlimit:10;" x1="2677.009" y1="1436.696" x2="3193.301" y2="1699.452"/>
			<g>
				<polygon points="3171.93,1722.145 3231.675,1718.982 3199.069,1668.818 				"/>
			</g>
		</g>
	</g>
	<circle style="fill:#FF5553;stroke:#FFFFFF;stroke-miterlimit:10;" cx="801.607" cy="851.799" r="270"/>
	<circle style="fill:#FF5553;" cx="1121.606" cy="2229.574" r="270"/>
	<circle style="fill:#FF5553;" cx="3502.046" cy="798.316" r="270"/>
	<circle style="fill:#FF5553;" cx="3502.046" cy="1754.908" r="270"/>
	<path style="fill:#0033AD;" d="M2677.809,1470.714h-494.232c-18.086,0-32.884-14.798-32.884-32.884v-314.232
		c0-18.086,14.798-32.884,32.884-32.884h494.232c18.086,0,32.884,14.798,32.884,32.884v314.232
		C2710.693,1455.917,2695.895,1470.714,2677.809,1470.714z"/>
	<g>
		<path d="M166.688,220.39c-7.869,0-15.269-1.335-22.2-4c-6.935-2.666-13.035-6.632-18.3-11.9c-5.269-5.266-9.369-11.831-12.3-19.7
			c-2.935-7.865-4.4-17.131-4.4-27.8v-14.2c0-10.665,1.5-19.931,4.5-27.8c3-7.865,7.131-14.431,12.4-19.7
			c5.266-5.266,11.331-9.23,18.2-11.899c6.866-2.666,14.166-4,21.9-4h6.8c8,0,15.431,1.334,22.3,4
			c6.866,2.669,12.932,6.634,18.2,11.899c5.266,5.27,9.366,11.835,12.3,19.7c2.932,7.869,4.4,17.135,4.4,27.8v14.2
			c0,10.669-1.5,19.935-4.5,27.8c-3,7.869-7.135,14.435-12.4,19.7c-5.269,5.269-11.334,9.234-18.2,11.9
			c-6.869,2.665-14.169,4-21.9,4H166.688z M169.889,198.19c4.266,0,8.2-0.631,11.8-1.9c3.6-1.266,6.731-3.266,9.4-6
			c2.666-2.73,4.766-6.3,6.3-10.699c1.531-4.4,2.3-9.801,2.3-16.2v-26.8c0-6.4-0.769-11.832-2.3-16.301
			c-1.535-4.465-3.634-8.065-6.3-10.8c-2.668-2.731-5.8-4.731-9.4-6c-3.6-1.266-7.469-1.899-11.6-1.899
			c-4.134,0-8.034,0.634-11.7,1.899c-3.669,1.269-6.834,3.269-9.5,6c-2.669,2.734-4.769,6.3-6.3,10.7c-1.534,4.4-2.3,9.8-2.3,16.2
			v26.8c0,6.4,0.766,11.834,2.3,16.3c1.531,4.469,3.631,8.069,6.3,10.8c2.666,2.734,5.8,4.734,9.4,6
			C161.889,197.559,165.754,198.19,169.889,198.19z"/>
		<path d="M254.087,218.39v-144h27.4v144H254.087z"/>
		<path d="M346.685,220.39c-8,0-15.134-1.869-21.4-5.601c-6.269-3.73-11.234-9.531-14.9-17.399c-3.669-7.866-5.5-17.866-5.5-30v-2.2
			c0-11.331,1.831-20.766,5.5-28.3c3.666-7.531,8.565-13.2,14.7-17c6.131-3.8,12.8-5.7,20-5.7c7.2,0,13.231,1.334,18.1,4
			c4.866,2.669,8.565,6,11.1,10v-53.8h27.199v144h-21.398l-3-13.601c-3.201,4.535-7.27,8.27-12.201,11.2
			C359.95,218.921,353.885,220.39,346.685,220.39z M353.685,202.39c3.866,0,7.331-0.932,10.4-2.8c3.066-1.866,5.532-4.766,7.399-8.7
			c1.867-3.932,2.801-8.966,2.801-15.101v-17.8c0-5.6-0.9-10.266-2.699-14c-1.801-3.731-4.27-6.565-7.401-8.5
			c-3.134-1.931-6.634-2.899-10.5-2.899c-5.6,0-10.334,2.168-14.2,6.5c-3.869,4.334-5.8,10.634-5.8,18.899v17.8
			c0,6.135,0.9,11.169,2.7,15.101c1.8,3.935,4.2,6.834,7.2,8.7C346.584,201.458,349.95,202.39,353.685,202.39z"/>
		<path d="M522.28,220.39c-10.27,0-19.135-1.9-26.601-5.7c-7.469-3.8-13.234-9.166-17.3-16.1c-4.068-6.932-6.1-15-6.1-24.2v-93.2
			h29.199v92.8c0,7.2,2.231,13.034,6.7,17.5c4.466,4.469,10.5,6.7,18.101,6.7c7.6,0,13.6-2.266,18-6.8
			c4.399-4.531,6.6-10.331,6.6-17.4v-92.8h29.2v93.2c0,9.2-2.234,17.269-6.7,24.2c-4.469,6.934-10.6,12.3-18.4,16.1
			c-7.8,3.8-16.834,5.7-27.1,5.7H522.28z"/>
		<path d="M638.477,218.39V103.789h-39.399v-22.6h107.8v22.6h-39.4V218.39H638.477z"/>
		<path d="M711.875,218.39l46.4-72.4l-41.8-64.8h33.8l27.6,44.2h0.601l28-44.2h31.2l-42.2,65l46.399,72.2h-33.8l-32.2-51.2h-0.6
			l-32,51.2H711.875z"/>
		<path d="M908.077,220.39c-7.869,0-15.27-1.335-22.2-4c-6.935-2.666-13.034-6.632-18.3-11.9c-5.27-5.266-9.369-11.831-12.301-19.7
			c-2.934-7.865-4.399-17.131-4.399-27.8v-14.2c0-10.665,1.5-19.931,4.5-27.8c3-7.865,7.131-14.431,12.399-19.7
			c5.266-5.266,11.332-9.23,18.2-11.899c6.866-2.666,14.166-4,21.9-4h6.8c8,0,15.432,1.334,22.3,4
			c6.866,2.669,12.932,6.634,18.2,11.899c5.266,5.27,9.365,11.835,12.3,19.7c2.932,7.869,4.4,17.135,4.4,27.8v14.2
			c0,10.669-1.5,19.935-4.5,27.8c-3,7.869-7.135,14.435-12.4,19.7c-5.269,5.269-11.334,9.234-18.2,11.9
			c-6.868,2.665-14.168,4-21.899,4H908.077z M911.276,198.19c4.266,0,8.2-0.631,11.801-1.9c3.6-1.266,6.73-3.266,9.399-6
			c2.666-2.73,4.766-6.3,6.3-10.699c1.531-4.4,2.301-9.801,2.301-16.2v-26.8c0-6.4-0.77-11.832-2.301-16.301
			c-1.534-4.465-3.634-8.065-6.3-10.8c-2.669-2.731-5.8-4.731-9.399-6c-3.601-1.266-7.469-1.899-11.601-1.899
			c-4.134,0-8.034,0.634-11.7,1.899c-3.668,1.269-6.834,3.269-9.5,6c-2.668,2.734-4.769,6.3-6.3,10.7c-1.534,4.4-2.3,9.8-2.3,16.2
			v26.8c0,6.4,0.766,11.834,2.3,16.3c1.531,4.469,3.632,8.069,6.3,10.8c2.666,2.734,5.801,4.734,9.4,6
			C903.276,197.559,907.142,198.19,911.276,198.19z"/>
		<path d="M1086.473,220.39c-9.734,0-18.634-1.435-26.7-4.3c-8.068-2.866-14.534-7.366-19.399-13.5c-4.869-6.132-7.3-14.2-7.3-24.2
			c0-0.8,0-1.565,0-2.3c0-0.731,0.065-1.432,0.199-2.101h27c-0.134,0.669-0.199,1.269-0.199,1.8c0,0.535,0,1.135,0,1.801
			c0,4.269,1.031,7.934,3.1,11c2.065,3.068,5.131,5.399,9.2,7c4.065,1.6,8.899,2.399,14.5,2.399c6.266,0,11.399-0.631,15.399-1.899
			c4-1.266,7-3.231,9-5.9c2-2.666,3-5.932,3-9.8c0-4.132-1.434-7.432-4.3-9.9c-2.868-2.466-6.6-4.431-11.2-5.899
			c-4.6-1.466-9.668-2.832-15.199-4.101c-5.535-1.266-11.069-2.766-16.601-4.5c-5.534-1.731-10.634-4.065-15.3-7
			c-4.669-2.931-8.4-6.8-11.2-11.6s-4.2-10.932-4.2-18.4c0-8.931,2.432-16.331,7.301-22.2c4.865-5.865,11.331-10.266,19.399-13.199
			c8.065-2.932,16.831-4.4,26.3-4.4c9.466,0,18.066,1.369,25.801,4.1c7.73,2.734,13.931,7,18.6,12.801c4.666,5.8,7,13.3,7,22.5v2.6
			h-26.6v-2.4c0-3.6-0.969-6.73-2.9-9.399c-1.935-2.666-4.7-4.7-8.3-6.101c-3.601-1.399-8-2.1-13.2-2.1c-4.8,0-9.034,0.5-12.7,1.5
			c-3.669,1-6.5,2.6-8.5,4.8s-3,5.034-3,8.5c0,4,1.4,7.2,4.2,9.601c2.8,2.399,6.531,4.3,11.2,5.699c4.665,1.4,9.831,2.734,15.5,4
			c5.665,1.27,11.266,2.734,16.8,4.4c5.531,1.669,10.631,3.935,15.3,6.8c4.666,2.869,8.4,6.669,11.2,11.4
			c2.8,4.734,4.2,10.769,4.2,18.1c0,10.669-2.534,19.234-7.601,25.7c-5.068,6.469-11.899,11.2-20.5,14.2
			C1107.173,218.89,1097.405,220.39,1086.473,220.39z"/>
		<path d="M1210.872,220.39c-9.6,0-18.1-1.969-25.5-5.9c-7.4-3.931-13.169-9.665-17.3-17.2c-4.135-7.531-6.2-16.699-6.2-27.5v-5
			c0-10.8,2.166-19.965,6.5-27.5c4.331-7.531,10.266-13.266,17.8-17.199c7.531-3.932,16.101-5.9,25.7-5.9h3.2
			c9.065,0,16.966,1.834,23.7,5.5c6.73,3.669,11.931,8.8,15.6,15.4c3.666,6.6,5.5,14.3,5.5,23.1v12.6h-69.2c0,6.4,0.8,12,2.4,16.801
			c1.6,4.8,4,8.469,7.2,11c3.199,2.534,7.399,3.8,12.6,3.8c4.266,0,8-0.831,11.2-2.5c3.2-1.666,5.731-4.166,7.6-7.5
			c1.866-3.331,2.8-7.4,2.8-12.2h25.4c0,7.869-2,14.834-6,20.9c-4,6.068-9.5,10.8-16.5,14.199c-7,3.4-15.1,5.101-24.3,5.101
			H1210.872z M1190.872,156.789h42.2c0-8.399-1.835-14.631-5.5-18.699c-3.669-4.066-8.7-6.101-15.101-6.101
			c-6,0-11.034,2.101-15.1,6.3C1193.303,142.49,1191.137,148.659,1190.872,156.789z"/>
		<path d="M1317.468,220.39c-5.734,0-10.869-0.8-15.4-2.4c-4.534-1.6-8.068-4.3-10.6-8.1c-2.534-3.8-3.8-8.831-3.8-15.101V136.59
			h-11.2v-20.4h12l9.6-32.6h16.8v32.6h24v20.4h-24v52.199c0,5.869,1.2,9.601,3.601,11.2c2.399,1.601,5,2.4,7.8,2.4
			c1.466,0,3.5-0.3,6.1-0.9c2.601-0.6,4.7-1.231,6.301-1.899v16.8c-1.734,0.935-3.869,1.7-6.4,2.3c-2.534,0.6-5.1,1.031-7.7,1.3
			C1321.968,220.255,1319.599,220.39,1317.468,220.39z"/>
	</g>
	<g>
		<path style="fill:#FFFFFF;" d="M682.31,819.594l25.2-68.6h17.4l25.1,68.6h-15.2l-5.3-14.2h-27.8l-5.3,14.2H682.31z
			 M705.31,794.893h20.5l-10-28.5h-0.4L705.31,794.893z"/>
		<path style="fill:#FFFFFF;" d="M757.209,819.594v-72h13.7v72H757.209z"/>
		<path style="fill:#FFFFFF;" d="M785.908,758.194v-10.6h14.1v10.6H785.908z M786.107,819.594v-51.1h13.7v51.1H786.107z"/>
		<path style="fill:#FFFFFF;" d="M834.707,820.594c-4.334,0-8.25-1.065-11.75-3.2c-3.5-2.133-6.25-5.083-8.25-8.85
			c-2-3.766-3-8.083-3-12.95v-3.1c0-3.666,0.616-7.016,1.85-10.05c1.232-3.033,2.916-5.683,5.05-7.95c2.133-2.266,4.633-4,7.5-5.2
			c2.866-1.2,5.933-1.8,9.2-1.8h1.9c4.465,0,8.35,0.884,11.65,2.65c3.3,1.768,5.833,4.234,7.6,7.4
			c1.766,3.167,2.65,6.884,2.65,11.15h-11.9c0-2.733-0.417-5-1.25-6.8c-0.834-1.8-2.017-3.166-3.55-4.1
			c-1.534-0.933-3.367-1.4-5.5-1.4c-3.067,0-5.634,1.05-7.7,3.15c-2.067,2.1-3.1,5.184-3.1,9.25v10.3c0,4,0.983,7.084,2.95,9.25
			c1.965,2.167,4.615,3.25,7.95,3.25c2.333,0,4.3-0.4,5.9-1.2c1.6-0.8,2.816-2.1,3.65-3.9c0.833-1.8,1.25-4.2,1.25-7.2h11.3
			c0,4.534-0.967,8.384-2.9,11.55c-1.935,3.167-4.6,5.584-8,7.25s-7.267,2.5-11.6,2.5H834.707z"/>
		<path style="fill:#FFFFFF;" d="M892.106,820.594c-4.8,0-9.05-0.984-12.75-2.95c-3.7-1.965-6.584-4.833-8.65-8.6
			c-2.067-3.766-3.1-8.35-3.1-13.75v-2.5c0-5.4,1.083-9.983,3.25-13.75c2.166-3.766,5.133-6.633,8.9-8.6
			c3.766-1.966,8.05-2.95,12.85-2.95h1.6c4.533,0,8.483,0.917,11.85,2.75c3.365,1.834,5.965,4.4,7.8,7.7
			c1.833,3.3,2.75,7.15,2.75,11.55v6.3h-34.6c0,3.2,0.4,6,1.2,8.4c0.8,2.4,2,4.234,3.6,5.5c1.6,1.267,3.7,1.9,6.3,1.9
			c2.133,0,4-0.416,5.6-1.25c1.6-0.833,2.866-2.083,3.8-3.75c0.933-1.666,1.4-3.7,1.4-6.1h12.7c0,3.935-1,7.417-3,10.45
			c-2,3.034-4.75,5.4-8.25,7.1c-3.5,1.7-7.55,2.55-12.15,2.55H892.106z M882.106,788.794h21.1c0-4.2-0.917-7.316-2.75-9.35
			c-1.834-2.033-4.35-3.05-7.55-3.05c-3,0-5.517,1.05-7.55,3.15C883.322,781.643,882.239,784.728,882.106,788.794z"/>
		<path style="fill:#FFFFFF;" d="M656.909,930.594c-4.535,0-8.6-1.016-12.2-3.05c-3.6-2.033-6.45-4.833-8.55-8.4
			c-2.1-3.565-3.15-7.683-3.15-12.35v-23c0-4.666,1.065-8.8,3.2-12.4c2.133-3.6,5.016-6.4,8.65-8.4c3.633-2,7.75-3,12.35-3h1.7
			c4.266,0,8.116,0.884,11.55,2.65c3.433,1.768,6.183,4.334,8.25,7.7c2.066,3.367,3.1,7.45,3.1,12.25h-12.5
			c0-3.733-1.05-6.65-3.15-8.75s-4.75-3.15-7.95-3.15c-2.2,0-4.15,0.5-5.85,1.5c-1.7,1-3.067,2.35-4.1,4.05
			c-1.035,1.7-1.55,3.617-1.55,5.75v10.9c1.866-2.2,4.15-3.865,6.85-5c2.7-1.133,5.416-1.7,8.15-1.7c4.066,0,7.733,0.834,11,2.5
			c3.266,1.667,5.85,4.067,7.75,7.2c1.9,3.135,2.85,6.935,2.85,11.4c0,4.667-1.1,8.75-3.3,12.25c-2.2,3.5-5.167,6.217-8.9,8.15
			c-3.734,1.933-7.867,2.9-12.4,2.9H656.909z M658.309,920.393c2.466,0,4.533-0.533,6.2-1.6c1.666-1.066,2.965-2.55,3.9-4.45
			c0.933-1.9,1.4-4.116,1.4-6.65c0-2.666-0.484-4.95-1.45-6.85c-0.967-1.9-2.3-3.35-4-4.35c-1.7-1-3.717-1.5-6.05-1.5
			c-2.4,0-4.45,0.517-6.15,1.55c-1.7,1.034-3.035,2.484-4,4.35c-0.967,1.867-1.45,4.1-1.45,6.7c0,2.667,0.483,4.95,1.45,6.85
			c0.965,1.9,2.315,3.367,4.05,4.4C653.941,919.878,655.974,920.393,658.309,920.393z"/>
		<path style="fill:#FFFFFF;" d="M717.607,930.594c-4.4,0-8.4-1.033-12-3.1c-3.6-2.065-6.45-4.9-8.55-8.5s-3.15-7.666-3.15-12.2v-23
			c0-4.6,1.05-8.683,3.15-12.25c2.1-3.566,4.95-6.383,8.55-8.45c3.6-2.065,7.6-3.1,12-3.1h2.9c4.465,0,8.482,1.035,12.05,3.1
			c3.565,2.067,6.383,4.884,8.45,8.45c2.065,3.567,3.1,7.65,3.1,12.25v23c0,4.534-1.034,8.6-3.1,12.2
			c-2.067,3.6-4.885,6.435-8.45,8.5c-3.567,2.067-7.584,3.1-12.05,3.1H717.607z M719.008,920.094c2.2,0,4.15-0.516,5.85-1.55
			c1.7-1.033,3.033-2.416,4-4.15c0.966-1.732,1.45-3.7,1.45-5.9v-26.5c0-2.2-0.484-4.166-1.45-5.9c-0.967-1.733-2.3-3.116-4-4.15
			c-1.7-1.033-3.65-1.55-5.85-1.55c-2.135,0-4.05,0.518-5.75,1.55c-1.7,1.034-3.05,2.417-4.05,4.15c-1,1.734-1.5,3.7-1.5,5.9v26.5
			c0,2.2,0.5,4.167,1.5,5.9c1,1.734,2.35,3.117,4.05,4.15C714.958,919.578,716.873,920.094,719.008,920.094z"/>
		<path style="fill:#FFFFFF;" d="M771.605,929.594l25.2-68.6h17.4l25.1,68.6h-15.2l-5.3-14.2h-27.8l-5.3,14.2H771.605z
			 M794.605,904.893h20.5l-10-28.5h-0.4L794.605,904.893z"/>
		<path style="fill:#FFFFFF;" d="M847.206,929.594v-68.6h27.2c3.933,0,7.633,0.617,11.1,1.85c3.465,1.234,6.516,3.1,9.15,5.6
			c2.633,2.5,4.683,5.634,6.15,9.4c1.466,3.767,2.2,8.217,2.2,13.35v6.4c0,5.067-0.734,9.584-2.2,13.55
			c-1.467,3.967-3.517,7.317-6.15,10.05c-2.634,2.734-5.685,4.817-9.15,6.25c-3.467,1.434-7.167,2.15-11.1,2.15H847.206z
			 M861.806,918.393h11.4c2.733,0,5.183-0.615,7.35-1.85c2.166-1.233,3.883-3.15,5.15-5.75c1.266-2.6,1.9-5.966,1.9-10.1v-11.9
			c0-4.066-0.635-7.316-1.9-9.75c-1.267-2.433-2.984-4.2-5.15-5.3c-2.167-1.1-4.617-1.65-7.35-1.65h-11.4V918.393z"/>
		<path style="fill:#FFFFFF;" d="M908.306,929.594l25.2-68.6h17.4l25.1,68.6h-15.2l-5.3-14.2h-27.8l-5.3,14.2H908.306z
			 M931.306,904.893h20.5l-10-28.5h-0.4L931.306,904.893z"/>
	</g>
	<g>
		<path style="fill:#FFFFFF;" d="M1037.008,2197.368v-68.6h33.4c3.465,0,6.565,0.667,9.3,2c2.732,1.334,4.85,3.2,6.35,5.6
			c1.5,2.4,2.25,5.234,2.25,8.5c0,3.4-0.584,6.218-1.75,8.45c-1.167,2.234-2.634,4-4.399,5.3c-1.768,1.3-3.617,2.25-5.551,2.851v0.6
			c1.333,0.2,2.783,0.65,4.351,1.35c1.565,0.7,3.032,1.65,4.399,2.851c1.366,1.2,2.466,2.7,3.301,4.5c0.832,1.8,1.25,4.034,1.25,6.7
			c0,3.867-0.867,7.3-2.601,10.3c-1.734,3-4.1,5.35-7.1,7.05s-6.435,2.55-10.3,2.55H1037.008z M1050.808,2157.069h15
			c1.8,0,3.351-0.433,4.65-1.3c1.3-0.866,2.282-2.016,2.95-3.45c0.665-1.433,1-2.982,1-4.65c0-2.732-0.685-4.782-2.051-6.149
			c-1.367-1.366-3.316-2.05-5.85-2.05h-15.7V2157.069z M1050.808,2186.469h15.8c1.801,0,3.383-0.434,4.75-1.301
			c1.366-0.865,2.434-2.032,3.2-3.5c0.766-1.465,1.15-3.133,1.15-5c0-1.865-0.4-3.449-1.2-4.75c-0.8-1.3-1.885-2.315-3.25-3.05
			c-1.367-0.732-2.885-1.1-4.55-1.1h-15.9V2186.469z"/>
		<path style="fill:#FFFFFF;" d="M1123.606,2198.368c-4.667,0-8.85-1.05-12.55-3.149c-3.7-2.101-6.6-5.083-8.7-8.95
			c-2.1-3.866-3.149-8.4-3.149-13.601v-1.8c0-5.266,1.05-9.8,3.149-13.6c2.101-3.8,4.983-6.75,8.65-8.851
			c3.665-2.1,7.833-3.149,12.5-3.149h2c4.732,0,8.933,1.05,12.6,3.149c3.666,2.101,6.55,5.051,8.65,8.851
			c2.1,3.8,3.149,8.334,3.149,13.6v1.8c0,5.268-1.05,9.817-3.149,13.65c-2.101,3.834-4.984,6.8-8.65,8.9
			c-3.667,2.1-7.834,3.149-12.5,3.149H1123.606z M1124.507,2189.368c2.065,0,3.915-0.482,5.55-1.45
			c1.633-0.965,2.933-2.415,3.9-4.35c0.965-1.933,1.449-4.232,1.449-6.9v-9.8c0-2.732-0.484-5.032-1.449-6.899
			c-0.968-1.866-2.268-3.301-3.9-4.301c-1.635-1-3.484-1.5-5.55-1.5c-2,0-3.835,0.5-5.5,1.5c-1.667,1-2.984,2.435-3.95,4.301
			c-0.967,1.867-1.45,4.167-1.45,6.899v9.8c0,2.668,0.483,4.968,1.45,6.9c0.966,1.935,2.283,3.385,3.95,4.35
			C1120.672,2188.886,1122.507,2189.368,1124.507,2189.368z"/>
		<path style="fill:#FFFFFF;" d="M1188.006,2198.368c-7.467,0-13.167-3-17.1-9l-4.7,8h-5v-72h13.7v26.9
			c1.399-1.933,3.333-3.583,5.8-4.95c2.466-1.365,5.4-2.05,8.8-2.05c3.666,0,7,0.85,10,2.55s5.4,4.35,7.2,7.95
			c1.8,3.6,2.7,8.234,2.7,13.899v2.2c0,6.067-0.968,11.067-2.9,15c-1.935,3.935-4.534,6.835-7.8,8.7
			C1195.438,2197.434,1191.872,2198.368,1188.006,2198.368z M1185.106,2189.368c1.933,0,3.633-0.466,5.1-1.399
			c1.466-0.934,2.633-2.383,3.5-4.351c0.865-1.966,1.3-4.482,1.3-7.55v-9c0-2.8-0.417-5.115-1.25-6.95
			c-0.834-1.833-1.967-3.232-3.399-4.2c-1.435-0.965-3.117-1.449-5.051-1.449c-1.867,0-3.6,0.484-5.199,1.449
			c-1.601,0.968-2.867,2.385-3.801,4.25c-0.934,1.867-1.399,4.2-1.399,7v8.9c0,3.067,0.45,5.584,1.35,7.55
			c0.9,1.968,2.133,3.417,3.7,4.351C1181.521,2188.903,1183.239,2189.368,1185.106,2189.368z"/>
		<path style="fill:#FFFFFF;" d="M955.107,2307.368v-11h17v-42.399h-17v-8.101c2.466-0.2,5.184-0.665,8.15-1.399
			c2.966-0.733,5.982-1.7,9.05-2.9c3.065-1.2,5.933-2.466,8.601-3.8h4.899v58.6h16.7v11H955.107z"/>
		<path style="fill:#FFFFFF;" d="M1037.606,2308.368c-4.399,0-8.399-1.032-12-3.1c-3.6-2.065-6.449-4.9-8.55-8.5
			c-2.1-3.601-3.149-7.666-3.149-12.2v-23c0-4.6,1.05-8.683,3.149-12.25c2.101-3.565,4.95-6.383,8.55-8.45
			c3.601-2.065,7.601-3.1,12-3.1h2.9c4.466,0,8.482,1.034,12.05,3.1c3.565,2.067,6.383,4.885,8.45,8.45
			c2.065,3.567,3.1,7.65,3.1,12.25v23c0,4.534-1.034,8.6-3.1,12.2c-2.067,3.6-4.885,6.435-8.45,8.5
			c-3.567,2.067-7.584,3.1-12.05,3.1H1037.606z M1039.007,2297.868c2.2,0,4.15-0.516,5.85-1.55c1.7-1.033,3.033-2.416,4-4.15
			c0.966-1.732,1.45-3.699,1.45-5.899v-26.5c0-2.2-0.484-4.166-1.45-5.9c-0.967-1.732-2.3-3.115-4-4.149
			c-1.699-1.033-3.649-1.551-5.85-1.551c-2.135,0-4.05,0.518-5.75,1.551c-1.7,1.034-3.05,2.417-4.05,4.149c-1,1.734-1.5,3.7-1.5,5.9
			v26.5c0,2.2,0.5,4.167,1.5,5.899c1,1.734,2.35,3.117,4.05,4.15C1034.957,2297.353,1036.872,2297.868,1039.007,2297.868z"/>
		<path style="fill:#FFFFFF;" d="M1091.604,2307.368l25.2-68.6h17.4l25.1,68.6h-15.2l-5.3-14.2h-27.8l-5.3,14.2H1091.604z
			 M1114.604,2282.668h20.5l-10-28.5h-0.399L1114.604,2282.668z"/>
		<path style="fill:#FFFFFF;" d="M1167.205,2307.368v-68.6h27.2c3.933,0,7.633,0.617,11.101,1.85
			c3.465,1.234,6.516,3.101,9.149,5.601c2.633,2.5,4.683,5.634,6.15,9.399c1.466,3.768,2.2,8.218,2.2,13.351v6.399
			c0,5.067-0.734,9.585-2.2,13.55c-1.468,3.968-3.518,7.317-6.15,10.051c-2.634,2.734-5.685,4.816-9.149,6.25
			c-3.468,1.434-7.168,2.149-11.101,2.149H1167.205z M1181.806,2296.168h11.399c2.733,0,5.184-0.615,7.351-1.85
			c2.165-1.232,3.883-3.15,5.149-5.75c1.266-2.6,1.9-5.966,1.9-10.1v-11.9c0-4.065-0.635-7.315-1.9-9.75
			c-1.267-2.433-2.984-4.2-5.149-5.3c-2.167-1.101-4.617-1.65-7.351-1.65h-11.399V2296.168z"/>
		<path style="fill:#FFFFFF;" d="M1228.306,2307.368l25.2-68.6h17.399l25.101,68.6h-15.2l-5.3-14.2h-27.801l-5.3,14.2H1228.306z
			 M1251.306,2282.668h20.5l-10-28.5h-0.4L1251.306,2282.668z"/>
	</g>
	<g>
		<path style="fill:#FFFFFF;" d="M3382.748,766.111l25.201-68.6h17.399l25.101,68.6h-15.201l-5.299-14.2h-27.801l-5.3,14.2H3382.748
			z M3405.748,741.411h20.5l-10-28.5h-0.399L3405.748,741.411z"/>
		<path style="fill:#FFFFFF;" d="M3457.648,766.111v-72h13.699v72H3457.648z"/>
		<path style="fill:#FFFFFF;" d="M3486.347,704.711v-10.6h14.101v10.6H3486.347z M3486.547,766.111v-51.1h13.699v51.1H3486.547z"/>
		<path style="fill:#FFFFFF;" d="M3535.146,767.111c-4.335,0-8.25-1.065-11.75-3.2c-3.5-2.133-6.25-5.083-8.25-8.85
			c-2-3.766-3-8.083-3-12.95v-3.1c0-3.666,0.616-7.016,1.851-10.05c1.232-3.033,2.915-5.683,5.049-7.95c2.133-2.266,4.633-4,7.5-5.2
			c2.866-1.2,5.934-1.8,9.201-1.8h1.899c4.466,0,8.351,0.884,11.649,2.65c3.301,1.768,5.834,4.234,7.601,7.4
			c1.766,3.167,2.649,6.884,2.649,11.15h-11.899c0-2.733-0.417-5-1.25-6.8c-0.835-1.8-2.017-3.166-3.55-4.1
			c-1.535-0.933-3.367-1.4-5.5-1.4c-3.067,0-5.635,1.05-7.7,3.15c-2.067,2.1-3.101,5.184-3.101,9.25v10.3
			c0,4,0.983,7.084,2.951,9.25c1.965,2.167,4.615,3.25,7.949,3.25c2.333,0,4.301-0.4,5.9-1.2c1.6-0.8,2.815-2.1,3.65-3.9
			c0.832-1.8,1.25-4.2,1.25-7.2h11.299c0,4.534-0.967,8.384-2.899,11.55c-1.935,3.167-4.601,5.584-8,7.25s-7.267,2.5-11.601,2.5
			H3535.146z"/>
		<path style="fill:#FFFFFF;" d="M3592.545,767.111c-4.799,0-9.049-0.984-12.75-2.95c-3.699-1.965-6.584-4.833-8.649-8.6
			c-2.067-3.766-3.101-8.35-3.101-13.75v-2.5c0-5.4,1.084-9.983,3.25-13.75c2.166-3.766,5.133-6.633,8.9-8.6
			c3.766-1.966,8.051-2.95,12.85-2.95h1.601c4.532,0,8.483,0.917,11.851,2.75c3.365,1.834,5.965,4.4,7.799,7.7
			c1.834,3.3,2.75,7.15,2.75,11.55v6.3h-34.6c0,3.2,0.4,6,1.2,8.4s2,4.234,3.601,5.5c1.6,1.267,3.699,1.9,6.299,1.9
			c2.133,0,4-0.416,5.601-1.25c1.601-0.833,2.866-2.083,3.8-3.75c0.934-1.666,1.4-3.7,1.4-6.1h12.699c0,3.935-1,7.417-3,10.45
			c-2,3.034-4.75,5.4-8.25,7.1c-3.5,1.7-7.549,2.55-12.149,2.55H3592.545z M3582.545,735.311h21.101c0-4.2-0.917-7.316-2.75-9.35
			c-1.835-2.033-4.351-3.05-7.55-3.05c-3,0-5.518,1.05-7.551,3.15C3583.762,728.161,3582.678,731.245,3582.545,735.311z"/>
		<path style="fill:#FFFFFF;" d="M3335.547,876.111v-11h17v-42.4h-17v-8.1c2.467-0.2,5.184-0.666,8.15-1.4
			c2.966-0.733,5.982-1.7,9.051-2.9c3.064-1.2,5.932-2.466,8.6-3.8h4.9v58.6h16.699v11H3335.547z"/>
		<path style="fill:#FFFFFF;" d="M3418.047,877.111c-4.4,0-8.4-1.033-12-3.1c-3.6-2.065-6.45-4.9-8.551-8.5
			c-2.1-3.6-3.149-7.666-3.149-12.2v-23c0-4.6,1.05-8.683,3.149-12.25c2.101-3.566,4.951-6.383,8.551-8.45c3.6-2.065,7.6-3.1,12-3.1
			h2.9c4.465,0,8.482,1.035,12.049,3.1c3.566,2.067,6.383,4.884,8.451,8.45c2.064,3.567,3.1,7.65,3.1,12.25v23
			c0,4.534-1.035,8.6-3.1,12.2c-2.068,3.6-4.885,6.435-8.451,8.5c-3.566,2.067-7.584,3.1-12.049,3.1H3418.047z M3419.447,866.611
			c2.199,0,4.149-0.516,5.85-1.55c1.699-1.033,3.033-2.416,4-4.15c0.965-1.732,1.449-3.7,1.449-5.9v-26.5
			c0-2.2-0.484-4.166-1.449-5.9c-0.967-1.733-2.301-3.116-4-4.15c-1.7-1.033-3.65-1.55-5.85-1.55c-2.135,0-4.051,0.518-5.75,1.55
			c-1.701,1.034-3.051,2.417-4.051,4.15c-1,1.734-1.5,3.7-1.5,5.9v26.5c0,2.2,0.5,4.167,1.5,5.9c1,1.734,2.35,3.117,4.051,4.15
			C3415.396,866.096,3417.312,866.611,3419.447,866.611z"/>
		<path style="fill:#FFFFFF;" d="M3472.045,876.111l25.199-68.6h17.4l25.1,68.6h-15.199l-5.301-14.2h-27.8l-5.3,14.2H3472.045z
			 M3495.045,851.411h20.5l-10-28.5h-0.4L3495.045,851.411z"/>
		<path style="fill:#FFFFFF;" d="M3547.645,876.111v-68.6h27.201c3.932,0,7.633,0.617,11.1,1.85c3.465,1.234,6.516,3.1,9.15,5.6
			c2.633,2.5,4.682,5.634,6.149,9.4c1.466,3.767,2.2,8.217,2.2,13.35v6.4c0,5.067-0.734,9.584-2.2,13.55
			c-1.468,3.967-3.517,7.317-6.149,10.05c-2.635,2.734-5.686,4.817-9.15,6.25c-3.467,1.434-7.168,2.15-11.1,2.15H3547.645z
			 M3562.245,864.911h11.399c2.733,0,5.184-0.615,7.351-1.85c2.165-1.233,3.883-3.15,5.149-5.75c1.266-2.6,1.9-5.966,1.9-10.1v-11.9
			c0-4.066-0.635-7.316-1.9-9.75c-1.267-2.433-2.984-4.2-5.149-5.3c-2.167-1.1-4.617-1.65-7.351-1.65h-11.399V864.911z"/>
		<path style="fill:#FFFFFF;" d="M3608.745,876.111l25.2-68.6h17.4l25.1,68.6h-15.2l-5.3-14.2h-27.801l-5.299,14.2H3608.745z
			 M3631.745,851.411h20.5l-10-28.5h-0.399L3631.745,851.411z"/>
	</g>
	<g>
		<path style="fill:#FFFFFF;" d="M3417.447,1722.703v-68.601h33.4c3.465,0,6.565,0.668,9.3,2c2.733,1.335,4.851,3.2,6.351,5.601
			c1.5,2.399,2.25,5.234,2.25,8.5c0,3.399-0.585,6.217-1.75,8.45c-1.168,2.234-2.635,4-4.4,5.3c-1.768,1.3-3.617,2.25-5.551,2.85
			v0.601c1.334,0.199,2.783,0.649,4.351,1.35c1.565,0.7,3.032,1.65,4.399,2.85c1.366,1.2,2.467,2.7,3.301,4.5
			c0.832,1.801,1.25,4.035,1.25,6.7c0,3.867-0.867,7.3-2.6,10.3c-1.734,3-4.101,5.351-7.101,7.051c-3,1.699-6.435,2.55-10.3,2.55
			H3417.447z M3431.248,1682.404h15c1.799,0,3.35-0.434,4.649-1.301c1.3-0.865,2.282-2.016,2.95-3.449c0.666-1.434,1-2.983,1-4.65
			c0-2.732-0.685-4.783-2.051-6.15c-1.367-1.365-3.316-2.05-5.85-2.05h-15.699V1682.404z M3431.248,1711.803h15.799
			c1.801,0,3.383-0.433,4.75-1.3c1.366-0.865,2.434-2.033,3.201-3.5c0.766-1.466,1.149-3.133,1.149-5c0-1.865-0.399-3.45-1.2-4.75
			c-0.8-1.3-1.885-2.315-3.25-3.05c-1.367-0.733-2.885-1.101-4.55-1.101h-15.899V1711.803z"/>
		<path style="fill:#FFFFFF;" d="M3504.047,1723.703c-4.668,0-8.851-1.05-12.551-3.15c-3.699-2.1-6.6-5.083-8.699-8.95
			c-2.101-3.865-3.15-8.399-3.15-13.6v-1.8c0-5.266,1.05-9.8,3.15-13.601c2.1-3.8,4.982-6.75,8.649-8.85
			c3.665-2.1,7.833-3.15,12.5-3.15h2c4.733,0,8.933,1.051,12.601,3.15c3.665,2.1,6.549,5.05,8.649,8.85
			c2.101,3.801,3.149,8.335,3.149,13.601v1.8c0,5.268-1.049,9.817-3.149,13.65c-2.101,3.834-4.984,6.8-8.649,8.899
			c-3.668,2.101-7.835,3.15-12.5,3.15H3504.047z M3504.946,1714.703c2.065,0,3.915-0.483,5.55-1.45
			c1.633-0.966,2.934-2.416,3.9-4.35c0.965-1.934,1.449-4.233,1.449-6.9v-9.8c0-2.733-0.484-5.033-1.449-6.9
			c-0.967-1.865-2.268-3.3-3.9-4.3c-1.635-1-3.484-1.5-5.55-1.5c-2,0-3.835,0.5-5.5,1.5c-1.667,1-2.984,2.435-3.95,4.3
			c-0.967,1.867-1.449,4.167-1.449,6.9v9.8c0,2.667,0.482,4.967,1.449,6.9c0.966,1.934,2.283,3.384,3.95,4.35
			C3501.111,1714.22,3502.946,1714.703,3504.946,1714.703z"/>
		<path style="fill:#FFFFFF;" d="M3568.445,1723.703c-7.467,0-13.167-3-17.1-9l-4.7,8h-5v-72h13.7v26.899
			c1.4-1.933,3.333-3.582,5.8-4.949c2.466-1.366,5.4-2.051,8.8-2.051c3.666,0,7,0.851,10,2.551c3,1.699,5.4,4.35,7.2,7.949
			c1.8,3.601,2.7,8.234,2.7,13.9v2.2c0,6.067-0.967,11.067-2.9,15c-1.934,3.935-4.534,6.834-7.8,8.7
			C3575.879,1722.769,3572.312,1723.703,3568.445,1723.703z M3565.546,1714.703c1.933,0,3.633-0.466,5.1-1.4
			c1.466-0.933,2.633-2.383,3.5-4.35c0.866-1.966,1.3-4.483,1.3-7.55v-9c0-2.801-0.417-5.116-1.25-6.95
			c-0.834-1.833-1.967-3.233-3.399-4.2c-1.435-0.966-3.117-1.45-5.05-1.45c-1.867,0-3.601,0.484-5.2,1.45
			c-1.601,0.967-2.867,2.385-3.8,4.25c-0.935,1.867-1.4,4.2-1.4,7v8.9c0,3.066,0.45,5.584,1.35,7.55c0.9,1.967,2.133,3.417,3.7,4.35
			C3561.961,1714.238,3563.679,1714.703,3565.546,1714.703z"/>
		<path style="fill:#FFFFFF;" d="M3355.348,1833.703c-5.067,0-9.367-0.851-12.9-2.55c-3.534-1.7-6.199-4.033-8-7
			c-1.8-2.966-2.699-6.316-2.699-10.051v-1.899h12.5c0,4,1.182,6.817,3.549,8.45c2.366,1.634,5.451,2.449,9.25,2.449
			c3.801,0,6.883-0.865,9.25-2.6c2.366-1.732,3.551-4.4,3.551-8c0-2.4-0.518-4.35-1.551-5.85s-2.416-2.616-4.149-3.351
			c-1.734-0.732-3.634-1.1-5.7-1.1h-9.3v-9.101h8.2c1.933,0,3.75-0.365,5.449-1.1c1.701-0.732,3.051-1.833,4.051-3.3
			c1-1.466,1.5-3.3,1.5-5.5c0-2.133-0.5-3.883-1.5-5.25c-1-1.366-2.367-2.4-4.1-3.101c-1.734-0.699-3.668-1.05-5.801-1.05
			c-3.534,0-6.316,0.867-8.35,2.601c-2.035,1.734-3.051,4.199-3.051,7.399h-11.899v-2.1c0-3.666,1.032-6.883,3.101-9.65
			c2.064-2.766,4.865-4.95,8.399-6.55c3.532-1.6,7.565-2.4,12.101-2.4h2c4.399,0,8.299,0.785,11.699,2.351
			c3.4,1.567,6.083,3.734,8.051,6.5c1.965,2.767,2.949,5.984,2.949,9.649c0,2.535-0.434,4.768-1.3,6.7
			c-0.867,1.935-2.067,3.585-3.601,4.95c-1.533,1.367-3.334,2.518-5.399,3.45v0.6c3.532,1.135,6.433,3.018,8.7,5.65
			c2.266,2.634,3.4,6.185,3.4,10.649c0,3.867-1.101,7.317-3.301,10.351c-2.199,3.034-5.234,5.417-9.1,7.149
			c-3.867,1.733-8.301,2.601-13.301,2.601H3355.348z"/>
		<path style="fill:#FFFFFF;" d="M3418.047,1833.703c-4.4,0-8.4-1.033-12-3.101c-3.6-2.065-6.45-4.899-8.551-8.5
			c-2.1-3.6-3.149-7.665-3.149-12.199v-23c0-4.601,1.05-8.684,3.149-12.25c2.101-3.566,4.951-6.383,8.551-8.45
			c3.6-2.065,7.6-3.101,12-3.101h2.9c4.465,0,8.482,1.035,12.049,3.101c3.566,2.067,6.383,4.884,8.451,8.45
			c2.064,3.566,3.1,7.649,3.1,12.25v23c0,4.534-1.035,8.6-3.1,12.199c-2.068,3.601-4.885,6.435-8.451,8.5
			c-3.566,2.067-7.584,3.101-12.049,3.101H3418.047z M3419.447,1823.203c2.199,0,4.149-0.516,5.85-1.55
			c1.699-1.033,3.033-2.416,4-4.15c0.965-1.732,1.449-3.7,1.449-5.9v-26.5c0-2.199-0.484-4.165-1.449-5.899
			c-0.967-1.733-2.301-3.116-4-4.15c-1.7-1.032-3.65-1.55-5.85-1.55c-2.135,0-4.051,0.518-5.75,1.55
			c-1.701,1.034-3.051,2.417-4.051,4.15c-1,1.734-1.5,3.7-1.5,5.899v26.5c0,2.2,0.5,4.168,1.5,5.9c1,1.734,2.35,3.117,4.051,4.15
			C3415.396,1822.688,3417.312,1823.203,3419.447,1823.203z"/>
		<path style="fill:#FFFFFF;" d="M3472.045,1832.703l25.199-68.601h17.4l25.1,68.601h-15.199l-5.301-14.2h-27.8l-5.3,14.2H3472.045z
			 M3495.045,1808.003h20.5l-10-28.5h-0.4L3495.045,1808.003z"/>
		<path style="fill:#FFFFFF;" d="M3547.645,1832.703v-68.601h27.201c3.932,0,7.633,0.617,11.1,1.851c3.465,1.234,6.516,3.1,9.15,5.6
			c2.633,2.5,4.682,5.635,6.149,9.4c1.466,3.767,2.2,8.217,2.2,13.35v6.4c0,5.067-0.734,9.584-2.2,13.55
			c-1.468,3.967-3.517,7.317-6.149,10.05c-2.635,2.734-5.686,4.817-9.15,6.25c-3.467,1.435-7.168,2.15-11.1,2.15H3547.645z
			 M3562.245,1821.503h11.399c2.733,0,5.184-0.615,7.351-1.85c2.165-1.233,3.883-3.15,5.149-5.75c1.266-2.601,1.9-5.966,1.9-10.101
			v-11.899c0-4.066-0.635-7.316-1.9-9.75c-1.267-2.434-2.984-4.2-5.149-5.301c-2.167-1.1-4.617-1.649-7.351-1.649h-11.399V1821.503z
			"/>
		<path style="fill:#FFFFFF;" d="M3608.745,1832.703l25.2-68.601h17.4l25.1,68.601h-15.2l-5.3-14.2h-27.801l-5.299,14.2H3608.745z
			 M3631.745,1808.003h20.5l-10-28.5h-0.399L3631.745,1808.003z"/>
	</g>
	<g>
		<path style="fill:#FFFFFF;" d="M2343.79,1195.968v73.06h-19.891v-73.06h-25.35v-16.12h70.46v16.12H2343.79z"/>
		<path style="fill:#FFFFFF;" d="M2400.209,1222.228l-27.301-42.38h23.53l16.9,27.3h0.52c8.84-13.345,14.603-22.445,17.29-27.3
			h21.71c-1.734,2.688-5.18,8.04-10.335,16.055c-5.157,8.018-10.854,16.705-17.095,26.065c5.979,9.275,11.96,18.57,17.939,27.885
			c5.98,9.317,10.053,15.709,12.221,19.175h-23.53l-19.76-31.85h-0.521c-11.18,17.248-17.854,27.865-20.02,31.85h-21.71
			L2400.209,1222.228z"/>
		<path style="fill:#FFFFFF;" d="M2494.586,1253.298h21.58v-51.09h-21.71v-11.57c4.853-0.345,10.355-1.58,16.51-3.705
			c6.152-2.123,11.96-4.7,17.42-7.735h6.89v74.1h21.19v15.73h-61.88V1253.298z"/>
		<path style="fill:#FFFFFF;" d="M2255.947,1380.028c-4.867,0-9.317-0.717-13.351-2.15c-4.034-1.433-7.267-3.683-9.699-6.75
			c-2.435-3.066-3.65-7.1-3.65-12.1c0-0.4,0-0.783,0-1.15c0-0.366,0.033-0.716,0.1-1.05h13.5c-0.066,0.334-0.1,0.635-0.1,0.9
			c0,0.267,0,0.567,0,0.9c0,2.134,0.516,3.967,1.55,5.5c1.033,1.534,2.565,2.7,4.601,3.5c2.032,0.8,4.449,1.2,7.25,1.2
			c3.133,0,5.699-0.315,7.699-0.95c2-0.633,3.5-1.616,4.5-2.95c1-1.333,1.5-2.965,1.5-4.9c0-2.065-0.717-3.716-2.149-4.95
			c-1.435-1.232-3.3-2.215-5.601-2.95c-2.3-0.733-4.834-1.416-7.6-2.05c-2.768-0.633-5.534-1.383-8.3-2.25
			c-2.768-0.865-5.317-2.033-7.65-3.5c-2.334-1.465-4.2-3.4-5.6-5.8c-1.4-2.4-2.101-5.466-2.101-9.2c0-4.465,1.216-8.166,3.65-11.1
			c2.433-2.933,5.666-5.133,9.7-6.6c4.032-1.466,8.415-2.2,13.149-2.2c4.733,0,9.033,0.685,12.9,2.05c3.865,1.367,6.966,3.5,9.3,6.4
			c2.333,2.9,3.5,6.65,3.5,11.25v1.3h-13.3v-1.2c0-1.8-0.484-3.366-1.45-4.7c-0.967-1.333-2.35-2.35-4.149-3.05
			c-1.801-0.7-4-1.05-6.601-1.05c-2.399,0-4.517,0.25-6.35,0.75c-1.835,0.5-3.25,1.3-4.25,2.4c-1,1.1-1.5,2.518-1.5,4.25
			c0,2,0.7,3.6,2.1,4.8c1.4,1.2,3.266,2.15,5.601,2.85c2.332,0.7,4.915,1.367,7.75,2c2.832,0.634,5.633,1.367,8.399,2.2
			c2.766,0.834,5.315,1.967,7.65,3.4c2.333,1.435,4.2,3.334,5.6,5.7c1.4,2.367,2.101,5.384,2.101,9.05
			c0,5.334-1.268,9.617-3.801,12.85c-2.534,3.234-5.949,5.6-10.25,7.1C2266.297,1379.278,2261.413,1380.028,2255.947,1380.028z"/>
		<path style="fill:#FFFFFF;" d="M2296.246,1317.628v-10.6h14.101v10.6H2296.246z M2296.446,1379.028v-51.1h13.7v51.1H2296.446z"/>
		<path style="fill:#FFFFFF;" d="M2332.745,1397.828c-2.334,0-4.45-0.55-6.35-1.649c-1.9-1.101-3.435-2.584-4.601-4.45
			c-1.167-1.867-1.75-3.9-1.75-6.1c0-2.467,0.666-4.75,2-6.85c1.333-2.1,3.166-3.683,5.5-4.75c-1.467-0.933-2.617-2.15-3.45-3.65
			c-0.834-1.5-1.25-3.083-1.25-4.75c0-2.466,0.801-4.583,2.4-6.35c1.6-1.766,3.633-3.05,6.1-3.85c-2.066-1.266-3.767-2.833-5.1-4.7
			c-1.334-1.866-2-4.166-2-6.9c0-2.865,0.783-5.6,2.35-8.2s3.934-4.7,7.101-6.3c3.165-1.6,7.183-2.4,12.05-2.4
			c2,0,3.865,0.1,5.6,0.3c1.733,0.2,3.266,0.534,4.601,1c2.6-1.4,4.516-2.933,5.75-4.6c1.232-1.666,1.915-3.3,2.05-4.9h10.7
			c0,2.267-0.435,4.3-1.3,6.1c-0.867,1.8-2.085,3.285-3.65,4.45c-1.567,1.167-3.45,2.017-5.65,2.55l-0.1,0.3
			c1.6,1.334,2.883,2.9,3.85,4.7c0.966,1.8,1.45,3.768,1.45,5.9c0,2.934-0.817,5.634-2.45,8.1c-1.634,2.467-3.934,4.45-6.899,5.95
			c-2.968,1.5-6.45,2.25-10.45,2.25h-7.5c-2.067,0-3.667,0.417-4.8,1.25c-1.135,0.834-1.7,1.95-1.7,3.35
			c0,1.267,0.516,2.334,1.55,3.2c1.033,0.867,2.683,1.3,4.95,1.3h17.7c4.665,0,8.333,1.367,11,4.1c2.665,2.734,4,6.1,4,10.1
			c0,2.8-0.7,5.383-2.101,7.75c-1.399,2.366-3.35,4.25-5.85,5.65s-5.385,2.1-8.65,2.1H2332.745z M2337.945,1389.328h17.3
			c1.8,0,3.35-0.584,4.65-1.75c1.3-1.167,1.949-2.584,1.949-4.25c0-1.534-0.55-2.834-1.649-3.9c-1.101-1.065-2.484-1.6-4.15-1.6
			h-18.1c-1.734,0-3.2,0.567-4.4,1.7s-1.8,2.466-1.8,4c0,1.533,0.6,2.883,1.8,4.05
			C2334.745,1388.744,2336.211,1389.328,2337.945,1389.328z M2346.745,1351.528c2.933,0,5.25-0.833,6.95-2.5
			c1.7-1.666,2.55-3.666,2.55-6c0-2.333-0.85-4.35-2.55-6.05c-1.7-1.7-4.018-2.55-6.95-2.55c-2.935,0-5.268,0.85-7,2.55
			c-1.734,1.7-2.6,3.717-2.6,6.05c0,2.334,0.865,4.334,2.6,6C2341.478,1350.695,2343.811,1351.528,2346.745,1351.528z"/>
		<path style="fill:#FFFFFF;" d="M2397.344,1379.028l25.2-68.6h17.399l25.101,68.6h-15.2l-5.3-14.2h-27.801l-5.3,14.2H2397.344z
			 M2420.344,1354.328h20.5l-10-28.5h-0.4L2420.344,1354.328z"/>
		<path style="fill:#FFFFFF;" d="M2472.243,1379.028v-72h13.7v72H2472.243z"/>
		<path style="fill:#FFFFFF;" d="M2500.941,1317.628v-10.6h14.101v10.6H2500.941z M2501.142,1379.028v-51.1h13.7v51.1H2501.142z"/>
		<path style="fill:#FFFFFF;" d="M2549.74,1380.028c-4.334,0-8.25-1.065-11.75-3.2c-3.5-2.133-6.25-5.083-8.25-8.85
			c-2-3.766-3-8.083-3-12.95v-3.1c0-3.666,0.616-7.016,1.851-10.05c1.232-3.033,2.915-5.683,5.05-7.95c2.133-2.266,4.633-4,7.5-5.2
			c2.865-1.2,5.933-1.8,9.2-1.8h1.899c4.466,0,8.351,0.884,11.65,2.65c3.3,1.768,5.833,4.234,7.6,7.4
			c1.766,3.167,2.65,6.884,2.65,11.15h-11.9c0-2.733-0.417-5-1.25-6.8c-0.834-1.8-2.017-3.166-3.55-4.1
			c-1.534-0.933-3.367-1.4-5.5-1.4c-3.067,0-5.635,1.05-7.7,3.15c-2.067,2.1-3.1,5.184-3.1,9.25v10.3c0,4,0.982,7.084,2.95,9.25
			c1.965,2.167,4.615,3.25,7.949,3.25c2.333,0,4.301-0.4,5.9-1.2c1.6-0.8,2.815-2.1,3.65-3.9c0.832-1.8,1.25-4.2,1.25-7.2h11.3
			c0,4.534-0.968,8.384-2.9,11.55c-1.935,3.167-4.6,5.584-8,7.25c-3.399,1.666-7.267,2.5-11.6,2.5H2549.74z"/>
		<path style="fill:#FFFFFF;" d="M2607.14,1380.028c-4.8,0-9.05-0.984-12.75-2.95c-3.7-1.965-6.584-4.833-8.649-8.6
			c-2.067-3.766-3.101-8.35-3.101-13.75v-2.5c0-5.4,1.083-9.983,3.25-13.75c2.166-3.766,5.133-6.633,8.9-8.6
			c3.766-1.966,8.05-2.95,12.85-2.95h1.601c4.532,0,8.482,0.917,11.85,2.75c3.365,1.834,5.966,4.4,7.8,7.7
			c1.833,3.3,2.75,7.15,2.75,11.55v6.3h-34.6c0,3.2,0.399,6,1.2,8.4c0.8,2.4,2,4.234,3.6,5.5c1.6,1.267,3.7,1.9,6.3,1.9
			c2.133,0,4-0.416,5.601-1.25c1.6-0.833,2.865-2.083,3.8-3.75c0.933-1.666,1.399-3.7,1.399-6.1h12.7c0,3.935-1,7.417-3,10.45
			c-2,3.034-4.75,5.4-8.25,7.1c-3.5,1.7-7.55,2.55-12.149,2.55H2607.14z M2597.14,1348.228h21.101c0-4.2-0.918-7.316-2.75-9.35
			c-1.835-2.033-4.351-3.05-7.551-3.05c-3,0-5.517,1.05-7.55,3.15C2598.355,1341.078,2597.272,1344.162,2597.14,1348.228z"/>
	</g>
	<circle style="fill:#FF5553;" cx="1564.023" cy="1280.714" r="270"/>
	<g>
		<path style="fill:#FFFFFF;" d="M1444.726,1248.509l25.2-68.6h17.4l25.1,68.6h-15.2l-5.3-14.2h-27.8l-5.3,14.2H1444.726z
			 M1467.726,1223.809h20.5l-10-28.5h-0.4L1467.726,1223.809z"/>
		<path style="fill:#FFFFFF;" d="M1519.625,1248.509v-72h13.7v72H1519.625z"/>
		<path style="fill:#FFFFFF;" d="M1548.324,1187.109v-10.6h14.1v10.6H1548.324z M1548.524,1248.509v-51.1h13.7v51.1H1548.524z"/>
		<path style="fill:#FFFFFF;" d="M1597.123,1249.509c-4.334,0-8.25-1.065-11.75-3.2c-3.5-2.133-6.25-5.083-8.25-8.85
			c-2-3.766-3-8.083-3-12.95v-3.1c0-3.666,0.616-7.016,1.85-10.05c1.232-3.033,2.916-5.683,5.05-7.95c2.133-2.266,4.633-4,7.5-5.2
			c2.866-1.2,5.933-1.8,9.2-1.8h1.9c4.465,0,8.35,0.884,11.65,2.65c3.3,1.768,5.833,4.234,7.6,7.4
			c1.766,3.167,2.65,6.884,2.65,11.15h-11.9c0-2.733-0.417-5-1.25-6.8c-0.834-1.8-2.017-3.166-3.55-4.1
			c-1.534-0.933-3.367-1.4-5.5-1.4c-3.067,0-5.634,1.05-7.7,3.15c-2.067,2.1-3.1,5.184-3.1,9.25v10.3c0,4,0.983,7.084,2.95,9.25
			c1.965,2.167,4.615,3.25,7.95,3.25c2.333,0,4.3-0.4,5.9-1.2c1.6-0.8,2.816-2.1,3.65-3.9c0.833-1.8,1.25-4.2,1.25-7.2h11.3
			c0,4.534-0.967,8.384-2.9,11.55c-1.935,3.167-4.6,5.584-8,7.25s-7.267,2.5-11.6,2.5H1597.123z"/>
		<path style="fill:#FFFFFF;" d="M1654.523,1249.509c-4.8,0-9.05-0.984-12.75-2.95c-3.7-1.965-6.584-4.833-8.65-8.6
			c-2.067-3.766-3.1-8.35-3.1-13.75v-2.5c0-5.4,1.083-9.983,3.25-13.75c2.166-3.766,5.133-6.633,8.9-8.6
			c3.766-1.966,8.05-2.95,12.85-2.95h1.6c4.533,0,8.483,0.917,11.85,2.75c3.365,1.834,5.965,4.4,7.8,7.7
			c1.833,3.3,2.75,7.15,2.75,11.55v6.3h-34.6c0,3.2,0.4,6,1.2,8.4c0.8,2.4,2,4.234,3.6,5.5c1.6,1.267,3.7,1.9,6.3,1.9
			c2.133,0,4-0.416,5.6-1.25c1.6-0.833,2.866-2.083,3.8-3.75c0.933-1.666,1.4-3.7,1.4-6.1h12.7c0,3.935-1,7.417-3,10.45
			c-2,3.034-4.75,5.4-8.25,7.1c-3.5,1.7-7.55,2.55-12.15,2.55H1654.523z M1644.523,1217.709h21.1c0-4.2-0.917-7.316-2.75-9.35
			c-1.834-2.033-4.35-3.05-7.55-3.05c-3,0-5.517,1.05-7.55,3.15C1645.739,1210.559,1644.656,1213.643,1644.523,1217.709z"/>
		<path style="fill:#FFFFFF;" d="M1423.825,1358.509v-16.6h-30.7v-10.7c0.933-1.6,2.066-3.683,3.4-6.25
			c1.333-2.566,2.75-5.383,4.25-8.45c1.5-3.065,2.966-6.25,4.4-9.55c1.433-3.3,2.75-6.516,3.95-9.65c1.2-3.133,2.166-5.933,2.9-8.4
			h12.6c-0.6,2.667-1.534,5.584-2.8,8.75c-1.267,3.167-2.685,6.417-4.25,9.75c-1.567,3.334-3.217,6.535-4.95,9.6
			c-1.734,3.067-3.417,5.834-5.05,8.3c-1.634,2.467-3.117,4.467-4.45,6h20.7v-16.6c0.666-0.933,1.366-2.133,2.1-3.6
			c0.732-1.466,1.482-3.016,2.25-4.65c0.766-1.633,1.45-3.2,2.05-4.7s1.033-2.783,1.3-3.85h5.7v33.4h9.1v10.6h-9.1v16.6H1423.825z"
			/>
		<path style="fill:#FFFFFF;" d="M1480.024,1359.509c-4.4,0-8.4-1.033-12-3.1c-3.6-2.065-6.45-4.9-8.55-8.5s-3.15-7.666-3.15-12.2
			v-23c0-4.6,1.05-8.683,3.15-12.25c2.1-3.566,4.95-6.383,8.55-8.45c3.6-2.065,7.6-3.1,12-3.1h2.9c4.465,0,8.482,1.035,12.05,3.1
			c3.565,2.067,6.383,4.884,8.45,8.45c2.065,3.567,3.1,7.65,3.1,12.25v23c0,4.534-1.034,8.6-3.1,12.2
			c-2.067,3.6-4.885,6.435-8.45,8.5c-3.567,2.067-7.584,3.1-12.05,3.1H1480.024z M1481.424,1349.009c2.2,0,4.15-0.516,5.85-1.55
			c1.7-1.033,3.033-2.416,4-4.15c0.966-1.732,1.45-3.7,1.45-5.9v-26.5c0-2.2-0.484-4.166-1.45-5.9c-0.967-1.733-2.3-3.116-4-4.15
			c-1.7-1.033-3.65-1.55-5.85-1.55c-2.135,0-4.05,0.518-5.75,1.55c-1.7,1.034-3.05,2.417-4.05,4.15c-1,1.734-1.5,3.7-1.5,5.9v26.5
			c0,2.2,0.5,4.167,1.5,5.9c1,1.734,2.35,3.117,4.05,4.15C1477.374,1348.494,1479.29,1349.009,1481.424,1349.009z"/>
		<path style="fill:#FFFFFF;" d="M1534.022,1358.509l25.2-68.6h17.4l25.1,68.6h-15.2l-5.3-14.2h-27.8l-5.3,14.2H1534.022z
			 M1557.022,1333.809h20.5l-10-28.5h-0.4L1557.022,1333.809z"/>
		<path style="fill:#FFFFFF;" d="M1609.623,1358.509v-68.6h27.2c3.933,0,7.633,0.617,11.1,1.85c3.465,1.234,6.516,3.1,9.15,5.6
			c2.633,2.5,4.683,5.634,6.15,9.4c1.466,3.767,2.2,8.217,2.2,13.35v6.4c0,5.067-0.734,9.584-2.2,13.55
			c-1.467,3.967-3.517,7.317-6.15,10.05c-2.634,2.734-5.685,4.817-9.15,6.25c-3.467,1.434-7.167,2.15-11.1,2.15H1609.623z
			 M1624.223,1347.309h11.4c2.733,0,5.183-0.615,7.35-1.85c2.166-1.233,3.883-3.15,5.15-5.75c1.266-2.6,1.9-5.966,1.9-10.1v-11.9
			c0-4.066-0.635-7.316-1.9-9.75c-1.267-2.433-2.984-4.2-5.15-5.3c-2.167-1.1-4.617-1.65-7.35-1.65h-11.4V1347.309z"/>
		<path style="fill:#FFFFFF;" d="M1670.723,1358.509l25.2-68.6h17.4l25.1,68.6h-15.2l-5.3-14.2h-27.8l-5.3,14.2H1670.723z
			 M1693.723,1333.809h20.5l-10-28.5h-0.4L1693.723,1333.809z"/>
	</g>
</g>
</svg>
