<?xml version="1.0" encoding="iso-8859-1"?>
<!-- Generator: Adobe Illustrator 29.6.0, SVG Export Plug-In . SVG Version: 9.03 Build 0)  -->
<svg version="1.1" xmlns="http://www.w3.org/2000/svg" xmlns:xlink="http://www.w3.org/1999/xlink" x="0px" y="0px"
	 viewBox="0 0 4000 2774" style="enable-background:new 0 0 4000 2774;" xml:space="preserve">
<g id="Layer_3">
	<g>
		<path style="fill:#B6CEFF;" d="M569.85,2593.9c-240.357-93.789-360.572-218.691-360.572-374.706
			c0-119.792,69.314-261.777,186.409-320.569s182.815-58.518,380.004-58.518c82.175,0,264.546,26.99,385.727,34.881
			c121.256,7.932,244.518,16.395,369.783,25.43c125.342,9.076,239.317,13.574,341.998,13.574c230.104,0,414.959-30.5,554.641-91.54
			s209.523-163.906,209.523-308.596c0-104.01-34.92-185.943-104.761-245.879c-69.841-59.896-164.275-102.293-283.45-127.151
			c-119.176-24.858-248.604-37.328-388.286-37.328c-143.768,0-268.07,10.18-372.832,30.541
			c-104.759,20.36-208.48,41.252-311.161,62.717c-102.681,21.505-219.776,32.217-351.285,32.217
			c-234.19,0-350.867-25.885-472.123-95.962c-121.181-70.076-181.809-163.865-181.809-281.449
			c0-169.548,83.368-326.176,340.144-425.648s603.405-136.263,1071.783-136.263c497.134,0,922.346,53.15,1275.637,159.368
			c353.365,106.259,623.442,256.019,810.378,449.32C3856.532,1091.641,3950,1317.16,3950,1574.895
			c0,232.878-82.1,436.319-246.449,610.405c-164.349,174.086-415.999,309.127-754.951,405.206
			c-338.951,96.079-763.124,144.118-1272.591,144.118C1178.952,2734.624,810.206,2687.73,569.85,2593.9z"/>
	</g>
</g>
<g id="Shapes">
	<g>
		<g>
			
				<line style="fill:none;stroke:#000000;stroke-width:12;stroke-miterlimit:10;" x1="1393.567" y1="1542.047" x2="1680.593" y2="1542.047"/>
			<g>
				<polygon points="1671.839,1571.965 1723.651,1542.047 1671.839,1512.129 				"/>
			</g>
		</g>
	</g>
	<g>
		<g>
			
				<line style="fill:none;stroke:#000000;stroke-width:12;stroke-miterlimit:10;" x1="2256.983" y1="1378.03" x2="2788.731" y2="1194.233"/>
			<g>
				<polygon points="2790.231,1225.369 2829.426,1180.167 2770.684,1168.816 				"/>
			</g>
		</g>
	</g>
	<g>
		<g>
			
				<line style="fill:none;stroke:#000000;stroke-width:12;stroke-miterlimit:10;" x1="2246.316" y1="1698.029" x2="2762.608" y2="1960.785"/>
			<g>
				<polygon points="2741.237,1983.478 2800.982,1980.314 2768.376,1930.151 				"/>
			</g>
		</g>
	</g>
	<circle style="fill:#FF5553;stroke:#FFFFFF;stroke-miterlimit:10;" cx="541.58" cy="819.799" r="270"/>
	<circle style="fill:#FF5553;" cx="578.913" cy="2186.907" r="270"/>
	<circle style="fill:#FF5553;" cx="3071.353" cy="1059.649" r="270"/>
	<circle style="fill:#FF5553;" cx="3071.353" cy="2016.241" r="270"/>
	<path style="fill:#0033AD;" d="M2247.116,1732.047h-494.232c-18.086,0-32.884-14.798-32.884-32.884v-314.232
		c0-18.086,14.798-32.884,32.884-32.884h494.232c18.086,0,32.884,14.798,32.884,32.884v314.232
		C2280,1717.249,2265.202,1732.047,2247.116,1732.047z"/>
	<g>
		<path d="M114.889,218.39V81.19h24.4l49,72.8l7.2,12.601l0.8-0.2v-85.2h26.4v137.2h-25l-50.4-75.4l-5-9.2l-1,0.2v84.4H114.889z"/>
		<path d="M295.289,220.39c-9.6,0-18.1-1.969-25.5-5.9c-7.4-3.931-13.169-9.665-17.3-17.2c-4.135-7.531-6.2-16.699-6.2-27.5v-5
			c0-10.8,2.166-19.965,6.5-27.5c4.331-7.531,10.266-13.266,17.8-17.199c7.531-3.932,16.1-5.9,25.7-5.9h3.2
			c9.065,0,16.965,1.834,23.7,5.5c6.731,3.669,11.931,8.8,15.6,15.4c3.666,6.6,5.5,14.3,5.5,23.1v12.6h-69.2
			c0,6.4,0.8,12,2.4,16.801c1.6,4.8,4,8.469,7.2,11c3.2,2.534,7.4,3.8,12.6,3.8c4.266,0,8-0.831,11.2-2.5
			c3.2-1.666,5.731-4.166,7.6-7.5c1.866-3.331,2.8-7.4,2.8-12.2h25.4c0,7.869-2,14.834-6,20.9c-4,6.068-9.5,10.8-16.5,14.199
			c-7,3.4-15.1,5.101-24.3,5.101H295.289z M275.289,156.789h42.2c0-8.399-1.834-14.631-5.5-18.699
			c-3.669-4.066-8.7-6.101-15.1-6.101c-6,0-11.035,2.101-15.1,6.3C277.72,142.49,275.555,148.659,275.289,156.789z"/>
		<path d="M388.286,218.39l-31.6-102.2h28.4l18.8,65h1l19.2-65h28.199l19.2,65h1.2l18.8-65h26.4l-31.8,102.2h-29.601l-18.6-62h-1.2
			l-18.4,62H388.286z"/>
		<path d="M628.283,220.39c-10.27,0-19.135-1.9-26.601-5.7c-7.469-3.8-13.234-9.166-17.3-16.1c-4.068-6.932-6.1-15-6.1-24.2v-93.2
			h29.199v92.8c0,7.2,2.231,13.034,6.7,17.5c4.466,4.469,10.5,6.7,18.101,6.7c7.6,0,13.6-2.266,18-6.8
			c4.399-4.531,6.6-10.331,6.6-17.4v-92.8h29.2v93.2c0,9.2-2.234,17.269-6.7,24.2c-4.469,6.934-10.6,12.3-18.4,16.1
			c-7.8,3.8-16.834,5.7-27.1,5.7H628.283z"/>
		<path d="M744.48,218.39V103.789h-39.399v-22.6h107.8v22.6h-39.4V218.39H744.48z"/>
		<path d="M817.878,218.39l46.4-72.4l-41.8-64.8h33.8l27.6,44.2h0.601l28-44.2h31.2l-42.2,65l46.399,72.2h-33.8l-32.2-51.2h-0.6
			l-32,51.2H817.878z"/>
		<path d="M1014.08,220.39c-7.869,0-15.27-1.335-22.2-4c-6.935-2.666-13.034-6.632-18.3-11.9c-5.27-5.266-9.369-11.831-12.301-19.7
			c-2.934-7.865-4.399-17.131-4.399-27.8v-14.2c0-10.665,1.5-19.931,4.5-27.8c3-7.865,7.131-14.431,12.399-19.7
			c5.266-5.266,11.332-9.23,18.2-11.899c6.866-2.666,14.166-4,21.9-4h6.8c8,0,15.432,1.334,22.3,4
			c6.866,2.669,12.932,6.634,18.2,11.899c5.266,5.27,9.365,11.835,12.3,19.7c2.932,7.869,4.4,17.135,4.4,27.8v14.2
			c0,10.669-1.5,19.935-4.5,27.8c-3,7.869-7.135,14.435-12.4,19.7c-5.269,5.269-11.334,9.234-18.2,11.9
			c-6.868,2.665-14.168,4-21.899,4H1014.08z M1017.279,198.19c4.266,0,8.2-0.631,11.801-1.9c3.6-1.266,6.73-3.266,9.399-6
			c2.666-2.73,4.766-6.3,6.3-10.699c1.531-4.4,2.301-9.801,2.301-16.2v-26.8c0-6.4-0.77-11.832-2.301-16.301
			c-1.534-4.465-3.634-8.065-6.3-10.8c-2.669-2.731-5.8-4.731-9.399-6c-3.601-1.266-7.469-1.899-11.601-1.899
			c-4.134,0-8.034,0.634-11.7,1.899c-3.668,1.269-6.834,3.269-9.5,6c-2.668,2.734-4.769,6.3-6.3,10.7c-1.534,4.4-2.3,9.8-2.3,16.2
			v26.8c0,6.4,0.766,11.834,2.3,16.3c1.531,4.469,3.632,8.069,6.3,10.8c2.666,2.734,5.801,4.734,9.4,6
			C1009.279,197.559,1013.145,198.19,1017.279,198.19z"/>
		<path d="M1192.476,220.39c-9.734,0-18.634-1.435-26.7-4.3c-8.068-2.866-14.534-7.366-19.399-13.5c-4.869-6.132-7.3-14.2-7.3-24.2
			c0-0.8,0-1.565,0-2.3c0-0.731,0.065-1.432,0.199-2.101h27c-0.134,0.669-0.199,1.269-0.199,1.8c0,0.535,0,1.135,0,1.801
			c0,4.269,1.031,7.934,3.1,11c2.065,3.068,5.131,5.399,9.2,7c4.065,1.6,8.899,2.399,14.5,2.399c6.266,0,11.399-0.631,15.399-1.899
			c4-1.266,7-3.231,9-5.9c2-2.666,3-5.932,3-9.8c0-4.132-1.434-7.432-4.3-9.9c-2.868-2.466-6.6-4.431-11.2-5.899
			c-4.6-1.466-9.668-2.832-15.199-4.101c-5.535-1.266-11.069-2.766-16.601-4.5c-5.534-1.731-10.634-4.065-15.3-7
			c-4.669-2.931-8.4-6.8-11.2-11.6s-4.2-10.932-4.2-18.4c0-8.931,2.432-16.331,7.301-22.2c4.865-5.865,11.331-10.266,19.399-13.199
			c8.065-2.932,16.831-4.4,26.3-4.4c9.466,0,18.066,1.369,25.801,4.1c7.73,2.734,13.931,7,18.6,12.801c4.666,5.8,7,13.3,7,22.5v2.6
			h-26.6v-2.4c0-3.6-0.969-6.73-2.9-9.399c-1.935-2.666-4.7-4.7-8.3-6.101c-3.601-1.399-8-2.1-13.2-2.1c-4.8,0-9.034,0.5-12.7,1.5
			c-3.669,1-6.5,2.6-8.5,4.8s-3,5.034-3,8.5c0,4,1.4,7.2,4.2,9.601c2.8,2.399,6.531,4.3,11.2,5.699c4.665,1.4,9.831,2.734,15.5,4
			c5.665,1.27,11.266,2.734,16.8,4.4c5.531,1.669,10.631,3.935,15.3,6.8c4.666,2.869,8.4,6.669,11.2,11.4
			c2.8,4.734,4.2,10.769,4.2,18.1c0,10.669-2.534,19.234-7.601,25.7c-5.068,6.469-11.899,11.2-20.5,14.2
			C1213.176,218.89,1203.408,220.39,1192.476,220.39z"/>
		<path d="M1316.875,220.39c-9.6,0-18.1-1.969-25.5-5.9c-7.4-3.931-13.169-9.665-17.3-17.2c-4.135-7.531-6.2-16.699-6.2-27.5v-5
			c0-10.8,2.166-19.965,6.5-27.5c4.331-7.531,10.266-13.266,17.8-17.199c7.531-3.932,16.101-5.9,25.7-5.9h3.2
			c9.065,0,16.966,1.834,23.7,5.5c6.73,3.669,11.931,8.8,15.6,15.4c3.666,6.6,5.5,14.3,5.5,23.1v12.6h-69.2c0,6.4,0.8,12,2.4,16.801
			c1.6,4.8,4,8.469,7.2,11c3.199,2.534,7.399,3.8,12.6,3.8c4.266,0,8-0.831,11.2-2.5c3.2-1.666,5.731-4.166,7.6-7.5
			c1.866-3.331,2.8-7.4,2.8-12.2h25.4c0,7.869-2,14.834-6,20.9c-4,6.068-9.5,10.8-16.5,14.199c-7,3.4-15.1,5.101-24.3,5.101
			H1316.875z M1296.875,156.789h42.2c0-8.399-1.835-14.631-5.5-18.699c-3.669-4.066-8.7-6.101-15.101-6.101
			c-6,0-11.034,2.101-15.1,6.3C1299.306,142.49,1297.14,148.659,1296.875,156.789z"/>
		<path d="M1423.471,220.39c-5.734,0-10.869-0.8-15.4-2.4c-4.534-1.6-8.068-4.3-10.6-8.1c-2.534-3.8-3.8-8.831-3.8-15.101V136.59
			h-11.2v-20.4h12l9.6-32.6h16.8v32.6h24v20.4h-24v52.199c0,5.869,1.2,9.601,3.601,11.2c2.399,1.601,5,2.4,7.8,2.4
			c1.466,0,3.5-0.3,6.1-0.9c2.601-0.6,4.7-1.231,6.301-1.899v16.8c-1.734,0.935-3.869,1.7-6.4,2.3c-2.534,0.6-5.1,1.031-7.7,1.3
			C1427.971,220.255,1425.602,220.39,1423.471,220.39z"/>
	</g>
	<g>
		<path style="fill:#FFFFFF;" d="M422.283,787.594l25.2-68.6h17.4l25.1,68.6h-15.2l-5.3-14.2h-27.8l-5.3,14.2H422.283z
			 M445.283,762.894h20.5l-10-28.5h-0.4L445.283,762.894z"/>
		<path style="fill:#FFFFFF;" d="M497.182,787.594v-72h13.7v72H497.182z"/>
		<path style="fill:#FFFFFF;" d="M525.881,726.194v-10.6h14.1v10.6H525.881z M526.081,787.594v-51.1h13.7v51.1H526.081z"/>
		<path style="fill:#FFFFFF;" d="M574.68,788.594c-4.334,0-8.25-1.065-11.75-3.2c-3.5-2.133-6.25-5.083-8.25-8.85
			c-2-3.766-3-8.083-3-12.95v-3.1c0-3.666,0.616-7.016,1.85-10.05c1.232-3.033,2.916-5.683,5.05-7.95c2.133-2.266,4.633-4,7.5-5.2
			c2.866-1.2,5.933-1.8,9.2-1.8h1.9c4.465,0,8.35,0.884,11.65,2.65c3.3,1.768,5.833,4.234,7.6,7.4
			c1.766,3.167,2.65,6.884,2.65,11.15h-11.9c0-2.733-0.417-5-1.25-6.8c-0.834-1.8-2.017-3.166-3.55-4.1
			c-1.534-0.933-3.367-1.4-5.5-1.4c-3.067,0-5.634,1.05-7.7,3.15c-2.067,2.1-3.1,5.184-3.1,9.25v10.3c0,4,0.983,7.084,2.95,9.25
			c1.965,2.167,4.615,3.25,7.95,3.25c2.333,0,4.3-0.4,5.9-1.2c1.6-0.8,2.816-2.1,3.65-3.9c0.833-1.8,1.25-4.2,1.25-7.2h11.3
			c0,4.534-0.967,8.384-2.9,11.55c-1.935,3.167-4.6,5.584-8,7.25s-7.267,2.5-11.6,2.5H574.68z"/>
		<path style="fill:#FFFFFF;" d="M632.08,788.594c-4.8,0-9.05-0.984-12.75-2.95c-3.7-1.965-6.584-4.833-8.65-8.6
			c-2.067-3.766-3.1-8.35-3.1-13.75v-2.5c0-5.4,1.083-9.983,3.25-13.75c2.166-3.766,5.133-6.633,8.9-8.6
			c3.766-1.966,8.05-2.95,12.85-2.95h1.6c4.533,0,8.483,0.917,11.85,2.75c3.365,1.834,5.965,4.4,7.8,7.7
			c1.833,3.3,2.75,7.15,2.75,11.55v6.3h-34.6c0,3.2,0.4,6,1.2,8.4c0.8,2.4,2,4.234,3.6,5.5c1.6,1.267,3.7,1.9,6.3,1.9
			c2.133,0,4-0.416,5.6-1.25c1.6-0.833,2.866-2.083,3.8-3.75c0.933-1.666,1.4-3.7,1.4-6.1h12.7c0,3.935-1,7.417-3,10.45
			c-2,3.034-4.75,5.4-8.25,7.1c-3.5,1.7-7.55,2.55-12.15,2.55H632.08z M622.08,756.794h21.1c0-4.2-0.917-7.316-2.75-9.35
			c-1.834-2.033-4.35-3.05-7.55-3.05c-3,0-5.517,1.05-7.55,3.15C623.295,749.644,622.212,752.728,622.08,756.794z"/>
		<path style="fill:#FFFFFF;" d="M396.882,898.594c-4.535,0-8.6-1.016-12.2-3.05c-3.6-2.033-6.45-4.833-8.55-8.4
			c-2.1-3.565-3.15-7.683-3.15-12.35v-23c0-4.666,1.065-8.8,3.2-12.4c2.133-3.6,5.016-6.4,8.65-8.4c3.633-2,7.75-3,12.35-3h1.7
			c4.266,0,8.116,0.884,11.55,2.65c3.433,1.768,6.183,4.334,8.25,7.7c2.066,3.367,3.1,7.45,3.1,12.25h-12.5
			c0-3.733-1.05-6.65-3.15-8.75s-4.75-3.15-7.95-3.15c-2.2,0-4.15,0.5-5.85,1.5c-1.7,1-3.067,2.35-4.1,4.05
			c-1.035,1.7-1.55,3.617-1.55,5.75v10.9c1.866-2.2,4.15-3.865,6.85-5c2.7-1.133,5.416-1.7,8.15-1.7c4.066,0,7.733,0.834,11,2.5
			c3.266,1.667,5.85,4.067,7.75,7.2c1.9,3.135,2.85,6.935,2.85,11.4c0,4.667-1.1,8.75-3.3,12.25c-2.2,3.5-5.167,6.217-8.9,8.15
			c-3.734,1.933-7.867,2.9-12.4,2.9H396.882z M398.282,888.394c2.466,0,4.533-0.533,6.2-1.6c1.666-1.066,2.965-2.55,3.9-4.45
			c0.933-1.9,1.4-4.116,1.4-6.65c0-2.666-0.484-4.95-1.45-6.85c-0.967-1.9-2.3-3.35-4-4.35c-1.7-1-3.717-1.5-6.05-1.5
			c-2.4,0-4.45,0.517-6.15,1.55c-1.7,1.034-3.035,2.484-4,4.35c-0.967,1.867-1.45,4.1-1.45,6.7c0,2.667,0.483,4.95,1.45,6.85
			c0.965,1.9,2.315,3.367,4.05,4.4C393.915,887.878,395.947,888.394,398.282,888.394z"/>
		<path style="fill:#FFFFFF;" d="M457.581,898.594c-4.4,0-8.4-1.033-12-3.1c-3.6-2.065-6.45-4.9-8.55-8.5s-3.15-7.666-3.15-12.2v-23
			c0-4.6,1.05-8.683,3.15-12.25c2.1-3.566,4.95-6.383,8.55-8.45c3.6-2.065,7.6-3.1,12-3.1h2.9c4.465,0,8.482,1.035,12.05,3.1
			c3.565,2.067,6.383,4.884,8.45,8.45c2.065,3.567,3.1,7.65,3.1,12.25v23c0,4.534-1.034,8.6-3.1,12.2
			c-2.067,3.6-4.885,6.435-8.45,8.5c-3.567,2.067-7.584,3.1-12.05,3.1H457.581z M458.981,888.094c2.2,0,4.15-0.516,5.85-1.55
			c1.7-1.033,3.033-2.416,4-4.15c0.966-1.732,1.45-3.7,1.45-5.9v-26.5c0-2.2-0.484-4.166-1.45-5.9c-0.967-1.733-2.3-3.116-4-4.15
			c-1.7-1.033-3.65-1.55-5.85-1.55c-2.135,0-4.05,0.518-5.75,1.55c-1.7,1.034-3.05,2.417-4.05,4.15c-1,1.734-1.5,3.7-1.5,5.9v26.5
			c0,2.2,0.5,4.167,1.5,5.9c1,1.734,2.35,3.117,4.05,4.15C454.931,887.578,456.846,888.094,458.981,888.094z"/>
		<path style="fill:#FFFFFF;" d="M511.579,897.594l25.2-68.6h17.4l25.1,68.6h-15.2l-5.3-14.2h-27.8l-5.3,14.2H511.579z
			 M534.579,872.894h20.5l-10-28.5h-0.4L534.579,872.894z"/>
		<path style="fill:#FFFFFF;" d="M587.179,897.594v-68.6h27.2c3.933,0,7.633,0.617,11.1,1.85c3.465,1.234,6.516,3.1,9.15,5.6
			c2.633,2.5,4.683,5.634,6.15,9.4c1.466,3.767,2.2,8.217,2.2,13.35v6.4c0,5.067-0.734,9.584-2.2,13.55
			c-1.467,3.967-3.517,7.317-6.15,10.05c-2.634,2.734-5.685,4.817-9.15,6.25c-3.467,1.434-7.167,2.15-11.1,2.15H587.179z
			 M601.779,886.394h11.4c2.733,0,5.183-0.615,7.35-1.85c2.166-1.233,3.883-3.15,5.15-5.75c1.266-2.6,1.9-5.966,1.9-10.1v-11.9
			c0-4.066-0.635-7.316-1.9-9.75c-1.267-2.433-2.984-4.2-5.15-5.3c-2.167-1.1-4.617-1.65-7.35-1.65h-11.4V886.394z"/>
		<path style="fill:#FFFFFF;" d="M648.279,897.594l25.2-68.6h17.4l25.1,68.6h-15.2l-5.3-14.2h-27.8l-5.3,14.2H648.279z
			 M671.279,872.894h20.5l-10-28.5h-0.4L671.279,872.894z"/>
	</g>
	<g>
		<path style="fill:#FFFFFF;" d="M494.315,2154.702v-68.601h33.4c3.465,0,6.565,0.668,9.3,2c2.733,1.335,4.85,3.2,6.35,5.601
			c1.5,2.399,2.25,5.234,2.25,8.5c0,3.399-0.584,6.217-1.75,8.45c-1.167,2.234-2.634,4-4.4,5.3c-1.768,1.3-3.617,2.25-5.55,2.85
			v0.601c1.333,0.199,2.783,0.649,4.35,1.35c1.565,0.7,3.033,1.65,4.4,2.85c1.366,1.2,2.466,2.7,3.3,4.5
			c0.833,1.801,1.25,4.035,1.25,6.7c0,3.867-0.867,7.3-2.6,10.3c-1.734,3-4.1,5.351-7.1,7.051c-3,1.699-6.435,2.55-10.3,2.55
			H494.315z M508.115,2114.403h15c1.8,0,3.35-0.434,4.65-1.301c1.3-0.865,2.283-2.016,2.95-3.449c0.666-1.434,1-2.983,1-4.65
			c0-2.732-0.685-4.783-2.05-6.15c-1.367-1.365-3.317-2.05-5.85-2.05h-15.7V2114.403z M508.115,2143.802h15.8
			c1.8,0,3.383-0.433,4.75-1.3c1.366-0.865,2.433-2.033,3.2-3.5c0.766-1.466,1.15-3.133,1.15-5c0-1.865-0.4-3.45-1.2-4.75
			c-0.8-1.3-1.884-2.315-3.25-3.05c-1.367-0.733-2.884-1.101-4.55-1.101h-15.9V2143.802z"/>
		<path style="fill:#FFFFFF;" d="M580.914,2155.702c-4.667,0-8.85-1.05-12.55-3.15c-3.7-2.1-6.6-5.083-8.7-8.95
			c-2.1-3.865-3.15-8.399-3.15-13.6v-1.8c0-5.266,1.05-9.8,3.15-13.601c2.1-3.8,4.983-6.75,8.65-8.85
			c3.666-2.1,7.833-3.15,12.5-3.15h2c4.733,0,8.933,1.051,12.6,3.15c3.666,2.1,6.55,5.05,8.65,8.85
			c2.1,3.801,3.15,8.335,3.15,13.601v1.8c0,5.268-1.05,9.817-3.15,13.65c-2.1,3.834-4.984,6.8-8.65,8.899
			c-3.667,2.101-7.834,3.15-12.5,3.15H580.914z M581.814,2146.702c2.066,0,3.916-0.483,5.55-1.45c1.633-0.966,2.933-2.416,3.9-4.35
			c0.965-1.934,1.45-4.233,1.45-6.9v-9.8c0-2.733-0.484-5.033-1.45-6.9c-0.967-1.865-2.267-3.3-3.9-4.3c-1.635-1-3.484-1.5-5.55-1.5
			c-2,0-3.834,0.5-5.5,1.5c-1.667,1-2.984,2.435-3.95,4.3c-0.967,1.867-1.45,4.167-1.45,6.9v9.8c0,2.667,0.483,4.967,1.45,6.9
			c0.965,1.934,2.283,3.384,3.95,4.35C577.979,2146.219,579.814,2146.702,581.814,2146.702z"/>
		<path style="fill:#FFFFFF;" d="M645.313,2155.702c-7.467,0-13.167-3-17.1-9l-4.7,8h-5v-72h13.7v26.899
			c1.4-1.933,3.333-3.582,5.8-4.949c2.466-1.366,5.4-2.051,8.8-2.051c3.666,0,7,0.851,10,2.551c3,1.699,5.4,4.35,7.2,7.949
			c1.8,3.601,2.7,8.234,2.7,13.9v2.2c0,6.067-0.967,11.067-2.9,15c-1.935,3.935-4.535,6.834-7.8,8.7
			C652.746,2154.768,649.179,2155.702,645.313,2155.702z M642.414,2146.702c1.933,0,3.633-0.466,5.1-1.4
			c1.466-0.933,2.633-2.383,3.5-4.35c0.866-1.966,1.3-4.483,1.3-7.55v-9c0-2.801-0.417-5.116-1.25-6.95
			c-0.834-1.833-1.967-3.233-3.4-4.2c-1.435-0.966-3.117-1.45-5.05-1.45c-1.867,0-3.6,0.484-5.2,1.45
			c-1.6,0.967-2.867,2.385-3.8,4.25c-0.934,1.867-1.4,4.2-1.4,7v8.9c0,3.066,0.45,5.584,1.35,7.55c0.9,1.967,2.133,3.417,3.7,4.35
			C638.829,2146.237,640.546,2146.702,642.414,2146.702z"/>
		<path style="fill:#FFFFFF;" d="M412.415,2264.702v-11h17v-42.4h-17v-8.1c2.466-0.2,5.183-0.666,8.15-1.4
			c2.965-0.732,5.982-1.7,9.05-2.899c3.065-1.2,5.933-2.466,8.6-3.801h4.9v58.601h16.7v11H412.415z"/>
		<path style="fill:#FFFFFF;" d="M494.914,2265.702c-4.4,0-8.4-1.033-12-3.101c-3.6-2.065-6.45-4.899-8.55-8.5
			c-2.1-3.6-3.15-7.665-3.15-12.199v-23c0-4.601,1.05-8.684,3.15-12.25s4.95-6.383,8.55-8.45c3.6-2.065,7.6-3.101,12-3.101h2.9
			c4.465,0,8.482,1.035,12.05,3.101c3.565,2.067,6.383,4.884,8.45,8.45c2.065,3.566,3.1,7.649,3.1,12.25v23
			c0,4.534-1.034,8.6-3.1,12.199c-2.067,3.601-4.885,6.435-8.45,8.5c-3.567,2.067-7.584,3.101-12.05,3.101H494.914z
			 M496.314,2255.202c2.2,0,4.15-0.516,5.85-1.55c1.7-1.033,3.033-2.416,4-4.15c0.966-1.732,1.45-3.7,1.45-5.9v-26.5
			c0-2.199-0.484-4.165-1.45-5.899c-0.967-1.733-2.3-3.116-4-4.15c-1.7-1.032-3.65-1.55-5.85-1.55c-2.135,0-4.05,0.518-5.75,1.55
			c-1.7,1.034-3.05,2.417-4.05,4.15c-1,1.734-1.5,3.7-1.5,5.899v26.5c0,2.2,0.5,4.168,1.5,5.9c1,1.734,2.35,3.117,4.05,4.15
			C492.264,2254.687,494.18,2255.202,496.314,2255.202z"/>
		<path style="fill:#FFFFFF;" d="M548.912,2264.702l25.2-68.601h17.4l25.1,68.601h-15.2l-5.3-14.2h-27.8l-5.3,14.2H548.912z
			 M571.912,2240.002h20.5l-10-28.5h-0.4L571.912,2240.002z"/>
		<path style="fill:#FFFFFF;" d="M624.513,2264.702v-68.601h27.2c3.933,0,7.633,0.617,11.1,1.851c3.465,1.234,6.516,3.1,9.15,5.6
			c2.633,2.5,4.683,5.635,6.15,9.4c1.466,3.767,2.2,8.217,2.2,13.35v6.4c0,5.067-0.734,9.584-2.2,13.55
			c-1.467,3.967-3.517,7.317-6.15,10.05c-2.634,2.734-5.685,4.817-9.15,6.25c-3.467,1.435-7.167,2.15-11.1,2.15H624.513z
			 M639.113,2253.502h11.4c2.733,0,5.183-0.615,7.35-1.85c2.166-1.233,3.883-3.15,5.15-5.75c1.266-2.601,1.9-5.966,1.9-10.101
			v-11.899c0-4.066-0.635-7.316-1.9-9.75c-1.267-2.434-2.984-4.2-5.15-5.301c-2.167-1.1-4.617-1.649-7.35-1.649h-11.4V2253.502z"/>
		<path style="fill:#FFFFFF;" d="M685.613,2264.702l25.2-68.601h17.4l25.1,68.601h-15.2l-5.3-14.2h-27.8l-5.3,14.2H685.613z
			 M708.613,2240.002h20.5l-10-28.5h-0.4L708.613,2240.002z"/>
	</g>
	<g>
		<path style="fill:#FFFFFF;" d="M2952.056,1027.444l25.2-68.6h17.399l25.101,68.6h-15.2l-5.3-14.2h-27.801l-5.3,14.2H2952.056z
			 M2975.056,1002.744h20.5l-10-28.5h-0.4L2975.056,1002.744z"/>
		<path style="fill:#FFFFFF;" d="M3026.955,1027.444v-72h13.7v72H3026.955z"/>
		<path style="fill:#FFFFFF;" d="M3055.653,966.044v-10.6h14.101v10.6H3055.653z M3055.854,1027.444v-51.1h13.7v51.1H3055.854z"/>
		<path style="fill:#FFFFFF;" d="M3104.452,1028.444c-4.334,0-8.25-1.065-11.75-3.2c-3.5-2.133-6.25-5.083-8.25-8.85
			c-2-3.766-3-8.083-3-12.95v-3.1c0-3.666,0.616-7.016,1.851-10.05c1.232-3.033,2.915-5.683,5.05-7.95c2.133-2.266,4.633-4,7.5-5.2
			c2.865-1.2,5.933-1.8,9.2-1.8h1.899c4.466,0,8.351,0.884,11.65,2.65c3.3,1.768,5.833,4.234,7.6,7.4
			c1.766,3.167,2.65,6.884,2.65,11.15h-11.9c0-2.733-0.417-5-1.25-6.8c-0.834-1.8-2.017-3.166-3.55-4.1
			c-1.534-0.933-3.367-1.4-5.5-1.4c-3.067,0-5.635,1.05-7.7,3.15c-2.067,2.1-3.1,5.184-3.1,9.25v10.3c0,4,0.982,7.084,2.95,9.25
			c1.965,2.167,4.615,3.25,7.949,3.25c2.333,0,4.301-0.4,5.9-1.2c1.6-0.8,2.815-2.1,3.65-3.9c0.832-1.8,1.25-4.2,1.25-7.2h11.3
			c0,4.534-0.968,8.384-2.9,11.55c-1.935,3.167-4.6,5.585-8,7.25c-3.399,1.666-7.267,2.5-11.6,2.5H3104.452z"/>
		<path style="fill:#FFFFFF;" d="M3161.853,1028.444c-4.8,0-9.05-0.984-12.75-2.95c-3.7-1.965-6.585-4.833-8.65-8.6
			c-2.067-3.766-3.1-8.35-3.1-13.75v-2.5c0-5.4,1.083-9.983,3.25-13.75c2.165-3.766,5.133-6.633,8.899-8.6
			c3.766-1.966,8.051-2.95,12.851-2.95h1.6c4.533,0,8.483,0.917,11.851,2.75c3.365,1.834,5.965,4.4,7.8,7.7
			c1.833,3.3,2.75,7.15,2.75,11.55v6.3h-34.601c0,3.2,0.4,6,1.2,8.4s2,4.234,3.601,5.5c1.6,1.267,3.699,1.9,6.3,1.9
			c2.133,0,4-0.416,5.6-1.25c1.601-0.833,2.866-2.083,3.8-3.75c0.934-1.666,1.4-3.7,1.4-6.1h12.7c0,3.935-1,7.417-3,10.45
			c-2,3.034-4.75,5.4-8.25,7.1c-3.5,1.7-7.55,2.55-12.15,2.55H3161.853z M3151.853,996.644h21.1c0-4.2-0.917-7.316-2.75-9.35
			c-1.834-2.033-4.35-3.05-7.55-3.05c-3,0-5.518,1.05-7.55,3.15C3153.068,989.494,3151.985,992.578,3151.853,996.644z"/>
		<path style="fill:#FFFFFF;" d="M2904.854,1137.444v-11h17v-42.4h-17v-8.1c2.466-0.2,5.183-0.666,8.15-1.4
			c2.965-0.733,5.982-1.7,9.05-2.9c3.065-1.2,5.933-2.466,8.6-3.8h4.9v58.6h16.7v11H2904.854z"/>
		<path style="fill:#FFFFFF;" d="M2987.354,1138.444c-4.4,0-8.4-1.033-12-3.1c-3.6-2.065-6.45-4.9-8.55-8.5
			c-2.101-3.6-3.15-7.666-3.15-12.2v-23c0-4.6,1.05-8.683,3.15-12.25c2.1-3.566,4.95-6.383,8.55-8.45c3.6-2.065,7.6-3.1,12-3.1h2.9
			c4.465,0,8.482,1.035,12.05,3.1c3.565,2.067,6.383,4.884,8.45,8.45c2.065,3.567,3.1,7.65,3.1,12.25v23c0,4.534-1.034,8.6-3.1,12.2
			c-2.067,3.6-4.885,6.435-8.45,8.5c-3.567,2.067-7.585,3.1-12.05,3.1H2987.354z M2988.754,1127.944c2.199,0,4.149-0.516,5.85-1.55
			c1.7-1.033,3.033-2.416,4-4.15c0.966-1.732,1.45-3.7,1.45-5.9v-26.5c0-2.2-0.484-4.166-1.45-5.9c-0.967-1.733-2.3-3.116-4-4.15
			c-1.7-1.033-3.65-1.55-5.85-1.55c-2.135,0-4.051,0.518-5.75,1.55c-1.7,1.034-3.051,2.417-4.051,4.15c-1,1.734-1.5,3.7-1.5,5.9
			v26.5c0,2.2,0.5,4.167,1.5,5.9c1,1.734,2.351,3.117,4.051,4.15C2984.703,1127.429,2986.619,1127.944,2988.754,1127.944z"/>
		<path style="fill:#FFFFFF;" d="M3041.352,1137.444l25.2-68.6h17.399l25.101,68.6h-15.2l-5.3-14.2h-27.801l-5.3,14.2H3041.352z
			 M3064.352,1112.744h20.5l-10-28.5h-0.4L3064.352,1112.744z"/>
		<path style="fill:#FFFFFF;" d="M3116.952,1137.444v-68.6h27.2c3.933,0,7.633,0.617,11.1,1.85c3.466,1.234,6.516,3.1,9.15,5.6
			c2.633,2.5,4.683,5.634,6.149,9.4c1.466,3.767,2.2,8.217,2.2,13.35v6.4c0,5.067-0.734,9.584-2.2,13.55
			c-1.467,3.967-3.517,7.317-6.149,10.05c-2.635,2.734-5.685,4.817-9.15,6.25c-3.467,1.434-7.167,2.15-11.1,2.15H3116.952z
			 M3131.552,1126.244h11.4c2.732,0,5.183-0.615,7.35-1.85c2.166-1.233,3.883-3.15,5.15-5.75c1.266-2.6,1.9-5.966,1.9-10.1v-11.9
			c0-4.066-0.635-7.316-1.9-9.75c-1.268-2.433-2.984-4.2-5.15-5.3c-2.167-1.1-4.617-1.65-7.35-1.65h-11.4V1126.244z"/>
		<path style="fill:#FFFFFF;" d="M3178.052,1137.444l25.2-68.6h17.4l25.1,68.6h-15.2l-5.3-14.2h-27.8l-5.3,14.2H3178.052z
			 M3201.052,1112.744h20.5l-10-28.5h-0.399L3201.052,1112.744z"/>
	</g>
	<g>
		<path style="fill:#FFFFFF;" d="M2986.754,1984.036v-68.6h33.4c3.466,0,6.565,0.667,9.3,2c2.733,1.334,4.851,3.2,6.351,5.6
			c1.5,2.4,2.25,5.234,2.25,8.5c0,3.4-0.585,6.218-1.75,8.45c-1.168,2.234-2.635,4-4.4,5.3c-1.768,1.3-3.617,2.25-5.55,2.851v0.6
			c1.333,0.2,2.782,0.65,4.35,1.35c1.565,0.7,3.033,1.65,4.4,2.851c1.365,1.2,2.466,2.7,3.3,4.5c0.833,1.8,1.25,4.034,1.25,6.7
			c0,3.867-0.867,7.3-2.6,10.3c-1.734,3-4.101,5.35-7.101,7.05s-6.435,2.55-10.3,2.55H2986.754z M3000.555,1943.736h15
			c1.8,0,3.35-0.433,4.649-1.3c1.3-0.866,2.283-2.016,2.95-3.45c0.666-1.433,1-2.982,1-4.65c0-2.732-0.685-4.782-2.05-6.149
			c-1.367-1.366-3.317-2.05-5.851-2.05h-15.699V1943.736z M3000.555,1973.136h15.8c1.8,0,3.383-0.434,4.75-1.301
			c1.365-0.865,2.433-2.032,3.2-3.5c0.766-1.465,1.149-3.133,1.149-5c0-1.865-0.399-3.449-1.2-4.75c-0.8-1.3-1.884-2.315-3.25-3.05
			c-1.367-0.732-2.884-1.1-4.55-1.1h-15.899V1973.136z"/>
		<path style="fill:#FFFFFF;" d="M3073.354,1985.036c-4.667,0-8.851-1.05-12.55-3.149c-3.7-2.101-6.601-5.083-8.7-8.95
			c-2.101-3.866-3.15-8.4-3.15-13.601v-1.8c0-5.266,1.05-9.8,3.15-13.6c2.1-3.8,4.982-6.75,8.649-8.851
			c3.666-2.1,7.833-3.149,12.5-3.149h2c4.733,0,8.934,1.05,12.601,3.149c3.665,2.101,6.55,5.051,8.649,8.851
			c2.101,3.8,3.15,8.334,3.15,13.6v1.8c0,5.268-1.05,9.817-3.15,13.65c-2.1,3.834-4.984,6.8-8.649,8.9
			c-3.667,2.1-7.835,3.149-12.5,3.149H3073.354z M3074.253,1976.036c2.066,0,3.916-0.482,5.551-1.45
			c1.633-0.965,2.933-2.415,3.899-4.35c0.966-1.933,1.45-4.232,1.45-6.9v-9.8c0-2.732-0.484-5.032-1.45-6.899
			c-0.967-1.866-2.267-3.301-3.899-4.301c-1.635-1-3.484-1.5-5.551-1.5c-2,0-3.834,0.5-5.5,1.5c-1.667,1-2.984,2.435-3.949,4.301
			c-0.968,1.867-1.45,4.167-1.45,6.899v9.8c0,2.668,0.482,4.968,1.45,6.9c0.965,1.935,2.282,3.385,3.949,4.35
			C3070.419,1975.553,3072.253,1976.036,3074.253,1976.036z"/>
		<path style="fill:#FFFFFF;" d="M3137.753,1985.036c-7.468,0-13.168-3-17.101-9l-4.7,8h-5v-72h13.7v26.9
			c1.4-1.933,3.333-3.583,5.8-4.95c2.466-1.365,5.4-2.05,8.801-2.05c3.665,0,7,0.85,10,2.55s5.399,4.35,7.199,7.95
			c1.801,3.6,2.7,8.234,2.7,13.899v2.2c0,6.067-0.967,11.067-2.899,15c-1.935,3.935-4.535,6.835-7.801,8.7
			C3145.186,1984.101,3141.618,1985.036,3137.753,1985.036z M3134.853,1976.036c1.933,0,3.633-0.466,5.1-1.399
			c1.466-0.934,2.633-2.383,3.5-4.351c0.866-1.966,1.301-4.482,1.301-7.55v-9c0-2.8-0.418-5.115-1.25-6.95
			c-0.835-1.833-1.968-3.232-3.4-4.2c-1.435-0.965-3.117-1.449-5.05-1.449c-1.867,0-3.601,0.484-5.2,1.449
			c-1.6,0.968-2.867,2.385-3.8,4.25c-0.935,1.867-1.4,4.2-1.4,7v8.9c0,3.067,0.45,5.584,1.351,7.55
			c0.899,1.968,2.133,3.417,3.699,4.351S3132.985,1976.036,3134.853,1976.036z"/>
		<path style="fill:#FFFFFF;" d="M2924.654,2095.035c-5.067,0-9.367-0.85-12.899-2.55c-3.535-1.7-6.2-4.033-8-7
			c-1.801-2.966-2.7-6.315-2.7-10.05v-1.9h12.5c0,4,1.183,6.817,3.55,8.45c2.365,1.635,5.45,2.45,9.25,2.45s6.883-0.866,9.25-2.601
			c2.365-1.732,3.55-4.399,3.55-8c0-2.399-0.517-4.35-1.55-5.85c-1.034-1.5-2.417-2.615-4.15-3.35
			c-1.734-0.733-3.634-1.101-5.699-1.101h-9.301v-9.1h8.2c1.933,0,3.75-0.366,5.45-1.101c1.7-0.732,3.05-1.832,4.05-3.3
			c1-1.466,1.5-3.3,1.5-5.5c0-2.133-0.5-3.883-1.5-5.25c-1-1.365-2.367-2.399-4.1-3.1c-1.734-0.7-3.667-1.05-5.8-1.05
			c-3.535,0-6.317,0.867-8.351,2.6c-2.034,1.734-3.05,4.2-3.05,7.4h-11.9v-2.101c0-3.665,1.033-6.883,3.101-9.649
			c2.065-2.766,4.865-4.95,8.399-6.551c3.533-1.6,7.566-2.399,12.101-2.399h2c4.399,0,8.3,0.784,11.7,2.35
			c3.399,1.567,6.082,3.734,8.05,6.5c1.966,2.768,2.95,5.984,2.95,9.65c0,2.534-0.435,4.767-1.301,6.7
			c-0.867,1.934-2.066,3.584-3.6,4.949c-1.534,1.367-3.334,2.518-5.4,3.45v0.601c3.533,1.134,6.434,3.017,8.7,5.649
			c2.266,2.635,3.4,6.185,3.4,10.65c0,3.867-1.101,7.317-3.3,10.35c-2.2,3.034-5.234,5.417-9.101,7.15
			c-3.867,1.732-8.3,2.6-13.3,2.6H2924.654z"/>
		<path style="fill:#FFFFFF;" d="M2987.354,2095.035c-4.4,0-8.4-1.032-12-3.1c-3.6-2.065-6.45-4.9-8.55-8.5
			c-2.101-3.601-3.15-7.666-3.15-12.2v-23c0-4.599,1.05-8.682,3.15-12.25c2.1-3.565,4.95-6.383,8.55-8.45c3.6-2.065,7.6-3.1,12-3.1
			h2.9c4.465,0,8.482,1.034,12.05,3.1c3.565,2.067,6.383,4.885,8.45,8.45c2.065,3.567,3.1,7.65,3.1,12.25v23
			c0,4.534-1.034,8.6-3.1,12.2c-2.067,3.6-4.885,6.435-8.45,8.5c-3.567,2.067-7.585,3.1-12.05,3.1H2987.354z M2988.754,2084.535
			c2.199,0,4.149-0.516,5.85-1.55c1.7-1.033,3.033-2.416,4-4.15c0.966-1.732,1.45-3.699,1.45-5.899v-26.5
			c0-2.2-0.484-4.166-1.45-5.9c-0.967-1.732-2.3-3.115-4-4.149c-1.7-1.033-3.65-1.551-5.85-1.551c-2.135,0-4.051,0.518-5.75,1.551
			c-1.7,1.034-3.051,2.417-4.051,4.149c-1,1.734-1.5,3.7-1.5,5.9v26.5c0,2.2,0.5,4.167,1.5,5.899c1,1.734,2.351,3.117,4.051,4.15
			C2984.703,2084.02,2986.619,2084.535,2988.754,2084.535z"/>
		<path style="fill:#FFFFFF;" d="M3041.352,2094.035l25.2-68.599h17.399l25.101,68.599h-15.2l-5.3-14.2h-27.801l-5.3,14.2H3041.352z
			 M3064.352,2069.335h20.5l-10-28.5h-0.4L3064.352,2069.335z"/>
		<path style="fill:#FFFFFF;" d="M3116.952,2094.035v-68.599h27.2c3.933,0,7.633,0.617,11.1,1.85
			c3.466,1.234,6.516,3.101,9.15,5.601c2.633,2.5,4.683,5.634,6.149,9.399c1.466,3.768,2.2,8.218,2.2,13.35v6.399
			c0,5.067-0.734,9.585-2.2,13.55c-1.467,3.968-3.517,7.317-6.149,10.051c-2.635,2.734-5.685,4.816-9.15,6.25
			c-3.467,1.434-7.167,2.149-11.1,2.149H3116.952z M3131.552,2082.835h11.4c2.732,0,5.183-0.615,7.35-1.85
			c2.166-1.232,3.883-3.15,5.15-5.75c1.266-2.6,1.9-5.966,1.9-10.1v-11.9c0-4.065-0.635-7.315-1.9-9.75
			c-1.268-2.433-2.984-4.2-5.15-5.3c-2.167-1.101-4.617-1.65-7.35-1.65h-11.4V2082.835z"/>
		<path style="fill:#FFFFFF;" d="M3178.052,2094.035l25.2-68.599h17.4l25.1,68.599h-15.2l-5.3-14.2h-27.8l-5.3,14.2H3178.052z
			 M3201.052,2069.335h20.5l-10-28.5h-0.399L3201.052,2069.335z"/>
	</g>
	<g>
		<path style="fill:#FFFFFF;" d="M1913.097,1457.301v73.06h-19.89v-73.06h-25.35v-16.12h70.46v16.12H1913.097z"/>
		<path style="fill:#FFFFFF;" d="M1969.516,1483.561l-27.3-42.38h23.53l16.9,27.3h0.52c8.84-13.345,14.603-22.445,17.29-27.3h21.71
			c-1.735,2.688-5.18,8.04-10.335,16.055c-5.157,8.018-10.855,16.705-17.095,26.065c5.98,9.274,11.959,18.569,17.94,27.885
			c5.979,9.317,10.053,15.71,12.22,19.175h-23.53l-19.759-31.85h-0.52c-11.18,17.247-17.854,27.864-20.02,31.85h-21.71
			L1969.516,1483.561z"/>
		<path style="fill:#FFFFFF;" d="M2063.893,1514.631h21.58v-51.09h-21.71v-11.57c4.853-0.346,10.355-1.58,16.51-3.705
			c6.153-2.123,11.961-4.7,17.421-7.735h6.89v74.101h21.189v15.729h-61.88V1514.631z"/>
		<path style="fill:#FFFFFF;" d="M1825.254,1641.361c-4.867,0-9.317-0.717-13.35-2.149c-4.034-1.434-7.267-3.684-9.7-6.75
			c-2.435-3.066-3.65-7.101-3.65-12.101c0-0.399,0-0.782,0-1.149c0-0.366,0.033-0.716,0.1-1.051h13.5
			c-0.067,0.335-0.1,0.635-0.1,0.9c0,0.268,0,0.567,0,0.9c0,2.134,0.516,3.967,1.55,5.5c1.033,1.534,2.565,2.699,4.6,3.5
			c2.033,0.8,4.45,1.199,7.25,1.199c3.133,0,5.7-0.315,7.7-0.949c2-0.633,3.5-1.616,4.5-2.95c1-1.333,1.5-2.966,1.5-4.9
			c0-2.065-0.717-3.716-2.15-4.95c-1.434-1.232-3.3-2.215-5.6-2.949c-2.3-0.733-4.834-1.416-7.6-2.051
			c-2.768-0.633-5.535-1.383-8.3-2.25c-2.767-0.865-5.317-2.032-7.65-3.5c-2.334-1.465-4.2-3.399-5.6-5.8
			c-1.4-2.399-2.1-5.466-2.1-9.2c0-4.465,1.216-8.165,3.65-11.1c2.433-2.933,5.666-5.133,9.7-6.6c4.033-1.466,8.416-2.2,13.15-2.2
			c4.733,0,9.033,0.685,12.9,2.05c3.865,1.367,6.965,3.5,9.3,6.4c2.333,2.899,3.5,6.649,3.5,11.25v1.3h-13.3v-1.2
			c0-1.8-0.484-3.365-1.45-4.7c-0.967-1.333-2.35-2.35-4.15-3.05c-1.8-0.7-4-1.05-6.6-1.05c-2.4,0-4.517,0.25-6.35,0.75
			c-1.834,0.5-3.25,1.3-4.25,2.399c-1,1.101-1.5,2.518-1.5,4.25c0,2,0.7,3.601,2.1,4.801c1.4,1.199,3.266,2.149,5.6,2.85
			c2.333,0.7,4.916,1.367,7.75,2c2.833,0.635,5.633,1.367,8.4,2.2c2.766,0.834,5.315,1.967,7.65,3.399
			c2.333,1.435,4.2,3.335,5.6,5.7c1.4,2.367,2.1,5.385,2.1,9.05c0,5.335-1.267,9.617-3.8,12.851c-2.534,3.234-5.95,5.6-10.25,7.1
			C1835.604,1640.611,1830.72,1641.361,1825.254,1641.361z"/>
		<path style="fill:#FFFFFF;" d="M1865.554,1578.961v-10.601h14.1v10.601H1865.554z M1865.753,1640.361v-51.1h13.7v51.1H1865.753z"
			/>
		<path style="fill:#FFFFFF;" d="M1902.052,1659.161c-2.334,0-4.45-0.55-6.35-1.649c-1.9-1.101-3.435-2.585-4.6-4.45
			c-1.167-1.867-1.75-3.9-1.75-6.1c0-2.468,0.666-4.75,2-6.851c1.333-2.1,3.166-3.683,5.5-4.75c-1.467-0.933-2.617-2.149-3.45-3.649
			c-0.834-1.5-1.25-3.083-1.25-4.75c0-2.466,0.8-4.583,2.4-6.351c1.6-1.766,3.633-3.05,6.1-3.85c-2.067-1.266-3.767-2.833-5.1-4.7
			c-1.334-1.865-2-4.166-2-6.9c0-2.865,0.783-5.6,2.35-8.199c1.566-2.601,3.933-4.7,7.1-6.301c3.166-1.6,7.183-2.399,12.05-2.399
			c2,0,3.866,0.1,5.6,0.3c1.733,0.2,3.266,0.534,4.6,1c2.6-1.4,4.516-2.933,5.75-4.6c1.233-1.666,1.916-3.301,2.05-4.9h10.7
			c0,2.268-0.435,4.3-1.3,6.1c-0.867,1.801-2.084,3.285-3.65,4.45c-1.567,1.167-3.45,2.018-5.65,2.55l-0.1,0.301
			c1.6,1.334,2.883,2.899,3.85,4.699c0.966,1.801,1.45,3.768,1.45,5.9c0,2.935-0.817,5.635-2.45,8.1
			c-1.634,2.468-3.934,4.45-6.9,5.95c-2.967,1.5-6.45,2.25-10.45,2.25h-7.5c-2.067,0-3.667,0.417-4.8,1.25
			c-1.134,0.835-1.7,1.95-1.7,3.351c0,1.267,0.516,2.334,1.55,3.199c1.033,0.867,2.683,1.301,4.95,1.301h17.7
			c4.666,0,8.333,1.367,11,4.1c2.666,2.734,4,6.1,4,10.1c0,2.801-0.7,5.383-2.1,7.75c-1.4,2.366-3.35,4.25-5.85,5.65
			s-5.384,2.1-8.65,2.1H1902.052z M1907.252,1650.661h17.3c1.8,0,3.35-0.584,4.65-1.75c1.3-1.167,1.95-2.584,1.95-4.25
			c0-1.534-0.55-2.834-1.65-3.899s-2.484-1.601-4.15-1.601h-18.1c-1.734,0-3.2,0.567-4.4,1.7c-1.2,1.133-1.8,2.466-1.8,4
			c0,1.533,0.6,2.883,1.8,4.05C1904.052,1650.077,1905.518,1650.661,1907.252,1650.661z M1916.052,1612.861
			c2.933,0,5.25-0.833,6.95-2.5c1.7-1.665,2.55-3.665,2.55-6c0-2.333-0.85-4.35-2.55-6.05s-4.017-2.55-6.95-2.55
			c-2.934,0-5.267,0.85-7,2.55c-1.734,1.7-2.6,3.717-2.6,6.05c0,2.335,0.865,4.335,2.6,6
			C1910.785,1612.028,1913.118,1612.861,1916.052,1612.861z"/>
		<path style="fill:#FFFFFF;" d="M1966.651,1640.361l25.2-68.6h17.4l25.1,68.6h-15.2l-5.3-14.2h-27.8l-5.3,14.2H1966.651z
			 M1989.651,1615.661h20.5l-10-28.5h-0.4L1989.651,1615.661z"/>
		<path style="fill:#FFFFFF;" d="M2041.55,1640.361v-72h13.7v72H2041.55z"/>
		<path style="fill:#FFFFFF;" d="M2070.249,1578.961v-10.601h14.1v10.601H2070.249z M2070.448,1640.361v-51.1h13.7v51.1H2070.448z"
			/>
		<path style="fill:#FFFFFF;" d="M2119.048,1641.361c-4.335,0-8.25-1.065-11.75-3.2c-3.5-2.133-6.25-5.082-8.25-8.85
			c-2-3.766-3-8.083-3-12.95v-3.1c0-3.666,0.615-7.016,1.85-10.05c1.232-3.033,2.916-5.684,5.05-7.95c2.133-2.266,4.633-4,7.5-5.2
			c2.866-1.2,5.933-1.8,9.2-1.8h1.9c4.465,0,8.35,0.884,11.649,2.649c3.3,1.768,5.833,4.234,7.601,7.4
			c1.766,3.167,2.649,6.885,2.649,11.15h-11.899c0-2.733-0.418-5-1.25-6.801c-0.835-1.8-2.018-3.165-3.551-4.1
			c-1.534-0.933-3.367-1.4-5.5-1.4c-3.066,0-5.634,1.051-7.699,3.15c-2.067,2.1-3.101,5.185-3.101,9.25v10.3
			c0,4,0.983,7.085,2.95,9.25c1.966,2.167,4.615,3.25,7.95,3.25c2.333,0,4.3-0.399,5.899-1.2c1.601-0.8,2.816-2.1,3.65-3.899
			c0.833-1.8,1.25-4.2,1.25-7.2h11.3c0,4.534-0.967,8.385-2.899,11.55c-1.935,3.167-4.601,5.585-8,7.25
			c-3.4,1.666-7.268,2.5-11.601,2.5H2119.048z"/>
		<path style="fill:#FFFFFF;" d="M2176.447,1641.361c-4.8,0-9.05-0.984-12.75-2.95c-3.7-1.965-6.585-4.832-8.65-8.6
			c-2.067-3.766-3.1-8.35-3.1-13.75v-2.5c0-5.4,1.083-9.982,3.25-13.75c2.165-3.766,5.133-6.633,8.899-8.6
			c3.766-1.966,8.051-2.95,12.851-2.95h1.6c4.533,0,8.483,0.917,11.851,2.75c3.365,1.834,5.965,4.399,7.8,7.7
			c1.833,3.3,2.75,7.149,2.75,11.55v6.3h-34.601c0,3.2,0.4,6,1.2,8.4c0.8,2.399,2,4.234,3.601,5.5c1.6,1.267,3.699,1.899,6.3,1.899
			c2.133,0,4-0.415,5.6-1.25c1.601-0.833,2.866-2.083,3.8-3.75c0.934-1.665,1.4-3.7,1.4-6.1h12.7c0,3.935-1,7.417-3,10.45
			c-2,3.034-4.75,5.399-8.25,7.1s-7.55,2.55-12.15,2.55H2176.447z M2166.447,1609.561h21.1c0-4.2-0.917-7.315-2.75-9.35
			c-1.834-2.033-4.35-3.051-7.55-3.051c-3,0-5.518,1.051-7.55,3.15C2167.663,1602.411,2166.58,1605.495,2166.447,1609.561z"/>
	</g>
	<circle style="fill:#FF5553;" cx="1133.33" cy="1542.047" r="270"/>
	<g>
		<path style="fill:#FFFFFF;" d="M1014.033,1509.842l25.2-68.601h17.4l25.1,68.601h-15.2l-5.3-14.2h-27.8l-5.3,14.2H1014.033z
			 M1037.033,1485.142h20.5l-10-28.5h-0.4L1037.033,1485.142z"/>
		<path style="fill:#FFFFFF;" d="M1088.933,1509.842v-72h13.7v72H1088.933z"/>
		<path style="fill:#FFFFFF;" d="M1117.631,1448.442v-10.6h14.1v10.6H1117.631z M1117.831,1509.842v-51.101h13.7v51.101H1117.831z"
			/>
		<path style="fill:#FFFFFF;" d="M1166.43,1510.842c-4.334,0-8.25-1.065-11.75-3.2c-3.5-2.133-6.25-5.083-8.25-8.85
			c-2-3.766-3-8.083-3-12.95v-3.101c0-3.665,0.616-7.016,1.85-10.05c1.232-3.032,2.916-5.683,5.05-7.95
			c2.133-2.266,4.633-4,7.5-5.199c2.866-1.2,5.933-1.801,9.2-1.801h1.9c4.465,0,8.35,0.885,11.65,2.65
			c3.3,1.768,5.833,4.234,7.6,7.4c1.766,3.167,2.65,6.884,2.65,11.149h-11.9c0-2.732-0.417-5-1.25-6.8
			c-0.834-1.8-2.017-3.166-3.55-4.1c-1.534-0.934-3.367-1.4-5.5-1.4c-3.067,0-5.634,1.05-7.7,3.15c-2.067,2.1-3.1,5.184-3.1,9.25
			v10.3c0,4,0.983,7.084,2.95,9.25c1.965,2.167,4.615,3.25,7.95,3.25c2.333,0,4.3-0.4,5.9-1.2c1.6-0.8,2.816-2.1,3.65-3.9
			c0.833-1.8,1.25-4.199,1.25-7.199h11.3c0,4.534-0.967,8.384-2.9,11.55c-1.935,3.167-4.6,5.584-8,7.25
			c-3.4,1.665-7.267,2.5-11.6,2.5H1166.43z"/>
		<path style="fill:#FFFFFF;" d="M1223.83,1510.842c-4.8,0-9.05-0.984-12.75-2.95s-6.584-4.833-8.65-8.6
			c-2.067-3.766-3.1-8.351-3.1-13.75v-2.5c0-5.4,1.083-9.983,3.25-13.75c2.166-3.766,5.133-6.633,8.9-8.601
			c3.766-1.966,8.05-2.95,12.85-2.95h1.6c4.533,0,8.483,0.918,11.85,2.75c3.365,1.835,5.965,4.4,7.8,7.7
			c1.833,3.3,2.75,7.15,2.75,11.55v6.301h-34.6c0,3.199,0.4,6,1.2,8.399c0.8,2.4,2,4.234,3.6,5.5c1.6,1.268,3.7,1.9,6.3,1.9
			c2.133,0,4-0.416,5.6-1.25c1.6-0.833,2.866-2.083,3.8-3.75c0.933-1.666,1.4-3.7,1.4-6.101h12.7c0,3.935-1,7.418-3,10.45
			c-2,3.034-4.75,5.4-8.25,7.101c-3.5,1.699-7.55,2.55-12.15,2.55H1223.83z M1213.83,1479.042h21.1c0-4.2-0.917-7.316-2.75-9.351
			c-1.834-2.032-4.35-3.05-7.55-3.05c-3,0-5.517,1.05-7.55,3.15C1215.046,1471.892,1213.963,1474.976,1213.83,1479.042z"/>
		<path style="fill:#FFFFFF;" d="M993.132,1619.842v-16.601h-30.7v-10.699c0.933-1.601,2.066-3.684,3.4-6.25
			c1.333-2.566,2.75-5.383,4.25-8.45c1.5-3.065,2.966-6.25,4.4-9.55c1.433-3.301,2.75-6.516,3.95-9.65
			c1.2-3.133,2.166-5.933,2.9-8.4h12.6c-0.6,2.668-1.534,5.585-2.8,8.75c-1.267,3.168-2.685,6.418-4.25,9.75
			c-1.567,3.335-3.217,6.535-4.95,9.601c-1.734,3.067-3.417,5.834-5.05,8.3c-1.634,2.467-3.117,4.467-4.45,6h20.7v-16.6
			c0.666-0.934,1.366-2.133,2.1-3.601c0.732-1.466,1.482-3.016,2.25-4.649c0.766-1.633,1.45-3.2,2.05-4.7s1.033-2.783,1.3-3.851h5.7
			v33.4h9.1v10.6h-9.1v16.601H993.132z"/>
		<path style="fill:#FFFFFF;" d="M1049.331,1620.842c-4.4,0-8.4-1.033-12-3.101c-3.6-2.065-6.45-4.899-8.55-8.5
			c-2.1-3.6-3.15-7.665-3.15-12.199v-23c0-4.601,1.05-8.684,3.15-12.25s4.95-6.383,8.55-8.45c3.6-2.065,7.6-3.101,12-3.101h2.9
			c4.465,0,8.482,1.035,12.05,3.101c3.565,2.067,6.383,4.884,8.45,8.45c2.065,3.566,3.1,7.649,3.1,12.25v23
			c0,4.534-1.034,8.6-3.1,12.199c-2.067,3.601-4.885,6.435-8.45,8.5c-3.567,2.067-7.584,3.101-12.05,3.101H1049.331z
			 M1050.731,1610.342c2.2,0,4.15-0.516,5.85-1.55c1.7-1.033,3.033-2.416,4-4.15c0.966-1.732,1.45-3.7,1.45-5.9v-26.5
			c0-2.199-0.484-4.165-1.45-5.899c-0.967-1.733-2.3-3.116-4-4.15c-1.7-1.032-3.65-1.55-5.85-1.55c-2.135,0-4.05,0.518-5.75,1.55
			c-1.7,1.034-3.05,2.417-4.05,4.15c-1,1.734-1.5,3.7-1.5,5.899v26.5c0,2.2,0.5,4.168,1.5,5.9c1,1.734,2.35,3.117,4.05,4.15
			C1046.681,1609.827,1048.597,1610.342,1050.731,1610.342z"/>
		<path style="fill:#FFFFFF;" d="M1103.329,1619.842l25.2-68.601h17.4l25.1,68.601h-15.2l-5.3-14.2h-27.8l-5.3,14.2H1103.329z
			 M1126.329,1595.142h20.5l-10-28.5h-0.4L1126.329,1595.142z"/>
		<path style="fill:#FFFFFF;" d="M1178.93,1619.842v-68.601h27.2c3.933,0,7.633,0.617,11.1,1.851c3.465,1.234,6.516,3.1,9.15,5.6
			c2.633,2.5,4.683,5.635,6.15,9.4c1.466,3.767,2.2,8.217,2.2,13.35v6.4c0,5.067-0.734,9.584-2.2,13.55
			c-1.467,3.967-3.517,7.317-6.15,10.05c-2.634,2.734-5.685,4.817-9.15,6.25c-3.467,1.435-7.167,2.15-11.1,2.15H1178.93z
			 M1193.53,1608.642h11.4c2.733,0,5.183-0.615,7.35-1.85c2.166-1.233,3.883-3.15,5.15-5.75c1.266-2.601,1.9-5.966,1.9-10.101
			v-11.899c0-4.066-0.635-7.316-1.9-9.75c-1.267-2.434-2.984-4.2-5.15-5.301c-2.167-1.1-4.617-1.649-7.35-1.649h-11.4V1608.642z"/>
		<path style="fill:#FFFFFF;" d="M1240.03,1619.842l25.2-68.601h17.4l25.1,68.601h-15.2l-5.3-14.2h-27.8l-5.3,14.2H1240.03z
			 M1263.03,1595.142h20.5l-10-28.5h-0.4L1263.03,1595.142z"/>
	</g>
</g>
</svg>
