<?xml version="1.0" encoding="iso-8859-1"?>
<!-- Generator: Adobe Illustrator 29.6.0, SVG Export Plug-In . SVG Version: 9.03 Build 0)  -->
<svg version="1.1" xmlns="http://www.w3.org/2000/svg" xmlns:xlink="http://www.w3.org/1999/xlink" x="0px" y="0px"
	 viewBox="0 0 4000 2500" style="enable-background:new 0 0 4000 2500;" xml:space="preserve">
<g id="Background">
</g>
<g id="Text">
	<g>
		<path style="fill:#0033AD;" d="M2427.099,1662.616h-852.462c-36.492,0-66.074-29.583-66.074-66.074v-365.523
			c0-36.492,29.583-66.074,66.074-66.074h852.462c36.492,0,66.074,29.583,66.074,66.074v365.523
			C2493.173,1633.034,2463.59,1662.616,2427.099,1662.616z"/>
		<g id="Layer_2_00000107578691231591336930000004711274567377789575_">
			<g id="Layer_1-2_00000068637654700844589140000006347619613541720469_">
				<path style="fill:#FFFFFF;" d="M1626.456,1411.782c-0.395,6.872,4.853,12.765,11.725,13.167h0.68
					c6.874-0.008,12.44-5.586,12.432-12.46s-5.586-12.44-12.46-12.432c-6.591,0.007-12.034,5.152-12.412,11.732L1626.456,1411.782z"
					/>
				<path style="fill:#FFFFFF;" d="M1580.045,1408.626c-2.216-0.124-4.114,1.572-4.238,3.789c-0.124,2.216,1.572,4.114,3.789,4.238
					c2.214,0.124,4.11-1.569,4.238-3.782c0.131-2.212-1.556-4.112-3.769-4.243
					C1580.058,1408.627,1580.051,1408.626,1580.045,1408.626z"/>
				<path style="fill:#FFFFFF;" d="M1625.667,1339.547c1.978-1.016,2.758-3.443,1.742-5.421c-1.016-1.978-3.443-2.758-5.421-1.742
					c-1.963,1.008-2.749,3.408-1.762,5.381c0.999,1.991,3.423,2.795,5.414,1.796
					C1625.648,1339.556,1625.658,1339.552,1625.667,1339.547z"/>
				<path style="fill:#FFFFFF;" d="M1638.296,1361.569c3.065-1.546,4.297-5.285,2.75-8.35c-1.546-3.065-5.285-4.297-8.35-2.75
					c-3.064,1.545-4.296,5.281-2.752,8.346c1.544,3.066,5.281,4.301,8.348,2.757
					C1638.294,1361.57,1638.295,1361.57,1638.296,1361.569z"/>
				<path style="fill:#FFFFFF;" d="M1595.796,1376.715c2.363,1.554,5.539,0.898,7.093-1.465c1.554-2.363,0.898-5.539-1.465-7.093
					c-2.363-1.554-5.539-0.898-7.093,1.465c-0.001,0.002-0.003,0.004-0.004,0.006
					C1592.778,1371.991,1593.435,1375.163,1595.796,1376.715z"/>
				<path style="fill:#FFFFFF;" d="M1603.366,1406.361c-3.428-0.193-6.363,2.428-6.557,5.856c-0.193,3.428,2.428,6.363,5.856,6.557
					c3.425,0.193,6.359-2.425,6.556-5.85C1609.415,1409.496,1606.794,1406.559,1603.366,1406.361z"/>
				<path style="fill:#FFFFFF;" d="M1596.476,1448.154c-2.524,1.276-3.536,4.356-2.261,6.881s4.356,3.536,6.881,2.261
					c2.523-1.275,3.536-4.353,2.263-6.877c-1.274-2.526-4.353-3.54-6.879-2.267
					C1596.479,1448.153,1596.478,1448.154,1596.476,1448.154z"/>
				<path style="fill:#FFFFFF;" d="M1620.641,1393.514c3.38,2.215,7.917,1.271,10.132-2.109c2.215-3.38,1.271-7.917-2.109-10.132
					c-3.38-2.215-7.915-1.271-10.131,2.108c-2.217,3.375-1.279,7.908,2.095,10.125
					C1620.632,1393.508,1620.636,1393.511,1620.641,1393.514z"/>
				<path style="fill:#FFFFFF;" d="M1697.303,1361.079c2.879,1.878,6.734,1.066,8.612-1.812c1.878-2.879,1.066-6.734-1.812-8.612
					c-2.877-1.876-6.73-1.068-8.609,1.807c-1.882,2.872-1.079,6.725,1.793,8.606
					C1697.292,1361.072,1697.297,1361.076,1697.303,1361.079z"/>
				<path style="fill:#FFFFFF;" d="M1710.062,1339.125c1.86,1.219,4.356,0.7,5.575-1.16c1.219-1.86,0.7-4.356-1.16-5.575
					c-1.86-1.219-4.356-0.7-5.575,1.16c-0.001,0.001-0.002,0.003-0.003,0.004
					C1707.683,1335.415,1708.204,1337.907,1710.062,1339.125z"/>
				<path style="fill:#FFFFFF;" d="M1698.282,1399.934c-6.864-0.394-12.749,4.851-13.143,11.715s4.851,12.749,11.715,13.143l0,0
					c0.238,0,0.483,0,0.721,0c6.874-0.003,12.443-5.578,12.44-12.452c-0.001-3.056-1.127-6.005-3.163-8.284
					C1704.664,1401.588,1701.576,1400.103,1698.282,1399.934z"/>
				<path style="fill:#FFFFFF;" d="M1642.384,1392.65c2.108,4.21,6.418,6.864,11.127,6.849c6.878,0.001,12.454-5.573,12.456-12.45
					c0-1.955-0.46-3.883-1.343-5.627c-2.122-4.191-6.429-6.824-11.127-6.801c-6.878,0.012-12.443,5.597-12.432,12.474
					C1641.069,1389.024,1641.52,1390.925,1642.384,1392.65z"/>
				<path style="fill:#FFFFFF;" d="M1739.98,1376.702c2.525-1.274,3.539-4.354,2.265-6.879s-4.354-3.539-6.879-2.265
					c-2.522,1.273-3.537,4.348-2.268,6.873C1734.372,1376.957,1737.452,1377.973,1739.98,1376.702z"/>
				<path style="fill:#FFFFFF;" d="M1708.416,1380.667c-3.61,1.818-5.062,6.218-3.244,9.828s6.218,5.062,9.828,3.244
					s5.062-6.218,3.244-9.828c-1.813-3.608-6.208-5.063-9.815-3.25C1708.424,1380.663,1708.42,1380.665,1708.416,1380.667z"/>
				<path style="fill:#FFFFFF;" d="M1667.759,1337.248c2.824,0.161,5.243-1.998,5.404-4.822c0.161-2.824-1.998-5.243-4.822-5.404
					c-2.824-0.161-5.243,1.998-5.404,4.822c0,0.001,0,0.003,0,0.004C1662.778,1334.671,1664.937,1337.088,1667.759,1337.248z"/>
				<path style="fill:#FFFFFF;" d="M1667.704,1369.479c4.035,0.226,7.49-2.862,7.716-6.897s-2.862-7.49-6.897-7.716
					c-4.031-0.226-7.484,2.856-7.716,6.887C1660.58,1365.79,1663.667,1369.249,1667.704,1369.479z"/>
				<path style="fill:#FFFFFF;" d="M1628.054,1444.182c3.609-1.819,5.059-6.22,3.24-9.829c-1.82-3.609-6.22-5.059-9.829-3.24
					s-5.06,6.22-3.24,9.829c0,0.001,0.001,0.002,0.001,0.003C1620.047,1444.552,1624.446,1446.001,1628.054,1444.182z"/>
				<path style="fill:#FFFFFF;" d="M1672.431,1380.157c-3.767,5.749-2.161,13.464,3.589,17.232
					c5.749,3.767,13.464,2.161,17.232-3.589s2.161-13.464-3.589-17.232c-2.023-1.325-4.387-2.033-6.806-2.036
					C1678.656,1374.529,1674.736,1376.644,1672.431,1380.157z"/>
				<path style="fill:#FFFFFF;" d="M1694.073,1432.206c-3.095-6.137-10.58-8.604-16.717-5.509s-8.604,10.58-5.509,16.717
					c2.116,4.196,6.414,6.842,11.113,6.842c1.948-0.013,3.867-0.479,5.604-1.36
					C1694.682,1445.798,1697.145,1438.337,1694.073,1432.206z"/>
				<path style="fill:#FFFFFF;" d="M1715.823,1431.335c-3.379-2.218-7.916-1.277-10.134,2.102s-1.277,7.916,2.102,10.134
					c3.379,2.218,7.916,1.277,10.134-2.102C1720.134,1438.089,1719.194,1433.558,1715.823,1431.335z"/>
				<path style="fill:#FFFFFF;" d="M1739.654,1412.639c0.193-3.428-2.428-6.363-5.856-6.557c-3.428-0.193-6.363,2.428-6.557,5.856
					c-0.193,3.425,2.425,6.359,5.85,6.556C1736.519,1418.688,1739.456,1416.067,1739.654,1412.639z"/>
				<path style="fill:#FFFFFF;" d="M1756.874,1408.211c-2.22-0.128-4.123,1.568-4.251,3.788s1.568,4.123,3.788,4.251
					s4.123-1.568,4.251-3.788c0,0,0,0,0,0C1760.786,1410.243,1759.092,1408.343,1756.874,1408.211z"/>
				<path style="fill:#FFFFFF;" d="M1740.66,1448.134c-2.366-1.55-5.54-0.888-7.09,1.478s-0.888,5.54,1.478,7.09
					c2.365,1.549,5.537,0.889,7.088-1.475c1.552-2.365,0.892-5.54-1.472-7.091
					C1740.662,1448.135,1740.661,1448.135,1740.66,1448.134z"/>
				<path style="fill:#FFFFFF;" d="M1626.401,1485.724c-1.859-1.22-4.355-0.702-5.575,1.157c-1.22,1.859-0.702,4.355,1.157,5.575
					c1.859,1.219,4.354,0.702,5.574-1.156c1.221-1.859,0.704-4.355-1.154-5.576
					C1626.402,1485.724,1626.402,1485.724,1626.401,1485.724z"/>
				<path style="fill:#FFFFFF;" d="M1710.79,1485.302c-1.986,1.001-2.784,3.422-1.783,5.408c1.001,1.986,3.422,2.784,5.408,1.783
					c1.986-1.001,2.784-3.422,1.783-5.408c0,0,0-0.001-0.001-0.001c-0.997-1.984-3.412-2.784-5.396-1.787
					C1710.797,1485.298,1710.793,1485.3,1710.79,1485.302z"/>
				<path style="fill:#FFFFFF;" d="M1664.025,1444.672c3.767-5.749,2.161-13.464-3.589-17.232
					c-5.749-3.767-13.464-2.161-17.232,3.589c-3.767,5.749-2.161,13.464,3.589,17.232c2.025,1.327,4.392,2.034,6.812,2.036
					C1657.808,1450.311,1661.731,1448.193,1664.025,1444.672z"/>
				<path style="fill:#FFFFFF;" d="M1639.153,1463.776c-2.873-1.88-6.726-1.074-8.605,1.799c-1.879,2.873-1.074,6.726,1.799,8.605
					c2.871,1.878,6.721,1.075,8.602-1.794C1642.828,1469.513,1642.025,1465.66,1639.153,1463.776z"/>
				<path style="fill:#FFFFFF;" d="M1668.174,1487.601c-2.824-0.161-5.243,1.998-5.404,4.822c-0.161,2.824,1.998,5.243,4.822,5.404
					c2.823,0.161,5.241-1.997,5.404-4.819c0.162-2.824-1.995-5.244-4.819-5.407
					C1668.176,1487.601,1668.175,1487.601,1668.174,1487.601z"/>
				<path style="fill:#FFFFFF;" d="M1668.228,1455.377c-4.034-0.245-7.503,2.826-7.748,6.861c-0.245,4.034,2.826,7.503,6.861,7.748
					c4.034,0.245,7.503-2.826,7.748-6.861c0.001-0.01,0.001-0.019,0.002-0.029
					C1675.323,1459.071,1672.253,1455.618,1668.228,1455.377z"/>
				<path style="fill:#FFFFFF;" d="M1698.16,1463.28c-3.065,1.555-4.289,5.3-2.734,8.365c1.555,3.065,5.3,4.289,8.365,2.734
					s4.289-5.3,2.734-8.365c-0.002-0.004-0.005-0.009-0.007-0.013c-1.552-3.058-5.29-4.278-8.348-2.726
					C1698.167,1463.276,1698.164,1463.278,1698.16,1463.28z"/>
				<path style="fill:#FFFFFF;" d="M1835.502,1383.02c12.052,0,20.492,6.624,20.492,18.921h15.786
					c0-21.573-15.908-31.965-36.515-31.965c-25.314,0-40.018,13.745-40.018,42.793c0,29.769,14.704,42.786,40.018,42.786
					c20.852,0,36.515-10.12,36.515-31.7h-15.187c0,12.052-8.318,18.683-21.083,18.683c-16.758,0-24.484-9.284-24.484-28.565v-2.408
					C1811.038,1392.657,1818.866,1383.02,1835.502,1383.02z"/>
				<path style="fill:#FFFFFF;" d="M1913.518,1371.444l-32.183,82.688h15.915l6.624-17.962h37.821l6.801,17.962h16.636
					l-32.203-82.688H1913.518z M1908.696,1423.133l8.44-22.668c1.687-4.455,4.7-14.099,5.305-15.785h0.599
					c0.605,1.687,3.618,11.446,5.305,15.785l8.433,22.661L1908.696,1423.133z"/>
				<path style="fill:#FFFFFF;" d="M2051.193,1396.513c0-15.303-8.801-25.069-27-25.069h-43.636v82.688h15.432v-31.965h25.667
					l15.643,31.965h16.874l-17.683-34.353C2046.248,1415.924,2051.193,1407.728,2051.193,1396.513z M2022.982,1409.17h-26.994
					v-24.586h26.994c8.318,0,12.657,4.462,12.657,11.929C2035.639,1404.355,2030.939,1409.17,2022.982,1409.17z"/>
				<path style="fill:#FFFFFF;" d="M2105.316,1371.444h-33.04v82.688h33.026c24.947,0,40.126-13.017,40.126-41.344
					C2145.429,1384.462,2130.263,1371.444,2105.316,1371.444z M2129.664,1413.992c-0.122,18.084-8.678,27-24.348,27h-17.594v-56.409
					h17.594c15.643,0,24.348,8.923,24.348,27V1413.992z"/>
				<path style="fill:#FFFFFF;" d="M2185.855,1371.444l-32.197,82.688h15.908l6.631-17.962h37.848l6.747,17.962h16.635
					l-32.183-82.688H2185.855z M2181.033,1423.133l8.427-22.668c1.687-4.455,4.7-14.099,5.305-15.785h0.612
					c0.599,1.687,3.618,11.446,5.305,15.785l8.433,22.661L2181.033,1423.133z"/>
				<path style="fill:#FFFFFF;" d="M2307.963,1420.623c0,1.564,0.238,5.781,0.238,6.509l-0.598,0.238
					c-0.361-0.476-2.775-4.7-4.081-6.624l-35.917-49.301h-14.724v82.688h14.826v-49.539c0-2.04-0.245-6.026-0.245-6.631l0.605-0.36
					c0.361,0.483,2.17,3.979,4.081,6.754l36.162,49.777h14.459v-82.688h-14.82v49.179H2307.963z"/>
				<path style="fill:#FFFFFF;" d="M2384.23,1370.002c-25.912,0-41.582,13.738-41.582,42.786s15.643,42.786,41.582,42.786
					c25.94,0,41.705-13.738,41.705-42.786S2410.143,1370.002,2384.23,1370.002z M2410.143,1414.115
					c0,18.921-9.039,28.442-25.912,28.442c-16.751,0-25.79-9.521-25.79-28.442v-2.53c0-18.928,9.161-28.565,25.79-28.565
					c16.758,0,25.912,9.637,25.912,28.565V1414.115z"/>
			</g>
		</g>
	</g>
	<g>
		<path d="M799.802,190.818V57.859h92.451l-3.101,21.708h-61.247v32.755h56.789v21.32h-56.789v35.469h62.022l3.101,21.708H799.802z"
			/>
		<path d="M953.11,192.756c-8.401,0-15.99-2.065-22.773-6.202c-6.784-4.134-12.114-9.851-15.99-17.153
			c-3.876-7.298-5.814-15.666-5.814-25.099v-6.009c0-7.104,1.193-13.597,3.586-19.479c2.389-5.878,5.651-11.014,9.788-15.409
			c4.134-4.391,8.979-7.752,14.536-10.078c5.554-2.326,11.499-3.489,17.832-3.489h3.683c8.655,0,16.184,1.714,22.58,5.136
			c6.396,3.425,11.305,8.207,14.73,14.342c3.422,6.139,5.136,13.343,5.136,21.611h-23.064c0-5.297-0.809-9.691-2.423-13.18
			c-1.617-3.489-3.91-6.136-6.88-7.947c-2.974-1.808-6.526-2.713-10.66-2.713c-5.945,0-10.92,2.035-14.924,6.105
			c-4.007,4.07-6.009,10.048-6.009,17.928v19.963c0,7.753,1.905,13.731,5.718,17.928c3.81,4.201,8.946,6.299,15.409,6.299
			c4.521,0,8.334-0.775,11.435-2.326c3.101-1.551,5.458-4.07,7.075-7.559c1.614-3.489,2.422-8.14,2.422-13.955h21.901
			c0,8.789-1.875,16.25-5.621,22.386c-3.749,6.139-8.916,10.823-15.505,14.052c-6.59,3.228-14.085,4.845-22.483,4.845H953.11z"/>
		<path d="M1064.361,192.756c-9.046,0-17.153-2.035-24.324-6.105c-7.171-4.07-12.792-9.852-16.862-17.347
			c-4.07-7.492-6.105-16.281-6.105-26.359v-3.489c0-10.206,2.035-18.994,6.105-26.359c4.07-7.365,9.658-13.083,16.765-17.153
			c7.104-4.07,15.182-6.105,24.227-6.105h3.876c9.173,0,17.313,2.035,24.421,6.105c7.104,4.07,12.695,9.788,16.765,17.153
			c4.07,7.365,6.105,16.154,6.105,26.359v3.489c0,10.209-2.035,19.027-6.105,26.456c-4.07,7.432-9.661,13.18-16.765,17.25
			c-7.108,4.07-15.185,6.105-24.228,6.105H1064.361z M1066.105,175.313c4.003,0,7.589-0.936,10.757-2.811
			c3.165-1.872,5.684-4.682,7.559-8.431c1.872-3.746,2.81-8.204,2.81-13.373v-18.994c0-5.297-0.938-9.755-2.81-13.374
			c-1.875-3.616-4.395-6.396-7.559-8.334c-3.168-1.938-6.753-2.907-10.757-2.907c-3.876,0-7.432,0.969-10.66,2.907
			c-3.231,1.938-5.784,4.718-7.656,8.334c-1.875,3.619-2.811,8.077-2.811,13.374v18.994c0,5.169,0.936,9.627,2.811,13.373
			c1.872,3.75,4.424,6.56,7.656,8.431C1058.674,174.377,1062.229,175.313,1066.105,175.313z"/>
		<path d="M1172.704,192.756c-6.202,0-11.823-0.775-16.862-2.326c-5.039-1.55-9.4-3.649-13.083-6.299
			c-3.683-2.647-6.493-5.748-8.431-9.303c-1.938-3.553-2.907-7.396-2.907-11.532c0-0.775,0-1.42,0-1.938
			c0-0.515,0.063-1.227,0.194-2.132h22.483c-0.13,0.388-0.194,0.745-0.194,1.066c0,0.324,0,0.615,0,0.872
			c0,3.231,1.096,5.912,3.295,8.043c2.195,2.132,5.039,3.683,8.528,4.652s7.235,1.454,11.241,1.454c3.229,0,6.493-0.388,9.788-1.163
			s6.039-2.035,8.237-3.779c2.195-1.745,3.295-3.973,3.295-6.687c0-2.971-1.133-5.264-3.392-6.881
			c-2.262-1.614-5.3-2.907-9.109-3.876c-3.812-0.969-7.98-1.808-12.501-2.52c-4.524-0.708-9.08-1.614-13.665-2.713
			c-4.588-1.096-8.788-2.68-12.598-4.749c-3.812-2.065-6.85-4.875-9.109-8.431c-2.262-3.552-3.392-8.237-3.392-14.052
			c0-4.909,1.129-9.303,3.392-13.18c2.259-3.876,5.36-7.104,9.303-9.691c3.94-2.583,8.461-4.521,13.567-5.814
			c5.103-1.29,10.433-1.938,15.99-1.938h3.876c5.167,0,10.109,0.648,14.827,1.938c4.715,1.293,8.946,3.134,12.695,5.524
			c3.746,2.393,6.687,5.233,8.818,8.528c2.132,3.295,3.198,6.881,3.198,10.757c0,0.648-0.033,1.39-0.097,2.229
			c-0.066,0.842-0.164,1.39-0.291,1.647h-22.483v-1.55c0-1.42-0.357-2.811-1.066-4.167c-0.712-1.356-1.875-2.616-3.489-3.779
			c-1.617-1.163-3.683-2.099-6.202-2.811c-2.52-0.708-5.524-1.066-9.013-1.066c-3.101,0-5.881,0.291-8.334,0.872
			c-2.456,0.582-4.524,1.357-6.202,2.326c-1.681,0.969-2.907,2.102-3.683,3.392c-0.775,1.293-1.163,2.586-1.163,3.876
			c0,2.713,1.163,4.815,3.489,6.299c2.326,1.487,5.394,2.649,9.207,3.488c3.81,0.842,8.01,1.617,12.598,2.326
			c4.585,0.711,9.14,1.583,13.664,2.616c4.521,1.036,8.722,2.617,12.598,4.749c3.876,2.132,6.944,5.009,9.207,8.625
			c2.259,3.619,3.392,8.334,3.392,14.149c0,6.075-1.163,11.241-3.489,15.505c-2.326,4.264-5.557,7.656-9.691,10.175
			c-4.137,2.52-8.788,4.361-13.955,5.524c-5.169,1.163-10.597,1.744-16.281,1.744H1172.704z"/>
		<path d="M1255.269,226.869c-3.231,0-6.202-0.227-8.916-0.679c-2.713-0.454-5.169-1.132-7.365-2.035v-19.188
			c1.42,0.645,3.359,1.193,5.815,1.647c2.453,0.451,4.845,0.678,7.171,0.678c3.489,0,6.33-0.678,8.528-2.035
			c2.195-1.357,4.037-3.425,5.523-6.202c1.484-2.78,2.938-6.172,4.361-10.175l-38.182-97.103h28.298l22.87,64.929h1.357
			l21.708-64.929h26.166l-35.856,94.002c-2.844,7.622-6.139,14.536-9.885,20.738c-3.749,6.202-8.173,11.145-13.276,14.827
			C1268.479,225.027,1262.374,226.869,1255.269,226.869z"/>
		<path d="M1382.995,192.756c-6.202,0-11.823-0.775-16.862-2.326c-5.039-1.55-9.4-3.649-13.083-6.299
			c-3.683-2.647-6.493-5.748-8.431-9.303c-1.938-3.553-2.907-7.396-2.907-11.532c0-0.775,0-1.42,0-1.938
			c0-0.515,0.063-1.227,0.194-2.132h22.483c-0.13,0.388-0.194,0.745-0.194,1.066c0,0.324,0,0.615,0,0.872
			c0,3.231,1.096,5.912,3.295,8.043c2.195,2.132,5.039,3.683,8.528,4.652s7.235,1.454,11.241,1.454c3.228,0,6.494-0.388,9.789-1.163
			s6.037-2.035,8.236-3.779c2.195-1.745,3.295-3.973,3.295-6.687c0-2.971-1.133-5.264-3.391-6.881
			c-2.264-1.614-5.301-2.907-9.109-3.876c-3.814-0.969-7.98-1.808-12.502-2.52c-4.524-0.708-9.08-1.614-13.665-2.713
			c-4.588-1.096-8.788-2.68-12.598-4.749c-3.812-2.065-6.85-4.875-9.109-8.431c-2.262-3.552-3.392-8.237-3.392-14.052
			c0-4.909,1.129-9.303,3.392-13.18c2.259-3.876,5.36-7.104,9.303-9.691c3.94-2.583,8.461-4.521,13.567-5.814
			c5.103-1.29,10.433-1.938,15.99-1.938h3.877c5.166,0,10.109,0.648,14.826,1.938c4.715,1.293,8.947,3.134,12.695,5.524
			c3.746,2.393,6.688,5.233,8.818,8.528c2.133,3.295,3.199,6.881,3.199,10.757c0,0.648-0.033,1.39-0.098,2.229
			c-0.066,0.842-0.164,1.39-0.291,1.647h-22.482v-1.55c0-1.42-0.357-2.811-1.066-4.167c-0.711-1.356-1.875-2.616-3.488-3.779
			c-1.617-1.163-3.682-2.099-6.203-2.811c-2.52-0.708-5.523-1.066-9.012-1.066c-3.101,0-5.881,0.291-8.334,0.872
			c-2.456,0.582-4.524,1.357-6.202,2.326c-1.681,0.969-2.907,2.102-3.683,3.392c-0.775,1.293-1.163,2.586-1.163,3.876
			c0,2.713,1.163,4.815,3.489,6.299c2.326,1.487,5.394,2.649,9.207,3.488c3.81,0.842,8.011,1.617,12.599,2.326
			c4.584,0.711,9.139,1.583,13.664,2.616c4.521,1.036,8.721,2.617,12.598,4.749c3.877,2.132,6.943,5.009,9.207,8.625
			c2.258,3.619,3.391,8.334,3.391,14.149c0,6.075-1.162,11.241-3.488,15.505s-5.557,7.656-9.691,10.175
			c-4.137,2.52-8.787,4.361-13.955,5.524s-10.596,1.744-16.279,1.744H1382.995z"/>
		<path d="M1487.462,192.756c-5.557,0-10.532-0.775-14.924-2.326c-4.395-1.55-7.819-4.167-10.272-7.85
			c-2.456-3.683-3.683-8.558-3.683-14.633v-56.401h-10.854v-19.77h11.629l9.304-31.592h16.28v31.592h23.258v19.77h-23.258v50.586
			c0,5.688,1.163,9.303,3.489,10.854c2.325,1.55,4.845,2.326,7.559,2.326c1.42,0,3.392-0.291,5.911-0.872
			c2.52-0.582,4.555-1.193,6.105-1.841v16.281c-1.681,0.905-3.749,1.647-6.202,2.229c-2.456,0.582-4.942,1-7.462,1.26
			C1491.823,192.626,1489.527,192.756,1487.462,192.756z"/>
		<path d="M1572.157,192.756c-9.303,0-17.54-1.908-24.712-5.717c-7.171-3.81-12.762-9.367-16.765-16.668
			c-4.007-7.298-6.009-16.184-6.009-26.65v-4.846c0-10.466,2.099-19.348,6.299-26.65c4.198-7.298,9.948-12.855,17.25-16.668
			c7.299-3.81,15.603-5.717,24.906-5.717h3.101c8.785,0,16.441,1.777,22.968,5.33c6.522,3.556,11.562,8.528,15.117,14.924
			c3.553,6.396,5.33,13.858,5.33,22.386v12.21h-67.061c0,6.203,0.775,11.629,2.325,16.281c1.551,4.652,3.877,8.207,6.978,10.66
			c3.102,2.456,7.172,3.683,12.211,3.683c4.134,0,7.753-0.806,10.854-2.423c3.102-1.614,5.555-4.037,7.365-7.268
			c1.808-3.229,2.714-7.171,2.714-11.823h24.614c0,7.625-1.938,14.375-5.814,20.254c-3.876,5.881-9.206,10.466-15.99,13.761
			c-6.783,3.295-14.633,4.942-23.549,4.942H1572.157z M1552.775,131.123h40.896c0-8.141-1.777-14.179-5.33-18.122
			c-3.555-3.94-8.431-5.912-14.633-5.912c-5.814,0-10.693,2.035-14.634,6.105C1555.132,117.265,1553.033,123.243,1552.775,131.123z"
			/>
		<path d="M1641.929,190.818V91.777h19.77l3.488,14.536c3.358-5.166,7.332-9.206,11.92-12.113
			c4.585-2.907,10.176-4.361,16.766-4.361c6.459,0,12.144,1.229,17.056,3.683c4.909,2.456,8.785,6.526,11.629,12.21
			c3.102-5.167,7.104-9.109,12.017-11.823c4.909-2.713,10.724-4.07,17.444-4.07c6.329,0,11.92,1.293,16.765,3.876
			c4.846,2.586,8.625,6.269,11.339,11.048c2.713,4.782,4.07,10.596,4.07,17.444v68.611h-26.166v-62.603
			c0-6.46-1.356-11.175-4.07-14.149c-2.713-2.971-6.462-4.458-11.241-4.458c-3.101,0-5.911,0.809-8.431,2.423
			c-2.52,1.617-4.491,3.876-5.912,6.784c-1.423,2.907-2.132,6.235-2.132,9.981v62.022h-26.165v-62.603
			c0-6.46-1.356-11.175-4.07-14.149c-2.714-2.971-6.526-4.458-11.436-4.458c-3.101,0-5.881,0.809-8.334,2.423
			c-2.456,1.617-4.395,3.876-5.814,6.784c-1.424,2.907-2.132,6.235-2.132,9.981v62.022H1641.929z"/>
		<path d="M1854.155,190.818V57.859h28.297v110.864h55.626l3.295,22.095H1854.155z"/>
		<path d="M1999.518,192.756c-9.303,0-17.54-1.908-24.712-5.717c-7.171-3.81-12.762-9.367-16.765-16.668
			c-4.007-7.298-6.009-16.184-6.009-26.65v-4.846c0-10.466,2.099-19.348,6.299-26.65c4.198-7.298,9.948-12.855,17.25-16.668
			c7.299-3.81,15.603-5.717,24.906-5.717h3.101c8.785,0,16.441,1.777,22.968,5.33c6.522,3.556,11.562,8.528,15.117,14.924
			c3.553,6.396,5.33,13.858,5.33,22.386v12.21h-67.061c0,6.203,0.775,11.629,2.325,16.281c1.551,4.652,3.877,8.207,6.978,10.66
			c3.102,2.456,7.172,3.683,12.211,3.683c4.134,0,7.753-0.806,10.854-2.423c3.102-1.614,5.555-4.037,7.365-7.268
			c1.808-3.229,2.714-7.171,2.714-11.823h24.614c0,7.625-1.938,14.375-5.814,20.254c-3.876,5.881-9.206,10.466-15.99,13.761
			c-6.783,3.295-14.633,4.942-23.549,4.942H1999.518z M1980.136,131.123h40.896c0-8.141-1.777-14.179-5.33-18.122
			c-3.555-3.94-8.431-5.912-14.633-5.912c-5.814,0-10.693,2.035-14.634,6.105C1982.492,117.265,1980.394,123.243,1980.136,131.123z"
			/>
		<path d="M2093.517,190.818l-35.275-99.041h28.298l22.482,68.418h1.163l22.677-68.418h25.777l-35.662,99.041H2093.517z"/>
		<path d="M2216.785,192.756c-9.303,0-17.54-1.908-24.712-5.717c-7.171-3.81-12.762-9.367-16.765-16.668
			c-4.007-7.298-6.009-16.184-6.009-26.65v-4.846c0-10.466,2.099-19.348,6.299-26.65c4.198-7.298,9.948-12.855,17.25-16.668
			c7.299-3.81,15.603-5.717,24.906-5.717h3.101c8.785,0,16.441,1.777,22.968,5.33c6.522,3.556,11.562,8.528,15.117,14.924
			c3.553,6.396,5.33,13.858,5.33,22.386v12.21h-67.061c0,6.203,0.775,11.629,2.325,16.281c1.551,4.652,3.877,8.207,6.978,10.66
			c3.102,2.456,7.172,3.683,12.211,3.683c4.134,0,7.753-0.806,10.854-2.423c3.102-1.614,5.555-4.037,7.365-7.268
			c1.808-3.229,2.714-7.171,2.714-11.823h24.614c0,7.625-1.938,14.375-5.814,20.254c-3.876,5.881-9.206,10.466-15.99,13.761
			c-6.783,3.295-14.633,4.942-23.549,4.942H2216.785z M2197.403,131.123h40.896c0-8.141-1.777-14.179-5.33-18.122
			c-3.555-3.94-8.431-5.912-14.633-5.912c-5.814,0-10.693,2.035-14.634,6.105C2199.76,117.265,2197.661,123.243,2197.403,131.123z"
			/>
		<path d="M2286.557,190.818V51.27h26.553v139.549H2286.557z"/>
		<path d="M2406.525,221.248c-9.952-11.241-17.574-23.906-22.871-37.988c-5.3-14.082-7.946-28.685-7.946-43.803
			c0-14.987,2.646-29.524,7.946-43.609c5.297-14.082,12.919-26.747,22.871-37.988h14.536c-4.395,7.365-8.368,15.602-11.92,24.711
			c-3.556,9.11-6.366,18.51-8.432,28.201c-2.068,9.691-3.101,19.255-3.101,28.685c0,9.176,1.032,18.673,3.101,28.491
			c2.065,9.821,4.846,19.318,8.335,28.491c3.488,9.173,7.492,17.444,12.017,24.809H2406.525z"/>
		<path d="M2492.192,192.756c-7.884,0-15.215-1.163-21.999-3.489c-6.783-2.326-12.762-5.941-17.928-10.854
			c-5.17-4.909-9.206-11.242-12.113-18.994c-2.908-7.753-4.361-17.12-4.361-28.104v-14.149c0-10.593,1.483-19.77,4.458-27.522
			c2.971-7.753,7.041-14.116,12.21-19.091c5.167-4.973,11.111-8.655,17.832-11.047c6.717-2.39,13.888-3.586,21.514-3.586h3.488
			c7.235,0,14.052,1.002,20.448,3.004c6.396,2.005,12.017,5.169,16.862,9.497c4.845,4.331,8.654,9.918,11.435,16.765
			c2.777,6.85,4.167,15.118,4.167,24.809h-26.553c0-8.528-1.196-15.148-3.586-19.866c-2.393-4.715-5.688-8.01-9.885-9.885
			c-4.2-1.872-9.143-2.81-14.827-2.81c-4.006,0-7.722,0.615-11.145,1.841c-3.425,1.23-6.365,3.168-8.818,5.815
			c-2.456,2.65-4.361,6.138-5.718,10.466c-1.356,4.331-2.035,9.594-2.035,15.796v25.972c0,8.271,1.163,14.894,3.489,19.866
			c2.325,4.976,5.554,8.562,9.69,10.757c4.134,2.199,8.979,3.295,14.536,3.295c6.072,0,11.306-0.936,15.699-2.81
			c4.392-1.872,7.753-5.167,10.079-9.885c2.326-4.715,3.488-11.272,3.488-19.673h25.584c0,9.176-1.39,17.153-4.167,23.937
			c-2.78,6.784-6.56,12.374-11.338,16.766c-4.782,4.394-10.339,7.689-16.669,9.884c-6.332,2.196-13.115,3.295-20.351,3.295H2492.192
			z"/>
		<path d="M2612.938,192.756c-9.046,0-17.152-2.035-24.324-6.105c-7.171-4.07-12.792-9.852-16.862-17.347
			c-4.069-7.492-6.104-16.281-6.104-26.359v-3.489c0-10.206,2.035-18.994,6.104-26.359c4.07-7.365,9.658-13.083,16.766-17.153
			c7.104-4.07,15.182-6.105,24.228-6.105h3.876c9.173,0,17.313,2.035,24.421,6.105c7.104,4.07,12.695,9.788,16.766,17.153
			c4.07,7.365,6.105,16.154,6.105,26.359v3.489c0,10.209-2.035,19.027-6.105,26.456c-4.07,7.432-9.661,13.18-16.766,17.25
			c-7.107,4.07-15.185,6.105-24.227,6.105H2612.938z M2614.683,175.313c4.004,0,7.59-0.936,10.757-2.811
			c3.165-1.872,5.685-4.682,7.56-8.431c1.871-3.746,2.811-8.204,2.811-13.373v-18.994c0-5.297-0.939-9.755-2.811-13.374
			c-1.875-3.616-4.395-6.396-7.56-8.334c-3.167-1.938-6.753-2.907-10.757-2.907c-3.876,0-7.432,0.969-10.659,2.907
			c-3.231,1.938-5.784,4.718-7.656,8.334c-1.875,3.619-2.811,8.077-2.811,13.374v18.994c0,5.169,0.936,9.627,2.811,13.373
			c1.872,3.75,4.425,6.56,7.656,8.431C2607.251,174.377,2610.807,175.313,2614.683,175.313z"/>
		<path d="M2685.812,190.818V91.777h19.575l3.102,14.536c3.876-5.554,8.559-9.69,14.052-12.404c5.49-2.713,11.726-4.07,18.703-4.07
			c6.717,0,12.629,1.293,17.734,3.876c5.104,2.586,9.043,6.269,11.823,11.048c2.777,4.782,4.167,10.596,4.167,17.444v68.611h-26.359
			v-62.991c0-6.33-1.551-10.981-4.651-13.955c-3.102-2.971-7.302-4.458-12.599-4.458c-3.361,0-6.526,0.872-9.497,2.616
			c-2.974,1.745-5.3,4.104-6.978,7.074c-1.681,2.974-2.52,6.333-2.52,10.079v61.634H2685.812z"/>
		<path d="M2834.662,192.756c-5.557,0-10.532-0.775-14.924-2.326c-4.395-1.55-7.819-4.167-10.272-7.85
			c-2.456-3.683-3.683-8.558-3.683-14.633v-56.401h-10.854v-19.77h11.629l9.304-31.592h16.28v31.592h23.258v19.77h-23.258v50.586
			c0,5.688,1.163,9.303,3.489,10.854c2.325,1.55,4.845,2.326,7.559,2.326c1.42,0,3.392-0.291,5.911-0.872
			c2.52-0.582,4.555-1.193,6.105-1.841v16.281c-1.681,0.905-3.749,1.647-6.202,2.229c-2.456,0.582-4.942,1-7.462,1.26
			C2839.023,192.626,2836.728,192.756,2834.662,192.756z"/>
		<path d="M2919.357,192.756c-9.303,0-17.54-1.908-24.712-5.717c-7.171-3.81-12.762-9.367-16.765-16.668
			c-4.007-7.298-6.009-16.184-6.009-26.65v-4.846c0-10.466,2.099-19.348,6.299-26.65c4.198-7.298,9.948-12.855,17.25-16.668
			c7.299-3.81,15.603-5.717,24.906-5.717h3.101c8.785,0,16.441,1.777,22.968,5.33c6.522,3.556,11.562,8.528,15.117,14.924
			c3.553,6.396,5.33,13.858,5.33,22.386v12.21h-67.061c0,6.203,0.775,11.629,2.325,16.281c1.551,4.652,3.877,8.207,6.978,10.66
			c3.102,2.456,7.172,3.683,12.211,3.683c4.134,0,7.753-0.806,10.854-2.423c3.102-1.614,5.555-4.037,7.365-7.268
			c1.808-3.229,2.714-7.171,2.714-11.823h24.614c0,7.625-1.938,14.375-5.814,20.254c-3.876,5.881-9.206,10.466-15.99,13.761
			c-6.783,3.295-14.633,4.942-23.549,4.942H2919.357z M2899.976,131.123h40.896c0-8.141-1.777-14.179-5.33-18.122
			c-3.555-3.94-8.431-5.912-14.633-5.912c-5.814,0-10.693,2.035-14.634,6.105C2902.332,117.265,2900.233,123.243,2899.976,131.123z"
			/>
		<path d="M2977.694,190.818l34.5-51.75l-31.786-47.291h30.816l18.994,30.042h0.388l19.188-30.042h28.685l-32.174,47.873
			l34.306,51.168h-30.816l-21.32-33.918h-0.388l-21.707,33.918H2977.694z"/>
		<path d="M3129.84,192.756c-5.557,0-10.532-0.775-14.924-2.326c-4.395-1.55-7.819-4.167-10.272-7.85
			c-2.456-3.683-3.683-8.558-3.683-14.633v-56.401h-10.854v-19.77h11.629l9.304-31.592h16.28v31.592h23.258v19.77h-23.258v50.586
			c0,5.688,1.163,9.303,3.489,10.854c2.325,1.55,4.845,2.326,7.559,2.326c1.42,0,3.392-0.291,5.911-0.872
			c2.52-0.582,4.555-1.193,6.105-1.841v16.281c-1.681,0.905-3.749,1.647-6.202,2.229c-2.456,0.582-4.942,1-7.462,1.26
			C3134.201,192.626,3131.905,192.756,3129.84,192.756z"/>
		<path d="M3162.398,221.248c4.651-7.365,8.752-15.635,12.308-24.809c3.552-9.173,6.329-18.67,8.334-28.491
			c2.002-9.818,3.004-19.315,3.004-28.491c0-9.43-1.035-18.994-3.101-28.685c-2.068-9.691-4.846-19.091-8.335-28.201
			c-3.488-9.109-7.559-17.347-12.21-24.711h14.536c9.948,11.241,17.571,23.906,22.87,37.988c5.297,14.085,7.947,28.622,7.947,43.609
			c0,15.118-2.65,29.721-7.947,43.803c-5.299,14.082-12.922,26.747-22.87,37.988H3162.398z"/>
	</g>
	<g>
		<path style="fill:#FFFFFF;stroke:#0033AD;stroke-width:12.1136;stroke-miterlimit:10;" d="M971.984,870.536H119.523
			c-36.492,0-66.074-29.583-66.074-66.074V438.938c0-36.492,29.582-66.074,66.074-66.074h852.462
			c36.492,0,66.074,29.582,66.074,66.074v365.523C1038.059,840.953,1008.476,870.536,971.984,870.536z"/>
		<g>
			<path style="fill:#0033AD;" d="M181.216,666.593c-5.077,0-9.765-0.862-14.065-2.584c-4.303-1.722-8.045-4.284-11.227-7.688
				c-3.184-3.402-5.658-7.644-7.42-12.727c-1.764-5.082-2.646-11.068-2.646-17.96V616.2c0-6.804,0.923-12.77,2.774-17.896
				c1.849-5.124,4.494-9.388,7.936-12.792c3.44-3.402,7.462-5.943,12.065-7.624c4.601-1.68,9.614-2.52,15.033-2.52h2.323
				c4.73,0,9.162,0.69,13.292,2.067c4.129,1.379,7.785,3.424,10.968,6.138c3.182,2.713,5.678,6.117,7.484,10.208
				c1.807,4.093,2.71,8.809,2.71,14.149h-17.42c0-4.478-0.839-8.054-2.517-10.725c-1.677-2.669-3.916-4.587-6.71-5.75
				c-2.796-1.163-5.958-1.744-9.484-1.744c-2.667,0-5.142,0.41-7.42,1.228c-2.281,0.819-4.258,2.112-5.936,3.876
				c-1.678,1.767-2.968,4.093-3.871,6.978c-0.903,2.887-1.355,6.396-1.355,10.531v17.314c0,4.135,0.452,7.646,1.355,10.531
				c0.903,2.887,2.193,5.213,3.871,6.978c1.678,1.767,3.655,3.059,5.936,3.876c2.278,0.82,4.752,1.228,7.42,1.228
				c2.666,0,5.139-0.301,7.42-0.905c2.278-0.602,4.278-1.593,6-2.972c1.72-1.377,3.053-3.23,4-5.556
				c0.946-2.326,1.419-5.253,1.419-8.787v-3.747h-21.292v-12.792h38.583v30.494c0,4.222,0.107,7.688,0.323,10.401
				c0.214,2.714,0.365,5.02,0.452,6.913h-10.323l-2.968-10.466c-2.667,3.705-6.367,6.59-11.098,8.657
				c-4.732,2.067-9.593,3.101-14.582,3.101H181.216z"/>
			<path style="fill:#0033AD;" d="M265.737,666.593c-6.022,0-11.42-1.356-16.194-4.07c-4.775-2.714-8.517-6.568-11.227-11.565
				c-2.709-4.995-4.064-10.854-4.064-17.573v-2.326c0-6.804,1.355-12.663,4.064-17.573c2.71-4.91,6.43-8.722,11.162-11.436
				c4.73-2.713,10.108-4.07,16.13-4.07h2.581c6.107,0,11.527,1.356,16.259,4.07c4.73,2.714,8.453,6.525,11.162,11.436
				c2.71,4.91,4.065,10.769,4.065,17.573v2.326c0,6.806-1.355,12.685-4.065,17.638c-2.709,4.955-6.432,8.786-11.162,11.5
				c-4.732,2.713-10.109,4.07-16.13,4.07H265.737z M266.898,654.964c2.666,0,5.053-0.624,7.162-1.874
				c2.107-1.248,3.785-3.122,5.033-5.621c1.246-2.498,1.871-5.47,1.871-8.916v-12.663c0-3.531-0.625-6.503-1.871-8.916
				c-1.248-2.411-2.926-4.264-5.033-5.556c-2.109-1.292-4.496-1.938-7.162-1.938c-2.581,0-4.948,0.646-7.097,1.938
				c-2.151,1.292-3.851,3.146-5.097,5.556c-1.248,2.413-1.871,5.384-1.871,8.916v12.663c0,3.446,0.623,6.418,1.871,8.916
				c1.246,2.499,2.946,4.373,5.097,5.621C261.95,654.34,264.317,654.964,266.898,654.964z"/>
			<path style="fill:#0033AD;" d="M330.385,665.301L306.9,599.273h18.84l14.969,45.612h0.774l15.098-45.612h17.162L350,665.301
				H330.385z"/>
			<path style="fill:#0033AD;" d="M412.456,666.593c-6.194,0-11.678-1.272-16.453-3.812c-4.774-2.54-8.497-6.245-11.162-11.112
				c-2.667-4.866-4-10.789-4-17.767v-3.23c0-6.978,1.397-12.899,4.194-17.767c2.795-4.866,6.624-8.57,11.485-11.112
				c4.859-2.54,10.388-3.812,16.582-3.812h2.064c5.849,0,10.946,1.185,15.292,3.553c4.343,2.37,7.698,5.686,10.065,9.949
				c2.365,4.264,3.549,9.239,3.549,14.924v8.14h-44.648c0,4.135,0.516,7.753,1.549,10.854c1.032,3.101,2.581,5.471,4.646,7.106
				c2.064,1.637,4.774,2.455,8.129,2.455c2.752,0,5.162-0.537,7.227-1.615c2.064-1.076,3.698-2.691,4.903-4.845
				c1.204-2.152,1.807-4.781,1.807-7.882h16.388c0,5.084-1.291,9.584-3.871,13.503c-2.581,3.921-6.129,6.978-10.646,9.174
				c-4.517,2.197-9.743,3.295-15.679,3.295H412.456z M399.552,625.503h27.228c0-5.427-1.184-9.453-3.549-12.081
				c-2.367-2.627-5.613-3.941-9.743-3.941c-3.871,0-7.119,1.356-9.742,4.07C401.121,616.265,399.724,620.25,399.552,625.503z"/>
			<path style="fill:#0033AD;" d="M458.909,665.301v-66.027h13.162l2.194,9.691c0.171-0.343,0.623-1.076,1.355-2.197
				c0.729-1.118,1.827-2.368,3.291-3.747c1.462-1.377,3.291-2.562,5.484-3.553c2.193-0.989,4.839-1.486,7.936-1.486
				c4.472,0,8.107,0.862,10.904,2.584c2.794,1.724,4.881,4.135,6.258,7.236c1.375,3.101,2.065,6.719,2.065,10.854
				c0,0.949-0.044,1.982-0.129,3.101c-0.087,1.121-0.174,2.112-0.258,2.972H496.46v-2.713c0-1.635-0.322-3.295-0.968-4.975
				c-0.645-1.68-1.677-3.079-3.097-4.199c-1.419-1.119-3.377-1.68-5.872-1.68c-1.807,0-3.355,0.388-4.646,1.163
				c-1.291,0.775-2.345,1.745-3.162,2.907c-0.818,1.163-1.419,2.455-1.807,3.876c-0.387,1.421-0.581,2.736-0.581,3.941v42.252
				H458.909z"/>
			<path style="fill:#0033AD;" d="M523.042,665.301v-66.027h13.033l2.064,9.691c2.581-3.703,5.698-6.46,9.355-8.27
				c3.656-1.809,7.807-2.713,12.453-2.713c4.472,0,8.408,0.862,11.807,2.584c3.397,1.724,6.021,4.179,7.872,7.365
				c1.849,3.188,2.774,7.064,2.774,11.629v45.741h-17.549v-41.994c0-4.219-1.033-7.32-3.097-9.303
				c-2.065-1.98-4.861-2.972-8.388-2.972c-2.238,0-4.345,0.582-6.323,1.744c-1.98,1.163-3.528,2.736-4.646,4.716
				c-1.119,1.983-1.677,4.222-1.677,6.719v41.089H523.042z"/>
			<path style="fill:#0033AD;" d="M600.078,665.301v-66.027h13.162l2.323,9.691c2.236-3.444,4.881-6.138,7.936-8.076
				c3.053-1.938,6.775-2.907,11.162-2.907c4.301,0,8.085,0.819,11.355,2.455c3.269,1.637,5.85,4.351,7.743,8.14
				c2.064-3.444,4.73-6.073,8-7.882c3.269-1.809,7.14-2.713,11.614-2.713c4.214,0,7.936,0.862,11.162,2.584
				c3.226,1.724,5.742,4.179,7.549,7.365c1.807,3.188,2.71,7.064,2.71,11.629v45.741h-17.42v-41.735c0-4.307-0.903-7.45-2.71-9.433
				c-1.807-1.98-4.303-2.972-7.484-2.972c-2.065,0-3.936,0.539-5.613,1.615c-1.678,1.078-2.99,2.584-3.936,4.522
				c-0.947,1.938-1.419,4.157-1.419,6.655v41.348h-17.42v-41.735c0-4.307-0.903-7.45-2.71-9.433
				c-1.807-1.98-4.345-2.972-7.613-2.972c-2.065,0-3.916,0.539-5.549,1.615c-1.635,1.078-2.926,2.584-3.871,4.522
				c-0.948,1.938-1.42,4.157-1.42,6.655v41.348H600.078z"/>
			<path style="fill:#0033AD;" d="M741.118,666.593c-6.194,0-11.678-1.272-16.453-3.812c-4.774-2.54-8.497-6.245-11.162-11.112
				c-2.667-4.866-4-10.789-4-17.767v-3.23c0-6.978,1.397-12.899,4.194-17.767c2.795-4.866,6.624-8.57,11.485-11.112
				c4.859-2.54,10.388-3.812,16.582-3.812h2.064c5.849,0,10.946,1.185,15.292,3.553c4.343,2.37,7.698,5.686,10.065,9.949
				c2.365,4.264,3.549,9.239,3.549,14.924v8.14h-44.648c0,4.135,0.516,7.753,1.549,10.854c1.032,3.101,2.581,5.471,4.646,7.106
				c2.064,1.637,4.774,2.455,8.129,2.455c2.752,0,5.162-0.537,7.227-1.615c2.064-1.076,3.698-2.691,4.903-4.845
				c1.204-2.152,1.807-4.781,1.807-7.882h16.388c0,5.084-1.291,9.584-3.871,13.503c-2.581,3.921-6.129,6.978-10.646,9.174
				c-4.517,2.197-9.743,3.295-15.679,3.295H741.118z M728.214,625.503h27.228c0-5.427-1.184-9.453-3.549-12.081
				c-2.367-2.627-5.613-3.941-9.743-3.941c-3.871,0-7.119,1.356-9.742,4.07C729.783,616.265,728.386,620.25,728.214,625.503z"/>
			<path style="fill:#0033AD;" d="M787.571,665.301v-66.027h13.033l2.064,9.691c2.581-3.703,5.698-6.46,9.355-8.27
				c3.656-1.809,7.807-2.713,12.453-2.713c4.472,0,8.408,0.862,11.807,2.584c3.397,1.724,6.021,4.179,7.872,7.365
				c1.849,3.188,2.774,7.064,2.774,11.629v45.741h-17.549v-41.994c0-4.219-1.033-7.32-3.097-9.303
				c-2.065-1.98-4.861-2.972-8.388-2.972c-2.238,0-4.345,0.582-6.323,1.744c-1.98,1.163-3.528,2.736-4.646,4.716
				c-1.119,1.983-1.677,4.222-1.677,6.719v41.089H787.571z"/>
			<path style="fill:#0033AD;" d="M886.673,666.593c-3.7,0-7.013-0.517-9.937-1.55c-2.925-1.034-5.206-2.778-6.839-5.233
				c-1.635-2.455-2.452-5.706-2.452-9.755v-37.601h-7.226v-13.18h7.743l6.194-21.062h10.839v21.062h15.485v13.18h-15.485v33.724
				c0,3.792,0.774,6.202,2.323,7.236s3.226,1.551,5.033,1.551c0.946,0,2.258-0.194,3.936-0.582c1.678-0.388,3.033-0.795,4.065-1.228
				v10.854c-1.119,0.604-2.496,1.098-4.129,1.486c-1.635,0.388-3.291,0.666-4.968,0.84
				C889.577,666.506,888.048,666.593,886.673,666.593z"/>
			<path style="fill:#0033AD;" d="M938.03,666.593c-4.129,0-7.871-0.517-11.227-1.55c-3.355-1.034-6.258-2.433-8.71-4.2
				c-2.452-1.764-4.323-3.832-5.613-6.202c-1.291-2.368-1.936-4.93-1.936-7.688c0-0.517,0-0.947,0-1.292
				c0-0.343,0.042-0.818,0.129-1.421h14.969c-0.087,0.258-0.129,0.497-0.129,0.71c0,0.216,0,0.41,0,0.582
				c0,2.154,0.729,3.941,2.193,5.362c1.462,1.421,3.355,2.455,5.678,3.101s4.816,0.969,7.484,0.969c2.149,0,4.323-0.258,6.517-0.775
				c2.193-0.517,4.02-1.356,5.484-2.52c1.462-1.163,2.194-2.649,2.194-4.458c0-1.98-0.754-3.509-2.258-4.587
				c-1.506-1.076-3.528-1.938-6.065-2.584c-2.539-0.646-5.313-1.206-8.323-1.68c-3.012-0.472-6.044-1.076-9.097-1.809
				c-3.055-0.731-5.851-1.787-8.388-3.166c-2.539-1.377-4.561-3.25-6.065-5.621c-1.506-2.368-2.258-5.492-2.258-9.368
				c0-3.273,0.752-6.202,2.258-8.787c1.504-2.584,3.569-4.736,6.194-6.46c2.623-1.722,5.633-3.014,9.033-3.876
				c3.397-0.86,6.946-1.292,10.646-1.292h2.581c3.439,0,6.73,0.432,9.872,1.292c3.139,0.862,5.956,2.09,8.452,3.683
				c2.494,1.595,4.452,3.489,5.872,5.685c1.419,2.197,2.129,4.587,2.129,7.171c0,0.432-0.022,0.927-0.064,1.486
				c-0.044,0.562-0.109,0.927-0.193,1.099h-14.969v-1.034c0-0.947-0.238-1.874-0.71-2.778c-0.474-0.904-1.248-1.744-2.323-2.52
				c-1.077-0.775-2.452-1.399-4.129-1.874c-1.677-0.473-3.678-0.71-6-0.71c-2.064,0-3.916,0.193-5.548,0.581
				c-1.635,0.388-3.013,0.905-4.129,1.551c-1.119,0.646-1.936,1.401-2.452,2.261c-0.516,0.862-0.774,1.724-0.774,2.584
				c0,1.809,0.774,3.21,2.323,4.2c1.548,0.991,3.591,1.767,6.129,2.326c2.537,0.561,5.333,1.078,8.388,1.55
				c3.053,0.475,6.085,1.056,9.097,1.745c3.01,0.69,5.807,1.744,8.388,3.166c2.581,1.421,4.624,3.339,6.13,5.75
				c1.504,2.413,2.258,5.556,2.258,9.433c0,4.05-0.774,7.494-2.323,10.337c-1.548,2.843-3.7,5.104-6.452,6.784
				c-2.754,1.68-5.852,2.907-9.291,3.683c-3.442,0.775-7.055,1.163-10.84,1.163H938.03z"/>
		</g>
	</g>
	<g>
		<path style="fill:#FFFFFF;stroke:#0033AD;stroke-width:12.1136;stroke-miterlimit:10;" d="M971.984,1662.616H119.523
			c-36.492,0-66.074-29.583-66.074-66.074v-365.523c0-36.492,29.582-66.074,66.074-66.074h852.462
			c36.492,0,66.074,29.583,66.074,66.074v365.523C1038.059,1633.034,1008.476,1662.616,971.984,1662.616z"/>
		<g>
			<path style="fill:#0033AD;" d="M213.862,1465.326v-88.64h35.099c5.075,0,9.85,0.798,14.324,2.391
				c4.472,1.595,8.408,4.005,11.807,7.236c3.397,3.23,6.043,7.28,7.936,12.146c1.891,4.868,2.839,10.618,2.839,17.25v8.27
				c0,6.547-0.948,12.384-2.839,17.508c-1.893,5.126-4.539,9.455-7.936,12.986c-3.399,3.533-7.335,6.225-11.807,8.076
				c-4.474,1.853-9.249,2.778-14.324,2.778H213.862z M232.702,1450.854h14.711c3.526,0,6.688-0.795,9.484-2.391
				c2.794-1.593,5.01-4.07,6.646-7.43c1.633-3.359,2.452-7.708,2.452-13.05v-15.376c0-5.253-0.818-9.453-2.452-12.599
				c-1.635-3.143-3.851-5.427-6.646-6.848c-2.796-1.421-5.958-2.132-9.484-2.132h-14.711V1450.854z"/>
			<path style="fill:#0033AD;" d="M329.87,1466.618c-6.194,0-11.678-1.272-16.453-3.812c-4.774-2.54-8.497-6.245-11.162-11.112
				c-2.667-4.866-4-10.789-4-17.767v-3.23c0-6.978,1.397-12.899,4.194-17.767c2.795-4.866,6.624-8.57,11.485-11.112
				c4.859-2.54,10.388-3.812,16.582-3.812h2.064c5.849,0,10.946,1.185,15.292,3.553c4.343,2.37,7.698,5.686,10.065,9.949
				c2.365,4.264,3.549,9.239,3.549,14.924v8.14h-44.648c0,4.135,0.516,7.753,1.549,10.854c1.032,3.101,2.581,5.471,4.646,7.106
				c2.064,1.637,4.774,2.455,8.129,2.455c2.752,0,5.162-0.537,7.227-1.615c2.064-1.076,3.698-2.691,4.903-4.845
				c1.204-2.152,1.807-4.781,1.807-7.882h16.388c0,5.084-1.291,9.584-3.871,13.503c-2.581,3.921-6.129,6.978-10.646,9.174
				c-4.517,2.197-9.743,3.295-15.679,3.295H329.87z M316.966,1425.529h27.228c0-5.427-1.184-9.453-3.549-12.081
				c-2.367-2.627-5.613-3.941-9.743-3.941c-3.871,0-7.119,1.356-9.742,4.07C318.534,1416.29,317.137,1420.275,316.966,1425.529z"/>
			<path style="fill:#0033AD;" d="M392.453,1465.326l-23.485-66.027h18.84l14.969,45.612h0.774l15.098-45.612h17.162l-23.743,66.027
				H392.453z"/>
			<path style="fill:#0033AD;" d="M474.523,1466.618c-6.194,0-11.678-1.272-16.453-3.812c-4.774-2.54-8.497-6.245-11.162-11.112
				c-2.667-4.866-4-10.789-4-17.767v-3.23c0-6.978,1.397-12.899,4.194-17.767c2.795-4.866,6.624-8.57,11.485-11.112
				c4.859-2.54,10.388-3.812,16.582-3.812h2.064c5.849,0,10.946,1.185,15.292,3.553c4.343,2.37,7.698,5.686,10.065,9.949
				c2.365,4.264,3.549,9.239,3.549,14.924v8.14H461.49c0,4.135,0.516,7.753,1.549,10.854c1.032,3.101,2.581,5.471,4.646,7.106
				c2.064,1.637,4.774,2.455,8.129,2.455c2.752,0,5.162-0.537,7.227-1.615c2.064-1.076,3.698-2.691,4.903-4.845
				c1.204-2.152,1.807-4.781,1.807-7.882h16.388c0,5.084-1.291,9.584-3.871,13.503c-2.581,3.921-6.129,6.978-10.646,9.174
				c-4.517,2.197-9.743,3.295-15.679,3.295H474.523z M461.62,1425.529h27.228c0-5.427-1.184-9.453-3.549-12.081
				c-2.367-2.627-5.613-3.941-9.743-3.941c-3.871,0-7.119,1.356-9.742,4.07C463.188,1416.29,461.791,1420.275,461.62,1425.529z"/>
			<path style="fill:#0033AD;" d="M520.977,1465.326v-93.033h17.679v93.033H520.977z"/>
			<path style="fill:#0033AD;" d="M585.237,1466.618c-6.022,0-11.42-1.356-16.194-4.07c-4.775-2.714-8.517-6.568-11.227-11.565
				c-2.709-4.995-4.064-10.854-4.064-17.573v-2.326c0-6.804,1.355-12.663,4.064-17.573c2.71-4.91,6.43-8.722,11.162-11.436
				c4.73-2.713,10.108-4.07,16.13-4.07h2.581c6.107,0,11.527,1.356,16.259,4.07c4.73,2.714,8.453,6.525,11.162,11.436
				c2.71,4.91,4.065,10.769,4.065,17.573v2.326c0,6.806-1.355,12.685-4.065,17.638c-2.709,4.955-6.432,8.786-11.162,11.5
				c-4.732,2.713-10.109,4.07-16.13,4.07H585.237z M586.399,1454.989c2.666,0,5.053-0.624,7.162-1.874
				c2.107-1.248,3.785-3.122,5.033-5.621c1.246-2.498,1.871-5.47,1.871-8.916v-12.663c0-3.531-0.625-6.503-1.871-8.916
				c-1.248-2.411-2.926-4.264-5.033-5.556c-2.109-1.292-4.496-1.938-7.162-1.938c-2.581,0-4.948,0.646-7.097,1.938
				c-2.151,1.292-3.851,3.146-5.097,5.556c-1.248,2.413-1.871,5.384-1.871,8.916v12.663c0,3.446,0.623,6.418,1.871,8.916
				c1.246,2.499,2.946,4.373,5.097,5.621C581.451,1454.365,583.818,1454.989,586.399,1454.989z"/>
			<path style="fill:#0033AD;" d="M633.628,1488.713v-89.415h13.807l1.936,8.528c1.978-2.842,4.624-5.188,7.936-7.042
				c3.311-1.851,7.204-2.778,11.678-2.778c5.075,0,9.656,1.098,13.743,3.295c4.085,2.196,7.311,5.708,9.678,10.531
				c2.365,4.825,3.548,11.157,3.548,18.994v2.713c0,7.236-1.161,13.331-3.484,18.284c-2.323,4.954-5.464,8.657-9.42,11.112
				c-3.958,2.455-8.303,3.683-13.033,3.683c-4.561,0-8.388-0.862-11.485-2.584s-5.464-3.919-7.097-6.59v31.269H633.628z
				 M664.468,1454.86c2.494,0,4.71-0.646,6.646-1.938s3.462-3.144,4.581-5.556c1.117-2.411,1.677-5.382,1.677-8.916v-11.5
				c0-3.961-0.561-7.214-1.677-9.755c-1.119-2.54-2.646-4.436-4.581-5.686c-1.936-1.248-4.151-1.874-6.646-1.874
				c-2.323,0-4.497,0.604-6.517,1.809c-2.022,1.207-3.635,3.059-4.839,5.556c-1.206,2.5-1.807,5.772-1.807,9.82v11.629
				c0,3.533,0.581,6.525,1.742,8.98c1.162,2.455,2.752,4.309,4.774,5.556C659.843,1454.236,662.059,1454.86,664.468,1454.86z"/>
			<path style="fill:#0033AD;" d="M739.311,1466.618c-6.194,0-11.678-1.272-16.453-3.812c-4.774-2.54-8.497-6.245-11.162-11.112
				c-2.667-4.866-4-10.789-4-17.767v-3.23c0-6.978,1.397-12.899,4.194-17.767c2.795-4.866,6.624-8.57,11.485-11.112
				c4.859-2.54,10.388-3.812,16.582-3.812h2.064c5.849,0,10.946,1.185,15.292,3.553c4.343,2.37,7.698,5.686,10.065,9.949
				c2.365,4.264,3.549,9.239,3.549,14.924v8.14h-44.648c0,4.135,0.516,7.753,1.549,10.854c1.032,3.101,2.581,5.471,4.646,7.106
				c2.064,1.637,4.774,2.455,8.129,2.455c2.752,0,5.162-0.537,7.227-1.615c2.064-1.076,3.698-2.691,4.903-4.845
				c1.204-2.152,1.807-4.781,1.807-7.882h16.388c0,5.084-1.291,9.584-3.871,13.503c-2.581,3.921-6.129,6.978-10.646,9.174
				c-4.517,2.197-9.743,3.295-15.679,3.295H739.311z M726.407,1425.529h27.228c0-5.427-1.184-9.453-3.549-12.081
				c-2.367-2.627-5.613-3.941-9.743-3.941c-3.871,0-7.119,1.356-9.742,4.07C727.976,1416.29,726.579,1420.275,726.407,1425.529z"/>
			<path style="fill:#0033AD;" d="M785.764,1465.326v-66.027h13.162l2.194,9.691c0.171-0.343,0.623-1.076,1.355-2.197
				c0.729-1.118,1.827-2.368,3.291-3.747c1.462-1.377,3.291-2.562,5.484-3.553c2.193-0.989,4.839-1.486,7.936-1.486
				c4.472,0,8.107,0.862,10.904,2.584c2.794,1.724,4.881,4.135,6.258,7.236c1.375,3.101,2.065,6.719,2.065,10.854
				c0,0.949-0.044,1.982-0.129,3.101c-0.087,1.121-0.174,2.112-0.258,2.972h-14.711v-2.713c0-1.635-0.322-3.295-0.968-4.975
				c-0.645-1.68-1.677-3.079-3.097-4.199c-1.419-1.119-3.377-1.68-5.872-1.68c-1.807,0-3.355,0.388-4.646,1.163
				c-1.291,0.775-2.345,1.745-3.162,2.907c-0.818,1.163-1.419,2.455-1.807,3.876c-0.387,1.421-0.581,2.736-0.581,3.941v42.252
				H785.764z"/>
			<path style="fill:#0033AD;" d="M873.511,1466.618c-4.129,0-7.871-0.517-11.227-1.55c-3.355-1.034-6.258-2.433-8.71-4.2
				c-2.452-1.764-4.323-3.832-5.613-6.202c-1.291-2.368-1.936-4.93-1.936-7.688c0-0.517,0-0.947,0-1.292
				c0-0.343,0.042-0.818,0.129-1.421h14.969c-0.087,0.258-0.129,0.497-0.129,0.71c0,0.216,0,0.41,0,0.582
				c0,2.154,0.729,3.941,2.193,5.362c1.462,1.421,3.355,2.455,5.678,3.101s4.816,0.969,7.484,0.969c2.149,0,4.323-0.258,6.517-0.775
				c2.193-0.517,4.02-1.356,5.484-2.52c1.462-1.163,2.194-2.649,2.194-4.458c0-1.98-0.754-3.509-2.258-4.587
				c-1.506-1.076-3.528-1.938-6.065-2.584c-2.539-0.646-5.313-1.206-8.323-1.68c-3.012-0.472-6.044-1.076-9.097-1.809
				c-3.055-0.731-5.851-1.787-8.388-3.166c-2.539-1.377-4.561-3.25-6.065-5.621c-1.506-2.368-2.258-5.492-2.258-9.368
				c0-3.273,0.752-6.202,2.258-8.787c1.504-2.584,3.569-4.736,6.194-6.46c2.623-1.722,5.633-3.014,9.033-3.876
				c3.397-0.86,6.946-1.292,10.646-1.292h2.581c3.439,0,6.73,0.432,9.872,1.292c3.139,0.862,5.956,2.09,8.452,3.683
				c2.494,1.595,4.452,3.489,5.872,5.685c1.419,2.197,2.129,4.587,2.129,7.171c0,0.432-0.022,0.927-0.064,1.486
				c-0.044,0.562-0.109,0.927-0.193,1.099H889.9v-1.034c0-0.947-0.238-1.874-0.71-2.778c-0.474-0.904-1.248-1.744-2.323-2.52
				c-1.077-0.775-2.452-1.399-4.129-1.874c-1.677-0.473-3.678-0.71-6-0.71c-2.064,0-3.916,0.193-5.548,0.581
				c-1.635,0.388-3.013,0.905-4.129,1.551c-1.119,0.646-1.936,1.401-2.452,2.261c-0.516,0.862-0.774,1.724-0.774,2.584
				c0,1.809,0.774,3.21,2.323,4.2c1.548,0.991,3.591,1.767,6.129,2.326c2.537,0.561,5.333,1.078,8.388,1.55
				c3.053,0.475,6.085,1.056,9.097,1.745c3.01,0.69,5.807,1.744,8.388,3.166c2.581,1.421,4.624,3.339,6.13,5.75
				c1.504,2.413,2.258,5.556,2.258,9.433c0,4.05-0.774,7.494-2.323,10.337c-1.548,2.843-3.7,5.104-6.452,6.784
				c-2.754,1.68-5.852,2.907-9.291,3.683c-3.442,0.775-7.055,1.163-10.84,1.163H873.511z"/>
		</g>
	</g>
	<g>
		<path style="fill:#FFFFFF;stroke:#0033AD;stroke-width:12.1136;stroke-miterlimit:10;" d="M971.984,2454.696H119.523
			c-36.492,0-66.074-29.583-66.074-66.074v-365.523c0-36.492,29.582-66.074,66.074-66.074h852.462
			c36.492,0,66.074,29.583,66.074,66.074v365.523C1038.059,2425.114,1008.476,2454.696,971.984,2454.696z"/>
		<g>
			<path style="fill:#0033AD;" d="M414.97,2253.292c-6.625,0-12.346-1.228-17.163-3.683c-4.819-2.455-8.539-5.921-11.162-10.401
				c-2.625-4.478-3.936-9.69-3.936-15.635v-60.213h18.84v59.954c0,4.652,1.44,8.422,4.323,11.307
				c2.881,2.887,6.774,4.328,11.678,4.328c4.903,0,8.775-1.463,11.614-4.393c2.839-2.928,4.258-6.675,4.258-11.242v-59.954h18.84
				v60.213c0,5.944-1.441,11.157-4.323,15.635c-2.883,4.48-6.839,7.946-11.872,10.401c-5.032,2.455-10.861,3.683-17.485,3.683
				H414.97z"/>
			<path style="fill:#0033AD;" d="M493.813,2253.292c-4.129,0-7.871-0.517-11.227-1.551c-3.355-1.033-6.258-2.433-8.71-4.199
				c-2.452-1.765-4.323-3.832-5.613-6.202c-1.291-2.368-1.936-4.93-1.936-7.688c0-0.518,0-0.947,0-1.293
				c0-0.343,0.042-0.817,0.129-1.421h14.969c-0.087,0.259-0.129,0.497-0.129,0.711c0,0.216,0,0.409,0,0.581
				c0,2.154,0.729,3.941,2.193,5.362c1.462,1.422,3.355,2.455,5.678,3.102c2.323,0.646,4.816,0.969,7.484,0.969
				c2.149,0,4.323-0.259,6.517-0.775c2.193-0.517,4.02-1.356,5.484-2.52c1.462-1.163,2.194-2.648,2.194-4.458
				c0-1.98-0.754-3.509-2.258-4.587c-1.506-1.076-3.528-1.938-6.065-2.584c-2.539-0.646-5.313-1.205-8.323-1.68
				c-3.012-0.473-6.044-1.076-9.097-1.81c-3.055-0.73-5.851-1.786-8.388-3.165c-2.539-1.377-4.561-3.251-6.065-5.621
				c-1.506-2.368-2.258-5.491-2.258-9.368c0-3.272,0.752-6.202,2.258-8.786c1.504-2.584,3.569-4.736,6.194-6.461
				c2.623-1.722,5.633-3.014,9.033-3.876c3.397-0.86,6.946-1.292,10.646-1.292h2.581c3.439,0,6.73,0.432,9.872,1.292
				c3.139,0.862,5.956,2.09,8.452,3.683c2.494,1.595,4.452,3.488,5.872,5.686c1.419,2.196,2.129,4.587,2.129,7.171
				c0,0.433-0.022,0.927-0.064,1.486c-0.044,0.561-0.109,0.927-0.193,1.098h-14.969v-1.033c0-0.947-0.238-1.874-0.71-2.778
				c-0.474-0.904-1.248-1.744-2.323-2.52c-1.077-0.775-2.452-1.399-4.129-1.874c-1.677-0.472-3.678-0.71-6-0.71
				c-2.064,0-3.916,0.193-5.548,0.581c-1.635,0.388-3.013,0.904-4.129,1.551c-1.119,0.646-1.936,1.401-2.452,2.261
				c-0.516,0.862-0.774,1.725-0.774,2.585c0,1.809,0.774,3.21,2.323,4.199c1.548,0.991,3.591,1.767,6.129,2.325
				c2.537,0.562,5.333,1.078,8.388,1.551c3.053,0.475,6.085,1.056,9.097,1.744c3.01,0.69,5.807,1.745,8.388,3.166
				c2.581,1.422,4.624,3.34,6.13,5.75c1.504,2.413,2.258,5.557,2.258,9.433c0,4.05-0.774,7.494-2.323,10.337
				c-1.548,2.843-3.7,5.104-6.452,6.783c-2.754,1.68-5.852,2.907-9.291,3.683c-3.442,0.775-7.055,1.163-10.84,1.163H493.813z"/>
			<path style="fill:#0033AD;" d="M569.689,2253.292c-6.194,0-11.678-1.271-16.453-3.812s-8.497-6.245-11.162-11.112
				c-2.667-4.865-4-10.789-4-17.767v-3.23c0-6.978,1.397-12.898,4.194-17.767c2.795-4.865,6.624-8.57,11.485-11.112
				c4.859-2.54,10.388-3.812,16.582-3.812h2.064c5.849,0,10.946,1.185,15.292,3.553c4.343,2.371,7.698,5.686,10.065,9.95
				c2.365,4.264,3.549,9.238,3.549,14.924v8.14h-44.648c0,4.136,0.516,7.753,1.549,10.854c1.032,3.101,2.581,5.471,4.646,7.106
				c2.064,1.638,4.774,2.455,8.129,2.455c2.752,0,5.162-0.537,7.227-1.615c2.064-1.076,3.698-2.691,4.903-4.846
				c1.204-2.152,1.807-4.78,1.807-7.882h16.388c0,5.084-1.291,9.584-3.871,13.503c-2.581,3.921-6.129,6.978-10.646,9.174
				s-9.743,3.295-15.679,3.295H569.689z M556.785,2212.203h27.228c0-5.428-1.184-9.453-3.549-12.082
				c-2.367-2.626-5.613-3.94-9.743-3.94c-3.871,0-7.119,1.356-9.742,4.07C558.354,2202.964,556.957,2206.949,556.785,2212.203z"/>
			<path style="fill:#0033AD;" d="M616.142,2252v-66.027h13.162l2.194,9.69c0.171-0.343,0.623-1.075,1.355-2.196
				c0.729-1.118,1.827-2.368,3.291-3.747c1.462-1.377,3.291-2.562,5.484-3.554c2.193-0.989,4.839-1.485,7.936-1.485
				c4.472,0,8.107,0.862,10.904,2.584c2.794,1.725,4.881,4.135,6.258,7.236c1.375,3.101,2.065,6.719,2.065,10.854
				c0,0.949-0.044,1.982-0.129,3.101c-0.087,1.121-0.174,2.112-0.258,2.973h-14.711v-2.714c0-1.635-0.322-3.295-0.968-4.975
				c-0.645-1.68-1.677-3.079-3.097-4.199c-1.419-1.118-3.377-1.68-5.872-1.68c-1.807,0-3.355,0.388-4.646,1.163
				s-2.345,1.744-3.162,2.907c-0.818,1.163-1.419,2.455-1.807,3.876c-0.387,1.422-0.581,2.735-0.581,3.941V2252H616.142z"/>
			<path style="fill:#0033AD;" d="M703.889,2253.292c-4.129,0-7.871-0.517-11.227-1.551c-3.355-1.033-6.258-2.433-8.71-4.199
				c-2.452-1.765-4.323-3.832-5.613-6.202c-1.291-2.368-1.936-4.93-1.936-7.688c0-0.518,0-0.947,0-1.293
				c0-0.343,0.042-0.817,0.129-1.421h14.969c-0.087,0.259-0.129,0.497-0.129,0.711c0,0.216,0,0.409,0,0.581
				c0,2.154,0.729,3.941,2.193,5.362c1.462,1.422,3.355,2.455,5.678,3.102c2.323,0.646,4.816,0.969,7.484,0.969
				c2.149,0,4.323-0.259,6.517-0.775c2.193-0.517,4.02-1.356,5.484-2.52c1.462-1.163,2.194-2.648,2.194-4.458
				c0-1.98-0.754-3.509-2.258-4.587c-1.506-1.076-3.528-1.938-6.065-2.584c-2.539-0.646-5.313-1.205-8.323-1.68
				c-3.012-0.473-6.044-1.076-9.097-1.81c-3.055-0.73-5.851-1.786-8.388-3.165c-2.539-1.377-4.561-3.251-6.065-5.621
				c-1.506-2.368-2.258-5.491-2.258-9.368c0-3.272,0.752-6.202,2.258-8.786c1.504-2.584,3.569-4.736,6.194-6.461
				c2.623-1.722,5.633-3.014,9.033-3.876c3.397-0.86,6.946-1.292,10.646-1.292h2.581c3.439,0,6.73,0.432,9.872,1.292
				c3.139,0.862,5.956,2.09,8.452,3.683c2.494,1.595,4.452,3.488,5.872,5.686c1.419,2.196,2.129,4.587,2.129,7.171
				c0,0.433-0.022,0.927-0.064,1.486c-0.044,0.561-0.109,0.927-0.193,1.098h-14.969v-1.033c0-0.947-0.238-1.874-0.71-2.778
				c-0.474-0.904-1.248-1.744-2.323-2.52c-1.077-0.775-2.452-1.399-4.129-1.874c-1.677-0.472-3.678-0.71-6-0.71
				c-2.064,0-3.916,0.193-5.548,0.581c-1.635,0.388-3.013,0.904-4.129,1.551c-1.119,0.646-1.936,1.401-2.452,2.261
				c-0.516,0.862-0.774,1.725-0.774,2.585c0,1.809,0.774,3.21,2.323,4.199c1.548,0.991,3.591,1.767,6.129,2.325
				c2.537,0.562,5.333,1.078,8.388,1.551c3.053,0.475,6.085,1.056,9.097,1.744c3.01,0.69,5.807,1.745,8.388,3.166
				c2.581,1.422,4.624,3.34,6.13,5.75c1.504,2.413,2.258,5.557,2.258,9.433c0,4.05-0.774,7.494-2.323,10.337
				c-1.548,2.843-3.7,5.104-6.452,6.783c-2.754,1.68-5.852,2.907-9.291,3.683c-3.442,0.775-7.055,1.163-10.84,1.163H703.889z"/>
		</g>
	</g>
	<g>
		<path style="fill:#FFFFFF;stroke:#0033AD;stroke-width:12.1136;stroke-miterlimit:10;" d="M2427.099,2454.696h-852.462
			c-36.492,0-66.074-29.583-66.074-66.074v-365.523c0-36.492,29.583-66.074,66.074-66.074h852.462
			c36.492,0,66.074,29.583,66.074,66.074v365.523C2493.173,2425.114,2463.59,2454.696,2427.099,2454.696z"/>
		<g>
			<path style="fill:#0033AD;" d="M1704.501,2253.292c-5.248,0-10.13-0.775-14.646-2.326c-4.517-1.55-8.497-3.961-11.937-7.235
				c-3.442-3.272-6.13-7.494-8.065-12.663c-1.936-5.168-2.903-11.413-2.903-18.735v-9.433c0-7.062,0.988-13.18,2.968-18.348
				c1.979-5.169,4.688-9.411,8.13-12.728c3.439-3.315,7.397-5.771,11.872-7.365c4.472-1.593,9.246-2.391,14.323-2.391h2.323
				c4.816,0,9.355,0.668,13.613,2.003c4.259,1.337,8.001,3.446,11.227,6.331c3.227,2.888,5.763,6.612,7.613,11.177
				c1.85,4.567,2.774,10.079,2.774,16.539h-17.679c0-5.685-0.796-10.099-2.387-13.244c-1.593-3.144-3.787-5.34-6.581-6.59
				c-2.797-1.247-6.087-1.873-9.872-1.873c-2.667,0-5.142,0.41-7.42,1.228c-2.28,0.819-4.238,2.111-5.871,3.876
				c-1.636,1.767-2.903,4.093-3.807,6.978c-0.903,2.887-1.355,6.396-1.355,10.531v17.314c0,5.514,0.774,9.929,2.323,13.244
				c1.549,3.316,3.697,5.707,6.452,7.171c2.752,1.466,5.979,2.196,9.678,2.196c4.043,0,7.527-0.623,10.452-1.873
				c2.924-1.248,5.162-3.444,6.711-6.59c1.548-3.144,2.322-7.515,2.322-13.115h17.033c0,6.117-0.925,11.436-2.774,15.958
				c-1.851,4.522-4.367,8.249-7.549,11.177c-3.184,2.93-6.883,5.126-11.098,6.59c-4.216,1.464-8.732,2.196-13.549,2.196H1704.501z"
				/>
			<path style="fill:#0033AD;" d="M1784.893,2253.292c-6.022,0-11.42-1.356-16.194-4.07c-4.774-2.713-8.517-6.567-11.227-11.564
				c-2.71-4.994-4.065-10.854-4.065-17.572v-2.326c0-6.804,1.355-12.663,4.065-17.573c2.71-4.909,6.43-8.722,11.162-11.435
				c4.729-2.714,10.107-4.07,16.13-4.07h2.581c6.107,0,11.526,1.356,16.259,4.07c4.73,2.713,8.452,6.525,11.162,11.435
				c2.71,4.91,4.065,10.77,4.065,17.573v2.326c0,6.806-1.355,12.685-4.065,17.637c-2.71,4.955-6.432,8.787-11.162,11.5
				c-4.732,2.714-10.109,4.07-16.13,4.07H1784.893z M1786.054,2241.663c2.666,0,5.053-0.624,7.162-1.874
				c2.107-1.247,3.784-3.121,5.032-5.62c1.246-2.498,1.871-5.47,1.871-8.916v-12.662c0-3.531-0.625-6.504-1.871-8.916
				c-1.248-2.411-2.925-4.264-5.032-5.557c-2.109-1.292-4.496-1.938-7.162-1.938c-2.58,0-4.947,0.646-7.097,1.938
				c-2.151,1.293-3.852,3.146-5.098,5.557c-1.248,2.412-1.871,5.385-1.871,8.916v12.662c0,3.446,0.623,6.418,1.871,8.916
				c1.246,2.499,2.946,4.373,5.098,5.62C1781.106,2241.039,1783.474,2241.663,1786.054,2241.663z"/>
			<path style="fill:#0033AD;" d="M1833.411,2252v-66.027h13.163l2.322,9.69c2.236-3.443,4.882-6.137,7.937-8.075
				c3.052-1.938,6.774-2.907,11.162-2.907c4.3,0,8.085,0.819,11.355,2.455c3.269,1.637,5.849,4.351,7.742,8.141
				c2.064-3.444,4.73-6.073,8.001-7.883c3.268-1.809,7.14-2.713,11.613-2.713c4.214,0,7.937,0.862,11.162,2.584
				c3.226,1.725,5.742,4.18,7.549,7.365c1.807,3.188,2.71,7.064,2.71,11.629V2252h-17.421v-41.735c0-4.307-0.903-7.45-2.71-9.433
				c-1.807-1.98-4.303-2.972-7.484-2.972c-2.064,0-3.936,0.539-5.613,1.615c-1.677,1.078-2.99,2.584-3.936,4.522
				c-0.947,1.938-1.419,4.156-1.419,6.654V2252h-17.421v-41.735c0-4.307-0.903-7.45-2.71-9.433c-1.807-1.98-4.345-2.972-7.613-2.972
				c-2.064,0-3.916,0.539-5.549,1.615c-1.636,1.078-2.926,2.584-3.871,4.522c-0.948,1.938-1.42,4.156-1.42,6.654V2252H1833.411z"/>
			<path style="fill:#0033AD;" d="M1945.675,2275.388v-89.415h13.808l1.936,8.528c1.979-2.843,4.623-5.189,7.937-7.042
				c3.311-1.852,7.204-2.778,11.678-2.778c5.075,0,9.656,1.099,13.743,3.295c4.085,2.196,7.311,5.707,9.678,10.53
				c2.365,4.825,3.549,11.157,3.549,18.994v2.714c0,7.236-1.161,13.331-3.484,18.283c-2.322,4.955-5.464,8.657-9.42,11.112
				c-3.958,2.455-8.303,3.683-13.033,3.683c-4.561,0-8.388-0.862-11.484-2.584c-3.097-1.723-5.464-3.919-7.098-6.59v31.27H1945.675z
				 M1976.516,2241.534c2.494,0,4.71-0.646,6.646-1.938c1.937-1.292,3.463-3.144,4.581-5.557c1.117-2.41,1.678-5.382,1.678-8.915
				v-11.5c0-3.961-0.561-7.214-1.678-9.756c-1.118-2.539-2.645-4.436-4.581-5.685c-1.936-1.248-4.151-1.874-6.646-1.874
				c-2.322,0-4.496,0.604-6.517,1.809c-2.021,1.208-3.635,3.06-4.839,5.557c-1.205,2.499-1.807,5.772-1.807,9.82v11.629
				c0,3.533,0.581,6.525,1.742,8.98s2.752,4.308,4.774,5.556C1971.891,2240.91,1974.106,2241.534,1976.516,2241.534z"/>
			<path style="fill:#0033AD;" d="M2040.004,2253.292c-3.528,0-6.903-0.581-10.13-1.744c-3.226-1.163-5.871-3.102-7.936-5.814
				c-2.065-2.714-3.098-6.396-3.098-11.048c0-4.736,1.053-8.57,3.162-11.5c2.106-2.928,5.074-5.188,8.903-6.783
				c3.827-1.593,8.431-2.691,13.808-3.295c5.375-0.602,11.42-0.904,18.13-0.904v-5.815c0-3.789-1.032-6.48-3.097-8.075
				c-2.064-1.593-5.077-2.391-9.033-2.391c-3.354,0-6.303,0.755-8.839,2.262c-2.538,1.508-3.807,3.812-3.807,6.912v1.034h-16.904
				c-0.087-0.259-0.129-0.624-0.129-1.099c0-0.473,0-0.882,0-1.228c0-3.789,1.203-7.127,3.612-10.014
				c2.408-2.885,5.763-5.124,10.065-6.719c4.301-1.593,9.291-2.391,14.969-2.391h2.71c9.291,0,16.215,1.831,20.776,5.491
				c4.559,3.662,6.839,8.593,6.839,14.795v32.174c0,1.638,0.407,2.8,1.226,3.488c0.816,0.69,1.698,1.034,2.646,1.034
				c0.774,0,1.633-0.149,2.581-0.452c0.945-0.301,1.849-0.666,2.71-1.099v10.337c-1.119,0.862-2.604,1.551-4.452,2.067
				c-1.851,0.518-4.064,0.775-6.646,0.775c-3.098,0-5.678-0.496-7.743-1.485c-2.064-0.989-3.635-2.347-4.71-4.07
				c-1.076-1.723-1.741-3.703-2-5.944c-2.409,3.446-5.593,6.225-9.549,8.334C2050.111,2252.236,2045.424,2253.292,2040.004,2253.292
				z M2048.263,2241.663c2.407,0,4.71-0.56,6.903-1.68c2.194-1.118,4.021-2.778,5.484-4.975c1.462-2.196,2.193-4.931,2.193-8.205
				v-5.298c-5.506,0-10.174,0.346-14.001,1.034c-3.828,0.69-6.731,1.831-8.71,3.424c-1.979,1.595-2.968,3.898-2.968,6.913
				c0,3.188,0.968,5.449,2.903,6.783C2042.004,2240.997,2044.734,2241.663,2048.263,2241.663z"/>
			<path style="fill:#0033AD;" d="M2101.167,2252v-66.027h13.033l2.065,9.69c2.58-3.702,5.697-6.46,9.355-8.27
				c3.655-1.809,7.807-2.713,12.452-2.713c4.472,0,8.408,0.862,11.808,2.584c3.397,1.725,6.021,4.18,7.871,7.365
				c1.849,3.188,2.774,7.064,2.774,11.629V2252h-17.55v-41.994c0-4.22-1.032-7.32-3.097-9.303c-2.064-1.98-4.861-2.972-8.388-2.972
				c-2.238,0-4.345,0.581-6.323,1.744c-1.979,1.163-3.528,2.735-4.646,4.716c-1.119,1.982-1.678,4.222-1.678,6.719V2252H2101.167z"
				/>
			<path style="fill:#0033AD;" d="M2178.591,2172.664v-13.696h18.194v13.696H2178.591z M2178.849,2252v-66.027h17.679V2252H2178.849
				z"/>
			<path style="fill:#0033AD;" d="M2243.368,2253.292c-6.193,0-11.678-1.271-16.453-3.812c-4.774-2.54-8.496-6.245-11.161-11.112
				c-2.668-4.865-4.001-10.789-4.001-17.767v-3.23c0-6.978,1.397-12.898,4.194-17.767c2.794-4.865,6.623-8.57,11.484-11.112
				c4.859-2.54,10.388-3.812,16.582-3.812h2.064c5.85,0,10.946,1.185,15.291,3.553c4.344,2.371,7.698,5.686,10.065,9.95
				c2.365,4.264,3.549,9.238,3.549,14.924v8.14h-44.648c0,4.136,0.517,7.753,1.549,10.854c1.032,3.101,2.581,5.471,4.646,7.106
				c2.064,1.638,4.774,2.455,8.13,2.455c2.752,0,5.161-0.537,7.226-1.615c2.064-1.076,3.698-2.691,4.904-4.846
				c1.203-2.152,1.806-4.78,1.806-7.882h16.389c0,5.084-1.29,9.584-3.871,13.503c-2.581,3.921-6.13,6.978-10.646,9.174
				c-4.516,2.196-9.742,3.295-15.678,3.295H2243.368z M2230.464,2212.203h27.229c0-5.428-1.184-9.453-3.549-12.082
				c-2.367-2.626-5.613-3.94-9.743-3.94c-3.871,0-7.119,1.356-9.742,4.07C2232.033,2202.964,2230.636,2206.949,2230.464,2212.203z"
				/>
			<path style="fill:#0033AD;" d="M2313.436,2253.292c-4.13,0-7.872-0.517-11.227-1.551c-3.355-1.033-6.259-2.433-8.711-4.199
				c-2.451-1.765-4.322-3.832-5.613-6.202c-1.29-2.368-1.936-4.93-1.936-7.688c0-0.518,0-0.947,0-1.293
				c0-0.343,0.043-0.817,0.129-1.421h14.969c-0.086,0.259-0.129,0.497-0.129,0.711c0,0.216,0,0.409,0,0.581
				c0,2.154,0.73,3.941,2.194,5.362c1.462,1.422,3.354,2.455,5.678,3.102c2.322,0.646,4.816,0.969,7.484,0.969
				c2.149,0,4.322-0.259,6.517-0.775c2.193-0.517,4.021-1.356,5.484-2.52c1.462-1.163,2.193-2.648,2.193-4.458
				c0-1.98-0.754-3.509-2.258-4.587c-1.507-1.076-3.529-1.938-6.065-2.584c-2.538-0.646-5.312-1.205-8.323-1.68
				c-3.012-0.473-6.045-1.076-9.098-1.81c-3.055-0.73-5.851-1.786-8.388-3.165c-2.538-1.377-4.561-3.251-6.064-5.621
				c-1.506-2.368-2.259-5.491-2.259-9.368c0-3.272,0.753-6.202,2.259-8.786c1.504-2.584,3.568-4.736,6.194-6.461
				c2.623-1.722,5.633-3.014,9.032-3.876c3.397-0.86,6.946-1.292,10.646-1.292h2.58c3.44,0,6.73,0.432,9.872,1.292
				c3.14,0.862,5.956,2.09,8.452,3.683c2.494,1.595,4.452,3.488,5.871,5.686c1.42,2.196,2.13,4.587,2.13,7.171
				c0,0.433-0.022,0.927-0.064,1.486c-0.045,0.561-0.109,0.927-0.194,1.098h-14.969v-1.033c0-0.947-0.237-1.874-0.709-2.778
				c-0.475-0.904-1.248-1.744-2.323-2.52c-1.076-0.775-2.452-1.399-4.129-1.874c-1.678-0.472-3.678-0.71-6.001-0.71
				c-2.064,0-3.915,0.193-5.549,0.581c-1.635,0.388-3.012,0.904-4.129,1.551c-1.119,0.646-1.936,1.401-2.452,2.261
				c-0.516,0.862-0.774,1.725-0.774,2.585c0,1.809,0.774,3.21,2.323,4.199c1.549,0.991,3.591,1.767,6.129,2.325
				c2.537,0.562,5.333,1.078,8.388,1.551c3.053,0.475,6.086,1.056,9.098,1.744c3.011,0.69,5.807,1.745,8.388,3.166
				c2.581,1.422,4.623,3.34,6.13,5.75c1.504,2.413,2.258,5.557,2.258,9.433c0,4.05-0.774,7.494-2.322,10.337
				c-1.549,2.843-3.7,5.104-6.452,6.783c-2.755,1.68-5.852,2.907-9.291,3.683c-3.442,0.775-7.055,1.163-10.84,1.163H2313.436z"/>
		</g>
	</g>
	<g>
		<path style="fill:#FFFFFF;stroke:#0033AD;stroke-width:12.1136;stroke-miterlimit:10;" d="M3887.374,870.536h-852.462
			c-36.492,0-66.074-29.583-66.074-66.074V438.938c0-36.492,29.583-66.074,66.074-66.074h852.462
			c36.492,0,66.074,29.582,66.074,66.074v365.523C3953.448,840.953,3923.866,870.536,3887.374,870.536z"/>
		<g>
			<path style="fill:#0033AD;" d="M3214.214,666.593c-5.248,0-10.13-0.775-14.646-2.326c-4.517-1.551-8.497-3.961-11.937-7.236
				c-3.442-3.273-6.13-7.494-8.065-12.663s-2.903-11.413-2.903-18.736V616.2c0-7.062,0.988-13.18,2.968-18.348
				c1.979-5.168,4.688-9.41,8.13-12.728c3.439-3.315,7.397-5.77,11.872-7.365c4.472-1.593,9.246-2.391,14.323-2.391h2.323
				c4.816,0,9.355,0.668,13.613,2.003c4.259,1.336,8.001,3.446,11.227,6.332c3.227,2.887,5.763,6.612,7.613,11.177
				c1.85,4.567,2.774,10.079,2.774,16.539h-17.679c0-5.686-0.796-10.099-2.387-13.244c-1.593-3.144-3.787-5.34-6.581-6.59
				c-2.797-1.248-6.087-1.874-9.872-1.874c-2.667,0-5.142,0.41-7.42,1.228c-2.28,0.819-4.238,2.112-5.871,3.876
				c-1.636,1.767-2.903,4.093-3.807,6.978c-0.903,2.887-1.355,6.396-1.355,10.531v17.314c0,5.514,0.774,9.929,2.323,13.244
				c1.549,3.317,3.697,5.708,6.452,7.171c2.752,1.466,5.979,2.197,9.678,2.197c4.043,0,7.527-0.624,10.452-1.874
				c2.924-1.248,5.162-3.444,6.711-6.59c1.548-3.144,2.322-7.515,2.322-13.115h17.033c0,6.118-0.925,11.436-2.774,15.958
				c-1.851,4.522-4.367,8.249-7.549,11.177c-3.184,2.929-6.883,5.126-11.098,6.59c-4.216,1.463-8.732,2.196-13.549,2.196H3214.214z"
				/>
			<path style="fill:#0033AD;" d="M3265.958,665.301v-93.033h17.679v35.404c2.408-3.186,5.269-5.599,8.582-7.236
				c3.311-1.636,6.988-2.455,11.032-2.455c4.388,0,8.237,0.862,11.55,2.584c3.311,1.724,5.913,4.2,7.807,7.43
				c1.892,3.23,2.839,7.086,2.839,11.564v45.741h-17.679v-41.994c0-4.219-1.032-7.32-3.097-9.303
				c-2.064-1.98-4.861-2.972-8.388-2.972c-2.238,0-4.345,0.582-6.323,1.744c-1.979,1.163-3.528,2.736-4.646,4.716
				c-1.119,1.983-1.678,4.222-1.678,6.719v41.089H3265.958z"/>
			<path style="fill:#0033AD;" d="M3360.285,666.593c-3.528,0-6.903-0.582-10.13-1.744c-3.226-1.163-5.871-3.101-7.936-5.814
				c-2.065-2.714-3.098-6.396-3.098-11.048c0-4.736,1.053-8.57,3.162-11.5c2.106-2.927,5.074-5.188,8.903-6.784
				c3.827-1.593,8.431-2.691,13.808-3.294c5.375-0.602,11.42-0.905,18.13-0.905v-5.814c0-3.79-1.032-6.481-3.097-8.076
				c-2.064-1.593-5.077-2.391-9.033-2.391c-3.354,0-6.303,0.755-8.839,2.261c-2.538,1.508-3.807,3.812-3.807,6.913v1.034h-16.904
				c-0.087-0.259-0.129-0.624-0.129-1.099c0-0.472,0-0.882,0-1.228c0-3.79,1.203-7.126,3.612-10.014
				c2.408-2.885,5.763-5.124,10.065-6.719c4.301-1.593,9.291-2.39,14.969-2.39h2.71c9.291,0,16.215,1.831,20.776,5.491
				c4.559,3.663,6.839,8.593,6.839,14.795v32.174c0,1.637,0.407,2.8,1.226,3.489c0.816,0.69,1.698,1.034,2.646,1.034
				c0.774,0,1.633-0.149,2.581-0.452c0.945-0.301,1.849-0.667,2.71-1.099v10.337c-1.119,0.862-2.604,1.551-4.452,2.068
				c-1.851,0.517-4.064,0.775-6.646,0.775c-3.098,0-5.678-0.497-7.743-1.486c-2.064-0.989-3.635-2.346-4.71-4.07
				c-1.076-1.722-1.741-3.703-2-5.943c-2.409,3.446-5.593,6.224-9.549,8.334C3370.393,665.537,3365.705,666.593,3360.285,666.593z
				 M3368.544,654.964c2.407,0,4.71-0.559,6.903-1.68c2.194-1.119,4.021-2.778,5.484-4.975c1.462-2.197,2.193-4.93,2.193-8.205
				v-5.298c-5.506,0-10.174,0.345-14.001,1.034c-3.828,0.69-6.731,1.831-8.71,3.424c-1.979,1.595-2.968,3.898-2.968,6.913
				c0,3.188,0.968,5.449,2.903,6.784C3362.285,654.297,3365.016,654.964,3368.544,654.964z"/>
			<path style="fill:#0033AD;" d="M3421.449,665.301v-66.027h13.163l2.193,9.691c0.171-0.343,0.623-1.076,1.354-2.197
				c0.73-1.118,1.827-2.368,3.291-3.747c1.462-1.377,3.29-2.562,5.484-3.553c2.193-0.989,4.839-1.486,7.936-1.486
				c4.473,0,8.107,0.862,10.904,2.584c2.795,1.724,4.882,4.135,6.259,7.236c1.375,3.101,2.064,6.719,2.064,10.854
				c0,0.949-0.045,1.982-0.129,3.101c-0.087,1.121-0.174,2.112-0.259,2.972h-14.71v-2.713c0-1.635-0.323-3.295-0.968-4.975
				c-0.646-1.68-1.678-3.079-3.098-4.199c-1.419-1.119-3.377-1.68-5.871-1.68c-1.807,0-3.355,0.388-4.646,1.163
				c-1.29,0.775-2.345,1.745-3.161,2.907c-0.819,1.163-1.42,2.455-1.807,3.876c-0.388,1.421-0.581,2.736-0.581,3.941v42.252
				H3421.449z"/>
			<path style="fill:#0033AD;" d="M3485.97,585.965v-13.697h18.194v13.697H3485.97z M3486.228,665.301v-66.027h17.679v66.027
				H3486.228z"/>
			<path style="fill:#0033AD;" d="M3544.424,666.593c-3.699,0-7.013-0.517-9.936-1.55c-2.926-1.034-5.206-2.778-6.84-5.233
				c-1.635-2.455-2.451-5.706-2.451-9.755v-37.601h-7.227v-13.18h7.742l6.194-21.062h10.84v21.062h15.484v13.18h-15.484v33.724
				c0,3.792,0.773,6.202,2.322,7.236s3.227,1.551,5.032,1.551c0.946,0,2.259-0.194,3.937-0.582c1.677-0.388,3.032-0.795,4.064-1.228
				v10.854c-1.119,0.604-2.496,1.098-4.129,1.486c-1.636,0.388-3.291,0.666-4.969,0.84
				C3547.327,666.506,3545.799,666.593,3544.424,666.593z"/>
			<path style="fill:#0033AD;" d="M3572.553,585.965v-13.697h18.194v13.697H3572.553z M3572.811,665.301v-66.027h17.679v66.027
				H3572.811z"/>
			<path style="fill:#0033AD;" d="M3637.33,666.593c-6.193,0-11.678-1.272-16.453-3.812c-4.774-2.54-8.496-6.245-11.161-11.112
				c-2.668-4.866-4.001-10.789-4.001-17.767v-3.23c0-6.978,1.397-12.899,4.194-17.767c2.794-4.866,6.623-8.57,11.484-11.112
				c4.859-2.54,10.388-3.812,16.582-3.812h2.064c5.85,0,10.946,1.185,15.291,3.553c4.344,2.37,7.698,5.686,10.065,9.949
				c2.365,4.264,3.549,9.239,3.549,14.924v8.14h-44.648c0,4.135,0.517,7.753,1.549,10.854s2.581,5.471,4.646,7.106
				c2.064,1.637,4.774,2.455,8.13,2.455c2.752,0,5.161-0.537,7.226-1.615c2.064-1.076,3.698-2.691,4.904-4.845
				c1.203-2.152,1.806-4.781,1.806-7.882h16.389c0,5.084-1.29,9.584-3.871,13.503c-2.581,3.921-6.13,6.978-10.646,9.174
				c-4.516,2.197-9.742,3.295-15.678,3.295H3637.33z M3624.426,625.503h27.229c0-5.427-1.184-9.453-3.549-12.081
				c-2.367-2.627-5.613-3.941-9.743-3.941c-3.871,0-7.119,1.356-9.742,4.07C3625.995,616.265,3624.598,620.25,3624.426,625.503z"/>
			<path style="fill:#0033AD;" d="M3707.398,666.593c-4.13,0-7.872-0.517-11.227-1.55c-3.355-1.034-6.259-2.433-8.711-4.2
				c-2.451-1.764-4.322-3.832-5.613-6.202c-1.29-2.368-1.936-4.93-1.936-7.688c0-0.517,0-0.947,0-1.292
				c0-0.343,0.043-0.818,0.129-1.421h14.969c-0.086,0.258-0.129,0.497-0.129,0.71c0,0.216,0,0.41,0,0.582
				c0,2.154,0.73,3.941,2.194,5.362c1.462,1.421,3.354,2.455,5.678,3.101c2.322,0.646,4.816,0.969,7.484,0.969
				c2.149,0,4.322-0.258,6.517-0.775c2.193-0.517,4.021-1.356,5.484-2.52c1.462-1.163,2.193-2.649,2.193-4.458
				c0-1.98-0.754-3.509-2.258-4.587c-1.507-1.076-3.529-1.938-6.065-2.584c-2.538-0.646-5.312-1.206-8.323-1.68
				c-3.012-0.472-6.045-1.076-9.098-1.809c-3.055-0.731-5.851-1.787-8.388-3.166c-2.538-1.377-4.561-3.25-6.064-5.621
				c-1.506-2.368-2.259-5.492-2.259-9.368c0-3.273,0.753-6.202,2.259-8.787c1.504-2.584,3.568-4.736,6.194-6.46
				c2.623-1.722,5.633-3.014,9.032-3.876c3.397-0.86,6.946-1.292,10.646-1.292h2.58c3.44,0,6.73,0.432,9.872,1.292
				c3.14,0.862,5.956,2.09,8.452,3.683c2.494,1.595,4.452,3.489,5.871,5.685c1.42,2.197,2.13,4.587,2.13,7.171
				c0,0.432-0.022,0.927-0.064,1.486c-0.045,0.562-0.109,0.927-0.194,1.099h-14.969v-1.034c0-0.947-0.237-1.874-0.709-2.778
				c-0.475-0.904-1.248-1.744-2.323-2.52c-1.076-0.775-2.452-1.399-4.129-1.874c-1.678-0.473-3.678-0.71-6.001-0.71
				c-2.064,0-3.915,0.193-5.549,0.581c-1.635,0.388-3.012,0.905-4.129,1.551c-1.119,0.646-1.936,1.401-2.452,2.261
				c-0.516,0.862-0.774,1.724-0.774,2.584c0,1.809,0.774,3.21,2.323,4.2c1.549,0.991,3.591,1.767,6.129,2.326
				c2.537,0.561,5.333,1.078,8.388,1.55c3.053,0.475,6.086,1.056,9.098,1.745c3.011,0.69,5.807,1.744,8.388,3.166
				s4.623,3.339,6.13,5.75c1.504,2.413,2.258,5.556,2.258,9.433c0,4.05-0.774,7.494-2.322,10.337
				c-1.549,2.843-3.7,5.104-6.452,6.784c-2.755,1.68-5.852,2.907-9.291,3.683c-3.442,0.775-7.055,1.163-10.84,1.163H3707.398z"/>
		</g>
	</g>
	<g>
		<path style="fill:#FFFFFF;stroke:#0033AD;stroke-width:12.1136;stroke-miterlimit:10;" d="M2427.099,870.536h-852.462
			c-36.492,0-66.074-29.583-66.074-66.074V438.938c0-36.492,29.583-66.074,66.074-66.074h852.462
			c36.492,0,66.074,29.582,66.074,66.074v365.523C2493.173,840.953,2463.59,870.536,2427.099,870.536z"/>
		<g>
			<path style="fill:#0033AD;" d="M1729.501,597.104v-88.64h59.229l-2.064,14.472h-38.583v23.129h34.454v14.213h-34.454v36.825
				H1729.501z"/>
			<path style="fill:#0033AD;" d="M1799.571,517.768v-13.697h18.194v13.697H1799.571z M1799.829,597.104v-66.027h17.679v66.027
				H1799.829z"/>
			<path style="fill:#0033AD;" d="M1835.7,597.104v-66.027h13.033l2.065,9.691c2.58-3.703,5.697-6.46,9.355-8.27
				c3.655-1.809,7.807-2.713,12.452-2.713c4.472,0,8.408,0.862,11.808,2.584c3.397,1.724,6.021,4.179,7.871,7.365
				c1.849,3.188,2.774,7.064,2.774,11.629v45.741h-17.55v-41.994c0-4.219-1.032-7.32-3.097-9.303
				c-2.064-1.98-4.861-2.972-8.388-2.972c-2.238,0-4.345,0.582-6.323,1.744c-1.979,1.163-3.528,2.736-4.646,4.716
				c-1.119,1.983-1.678,4.222-1.678,6.719v41.089H1835.7z"/>
			<path style="fill:#0033AD;" d="M1930.028,598.396c-3.528,0-6.903-0.582-10.13-1.744c-3.226-1.163-5.871-3.101-7.936-5.814
				c-2.065-2.714-3.098-6.396-3.098-11.048c0-4.736,1.053-8.57,3.162-11.5c2.106-2.927,5.074-5.188,8.903-6.784
				c3.827-1.593,8.431-2.691,13.808-3.294c5.375-0.602,11.42-0.905,18.13-0.905v-5.814c0-3.79-1.032-6.481-3.097-8.076
				c-2.064-1.593-5.077-2.391-9.033-2.391c-3.354,0-6.303,0.755-8.839,2.261c-2.538,1.508-3.807,3.812-3.807,6.913v1.034h-16.904
				c-0.087-0.259-0.129-0.624-0.129-1.099c0-0.472,0-0.882,0-1.228c0-3.79,1.203-7.126,3.612-10.014
				c2.408-2.885,5.763-5.124,10.065-6.719c4.301-1.593,9.291-2.39,14.969-2.39h2.71c9.291,0,16.215,1.831,20.776,5.491
				c4.559,3.663,6.839,8.593,6.839,14.795v32.174c0,1.637,0.407,2.8,1.226,3.489c0.816,0.69,1.698,1.034,2.646,1.034
				c0.774,0,1.633-0.149,2.581-0.452c0.945-0.301,1.849-0.667,2.71-1.099v10.337c-1.119,0.862-2.604,1.551-4.452,2.068
				c-1.851,0.517-4.064,0.775-6.646,0.775c-3.098,0-5.678-0.497-7.743-1.486c-2.064-0.989-3.635-2.346-4.71-4.07
				c-1.076-1.722-1.741-3.703-2-5.943c-2.409,3.446-5.593,6.224-9.549,8.334C1940.136,597.34,1935.448,598.396,1930.028,598.396z
				 M1938.287,586.767c2.407,0,4.71-0.559,6.903-1.68c2.194-1.119,4.021-2.778,5.484-4.975c1.462-2.197,2.193-4.93,2.193-8.205
				v-5.298c-5.506,0-10.174,0.345-14.001,1.034c-3.828,0.69-6.731,1.831-8.71,3.424c-1.979,1.595-2.968,3.898-2.968,6.913
				c0,3.188,0.968,5.449,2.903,6.784C1932.028,586.1,1934.759,586.767,1938.287,586.767z"/>
			<path style="fill:#0033AD;" d="M1991.191,597.104v-66.027h13.033l2.065,9.691c2.58-3.703,5.697-6.46,9.355-8.27
				c3.655-1.809,7.807-2.713,12.452-2.713c4.472,0,8.408,0.862,11.808,2.584c3.397,1.724,6.021,4.179,7.871,7.365
				c1.849,3.188,2.774,7.064,2.774,11.629v45.741h-17.55v-41.994c0-4.219-1.032-7.32-3.097-9.303
				c-2.064-1.98-4.861-2.972-8.388-2.972c-2.238,0-4.345,0.582-6.323,1.744c-1.979,1.163-3.528,2.736-4.646,4.716
				c-1.119,1.983-1.678,4.222-1.678,6.719v41.089H1991.191z"/>
			<path style="fill:#0033AD;" d="M2095.068,598.396c-5.593,0-10.646-1.377-15.162-4.135c-4.517-2.756-8.065-6.567-10.646-11.435
				c-2.581-4.866-3.872-10.444-3.872-16.733v-4.006c0-4.736,0.795-9.065,2.388-12.986c1.591-3.918,3.763-7.343,6.517-10.272
				c2.752-2.928,5.979-5.168,9.678-6.719c3.698-1.55,7.656-2.326,11.872-2.326h2.452c5.762,0,10.774,1.143,15.033,3.424
				c4.258,2.284,7.526,5.472,9.807,9.562c2.278,4.092,3.42,8.896,3.42,14.407h-15.355c0-3.531-0.539-6.461-1.613-8.787
				c-1.077-2.326-2.604-4.09-4.581-5.298c-1.98-1.205-4.345-1.809-7.098-1.809c-3.958,0-7.271,1.356-9.936,4.07
				c-2.668,2.713-4.001,6.699-4.001,11.952v13.309c0,5.168,1.269,9.154,3.807,11.952c2.537,2.8,5.956,4.199,10.259,4.199
				c3.011,0,5.549-0.517,7.614-1.551c2.064-1.034,3.633-2.713,4.71-5.039c1.074-2.326,1.612-5.427,1.612-9.303h14.582
				c0,5.859-1.248,10.833-3.742,14.924c-2.496,4.092-5.936,7.216-10.323,9.368c-4.388,2.152-9.378,3.23-14.969,3.23H2095.068z"/>
			<path style="fill:#0033AD;" d="M2140.878,517.768v-13.697h18.194v13.697H2140.878z M2141.136,597.104v-66.027h17.679v66.027
				H2141.136z"/>
			<path style="fill:#0033AD;" d="M2194.3,598.396c-3.528,0-6.903-0.582-10.13-1.744c-3.226-1.163-5.871-3.101-7.936-5.814
				c-2.065-2.714-3.098-6.396-3.098-11.048c0-4.736,1.053-8.57,3.162-11.5c2.106-2.927,5.074-5.188,8.903-6.784
				c3.827-1.593,8.431-2.691,13.808-3.294c5.375-0.602,11.42-0.905,18.13-0.905v-5.814c0-3.79-1.032-6.481-3.097-8.076
				c-2.064-1.593-5.077-2.391-9.033-2.391c-3.354,0-6.303,0.755-8.839,2.261c-2.538,1.508-3.807,3.812-3.807,6.913v1.034h-16.904
				c-0.087-0.259-0.129-0.624-0.129-1.099c0-0.472,0-0.882,0-1.228c0-3.79,1.203-7.126,3.612-10.014
				c2.408-2.885,5.763-5.124,10.065-6.719c4.301-1.593,9.291-2.39,14.969-2.39h2.71c9.291,0,16.215,1.831,20.776,5.491
				c4.559,3.663,6.839,8.593,6.839,14.795v32.174c0,1.637,0.407,2.8,1.226,3.489c0.816,0.69,1.698,1.034,2.646,1.034
				c0.774,0,1.633-0.149,2.581-0.452c0.945-0.301,1.849-0.667,2.71-1.099v10.337c-1.119,0.862-2.604,1.551-4.452,2.068
				c-1.851,0.517-4.064,0.775-6.646,0.775c-3.098,0-5.678-0.497-7.743-1.486c-2.064-0.989-3.635-2.346-4.71-4.07
				c-1.076-1.722-1.741-3.703-2-5.943c-2.409,3.446-5.593,6.224-9.549,8.334C2204.407,597.34,2199.72,598.396,2194.3,598.396z
				 M2202.559,586.767c2.407,0,4.71-0.559,6.903-1.68c2.194-1.119,4.021-2.778,5.484-4.975c1.462-2.197,2.193-4.93,2.193-8.205
				v-5.298c-5.506,0-10.174,0.345-14.001,1.034c-3.828,0.69-6.731,1.831-8.71,3.424c-1.979,1.595-2.968,3.898-2.968,6.913
				c0,3.188,0.968,5.449,2.903,6.784C2196.3,586.1,2199.03,586.767,2202.559,586.767z"/>
			<path style="fill:#0033AD;" d="M2255.463,597.104v-93.033h17.679v93.033H2255.463z"/>
			<path style="fill:#0033AD;" d="M1643.109,726.315v-14.084h10.323V651.76h-10.323v-14.084h39.487v14.084h-10.323v60.471h10.323
				v14.084H1643.109z"/>
			<path style="fill:#0033AD;" d="M1697.822,726.315v-66.027h13.033l2.065,9.691c2.58-3.703,5.697-6.46,9.355-8.27
				c3.655-1.809,7.807-2.713,12.452-2.713c4.472,0,8.408,0.862,11.808,2.584c3.397,1.724,6.021,4.179,7.871,7.365
				c1.849,3.188,2.774,7.064,2.774,11.629v45.741h-17.55v-41.994c0-4.219-1.032-7.32-3.097-9.303
				c-2.064-1.98-4.861-2.972-8.388-2.972c-2.238,0-4.345,0.582-6.323,1.744c-1.979,1.163-3.528,2.736-4.646,4.716
				c-1.119,1.983-1.678,4.222-1.678,6.719v41.089H1697.822z"/>
			<path style="fill:#0033AD;" d="M1798.474,727.607c-4.13,0-7.872-0.517-11.227-1.55c-3.355-1.034-6.259-2.433-8.711-4.2
				c-2.451-1.764-4.322-3.832-5.613-6.202c-1.29-2.368-1.936-4.93-1.936-7.688c0-0.517,0-0.947,0-1.292
				c0-0.343,0.043-0.818,0.129-1.421h14.969c-0.086,0.258-0.129,0.497-0.129,0.71c0,0.216,0,0.41,0,0.582
				c0,2.154,0.73,3.941,2.194,5.362c1.462,1.421,3.354,2.455,5.678,3.101c2.322,0.646,4.816,0.969,7.484,0.969
				c2.149,0,4.322-0.258,6.517-0.775c2.193-0.517,4.021-1.356,5.484-2.52c1.462-1.163,2.193-2.649,2.193-4.458
				c0-1.98-0.754-3.509-2.258-4.587c-1.507-1.076-3.529-1.938-6.065-2.584c-2.538-0.646-5.312-1.206-8.323-1.68
				c-3.012-0.472-6.045-1.076-9.098-1.809c-3.055-0.731-5.851-1.787-8.388-3.166c-2.538-1.377-4.561-3.25-6.064-5.621
				c-1.506-2.368-2.259-5.492-2.259-9.368c0-3.273,0.753-6.202,2.259-8.787c1.504-2.584,3.568-4.736,6.194-6.46
				c2.623-1.722,5.633-3.014,9.032-3.876c3.397-0.86,6.946-1.292,10.646-1.292h2.58c3.44,0,6.73,0.432,9.872,1.292
				c3.14,0.862,5.956,2.09,8.452,3.683c2.494,1.595,4.452,3.489,5.871,5.685c1.42,2.197,2.13,4.587,2.13,7.171
				c0,0.432-0.022,0.927-0.064,1.486c-0.045,0.562-0.109,0.927-0.194,1.099h-14.969v-1.034c0-0.947-0.237-1.874-0.709-2.778
				c-0.475-0.904-1.248-1.744-2.323-2.52c-1.076-0.775-2.452-1.399-4.129-1.874c-1.678-0.473-3.678-0.71-6.001-0.71
				c-2.064,0-3.915,0.193-5.549,0.581c-1.635,0.388-3.012,0.905-4.129,1.551c-1.119,0.646-1.936,1.401-2.452,2.261
				c-0.516,0.862-0.774,1.724-0.774,2.584c0,1.809,0.774,3.21,2.323,4.2c1.549,0.991,3.591,1.767,6.129,2.326
				c2.537,0.561,5.333,1.078,8.388,1.55c3.053,0.475,6.086,1.056,9.098,1.745c3.011,0.69,5.807,1.744,8.388,3.166
				s4.623,3.339,6.13,5.75c1.504,2.413,2.258,5.556,2.258,9.433c0,4.05-0.774,7.494-2.322,10.337
				c-1.549,2.843-3.7,5.104-6.452,6.784c-2.755,1.68-5.852,2.907-9.291,3.683c-3.442,0.775-7.055,1.163-10.84,1.163H1798.474z"/>
			<path style="fill:#0033AD;" d="M1868.025,727.607c-3.699,0-7.013-0.517-9.936-1.55c-2.926-1.034-5.206-2.778-6.84-5.233
				c-1.635-2.455-2.451-5.706-2.451-9.755v-37.601h-7.227v-13.18h7.742l6.194-21.062h10.84v21.062h15.484v13.18h-15.484v33.724
				c0,3.792,0.773,6.202,2.322,7.236s3.227,1.551,5.032,1.551c0.946,0,2.259-0.194,3.937-0.582c1.677-0.388,3.032-0.795,4.064-1.228
				v10.854c-1.119,0.604-2.496,1.098-4.129,1.486c-1.636,0.388-3.291,0.666-4.969,0.84
				C1870.929,727.521,1869.4,727.607,1868.025,727.607z"/>
			<path style="fill:#0033AD;" d="M1896.155,646.98v-13.697h18.194v13.697H1896.155z M1896.413,726.315v-66.027h17.679v66.027
				H1896.413z"/>
			<path style="fill:#0033AD;" d="M1954.609,727.607c-3.699,0-7.013-0.517-9.936-1.55c-2.926-1.034-5.206-2.778-6.84-5.233
				c-1.635-2.455-2.451-5.706-2.451-9.755v-37.601h-7.227v-13.18h7.742l6.194-21.062h10.84v21.062h15.484v13.18h-15.484v33.724
				c0,3.792,0.773,6.202,2.322,7.236s3.227,1.551,5.032,1.551c0.946,0,2.259-0.194,3.937-0.582c1.677-0.388,3.032-0.795,4.064-1.228
				v10.854c-1.119,0.604-2.496,1.098-4.129,1.486c-1.636,0.388-3.291,0.666-4.969,0.84
				C1957.513,727.521,1955.984,727.607,1954.609,727.607z"/>
			<path style="fill:#0033AD;" d="M2003.644,727.607c-6.797,0-12.151-1.874-16.065-5.621c-3.916-3.747-5.871-9.239-5.871-16.475
				v-45.224h17.679v41.348c0,4.48,0.923,7.753,2.774,9.82c1.849,2.067,4.581,3.101,8.193,3.101c2.408,0,4.602-0.602,6.582-1.809
				c1.978-1.205,3.591-2.798,4.839-4.781c1.246-1.98,1.871-4.177,1.871-6.59v-41.089h17.55v51.168c0,1.637,0.407,2.8,1.226,3.489
				c0.816,0.69,1.697,1.034,2.646,1.034c0.858,0,1.742-0.149,2.646-0.452c0.902-0.301,1.784-0.667,2.645-1.099v10.337
				c-1.119,0.862-2.603,1.551-4.451,2.068c-1.852,0.517-4.065,0.775-6.646,0.775c-3.012,0-5.528-0.474-7.549-1.421
				c-2.021-0.947-3.548-2.261-4.581-3.941c-1.032-1.68-1.806-3.466-2.322-5.362c-2.151,3.36-5.119,5.988-8.904,7.882
				C2012.116,726.659,2008.031,727.607,2003.644,727.607z"/>
			<path style="fill:#0033AD;" d="M2084.938,727.607c-3.699,0-7.013-0.517-9.936-1.55c-2.926-1.034-5.206-2.778-6.84-5.233
				c-1.635-2.455-2.451-5.706-2.451-9.755v-37.601h-7.227v-13.18h7.742l6.194-21.062h10.84v21.062h15.484v13.18h-15.484v33.724
				c0,3.792,0.773,6.202,2.322,7.236s3.227,1.551,5.032,1.551c0.946,0,2.259-0.194,3.937-0.582c1.677-0.388,3.032-0.795,4.064-1.228
				v10.854c-1.119,0.604-2.496,1.098-4.129,1.486c-1.636,0.388-3.291,0.666-4.969,0.84
				C2087.842,727.521,2086.313,727.607,2084.938,727.607z"/>
			<path style="fill:#0033AD;" d="M2113.068,646.98v-13.697h18.194v13.697H2113.068z M2113.326,726.315v-66.027h17.679v66.027
				H2113.326z"/>
			<path style="fill:#0033AD;" d="M2177.845,727.607c-6.022,0-11.42-1.356-16.194-4.07c-4.774-2.714-8.517-6.568-11.227-11.565
				c-2.71-4.995-4.065-10.854-4.065-17.573v-2.326c0-6.804,1.355-12.663,4.065-17.573s6.43-8.722,11.162-11.436
				c4.729-2.713,10.107-4.07,16.13-4.07h2.581c6.107,0,11.526,1.356,16.259,4.07c4.73,2.714,8.452,6.525,11.162,11.436
				s4.065,10.769,4.065,17.573v2.326c0,6.806-1.355,12.685-4.065,17.638c-2.71,4.955-6.432,8.786-11.162,11.5
				c-4.732,2.713-10.109,4.07-16.13,4.07H2177.845z M2179.006,715.979c2.666,0,5.053-0.624,7.162-1.874
				c2.107-1.248,3.784-3.122,5.032-5.621c1.246-2.498,1.871-5.47,1.871-8.916v-12.663c0-3.531-0.625-6.503-1.871-8.916
				c-1.248-2.411-2.925-4.264-5.032-5.556c-2.109-1.292-4.496-1.938-7.162-1.938c-2.58,0-4.947,0.646-7.097,1.938
				c-2.151,1.292-3.852,3.146-5.098,5.556c-1.248,2.413-1.871,5.384-1.871,8.916v12.663c0,3.446,0.623,6.418,1.871,8.916
				c1.246,2.499,2.946,4.373,5.098,5.621C2174.059,715.355,2176.426,715.979,2179.006,715.979z"/>
			<path style="fill:#0033AD;" d="M2226.363,726.315v-66.027h13.033l2.065,9.691c2.58-3.703,5.697-6.46,9.355-8.27
				c3.655-1.809,7.807-2.713,12.452-2.713c4.472,0,8.408,0.862,11.808,2.584c3.397,1.724,6.021,4.179,7.871,7.365
				c1.849,3.188,2.774,7.064,2.774,11.629v45.741h-17.55v-41.994c0-4.219-1.032-7.32-3.097-9.303
				c-2.064-1.98-4.861-2.972-8.388-2.972c-2.238,0-4.345,0.582-6.323,1.744c-1.979,1.163-3.528,2.736-4.646,4.716
				c-1.119,1.983-1.678,4.222-1.678,6.719v41.089H2226.363z"/>
			<path style="fill:#0033AD;" d="M2327.015,727.607c-4.13,0-7.872-0.517-11.227-1.55c-3.355-1.034-6.259-2.433-8.711-4.2
				c-2.451-1.764-4.322-3.832-5.613-6.202c-1.29-2.368-1.936-4.93-1.936-7.688c0-0.517,0-0.947,0-1.292
				c0-0.343,0.043-0.818,0.129-1.421h14.969c-0.086,0.258-0.129,0.497-0.129,0.71c0,0.216,0,0.41,0,0.582
				c0,2.154,0.73,3.941,2.194,5.362c1.462,1.421,3.354,2.455,5.678,3.101c2.322,0.646,4.816,0.969,7.484,0.969
				c2.149,0,4.322-0.258,6.517-0.775c2.193-0.517,4.021-1.356,5.484-2.52c1.462-1.163,2.193-2.649,2.193-4.458
				c0-1.98-0.754-3.509-2.258-4.587c-1.507-1.076-3.529-1.938-6.065-2.584c-2.538-0.646-5.312-1.206-8.323-1.68
				c-3.012-0.472-6.045-1.076-9.098-1.809c-3.055-0.731-5.851-1.787-8.388-3.166c-2.538-1.377-4.561-3.25-6.064-5.621
				c-1.506-2.368-2.259-5.492-2.259-9.368c0-3.273,0.753-6.202,2.259-8.787c1.504-2.584,3.568-4.736,6.194-6.46
				c2.623-1.722,5.633-3.014,9.032-3.876c3.397-0.86,6.946-1.292,10.646-1.292h2.58c3.44,0,6.73,0.432,9.872,1.292
				c3.14,0.862,5.956,2.09,8.452,3.683c2.494,1.595,4.452,3.489,5.871,5.685c1.42,2.197,2.13,4.587,2.13,7.171
				c0,0.432-0.022,0.927-0.064,1.486c-0.045,0.562-0.109,0.927-0.194,1.099h-14.969v-1.034c0-0.947-0.237-1.874-0.709-2.778
				c-0.475-0.904-1.248-1.744-2.323-2.52c-1.076-0.775-2.452-1.399-4.129-1.874c-1.678-0.473-3.678-0.71-6.001-0.71
				c-2.064,0-3.915,0.193-5.549,0.581c-1.635,0.388-3.012,0.905-4.129,1.551c-1.119,0.646-1.936,1.401-2.452,2.261
				c-0.516,0.862-0.774,1.724-0.774,2.584c0,1.809,0.774,3.21,2.323,4.2c1.549,0.991,3.591,1.767,6.129,2.326
				c2.537,0.561,5.333,1.078,8.388,1.55c3.053,0.475,6.086,1.056,9.098,1.745c3.011,0.69,5.807,1.744,8.388,3.166
				s4.623,3.339,6.13,5.75c1.504,2.413,2.258,5.556,2.258,9.433c0,4.05-0.774,7.494-2.322,10.337
				c-1.549,2.843-3.7,5.104-6.452,6.784c-2.755,1.68-5.852,2.907-9.291,3.683c-3.442,0.775-7.055,1.163-10.84,1.163H2327.015z"/>
		</g>
	</g>
	
		<line style="fill:none;stroke:#999999;stroke-width:16.1515;stroke-linejoin:round;stroke-miterlimit:10;stroke-dasharray:48.4545,24.2272;" x1="2493.145" y1="1169.961" x2="2966.921" y2="864.282"/>
	
		<line style="fill:none;stroke:#999999;stroke-width:16.1515;stroke-linejoin:round;stroke-miterlimit:10;stroke-dasharray:48.4545,24.2272;" x1="1045.38" y1="864.282" x2="1519.156" y2="1169.961"/>
	
		<line style="fill:none;stroke:#999999;stroke-width:16.1515;stroke-linejoin:round;stroke-miterlimit:10;stroke-dasharray:48.4545,24.2272;" x1="1053.462" y1="1977.083" x2="1523.166" y2="1642.238"/>
	
		<line style="fill:none;stroke:#999999;stroke-width:16.1515;stroke-linejoin:round;stroke-miterlimit:10;stroke-dasharray:48.4545,24.2272;" x1="1976.621" y1="885.671" x2="1976.621" y2="1156.3"/>
	
		<line style="fill:none;stroke:#999999;stroke-width:16.1515;stroke-linejoin:round;stroke-miterlimit:10;stroke-dasharray:48.4545,24.2272;" x1="1976.637" y1="1674.91" x2="1976.637" y2="1945.687"/>
	
		<line style="fill:none;stroke:#999999;stroke-width:16.1515;stroke-linejoin:round;stroke-miterlimit:10;stroke-dasharray:48.4545,24.2272;" x1="1057.14" y1="1404.571" x2="1465.07" y2="1404.571"/>
</g>
</svg>
