<?xml version="1.0" encoding="iso-8859-1"?>
<!-- Generator: Adobe Illustrator 29.6.0, SVG Export Plug-In . SVG Version: 9.03 Build 0)  -->
<svg version="1.1" xmlns="http://www.w3.org/2000/svg" xmlns:xlink="http://www.w3.org/1999/xlink" x="0px" y="0px"
	 viewBox="0 0 4000 950" style="enable-background:new 0 0 4000 950;" xml:space="preserve">
<g id="Background">
	<polygon style="fill:#D4E1FC;" points="3583.202,1050.364 2859.991,1050.364 3379.762,-100.364 4040.535,-100.364 	"/>
</g>
<g id="Content">
	<polygon style="fill:#0033AD;" points="3722.561,505.246 3183.817,505.246 3282.512,263.595 3821.256,263.595 	"/>
	<polygon style="fill:#0033AD;" points="3599.841,811.122 3061.097,811.122 3159.792,569.471 3698.535,569.471 	"/>
	<g>
		<g>
			<polyline style="fill:none;stroke:#000000;stroke-width:5.7996;stroke-miterlimit:10;" points="1001.795,366.669 
				1104.906,366.669 1104.906,688.359 1185.503,688.359 			"/>
			<g>
				<polygon points="1179.58,708.603 1214.637,688.359 1179.58,668.116 				"/>
			</g>
		</g>
	</g>
	<g>
		<path d="M107.332,588.978v22.879H93.935v-22.879l-20.443-36.799h15.137l12.44,23.663h0.435l12.44-23.663h13.745L107.332,588.978z"
			/>
		<path d="M166.706,602.548c-1.886,3.306-4.48,5.829-7.786,7.569c-3.306,1.74-7.019,2.61-11.136,2.61h-1.392
			c-4.119,0-7.83-0.87-11.136-2.61c-3.306-1.74-5.901-4.263-7.786-7.569c-1.885-3.306-2.827-7.19-2.827-11.657v-2.522
			c0-4.465,0.942-8.352,2.827-11.657c1.885-3.306,4.48-5.829,7.786-7.569c3.306-1.74,7.017-2.61,11.136-2.61h1.392
			c4.117,0,7.83,0.87,11.136,2.61c3.306,1.74,5.9,4.263,7.786,7.569c1.884,3.306,2.827,7.192,2.827,11.657v2.522
			C169.533,595.358,168.59,599.243,166.706,602.548z M154.005,578.016c-1.771-1.855-4.075-2.784-6.916-2.784
			c-2.843,0-5.148,0.928-6.917,2.784c-1.77,1.857-2.653,4.554-2.653,8.09v7.047c0,3.538,0.884,6.235,2.653,8.09
			c1.769,1.857,4.074,2.784,6.917,2.784c2.841,0,5.146-0.927,6.916-2.784c1.768-1.855,2.653-4.552,2.653-8.09v-7.047
			C156.658,582.57,155.772,579.873,154.005,578.016z"/>
		<path d="M220.25,603.375c0.521,0.435,1.101,0.652,1.739,0.652c0.579,0,1.218-0.115,1.914-0.348
			c0.696-0.231,1.246-0.435,1.653-0.609v7.83c-2.146,1.218-4.698,1.827-7.656,1.827c-5.8,0-9.164-2.117-10.091-6.351
			c-3.654,4.234-8.12,6.351-13.397,6.351c-4.523,0-8.251-1.218-11.179-3.654c-2.929-2.436-4.393-5.973-4.393-10.613v-31.057h12.701
			v28.273c0,2.262,0.652,4.132,1.957,5.611s2.972,2.218,5.002,2.218c2.262,0,4.204-0.855,5.829-2.566
			c1.623-1.71,2.436-3.784,2.436-6.22v-27.316h12.701v34.015C219.467,602.288,219.728,602.94,220.25,603.375z"/>
	</g>
	<g>
		<path d="M3384.264,80.348c3.224,1.67,5.787,4.106,7.69,7.308c1.901,3.202,2.854,6.983,2.854,11.344v5.428
			c0,4.362-0.952,8.143-2.854,11.344c-1.903,3.202-4.467,5.637-7.69,7.308c-3.226,1.67-6.81,2.505-10.753,2.505h-18.095V77.843
			h18.095C3377.454,77.843,3381.038,78.678,3384.264,80.348z M3366.203,117.025h7.308c2.969,0,5.382-0.962,7.238-2.888
			c1.855-1.925,2.784-4.651,2.784-8.178v-8.491c0-3.525-0.929-6.251-2.784-8.177c-1.856-1.925-4.27-2.888-7.238-2.888h-7.308
			V117.025z"/>
		<path d="M3402.671,75.477h10.301v8.003h-10.301V75.477z M3402.741,125.585V90.022h10.16v35.563H3402.741z"/>
		<path d="M3453.997,120.261c1.74,1.833,2.609,4.234,2.609,7.203c0,2.134-0.604,4.06-1.81,5.776
			c-1.207,1.716-2.842,3.05-4.906,4.002c-2.064,0.95-4.35,1.427-6.854,1.427h-14.686c-2.83,0-5.208-0.777-7.133-2.332
			c-1.926-1.555-2.889-3.701-2.889-6.438c0-1.67,0.498-3.19,1.496-4.559c0.998-1.368,2.263-2.401,3.793-3.097
			c-1.067-0.696-1.879-1.554-2.436-2.575c-0.557-1.02-0.835-2.134-0.835-3.341c0-1.716,0.557-3.212,1.67-4.489
			c1.114-1.275,2.552-2.192,4.315-2.749c-1.578-0.974-2.808-2.215-3.688-3.723c-0.882-1.507-1.322-3.12-1.322-4.837
			c0-3.294,1.287-5.985,3.862-8.073s6.344-3.132,11.31-3.132h1.113c2.18,0,4.129,0.278,5.846,0.835
			c1.902-1.113,3.225-2.25,3.967-3.41c0.742-1.159,1.159-2.203,1.253-3.132h7.934c0,4.918-2.459,7.981-7.377,9.187l-0.069,0.208
			c2.459,2.088,3.688,4.593,3.688,7.517c0,2.042-0.581,3.909-1.74,5.602c-1.16,1.694-2.796,3.04-4.906,4.037
			c-2.111,0.999-4.535,1.497-7.272,1.497h-4.802c-1.393,0-2.471,0.302-3.236,0.905c-0.766,0.604-1.148,1.276-1.148,2.018
			c0,0.929,0.358,1.647,1.078,2.157c0.719,0.511,1.82,0.766,3.307,0.766h12.388C3449.763,117.512,3452.257,118.429,3453.997,120.261
			z M3445.889,131.327c0.881-0.72,1.322-1.566,1.322-2.541c0-0.928-0.371-1.705-1.113-2.331c-0.742-0.626-1.717-0.94-2.923-0.94
			h-12.109c-1.021,0-1.903,0.336-2.645,1.009c-0.743,0.672-1.114,1.473-1.114,2.401c0,0.927,0.371,1.74,1.114,2.436
			c0.741,0.696,1.623,1.044,2.645,1.044h11.691C3443.963,132.406,3445.007,132.046,3445.889,131.327z M3432.805,104.324
			c1.159,0.905,2.621,1.357,4.385,1.357c1.81,0,3.294-0.452,4.454-1.357c1.159-0.905,1.74-2.168,1.74-3.793
			c0-1.624-0.581-2.888-1.74-3.793c-1.16-0.905-2.645-1.357-4.454-1.357c-1.764,0-3.226,0.453-4.385,1.357
			c-1.16,0.905-1.739,2.169-1.739,3.793C3431.065,102.156,3431.645,103.419,3432.805,104.324z"/>
		<path d="M3461.826,75.477h10.301v8.003h-10.301V75.477z M3461.896,125.585V90.022h10.16v35.563H3461.896z"/>
		<path d="M3496.868,125.898c-1.509,0.255-2.843,0.383-4.002,0.383c-3.573,0-6.264-0.766-8.073-2.296
			c-1.81-1.531-2.714-4.083-2.714-7.656V96.982h-3.897v-6.96h4.245l3.55-11.344h6.264v11.344h8.281v6.96h-8.281v17.607
			c0,1.856,0.358,3.109,1.078,3.758c0.719,0.65,1.682,0.974,2.889,0.974c0.557,0,1.275-0.092,2.157-0.278
			c0.881-0.185,1.601-0.394,2.157-0.626v6.542C3499.593,125.331,3498.375,125.643,3496.868,125.898z"/>
		<path d="M3527.35,97.747c-0.999-0.974-2.61-1.461-4.837-1.461c-1.3,0-2.413,0.221-3.341,0.661
			c-0.929,0.441-1.636,0.986-2.123,1.636c-0.487,0.65-0.73,1.252-0.73,1.81v0.557h-9.813c-0.093-0.557-0.139-0.975-0.139-1.253
			c0-1.994,0.661-3.781,1.983-5.359c1.322-1.577,3.167-2.807,5.533-3.688c2.366-0.881,5.08-1.322,8.143-1.322h1.461
			c5.011,0,8.815,0.986,11.414,2.958c2.598,1.973,3.897,4.675,3.897,8.108v16.424c0,0.835,0.196,1.461,0.591,1.879
			c0.395,0.418,0.87,0.626,1.427,0.626c0.464,0,0.975-0.092,1.531-0.278c0.557-0.185,0.997-0.348,1.322-0.487v6.264
			c-1.717,0.975-3.758,1.461-6.124,1.461c-2.552,0-4.501-0.522-5.846-1.566c-1.347-1.044-2.135-2.516-2.366-4.419
			c-3.249,3.991-7.238,5.985-11.971,5.985c-3.526,0-6.427-0.719-8.699-2.157c-2.274-1.438-3.41-4.176-3.41-8.212
			c0-3.294,0.939-5.811,2.818-7.551c1.879-1.74,4.489-2.911,7.829-3.514c3.341-0.603,7.656-0.905,12.945-0.905v-2.366
			C3528.846,99.998,3528.347,98.722,3527.35,97.747z M3518.998,110.936c-2.158,0.859-3.236,2.262-3.236,4.21
			c0,1.531,0.428,2.61,1.287,3.236c0.858,0.626,2.169,0.939,3.933,0.939c1.206,0,2.412-0.324,3.619-0.974
			c1.205-0.649,2.215-1.577,3.027-2.784c0.811-1.206,1.218-2.551,1.218-4.036v-1.879
			C3524.437,109.648,3521.155,110.078,3518.998,110.936z"/>
		<path d="M3548.681,125.585V75.477h10.16v50.109H3548.681z"/>
		<path d="M3568.097,125.585V75.477h10.16v50.109H3568.097z"/>
		<path d="M3600.806,134.598c-2.505,2.667-5.521,4.001-9.047,4.001c-2.46,0-4.454-0.348-5.985-1.044v-7.168
			c0.557,0.231,1.275,0.452,2.157,0.661c0.881,0.208,1.716,0.313,2.506,0.313c2.969,0,5.08-2.157,6.333-6.472l-13.432-34.868h10.787
			l7.864,22.34h0.417l7.378-22.34h10.021l-12.667,33.615C3605.422,128.276,3603.312,131.93,3600.806,134.598z"/>
		<path d="M3665.807,91.344c0-1.763-0.696-3.143-2.088-4.141c-1.393-0.997-3.318-1.497-5.776-1.497
			c-2.553,0-4.536,0.407-5.951,1.218c-1.415,0.812-2.122,1.891-2.122,3.236c0,1.161,0.44,2.123,1.322,2.888
			c0.881,0.766,2.006,1.381,3.375,1.845c1.368,0.464,3.236,0.974,5.603,1.531c3.479,0.835,6.344,1.694,8.595,2.575
			c2.25,0.882,4.176,2.251,5.776,4.106c1.602,1.856,2.401,4.339,2.401,7.447c0,5.429-1.752,9.407-5.254,11.936
			c-3.504,2.529-8.317,3.793-14.441,3.793c-5.567,0-10.173-1.218-13.814-3.654c-3.644-2.436-5.464-6.135-5.464-11.1l0.07-1.531
			h10.16l-0.069,1.113c0,2.042,0.766,3.654,2.297,4.837s3.688,1.775,6.473,1.775c3.247,0,5.578-0.51,6.994-1.531
			c1.415-1.02,2.122-2.319,2.122-3.897c0-1.206-0.429-2.192-1.287-2.958c-0.859-0.766-1.948-1.368-3.271-1.81
			c-1.323-0.44-3.167-0.939-5.533-1.496c-3.526-0.881-6.403-1.763-8.63-2.645c-2.228-0.88-4.153-2.296-5.776-4.245
			c-1.625-1.949-2.436-4.569-2.436-7.864c0-3.062,0.835-5.66,2.505-7.795c1.671-2.133,3.908-3.723,6.716-4.767
			c2.807-1.044,5.95-1.566,9.431-1.566c5.335,0,9.696,1.172,13.084,3.515c3.386,2.343,5.08,5.835,5.08,10.474v0.835h-10.091V91.344z
			"/>
		<path d="M3684.249,75.477h10.301v8.003h-10.301V75.477z M3684.319,125.585V90.022h10.16v35.563H3684.319z"/>
		<path d="M3735.576,120.261c1.74,1.833,2.609,4.234,2.609,7.203c0,2.134-0.604,4.06-1.81,5.776
			c-1.207,1.716-2.842,3.05-4.906,4.002c-2.064,0.95-4.35,1.427-6.854,1.427h-14.686c-2.83,0-5.208-0.777-7.133-2.332
			c-1.926-1.555-2.889-3.701-2.889-6.438c0-1.67,0.498-3.19,1.496-4.559c0.998-1.368,2.263-2.401,3.793-3.097
			c-1.067-0.696-1.879-1.554-2.436-2.575c-0.557-1.02-0.835-2.134-0.835-3.341c0-1.716,0.557-3.212,1.67-4.489
			c1.114-1.275,2.552-2.192,4.315-2.749c-1.578-0.974-2.808-2.215-3.688-3.723c-0.882-1.507-1.322-3.12-1.322-4.837
			c0-3.294,1.287-5.985,3.862-8.073s6.344-3.132,11.31-3.132h1.113c2.18,0,4.129,0.278,5.846,0.835
			c1.902-1.113,3.225-2.25,3.967-3.41c0.742-1.159,1.159-2.203,1.253-3.132h7.934c0,4.918-2.459,7.981-7.377,9.187l-0.069,0.208
			c2.459,2.088,3.688,4.593,3.688,7.517c0,2.042-0.581,3.909-1.74,5.602c-1.16,1.694-2.796,3.04-4.906,4.037
			c-2.111,0.999-4.535,1.497-7.272,1.497h-4.802c-1.393,0-2.471,0.302-3.236,0.905c-0.766,0.604-1.148,1.276-1.148,2.018
			c0,0.929,0.358,1.647,1.078,2.157c0.719,0.511,1.82,0.766,3.307,0.766h12.388C3731.342,117.512,3733.836,118.429,3735.576,120.261
			z M3727.468,131.327c0.881-0.72,1.322-1.566,1.322-2.541c0-0.928-0.371-1.705-1.113-2.331c-0.742-0.626-1.717-0.94-2.923-0.94
			h-12.109c-1.021,0-1.903,0.336-2.645,1.009c-0.743,0.672-1.114,1.473-1.114,2.401c0,0.927,0.371,1.74,1.114,2.436
			c0.741,0.696,1.623,1.044,2.645,1.044h11.691C3725.542,132.406,3726.586,132.046,3727.468,131.327z M3714.384,104.324
			c1.159,0.905,2.621,1.357,4.385,1.357c1.81,0,3.294-0.452,4.454-1.357c1.159-0.905,1.74-2.168,1.74-3.793
			c0-1.624-0.581-2.888-1.74-3.793c-1.16-0.905-2.645-1.357-4.454-1.357c-1.764,0-3.226,0.453-4.385,1.357
			c-1.16,0.905-1.739,2.169-1.739,3.793C3712.645,102.156,3713.224,103.419,3714.384,104.324z"/>
		<path d="M3752.174,95.242c2.923-3.943,6.704-5.916,11.344-5.916c3.619,0,6.6,0.974,8.943,2.923
			c2.342,1.949,3.515,4.779,3.515,8.491v24.846h-10.161v-22.619c0-1.81-0.522-3.306-1.566-4.489s-2.378-1.775-4.001-1.775
			c-1.81,0-3.365,0.685-4.663,2.053c-1.3,1.369-1.949,3.027-1.949,4.976v21.853h-10.16V90.022h7.586L3752.174,95.242z"/>
		<path d="M3815.783,120.122c-1.485,2.112-3.445,3.666-5.881,4.663s-5.093,1.496-7.969,1.496h-1.113
			c-3.295,0-6.264-0.696-8.908-2.088c-2.645-1.392-4.722-3.398-6.229-6.02c-1.509-2.621-2.263-5.741-2.263-9.36v-2.019
			c0-3.572,0.766-6.681,2.297-9.326s3.607-4.663,6.229-6.055s5.579-2.088,8.874-2.088h1.113c2.876,0,5.544,0.592,8.004,1.775
			c2.458,1.183,4.43,2.9,5.915,5.15c1.484,2.251,2.228,4.906,2.228,7.969v5.289h-24.358v1.67c0,2.321,0.684,4.257,2.053,5.811
			c1.368,1.555,3.236,2.332,5.603,2.332c2.134,0,3.815-0.591,5.046-1.774c1.229-1.183,1.844-2.934,1.844-5.255h9.744
			C3818.011,115.402,3817.268,118.012,3815.783,120.122z M3795.914,98.443c-1.277,1.438-2.008,3.271-2.192,5.498h14.058
			c0-2.366-0.546-4.233-1.635-5.603c-1.091-1.368-2.843-2.053-5.255-2.053C3798.848,96.286,3797.189,97.006,3795.914,98.443z"/>
		<path d="M3848.841,121.131c-2.599,3.434-5.939,5.15-10.021,5.15c-2.784,0-5.289-0.673-7.517-2.018
			c-2.227-1.345-3.991-3.386-5.289-6.125c-1.3-2.737-1.949-6.125-1.949-10.161v-0.766c0-3.851,0.603-7.122,1.81-9.813
			c1.206-2.69,2.842-4.708,4.907-6.055c2.063-1.345,4.395-2.018,6.994-2.018c2.227,0,4.187,0.464,5.881,1.392
			c1.693,0.929,3.05,2.065,4.071,3.41V75.477h10.161v50.109h-8.004L3848.841,121.131z M3836.244,117.129
			c1.253,1.462,2.854,2.192,4.802,2.192c1.949,0,3.55-0.73,4.803-2.192c1.252-1.461,1.879-3.537,1.879-6.229v-5.776
			c0-2.737-0.627-4.825-1.879-6.264c-1.253-1.438-2.854-2.158-4.803-2.158c-1.948,0-3.549,0.72-4.802,2.158
			c-1.253,1.438-1.879,3.526-1.879,6.264v5.776C3834.365,113.592,3834.991,115.668,3836.244,117.129z"/>
		<path d="M3470.177,157.676c3.224,1.67,5.787,4.106,7.69,7.308c1.901,3.202,2.854,6.983,2.854,11.344v5.428
			c0,4.362-0.952,8.143-2.854,11.344c-1.903,3.202-4.467,5.637-7.69,7.308c-3.226,1.67-6.81,2.505-10.753,2.505h-18.095v-47.743
			h18.095C3463.367,155.171,3466.951,156.006,3470.177,157.676z M3452.116,194.354h7.308c2.969,0,5.382-0.962,7.238-2.888
			c1.855-1.925,2.784-4.651,2.784-8.178v-8.491c0-3.525-0.929-6.251-2.784-8.177c-1.856-1.925-4.27-2.888-7.238-2.888h-7.308
			V194.354z"/>
		<path d="M3520.702,195.467c-1.508,2.645-3.584,4.663-6.229,6.055c-2.645,1.392-5.614,2.088-8.908,2.088h-1.113
			c-3.295,0-6.264-0.696-8.908-2.088c-2.645-1.392-4.722-3.41-6.229-6.055c-1.509-2.645-2.263-5.752-2.263-9.326v-2.019
			c0-3.572,0.754-6.681,2.263-9.326c1.507-2.645,3.584-4.663,6.229-6.055s5.613-2.088,8.908-2.088h1.113
			c3.294,0,6.264,0.696,8.908,2.088s4.721,3.41,6.229,6.055s2.263,5.754,2.263,9.326v2.019
			C3522.965,189.714,3522.21,192.822,3520.702,195.467z M3510.542,175.841c-1.416-1.484-3.261-2.227-5.533-2.227
			c-2.273,0-4.118,0.743-5.533,2.227c-1.415,1.485-2.122,3.643-2.122,6.473v5.637c0,2.831,0.707,4.988,2.122,6.472
			c1.415,1.485,3.26,2.227,5.533,2.227c2.272,0,4.117-0.742,5.533-2.227c1.414-1.484,2.122-3.642,2.122-6.472v-5.637
			C3512.664,179.484,3511.956,177.326,3510.542,175.841z"/>
		<path d="M3541.059,194.318c1.206,1.555,2.829,2.332,4.871,2.332c2.134,0,3.816-0.661,5.046-1.983
			c1.229-1.322,1.845-3.282,1.845-5.881h9.604c0,3.295-0.708,6.055-2.122,8.282c-1.416,2.227-3.283,3.875-5.603,4.941
			c-2.321,1.067-4.872,1.601-7.655,1.601h-1.114c-5.196,0-9.325-1.542-12.388-4.628c-3.062-3.085-4.594-7.365-4.594-12.84v-2.019
			c0-3.619,0.731-6.739,2.192-9.36c1.462-2.621,3.468-4.628,6.021-6.02c2.551-1.392,5.474-2.088,8.769-2.088h1.114
			c2.736,0,5.276,0.592,7.62,1.775c2.343,1.183,4.222,2.9,5.638,5.15c1.414,2.251,2.122,4.906,2.122,7.969h-10.091
			c0-2.412-0.534-4.338-1.601-5.776c-1.068-1.438-2.645-2.158-4.732-2.158s-3.735,0.824-4.941,2.471
			c-1.207,1.647-1.81,3.724-1.81,6.229v6.194C3539.249,190.828,3539.852,192.765,3541.059,194.318z"/>
		<path d="M3602.998,196.128c0.417,0.348,0.88,0.522,1.392,0.522c0.463,0,0.975-0.092,1.531-0.278
			c0.557-0.185,0.997-0.348,1.322-0.487v6.264c-1.718,0.975-3.759,1.461-6.125,1.461c-4.64,0-7.331-1.693-8.072-5.08
			c-2.924,3.387-6.497,5.08-10.718,5.08c-3.619,0-6.602-0.974-8.943-2.923c-2.344-1.949-3.515-4.778-3.515-8.491V167.35h10.161
			v22.619c0,1.81,0.521,3.306,1.565,4.489s2.377,1.775,4.002,1.775c1.81,0,3.363-0.684,4.663-2.053
			c1.298-1.368,1.948-3.027,1.948-4.976V167.35h10.161v27.212C3602.371,195.258,3602.58,195.78,3602.998,196.128z"/>
		<path d="M3637.934,168.116c1.81,0.975,3.202,2.39,4.176,4.246c2.412-3.804,5.869-5.707,10.37-5.707
			c3.341,0,6.112,1.009,8.316,3.027c2.203,2.019,3.306,4.814,3.306,8.386v24.846h-10.161v-22.827c0-1.949-0.417-3.445-1.252-4.489
			c-0.836-1.044-1.996-1.566-3.48-1.566c-1.624,0-2.992,0.65-4.105,1.949c-1.114,1.3-1.671,2.923-1.671,4.872v22.062h-10.161
			v-22.827c0-1.902-0.429-3.386-1.287-4.454c-0.859-1.067-2.03-1.601-3.515-1.601c-1.624,0-2.981,0.65-4.071,1.949
			c-1.091,1.3-1.636,2.923-1.636,4.872v22.062h-10.16V167.35h7.655c0.278,1.161,0.649,2.9,1.113,5.22
			c1.253-1.994,2.771-3.479,4.559-4.454c1.785-0.974,3.746-1.461,5.881-1.461C3634.082,166.654,3636.124,167.142,3637.934,168.116z"
			/>
		<path d="M3703.91,197.45c-1.485,2.112-3.445,3.666-5.881,4.663s-5.093,1.496-7.969,1.496h-1.113c-3.295,0-6.264-0.696-8.908-2.088
			c-2.645-1.392-4.722-3.398-6.229-6.02c-1.509-2.621-2.263-5.741-2.263-9.36v-2.019c0-3.572,0.766-6.681,2.297-9.326
			s3.607-4.663,6.229-6.055s5.579-2.088,8.874-2.088h1.113c2.876,0,5.544,0.592,8.004,1.775c2.458,1.183,4.43,2.9,5.915,5.15
			c1.484,2.251,2.228,4.906,2.228,7.969v5.289h-24.358v1.67c0,2.321,0.684,4.257,2.053,5.811c1.368,1.555,3.236,2.332,5.603,2.332
			c2.134,0,3.815-0.591,5.046-1.774c1.229-1.183,1.844-2.934,1.844-5.255h9.744C3706.138,192.73,3705.395,195.34,3703.91,197.45z
			 M3684.041,175.772c-1.277,1.438-2.008,3.271-2.192,5.498h14.058c0-2.366-0.546-4.233-1.635-5.603
			c-1.091-1.368-2.843-2.053-5.255-2.053C3686.975,173.614,3685.316,174.334,3684.041,175.772z"/>
		<path d="M3722.492,172.57c2.923-3.943,6.704-5.916,11.344-5.916c3.619,0,6.6,0.974,8.943,2.923
			c2.342,1.949,3.515,4.779,3.515,8.491v24.846h-10.161v-22.619c0-1.81-0.522-3.306-1.566-4.489s-2.378-1.775-4.001-1.775
			c-1.81,0-3.365,0.685-4.663,2.053c-1.3,1.369-1.949,3.027-1.949,4.976v21.853h-10.16V167.35h7.586L3722.492,172.57z"/>
		<path d="M3770.965,203.227c-1.509,0.255-2.843,0.383-4.002,0.383c-3.573,0-6.264-0.766-8.073-2.296
			c-1.81-1.531-2.714-4.083-2.714-7.656V174.31h-3.897v-6.96h4.245l3.55-11.344h6.264v11.344h8.281v6.96h-8.281v17.607
			c0,1.856,0.358,3.109,1.078,3.758c0.719,0.65,1.682,0.974,2.889,0.974c0.557,0,1.275-0.092,2.157-0.278
			c0.881-0.185,1.601-0.394,2.157-0.626v6.542C3773.689,202.659,3772.472,202.971,3770.965,203.227z"/>
	</g>
	<g>
		<ellipse transform="matrix(0.999 -0.045 0.045 0.999 -7.5212 7.1685)" cx="155.461" cy="170.64" rx="38.974" ry="39.372"/>
		<path d="M246.91,322.198l-27.043-73.574c-6.363-17.499-23.464-29.43-42.156-29.43h-44.542c-18.692,0-35.395,11.533-42.156,29.43
			l-27.043,73.972c-3.182,8.352,1.193,17.896,9.545,20.68c8.352,3.182,17.896-1.193,20.68-9.545l17.896-48.917v204.814
			c0,9.942,7.159,18.692,17.101,19.487c11.136,1.193,20.68-7.556,20.68-18.692v-120.9c0-3.182,2.386-5.568,5.568-5.568
			c3.182,0,5.568,2.386,5.568,5.568v120.105c0,9.942,7.159,18.692,17.101,19.487c11.136,1.193,20.68-7.556,20.68-18.692V284.815
			l17.896,48.917c2.386,6.363,8.749,10.738,15.113,10.738c2.784,0,5.965-0.795,8.749-2.386
			C246.91,338.106,249.694,329.357,246.91,322.198z"/>
	</g>
	<g>
		<g>
			
				<line style="fill:none;stroke:#000000;stroke-width:5.7996;stroke-miterlimit:10;" x1="257.161" y1="366.669" x2="377.453" y2="366.669"/>
			<g>
				<polygon points="371.529,386.912 406.586,366.669 371.529,346.426 				"/>
			</g>
		</g>
	</g>
	<g>
		<g>
			
				<line style="fill:none;stroke:#000000;stroke-width:5.7996;stroke-miterlimit:10;" x1="1001.795" y1="366.669" x2="3199.142" y2="366.669"/>
			<g>
				<polygon points="3193.219,386.912 3228.275,366.669 3193.219,346.426 				"/>
			</g>
		</g>
	</g>
	<g>
		<g>
			
				<line style="fill:none;stroke:#000000;stroke-width:5.7996;stroke-miterlimit:10;" x1="1587.811" y1="688.359" x2="1726.483" y2="688.359"/>
			<g>
				<polygon points="1720.56,708.603 1755.617,688.359 1720.56,668.116 				"/>
			</g>
		</g>
	</g>
	<polygon style="fill:#0033AD;" points="2251.519,811.122 1712.775,811.122 1841.491,569.471 2380.235,569.471 	"/>
	<g>
		<path style="fill:#FFFFFF;" d="M1848.482,671.055v-37.133h6.712v15.481h14.994v-15.481h6.712v37.133h-6.658v-16.239h-14.994
			v16.239H1848.482z"/>
		<path style="fill:#FFFFFF;" d="M1892.544,671.597c-1.48,0-2.896-0.235-4.25-0.704c-1.353-0.468-2.463-1.272-3.329-2.409
			c-0.866-1.137-1.299-2.679-1.299-4.628c0-1.984,0.441-3.59,1.326-4.817c0.884-1.227,2.138-2.166,3.762-2.815
			c1.624-0.649,3.572-1.091,5.846-1.326c2.273-0.234,4.799-0.352,7.578-0.352v-2.598c0-1.804-0.46-3.076-1.38-3.816
			c-0.92-0.739-2.319-1.11-4.195-1.11c-1.552,0-2.923,0.343-4.114,1.028c-1.191,0.686-1.787,1.769-1.787,3.248v0.541h-6.062
			c-0.036-0.144-0.054-0.315-0.054-0.514c0-0.198,0-0.387,0-0.568c0-1.587,0.496-2.977,1.489-4.168
			c0.992-1.191,2.373-2.111,4.141-2.761c1.768-0.649,3.789-0.974,6.062-0.974h0.92c3.753,0,6.55,0.74,8.39,2.219
			c1.84,1.48,2.761,3.555,2.761,6.225v14.128c0,0.686,0.163,1.173,0.487,1.461c0.325,0.289,0.685,0.433,1.083,0.433
			c0.36,0,0.749-0.072,1.164-0.217c0.415-0.144,0.803-0.306,1.164-0.487v3.843c-0.47,0.361-1.065,0.64-1.786,0.839
			c-0.723,0.198-1.588,0.298-2.599,0.298c-1.191,0-2.174-0.217-2.95-0.65c-0.777-0.433-1.363-1.019-1.759-1.759
			c-0.397-0.739-0.632-1.578-0.704-2.517c-1.047,1.552-2.4,2.76-4.06,3.626C1896.73,671.164,1894.781,671.597,1892.544,671.597z
			 M1895.25,667.32c1.155,0,2.255-0.261,3.302-0.785c1.046-0.522,1.912-1.308,2.598-2.354c0.685-1.046,1.028-2.363,1.028-3.952
			v-2.111c-2.526,0-4.691,0.135-6.496,0.406c-1.805,0.271-3.176,0.767-4.114,1.489c-0.939,0.722-1.407,1.805-1.407,3.248
			c0,1.444,0.433,2.482,1.299,3.113C1892.328,667.005,1893.59,667.32,1895.25,667.32z"/>
		<path style="fill:#FFFFFF;" d="M1927.674,671.597c-1.84,0-3.464-0.226-4.872-0.677c-1.408-0.451-2.598-1.056-3.573-1.813
			c-0.974-0.758-1.714-1.624-2.219-2.598c-0.506-0.975-0.758-1.984-0.758-3.031c0-0.217,0-0.396,0-0.542
			c0-0.144,0.018-0.342,0.054-0.595h5.413c-0.037,0.108-0.054,0.208-0.054,0.298c0,0.09,0,0.171,0,0.243
			c0,1.011,0.325,1.841,0.974,2.49s1.506,1.137,2.571,1.461c1.064,0.325,2.246,0.487,3.545,0.487c1.083,0,2.111-0.144,3.085-0.433
			c0.974-0.289,1.768-0.712,2.382-1.272c0.613-0.559,0.92-1.253,0.92-2.084c0-0.938-0.325-1.66-0.974-2.166
			c-0.649-0.505-1.507-0.901-2.571-1.19c-1.065-0.289-2.238-0.542-3.519-0.758c-1.281-0.217-2.571-0.478-3.87-0.785
			c-1.299-0.306-2.481-0.739-3.545-1.299c-1.065-0.559-1.922-1.326-2.571-2.301c-0.649-0.974-0.974-2.255-0.974-3.843
			c0-1.299,0.288-2.471,0.866-3.519c0.577-1.046,1.389-1.921,2.436-2.625c1.046-0.704,2.273-1.245,3.681-1.624
			c1.408-0.379,2.923-0.568,4.547-0.568h0.866c1.516,0,2.932,0.199,4.249,0.595c1.317,0.398,2.463,0.939,3.438,1.624
			c0.975,0.686,1.732,1.48,2.273,2.382c0.541,0.902,0.812,1.859,0.812,2.869c0,0.181-0.01,0.379-0.027,0.596
			c-0.02,0.216-0.027,0.361-0.027,0.433h-5.467v-0.542c0-0.36-0.09-0.749-0.271-1.164c-0.181-0.415-0.506-0.812-0.974-1.191
			c-0.47-0.379-1.092-0.694-1.868-0.947c-0.776-0.252-1.759-0.379-2.95-0.379c-1.083,0-2.003,0.108-2.761,0.325
			s-1.372,0.497-1.84,0.839c-0.469,0.344-0.803,0.713-1.001,1.11c-0.199,0.397-0.297,0.776-0.297,1.137
			c0,0.831,0.325,1.48,0.974,1.949c0.649,0.469,1.516,0.839,2.598,1.109c1.083,0.271,2.273,0.506,3.573,0.704
			c1.299,0.199,2.589,0.452,3.87,0.758c1.281,0.307,2.463,0.75,3.545,1.327c1.082,0.578,1.949,1.353,2.598,2.327
			c0.65,0.975,0.975,2.256,0.975,3.843c0,1.661-0.316,3.077-0.947,4.25c-0.631,1.173-1.506,2.103-2.625,2.788
			c-1.119,0.686-2.391,1.191-3.816,1.516c-1.426,0.325-2.932,0.487-4.52,0.487H1927.674z"/>
		<path style="fill:#FFFFFF;" d="M1947.431,671.055v-38.974h6.278v14.94c1.011-1.371,2.247-2.409,3.708-3.112
			c1.462-0.704,3.022-1.056,4.683-1.056c1.841,0,3.473,0.361,4.898,1.083c1.426,0.722,2.553,1.778,3.384,3.167
			c0.829,1.39,1.244,3.095,1.244,5.115v18.837h-6.278v-17.701c0-2.057-0.487-3.527-1.462-4.411s-2.31-1.326-4.006-1.326
			c-1.118,0-2.147,0.28-3.085,0.839c-0.938,0.56-1.688,1.308-2.246,2.246c-0.561,0.939-0.84,2.003-0.84,3.194v17.159H1947.431z"/>
		<path style="fill:#FFFFFF;" d="M2003.293,671.597c-2.455,0-4.656-0.559-6.604-1.678c-1.949-1.118-3.474-2.724-4.574-4.817
			c-1.102-2.093-1.651-4.565-1.651-7.416v-0.92c0-2.887,0.55-5.368,1.651-7.443c1.101-2.075,2.616-3.672,4.547-4.791
			c1.93-1.118,4.122-1.678,6.578-1.678h0.865c2.49,0,4.7,0.56,6.631,1.678c1.931,1.119,3.446,2.716,4.547,4.791
			c1.101,2.075,1.651,4.556,1.651,7.443v0.92c0,2.851-0.551,5.323-1.651,7.416c-1.101,2.093-2.616,3.699-4.547,4.817
			c-1.931,1.119-4.123,1.678-6.576,1.678H2003.293z M2003.672,667.32c1.263,0,2.39-0.298,3.383-0.893
			c0.992-0.596,1.786-1.489,2.382-2.68s0.894-2.634,0.894-4.33v-4.385c0-1.732-0.298-3.184-0.894-4.357
			c-0.596-1.172-1.39-2.057-2.382-2.652c-0.993-0.595-2.12-0.893-3.383-0.893c-1.228,0-2.337,0.298-3.33,0.893
			c-0.993,0.595-1.786,1.48-2.382,2.652c-0.596,1.173-0.893,2.625-0.893,4.357v4.385c0,1.696,0.297,3.139,0.893,4.33
			s1.389,2.084,2.382,2.68C2001.335,667.022,2002.444,667.32,2003.672,667.32z"/>
		<path style="fill:#FFFFFF;" d="M2025.107,671.055v-22.843h-3.194v-4.817h3.194v-4.764c0-2.454,0.703-4.23,2.11-5.332
			c1.408-1.101,3.194-1.651,5.359-1.651c0.541,0,1.137,0.046,1.786,0.136c0.649,0.09,1.29,0.208,1.922,0.352
			c0.631,0.145,1.164,0.325,1.597,0.542v4.005c-0.433-0.18-1.001-0.342-1.705-0.487c-0.704-0.144-1.254-0.217-1.651-0.217
			c-0.469,0-0.947,0.073-1.434,0.217c-0.487,0.145-0.894,0.451-1.219,0.92c-0.324,0.469-0.486,1.227-0.486,2.273v4.006h6.495v4.817
			h-6.495v22.843H2025.107z"/>
		<path style="fill:#FFFFFF;" d="M2060.479,645.479l-0.92-14.48h6.604l-0.893,14.48H2060.479z M2070.034,645.479l-0.921-14.48h6.631
			l-0.92,14.48H2070.034z"/>
		<path style="fill:#FFFFFF;" d="M2106.219,671.055v-16.97h-12.179v16.97h-6.279v-37.35h6.279v15.21h12.179v-15.21h6.279v37.35
			H2106.219z"/>
		<path style="fill:#FFFFFF;" d="M2126.22,658.713c0.126,1.949,0.541,3.542,1.245,4.777s1.628,2.143,2.774,2.72
			c1.146,0.578,2.403,0.866,3.775,0.866c1.407,0,2.706-0.216,3.897-0.649c1.19-0.433,2.391-1.046,3.6-1.841l2.625,3.627
			c-1.335,1.083-2.896,1.949-4.683,2.598c-1.786,0.649-3.698,0.975-5.737,0.975c-2.959,0-5.463-0.632-7.511-1.895
			c-2.048-1.263-3.604-3.022-4.669-5.278c-1.064-2.255-1.597-4.862-1.597-7.822c0-2.869,0.523-5.436,1.57-7.7
			c1.046-2.264,2.544-4.06,4.492-5.386c1.949-1.326,4.276-1.989,6.983-1.989c2.544,0,4.731,0.578,6.562,1.732
			c1.831,1.155,3.248,2.792,4.25,4.913c1.001,2.12,1.502,4.668,1.502,7.646c0,0.487-0.014,0.97-0.041,1.448
			s-0.059,0.898-0.095,1.258H2126.22z M2133.04,646.209c-1.895,0-3.46,0.677-4.695,2.03c-1.236,1.354-1.954,3.464-2.152,6.333
			h13.235c-0.055-2.688-0.627-4.754-1.719-6.198S2135.061,646.209,2133.04,646.209z"/>
		<path style="fill:#FFFFFF;" d="M2166.221,630.999v32.261c0,1.317,0.401,2.251,1.204,2.801c0.803,0.551,1.845,0.826,3.126,0.826
			c0.83,0,1.614-0.09,2.354-0.271s1.462-0.406,2.165-0.677l1.543,4.222c-0.849,0.433-1.891,0.812-3.126,1.137
			c-1.236,0.325-2.648,0.487-4.235,0.487c-2.869,0-5.102-0.808-6.699-2.422c-1.597-1.615-2.395-3.83-2.395-6.645v-27.254h-8.634
			v-4.466H2166.221z"/>
		<path style="fill:#FFFFFF;" d="M2198.698,630.999v32.261c0,1.317,0.401,2.251,1.204,2.801c0.803,0.551,1.845,0.826,3.126,0.826
			c0.83,0,1.614-0.09,2.354-0.271s1.462-0.406,2.165-0.677l1.543,4.222c-0.849,0.433-1.891,0.812-3.126,1.137
			c-1.236,0.325-2.648,0.487-4.235,0.487c-2.869,0-5.102-0.808-6.699-2.422c-1.597-1.615-2.395-3.83-2.395-6.645v-27.254h-8.634
			v-4.466H2198.698z"/>
		<path style="fill:#FFFFFF;" d="M2230.065,641.717c2.797,0,5.151,0.623,7.064,1.868c1.912,1.245,3.36,2.986,4.344,5.223
			c0.983,2.238,1.475,4.872,1.475,7.903c0,3.013-0.5,5.652-1.502,7.917c-1.001,2.264-2.463,4.023-4.384,5.277
			c-1.922,1.254-4.263,1.881-7.023,1.881s-5.102-0.609-7.023-1.827s-3.384-2.954-4.385-5.21c-1.001-2.255-1.502-4.917-1.502-7.984
			c0-2.978,0.501-5.593,1.502-7.849c1.001-2.255,2.467-4.019,4.398-5.291C2224.959,642.353,2227.306,641.717,2230.065,641.717z
			 M2230.065,646.426c-2.183,0-3.825,0.834-4.926,2.503s-1.65,4.281-1.65,7.835c0,3.537,0.545,6.144,1.638,7.821
			c1.091,1.678,2.729,2.517,4.912,2.517c2.183,0,3.82-0.839,4.912-2.517c1.092-1.678,1.638-4.303,1.638-7.875
			c0-3.519-0.542-6.112-1.624-7.781C2233.882,647.261,2232.249,646.426,2230.065,646.426z"/>
		<path style="fill:#FFFFFF;" d="M2255.344,645.479l-0.92-14.48h6.604l-0.893,14.48H2255.344z M2264.898,645.479l-0.921-14.48h6.631
			l-0.92,14.48H2264.898z"/>
		<path style="fill:#FFFFFF;" d="M1903.911,709.101v36.267h-6.008v-30.042l-8.228,5.061l-2.599-4.249l11.476-7.037H1903.911z
			 M1911.381,741.687v4.763h-22.599v-4.763H1911.381z"/>
		<path style="fill:#FFFFFF;" d="M1943.074,718.005c0,1.786-0.523,3.333-1.57,4.642c-1.047,1.309-2.598,2.531-4.654,3.667
			c2.471,1.083,4.375,2.477,5.711,4.182c1.334,1.705,2.002,3.667,2.002,5.886c0,2.003-0.523,3.821-1.57,5.454
			c-1.045,1.633-2.557,2.933-4.533,3.897c-1.975,0.965-4.37,1.448-7.185,1.448c-2.797,0-5.169-0.479-7.118-1.435
			c-1.948-0.956-3.419-2.242-4.412-3.857c-0.992-1.614-1.488-3.405-1.488-5.372c0-2.237,0.658-4.146,1.976-5.725
			c1.317-1.579,3.076-2.864,5.278-3.856c-1.949-1.046-3.396-2.224-4.344-3.532c-0.948-1.308-1.421-3-1.421-5.075
			c0-1.678,0.334-3.135,1.001-4.371s1.561-2.273,2.68-3.113c1.119-0.839,2.373-1.466,3.762-1.881c1.39-0.415,2.806-0.623,4.25-0.623
			c1.533,0,2.995,0.203,4.384,0.609c1.391,0.406,2.631,1.011,3.723,1.813c1.092,0.803,1.953,1.809,2.584,3.018
			C1942.757,714.992,1943.074,716.399,1943.074,718.005z M1938.365,736.409c0-1.516-0.357-2.724-1.068-3.627
			c-0.715-0.902-1.738-1.66-3.073-2.273c-1.335-0.613-2.932-1.245-4.791-1.895c-0.902,0.47-1.732,1.051-2.49,1.746
			c-0.758,0.695-1.363,1.529-1.813,2.504c-0.451,0.974-0.677,2.129-0.677,3.464c0,1.913,0.577,3.433,1.732,4.56
			c1.154,1.128,2.877,1.692,5.169,1.692c2.309,0,4.055-0.596,5.236-1.787S1938.365,738.141,1938.365,736.409z M1925.617,718.357
			c0,1.227,0.279,2.219,0.839,2.977c0.559,0.758,1.371,1.394,2.436,1.908s2.355,1.033,3.871,1.556
			c1.533-0.956,2.657-1.917,3.37-2.882s1.068-2.169,1.068-3.613c0-1.678-0.496-3.022-1.488-4.033
			c-0.993-1.01-2.418-1.516-4.276-1.516c-1.84,0-3.271,0.487-4.29,1.461C1926.126,715.19,1925.617,716.57,1925.617,718.357z"/>
		<path style="fill:#FFFFFF;" d="M1974.577,709.101l-0.785,4.547h-14.344v10.393c1.063-0.559,2.097-0.943,3.099-1.15
			c1.001-0.207,2.007-0.311,3.018-0.311c1.984,0,3.753,0.469,5.305,1.407c1.552,0.938,2.774,2.292,3.667,4.06
			c0.894,1.769,1.34,3.907,1.34,6.415c0,2.49-0.555,4.696-1.664,6.617c-1.11,1.922-2.666,3.419-4.669,4.493
			c-2.003,1.073-4.357,1.61-7.063,1.61c-2.437,0-4.598-0.438-6.482-1.313c-1.886-0.875-3.541-2.07-4.967-3.586l3.627-3.41
			c1.046,1.155,2.196,2.025,3.451,2.612c1.254,0.586,2.629,0.879,4.127,0.879c2.273,0,4.064-0.69,5.372-2.07
			c1.309-1.38,1.963-3.333,1.963-5.859c0-1.841-0.267-3.297-0.799-4.371c-0.532-1.073-1.259-1.845-2.179-2.314
			s-1.958-0.704-3.112-0.704c-0.938,0-1.818,0.1-2.639,0.298c-0.821,0.199-1.729,0.514-2.721,0.947h-4.465v-19.189H1974.577z"/>
		<path style="fill:#FFFFFF;" d="M2002.318,705.717c1.75,0,3.315,0.149,4.695,0.447c1.381,0.298,2.657,0.7,3.83,1.205l-1.786,4.195
			c-0.957-0.396-1.953-0.686-2.991-0.866c-1.037-0.18-2.088-0.271-3.152-0.271c-1.877,0-3.267,0.356-4.168,1.069
			c-0.903,0.713-1.354,1.836-1.354,3.369v5.062h9.554l-0.649,4.465h-8.905v22.058h-6.035v-22.058h-6.496v-4.465h6.496v-5.115
			c0-1.804,0.455-3.388,1.366-4.75s2.188-2.427,3.83-3.194C1998.195,706.101,2000.116,705.717,2002.318,705.717z"/>
		<path style="fill:#FFFFFF;" d="M2023.591,741.93c0-0.974,0.23-1.854,0.69-2.639s1.087-1.412,1.881-1.881s1.678-0.704,2.652-0.704
			c0.992,0,1.885,0.234,2.68,0.704c0.794,0.469,1.421,1.096,1.881,1.881s0.69,1.665,0.69,2.639c0,0.957-0.23,1.836-0.69,2.639
			s-1.087,1.439-1.881,1.908c-0.795,0.469-1.688,0.704-2.68,0.704c-0.975,0-1.858-0.235-2.652-0.704
			c-0.794-0.469-1.421-1.105-1.881-1.908S2023.591,742.887,2023.591,741.93z"/>
		<path style="fill:#FFFFFF;" d="M2056.068,741.93c0-0.974,0.23-1.854,0.69-2.639s1.087-1.412,1.881-1.881s1.678-0.704,2.652-0.704
			c0.992,0,1.885,0.234,2.68,0.704c0.794,0.469,1.421,1.096,1.881,1.881s0.69,1.665,0.69,2.639c0,0.957-0.23,1.836-0.69,2.639
			s-1.087,1.439-1.881,1.908c-0.795,0.469-1.688,0.704-2.68,0.704c-0.975,0-1.858-0.235-2.652-0.704
			c-0.794-0.469-1.421-1.105-1.881-1.908S2056.068,742.887,2056.068,741.93z"/>
		<path style="fill:#FFFFFF;" d="M2088.546,741.93c0-0.974,0.23-1.854,0.69-2.639s1.087-1.412,1.881-1.881s1.678-0.704,2.652-0.704
			c0.992,0,1.885,0.234,2.68,0.704c0.794,0.469,1.421,1.096,1.881,1.881s0.69,1.665,0.69,2.639c0,0.957-0.23,1.836-0.69,2.639
			s-1.087,1.439-1.881,1.908c-0.795,0.469-1.688,0.704-2.68,0.704c-0.975,0-1.858-0.235-2.652-0.704
			c-0.794-0.469-1.421-1.105-1.881-1.908S2088.546,742.887,2088.546,741.93z"/>
		<path style="fill:#FFFFFF;" d="M2131.253,709.101v36.267h-6.008v-30.042l-8.229,5.061l-2.598-4.249l11.476-7.037H2131.253z
			 M2138.723,741.687v4.763h-22.599v-4.763H2138.723z"/>
		<path style="fill:#FFFFFF;" d="M2158.317,708.397c2.833,0,5.196,0.623,7.091,1.868c1.895,1.245,3.315,3,4.263,5.264
			c0.947,2.265,1.421,4.931,1.421,7.998c0,3.699-0.41,6.879-1.231,9.54c-0.82,2.662-2.084,4.922-3.789,6.78
			c-1.705,1.859-3.879,3.419-6.522,4.683s-5.796,2.345-9.459,3.248l-1.326-4.438c3.41-0.92,6.261-2.025,8.553-3.315
			c2.291-1.29,4.055-2.905,5.291-4.845c1.235-1.939,1.953-4.308,2.151-7.104l0.055-2.707c0.018-2.941-0.181-5.323-0.596-7.145
			s-1.101-3.148-2.057-3.979c-0.957-0.83-2.247-1.245-3.87-1.245c-2.075,0-3.673,0.677-4.791,2.03
			c-1.119,1.353-1.678,3.383-1.678,6.09c0,2.634,0.545,4.529,1.638,5.684c1.091,1.155,2.539,1.732,4.344,1.732
			c1.624,0,3.049-0.428,4.276-1.286c1.227-0.857,2.408-2.034,3.545-3.532l-0.054,4.303c-1.191,1.498-2.531,2.711-4.02,3.64
			c-1.488,0.93-3.243,1.394-5.264,1.394c-2.039,0-3.861-0.483-5.468-1.448c-1.605-0.965-2.868-2.345-3.789-4.141
			c-0.92-1.795-1.38-3.911-1.38-6.347c0-2.688,0.563-4.98,1.691-6.875s2.647-3.343,4.561-4.344
			C2153.815,708.897,2155.954,708.397,2158.317,708.397z"/>
		<path style="fill:#FFFFFF;" d="M2193.447,708.343c1.533,0,2.937,0.203,4.209,0.609c1.271,0.406,2.431,0.961,3.478,1.665
			l-2.354,3.897c-0.794-0.523-1.642-0.916-2.544-1.177s-1.823-0.393-2.761-0.393c-1.786,0-3.325,0.586-4.614,1.759
			c-1.291,1.173-2.278,2.842-2.964,5.007c-0.686,2.166-1.028,4.746-1.028,7.741l0.054,2.084c0,4.457,0.51,7.745,1.529,9.865
			s2.765,3.18,5.237,3.18c2.074,0,3.622-0.78,4.642-2.341c1.019-1.561,1.529-3.604,1.529-6.13c0-1.93-0.235-3.455-0.704-4.574
			c-0.47-1.119-1.128-1.922-1.976-2.409c-0.849-0.487-1.85-0.731-3.004-0.731c-1.643,0-3.131,0.479-4.466,1.435
			c-1.336,0.957-2.437,2.219-3.302,3.789l-0.108-4.547c1.208-1.84,2.589-3.171,4.141-3.992c1.552-0.821,3.221-1.231,5.007-1.231
			c1.931,0,3.694,0.447,5.291,1.34c1.598,0.893,2.874,2.229,3.83,4.005c0.956,1.777,1.435,3.992,1.435,6.645s-0.537,4.98-1.61,6.983
			c-1.074,2.003-2.54,3.563-4.398,4.682s-3.97,1.678-6.333,1.678c-2.346,0-4.344-0.442-5.995-1.326
			c-1.65-0.884-2.99-2.138-4.019-3.762s-1.782-3.541-2.26-5.751c-0.479-2.21-0.718-4.632-0.718-7.267
			c0-4.168,0.591-7.804,1.772-10.907s2.874-5.517,5.075-7.24S2190.362,708.343,2193.447,708.343z"/>
		<path style="fill:#FFFFFF;" d="M2223.272,708.397c2.833,0,5.196,0.623,7.091,1.868c1.895,1.245,3.315,3,4.263,5.264
			c0.947,2.265,1.421,4.931,1.421,7.998c0,3.699-0.41,6.879-1.231,9.54c-0.82,2.662-2.084,4.922-3.789,6.78
			c-1.705,1.859-3.879,3.419-6.522,4.683s-5.796,2.345-9.459,3.248l-1.326-4.438c3.41-0.92,6.261-2.025,8.553-3.315
			c2.291-1.29,4.055-2.905,5.291-4.845c1.235-1.939,1.953-4.308,2.151-7.104l0.055-2.707c0.018-2.941-0.181-5.323-0.596-7.145
			s-1.101-3.148-2.057-3.979c-0.957-0.83-2.247-1.245-3.87-1.245c-2.075,0-3.673,0.677-4.791,2.03
			c-1.119,1.353-1.678,3.383-1.678,6.09c0,2.634,0.545,4.529,1.638,5.684c1.091,1.155,2.539,1.732,4.344,1.732
			c1.624,0,3.049-0.428,4.276-1.286c1.227-0.857,2.408-2.034,3.545-3.532l-0.054,4.303c-1.191,1.498-2.531,2.711-4.02,3.64
			c-1.488,0.93-3.243,1.394-5.264,1.394c-2.039,0-3.861-0.483-5.468-1.448c-1.605-0.965-2.868-2.345-3.789-4.141
			c-0.92-1.795-1.38-3.911-1.38-6.347c0-2.688,0.563-4.98,1.691-6.875s2.647-3.343,4.561-4.344
			C2218.771,708.897,2220.909,708.397,2223.272,708.397z"/>
	</g>
	<g>
		<path style="fill:#FFFFFF;" d="M3167.066,671.055v-37.133h25.116l-0.758,5.196h-17.646v10.393h16.13v5.196h-16.13v11.151h17.917
			l0.812,5.196H3167.066z"/>
		<path style="fill:#FFFFFF;" d="M3198.732,671.055v-27.66h4.601l0.812,4.06c1.046-1.516,2.345-2.661,3.897-3.438
			c1.551-0.775,3.283-1.164,5.196-1.164c1.912,0,3.59,0.361,5.034,1.083c1.442,0.722,2.57,1.778,3.383,3.167
			c0.812,1.39,1.218,3.095,1.218,5.115v18.837h-6.279v-17.701c0-2.057-0.479-3.527-1.435-4.411s-2.282-1.326-3.979-1.326
			c-1.118,0-2.147,0.28-3.085,0.839c-0.938,0.56-1.688,1.308-2.246,2.246c-0.561,0.939-0.84,2.003-0.84,3.194v17.159H3198.732z"/>
		<path style="fill:#FFFFFF;" d="M3241.928,671.597c-2.31,0-4.384-0.568-6.225-1.705s-3.284-2.734-4.33-4.791
			c-1.047-2.057-1.57-4.439-1.57-7.146v-1.461c0-2.057,0.325-3.915,0.975-5.575c0.649-1.66,1.543-3.094,2.68-4.303
			c1.137-1.209,2.463-2.138,3.979-2.788c1.516-0.649,3.14-0.974,4.871-0.974h0.812c2.345,0,4.385,0.469,6.116,1.407
			c1.732,0.939,3.076,2.256,4.033,3.952c0.955,1.697,1.435,3.717,1.435,6.062h-5.576c0-1.587-0.262-2.914-0.784-3.979
			c-0.523-1.064-1.245-1.858-2.165-2.382c-0.921-0.522-1.995-0.785-3.221-0.785c-1.877,0-3.438,0.632-4.683,1.895
			c-1.245,1.264-1.867,3.176-1.867,5.738v4.763c0,2.563,0.604,4.502,1.813,5.819c1.208,1.318,2.805,1.976,4.79,1.976
			c1.299,0,2.427-0.244,3.383-0.731c0.956-0.487,1.696-1.253,2.22-2.3c0.522-1.046,0.785-2.417,0.785-4.114h5.305
			c0,2.418-0.523,4.484-1.57,6.198c-1.047,1.714-2.472,3.013-4.276,3.897c-1.805,0.884-3.843,1.326-6.116,1.326H3241.928z"/>
		<path style="fill:#FFFFFF;" d="M3261.144,671.055v-27.66h4.709l0.812,4.06c0.072-0.108,0.253-0.396,0.542-0.866
			c0.288-0.468,0.739-0.992,1.354-1.57c0.612-0.577,1.389-1.083,2.327-1.516c0.938-0.433,2.074-0.649,3.41-0.649
			c1.912,0,3.473,0.379,4.683,1.137c1.208,0.758,2.11,1.795,2.706,3.112c0.596,1.318,0.894,2.824,0.894,4.52
			c0,0.397-0.019,0.804-0.055,1.218c-0.036,0.416-0.072,0.767-0.108,1.056h-5.305v-1.083c0-0.758-0.145-1.534-0.433-2.328
			c-0.289-0.793-0.776-1.461-1.462-2.003c-0.686-0.541-1.643-0.812-2.868-0.812c-0.903,0-1.67,0.189-2.301,0.568
			c-0.632,0.379-1.146,0.858-1.543,1.435c-0.397,0.578-0.677,1.2-0.839,1.868c-0.162,0.668-0.244,1.291-0.244,1.867v17.646H3261.144
			z"/>
		<path style="fill:#FFFFFF;" d="M3290.751,681.124c-0.83,0-1.597-0.063-2.3-0.189c-0.704-0.127-1.363-0.316-1.976-0.568v-4.818
			c0.396,0.18,0.92,0.333,1.569,0.46s1.28,0.189,1.895,0.189c0.938,0,1.723-0.181,2.354-0.541c0.631-0.361,1.191-0.957,1.678-1.786
			c0.487-0.831,0.966-1.914,1.435-3.248l-10.825-27.227h6.766l7.091,19.433h0.325l6.874-19.433h6.226l-10.23,26.415
			c-0.795,2.093-1.67,3.997-2.626,5.711c-0.956,1.713-2.093,3.076-3.41,4.087C3294.278,680.618,3292.664,681.124,3290.751,681.124z"
			/>
		<path style="fill:#FFFFFF;" d="M3316.517,680.853v-37.458h4.817l0.812,3.735c0.866-1.299,2.003-2.336,3.41-3.113
			c1.407-0.775,3.049-1.164,4.926-1.164c2.093,0,3.987,0.46,5.684,1.38s3.049,2.4,4.06,4.438c1.01,2.039,1.516,4.719,1.516,8.039
			v1.137c0,2.996-0.487,5.521-1.461,7.578c-0.975,2.057-2.283,3.6-3.925,4.628c-1.643,1.028-3.456,1.543-5.44,1.543
			c-1.948,0-3.6-0.371-4.952-1.11c-1.354-0.739-2.392-1.687-3.113-2.842v13.208H3316.517z M3329.075,667.212
			c1.154,0,2.192-0.298,3.112-0.893c0.92-0.596,1.642-1.479,2.165-2.652c0.522-1.172,0.785-2.625,0.785-4.357v-3.789
			c0-1.984-0.263-3.59-0.785-4.818c-0.523-1.226-1.245-2.128-2.165-2.706c-0.92-0.577-1.958-0.866-3.112-0.866
			c-1.119,0-2.157,0.28-3.112,0.839c-0.957,0.56-1.724,1.444-2.301,2.652c-0.578,1.209-0.866,2.824-0.866,4.845v3.843
			c0,1.769,0.279,3.239,0.839,4.412c0.56,1.173,1.317,2.048,2.273,2.625C3326.864,666.923,3327.92,667.212,3329.075,667.212z"/>
		<path style="fill:#FFFFFF;" d="M3357.113,671.597c-1.443,0-2.733-0.217-3.87-0.65s-2.021-1.145-2.652-2.138
			c-0.632-0.992-0.947-2.3-0.947-3.924v-16.672h-3.031v-4.817h3.193l2.22-8.823h3.897v8.823h6.441v4.817h-6.441v15.427
			c0,1.588,0.325,2.599,0.975,3.032c0.649,0.433,1.353,0.649,2.11,0.649c0.397,0,0.947-0.09,1.651-0.271
			c0.704-0.18,1.272-0.36,1.705-0.542v4.06c-0.433,0.217-0.957,0.406-1.569,0.568c-0.614,0.163-1.245,0.279-1.895,0.352
			C3358.25,671.56,3357.655,671.597,3357.113,671.597z"/>
		<path style="fill:#FFFFFF;" d="M3380.39,671.597c-2.526,0-4.746-0.533-6.658-1.597c-1.913-1.064-3.401-2.625-4.466-4.682
			s-1.597-4.547-1.597-7.47v-1.245c0-2.923,0.568-5.413,1.705-7.47c1.137-2.057,2.688-3.618,4.655-4.683
			c1.966-1.064,4.213-1.597,6.739-1.597h0.703c2.346,0,4.402,0.479,6.171,1.435c1.768,0.957,3.14,2.319,4.114,4.087
			c0.974,1.768,1.461,3.843,1.461,6.225v3.41h-18.999c0,1.913,0.252,3.573,0.758,4.98c0.505,1.407,1.253,2.481,2.246,3.221
			c0.992,0.74,2.228,1.11,3.708,1.11c1.227,0,2.318-0.244,3.274-0.731c0.956-0.487,1.714-1.218,2.273-2.192
			c0.56-0.974,0.84-2.183,0.84-3.626h5.899c0,2.165-0.541,4.06-1.624,5.684c-1.082,1.624-2.544,2.888-4.384,3.789
			c-1.841,0.902-3.934,1.354-6.279,1.354H3380.39z M3374.272,654.545h12.774c0-2.525-0.55-4.393-1.65-5.602
			c-1.102-1.209-2.607-1.813-4.52-1.813c-1.806,0-3.329,0.623-4.574,1.867C3375.058,650.242,3374.381,652.092,3374.272,654.545z"/>
		<path style="fill:#FFFFFF;" d="M3410.377,671.597c-2.093,0-4.006-0.506-5.737-1.516c-1.732-1.01-3.122-2.58-4.168-4.709
			c-1.047-2.129-1.57-4.853-1.57-8.174v-0.595c0-3.031,0.496-5.566,1.489-7.605c0.992-2.038,2.309-3.572,3.951-4.601
			c1.642-1.028,3.455-1.542,5.44-1.542c1.948,0,3.607,0.371,4.979,1.11c1.371,0.74,2.417,1.687,3.14,2.842v-14.724h6.279v38.974
			h-4.872l-0.758-3.735c-0.902,1.299-2.021,2.337-3.356,3.112C3413.859,671.208,3412.253,671.597,3410.377,671.597z
			 M3411.622,667.32c1.154,0,2.201-0.279,3.14-0.839c0.938-0.559,1.695-1.453,2.273-2.68c0.577-1.227,0.866-2.833,0.866-4.817
			v-3.843c0-1.768-0.28-3.239-0.839-4.412c-0.561-1.172-1.318-2.048-2.273-2.625c-0.957-0.577-2.013-0.866-3.167-0.866
			c-1.732,0-3.186,0.659-4.357,1.976c-1.173,1.318-1.759,3.293-1.759,5.927v3.789c0,1.985,0.271,3.591,0.812,4.817
			c0.541,1.228,1.272,2.13,2.192,2.707C3409.43,667.032,3410.467,667.32,3411.622,667.32z"/>
		<path style="fill:#FFFFFF;" d="M3444.153,671.055v-38.974h6.278v14.94c1.011-1.371,2.247-2.409,3.708-3.112
			c1.462-0.704,3.022-1.056,4.683-1.056c1.841,0,3.473,0.361,4.898,1.083c1.426,0.722,2.553,1.778,3.384,3.167
			c0.829,1.39,1.244,3.095,1.244,5.115v18.837h-6.278v-17.701c0-2.057-0.487-3.527-1.462-4.411s-2.31-1.326-4.006-1.326
			c-1.118,0-2.147,0.28-3.085,0.839c-0.938,0.56-1.688,1.308-2.246,2.246c-0.561,0.939-0.84,2.003-0.84,3.194v17.159H3444.153z"/>
		<path style="fill:#FFFFFF;" d="M3483.613,671.597c-1.48,0-2.896-0.235-4.249-0.704c-1.354-0.468-2.463-1.272-3.329-2.409
			s-1.3-2.679-1.3-4.628c0-1.984,0.442-3.59,1.326-4.817c0.885-1.227,2.139-2.166,3.763-2.815s3.572-1.091,5.846-1.326
			c2.273-0.234,4.799-0.352,7.578-0.352v-2.598c0-1.804-0.46-3.076-1.38-3.816c-0.921-0.739-2.319-1.11-4.195-1.11
			c-1.552,0-2.923,0.343-4.114,1.028c-1.19,0.686-1.786,1.769-1.786,3.248v0.541h-6.062c-0.036-0.144-0.054-0.315-0.054-0.514
			c0-0.198,0-0.387,0-0.568c0-1.587,0.495-2.977,1.488-4.168c0.992-1.191,2.372-2.111,4.141-2.761
			c1.768-0.649,3.789-0.974,6.062-0.974h0.921c3.752,0,6.55,0.74,8.39,2.219c1.841,1.48,2.761,3.555,2.761,6.225v14.128
			c0,0.686,0.162,1.173,0.487,1.461c0.324,0.289,0.685,0.433,1.082,0.433c0.36,0,0.749-0.072,1.164-0.217
			c0.415-0.144,0.803-0.306,1.164-0.487v3.843c-0.47,0.361-1.064,0.64-1.786,0.839c-0.723,0.198-1.589,0.298-2.599,0.298
			c-1.19,0-2.175-0.217-2.95-0.65c-0.776-0.433-1.362-1.019-1.759-1.759c-0.397-0.739-0.632-1.578-0.704-2.517
			c-1.047,1.552-2.4,2.76-4.06,3.626C3487.799,671.164,3485.851,671.597,3483.613,671.597z M3486.319,667.32
			c1.154,0,2.255-0.261,3.302-0.785c1.047-0.522,1.913-1.308,2.599-2.354c0.686-1.046,1.028-2.363,1.028-3.952v-2.111
			c-2.526,0-4.691,0.135-6.495,0.406c-1.806,0.271-3.176,0.767-4.114,1.489c-0.938,0.722-1.407,1.805-1.407,3.248
			c0,1.444,0.433,2.482,1.299,3.113C3483.396,667.005,3484.659,667.32,3486.319,667.32z"/>
		<path style="fill:#FFFFFF;" d="M3518.742,671.597c-1.841,0-3.465-0.226-4.872-0.677s-2.598-1.056-3.572-1.813
			s-1.715-1.624-2.22-2.598c-0.505-0.975-0.758-1.984-0.758-3.031c0-0.217,0-0.396,0-0.542c0-0.144,0.019-0.342,0.055-0.595h5.413
			c-0.036,0.108-0.055,0.208-0.055,0.298c0,0.09,0,0.171,0,0.243c0,1.011,0.325,1.841,0.975,2.49s1.507,1.137,2.571,1.461
			c1.063,0.325,2.246,0.487,3.546,0.487c1.082,0,2.11-0.144,3.085-0.433c0.975-0.289,1.768-0.712,2.382-1.272
			c0.613-0.559,0.92-1.253,0.92-2.084c0-0.938-0.324-1.66-0.975-2.166c-0.649-0.505-1.507-0.901-2.57-1.19
			c-1.065-0.289-2.238-0.542-3.519-0.758c-1.281-0.217-2.571-0.478-3.871-0.785c-1.299-0.306-2.481-0.739-3.545-1.299
			c-1.064-0.559-1.922-1.326-2.571-2.301c-0.649-0.974-0.975-2.255-0.975-3.843c0-1.299,0.289-2.471,0.866-3.519
			c0.577-1.046,1.389-1.921,2.436-2.625s2.273-1.245,3.682-1.624c1.407-0.379,2.923-0.568,4.547-0.568h0.866
			c1.516,0,2.931,0.199,4.249,0.595c1.316,0.398,2.463,0.939,3.437,1.624c0.975,0.686,1.732,1.48,2.273,2.382
			c0.542,0.902,0.812,1.859,0.812,2.869c0,0.181-0.01,0.379-0.027,0.596c-0.019,0.216-0.027,0.361-0.027,0.433h-5.467v-0.542
			c0-0.36-0.091-0.749-0.271-1.164c-0.181-0.415-0.506-0.812-0.975-1.191s-1.092-0.694-1.867-0.947
			c-0.776-0.252-1.759-0.379-2.95-0.379c-1.082,0-2.003,0.108-2.761,0.325s-1.372,0.497-1.84,0.839
			c-0.47,0.344-0.804,0.713-1.002,1.11c-0.198,0.397-0.298,0.776-0.298,1.137c0,0.831,0.325,1.48,0.975,1.949
			c0.649,0.469,1.516,0.839,2.599,1.109c1.082,0.271,2.273,0.506,3.572,0.704c1.299,0.199,2.589,0.452,3.87,0.758
			c1.28,0.307,2.463,0.75,3.546,1.327c1.082,0.578,1.948,1.353,2.598,2.327c0.649,0.975,0.975,2.256,0.975,3.843
			c0,1.661-0.316,3.077-0.947,4.25c-0.632,1.173-1.507,2.103-2.625,2.788c-1.119,0.686-2.392,1.191-3.816,1.516
			c-1.426,0.325-2.933,0.487-4.52,0.487H3518.742z"/>
		<path style="fill:#FFFFFF;" d="M3538.5,671.055v-38.974h6.278v14.94c1.011-1.371,2.247-2.409,3.708-3.112
			c1.462-0.704,3.022-1.056,4.683-1.056c1.841,0,3.473,0.361,4.898,1.083c1.426,0.722,2.553,1.778,3.384,3.167
			c0.829,1.39,1.244,3.095,1.244,5.115v18.837h-6.278v-17.701c0-2.057-0.487-3.527-1.462-4.411s-2.31-1.326-4.006-1.326
			c-1.118,0-2.147,0.28-3.085,0.839c-0.938,0.56-1.688,1.308-2.246,2.246c-0.561,0.939-0.84,2.003-0.84,3.194v17.159H3538.5z"/>
		<path style="fill:#FFFFFF;" d="M3570.814,649.891v-6.496h6.55v6.496H3570.814z M3570.814,671.055v-6.496h6.55v6.496H3570.814z"/>
		<path style="fill:#FFFFFF;" d="M3217.677,742.201c1.335,0,2.58-0.23,3.734-0.69c1.155-0.46,2.256-1.06,3.303-1.8l2.814,3.897
			c-1.245,1.065-2.757,1.926-4.533,2.584c-1.777,0.659-3.613,0.988-5.508,0.988c-2.923,0-5.423-0.619-7.497-1.854
			c-2.075-1.236-3.663-2.973-4.764-5.21s-1.65-4.845-1.65-7.822c0-2.905,0.555-5.499,1.664-7.781
			c1.109-2.282,2.711-4.087,4.804-5.413s4.61-1.989,7.552-1.989c1.948,0,3.743,0.289,5.386,0.866
			c1.642,0.578,3.148,1.434,4.52,2.571l-2.787,3.816c-1.119-0.775-2.261-1.367-3.424-1.773c-1.164-0.406-2.359-0.609-3.586-0.609
			c-2.256,0-4.101,0.83-5.535,2.49s-2.151,4.267-2.151,7.822c0,2.381,0.329,4.299,0.987,5.751c0.658,1.453,1.565,2.508,2.721,3.167
			C3214.88,741.872,3216.197,742.201,3217.677,742.201z"/>
		<path style="fill:#FFFFFF;" d="M3252.779,709.101v36.267h-6.008v-30.042l-8.229,5.061l-2.598-4.249l11.476-7.037H3252.779z
			 M3260.249,741.687v4.763h-22.599v-4.763H3260.249z"/>
		<path style="fill:#FFFFFF;" d="M3286.231,705.717c1.75,0,3.315,0.149,4.695,0.447c1.381,0.298,2.657,0.7,3.83,1.205l-1.786,4.195
			c-0.957-0.396-1.953-0.686-2.991-0.866c-1.037-0.18-2.088-0.271-3.152-0.271c-1.877,0-3.267,0.356-4.168,1.069
			c-0.903,0.713-1.354,1.836-1.354,3.369v5.062h9.554l-0.649,4.465h-8.904v22.058h-6.035v-22.058h-6.496v-4.465h6.496v-5.115
			c0-1.804,0.455-3.388,1.366-4.75s2.188-2.427,3.83-3.194C3282.108,706.101,3284.029,705.717,3286.231,705.717z"/>
		<path style="fill:#FFFFFF;" d="M3311.131,708.343c2.472,0,4.601,0.433,6.387,1.299c1.787,0.866,3.157,2.012,4.114,3.437
			c0.956,1.426,1.435,2.996,1.435,4.709c0,1.534-0.325,2.905-0.975,4.114c-0.649,1.209-1.533,2.21-2.652,3.004
			s-2.382,1.353-3.789,1.678c1.57,0.163,3.004,0.596,4.304,1.299c1.299,0.704,2.341,1.705,3.126,3.004
			c0.784,1.299,1.177,2.933,1.177,4.899c0,2.129-0.555,4.056-1.664,5.778c-1.109,1.723-2.68,3.09-4.709,4.101
			c-2.03,1.01-4.417,1.516-7.159,1.516c-2.346,0-4.578-0.433-6.698-1.299s-3.921-2.174-5.399-3.924l3.708-3.248
			c1.064,1.245,2.309,2.166,3.734,2.761c1.426,0.596,2.887,0.893,4.385,0.893c2.31,0,4.141-0.6,5.494-1.8
			c1.354-1.2,2.03-2.864,2.03-4.993c0-1.624-0.303-2.91-0.907-3.857s-1.448-1.628-2.53-2.043c-1.083-0.415-2.337-0.623-3.762-0.623
			h-3.221l0.703-4.466h2.273c1.173,0,2.255-0.211,3.248-0.636c0.992-0.424,1.79-1.078,2.396-1.962
			c0.604-0.884,0.906-1.984,0.906-3.302c0-1.822-0.618-3.221-1.854-4.195c-1.236-0.974-2.766-1.461-4.588-1.461
			c-1.552,0-2.937,0.284-4.154,0.853s-2.414,1.403-3.586,2.503l-3.221-3.437c1.642-1.57,3.419-2.729,5.331-3.478
			C3306.927,708.717,3308.966,708.343,3311.131,708.343z"/>
		<path style="fill:#FFFFFF;" d="M3339.98,741.93c0-0.974,0.23-1.854,0.69-2.639s1.087-1.412,1.881-1.881s1.678-0.704,2.652-0.704
			c0.992,0,1.885,0.234,2.68,0.704c0.794,0.469,1.421,1.096,1.881,1.881s0.69,1.665,0.69,2.639c0,0.957-0.23,1.836-0.69,2.639
			s-1.087,1.439-1.881,1.908c-0.795,0.469-1.688,0.704-2.68,0.704c-0.975,0-1.858-0.235-2.652-0.704
			c-0.794-0.469-1.421-1.105-1.881-1.908S3339.98,742.887,3339.98,741.93z"/>
		<path style="fill:#FFFFFF;" d="M3372.458,741.93c0-0.974,0.23-1.854,0.69-2.639s1.087-1.412,1.881-1.881s1.678-0.704,2.652-0.704
			c0.992,0,1.885,0.234,2.68,0.704c0.794,0.469,1.421,1.096,1.881,1.881s0.69,1.665,0.69,2.639c0,0.957-0.23,1.836-0.69,2.639
			s-1.087,1.439-1.881,1.908c-0.795,0.469-1.688,0.704-2.68,0.704c-0.975,0-1.858-0.235-2.652-0.704
			c-0.794-0.469-1.421-1.105-1.881-1.908S3372.458,742.887,3372.458,741.93z"/>
		<path style="fill:#FFFFFF;" d="M3404.936,741.93c0-0.974,0.23-1.854,0.69-2.639s1.087-1.412,1.881-1.881s1.678-0.704,2.652-0.704
			c0.992,0,1.885,0.234,2.68,0.704c0.794,0.469,1.421,1.096,1.881,1.881s0.69,1.665,0.69,2.639c0,0.957-0.23,1.836-0.69,2.639
			s-1.087,1.439-1.881,1.908c-0.795,0.469-1.688,0.704-2.68,0.704c-0.975,0-1.858-0.235-2.652-0.704
			c-0.794-0.469-1.421-1.105-1.881-1.908S3404.936,742.887,3404.936,741.93z"/>
		<path style="fill:#FFFFFF;" d="M3444.883,708.343c1.533,0,2.937,0.203,4.209,0.609c1.271,0.406,2.431,0.961,3.478,1.665
			l-2.354,3.897c-0.794-0.523-1.642-0.916-2.544-1.177s-1.823-0.393-2.761-0.393c-1.786,0-3.325,0.586-4.614,1.759
			c-1.291,1.173-2.278,2.842-2.964,5.007c-0.686,2.166-1.028,4.746-1.028,7.741l0.054,2.084c0,4.457,0.51,7.745,1.529,9.865
			s2.765,3.18,5.237,3.18c2.074,0,3.622-0.78,4.642-2.341c1.019-1.561,1.529-3.604,1.529-6.13c0-1.93-0.235-3.455-0.704-4.574
			c-0.47-1.119-1.128-1.922-1.976-2.409c-0.849-0.487-1.85-0.731-3.004-0.731c-1.643,0-3.131,0.479-4.466,1.435
			c-1.336,0.957-2.437,2.219-3.302,3.789l-0.108-4.547c1.208-1.84,2.589-3.171,4.141-3.992c1.552-0.821,3.221-1.231,5.007-1.231
			c1.931,0,3.694,0.447,5.291,1.34c1.598,0.893,2.874,2.229,3.83,4.005c0.956,1.777,1.435,3.992,1.435,6.645s-0.537,4.98-1.61,6.983
			c-1.074,2.003-2.54,3.563-4.398,4.682s-3.97,1.678-6.333,1.678c-2.346,0-4.344-0.442-5.995-1.326
			c-1.65-0.884-2.99-2.138-4.019-3.762s-1.782-3.541-2.26-5.751c-0.479-2.21-0.718-4.632-0.718-7.267
			c0-4.168,0.591-7.804,1.772-10.907s2.874-5.517,5.075-7.24S3441.798,708.343,3444.883,708.343z"/>
		<path style="fill:#FFFFFF;" d="M3474.708,708.397c2.833,0,5.196,0.623,7.091,1.868c1.895,1.245,3.315,3,4.263,5.264
			c0.947,2.265,1.421,4.931,1.421,7.998c0,3.699-0.41,6.879-1.231,9.54c-0.82,2.662-2.084,4.922-3.789,6.78
			c-1.705,1.859-3.879,3.419-6.522,4.683s-5.796,2.345-9.459,3.248l-1.326-4.438c3.41-0.92,6.261-2.025,8.553-3.315
			c2.291-1.29,4.055-2.905,5.291-4.845c1.235-1.939,1.953-4.308,2.151-7.104l0.055-2.707c0.018-2.941-0.181-5.323-0.596-7.145
			s-1.101-3.148-2.057-3.979c-0.957-0.83-2.247-1.245-3.87-1.245c-2.075,0-3.673,0.677-4.791,2.03
			c-1.119,1.353-1.678,3.383-1.678,6.09c0,2.634,0.545,4.529,1.638,5.684c1.091,1.155,2.539,1.732,4.344,1.732
			c1.624,0,3.049-0.428,4.276-1.286c1.227-0.857,2.408-2.034,3.545-3.532l-0.054,4.303c-1.191,1.498-2.531,2.711-4.02,3.64
			c-1.488,0.93-3.243,1.394-5.264,1.394c-2.039,0-3.861-0.483-5.468-1.448c-1.605-0.965-2.868-2.345-3.789-4.141
			c-0.92-1.795-1.38-3.911-1.38-6.347c0-2.688,0.563-4.98,1.691-6.875s2.647-3.343,4.561-4.344
			C3470.206,708.897,3472.345,708.397,3474.708,708.397z"/>
		<path style="fill:#FFFFFF;" d="M3512.599,709.101v36.267h-6.008v-30.042l-8.229,5.061l-2.598-4.249l11.476-7.037H3512.599z
			 M3520.068,741.687v4.763h-22.599v-4.763H3520.068z"/>
		<path style="fill:#FFFFFF;" d="M3542.45,742.201c1.335,0,2.58-0.23,3.734-0.69c1.155-0.46,2.256-1.06,3.303-1.8l2.814,3.897
			c-1.245,1.065-2.757,1.926-4.533,2.584c-1.777,0.659-3.613,0.988-5.508,0.988c-2.923,0-5.423-0.619-7.497-1.854
			c-2.075-1.236-3.663-2.973-4.764-5.21s-1.65-4.845-1.65-7.822c0-2.905,0.555-5.499,1.664-7.781
			c1.109-2.282,2.711-4.087,4.804-5.413s4.61-1.989,7.552-1.989c1.948,0,3.743,0.289,5.386,0.866
			c1.642,0.578,3.148,1.434,4.52,2.571l-2.787,3.816c-1.119-0.775-2.261-1.367-3.424-1.773c-1.164-0.406-2.359-0.609-3.586-0.609
			c-2.256,0-4.101,0.83-5.535,2.49s-2.151,4.267-2.151,7.822c0,2.381,0.329,4.299,0.987,5.751c0.658,1.453,1.565,2.508,2.721,3.167
			C3539.653,741.872,3540.971,742.201,3542.45,742.201z"/>
	</g>
	<polygon style="fill:#0033AD;" points="914.981,505.246 376.237,505.246 474.931,263.595 1013.675,263.595 	"/>
	<g>
		<path style="fill:#FFFFFF;" d="M563.802,342.513v-5.196h4.33v-26.74h-4.33v-5.196h15.373v5.196h-4.33v26.74h4.33v5.196H563.802z"
			/>
		<path style="fill:#FFFFFF;" d="M586.103,342.513v-27.66h4.601l0.812,4.06c1.046-1.516,2.346-2.661,3.897-3.438
			c1.551-0.775,3.283-1.164,5.196-1.164c1.913,0,3.59,0.361,5.034,1.083c1.443,0.722,2.571,1.778,3.383,3.167
			c0.812,1.39,1.218,3.095,1.218,5.115v18.837h-6.279v-17.701c0-2.057-0.479-3.527-1.435-4.411
			c-0.957-0.884-2.283-1.326-3.979-1.326c-1.119,0-2.147,0.28-3.085,0.839c-0.939,0.56-1.688,1.308-2.247,2.246
			c-0.56,0.939-0.839,2.003-0.839,3.194v17.159H586.103z"/>
		<path style="fill:#FFFFFF;" d="M618.31,352.311v-37.458h4.817l0.812,3.735c0.866-1.299,2.003-2.336,3.41-3.113
			c1.407-0.775,3.049-1.164,4.926-1.164c2.092,0,3.987,0.46,5.684,1.38c1.696,0.92,3.049,2.4,4.06,4.438
			c1.01,2.039,1.516,4.719,1.516,8.039v1.137c0,2.996-0.487,5.521-1.461,7.578c-0.974,2.057-2.283,3.6-3.924,4.628
			c-1.643,1.028-3.456,1.543-5.44,1.543c-1.949,0-3.6-0.371-4.953-1.11c-1.353-0.739-2.391-1.687-3.112-2.842v13.208H618.31z
			 M630.868,338.67c1.154,0,2.192-0.298,3.112-0.893c0.92-0.596,1.642-1.479,2.165-2.652c0.523-1.172,0.785-2.625,0.785-4.357
			v-3.789c0-1.984-0.262-3.59-0.785-4.818c-0.523-1.226-1.245-2.128-2.165-2.706c-0.92-0.577-1.958-0.866-3.112-0.866
			c-1.119,0-2.157,0.28-3.113,0.839c-0.957,0.56-1.724,1.444-2.3,2.652c-0.578,1.209-0.866,2.824-0.866,4.845v3.843
			c0,1.769,0.279,3.239,0.839,4.412c0.559,1.173,1.317,2.048,2.273,2.625C628.657,338.381,629.713,338.67,630.868,338.67z"/>
		<path style="fill:#FFFFFF;" d="M659.339,343.055c-2.851,0-5.107-0.785-6.766-2.355c-1.661-1.57-2.49-3.942-2.49-7.118v-18.729
			h6.279v17.321c0,2.202,0.441,3.771,1.326,4.709c0.884,0.938,2.173,1.407,3.87,1.407c1.154,0,2.219-0.279,3.194-0.839
			c0.974-0.559,1.759-1.317,2.354-2.273c0.595-0.956,0.893-2.011,0.893-3.167v-17.159h6.279v22.031c0,0.686,0.162,1.173,0.487,1.461
			c0.325,0.289,0.685,0.433,1.083,0.433c0.396,0,0.793-0.072,1.19-0.217c0.397-0.144,0.776-0.306,1.137-0.487v3.843
			c-0.469,0.361-1.064,0.64-1.786,0.839c-0.722,0.198-1.57,0.298-2.544,0.298c-1.191,0-2.166-0.208-2.923-0.623
			c-0.758-0.415-1.326-0.975-1.705-1.678s-0.659-1.452-0.839-2.246c-0.902,1.443-2.174,2.562-3.816,3.356
			C662.92,342.657,661.18,343.055,659.339,343.055z"/>
		<path style="fill:#FFFFFF;" d="M692.521,343.055c-1.444,0-2.734-0.217-3.871-0.65s-2.021-1.145-2.652-2.138
			c-0.632-0.992-0.947-2.3-0.947-3.924V319.67h-3.031v-4.817h3.194l2.219-8.823h3.897v8.823h6.441v4.817h-6.441v15.427
			c0,1.588,0.325,2.599,0.974,3.032c0.65,0.433,1.354,0.649,2.111,0.649c0.396,0,0.947-0.09,1.651-0.271
			c0.704-0.18,1.272-0.36,1.705-0.542v4.06c-0.433,0.217-0.957,0.406-1.57,0.568c-0.614,0.163-1.245,0.279-1.895,0.352
			C693.658,343.018,693.062,343.055,692.521,343.055z"/>
		<path style="fill:#FFFFFF;" d="M724.673,342.513v-31.937h-11.096v-5.196h28.905v5.196h-11.097v31.937H724.673z"/>
		<path style="fill:#FFFFFF;" d="M756.934,343.055c-2.526,0-4.746-0.533-6.658-1.597c-1.913-1.064-3.402-2.625-4.466-4.682
			c-1.065-2.057-1.597-4.547-1.597-7.47v-1.245c0-2.923,0.568-5.413,1.705-7.47c1.137-2.057,2.688-3.618,4.655-4.683
			c1.966-1.064,4.212-1.597,6.739-1.597h0.704c2.345,0,4.402,0.479,6.17,1.435c1.768,0.957,3.14,2.319,4.114,4.087
			c0.974,1.768,1.461,3.843,1.461,6.225v3.41h-19c0,1.913,0.252,3.573,0.758,4.98c0.505,1.407,1.253,2.481,2.246,3.221
			c0.992,0.74,2.228,1.11,3.708,1.11c1.227,0,2.318-0.244,3.275-0.731c0.956-0.487,1.713-1.218,2.273-2.192
			c0.559-0.974,0.839-2.183,0.839-3.626h5.9c0,2.165-0.542,4.06-1.624,5.684s-2.544,2.888-4.385,3.789
			c-1.84,0.902-3.934,1.354-6.279,1.354H756.934z M750.817,326.003h12.775c0-2.525-0.551-4.393-1.651-5.602
			c-1.102-1.209-2.608-1.813-4.52-1.813c-1.805,0-3.329,0.623-4.574,1.867C751.603,321.7,750.926,323.55,750.817,326.003z"/>
		<path style="fill:#FFFFFF;" d="M773.335,342.513l9.798-14.398l-9.094-13.262h7.362l5.954,9.094h0.108l6.008-9.094h6.875
			l-9.202,13.424l9.743,14.236h-7.362l-6.55-10.068h-0.108l-6.658,10.068H773.335z"/>
		<path style="fill:#FFFFFF;" d="M814.636,343.055c-1.444,0-2.734-0.217-3.871-0.65s-2.021-1.145-2.652-2.138
			c-0.632-0.992-0.947-2.3-0.947-3.924V319.67h-3.031v-4.817h3.194l2.219-8.823h3.897v8.823h6.441v4.817h-6.441v15.427
			c0,1.588,0.325,2.599,0.974,3.032c0.65,0.433,1.354,0.649,2.111,0.649c0.396,0,0.947-0.09,1.651-0.271
			c0.704-0.18,1.272-0.36,1.705-0.542v4.06c-0.433,0.217-0.957,0.406-1.57,0.568c-0.614,0.163-1.245,0.279-1.895,0.352
			C815.772,343.018,815.177,343.055,814.636,343.055z"/>
		<path style="fill:#FFFFFF;" d="M656.091,397.323V360.19h25.116l-0.758,5.196h-17.646v10.393h16.131v5.196h-16.131v11.151h17.917
			l0.812,5.196H656.091z"/>
		<path style="fill:#FFFFFF;" d="M687.541,397.323v-6.496h6.55v6.496H687.541z"/>
		<path style="fill:#FFFFFF;" d="M706.431,407.499c-1.263,0-2.409-0.297-3.437-0.893c-1.028-0.595-1.85-1.399-2.463-2.409
			c-0.614-1.011-0.92-2.13-0.92-3.356c0-1.299,0.36-2.526,1.083-3.681c0.722-1.154,1.714-2.021,2.978-2.598
			c-0.794-0.505-1.417-1.154-1.868-1.949c-0.452-0.793-0.677-1.642-0.677-2.544c0-1.334,0.415-2.463,1.245-3.383
			c0.83-0.92,1.912-1.614,3.248-2.084c-1.119-0.721-2.021-1.587-2.707-2.598c-0.686-1.01-1.029-2.237-1.029-3.681
			c0-1.551,0.415-3.031,1.245-4.438c0.83-1.408,2.084-2.553,3.762-3.438c1.678-0.884,3.797-1.326,6.36-1.326
			c1.118,0,2.156,0.063,3.113,0.189c0.956,0.127,1.794,0.334,2.517,0.623c1.407-0.649,2.471-1.435,3.193-2.354
			c0.722-0.92,1.118-1.885,1.191-2.896h5.034c0,1.191-0.226,2.273-0.677,3.248c-0.452,0.975-1.101,1.786-1.949,2.436
			c-0.848,0.649-1.85,1.101-3.004,1.353l-0.054,0.163c0.83,0.722,1.497,1.57,2.003,2.544c0.505,0.975,0.758,2.057,0.758,3.248
			c0,1.588-0.425,3.05-1.272,4.384c-0.848,1.335-2.066,2.409-3.653,3.221c-1.588,0.812-3.501,1.218-5.738,1.218h-4.168
			c-1.119,0-2.003,0.253-2.652,0.758c-0.65,0.506-0.975,1.173-0.975,2.003c0,0.794,0.306,1.444,0.92,1.949
			c0.613,0.506,1.516,0.758,2.707,0.758h10.068c2.382,0,4.258,0.722,5.629,2.165c1.371,1.444,2.057,3.211,2.057,5.305
			c0,1.479-0.352,2.833-1.056,4.06c-0.704,1.226-1.696,2.201-2.977,2.923c-1.281,0.722-2.77,1.083-4.466,1.083H706.431z
			 M708.705,403.439h9.906c1.046,0,1.949-0.352,2.707-1.056s1.137-1.561,1.137-2.571c0-0.866-0.316-1.615-0.947-2.246
			c-0.632-0.631-1.417-0.947-2.354-0.947h-10.447c-1.01,0-1.859,0.334-2.544,1.001c-0.686,0.667-1.028,1.47-1.028,2.409
			c0,0.901,0.342,1.696,1.028,2.382C706.846,403.096,707.694,403.439,708.705,403.439z M713.63,382.816
			c1.804,0,3.221-0.487,4.25-1.461c1.028-0.975,1.542-2.146,1.542-3.519c0-1.371-0.514-2.552-1.542-3.545
			c-1.028-0.992-2.445-1.489-4.25-1.489c-1.805,0-3.221,0.497-4.249,1.489c-1.028,0.993-1.542,2.174-1.542,3.545
			c0,1.372,0.514,2.544,1.542,3.519C710.41,382.329,711.826,382.816,713.63,382.816z"/>
		<path style="fill:#FFFFFF;" d="M732.629,397.323v-7.362h7.47v7.362H732.629z"/>
		<path style="fill:#FFFFFF;" d="M592.923,436.222l-0.92-14.48h6.604l-0.893,14.48H592.923z M602.477,436.222l-0.92-14.48h6.631
			l-0.92,14.48H602.477z"/>
		<path style="fill:#FFFFFF;" d="M638.662,461.798v-16.97h-12.179v16.97h-6.279v-37.35h6.279v15.21h12.179v-15.21h6.279v37.35
			H638.662z"/>
		<path style="fill:#FFFFFF;" d="M658.662,449.457c0.126,1.949,0.542,3.542,1.245,4.777s1.628,2.143,2.774,2.72
			c1.146,0.578,2.404,0.866,3.776,0.866c1.407,0,2.707-0.216,3.897-0.649c1.191-0.433,2.391-1.046,3.6-1.841l2.625,3.627
			c-1.335,1.083-2.896,1.949-4.682,2.598s-3.699,0.975-5.738,0.975c-2.959,0-5.463-0.632-7.511-1.895
			c-2.048-1.263-3.604-3.022-4.668-5.278c-1.065-2.255-1.597-4.862-1.597-7.822c0-2.869,0.523-5.436,1.569-7.7
			c1.046-2.264,2.544-4.06,4.493-5.386s4.276-1.989,6.982-1.989c2.544,0,4.732,0.578,6.563,1.732
			c1.831,1.155,3.248,2.792,4.249,4.913s1.502,4.668,1.502,7.646c0,0.487-0.014,0.97-0.041,1.448
			c-0.027,0.478-0.059,0.898-0.095,1.258H658.662z M665.482,436.953c-1.895,0-3.46,0.677-4.696,2.03
			c-1.236,1.354-1.953,3.464-2.151,6.333h13.234c-0.054-2.688-0.627-4.754-1.718-6.198
			C669.06,437.675,667.503,436.953,665.482,436.953z"/>
		<path style="fill:#FFFFFF;" d="M698.664,421.742v32.261c0,1.317,0.401,2.251,1.205,2.801c0.803,0.551,1.845,0.826,3.126,0.826
			c0.83,0,1.615-0.09,2.354-0.271s1.461-0.406,2.166-0.677l1.542,4.222c-0.848,0.433-1.89,0.812-3.126,1.137
			s-2.648,0.487-4.236,0.487c-2.869,0-5.102-0.808-6.698-2.422c-1.597-1.615-2.396-3.83-2.396-6.645v-27.254h-8.634v-4.466H698.664z
			"/>
		<path style="fill:#FFFFFF;" d="M731.141,421.742v32.261c0,1.317,0.401,2.251,1.205,2.801c0.803,0.551,1.845,0.826,3.126,0.826
			c0.83,0,1.615-0.09,2.354-0.271s1.461-0.406,2.166-0.677l1.542,4.222c-0.848,0.433-1.89,0.812-3.126,1.137
			s-2.648,0.487-4.236,0.487c-2.869,0-5.102-0.808-6.698-2.422c-1.597-1.615-2.396-3.83-2.396-6.645v-27.254h-8.634v-4.466H731.141z
			"/>
		<path style="fill:#FFFFFF;" d="M762.509,432.46c2.796,0,5.151,0.623,7.064,1.868c1.912,1.245,3.36,2.986,4.344,5.223
			c0.983,2.238,1.475,4.872,1.475,7.903c0,3.013-0.5,5.652-1.502,7.917s-2.463,4.023-4.385,5.277
			c-1.921,1.254-4.263,1.881-7.023,1.881c-2.76,0-5.102-0.609-7.023-1.827c-1.922-1.218-3.383-2.954-4.385-5.21
			c-1.001-2.255-1.502-4.917-1.502-7.984c0-2.978,0.5-5.593,1.502-7.849c1.001-2.255,2.467-4.019,4.398-5.291
			S759.748,432.46,762.509,432.46z M762.509,437.169c-2.184,0-3.826,0.834-4.926,2.503c-1.101,1.669-1.651,4.281-1.651,7.835
			c0,3.537,0.545,6.144,1.637,7.821c1.091,1.678,2.729,2.517,4.912,2.517s3.821-0.839,4.913-2.517
			c1.091-1.678,1.637-4.303,1.637-7.875c0-3.519-0.541-6.112-1.624-7.781C766.325,438.004,764.691,437.169,762.509,437.169z"/>
		<path style="fill:#FFFFFF;" d="M787.787,436.222l-0.92-14.48h6.604l-0.893,14.48H787.787z M797.341,436.222l-0.92-14.48h6.631
			l-0.92,14.48H797.341z"/>
	</g>
	<g>
		<path style="fill:#FFFFFF;" d="M3378.463,342.513v-5.196h4.33v-26.74h-4.33v-5.196h15.372v5.196h-4.33v26.74h4.33v5.196H3378.463z
			"/>
		<path style="fill:#FFFFFF;" d="M3400.764,342.513v-27.66h4.601l0.812,4.06c1.047-1.516,2.346-2.661,3.898-3.438
			c1.551-0.775,3.283-1.164,5.195-1.164c1.913,0,3.591,0.361,5.035,1.083c1.442,0.722,2.57,1.778,3.383,3.167
			c0.812,1.39,1.218,3.095,1.218,5.115v18.837h-6.278v-17.701c0-2.057-0.479-3.527-1.436-4.411s-2.282-1.326-3.979-1.326
			c-1.119,0-2.146,0.28-3.085,0.839c-0.938,0.56-1.688,1.308-2.247,2.246c-0.559,0.939-0.838,2.003-0.838,3.194v17.159H3400.764z"/>
		<path style="fill:#FFFFFF;" d="M3432.971,352.311v-37.458h4.817l0.812,3.735c0.867-1.299,2.004-2.336,3.41-3.113
			c1.408-0.775,3.049-1.164,4.926-1.164c2.093,0,3.987,0.46,5.684,1.38s3.049,2.4,4.061,4.438c1.01,2.039,1.516,4.719,1.516,8.039
			v1.137c0,2.996-0.487,5.521-1.462,7.578c-0.974,2.057-2.282,3.6-3.925,4.628s-3.455,1.543-5.439,1.543
			c-1.949,0-3.6-0.371-4.953-1.11s-2.391-1.687-3.112-2.842v13.208H3432.971z M3445.529,338.67c1.154,0,2.191-0.298,3.111-0.893
			c0.921-0.596,1.643-1.479,2.166-2.652c0.522-1.172,0.785-2.625,0.785-4.357v-3.789c0-1.984-0.263-3.59-0.785-4.818
			c-0.523-1.226-1.245-2.128-2.166-2.706c-0.92-0.577-1.957-0.866-3.111-0.866c-1.119,0-2.157,0.28-3.113,0.839
			c-0.957,0.56-1.724,1.444-2.301,2.652c-0.577,1.209-0.865,2.824-0.865,4.845v3.843c0,1.769,0.279,3.239,0.838,4.412
			c0.56,1.173,1.317,2.048,2.273,2.625C3443.318,338.381,3444.373,338.67,3445.529,338.67z"/>
		<path style="fill:#FFFFFF;" d="M3474,343.055c-2.852,0-5.107-0.785-6.766-2.355c-1.661-1.57-2.49-3.942-2.49-7.118v-18.729h6.279
			v17.321c0,2.202,0.441,3.771,1.326,4.709c0.883,0.938,2.173,1.407,3.869,1.407c1.154,0,2.22-0.279,3.194-0.839
			c0.974-0.559,1.759-1.317,2.354-2.273c0.596-0.956,0.893-2.011,0.893-3.167v-17.159h6.279v22.031c0,0.686,0.162,1.173,0.487,1.461
			c0.325,0.289,0.685,0.433,1.083,0.433c0.396,0,0.793-0.072,1.19-0.217c0.397-0.144,0.776-0.306,1.137-0.487v3.843
			c-0.47,0.361-1.064,0.64-1.786,0.839c-0.723,0.198-1.57,0.298-2.544,0.298c-1.19,0-2.165-0.208-2.923-0.623
			c-0.758-0.415-1.326-0.975-1.705-1.678s-0.659-1.452-0.84-2.246c-0.902,1.443-2.174,2.562-3.815,3.356
			C3477.581,342.657,3475.84,343.055,3474,343.055z"/>
		<path style="fill:#FFFFFF;" d="M3507.182,343.055c-1.443,0-2.733-0.217-3.87-0.65s-2.021-1.145-2.652-2.138
			c-0.632-0.992-0.947-2.3-0.947-3.924V319.67h-3.031v-4.817h3.194l2.219-8.823h3.897v8.823h6.441v4.817h-6.441v15.427
			c0,1.588,0.325,2.599,0.974,3.032c0.65,0.433,1.354,0.649,2.111,0.649c0.396,0,0.947-0.09,1.651-0.271
			c0.704-0.18,1.272-0.36,1.705-0.542v4.06c-0.433,0.217-0.956,0.406-1.569,0.568c-0.614,0.163-1.246,0.279-1.895,0.352
			C3508.318,343.018,3507.723,343.055,3507.182,343.055z"/>
		<path style="fill:#FFFFFF;" d="M3539.334,342.513v-31.937h-11.096v-5.196h28.904v5.196h-11.096v31.937H3539.334z"/>
		<path style="fill:#FFFFFF;" d="M3571.595,343.055c-2.526,0-4.745-0.533-6.657-1.597c-1.914-1.064-3.402-2.625-4.467-4.682
			s-1.596-4.547-1.596-7.47v-1.245c0-2.923,0.568-5.413,1.705-7.47c1.137-2.057,2.688-3.618,4.654-4.683
			c1.967-1.064,4.213-1.597,6.739-1.597h0.704c2.346,0,4.402,0.479,6.17,1.435c1.769,0.957,3.141,2.319,4.115,4.087
			c0.974,1.768,1.461,3.843,1.461,6.225v3.41h-19c0,1.913,0.252,3.573,0.758,4.98s1.254,2.481,2.246,3.221
			c0.992,0.74,2.229,1.11,3.709,1.11c1.227,0,2.318-0.244,3.274-0.731c0.956-0.487,1.714-1.218,2.273-2.192
			c0.56-0.974,0.839-2.183,0.839-3.626h5.9c0,2.165-0.541,4.06-1.624,5.684s-2.544,2.888-4.385,3.789
			c-1.841,0.902-3.934,1.354-6.278,1.354H3571.595z M3565.479,326.003h12.774c0-2.525-0.551-4.393-1.651-5.602
			c-1.102-1.209-2.607-1.813-4.52-1.813c-1.805,0-3.329,0.623-4.574,1.867C3566.264,321.7,3565.586,323.55,3565.479,326.003z"/>
		<path style="fill:#FFFFFF;" d="M3587.996,342.513l9.797-14.398l-9.094-13.262h7.361l5.955,9.094h0.107l6.009-9.094h6.874
			l-9.201,13.424l9.743,14.236h-7.362l-6.549-10.068h-0.108l-6.658,10.068H3587.996z"/>
		<path style="fill:#FFFFFF;" d="M3629.297,343.055c-1.444,0-2.734-0.217-3.871-0.65s-2.021-1.145-2.652-2.138
			c-0.632-0.992-0.947-2.3-0.947-3.924V319.67h-3.031v-4.817h3.193l2.22-8.823h3.897v8.823h6.441v4.817h-6.441v15.427
			c0,1.588,0.324,2.599,0.975,3.032c0.649,0.433,1.354,0.649,2.111,0.649c0.396,0,0.947-0.09,1.65-0.271
			c0.703-0.18,1.271-0.36,1.705-0.542v4.06c-0.434,0.217-0.957,0.406-1.57,0.568c-0.613,0.163-1.244,0.279-1.895,0.352
			C3630.434,343.018,3629.838,343.055,3629.297,343.055z"/>
		<path style="fill:#FFFFFF;" d="M3470.752,397.323V360.19h25.116l-0.758,5.196h-17.646v10.393h16.131v5.196h-16.131v11.151h17.917
			l0.812,5.196H3470.752z"/>
		<path style="fill:#FFFFFF;" d="M3502.201,397.323v-6.496h6.55v6.496H3502.201z"/>
		<path style="fill:#FFFFFF;" d="M3521.092,407.499c-1.264,0-2.408-0.297-3.438-0.893c-1.027-0.595-1.85-1.399-2.463-2.409
			c-0.613-1.011-0.92-2.13-0.92-3.356c0-1.299,0.36-2.526,1.082-3.681c0.723-1.154,1.715-2.021,2.979-2.598
			c-0.795-0.505-1.418-1.154-1.868-1.949c-0.452-0.793-0.677-1.642-0.677-2.544c0-1.334,0.414-2.463,1.245-3.383
			c0.829-0.92,1.912-1.614,3.248-2.084c-1.119-0.721-2.021-1.587-2.706-2.598c-0.687-1.01-1.029-2.237-1.029-3.681
			c0-1.551,0.414-3.031,1.245-4.438c0.829-1.408,2.084-2.553,3.763-3.438c1.678-0.884,3.797-1.326,6.359-1.326
			c1.118,0,2.156,0.063,3.113,0.189c0.955,0.127,1.794,0.334,2.517,0.623c1.407-0.649,2.472-1.435,3.193-2.354
			c0.722-0.92,1.118-1.885,1.19-2.896h5.035c0,1.191-0.227,2.273-0.678,3.248c-0.451,0.975-1.101,1.786-1.948,2.436
			c-0.849,0.649-1.85,1.101-3.004,1.353l-0.054,0.163c0.829,0.722,1.496,1.57,2.002,2.544c0.506,0.975,0.758,2.057,0.758,3.248
			c0,1.588-0.424,3.05-1.271,4.384c-0.849,1.335-2.066,2.409-3.654,3.221s-3.5,1.218-5.737,1.218h-4.168
			c-1.119,0-2.003,0.253-2.652,0.758c-0.649,0.506-0.975,1.173-0.975,2.003c0,0.794,0.306,1.444,0.921,1.949
			c0.613,0.506,1.516,0.758,2.706,0.758h10.067c2.383,0,4.258,0.722,5.63,2.165c1.371,1.444,2.058,3.211,2.058,5.305
			c0,1.479-0.353,2.833-1.057,4.06c-0.703,1.226-1.695,2.201-2.977,2.923c-1.281,0.722-2.77,1.083-4.466,1.083H3521.092z
			 M3523.365,403.439h9.906c1.046,0,1.948-0.352,2.706-1.056s1.137-1.561,1.137-2.571c0-0.866-0.315-1.615-0.947-2.246
			s-1.417-0.947-2.354-0.947h-10.447c-1.01,0-1.859,0.334-2.544,1.001c-0.687,0.667-1.028,1.47-1.028,2.409
			c0,0.901,0.342,1.696,1.028,2.382C3521.506,403.096,3522.355,403.439,3523.365,403.439z M3528.291,382.816
			c1.805,0,3.221-0.487,4.25-1.461c1.027-0.975,1.542-2.146,1.542-3.519c0-1.371-0.515-2.552-1.542-3.545
			c-1.029-0.992-2.445-1.489-4.25-1.489s-3.221,0.497-4.249,1.489c-1.028,0.993-1.542,2.174-1.542,3.545
			c0,1.372,0.514,2.544,1.542,3.519C3525.07,382.329,3526.486,382.816,3528.291,382.816z"/>
		<path style="fill:#FFFFFF;" d="M3547.29,397.323v-7.362h7.47v7.362H3547.29z"/>
		<path style="fill:#FFFFFF;" d="M3407.584,436.222l-0.921-14.48h6.604l-0.894,14.48H3407.584z M3417.137,436.222l-0.92-14.48h6.631
			l-0.92,14.48H3417.137z"/>
		<path style="fill:#FFFFFF;" d="M3453.322,461.798v-16.97h-12.179v16.97h-6.279v-37.35h6.279v15.21h12.179v-15.21h6.279v37.35
			H3453.322z"/>
		<path style="fill:#FFFFFF;" d="M3473.322,449.457c0.127,1.949,0.542,3.542,1.246,4.777c0.703,1.236,1.627,2.143,2.773,2.72
			c1.146,0.578,2.404,0.866,3.775,0.866c1.408,0,2.707-0.216,3.897-0.649s2.391-1.046,3.6-1.841l2.626,3.627
			c-1.336,1.083-2.896,1.949-4.683,2.598s-3.699,0.975-5.737,0.975c-2.96,0-5.463-0.632-7.512-1.895
			c-2.047-1.263-3.604-3.022-4.668-5.278c-1.064-2.255-1.597-4.862-1.597-7.822c0-2.869,0.522-5.436,1.569-7.7
			c1.047-2.264,2.545-4.06,4.493-5.386s4.276-1.989,6.982-1.989c2.544,0,4.731,0.578,6.563,1.732
			c1.831,1.155,3.248,2.792,4.249,4.913s1.503,4.668,1.503,7.646c0,0.487-0.014,0.97-0.041,1.448s-0.059,0.898-0.096,1.258H3473.322
			z M3480.143,436.953c-1.895,0-3.459,0.677-4.695,2.03c-1.236,1.354-1.953,3.464-2.151,6.333h13.234
			c-0.054-2.688-0.627-4.754-1.718-6.198C3483.721,437.675,3482.164,436.953,3480.143,436.953z"/>
		<path style="fill:#FFFFFF;" d="M3513.324,421.742v32.261c0,1.317,0.401,2.251,1.205,2.801c0.803,0.551,1.844,0.826,3.125,0.826
			c0.83,0,1.615-0.09,2.355-0.271c0.739-0.18,1.461-0.406,2.165-0.677l1.542,4.222c-0.848,0.433-1.89,0.812-3.125,1.137
			c-1.236,0.325-2.648,0.487-4.236,0.487c-2.869,0-5.102-0.808-6.698-2.422s-2.396-3.83-2.396-6.645v-27.254h-8.634v-4.466H3513.324
			z"/>
		<path style="fill:#FFFFFF;" d="M3545.802,421.742v32.261c0,1.317,0.401,2.251,1.204,2.801c0.803,0.551,1.846,0.826,3.127,0.826
			c0.829,0,1.614-0.09,2.354-0.271c0.74-0.18,1.462-0.406,2.166-0.677l1.543,4.222c-0.849,0.433-1.891,0.812-3.127,1.137
			c-1.235,0.325-2.647,0.487-4.235,0.487c-2.868,0-5.102-0.808-6.698-2.422c-1.598-1.615-2.396-3.83-2.396-6.645v-27.254h-8.634
			v-4.466H3545.802z"/>
		<path style="fill:#FFFFFF;" d="M3577.17,432.46c2.796,0,5.15,0.623,7.063,1.868c1.912,1.245,3.36,2.986,4.344,5.223
			c0.983,2.238,1.476,4.872,1.476,7.903c0,3.013-0.501,5.652-1.502,7.917c-1.002,2.264-2.463,4.023-4.385,5.277
			s-4.264,1.881-7.023,1.881c-2.761,0-5.102-0.609-7.023-1.827s-3.383-2.954-4.385-5.21c-1.002-2.255-1.502-4.917-1.502-7.984
			c0-2.978,0.5-5.593,1.502-7.849c1.002-2.255,2.467-4.019,4.398-5.291C3572.062,433.096,3574.408,432.46,3577.17,432.46z
			 M3577.17,437.169c-2.184,0-3.826,0.834-4.926,2.503c-1.102,1.669-1.651,4.281-1.651,7.835c0,3.537,0.546,6.144,1.638,7.821
			c1.091,1.678,2.729,2.517,4.912,2.517c2.183,0,3.82-0.839,4.912-2.517c1.092-1.678,1.637-4.303,1.637-7.875
			c0-3.519-0.541-6.112-1.623-7.781C3580.985,438.004,3579.352,437.169,3577.17,437.169z"/>
		<path style="fill:#FFFFFF;" d="M3602.447,436.222l-0.92-14.48h6.604l-0.893,14.48H3602.447z M3612.002,436.222l-0.92-14.48h6.631
			l-0.921,14.48H3612.002z"/>
	</g>
	<rect x="1234.071" y="569.471" style="fill:#0033AD;" width="338.311" height="241.651"/>
	<g>
		<path style="fill:#FFFFFF;" d="M1304.239,679.175v-37.133h6.712v15.481h14.994v-15.481h6.712v37.133h-6.658v-16.239h-14.994
			v16.239H1304.239z"/>
		<path style="fill:#FFFFFF;" d="M1348.301,679.717c-1.48,0-2.896-0.235-4.25-0.704c-1.353-0.468-2.463-1.272-3.329-2.409
			c-0.866-1.137-1.299-2.679-1.299-4.628c0-1.984,0.441-3.59,1.326-4.817c0.884-1.227,2.138-2.166,3.762-2.815
			c1.624-0.649,3.572-1.091,5.846-1.326c2.273-0.234,4.799-0.352,7.578-0.352v-2.598c0-1.804-0.46-3.076-1.38-3.816
			c-0.92-0.739-2.319-1.11-4.195-1.11c-1.552,0-2.923,0.343-4.114,1.028c-1.191,0.686-1.787,1.769-1.787,3.248v0.541h-6.062
			c-0.036-0.144-0.054-0.315-0.054-0.514c0-0.198,0-0.387,0-0.568c0-1.587,0.496-2.977,1.489-4.168
			c0.992-1.191,2.373-2.111,4.141-2.761c1.768-0.649,3.789-0.974,6.062-0.974h0.92c3.753,0,6.55,0.74,8.39,2.219
			c1.84,1.48,2.761,3.555,2.761,6.225v14.128c0,0.686,0.163,1.173,0.487,1.461c0.325,0.289,0.685,0.433,1.083,0.433
			c0.36,0,0.749-0.072,1.164-0.217c0.415-0.144,0.803-0.306,1.164-0.487v3.843c-0.47,0.361-1.065,0.64-1.786,0.839
			c-0.723,0.198-1.588,0.298-2.599,0.298c-1.191,0-2.174-0.217-2.95-0.65c-0.777-0.433-1.363-1.019-1.759-1.759
			c-0.397-0.739-0.632-1.578-0.704-2.517c-1.047,1.552-2.4,2.76-4.06,3.626C1352.486,679.284,1350.538,679.717,1348.301,679.717z
			 M1351.007,675.44c1.155,0,2.255-0.261,3.302-0.785c1.046-0.522,1.912-1.308,2.598-2.354c0.685-1.046,1.028-2.363,1.028-3.952
			v-2.111c-2.526,0-4.691,0.135-6.496,0.406c-1.805,0.271-3.176,0.767-4.114,1.489c-0.939,0.722-1.407,1.805-1.407,3.248
			c0,1.444,0.433,2.482,1.299,3.113C1348.084,675.125,1349.347,675.44,1351.007,675.44z"/>
		<path style="fill:#FFFFFF;" d="M1383.43,679.717c-1.84,0-3.464-0.226-4.872-0.677c-1.408-0.451-2.598-1.056-3.573-1.813
			c-0.974-0.758-1.714-1.624-2.219-2.598c-0.506-0.975-0.758-1.984-0.758-3.031c0-0.217,0-0.396,0-0.542
			c0-0.144,0.018-0.342,0.054-0.595h5.413c-0.037,0.108-0.054,0.208-0.054,0.298c0,0.09,0,0.171,0,0.243
			c0,1.011,0.325,1.841,0.974,2.49s1.506,1.137,2.571,1.461c1.064,0.325,2.246,0.487,3.545,0.487c1.083,0,2.111-0.144,3.085-0.433
			c0.974-0.289,1.768-0.712,2.382-1.272c0.613-0.559,0.92-1.253,0.92-2.084c0-0.938-0.325-1.66-0.974-2.166
			c-0.649-0.505-1.507-0.901-2.571-1.19c-1.065-0.289-2.238-0.542-3.519-0.758c-1.281-0.217-2.571-0.478-3.87-0.785
			c-1.299-0.306-2.481-0.739-3.545-1.299c-1.065-0.559-1.922-1.326-2.571-2.301c-0.649-0.974-0.974-2.255-0.974-3.843
			c0-1.299,0.288-2.471,0.866-3.519c0.577-1.046,1.389-1.921,2.436-2.625c1.046-0.704,2.273-1.245,3.681-1.624
			c1.408-0.379,2.923-0.568,4.547-0.568h0.866c1.516,0,2.932,0.199,4.249,0.595c1.317,0.398,2.463,0.939,3.438,1.624
			c0.974,0.686,1.732,1.48,2.273,2.382c0.541,0.902,0.812,1.859,0.812,2.869c0,0.181-0.009,0.379-0.027,0.596
			c-0.019,0.216-0.027,0.361-0.027,0.433h-5.467v-0.542c0-0.36-0.09-0.749-0.271-1.164c-0.181-0.415-0.506-0.812-0.974-1.191
			c-0.47-0.379-1.092-0.694-1.868-0.947c-0.776-0.252-1.759-0.379-2.95-0.379c-1.083,0-2.003,0.108-2.761,0.325
			s-1.372,0.497-1.84,0.839c-0.469,0.344-0.803,0.713-1.001,1.11c-0.199,0.397-0.297,0.776-0.297,1.137
			c0,0.831,0.325,1.48,0.974,1.949c0.649,0.469,1.516,0.839,2.598,1.109c1.083,0.271,2.273,0.506,3.573,0.704
			c1.299,0.199,2.589,0.452,3.87,0.758c1.281,0.307,2.463,0.75,3.545,1.327c1.083,0.578,1.949,1.353,2.599,2.327
			c0.649,0.975,0.974,2.256,0.974,3.843c0,1.661-0.316,3.077-0.947,4.25c-0.632,1.173-1.507,2.103-2.625,2.788
			c-1.119,0.686-2.391,1.191-3.816,1.516c-1.426,0.325-2.932,0.487-4.52,0.487H1383.43z"/>
		<path style="fill:#FFFFFF;" d="M1403.187,679.175v-38.974h6.279v14.94c1.01-1.371,2.247-2.409,3.708-3.112
			s3.022-1.056,4.682-1.056c1.84,0,3.473,0.361,4.899,1.083c1.425,0.722,2.552,1.778,3.383,3.167c0.83,1.39,1.245,3.095,1.245,5.115
			v18.837h-6.279v-17.701c0-2.057-0.487-3.527-1.461-4.411c-0.974-0.884-2.31-1.326-4.005-1.326c-1.119,0-2.147,0.28-3.085,0.839
			c-0.939,0.56-1.688,1.308-2.247,2.246c-0.56,0.939-0.839,2.003-0.839,3.194v17.159H1403.187z"/>
		<path style="fill:#FFFFFF;" d="M1435.665,645.29v-5.088h6.604v5.088H1435.665z M1435.827,679.175v-27.66h6.279v27.66H1435.827z"/>
		<path style="fill:#FFFFFF;" d="M1450.496,679.175v-27.66h4.601l0.812,4.06c1.046-1.516,2.346-2.661,3.897-3.438
			c1.551-0.775,3.283-1.164,5.196-1.164c1.913,0,3.59,0.361,5.034,1.083c1.443,0.722,2.571,1.778,3.383,3.167
			c0.812,1.39,1.218,3.095,1.218,5.115v18.837h-6.279v-17.701c0-2.057-0.479-3.527-1.435-4.411
			c-0.957-0.884-2.283-1.326-3.979-1.326c-1.119,0-2.147,0.28-3.085,0.839c-0.939,0.56-1.688,1.308-2.247,2.246
			c-0.56,0.939-0.839,2.003-0.839,3.194v17.159H1450.496z"/>
		<path style="fill:#FFFFFF;" d="M1487.358,689.352c-1.263,0-2.409-0.297-3.437-0.893c-1.028-0.595-1.85-1.399-2.463-2.409
			c-0.614-1.011-0.92-2.13-0.92-3.356c0-1.299,0.36-2.526,1.083-3.681c0.722-1.154,1.714-2.021,2.978-2.598
			c-0.794-0.505-1.417-1.154-1.868-1.949c-0.452-0.793-0.677-1.642-0.677-2.544c0-1.334,0.415-2.463,1.245-3.383
			c0.83-0.92,1.912-1.614,3.248-2.084c-1.119-0.721-2.021-1.587-2.707-2.598c-0.686-1.01-1.029-2.237-1.029-3.681
			c0-1.551,0.415-3.031,1.245-4.438c0.83-1.408,2.084-2.553,3.762-3.438c1.678-0.884,3.797-1.326,6.36-1.326
			c1.118,0,2.156,0.063,3.113,0.189c0.956,0.127,1.794,0.334,2.517,0.623c1.407-0.649,2.471-1.435,3.193-2.354
			c0.722-0.92,1.118-1.885,1.191-2.896h5.034c0,1.191-0.226,2.273-0.677,3.248c-0.452,0.975-1.101,1.786-1.949,2.436
			c-0.848,0.649-1.85,1.101-3.004,1.353l-0.054,0.163c0.83,0.722,1.497,1.57,2.003,2.544c0.505,0.975,0.758,2.057,0.758,3.248
			c0,1.588-0.425,3.05-1.272,4.384c-0.848,1.335-2.066,2.409-3.653,3.221c-1.588,0.812-3.501,1.218-5.738,1.218h-4.168
			c-1.119,0-2.003,0.253-2.652,0.758c-0.65,0.506-0.975,1.173-0.975,2.003c0,0.794,0.306,1.444,0.92,1.949
			c0.613,0.506,1.516,0.758,2.707,0.758h10.068c2.382,0,4.258,0.722,5.629,2.165c1.371,1.444,2.057,3.211,2.057,5.305
			c0,1.479-0.352,2.833-1.056,4.06c-0.704,1.226-1.696,2.201-2.977,2.923c-1.281,0.722-2.77,1.083-4.466,1.083H1487.358z
			 M1489.632,685.292h9.906c1.046,0,1.949-0.352,2.707-1.056s1.137-1.561,1.137-2.571c0-0.866-0.316-1.615-0.947-2.246
			c-0.632-0.631-1.417-0.947-2.354-0.947h-10.447c-1.01,0-1.859,0.334-2.544,1.001c-0.686,0.667-1.028,1.47-1.028,2.409
			c0,0.901,0.342,1.696,1.028,2.382C1487.773,684.949,1488.622,685.292,1489.632,685.292z M1494.558,664.668
			c1.804,0,3.221-0.487,4.25-1.461c1.028-0.975,1.542-2.146,1.542-3.519c0-1.371-0.514-2.552-1.542-3.545
			c-1.028-0.992-2.445-1.489-4.25-1.489c-1.805,0-3.221,0.497-4.249,1.489c-1.028,0.993-1.542,2.174-1.542,3.545
			c0,1.372,0.514,2.544,1.542,3.519C1491.337,664.181,1492.753,664.668,1494.558,664.668z"/>
		<path style="fill:#FFFFFF;" d="M1277.121,743.651l14.074-37.133h7.795l14.02,37.133h-7.037l-3.085-8.065h-16.13l-3.085,8.065
			H1277.121z M1288.488,730.66h12.612l-6.171-16.834h-0.216L1288.488,730.66z"/>
		<path style="fill:#FFFFFF;" d="M1317.393,743.651v-38.974h6.279v38.974H1317.393z"/>
		<path style="fill:#FFFFFF;" d="M1336.5,753.827c-1.263,0-2.409-0.297-3.437-0.893c-1.028-0.595-1.85-1.399-2.463-2.409
			c-0.614-1.011-0.92-2.13-0.92-3.356c0-1.299,0.36-2.526,1.083-3.681c0.722-1.154,1.714-2.021,2.978-2.598
			c-0.794-0.505-1.417-1.154-1.868-1.949c-0.452-0.793-0.677-1.642-0.677-2.544c0-1.334,0.415-2.463,1.245-3.383
			c0.83-0.92,1.912-1.614,3.248-2.084c-1.119-0.721-2.021-1.587-2.707-2.598c-0.686-1.01-1.029-2.237-1.029-3.681
			c0-1.551,0.415-3.031,1.245-4.438c0.83-1.408,2.084-2.553,3.762-3.438c1.678-0.884,3.797-1.326,6.36-1.326
			c1.118,0,2.156,0.063,3.113,0.189c0.956,0.127,1.794,0.334,2.517,0.623c1.407-0.649,2.471-1.435,3.193-2.354
			c0.722-0.92,1.118-1.885,1.191-2.896h5.034c0,1.191-0.226,2.273-0.677,3.248c-0.452,0.975-1.101,1.786-1.949,2.436
			c-0.848,0.649-1.85,1.101-3.004,1.353l-0.054,0.163c0.83,0.722,1.497,1.57,2.003,2.544c0.505,0.975,0.758,2.057,0.758,3.248
			c0,1.588-0.425,3.05-1.272,4.384c-0.848,1.335-2.066,2.409-3.653,3.221c-1.588,0.812-3.501,1.218-5.738,1.218h-4.168
			c-1.119,0-2.003,0.253-2.652,0.758c-0.65,0.506-0.975,1.173-0.975,2.003c0,0.794,0.306,1.444,0.92,1.949
			c0.613,0.506,1.516,0.758,2.707,0.758h10.068c2.382,0,4.258,0.722,5.629,2.165c1.371,1.444,2.057,3.211,2.057,5.305
			c0,1.479-0.352,2.833-1.056,4.06c-0.704,1.226-1.696,2.201-2.977,2.923c-1.281,0.722-2.77,1.083-4.466,1.083H1336.5z
			 M1338.773,749.768h9.906c1.046,0,1.949-0.352,2.707-1.056s1.137-1.561,1.137-2.571c0-0.866-0.316-1.615-0.947-2.246
			c-0.632-0.631-1.417-0.947-2.354-0.947h-10.447c-1.01,0-1.859,0.334-2.544,1.001c-0.686,0.667-1.028,1.47-1.028,2.409
			c0,0.901,0.342,1.696,1.028,2.382C1336.915,749.424,1337.763,749.768,1338.773,749.768z M1343.699,729.144
			c1.804,0,3.221-0.487,4.25-1.461c1.028-0.975,1.542-2.146,1.542-3.519c0-1.371-0.514-2.552-1.542-3.545
			c-1.028-0.992-2.445-1.489-4.25-1.489c-1.805,0-3.221,0.497-4.249,1.489c-1.028,0.993-1.542,2.174-1.542,3.545
			c0,1.372,0.514,2.544,1.542,3.519C1340.479,728.657,1341.895,729.144,1343.699,729.144z"/>
		<path style="fill:#FFFFFF;" d="M1374.824,744.192c-2.455,0-4.655-0.559-6.604-1.678c-1.949-1.118-3.474-2.724-4.574-4.817
			c-1.101-2.093-1.651-4.565-1.651-7.416v-0.92c0-2.887,0.55-5.368,1.651-7.443c1.1-2.075,2.616-3.672,4.547-4.791
			c1.93-1.118,4.122-1.678,6.577-1.678h0.866c2.49,0,4.7,0.56,6.631,1.678c1.93,1.119,3.446,2.716,4.547,4.791
			c1.1,2.075,1.651,4.556,1.651,7.443v0.92c0,2.851-0.551,5.323-1.651,7.416c-1.101,2.093-2.617,3.699-4.547,4.817
			c-1.931,1.119-4.123,1.678-6.577,1.678H1374.824z M1375.203,739.916c1.263,0,2.39-0.298,3.383-0.893
			c0.992-0.596,1.786-1.489,2.381-2.68c0.596-1.191,0.893-2.634,0.893-4.33v-4.385c0-1.732-0.297-3.184-0.893-4.357
			c-0.595-1.172-1.39-2.057-2.381-2.652c-0.993-0.595-2.121-0.893-3.383-0.893c-1.227,0-2.337,0.298-3.329,0.893
			c-0.993,0.595-1.786,1.48-2.382,2.652c-0.595,1.173-0.893,2.625-0.893,4.357v4.385c0,1.696,0.298,3.139,0.893,4.33
			c0.596,1.191,1.389,2.084,2.382,2.68C1372.866,739.618,1373.976,739.916,1375.203,739.916z"/>
		<path style="fill:#FFFFFF;" d="M1395.284,743.651v-27.66h4.709l0.812,4.06c0.072-0.108,0.252-0.396,0.542-0.866
			c0.288-0.468,0.739-0.992,1.353-1.57c0.613-0.577,1.389-1.083,2.328-1.516c0.938-0.433,2.075-0.649,3.41-0.649
			c1.912,0,3.473,0.379,4.682,1.137c1.208,0.758,2.111,1.795,2.707,3.112c0.595,1.318,0.893,2.824,0.893,4.52
			c0,0.397-0.019,0.804-0.054,1.218c-0.036,0.416-0.073,0.767-0.108,1.056h-5.305v-1.083c0-0.758-0.145-1.534-0.433-2.328
			c-0.29-0.793-0.776-1.461-1.461-2.003c-0.686-0.541-1.643-0.812-2.869-0.812c-0.902,0-1.669,0.189-2.3,0.568
			c-0.632,0.379-1.146,0.858-1.543,1.435c-0.397,0.578-0.677,1.2-0.839,1.868c-0.163,0.668-0.244,1.291-0.244,1.867v17.646H1395.284
			z"/>
		<path style="fill:#FFFFFF;" d="M1422.24,709.766v-5.088h6.604v5.088H1422.24z M1422.402,743.651v-27.66h6.279v27.66H1422.402z"/>
		<path style="fill:#FFFFFF;" d="M1445.732,744.192c-1.444,0-2.734-0.217-3.871-0.65s-2.021-1.145-2.652-2.138
			c-0.632-0.992-0.947-2.3-0.947-3.924v-16.672h-3.031v-4.817h3.194l2.219-8.823h3.897v8.823h6.441v4.817h-6.441v15.427
			c0,1.588,0.325,2.599,0.974,3.032c0.65,0.433,1.354,0.649,2.111,0.649c0.396,0,0.947-0.09,1.651-0.271
			c0.704-0.18,1.272-0.36,1.705-0.542v4.06c-0.433,0.217-0.957,0.406-1.57,0.568c-0.614,0.163-1.245,0.279-1.895,0.352
			C1446.869,744.156,1446.273,744.192,1445.732,744.192z"/>
		<path style="fill:#FFFFFF;" d="M1457.532,743.651v-38.974h6.279v14.94c1.01-1.371,2.247-2.409,3.708-3.112
			s3.022-1.056,4.682-1.056c1.84,0,3.473,0.361,4.899,1.083c1.425,0.722,2.552,1.778,3.383,3.167c0.83,1.39,1.245,3.095,1.245,5.115
			v18.837h-6.279V725.95c0-2.057-0.487-3.527-1.461-4.411c-0.974-0.884-2.31-1.326-4.005-1.326c-1.119,0-2.147,0.28-3.085,0.839
			c-0.939,0.56-1.688,1.308-2.247,2.246c-0.56,0.939-0.839,2.003-0.839,3.194v17.159H1457.532z"/>
		<path style="fill:#FFFFFF;" d="M1489.792,743.651v-27.66h4.709l0.866,4.06c0.938-1.443,2.057-2.571,3.356-3.383
			s2.833-1.218,4.601-1.218c1.804,0,3.41,0.352,4.817,1.056c1.408,0.704,2.508,1.85,3.302,3.437c0.83-1.371,1.939-2.463,3.329-3.275
			c1.389-0.812,3.04-1.218,4.953-1.218c1.768,0,3.337,0.361,4.709,1.083c1.371,0.722,2.444,1.778,3.221,3.167
			c0.775,1.39,1.164,3.095,1.164,5.115v18.837h-6.279v-17.484c0-2.092-0.415-3.6-1.245-4.52c-0.831-0.92-2.021-1.38-3.573-1.38
			c-1.011,0-1.913,0.262-2.707,0.785c-0.794,0.523-1.417,1.254-1.867,2.192c-0.452,0.938-0.677,2.002-0.677,3.193v17.213h-6.279
			v-17.484c0-2.092-0.424-3.6-1.272-4.52c-0.848-0.92-2.048-1.38-3.6-1.38c-1.011,0-1.913,0.262-2.707,0.785
			c-0.794,0.523-1.417,1.254-1.867,2.192c-0.452,0.938-0.677,2.002-0.677,3.193v17.213H1489.792z"/>
	</g>
	<g>
		<g>
			
				<line style="fill:none;stroke:#000000;stroke-width:5.7996;stroke-miterlimit:10;" x1="2331.4" y1="688.359" x2="2450.724" y2="688.359"/>
			<g>
				<polygon points="2444.801,708.603 2479.858,688.359 2444.801,668.116 				"/>
			</g>
		</g>
	</g>
	<g>
		<g>
			
				<line style="fill:none;stroke:#000000;stroke-width:5.7996;stroke-miterlimit:10;" x1="2943.503" y1="688.359" x2="3068.832" y2="688.359"/>
			<g>
				<polygon points="3062.909,708.603 3097.966,688.359 3062.909,668.116 				"/>
			</g>
		</g>
	</g>
	<rect x="2492.95" y="569.471" style="fill:#0033AD;" width="431.054" height="241.651"/>
	<g>
		<path style="fill:#FFFFFF;" d="M2545.344,649.962V612.83h25.116l-0.758,5.196h-17.646v10.393h16.13v5.196h-16.13v11.151h17.917
			l0.812,5.196H2545.344z"/>
		<path style="fill:#FFFFFF;" d="M2577.01,649.962v-27.66h4.601l0.812,4.06c1.046-1.516,2.345-2.661,3.897-3.438
			c1.551-0.775,3.283-1.164,5.196-1.164c1.912,0,3.59,0.361,5.034,1.083c1.442,0.722,2.57,1.778,3.383,3.167
			c0.812,1.39,1.218,3.095,1.218,5.115v18.837h-6.279v-17.701c0-2.057-0.479-3.527-1.435-4.411s-2.282-1.326-3.979-1.326
			c-1.118,0-2.147,0.28-3.085,0.839c-0.938,0.56-1.688,1.308-2.246,2.246c-0.561,0.939-0.84,2.003-0.84,3.194v17.159H2577.01z"/>
		<path style="fill:#FFFFFF;" d="M2620.205,650.504c-2.31,0-4.384-0.568-6.225-1.705s-3.284-2.734-4.33-4.791
			c-1.047-2.057-1.57-4.439-1.57-7.146v-1.461c0-2.057,0.325-3.915,0.975-5.575c0.649-1.66,1.543-3.094,2.68-4.303
			c1.137-1.209,2.463-2.138,3.979-2.788c1.516-0.649,3.14-0.974,4.871-0.974h0.812c2.345,0,4.385,0.469,6.116,1.407
			c1.732,0.939,3.076,2.256,4.033,3.952c0.955,1.697,1.435,3.717,1.435,6.062h-5.576c0-1.587-0.262-2.914-0.784-3.979
			c-0.523-1.064-1.245-1.858-2.165-2.382c-0.921-0.522-1.995-0.785-3.221-0.785c-1.877,0-3.438,0.632-4.683,1.895
			c-1.245,1.264-1.867,3.176-1.867,5.738v4.763c0,2.563,0.604,4.502,1.813,5.819c1.208,1.318,2.805,1.976,4.79,1.976
			c1.299,0,2.427-0.244,3.383-0.731c0.956-0.487,1.696-1.253,2.22-2.3c0.522-1.046,0.785-2.417,0.785-4.114h5.305
			c0,2.418-0.523,4.484-1.57,6.198c-1.047,1.714-2.472,3.013-4.276,3.897c-1.805,0.884-3.843,1.326-6.116,1.326H2620.205z"/>
		<path style="fill:#FFFFFF;" d="M2639.421,649.962v-27.66h4.709l0.812,4.06c0.072-0.108,0.253-0.396,0.542-0.866
			c0.288-0.468,0.739-0.992,1.354-1.57c0.612-0.577,1.389-1.083,2.327-1.516c0.938-0.433,2.074-0.649,3.41-0.649
			c1.912,0,3.473,0.379,4.683,1.137c1.208,0.758,2.11,1.795,2.706,3.112c0.596,1.318,0.894,2.824,0.894,4.52
			c0,0.397-0.019,0.804-0.055,1.218c-0.036,0.416-0.072,0.767-0.108,1.056h-5.305v-1.083c0-0.758-0.145-1.534-0.433-2.328
			c-0.289-0.793-0.776-1.461-1.462-2.003c-0.686-0.541-1.643-0.812-2.868-0.812c-0.903,0-1.67,0.189-2.301,0.568
			c-0.632,0.379-1.146,0.858-1.543,1.435c-0.397,0.578-0.677,1.2-0.839,1.868c-0.162,0.668-0.244,1.291-0.244,1.867v17.646H2639.421
			z"/>
		<path style="fill:#FFFFFF;" d="M2669.028,660.031c-0.83,0-1.597-0.063-2.3-0.189c-0.704-0.127-1.363-0.316-1.976-0.568v-4.818
			c0.396,0.18,0.92,0.333,1.569,0.46s1.28,0.189,1.895,0.189c0.938,0,1.723-0.181,2.354-0.541c0.631-0.361,1.191-0.957,1.678-1.786
			c0.487-0.831,0.966-1.914,1.435-3.248l-10.825-27.227h6.766l7.091,19.433h0.325l6.874-19.433h6.226l-10.23,26.415
			c-0.795,2.093-1.67,3.997-2.626,5.711c-0.956,1.713-2.093,3.076-3.41,4.087C2672.556,659.525,2670.941,660.031,2669.028,660.031z"
			/>
		<path style="fill:#FFFFFF;" d="M2694.794,659.76v-37.458h4.817l0.812,3.735c0.866-1.299,2.003-2.336,3.41-3.113
			c1.407-0.775,3.049-1.164,4.926-1.164c2.093,0,3.987,0.46,5.684,1.38s3.049,2.4,4.06,4.438c1.01,2.039,1.516,4.719,1.516,8.039
			v1.137c0,2.996-0.487,5.521-1.461,7.578c-0.975,2.057-2.283,3.6-3.925,4.628c-1.643,1.028-3.456,1.543-5.44,1.543
			c-1.948,0-3.6-0.371-4.952-1.11c-1.354-0.739-2.392-1.687-3.113-2.842v13.208H2694.794z M2707.353,646.119
			c1.154,0,2.192-0.298,3.112-0.893c0.92-0.596,1.642-1.479,2.165-2.652c0.522-1.172,0.785-2.625,0.785-4.357v-3.789
			c0-1.984-0.263-3.59-0.785-4.818c-0.523-1.226-1.245-2.128-2.165-2.706c-0.92-0.577-1.958-0.866-3.112-0.866
			c-1.119,0-2.157,0.28-3.112,0.839c-0.957,0.56-1.724,1.444-2.301,2.652c-0.578,1.209-0.866,2.824-0.866,4.845v3.843
			c0,1.769,0.279,3.239,0.839,4.412c0.56,1.173,1.317,2.048,2.273,2.625C2705.142,645.831,2706.197,646.119,2707.353,646.119z"/>
		<path style="fill:#FFFFFF;" d="M2735.391,650.504c-1.443,0-2.733-0.217-3.87-0.65s-2.021-1.145-2.652-2.138
			c-0.632-0.992-0.947-2.3-0.947-3.924V627.12h-3.031v-4.817h3.193l2.22-8.823h3.897v8.823h6.441v4.817h-6.441v15.427
			c0,1.588,0.325,2.599,0.975,3.032c0.649,0.433,1.353,0.649,2.11,0.649c0.397,0,0.947-0.09,1.651-0.271
			c0.704-0.18,1.272-0.36,1.705-0.542v4.06c-0.433,0.217-0.957,0.406-1.569,0.568c-0.614,0.163-1.245,0.279-1.895,0.352
			C2736.527,650.467,2735.933,650.504,2735.391,650.504z"/>
		<path style="fill:#FFFFFF;" d="M2764.946,649.962l-8.823-27.66h6.55l5.737,18.783h0.271l5.847-18.783h6.549l5.847,18.783h0.271
			l5.737-18.783h6.062l-8.822,27.66h-6.604l-5.846-18.512h-0.271l-5.792,18.512H2764.946z"/>
		<path style="fill:#FFFFFF;" d="M2804.352,616.077v-5.088h6.604v5.088H2804.352z M2804.515,649.962v-27.66h6.279v27.66H2804.515z"
			/>
		<path style="fill:#FFFFFF;" d="M2827.844,650.504c-1.443,0-2.733-0.217-3.87-0.65s-2.021-1.145-2.652-2.138
			c-0.632-0.992-0.947-2.3-0.947-3.924V627.12h-3.031v-4.817h3.193l2.22-8.823h3.897v8.823h6.441v4.817h-6.441v15.427
			c0,1.588,0.325,2.599,0.975,3.032c0.649,0.433,1.353,0.649,2.11,0.649c0.397,0,0.947-0.09,1.651-0.271
			c0.704-0.18,1.272-0.36,1.705-0.542v4.06c-0.433,0.217-0.957,0.406-1.569,0.568c-0.614,0.163-1.245,0.279-1.895,0.352
			C2828.98,650.467,2828.386,650.504,2827.844,650.504z"/>
		<path style="fill:#FFFFFF;" d="M2839.644,649.962v-38.974h6.278v14.94c1.011-1.371,2.247-2.409,3.708-3.112
			c1.462-0.704,3.022-1.056,4.683-1.056c1.841,0,3.473,0.361,4.898,1.083c1.426,0.722,2.553,1.778,3.384,3.167
			c0.829,1.39,1.244,3.095,1.244,5.115v18.837h-6.278v-17.701c0-2.057-0.487-3.527-1.462-4.411s-2.31-1.326-4.006-1.326
			c-1.118,0-2.147,0.28-3.085,0.839c-0.938,0.56-1.688,1.308-2.246,2.246c-0.561,0.939-0.84,2.003-0.84,3.194v17.159H2839.644z"/>
		<path style="fill:#FFFFFF;" d="M2545.913,724.56c-1.155,0-2.184-0.063-3.086-0.189s-1.66-0.334-2.273-0.622v-6.983
			c0.396,0.18,0.983,0.352,1.76,0.514c0.775,0.163,1.542,0.244,2.3,0.244c1.118,0,1.958-0.235,2.518-0.704
			c0.559-0.47,0.956-1.011,1.19-1.624c0.234-0.614,0.406-1.137,0.515-1.57l-10.177-26.848h11.422l4.276,14.344h0.433l3.627-14.344
			h10.555l-9.31,25.711c-0.831,2.273-1.887,4.321-3.167,6.144c-1.281,1.822-2.797,3.266-4.547,4.331
			C2550.197,724.027,2548.187,724.56,2545.913,724.56z"/>
		<path style="fill:#FFFFFF;" d="M2584.562,714.979c-2.743,0-5.196-0.586-7.362-1.759c-2.165-1.172-3.87-2.796-5.115-4.872
			c-1.244-2.074-1.867-4.465-1.867-7.172v-1.137c0-2.742,0.623-5.143,1.867-7.199c1.245-2.057,2.95-3.672,5.115-4.845
			c2.166-1.172,4.619-1.759,7.362-1.759h1.732c2.741,0,5.196,0.587,7.361,1.759c2.165,1.173,3.87,2.788,5.115,4.845
			c1.245,2.057,1.867,4.457,1.867,7.199v1.137c0,2.743-0.622,5.151-1.867,7.226c-1.245,2.076-2.95,3.69-5.115,4.845
			c-2.165,1.155-4.62,1.732-7.361,1.732H2584.562z M2585.428,708.43c0.721,0,1.361-0.171,1.921-0.514
			c0.56-0.343,1.002-0.803,1.326-1.38c0.325-0.577,0.487-1.208,0.487-1.895v-8.065c0-0.722-0.162-1.362-0.487-1.922
			c-0.324-0.559-0.767-1.01-1.326-1.353c-0.56-0.343-1.2-0.514-1.921-0.514c-0.687,0-1.318,0.171-1.895,0.514
			c-0.578,0.343-1.028,0.794-1.354,1.353c-0.325,0.56-0.487,1.2-0.487,1.922v8.065c0,0.686,0.162,1.317,0.487,1.895
			c0.325,0.578,0.775,1.038,1.354,1.38C2584.109,708.259,2584.741,708.43,2585.428,708.43z"/>
		<path style="fill:#FFFFFF;" d="M2613.412,714.979c-2.814,0-4.998-0.785-6.55-2.355s-2.327-3.671-2.327-6.306v-19.541h10.718
			v17.321c0,0.902,0.225,1.669,0.677,2.301c0.45,0.632,1.181,0.947,2.191,0.947c0.542,0,1.029-0.144,1.462-0.433
			c0.433-0.289,0.775-0.685,1.028-1.191c0.252-0.505,0.379-1.046,0.379-1.624v-17.321h10.718v19.649
			c0,0.722,0.181,1.236,0.541,1.542c0.36,0.307,0.739,0.46,1.137,0.46c0.325,0,0.65-0.045,0.975-0.135
			c0.325-0.09,0.631-0.208,0.92-0.352v5.792c-0.469,0.361-1.146,0.659-2.029,0.893c-0.885,0.234-2.03,0.352-3.438,0.352
			c-1.588,0-2.914-0.172-3.979-0.515c-1.064-0.342-1.904-0.847-2.517-1.516c-0.614-0.667-1.102-1.452-1.462-2.354
			c-0.902,1.372-2.075,2.445-3.519,3.221C2616.895,714.591,2615.253,714.979,2613.412,714.979z"/>
		<path style="fill:#FFFFFF;" d="M2638.744,714.438v-27.66h8.012l1.19,4.005c0.108-0.216,0.334-0.568,0.677-1.056
			c0.343-0.487,0.82-1.001,1.435-1.542c0.613-0.542,1.354-1.001,2.22-1.38s1.857-0.568,2.977-0.568c1.768,0,3.202,0.316,4.304,0.947
			c1.101,0.632,1.912,1.57,2.436,2.815c0.522,1.245,0.785,2.77,0.785,4.574c0,0.433-0.019,0.957-0.055,1.57
			c-0.036,0.614-0.09,1.227-0.162,1.84h-8.769v-1.299c0-0.505-0.091-0.965-0.271-1.38c-0.182-0.415-0.434-0.739-0.758-0.975
			c-0.325-0.234-0.74-0.352-1.245-0.352c-0.361,0-0.695,0.073-1.002,0.216c-0.307,0.145-0.551,0.334-0.73,0.568
			c-0.181,0.235-0.325,0.514-0.433,0.839c-0.108,0.325-0.163,0.686-0.163,1.083v17.754H2638.744z"/>
		<path style="fill:#FFFFFF;" d="M2676.634,724.235v-37.458h8.553l0.975,3.193c0.722-0.938,1.74-1.794,3.059-2.571
			c1.316-0.775,2.896-1.164,4.736-1.164c2.236,0,4.23,0.469,5.981,1.407c1.75,0.939,3.12,2.4,4.113,4.385
			c0.992,1.985,1.488,4.565,1.488,7.741v1.137c0,3.139-0.514,5.756-1.542,7.849c-1.028,2.093-2.382,3.654-4.06,4.682
			c-1.679,1.028-3.492,1.543-5.44,1.543c-1.913,0-3.438-0.334-4.574-1.001c-1.137-0.667-1.994-1.47-2.571-2.409v12.666H2676.634z
			 M2690.708,708.43c0.649,0,1.227-0.171,1.732-0.514c0.505-0.343,0.901-0.803,1.19-1.38c0.288-0.577,0.434-1.208,0.434-1.895
			v-7.849c0-0.721-0.146-1.361-0.434-1.921c-0.289-0.559-0.686-1.01-1.19-1.354c-0.506-0.342-1.083-0.514-1.732-0.514
			c-0.614,0-1.183,0.172-1.705,0.514c-0.523,0.344-0.93,0.794-1.218,1.354c-0.289,0.56-0.434,1.2-0.434,1.921v7.849
			c0,0.686,0.145,1.317,0.434,1.895c0.288,0.578,0.694,1.038,1.218,1.38C2689.525,708.259,2690.094,708.43,2690.708,708.43z"/>
		<path style="fill:#FFFFFF;" d="M2709.652,714.438v-27.66h8.012l1.19,4.005c0.108-0.216,0.334-0.568,0.677-1.056
			c0.343-0.487,0.82-1.001,1.435-1.542c0.613-0.542,1.354-1.001,2.22-1.38s1.857-0.568,2.977-0.568c1.768,0,3.202,0.316,4.304,0.947
			c1.101,0.632,1.912,1.57,2.436,2.815c0.522,1.245,0.785,2.77,0.785,4.574c0,0.433-0.019,0.957-0.055,1.57
			c-0.036,0.614-0.09,1.227-0.162,1.84h-8.769v-1.299c0-0.505-0.091-0.965-0.271-1.38c-0.182-0.415-0.434-0.739-0.758-0.975
			c-0.325-0.234-0.74-0.352-1.245-0.352c-0.361,0-0.695,0.073-1.002,0.216c-0.307,0.145-0.551,0.334-0.73,0.568
			c-0.181,0.235-0.325,0.514-0.433,0.839c-0.108,0.325-0.163,0.686-0.163,1.083v17.754H2709.652z"/>
		<path style="fill:#FFFFFF;" d="M2737.096,683.205v-7.741h10.718v7.741H2737.096z M2737.096,714.438v-27.606h10.718v27.606
			H2737.096z"/>
		<path style="fill:#FFFFFF;" d="M2759.396,714.438l-8.931-27.66h11.421l4.06,15.806h0.379l4.06-15.806h10.447l-9.039,27.66
			H2759.396z"/>
		<path style="fill:#FFFFFF;" d="M2790.791,714.979c-1.479,0-2.887-0.262-4.222-0.785c-1.336-0.522-2.418-1.362-3.248-2.517
			c-0.83-1.154-1.245-2.707-1.245-4.655c0-1.912,0.415-3.5,1.245-4.763c0.83-1.263,2.03-2.255,3.6-2.977
			c1.57-0.722,3.473-1.227,5.711-1.516c2.237-0.289,4.764-0.433,7.578-0.433v-1.895c0-1.046-0.344-1.795-1.028-2.247
			c-0.687-0.451-1.516-0.676-2.49-0.676c-1.047,0-1.886,0.235-2.517,0.704c-0.632,0.469-0.947,1.083-0.947,1.84v0.216h-10.285
			c-0.036-0.072-0.054-0.18-0.054-0.325c0-0.144,0-0.289,0-0.433c0-1.551,0.522-2.95,1.569-4.195s2.544-2.237,4.493-2.977
			c1.948-0.739,4.258-1.11,6.929-1.11h1.786c4.366,0,7.613,0.839,9.743,2.517c2.129,1.678,3.193,3.762,3.193,6.252v11.421
			c0,0.722,0.181,1.236,0.542,1.542c0.36,0.307,0.739,0.46,1.137,0.46c0.324,0,0.649-0.045,0.974-0.135
			c0.325-0.09,0.631-0.208,0.921-0.352v5.792c-0.47,0.361-1.146,0.659-2.03,0.893c-0.885,0.234-2.03,0.352-3.438,0.352
			c-1.588,0-2.941-0.189-4.06-0.568c-1.119-0.379-1.994-0.894-2.625-1.543c-0.632-0.649-1.056-1.407-1.272-2.273
			c-0.938,1.083-2.211,2.084-3.815,3.004C2795.329,714.519,2793.281,714.979,2790.791,714.979z M2796.529,708.43
			c0.649,0,1.253-0.153,1.813-0.46c0.559-0.306,1.01-0.748,1.353-1.326c0.343-0.577,0.515-1.245,0.515-2.002v-2.382
			c-1.66,0-2.996,0.154-4.006,0.46c-1.011,0.307-1.751,0.723-2.219,1.245c-0.47,0.523-0.704,1.146-0.704,1.868
			c0,1.047,0.333,1.741,1.002,2.084C2794.95,708.259,2795.698,708.43,2796.529,708.43z"/>
		<path style="fill:#FFFFFF;" d="M2828.736,715.033c-1.948,0-3.663-0.226-5.142-0.676c-1.48-0.451-2.645-1.236-3.492-2.355
			c-0.848-1.118-1.271-2.652-1.271-4.601v-12.937h-3.031v-7.686h3.464l3.735-8.823h6.55v8.823h6.495v7.686h-6.495v10.231
			c0,1.588,0.324,2.607,0.975,3.058c0.649,0.452,1.353,0.677,2.11,0.677c0.396,0,0.947-0.062,1.651-0.189
			c0.703-0.126,1.271-0.279,1.705-0.46v6.063c-0.578,0.252-1.326,0.469-2.246,0.649c-0.921,0.18-1.832,0.315-2.734,0.406
			C2830.107,714.988,2829.35,715.033,2828.736,715.033z"/>
		<path style="fill:#FFFFFF;" d="M2853.527,714.979c-2.851,0-5.396-0.524-7.632-1.57c-2.238-1.046-3.997-2.58-5.278-4.601
			c-1.281-2.021-1.921-4.474-1.921-7.362v-1.678c0-2.887,0.631-5.34,1.895-7.362c1.263-2.021,3.013-3.554,5.25-4.601
			c2.237-1.046,4.781-1.57,7.633-1.57h1.353c2.851,0,5.269,0.542,7.254,1.624c1.984,1.083,3.5,2.553,4.547,4.412
			c1.046,1.859,1.569,3.997,1.569,6.414v3.356h-18.024c0,1.155,0.099,2.219,0.297,3.193c0.198,0.975,0.568,1.751,1.11,2.328
			c0.541,0.578,1.353,0.866,2.436,0.866c0.975,0,1.768-0.18,2.382-0.542c0.613-0.36,1.073-0.875,1.38-1.542
			c0.307-0.667,0.46-1.435,0.46-2.301h9.906c0,2.021-0.56,3.862-1.678,5.521c-1.119,1.66-2.707,2.977-4.764,3.951
			c-2.057,0.975-4.512,1.462-7.361,1.462H2853.527z M2850.172,697.333h7.47c0-1.587-0.353-2.742-1.056-3.464
			c-0.704-0.722-1.597-1.083-2.68-1.083c-1.119,0-2.021,0.388-2.706,1.164C2850.514,694.726,2850.172,695.854,2850.172,697.333z"/>
		<path style="fill:#FFFFFF;" d="M2669.164,778.914V739.94h6.278v25.658l11.854-14.344h7.362l-10.88,12.72l11.421,14.94h-7.578
			l-8.174-10.664l-4.006,4.114v6.55H2669.164z"/>
		<path style="fill:#FFFFFF;" d="M2710.682,779.455c-2.526,0-4.746-0.533-6.658-1.597c-1.913-1.064-3.401-2.625-4.466-4.682
			s-1.597-4.547-1.597-7.47v-1.245c0-2.923,0.568-5.413,1.705-7.47c1.137-2.057,2.688-3.618,4.655-4.683
			c1.966-1.064,4.213-1.597,6.739-1.597h0.703c2.346,0,4.402,0.479,6.171,1.435c1.768,0.957,3.14,2.319,4.114,4.087
			c0.974,1.768,1.461,3.843,1.461,6.225v3.41h-18.999c0,1.913,0.252,3.573,0.758,4.98c0.505,1.407,1.253,2.481,2.246,3.221
			c0.992,0.74,2.228,1.11,3.708,1.11c1.227,0,2.318-0.244,3.274-0.731c0.956-0.487,1.714-1.218,2.273-2.192
			c0.56-0.974,0.84-2.183,0.84-3.626h5.899c0,2.165-0.541,4.06-1.624,5.684c-1.082,1.624-2.544,2.888-4.384,3.789
			c-1.841,0.902-3.934,1.354-6.279,1.354H2710.682z M2704.564,762.404h12.774c0-2.525-0.55-4.393-1.65-5.602
			c-1.102-1.209-2.607-1.813-4.52-1.813c-1.806,0-3.329,0.623-4.574,1.867C2705.35,758.101,2704.673,759.95,2704.564,762.404z"/>
		<path style="fill:#FFFFFF;" d="M2733.252,788.982c-0.83,0-1.597-0.063-2.3-0.189c-0.704-0.127-1.363-0.316-1.976-0.568v-4.818
			c0.396,0.18,0.92,0.333,1.569,0.46s1.28,0.189,1.895,0.189c0.938,0,1.723-0.181,2.354-0.541c0.631-0.361,1.191-0.957,1.678-1.786
			c0.487-0.831,0.966-1.914,1.435-3.248l-10.825-27.227h6.766l7.091,19.433h0.325l6.874-19.433h6.226l-10.23,26.415
			c-0.795,2.093-1.67,3.997-2.626,5.711c-0.956,1.713-2.093,3.076-3.41,4.087C2736.779,788.476,2735.165,788.982,2733.252,788.982z"
			/>
	</g>
</g>
</svg>
