<?xml version="1.0" encoding="iso-8859-1"?>
<!-- Generator: Adobe Illustrator 29.6.0, SVG Export Plug-In . SVG Version: 9.03 Build 0)  -->
<svg version="1.1" xmlns="http://www.w3.org/2000/svg" xmlns:xlink="http://www.w3.org/1999/xlink" x="0px" y="0px"
	 viewBox="0 0 4000 2774" style="enable-background:new 0 0 4000 2774;" xml:space="preserve">
<g id="Background">
	<linearGradient id="SVGID_1_" gradientUnits="userSpaceOnUse" x1="2003.4484" y1="2773.0691" x2="2003.4484" y2="-0.931">
		<stop  offset="0" style="stop-color:#BED4FC;stop-opacity:0.6"/>
		<stop  offset="0.0325" style="stop-color:#C2D7FC;stop-opacity:0.613"/>
		<stop  offset="0.2631" style="stop-color:#DDE8FD;stop-opacity:0.7055"/>
		<stop  offset="0.4989" style="stop-color:#F0F5FE;stop-opacity:0.8"/>
		<stop  offset="0.7406" style="stop-color:#FBFDFF;stop-opacity:0.897"/>
		<stop  offset="0.9976" style="stop-color:#FFFFFF"/>
	</linearGradient>
	<rect x="3.448" y="-0.931" style="fill:url(#SVGID_1_);" width="4000" height="2774"/>
</g>
<g id="Boxes">
	
		<rect x="1468.831" y="1213.685" style="fill:#FFFFFF;stroke:#0033AD;stroke-width:6.3665;stroke-linejoin:round;stroke-miterlimit:10;" width="2424.028" height="1450"/>
	<rect x="99.237" y="1215.958" width="1060.717" height="538.143"/>
	<rect x="99.237" y="2125.542" width="1060.717" height="538.143"/>
</g>
<g id="Rules">
</g>
<g id="Text">
	<g>
		<path d="M735.454,303.228v-123.48h85.86l-2.881,20.16h-56.88v30.42h52.74v19.8h-52.74v32.94h57.601l2.88,20.16H735.454z"/>
		<path d="M871.531,305.027c-5.161,0-9.782-0.72-13.86-2.16c-4.08-1.44-7.262-3.87-9.539-7.29c-2.281-3.42-3.421-7.948-3.421-13.59
			v-52.38h-10.079v-18.36h10.8l8.64-29.34h15.12v29.34h21.6v18.36h-21.6v46.98c0,5.282,1.08,8.64,3.24,10.08s4.5,2.16,7.02,2.16
			c1.319,0,3.15-0.27,5.49-0.81s4.229-1.108,5.67-1.71v15.12c-1.561,0.841-3.481,1.53-5.76,2.07c-2.281,0.54-4.59,0.928-6.931,1.17
			C875.581,304.907,873.449,305.027,871.531,305.027z"/>
		<path d="M950.19,305.027c-8.641,0-16.29-1.771-22.95-5.31c-6.66-3.539-11.852-8.699-15.57-15.48
			c-3.721-6.778-5.58-15.03-5.58-24.75v-4.5c0-9.72,1.949-17.969,5.851-24.75c3.897-6.778,9.239-11.939,16.02-15.48
			c6.778-3.538,14.49-5.31,23.13-5.31h2.881c8.158,0,15.269,1.651,21.329,4.95c6.059,3.302,10.738,7.92,14.04,13.86
			c3.3,5.94,4.95,12.87,4.95,20.79v11.34h-62.28c0,5.76,0.721,10.8,2.16,15.12c1.44,4.32,3.601,7.622,6.48,9.9
			c2.88,2.281,6.66,3.42,11.34,3.42c3.839,0,7.2-0.748,10.08-2.25c2.88-1.499,5.158-3.749,6.84-6.75
			c1.679-2.998,2.521-6.66,2.521-10.98h22.859c0,7.082-1.8,13.351-5.399,18.81c-3.601,5.462-8.551,9.72-14.851,12.78
			s-13.59,4.59-21.87,4.59H950.19z M932.19,247.788h37.979c0-7.56-1.65-13.168-4.949-16.83c-3.303-3.659-7.83-5.49-13.591-5.49
			c-5.399,0-9.931,1.89-13.59,5.67C934.377,234.918,932.429,240.469,932.19,247.788z"/>
		<path d="M1014.986,303.228v-91.98h18.359l3.061,13.5c0.239-0.478,0.869-1.499,1.89-3.06c1.019-1.558,2.548-3.299,4.59-5.22
			c2.039-1.918,4.591-3.569,7.65-4.95c3.06-1.378,6.75-2.07,11.07-2.07c6.237,0,11.309,1.201,15.21,3.6
			c3.897,2.402,6.809,5.76,8.729,10.08c1.918,4.32,2.88,9.36,2.88,15.12c0,1.322-0.062,2.762-0.18,4.32
			c-0.121,1.561-0.242,2.942-0.36,4.14h-20.52v-3.78c0-2.278-0.45-4.59-1.351-6.93c-0.899-2.34-2.34-4.289-4.319-5.85
			c-1.98-1.558-4.711-2.34-8.19-2.34c-2.52,0-4.68,0.54-6.479,1.62c-1.8,1.08-3.271,2.43-4.41,4.05c-1.142,1.62-1.98,3.42-2.521,5.4
			s-0.81,3.811-0.81,5.49v58.86H1014.986z"/>
		<path d="M1104.445,303.228v-91.98h18.18l2.88,13.5c3.601-5.158,7.948-9,13.05-11.52c5.1-2.52,10.891-3.78,17.37-3.78
			c6.238,0,11.729,1.201,16.471,3.6c4.738,2.402,8.397,5.822,10.979,10.26c2.579,4.441,3.87,9.841,3.87,16.2v63.72h-24.48v-58.5
			c0-5.878-1.439-10.198-4.319-12.96c-2.88-2.759-6.781-4.14-11.7-4.14c-3.122,0-6.061,0.81-8.82,2.43
			c-2.762,1.62-4.922,3.811-6.479,6.57c-1.562,2.762-2.34,5.881-2.34,9.36v57.24H1104.445z"/>
		<path d="M1211.903,303.228v-129.6h24.66v129.6H1211.903z"/>
		<path d="M1325.299,303.228l-34.561-123.48h27.18l22.681,83.34h0.72l22.86-83.34h26.279l22.681,83.34h0.72l22.5-83.34h24.66
			l-34.561,123.48h-28.439l-21.42-78.12h-0.9l-21.42,78.12H1325.299z"/>
		<path d="M1498.459,305.027c-4.922,0-9.63-0.81-14.13-2.43s-8.19-4.32-11.07-8.1s-4.32-8.91-4.32-15.39
			c0-6.598,1.469-11.939,4.41-16.02c2.939-4.078,7.079-7.228,12.42-9.45c5.338-2.219,11.759-3.749,19.26-4.59
			c7.498-0.838,15.931-1.26,25.29-1.26v-8.1c0-5.279-1.439-9.028-4.319-11.25c-2.881-2.219-7.082-3.33-12.601-3.33
			c-4.68,0-8.792,1.052-12.33,3.15c-3.541,2.101-5.31,5.31-5.31,9.63v1.44h-23.58c-0.121-0.36-0.18-0.869-0.18-1.53
			c0-0.658,0-1.229,0-1.71c0-5.279,1.679-9.928,5.04-13.95c3.357-4.019,8.038-7.138,14.04-9.36c5.999-2.219,12.96-3.33,20.88-3.33
			h3.779c12.96,0,22.618,2.551,28.98,7.65c6.359,5.102,9.54,11.97,9.54,20.61v44.82c0,2.281,0.568,3.901,1.71,4.86
			c1.139,0.962,2.368,1.44,3.689,1.44c1.08,0,2.278-0.208,3.601-0.63c1.319-0.419,2.579-0.928,3.78-1.53v14.4
			c-1.562,1.201-3.632,2.16-6.21,2.88c-2.582,0.72-5.671,1.08-9.271,1.08c-4.32,0-7.92-0.692-10.8-2.07s-5.071-3.268-6.57-5.67
			c-1.502-2.399-2.43-5.158-2.79-8.28c-3.36,4.801-7.802,8.671-13.319,11.61C1512.558,303.557,1506.019,305.027,1498.459,305.027z
			 M1509.979,288.828c3.358,0,6.57-0.779,9.63-2.34c3.061-1.558,5.608-3.87,7.65-6.93c2.039-3.06,3.06-6.868,3.06-11.43v-7.38
			c-7.681,0-14.191,0.481-19.529,1.44c-5.342,0.962-9.392,2.551-12.15,4.77c-2.762,2.222-4.14,5.431-4.14,9.63
			c0,4.441,1.35,7.591,4.05,9.45C1501.249,287.899,1505.057,288.828,1509.979,288.828z"/>
		<path d="M1583.776,303.228v-129.6h24.66v129.6H1583.776z"/>
		<path d="M1633.454,303.228v-129.6h24.66v129.6H1633.454z"/>
		<path d="M1723.091,305.027c-8.641,0-16.29-1.771-22.95-5.31c-6.66-3.539-11.852-8.699-15.57-15.48
			c-3.721-6.778-5.58-15.03-5.58-24.75v-4.5c0-9.72,1.949-17.969,5.851-24.75c3.897-6.778,9.239-11.939,16.02-15.48
			c6.778-3.538,14.49-5.31,23.13-5.31h2.881c8.158,0,15.269,1.651,21.329,4.95c6.059,3.302,10.738,7.92,14.04,13.86
			c3.3,5.94,4.95,12.87,4.95,20.79v11.34h-62.28c0,5.76,0.721,10.8,2.16,15.12c1.44,4.32,3.601,7.622,6.48,9.9
			c2.88,2.281,6.66,3.42,11.34,3.42c3.839,0,7.2-0.748,10.08-2.25c2.88-1.499,5.158-3.749,6.84-6.75
			c1.679-2.998,2.521-6.66,2.521-10.98h22.859c0,7.082-1.8,13.351-5.399,18.81c-3.601,5.462-8.551,9.72-14.851,12.78
			s-13.59,4.59-21.87,4.59H1723.091z M1705.091,247.788h37.979c0-7.56-1.65-13.168-4.949-16.83c-3.303-3.659-7.83-5.49-13.591-5.49
			c-5.399,0-9.931,1.89-13.59,5.67C1707.278,234.918,1705.33,240.469,1705.091,247.788z"/>
		<path d="M1819.028,305.027c-5.161,0-9.782-0.72-13.86-2.16c-4.08-1.44-7.262-3.87-9.539-7.29c-2.281-3.42-3.421-7.948-3.421-13.59
			v-52.38h-10.079v-18.36h10.8l8.64-29.34h15.12v29.34h21.6v18.36h-21.6v46.98c0,5.282,1.08,8.64,3.24,10.08s4.5,2.16,7.02,2.16
			c1.319,0,3.15-0.27,5.49-0.81s4.229-1.108,5.67-1.71v15.12c-1.561,0.841-3.481,1.53-5.76,2.07c-2.281,0.54-4.59,0.928-6.931,1.17
			C1823.078,304.907,1820.946,305.027,1819.028,305.027z"/>
	</g>
	<g>
		<g>
			
				<radialGradient id="SVGID_00000157288290611010709170000016101065432947607194_" cx="2696.125" cy="754.3074" r="910.3904" gradientUnits="userSpaceOnUse">
				<stop  offset="0.098" style="stop-color:#3681CF"/>
				<stop  offset="0.1296" style="stop-color:#3376C3"/>
				<stop  offset="0.2004" style="stop-color:#2D62AF"/>
				<stop  offset="0.2472" style="stop-color:#2B5BA7"/>
				<stop  offset="0.3445" style="stop-color:#2A54A0"/>
				<stop  offset="0.4614" style="stop-color:#2B59A6"/>
				<stop  offset="0.7062" style="stop-color:#5E97D4"/>
				<stop  offset="0.9894" style="stop-color:#D4D4D4"/>
			</radialGradient>
			<path style="fill:url(#SVGID_00000157288290611010709170000016101065432947607194_);" d="M2700.373,916.271
				c-58.961,0-114.307-18.971-160.361-54.878c-56.634,34.269-122.373,52.358-190.462,52.358
				c-189.885,0-344.372-140.869-344.372-314.061c0-173.172,154.487-314.061,344.372-314.061c18.639,0,37.362,1.379,55.719,4.099
				c19.546-61.752,57.191-114.81,109.156-153.716c53.856-40.344,118.165-61.676,185.949-61.676
				c71.105,0,140.561,24.711,195.571,69.571c43.665,35.618,76.73,82.278,95.856,135.219c8.047-0.754,16.185-1.134,24.237-1.134
				c62.93,0,122.648,22.302,168.097,62.801c36.018,32.086,60.227,72.741,70.184,117.802
				c94.159,13.988,164.597,95.307,164.597,191.04c0,106.492-86.641,193.143-193.15,193.143c-30.59,0-61.076-7.425-88.428-21.495
				c-47.291,40.12-107.199,62.183-169.22,62.183c-36.53,0-73.314-7.84-106.591-22.686
				C2815.277,897.088,2759.659,916.271,2700.373,916.271z"/>
			<path style="fill:#0033AD;" d="M2700.373,973.398c-58.961,0-114.307-18.961-160.361-54.874
				c-56.634,34.274-122.373,52.358-190.462,52.358c-189.885,0-344.372-140.86-344.372-314.044
				c0-173.187,154.487-314.07,344.372-314.07c18.639,0,37.362,1.379,55.719,4.097c19.546-61.754,57.191-114.806,109.156-153.716
				c53.856-40.346,118.165-61.679,185.949-61.679c71.105,0,140.561,24.715,195.571,69.575
				c43.665,35.618,76.73,82.278,95.856,135.217c8.047-0.754,16.185-1.129,24.237-1.129c62.93,0,122.648,22.299,168.097,62.794
				c36.018,32.093,60.227,72.746,70.184,117.811c94.159,13.979,164.597,95.304,164.597,191.033
				c0,106.494-86.641,193.136-193.15,193.136c-30.59,0-61.076-7.416-88.428-21.481c-47.291,40.112-107.199,62.171-169.22,62.171
				c-36.53,0-73.314-7.833-106.591-22.679C2815.277,954.22,2759.659,973.398,2700.373,973.398z"/>
			
				<radialGradient id="SVGID_00000041292209288623926630000015795311113423243191_" cx="2721.7456" cy="804.6502" r="901.7585" gradientUnits="userSpaceOnUse">
				<stop  offset="0" style="stop-color:#59A0F0"/>
				<stop  offset="0.9894" style="stop-color:#E7EBF0"/>
			</radialGradient>
			<path style="fill:url(#SVGID_00000041292209288623926630000015795311113423243191_);" d="M2700.373,966.937
				c-58.952,0-114.713-19.81-159.872-56.29c-55.952,34.833-122.681,53.789-190.952,53.789
				c-186.327,0-337.902-138.003-337.902-307.597c0-169.615,151.574-307.609,337.902-307.609c20.273,0,40.42,1.641,60.255,4.896
				c37.802-127.226,154.652-216.182,290.569-216.182c69.615,0,137.614,24.195,191.481,68.116
				c44.104,35.959,77.253,83.808,95.523,137.169c9.514-1.087,19.094-1.626,28.659-1.626c61.368,0,119.532,21.722,163.784,61.162
				c36.282,32.313,60.139,73.625,69.097,118.752c92.044,11.449,163.524,90.154,163.524,185.256
				c0,102.928-83.74,186.672-186.677,186.672c-31.224,0-62.044-7.979-89.305-22.82c-46.308,40.659-106.155,63.513-168.343,63.513
				c-37.305,0-74.002-8.168-107.536-23.763C2815.353,947.021,2759.376,966.937,2700.373,966.937z"/>
			
				<radialGradient id="SVGID_00000122702348407081450340000009858212198565200527_" cx="2687.79" cy="1197.5455" r="1061.9408" gradientUnits="userSpaceOnUse">
				<stop  offset="0" style="stop-color:#58A6FC"/>
				<stop  offset="0.0297" style="stop-color:#61ABFC"/>
				<stop  offset="0.1852" style="stop-color:#8CC1FC"/>
				<stop  offset="0.3433" style="stop-color:#AFD3FC"/>
				<stop  offset="0.5021" style="stop-color:#CBE2FC"/>
				<stop  offset="0.662" style="stop-color:#DEECFC"/>
				<stop  offset="0.8236" style="stop-color:#EAF2FC"/>
				<stop  offset="0.9894" style="stop-color:#EEF4FC"/>
			</radialGradient>
			<path style="fill:url(#SVGID_00000122702348407081450340000009858212198565200527_);" d="M3225.765,555.67
				c-2.862,0-5.719,0.09-8.543,0.245c-3.507-99.253-92.207-178.747-201.186-178.747c-18.759,0-36.897,2.402-54.136,6.812
				c-26.231-120.333-133.317-210.461-261.528-210.461c-132.526,0-242.482,96.304-263.904,222.712
				c-27.52-7.416-56.698-11.437-86.92-11.437c-166.965,0-302.335,121.795-302.335,272.046c0,150.22,135.37,272.018,302.335,272.018
				c73.85,0,141.52-23.836,194.028-63.421c39.851,40.672,95.365,65.955,156.796,65.955c60.479,0,115.22-24.463,154.921-64.027
				c32.97,19.789,71.56,31.207,112.823,31.207c65.116,0,123.594-28.381,163.793-73.422c25.781,20.468,58.386,32.728,93.855,32.728
				c83.462,0,151.102-67.657,151.102-151.104C3376.866,623.317,3309.226,555.67,3225.765,555.67z"/>
		</g>
		<g>
			<defs>
				<path id="SVGID_00000103978840759351918610000004839813100238096290_" d="M2636.577,656.101
					c285.055-124.472,217.177-253.327,583.665-293.355c198.673,0,677.34,695.717-442.281,695.674
					c-792.9-0.052-864.502-92.41-842.618-561.532C2101.594,750.38,2351.508,780.567,2636.577,656.101z"/>
			</defs>
			<clipPath id="SVGID_00000031182535440050280680000008048371524061640114_">
				<use xlink:href="#SVGID_00000103978840759351918610000004839813100238096290_"  style="overflow:visible;"/>
			</clipPath>
			<g style="clip-path:url(#SVGID_00000031182535440050280680000008048371524061640114_);">
				
					<radialGradient id="SVGID_00000145059052604333915700000012170427944328378021_" cx="2721.7456" cy="804.6502" r="901.7585" gradientUnits="userSpaceOnUse">
					<stop  offset="0" style="stop-color:#4F9CF0"/>
					<stop  offset="0.9894" style="stop-color:#DEE5F0"/>
				</radialGradient>
				<path style="fill:url(#SVGID_00000145059052604333915700000012170427944328378021_);" d="M2700.373,966.937
					c-58.952,0-114.713-19.81-159.872-56.29c-55.952,34.833-122.681,53.789-190.952,53.789
					c-186.327,0-337.902-138.003-337.902-307.597c0-169.615,151.574-307.609,337.902-307.609c20.273,0,40.42,1.641,60.255,4.896
					c37.802-127.226,154.652-216.182,290.569-216.182c69.615,0,137.614,24.195,191.481,68.116
					c44.104,35.959,77.253,83.808,95.523,137.169c9.514-1.087,19.094-1.626,28.659-1.626c61.368,0,119.532,21.722,163.784,61.162
					c36.282,32.313,60.139,73.625,69.097,118.752c92.044,11.449,163.524,90.154,163.524,185.256
					c0,102.928-83.74,186.672-186.677,186.672c-31.224,0-62.044-7.979-89.305-22.82c-46.308,40.659-106.155,63.513-168.343,63.513
					c-37.305,0-74.002-8.168-107.536-23.763C2815.353,947.021,2759.376,966.937,2700.373,966.937z"/>
				
					<radialGradient id="SVGID_00000095296685258306832730000000215803283272245693_" cx="2687.79" cy="1197.5455" r="1061.9408" gradientUnits="userSpaceOnUse">
					<stop  offset="0" style="stop-color:#4EA1FC"/>
					<stop  offset="0.1666" style="stop-color:#7BB8FC"/>
					<stop  offset="0.3367" style="stop-color:#A0CBFC"/>
					<stop  offset="0.5063" style="stop-color:#BEDAFC"/>
					<stop  offset="0.6731" style="stop-color:#D3E5FC"/>
					<stop  offset="0.8357" style="stop-color:#E0ECFC"/>
					<stop  offset="0.9894" style="stop-color:#E4EEFC"/>
				</radialGradient>
				<path style="fill:url(#SVGID_00000095296685258306832730000000215803283272245693_);" d="M3225.765,555.67
					c-2.862,0-5.719,0.09-8.543,0.245c-3.507-99.253-92.207-178.747-201.186-178.747c-18.759,0-36.897,2.402-54.136,6.812
					c-26.231-120.333-133.317-210.461-261.528-210.461c-132.526,0-242.482,96.304-263.904,222.712
					c-27.52-7.416-56.698-11.437-86.92-11.437c-166.965,0-302.335,121.795-302.335,272.046c0,150.22,135.37,272.018,302.335,272.018
					c73.85,0,141.52-23.836,194.028-63.421c39.851,40.672,95.365,65.955,156.796,65.955c60.479,0,115.22-24.463,154.921-64.027
					c32.97,19.789,71.56,31.207,112.823,31.207c65.116,0,123.594-28.381,163.793-73.422c25.781,20.468,58.386,32.728,93.855,32.728
					c83.462,0,151.102-67.657,151.102-151.104C3376.866,623.317,3309.226,555.67,3225.765,555.67z"/>
			</g>
		</g>
	</g>
	<g>
		<path style="fill:#FFFFFF;" d="M404.479,1660.311l-18.624-65.856h12.384l12.96,47.136h0.384l13.152-47.136h11.808l13.056,47.136
			h0.384l12.96-47.136h11.136l-18.624,65.856h-12.576l-12.576-45.024h-0.48l-12.576,45.024H404.479z"/>
		<path style="fill:#FFFFFF;" d="M494.816,1661.271c-2.625,0-5.136-0.417-7.536-1.248s-4.368-2.256-5.904-4.272
			c-1.536-2.016-2.304-4.752-2.304-8.208c0-3.519,0.783-6.368,2.352-8.544c1.567-2.175,3.792-3.84,6.672-4.992
			c2.88-1.152,6.336-1.935,10.368-2.352c4.032-0.416,8.511-0.624,13.44-0.624v-4.608c0-3.199-0.816-5.455-2.448-6.768
			c-1.632-1.311-4.113-1.968-7.44-1.968c-2.752,0-5.184,0.609-7.296,1.824c-2.112,1.216-3.168,3.136-3.168,5.76v0.96H480.8
			c-0.064-0.255-0.096-0.56-0.096-0.912c0-0.351,0-0.687,0-1.008c0-2.815,0.879-5.28,2.64-7.392c1.76-2.112,4.208-3.744,7.344-4.896
			c3.135-1.152,6.72-1.728,10.752-1.728h1.632c6.656,0,11.616,1.312,14.88,3.936c3.264,2.625,4.896,6.305,4.896,11.04v25.056
			c0,1.216,0.288,2.081,0.864,2.592c0.576,0.513,1.215,0.768,1.92,0.768c0.639,0,1.328-0.127,2.064-0.384
			c0.735-0.255,1.423-0.543,2.064-0.864v6.816c-0.833,0.641-1.888,1.136-3.168,1.488c-1.281,0.351-2.817,0.528-4.608,0.528
			c-2.112,0-3.856-0.384-5.232-1.152c-1.377-0.768-2.417-1.808-3.12-3.12c-0.705-1.311-1.121-2.799-1.248-4.464
			c-1.857,2.752-4.257,4.896-7.2,6.432C502.239,1660.503,498.783,1661.271,494.816,1661.271z M499.616,1653.687
			c2.048,0,3.999-0.463,5.856-1.392c1.855-0.927,3.392-2.319,4.608-4.176c1.215-1.855,1.824-4.191,1.824-7.008v-3.744
			c-4.48,0-8.32,0.24-11.52,0.72c-3.201,0.48-5.632,1.361-7.296,2.64c-1.665,1.281-2.496,3.201-2.496,5.76
			c0,2.561,0.768,4.401,2.304,5.52C494.432,1653.127,496.671,1653.687,499.616,1653.687z"/>
		<path style="fill:#FFFFFF;" d="M539.839,1660.311v-69.12h11.136v69.12H539.839z"/>
		<path style="fill:#FFFFFF;" d="M565.566,1660.311v-69.12h11.136v69.12H565.566z"/>
		<path style="fill:#FFFFFF;" d="M611.645,1661.271c-4.48,0-8.417-0.945-11.808-2.832c-3.393-1.887-6.033-4.656-7.92-8.304
			c-1.889-3.648-2.832-8.064-2.832-13.248v-2.208c0-5.184,1.008-9.6,3.024-13.248s4.767-6.416,8.256-8.304
			c3.488-1.887,7.472-2.832,11.952-2.832h1.248c4.16,0,7.808,0.849,10.944,2.544c3.135,1.697,5.568,4.113,7.296,7.248
			c1.728,3.137,2.592,6.816,2.592,11.04v6.048h-33.696c0,3.393,0.447,6.336,1.344,8.832c0.896,2.496,2.223,4.401,3.984,5.712
			c1.76,1.312,3.951,1.968,6.576,1.968c2.175,0,4.111-0.432,5.808-1.296c1.695-0.864,3.039-2.16,4.032-3.888
			c0.992-1.728,1.488-3.872,1.488-6.432h10.464c0,3.84-0.96,7.2-2.88,10.08c-1.92,2.88-4.512,5.121-7.776,6.72
			c-3.264,1.599-6.976,2.4-11.136,2.4H611.645z M600.797,1631.031h22.656c0-4.479-0.977-7.791-2.928-9.936
			c-1.953-2.144-4.625-3.216-8.016-3.216c-3.201,0-5.904,1.104-8.112,3.312S600.989,1626.68,600.797,1631.031z"/>
		<path style="fill:#FFFFFF;" d="M661.948,1661.271c-2.561,0-4.848-0.384-6.864-1.152s-3.585-2.031-4.704-3.792
			c-1.121-1.76-1.68-4.08-1.68-6.96v-29.568h-5.376v-8.544h5.664l3.936-15.648h6.912v15.648h11.424v8.544h-11.424v27.36
			c0,2.817,0.576,4.608,1.728,5.376s2.4,1.152,3.744,1.152c0.703,0,1.68-0.159,2.928-0.48c1.248-0.319,2.256-0.639,3.024-0.96v7.2
			c-0.768,0.384-1.696,0.72-2.784,1.008c-1.089,0.288-2.208,0.495-3.36,0.624C663.964,1661.207,662.908,1661.271,661.948,1661.271z"
			/>
		<path style="fill:#FFFFFF;" d="M697.658,1660.311l24.96-65.856h13.824l24.864,65.856h-12.48l-5.472-14.304h-28.608l-5.472,14.304
			H697.658z M717.818,1637.271h22.368l-10.944-29.856h-0.384L717.818,1637.271z"/>
		<path style="fill:#FFFFFF;" d="M768.985,1677.687v-66.432h8.544l1.44,6.624c1.536-2.304,3.552-4.143,6.048-5.52
			c2.496-1.375,5.407-2.064,8.736-2.064c3.711,0,7.071,0.816,10.08,2.448c3.007,1.632,5.408,4.257,7.2,7.872
			c1.791,3.616,2.688,8.368,2.688,14.256v2.016c0,5.313-0.864,9.792-2.592,13.44s-4.048,6.384-6.96,8.208
			c-2.913,1.824-6.129,2.736-9.648,2.736c-3.456,0-6.384-0.657-8.784-1.968c-2.4-1.311-4.24-2.991-5.52-5.04v23.424H768.985z
			 M791.257,1653.495c2.048,0,3.888-0.528,5.52-1.584c1.632-1.056,2.912-2.624,3.84-4.704c0.927-2.079,1.392-4.656,1.392-7.728
			v-6.72c0-3.519-0.465-6.368-1.392-8.544c-0.929-2.175-2.208-3.775-3.84-4.8c-1.632-1.023-3.472-1.536-5.52-1.536
			c-1.984,0-3.825,0.497-5.52,1.488c-1.696,0.993-3.057,2.561-4.08,4.704c-1.025,2.145-1.536,5.009-1.536,8.592v6.816
			c0,3.137,0.495,5.745,1.488,7.824c0.992,2.08,2.335,3.633,4.032,4.656C787.336,1652.983,789.208,1653.495,791.257,1653.495z"/>
		<path style="fill:#FFFFFF;" d="M825.72,1677.687v-66.432h8.544l1.44,6.624c1.536-2.304,3.552-4.143,6.048-5.52
			c2.496-1.375,5.407-2.064,8.736-2.064c3.711,0,7.071,0.816,10.08,2.448c3.007,1.632,5.408,4.257,7.2,7.872
			c1.791,3.616,2.688,8.368,2.688,14.256v2.016c0,5.313-0.864,9.792-2.592,13.44s-4.048,6.384-6.96,8.208
			c-2.913,1.824-6.129,2.736-9.648,2.736c-3.456,0-6.384-0.657-8.784-1.968c-2.4-1.311-4.24-2.991-5.52-5.04v23.424H825.72z
			 M847.992,1653.495c2.048,0,3.888-0.528,5.52-1.584c1.632-1.056,2.912-2.624,3.84-4.704c0.927-2.079,1.392-4.656,1.392-7.728
			v-6.72c0-3.519-0.465-6.368-1.392-8.544c-0.929-2.175-2.208-3.775-3.84-4.8c-1.632-1.023-3.472-1.536-5.52-1.536
			c-1.984,0-3.825,0.497-5.52,1.488c-1.696,0.993-3.057,2.561-4.08,4.704c-1.025,2.145-1.536,5.009-1.536,8.592v6.816
			c0,3.137,0.495,5.745,1.488,7.824c0.992,2.08,2.335,3.633,4.032,4.656C844.071,1652.983,845.943,1653.495,847.992,1653.495z"/>
	</g>
	<g>
		<g>
			<g>
				<polyline style="fill:none;stroke:#000000;stroke-width:9;stroke-miterlimit:10;" points="1908.967,2176.783 1908.967,1980.946 
					2526.648,1980.946 2526.648,1811.221 				"/>
				<g>
					<polygon points="1935.893,2168.904 1908.967,2215.534 1882.041,2168.904 					"/>
				</g>
				<g>
					<polygon points="2553.574,1819.099 2526.648,1772.469 2499.722,1819.099 					"/>
				</g>
			</g>
		</g>
	</g>
	<g>
		<g>
			<g>
				<polyline style="fill:none;stroke:#000000;stroke-width:9;stroke-miterlimit:10;" points="3485.316,2176.783 3485.316,1980.946 
					2867.635,1980.946 2867.635,1811.221 				"/>
				<g>
					<polygon points="3512.242,2168.904 3485.316,2215.534 3458.39,2168.904 					"/>
				</g>
				<g>
					<polygon points="2894.561,1819.099 2867.635,1772.469 2840.709,1819.099 					"/>
				</g>
			</g>
		</g>
	</g>
	<path style="fill:#FF5178;" d="M948.593,851.362H310.597c-27.818,0-50.368-22.551-50.368-50.368v-268.63
		c0-27.818,22.551-50.368,50.368-50.368h637.996c27.818,0,50.368,22.551,50.368,50.368v268.63
		C998.962,828.811,976.411,851.362,948.593,851.362z"/>
	<g>
		<path style="fill:#FFFFFF;" d="M501.296,702.74c-5.948,0-11.083-1.102-15.408-3.306c-4.326-2.204-7.666-5.316-10.021-9.338
			c-2.357-4.02-3.534-8.7-3.534-14.036v-54.056h16.914v53.824c0,4.176,1.292,7.56,3.881,10.15c2.587,2.592,6.082,3.886,10.484,3.886
			s7.877-1.314,10.426-3.944c2.549-2.628,3.823-5.992,3.823-10.092v-53.824h16.914v54.056c0,5.336-1.294,10.016-3.881,14.036
			c-2.588,4.022-6.14,7.134-10.658,9.338s-9.751,3.306-15.697,3.306H501.296z"/>
		<path style="fill:#FFFFFF;" d="M572.078,702.74c-3.707,0-7.067-0.464-10.079-1.392c-3.012-0.928-5.619-2.184-7.82-3.77
			c-2.201-1.584-3.881-3.44-5.04-5.568c-1.158-2.126-1.737-4.426-1.737-6.902c0-0.464,0-0.85,0-1.16
			c0-0.308,0.038-0.734,0.116-1.276h13.438c-0.078,0.232-0.116,0.446-0.116,0.638c0,0.194,0,0.368,0,0.522
			c0,1.934,0.655,3.538,1.97,4.814c1.312,1.276,3.012,2.204,5.097,2.784c2.085,0.58,4.324,0.87,6.719,0.87
			c1.93,0,3.881-0.232,5.851-0.696c1.969-0.464,3.609-1.218,4.923-2.262c1.312-1.044,1.969-2.378,1.969-4.002
			c0-1.778-0.677-3.15-2.027-4.118c-1.352-0.966-3.167-1.74-5.444-2.32c-2.279-0.58-4.77-1.082-7.472-1.508
			c-2.705-0.424-5.427-0.966-8.167-1.624c-2.742-0.656-5.253-1.604-7.53-2.842c-2.279-1.236-4.095-2.918-5.445-5.046
			c-1.353-2.126-2.027-4.93-2.027-8.41c0-2.938,0.675-5.568,2.027-7.888c1.35-2.32,3.204-4.252,5.561-5.8
			c2.355-1.546,5.058-2.706,8.109-3.48c3.05-0.772,6.236-1.16,9.557-1.16h2.317c3.088,0,6.042,0.388,8.862,1.16
			c2.818,0.774,5.347,1.876,7.588,3.306c2.239,1.432,3.997,3.132,5.271,5.104c1.274,1.972,1.912,4.118,1.912,6.438
			c0,0.388-0.02,0.832-0.058,1.334c-0.04,0.504-0.098,0.832-0.174,0.986h-13.438v-0.928c0-0.85-0.213-1.682-0.637-2.494
			c-0.425-0.812-1.12-1.566-2.085-2.262c-0.967-0.696-2.201-1.256-3.707-1.682c-1.506-0.424-3.302-0.638-5.387-0.638
			c-1.854,0-3.515,0.174-4.981,0.522c-1.468,0.348-2.704,0.812-3.707,1.392c-1.004,0.58-1.738,1.258-2.201,2.03
			c-0.463,0.774-0.695,1.548-0.695,2.32c0,1.624,0.695,2.882,2.085,3.77c1.39,0.89,3.224,1.586,5.503,2.088
			c2.277,0.504,4.788,0.968,7.53,1.392c2.741,0.426,5.463,0.948,8.167,1.566c2.703,0.62,5.213,1.566,7.53,2.842
			c2.317,1.276,4.151,2.998,5.503,5.162c1.351,2.166,2.027,4.988,2.027,8.468c0,3.636-0.695,6.728-2.085,9.28
			c-1.39,2.552-3.321,4.582-5.792,6.09c-2.473,1.508-5.253,2.61-8.341,3.306c-3.09,0.696-6.333,1.044-9.731,1.044H572.078z"/>
		<path style="fill:#FFFFFF;" d="M640.195,702.74c-5.561,0-10.484-1.142-14.771-3.422c-4.287-2.28-7.628-5.606-10.021-9.976
			c-2.395-4.368-3.591-9.686-3.591-15.95v-2.9c0-6.264,1.254-11.58,3.765-15.95c2.509-4.368,5.946-7.694,10.311-9.976
			c4.362-2.28,9.326-3.422,14.886-3.422h1.854c5.251,0,9.827,1.064,13.728,3.19c3.899,2.128,6.911,5.104,9.036,8.932
			c2.123,3.828,3.186,8.294,3.186,13.398v7.308h-40.083c0,3.712,0.463,6.96,1.39,9.744c0.927,2.784,2.317,4.912,4.17,6.38
			c1.854,1.47,4.287,2.204,7.298,2.204c2.471,0,4.634-0.482,6.488-1.45c1.854-0.966,3.319-2.416,4.402-4.35
			c1.081-1.932,1.622-4.292,1.622-7.076h14.712c0,4.563-1.158,8.604-3.476,12.122c-2.317,3.52-5.502,6.264-9.557,8.236
			c-4.055,1.972-8.747,2.958-14.075,2.958H640.195z M628.61,665.852h24.444c0-4.872-1.062-8.486-3.186-10.846
			c-2.125-2.358-5.04-3.538-8.747-3.538c-3.476,0-6.392,1.218-8.747,3.654C630.019,657.558,628.764,661.136,628.61,665.852z"/>
		<path style="fill:#FFFFFF;" d="M681.898,701.58v-59.276h11.816l1.97,8.7c0.154-0.308,0.559-0.966,1.216-1.972
			c0.655-1.004,1.64-2.126,2.954-3.364c1.312-1.236,2.954-2.3,4.923-3.19c1.969-0.888,4.344-1.334,7.125-1.334
			c4.015,0,7.278,0.774,9.789,2.32c2.509,1.548,4.382,3.712,5.619,6.496c1.234,2.784,1.854,6.032,1.854,9.744
			c0,0.852-0.04,1.78-0.116,2.784c-0.078,1.006-0.156,1.896-0.232,2.668H715.61v-2.436c0-1.468-0.29-2.958-0.869-4.466
			c-0.579-1.508-1.506-2.764-2.78-3.77c-1.274-1.004-3.032-1.508-5.271-1.508c-1.622,0-3.012,0.348-4.17,1.044
			c-1.159,0.696-2.105,1.566-2.838,2.61c-0.735,1.044-1.274,2.204-1.622,3.48c-0.347,1.276-0.521,2.456-0.521,3.538v37.932H681.898z
			"/>
		<path style="fill:#FFFFFF;" d="M760.674,702.74c-3.707,0-7.067-0.464-10.079-1.392c-3.012-0.928-5.619-2.184-7.82-3.77
			c-2.201-1.584-3.881-3.44-5.04-5.568c-1.158-2.126-1.737-4.426-1.737-6.902c0-0.464,0-0.85,0-1.16
			c0-0.308,0.038-0.734,0.116-1.276h13.438c-0.078,0.232-0.116,0.446-0.116,0.638c0,0.194,0,0.368,0,0.522
			c0,1.934,0.655,3.538,1.97,4.814c1.312,1.276,3.012,2.204,5.097,2.784c2.085,0.58,4.324,0.87,6.719,0.87
			c1.93,0,3.881-0.232,5.851-0.696c1.969-0.464,3.609-1.218,4.923-2.262c1.312-1.044,1.969-2.378,1.969-4.002
			c0-1.778-0.677-3.15-2.027-4.118c-1.352-0.966-3.167-1.74-5.444-2.32c-2.279-0.58-4.77-1.082-7.472-1.508
			c-2.705-0.424-5.427-0.966-8.167-1.624c-2.742-0.656-5.253-1.604-7.53-2.842c-2.279-1.236-4.095-2.918-5.445-5.046
			c-1.353-2.126-2.027-4.93-2.027-8.41c0-2.938,0.675-5.568,2.027-7.888c1.35-2.32,3.204-4.252,5.561-5.8
			c2.355-1.546,5.058-2.706,8.109-3.48c3.05-0.772,6.236-1.16,9.557-1.16h2.317c3.088,0,6.042,0.388,8.862,1.16
			c2.818,0.774,5.347,1.876,7.588,3.306c2.239,1.432,3.997,3.132,5.271,5.104c1.274,1.972,1.912,4.118,1.912,6.438
			c0,0.388-0.02,0.832-0.058,1.334c-0.04,0.504-0.098,0.832-0.174,0.986h-13.438v-0.928c0-0.85-0.213-1.682-0.637-2.494
			c-0.425-0.812-1.12-1.566-2.085-2.262c-0.967-0.696-2.201-1.256-3.707-1.682c-1.506-0.424-3.302-0.638-5.387-0.638
			c-1.854,0-3.515,0.174-4.981,0.522c-1.468,0.348-2.704,0.812-3.707,1.392c-1.004,0.58-1.738,1.258-2.201,2.03
			c-0.463,0.774-0.695,1.548-0.695,2.32c0,1.624,0.695,2.882,2.085,3.77c1.39,0.89,3.224,1.586,5.503,2.088
			c2.277,0.504,4.788,0.968,7.53,1.392c2.741,0.426,5.463,0.948,8.167,1.566c2.703,0.62,5.213,1.566,7.53,2.842
			c2.317,1.276,4.151,2.998,5.503,5.162c1.351,2.166,2.027,4.988,2.027,8.468c0,3.636-0.695,6.728-2.085,9.28
			c-1.39,2.552-3.321,4.582-5.792,6.09c-2.473,1.508-5.253,2.61-8.341,3.306c-3.09,0.696-6.333,1.044-9.731,1.044H760.674z"/>
	</g>
	<path style="fill:#0033AD;" d="M3016.095,1771.522h-637.996c-27.817,0-50.368-22.551-50.368-50.368v-268.63
		c0-27.818,22.551-50.368,50.368-50.368h637.996c27.818,0,50.368,22.551,50.368,50.368v268.63
		C3066.463,1748.972,3043.913,1771.522,3016.095,1771.522z"/>
	<g>
		<path style="fill:#FFFFFF;" d="M2428.449,1622.601c-3.723,0-7.085-0.917-10.092-2.752c-3.006-1.834-5.367-4.371-7.085-7.611
			c-1.718-3.238-2.577-6.951-2.577-11.137v-2.666c0-3.152,0.529-6.033,1.589-8.643c1.06-2.608,2.505-4.887,4.338-6.837
			c1.832-1.948,3.979-3.44,6.441-4.472c2.461-1.032,5.096-1.548,7.901-1.548h1.632c3.835,0,7.172,0.761,10.006,2.279
			c2.834,1.52,5.01,3.642,6.527,6.364c1.517,2.724,2.276,5.92,2.276,9.589h-10.221c0-2.35-0.358-4.3-1.074-5.848
			c-0.716-1.548-1.732-2.723-3.049-3.526c-1.317-0.802-2.892-1.204-4.724-1.204c-2.634,0-4.839,0.903-6.613,2.709
			c-1.775,1.806-2.662,4.458-2.662,7.955v8.858c0,3.44,0.844,6.092,2.533,7.955c1.688,1.864,3.965,2.795,6.828,2.795
			c2.004,0,3.693-0.344,5.067-1.032s2.418-1.806,3.135-3.354c0.716-1.548,1.073-3.612,1.073-6.192h9.706
			c0,3.899-0.831,7.21-2.491,9.933c-1.661,2.724-3.95,4.802-6.871,6.235c-2.92,1.433-6.241,2.15-9.963,2.15H2428.449z"/>
		<path style="fill:#FFFFFF;" d="M2470.19,1622.601c-2.349,0-4.596-0.387-6.742-1.161c-2.147-0.774-3.908-2.064-5.282-3.87
			c-1.374-1.806-2.062-4.257-2.062-7.353c0-3.152,0.701-5.704,2.104-7.654c1.402-1.948,3.378-3.453,5.926-4.515
			c2.548-1.061,5.611-1.792,9.19-2.193c3.577-0.4,7.601-0.602,12.066-0.602v-3.87c0-2.522-0.687-4.313-2.061-5.375
			c-1.374-1.061-3.379-1.591-6.013-1.591c-2.232,0-4.194,0.503-5.883,1.505c-1.689,1.003-2.534,2.537-2.534,4.601v0.688h-11.251
			c-0.058-0.172-0.086-0.416-0.086-0.731c0-0.314,0-0.587,0-0.817c0-2.522,0.802-4.743,2.405-6.665
			c1.603-1.92,3.835-3.41,6.699-4.472c2.862-1.061,6.184-1.591,9.963-1.591h1.804c6.184,0,10.792,1.219,13.827,3.655
			c3.034,2.438,4.553,5.719,4.553,9.847v21.414c0,1.09,0.271,1.864,0.815,2.322c0.544,0.459,1.13,0.688,1.761,0.688
			c0.516,0,1.087-0.1,1.718-0.301c0.629-0.2,1.23-0.443,1.804-0.731v6.88c-0.745,0.574-1.732,1.032-2.963,1.376
			c-1.232,0.344-2.706,0.516-4.424,0.516c-2.061,0-3.778-0.331-5.153-0.989c-1.374-0.659-2.419-1.562-3.135-2.709
			c-0.716-1.146-1.159-2.464-1.331-3.956c-1.604,2.294-3.723,4.143-6.355,5.547
			C2476.917,1621.898,2473.798,1622.601,2470.19,1622.601z M2475.687,1614.861c1.603,0,3.135-0.373,4.596-1.118
			c1.46-0.745,2.676-1.849,3.649-3.311s1.46-3.281,1.46-5.461v-3.526c-3.664,0-6.771,0.229-9.318,0.688
			c-2.548,0.459-4.48,1.219-5.797,2.279c-1.318,1.062-1.976,2.595-1.976,4.601c0,2.122,0.644,3.627,1.933,4.515
			C2471.521,1614.417,2473.339,1614.861,2475.687,1614.861z"/>
		<path style="fill:#FFFFFF;" d="M2510.899,1621.741v-43.946h8.76l1.46,6.45c0.114-0.229,0.415-0.716,0.902-1.462
			c0.485-0.745,1.216-1.576,2.19-2.494c0.973-0.917,2.189-1.705,3.649-2.365c1.46-0.659,3.221-0.989,5.282-0.989
			c2.977,0,5.396,0.574,7.258,1.72c1.859,1.147,3.249,2.752,4.165,4.816c0.915,2.064,1.374,4.472,1.374,7.224
			c0,0.631-0.029,1.319-0.086,2.064c-0.058,0.746-0.115,1.405-0.171,1.978h-9.792v-1.806c0-1.088-0.214-2.193-0.644-3.311
			c-0.43-1.118-1.116-2.049-2.062-2.795c-0.944-0.745-2.248-1.118-3.907-1.118c-1.203,0-2.233,0.258-3.093,0.774
			c-0.858,0.516-1.561,1.161-2.104,1.935c-0.545,0.774-0.945,1.634-1.203,2.58c-0.257,0.946-0.386,1.821-0.386,2.623v28.122
			H2510.899z"/>
		<path style="fill:#FFFFFF;" d="M2569.645,1622.601c-3.435,0-6.499-0.803-9.189-2.408c-2.692-1.604-4.824-4.099-6.398-7.482
			c-1.575-3.382-2.362-7.683-2.362-12.9v-0.946c0-4.873,0.787-8.929,2.362-12.169c1.574-3.238,3.679-5.676,6.312-7.31
			c2.633-1.634,5.497-2.451,8.589-2.451s5.682,0.574,7.772,1.72c2.09,1.147,3.679,2.58,4.767,4.3v-23.134h11.681v61.92h-9.189
			l-1.289-5.848c-1.374,1.95-3.121,3.556-5.238,4.816C2575.342,1621.969,2572.737,1622.601,2569.645,1622.601z M2572.651,1614.861
			c1.659,0,3.147-0.4,4.466-1.204c1.316-0.802,2.375-2.049,3.178-3.741c0.801-1.69,1.202-3.855,1.202-6.493v-7.654
			c0-2.408-0.387-4.414-1.159-6.02c-0.773-1.604-1.833-2.823-3.178-3.655c-1.346-0.831-2.85-1.247-4.509-1.247
			c-2.405,0-4.438,0.933-6.099,2.795c-1.661,1.864-2.49,4.573-2.49,8.127v7.654c0,2.638,0.387,4.802,1.159,6.493
			c0.773,1.692,1.804,2.939,3.092,3.741C2569.602,1614.46,2571.047,1614.861,2572.651,1614.861z"/>
		<path style="fill:#FFFFFF;" d="M2616.366,1622.601c-2.349,0-4.596-0.387-6.742-1.161c-2.147-0.774-3.908-2.064-5.282-3.87
			c-1.374-1.806-2.062-4.257-2.062-7.353c0-3.152,0.701-5.704,2.104-7.654c1.402-1.948,3.378-3.453,5.926-4.515
			c2.548-1.061,5.611-1.792,9.19-2.193c3.577-0.4,7.601-0.602,12.066-0.602v-3.87c0-2.522-0.687-4.313-2.061-5.375
			c-1.374-1.061-3.379-1.591-6.013-1.591c-2.232,0-4.194,0.503-5.883,1.505c-1.689,1.003-2.534,2.537-2.534,4.601v0.688h-11.251
			c-0.058-0.172-0.086-0.416-0.086-0.731c0-0.314,0-0.587,0-0.817c0-2.522,0.802-4.743,2.405-6.665
			c1.603-1.92,3.835-3.41,6.699-4.472c2.862-1.061,6.184-1.591,9.963-1.591h1.804c6.184,0,10.792,1.219,13.827,3.655
			c3.034,2.438,4.553,5.719,4.553,9.847v21.414c0,1.09,0.271,1.864,0.815,2.322c0.544,0.459,1.13,0.688,1.761,0.688
			c0.516,0,1.087-0.1,1.718-0.301c0.629-0.2,1.23-0.443,1.804-0.731v6.88c-0.745,0.574-1.732,1.032-2.963,1.376
			c-1.232,0.344-2.706,0.516-4.424,0.516c-2.061,0-3.778-0.331-5.153-0.989c-1.374-0.659-2.419-1.562-3.135-2.709
			c-0.716-1.146-1.159-2.464-1.331-3.956c-1.604,2.294-3.723,4.143-6.355,5.547
			C2623.093,1621.898,2619.974,1622.601,2616.366,1622.601z M2621.862,1614.861c1.603,0,3.135-0.373,4.596-1.118
			c1.46-0.745,2.676-1.849,3.649-3.311s1.46-3.281,1.46-5.461v-3.526c-3.664,0-6.771,0.229-9.318,0.688
			c-2.548,0.459-4.48,1.219-5.797,2.279c-1.318,1.062-1.976,2.595-1.976,4.601c0,2.122,0.644,3.627,1.933,4.515
			C2617.697,1614.417,2619.515,1614.861,2621.862,1614.861z"/>
		<path style="fill:#FFFFFF;" d="M2657.075,1621.741v-43.946h8.674l1.375,6.45c1.718-2.464,3.792-4.3,6.227-5.504
			c2.433-1.204,5.196-1.806,8.288-1.806c2.977,0,5.596,0.574,7.858,1.72c2.261,1.147,4.007,2.782,5.239,4.902
			c1.23,2.122,1.847,4.702,1.847,7.74v30.444h-11.681v-27.95c0-2.808-0.688-4.872-2.062-6.192c-1.374-1.318-3.235-1.978-5.583-1.978
			c-1.489,0-2.892,0.387-4.208,1.161c-1.317,0.774-2.349,1.821-3.092,3.139c-0.745,1.319-1.116,2.81-1.116,4.472v27.348H2657.075z"
			/>
		<path style="fill:#FFFFFF;" d="M2727.415,1622.601c-4.009,0-7.602-0.903-10.779-2.709c-3.178-1.806-5.668-4.371-7.472-7.697
			c-1.804-3.325-2.706-7.224-2.706-11.696v-1.548c0-4.528,0.902-8.428,2.706-11.696s4.279-5.805,7.429-7.611
			c3.148-1.806,6.728-2.709,10.736-2.709h1.718c4.064,0,7.672,0.903,10.821,2.709c3.148,1.806,5.626,4.343,7.43,7.611
			c1.803,3.268,2.705,7.167,2.705,11.696v1.548c0,4.53-0.902,8.443-2.705,11.739c-1.804,3.297-4.281,5.848-7.43,7.654
			c-3.149,1.806-6.729,2.709-10.735,2.709H2727.415z M2728.188,1614.861c1.774,0,3.363-0.416,4.767-1.247
			c1.402-0.831,2.52-2.078,3.35-3.741c0.829-1.662,1.245-3.64,1.245-5.934v-8.428c0-2.35-0.416-4.328-1.245-5.934
			c-0.83-1.604-1.947-2.838-3.35-3.698c-1.403-0.86-2.992-1.29-4.767-1.29c-1.718,0-3.293,0.43-4.724,1.29
			c-1.432,0.86-2.563,2.093-3.393,3.698c-0.831,1.606-1.245,3.584-1.245,5.934v8.428c0,2.293,0.414,4.271,1.245,5.934
			c0.829,1.664,1.961,2.911,3.393,3.741C2724.895,1614.445,2726.47,1614.861,2728.188,1614.861z"/>
		<path style="fill:#FFFFFF;" d="M2758.763,1603.423v-10.148h21.815v10.148H2758.763z"/>
		<path style="fill:#FFFFFF;" d="M2791.398,1621.741v-43.946h8.675l1.374,6.45c1.718-2.464,3.793-4.3,6.227-5.504
			s5.196-1.806,8.288-1.806c2.977,0,5.597,0.574,7.858,1.72c2.262,1.147,4.008,2.782,5.239,4.902c1.23,2.122,1.847,4.702,1.847,7.74
			v30.444h-11.681v-27.95c0-2.808-0.687-4.872-2.061-6.192c-1.375-1.318-3.236-1.978-5.583-1.978c-1.489,0-2.892,0.387-4.209,1.161
			s-2.348,1.821-3.092,3.139c-0.744,1.319-1.116,2.81-1.116,4.472v27.348H2791.398z"/>
		<path style="fill:#FFFFFF;" d="M2861.738,1622.601c-4.009,0-7.601-0.903-10.778-2.709c-3.178-1.806-5.669-4.371-7.473-7.697
			c-1.804-3.325-2.705-7.224-2.705-11.696v-1.548c0-4.528,0.901-8.428,2.705-11.696s4.279-5.805,7.43-7.611
			c3.148-1.806,6.727-2.709,10.735-2.709h1.718c4.065,0,7.672,0.903,10.822,2.709c3.147,1.806,5.625,4.343,7.429,7.611
			s2.705,7.167,2.705,11.696v1.548c0,4.53-0.901,8.443-2.705,11.739c-1.804,3.297-4.281,5.848-7.429,7.654
			c-3.15,1.806-6.729,2.709-10.736,2.709H2861.738z M2862.512,1614.861c1.773,0,3.362-0.416,4.767-1.247
			c1.402-0.831,2.519-2.078,3.35-3.741c0.829-1.662,1.245-3.64,1.245-5.934v-8.428c0-2.35-0.416-4.328-1.245-5.934
			c-0.831-1.604-1.947-2.838-3.35-3.698c-1.404-0.86-2.993-1.29-4.767-1.29c-1.718,0-3.294,0.43-4.724,1.29
			c-1.433,0.86-2.563,2.093-3.393,3.698c-0.831,1.606-1.246,3.584-1.246,5.934v8.428c0,2.293,0.415,4.271,1.246,5.934
			c0.829,1.664,1.96,2.911,3.393,3.741C2859.218,1614.445,2860.794,1614.861,2862.512,1614.861z"/>
		<path style="fill:#FFFFFF;" d="M2910.092,1622.601c-3.436,0-6.499-0.803-9.189-2.408c-2.692-1.604-4.825-4.099-6.399-7.482
			c-1.575-3.382-2.361-7.683-2.361-12.9v-0.946c0-4.873,0.786-8.929,2.361-12.169c1.574-3.238,3.679-5.676,6.313-7.31
			c2.633-1.634,5.496-2.451,8.588-2.451s5.683,0.574,7.773,1.72c2.089,1.147,3.678,2.58,4.767,4.3v-23.134h11.681v61.92h-9.19
			l-1.288-5.848c-1.374,1.95-3.121,3.556-5.239,4.816C2915.788,1621.969,2913.184,1622.601,2910.092,1622.601z M2913.098,1614.861
			c1.66,0,3.148-0.4,4.466-1.204c1.316-0.802,2.376-2.049,3.178-3.741c0.802-1.69,1.203-3.855,1.203-6.493v-7.654
			c0-2.408-0.387-4.414-1.16-6.02c-0.772-1.604-1.833-2.823-3.178-3.655c-1.346-0.831-2.849-1.247-4.509-1.247
			c-2.404,0-4.438,0.933-6.098,2.795c-1.661,1.864-2.491,4.573-2.491,8.127v7.654c0,2.638,0.387,4.802,1.16,6.493
			c0.772,1.692,1.804,2.939,3.092,3.741C2910.049,1614.46,2911.494,1614.861,2913.098,1614.861z"/>
		<path style="fill:#FFFFFF;" d="M2964.371,1622.601c-4.123,0-7.773-0.846-10.951-2.537c-3.178-1.691-5.655-4.156-7.429-7.396
			c-1.775-3.238-2.663-7.181-2.663-11.825v-2.15c0-4.644,0.931-8.585,2.792-11.825c1.859-3.238,4.408-5.704,7.644-7.396
			c3.234-1.69,6.914-2.537,11.036-2.537h1.375c3.893,0,7.285,0.789,10.177,2.365c2.891,1.578,5.124,3.784,6.699,6.622
			c1.574,2.838,2.362,6.149,2.362,9.933v5.418h-29.717c0,2.752,0.344,5.16,1.03,7.224c0.688,2.064,1.718,3.642,3.092,4.73
			c1.375,1.09,3.178,1.634,5.411,1.634c1.832,0,3.436-0.357,4.81-1.075c1.374-0.716,2.461-1.791,3.264-3.225
			c0.802-1.432,1.202-3.182,1.202-5.246h10.908c0,3.383-0.859,6.378-2.577,8.987c-1.718,2.609-4.079,4.644-7.085,6.106
			s-6.484,2.193-10.436,2.193H2964.371z M2955.782,1595.253h18.122c0-3.612-0.788-6.292-2.362-8.041
			c-1.575-1.749-3.735-2.623-6.484-2.623c-2.576,0-4.738,0.903-6.484,2.709C2956.826,1589.104,2955.896,1591.756,2955.782,1595.253z
			"/>
	</g>
	<g>
		<path style="fill:#FF5553;" d="M3017.681,2587.649h-637.996c-27.818,0-50.368-22.551-50.368-50.368v-268.63
			c0-27.817,22.551-50.368,50.368-50.368h637.996c27.818,0,50.368,22.551,50.368,50.368v268.63
			C3068.049,2565.098,3045.499,2587.649,3017.681,2587.649z"/>
		<g>
			<path style="fill:#FFFFFF;" d="M2508.275,2437.867v-58.996h28.342c3.148,0,6.026,0.746,8.632,2.236
				c2.604,1.491,4.681,3.513,6.227,6.063c1.546,2.552,2.319,5.404,2.319,8.557v1.204c0,3.153-0.803,6.077-2.405,8.771
				c-1.604,2.696-3.723,4.846-6.355,6.45c-2.634,1.605-5.554,2.408-8.76,2.408h-15.46v23.306H2508.275z M2520.814,2405.102h12.539
				c1.546,0,2.906-0.357,4.08-1.075c1.173-0.716,2.104-1.705,2.791-2.967c0.688-1.261,1.031-2.694,1.031-4.3
				c0-2.293-0.745-4.258-2.233-5.892c-1.489-1.634-3.465-2.451-5.926-2.451h-12.282V2405.102z"/>
			<path style="fill:#FFFFFF;" d="M2562.039,2437.867v-61.92h11.767v23.564c1.602-2.121,3.506-3.727,5.711-4.816
				c2.203-1.088,4.651-1.634,7.344-1.634c2.92,0,5.481,0.573,7.687,1.72c2.203,1.147,3.936,2.795,5.196,4.945
				c1.259,2.149,1.89,4.717,1.89,7.697v30.443h-11.767v-27.95c0-2.808-0.688-4.872-2.062-6.191
				c-1.374-1.318-3.235-1.979-5.583-1.979c-1.489,0-2.892,0.388-4.208,1.161c-1.317,0.774-2.349,1.821-3.092,3.14
				c-0.745,1.319-1.116,2.81-1.116,4.472v27.348H2562.039z"/>
			<path style="fill:#FFFFFF;" d="M2618.294,2453.863c-1.433,0-2.749-0.101-3.951-0.301c-1.202-0.201-2.291-0.503-3.264-0.903
				v-8.514c0.629,0.286,1.488,0.529,2.576,0.73c1.087,0.2,2.147,0.302,3.178,0.302c1.547,0,2.805-0.302,3.779-0.903
				c0.973-0.602,1.789-1.52,2.448-2.752c0.657-1.233,1.302-2.738,1.932-4.515l-16.919-43.086h12.539l10.135,28.81h0.602l9.619-28.81
				h11.595l-15.89,41.71c-1.26,3.382-2.72,6.449-4.38,9.201c-1.661,2.752-3.622,4.945-5.883,6.579
				C2624.147,2453.047,2621.441,2453.863,2618.294,2453.863z"/>
			<path style="fill:#FFFFFF;" d="M2659.175,2437.867v-43.945h8.761l1.46,6.449c0.114-0.229,0.415-0.716,0.901-1.462
				c0.486-0.744,1.216-1.576,2.19-2.494c0.973-0.916,2.19-1.705,3.65-2.364s3.221-0.989,5.282-0.989c2.977,0,5.396,0.573,7.257,1.72
				c1.86,1.147,3.249,2.752,4.166,4.816c0.915,2.063,1.374,4.472,1.374,7.224c0,0.632-0.029,1.319-0.086,2.064
				c-0.058,0.745-0.115,1.405-0.172,1.978h-9.791v-1.806c0-1.089-0.215-2.193-0.645-3.312c-0.429-1.117-1.116-2.049-2.061-2.795
				c-0.945-0.744-2.248-1.118-3.908-1.118c-1.202,0-2.233,0.259-3.092,0.774c-0.859,0.516-1.561,1.161-2.104,1.935
				c-0.545,0.774-0.944,1.635-1.202,2.58c-0.258,0.946-0.387,1.821-0.387,2.623v28.122H2659.175z"/>
			<path style="fill:#FFFFFF;" d="M2701.86,2437.867v-61.92h11.767v23.564c1.602-2.121,3.506-3.727,5.711-4.816
				c2.203-1.088,4.651-1.634,7.344-1.634c2.92,0,5.481,0.573,7.687,1.72c2.203,1.147,3.936,2.795,5.196,4.945
				c1.259,2.149,1.89,4.717,1.89,7.697v30.443h-11.767v-27.95c0-2.808-0.688-4.872-2.062-6.191
				c-1.374-1.318-3.235-1.979-5.583-1.979c-1.489,0-2.892,0.388-4.208,1.161c-1.317,0.774-2.349,1.821-3.092,3.14
				c-0.745,1.319-1.116,2.81-1.116,4.472v27.348H2701.86z"/>
			<path style="fill:#FFFFFF;" d="M2772.2,2438.728c-4.009,0-7.602-0.903-10.779-2.709s-5.668-4.371-7.472-7.697
				c-1.804-3.324-2.706-7.224-2.706-11.696v-1.548c0-4.528,0.902-8.428,2.706-11.695c1.804-3.269,4.279-5.806,7.429-7.611
				c3.148-1.806,6.728-2.709,10.736-2.709h1.718c4.064,0,7.672,0.903,10.821,2.709c3.148,1.806,5.626,4.343,7.43,7.611
				c1.803,3.268,2.705,7.167,2.705,11.695v1.548c0,4.53-0.902,8.443-2.705,11.739c-1.804,3.298-4.281,5.849-7.43,7.654
				c-3.149,1.806-6.729,2.709-10.735,2.709H2772.2z M2772.973,2430.987c1.774,0,3.363-0.415,4.767-1.247
				c1.402-0.83,2.52-2.077,3.35-3.741c0.829-1.662,1.245-3.64,1.245-5.934v-8.428c0-2.351-0.416-4.328-1.245-5.935
				c-0.83-1.604-1.947-2.838-3.35-3.697c-1.403-0.86-2.992-1.29-4.767-1.29c-1.718,0-3.293,0.43-4.724,1.29
				c-1.432,0.859-2.563,2.093-3.393,3.697c-0.831,1.606-1.245,3.584-1.245,5.935v8.428c0,2.294,0.414,4.271,1.245,5.934
				c0.829,1.664,1.961,2.911,3.393,3.741C2769.68,2430.572,2771.255,2430.987,2772.973,2430.987z"/>
			<path style="fill:#FFFFFF;" d="M2820.21,2438.728c-2.749,0-5.239-0.344-7.473-1.032c-2.232-0.688-4.165-1.619-5.797-2.795
				c-1.632-1.175-2.878-2.551-3.736-4.128c-0.858-1.576-1.288-3.281-1.288-5.117c0-0.344,0-0.63,0-0.859
				c0-0.229,0.028-0.545,0.086-0.946h9.963c-0.058,0.172-0.086,0.33-0.086,0.473c0,0.144,0,0.272,0,0.387
				c0,1.435,0.485,2.623,1.46,3.569c0.973,0.946,2.232,1.634,3.779,2.064c1.546,0.43,3.205,0.645,4.98,0.645
				c1.431,0,2.878-0.172,4.338-0.516c1.46-0.345,2.676-0.903,3.65-1.678c0.973-0.773,1.46-1.763,1.46-2.967
				c0-1.318-0.502-2.335-1.503-3.053c-1.003-0.716-2.349-1.29-4.037-1.72c-1.689-0.431-3.536-0.803-5.54-1.118
				c-2.005-0.314-4.022-0.717-6.055-1.204c-2.033-0.486-3.895-1.189-5.582-2.107c-1.69-0.916-3.036-2.163-4.037-3.74
				c-1.003-1.576-1.503-3.655-1.503-6.235c0-2.178,0.5-4.128,1.503-5.848c1.001-1.721,2.375-3.152,4.123-4.301
				c1.745-1.146,3.749-2.006,6.012-2.579c2.261-0.573,4.623-0.86,7.086-0.86h1.717c2.29,0,4.48,0.287,6.571,0.86
				c2.089,0.573,3.964,1.391,5.625,2.45c1.66,1.062,2.963,2.322,3.908,3.784c0.944,1.462,1.417,3.053,1.417,4.773
				c0,0.287-0.015,0.616-0.043,0.988c-0.029,0.374-0.072,0.617-0.129,0.731h-9.963v-0.688c0-0.631-0.158-1.247-0.473-1.85
				c-0.315-0.602-0.83-1.161-1.546-1.677c-0.717-0.517-1.632-0.932-2.748-1.247c-1.116-0.314-2.448-0.473-3.994-0.473
				c-1.374,0-2.605,0.129-3.692,0.387c-1.089,0.258-2.005,0.602-2.749,1.032c-0.744,0.43-1.288,0.933-1.632,1.505
				c-0.344,0.573-0.515,1.147-0.515,1.72c0,1.204,0.515,2.137,1.546,2.795c1.03,0.66,2.39,1.176,4.079,1.548
				c1.688,0.374,3.55,0.718,5.583,1.032c2.031,0.315,4.05,0.703,6.055,1.161c2.004,0.46,3.865,1.161,5.583,2.106
				c1.718,0.946,3.077,2.223,4.079,3.827c1.001,1.606,1.503,3.698,1.503,6.278c0,2.695-0.515,4.988-1.546,6.88
				c-1.03,1.893-2.462,3.397-4.294,4.515c-1.833,1.118-3.895,1.936-6.184,2.451c-2.291,0.517-4.696,0.774-7.215,0.774H2820.21z"/>
			<path style="fill:#FFFFFF;" d="M2870.711,2438.728c-4.123,0-7.773-0.847-10.951-2.537s-5.655-4.156-7.429-7.396
				c-1.775-3.238-2.663-7.181-2.663-11.824v-2.15c0-4.644,0.931-8.585,2.792-11.825c1.859-3.238,4.408-5.704,7.644-7.396
				c3.234-1.69,6.914-2.537,11.036-2.537h1.375c3.893,0,7.285,0.789,10.177,2.365c2.891,1.577,5.124,3.783,6.699,6.622
				c1.574,2.838,2.362,6.148,2.362,9.933v5.418h-29.717c0,2.752,0.344,5.16,1.03,7.224c0.688,2.064,1.718,3.642,3.092,4.73
				c1.375,1.09,3.178,1.634,5.411,1.634c1.832,0,3.436-0.357,4.81-1.075c1.374-0.716,2.461-1.791,3.264-3.225
				c0.802-1.433,1.202-3.182,1.202-5.246h10.908c0,3.384-0.859,6.379-2.577,8.987c-1.718,2.609-4.079,4.644-7.085,6.105
				s-6.484,2.193-10.436,2.193H2870.711z M2862.122,2411.38h18.122c0-3.612-0.788-6.292-2.362-8.041
				c-1.575-1.749-3.735-2.623-6.484-2.623c-2.576,0-4.738,0.902-6.484,2.709C2863.166,2405.23,2862.236,2407.883,2862.122,2411.38z"
				/>
		</g>
	</g>
	<g>
		<path style="fill:#3B7982;" d="M3805.727,2587.649h-637.996c-27.818,0-50.368-22.551-50.368-50.368v-268.63
			c0-27.817,22.551-50.368,50.368-50.368h637.996c27.817,0,50.368,22.551,50.368,50.368v268.63
			C3856.095,2565.098,3833.545,2587.649,3805.727,2587.649z"/>
		<g>
			<path style="fill:#FFFFFF;" d="M3361.68,2438.728c-3.379,0-6.557-0.574-9.533-1.72c-2.978-1.146-5.598-2.852-7.858-5.117
				c-2.263-2.265-4.023-5.088-5.282-8.472c-1.26-3.382-1.89-7.366-1.89-11.953v-6.106c0-4.586,0.645-8.57,1.933-11.954
				c1.288-3.382,3.062-6.205,5.325-8.471c2.261-2.265,4.865-3.97,7.815-5.117c2.948-1.146,6.083-1.72,9.404-1.72h2.92
				c3.436,0,6.627,0.573,9.577,1.72c2.948,1.147,5.553,2.853,7.815,5.117c2.261,2.266,4.021,5.089,5.282,8.471
				c1.259,3.384,1.889,7.368,1.889,11.954v6.106c0,4.587-0.644,8.571-1.932,11.953c-1.289,3.384-3.064,6.207-5.325,8.472
				c-2.263,2.266-4.867,3.971-7.815,5.117c-2.95,1.146-6.085,1.72-9.405,1.72H3361.68z M3363.054,2429.182
				c1.832,0,3.521-0.271,5.067-0.817c1.546-0.544,2.891-1.404,4.037-2.58c1.145-1.174,2.046-2.709,2.705-4.601
				c0.657-1.893,0.988-4.214,0.988-6.966v-11.524c0-2.752-0.331-5.087-0.988-7.009c-0.659-1.92-1.561-3.469-2.705-4.645
				c-1.146-1.174-2.491-2.034-4.037-2.58c-1.546-0.544-3.207-0.816-4.981-0.816c-1.775,0-3.45,0.272-5.024,0.816
				c-1.575,0.546-2.935,1.406-4.079,2.58c-1.146,1.176-2.048,2.709-2.706,4.602c-0.658,1.892-0.987,4.214-0.987,6.966v11.524
				c0,2.752,0.329,5.088,0.987,7.009s1.56,3.47,2.706,4.644c1.145,1.176,2.49,2.036,4.036,2.58
				C3359.618,2428.91,3361.278,2429.182,3363.054,2429.182z"/>
			<path style="fill:#FFFFFF;" d="M3406.341,2454.035c-2.005,0-3.822-0.473-5.454-1.419c-1.632-0.945-2.949-2.223-3.951-3.827
				c-1.002-1.605-1.503-3.354-1.503-5.246c0-2.121,0.572-4.085,1.718-5.891s2.719-3.167,4.724-4.085
				c-1.26-0.802-2.247-1.849-2.963-3.139c-0.717-1.29-1.073-2.651-1.073-4.085c0-2.121,0.688-3.941,2.062-5.461
				c1.374-1.519,3.12-2.623,5.238-3.312c-1.775-1.088-3.235-2.437-4.38-4.042c-1.146-1.604-1.718-3.582-1.718-5.934
				c0-2.465,0.673-4.816,2.019-7.053c1.345-2.235,3.378-4.042,6.098-5.418c2.719-1.376,6.169-2.063,10.35-2.063
				c1.718,0,3.32,0.086,4.81,0.258c1.488,0.172,2.805,0.46,3.951,0.86c2.232-1.204,3.878-2.522,4.938-3.956
				c1.059-1.433,1.645-2.838,1.761-4.214h9.189c0,1.949-0.373,3.697-1.116,5.246c-0.745,1.548-1.791,2.824-3.135,3.826
				c-1.347,1.004-2.964,1.735-4.853,2.193l-0.086,0.258c1.374,1.147,2.476,2.494,3.307,4.042c0.829,1.548,1.245,3.24,1.245,5.074
				c0,2.523-0.702,4.846-2.104,6.966c-1.403,2.122-3.379,3.827-5.926,5.117c-2.549,1.29-5.54,1.935-8.976,1.935h-6.441
				c-1.775,0-3.149,0.359-4.122,1.075c-0.975,0.718-1.461,1.677-1.461,2.881c0,1.09,0.443,2.008,1.332,2.752
				c0.887,0.746,2.304,1.118,4.251,1.118h15.202c4.007,0,7.156,1.176,9.447,3.526c2.289,2.352,3.436,5.246,3.436,8.686
				c0,2.408-0.602,4.63-1.804,6.665s-2.877,3.655-5.024,4.859s-4.624,1.806-7.429,1.806H3406.341z M3410.807,2446.726h14.858
				c1.546,0,2.877-0.503,3.994-1.505c1.116-1.004,1.675-2.223,1.675-3.655c0-1.319-0.473-2.438-1.418-3.354
				c-0.944-0.917-2.134-1.377-3.563-1.377h-15.546c-1.489,0-2.748,0.488-3.779,1.463c-1.03,0.974-1.546,2.12-1.546,3.439
				c0,1.318,0.516,2.479,1.546,3.483C3408.059,2446.223,3409.317,2446.726,3410.807,2446.726z M3418.364,2414.218
				c2.52,0,4.51-0.717,5.97-2.15c1.46-1.433,2.189-3.152,2.189-5.16c0-2.006-0.729-3.741-2.189-5.203s-3.45-2.192-5.97-2.192
				s-4.523,0.73-6.012,2.192c-1.489,1.462-2.233,3.197-2.233,5.203c0,2.008,0.744,3.728,2.233,5.16
				C3413.841,2413.501,3415.845,2414.218,3418.364,2414.218z"/>
			<path style="fill:#FFFFFF;" d="M3448.939,2437.867v-43.945h8.761l1.546,6.449c1.488-2.292,3.249-4.085,5.282-5.375
				c2.031-1.29,4.509-1.935,7.429-1.935c2.862,0,5.382,0.546,7.559,1.634c2.175,1.09,3.893,2.896,5.152,5.418
				c1.375-2.292,3.148-4.042,5.325-5.246c2.176-1.204,4.752-1.806,7.73-1.806c2.805,0,5.281,0.573,7.429,1.72
				c2.147,1.147,3.822,2.782,5.024,4.902c1.202,2.122,1.804,4.701,1.804,7.74v30.443h-11.595v-27.777
				c0-2.866-0.602-4.959-1.804-6.278c-1.202-1.318-2.864-1.979-4.981-1.979c-1.374,0-2.619,0.359-3.736,1.075
				c-1.116,0.718-1.99,1.721-2.619,3.01c-0.631,1.29-0.945,2.768-0.945,4.43v27.52h-11.594v-27.777c0-2.866-0.602-4.959-1.804-6.278
				c-1.203-1.318-2.893-1.979-5.067-1.979c-1.374,0-2.606,0.359-3.693,1.075c-1.089,0.718-1.947,1.721-2.576,3.01
				c-0.631,1.29-0.945,2.768-0.945,4.43v27.52H3448.939z"/>
			<path style="fill:#FFFFFF;" d="M3524.003,2385.063v-9.116h12.11v9.116H3524.003z M3524.175,2437.867v-43.945h11.767v43.945
				H3524.175z"/>
			<path style="fill:#FFFFFF;" d="M3567.117,2438.728c-4.009,0-7.601-0.903-10.778-2.709s-5.669-4.371-7.473-7.697
				c-1.804-3.324-2.705-7.224-2.705-11.696v-1.548c0-4.528,0.901-8.428,2.705-11.695c1.804-3.269,4.279-5.806,7.43-7.611
				c3.148-1.806,6.727-2.709,10.735-2.709h1.718c4.065,0,7.672,0.903,10.822,2.709c3.147,1.806,5.625,4.343,7.429,7.611
				c1.804,3.268,2.705,7.167,2.705,11.695v1.548c0,4.53-0.901,8.443-2.705,11.739c-1.804,3.298-4.281,5.849-7.429,7.654
				c-3.15,1.806-6.729,2.709-10.736,2.709H3567.117z M3567.891,2430.987c1.773,0,3.362-0.415,4.767-1.247
				c1.402-0.83,2.519-2.077,3.35-3.741c0.829-1.662,1.245-3.64,1.245-5.934v-8.428c0-2.351-0.416-4.328-1.245-5.935
				c-0.831-1.604-1.947-2.838-3.35-3.697c-1.404-0.86-2.993-1.29-4.767-1.29c-1.718,0-3.294,0.43-4.724,1.29
				c-1.433,0.859-2.563,2.093-3.393,3.697c-0.831,1.606-1.246,3.584-1.246,5.935v8.428c0,2.294,0.415,4.271,1.246,5.934
				c0.829,1.664,1.96,2.911,3.393,3.741C3564.597,2430.572,3566.173,2430.987,3567.891,2430.987z"/>
			<path style="fill:#FFFFFF;" d="M3615.127,2438.728c-2.748,0-5.239-0.344-7.472-1.032c-2.233-0.688-4.166-1.619-5.798-2.795
				c-1.632-1.175-2.877-2.551-3.736-4.128c-0.858-1.576-1.288-3.281-1.288-5.117c0-0.344,0-0.63,0-0.859
				c0-0.229,0.028-0.545,0.086-0.946h9.963c-0.058,0.172-0.086,0.33-0.086,0.473c0,0.144,0,0.272,0,0.387
				c0,1.435,0.486,2.623,1.46,3.569s2.233,1.634,3.779,2.064c1.546,0.43,3.206,0.645,4.981,0.645c1.431,0,2.877-0.172,4.337-0.516
				c1.46-0.345,2.676-0.903,3.65-1.678c0.973-0.773,1.46-1.763,1.46-2.967c0-1.318-0.502-2.335-1.503-3.053
				c-1.002-0.716-2.349-1.29-4.036-1.72c-1.689-0.431-3.536-0.803-5.54-1.118c-2.005-0.314-4.023-0.717-6.055-1.204
				c-2.033-0.486-3.895-1.189-5.583-2.107c-1.689-0.916-3.035-2.163-4.036-3.74c-1.003-1.576-1.504-3.655-1.504-6.235
				c0-2.178,0.501-4.128,1.504-5.848c1.001-1.721,2.375-3.152,4.122-4.301c1.746-1.146,3.749-2.006,6.012-2.579
				c2.262-0.573,4.623-0.86,7.086-0.86h1.718c2.289,0,4.479,0.287,6.57,0.86c2.09,0.573,3.964,1.391,5.626,2.45
				c1.659,1.062,2.963,2.322,3.907,3.784c0.945,1.462,1.417,3.053,1.417,4.773c0,0.287-0.015,0.616-0.043,0.988
				c-0.029,0.374-0.072,0.617-0.129,0.731h-9.962v-0.688c0-0.631-0.159-1.247-0.473-1.85c-0.315-0.602-0.831-1.161-1.546-1.677
				c-0.717-0.517-1.632-0.932-2.749-1.247c-1.116-0.314-2.447-0.473-3.993-0.473c-1.374,0-2.606,0.129-3.693,0.387
				c-1.088,0.258-2.005,0.602-2.748,1.032c-0.745,0.43-1.288,0.933-1.632,1.505c-0.344,0.573-0.516,1.147-0.516,1.72
				c0,1.204,0.516,2.137,1.546,2.795c1.03,0.66,2.391,1.176,4.08,1.548c1.688,0.374,3.549,0.718,5.582,1.032
				c2.032,0.315,4.051,0.703,6.056,1.161c2.003,0.46,3.864,1.161,5.582,2.106c1.718,0.946,3.077,2.223,4.08,3.827
				c1.001,1.606,1.503,3.698,1.503,6.278c0,2.695-0.516,4.988-1.546,6.88c-1.031,1.893-2.463,3.397-4.295,4.515
				c-1.833,1.118-3.895,1.936-6.184,2.451c-2.291,0.517-4.695,0.774-7.215,0.774H3615.127z"/>
		</g>
	</g>
	<g>
		<path style="fill:#5181F6;" d="M2229.635,2587.649h-637.996c-27.818,0-50.368-22.551-50.368-50.368v-268.63
			c0-27.817,22.551-50.368,50.368-50.368h637.996c27.818,0,50.368,22.551,50.368,50.368v268.63
			C2280.003,2565.098,2257.452,2587.649,2229.635,2587.649z"/>
		<g>
			<path style="fill:#FFFFFF;" d="M1769.184,2438.728c-3.436,0-6.5-0.804-9.189-2.408c-2.693-1.604-4.825-4.099-6.399-7.481
				c-1.575-3.383-2.362-7.683-2.362-12.9v-0.946c0-4.872,0.787-8.929,2.362-12.169c1.574-3.238,3.679-5.676,6.313-7.31
				c2.633-1.634,5.496-2.451,8.588-2.451s5.682,0.573,7.773,1.72c2.089,1.147,3.678,2.58,4.766,4.3v-23.134h11.682v61.92h-9.19
				l-1.288-5.848c-1.375,1.949-3.121,3.556-5.239,4.815C1774.88,2438.096,1772.275,2438.728,1769.184,2438.728z M1772.189,2430.987
				c1.66,0,3.148-0.4,4.466-1.204c1.316-0.802,2.376-2.049,3.178-3.741c0.802-1.69,1.202-3.854,1.202-6.492v-7.654
				c0-2.408-0.387-4.414-1.159-6.021c-0.772-1.604-1.833-2.823-3.178-3.654c-1.346-0.831-2.849-1.247-4.509-1.247
				c-2.404,0-4.438,0.933-6.098,2.795c-1.662,1.863-2.491,4.572-2.491,8.127v7.654c0,2.638,0.387,4.802,1.159,6.492
				c0.773,1.692,1.805,2.939,3.092,3.741C1769.141,2430.587,1770.586,2430.987,1772.189,2430.987z"/>
			<path style="fill:#FFFFFF;" d="M1827.413,2438.728c-6.413,0-11.31-2.58-14.687-7.74l-4.037,6.88h-4.294v-61.92h11.767v23.134
				c1.202-1.662,2.862-3.081,4.981-4.257c2.117-1.174,4.638-1.763,7.558-1.763c3.148,0,6.012,0.73,8.589,2.193
				c2.577,1.462,4.638,3.74,6.184,6.837c1.546,3.096,2.319,7.081,2.319,11.954v1.892c0,5.218-0.831,9.518-2.49,12.9
				c-1.662,3.383-3.895,5.877-6.699,7.481C1833.797,2437.924,1830.732,2438.728,1827.413,2438.728z M1824.922,2430.987
				c1.66,0,3.121-0.4,4.381-1.204c1.259-0.802,2.262-2.049,3.006-3.741c0.744-1.69,1.117-3.854,1.117-6.492v-7.74
				c0-2.408-0.359-4.399-1.074-5.978c-0.717-1.576-1.689-2.78-2.92-3.611c-1.232-0.831-2.678-1.247-4.338-1.247
				c-1.604,0-3.092,0.416-4.466,1.247s-2.462,2.05-3.264,3.654c-0.802,1.606-1.202,3.612-1.202,6.021v7.654
				c0,2.638,0.387,4.802,1.159,6.492c0.772,1.692,1.832,2.939,3.178,3.741C1821.844,2430.587,1823.318,2430.987,1824.922,2430.987z"
				/>
			<path style="fill:#FFFFFF;" d="M1854.639,2419.55v-10.148h21.814v10.148H1854.639z"/>
			<path style="fill:#FFFFFF;" d="M1902.992,2438.728c-2.749,0-5.24-0.344-7.473-1.032c-2.232-0.688-4.166-1.619-5.797-2.795
				c-1.633-1.175-2.878-2.551-3.736-4.128c-0.859-1.576-1.289-3.281-1.289-5.117c0-0.344,0-0.63,0-0.859
				c0-0.229,0.029-0.545,0.086-0.946h9.963c-0.057,0.172-0.086,0.33-0.086,0.473c0,0.144,0,0.272,0,0.387
				c0,1.435,0.486,2.623,1.461,3.569c0.973,0.946,2.232,1.634,3.779,2.064c1.545,0.43,3.205,0.645,4.98,0.645
				c1.431,0,2.877-0.172,4.338-0.516c1.459-0.345,2.676-0.903,3.65-1.678c0.973-0.773,1.459-1.763,1.459-2.967
				c0-1.318-0.502-2.335-1.502-3.053c-1.003-0.716-2.35-1.29-4.037-1.72c-1.689-0.431-3.536-0.803-5.54-1.118
				c-2.005-0.314-4.022-0.717-6.055-1.204c-2.033-0.486-3.895-1.189-5.583-2.107c-1.689-0.916-3.035-2.163-4.036-3.74
				c-1.003-1.576-1.503-3.655-1.503-6.235c0-2.178,0.5-4.128,1.503-5.848c1.001-1.721,2.375-3.152,4.122-4.301
				c1.746-1.146,3.75-2.006,6.012-2.579s4.623-0.86,7.086-0.86h1.718c2.29,0,4.479,0.287,6.571,0.86
				c2.089,0.573,3.963,1.391,5.625,2.45c1.66,1.062,2.963,2.322,3.908,3.784c0.944,1.462,1.416,3.053,1.416,4.773
				c0,0.287-0.014,0.616-0.043,0.988c-0.029,0.374-0.072,0.617-0.129,0.731h-9.962v-0.688c0-0.631-0.159-1.247-0.473-1.85
				c-0.315-0.602-0.831-1.161-1.546-1.677c-0.717-0.517-1.632-0.932-2.748-1.247c-1.117-0.314-2.448-0.473-3.994-0.473
				c-1.374,0-2.605,0.129-3.693,0.387s-2.004,0.602-2.748,1.032c-0.744,0.43-1.288,0.933-1.632,1.505
				c-0.344,0.573-0.515,1.147-0.515,1.72c0,1.204,0.515,2.137,1.545,2.795c1.031,0.66,2.391,1.176,4.08,1.548
				c1.688,0.374,3.549,0.718,5.582,1.032c2.032,0.315,4.051,0.703,6.056,1.161c2.003,0.46,3.864,1.161,5.583,2.106
				c1.717,0.946,3.076,2.223,4.079,3.827c1.001,1.606,1.503,3.698,1.503,6.278c0,2.695-0.516,4.988-1.546,6.88
				c-1.03,1.893-2.462,3.397-4.294,4.515c-1.834,1.118-3.895,1.936-6.184,2.451c-2.291,0.517-4.696,0.774-7.215,0.774H1902.992z"/>
			<path style="fill:#FFFFFF;" d="M1939.579,2453.863c-1.433,0-2.749-0.101-3.951-0.301c-1.202-0.201-2.29-0.503-3.264-0.903v-8.514
				c0.63,0.286,1.488,0.529,2.577,0.73c1.086,0.2,2.146,0.302,3.178,0.302c1.546,0,2.805-0.302,3.779-0.903
				c0.973-0.602,1.788-1.52,2.447-2.752c0.658-1.233,1.302-2.738,1.932-4.515l-16.919-43.086h12.54l10.134,28.81h0.602l9.619-28.81
				h11.595l-15.889,41.71c-1.26,3.382-2.721,6.449-4.381,9.201c-1.661,2.752-3.621,4.945-5.883,6.579
				C1945.433,2453.047,1942.727,2453.863,1939.579,2453.863z"/>
			<path style="fill:#FFFFFF;" d="M1980.461,2437.867v-43.945h8.674l1.375,6.449c1.717-2.464,3.792-4.3,6.227-5.504
				c2.433-1.204,5.195-1.806,8.287-1.806c2.977,0,5.597,0.573,7.859,1.72c2.261,1.147,4.007,2.782,5.238,4.902
				c1.23,2.122,1.848,4.701,1.848,7.74v30.443h-11.682v-27.95c0-2.808-0.687-4.872-2.061-6.191
				c-1.375-1.318-3.236-1.979-5.583-1.979c-1.489,0-2.892,0.388-4.208,1.161c-1.318,0.774-2.349,1.821-3.092,3.14
				c-0.745,1.319-1.117,2.81-1.117,4.472v27.348H1980.461z"/>
			<path style="fill:#FFFFFF;" d="M2049.598,2438.728c-3.723,0-7.086-0.917-10.092-2.752c-3.006-1.834-5.367-4.371-7.086-7.611
				c-1.717-3.238-2.576-6.951-2.576-11.137v-2.666c0-3.152,0.529-6.033,1.589-8.644c1.06-2.607,2.505-4.887,4.337-6.837
				c1.832-1.948,3.979-3.439,6.441-4.472s5.096-1.548,7.902-1.548h1.632c3.835,0,7.171,0.761,10.005,2.279
				c2.835,1.52,5.01,3.642,6.527,6.363c1.518,2.724,2.277,5.921,2.277,9.589h-10.221c0-2.35-0.359-4.3-1.074-5.848
				c-0.717-1.548-1.732-2.723-3.049-3.526c-1.318-0.802-2.893-1.203-4.724-1.203c-2.634,0-4.839,0.902-6.613,2.709
				c-1.775,1.806-2.663,4.458-2.663,7.955v8.857c0,3.44,0.845,6.093,2.534,7.955c1.688,1.864,3.964,2.795,6.828,2.795
				c2.003,0,3.692-0.344,5.067-1.032c1.374-0.688,2.418-1.806,3.135-3.354c0.715-1.548,1.073-3.612,1.073-6.192h9.706
				c0,3.899-0.832,7.211-2.491,9.934c-1.661,2.724-3.95,4.802-6.871,6.234c-2.92,1.433-6.241,2.15-9.963,2.15H2049.598z"/>
		</g>
	</g>
	<g>
		<g>
			
				<line style="fill:none;stroke:#000000;stroke-width:9.5465;stroke-miterlimit:10;" x1="629.595" y1="1177.859" x2="629.595" y2="889.312"/>
			<g>
				<polygon points="658.157,1169.502 629.595,1218.964 601.034,1169.502 				"/>
			</g>
			<g>
				<polygon points="658.157,897.669 629.595,848.207 601.034,897.669 				"/>
			</g>
		</g>
	</g>
	<g>
		<g>
			
				<line style="fill:none;stroke:#000000;stroke-width:9.5465;stroke-miterlimit:10;" x1="2697.097" y1="1356.799" x2="2697.097" y2="1012.757"/>
			<g>
				<polygon points="2725.658,1348.442 2697.097,1397.904 2668.536,1348.442 				"/>
			</g>
			<g>
				<polygon points="2725.658,1021.114 2697.097,971.652 2668.536,1021.114 				"/>
			</g>
		</g>
	</g>
	<g>
		<g>
			
				<line style="fill:none;stroke:#000000;stroke-width:9.5465;stroke-miterlimit:10;" x1="2697.097" y1="2174.001" x2="2697.097" y2="1813.574"/>
			<g>
				<polygon points="2725.658,2165.645 2697.097,2215.106 2668.536,2165.645 				"/>
			</g>
			<g>
				<polygon points="2725.658,1821.931 2697.097,1772.469 2668.536,1821.931 				"/>
			</g>
		</g>
	</g>
	<g>
		<g>
			
				<line style="fill:none;stroke:#000000;stroke-width:9.5465;stroke-miterlimit:10;" x1="2523.087" y1="1356.799" x2="2523.087" y2="970.723"/>
			<g>
				<polygon points="2551.648,1348.442 2523.087,1397.904 2494.526,1348.442 				"/>
			</g>
			<g>
				<polygon points="2551.648,979.08 2523.087,929.619 2494.526,979.08 				"/>
			</g>
		</g>
	</g>
	<g>
		<g>
			
				<line style="fill:none;stroke:#000000;stroke-width:9.5465;stroke-miterlimit:10;" x1="2871.107" y1="1356.799" x2="2871.107" y2="964.757"/>
			<g>
				<polygon points="2899.668,1348.442 2871.107,1397.904 2842.546,1348.442 				"/>
			</g>
			<g>
				<polygon points="2899.668,973.114 2871.107,923.652 2842.546,973.114 				"/>
			</g>
		</g>
	</g>
	<g>
		<g>
			
				<line style="fill:none;stroke:#000000;stroke-width:9.5465;stroke-miterlimit:10;" x1="629.595" y1="2083.978" x2="629.595" y2="1795.431"/>
			<g>
				<polygon points="658.157,2075.621 629.595,2125.083 601.034,2075.621 				"/>
			</g>
			<g>
				<polygon points="658.157,1803.788 629.595,1754.326 601.034,1803.788 				"/>
			</g>
		</g>
	</g>
	<g>
		<g>
			
				<line style="fill:none;stroke:#000000;stroke-width:9.5465;stroke-miterlimit:10;" x1="1424.555" y1="2394.4" x2="1199.184" y2="2394.4"/>
			<g>
				<polygon points="1416.198,2365.838 1465.66,2394.4 1416.198,2422.961 				"/>
			</g>
			<g>
				<polygon points="1207.541,2365.838 1158.079,2394.4 1207.541,2422.961 				"/>
			</g>
		</g>
	</g>
	
		<image style="overflow:visible;" width="440" height="128" xlink:href="eternl-logo-text-prod-white-440x128.png"  transform="matrix(1.6871 0 0 1.6871 258.4226 1306.1884)">
	</image>
	<g>
		<path style="fill:#FFFFFF;" d="M328.687,2424.015l-18.624-65.856h12.384l12.96,47.137h0.384l13.152-47.137h11.808l13.056,47.137
			h0.384l12.96-47.137h11.136l-18.624,65.856h-12.576l-12.576-45.024h-0.48l-12.576,45.024H328.687z"/>
		<path style="fill:#FFFFFF;" d="M426.512,2424.975c-4.48,0-8.417-0.945-11.808-2.832c-3.393-1.887-6.033-4.656-7.92-8.304
			c-1.889-3.648-2.832-8.064-2.832-13.248v-2.208c0-5.185,1.008-9.601,3.024-13.248c2.016-3.648,4.767-6.416,8.256-8.304
			c3.488-1.888,7.472-2.832,11.952-2.832h1.248c4.16,0,7.808,0.849,10.944,2.544c3.135,1.696,5.568,4.112,7.296,7.248
			s2.592,6.815,2.592,11.04v6.048h-33.696c0,3.393,0.447,6.336,1.344,8.832c0.896,2.496,2.223,4.4,3.984,5.712
			c1.76,1.312,3.951,1.968,6.576,1.968c2.175,0,4.111-0.432,5.808-1.296c1.695-0.864,3.039-2.16,4.032-3.888
			c0.992-1.729,1.488-3.872,1.488-6.433h10.464c0,3.84-0.96,7.2-2.88,10.08s-4.512,5.121-7.776,6.72
			c-3.264,1.6-6.976,2.4-11.136,2.4H426.512z M415.664,2394.734h22.656c0-4.479-0.977-7.791-2.928-9.936
			c-1.953-2.144-4.625-3.216-8.016-3.216c-3.201,0-5.904,1.104-8.112,3.312S415.855,2390.383,415.664,2394.734z"/>
		<path style="fill:#FFFFFF;" d="M485.935,2424.975c-7.233,0-12.736-2.911-16.512-8.736l-3.84,7.776h-4.128v-69.12h11.136v26.112
			c1.279-1.855,3.151-3.487,5.616-4.896c2.463-1.406,5.359-2.111,8.688-2.111c3.519,0,6.735,0.815,9.648,2.447
			c2.912,1.633,5.232,4.161,6.96,7.584c1.728,3.425,2.592,7.824,2.592,13.2v2.208c0,5.89-0.912,10.721-2.736,14.496
			c-1.824,3.777-4.257,6.562-7.296,8.353C493.022,2424.078,489.646,2424.975,485.935,2424.975z M483.727,2417.391
			c2.047,0,3.872-0.512,5.472-1.536c1.599-1.022,2.863-2.623,3.792-4.8c0.927-2.175,1.392-5.023,1.392-8.544v-6.816
			c0-3.135-0.449-5.727-1.344-7.775c-0.897-2.048-2.112-3.584-3.648-4.608c-1.536-1.022-3.329-1.536-5.376-1.536
			c-2.049,0-3.936,0.514-5.664,1.536c-1.728,1.024-3.12,2.577-4.176,4.656c-1.056,2.08-1.584,4.688-1.584,7.824v6.815
			c0,3.521,0.495,6.369,1.488,8.544c0.992,2.177,2.335,3.761,4.032,4.752C479.806,2416.896,481.678,2417.391,483.727,2417.391z"/>
		<path style="fill:#FFFFFF;" d="M540.461,2424.015v-65.856h42.816l-1.344,9.217h-29.568v19.199h26.112v9.217h-26.112v28.224
			H540.461z"/>
		<path style="fill:#FFFFFF;" d="M591.341,2424.015v-49.056h8.352l1.44,7.199c0.127-0.191,0.447-0.703,0.96-1.535
			c0.512-0.831,1.311-1.76,2.4-2.784c1.087-1.023,2.463-1.92,4.128-2.688c1.664-0.768,3.68-1.151,6.048-1.151
			c3.392,0,6.159,0.672,8.304,2.016c2.144,1.344,3.744,3.185,4.8,5.52c1.056,2.338,1.584,5.009,1.584,8.017
			c0,0.705-0.033,1.425-0.096,2.16c-0.064,0.736-0.129,1.36-0.192,1.872h-9.408v-1.92c0-1.345-0.256-2.72-0.768-4.129
			c-0.513-1.406-1.377-2.592-2.592-3.552c-1.216-0.96-2.913-1.439-5.088-1.439c-1.601,0-2.961,0.336-4.08,1.008
			c-1.121,0.672-2.033,1.521-2.736,2.544c-0.705,1.024-1.2,2.129-1.488,3.312c-0.288,1.186-0.432,2.289-0.432,3.312v31.296H591.341z
			"/>
		<path style="fill:#FFFFFF;" d="M659.404,2424.975c-4.353,0-8.256-0.991-11.712-2.976c-3.456-1.983-6.161-4.832-8.112-8.544
			c-1.953-3.712-2.928-8.096-2.928-13.152v-1.632c0-5.12,0.975-9.52,2.928-13.2c1.952-3.68,4.64-6.512,8.064-8.496
			c3.423-1.983,7.311-2.976,11.664-2.976h1.536c4.416,0,8.335,0.992,11.76,2.976c3.423,1.984,6.111,4.816,8.064,8.496
			c1.952,3.681,2.928,8.08,2.928,13.2v1.632c0,5.057-0.977,9.44-2.928,13.152c-1.953,3.712-4.641,6.561-8.064,8.544
			c-3.424,1.984-7.312,2.976-11.664,2.976H659.404z M660.076,2417.391c2.239,0,4.239-0.528,6-1.584
			c1.759-1.056,3.168-2.64,4.224-4.752c1.056-2.112,1.584-4.671,1.584-7.68v-7.776c0-3.072-0.528-5.647-1.584-7.728
			c-1.056-2.079-2.465-3.648-4.224-4.704c-1.761-1.057-3.761-1.584-6-1.584c-2.177,0-4.145,0.527-5.904,1.584
			c-1.761,1.056-3.168,2.625-4.224,4.704c-1.056,2.08-1.584,4.655-1.584,7.728v7.776c0,3.009,0.528,5.567,1.584,7.68
			s2.463,3.696,4.224,4.752C655.931,2416.862,657.899,2417.391,660.076,2417.391z"/>
		<path style="fill:#FFFFFF;" d="M695.69,2424.015v-49.056h8.16l1.44,7.199c1.855-2.688,4.159-4.719,6.912-6.096
			c2.751-1.375,5.823-2.063,9.216-2.063c3.392,0,6.368,0.64,8.928,1.92c2.559,1.28,4.56,3.152,6,5.615
			c1.44,2.465,2.16,5.489,2.16,9.072v33.408h-11.136v-31.392c0-3.648-0.849-6.256-2.544-7.824c-1.697-1.567-4.049-2.353-7.056-2.353
			c-1.984,0-3.809,0.497-5.472,1.488c-1.665,0.993-2.992,2.32-3.984,3.984c-0.993,1.665-1.488,3.552-1.488,5.664v30.432H695.69z"/>
		<path style="fill:#FFFFFF;" d="M767.979,2424.975c-2.561,0-4.848-0.384-6.864-1.152c-2.016-0.768-3.585-2.03-4.704-3.792
			c-1.121-1.759-1.68-4.08-1.68-6.96v-29.567h-5.376v-8.544h5.664l3.936-15.648h6.912v15.648h11.424v8.544h-11.424v27.359
			c0,2.817,0.576,4.608,1.728,5.376c1.152,0.769,2.4,1.152,3.744,1.152c0.703,0,1.68-0.159,2.928-0.479s2.256-0.64,3.024-0.961v7.2
			c-0.768,0.384-1.696,0.721-2.784,1.008c-1.089,0.288-2.208,0.495-3.36,0.624C769.995,2424.91,768.939,2424.975,767.979,2424.975z"
			/>
		<path style="fill:#FFFFFF;" d="M809.258,2424.975c-4.48,0-8.417-0.945-11.808-2.832c-3.393-1.887-6.033-4.656-7.92-8.304
			c-1.889-3.648-2.832-8.064-2.832-13.248v-2.208c0-5.185,1.008-9.601,3.024-13.248c2.016-3.648,4.767-6.416,8.256-8.304
			c3.488-1.888,7.472-2.832,11.952-2.832h1.248c4.16,0,7.808,0.849,10.944,2.544c3.135,1.696,5.568,4.112,7.296,7.248
			s2.592,6.815,2.592,11.04v6.048h-33.696c0,3.393,0.447,6.336,1.344,8.832c0.896,2.496,2.223,4.4,3.984,5.712
			c1.76,1.312,3.951,1.968,6.576,1.968c2.175,0,4.111-0.432,5.808-1.296c1.695-0.864,3.039-2.16,4.032-3.888
			c0.992-1.729,1.488-3.872,1.488-6.433h10.464c0,3.84-0.96,7.2-2.88,10.08s-4.512,5.121-7.776,6.72
			c-3.264,1.6-6.976,2.4-11.136,2.4H809.258z M798.41,2394.734h22.656c0-4.479-0.977-7.791-2.928-9.936
			c-1.953-2.144-4.625-3.216-8.016-3.216c-3.201,0-5.904,1.104-8.112,3.312S798.602,2390.383,798.41,2394.734z"/>
		<path style="fill:#FFFFFF;" d="M844.201,2424.015v-49.056h8.16l1.44,7.199c1.855-2.688,4.159-4.719,6.912-6.096
			c2.751-1.375,5.823-2.063,9.216-2.063c3.392,0,6.368,0.64,8.928,1.92c2.559,1.28,4.56,3.152,6,5.615
			c1.44,2.465,2.16,5.489,2.16,9.072v33.408h-11.136v-31.392c0-3.648-0.849-6.256-2.544-7.824c-1.697-1.567-4.049-2.353-7.056-2.353
			c-1.984,0-3.809,0.497-5.472,1.488c-1.665,0.993-2.992,2.32-3.984,3.984c-0.993,1.665-1.488,3.552-1.488,5.664v30.432H844.201z"/>
		<path style="fill:#FFFFFF;" d="M919.656,2424.975c-3.713,0-7.104-0.896-10.176-2.688c-3.072-1.791-5.537-4.575-7.392-8.353
			c-1.857-3.775-2.784-8.606-2.784-14.496v-1.056c0-5.376,0.879-9.872,2.64-13.488c1.76-3.615,4.095-6.336,7.008-8.16
			c2.911-1.823,6.127-2.735,9.648-2.735c3.456,0,6.399,0.656,8.832,1.968c2.431,1.312,4.287,2.992,5.568,5.04v-26.112h11.136v69.12
			h-8.64l-1.344-6.624c-1.601,2.304-3.585,4.145-5.952,5.521C925.832,2424.286,922.983,2424.975,919.656,2424.975z
			 M921.864,2417.391c2.048,0,3.903-0.495,5.568-1.488c1.664-0.991,3.007-2.575,4.032-4.752c1.023-2.175,1.536-5.023,1.536-8.544
			v-6.815c0-3.136-0.497-5.744-1.488-7.824c-0.993-2.079-2.337-3.632-4.032-4.656c-1.696-1.022-3.568-1.536-5.616-1.536
			c-3.072,0-5.649,1.169-7.728,3.504c-2.081,2.337-3.12,5.842-3.12,10.513v6.72c0,3.521,0.48,6.369,1.44,8.544
			c0.96,2.177,2.256,3.777,3.888,4.8C917.976,2416.879,919.815,2417.391,921.864,2417.391z"/>
	</g>
	<g>
		<g>
			<path style="fill:#0033AD;" d="M2516.821,763.418V666.43h14.703l37.749,56.694l5.372,9.048l0.566-0.142V666.43h15.834v96.987
				h-15.128l-38.879-58.532l-3.817-6.786l-0.565,0.141v65.177H2516.821z"/>
			<path style="fill:#0033AD;" d="M2642.366,764.831c-6.598,0-12.395-1.392-17.39-4.17c-4.997-2.779-8.885-6.857-11.664-12.229
				c-2.781-5.373-4.171-11.876-4.171-19.511v-3.251c0-7.635,1.485-14.138,4.454-19.511s7.021-9.448,12.158-12.229
				c5.137-2.779,11.004-4.171,17.603-4.171h1.838c6.126,0,11.498,1.25,16.117,3.747c4.617,2.499,8.2,6.058,10.745,10.674
				c2.545,4.619,3.817,10.038,3.817,16.259v8.907h-49.625c0,4.997,0.658,9.331,1.979,13.007c1.318,3.676,3.273,6.481,5.867,8.412
				c2.592,1.933,5.819,2.898,9.685,2.898c3.203,0,6.056-0.636,8.554-1.909c2.496-1.272,4.476-3.181,5.938-5.726
				c1.46-2.545,2.191-5.702,2.191-9.473h15.41c0,5.655-1.414,10.604-4.241,14.845c-2.828,4.242-6.646,7.542-11.452,9.897
				s-10.274,3.534-16.4,3.534H2642.366z M2626.391,720.296h33.366c0-6.597-1.438-11.474-4.312-14.633
				c-2.876-3.157-6.811-4.736-11.806-4.736c-4.714,0-8.694,1.625-11.946,4.877S2626.673,713.888,2626.391,720.296z"/>
			<path style="fill:#0033AD;" d="M2716.449,764.831c-3.771,0-7.14-0.565-10.108-1.696s-5.28-2.991-6.928-5.584
				c-1.65-2.591-2.475-6.009-2.475-10.25v-43.545h-7.917v-12.583h8.342l5.796-23.045h10.18v23.045h16.824v12.583h-16.824v40.293
				c0,4.148,0.849,6.786,2.545,7.917c1.696,1.131,3.534,1.696,5.514,1.696c1.036,0,2.475-0.234,4.312-0.707
				c1.838-0.47,3.322-0.941,4.453-1.414v10.604c-1.131,0.565-2.498,1.061-4.1,1.484c-1.604,0.424-3.252,0.729-4.948,0.919
				C2719.418,764.736,2717.863,764.831,2716.449,764.831z"/>
			<path style="fill:#0033AD;" d="M2762.396,763.418l-23.045-72.246h17.107l14.986,49.059h0.707l15.269-49.059h17.107l15.269,49.059
				h0.707l14.986-49.059h15.835l-23.045,72.246h-17.249l-15.269-48.353h-0.707l-15.128,48.353H2762.396z"/>
			<path style="fill:#0033AD;" d="M2894.87,764.831c-6.411,0-12.159-1.46-17.249-4.383c-5.09-2.92-9.072-7.115-11.946-12.583
				c-2.876-5.465-4.312-11.922-4.312-19.369v-2.404c0-7.54,1.437-14.019,4.312-19.44c2.874-5.419,6.833-9.589,11.876-12.512
				c5.041-2.92,10.767-4.383,17.178-4.383h2.262c6.504,0,12.276,1.462,17.319,4.383c5.041,2.923,9,7.093,11.876,12.512
				c2.874,5.421,4.312,11.9,4.312,19.44v2.404c0,7.447-1.438,13.904-4.312,19.369c-2.876,5.467-6.835,9.662-11.876,12.583
				c-5.043,2.923-10.77,4.383-17.178,4.383H2894.87z M2895.859,753.662c3.298,0,6.243-0.777,8.837-2.333
				c2.591-1.555,4.665-3.888,6.221-6.999c1.555-3.11,2.332-6.879,2.332-11.311v-11.452c0-4.524-0.777-8.317-2.332-11.381
				c-1.556-3.062-3.63-5.373-6.221-6.928c-2.594-1.555-5.539-2.333-8.837-2.333c-3.205,0-6.104,0.777-8.694,2.333
				c-2.594,1.555-4.666,3.866-6.222,6.928c-1.555,3.064-2.332,6.857-2.332,11.381v11.452c0,4.432,0.777,8.2,2.332,11.311
				c1.556,3.11,3.628,5.443,6.222,6.999C2889.756,752.885,2892.654,753.662,2895.859,753.662z"/>
			<path style="fill:#0033AD;" d="M2948.31,763.418v-72.246h12.301l2.12,10.604c0.188-0.283,0.658-1.036,1.414-2.262
				c0.753-1.224,1.931-2.591,3.534-4.1c1.602-1.506,3.628-2.828,6.08-3.958c2.449-1.131,5.419-1.697,8.906-1.697
				c4.995,0,9.071,0.99,12.229,2.969c3.157,1.979,5.515,4.69,7.069,8.129c1.556,3.441,2.333,7.376,2.333,11.805
				c0,1.038-0.049,2.099-0.142,3.181c-0.095,1.084-0.189,2.003-0.282,2.757h-13.855v-2.828c0-1.979-0.378-4.005-1.131-6.079
				c-0.756-2.072-2.028-3.817-3.817-5.231c-1.792-1.414-4.29-2.121-7.493-2.121c-2.357,0-4.361,0.495-6.009,1.484
				c-1.65,0.99-2.993,2.24-4.029,3.747c-1.039,1.509-1.768,3.135-2.191,4.878c-0.425,1.745-0.637,3.371-0.637,4.877v46.09H2948.31z"
				/>
			<path style="fill:#0033AD;" d="M3018.15,763.418V661.623h16.4v67.015l30.963-37.466h19.228l-28.418,33.225l29.832,39.021h-19.794
				l-21.349-27.852l-10.462,10.745v17.107H3018.15z"/>
		</g>
		<g id="Layer_2_00000063603104371659289120000005911612379664702883_">
			<g id="Layer_1-2">
				<path style="fill:#0033AD;" d="M2248.559,572.613c-0.441,7.68,5.423,14.265,13.103,14.714h0.76
					c7.681-0.008,13.901-6.242,13.893-13.923c-0.008-7.681-6.242-13.901-13.923-13.893c-7.365,0.008-13.447,5.757-13.87,13.11
					L2248.559,572.613z"/>
				<path style="fill:#0033AD;" d="M2196.696,569.087c-2.477-0.139-4.597,1.757-4.736,4.234s1.757,4.597,4.234,4.736
					c2.474,0.138,4.593-1.753,4.735-4.227c0.146-2.472-1.739-4.595-4.211-4.741C2196.711,569.088,2196.704,569.087,2196.696,569.087
					z"/>
				<path style="fill:#0033AD;" d="M2247.677,491.893c2.21-1.135,3.082-3.847,1.947-6.058c-1.135-2.21-3.847-3.082-6.058-1.947
					c-2.193,1.126-3.072,3.808-1.969,6.013c1.116,2.225,3.825,3.123,6.05,2.007C2247.657,491.903,2247.667,491.898,2247.677,491.893
					z"/>
				<path style="fill:#0033AD;" d="M2261.791,516.502c3.425-1.728,4.801-5.905,3.073-9.331s-5.905-4.801-9.331-3.074
					c-3.424,1.727-4.8,5.901-3.076,9.326c1.725,3.427,5.902,4.806,9.328,3.08C2261.788,516.504,2261.789,516.503,2261.791,516.502z"
					/>
				<path style="fill:#0033AD;" d="M2214.298,533.427c2.641,1.737,6.189,1.004,7.926-1.637c1.737-2.641,1.004-6.189-1.637-7.926
					c-2.641-1.737-6.189-1.004-7.926,1.637c-0.001,0.002-0.003,0.005-0.005,0.007
					C2210.925,528.149,2211.66,531.692,2214.298,533.427z"/>
				<path style="fill:#0033AD;" d="M2222.757,566.556c-3.83-0.216-7.111,2.714-7.327,6.544c-0.216,3.83,2.714,7.111,6.544,7.327
					c3.827,0.216,7.106-2.71,7.326-6.537C2229.517,570.059,2226.588,566.776,2222.757,566.556z"/>
				<path style="fill:#0033AD;" d="M2215.058,613.258c-2.821,1.426-3.952,4.868-2.526,7.689c1.426,2.821,4.868,3.952,7.689,2.526
					c2.819-1.425,3.951-4.864,2.529-7.684c-1.423-2.822-4.865-3.956-7.687-2.533C2215.061,613.257,2215.06,613.258,2215.058,613.258
					z"/>
				<path style="fill:#0033AD;" d="M2242.061,552.199c3.777,2.476,8.846,1.42,11.322-2.357s1.42-8.847-2.357-11.322
					c-3.777-2.475-8.845-1.421-11.321,2.355c-2.478,3.771-1.43,8.837,2.341,11.315
					C2242.051,552.193,2242.056,552.196,2242.061,552.199z"/>
				<path style="fill:#0033AD;" d="M2327.729,515.955c3.217,2.098,7.526,1.192,9.624-2.025c2.098-3.217,1.192-7.525-2.025-9.624
					c-3.215-2.097-7.52-1.193-9.62,2.02c-2.103,3.209-1.206,7.515,2.003,9.617C2327.717,515.947,2327.723,515.951,2327.729,515.955z
					"/>
				<path style="fill:#0033AD;" d="M2341.987,491.422c2.078,1.362,4.867,0.782,6.229-1.296c1.362-2.078,0.782-4.867-1.296-6.229
					c-2.078-1.362-4.867-0.782-6.229,1.296c-0.001,0.002-0.002,0.003-0.003,0.005
					C2339.329,487.275,2339.91,490.061,2341.987,491.422z"/>
				<path style="fill:#0033AD;" d="M2328.823,559.374c-7.671-0.441-14.246,5.42-14.687,13.091
					c-0.441,7.671,5.42,14.246,13.091,14.687l0,0c0.266,0,0.54,0,0.806,0c7.681-0.004,13.905-6.234,13.901-13.915
					c-0.002-3.415-1.26-6.71-3.535-9.258C2335.954,561.222,2332.504,559.563,2328.823,559.374z"/>
				<path style="fill:#0033AD;" d="M2266.358,551.234c2.355,4.705,7.172,7.67,12.434,7.653c7.686,0.002,13.917-6.227,13.919-13.913
					c0-2.185-0.514-4.339-1.5-6.288c-2.371-4.683-7.184-7.625-12.434-7.6c-7.685,0.013-13.905,6.254-13.892,13.939
					C2264.889,547.182,2265.393,549.307,2266.358,551.234z"/>
				<path style="fill:#0033AD;" d="M2375.419,533.412c2.822-1.424,3.955-4.866,2.531-7.687c-1.424-2.822-4.866-3.955-7.687-2.531
					c-2.819,1.422-3.953,4.859-2.535,7.68C2369.152,533.697,2372.594,534.833,2375.419,533.412z"/>
				<path style="fill:#0033AD;" d="M2340.147,537.843c-4.034,2.032-5.657,6.948-3.625,10.982c2.031,4.034,6.948,5.657,10.982,3.625
					c4.034-2.031,5.657-6.948,3.625-10.982c-2.026-4.032-6.937-5.658-10.969-3.632
					C2340.156,537.838,2340.152,537.841,2340.147,537.843z"/>
				<path style="fill:#0033AD;" d="M2294.714,489.324c3.156,0.18,5.859-2.233,6.039-5.388c0.18-3.156-2.233-5.859-5.388-6.039
					s-5.859,2.233-6.039,5.388c0,0.001,0,0.003,0,0.005C2289.149,486.444,2291.561,489.145,2294.714,489.324z"/>
				<path style="fill:#0033AD;" d="M2294.653,525.341c4.509,0.253,8.37-3.198,8.623-7.707c0.253-4.509-3.198-8.37-7.707-8.623
					c-4.505-0.253-8.363,3.191-8.622,7.696C2286.692,521.219,2290.142,525.084,2294.653,525.341z"/>
				<path style="fill:#0033AD;" d="M2250.345,608.82c4.033-2.033,5.654-6.951,3.621-10.984s-6.951-5.654-10.983-3.621
					c-4.033,2.033-5.654,6.951-3.621,10.984c0.001,0.001,0.001,0.002,0.002,0.003
					C2241.397,609.233,2246.313,610.853,2250.345,608.82z"/>
				<path style="fill:#0033AD;" d="M2299.936,537.273c-4.21,6.425-2.415,15.046,4.01,19.256c6.425,4.21,15.046,2.415,19.256-4.01
					s2.415-15.046-4.01-19.256c-2.26-1.481-4.903-2.272-7.605-2.275C2306.891,530.984,2302.511,533.348,2299.936,537.273z"/>
				<path style="fill:#0033AD;" d="M2324.119,595.436c-3.459-6.859-11.823-9.615-18.681-6.156
					c-6.859,3.459-9.615,11.822-6.156,18.681c2.364,4.688,7.167,7.646,12.418,7.646c2.177-0.015,4.321-0.535,6.262-1.52
					C2324.8,610.626,2327.552,602.288,2324.119,595.436z"/>
				<path style="fill:#0033AD;" d="M2348.424,594.463c-3.776-2.479-8.845-1.427-11.324,2.349c-2.479,3.776-1.427,8.845,2.348,11.324
					s8.845,1.427,11.324-2.348C2353.242,602.01,2352.192,596.947,2348.424,594.463z"/>
				<path style="fill:#0033AD;" d="M2375.054,573.571c0.216-3.83-2.714-7.111-6.544-7.327c-3.83-0.216-7.111,2.714-7.327,6.544
					c-0.216,3.827,2.709,7.106,6.537,7.326C2371.552,580.331,2374.834,577.402,2375.054,573.571z"/>
				<path style="fill:#0033AD;" d="M2394.298,568.623c-2.481-0.143-4.608,1.752-4.75,4.233c-0.143,2.481,1.752,4.608,4.233,4.75
					s4.608-1.753,4.75-4.233c0,0,0,0,0,0C2398.669,570.894,2396.776,568.77,2394.298,568.623z"/>
				<path style="fill:#0033AD;" d="M2376.179,613.236c-2.644-1.732-6.191-0.992-7.923,1.652c-1.732,2.644-0.992,6.191,1.652,7.923
					c2.643,1.731,6.188,0.993,7.92-1.648c1.734-2.643,0.997-6.19-1.645-7.924C2376.182,613.237,2376.18,613.236,2376.179,613.236z"
					/>
				<path style="fill:#0033AD;" d="M2248.498,655.241c-2.078-1.363-4.867-0.784-6.23,1.293c-1.363,2.078-0.784,4.867,1.293,6.23
					c2.077,1.363,4.865,0.785,6.229-1.291c1.364-2.077,0.787-4.866-1.29-6.231C2248.5,655.242,2248.499,655.242,2248.498,655.241z"
					/>
				<path style="fill:#0033AD;" d="M2342.8,654.77c-2.219,1.118-3.111,3.824-1.993,6.043s3.824,3.111,6.043,1.993
					s3.111-3.824,1.993-6.043c0,0,0-0.001-0.001-0.001c-1.114-2.217-3.813-3.111-6.03-1.997
					C2342.808,654.766,2342.804,654.768,2342.8,654.77z"/>
				<path style="fill:#0033AD;" d="M2290.542,609.367c4.21-6.425,2.415-15.046-4.01-19.256c-6.425-4.21-15.046-2.415-19.256,4.01
					s-2.415,15.046,4.01,19.256c2.262,1.482,4.908,2.273,7.613,2.275C2283.594,615.668,2287.978,613.302,2290.542,609.367z"/>
				<path style="fill:#0033AD;" d="M2262.748,630.716c-3.21-2.1-7.516-1.2-9.616,2.01c-2.1,3.21-1.2,7.516,2.01,9.616
					c3.208,2.099,7.51,1.202,9.612-2.004C2266.855,637.126,2265.957,632.82,2262.748,630.716z"/>
				<path style="fill:#0033AD;" d="M2295.178,657.339c-3.156-0.18-5.859,2.233-6.039,5.389c-0.179,3.156,2.233,5.859,5.389,6.039
					c3.154,0.179,5.857-2.231,6.038-5.385c0.181-3.155-2.229-5.86-5.385-6.042C2295.18,657.339,2295.179,657.339,2295.178,657.339z"
					/>
				<path style="fill:#0033AD;" d="M2295.239,621.33c-4.508-0.274-8.385,3.159-8.659,7.667c-0.274,4.508,3.158,8.385,7.667,8.659
					c4.508,0.274,8.385-3.159,8.658-7.667c0.001-0.011,0.001-0.022,0.002-0.033C2303.167,625.458,2299.736,621.599,2295.239,621.33z
					"/>
				<path style="fill:#0033AD;" d="M2328.687,630.161c-3.425,1.738-4.793,5.923-3.055,9.348c1.738,3.425,5.923,4.793,9.348,3.055
					c3.425-1.738,4.793-5.923,3.055-9.348c-0.002-0.005-0.005-0.01-0.008-0.015c-1.735-3.417-5.911-4.781-9.328-3.046
					C2328.695,630.157,2328.69,630.159,2328.687,630.161z"/>
				<path style="fill:#0033AD;" d="M2482.162,540.473c13.467,0,22.899,7.402,22.899,21.143h17.64
					c0-24.107-17.776-35.72-40.805-35.72c-28.287,0-44.719,15.36-44.719,47.82c0,33.265,16.431,47.812,44.719,47.812
					c23.302,0,40.805-11.309,40.805-35.424h-16.971c0,13.467-9.295,20.877-23.56,20.877c-18.727,0-27.36-10.374-27.36-31.92v-2.69
					C2454.825,551.242,2463.572,540.473,2482.162,540.473z"/>
				<path style="fill:#0033AD;" d="M2569.342,527.537l-35.963,92.401h17.784l7.403-20.072h42.264l7.6,20.072h18.59l-35.986-92.401
					H2569.342z M2563.954,585.298l9.432-25.331c1.885-4.978,5.252-15.755,5.928-17.64h0.669c0.676,1.885,4.043,12.791,5.928,17.64
					l9.424,25.323L2563.954,585.298z"/>
				<path style="fill:#0033AD;" d="M2723.19,555.551c0-17.1-9.834-28.014-30.172-28.014h-48.762v92.401h17.245v-35.72h28.682
					l17.48,35.72h18.856l-19.76-38.388C2717.665,577.242,2723.19,568.084,2723.19,555.551z M2691.665,569.695h-30.165v-27.474
					h30.165c9.295,0,14.144,4.986,14.144,13.331C2705.809,564.314,2700.557,569.695,2691.665,569.695z"/>
				<path style="fill:#0033AD;" d="M2783.672,527.537h-36.921v92.401h36.906c27.877,0,44.84-14.547,44.84-46.201
					S2811.549,527.537,2783.672,527.537z M2810.88,575.083c-0.137,20.209-9.698,30.172-27.208,30.172h-19.661v-63.035h19.661
					c17.48,0,27.208,9.971,27.208,30.172V575.083z"/>
				<path style="fill:#0033AD;" d="M2873.671,527.537l-35.979,92.401h17.777l7.41-20.072h42.294l7.539,20.072h18.59l-35.964-92.401
					H2873.671z M2868.283,585.298l9.417-25.331c1.885-4.978,5.252-15.755,5.928-17.64h0.684c0.669,1.885,4.043,12.791,5.928,17.64
					l9.424,25.323L2868.283,585.298z"/>
				<path style="fill:#0033AD;" d="M3010.123,582.493c0,1.748,0.266,6.46,0.266,7.273l-0.669,0.266
					c-0.403-0.532-3.101-5.252-4.56-7.402l-40.136-55.093h-16.454v92.401h16.568V564.58c0-2.28-0.274-6.734-0.274-7.41l0.677-0.403
					c0.403,0.54,2.424,4.446,4.56,7.547l40.409,55.625h16.158v-92.401h-16.561v54.956H3010.123z"/>
				<path style="fill:#0033AD;" d="M3095.35,525.926c-28.956,0-46.467,15.352-46.467,47.812s17.48,47.812,46.467,47.812
					c28.987,0,46.604-15.352,46.604-47.812S3124.306,525.926,3095.35,525.926z M3124.306,575.22
					c0,21.143-10.101,31.783-28.956,31.783c-18.719,0-28.819-10.64-28.819-31.783v-2.827c0-21.151,10.237-31.92,28.819-31.92
					c18.727,0,28.956,10.769,28.956,31.92V575.22z"/>
			</g>
		</g>
	</g>
</g>
</svg>
