<?xml version="1.0" encoding="iso-8859-1"?>
<!-- Generator: Adobe Illustrator 29.6.0, SVG Export Plug-In . SVG Version: 9.03 Build 0)  -->
<svg version="1.1" xmlns="http://www.w3.org/2000/svg" xmlns:xlink="http://www.w3.org/1999/xlink" x="0px" y="0px"
	 viewBox="0 0 2774 2774" style="enable-background:new 0 0 2774 2774;" xml:space="preserve">
<g id="Shapes">
	<g>
		<g>
			
				<line style="fill:none;stroke:#000000;stroke-width:12;stroke-miterlimit:10;" x1="623.599" y1="789.462" x2="834.066" y2="636.949"/>
			<g>
				<polygon points="844.533,666.312 868.932,611.684 809.423,617.86 				"/>
			</g>
		</g>
	</g>
	<g>
		<g>
			
				<line style="fill:none;stroke:#000000;stroke-width:12;stroke-miterlimit:10;" x1="1455.598" y1="586.796" x2="1681.099" y2="655.949"/>
			<g>
				<polygon points="1663.958,681.986 1722.264,668.573 1681.501,624.779 				"/>
			</g>
		</g>
	</g>
	<g>
		<g>
			
				<line style="fill:none;stroke:#000000;stroke-width:12;stroke-miterlimit:10;" x1="623.599" y1="1849.015" x2="834.066" y2="2001.528"/>
			<g>
				<polygon points="809.423,2020.617 868.932,2026.793 844.533,1972.165 				"/>
			</g>
		</g>
	</g>
	<g>
		<g>
			
				<line style="fill:none;stroke:#000000;stroke-width:12;stroke-miterlimit:10;" x1="1455.598" y1="2051.681" x2="1684.317" y2="2114.88"/>
			<g>
				<polygon points="1667.911,2141.386 1725.819,2126.348 1683.848,2083.711 				"/>
			</g>
		</g>
	</g>
	<circle style="fill:#FF5553;" cx="437.008" cy="929.689" r="290.323"/>
	<circle style="fill:#FF5553;" cx="2175.481" cy="703.662" r="451.833"/>
	<circle style="fill:#FF5553;" cx="2175.481" cy="2223.633" r="451.833"/>
	<circle style="fill:#FF5553;" cx="437.008" cy="1649.043" r="290.323"/>
	<path style="fill:#0033AD;" d="M1496.85,825.138H908.249c-19.635,0-35.699-16.065-35.699-35.699V480.837
		c0-19.635,16.065-35.699,35.699-35.699h588.601c19.635,0,35.699,16.065,35.699,35.699v308.601
		C1532.55,809.073,1516.485,825.138,1496.85,825.138z"/>
	<path style="fill:#0033AD;" d="M1496.85,2234.815H908.249c-19.635,0-35.699-16.065-35.699-35.699v-308.601
		c0-19.635,16.065-35.699,35.699-35.699h588.601c19.635,0,35.699,16.065,35.699,35.699v308.601
		C1532.55,2218.75,1516.485,2234.815,1496.85,2234.815z"/>
</g>
<g id="Text">
	<g>
		<path style="fill:#FFFFFF;" d="M364.51,877.205h-27.3l-4.8,13.5h-14.9l24.9-68.6h18.4l24.9,68.6h-16.2L364.51,877.205z
			 M341.41,865.504h19c-2.535-7.533-5.6-16.5-9.2-26.9h-0.5L341.41,865.504z"/>
		<path style="fill:#FFFFFF;" d="M392.509,890.705v-72h14.6v72H392.509z"/>
		<path style="fill:#FFFFFF;" d="M420.308,818.705h14.8v11.5h-14.8V818.705z M420.408,890.705v-51.1h14.6v51.1H420.408z"/>
		<path style="fill:#FFFFFF;" d="M463.308,878.354c1.732,2.234,4.065,3.35,7,3.35c3.065,0,5.482-0.95,7.25-2.85
			c1.766-1.9,2.65-4.715,2.65-8.45h13.8c0,4.734-1.017,8.7-3.05,11.9c-2.035,3.2-4.717,5.567-8.05,7.1c-3.334,1.533-7,2.3-11,2.3
			h-1.6c-7.467,0-13.4-2.216-17.8-6.65c-4.4-4.433-6.6-10.583-6.6-18.45v-2.9c0-5.2,1.05-9.683,3.15-13.45
			c2.1-3.766,4.982-6.65,8.65-8.65c3.666-2,7.866-3,12.6-3h1.6c3.933,0,7.583,0.85,10.95,2.55c3.366,1.7,6.065,4.167,8.1,7.4
			c2.033,3.234,3.05,7.05,3.05,11.45h-14.5c0-3.465-0.767-6.232-2.3-8.3c-1.535-2.065-3.8-3.1-6.8-3.1s-5.367,1.185-7.1,3.55
			c-1.734,2.367-2.6,5.35-2.6,8.95v8.9C460.708,873.339,461.573,876.122,463.308,878.354z"/>
		<path style="fill:#FFFFFF;" d="M549.106,882.854c-2.134,3.035-4.95,5.267-8.45,6.7c-3.5,1.433-7.317,2.15-11.45,2.15h-1.6
			c-4.734,0-9-1-12.8-3s-6.784-4.883-8.95-8.65c-2.167-3.766-3.25-8.25-3.25-13.45v-2.9c0-5.133,1.1-9.6,3.3-13.4
			c2.2-3.8,5.183-6.7,8.95-8.7c3.766-2,8.016-3,12.75-3h1.6c4.133,0,7.966,0.85,11.5,2.55c3.533,1.7,6.366,4.167,8.5,7.4
			c2.133,3.234,3.2,7.05,3.2,11.45v7.6h-35v2.4c0,3.334,0.983,6.117,2.95,8.35c1.966,2.234,4.65,3.35,8.05,3.35
			c3.065,0,5.483-0.85,7.25-2.55c1.766-1.7,2.65-4.216,2.65-7.55h14C552.306,876.072,551.239,879.822,549.106,882.854z
			 M520.556,851.705c-1.834,2.067-2.884,4.7-3.15,7.9h20.2c0-3.4-0.784-6.083-2.35-8.05c-1.567-1.966-4.084-2.95-7.55-2.95
			C524.772,848.604,522.389,849.639,520.556,851.705z"/>
		<path style="fill:#FFFFFF;" d="M239.76,1000.705v-11h17v-42.4h-17v-8.1c2.466-0.2,5.183-0.666,8.15-1.4
			c2.965-0.733,5.982-1.7,9.05-2.9c3.065-1.2,5.933-2.466,8.6-3.8h4.9v58.6h16.7v11H239.76z"/>
		<path style="fill:#FFFFFF;" d="M322.259,1001.705c-4.4,0-8.4-1.033-12-3.1c-3.6-2.065-6.45-4.9-8.55-8.5s-3.15-7.666-3.15-12.2
			v-23c0-4.6,1.05-8.683,3.15-12.25c2.1-3.566,4.95-6.383,8.55-8.45c3.6-2.065,7.6-3.1,12-3.1h2.9c4.465,0,8.482,1.035,12.05,3.1
			c3.565,2.067,6.383,4.884,8.45,8.45c2.065,3.567,3.1,7.65,3.1,12.25v23c0,4.534-1.034,8.6-3.1,12.2
			c-2.067,3.6-4.885,6.435-8.45,8.5c-3.567,2.067-7.584,3.1-12.05,3.1H322.259z M323.659,991.205c2.2,0,4.15-0.516,5.85-1.55
			c1.7-1.033,3.033-2.416,4-4.15c0.966-1.732,1.45-3.7,1.45-5.9v-26.5c0-2.2-0.484-4.166-1.45-5.9c-0.967-1.733-2.3-3.116-4-4.15
			c-1.7-1.033-3.65-1.55-5.85-1.55c-2.135,0-4.05,0.518-5.75,1.55c-1.7,1.034-3.05,2.417-4.05,4.15c-1,1.734-1.5,3.7-1.5,5.9v26.5
			c0,2.2,0.5,4.167,1.5,5.9c1,1.734,2.35,3.117,4.05,4.15C319.609,990.689,321.524,991.205,323.659,991.205z"/>
		<path style="fill:#FFFFFF;" d="M383.758,1001.705c-4.4,0-8.4-1.033-12-3.1c-3.6-2.065-6.45-4.9-8.55-8.5s-3.15-7.666-3.15-12.2
			v-23c0-4.6,1.05-8.683,3.15-12.25c2.1-3.566,4.95-6.383,8.55-8.45c3.6-2.065,7.6-3.1,12-3.1h2.9c4.465,0,8.482,1.035,12.05,3.1
			c3.565,2.067,6.383,4.884,8.45,8.45c2.065,3.567,3.1,7.65,3.1,12.25v23c0,4.534-1.034,8.6-3.1,12.2
			c-2.067,3.6-4.885,6.435-8.45,8.5c-3.567,2.067-7.584,3.1-12.05,3.1H383.758z M385.158,991.205c2.2,0,4.15-0.516,5.85-1.55
			c1.7-1.033,3.033-2.416,4-4.15c0.966-1.732,1.45-3.7,1.45-5.9v-26.5c0-2.2-0.484-4.166-1.45-5.9c-0.967-1.733-2.3-3.116-4-4.15
			c-1.7-1.033-3.65-1.55-5.85-1.55c-2.135,0-4.05,0.518-5.75,1.55c-1.7,1.034-3.05,2.417-4.05,4.15c-1,1.734-1.5,3.7-1.5,5.9v26.5
			c0,2.2,0.5,4.167,1.5,5.9c1,1.734,2.35,3.117,4.05,4.15C381.108,990.689,383.023,991.205,385.158,991.205z"/>
		<path style="fill:#FFFFFF;" d="M437.756,1000.705l25.2-68.6h17.4l25.1,68.6h-15.2l-5.3-14.2h-27.8l-5.3,14.2H437.756z
			 M460.756,976.004h20.5l-10-28.5h-0.4L460.756,976.004z"/>
		<path style="fill:#FFFFFF;" d="M513.356,1000.705v-68.6h27.2c3.933,0,7.633,0.617,11.1,1.85c3.465,1.234,6.516,3.1,9.15,5.6
			c2.633,2.5,4.683,5.634,6.15,9.4c1.466,3.767,2.2,8.217,2.2,13.35v6.4c0,5.067-0.734,9.584-2.2,13.55
			c-1.467,3.967-3.517,7.317-6.15,10.05c-2.634,2.734-5.685,4.817-9.15,6.25c-3.467,1.434-7.167,2.15-11.1,2.15H513.356z
			 M527.957,989.504h11.4c2.733,0,5.183-0.615,7.35-1.85c2.166-1.233,3.883-3.15,5.15-5.75c1.266-2.6,1.9-5.966,1.9-10.1v-11.9
			c0-4.066-0.635-7.316-1.9-9.75c-1.267-2.433-2.984-4.2-5.15-5.3c-2.167-1.1-4.617-1.65-7.35-1.65h-11.4V989.504z"/>
		<path style="fill:#FFFFFF;" d="M574.457,1000.705l25.2-68.6h17.4l25.1,68.6h-15.2l-5.3-14.2h-27.8l-5.3,14.2H574.457z
			 M597.457,976.004h20.5l-10-28.5h-0.4L597.457,976.004z"/>
	</g>
	<g>
		<path style="fill:#FFFFFF;" d="M352.409,1614.038v-68.601h33.4c3.465,0,6.565,0.668,9.3,2c2.733,1.335,4.85,3.201,6.35,5.601
			s2.25,5.234,2.25,8.5c0,3.399-0.584,6.218-1.75,8.45c-1.167,2.234-2.634,4-4.4,5.3c-1.768,1.3-3.617,2.25-5.55,2.851v0.6
			c1.333,0.199,2.783,0.65,4.35,1.35c1.565,0.7,3.033,1.65,4.4,2.85c1.366,1.201,2.466,2.701,3.3,4.5
			c0.833,1.801,1.25,4.035,1.25,6.701c0,3.867-0.867,7.299-2.6,10.299c-1.734,3-4.1,5.351-7.1,7.051c-3,1.699-6.435,2.55-10.3,2.55
			H352.409z M366.209,1573.738h15c1.8,0,3.35-0.434,4.65-1.301c1.3-0.865,2.283-2.016,2.95-3.449c0.666-1.434,1-2.982,1-4.65
			c0-2.732-0.685-4.783-2.05-6.15c-1.367-1.365-3.317-2.049-5.85-2.049h-15.7V1573.738z M366.209,1603.139h15.8
			c1.8,0,3.383-0.434,4.75-1.301c1.366-0.865,2.433-2.033,3.2-3.5c0.766-1.465,1.15-3.133,1.15-5c0-1.865-0.4-3.449-1.2-4.75
			c-0.8-1.3-1.884-2.315-3.25-3.05c-1.367-0.733-2.884-1.101-4.55-1.101h-15.9V1603.139z"/>
		<path style="fill:#FFFFFF;" d="M439.008,1615.038c-4.667,0-8.85-1.05-12.55-3.149c-3.7-2.101-6.6-5.084-8.7-8.951
			c-2.1-3.865-3.15-8.399-3.15-13.6v-1.8c0-5.266,1.05-9.8,3.15-13.601c2.1-3.799,4.983-6.75,8.65-8.85
			c3.666-2.1,7.833-3.15,12.5-3.15h2c4.733,0,8.933,1.051,12.6,3.15c3.666,2.1,6.55,5.051,8.65,8.85
			c2.1,3.801,3.15,8.335,3.15,13.601v1.8c0,5.268-1.05,9.817-3.15,13.65c-2.1,3.834-4.984,6.8-8.65,8.9
			c-3.667,2.1-7.834,3.149-12.5,3.149H439.008z M439.908,1606.038c2.066,0,3.916-0.483,5.55-1.45c1.633-0.965,2.933-2.416,3.9-4.35
			c0.965-1.934,1.45-4.232,1.45-6.9v-9.8c0-2.733-0.484-5.032-1.45-6.899c-0.967-1.866-2.267-3.301-3.9-4.301
			c-1.635-1-3.484-1.5-5.55-1.5c-2,0-3.834,0.5-5.5,1.5c-1.667,1-2.984,2.435-3.95,4.301c-0.967,1.867-1.45,4.166-1.45,6.899v9.8
			c0,2.668,0.483,4.967,1.45,6.9c0.965,1.934,2.283,3.385,3.95,4.35C436.073,1605.555,437.908,1606.038,439.908,1606.038z"/>
		<path style="fill:#FFFFFF;" d="M503.407,1615.038c-7.467,0-13.167-3-17.1-9l-4.7,8h-5v-72h13.7v26.899
			c1.4-1.932,3.333-3.582,5.8-4.949c2.466-1.365,5.4-2.051,8.8-2.051c3.666,0,7,0.851,10,2.551c3,1.699,5.4,4.35,7.2,7.949
			c1.8,3.601,2.7,8.234,2.7,13.9v2.2c0,6.067-0.967,11.067-2.9,15c-1.935,3.935-4.535,6.835-7.8,8.7
			C510.84,1614.104,507.273,1615.038,503.407,1615.038z M500.507,1606.038c1.933,0,3.633-0.466,5.1-1.399
			c1.466-0.934,2.633-2.383,3.5-4.351c0.866-1.966,1.3-4.483,1.3-7.55v-9c0-2.801-0.417-5.115-1.25-6.95
			c-0.834-1.833-1.967-3.233-3.4-4.2c-1.435-0.965-3.117-1.449-5.05-1.449c-1.867,0-3.6,0.484-5.2,1.449
			c-1.6,0.967-2.867,2.385-3.8,4.25c-0.934,1.867-1.4,4.2-1.4,7v8.9c0,3.066,0.45,5.584,1.35,7.55c0.9,1.968,2.133,3.417,3.7,4.351
			C496.923,1605.572,498.64,1606.038,500.507,1606.038z"/>
		<path style="fill:#FFFFFF;" d="M270.011,1725.038c-5.134,0-9.567-0.95-13.3-2.851c-3.734-1.899-6.617-4.564-8.65-8
			c-2.034-3.432-3.05-7.449-3.05-12.049h12.5c0,2.267,0.5,4.299,1.5,6.1c1,1.8,2.416,3.217,4.25,4.25
			c1.833,1.034,3.95,1.55,6.35,1.55c2.6,0,4.8-0.55,6.6-1.649c1.8-1.101,3.183-2.601,4.15-4.5c0.965-1.9,1.45-3.983,1.45-6.25
			c0-3.601-1.134-6.551-3.4-8.851c-2.267-2.3-5.167-3.45-8.7-3.45c-2.267,0-4.367,0.551-6.3,1.65c-1.935,1.1-3.467,2.449-4.6,4.05
			l-11.2-1.601l2.9-38h40.8v12.201h-30l-1.3,16.299c1.465-1.332,3.366-2.516,5.7-3.549c2.333-1.033,5.1-1.551,8.3-1.551
			c4.2,0,7.916,0.867,11.15,2.6c3.233,1.734,5.766,4.25,7.6,7.551c1.833,3.3,2.75,7.316,2.75,12.05c0,4.534-1.1,8.617-3.3,12.25
			c-2.2,3.634-5.217,6.5-9.05,8.601C279.327,1723.988,274.944,1725.038,270.011,1725.038z"/>
		<path style="fill:#FFFFFF;" d="M330.21,1725.038c-4.4,0-8.4-1.032-12-3.101c-3.6-2.064-6.45-4.899-8.55-8.5
			c-2.1-3.6-3.15-7.665-3.15-12.199v-23c0-4.6,1.05-8.684,3.15-12.25s4.95-6.383,8.55-8.45c3.6-2.065,7.6-3.101,12-3.101h2.9
			c4.465,0,8.482,1.035,12.05,3.101c3.565,2.067,6.383,4.884,8.45,8.45c2.065,3.566,3.1,7.65,3.1,12.25v23
			c0,4.534-1.034,8.6-3.1,12.199c-2.067,3.601-4.885,6.436-8.45,8.5c-3.567,2.068-7.584,3.101-12.05,3.101H330.21z M331.61,1714.538
			c2.2,0,4.15-0.516,5.85-1.55c1.7-1.033,3.033-2.416,4-4.15c0.966-1.732,1.45-3.699,1.45-5.9v-26.5c0-2.199-0.484-4.165-1.45-5.899
			c-0.967-1.733-2.3-3.116-4-4.149c-1.7-1.033-3.65-1.551-5.85-1.551c-2.135,0-4.05,0.518-5.75,1.551
			c-1.7,1.033-3.05,2.416-4.05,4.149c-1,1.734-1.5,3.7-1.5,5.899v26.5c0,2.201,0.5,4.168,1.5,5.9c1,1.734,2.35,3.117,4.05,4.15
			C327.56,1714.022,329.476,1714.538,331.61,1714.538z"/>
		<path style="fill:#FFFFFF;" d="M391.608,1724.038v-68.601h27.2c3.933,0,7.633,0.617,11.1,1.851
			c3.465,1.234,6.516,3.101,9.15,5.601c2.633,2.5,4.683,5.634,6.15,9.399c1.466,3.767,2.2,8.218,2.2,13.351v6.399
			c0,5.067-0.734,9.585-2.2,13.55c-1.467,3.967-3.517,7.317-6.15,10.051c-2.634,2.734-5.685,4.816-9.15,6.25
			c-3.467,1.434-7.167,2.149-11.1,2.149H391.608z M406.208,1712.838h11.4c2.733,0,5.183-0.615,7.35-1.85
			c2.166-1.232,3.883-3.15,5.15-5.75c1.266-2.6,1.9-5.966,1.9-10.1v-11.9c0-4.066-0.635-7.316-1.9-9.75
			c-1.267-2.434-2.984-4.2-5.15-5.301c-2.167-1.1-4.617-1.649-7.35-1.649h-11.4V1712.838z"/>
		<path style="fill:#FFFFFF;" d="M475.508,1725.038c-4,0-7.55-0.718-10.65-2.149c-3.1-1.434-5.517-3.551-7.25-6.351
			c-1.734-2.8-2.6-6.165-2.6-10.101v-5h13.3v4.201c0,2.799,0.766,4.884,2.3,6.25c1.533,1.367,3.433,2.049,5.7,2.049
			c1.6,0,3.016-0.314,4.25-0.949c1.233-0.633,2.2-1.551,2.9-2.75c0.7-1.2,1.05-2.732,1.05-4.6v-50.201h14.4v49.9
			c0,4.067-0.934,7.567-2.8,10.5c-1.867,2.935-4.4,5.2-7.6,6.801c-3.2,1.6-6.867,2.399-11,2.399H475.508z"/>
		<path style="fill:#FFFFFF;" d="M514.006,1724.038v-68.601h47.7l-1.6,11.201h-31.6v16.899h29.3v11h-29.3v18.3h32l1.6,11.2H514.006z
			"/>
		<path style="fill:#FFFFFF;" d="M573.705,1724.038v-68.601h27.2c3.933,0,7.633,0.617,11.1,1.851
			c3.465,1.234,6.516,3.101,9.15,5.601c2.633,2.5,4.683,5.634,6.15,9.399c1.466,3.767,2.2,8.218,2.2,13.351v6.399
			c0,5.067-0.734,9.585-2.2,13.55c-1.467,3.967-3.517,7.317-6.15,10.051c-2.634,2.734-5.685,4.816-9.15,6.25
			c-3.467,1.434-7.167,2.149-11.1,2.149H573.705z M588.305,1712.838h11.4c2.733,0,5.183-0.615,7.35-1.85
			c2.166-1.232,3.883-3.15,5.15-5.75c1.266-2.6,1.9-5.966,1.9-10.1v-11.9c0-4.066-0.635-7.316-1.9-9.75
			c-1.267-2.434-2.984-4.2-5.15-5.301c-2.167-1.1-4.617-1.649-7.35-1.649h-11.4V1712.838z"/>
	</g>
	<g>
		<path style="fill:#FFFFFF;" d="M1115.647,550.392v73.06h-19.89v-73.06h-25.35v-16.12h70.46v16.12H1115.647z"/>
		<path style="fill:#FFFFFF;" d="M1172.066,576.652l-27.3-42.38h23.53l16.9,27.3h0.52c8.84-13.345,14.603-22.445,17.29-27.3h21.71
			c-1.735,2.688-5.18,8.04-10.335,16.055c-5.157,8.018-10.855,16.705-17.095,26.065c5.98,9.275,11.96,18.57,17.94,27.885
			c5.98,9.317,10.053,15.709,12.22,19.175h-23.53l-19.76-31.85h-0.52c-11.18,17.248-17.854,27.865-20.02,31.85h-21.71
			L1172.066,576.652z"/>
		<path style="fill:#FFFFFF;" d="M1266.443,607.722h21.58v-51.09h-21.71v-11.57c4.853-0.345,10.355-1.58,16.51-3.705
			c6.153-2.123,11.96-4.7,17.42-7.735h6.89v74.1h21.19v15.73h-61.88V607.722z"/>
		<path style="fill:#FFFFFF;" d="M1027.804,734.452c-4.867,0-9.317-0.717-13.35-2.15c-4.034-1.433-7.267-3.683-9.7-6.75
			c-2.435-3.066-3.65-7.1-3.65-12.1c0-0.4,0-0.783,0-1.15c0-0.366,0.033-0.716,0.1-1.05h13.5c-0.067,0.334-0.1,0.635-0.1,0.9
			c0,0.267,0,0.567,0,0.9c0,2.134,0.516,3.967,1.55,5.5c1.033,1.534,2.565,2.7,4.6,3.5c2.033,0.8,4.45,1.2,7.25,1.2
			c3.133,0,5.7-0.315,7.7-0.95c2-0.633,3.5-1.616,4.5-2.95c1-1.333,1.5-2.965,1.5-4.9c0-2.065-0.717-3.716-2.15-4.95
			c-1.434-1.232-3.3-2.215-5.6-2.95c-2.3-0.733-4.834-1.416-7.6-2.05c-2.768-0.633-5.535-1.383-8.3-2.25
			c-2.767-0.865-5.317-2.033-7.65-3.5c-2.334-1.465-4.2-3.4-5.6-5.8s-2.1-5.466-2.1-9.2c0-4.465,1.216-8.166,3.65-11.1
			c2.433-2.933,5.666-5.133,9.7-6.6c4.033-1.466,8.416-2.2,13.15-2.2c4.733,0,9.033,0.685,12.9,2.05c3.865,1.367,6.965,3.5,9.3,6.4
			c2.333,2.9,3.5,6.65,3.5,11.25v1.3h-13.3v-1.2c0-1.8-0.484-3.366-1.45-4.7c-0.967-1.333-2.35-2.35-4.15-3.05
			c-1.8-0.7-4-1.05-6.6-1.05c-2.4,0-4.517,0.25-6.35,0.75c-1.834,0.5-3.25,1.3-4.25,2.4c-1,1.1-1.5,2.518-1.5,4.25
			c0,2,0.7,3.6,2.1,4.8c1.4,1.2,3.266,2.15,5.6,2.85c2.333,0.7,4.916,1.367,7.75,2c2.833,0.634,5.633,1.367,8.4,2.2
			c2.766,0.834,5.315,1.967,7.65,3.4c2.333,1.435,4.2,3.334,5.6,5.7c1.4,2.367,2.1,5.384,2.1,9.05c0,5.334-1.267,9.617-3.8,12.85
			c-2.534,3.234-5.95,5.6-10.25,7.1C1038.154,733.702,1033.27,734.452,1027.804,734.452z"/>
		<path style="fill:#FFFFFF;" d="M1068.104,672.052v-10.6h14.1v10.6H1068.104z M1068.303,733.452v-51.1h13.7v51.1H1068.303z"/>
		<path style="fill:#FFFFFF;" d="M1104.602,752.251c-2.334,0-4.45-0.55-6.35-1.65c-1.9-1.1-3.435-2.584-4.6-4.45
			c-1.167-1.867-1.75-3.9-1.75-6.1c0-2.467,0.666-4.75,2-6.85c1.333-2.1,3.166-3.683,5.5-4.75c-1.467-0.933-2.617-2.15-3.45-3.65
			c-0.834-1.5-1.25-3.083-1.25-4.75c0-2.466,0.8-4.583,2.4-6.35c1.6-1.766,3.633-3.05,6.1-3.85c-2.067-1.266-3.767-2.833-5.1-4.7
			c-1.334-1.866-2-4.166-2-6.9c0-2.865,0.783-5.6,2.35-8.2c1.566-2.6,3.933-4.7,7.1-6.3c3.166-1.6,7.183-2.4,12.05-2.4
			c2,0,3.866,0.1,5.6,0.3c1.733,0.2,3.266,0.534,4.6,1c2.6-1.4,4.516-2.933,5.75-4.6c1.233-1.666,1.916-3.3,2.05-4.9h10.7
			c0,2.267-0.435,4.3-1.3,6.1c-0.867,1.8-2.084,3.285-3.65,4.45c-1.567,1.167-3.45,2.017-5.65,2.55l-0.1,0.3
			c1.6,1.334,2.883,2.9,3.85,4.7c0.966,1.8,1.45,3.768,1.45,5.9c0,2.934-0.817,5.634-2.45,8.1c-1.634,2.467-3.934,4.45-6.9,5.95
			c-2.967,1.5-6.45,2.25-10.45,2.25h-7.5c-2.067,0-3.667,0.417-4.8,1.25c-1.134,0.834-1.7,1.95-1.7,3.35
			c0,1.267,0.516,2.334,1.55,3.2c1.033,0.867,2.683,1.3,4.95,1.3h17.7c4.666,0,8.333,1.367,11,4.1c2.666,2.734,4,6.1,4,10.1
			c0,2.8-0.7,5.383-2.1,7.75c-1.4,2.366-3.35,4.25-5.85,5.65c-2.5,1.4-5.384,2.1-8.65,2.1H1104.602z M1109.802,743.751h17.3
			c1.8,0,3.35-0.584,4.65-1.75c1.3-1.167,1.95-2.584,1.95-4.25c0-1.534-0.55-2.834-1.65-3.9c-1.1-1.065-2.484-1.6-4.15-1.6h-18.1
			c-1.734,0-3.2,0.567-4.4,1.7c-1.2,1.133-1.8,2.466-1.8,4c0,1.533,0.6,2.883,1.8,4.05
			C1106.602,743.167,1108.068,743.751,1109.802,743.751z M1118.602,705.952c2.933,0,5.25-0.833,6.95-2.5
			c1.7-1.666,2.55-3.666,2.55-6c0-2.333-0.85-4.35-2.55-6.05c-1.7-1.7-4.017-2.55-6.95-2.55c-2.934,0-5.267,0.85-7,2.55
			c-1.734,1.7-2.6,3.717-2.6,6.05c0,2.334,0.865,4.334,2.6,6C1113.335,705.119,1115.668,705.952,1118.602,705.952z"/>
		<path style="fill:#FFFFFF;" d="M1169.201,733.452l25.2-68.6h17.4l25.1,68.6h-15.2l-5.3-14.2h-27.8l-5.3,14.2H1169.201z
			 M1192.201,708.751h20.5l-10-28.5h-0.4L1192.201,708.751z"/>
		<path style="fill:#FFFFFF;" d="M1244.1,733.452v-72h13.7v72H1244.1z"/>
		<path style="fill:#FFFFFF;" d="M1272.799,672.052v-10.6h14.1v10.6H1272.799z M1272.999,733.452v-51.1h13.7v51.1H1272.999z"/>
		<path style="fill:#FFFFFF;" d="M1321.598,734.452c-4.334,0-8.25-1.065-11.75-3.2c-3.5-2.133-6.25-5.083-8.25-8.85
			c-2-3.766-3-8.083-3-12.95v-3.1c0-3.666,0.616-7.016,1.85-10.05c1.232-3.033,2.916-5.683,5.05-7.95c2.133-2.266,4.633-4,7.5-5.2
			c2.866-1.2,5.933-1.8,9.2-1.8h1.9c4.465,0,8.35,0.884,11.65,2.65c3.3,1.768,5.833,4.234,7.6,7.4
			c1.766,3.167,2.65,6.884,2.65,11.15h-11.9c0-2.733-0.417-5-1.25-6.8c-0.834-1.8-2.017-3.166-3.55-4.1
			c-1.534-0.933-3.367-1.4-5.5-1.4c-3.067,0-5.634,1.05-7.7,3.15c-2.067,2.1-3.1,5.184-3.1,9.25v10.3c0,4,0.983,7.084,2.95,9.25
			c1.965,2.167,4.615,3.25,7.95,3.25c2.333,0,4.3-0.4,5.9-1.2c1.6-0.8,2.816-2.1,3.65-3.9c0.833-1.8,1.25-4.2,1.25-7.2h11.3
			c0,4.534-0.967,8.384-2.9,11.55c-1.935,3.167-4.6,5.584-8,7.25s-7.267,2.5-11.6,2.5H1321.598z"/>
		<path style="fill:#FFFFFF;" d="M1378.997,734.452c-4.8,0-9.05-0.984-12.75-2.95c-3.7-1.965-6.584-4.833-8.65-8.6
			c-2.067-3.766-3.1-8.35-3.1-13.75v-2.5c0-5.4,1.083-9.983,3.25-13.75c2.166-3.766,5.133-6.633,8.9-8.6
			c3.766-1.966,8.05-2.95,12.85-2.95h1.6c4.533,0,8.483,0.917,11.85,2.75c3.365,1.834,5.965,4.4,7.8,7.7
			c1.833,3.3,2.75,7.15,2.75,11.55v6.3h-34.6c0,3.2,0.4,6,1.2,8.4c0.8,2.4,2,4.234,3.6,5.5c1.6,1.267,3.7,1.9,6.3,1.9
			c2.133,0,4-0.416,5.6-1.25c1.6-0.833,2.866-2.083,3.799-3.75c0.934-1.666,1.4-3.7,1.4-6.1h12.7c0,3.935-1,7.417-3,10.45
			c-2,3.034-4.75,5.4-8.25,7.1c-3.5,1.7-7.55,2.55-12.15,2.55H1378.997z M1368.997,702.652h21.1c0-4.2-0.917-7.316-2.75-9.35
			c-1.834-2.033-4.35-3.05-7.55-3.05c-3,0-5.517,1.05-7.55,3.15C1370.213,695.501,1369.13,698.586,1368.997,702.652z"/>
	</g>
	<g>
		<path style="fill:#FFFFFF;" d="M1115.647,1956.04v73.06h-19.89v-73.06h-25.35v-16.12h70.46v16.12H1115.647z"/>
		<path style="fill:#FFFFFF;" d="M1172.066,1982.3l-27.3-42.38h23.53l16.9,27.3h0.52c8.84-13.345,14.603-22.445,17.29-27.3h21.71
			c-1.735,2.688-5.18,8.04-10.335,16.055c-5.157,8.018-10.855,16.705-17.095,26.065c5.98,9.274,11.96,18.569,17.94,27.885
			c5.98,9.317,10.053,15.71,12.22,19.175h-23.53l-19.76-31.85h-0.52c-11.18,17.247-17.854,27.864-20.02,31.85h-21.71
			L1172.066,1982.3z"/>
		<path style="fill:#FFFFFF;" d="M1266.508,2011.615c1.95-3.336,4.701-6.391,8.255-9.165l25.35-19.891
			c3.293-2.513,5.568-5.09,6.825-7.734c1.255-2.643,1.885-5.396,1.885-8.255c0-3.206-1.04-6.001-3.12-8.386
			c-2.08-2.383-5.2-3.575-9.36-3.575c-3.38,0-6.175,0.76-8.385,2.275c-2.21,1.518-3.835,3.315-4.875,5.396
			c-1.04,2.079-1.56,3.899-1.56,5.46c0,1.56,0.042,2.729,0.13,3.51h-17.81c-0.087-0.692-0.13-1.516-0.13-2.47
			c0-4.681,1.04-9.296,3.12-13.846s5.633-8.405,10.66-11.569c5.025-3.163,11.612-4.745,19.76-4.745h1.95
			c6.24,0,11.59,1.3,16.055,3.899c4.463,2.601,7.82,6.003,10.075,10.205c2.252,4.205,3.38,8.689,3.38,13.455
			c0,5.115-0.975,9.643-2.925,13.585c-1.95,3.945-5.31,7.91-10.075,11.896c-5.46,4.595-12.047,9.794-19.76,15.6
			c-0.868,0.694-1.95,1.647-3.25,2.86c-1.3,1.215-1.95,1.994-1.95,2.34h38.22v16.64h-65.39v-3.899
			C1263.583,2019.479,1264.558,2014.952,1266.508,2011.615z"/>
		<path style="fill:#FFFFFF;" d="M1055.103,2140.1c-4.867,0-9.317-0.717-13.35-2.149c-4.034-1.434-7.267-3.684-9.7-6.75
			c-2.435-3.066-3.65-7.101-3.65-12.101c0-0.399,0-0.782,0-1.149c0-0.366,0.033-0.716,0.1-1.051h13.5
			c-0.067,0.335-0.1,0.635-0.1,0.9c0,0.268,0,0.567,0,0.9c0,2.134,0.516,3.967,1.55,5.5c1.033,1.534,2.565,2.699,4.6,3.5
			c2.033,0.8,4.45,1.199,7.25,1.199c3.133,0,5.7-0.315,7.7-0.949c2-0.633,3.5-1.616,4.5-2.95c1-1.333,1.5-2.966,1.5-4.9
			c0-2.065-0.717-3.716-2.15-4.95c-1.434-1.232-3.3-2.215-5.6-2.949c-2.3-0.733-4.834-1.416-7.6-2.051
			c-2.768-0.633-5.535-1.383-8.3-2.25c-2.767-0.865-5.317-2.032-7.65-3.5c-2.334-1.465-4.2-3.399-5.6-5.8
			c-1.4-2.399-2.1-5.466-2.1-9.2c0-4.465,1.216-8.165,3.65-11.1c2.433-2.933,5.666-5.133,9.7-6.6c4.033-1.466,8.416-2.2,13.15-2.2
			c4.733,0,9.033,0.685,12.9,2.05c3.865,1.367,6.965,3.5,9.3,6.4c2.333,2.899,3.5,6.649,3.5,11.25v1.3h-13.3v-1.2
			c0-1.8-0.484-3.365-1.45-4.7c-0.967-1.333-2.35-2.35-4.15-3.05c-1.8-0.7-4-1.05-6.6-1.05c-2.4,0-4.517,0.25-6.35,0.75
			c-1.834,0.5-3.25,1.3-4.25,2.399c-1,1.101-1.5,2.518-1.5,4.25c0,2,0.7,3.601,2.1,4.801c1.4,1.199,3.266,2.149,5.6,2.85
			c2.333,0.7,4.916,1.367,7.75,2c2.833,0.635,5.633,1.367,8.4,2.2c2.766,0.834,5.315,1.967,7.65,3.399
			c2.333,1.435,4.2,3.335,5.6,5.7c1.4,2.367,2.1,5.385,2.1,9.05c0,5.335-1.267,9.617-3.8,12.851c-2.534,3.234-5.95,5.6-10.25,7.1
			C1065.453,2139.35,1060.568,2140.1,1055.103,2140.1z"/>
		<path style="fill:#FFFFFF;" d="M1095.402,2077.7V2067.1h14.1v10.601H1095.402z M1095.602,2139.1V2088h13.7v51.1H1095.602z"/>
		<path style="fill:#FFFFFF;" d="M1131.9,2157.899c-2.334,0-4.45-0.55-6.35-1.649c-1.9-1.101-3.435-2.585-4.6-4.45
			c-1.167-1.867-1.75-3.9-1.75-6.1c0-2.468,0.666-4.75,2-6.851c1.333-2.1,3.166-3.683,5.5-4.75c-1.467-0.933-2.617-2.149-3.45-3.649
			c-0.834-1.5-1.25-3.083-1.25-4.75c0-2.466,0.8-4.583,2.4-6.351c1.6-1.766,3.633-3.05,6.1-3.85c-2.067-1.266-3.767-2.833-5.1-4.7
			c-1.334-1.865-2-4.166-2-6.9c0-2.865,0.783-5.6,2.35-8.199c1.566-2.601,3.933-4.7,7.1-6.301c3.166-1.6,7.183-2.399,12.05-2.399
			c2,0,3.866,0.1,5.6,0.3c1.733,0.2,3.266,0.534,4.6,1c2.6-1.4,4.516-2.933,5.75-4.6c1.233-1.666,1.916-3.301,2.05-4.9h10.7
			c0,2.268-0.435,4.3-1.3,6.1c-0.867,1.801-2.084,3.285-3.65,4.45c-1.567,1.167-3.45,2.018-5.65,2.55l-0.1,0.301
			c1.6,1.334,2.883,2.899,3.85,4.699c0.966,1.801,1.45,3.768,1.45,5.9c0,2.935-0.817,5.635-2.45,8.1
			c-1.634,2.468-3.934,4.45-6.9,5.95c-2.967,1.5-6.45,2.25-10.45,2.25h-7.5c-2.067,0-3.667,0.417-4.8,1.25
			c-1.134,0.835-1.7,1.95-1.7,3.351c0,1.267,0.516,2.334,1.55,3.199c1.033,0.867,2.683,1.301,4.95,1.301h17.7
			c4.666,0,8.333,1.367,11,4.1c2.666,2.734,4,6.1,4,10.1c0,2.801-0.7,5.383-2.1,7.75c-1.4,2.366-3.35,4.25-5.85,5.65
			s-5.384,2.1-8.65,2.1H1131.9z M1137.101,2149.399h17.3c1.8,0,3.35-0.584,4.65-1.75c1.3-1.167,1.95-2.584,1.95-4.25
			c0-1.534-0.55-2.834-1.65-3.899s-2.484-1.601-4.15-1.601h-18.1c-1.734,0-3.2,0.567-4.4,1.7c-1.2,1.133-1.8,2.466-1.8,4
			c0,1.533,0.6,2.883,1.8,4.05C1133.9,2148.815,1135.366,2149.399,1137.101,2149.399z M1145.9,2111.6c2.933,0,5.25-0.833,6.95-2.5
			c1.7-1.665,2.55-3.665,2.55-6c0-2.333-0.85-4.35-2.55-6.05s-4.017-2.55-6.95-2.55c-2.934,0-5.267,0.85-7,2.55
			c-1.734,1.7-2.6,3.717-2.6,6.05c0,2.335,0.865,4.335,2.6,6C1140.633,2110.767,1142.966,2111.6,1145.9,2111.6z"/>
		<path style="fill:#FFFFFF;" d="M1203.899,2139.1v-68.6h33.4c3.465,0,6.565,0.667,9.3,2c2.733,1.334,4.85,3.2,6.35,5.6
			c1.5,2.4,2.25,5.234,2.25,8.5c0,3.4-0.584,6.218-1.75,8.45c-1.167,2.234-2.634,4-4.4,5.3c-1.768,1.3-3.617,2.25-5.55,2.851v0.6
			c1.333,0.2,2.783,0.65,4.35,1.35c1.565,0.7,3.033,1.65,4.4,2.851c1.366,1.2,2.466,2.7,3.3,4.5c0.833,1.8,1.25,4.034,1.25,6.7
			c0,3.867-0.867,7.3-2.6,10.3c-1.734,3-4.1,5.35-7.1,7.05s-6.435,2.55-10.3,2.55H1203.899z M1217.699,2098.8h15
			c1.8,0,3.35-0.433,4.65-1.3c1.3-0.866,2.283-2.016,2.95-3.45c0.666-1.433,1-2.982,1-4.65c0-2.732-0.685-4.782-2.05-6.149
			c-1.367-1.366-3.317-2.05-5.85-2.05h-15.7V2098.8z M1217.699,2128.2h15.8c1.8,0,3.383-0.434,4.75-1.301
			c1.366-0.865,2.433-2.032,3.2-3.5c0.766-1.465,1.15-3.133,1.15-5c0-1.865-0.4-3.449-1.2-4.75c-0.8-1.3-1.884-2.315-3.25-3.05
			c-1.367-0.732-2.884-1.1-4.55-1.1h-15.9V2128.2z"/>
		<path style="fill:#FFFFFF;" d="M1290.498,2140.1c-4.667,0-8.85-1.05-12.55-3.149c-3.7-2.101-6.6-5.083-8.7-8.95
			c-2.1-3.866-3.15-8.4-3.15-13.601v-1.8c0-5.266,1.05-9.8,3.15-13.6s4.983-6.75,8.65-8.851c3.666-2.1,7.833-3.149,12.5-3.149h2
			c4.733,0,8.933,1.05,12.6,3.149c3.666,2.101,6.55,5.051,8.65,8.851s3.15,8.334,3.15,13.6v1.8c0,5.268-1.05,9.817-3.15,13.65
			c-2.1,3.834-4.984,6.8-8.65,8.9c-3.667,2.1-7.834,3.149-12.5,3.149H1290.498z M1291.398,2131.1c2.066,0,3.916-0.482,5.55-1.45
			c1.633-0.965,2.933-2.415,3.9-4.35c0.965-1.933,1.45-4.232,1.45-6.9v-9.8c0-2.732-0.484-5.032-1.45-6.899
			c-0.967-1.866-2.267-3.301-3.9-4.301c-1.635-1-3.484-1.5-5.55-1.5c-2,0-3.834,0.5-5.5,1.5c-1.667,1-2.984,2.435-3.95,4.301
			c-0.967,1.867-1.45,4.167-1.45,6.899v9.8c0,2.668,0.483,4.968,1.45,6.9c0.965,1.935,2.283,3.385,3.95,4.35
			C1287.563,2130.617,1289.398,2131.1,1291.398,2131.1z"/>
		<path style="fill:#FFFFFF;" d="M1354.897,2140.1c-7.467,0-13.167-3-17.1-9l-4.7,8h-5v-72h13.7v26.9
			c1.4-1.933,3.333-3.583,5.8-4.95c2.466-1.365,5.4-2.05,8.8-2.05c3.666,0,7,0.85,10,2.55s5.4,4.35,7.2,7.95
			c1.8,3.6,2.7,8.234,2.7,13.899v2.2c0,6.067-0.967,11.067-2.9,15c-1.935,3.935-4.535,6.835-7.8,8.7
			C1362.33,2139.165,1358.763,2140.1,1354.897,2140.1z M1351.998,2131.1c1.933,0,3.633-0.466,5.1-1.399
			c1.466-0.934,2.633-2.383,3.5-4.351c0.866-1.966,1.3-4.482,1.3-7.55v-9c0-2.8-0.417-5.115-1.25-6.95
			c-0.834-1.833-1.967-3.232-3.4-4.2c-1.435-0.965-3.117-1.449-5.05-1.449c-1.867,0-3.6,0.484-5.2,1.449
			c-1.6,0.968-2.867,2.385-3.8,4.25c-0.934,1.867-1.4,4.2-1.4,7v8.9c0,3.067,0.45,5.584,1.35,7.55c0.9,1.968,2.133,3.417,3.7,4.351
			C1348.413,2130.634,1350.13,2131.1,1351.998,2131.1z"/>
	</g>
	<g>
		<path d="M2089.684,209.034c-4.42,0-8.018-1.083-10.79-3.25c-2.775-2.166-4.16-5.806-4.16-10.92c0-7.453-0.976-13.26-2.925-17.42
			c-1.95-4.16-5.612-6.24-10.985-6.24h-15.08v36.92h-19.76v-89.18h39.91c8.492,0,15.62,1.735,21.385,5.2
			c5.763,3.467,8.645,9.1,8.645,16.9c0,3.12-0.694,6.197-2.079,9.23c-1.388,3.035-3.315,5.635-5.785,7.8
			c-2.471,2.167-5.18,3.51-8.125,4.03v0.65c3.812,1.215,7.149,3.815,10.01,7.8c2.86,3.987,4.29,9.317,4.29,15.99
			c0,9.535,2.21,14.995,6.63,16.38v4.42C2098.003,208.469,2094.276,209.034,2089.684,209.034z M2072.588,152.614
			c2.036-1.906,3.056-4.203,3.056-6.89v-0.91c0-2.86-0.976-5.22-2.925-7.085c-1.95-1.863-4.442-2.795-7.476-2.795h-19.5v20.54h19.5
			C2068.104,155.474,2070.551,154.521,2072.588,152.614z"/>
		<path d="M2169.112,197.919c-2.774,3.945-6.435,6.848-10.984,8.71c-4.551,1.863-9.513,2.795-14.886,2.795h-2.08
			c-6.154,0-11.699-1.3-16.64-3.9s-8.819-6.348-11.635-11.245c-2.817-4.895-4.226-10.725-4.226-17.485v-3.77
			c0-6.672,1.431-12.48,4.29-17.42c2.86-4.94,6.738-8.71,11.636-11.31c4.895-2.6,10.42-3.9,16.574-3.9h2.08
			c5.373,0,10.355,1.105,14.95,3.315c4.593,2.21,8.275,5.417,11.05,9.62c2.773,4.205,4.16,9.165,4.16,14.885v9.88h-45.5v3.12
			c0,4.335,1.277,7.953,3.835,10.855c2.556,2.905,6.045,4.355,10.465,4.355c3.985,0,7.128-1.105,9.426-3.315
			c2.295-2.21,3.444-5.48,3.444-9.815h18.2C2173.272,189.102,2171.885,193.977,2169.112,197.919z M2131.997,157.424
			c-2.384,2.688-3.749,6.11-4.095,10.27h26.26c0-4.42-1.02-7.908-3.055-10.465c-2.037-2.555-5.31-3.835-9.814-3.835
			C2137.478,153.394,2134.38,154.739,2131.997,157.424z"/>
		<path d="M2220.332,126.809c-1.646-0.303-2.947-0.455-3.899-0.455c-2.08,0-3.835,0.52-5.266,1.56c-1.43,1.04-2.145,3.12-2.145,6.24
			v7.54h15.47v13h-15.47v53.43h-18.98v-53.43h-7.8v-13h7.8v-8.71c0-13,6.673-19.5,20.021-19.5c2.165,0,4.68,0.26,7.54,0.78
			s5.155,1.17,6.89,1.95v11.57C2223.365,127.438,2221.978,127.114,2220.332,126.809z"/>
		<path d="M2265.18,192.394h21.58v-51.09h-21.71v-11.57c4.853-0.345,10.355-1.58,16.51-3.705c6.152-2.123,11.96-4.7,17.42-7.735
			h6.89v74.1h21.19v15.73h-61.88V192.394z"/>
	</g>
	<g>
		<path d="M2089.684,1731.908c-4.42,0-8.018-1.083-10.79-3.25c-2.775-2.165-4.16-5.806-4.16-10.92c0-7.453-0.976-13.26-2.925-17.42
			c-1.95-4.16-5.612-6.24-10.985-6.24h-15.08v36.92h-19.76v-89.18h39.91c8.492,0,15.62,1.734,21.385,5.2
			c5.763,3.467,8.645,9.1,8.645,16.899c0,3.12-0.694,6.197-2.079,9.23c-1.388,3.034-3.315,5.635-5.785,7.8
			c-2.471,2.167-5.18,3.51-8.125,4.03v0.649c3.812,1.215,7.149,3.815,10.01,7.801c2.86,3.987,4.29,9.317,4.29,15.989
			c0,9.535,2.21,14.995,6.63,16.38v4.421C2098.003,1731.344,2094.276,1731.908,2089.684,1731.908z M2072.588,1675.488
			c2.036-1.905,3.056-4.203,3.056-6.89v-0.91c0-2.86-0.976-5.221-2.925-7.085c-1.95-1.863-4.442-2.795-7.476-2.795h-19.5v20.54h19.5
			C2068.104,1678.349,2070.551,1677.396,2072.588,1675.488z"/>
		<path d="M2169.112,1720.793c-2.774,3.945-6.435,6.848-10.984,8.71c-4.551,1.863-9.513,2.795-14.886,2.795h-2.08
			c-6.154,0-11.699-1.3-16.64-3.899c-4.94-2.601-8.819-6.348-11.635-11.245c-2.817-4.896-4.226-10.725-4.226-17.485v-3.77
			c0-6.673,1.431-12.48,4.29-17.42c2.86-4.94,6.738-8.71,11.636-11.311c4.895-2.6,10.42-3.899,16.574-3.899h2.08
			c5.373,0,10.355,1.104,14.95,3.314c4.593,2.21,8.275,5.418,11.05,9.62c2.773,4.205,4.16,9.165,4.16,14.885v9.881h-45.5v3.119
			c0,4.335,1.277,7.953,3.835,10.855c2.556,2.904,6.045,4.354,10.465,4.354c3.985,0,7.128-1.104,9.426-3.314
			c2.295-2.21,3.444-5.48,3.444-9.815h18.2C2173.272,1711.976,2171.885,1716.851,2169.112,1720.793z M2131.997,1680.298
			c-2.384,2.688-3.749,6.11-4.095,10.271h26.26c0-4.42-1.02-7.908-3.055-10.465c-2.037-2.556-5.31-3.835-9.814-3.835
			C2137.478,1676.269,2134.38,1677.613,2131.997,1680.298z"/>
		<path d="M2220.332,1649.684c-1.646-0.303-2.947-0.455-3.899-0.455c-2.08,0-3.835,0.52-5.266,1.56
			c-1.43,1.04-2.145,3.12-2.145,6.24v7.54h15.47v13h-15.47v53.43h-18.98v-53.43h-7.8v-13h7.8v-8.71c0-13,6.673-19.5,20.021-19.5
			c2.165,0,4.68,0.26,7.54,0.78c2.86,0.52,5.155,1.17,6.89,1.949v11.57C2223.365,1650.312,2221.978,1649.988,2220.332,1649.684z"/>
		<path d="M2265.244,1713.514c1.95-3.336,4.701-6.391,8.256-9.165l25.35-19.891c3.293-2.513,5.567-5.09,6.825-7.734
			c1.255-2.643,1.885-5.396,1.885-8.255c0-3.206-1.04-6.001-3.12-8.386c-2.08-2.383-5.2-3.575-9.36-3.575
			c-3.38,0-6.175,0.76-8.385,2.275c-2.21,1.518-3.835,3.315-4.875,5.396c-1.04,2.079-1.56,3.899-1.56,5.46
			c0,1.56,0.042,2.729,0.13,3.51h-17.811c-0.087-0.692-0.13-1.516-0.13-2.47c0-4.681,1.04-9.296,3.12-13.846
			s5.633-8.405,10.66-11.569c5.025-3.163,11.612-4.745,19.76-4.745h1.95c6.24,0,11.591,1.3,16.055,3.899
			c4.463,2.601,7.82,6.003,10.075,10.205c2.253,4.205,3.38,8.689,3.38,13.455c0,5.115-0.975,9.643-2.925,13.585
			c-1.95,3.945-5.31,7.91-10.075,11.896c-5.46,4.595-12.047,9.794-19.76,15.6c-0.867,0.694-1.95,1.647-3.25,2.86
			c-1.3,1.215-1.95,1.994-1.95,2.34h38.221v16.64h-65.391v-3.899C2262.319,1721.378,2263.295,1716.851,2265.244,1713.514z"/>
	</g>
	<g>
		<path style="fill:#FFFFFF;" d="M2041.459,482.852c-2.352,0-4.602-0.387-6.751-1.161c-2.15-0.774-3.913-2.064-5.289-3.87
			c-1.376-1.806-2.064-4.257-2.064-7.353c0-3.152,0.701-5.704,2.107-7.654c1.404-1.948,3.382-3.453,5.934-4.515
			c2.551-1.061,5.618-1.792,9.202-2.193c3.582-0.4,7.611-0.602,12.083-0.602v-3.87c0-2.522-0.688-4.313-2.064-5.375
			c-1.376-1.061-3.383-1.591-6.02-1.591c-2.236,0-4.2,0.503-5.891,1.505c-1.692,1.003-2.537,2.537-2.537,4.601v0.688h-11.267
			c-0.058-0.172-0.086-0.416-0.086-0.731c0-0.314,0-0.587,0-0.817c0-2.522,0.803-4.743,2.408-6.665
			c1.604-1.92,3.841-3.41,6.708-4.472c2.866-1.061,6.192-1.591,9.976-1.591h1.807c6.191,0,10.807,1.219,13.846,3.655
			c3.039,2.438,4.559,5.719,4.559,9.847v21.414c0,1.09,0.271,1.864,0.816,2.322c0.545,0.459,1.132,0.688,1.764,0.688
			c0.516,0,1.088-0.1,1.72-0.301c0.63-0.2,1.232-0.443,1.806-0.731v6.88c-0.745,0.574-1.734,1.032-2.967,1.376
			c-1.233,0.344-2.709,0.516-4.429,0.516c-2.064,0-3.784-0.331-5.16-0.989c-1.376-0.659-2.423-1.562-3.14-2.709
			c-0.717-1.146-1.16-2.464-1.333-3.956c-1.605,2.294-3.728,4.143-6.363,5.547C2048.195,482.149,2045.07,482.852,2041.459,482.852z
			 M2046.963,475.112c1.604,0,3.139-0.373,4.601-1.118c1.462-0.745,2.68-1.849,3.655-3.311c0.975-1.462,1.462-3.281,1.462-5.461
			v-3.526c-3.67,0-6.78,0.229-9.331,0.688c-2.552,0.459-4.486,1.219-5.805,2.279c-1.319,1.062-1.979,2.595-1.979,4.601
			c0,2.122,0.646,3.627,1.936,4.515C2042.792,474.668,2044.611,475.112,2046.963,475.112z"/>
		<path style="fill:#FFFFFF;" d="M2097.014,482.852c-2.466,0-4.673-0.344-6.622-1.032s-3.469-1.849-4.558-3.483
			c-1.09-1.634-1.634-3.798-1.634-6.493v-25.026h-4.816v-8.772h5.16l4.128-14.018h7.225v14.018h10.319v8.772h-10.319v22.446
			c0,2.523,0.516,4.128,1.548,4.816s2.149,1.032,3.354,1.032c0.631,0,1.505-0.129,2.623-0.387c1.118-0.258,2.021-0.529,2.709-0.817
			v7.224c-0.745,0.402-1.663,0.731-2.752,0.989c-1.09,0.258-2.192,0.443-3.311,0.559
			C2098.949,482.794,2097.931,482.852,2097.014,482.852z"/>
		<path style="fill:#FFFFFF;" d="M2134.596,482.852c-4.015,0-7.611-0.903-10.793-2.709c-3.183-1.806-5.677-4.371-7.482-7.697
			c-1.806-3.325-2.709-7.224-2.709-11.696v-1.548c0-4.528,0.903-8.428,2.709-11.696s4.285-5.805,7.438-7.611
			c3.153-1.806,6.736-2.709,10.75-2.709h1.721c4.07,0,7.682,0.903,10.836,2.709c3.152,1.806,5.633,4.343,7.438,7.611
			c1.807,3.268,2.709,7.167,2.709,11.696v1.548c0,4.53-0.902,8.443-2.709,11.739c-1.806,3.297-4.286,5.848-7.438,7.654
			c-3.154,1.806-6.737,2.709-10.75,2.709H2134.596z M2135.369,475.112c1.776,0,3.367-0.416,4.773-1.247
			c1.404-0.831,2.521-2.078,3.354-3.741c0.831-1.662,1.247-3.64,1.247-5.934v-8.428c0-2.35-0.416-4.328-1.247-5.934
			c-0.832-1.604-1.949-2.838-3.354-3.698c-1.406-0.86-2.997-1.29-4.773-1.29c-1.72,0-3.298,0.43-4.729,1.29
			c-1.435,0.86-2.567,2.093-3.397,3.698c-0.832,1.606-1.247,3.584-1.247,5.934v8.428c0,2.293,0.415,4.271,1.247,5.934
			c0.83,1.664,1.963,2.911,3.397,3.741C2132.071,474.696,2133.649,475.112,2135.369,475.112z"/>
		<path style="fill:#FFFFFF;" d="M2166.93,481.992v-43.946h8.772l1.548,6.45c1.49-2.292,3.253-4.085,5.289-5.375
			c2.034-1.29,4.515-1.935,7.439-1.935c2.866,0,5.388,0.546,7.567,1.634c2.179,1.09,3.898,2.896,5.16,5.418
			c1.376-2.292,3.152-4.042,5.332-5.246c2.178-1.204,4.758-1.806,7.74-1.806c2.809,0,5.289,0.574,7.438,1.72
			c2.15,1.147,3.827,2.782,5.031,4.902c1.204,2.122,1.806,4.702,1.806,7.74v30.444h-11.609v-27.778c0-2.866-0.603-4.958-1.807-6.278
			c-1.204-1.318-2.867-1.978-4.987-1.978c-1.376,0-2.623,0.359-3.741,1.075c-1.118,0.718-1.993,1.72-2.623,3.01
			c-0.632,1.29-0.946,2.767-0.946,4.429v27.52h-11.609v-27.778c0-2.866-0.603-4.958-1.807-6.278
			c-1.204-1.318-2.896-1.978-5.074-1.978c-1.376,0-2.609,0.359-3.697,1.075c-1.09,0.718-1.95,1.72-2.58,3.01
			c-0.632,1.29-0.946,2.767-0.946,4.429v27.52H2166.93z"/>
		<path style="fill:#FFFFFF;" d="M2242.094,429.188v-9.116h12.126v9.116H2242.094z M2242.266,481.992v-43.946h11.781v43.946
			H2242.266z"/>
		<path style="fill:#FFFFFF;" d="M2284.061,482.852c-3.728,0-7.096-0.917-10.105-2.752c-3.01-1.834-5.375-4.371-7.095-7.611
			c-1.72-3.238-2.58-6.951-2.58-11.137v-2.666c0-3.152,0.529-6.033,1.591-8.643c1.061-2.608,2.508-4.887,4.343-6.837
			c1.835-1.948,3.984-3.44,6.45-4.472c2.465-1.032,5.103-1.548,7.912-1.548h1.634c3.841,0,7.182,0.761,10.02,2.279
			c2.838,1.52,5.016,3.642,6.536,6.364c1.518,2.724,2.278,5.92,2.278,9.589h-10.233c0-2.35-0.359-4.3-1.075-5.848
			c-0.718-1.548-1.735-2.723-3.053-3.526c-1.32-0.802-2.896-1.204-4.73-1.204c-2.638,0-4.846,0.903-6.622,2.709
			c-1.777,1.806-2.666,4.458-2.666,7.955v8.858c0,3.44,0.846,6.092,2.537,7.955c1.69,1.864,3.97,2.795,6.837,2.795
			c2.007,0,3.698-0.344,5.074-1.032s2.421-1.806,3.139-3.354c0.717-1.548,1.075-3.612,1.075-6.192h9.718
			c0,3.899-0.831,7.21-2.494,9.933c-1.663,2.724-3.956,4.802-6.88,6.235s-6.249,2.15-9.976,2.15H2284.061z"/>
		<path style="fill:#FFFFFF;" d="M1896.164,578.852c-2.752,0-5.246-0.344-7.481-1.032c-2.236-0.688-4.171-1.619-5.806-2.795
			c-1.634-1.175-2.881-2.551-3.74-4.128c-0.86-1.576-1.29-3.281-1.29-5.117c0-0.344,0-0.63,0-0.86c0-0.229,0.028-0.544,0.086-0.946
			h9.976c-0.058,0.172-0.086,0.331-0.086,0.473c0,0.144,0,0.272,0,0.387c0,1.434,0.486,2.623,1.462,3.569
			c0.975,0.946,2.236,1.634,3.784,2.064c1.548,0.43,3.21,0.645,4.988,0.645c1.433,0,2.881-0.172,4.343-0.516s2.68-0.903,3.655-1.677
			c0.974-0.774,1.462-1.763,1.462-2.967c0-1.318-0.503-2.335-1.505-3.053c-1.004-0.716-2.352-1.29-4.042-1.72
			c-1.692-0.43-3.541-0.802-5.547-1.118c-2.008-0.314-4.029-0.716-6.063-1.204c-2.036-0.487-3.899-1.189-5.59-2.107
			c-1.692-0.916-3.04-2.163-4.042-3.741c-1.004-1.576-1.505-3.655-1.505-6.235c0-2.178,0.501-4.128,1.505-5.848
			c1.002-1.72,2.378-3.152,4.128-4.3c1.748-1.146,3.754-2.006,6.02-2.58c2.265-0.573,4.63-0.86,7.096-0.86h1.72
			c2.292,0,4.485,0.288,6.579,0.86c2.092,0.574,3.97,1.391,5.633,2.451c1.662,1.062,2.967,2.322,3.913,3.784
			s1.419,3.053,1.419,4.773c0,0.288-0.015,0.617-0.043,0.989c-0.029,0.374-0.072,0.617-0.129,0.731h-9.977v-0.688
			c0-0.63-0.158-1.247-0.473-1.849c-0.315-0.602-0.832-1.161-1.548-1.677c-0.718-0.516-1.634-0.931-2.752-1.247
			c-1.118-0.314-2.451-0.473-3.999-0.473c-1.376,0-2.609,0.129-3.698,0.387c-1.09,0.258-2.008,0.602-2.752,1.032
			c-0.746,0.43-1.29,0.933-1.634,1.505c-0.344,0.574-0.516,1.147-0.516,1.72c0,1.204,0.516,2.136,1.548,2.795
			c1.031,0.66,2.393,1.176,4.085,1.548c1.69,0.374,3.554,0.718,5.59,1.032c2.034,0.315,4.056,0.703,6.062,1.161
			c2.007,0.46,3.87,1.161,5.591,2.107c1.72,0.946,3.081,2.223,4.085,3.827c1.002,1.606,1.505,3.698,1.505,6.278
			c0,2.695-0.517,4.988-1.548,6.88c-1.032,1.892-2.466,3.397-4.301,4.515c-1.835,1.118-3.899,1.935-6.191,2.451
			c-2.294,0.516-4.702,0.774-7.225,0.774H1896.164z"/>
		<path style="fill:#FFFFFF;" d="M1936.67,577.992l-13.588-43.946h12.212l8.084,27.95h0.431l8.256-27.95h12.126l8.256,27.95h0.516
			l8.084-27.95h11.353l-13.674,43.946h-12.729l-7.998-26.66h-0.516l-7.912,26.66H1936.67z"/>
		<path style="fill:#FFFFFF;" d="M2011.146,578.852c-2.352,0-4.602-0.387-6.751-1.161c-2.15-0.774-3.913-2.064-5.289-3.87
			c-1.376-1.806-2.064-4.257-2.064-7.353c0-3.152,0.701-5.704,2.107-7.654c1.404-1.948,3.382-3.453,5.934-4.515
			c2.551-1.061,5.618-1.792,9.202-2.193c3.582-0.4,7.611-0.602,12.083-0.602v-3.87c0-2.522-0.688-4.313-2.064-5.375
			c-1.376-1.061-3.383-1.591-6.02-1.591c-2.236,0-4.2,0.503-5.891,1.505c-1.692,1.003-2.537,2.537-2.537,4.601v0.688h-11.267
			c-0.058-0.172-0.086-0.416-0.086-0.731c0-0.314,0-0.587,0-0.817c0-2.522,0.803-4.743,2.408-6.665
			c1.604-1.92,3.841-3.41,6.708-4.472c2.866-1.061,6.192-1.591,9.976-1.591h1.807c6.191,0,10.807,1.219,13.846,3.655
			c3.038,2.438,4.559,5.719,4.559,9.847v21.414c0,1.09,0.271,1.864,0.816,2.322c0.544,0.459,1.132,0.688,1.763,0.688
			c0.517,0,1.089-0.1,1.721-0.301c0.63-0.2,1.232-0.443,1.806-0.731v6.88c-0.746,0.574-1.734,1.032-2.967,1.376
			c-1.233,0.344-2.709,0.516-4.429,0.516c-2.064,0-3.784-0.331-5.16-0.989c-1.376-0.659-2.423-1.562-3.14-2.709
			c-0.717-1.146-1.16-2.464-1.333-3.956c-1.605,2.294-3.728,4.143-6.363,5.547C2017.882,578.149,2014.757,578.852,2011.146,578.852z
			 M2016.649,571.112c1.604,0,3.139-0.373,4.601-1.118c1.462-0.745,2.68-1.849,3.655-3.311c0.975-1.462,1.462-3.281,1.462-5.461
			v-3.526c-3.67,0-6.78,0.229-9.331,0.688c-2.552,0.459-4.486,1.219-5.805,2.279c-1.319,1.062-1.979,2.595-1.979,4.601
			c0,2.122,0.646,3.627,1.936,4.515C2012.479,570.668,2014.298,571.112,2016.649,571.112z"/>
		<path style="fill:#FFFFFF;" d="M2051.822,593.558v-59.512h9.202l1.289,5.676c1.318-1.892,3.082-3.454,5.289-4.687
			c2.207-1.232,4.801-1.849,7.783-1.849c3.383,0,6.436,0.731,9.16,2.193c2.721,1.462,4.871,3.798,6.449,7.009
			c1.576,3.211,2.365,7.426,2.365,12.642v1.806c0,4.816-0.773,8.873-2.322,12.169c-1.549,3.297-3.641,5.762-6.277,7.396
			c-2.639,1.634-5.535,2.451-8.688,2.451c-3.039,0-5.59-0.574-7.652-1.72c-2.064-1.146-3.643-2.608-4.73-4.386v20.812H2051.822z
			 M2072.376,571.026c1.662,0,3.139-0.43,4.43-1.29c1.289-0.86,2.307-2.092,3.053-3.698c0.744-1.604,1.117-3.583,1.117-5.934v-7.654
			c0-2.636-0.373-4.801-1.117-6.493c-0.746-1.69-1.764-2.952-3.053-3.784c-1.291-0.831-2.768-1.247-4.43-1.247
			c-1.549,0-2.996,0.402-4.344,1.204c-1.348,0.803-2.422,2.036-3.225,3.698c-0.803,1.664-1.203,3.842-1.203,6.536v7.74
			c0,2.352,0.387,4.343,1.16,5.977c0.773,1.634,1.834,2.868,3.182,3.698C2069.294,570.61,2070.771,571.026,2072.376,571.026z"/>
		<path style="fill:#FFFFFF;" d="M2139.455,578.852c-3.728,0-7.096-0.917-10.105-2.752c-3.01-1.834-5.375-4.371-7.095-7.611
			c-1.72-3.238-2.58-6.951-2.58-11.137v-2.666c0-3.152,0.529-6.033,1.591-8.643c1.061-2.608,2.508-4.887,4.343-6.837
			c1.835-1.948,3.984-3.44,6.45-4.472c2.465-1.032,5.103-1.548,7.912-1.548h1.634c3.841,0,7.182,0.761,10.02,2.279
			c2.838,1.52,5.016,3.642,6.536,6.364c1.518,2.724,2.278,5.92,2.278,9.589h-10.233c0-2.35-0.359-4.3-1.075-5.848
			c-0.718-1.548-1.735-2.723-3.053-3.526c-1.32-0.802-2.896-1.204-4.73-1.204c-2.638,0-4.846,0.903-6.622,2.709
			c-1.777,1.806-2.666,4.458-2.666,7.955v8.858c0,3.44,0.846,6.092,2.537,7.955c1.69,1.864,3.97,2.795,6.837,2.795
			c2.007,0,3.698-0.344,5.074-1.032s2.421-1.806,3.139-3.354c0.717-1.548,1.075-3.612,1.075-6.192h9.718
			c0,3.899-0.831,7.21-2.494,9.933c-1.663,2.724-3.956,4.802-6.88,6.235s-6.249,2.15-9.976,2.15H2139.455z"/>
		<path style="fill:#FFFFFF;" d="M2188.819,578.852c-4.015,0-7.611-0.903-10.793-2.709c-3.183-1.806-5.677-4.371-7.482-7.697
			c-1.806-3.325-2.709-7.224-2.709-11.696v-1.548c0-4.528,0.903-8.428,2.709-11.696s4.285-5.805,7.438-7.611
			c3.153-1.806,6.736-2.709,10.75-2.709h1.721c4.07,0,7.682,0.903,10.836,2.709c3.152,1.806,5.633,4.343,7.438,7.611
			c1.807,3.268,2.709,7.167,2.709,11.696v1.548c0,4.53-0.902,8.443-2.709,11.739c-1.806,3.297-4.286,5.848-7.438,7.654
			c-3.154,1.806-6.737,2.709-10.75,2.709H2188.819z M2189.593,571.112c1.776,0,3.367-0.416,4.773-1.247
			c1.404-0.831,2.521-2.078,3.354-3.741c0.831-1.662,1.247-3.64,1.247-5.934v-8.428c0-2.35-0.416-4.328-1.247-5.934
			c-0.832-1.604-1.949-2.838-3.354-3.698c-1.406-0.86-2.997-1.29-4.773-1.29c-1.72,0-3.298,0.43-4.729,1.29
			c-1.435,0.86-2.567,2.093-3.397,3.698c-0.832,1.606-1.247,3.584-1.247,5.934v8.428c0,2.293,0.415,4.271,1.247,5.934
			c0.83,1.664,1.963,2.911,3.397,3.741C2186.295,570.696,2187.873,571.112,2189.593,571.112z"/>
		<path style="fill:#FFFFFF;" d="M2221.153,577.992v-43.946h8.687l1.376,6.45c1.72-2.464,3.797-4.3,6.234-5.504
			c2.437-1.204,5.203-1.806,8.3-1.806c2.98,0,5.604,0.574,7.869,1.72c2.264,1.147,4.012,2.782,5.245,4.902
			c1.232,2.122,1.85,4.702,1.85,7.74v30.444h-11.696v-27.95c0-2.808-0.688-4.872-2.063-6.192c-1.376-1.318-3.24-1.978-5.591-1.978
			c-1.491,0-2.896,0.387-4.214,1.161c-1.319,0.774-2.352,1.821-3.096,3.139c-0.746,1.319-1.118,2.81-1.118,4.472v27.348H2221.153z"
			/>
		<path style="fill:#FFFFFF;" d="M2287.2,578.852c-2.466,0-4.673-0.344-6.622-1.032s-3.469-1.849-4.558-3.483
			c-1.09-1.634-1.634-3.798-1.634-6.493v-25.026h-4.816v-8.772h5.16l4.128-14.018h7.225v14.018h10.319v8.772h-10.319v22.446
			c0,2.523,0.516,4.128,1.548,4.816s2.149,1.032,3.354,1.032c0.631,0,1.505-0.129,2.623-0.387c1.118-0.258,2.021-0.529,2.709-0.817
			v7.224c-0.745,0.402-1.663,0.731-2.752,0.989c-1.09,0.258-2.192,0.443-3.311,0.559
			C2289.136,578.794,2288.117,578.852,2287.2,578.852z"/>
		<path style="fill:#FFFFFF;" d="M2305.689,577.992v-43.946h8.772l1.462,6.45c0.114-0.229,0.415-0.716,0.903-1.462
			c0.486-0.745,1.217-1.576,2.192-2.494c0.975-0.917,2.193-1.705,3.655-2.365c1.462-0.659,3.225-0.989,5.289-0.989
			c2.98,0,5.403,0.574,7.267,1.72c1.862,1.147,3.254,2.752,4.171,4.816s1.376,4.472,1.376,7.224c0,0.631-0.029,1.319-0.086,2.064
			c-0.058,0.746-0.115,1.405-0.172,1.978h-9.804v-1.806c0-1.088-0.215-2.193-0.646-3.311c-0.43-1.118-1.117-2.049-2.063-2.795
			c-0.946-0.745-2.251-1.118-3.913-1.118c-1.204,0-2.236,0.258-3.096,0.774c-0.86,0.516-1.563,1.161-2.107,1.935
			c-0.545,0.774-0.946,1.634-1.204,2.58c-0.258,0.946-0.387,1.821-0.387,2.623v28.122H2305.689z"/>
		<path style="fill:#FFFFFF;" d="M2359.955,578.852c-2.352,0-4.601-0.387-6.751-1.161c-2.15-0.774-3.913-2.064-5.289-3.87
			c-1.376-1.806-2.064-4.257-2.064-7.353c0-3.152,0.702-5.704,2.107-7.654c1.404-1.948,3.382-3.453,5.934-4.515
			c2.551-1.061,5.618-1.792,9.202-2.193c3.583-0.4,7.611-0.602,12.083-0.602v-3.87c0-2.522-0.688-4.313-2.063-5.375
			c-1.376-1.061-3.384-1.591-6.021-1.591c-2.235,0-4.2,0.503-5.891,1.505c-1.692,1.003-2.537,2.537-2.537,4.601v0.688h-11.266
			c-0.059-0.172-0.086-0.416-0.086-0.731c0-0.314,0-0.587,0-0.817c0-2.522,0.802-4.743,2.407-6.665
			c1.604-1.92,3.841-3.41,6.708-4.472c2.866-1.061,6.192-1.591,9.977-1.591h1.806c6.192,0,10.807,1.219,13.846,3.655
			c3.039,2.438,4.559,5.719,4.559,9.847v21.414c0,1.09,0.271,1.864,0.816,2.322c0.545,0.459,1.132,0.688,1.764,0.688
			c0.516,0,1.088-0.1,1.72-0.301c0.63-0.2,1.232-0.443,1.806-0.731v6.88c-0.745,0.574-1.734,1.032-2.967,1.376
			c-1.233,0.344-2.709,0.516-4.429,0.516c-2.064,0-3.784-0.331-5.16-0.989c-1.376-0.659-2.423-1.562-3.139-2.709
			c-0.718-1.146-1.161-2.464-1.333-3.956c-1.606,2.294-3.728,4.143-6.364,5.547C2366.691,578.149,2363.567,578.852,2359.955,578.852
			z M2365.459,571.112c1.604,0,3.139-0.373,4.601-1.118c1.463-0.745,2.68-1.849,3.655-3.311c0.975-1.462,1.462-3.281,1.462-5.461
			v-3.526c-3.67,0-6.78,0.229-9.331,0.688c-2.552,0.459-4.486,1.219-5.805,2.279c-1.319,1.062-1.978,2.595-1.978,4.601
			c0,2.122,0.645,3.627,1.935,4.515C2361.288,570.668,2363.107,571.112,2365.459,571.112z"/>
		<path style="fill:#FFFFFF;" d="M2418.606,578.852c-3.728,0-7.096-0.917-10.105-2.752c-3.01-1.834-5.375-4.371-7.095-7.611
			c-1.72-3.238-2.58-6.951-2.58-11.137v-2.666c0-3.152,0.529-6.033,1.591-8.643c1.061-2.608,2.508-4.887,4.343-6.837
			c1.835-1.948,3.984-3.44,6.45-4.472c2.465-1.032,5.103-1.548,7.912-1.548h1.634c3.841,0,7.182,0.761,10.02,2.279
			c2.838,1.52,5.016,3.642,6.536,6.364c1.518,2.724,2.278,5.92,2.278,9.589h-10.233c0-2.35-0.359-4.3-1.075-5.848
			c-0.718-1.548-1.735-2.723-3.053-3.526c-1.32-0.802-2.896-1.204-4.73-1.204c-2.638,0-4.846,0.903-6.622,2.709
			c-1.777,1.806-2.666,4.458-2.666,7.955v8.858c0,3.44,0.846,6.092,2.537,7.955c1.69,1.864,3.97,2.795,6.837,2.795
			c2.007,0,3.698-0.344,5.074-1.032s2.421-1.806,3.139-3.354c0.717-1.548,1.075-3.612,1.075-6.192h9.718
			c0,3.899-0.831,7.21-2.494,9.933c-1.663,2.724-3.956,4.802-6.88,6.235s-6.249,2.15-9.976,2.15H2418.606z"/>
		<path style="fill:#FFFFFF;" d="M2463.755,578.852c-2.466,0-4.673-0.344-6.622-1.032s-3.469-1.849-4.558-3.483
			c-1.09-1.634-1.634-3.798-1.634-6.493v-25.026h-4.816v-8.772h5.16l4.128-14.018h7.225v14.018h10.319v8.772h-10.319v22.446
			c0,2.523,0.516,4.128,1.548,4.816s2.149,1.032,3.354,1.032c0.631,0,1.505-0.129,2.623-0.387c1.118-0.258,2.021-0.529,2.709-0.817
			v7.224c-0.745,0.402-1.663,0.731-2.752,0.989c-1.09,0.258-2.192,0.443-3.311,0.559
			C2465.69,578.794,2464.672,578.852,2463.755,578.852z"/>
		<path style="fill:#FFFFFF;" d="M2005.854,673.992v-9.46h14.62v-36.464h-14.62v-6.966c2.12-0.172,4.457-0.572,7.009-1.204
			c2.551-0.63,5.146-1.462,7.783-2.494c2.637-1.032,5.103-2.121,7.396-3.268h4.214v50.396h14.361v9.46H2005.854z"/>
		<path style="fill:#FFFFFF;" d="M2076.804,674.852c-3.785,0-7.225-0.888-10.32-2.666c-3.096-1.776-5.547-4.214-7.354-7.31
			c-1.806-3.096-2.709-6.592-2.709-10.492v-19.78c0-3.956,0.903-7.467,2.709-10.535c1.807-3.066,4.258-5.489,7.354-7.267
			c3.096-1.776,6.535-2.666,10.32-2.666h2.494c3.84,0,7.295,0.89,10.361,2.666c3.066,1.778,5.49,4.201,7.268,7.267
			c1.777,3.068,2.666,6.579,2.666,10.535v19.78c0,3.899-0.889,7.396-2.666,10.492c-1.777,3.096-4.201,5.534-7.268,7.31
			c-3.066,1.778-6.521,2.666-10.361,2.666H2076.804z M2078.007,665.822c1.893,0,3.568-0.443,5.031-1.333
			c1.461-0.888,2.607-2.078,3.439-3.569c0.83-1.49,1.248-3.182,1.248-5.074v-22.79c0-1.892-0.418-3.583-1.248-5.074
			c-0.832-1.49-1.979-2.68-3.439-3.569c-1.463-0.888-3.139-1.333-5.031-1.333c-1.836,0-3.482,0.445-4.945,1.333
			c-1.461,0.89-2.623,2.079-3.482,3.569c-0.859,1.491-1.291,3.182-1.291,5.074v22.79c0,1.892,0.432,3.584,1.291,5.074
			c0.859,1.491,2.021,2.681,3.482,3.569C2074.524,665.378,2076.171,665.822,2078.007,665.822z"/>
		<path style="fill:#FFFFFF;" d="M2129.692,674.852c-3.784,0-7.225-0.888-10.32-2.666c-3.096-1.776-5.547-4.214-7.353-7.31
			c-1.807-3.096-2.709-6.592-2.709-10.492v-19.78c0-3.956,0.902-7.467,2.709-10.535c1.806-3.066,4.257-5.489,7.353-7.267
			c3.096-1.776,6.536-2.666,10.32-2.666h2.494c3.84,0,7.295,0.89,10.362,2.666c3.066,1.778,5.489,4.201,7.268,7.267
			c1.776,3.068,2.666,6.579,2.666,10.535v19.78c0,3.899-0.89,7.396-2.666,10.492c-1.778,3.096-4.201,5.534-7.268,7.31
			c-3.067,1.778-6.522,2.666-10.362,2.666H2129.692z M2130.896,665.822c1.892,0,3.568-0.443,5.03-1.333
			c1.462-0.888,2.608-2.078,3.44-3.569c0.83-1.49,1.247-3.182,1.247-5.074v-22.79c0-1.892-0.417-3.583-1.247-5.074
			c-0.832-1.49-1.979-2.68-3.44-3.569c-1.462-0.888-3.139-1.333-5.03-1.333c-1.836,0-3.483,0.445-4.945,1.333
			c-1.462,0.89-2.623,2.079-3.483,3.569c-0.859,1.491-1.29,3.182-1.29,5.074v22.79c0,1.892,0.431,3.584,1.29,5.074
			c0.86,1.491,2.021,2.681,3.483,3.569C2127.413,665.378,2129.061,665.822,2130.896,665.822z"/>
		<path style="fill:#FFFFFF;" d="M2176.13,673.992l21.672-58.996h14.965l21.586,58.996h-13.072l-4.559-12.212h-23.907l-4.559,12.212
			H2176.13z M2195.91,652.75h17.63l-8.6-24.51h-0.345L2195.91,652.75z"/>
		<path style="fill:#FFFFFF;" d="M2241.146,673.992v-58.996h23.392c3.383,0,6.564,0.531,9.547,1.591
			c2.979,1.062,5.603,2.666,7.868,4.816c2.265,2.15,4.027,4.845,5.289,8.084c1.261,3.24,1.893,7.067,1.893,11.481v5.504
			c0,4.358-0.632,8.243-1.893,11.653c-1.262,3.412-3.024,6.293-5.289,8.643c-2.266,2.352-4.889,4.143-7.868,5.375
			c-2.982,1.234-6.164,1.849-9.547,1.849H2241.146z M2253.702,664.36h9.805c2.35,0,4.457-0.53,6.32-1.591
			c1.862-1.06,3.34-2.709,4.43-4.945c1.088-2.236,1.634-5.13,1.634-8.686v-10.234c0-3.497-0.546-6.292-1.634-8.385
			c-1.09-2.092-2.567-3.612-4.43-4.558c-1.863-0.946-3.971-1.419-6.32-1.419h-9.805V664.36z"/>
		<path style="fill:#FFFFFF;" d="M2293.692,673.992l21.672-58.996h14.965l21.586,58.996h-13.072l-4.559-12.212h-23.907
			l-4.559,12.212H2293.692z M2313.473,652.75h17.63l-8.6-24.51h-0.345L2313.473,652.75z"/>
		<path style="fill:#FFFFFF;" d="M1881.803,832.473v-59.512h9.201l1.29,5.676c1.318-1.892,3.082-3.454,5.289-4.687
			c2.207-1.232,4.802-1.849,7.783-1.849c3.382,0,6.436,0.731,9.159,2.193c2.723,1.462,4.872,3.798,6.45,7.009
			c1.576,3.211,2.364,7.426,2.364,12.642v1.806c0,4.816-0.773,8.873-2.321,12.169c-1.548,3.297-3.642,5.762-6.278,7.396
			c-2.638,1.634-5.533,2.451-8.686,2.451c-3.04,0-5.591-0.574-7.654-1.72c-2.064-1.146-3.642-2.608-4.73-4.386v20.812H1881.803z
			 M1902.356,809.941c1.662,0,3.139-0.43,4.429-1.29c1.29-0.86,2.308-2.092,3.053-3.698c0.745-1.604,1.118-3.583,1.118-5.934v-7.654
			c0-2.636-0.373-4.801-1.118-6.493c-0.745-1.69-1.763-2.952-3.053-3.784c-1.29-0.831-2.767-1.247-4.429-1.247
			c-1.548,0-2.997,0.402-4.343,1.204c-1.349,0.803-2.423,2.036-3.226,3.698c-0.804,1.664-1.204,3.842-1.204,6.536v7.74
			c0,2.352,0.388,4.343,1.161,5.977c0.774,1.634,1.834,2.868,3.183,3.698C1899.273,809.525,1900.751,809.941,1902.356,809.941z"/>
		<path style="fill:#FFFFFF;" d="M1933.144,816.907v-43.946h8.772l1.462,6.45c0.114-0.229,0.415-0.716,0.902-1.462
			c0.487-0.745,1.218-1.576,2.193-2.494c0.975-0.917,2.193-1.705,3.655-2.365c1.462-0.659,3.225-0.989,5.289-0.989
			c2.98,0,5.403,0.574,7.267,1.72c1.862,1.147,3.253,2.752,4.171,4.816c0.917,2.064,1.376,4.472,1.376,7.224
			c0,0.631-0.029,1.319-0.086,2.064c-0.058,0.746-0.115,1.405-0.172,1.978h-9.804v-1.806c0-1.088-0.215-2.193-0.646-3.311
			c-0.43-1.118-1.118-2.049-2.063-2.795c-0.946-0.745-2.251-1.118-3.913-1.118c-1.204,0-2.236,0.258-3.097,0.774
			c-0.859,0.516-1.562,1.161-2.106,1.935c-0.546,0.774-0.946,1.634-1.204,2.58c-0.258,0.946-0.387,1.821-0.387,2.623v28.122
			H1933.144z"/>
		<path style="fill:#FFFFFF;" d="M1976.144,764.103v-9.116h12.126v9.116H1976.144z M1976.315,816.907v-43.946h11.782v43.946
			H1976.315z"/>
		<path style="fill:#FFFFFF;" d="M2018.11,817.767c-3.728,0-7.095-0.917-10.105-2.752c-3.01-1.834-5.375-4.371-7.095-7.611
			c-1.72-3.238-2.58-6.951-2.58-11.137v-2.666c0-3.152,0.529-6.033,1.591-8.643c1.061-2.608,2.508-4.887,4.344-6.837
			c1.834-1.948,3.983-3.44,6.449-4.472c2.465-1.032,5.103-1.548,7.912-1.548h1.635c3.84,0,7.181,0.761,10.019,2.279
			c2.838,1.52,5.017,3.642,6.536,6.364c1.519,2.724,2.279,5.92,2.279,9.589h-10.234c0-2.35-0.358-4.3-1.075-5.848
			c-0.718-1.548-1.734-2.723-3.053-3.526c-1.319-0.802-2.896-1.204-4.73-1.204c-2.638,0-4.846,0.903-6.622,2.709
			c-1.777,1.806-2.666,4.458-2.666,7.955v8.858c0,3.44,0.846,6.092,2.537,7.955c1.69,1.864,3.97,2.795,6.837,2.795
			c2.007,0,3.698-0.344,5.074-1.032s2.422-1.806,3.139-3.354c0.717-1.548,1.075-3.612,1.075-6.192h9.719
			c0,3.899-0.832,7.21-2.494,9.933c-1.664,2.724-3.956,4.802-6.88,6.235c-2.925,1.433-6.25,2.15-9.977,2.15H2018.11z"/>
		<path style="fill:#FFFFFF;" d="M2067.475,817.767c-4.129,0-7.783-0.846-10.966-2.537c-3.182-1.691-5.662-4.156-7.438-7.396
			c-1.778-3.238-2.666-7.181-2.666-11.825v-2.15c0-4.644,0.931-8.585,2.795-11.825c1.862-3.238,4.414-5.704,7.653-7.396
			c3.239-1.69,6.924-2.537,11.052-2.537h1.376c3.898,0,7.295,0.789,10.19,2.365c2.895,1.578,5.131,3.784,6.708,6.622
			c1.577,2.838,2.365,6.149,2.365,9.933v5.418h-29.756c0,2.752,0.344,5.16,1.032,7.224s1.72,3.642,3.096,4.73
			c1.376,1.09,3.183,1.634,5.418,1.634c1.834,0,3.44-0.357,4.816-1.075c1.376-0.716,2.464-1.791,3.268-3.225
			c0.803-1.432,1.204-3.182,1.204-5.246h10.922c0,3.383-0.859,6.378-2.58,8.987c-1.72,2.609-4.085,4.644-7.095,6.106
			s-6.493,2.193-10.449,2.193H2067.475z M2058.874,790.419h18.146c0-3.612-0.789-6.292-2.365-8.041
			c-1.578-1.749-3.741-2.623-6.493-2.623c-2.58,0-4.745,0.903-6.493,2.709C2059.919,784.27,2058.988,786.922,2058.874,790.419z"/>
		<path style="fill:#FFFFFF;" d="M2098.777,784.657v-11.696h11.867v11.696H2098.777z M2098.777,816.907v-11.696h11.867v11.696
			H2098.777z"/>
		<path style="fill:#FFFFFF;" d="M2164.824,816.907v-14.276h-26.402v-9.202c0.803-1.376,1.777-3.167,2.925-5.375
			c1.146-2.207,2.364-4.629,3.654-7.267c1.29-2.636,2.551-5.375,3.784-8.213c1.232-2.838,2.365-5.604,3.397-8.299
			c1.032-2.694,1.862-5.103,2.494-7.224h10.836c-0.517,2.294-1.32,4.803-2.408,7.525c-1.09,2.724-2.309,5.519-3.655,8.385
			c-1.348,2.867-2.767,5.619-4.257,8.256c-1.491,2.638-2.938,5.018-4.343,7.138c-1.406,2.122-2.681,3.841-3.827,5.16h17.802v-14.276
			c0.572-0.802,1.175-1.834,1.806-3.096c0.631-1.26,1.275-2.593,1.936-3.999c0.658-1.404,1.247-2.752,1.763-4.042
			c0.517-1.29,0.889-2.393,1.118-3.311h4.902v28.724h7.826v9.116h-7.826v14.276H2164.824z"/>
		<path style="fill:#FFFFFF;" d="M2214.273,817.767c-4.416,0-8.229-0.817-11.438-2.451c-3.212-1.634-5.69-3.927-7.438-6.88
			c-1.75-2.952-2.623-6.407-2.623-10.363h10.75c0,1.95,0.43,3.698,1.29,5.246c0.859,1.548,2.077,2.767,3.654,3.655
			c1.576,0.89,3.397,1.333,5.461,1.333c2.236,0,4.128-0.473,5.677-1.419c1.548-0.946,2.736-2.236,3.568-3.87
			c0.831-1.634,1.247-3.425,1.247-5.375c0-3.096-0.976-5.633-2.924-7.611c-1.95-1.978-4.443-2.967-7.482-2.967
			c-1.949,0-3.756,0.473-5.418,1.419c-1.663,0.946-2.981,2.107-3.956,3.483l-9.632-1.376l2.494-32.68h35.088v10.492h-25.8
			l-1.118,14.018c1.261-1.146,2.895-2.164,4.902-3.053c2.006-0.888,4.386-1.333,7.138-1.333c3.612,0,6.808,0.746,9.589,2.236
			c2.78,1.492,4.959,3.655,6.536,6.493c1.576,2.838,2.365,6.293,2.365,10.363c0,3.899-0.946,7.411-2.838,10.535
			c-1.893,3.125-4.487,5.59-7.783,7.396C2222.284,816.864,2218.516,817.767,2214.273,817.767z"/>
		<path style="fill:#FFFFFF;" d="M2265.957,816.907v-58.996h23.392c3.383,0,6.564,0.531,9.547,1.591
			c2.979,1.062,5.603,2.666,7.868,4.816c2.265,2.15,4.027,4.845,5.289,8.084c1.261,3.24,1.893,7.067,1.893,11.481v5.504
			c0,4.358-0.632,8.243-1.893,11.653c-1.262,3.412-3.024,6.293-5.289,8.643c-2.266,2.352-4.889,4.143-7.868,5.375
			c-2.982,1.234-6.164,1.849-9.547,1.849H2265.957z M2278.513,807.275h9.805c2.35,0,4.457-0.53,6.32-1.591
			c1.862-1.06,3.34-2.709,4.43-4.945c1.088-2.236,1.634-5.13,1.634-8.686v-10.234c0-3.497-0.546-6.292-1.634-8.385
			c-1.09-2.092-2.567-3.612-4.43-4.558c-1.863-0.946-3.971-1.419-6.32-1.419h-9.805V807.275z"/>
		<path style="fill:#FFFFFF;" d="M2338.111,817.767c-3.44,0-6.493-0.617-9.159-1.849c-2.666-1.232-4.745-3.053-6.235-5.461
			c-1.491-2.408-2.235-5.302-2.235-8.686v-4.3h11.438v3.612c0,2.408,0.658,4.201,1.979,5.375c1.317,1.176,2.952,1.763,4.901,1.763
			c1.376,0,2.594-0.271,3.655-0.817c1.061-0.544,1.892-1.333,2.494-2.365c0.602-1.032,0.902-2.35,0.902-3.956v-43.172h12.385v42.914
			c0,3.498-0.804,6.508-2.408,9.03c-1.605,2.523-3.784,4.472-6.536,5.848s-5.905,2.064-9.46,2.064H2338.111z"/>
		<path style="fill:#FFFFFF;" d="M2371.22,816.907v-58.996h41.022l-1.377,9.632h-27.176v14.534h25.198v9.46h-25.198v15.738h27.521
			l1.376,9.632H2371.22z"/>
		<path style="fill:#FFFFFF;" d="M2422.561,816.907v-58.996h23.392c3.383,0,6.564,0.531,9.547,1.591
			c2.979,1.062,5.603,2.666,7.868,4.816c2.265,2.15,4.027,4.845,5.289,8.084c1.261,3.24,1.893,7.067,1.893,11.481v5.504
			c0,4.358-0.632,8.243-1.893,11.653c-1.262,3.412-3.024,6.293-5.289,8.643c-2.266,2.352-4.889,4.143-7.868,5.375
			c-2.982,1.234-6.164,1.849-9.547,1.849H2422.561z M2435.116,807.275h9.805c2.35,0,4.457-0.53,6.32-1.591
			c1.862-1.06,3.34-2.709,4.43-4.945c1.088-2.236,1.634-5.13,1.634-8.686v-10.234c0-3.497-0.546-6.292-1.634-8.385
			c-1.09-2.092-2.567-3.612-4.43-4.558c-1.863-0.946-3.971-1.419-6.32-1.419h-9.805V807.275z"/>
		<path style="fill:#FFFFFF;" d="M2041.675,913.767c-2.466,0-4.674-0.344-6.622-1.032c-1.95-0.688-3.47-1.849-4.559-3.483
			c-1.09-1.634-1.634-3.798-1.634-6.493v-25.026h-4.815v-8.772h5.159l4.128-14.018h7.225v14.018h10.32v8.772h-10.32v22.446
			c0,2.523,0.516,4.128,1.548,4.816s2.15,1.032,3.354,1.032c0.631,0,1.506-0.129,2.623-0.387c1.118-0.258,2.021-0.529,2.709-0.817
			v7.224c-0.745,0.402-1.663,0.731-2.752,0.989c-1.09,0.258-2.192,0.443-3.311,0.559
			C2043.609,913.709,2042.591,913.767,2041.675,913.767z"/>
		<path style="fill:#FFFFFF;" d="M2079.256,913.767c-4.015,0-7.611-0.903-10.793-2.709c-3.183-1.806-5.677-4.371-7.482-7.697
			c-1.807-3.325-2.709-7.224-2.709-11.696v-1.548c0-4.528,0.902-8.428,2.709-11.696c1.806-3.268,4.285-5.805,7.438-7.611
			c3.153-1.806,6.736-2.709,10.75-2.709h1.721c4.07,0,7.682,0.903,10.836,2.709c3.152,1.806,5.633,4.343,7.438,7.611
			c1.807,3.268,2.709,7.167,2.709,11.696v1.548c0,4.53-0.902,8.443-2.709,11.739c-1.806,3.297-4.286,5.848-7.438,7.654
			c-3.154,1.806-6.737,2.709-10.75,2.709H2079.256z M2080.029,906.027c1.776,0,3.367-0.416,4.773-1.247
			c1.404-0.831,2.521-2.078,3.354-3.741c0.831-1.662,1.247-3.64,1.247-5.934v-8.428c0-2.35-0.416-4.328-1.247-5.934
			c-0.832-1.604-1.949-2.838-3.354-3.698c-1.406-0.86-2.997-1.29-4.773-1.29c-1.72,0-3.298,0.43-4.729,1.29
			c-1.435,0.86-2.567,2.093-3.397,3.698c-0.832,1.606-1.247,3.584-1.247,5.934v8.428c0,2.293,0.415,4.271,1.247,5.934
			c0.83,1.664,1.963,2.911,3.397,3.741C2076.731,905.611,2078.31,906.027,2080.029,906.027z"/>
		<path style="fill:#FFFFFF;" d="M2124.489,912.907l21.672-58.996h14.965l21.586,58.996h-13.072l-4.559-12.212h-23.907
			l-4.559,12.212H2124.489z M2144.27,891.665h17.63l-8.6-24.51h-0.345L2144.27,891.665z"/>
		<path style="fill:#FFFFFF;" d="M2188.903,912.907v-61.92h11.782v61.92H2188.903z"/>
		<path style="fill:#FFFFFF;" d="M2213.584,860.103v-9.116h12.126v9.116H2213.584z M2213.756,912.907v-43.946h11.781v43.946
			H2213.756z"/>
		<path style="fill:#FFFFFF;" d="M2255.552,913.767c-3.728,0-7.096-0.917-10.105-2.752c-3.01-1.834-5.375-4.371-7.095-7.611
			c-1.72-3.238-2.58-6.951-2.58-11.137v-2.666c0-3.152,0.529-6.033,1.591-8.643c1.061-2.608,2.508-4.887,4.343-6.837
			c1.835-1.948,3.984-3.44,6.45-4.472c2.465-1.032,5.103-1.548,7.912-1.548h1.634c3.841,0,7.182,0.761,10.02,2.279
			c2.838,1.52,5.016,3.642,6.536,6.364c1.518,2.724,2.278,5.92,2.278,9.589h-10.233c0-2.35-0.359-4.3-1.075-5.848
			c-0.718-1.548-1.735-2.723-3.053-3.526c-1.32-0.802-2.896-1.204-4.73-1.204c-2.638,0-4.846,0.903-6.622,2.709
			c-1.777,1.806-2.666,4.458-2.666,7.955v8.858c0,3.44,0.846,6.092,2.537,7.955c1.69,1.864,3.97,2.795,6.837,2.795
			c2.007,0,3.698-0.344,5.074-1.032s2.421-1.806,3.139-3.354c0.717-1.548,1.075-3.612,1.075-6.192h9.718
			c0,3.899-0.831,7.21-2.494,9.933c-1.663,2.724-3.956,4.802-6.88,6.235s-6.249,2.15-9.976,2.15H2255.552z"/>
		<path style="fill:#FFFFFF;" d="M2304.915,913.767c-4.129,0-7.783-0.846-10.966-2.537c-3.182-1.691-5.662-4.156-7.438-7.396
			c-1.778-3.238-2.666-7.181-2.666-11.825v-2.15c0-4.644,0.931-8.585,2.795-11.825c1.862-3.238,4.414-5.704,7.654-7.396
			c3.238-1.69,6.923-2.537,11.051-2.537h1.376c3.898,0,7.295,0.789,10.19,2.365c2.895,1.578,5.131,3.784,6.708,6.622
			c1.577,2.838,2.365,6.149,2.365,9.933v5.418h-29.756c0,2.752,0.344,5.16,1.032,7.224c0.688,2.064,1.72,3.642,3.096,4.73
			c1.376,1.09,3.183,1.634,5.418,1.634c1.834,0,3.44-0.357,4.816-1.075c1.376-0.716,2.464-1.791,3.268-3.225
			c0.803-1.432,1.204-3.182,1.204-5.246h10.922c0,3.383-0.859,6.378-2.58,8.987c-1.72,2.609-4.085,4.644-7.095,6.106
			s-6.493,2.193-10.449,2.193H2304.915z M2296.314,886.419h18.146c0-3.612-0.789-6.292-2.365-8.041
			c-1.578-1.749-3.741-2.623-6.493-2.623c-2.58,0-4.745,0.903-6.493,2.709C2297.36,880.27,2296.429,882.922,2296.314,886.419z"/>
	</g>
	<g>
		<g>
			<path style="fill:#FFFFFF;stroke:#FFFFFF;stroke-width:4.6642;stroke-miterlimit:1;" d="M1865.821,945.239h-9.552
				c-16.595,0-30.097-13.432-30.097-29.941v-67.263c0-6.214-2.75-12.075-7.544-16.079l-12.922-10.786l12.922-10.788
				c4.796-4.002,7.544-9.863,7.544-16.079v-67.263c0-16.51,13.501-29.941,30.097-29.941h9.552v8.935h-9.552
				c-11.668,0-21.161,9.424-21.161,21.006v67.263c0,8.872-3.919,17.234-10.754,22.936l-4.706,3.932l4.706,3.93
				c6.835,5.706,10.754,14.066,10.754,22.936v67.263c0,11.582,9.493,21.006,21.161,21.006h9.552V945.239z"/>
		</g>
		<g>
			<path style="fill:#FFFFFF;stroke:#FFFFFF;stroke-width:4.6642;stroke-miterlimit:1;" d="M2485.592,697.098h9.552
				c16.596,0,30.097,13.432,30.097,29.941v67.263c0,6.214,2.75,12.075,7.544,16.079l12.922,10.786l-12.922,10.788
				c-4.796,4.002-7.544,9.863-7.544,16.079v67.263c0,16.51-13.501,29.941-30.097,29.941h-9.552v-8.935h9.552
				c11.668,0,21.162-9.424,21.162-21.006v-67.263c0-8.872,3.919-17.234,10.753-22.936l4.706-3.932l-4.706-3.93
				c-6.835-5.706-10.753-14.066-10.753-22.936v-67.263c0-11.582-9.493-21.006-21.162-21.006h-9.552V697.098z"/>
		</g>
	</g>
	<g>
		<g>
			<path style="fill:#FFFFFF;stroke:#FFFFFF;stroke-width:4.6642;stroke-miterlimit:1;" d="M1865.821,2474.34h-9.552
				c-16.595,0-30.097-13.431-30.097-29.941v-67.263c0-6.214-2.75-12.075-7.544-16.079l-12.922-10.786l12.922-10.788
				c4.796-4.002,7.544-9.863,7.544-16.079v-67.263c0-16.51,13.501-29.941,30.097-29.941h9.552v8.935h-9.552
				c-11.668,0-21.161,9.424-21.161,21.006v67.263c0,8.872-3.919,17.234-10.754,22.936l-4.706,3.932l4.706,3.93
				c6.835,5.706,10.754,14.066,10.754,22.936v67.263c0,11.583,9.493,21.006,21.161,21.006h9.552V2474.34z"/>
		</g>
		<g>
			<path style="fill:#FFFFFF;stroke:#FFFFFF;stroke-width:4.6642;stroke-miterlimit:1;" d="M2485.592,2226.199h9.552
				c16.596,0,30.097,13.431,30.097,29.941v67.263c0,6.214,2.75,12.075,7.544,16.079l12.922,10.786l-12.922,10.788
				c-4.796,4.002-7.544,9.863-7.544,16.079v67.263c0,16.51-13.501,29.941-30.097,29.941h-9.552v-8.935h9.552
				c11.668,0,21.162-9.424,21.162-21.006v-67.263c0-8.872,3.919-17.234,10.753-22.936l4.706-3.932l-4.706-3.93
				c-6.835-5.706-10.753-14.066-10.753-22.936v-67.263c0-11.583-9.493-21.006-21.162-21.006h-9.552V2226.199z"/>
		</g>
	</g>
	<g>
		<path style="fill:#FFFFFF;" d="M2041.459,2012.133c-2.352,0-4.602-0.388-6.751-1.161c-2.15-0.774-3.913-2.064-5.289-3.87
			s-2.064-4.257-2.064-7.354c0-3.152,0.701-5.704,2.107-7.653c1.404-1.948,3.382-3.454,5.934-4.516
			c2.551-1.06,5.618-1.791,9.202-2.192c3.582-0.4,7.611-0.603,12.083-0.603v-3.87c0-2.521-0.688-4.313-2.064-5.375
			c-1.376-1.06-3.383-1.591-6.02-1.591c-2.236,0-4.2,0.503-5.891,1.505c-1.692,1.004-2.537,2.537-2.537,4.602v0.688h-11.267
			c-0.058-0.172-0.086-0.415-0.086-0.73c0-0.314,0-0.588,0-0.817c0-2.522,0.803-4.743,2.408-6.665
			c1.604-1.92,3.841-3.41,6.708-4.472c2.866-1.061,6.192-1.591,9.976-1.591h1.807c6.191,0,10.807,1.219,13.846,3.654
			c3.039,2.438,4.559,5.72,4.559,9.848v21.414c0,1.09,0.271,1.863,0.816,2.321c0.545,0.46,1.132,0.688,1.764,0.688
			c0.516,0,1.088-0.1,1.72-0.301c0.63-0.2,1.232-0.443,1.806-0.731v6.88c-0.745,0.574-1.734,1.032-2.967,1.376
			c-1.233,0.345-2.709,0.517-4.429,0.517c-2.064,0-3.784-0.331-5.16-0.989s-2.423-1.562-3.14-2.709
			c-0.717-1.146-1.16-2.465-1.333-3.956c-1.605,2.294-3.728,4.143-6.363,5.547C2048.195,2011.43,2045.07,2012.133,2041.459,2012.133
			z M2046.963,2004.393c1.604,0,3.139-0.372,4.601-1.118c1.462-0.744,2.68-1.849,3.655-3.311c0.975-1.463,1.462-3.282,1.462-5.461
			v-3.526c-3.67,0-6.78,0.229-9.331,0.688c-2.552,0.46-4.486,1.219-5.805,2.279c-1.319,1.062-1.979,2.595-1.979,4.602
			c0,2.121,0.646,3.626,1.936,4.515C2042.792,2003.949,2044.611,2004.393,2046.963,2004.393z"/>
		<path style="fill:#FFFFFF;" d="M2097.014,2012.133c-2.466,0-4.673-0.345-6.622-1.032c-1.949-0.688-3.469-1.85-4.558-3.483
			c-1.09-1.634-1.634-3.797-1.634-6.493v-25.025h-4.816v-8.772h5.16l4.128-14.018h7.225v14.018h10.319v8.772h-10.319v22.446
			c0,2.523,0.516,4.128,1.548,4.815c1.032,0.688,2.149,1.032,3.354,1.032c0.631,0,1.505-0.129,2.623-0.387
			c1.118-0.259,2.021-0.53,2.709-0.817v7.224c-0.745,0.402-1.663,0.731-2.752,0.989c-1.09,0.258-2.192,0.443-3.311,0.56
			C2098.949,2012.074,2097.931,2012.133,2097.014,2012.133z"/>
		<path style="fill:#FFFFFF;" d="M2134.596,2012.133c-4.015,0-7.611-0.903-10.793-2.709c-3.183-1.807-5.677-4.372-7.482-7.697
			c-1.806-3.324-2.709-7.224-2.709-11.696v-1.548c0-4.528,0.903-8.428,2.709-11.696c1.806-3.268,4.285-5.805,7.438-7.61
			c3.153-1.807,6.736-2.709,10.75-2.709h1.721c4.07,0,7.682,0.902,10.836,2.709c3.152,1.806,5.633,4.343,7.438,7.61
			c1.807,3.269,2.709,7.168,2.709,11.696v1.548c0,4.53-0.902,8.443-2.709,11.739c-1.806,3.298-4.286,5.848-7.438,7.654
			c-3.154,1.806-6.737,2.709-10.75,2.709H2134.596z M2135.369,2004.393c1.776,0,3.367-0.415,4.773-1.247
			c1.404-0.83,2.521-2.077,3.354-3.741c0.831-1.662,1.247-3.64,1.247-5.934v-8.429c0-2.35-0.416-4.328-1.247-5.934
			c-0.832-1.604-1.949-2.838-3.354-3.698c-1.406-0.859-2.997-1.29-4.773-1.29c-1.72,0-3.298,0.431-4.729,1.29
			c-1.435,0.86-2.567,2.094-3.397,3.698c-0.832,1.605-1.247,3.584-1.247,5.934v8.429c0,2.294,0.415,4.271,1.247,5.934
			c0.83,1.664,1.963,2.911,3.397,3.741C2132.071,2003.978,2133.649,2004.393,2135.369,2004.393z"/>
		<path style="fill:#FFFFFF;" d="M2166.93,2011.272v-43.946h8.772l1.548,6.45c1.49-2.292,3.253-4.085,5.289-5.375
			c2.034-1.29,4.515-1.935,7.439-1.935c2.866,0,5.388,0.545,7.567,1.634c2.179,1.09,3.898,2.896,5.16,5.418
			c1.376-2.293,3.152-4.042,5.332-5.246c2.178-1.204,4.758-1.806,7.74-1.806c2.809,0,5.289,0.573,7.438,1.72
			c2.15,1.147,3.827,2.781,5.031,4.902s1.806,4.701,1.806,7.739v30.444h-11.609v-27.778c0-2.866-0.603-4.958-1.807-6.277
			c-1.204-1.318-2.867-1.979-4.987-1.979c-1.376,0-2.623,0.359-3.741,1.075c-1.118,0.718-1.993,1.72-2.623,3.01
			c-0.632,1.29-0.946,2.767-0.946,4.43v27.52h-11.609v-27.778c0-2.866-0.603-4.958-1.807-6.277
			c-1.204-1.318-2.896-1.979-5.074-1.979c-1.376,0-2.609,0.359-3.697,1.075c-1.09,0.718-1.95,1.72-2.58,3.01
			c-0.632,1.29-0.946,2.767-0.946,4.43v27.52H2166.93z"/>
		<path style="fill:#FFFFFF;" d="M2242.094,1958.469v-9.116h12.126v9.116H2242.094z M2242.266,2011.272v-43.946h11.781v43.946
			H2242.266z"/>
		<path style="fill:#FFFFFF;" d="M2284.061,2012.133c-3.728,0-7.096-0.917-10.105-2.752s-5.375-4.372-7.095-7.611
			c-1.72-3.238-2.58-6.951-2.58-11.137v-2.666c0-3.152,0.529-6.034,1.591-8.644c1.061-2.608,2.508-4.887,4.343-6.837
			c1.835-1.948,3.984-3.439,6.45-4.472c2.465-1.032,5.103-1.548,7.912-1.548h1.634c3.841,0,7.182,0.76,10.02,2.278
			c2.838,1.521,5.016,3.642,6.536,6.364c1.518,2.724,2.278,5.921,2.278,9.589h-10.233c0-2.35-0.359-4.3-1.075-5.848
			c-0.718-1.548-1.735-2.723-3.053-3.526c-1.32-0.802-2.896-1.204-4.73-1.204c-2.638,0-4.846,0.903-6.622,2.709
			c-1.777,1.807-2.666,4.459-2.666,7.955v8.858c0,3.439,0.846,6.093,2.537,7.955c1.69,1.863,3.97,2.795,6.837,2.795
			c2.007,0,3.698-0.344,5.074-1.032c1.376-0.688,2.421-1.806,3.139-3.354c0.717-1.549,1.075-3.612,1.075-6.192h9.718
			c0,3.899-0.831,7.211-2.494,9.933c-1.663,2.725-3.956,4.803-6.88,6.235s-6.249,2.15-9.976,2.15H2284.061z"/>
		<path style="fill:#FFFFFF;" d="M1896.164,2108.133c-2.752,0-5.246-0.345-7.481-1.032c-2.236-0.688-4.171-1.619-5.806-2.795
			c-1.634-1.175-2.881-2.551-3.74-4.128c-0.86-1.576-1.29-3.281-1.29-5.117c0-0.344,0-0.63,0-0.86c0-0.229,0.028-0.544,0.086-0.945
			h9.976c-0.058,0.172-0.086,0.33-0.086,0.473c0,0.144,0,0.272,0,0.387c0,1.434,0.486,2.623,1.462,3.569
			c0.975,0.946,2.236,1.634,3.784,2.063c1.548,0.431,3.21,0.646,4.988,0.646c1.433,0,2.881-0.172,4.343-0.517
			c1.462-0.344,2.68-0.902,3.655-1.677c0.974-0.773,1.462-1.763,1.462-2.967c0-1.318-0.503-2.335-1.505-3.053
			c-1.004-0.717-2.352-1.29-4.042-1.721c-1.692-0.43-3.541-0.802-5.547-1.117c-2.008-0.314-4.029-0.717-6.063-1.204
			c-2.036-0.486-3.899-1.189-5.59-2.107c-1.692-0.916-3.04-2.163-4.042-3.741c-1.004-1.576-1.505-3.654-1.505-6.234
			c0-2.179,0.501-4.128,1.505-5.849c1.002-1.72,2.378-3.152,4.128-4.3c1.748-1.146,3.754-2.006,6.02-2.58
			c2.265-0.572,4.63-0.859,7.096-0.859h1.72c2.292,0,4.485,0.287,6.579,0.859c2.092,0.574,3.97,1.391,5.633,2.451
			c1.662,1.062,2.967,2.322,3.913,3.784s1.419,3.053,1.419,4.772c0,0.288-0.015,0.617-0.043,0.989
			c-0.029,0.374-0.072,0.617-0.129,0.731h-9.977v-0.688c0-0.63-0.158-1.247-0.473-1.849c-0.315-0.603-0.832-1.161-1.548-1.677
			c-0.718-0.517-1.634-0.932-2.752-1.247c-1.118-0.314-2.451-0.474-3.999-0.474c-1.376,0-2.609,0.129-3.698,0.388
			c-1.09,0.258-2.008,0.602-2.752,1.031c-0.746,0.431-1.29,0.933-1.634,1.506s-0.516,1.147-0.516,1.72
			c0,1.204,0.516,2.137,1.548,2.795c1.031,0.66,2.393,1.176,4.085,1.548c1.69,0.374,3.554,0.718,5.59,1.032
			c2.034,0.315,4.056,0.702,6.062,1.161s3.87,1.161,5.591,2.106c1.72,0.946,3.081,2.223,4.085,3.827
			c1.002,1.605,1.505,3.698,1.505,6.278c0,2.695-0.517,4.987-1.548,6.88c-1.032,1.892-2.466,3.396-4.301,4.515
			s-3.899,1.936-6.191,2.451c-2.294,0.516-4.702,0.774-7.225,0.774H1896.164z"/>
		<path style="fill:#FFFFFF;" d="M1936.67,2107.272l-13.588-43.946h12.212l8.084,27.95h0.431l8.256-27.95h12.126l8.256,27.95h0.516
			l8.084-27.95h11.353l-13.674,43.946h-12.729l-7.998-26.66h-0.516l-7.912,26.66H1936.67z"/>
		<path style="fill:#FFFFFF;" d="M2011.146,2108.133c-2.352,0-4.602-0.388-6.751-1.161c-2.15-0.774-3.913-2.064-5.289-3.87
			s-2.064-4.257-2.064-7.354c0-3.152,0.701-5.704,2.107-7.653c1.404-1.948,3.382-3.454,5.934-4.516
			c2.551-1.06,5.618-1.791,9.202-2.192c3.582-0.4,7.611-0.603,12.083-0.603v-3.87c0-2.521-0.688-4.313-2.064-5.375
			c-1.376-1.06-3.383-1.591-6.02-1.591c-2.236,0-4.2,0.503-5.891,1.505c-1.692,1.004-2.537,2.537-2.537,4.602v0.688h-11.267
			c-0.058-0.172-0.086-0.415-0.086-0.73c0-0.314,0-0.588,0-0.817c0-2.522,0.803-4.743,2.408-6.665
			c1.604-1.92,3.841-3.41,6.708-4.472c2.866-1.061,6.192-1.591,9.976-1.591h1.807c6.191,0,10.807,1.219,13.846,3.654
			c3.038,2.438,4.559,5.72,4.559,9.848v21.414c0,1.09,0.271,1.863,0.816,2.321c0.544,0.46,1.132,0.688,1.763,0.688
			c0.517,0,1.089-0.1,1.721-0.301c0.63-0.2,1.232-0.443,1.806-0.731v6.88c-0.746,0.574-1.734,1.032-2.967,1.376
			c-1.233,0.345-2.709,0.517-4.429,0.517c-2.064,0-3.784-0.331-5.16-0.989s-2.423-1.562-3.14-2.709
			c-0.717-1.146-1.16-2.465-1.333-3.956c-1.605,2.294-3.728,4.143-6.363,5.547
			C2017.882,2107.43,2014.757,2108.133,2011.146,2108.133z M2016.649,2100.393c1.604,0,3.139-0.372,4.601-1.118
			c1.462-0.744,2.68-1.849,3.655-3.311c0.975-1.463,1.462-3.282,1.462-5.461v-3.526c-3.67,0-6.78,0.229-9.331,0.688
			c-2.552,0.46-4.486,1.219-5.805,2.279c-1.319,1.062-1.979,2.595-1.979,4.602c0,2.121,0.646,3.626,1.936,4.515
			C2012.479,2099.949,2014.298,2100.393,2016.649,2100.393z"/>
		<path style="fill:#FFFFFF;" d="M2051.822,2122.839v-59.513h9.202l1.289,5.677c1.318-1.893,3.082-3.454,5.289-4.688
			c2.207-1.232,4.801-1.849,7.783-1.849c3.383,0,6.436,0.73,9.16,2.192c2.721,1.462,4.871,3.799,6.449,7.01
			c1.576,3.211,2.365,7.425,2.365,12.642v1.806c0,4.816-0.773,8.873-2.322,12.169c-1.549,3.298-3.641,5.763-6.277,7.396
			c-2.639,1.634-5.535,2.451-8.688,2.451c-3.039,0-5.59-0.574-7.652-1.721c-2.064-1.146-3.643-2.607-4.73-4.386v20.812H2051.822z
			 M2072.376,2100.307c1.662,0,3.139-0.431,4.43-1.29c1.289-0.86,2.307-2.093,3.053-3.698c0.744-1.604,1.117-3.582,1.117-5.934
			v-7.654c0-2.637-0.373-4.801-1.117-6.493c-0.746-1.69-1.764-2.952-3.053-3.784c-1.291-0.83-2.768-1.247-4.43-1.247
			c-1.549,0-2.996,0.402-4.344,1.204c-1.348,0.804-2.422,2.036-3.225,3.698c-0.803,1.664-1.203,3.842-1.203,6.536v7.74
			c0,2.352,0.387,4.343,1.16,5.977s1.834,2.868,3.182,3.698C2069.294,2099.892,2070.771,2100.307,2072.376,2100.307z"/>
		<path style="fill:#FFFFFF;" d="M2139.455,2108.133c-3.728,0-7.096-0.917-10.105-2.752s-5.375-4.372-7.095-7.611
			c-1.72-3.238-2.58-6.951-2.58-11.137v-2.666c0-3.152,0.529-6.034,1.591-8.644c1.061-2.608,2.508-4.887,4.343-6.837
			c1.835-1.948,3.984-3.439,6.45-4.472c2.465-1.032,5.103-1.548,7.912-1.548h1.634c3.841,0,7.182,0.76,10.02,2.278
			c2.838,1.521,5.016,3.642,6.536,6.364c1.518,2.724,2.278,5.921,2.278,9.589h-10.233c0-2.35-0.359-4.3-1.075-5.848
			c-0.718-1.548-1.735-2.723-3.053-3.526c-1.32-0.802-2.896-1.204-4.73-1.204c-2.638,0-4.846,0.903-6.622,2.709
			c-1.777,1.807-2.666,4.459-2.666,7.955v8.858c0,3.439,0.846,6.093,2.537,7.955c1.69,1.863,3.97,2.795,6.837,2.795
			c2.007,0,3.698-0.344,5.074-1.032c1.376-0.688,2.421-1.806,3.139-3.354c0.717-1.549,1.075-3.612,1.075-6.192h9.718
			c0,3.899-0.831,7.211-2.494,9.933c-1.663,2.725-3.956,4.803-6.88,6.235s-6.249,2.15-9.976,2.15H2139.455z"/>
		<path style="fill:#FFFFFF;" d="M2188.819,2108.133c-4.015,0-7.611-0.903-10.793-2.709c-3.183-1.807-5.677-4.372-7.482-7.697
			c-1.806-3.324-2.709-7.224-2.709-11.696v-1.548c0-4.528,0.903-8.428,2.709-11.696c1.806-3.268,4.285-5.805,7.438-7.61
			c3.153-1.807,6.736-2.709,10.75-2.709h1.721c4.07,0,7.682,0.902,10.836,2.709c3.152,1.806,5.633,4.343,7.438,7.61
			c1.807,3.269,2.709,7.168,2.709,11.696v1.548c0,4.53-0.902,8.443-2.709,11.739c-1.806,3.298-4.286,5.848-7.438,7.654
			c-3.154,1.806-6.737,2.709-10.75,2.709H2188.819z M2189.593,2100.393c1.776,0,3.367-0.415,4.773-1.247
			c1.404-0.83,2.521-2.077,3.354-3.741c0.831-1.662,1.247-3.64,1.247-5.934v-8.429c0-2.35-0.416-4.328-1.247-5.934
			c-0.832-1.604-1.949-2.838-3.354-3.698c-1.406-0.859-2.997-1.29-4.773-1.29c-1.72,0-3.298,0.431-4.729,1.29
			c-1.435,0.86-2.567,2.094-3.397,3.698c-0.832,1.605-1.247,3.584-1.247,5.934v8.429c0,2.294,0.415,4.271,1.247,5.934
			c0.83,1.664,1.963,2.911,3.397,3.741C2186.295,2099.978,2187.873,2100.393,2189.593,2100.393z"/>
		<path style="fill:#FFFFFF;" d="M2221.153,2107.272v-43.946h8.687l1.376,6.45c1.72-2.464,3.797-4.3,6.234-5.504
			c2.437-1.204,5.203-1.806,8.3-1.806c2.98,0,5.604,0.573,7.869,1.72c2.264,1.147,4.012,2.781,5.245,4.902
			c1.232,2.121,1.85,4.701,1.85,7.739v30.444h-11.696v-27.95c0-2.809-0.688-4.872-2.063-6.191c-1.376-1.318-3.24-1.979-5.591-1.979
			c-1.491,0-2.896,0.387-4.214,1.161c-1.319,0.774-2.352,1.82-3.096,3.139c-0.746,1.32-1.118,2.811-1.118,4.473v27.348H2221.153z"/>
		<path style="fill:#FFFFFF;" d="M2287.2,2108.133c-2.466,0-4.673-0.345-6.622-1.032c-1.949-0.688-3.469-1.85-4.558-3.483
			c-1.09-1.634-1.634-3.797-1.634-6.493v-25.025h-4.816v-8.772h5.16l4.128-14.018h7.225v14.018h10.319v8.772h-10.319v22.446
			c0,2.523,0.516,4.128,1.548,4.815c1.032,0.688,2.149,1.032,3.354,1.032c0.631,0,1.505-0.129,2.623-0.387
			c1.118-0.259,2.021-0.53,2.709-0.817v7.224c-0.745,0.402-1.663,0.731-2.752,0.989c-1.09,0.258-2.192,0.443-3.311,0.56
			C2289.136,2108.074,2288.117,2108.133,2287.2,2108.133z"/>
		<path style="fill:#FFFFFF;" d="M2305.689,2107.272v-43.946h8.772l1.462,6.45c0.114-0.229,0.415-0.716,0.903-1.462
			c0.486-0.744,1.217-1.576,2.192-2.494c0.975-0.916,2.193-1.705,3.655-2.365c1.462-0.658,3.225-0.988,5.289-0.988
			c2.98,0,5.403,0.573,7.267,1.72c1.862,1.147,3.254,2.752,4.171,4.816c0.917,2.063,1.376,4.472,1.376,7.224
			c0,0.632-0.029,1.319-0.086,2.063c-0.058,0.746-0.115,1.406-0.172,1.979h-9.804v-1.806c0-1.089-0.215-2.193-0.646-3.312
			c-0.43-1.118-1.117-2.049-2.063-2.795c-0.946-0.744-2.251-1.118-3.913-1.118c-1.204,0-2.236,0.258-3.096,0.774
			c-0.86,0.516-1.563,1.161-2.107,1.935c-0.545,0.774-0.946,1.634-1.204,2.58s-0.387,1.821-0.387,2.623v28.122H2305.689z"/>
		<path style="fill:#FFFFFF;" d="M2359.955,2108.133c-2.352,0-4.601-0.388-6.751-1.161c-2.15-0.774-3.913-2.064-5.289-3.87
			s-2.064-4.257-2.064-7.354c0-3.152,0.702-5.704,2.107-7.653c1.404-1.948,3.382-3.454,5.934-4.516
			c2.551-1.06,5.618-1.791,9.202-2.192c3.583-0.4,7.611-0.603,12.083-0.603v-3.87c0-2.521-0.688-4.313-2.063-5.375
			c-1.376-1.06-3.384-1.591-6.021-1.591c-2.235,0-4.2,0.503-5.891,1.505c-1.692,1.004-2.537,2.537-2.537,4.602v0.688h-11.266
			c-0.059-0.172-0.086-0.415-0.086-0.73c0-0.314,0-0.588,0-0.817c0-2.522,0.802-4.743,2.407-6.665
			c1.604-1.92,3.841-3.41,6.708-4.472c2.866-1.061,6.192-1.591,9.977-1.591h1.806c6.192,0,10.807,1.219,13.846,3.654
			c3.039,2.438,4.559,5.72,4.559,9.848v21.414c0,1.09,0.271,1.863,0.816,2.321c0.545,0.46,1.132,0.688,1.764,0.688
			c0.516,0,1.088-0.1,1.72-0.301c0.63-0.2,1.232-0.443,1.806-0.731v6.88c-0.745,0.574-1.734,1.032-2.967,1.376
			c-1.233,0.345-2.709,0.517-4.429,0.517c-2.064,0-3.784-0.331-5.16-0.989s-2.423-1.562-3.139-2.709
			c-0.718-1.146-1.161-2.465-1.333-3.956c-1.606,2.294-3.728,4.143-6.364,5.547
			C2366.691,2107.43,2363.567,2108.133,2359.955,2108.133z M2365.459,2100.393c1.604,0,3.139-0.372,4.601-1.118
			c1.463-0.744,2.68-1.849,3.655-3.311c0.975-1.463,1.462-3.282,1.462-5.461v-3.526c-3.67,0-6.78,0.229-9.331,0.688
			c-2.552,0.46-4.486,1.219-5.805,2.279c-1.319,1.062-1.978,2.595-1.978,4.602c0,2.121,0.645,3.626,1.935,4.515
			C2361.288,2099.949,2363.107,2100.393,2365.459,2100.393z"/>
		<path style="fill:#FFFFFF;" d="M2418.606,2108.133c-3.728,0-7.096-0.917-10.105-2.752s-5.375-4.372-7.095-7.611
			c-1.72-3.238-2.58-6.951-2.58-11.137v-2.666c0-3.152,0.529-6.034,1.591-8.644c1.061-2.608,2.508-4.887,4.343-6.837
			c1.835-1.948,3.984-3.439,6.45-4.472c2.465-1.032,5.103-1.548,7.912-1.548h1.634c3.841,0,7.182,0.76,10.02,2.278
			c2.838,1.521,5.016,3.642,6.536,6.364c1.518,2.724,2.278,5.921,2.278,9.589h-10.233c0-2.35-0.359-4.3-1.075-5.848
			c-0.718-1.548-1.735-2.723-3.053-3.526c-1.32-0.802-2.896-1.204-4.73-1.204c-2.638,0-4.846,0.903-6.622,2.709
			c-1.777,1.807-2.666,4.459-2.666,7.955v8.858c0,3.439,0.846,6.093,2.537,7.955c1.69,1.863,3.97,2.795,6.837,2.795
			c2.007,0,3.698-0.344,5.074-1.032c1.376-0.688,2.421-1.806,3.139-3.354c0.717-1.549,1.075-3.612,1.075-6.192h9.718
			c0,3.899-0.831,7.211-2.494,9.933c-1.663,2.725-3.956,4.803-6.88,6.235s-6.249,2.15-9.976,2.15H2418.606z"/>
		<path style="fill:#FFFFFF;" d="M2463.755,2108.133c-2.466,0-4.673-0.345-6.622-1.032c-1.949-0.688-3.469-1.85-4.558-3.483
			c-1.09-1.634-1.634-3.797-1.634-6.493v-25.025h-4.816v-8.772h5.16l4.128-14.018h7.225v14.018h10.319v8.772h-10.319v22.446
			c0,2.523,0.516,4.128,1.548,4.815c1.032,0.688,2.149,1.032,3.354,1.032c0.631,0,1.505-0.129,2.623-0.387
			c1.118-0.259,2.021-0.53,2.709-0.817v7.224c-0.745,0.402-1.663,0.731-2.752,0.989c-1.09,0.258-2.192,0.443-3.311,0.56
			C2465.69,2108.074,2464.672,2108.133,2463.755,2108.133z"/>
		<path style="fill:#FFFFFF;" d="M2031.87,2204.133c-4.416,0-8.228-0.817-11.438-2.451s-5.69-3.927-7.438-6.88
			c-1.75-2.952-2.623-6.407-2.623-10.363h10.75c0,1.95,0.43,3.698,1.29,5.246c0.859,1.548,2.077,2.767,3.655,3.655
			c1.576,0.89,3.396,1.333,5.461,1.333c2.235,0,4.128-0.474,5.676-1.419c1.548-0.946,2.737-2.236,3.568-3.87
			c0.831-1.635,1.247-3.426,1.247-5.375c0-3.097-0.976-5.634-2.924-7.611c-1.949-1.978-4.443-2.967-7.481-2.967
			c-1.95,0-3.756,0.473-5.418,1.419c-1.664,0.946-2.982,2.106-3.956,3.482l-9.633-1.376l2.494-32.68h35.088v10.492h-25.8
			l-1.118,14.018c1.261-1.146,2.895-2.163,4.902-3.053c2.006-0.888,4.386-1.333,7.138-1.333c3.612,0,6.808,0.746,9.59,2.236
			c2.779,1.491,4.958,3.654,6.535,6.493c1.576,2.838,2.365,6.292,2.365,10.362c0,3.899-0.946,7.411-2.838,10.535
			c-1.892,3.126-4.486,5.59-7.783,7.396C2039.882,2203.229,2036.112,2204.133,2031.87,2204.133z"/>
		<path style="fill:#FFFFFF;" d="M2083.642,2204.133c-3.784,0-7.225-0.889-10.32-2.666c-3.096-1.776-5.547-4.214-7.353-7.311
			c-1.807-3.096-2.709-6.592-2.709-10.492v-19.779c0-3.956,0.902-7.468,2.709-10.535c1.806-3.066,4.257-5.489,7.353-7.268
			c3.096-1.776,6.536-2.666,10.32-2.666h2.494c3.84,0,7.295,0.89,10.362,2.666c3.066,1.778,5.489,4.201,7.268,7.268
			c1.776,3.067,2.666,6.579,2.666,10.535v19.779c0,3.9-0.89,7.396-2.666,10.492c-1.778,3.097-4.201,5.534-7.268,7.311
			c-3.067,1.777-6.522,2.666-10.362,2.666H2083.642z M2084.846,2195.103c1.892,0,3.568-0.443,5.03-1.333
			c1.462-0.889,2.608-2.077,3.44-3.569c0.83-1.49,1.247-3.182,1.247-5.074v-22.789c0-1.893-0.417-3.583-1.247-5.074
			c-0.832-1.49-1.979-2.68-3.44-3.569c-1.462-0.888-3.139-1.333-5.03-1.333c-1.836,0-3.483,0.445-4.945,1.333
			c-1.462,0.89-2.623,2.079-3.483,3.569c-0.859,1.491-1.29,3.182-1.29,5.074v22.789c0,1.893,0.431,3.584,1.29,5.074
			c0.86,1.492,2.021,2.681,3.483,3.569C2081.362,2194.659,2083.01,2195.103,2084.846,2195.103z"/>
		<path style="fill:#FFFFFF;" d="M2136.443,2203.272v-58.996h23.392c3.383,0,6.564,0.531,9.547,1.591
			c2.979,1.062,5.603,2.666,7.868,4.816c2.265,2.149,4.027,4.846,5.289,8.084c1.261,3.239,1.893,7.066,1.893,11.48v5.505
			c0,4.357-0.632,8.242-1.893,11.652c-1.262,3.412-3.024,6.293-5.289,8.644c-2.266,2.352-4.889,4.143-7.868,5.375
			c-2.982,1.233-6.164,1.849-9.547,1.849H2136.443z M2148.999,2193.641h9.805c2.35,0,4.457-0.529,6.32-1.591
			c1.862-1.061,3.34-2.709,4.43-4.945c1.088-2.236,1.634-5.131,1.634-8.686v-10.234c0-3.496-0.546-6.292-1.634-8.385
			c-1.09-2.093-2.567-3.612-4.43-4.559c-1.863-0.945-3.971-1.419-6.32-1.419h-9.805V2193.641z"/>
		<path style="fill:#FFFFFF;" d="M2208.598,2204.133c-3.44,0-6.493-0.617-9.159-1.85s-4.745-3.053-6.235-5.461
			c-1.491-2.408-2.235-5.302-2.235-8.686v-4.3h11.438v3.611c0,2.408,0.658,4.201,1.979,5.375c1.317,1.176,2.952,1.764,4.901,1.764
			c1.376,0,2.594-0.271,3.655-0.817c1.061-0.544,1.892-1.333,2.494-2.365c0.602-1.032,0.902-2.35,0.902-3.956v-43.172h12.385v42.914
			c0,3.498-0.804,6.508-2.408,9.03c-1.605,2.523-3.784,4.472-6.536,5.848s-5.905,2.064-9.46,2.064H2208.598z"/>
		<path style="fill:#FFFFFF;" d="M2241.706,2203.272v-58.996h41.022l-1.377,9.632h-27.176v14.534h25.198v9.46h-25.198v15.738h27.521
			l1.376,9.632H2241.706z"/>
		<path style="fill:#FFFFFF;" d="M2293.047,2203.272v-58.996h23.392c3.383,0,6.564,0.531,9.547,1.591
			c2.979,1.062,5.603,2.666,7.868,4.816c2.265,2.149,4.027,4.846,5.289,8.084c1.261,3.239,1.893,7.066,1.893,11.48v5.505
			c0,4.357-0.632,8.242-1.893,11.652c-1.262,3.412-3.024,6.293-5.289,8.644c-2.266,2.352-4.889,4.143-7.868,5.375
			c-2.982,1.233-6.164,1.849-9.547,1.849H2293.047z M2305.603,2193.641h9.805c2.35,0,4.457-0.529,6.32-1.591
			c1.862-1.061,3.34-2.709,4.43-4.945c1.088-2.236,1.634-5.131,1.634-8.686v-10.234c0-3.496-0.546-6.292-1.634-8.385
			c-1.09-2.093-2.567-3.612-4.43-4.559c-1.863-0.945-3.971-1.419-6.32-1.419h-9.805V2193.641z"/>
		<path style="fill:#FFFFFF;" d="M1874.964,2361.754v-59.513h9.202l1.29,5.677c1.318-1.893,3.081-3.454,5.289-4.688
			c2.206-1.232,4.801-1.849,7.783-1.849c3.382,0,6.435,0.73,9.158,2.192c2.723,1.462,4.873,3.799,6.45,7.01
			c1.576,3.211,2.365,7.425,2.365,12.642v1.806c0,4.816-0.774,8.873-2.322,12.169c-1.548,3.298-3.642,5.763-6.277,7.396
			c-2.639,1.634-5.534,2.451-8.687,2.451c-3.039,0-5.59-0.574-7.654-1.721c-2.063-1.146-3.642-2.607-4.729-4.386v20.812H1874.964z
			 M1895.518,2339.222c1.662,0,3.14-0.431,4.43-1.29c1.29-0.86,2.307-2.093,3.053-3.698c0.744-1.604,1.118-3.582,1.118-5.934v-7.654
			c0-2.637-0.374-4.801-1.118-6.493c-0.746-1.69-1.763-2.952-3.053-3.784c-1.29-0.83-2.768-1.247-4.43-1.247
			c-1.548,0-2.996,0.402-4.343,1.204c-1.348,0.804-2.423,2.036-3.225,3.698c-0.804,1.664-1.204,3.842-1.204,6.536v7.74
			c0,2.352,0.387,4.343,1.161,5.977c0.773,1.634,1.834,2.868,3.182,3.698C1892.436,2338.807,1893.912,2339.222,1895.518,2339.222z"
			/>
		<path style="fill:#FFFFFF;" d="M1926.306,2346.188v-43.946h8.771l1.462,6.45c0.114-0.229,0.415-0.716,0.903-1.462
			c0.486-0.744,1.218-1.576,2.193-2.494c0.974-0.916,2.192-1.705,3.654-2.365c1.462-0.658,3.226-0.988,5.289-0.988
			c2.98,0,5.403,0.573,7.268,1.72c1.862,1.147,3.253,2.752,4.171,4.816c0.916,2.063,1.376,4.472,1.376,7.224
			c0,0.632-0.03,1.319-0.086,2.063c-0.059,0.746-0.116,1.406-0.172,1.979h-9.805v-1.806c0-1.089-0.215-2.193-0.645-3.312
			c-0.431-1.118-1.118-2.049-2.064-2.795c-0.945-0.744-2.251-1.118-3.913-1.118c-1.204,0-2.235,0.258-3.096,0.774
			c-0.86,0.516-1.562,1.161-2.107,1.935c-0.545,0.774-0.945,1.634-1.203,2.58c-0.259,0.946-0.388,1.821-0.388,2.623v28.122H1926.306
			z"/>
		<path style="fill:#FFFFFF;" d="M1969.305,2293.384v-9.116h12.126v9.116H1969.305z M1969.477,2346.188v-43.946h11.782v43.946
			H1969.477z"/>
		<path style="fill:#FFFFFF;" d="M2011.271,2347.048c-3.728,0-7.095-0.917-10.104-2.752s-5.375-4.372-7.095-7.611
			c-1.721-3.238-2.58-6.951-2.58-11.137v-2.666c0-3.152,0.529-6.034,1.591-8.644c1.061-2.608,2.507-4.887,4.343-6.837
			c1.834-1.948,3.984-3.439,6.45-4.472c2.464-1.032,5.103-1.548,7.912-1.548h1.634c3.841,0,7.181,0.76,10.019,2.278
			c2.839,1.521,5.017,3.642,6.536,6.364c1.519,2.724,2.279,5.921,2.279,9.589h-10.234c0-2.35-0.358-4.3-1.074-5.848
			c-0.718-1.548-1.735-2.723-3.054-3.526c-1.319-0.802-2.896-1.204-4.729-1.204c-2.638,0-4.846,0.903-6.622,2.709
			c-1.778,1.807-2.666,4.459-2.666,7.955v8.858c0,3.439,0.845,6.093,2.537,7.955c1.69,1.863,3.97,2.795,6.837,2.795
			c2.006,0,3.698-0.344,5.074-1.032c1.376-0.688,2.421-1.806,3.139-3.354c0.716-1.549,1.075-3.612,1.075-6.192h9.718
			c0,3.899-0.832,7.211-2.494,9.933c-1.663,2.725-3.956,4.803-6.88,6.235s-6.25,2.15-9.976,2.15H2011.271z"/>
		<path style="fill:#FFFFFF;" d="M2060.636,2347.048c-4.128,0-7.783-0.847-10.965-2.537c-3.183-1.69-5.663-4.156-7.439-7.396
			c-1.777-3.238-2.666-7.181-2.666-11.825v-2.149c0-4.645,0.932-8.585,2.795-11.825c1.862-3.238,4.414-5.704,7.654-7.396
			c3.238-1.69,6.923-2.537,11.051-2.537h1.377c3.898,0,7.295,0.788,10.189,2.364c2.895,1.578,5.131,3.784,6.709,6.622
			c1.576,2.838,2.365,6.149,2.365,9.934v5.418h-29.757c0,2.752,0.345,5.16,1.032,7.224c0.688,2.064,1.72,3.642,3.096,4.73
			c1.376,1.09,3.183,1.634,5.418,1.634c1.834,0,3.441-0.357,4.816-1.075c1.377-0.716,2.465-1.791,3.268-3.225
			c0.803-1.433,1.205-3.183,1.205-5.246h10.922c0,3.384-0.859,6.379-2.58,8.986c-1.721,2.61-4.086,4.645-7.096,6.106
			s-6.492,2.193-10.449,2.193H2060.636z M2052.035,2319.699h18.147c0-3.611-0.789-6.291-2.365-8.041
			c-1.578-1.748-3.742-2.623-6.494-2.623c-2.58,0-4.744,0.903-6.493,2.709C2053.081,2313.551,2052.149,2316.203,2052.035,2319.699z"
			/>
		<path style="fill:#FFFFFF;" d="M2091.939,2313.938v-11.696h11.867v11.696H2091.939z M2091.939,2346.188v-11.696h11.867v11.696
			H2091.939z"/>
		<path style="fill:#FFFFFF;" d="M2135.367,2346.188v-9.46h14.62v-36.464h-14.62v-6.966c2.121-0.172,4.458-0.573,7.01-1.204
			c2.55-0.631,5.145-1.462,7.782-2.494c2.637-1.032,5.103-2.12,7.396-3.269h4.214v50.396h14.362v9.46H2135.367z"/>
		<path style="fill:#FFFFFF;" d="M2206.317,2347.048c-3.784,0-7.225-0.889-10.32-2.666c-3.096-1.776-5.547-4.214-7.353-7.311
			c-1.807-3.096-2.709-6.592-2.709-10.492V2306.8c0-3.956,0.902-7.468,2.709-10.535c1.806-3.066,4.257-5.489,7.353-7.268
			c3.096-1.776,6.536-2.666,10.32-2.666h2.494c3.84,0,7.295,0.89,10.362,2.666c3.066,1.778,5.489,4.201,7.268,7.268
			c1.776,3.067,2.666,6.579,2.666,10.535v19.779c0,3.9-0.89,7.396-2.666,10.492c-1.778,3.097-4.201,5.534-7.268,7.311
			c-3.067,1.777-6.522,2.666-10.362,2.666H2206.317z M2207.521,2338.018c1.892,0,3.568-0.443,5.03-1.333
			c1.462-0.889,2.608-2.077,3.44-3.569c0.83-1.49,1.247-3.182,1.247-5.074v-22.789c0-1.893-0.417-3.583-1.247-5.074
			c-0.832-1.49-1.979-2.68-3.44-3.569c-1.462-0.888-3.139-1.333-5.03-1.333c-1.836,0-3.483,0.445-4.945,1.333
			c-1.462,0.89-2.623,2.079-3.483,3.569c-0.859,1.491-1.29,3.182-1.29,5.074v22.789c0,1.893,0.431,3.584,1.29,5.074
			c0.86,1.492,2.021,2.681,3.483,3.569C2204.038,2337.574,2205.686,2338.018,2207.521,2338.018z"/>
		<path style="fill:#FFFFFF;" d="M2259.206,2347.048c-3.784,0-7.225-0.889-10.32-2.666c-3.096-1.776-5.547-4.214-7.353-7.311
			c-1.807-3.096-2.709-6.592-2.709-10.492V2306.8c0-3.956,0.902-7.468,2.709-10.535c1.806-3.066,4.257-5.489,7.353-7.268
			c3.096-1.776,6.536-2.666,10.32-2.666h2.494c3.84,0,7.295,0.89,10.362,2.666c3.066,1.778,5.489,4.201,7.268,7.268
			c1.776,3.067,2.666,6.579,2.666,10.535v19.779c0,3.9-0.89,7.396-2.666,10.492c-1.778,3.097-4.201,5.534-7.268,7.311
			c-3.067,1.777-6.522,2.666-10.362,2.666H2259.206z M2260.41,2338.018c1.892,0,3.568-0.443,5.03-1.333
			c1.462-0.889,2.608-2.077,3.44-3.569c0.83-1.49,1.247-3.182,1.247-5.074v-22.789c0-1.893-0.417-3.583-1.247-5.074
			c-0.832-1.49-1.979-2.68-3.44-3.569c-1.462-0.888-3.139-1.333-5.03-1.333c-1.836,0-3.483,0.445-4.945,1.333
			c-1.462,0.89-2.623,2.079-3.483,3.569c-0.859,1.491-1.29,3.182-1.29,5.074v22.789c0,1.893,0.431,3.584,1.29,5.074
			c0.86,1.492,2.021,2.681,3.483,3.569C2256.927,2337.574,2258.574,2338.018,2260.41,2338.018z"/>
		<path style="fill:#FFFFFF;" d="M2305.644,2346.188l21.672-58.996h14.965l21.586,58.996h-13.072l-4.559-12.212h-23.907
			l-4.559,12.212H2305.644z M2325.424,2324.945h17.63l-8.6-24.51h-0.345L2325.424,2324.945z"/>
		<path style="fill:#FFFFFF;" d="M2370.661,2346.188v-58.996h23.392c3.383,0,6.564,0.531,9.547,1.591
			c2.979,1.062,5.603,2.666,7.868,4.816c2.265,2.149,4.027,4.846,5.289,8.084c1.261,3.239,1.893,7.066,1.893,11.48v5.505
			c0,4.357-0.632,8.242-1.893,11.652c-1.262,3.412-3.024,6.293-5.289,8.644c-2.266,2.352-4.889,4.143-7.868,5.375
			c-2.982,1.233-6.164,1.849-9.547,1.849H2370.661z M2383.217,2336.556h9.805c2.35,0,4.457-0.529,6.32-1.591
			c1.862-1.061,3.34-2.709,4.43-4.945c1.088-2.236,1.634-5.131,1.634-8.686V2311.1c0-3.496-0.546-6.292-1.634-8.385
			c-1.09-2.093-2.567-3.612-4.43-4.559c-1.863-0.945-3.971-1.419-6.32-1.419h-9.805V2336.556z"/>
		<path style="fill:#FFFFFF;" d="M2423.206,2346.188l21.672-58.996h14.965l21.586,58.996h-13.072l-4.559-12.212h-23.907
			l-4.559,12.212H2423.206z M2442.986,2324.945h17.63l-8.6-24.51h-0.345L2442.986,2324.945z"/>
		<path style="fill:#FFFFFF;" d="M2065.151,2443.048c-2.466,0-4.673-0.345-6.622-1.032c-1.949-0.688-3.47-1.85-4.558-3.483
			c-1.09-1.634-1.634-3.797-1.634-6.493v-25.025h-4.816v-8.772h5.16l4.128-14.018h7.225v14.018h10.319v8.772h-10.319v22.446
			c0,2.523,0.516,4.128,1.548,4.815c1.032,0.688,2.149,1.032,3.354,1.032c0.631,0,1.505-0.129,2.623-0.387
			c1.118-0.259,2.021-0.53,2.709-0.817v7.224c-0.745,0.402-1.663,0.731-2.752,0.989c-1.09,0.258-2.192,0.443-3.311,0.56
			C2067.087,2442.989,2066.068,2443.048,2065.151,2443.048z"/>
		<path style="fill:#FFFFFF;" d="M2102.733,2443.048c-4.015,0-7.611-0.903-10.793-2.709c-3.183-1.807-5.677-4.372-7.482-7.697
			c-1.806-3.324-2.709-7.224-2.709-11.696v-1.548c0-4.528,0.903-8.428,2.709-11.696c1.806-3.268,4.285-5.805,7.438-7.61
			c3.153-1.807,6.736-2.709,10.75-2.709h1.721c4.07,0,7.682,0.902,10.836,2.709c3.152,1.806,5.633,4.343,7.438,7.61
			c1.807,3.269,2.709,7.168,2.709,11.696v1.548c0,4.53-0.902,8.443-2.709,11.739c-1.806,3.298-4.286,5.848-7.438,7.654
			c-3.154,1.806-6.737,2.709-10.75,2.709H2102.733z M2103.507,2435.308c1.776,0,3.367-0.415,4.773-1.247
			c1.404-0.83,2.521-2.077,3.354-3.741c0.831-1.662,1.247-3.64,1.247-5.934v-8.429c0-2.35-0.416-4.328-1.247-5.934
			c-0.832-1.604-1.949-2.838-3.354-3.698c-1.406-0.859-2.997-1.29-4.773-1.29c-1.72,0-3.298,0.431-4.729,1.29
			c-1.435,0.86-2.567,2.094-3.397,3.698c-0.832,1.605-1.247,3.584-1.247,5.934v8.429c0,2.294,0.415,4.271,1.247,5.934
			c0.83,1.664,1.963,2.911,3.397,3.741C2100.209,2434.893,2101.787,2435.308,2103.507,2435.308z"/>
		<path style="fill:#FFFFFF;" d="M2154.331,2442.188v-58.996h28.724c2.98,0,5.646,0.574,7.998,1.72
			c2.351,1.147,4.171,2.752,5.461,4.816c1.29,2.063,1.936,4.502,1.936,7.31c0,2.925-0.503,5.348-1.505,7.268
			c-1.004,1.921-2.266,3.439-3.784,4.558c-1.52,1.118-3.111,1.936-4.773,2.451v0.516c1.146,0.173,2.394,0.56,3.741,1.161
			c1.347,0.603,2.608,1.419,3.784,2.451c1.175,1.032,2.12,2.322,2.838,3.87c0.716,1.548,1.075,3.47,1.075,5.762
			c0,3.326-0.746,6.278-2.236,8.858c-1.491,2.58-3.525,4.601-6.105,6.062s-5.534,2.193-8.858,2.193H2154.331z M2166.199,2407.529
			h12.899c1.549,0,2.882-0.372,3.999-1.118c1.118-0.744,1.964-1.733,2.537-2.967c0.572-1.232,0.86-2.565,0.86-3.999
			c0-2.35-0.589-4.113-1.763-5.289c-1.176-1.174-2.854-1.763-5.031-1.763h-13.502V2407.529z M2166.199,2432.813h13.588
			c1.548,0,2.909-0.372,4.085-1.118c1.175-0.744,2.092-1.748,2.752-3.01c0.658-1.261,0.989-2.694,0.989-4.3
			c0-1.604-0.344-2.967-1.032-4.085s-1.62-1.992-2.795-2.623c-1.176-0.631-2.48-0.946-3.913-0.946h-13.674V2432.813z"/>
		<path style="fill:#FFFFFF;" d="M2228.807,2443.048c-4.015,0-7.611-0.903-10.793-2.709c-3.183-1.807-5.677-4.372-7.482-7.697
			c-1.806-3.324-2.709-7.224-2.709-11.696v-1.548c0-4.528,0.903-8.428,2.709-11.696c1.806-3.268,4.285-5.805,7.438-7.61
			c3.153-1.807,6.736-2.709,10.75-2.709h1.721c4.07,0,7.682,0.902,10.836,2.709c3.152,1.806,5.633,4.343,7.438,7.61
			c1.807,3.269,2.709,7.168,2.709,11.696v1.548c0,4.53-0.902,8.443-2.709,11.739c-1.806,3.298-4.286,5.848-7.438,7.654
			c-3.154,1.806-6.737,2.709-10.75,2.709H2228.807z M2229.58,2435.308c1.776,0,3.367-0.415,4.773-1.247
			c1.404-0.83,2.521-2.077,3.354-3.741c0.831-1.662,1.247-3.64,1.247-5.934v-8.429c0-2.35-0.416-4.328-1.247-5.934
			c-0.832-1.604-1.949-2.838-3.354-3.698c-1.406-0.859-2.997-1.29-4.773-1.29c-1.72,0-3.298,0.431-4.729,1.29
			c-1.435,0.86-2.567,2.094-3.397,3.698c-0.832,1.605-1.247,3.584-1.247,5.934v8.429c0,2.294,0.415,4.271,1.247,5.934
			c0.83,1.664,1.963,2.911,3.397,3.741C2226.282,2434.893,2227.86,2435.308,2229.58,2435.308z"/>
		<path style="fill:#FFFFFF;" d="M2284.19,2443.048c-6.422,0-11.324-2.58-14.706-7.74l-4.042,6.88h-4.301v-61.92h11.782v23.134
			c1.204-1.662,2.866-3.081,4.988-4.257c2.12-1.175,4.644-1.763,7.567-1.763c3.153,0,6.021,0.73,8.601,2.192
			s4.644,3.741,6.191,6.837c1.549,3.097,2.322,7.082,2.322,11.954v1.893c0,5.218-0.832,9.518-2.494,12.899
			c-1.663,3.384-3.899,5.878-6.708,7.482C2290.582,2442.244,2287.515,2443.048,2284.19,2443.048z M2281.696,2435.308
			c1.662,0,3.124-0.4,4.386-1.204c1.261-0.802,2.264-2.049,3.01-3.741c0.744-1.69,1.118-3.855,1.118-6.493v-7.739
			c0-2.408-0.358-4.399-1.075-5.978c-0.718-1.576-1.691-2.78-2.924-3.612c-1.233-0.83-2.681-1.246-4.343-1.246
			c-1.606,0-3.097,0.416-4.473,1.246c-1.376,0.832-2.466,2.051-3.268,3.655c-0.804,1.606-1.204,3.612-1.204,6.021v7.653
			c0,2.638,0.387,4.803,1.161,6.493c0.774,1.692,1.834,2.939,3.182,3.741C2278.613,2434.907,2280.09,2435.308,2281.696,2435.308z"/>
	</g>
</g>
</svg>
