<?xml version="1.0" encoding="iso-8859-1"?>
<!-- Generator: Adobe Illustrator 29.6.0, SVG Export Plug-In . SVG Version: 9.03 Build 0)  -->
<svg version="1.1" xmlns="http://www.w3.org/2000/svg" xmlns:xlink="http://www.w3.org/1999/xlink" x="0px" y="0px"
	 viewBox="0 0 2774 3300" style="enable-background:new 0 0 2774 3300;" xml:space="preserve">
<g id="Source." style="display:none;">
	
		<image style="display:inline;overflow:visible;" width="500" height="404" xlink:href="../../_Draft Images/hydra_hydraheadnetwork.png"  transform="matrix(7.764 0 0 7.764 -996.0117 511.999)">
	</image>
</g>
<g id="Fill">
	
		<line style="fill:none;stroke:#8FD14F;stroke-width:12;stroke-miterlimit:10;" x1="2428.64" y1="2123.315" x2="2063.307" y2="1051.317"/>
	
		<line style="fill:none;stroke:#FF5553;stroke-width:12;stroke-miterlimit:10;" x1="1205.113" y1="1688.621" x2="1236.642" y2="1141.983"/>
	
		<line style="fill:none;stroke:#8FD14F;stroke-width:12;stroke-miterlimit:10;" x1="1340.642" y1="1067.317" x2="1929.974" y2="941.984"/>
	<circle style="fill:#8FD14F;stroke:#000000;stroke-width:6;stroke-miterlimit:10;" cx="1238.28" cy="1058.169" r="136.836"/>
	
		<line style="fill:none;stroke:#FF5553;stroke-width:12;stroke-miterlimit:10;" x1="1509.899" y1="1698.297" x2="2001.974" y2="1061.983"/>
	<circle style="fill:#8FD14F;stroke:#000000;stroke-width:6;stroke-miterlimit:10;" cx="2033.674" cy="950.249" r="136.836"/>
	
		<rect x="2105.288" y="743.741" style="fill:#E6E6E6;stroke:#000000;stroke-width:6;stroke-miterlimit:10;" width="272.131" height="163.279"/>
	
		<rect x="929.362" y="840.294" style="fill:#E6E6E6;stroke:#000000;stroke-width:6;stroke-miterlimit:10;" width="272.131" height="163.279"/>
	<path d="M2580.495,2450.048H2255.42c-23.1,0-42-18.9-42-42v-325.075c0-23.1,18.9-42,42-42h325.075c23.1,0,42,18.9,42,42v325.075
		C2622.495,2431.148,2603.595,2450.048,2580.495,2450.048z"/>
	<path style="fill:#FFFFFF;stroke:#000000;stroke-width:6;stroke-miterlimit:10;" d="M2563.481,2436.037h-325.075
		c-23.1,0-42-18.9-42-42v-325.075c0-23.1,18.9-42,42-42h325.075c23.1,0,42,18.9,42,42v325.075
		C2605.481,2417.137,2586.582,2436.037,2563.481,2436.037z"/>
	<path style="fill:#FF5553;" d="M1961.587,1931.066c-22.302-31.843-54.786-55.366-91.605-66.937
		c1.377-13.037,1.491-26.243,0.258-39.388c-4.851-51.432-30.178-99.749-69.506-133.179c-14.469-9.349-28.926-18.703-43.389-28.046
		c-33.13-15.481-67.913-21.614-104.337-18.403c-16.792,3.844-33.579,7.683-50.371,11.516c-19.889,7.486-37.909,17.643-54.109,30.417
		c-5.635-6.318-11.69-12.289-18.17-17.805c-13.493-8.719-26.986-17.433-40.466-26.159c-30.902-14.433-63.331-20.146-97.306-17.152
		c-15.661,3.576-31.315,7.157-46.97,10.738c-30.285,11.385-55.965,29.357-77.052,53.882c-17.889-22.141-40.76-40.478-68.033-52.732
		c-22.703-10.199-46.82-18.541-71.32-22.883c-24.692-4.372-50.576-3.516-75.723-2.797c-16.673,3.815-33.358,7.63-50.043,11.444
		c-32.345,12.169-59.774,31.375-82.274,57.613c-28.656,33.717-45.035,76.686-46.784,120.662c-13.451-1.97-27.171-2.425-41.179-1.185
		c-14.499,3.312-29.004,6.629-43.497,9.941c-28.129,10.582-51.965,27.273-71.518,50.078
		c-29.836,35.106-44.437,81.723-40.113,127.585c4.186,44.413,26.051,86.143,60.026,115.015c5.438,3.521,10.882,7.042,16.325,10.558
		c-0.288,6.929-0.156,13.888,0.497,20.835c3.779,40.035,23.488,77.651,54.115,103.678c11.259,7.282,22.512,14.559,33.777,21.835
		c25.793,12.055,52.869,16.828,81.231,14.325l39.209-8.971c6.342-2.383,12.445-5.114,18.308-8.192
		c5.294,5.761,10.917,11.253,16.906,16.343c14.032,9.068,28.064,18.141,42.095,27.213c32.148,15.02,65.895,20.967,101.241,17.853
		c16.29-3.725,32.579-7.45,48.869-11.182c28.836-10.839,53.618-27.476,74.435-49.767c1.222,1.084,2.408,2.204,3.653,3.258
		c14.463,9.348,28.92,18.703,43.383,28.051c33.13,15.475,67.913,21.614,104.343,18.398c16.786-3.839,33.573-7.678,50.36-11.517
		c3.036-1.144,5.983-2.407,8.929-3.671c6.977,4.515,13.96,9.025,20.943,13.541c34.639,16.182,71.003,22.59,109.08,19.236
		c17.547-4.018,35.106-8.031,52.653-12.043c34.04-12.798,62.906-33.01,86.58-60.625c11.157-13.121,20.535-27.584,28.045-42.933
		c2.354,0.514,4.714,1.018,7.103,1.437c15.607,0.641,31.214,1.276,46.814,1.917c30.591-3.03,58.499-13.319,83.718-30.854
		l7.653-5.857c11.097-10.104,22.189-20.195,33.286-30.297c20.445-24.267,33.465-52.031,39.083-83.298
		C1998.813,2016.784,1988.237,1969.125,1961.587,1931.066z"/>
	<g id="Layer_2_00000171693655610200325860000007420507718178109880_">
		<g id="Layer_1-2">
			<path style="fill:#FFFFFF;" d="M878.931,1986.44c-0.473,8.235,5.815,15.296,14.05,15.777h0.815
				c8.237-0.009,14.906-6.693,14.897-14.93c-0.009-8.236-6.693-14.906-14.93-14.897c-7.898,0.009-14.419,6.173-14.873,14.058
				L878.931,1986.44z"/>
			<path style="fill:#FFFFFF;" d="M823.319,1982.658c-2.656-0.149-4.929,1.884-5.078,4.54c-0.149,2.656,1.884,4.929,4.54,5.078
				c2.653,0.148,4.925-1.88,5.078-4.532c0.157-2.651-1.865-4.927-4.516-5.084C823.335,1982.659,823.327,1982.659,823.319,1982.658z"
				/>
			<path style="fill:#FFFFFF;" d="M877.986,1899.884c2.37-1.217,3.305-4.125,2.088-6.496s-4.125-3.305-6.496-2.088
				c-2.352,1.208-3.294,4.083-2.112,6.448c1.197,2.385,4.101,3.349,6.487,2.152C877.964,1899.895,877.975,1899.89,877.986,1899.884z
				"/>
			<path style="fill:#FFFFFF;" d="M893.12,1926.272c3.673-1.853,5.148-6.332,3.296-10.005c-1.853-3.673-6.332-5.148-10.005-3.296
				c-3.671,1.852-5.147,6.328-3.298,10c1.85,3.674,6.328,5.153,10.003,3.303C893.116,1926.274,893.118,1926.273,893.12,1926.272z"/>
			<path style="fill:#FFFFFF;" d="M842.194,1944.421c2.832,1.862,6.637,1.076,8.499-1.756c1.862-2.832,1.076-6.637-1.756-8.499
				c-2.832-1.862-6.637-1.076-8.499,1.756c-0.002,0.002-0.003,0.005-0.005,0.007
				C838.577,1938.761,839.365,1942.561,842.194,1944.421z"/>
			<path style="fill:#FFFFFF;" d="M851.264,1979.945c-4.107-0.232-7.625,2.91-7.856,7.017c-0.232,4.107,2.91,7.625,7.017,7.856
				c4.104,0.232,7.62-2.905,7.856-7.009C858.512,1983.7,855.372,1980.181,851.264,1979.945z"/>
			<path style="fill:#FFFFFF;" d="M843.009,2030.023c-3.025,1.529-4.238,5.22-2.709,8.245c1.529,3.025,5.22,4.238,8.245,2.709
				c3.023-1.528,4.236-5.216,2.711-8.24c-1.526-3.026-5.216-4.242-8.242-2.716C843.012,2030.022,843.01,2030.022,843.009,2030.023z"
				/>
			<path style="fill:#FFFFFF;" d="M871.964,1964.55c4.051,2.655,9.486,1.523,12.141-2.528s1.523-9.486-2.528-12.141
				c-4.05-2.654-9.484-1.523-12.139,2.526c-2.657,4.044-1.533,9.475,2.511,12.132
				C871.953,1964.543,871.958,1964.547,871.964,1964.55z"/>
			<path style="fill:#FFFFFF;" d="M963.825,1925.685c3.449,2.25,8.07,1.278,10.319-2.172s1.278-8.069-2.172-10.319
				c-3.447-2.248-8.064-1.279-10.316,2.166c-2.255,3.441-1.293,8.058,2.148,10.313
				C963.812,1925.677,963.818,1925.681,963.825,1925.685z"/>
			<path style="fill:#FFFFFF;" d="M979.113,1899.379c2.228,1.461,5.219,0.838,6.68-1.39c1.461-2.228,0.838-5.219-1.39-6.68
				c-2.228-1.461-5.219-0.838-6.68,1.39c-0.001,0.002-0.002,0.004-0.003,0.005C976.263,1894.933,976.887,1897.92,979.113,1899.379z"
				/>
			<path style="fill:#FFFFFF;" d="M964.998,1972.243c-8.225-0.473-15.276,5.812-15.749,14.037
				c-0.473,8.225,5.812,15.276,14.037,15.749l0,0c0.285,0,0.579,0,0.864,0c8.237-0.004,14.91-6.684,14.906-14.921
				c-0.002-3.662-1.351-7.196-3.79-9.927C972.644,1974.225,968.945,1972.446,964.998,1972.243z"/>
			<path style="fill:#FFFFFF;" d="M898.018,1963.515c2.525,5.045,7.691,8.224,13.333,8.206c8.241,0.002,14.923-6.677,14.925-14.918
				c0.001-2.343-0.551-4.653-1.609-6.743c-2.543-5.022-7.704-8.176-13.333-8.15c-8.241,0.014-14.91,6.706-14.896,14.947
				C896.441,1959.17,896.982,1961.449,898.018,1963.515z"/>
			<path style="fill:#FFFFFF;" d="M1014.963,1944.405c3.026-1.527,4.241-5.218,2.714-8.243c-1.527-3.026-5.217-4.241-8.243-2.714
				c-3.023,1.525-4.239,5.21-2.718,8.235C1008.242,1944.71,1011.933,1945.928,1014.963,1944.405z"/>
			<path style="fill:#FFFFFF;" d="M977.141,1949.156c-4.325,2.178-6.066,7.451-3.887,11.776s7.451,6.066,11.776,3.887
				c4.325-2.178,6.066-7.451,3.887-11.776c-2.172-4.323-7.438-6.067-11.761-3.895
				C977.151,1949.151,977.146,1949.153,977.141,1949.156z"/>
			<path style="fill:#FFFFFF;" d="M928.423,1897.13c3.384,0.193,6.283-2.394,6.476-5.778c0.193-3.384-2.394-6.283-5.778-6.476
				c-3.384-0.193-6.283,2.394-6.476,5.778c0,0.002,0,0.003,0,0.005C922.455,1894.041,925.042,1896.937,928.423,1897.13z"/>
			<path style="fill:#FFFFFF;" d="M928.358,1935.75c4.835,0.271,8.975-3.429,9.246-8.264c0.271-4.835-3.429-8.975-8.264-9.246
				c-4.831-0.271-8.968,3.422-9.245,8.252C919.821,1931.33,923.52,1935.474,928.358,1935.75z"/>
			<path style="fill:#FFFFFF;" d="M880.847,2025.264c4.324-2.18,6.063-7.453,3.882-11.778s-7.453-6.063-11.778-3.882
				c-4.324,2.18-6.063,7.453-3.882,11.778c0.001,0.001,0.001,0.002,0.002,0.003C871.252,2025.707,876.523,2027.443,880.847,2025.264
				z"/>
			<path style="fill:#FFFFFF;" d="M934.022,1948.545c-4.514,6.889-2.589,16.134,4.3,20.648c6.889,4.514,16.134,2.589,20.648-4.3
				c4.514-6.889,2.589-16.134-4.3-20.648c-2.424-1.588-5.257-2.436-8.155-2.44C941.481,1941.802,936.784,1944.336,934.022,1948.545z
				"/>
			<path style="fill:#FFFFFF;" d="M959.954,2010.913c-3.709-7.354-12.677-10.31-20.031-6.601
				c-7.354,3.709-10.31,12.677-6.601,20.031c2.535,5.027,7.686,8.198,13.316,8.198c2.334-0.016,4.633-0.574,6.715-1.63
				C960.684,2027.2,963.635,2018.259,959.954,2010.913z"/>
			<path style="fill:#FFFFFF;" d="M986.016,2009.87c-4.048-2.658-9.485-1.53-12.143,2.518s-1.53,9.485,2.518,12.143
				c4.048,2.658,9.485,1.53,12.143-2.518C991.182,2017.962,990.056,2012.533,986.016,2009.87z"/>
			<path style="fill:#FFFFFF;" d="M1014.571,1987.467c0.232-4.107-2.91-7.625-7.017-7.856c-4.107-0.232-7.625,2.91-7.856,7.017
				c-0.232,4.104,2.905,7.62,7.009,7.856C1010.816,1994.715,1014.335,1991.575,1014.571,1987.467z"/>
			<path style="fill:#FFFFFF;" d="M1035.206,1982.161c-2.66-0.153-4.941,1.879-5.094,4.539c-0.153,2.66,1.879,4.941,4.539,5.094
				c2.66,0.153,4.941-1.879,5.094-4.539c0,0,0,0,0,0C1039.894,1984.596,1037.864,1982.319,1035.206,1982.161z"/>
			<path style="fill:#FFFFFF;" d="M1015.778,2029.999c-2.835-1.857-6.639-1.064-8.496,1.771c-1.857,2.835-1.064,6.639,1.771,8.496
				c2.833,1.856,6.635,1.065,8.493-1.767c1.859-2.834,1.069-6.638-1.764-8.497C1015.78,2030.001,1015.779,2030,1015.778,2029.999z"
				/>
			<path style="fill:#FFFFFF;" d="M878.866,2075.041c-2.228-1.462-5.219-0.841-6.68,1.387c-1.462,2.228-0.841,5.219,1.387,6.68
				c2.227,1.461,5.217,0.842,6.679-1.385c1.463-2.227,0.844-5.218-1.383-6.681C878.868,2075.042,878.867,2075.042,878.866,2075.041z
				"/>
			<path style="fill:#FFFFFF;" d="M979.985,2074.536c-2.379,1.199-3.336,4.1-2.137,6.48c1.199,2.379,4.1,3.336,6.48,2.137
				c2.379-1.199,3.336-4.1,2.137-6.48c0,0,0-0.001-0.001-0.001c-1.194-2.377-4.089-3.336-6.466-2.142
				C979.994,2074.531,979.989,2074.533,979.985,2074.536z"/>
			<path style="fill:#FFFFFF;" d="M923.949,2025.851c4.514-6.889,2.589-16.134-4.3-20.648c-6.889-4.514-16.134-2.589-20.648,4.3
				c-4.514,6.889-2.589,16.134,4.3,20.648c2.426,1.59,5.263,2.437,8.163,2.44C916.5,2032.608,921.201,2030.07,923.949,2025.851z"/>
			<path style="fill:#FFFFFF;" d="M894.147,2048.743c-3.443-2.252-8.059-1.287-10.311,2.156c-2.252,3.442-1.287,8.059,2.156,10.311
				c3.44,2.25,8.053,1.289,10.307-2.149C898.55,2055.616,897.587,2050.999,894.147,2048.743z"/>
			<path style="fill:#FFFFFF;" d="M928.92,2077.29c-3.384-0.193-6.283,2.395-6.475,5.778c-0.192,3.384,2.395,6.283,5.778,6.475
				c3.382,0.192,6.28-2.392,6.475-5.774c0.195-3.384-2.391-6.284-5.774-6.479C928.923,2077.29,928.922,2077.29,928.92,2077.29z"/>
			<path style="fill:#FFFFFF;" d="M928.986,2038.678c-4.834-0.294-8.991,3.387-9.285,8.221c-0.294,4.834,3.387,8.991,8.221,9.285
				c4.834,0.294,8.991-3.387,9.285-8.221c0.001-0.012,0.001-0.023,0.002-0.035C937.487,2043.105,933.808,2038.967,928.986,2038.678z
				"/>
			<path style="fill:#FFFFFF;" d="M964.851,2048.148c-3.673,1.864-5.139,6.351-3.276,10.024c1.863,3.673,6.351,5.139,10.024,3.276
				c3.673-1.864,5.139-6.351,3.276-10.024c-0.003-0.005-0.005-0.01-0.008-0.016c-1.86-3.664-6.338-5.127-10.003-3.266
				C964.86,2048.143,964.856,2048.146,964.851,2048.148z"/>
			<path style="fill:#FFFFFF;" d="M1129.422,1951.976c14.441,0,24.554,7.938,24.554,22.672h18.915
				c0-25.85-19.062-38.302-43.755-38.302c-30.332,0-47.952,16.47-47.952,51.276c0,35.67,17.619,51.268,47.952,51.268
				c24.986,0,43.755-12.126,43.755-37.985h-18.198c0,14.441-9.967,22.387-25.263,22.387c-20.08,0-29.338-11.124-29.338-34.228
				v-2.885C1100.108,1963.523,1109.488,1951.976,1129.422,1951.976z"/>
			<path style="fill:#FFFFFF;" d="M1222.905,1938.105l-38.563,99.081h19.07l7.938-21.523h45.319l8.15,21.523h19.934l-38.588-99.081
				H1222.905z M1217.127,2000.041l10.114-27.162c2.021-5.338,5.631-16.894,6.357-18.915h0.717
				c0.725,2.021,4.336,13.716,6.357,18.915l10.105,27.154L1217.127,2000.041z"/>
			<path style="fill:#FFFFFF;" d="M1387.875,1968.144c0-18.336-10.545-30.039-32.353-30.039h-52.287v99.081h18.491v-38.303h30.756
				l18.744,38.303h20.219l-21.189-41.163C1381.95,1991.403,1387.875,1981.583,1387.875,1968.144z M1354.071,1983.31h-32.345v-29.46
				h32.345c9.967,0,15.166,5.346,15.166,14.294C1369.237,1977.541,1363.606,1983.31,1354.071,1983.31z"/>
			<path style="fill:#FFFFFF;" d="M1452.728,1938.105h-39.59v99.081h39.574c29.892,0,48.082-15.598,48.082-49.541
				C1500.794,1953.703,1482.621,1938.105,1452.728,1938.105z M1481.903,1989.088c-0.147,21.669-10.399,32.354-29.175,32.354h-21.083
				v-67.592h21.083c18.744,0,29.175,10.692,29.175,32.354V1989.088z"/>
			<path style="fill:#FFFFFF;" d="M1549.234,1938.105l-38.58,99.081h19.062l7.946-21.523h45.352l8.084,21.523h19.934l-38.563-99.081
				H1549.234z M1543.457,2000.041l10.097-27.162c2.021-5.338,5.631-16.894,6.357-18.915h0.734
				c0.717,2.021,4.335,13.716,6.357,18.915l10.105,27.154L1543.457,2000.041z"/>
			<path style="fill:#FFFFFF;" d="M1695.55,1997.034c0,1.874,0.285,6.927,0.285,7.799l-0.717,0.285
				c-0.432-0.57-3.325-5.631-4.89-7.938l-43.037-59.076h-17.644v99.081h17.766v-59.361c0-2.445-0.293-7.22-0.293-7.946l0.725-0.432
				c0.432,0.579,2.6,4.767,4.89,8.092l43.331,59.646h17.326v-99.081h-17.758v58.929H1695.55z"/>
			<path style="fill:#FFFFFF;" d="M1786.939,1936.378c-31.049,0-49.826,16.462-49.826,51.268c0,34.807,18.744,51.268,49.826,51.268
				s49.973-16.462,49.973-51.268C1836.911,1952.839,1817.988,1936.378,1786.939,1936.378z M1817.988,1989.235
				c0,22.672-10.831,34.081-31.05,34.081c-20.072,0-30.903-11.409-30.903-34.081v-3.032c0-22.68,10.977-34.228,30.903-34.228
				c20.08,0,31.05,11.548,31.05,34.228V1989.235z"/>
		</g>
	</g>
	
		<line style="fill:none;stroke:#FF5553;stroke-width:12;stroke-miterlimit:10;" x1="1116.643" y1="2875.313" x2="1209.976" y2="2197.981"/>
	
		<line style="fill:none;stroke:#FF5553;stroke-width:12;stroke-miterlimit:10;" x1="1943.308" y1="2771.313" x2="1508.642" y2="2248.648"/>
	
		<line style="fill:none;stroke:#FF5553;stroke-width:12;stroke-miterlimit:10;" x1="2279.307" y1="2235.314" x2="1927.308" y2="1931.315"/>
	
		<line style="fill:none;stroke:#5181F6;stroke-width:12;stroke-miterlimit:10;" x1="1239.309" y1="2979.313" x2="1796.641" y2="2915.313"/>
	
		<line style="fill:none;stroke:#5181F6;stroke-width:12;stroke-miterlimit:10;" x1="2465.973" y1="2352.647" x2="2014.452" y2="2911.823"/>
	
		<line style="fill:none;stroke:#FF5553;stroke-width:12;stroke-miterlimit:10;" x1="339.659" y1="2312.666" x2="719.31" y2="1971.315"/>
	
		<line style="fill:none;stroke:#5181F6;stroke-width:12;stroke-miterlimit:10;" x1="444.644" y1="2368.647" x2="1807.308" y2="2840.646"/>
	
		<line style="fill:none;stroke:#5181F6;stroke-width:12;stroke-miterlimit:10;" x1="464.917" y1="2460.701" x2="996.643" y2="2992.646"/>
	<circle style="fill:#5181F6;stroke:#000000;stroke-width:6;stroke-miterlimit:10;" cx="2416.944" cy="2244.833" r="136.836"/>
	<circle style="fill:#8FD14F;stroke:#000000;stroke-width:6;stroke-miterlimit:10;" cx="2387.611" cy="2215.5" r="136.836"/>
	
		<rect x="2454.692" y="2096.292" style="fill:#E6E6E6;stroke:#000000;stroke-width:6;stroke-miterlimit:10;" width="272.131" height="163.279"/>
</g>
<g id="Type">
	<g>
		<path d="M69.959,280.305V95.085h33.48v77.22h74.79v-77.22h33.48v185.22H178.5v-81h-74.79v81H69.959z"/>
		<path d="M266.521,330.526c-4.143,0-7.965-0.316-11.475-0.945c-3.51-0.633-6.796-1.578-9.855-2.835v-24.03
			c1.979,0.898,4.59,1.662,7.83,2.295c3.24,0.628,6.387,0.945,9.45,0.945c4.678,0,8.593-0.903,11.745-2.7
			c3.147-1.802,5.94-4.771,8.37-8.91c2.43-4.143,4.813-9.543,7.155-16.2l-54-135.81h33.75l35.37,96.93h1.62l34.29-96.93h31.05
			l-51.03,131.76c-3.961,10.437-8.328,19.934-13.095,28.485c-4.771,8.547-10.441,15.344-17.01,20.385
			C284.113,328.003,276.059,330.526,266.521,330.526z"/>
		<path d="M446.07,283.006c-10.441,0-19.98-2.523-28.62-7.56c-8.64-5.037-15.572-12.867-20.79-23.49
			c-5.223-10.619-7.83-24.207-7.83-40.77v-2.97c0-15.12,2.472-27.764,7.425-37.935c4.949-10.167,11.518-17.82,19.71-22.95
			c8.189-5.13,17.234-7.695,27.135-7.695c9.72,0,17.997,1.848,24.84,5.535c6.839,3.691,12.057,8.416,15.66,14.175v-73.44h31.32
			v194.4h-24.3l-3.78-18.63c-4.501,6.48-10.083,11.656-16.74,15.525C463.439,281.069,455.428,283.006,446.07,283.006z
			 M452.281,261.676c5.758,0,10.977-1.392,15.66-4.185c4.679-2.789,8.458-7.244,11.34-13.365c2.877-6.117,4.32-14.128,4.32-24.03
			v-19.17c0-8.817-1.396-16.154-4.185-22.005c-2.793-5.848-6.573-10.214-11.34-13.095c-4.771-2.877-10.037-4.32-15.795-4.32
			c-8.64,0-15.888,3.286-21.735,9.855c-5.851,6.573-8.775,16.428-8.775,29.565v18.9c0,9.901,1.35,17.913,4.05,24.03
			c2.7,6.122,6.345,10.623,10.935,13.5C441.346,260.237,446.518,261.676,452.281,261.676z"/>
		<path d="M554.877,280.305v-137.97h23.49l4.05,20.25c0.358-0.54,1.257-1.979,2.7-4.32c1.438-2.337,3.687-4.949,6.75-7.83
			c3.059-2.877,6.927-5.4,11.61-7.56c4.679-2.16,10.349-3.24,17.01-3.24c9.539,0,17.322,1.89,23.355,5.67
			c6.029,3.78,10.53,8.957,13.5,15.525c2.97,6.573,4.455,14.086,4.455,22.545c0,1.983-0.093,4.008-0.27,6.075
			c-0.181,2.071-0.363,3.826-0.54,5.265h-26.46v-5.4c0-3.78-0.721-7.648-2.16-11.61c-1.443-3.957-3.873-7.29-7.29-9.99
			c-3.421-2.7-8.193-4.05-14.31-4.05c-4.501,0-8.328,0.945-11.475,2.835c-3.151,1.89-5.716,4.278-7.695,7.155
			c-1.983,2.881-3.375,5.986-4.185,9.315c-0.81,3.333-1.215,6.438-1.215,9.315v88.02H554.877z"/>
		<path d="M724.164,283.006c-7.383,0-14.445-1.173-21.195-3.51c-6.75-2.337-12.285-6.345-16.605-12.015
			c-4.32-5.67-6.48-13.365-6.48-23.085c0-9.897,2.202-17.908,6.615-24.03c4.409-6.117,10.665-10.8,18.765-14.04
			c8.1-3.24,17.82-5.442,29.16-6.615c11.34-1.168,23.938-1.755,37.8-1.755v-12.96c0-8.999-2.295-15.344-6.885-19.035
			c-4.59-3.687-11.568-5.535-20.925-5.535c-7.742,0-14.58,1.713-20.52,5.13c-5.94,3.421-8.91,8.821-8.91,16.2v2.7h-30.24
			c-0.182-0.717-0.27-1.574-0.27-2.565c0-0.987,0-1.932,0-2.835c0-7.918,2.472-14.85,7.425-20.79
			c4.949-5.94,11.833-10.53,20.655-13.77c8.817-3.24,18.9-4.86,30.24-4.86h4.59c18.719,0,32.67,3.691,41.85,11.07
			c9.18,7.383,13.77,17.731,13.77,31.05v70.47c0,3.421,0.81,5.852,2.43,7.29c1.62,1.443,3.417,2.16,5.4,2.16
			c1.797,0,3.733-0.359,5.805-1.08c2.067-0.717,4.003-1.527,5.805-2.43v19.17c-2.341,1.802-5.312,3.194-8.91,4.185
			c-3.603,0.987-7.922,1.485-12.96,1.485c-5.94,0-10.846-1.08-14.715-3.24c-3.873-2.16-6.796-5.083-8.775-8.775
			c-1.983-3.687-3.151-7.872-3.51-12.555c-5.223,7.742-11.973,13.77-20.25,18.09C745.042,280.845,735.323,283.006,724.164,283.006z
			 M737.664,261.676c5.758,0,11.247-1.304,16.47-3.915c5.219-2.607,9.539-6.522,12.96-11.745c3.417-5.219,5.13-11.787,5.13-19.71
			v-10.53c-12.602,0-23.401,0.675-32.4,2.025c-9.002,1.35-15.841,3.826-20.52,7.425c-4.683,3.603-7.02,9.003-7.02,16.2
			c0,7.201,2.16,12.378,6.48,15.525C723.084,260.102,729.382,261.676,737.664,261.676z"/>
		<path d="M913.429,280.305V95.085h33.48v77.22h74.79v-77.22h33.48v185.22h-33.21v-81h-74.79v81H913.429z"/>
		<path d="M1153.46,283.006c-12.602,0-23.671-2.658-33.21-7.965c-9.542-5.307-16.968-13.095-22.275-23.355
			c-5.311-10.26-7.965-22.68-7.965-37.26v-6.21c0-14.58,2.835-27,8.505-37.26c5.67-10.26,13.407-18.043,23.22-23.355
			c9.809-5.307,21.014-7.965,33.615-7.965h3.51c11.698,0,21.958,2.388,30.78,7.155c8.817,4.771,15.66,11.568,20.52,20.385
			c4.86,8.821,7.29,19.17,7.29,31.05v17.01h-94.77c0,9.542,1.257,17.82,3.78,24.84c2.519,7.02,6.252,12.378,11.205,16.065
			c4.949,3.691,11.112,5.535,18.495,5.535c6.117,0,11.563-1.215,16.335-3.645c4.767-2.43,8.547-6.075,11.34-10.935
			c2.789-4.86,4.185-10.889,4.185-18.09h29.43c0,10.8-2.7,20.25-8.1,28.35c-5.4,8.1-12.69,14.403-21.87,18.9
			c-9.18,4.497-19.622,6.75-31.32,6.75H1153.46z M1122.95,197.955h63.72c0-12.597-2.747-21.912-8.235-27.945
			c-5.493-6.029-13.006-9.045-22.545-9.045c-9.003,0-16.605,3.105-22.815,9.315S1123.49,185.717,1122.95,197.955z"/>
		<path d="M1287.647,283.006c-7.383,0-14.445-1.173-21.195-3.51c-6.75-2.337-12.285-6.345-16.605-12.015
			c-4.32-5.67-6.48-13.365-6.48-23.085c0-9.897,2.202-17.908,6.615-24.03c4.409-6.117,10.665-10.8,18.765-14.04
			c8.1-3.24,17.82-5.442,29.16-6.615c11.34-1.168,23.938-1.755,37.8-1.755v-12.96c0-8.999-2.295-15.344-6.885-19.035
			c-4.59-3.687-11.568-5.535-20.925-5.535c-7.742,0-14.58,1.713-20.52,5.13c-5.94,3.421-8.91,8.821-8.91,16.2v2.7h-30.24
			c-0.182-0.717-0.27-1.574-0.27-2.565c0-0.987,0-1.932,0-2.835c0-7.918,2.472-14.85,7.425-20.79
			c4.949-5.94,11.833-10.53,20.655-13.77c8.817-3.24,18.9-4.86,30.24-4.86h4.59c18.719,0,32.67,3.691,41.85,11.07
			c9.18,7.383,13.77,17.731,13.77,31.05v70.47c0,3.421,0.81,5.852,2.43,7.29c1.62,1.443,3.417,2.16,5.4,2.16
			c1.797,0,3.733-0.359,5.805-1.08c2.067-0.717,4.003-1.527,5.805-2.43v19.17c-2.341,1.802-5.312,3.194-8.91,4.185
			c-3.603,0.987-7.922,1.485-12.96,1.485c-5.94,0-10.846-1.08-14.715-3.24c-3.873-2.16-6.796-5.083-8.775-8.775
			c-1.983-3.687-3.151-7.872-3.51-12.555c-5.223,7.742-11.973,13.77-20.25,18.09
			C1308.525,280.845,1298.806,283.006,1287.647,283.006z M1301.147,261.676c5.758,0,11.247-1.304,16.47-3.915
			c5.219-2.607,9.539-6.522,12.96-11.745c3.417-5.219,5.13-11.787,5.13-19.71v-10.53c-12.602,0-23.401,0.675-32.4,2.025
			c-9.002,1.35-15.841,3.826-20.52,7.425c-4.683,3.603-7.02,9.003-7.02,16.2c0,7.201,2.16,12.378,6.48,15.525
			C1286.567,260.102,1292.865,261.676,1301.147,261.676z"/>
		<path d="M1465.574,283.006c-10.441,0-19.98-2.523-28.62-7.56s-15.571-12.867-20.79-23.49c-5.223-10.619-7.83-24.207-7.83-40.77
			v-2.97c0-15.12,2.473-27.764,7.425-37.935c4.949-10.167,11.518-17.82,19.71-22.95c8.189-5.13,17.234-7.695,27.136-7.695
			c9.72,0,17.997,1.848,24.84,5.535c6.839,3.691,12.057,8.416,15.66,14.175v-73.44h31.319v194.4h-24.3l-3.78-18.63
			c-4.501,6.48-10.082,11.656-16.739,15.525C1482.942,281.069,1474.932,283.006,1465.574,283.006z M1471.784,261.676
			c5.759,0,10.978-1.392,15.66-4.185c4.679-2.789,8.458-7.244,11.34-13.365c2.877-6.117,4.32-14.128,4.32-24.03v-19.17
			c0-8.817-1.396-16.154-4.186-22.005c-2.793-5.848-6.572-10.214-11.34-13.095c-4.771-2.877-10.036-4.32-15.795-4.32
			c-8.64,0-15.888,3.286-21.735,9.855c-5.851,6.573-8.774,16.428-8.774,29.565v18.9c0,9.901,1.35,17.913,4.05,24.03
			c2.7,6.122,6.345,10.623,10.935,13.5C1460.85,260.237,1466.021,261.676,1471.784,261.676z"/>
		<path d="M1637.02,280.305V95.085h28.08l72.09,108.27l10.26,17.28l1.08-0.27V95.085h30.24v185.22h-28.891l-74.25-111.78
			l-7.291-12.96l-1.078,0.27v124.47H1637.02z"/>
		<path d="M1876.777,283.006c-12.602,0-23.671-2.658-33.21-7.965c-9.543-5.307-16.968-13.095-22.274-23.355
			c-5.312-10.26-7.966-22.68-7.966-37.26v-6.21c0-14.58,2.836-27,8.506-37.26c5.67-10.26,13.407-18.043,23.22-23.355
			c9.809-5.307,21.014-7.965,33.615-7.965h3.51c11.698,0,21.958,2.388,30.78,7.155c8.816,4.771,15.659,11.568,20.52,20.385
			c4.86,8.821,7.29,19.17,7.29,31.05v17.01h-94.77c0,9.542,1.257,17.82,3.779,24.84c2.519,7.02,6.253,12.378,11.205,16.065
			c4.949,3.691,11.112,5.535,18.495,5.535c6.117,0,11.563-1.215,16.335-3.645c4.768-2.43,8.547-6.075,11.34-10.935
			c2.789-4.86,4.186-10.889,4.186-18.09h29.43c0,10.8-2.7,20.25-8.1,28.35c-5.4,8.1-12.69,14.403-21.87,18.9
			c-9.181,4.497-19.622,6.75-31.32,6.75H1876.777z M1846.268,197.955h63.72c0-12.597-2.746-21.912-8.234-27.945
			c-5.493-6.029-13.007-9.045-22.545-9.045c-9.003,0-16.605,3.105-22.815,9.315S1846.808,185.717,1846.268,197.955z"/>
		<path d="M2018.255,283.006c-7.201,0-13.635-1.08-19.305-3.24s-10.083-5.712-13.23-10.665c-3.151-4.949-4.725-11.475-4.725-19.575
			v-83.16h-15.12v-24.03h15.931l11.069-44.01h19.44v44.01h32.13v24.03h-32.13v76.95c0,7.923,1.62,12.96,4.859,15.12
			c3.24,2.16,6.75,3.24,10.53,3.24c1.979,0,4.726-0.447,8.235-1.35c3.51-0.898,6.345-1.797,8.505-2.7v20.25
			c-2.16,1.08-4.771,2.025-7.83,2.835c-3.062,0.81-6.21,1.393-9.45,1.755C2023.925,282.824,2020.955,283.006,2018.255,283.006z"/>
		<path d="M2106.003,280.305l-44.01-137.97h32.67l28.62,93.69h1.35l29.16-93.69h32.67l29.16,93.69h1.35l28.62-93.69h30.24
			l-44.01,137.97h-32.94l-29.16-92.34h-1.35l-28.891,92.34H2106.003z"/>
		<path d="M2358.991,283.006c-12.243,0-23.221-2.789-32.94-8.37c-9.72-5.577-17.326-13.589-22.814-24.03
			c-5.493-10.437-8.235-22.769-8.235-36.99v-4.59c0-14.399,2.742-26.772,8.235-37.125c5.488-10.349,13.048-18.314,22.68-23.895
			c9.627-5.577,20.562-8.37,32.805-8.37h4.32c12.42,0,23.443,2.793,33.075,8.37c9.627,5.581,17.187,13.546,22.68,23.895
			c5.488,10.353,8.235,22.726,8.235,37.125v4.59c0,14.221-2.747,26.553-8.235,36.99c-5.493,10.441-13.053,18.453-22.68,24.03
			c-9.632,5.582-20.566,8.37-32.806,8.37H2358.991z M2360.881,261.676c6.299,0,11.922-1.485,16.875-4.455
			c4.948-2.97,8.91-7.425,11.88-13.365c2.97-5.94,4.455-13.137,4.455-21.6v-21.87c0-8.64-1.485-15.884-4.455-21.735
			c-2.97-5.847-6.932-10.26-11.88-13.23c-4.953-2.97-10.576-4.455-16.875-4.455c-6.121,0-11.656,1.485-16.604,4.455
			c-4.953,2.97-8.91,7.383-11.881,13.23c-2.97,5.851-4.454,13.095-4.454,21.735v21.87c0,8.462,1.484,15.66,4.454,21.6
			c2.971,5.94,6.928,10.395,11.881,13.365C2349.225,260.19,2354.76,261.676,2360.881,261.676z"/>
		<path d="M2461.048,280.305v-137.97h23.489l4.05,20.25c0.359-0.54,1.258-1.979,2.7-4.32c1.438-2.337,3.688-4.949,6.75-7.83
			c3.059-2.877,6.928-5.4,11.61-7.56c4.679-2.16,10.349-3.24,17.01-3.24c9.539,0,17.322,1.89,23.355,5.67
			c6.028,3.78,10.529,8.957,13.5,15.525c2.97,6.573,4.455,14.086,4.455,22.545c0,1.983-0.093,4.008-0.271,6.075
			c-0.182,2.071-0.362,3.826-0.54,5.265h-26.46v-5.4c0-3.78-0.722-7.648-2.16-11.61c-1.442-3.957-3.872-7.29-7.29-9.99
			c-3.421-2.7-8.192-4.05-14.31-4.05c-4.502,0-8.328,0.945-11.476,2.835c-3.151,1.89-5.716,4.278-7.694,7.155
			c-1.983,2.881-3.375,5.986-4.186,9.315c-0.81,3.333-1.215,6.438-1.215,9.315v88.02H2461.048z"/>
		<path d="M2594.425,280.305v-194.4h31.319v127.98l59.13-71.55h36.721l-54.271,63.45l56.97,74.52h-37.8l-40.77-53.19l-19.98,20.52
			v32.67H2594.425z"/>
	</g>
	<g>
		<path d="M1024.284,967.384l30.94-46.93l-27.95-42.25h18.72l19.89,30.68h0.39l20.02-30.68h17.29l-28.08,42.38l30.94,46.8h-18.85
			l-22.75-35.1h-0.39l-22.75,35.1H1024.284z"/>
	</g>
	<g>
		<path d="M2233.229,870.831v-34.32l-30.811-54.86h18.2l21.19,39.391h0.39l21.58-39.391h16.38l-30.81,54.86v34.32H2233.229z"/>
	</g>
	<g>
		<path d="M824.374,504.895v-56.252h10.168v23.452h22.714v-23.452h10.168v56.252h-10.086v-24.6h-22.714v24.6H824.374z"/>
		<path d="M891.122,505.715c-2.242,0-4.387-0.356-6.437-1.066c-2.05-0.71-3.731-1.927-5.043-3.649s-1.968-4.059-1.968-7.011
			c0-3.006,0.669-5.439,2.009-7.298c1.339-1.858,3.239-3.28,5.699-4.264c2.46-0.984,5.412-1.653,8.856-2.009
			c3.444-0.355,7.27-0.533,11.48-0.533v-3.936c0-2.733-0.697-4.66-2.091-5.781c-1.394-1.12-3.513-1.681-6.355-1.681
			c-2.351,0-4.428,0.521-6.232,1.558c-1.804,1.039-2.706,2.679-2.706,4.92v0.82h-9.184c-0.055-0.218-0.082-0.478-0.082-0.779
			c0-0.3,0-0.586,0-0.861c0-2.405,0.751-4.51,2.255-6.314c1.503-1.804,3.594-3.198,6.273-4.182c2.678-0.984,5.74-1.476,9.184-1.476
			h1.394c5.685,0,9.922,1.121,12.71,3.362c2.788,2.242,4.182,5.385,4.182,9.43v21.402c0,1.039,0.246,1.777,0.738,2.214
			c0.492,0.438,1.038,0.656,1.64,0.656c0.546,0,1.134-0.109,1.763-0.328c0.628-0.218,1.216-0.464,1.763-0.738v5.822
			c-0.711,0.547-1.613,0.97-2.706,1.271c-1.094,0.3-2.406,0.451-3.936,0.451c-1.804,0-3.294-0.328-4.469-0.984
			c-1.176-0.656-2.064-1.544-2.665-2.665c-0.602-1.12-0.957-2.391-1.066-3.813c-1.586,2.351-3.636,4.182-6.15,5.494
			C897.463,505.059,894.511,505.715,891.122,505.715z M895.222,499.237c1.749,0,3.416-0.396,5.002-1.189
			c1.585-0.792,2.897-1.98,3.936-3.567c1.038-1.585,1.558-3.58,1.558-5.986v-3.198c-3.827,0-7.107,0.205-9.84,0.615
			c-2.734,0.41-4.811,1.162-6.232,2.255c-1.422,1.094-2.132,2.734-2.132,4.92c0,2.187,0.656,3.759,1.968,4.715
			C890.794,498.76,892.707,499.237,895.222,499.237z"/>
		<path d="M944.339,505.715c-2.788,0-5.248-0.342-7.38-1.025c-2.132-0.683-3.936-1.599-5.412-2.747s-2.597-2.46-3.362-3.936
			c-0.766-1.476-1.148-3.006-1.148-4.592c0-0.328,0-0.601,0-0.82c0-0.218,0.027-0.519,0.082-0.902h8.2
			c-0.055,0.164-0.082,0.315-0.082,0.451c0,0.137,0,0.26,0,0.369c0,1.531,0.492,2.788,1.476,3.772
			c0.984,0.984,2.282,1.722,3.895,2.214c1.612,0.492,3.403,0.738,5.371,0.738c1.64,0,3.198-0.218,4.674-0.656
			c1.476-0.437,2.678-1.079,3.608-1.927c0.929-0.847,1.394-1.898,1.394-3.157c0-1.421-0.492-2.514-1.476-3.28
			c-0.984-0.765-2.283-1.366-3.895-1.804c-1.613-0.437-3.39-0.82-5.33-1.148c-1.941-0.328-3.895-0.724-5.863-1.189
			c-1.968-0.464-3.759-1.12-5.371-1.968c-1.613-0.847-2.911-2.009-3.895-3.485s-1.476-3.416-1.476-5.822
			c0-1.968,0.437-3.744,1.312-5.33c0.874-1.585,2.104-2.911,3.69-3.977c1.585-1.066,3.444-1.886,5.576-2.46
			c2.132-0.574,4.428-0.861,6.888-0.861h1.312c2.296,0,4.44,0.301,6.437,0.902c1.995,0.602,3.731,1.422,5.207,2.46
			c1.476,1.039,2.624,2.242,3.444,3.608c0.82,1.367,1.23,2.816,1.23,4.346c0,0.274-0.014,0.574-0.041,0.902
			c-0.028,0.328-0.041,0.547-0.041,0.656h-8.282v-0.82c0-0.546-0.137-1.134-0.41-1.763c-0.274-0.627-0.766-1.23-1.476-1.804
			c-0.711-0.574-1.654-1.052-2.829-1.435c-1.176-0.382-2.665-0.574-4.469-0.574c-1.64,0-3.034,0.164-4.182,0.492
			s-2.078,0.752-2.788,1.271c-0.711,0.52-1.217,1.08-1.517,1.681c-0.301,0.602-0.451,1.176-0.451,1.722
			c0,1.258,0.492,2.242,1.476,2.952c0.984,0.711,2.296,1.271,3.936,1.681c1.64,0.41,3.444,0.766,5.412,1.066
			c1.968,0.301,3.922,0.684,5.863,1.148c1.94,0.465,3.731,1.135,5.371,2.009c1.64,0.875,2.952,2.05,3.936,3.526
			c0.984,1.476,1.476,3.417,1.476,5.822c0,2.515-0.479,4.661-1.435,6.437c-0.957,1.777-2.283,3.185-3.977,4.223
			c-1.695,1.039-3.622,1.804-5.781,2.296c-2.16,0.492-4.442,0.738-6.847,0.738H944.339z"/>
		<path d="M974.269,504.895v-59.04h9.512v22.632c1.53-2.077,3.403-3.649,5.617-4.715c2.214-1.066,4.578-1.599,7.093-1.599
			c2.788,0,5.261,0.547,7.421,1.64c2.159,1.094,3.867,2.693,5.125,4.797c1.257,2.105,1.886,4.688,1.886,7.749v28.536h-9.512v-26.814
			c0-3.116-0.738-5.343-2.214-6.683c-1.476-1.339-3.499-2.009-6.068-2.009c-1.695,0-3.253,0.424-4.674,1.271
			c-1.422,0.848-2.556,1.982-3.403,3.403c-0.848,1.422-1.271,3.034-1.271,4.838v25.994H974.269z"/>
		<path d="M1053.972,504.895v-48.38h-16.81v-7.872h43.788v7.872h-16.81v48.38H1053.972z"/>
		<path d="M1088.001,453.563v-7.708h10.004v7.708H1088.001z M1088.248,504.895v-41.902h9.512v41.902H1088.248z"/>
		<path d="M1110.469,504.895v-41.902h7.134l1.312,6.15c1.421-2.186,3.116-3.895,5.084-5.125c1.969-1.23,4.291-1.845,6.971-1.845
			c2.732,0,5.166,0.533,7.298,1.599s3.799,2.802,5.002,5.207c1.257-2.077,2.938-3.731,5.043-4.961
			c2.104-1.23,4.604-1.845,7.503-1.845c2.678,0,5.056,0.547,7.134,1.64c2.077,1.094,3.703,2.693,4.879,4.797
			c1.175,2.105,1.764,4.688,1.764,7.749v28.536h-9.513v-26.486c0-3.17-0.629-5.453-1.886-6.847
			c-1.258-1.394-3.062-2.091-5.412-2.091c-1.531,0-2.898,0.397-4.1,1.189c-1.203,0.793-2.146,1.9-2.829,3.321
			c-0.685,1.422-1.025,3.034-1.025,4.838v26.076h-9.512v-26.486c0-3.17-0.644-5.453-1.927-6.847
			c-1.285-1.394-3.104-2.091-5.453-2.091c-1.531,0-2.898,0.397-4.101,1.189c-1.203,0.793-2.146,1.9-2.828,3.321
			c-0.685,1.422-1.025,3.034-1.025,4.838v26.076H1110.469z"/>
		<path d="M1199.274,505.715c-3.827,0-7.189-0.807-10.086-2.419c-2.898-1.612-5.153-3.977-6.766-7.093
			c-1.612-3.116-2.419-6.888-2.419-11.316v-1.886c0-4.428,0.861-8.2,2.583-11.316c1.723-3.116,4.072-5.48,7.053-7.093
			c2.979-1.612,6.382-2.419,10.209-2.419h1.065c3.553,0,6.669,0.726,9.349,2.173c2.678,1.449,4.756,3.513,6.231,6.191
			c1.477,2.679,2.214,5.822,2.214,9.43v5.166h-28.782c0,2.898,0.382,5.412,1.148,7.544c0.765,2.132,1.898,3.759,3.403,4.879
			c1.503,1.121,3.375,1.681,5.617,1.681c1.857,0,3.512-0.369,4.961-1.107c1.447-0.738,2.596-1.845,3.443-3.321
			c0.847-1.476,1.271-3.307,1.271-5.494h8.938c0,3.28-0.819,6.15-2.46,8.61c-1.64,2.46-3.854,4.375-6.642,5.74
			s-5.959,2.05-9.512,2.05H1199.274z M1190.007,479.885h19.353c0-3.826-0.834-6.655-2.501-8.487
			c-1.668-1.831-3.95-2.747-6.847-2.747c-2.734,0-5.043,0.943-6.93,2.829C1191.197,473.366,1190.171,476.168,1190.007,479.885z"/>
		<path d="M1248.144,504.895v-56.252h10.168v48.38h24.601l1.229,7.872H1248.144z"/>
		<path d="M1308.825,505.715c-3.719,0-7.052-0.847-10.004-2.542c-2.952-1.694-5.263-4.127-6.93-7.298
			c-1.668-3.17-2.501-6.915-2.501-11.234v-1.394c0-4.373,0.833-8.131,2.501-11.275c1.667-3.143,3.963-5.562,6.889-7.257
			c2.924-1.694,6.244-2.542,9.963-2.542h1.312c3.772,0,7.12,0.848,10.045,2.542c2.924,1.695,5.22,4.114,6.889,7.257
			c1.667,3.144,2.501,6.902,2.501,11.275v1.394c0,4.319-0.834,8.064-2.501,11.234c-1.669,3.171-3.965,5.604-6.889,7.298
			c-2.925,1.695-6.246,2.542-9.963,2.542H1308.825z M1309.399,499.237c1.912,0,3.62-0.451,5.125-1.353
			c1.503-0.902,2.705-2.255,3.607-4.059c0.902-1.804,1.354-3.99,1.354-6.56v-6.642c0-2.624-0.451-4.824-1.354-6.601
			c-0.902-1.776-2.104-3.116-3.607-4.018c-1.505-0.902-3.213-1.353-5.125-1.353c-1.859,0-3.541,0.451-5.044,1.353
			c-1.504,0.902-2.705,2.242-3.607,4.018c-0.902,1.777-1.354,3.977-1.354,6.601v6.642c0,2.57,0.451,4.756,1.354,6.56
			c0.902,1.804,2.104,3.157,3.607,4.059C1305.858,498.786,1307.54,499.237,1309.399,499.237z"/>
		<path d="M1356.383,505.715c-3.499,0-6.642-0.861-9.43-2.583c-2.788-1.722-4.976-4.141-6.561-7.257
			c-1.586-3.116-2.378-6.724-2.378-10.824v-2.214c0-3.116,0.492-5.931,1.477-8.446c0.983-2.514,2.337-4.687,4.059-6.519
			c1.723-1.831,3.731-3.239,6.027-4.223s4.756-1.476,7.38-1.476h1.229c3.554,0,6.643,0.711,9.267,2.132
			c2.624,1.422,4.66,3.417,6.108,5.986c1.448,2.57,2.174,5.631,2.174,9.184h-8.446c0-2.405-0.397-4.414-1.189-6.027
			c-0.793-1.612-1.886-2.815-3.279-3.608c-1.395-0.792-3.021-1.189-4.879-1.189c-2.844,0-5.207,0.957-7.094,2.87
			c-1.886,1.914-2.829,4.811-2.829,8.692v7.216c0,3.882,0.915,6.82,2.747,8.815c1.831,1.996,4.25,2.993,7.258,2.993
			c1.968,0,3.676-0.369,5.125-1.107c1.447-0.738,2.568-1.898,3.361-3.485c0.792-1.585,1.189-3.662,1.189-6.232h8.036
			c0,3.663-0.794,6.793-2.378,9.389c-1.587,2.597-3.745,4.565-6.479,5.904c-2.734,1.339-5.822,2.009-9.266,2.009H1356.383z"/>
		<path d="M1385.493,504.895v-59.04h9.511v38.868l17.958-21.73h11.152l-16.482,19.27l17.302,22.632h-11.479l-12.382-16.154
			l-6.068,6.232v9.922H1385.493z"/>
		<path d="M1448.386,505.715c-3.827,0-7.189-0.807-10.086-2.419c-2.898-1.612-5.153-3.977-6.766-7.093
			c-1.612-3.116-2.419-6.888-2.419-11.316v-1.886c0-4.428,0.861-8.2,2.583-11.316c1.723-3.116,4.072-5.48,7.053-7.093
			c2.979-1.612,6.382-2.419,10.209-2.419h1.065c3.553,0,6.669,0.726,9.349,2.173c2.678,1.449,4.756,3.513,6.231,6.191
			c1.477,2.679,2.214,5.822,2.214,9.43v5.166h-28.782c0,2.898,0.382,5.412,1.148,7.544c0.765,2.132,1.898,3.759,3.403,4.879
			c1.503,1.121,3.375,1.681,5.617,1.681c1.857,0,3.512-0.369,4.961-1.107c1.447-0.738,2.596-1.845,3.443-3.321
			c0.847-1.476,1.271-3.307,1.271-5.494h8.938c0,3.28-0.819,6.15-2.46,8.61c-1.64,2.46-3.854,4.375-6.642,5.74
			s-5.959,2.05-9.512,2.05H1448.386z M1439.119,479.885h19.353c0-3.826-0.834-6.655-2.501-8.487
			c-1.668-1.831-3.95-2.747-6.847-2.747c-2.734,0-5.043,0.943-6.93,2.829C1440.309,473.366,1439.283,476.168,1439.119,479.885z"/>
		<path d="M1493.813,505.715c-3.172,0-6.068-0.766-8.692-2.296s-4.729-3.908-6.314-7.134c-1.586-3.225-2.378-7.352-2.378-12.382
			v-0.902c0-4.592,0.751-8.432,2.255-11.521c1.503-3.088,3.498-5.412,5.986-6.97c2.487-1.558,5.234-2.337,8.241-2.337
			c2.952,0,5.466,0.562,7.544,1.681c2.077,1.121,3.662,2.556,4.756,4.305v-22.304h9.512v59.04h-7.38l-1.147-5.658
			c-1.367,1.968-3.062,3.541-5.084,4.715C1499.088,505.127,1496.655,505.715,1493.813,505.715z M1495.699,499.237
			c1.749,0,3.334-0.423,4.756-1.271c1.421-0.847,2.569-2.2,3.444-4.059c0.873-1.858,1.312-4.291,1.312-7.298v-5.822
			c0-2.678-0.424-4.906-1.271-6.683c-0.849-1.776-1.996-3.102-3.444-3.977c-1.449-0.874-3.048-1.312-4.797-1.312
			c-2.624,0-4.825,0.998-6.602,2.993c-1.776,1.996-2.665,4.989-2.665,8.979v5.74c0,3.007,0.41,5.44,1.23,7.298
			c0.82,1.859,1.927,3.226,3.321,4.1C1492.378,498.801,1493.949,499.237,1495.699,499.237z"/>
		<path d="M1566.873,505.715c-3.227,0-6.246-0.465-9.061-1.394c-2.816-0.929-5.276-2.432-7.38-4.51
			c-2.105-2.077-3.76-4.797-4.962-8.159c-1.203-3.362-1.804-7.475-1.804-12.341v-5.084c0-4.756,0.601-8.815,1.804-12.177
			c1.202-3.362,2.856-6.095,4.962-8.2c2.104-2.104,4.536-3.635,7.298-4.592c2.76-0.956,5.726-1.435,8.896-1.435h1.23
			c2.952,0,5.753,0.41,8.404,1.23c2.651,0.82,4.988,2.119,7.012,3.895c2.021,1.777,3.62,4.1,4.797,6.97
			c1.175,2.87,1.763,6.355,1.763,10.455h-9.594c0-3.881-0.562-6.874-1.681-8.979c-1.121-2.104-2.665-3.58-4.634-4.428
			c-1.968-0.847-4.21-1.271-6.724-1.271c-1.859,0-3.581,0.274-5.166,0.82c-1.586,0.547-2.952,1.449-4.1,2.706
			c-1.148,1.258-2.038,2.939-2.665,5.043c-0.63,2.105-0.943,4.715-0.943,7.831v9.348c0,4.155,0.546,7.421,1.64,9.799
			c1.093,2.378,2.61,4.073,4.552,5.084c1.939,1.012,4.168,1.517,6.683,1.517c2.678,0,5.015-0.423,7.011-1.271
			c1.995-0.847,3.553-2.323,4.674-4.428c1.12-2.104,1.682-5.07,1.682-8.897h9.266c0,3.936-0.574,7.326-1.722,10.168
			c-1.148,2.843-2.721,5.166-4.715,6.97c-1.996,1.804-4.306,3.144-6.93,4.018c-2.624,0.874-5.412,1.312-8.363,1.312H1566.873z"/>
		<path d="M1617.713,505.715c-3.719,0-7.052-0.847-10.004-2.542c-2.952-1.694-5.263-4.127-6.93-7.298
			c-1.668-3.17-2.501-6.915-2.501-11.234v-1.394c0-4.373,0.833-8.131,2.501-11.275c1.667-3.143,3.963-5.562,6.889-7.257
			c2.924-1.694,6.244-2.542,9.963-2.542h1.312c3.772,0,7.12,0.848,10.045,2.542c2.924,1.695,5.22,4.114,6.889,7.257
			c1.667,3.144,2.501,6.902,2.501,11.275v1.394c0,4.319-0.834,8.064-2.501,11.234c-1.669,3.171-3.965,5.604-6.889,7.298
			c-2.925,1.695-6.246,2.542-9.963,2.542H1617.713z M1618.287,499.237c1.912,0,3.62-0.451,5.125-1.353
			c1.503-0.902,2.705-2.255,3.607-4.059c0.902-1.804,1.354-3.99,1.354-6.56v-6.642c0-2.624-0.451-4.824-1.354-6.601
			c-0.902-1.776-2.104-3.116-3.607-4.018c-1.505-0.902-3.213-1.353-5.125-1.353c-1.859,0-3.541,0.451-5.044,1.353
			c-1.504,0.902-2.705,2.242-3.607,4.018c-0.902,1.777-1.354,3.977-1.354,6.601v6.642c0,2.57,0.451,4.756,1.354,6.56
			c0.902,1.804,2.104,3.157,3.607,4.059C1614.746,498.786,1616.428,499.237,1618.287,499.237z"/>
		<path d="M1648.708,504.895v-41.902h6.97l1.229,6.15c1.585-2.296,3.554-4.031,5.904-5.207c2.35-1.175,4.974-1.763,7.872-1.763
			c2.896,0,5.438,0.547,7.626,1.64c2.186,1.094,3.896,2.693,5.125,4.797c1.23,2.105,1.845,4.688,1.845,7.749v28.536h-9.512v-26.814
			c0-3.116-0.726-5.343-2.173-6.683c-1.449-1.339-3.458-2.009-6.027-2.009c-1.695,0-3.253,0.424-4.674,1.271
			c-1.422,0.848-2.556,1.982-3.403,3.403c-0.848,1.422-1.271,3.034-1.271,4.838v25.994H1648.708z"/>
		<path d="M1710.454,505.715c-2.188,0-4.142-0.328-5.863-0.984c-1.723-0.656-3.062-1.735-4.019-3.239
			c-0.957-1.503-1.435-3.485-1.435-5.945v-25.256h-4.592v-7.298h4.838l3.362-13.366h5.903v13.366h9.758v7.298h-9.758v23.37
			c0,2.406,0.492,3.936,1.477,4.592c0.983,0.656,2.05,0.984,3.197,0.984c0.602,0,1.436-0.136,2.501-0.41
			c1.066-0.273,1.928-0.546,2.583-0.82v6.15c-0.655,0.328-1.448,0.615-2.378,0.861s-1.886,0.423-2.87,0.533
			C1712.176,505.66,1711.273,505.715,1710.454,505.715z"/>
		<path d="M1728.329,504.895v-41.902h7.134l1.229,6.15c0.109-0.164,0.382-0.601,0.82-1.312c0.437-0.71,1.12-1.503,2.05-2.378
			c0.929-0.874,2.104-1.64,3.526-2.296c1.421-0.656,3.143-0.984,5.166-0.984c2.896,0,5.261,0.574,7.093,1.722
			c1.831,1.148,3.198,2.72,4.1,4.715c0.902,1.997,1.354,4.278,1.354,6.847c0,0.602-0.028,1.217-0.082,1.845
			c-0.055,0.629-0.11,1.162-0.164,1.599h-8.036v-1.64c0-1.148-0.219-2.323-0.656-3.526c-0.438-1.202-1.176-2.214-2.214-3.034
			c-1.039-0.82-2.488-1.23-4.346-1.23c-1.367,0-2.529,0.287-3.485,0.861c-0.957,0.574-1.735,1.299-2.337,2.173
			c-0.602,0.875-1.024,1.818-1.271,2.829c-0.246,1.012-0.369,1.955-0.369,2.829v26.732H1728.329z"/>
		<path d="M1779.742,505.715c-2.242,0-4.387-0.356-6.437-1.066s-3.731-1.927-5.043-3.649c-1.312-1.722-1.968-4.059-1.968-7.011
			c0-3.006,0.668-5.439,2.009-7.298c1.339-1.858,3.239-3.28,5.699-4.264c2.46-0.984,5.412-1.653,8.855-2.009
			c3.444-0.355,7.27-0.533,11.48-0.533v-3.936c0-2.733-0.697-4.66-2.092-5.781c-1.394-1.12-3.513-1.681-6.354-1.681
			c-2.352,0-4.428,0.521-6.232,1.558c-1.804,1.039-2.706,2.679-2.706,4.92v0.82h-9.184c-0.055-0.218-0.082-0.478-0.082-0.779
			c0-0.3,0-0.586,0-0.861c0-2.405,0.751-4.51,2.255-6.314c1.503-1.804,3.594-3.198,6.273-4.182c2.678-0.984,5.74-1.476,9.184-1.476
			h1.395c5.685,0,9.922,1.121,12.71,3.362c2.788,2.242,4.182,5.385,4.182,9.43v21.402c0,1.039,0.246,1.777,0.738,2.214
			c0.492,0.438,1.037,0.656,1.64,0.656c0.546,0,1.134-0.109,1.763-0.328c0.628-0.218,1.217-0.464,1.764-0.738v5.822
			c-0.711,0.547-1.613,0.97-2.706,1.271c-1.095,0.3-2.406,0.451-3.937,0.451c-1.804,0-3.294-0.328-4.469-0.984
			c-1.176-0.656-2.064-1.544-2.665-2.665c-0.603-1.12-0.957-2.391-1.065-3.813c-1.587,2.351-3.637,4.182-6.15,5.494
			C1786.083,505.059,1783.132,505.715,1779.742,505.715z M1783.843,499.237c1.749,0,3.416-0.396,5.002-1.189
			c1.585-0.792,2.896-1.98,3.936-3.567c1.038-1.585,1.559-3.58,1.559-5.986v-3.198c-3.827,0-7.107,0.205-9.84,0.615
			c-2.734,0.41-4.812,1.162-6.232,2.255c-1.422,1.094-2.132,2.734-2.132,4.92c0,2.187,0.656,3.759,1.968,4.715
			C1779.415,498.76,1781.327,499.237,1783.843,499.237z"/>
		<path d="M1834.764,505.715c-3.499,0-6.642-0.861-9.43-2.583c-2.788-1.722-4.976-4.141-6.561-7.257
			c-1.586-3.116-2.378-6.724-2.378-10.824v-2.214c0-3.116,0.492-5.931,1.477-8.446c0.983-2.514,2.337-4.687,4.059-6.519
			c1.723-1.831,3.731-3.239,6.027-4.223s4.756-1.476,7.38-1.476h1.229c3.554,0,6.643,0.711,9.267,2.132
			c2.624,1.422,4.66,3.417,6.108,5.986c1.448,2.57,2.174,5.631,2.174,9.184h-8.446c0-2.405-0.397-4.414-1.189-6.027
			c-0.793-1.612-1.886-2.815-3.279-3.608c-1.395-0.792-3.021-1.189-4.879-1.189c-2.844,0-5.207,0.957-7.094,2.87
			c-1.886,1.914-2.829,4.811-2.829,8.692v7.216c0,3.882,0.915,6.82,2.747,8.815c1.831,1.996,4.25,2.993,7.258,2.993
			c1.968,0,3.676-0.369,5.125-1.107c1.447-0.738,2.568-1.898,3.361-3.485c0.792-1.585,1.189-3.662,1.189-6.232h8.036
			c0,3.663-0.794,6.793-2.378,9.389c-1.587,2.597-3.745,4.565-6.479,5.904c-2.734,1.339-5.822,2.009-9.266,2.009H1834.764z"/>
		<path d="M1876.993,505.715c-2.188,0-4.142-0.328-5.863-0.984c-1.723-0.656-3.062-1.735-4.019-3.239
			c-0.957-1.503-1.435-3.485-1.435-5.945v-25.256h-4.592v-7.298h4.838l3.362-13.366h5.903v13.366h9.758v7.298h-9.758v23.37
			c0,2.406,0.492,3.936,1.477,4.592c0.983,0.656,2.05,0.984,3.197,0.984c0.602,0,1.436-0.136,2.501-0.41
			c1.066-0.273,1.928-0.546,2.583-0.82v6.15c-0.655,0.328-1.448,0.615-2.378,0.861s-1.886,0.423-2.87,0.533
			C1878.715,505.66,1877.812,505.715,1876.993,505.715z"/>
		<path d="M1923.321,517.769c-4.211-4.756-7.436-10.114-9.677-16.072c-2.242-5.958-3.361-12.136-3.361-18.532
			c0-6.341,1.119-12.491,3.361-18.45c2.241-5.958,5.466-11.316,9.677-16.072h5.248c-1.915,3.116-3.649,6.588-5.207,10.414
			c-1.559,3.827-2.788,7.79-3.69,11.89c-0.902,4.1-1.353,8.173-1.353,12.218c0,3.991,0.45,8.064,1.353,12.218
			c0.902,4.155,2.118,8.146,3.649,11.972c1.529,3.826,3.279,7.298,5.248,10.414H1923.321z"/>
		<path d="M1938.49,504.895v-56.252h10.168v23.452h22.714v-23.452h10.168v56.252h-10.086v-24.6h-22.714v24.6H1938.49z"/>
		<path d="M2007.288,504.895v-48.38h-16.811v-7.872h43.788v7.872h-16.81v48.38H2007.288z"/>
		<path d="M2043.202,504.895v-56.252h10.168v48.38h24.601l1.229,7.872H2043.202z"/>
		<path d="M2107.735,505.715c-3.227,0-6.246-0.465-9.061-1.394c-2.816-0.929-5.276-2.432-7.38-4.51
			c-2.105-2.077-3.76-4.797-4.962-8.159c-1.203-3.362-1.804-7.475-1.804-12.341v-5.084c0-4.756,0.601-8.815,1.804-12.177
			c1.202-3.362,2.856-6.095,4.962-8.2c2.104-2.104,4.536-3.635,7.298-4.592c2.76-0.956,5.726-1.435,8.896-1.435h1.23
			c2.952,0,5.753,0.41,8.404,1.23c2.651,0.82,4.988,2.119,7.012,3.895c2.021,1.777,3.62,4.1,4.797,6.97
			c1.175,2.87,1.763,6.355,1.763,10.455h-9.594c0-3.881-0.562-6.874-1.681-8.979c-1.121-2.104-2.665-3.58-4.634-4.428
			c-1.968-0.847-4.21-1.271-6.724-1.271c-1.859,0-3.581,0.274-5.166,0.82c-1.586,0.547-2.952,1.449-4.1,2.706
			c-1.148,1.258-2.038,2.939-2.665,5.043c-0.63,2.105-0.943,4.715-0.943,7.831v9.348c0,4.155,0.546,7.421,1.64,9.799
			c1.093,2.378,2.61,4.073,4.552,5.084c1.939,1.012,4.168,1.517,6.683,1.517c2.678,0,5.015-0.423,7.011-1.271
			c1.995-0.847,3.553-2.323,4.674-4.428c1.12-2.104,1.682-5.07,1.682-8.897h9.266c0,3.936-0.574,7.326-1.722,10.168
			c-1.148,2.843-2.721,5.166-4.715,6.97c-1.996,1.804-4.306,3.144-6.93,4.018c-2.624,0.874-5.412,1.312-8.363,1.312H2107.735z"/>
		<path d="M2136.764,517.769c1.968-3.116,3.731-6.588,5.289-10.414c1.559-3.826,2.774-7.817,3.649-11.972
			c0.874-4.154,1.312-8.227,1.312-12.218c0-4.045-0.451-8.118-1.353-12.218c-0.902-4.1-2.119-8.062-3.649-11.89
			c-1.531-3.826-3.28-7.298-5.248-10.414h5.248c4.209,4.756,7.434,10.114,9.676,16.072c2.241,5.959,3.362,12.109,3.362,18.45
			c0,6.396-1.121,12.574-3.362,18.532c-2.242,5.958-5.467,11.316-9.676,16.072H2136.764z"/>
	</g>
	<circle style="fill:#5181F6;stroke:#000000;stroke-width:6;stroke-miterlimit:10;" cx="1122.844" cy="2974.443" r="136.836"/>
	<g>
		
			<rect x="860.037" y="3053.051" style="fill:#E6E6E6;stroke:#000000;stroke-width:6;stroke-miterlimit:10;" width="272.131" height="163.279"/>
		<g>
			<path d="M964.709,3180.139v-89.18h41.86c4.592,0,8.623,0.89,12.09,2.665c3.465,1.777,6.153,4.247,8.06,7.409
				c1.905,3.165,2.86,6.825,2.86,10.985c0,4.42-0.78,8.082-2.34,10.985c-1.56,2.904-3.51,5.18-5.85,6.825
				c-2.34,1.646-4.725,2.859-7.15,3.64v0.78c1.645,0.26,3.465,0.802,5.46,1.625c1.993,0.824,3.9,1.994,5.72,3.51
				c1.82,1.518,3.315,3.467,4.485,5.85c1.17,2.385,1.755,5.353,1.755,8.905c0,5.027-1.105,9.49-3.315,13.39
				c-2.21,3.9-5.245,6.978-9.1,9.23c-3.857,2.255-8.342,3.38-13.455,3.38H964.709z M980.309,3128.659h20.93
				c2.6,0,4.853-0.627,6.76-1.885c1.905-1.255,3.38-2.902,4.42-4.939c1.04-2.035,1.56-4.268,1.56-6.695
				c0-3.9-0.975-6.867-2.925-8.905c-1.95-2.035-4.79-3.055-8.515-3.055h-22.23V3128.659z M980.309,3167.92h22.36
				c2.6,0,4.875-0.628,6.825-1.886c1.95-1.255,3.488-2.945,4.615-5.069c1.125-2.123,1.69-4.44,1.69-6.955
				c0-2.686-0.585-5.005-1.755-6.955c-1.17-1.95-2.752-3.466-4.745-4.55c-1.995-1.083-4.205-1.625-6.63-1.625h-22.36V3167.92z"/>
		</g>
	</g>
	<circle style="fill:#5181F6;stroke:#000000;stroke-width:6;stroke-miterlimit:10;" cx="1900.372" cy="2874.17" r="136.836"/>
	<g>
		
			<rect x="1935.24" y="2958.892" style="fill:#E6E6E6;stroke:#000000;stroke-width:6;stroke-miterlimit:10;" width="272.131" height="163.279"/>
		<g>
			<path d="M2071.958,3087.279c-5.115,0-9.902-0.737-14.365-2.21c-4.465-1.473-8.364-3.855-11.7-7.149
				c-3.337-3.293-5.959-7.605-7.864-12.936c-1.908-5.33-2.86-11.851-2.86-19.564v-8.061c0-7.54,0.952-13.975,2.86-19.305
				c1.905-5.33,4.527-9.663,7.864-13c3.336-3.336,7.193-5.763,11.57-7.28c4.375-1.516,9.078-2.275,14.105-2.275h1.949
				c4.681,0,9.121,0.65,13.325,1.95c4.203,1.3,7.908,3.36,11.115,6.175c3.205,2.817,5.74,6.5,7.604,11.051
				c1.863,4.55,2.796,10.074,2.796,16.574h-15.211c0-6.152-0.89-10.897-2.664-14.234c-1.777-3.336-4.226-5.676-7.346-7.021
				c-3.12-1.343-6.675-2.015-10.66-2.015c-2.947,0-5.677,0.435-8.189,1.3c-2.515,0.867-4.68,2.298-6.5,4.29
				c-1.82,1.995-3.229,4.66-4.226,7.995c-0.997,3.337-1.494,7.475-1.494,12.415v14.82c0,6.587,0.865,11.765,2.6,15.535
				c1.732,3.77,4.138,6.457,7.215,8.06c3.075,1.604,6.607,2.405,10.595,2.405c4.246,0,7.951-0.671,11.115-2.016
				c3.163-1.343,5.633-3.683,7.41-7.02c1.775-3.336,2.665-8.038,2.665-14.105h14.69c0,6.24-0.91,11.615-2.73,16.12
				c-1.82,4.508-4.312,8.19-7.475,11.05c-3.165,2.86-6.825,4.985-10.985,6.37c-4.16,1.386-8.58,2.08-13.26,2.08H2071.958z"/>
		</g>
	</g>
	<circle style="fill:#5181F6;stroke:#000000;stroke-width:6;stroke-miterlimit:10;" cx="359.133" cy="2442.058" r="136.836"/>
	
		<rect x="53.659" y="2496.666" style="fill:#E6E6E6;stroke:#000000;stroke-width:6;stroke-miterlimit:10;" width="272.131" height="163.279"/>
	<g>
		<path d="M146.632,2623.753l33.8-89.18h18.72l33.67,89.18h-16.9l-7.41-19.37h-38.74l-7.41,19.37H146.632z M173.932,2592.552h30.29
			l-14.82-40.43h-0.52L173.932,2592.552z"/>
	</g>
	<g>
		<g>
			<defs>
				<rect id="SVGID_1_" x="614.604" y="402.469" width="156.354" height="150"/>
			</defs>
			<clipPath id="SVGID_00000173868346404842774630000001113210762980943274_">
				<use xlink:href="#SVGID_1_"  style="overflow:visible;"/>
			</clipPath>
			<path style="clip-path:url(#SVGID_00000173868346404842774630000001113210762980943274_);" d="M772.565,458.785
				c-0.524-1.61-1.905-2.758-3.579-3.021l-49.916-7.094l-22.462-45.154c-0.755-1.511-2.299-2.463-3.974-2.463
				c-1.676,0-3.218,0.952-3.973,2.495l-22.167,45.285l-49.916,7.422c-1.674,0.263-3.053,1.413-3.579,3.021
				c-0.526,1.61-0.066,3.382,1.15,4.531l36.221,35.105l-8.373,49.719c-0.297,1.676,0.394,3.35,1.773,4.334
				c0.755,0.56,1.674,0.855,2.595,0.855c0.721,0,1.411-0.163,2.068-0.526l44.562-23.611l44.694,23.348
				c0.658,0.329,1.347,0.494,2.036,0.494c2.431,0,4.434-2.004,4.434-4.433c0-0.361-0.032-0.69-0.131-1.018l-8.636-49.422
				l35.991-35.302C772.664,462.167,773.091,460.393,772.565,458.785L772.565,458.785z"/>
		</g>
		<path style="fill:#5181F6;" d="M730.108,494.188c-1.129,1.093-1.621,2.677-1.34,4.229l8.068,46.26l-41.645-21.738
			c-1.375-0.74-3.03-0.706-4.44,0l-41.503,21.984l7.786-46.331c0.246-1.55-0.246-3.1-1.375-4.192l-33.681-32.697l46.472-6.906
			c1.55-0.246,2.888-1.197,3.558-2.606l20.646-42.174l20.93,42.068c0.704,1.411,2.042,2.36,3.592,2.608l46.508,6.623
			L730.108,494.188z"/>
	</g>
	<g>
		<g>
			<defs>
				
					<rect id="SVGID_00000070836841206980872080000002722430707539543959_" x="2139.796" y="1463.015" width="200" height="191.872"/>
			</defs>
			<clipPath id="SVGID_00000148645148924245613390000013321364709330242230_">
				<use xlink:href="#SVGID_00000070836841206980872080000002722430707539543959_"  style="overflow:visible;"/>
			</clipPath>
			<path style="clip-path:url(#SVGID_00000148645148924245613390000013321364709330242230_);" d="M2341.851,1535.051
				c-0.671-2.059-2.437-3.528-4.578-3.865l-63.85-9.074l-28.732-57.759c-0.966-1.932-2.941-3.15-5.083-3.15
				c-2.143,0-4.116,1.218-5.082,3.191l-28.354,57.927l-63.85,9.494c-2.141,0.337-3.905,1.807-4.578,3.865
				c-0.673,2.059-0.084,4.326,1.471,5.796l46.332,44.904l-10.71,63.598c-0.38,2.143,0.505,4.285,2.268,5.544
				c0.966,0.716,2.141,1.093,3.319,1.093c0.923,0,1.805-0.209,2.646-0.673l57.001-30.202l57.17,29.866
				c0.841,0.421,1.723,0.632,2.605,0.632c3.109,0,5.671-2.563,5.671-5.671c0-0.462-0.041-0.882-0.168-1.303l-11.047-63.218
				l46.038-45.157C2341.978,1539.376,2342.523,1537.108,2341.851,1535.051L2341.851,1535.051z"/>
		</g>
		<path style="fill:#8FD14F;" d="M2287.542,1580.335c-1.444,1.398-2.073,3.424-1.714,5.409l10.321,59.173l-53.27-27.806
			c-1.758-0.946-3.875-0.902-5.68,0l-53.089,28.121l9.96-59.264c0.314-1.982-0.315-3.965-1.758-5.363l-43.083-41.824l59.445-8.833
			c1.982-0.315,3.694-1.532,4.551-3.334l26.409-53.947l26.772,53.811c0.9,1.804,2.612,3.019,4.595,3.336l59.49,8.472
			L2287.542,1580.335z"/>
	</g>
	<g>
		<g>
			<defs>
				
					<rect id="SVGID_00000082331456441960583220000002539252290328135084_" x="2014.463" y="2428.346" width="200" height="191.872"/>
			</defs>
			<clipPath id="SVGID_00000059287600008487685050000004677547036357288118_">
				<use xlink:href="#SVGID_00000082331456441960583220000002539252290328135084_"  style="overflow:visible;"/>
			</clipPath>
			<path style="clip-path:url(#SVGID_00000059287600008487685050000004677547036357288118_);" d="M2216.517,2500.382
				c-0.67-2.059-2.436-3.528-4.578-3.865l-63.85-9.074l-28.731-57.759c-0.966-1.932-2.941-3.15-5.083-3.15
				c-2.144,0-4.116,1.218-5.082,3.191l-28.354,57.927l-63.85,9.494c-2.141,0.336-3.905,1.807-4.578,3.865
				c-0.673,2.059-0.084,4.326,1.471,5.796l46.332,44.904l-10.71,63.598c-0.38,2.144,0.505,4.285,2.268,5.544
				c0.966,0.716,2.141,1.093,3.319,1.093c0.923,0,1.805-0.209,2.646-0.673l57.001-30.202l57.17,29.866
				c0.841,0.421,1.723,0.632,2.605,0.632c3.11,0,5.671-2.563,5.671-5.671c0-0.461-0.041-0.882-0.168-1.303l-11.047-63.218
				l46.038-45.157C2216.645,2504.708,2217.19,2502.439,2216.517,2500.382L2216.517,2500.382z"/>
		</g>
		<path style="fill:#5181F6;" d="M2162.208,2545.667c-1.444,1.397-2.073,3.424-1.714,5.409l10.321,59.173l-53.27-27.806
			c-1.758-0.947-3.875-0.903-5.68,0l-53.089,28.121l9.96-59.264c0.314-1.982-0.315-3.965-1.758-5.363l-43.083-41.824l59.444-8.833
			c1.982-0.315,3.695-1.532,4.551-3.334L2114.3,2438l26.772,53.811c0.9,1.804,2.612,3.019,4.595,3.336l59.49,8.472
			L2162.208,2545.667z"/>
	</g>
	<g>
		<path d="M2557.479,2223.381v-89.18h33.67c5.112,0,9.857,0.76,14.234,2.275c4.375,1.517,8.256,3.879,11.635,7.085
			c3.381,3.207,6.001,7.324,7.865,12.35c1.863,5.027,2.795,11.095,2.795,18.2v6.76c0,7.02-0.932,13.175-2.795,18.46
			c-1.864,5.287-4.484,9.729-7.865,13.325c-3.379,3.597-7.26,6.284-11.635,8.06c-4.377,1.777-9.122,2.665-14.234,2.665H2557.479z
			 M2573.598,2210.9h16.381c3.9,0,7.43-0.887,10.595-2.664c3.163-1.775,5.655-4.593,7.476-8.45
			c1.819-3.855,2.729-8.948,2.729-15.275v-13c0-6.24-0.91-11.157-2.729-14.755c-1.82-3.596-4.312-6.175-7.476-7.735
			c-3.165-1.56-6.694-2.34-10.595-2.34h-16.381V2210.9z"/>
	</g>
</g>
</svg>
