<?xml version="1.0" encoding="iso-8859-1"?>
<!-- Generator: Adobe Illustrator 29.6.0, SVG Export Plug-In . SVG Version: 9.03 Build 0)  -->
<svg version="1.1" xmlns="http://www.w3.org/2000/svg" xmlns:xlink="http://www.w3.org/1999/xlink" x="0px" y="0px"
	 viewBox="0 0 2774 3200" style="enable-background:new 0 0 2774 3200;" xml:space="preserve">
<g id="Layer_3" style="display:none;">
	
		<image style="display:inline;overflow:visible;" width="536" height="409" xlink:href="../../_Draft Images/hydra_fullhydravision.png"  transform="matrix(6.7164 0 0 6.7164 -357.0005 -170.6663)">
	</image>
</g>
<g id="Fill">
	
		<line style="fill:none;stroke:#FF5553;stroke-width:12;stroke-miterlimit:10;" x1="1458.838" y1="1729.77" x2="1992.364" y2="1053.41"/>
	
		<line style="fill:none;stroke:#FF5553;stroke-width:12;stroke-miterlimit:10;" x1="1227.783" y1="1700.363" x2="1248.788" y2="1158.435"/>
	
		<line style="fill:none;stroke:#8FD14F;stroke-width:12;stroke-miterlimit:10;" x1="2055.379" y1="1028.204" x2="2366.252" y2="1977.629"/>
	
		<line style="fill:none;stroke:#8FD14F;stroke-width:12;stroke-miterlimit:10;" x1="1941.952" y1="923.18" x2="1391.622" y2="1057.611"/>
	
		<rect x="879.873" y="755.25" style="fill:#E6E6E6;stroke:#000000;stroke-width:6;stroke-miterlimit:10;" width="280.561" height="151.32"/>
	<circle style="fill:#8FD14F;stroke:#000000;stroke-width:7;stroke-miterlimit:10;" cx="1264.434" cy="1050.069" r="150.772"/>
	
		<line style="fill:none;stroke:#3BD7B1;stroke-width:12;stroke-miterlimit:10;" x1="2185.631" y1="2141.411" x2="489.941" y2="2304.231"/>
	
		<line style="fill:none;stroke:#3BD7B1;stroke-width:12;stroke-miterlimit:10;" x1="1253.344" y1="1169.293" x2="393.823" y2="2123.084"/>
	<circle style="fill:#5181F6;stroke:#000000;stroke-width:7;stroke-miterlimit:10;" cx="2409.771" cy="2179.19" r="150.772"/>
	
		<line style="fill:none;stroke:#FF5553;stroke-width:12;stroke-miterlimit:10;" x1="964.835" y1="2028.855" x2="461.918" y2="2215.826"/>
	
		<line style="fill:none;stroke:#FF5553;stroke-width:12;stroke-miterlimit:10;" x1="2323.164" y1="2123.583" x2="1908.571" y2="1955.261"/>
	
		<line style="fill:none;stroke:#FF5553;stroke-width:12;stroke-miterlimit:10;" x1="1850.388" y1="2677.614" x2="1687.788" y2="2072.146"/>
	
		<line style="fill:none;stroke:#FF5553;stroke-width:12;stroke-miterlimit:10;" x1="1137.367" y1="2792.733" x2="1237.566" y2="2119.766"/>
	
		<line style="fill:none;stroke:#5181F6;stroke-width:12;stroke-miterlimit:10;" x1="1883.659" y1="2699.795" x2="2271.438" y2="2199.036"/>
	
		<line style="fill:none;stroke:#5181F6;stroke-width:12;stroke-miterlimit:10;" x1="1754.269" y1="2781.126" x2="1258.889" y2="2840.276"/>
	<path style="fill:#FF5553;" d="M1944.257,1828.869c-18.994-27.12-46.66-47.155-78.018-57.01c1.173-11.104,1.27-22.351,0.219-33.546
		c-4.131-43.804-25.702-84.955-59.198-113.427c-12.323-7.962-24.636-15.929-36.954-23.886
		c-28.216-13.185-57.841-18.408-88.863-15.674c-14.302,3.274-28.599,6.544-42.901,9.808c-16.939,6.376-32.287,15.026-46.084,25.906
		c-4.799-5.381-9.956-10.466-15.475-15.164c-11.492-7.426-22.983-14.847-34.464-22.279c-26.319-12.292-53.938-17.158-82.874-14.608
		c-13.338,3.046-26.671,6.095-40.004,9.146c-25.793,9.697-47.664,25.003-65.624,45.89c-15.235-18.857-34.715-34.475-57.943-44.911
		c-19.336-8.686-39.876-15.791-60.742-19.489c-21.03-3.724-43.075-2.994-64.492-2.382c-14.2,3.249-28.41,6.498-42.621,9.747
		c-27.548,10.365-50.909,26.722-70.072,49.068c-24.406,28.716-38.356,65.312-39.846,102.766c-11.456-1.678-23.141-2.066-35.071-1.01
		c-12.349,2.82-24.702,5.646-37.046,8.467c-23.957,9.013-44.258,23.228-60.911,42.651c-25.411,29.9-37.846,69.603-34.164,108.663
		c3.565,37.826,22.187,73.367,51.123,97.957c4.631,2.999,9.268,5.998,13.904,8.992c-0.245,5.901-0.133,11.828,0.423,17.745
		c3.218,34.097,20.005,66.134,46.089,88.302c9.589,6.202,19.173,12.399,28.768,18.596c21.968,10.267,45.027,14.333,69.184,12.2
		l33.394-7.641c5.402-2.03,10.599-4.355,15.593-6.978c4.509,4.907,9.298,9.584,14.399,13.919
		c11.951,7.723,23.901,15.45,35.852,23.177c27.38,12.792,56.122,17.857,86.225,15.205c13.874-3.172,27.747-6.345,41.621-9.523
		c24.559-9.232,45.666-23.401,63.395-42.386c1.04,0.923,2.051,1.877,3.111,2.775c12.318,7.962,24.631,15.929,36.948,23.891
		c28.216,13.18,57.84,18.408,88.868,15.669c14.297-3.27,28.594-6.539,42.891-9.809c2.586-0.974,5.096-2.05,7.605-3.126
		c5.942,3.846,11.89,7.687,17.837,11.532c29.501,13.782,60.472,19.239,92.902,16.383c14.945-3.422,29.9-6.839,44.844-10.257
		c28.992-10.9,53.576-28.114,73.739-51.634c9.502-11.175,17.49-23.493,23.886-36.566c2.005,0.438,4.015,0.867,6.049,1.224
		c13.292,0.546,26.584,1.086,39.871,1.632c26.054-2.581,49.823-11.343,71.301-26.278l6.518-4.989
		c9.452-8.605,18.898-17.199,28.349-25.804c17.413-20.668,28.502-44.314,33.286-70.944
		C1975.963,1901.874,1966.955,1861.283,1944.257,1828.869z"/>
	<g id="Layer_1-2">
		<path style="fill:#FFFFFF;" d="M1022.173,1876.03c-0.403,7.014,4.953,13.028,11.966,13.437h0.694
			c7.015-0.008,12.695-5.701,12.688-12.716c-0.008-7.015-5.701-12.695-12.716-12.688c-6.726,0.007-12.281,5.257-12.667,11.973
			L1022.173,1876.03z"/>
		<path style="fill:#FFFFFF;" d="M974.809,1872.81c-2.262-0.127-4.198,1.604-4.325,3.866c-0.127,2.262,1.604,4.198,3.866,4.325
			c2.259,0.126,4.195-1.601,4.324-3.86c0.134-2.258-1.588-4.196-3.846-4.33C974.823,1872.811,974.816,1872.81,974.809,1872.81z"/>
		<path style="fill:#FFFFFF;" d="M1021.368,1802.312c2.019-1.037,2.815-3.514,1.778-5.532s-3.513-2.815-5.532-1.778
			c-2.003,1.029-2.805,3.478-1.799,5.492c1.02,2.032,3.493,2.852,5.525,1.833C1021.35,1802.321,1021.359,1802.317,1021.368,1802.312
			z"/>
		<path style="fill:#FFFFFF;" d="M1034.257,1824.786c3.128-1.578,4.385-5.393,2.807-8.521c-1.578-3.128-5.393-4.385-8.521-2.807
			c-3.126,1.577-4.384,5.389-2.809,8.517c1.576,3.129,5.39,4.389,8.519,2.813
			C1034.255,1824.788,1034.256,1824.787,1034.257,1824.786z"/>
		<path style="fill:#FFFFFF;" d="M990.884,1840.244c2.412,1.586,5.653,0.917,7.239-1.495c1.586-2.412,0.917-5.653-1.495-7.239
			c-2.412-1.586-5.653-0.917-7.239,1.495c-0.001,0.002-0.003,0.004-0.004,0.006C987.804,1835.423,988.475,1838.659,990.884,1840.244
			z"/>
		<path style="fill:#FFFFFF;" d="M998.609,1870.499c-3.498-0.197-6.494,2.478-6.691,5.976c-0.197,3.498,2.478,6.494,5.976,6.691
			c3.495,0.197,6.49-2.474,6.691-5.97C1004.783,1873.697,1002.108,1870.7,998.609,1870.499z"/>
		<path style="fill:#FFFFFF;" d="M991.578,1913.15c-2.576,1.302-3.609,4.446-2.307,7.022c1.302,2.576,4.446,3.609,7.022,2.307
			c2.575-1.301,3.608-4.442,2.309-7.018c-1.3-2.577-4.443-3.613-7.02-2.313C991.581,1913.148,991.58,1913.149,991.578,1913.15z"/>
		<path style="fill:#FFFFFF;" d="M1016.239,1857.387c3.45,2.261,8.079,1.297,10.34-2.153s1.297-8.079-2.153-10.34
			c-3.449-2.26-8.078-1.297-10.339,2.151c-2.263,3.444-1.306,8.07,2.138,10.333
			C1016.23,1857.381,1016.234,1857.384,1016.239,1857.387z"/>
		<path style="fill:#FFFFFF;" d="M1094.476,1824.287c2.938,1.916,6.873,1.088,8.789-1.85s1.088-6.873-1.85-8.789
			c-2.936-1.915-6.868-1.089-8.786,1.844c-1.92,2.931-1.101,6.863,1.83,8.783C1094.465,1824.279,1094.47,1824.283,1094.476,1824.287
			z"/>
		<path style="fill:#FFFFFF;" d="M1107.497,1801.882c1.898,1.244,4.445,0.714,5.689-1.184c1.244-1.898,0.714-4.445-1.184-5.689
			c-1.898-1.244-4.445-0.714-5.689,1.184c-0.001,0.001-0.002,0.003-0.003,0.005
			C1105.069,1798.095,1105.6,1800.639,1107.497,1801.882z"/>
		<path style="fill:#FFFFFF;" d="M1095.475,1863.939c-7.005-0.402-13.011,4.95-13.413,11.956
			c-0.402,7.005,4.95,13.011,11.956,13.413l0,0c0.243,0,0.493,0,0.736,0c7.015-0.003,12.699-5.693,12.696-12.708
			c-0.002-3.119-1.151-6.128-3.228-8.455C1101.987,1865.628,1098.836,1864.112,1095.475,1863.939z"/>
		<path style="fill:#FFFFFF;" d="M1038.429,1856.506c2.151,4.297,6.55,7.005,11.355,6.989c7.019,0.002,12.71-5.687,12.711-12.706
			c0-1.995-0.469-3.963-1.37-5.743c-2.166-4.277-6.561-6.964-11.355-6.941c-7.019,0.012-12.699,5.712-12.687,12.73
			C1037.086,1852.805,1037.547,1854.746,1038.429,1856.506z"/>
		<path style="fill:#FFFFFF;" d="M1138.029,1840.23c2.577-1.3,3.612-4.444,2.311-7.021c-1.3-2.577-4.444-3.612-7.021-2.311
			c-2.574,1.299-3.61,4.438-2.315,7.014C1132.306,1840.49,1135.449,1841.527,1138.029,1840.23z"/>
		<path style="fill:#FFFFFF;" d="M1105.817,1844.276c-3.684,1.855-5.166,6.346-3.311,10.03c1.855,3.684,6.346,5.166,10.029,3.311
			c3.684-1.855,5.166-6.346,3.311-10.029c-1.85-3.682-6.335-5.167-10.017-3.317
			C1105.825,1844.272,1105.821,1844.274,1105.817,1844.276z"/>
		<path style="fill:#FFFFFF;" d="M1064.325,1799.966c2.882,0.164,5.351-2.039,5.515-4.921c0.164-2.882-2.039-5.351-4.921-5.515
			c-2.882-0.164-5.351,2.039-5.515,4.921c0,0.001,0,0.003,0,0.004C1059.242,1797.335,1061.445,1799.802,1064.325,1799.966z"/>
		<path style="fill:#FFFFFF;" d="M1064.269,1832.859c4.118,0.231,7.644-2.92,7.875-7.039c0.231-4.118-2.92-7.644-7.039-7.875
			c-4.114-0.231-7.638,2.915-7.874,7.028C1056.999,1829.094,1060.149,1832.624,1064.269,1832.859z"/>
		<path style="fill:#FFFFFF;" d="M1023.804,1909.096c3.683-1.857,5.163-6.348,3.307-10.031c-1.857-3.683-6.348-5.163-10.031-3.307
			c-3.683,1.857-5.163,6.348-3.307,10.031c0,0.001,0.001,0.002,0.001,0.003C1015.633,1909.474,1020.122,1910.953,1023.804,1909.096z
			"/>
		<path style="fill:#FFFFFF;" d="M1069.093,1843.756c-3.845,5.867-2.205,13.741,3.662,17.586c5.867,3.845,13.741,2.205,17.586-3.662
			c3.845-5.867,2.205-13.741-3.662-17.586c-2.064-1.353-4.478-2.075-6.945-2.078
			C1075.446,1838.013,1071.445,1840.171,1069.093,1843.756z"/>
		<path style="fill:#FFFFFF;" d="M1091.179,1896.874c-3.159-6.264-10.797-8.781-17.06-5.622c-6.264,3.159-8.781,10.797-5.622,17.06
			c2.159,4.282,6.546,6.982,11.341,6.983c1.988-0.014,3.946-0.489,5.719-1.388
			C1091.801,1910.745,1094.315,1903.131,1091.179,1896.874z"/>
		<path style="fill:#FFFFFF;" d="M1113.375,1895.985c-3.448-2.264-8.078-1.303-10.342,2.145c-2.264,3.448-1.303,8.078,2.145,10.342
			c3.448,2.263,8.078,1.303,10.342-2.145C1117.776,1902.877,1116.817,1898.253,1113.375,1895.985z"/>
		<path style="fill:#FFFFFF;" d="M1137.696,1876.905c0.197-3.498-2.478-6.494-5.976-6.691s-6.494,2.478-6.691,5.976
			c-0.197,3.495,2.474,6.49,5.97,6.691C1134.497,1883.078,1137.495,1880.404,1137.696,1876.905z"/>
		<path style="fill:#FFFFFF;" d="M1155.27,1872.386c-2.266-0.13-4.208,1.6-4.338,3.866c-0.13,2.266,1.6,4.208,3.866,4.338
			c2.266,0.13,4.208-1.6,4.338-3.866c0,0,0,0,0,0C1159.263,1874.46,1157.534,1872.521,1155.27,1872.386z"/>
		<path style="fill:#FFFFFF;" d="M1138.723,1913.129c-2.415-1.582-5.654-0.906-7.236,1.508s-0.906,5.654,1.508,7.236
			c2.413,1.581,5.651,0.907,7.233-1.505c1.583-2.413,0.911-5.654-1.503-7.237C1138.726,1913.13,1138.724,1913.13,1138.723,1913.129z
			"/>
		<path style="fill:#FFFFFF;" d="M1022.118,1951.491c-1.897-1.245-4.445-0.716-5.69,1.181c-1.245,1.897-0.716,4.445,1.181,5.69
			c1.897,1.245,4.443,0.717,5.688-1.179c1.246-1.897,0.719-4.444-1.178-5.69C1022.119,1951.492,1022.118,1951.491,1022.118,1951.491
			z"/>
		<path style="fill:#FFFFFF;" d="M1108.239,1951.061c-2.026,1.021-2.841,3.492-1.82,5.519c1.021,2.026,3.492,2.841,5.519,1.82
			c2.026-1.021,2.841-3.492,1.82-5.519c0,0,0-0.001-0.001-0.001c-1.017-2.024-3.483-2.841-5.507-1.824
			C1108.247,1951.057,1108.243,1951.059,1108.239,1951.061z"/>
		<path style="fill:#FFFFFF;" d="M1060.514,1909.596c3.845-5.867,2.205-13.741-3.662-17.586c-5.867-3.845-13.741-2.205-17.586,3.662
			c-3.845,5.867-2.205,13.741,3.662,17.586c2.066,1.354,4.482,2.076,6.952,2.078
			C1054.17,1915.351,1058.173,1913.19,1060.514,1909.596z"/>
		<path style="fill:#FFFFFF;" d="M1035.132,1929.093c-2.932-1.918-6.864-1.096-8.782,1.836c-1.918,2.932-1.096,6.864,1.836,8.782
			c2.93,1.917,6.859,1.097,8.778-1.831C1038.882,1934.947,1038.062,1931.015,1035.132,1929.093z"/>
		<path style="fill:#FFFFFF;" d="M1064.748,1953.406c-2.882-0.164-5.351,2.039-5.515,4.921c-0.164,2.882,2.039,5.351,4.921,5.515
			c2.881,0.164,5.349-2.038,5.515-4.918c0.166-2.882-2.036-5.352-4.918-5.518C1064.75,1953.407,1064.749,1953.406,1064.748,1953.406
			z"/>
		<path style="fill:#FFFFFF;" d="M1064.804,1920.521c-4.117-0.25-7.657,2.884-7.908,7.001c-0.25,4.117,2.885,7.657,7.002,7.908
			s7.657-2.885,7.908-7.001c0.001-0.01,0.001-0.02,0.002-0.03C1072.044,1924.291,1068.911,1920.767,1064.804,1920.521z"/>
		<path style="fill:#FFFFFF;" d="M1095.35,1928.586c-3.128,1.587-4.377,5.409-2.79,8.537c1.587,3.128,5.409,4.377,8.537,2.79
			c3.128-1.587,4.377-5.409,2.79-8.537c-0.002-0.005-0.005-0.009-0.007-0.014c-1.584-3.121-5.398-4.366-8.519-2.782
			C1095.358,1928.582,1095.354,1928.584,1095.35,1928.586z"/>
		<path style="fill:#FFFFFF;" d="M1235.513,1846.678c12.299,0,20.913,6.76,20.913,19.309h16.11
			c0-22.016-16.235-32.622-37.265-32.622c-25.834,0-40.84,14.027-40.84,43.672c0,30.38,15.006,43.665,40.84,43.665
			c21.281,0,37.265-10.328,37.265-32.351h-15.499c0,12.299-8.489,19.066-21.516,19.066c-17.102,0-24.987-9.474-24.987-29.151v-2.457
			C1210.547,1856.513,1218.536,1846.678,1235.513,1846.678z"/>
		<path style="fill:#FFFFFF;" d="M1315.131,1834.864l-32.844,84.386h16.241l6.76-18.331h38.598l6.941,18.331h16.977l-32.865-84.386
			H1315.131z M1310.21,1887.615l8.614-23.134c1.721-4.546,4.796-14.388,5.414-16.11h0.611c0.618,1.721,3.693,11.681,5.414,16.11
			l8.607,23.127L1310.21,1887.615z"/>
		<path style="fill:#FFFFFF;" d="M1455.634,1860.448c0-15.617-8.981-25.584-27.555-25.584h-44.532v84.386h15.749v-32.622h26.195
			l15.964,32.622h17.22l-18.046-35.058C1450.588,1880.257,1455.634,1871.894,1455.634,1860.448z M1426.843,1873.365h-27.548v-25.091
			h27.548c8.489,0,12.917,4.553,12.917,12.174C1439.76,1868.451,1434.964,1873.365,1426.843,1873.365z"/>
		<path style="fill:#FFFFFF;" d="M1510.869,1834.864h-33.719v84.386h33.705c25.459,0,40.951-13.285,40.951-42.193
			S1536.328,1834.864,1510.869,1834.864z M1535.717,1878.286c-0.125,18.456-8.857,27.555-24.848,27.555h-17.956v-57.567h17.956
			c15.964,0,24.848,9.106,24.848,27.555V1878.286z"/>
		<path style="fill:#FFFFFF;" d="M1593.062,1834.864l-32.858,84.386h16.235l6.767-18.331h38.626l6.885,18.331h16.977l-32.844-84.386
			H1593.062z M1588.141,1887.615l8.6-23.134c1.721-4.546,4.796-14.388,5.414-16.11h0.625c0.611,1.721,3.693,11.681,5.414,16.11
			l8.607,23.127L1588.141,1887.615z"/>
		<path style="fill:#FFFFFF;" d="M1717.677,1885.053c0,1.596,0.243,5.9,0.243,6.642l-0.611,0.243
			c-0.368-0.486-2.832-4.796-4.165-6.76l-36.654-50.314h-15.027v84.386h15.131v-50.557c0-2.082-0.25-6.15-0.25-6.767l0.618-0.368
			c0.368,0.493,2.214,4.06,4.165,6.892l36.904,50.8h14.756v-84.386h-15.124v50.189H1717.677z"/>
		<path style="fill:#FFFFFF;" d="M1795.511,1833.393c-26.444,0-42.436,14.02-42.436,43.665c0,29.644,15.964,43.665,42.436,43.665
			c26.472,0,42.561-14.02,42.561-43.665C1838.072,1847.413,1821.956,1833.393,1795.511,1833.393z M1821.956,1878.411
			c0,19.309-9.224,29.026-26.445,29.026c-17.095,0-26.32-9.717-26.32-29.026v-2.582c0-19.316,9.349-29.151,26.32-29.151
			c17.102,0,26.445,9.835,26.445,29.151V1878.411z"/>
	</g>
	<circle style="fill:#5181F6;stroke:#000000;stroke-width:7;stroke-miterlimit:10;" cx="1139.375" cy="2904.255" r="150.772"/>
	<circle style="fill:#5181F6;stroke:#000000;stroke-width:7;stroke-miterlimit:10;" cx="433.559" cy="2310.483" r="150.772"/>
	
		<line style="fill:none;stroke:#5181F6;stroke-width:12;stroke-miterlimit:10;" x1="1057.027" y1="2881.387" x2="525.437" y2="2394.273"/>
	
		<line style="fill:none;stroke:#5181F6;stroke-width:12;stroke-miterlimit:10;" x1="1812.942" y1="2717.71" x2="563.539" y2="2293.601"/>
	<circle style="fill:#5181F6;stroke:#000000;stroke-width:7;stroke-miterlimit:10;" cx="1880.261" cy="2789.438" r="150.772"/>
	
		<rect x="1909.891" y="2866.168" style="fill:#E6E6E6;stroke:#000000;stroke-width:6;stroke-miterlimit:10;" width="280.561" height="151.32"/>
	
		<rect x="861.08" y="2983.658" style="fill:#E6E6E6;stroke:#000000;stroke-width:6;stroke-miterlimit:10;" width="280.561" height="151.32"/>
	<circle style="fill:#8FD14F;stroke:#000000;stroke-width:7;stroke-miterlimit:10;" cx="2356.486" cy="2128.258" r="150.772"/>
	
		<line style="fill:none;stroke:#3BD7B1;stroke-width:12;stroke-miterlimit:10;" x1="1338.372" y1="1076.871" x2="2312.496" y2="1956.725"/>
	
		<circle style="fill:#3BD7B1;stroke:#000000;stroke-width:7;stroke-miterlimit:10;stroke-dasharray:41.5898,41.5898;" cx="2301.405" cy="2073.177" r="150.772"/>
	
		<circle style="fill:#3BD7B1;stroke:#000000;stroke-width:7;stroke-miterlimit:10;stroke-dasharray:41.5898,41.5898;" cx="1203.436" cy="1050.069" r="150.772"/>
	<circle style="fill:#8FD14F;stroke:#000000;stroke-width:7;stroke-miterlimit:10;" cx="2014.898" cy="937.315" r="150.772"/>
	
		<circle style="fill:#3BD7B1;stroke:#000000;stroke-width:7;stroke-miterlimit:10;stroke-dasharray:41.5898,41.5898;" cx="379.035" cy="2246.929" r="150.772"/>
	<g>
		<path d="M975.845,878.807l33.32-50.54l-30.1-45.5h20.16l21.42,33.04h0.42l21.56-33.04h18.62l-30.24,45.64l33.32,50.4h-20.3
			l-24.5-37.8h-0.42l-24.5,37.8H975.845z"/>
	</g>
	
		<rect x="2089.157" y="723.728" style="fill:#E6E6E6;stroke:#000000;stroke-width:6;stroke-miterlimit:10;" width="280.561" height="151.32"/>
	
		<rect x="2428.381" y="1856.532" style="fill:#E6E6E6;stroke:#000000;stroke-width:6;stroke-miterlimit:10;" width="280.561" height="151.32"/>
	<g>
		<path d="M2534.606,1982.064v-96.04h36.26c5.506,0,10.616,0.818,15.33,2.45c4.712,1.634,8.89,4.178,12.529,7.63
			c3.641,3.454,6.462,7.888,8.471,13.3c2.006,5.414,3.01,11.948,3.01,19.601v7.279c0,7.561-1.004,14.188-3.01,19.88
			c-2.009,5.694-4.83,10.479-8.471,14.351c-3.64,3.874-7.817,6.768-12.529,8.68c-4.714,1.914-9.824,2.87-15.33,2.87H2534.606z
			 M2551.966,1968.624h17.641c4.199,0,8.002-0.955,11.409-2.869c3.406-1.912,6.091-4.946,8.051-9.101
			c1.96-4.151,2.939-9.636,2.939-16.45v-14c0-6.72-0.979-12.016-2.939-15.89c-1.96-3.872-4.645-6.65-8.051-8.33
			c-3.407-1.68-7.21-2.52-11.409-2.52h-17.641V1968.624z"/>
	</g>
	
		<rect x="65.058" y="2365.421" style="fill:#E6E6E6;stroke:#000000;stroke-width:6;stroke-miterlimit:10;" width="280.561" height="151.32"/>
	<g>
		<path d="M158.93,2488.977l36.4-96.04h20.16l36.26,96.04h-18.2l-7.98-20.86h-41.72l-7.98,20.86H158.93z M188.33,2455.378h32.62
			l-15.96-43.54h-0.56L188.33,2455.378z"/>
	</g>
</g>
<g id="Type">
	<g>
		<path d="M293.336,280.305v-26.88h22.4v-138.32h-22.4v-26.88h79.52v26.88h-22.4v138.32h22.4v26.88H293.336z"/>
		<path d="M408.695,280.305v-143.08h23.8l4.2,21c5.412-7.84,12.132-13.764,20.16-17.78c8.024-4.012,16.984-6.02,26.88-6.02
			c9.892,0,18.572,1.868,26.04,5.6c7.464,3.736,13.3,9.196,17.5,16.38c4.2,7.188,6.3,16.008,6.3,26.46v97.44h-32.48v-91.56
			c0-10.64-2.477-18.244-7.42-22.82c-4.948-4.572-11.808-6.86-20.58-6.86c-5.788,0-11.108,1.448-15.96,4.34
			c-4.856,2.896-8.729,6.768-11.62,11.62c-2.896,4.856-4.34,10.36-4.34,16.52v88.76H408.695z"/>
		<path d="M619.535,283.105c-7.468,0-14.14-1.12-20.02-3.36c-5.88-2.24-10.456-5.924-13.72-11.06c-3.268-5.132-4.9-11.9-4.9-20.3
			v-86.24h-15.68v-24.92h16.52l11.48-45.64h20.16v45.64h33.32v24.92h-33.32v79.8c0,8.216,1.68,13.44,5.04,15.68
			c3.36,2.24,7,3.36,10.92,3.36c2.052,0,4.9-0.464,8.54-1.4c3.64-0.932,6.58-1.864,8.82-2.8v21c-2.24,1.12-4.948,2.1-8.12,2.94
			c-3.176,0.84-6.44,1.444-9.8,1.82C625.415,282.917,622.335,283.105,619.535,283.105z"/>
		<path d="M739.933,283.105c-13.068,0-24.548-2.756-34.44-8.26c-9.896-5.504-17.596-13.58-23.1-24.22
			c-5.508-10.64-8.26-23.52-8.26-38.64v-6.44c0-15.12,2.94-28,8.82-38.64s13.904-18.712,24.08-24.22
			c10.172-5.503,21.792-8.26,34.86-8.26h3.64c12.132,0,22.771,2.476,31.92,7.42c9.144,4.948,16.24,11.996,21.28,21.14
			c5.04,9.148,7.56,19.88,7.56,32.2v17.64h-98.28c0,9.896,1.304,18.48,3.92,25.76c2.612,7.28,6.484,12.836,11.62,16.66
			c5.132,3.828,11.523,5.74,19.18,5.74c6.344,0,11.992-1.26,16.94-3.78c4.944-2.52,8.864-6.3,11.76-11.34
			c2.892-5.04,4.34-11.292,4.34-18.76h30.52c0,11.2-2.8,21-8.4,29.4c-5.6,8.4-13.16,14.936-22.68,19.6c-9.52,4.664-20.348,7-32.48,7
			H739.933z M708.292,194.906h66.08c0-13.064-2.848-22.724-8.54-28.98c-5.696-6.252-13.488-9.38-23.38-9.38
			c-9.336,0-17.22,3.22-23.66,9.66S708.853,182.214,708.292,194.906z"/>
		<path d="M841.85,280.305v-143.08h24.36l4.2,21c0.372-0.56,1.304-2.052,2.8-4.48c1.492-2.424,3.824-5.132,7-8.12
			c3.172-2.983,7.184-5.6,12.04-7.84c4.852-2.24,10.732-3.36,17.64-3.36c9.892,0,17.964,1.96,24.22,5.88
			c6.252,3.92,10.92,9.288,14,16.1c3.08,6.816,4.62,14.608,4.62,23.38c0,2.056-0.096,4.156-0.28,6.3
			c-0.188,2.148-0.376,3.968-0.56,5.46h-27.44v-5.6c0-3.92-0.748-7.932-2.24-12.04c-1.496-4.104-4.016-7.56-7.56-10.36
			c-3.548-2.8-8.496-4.2-14.84-4.2c-4.668,0-8.636,0.98-11.9,2.94c-3.268,1.96-5.928,4.436-7.98,7.42
			c-2.056,2.988-3.5,6.208-4.34,9.66c-0.84,3.456-1.26,6.676-1.26,9.66v91.28H841.85z"/>
		<path d="M980.167,280.305v-201.6h32.48v77.28c5.224-7.092,11.62-12.46,19.18-16.1s15.632-5.46,24.22-5.46
			c9.52,0,17.964,1.868,25.34,5.6c7.372,3.736,13.204,9.196,17.5,16.38c4.292,7.188,6.44,16.008,6.44,26.46v97.44h-32.48v-91.56
			c0-10.64-2.52-18.244-7.56-22.82c-5.04-4.572-11.948-6.86-20.72-6.86c-5.788,0-11.108,1.448-15.96,4.34
			c-4.856,2.896-8.729,6.768-11.62,11.62c-2.896,4.856-4.34,10.36-4.34,16.52v88.76H980.167z"/>
		<path d="M1206.404,283.105c-13.068,0-24.548-2.756-34.44-8.26c-9.896-5.504-17.596-13.58-23.1-24.22
			c-5.508-10.64-8.26-23.52-8.26-38.64v-6.44c0-15.12,2.94-28,8.82-38.64s13.904-18.712,24.08-24.22
			c10.172-5.503,21.792-8.26,34.86-8.26h3.64c12.132,0,22.771,2.476,31.92,7.42c9.144,4.948,16.24,11.996,21.28,21.14
			c5.04,9.148,7.56,19.88,7.56,32.2v17.64h-98.28c0,9.896,1.304,18.48,3.92,25.76c2.612,7.28,6.484,12.836,11.62,16.66
			c5.132,3.828,11.523,5.74,19.18,5.74c6.344,0,11.992-1.26,16.94-3.78c4.944-2.52,8.864-6.3,11.76-11.34
			c2.892-5.04,4.34-11.292,4.34-18.76h30.52c0,11.2-2.8,21-8.4,29.4c-5.6,8.4-13.16,14.936-22.68,19.6c-9.52,4.664-20.348,7-32.48,7
			H1206.404z M1174.764,194.906h66.08c0-13.064-2.848-22.724-8.54-28.98c-5.696-6.252-13.488-9.38-23.38-9.38
			c-9.336,0-17.22,3.22-23.66,9.66S1175.324,182.214,1174.764,194.906z"/>
		<path d="M1345.561,283.105c-7.656,0-14.98-1.216-21.98-3.64s-12.74-6.58-17.22-12.46c-4.48-5.88-6.72-13.86-6.72-23.94
			c0-10.264,2.284-18.572,6.86-24.92c4.572-6.344,11.06-11.2,19.46-14.56c8.4-3.36,18.48-5.644,30.24-6.86
			c11.76-1.212,24.824-1.82,39.199-1.82v-13.44c0-9.332-2.38-15.912-7.14-19.74c-4.76-3.824-11.996-5.74-21.7-5.74
			c-8.028,0-15.12,1.776-21.28,5.32c-6.16,3.548-9.24,9.148-9.24,16.8v2.8h-31.36c-0.188-0.744-0.28-1.632-0.28-2.66
			c0-1.024,0-2.004,0-2.94c0-8.212,2.564-15.4,7.7-21.56c5.132-6.16,12.272-10.92,21.42-14.28c9.144-3.36,19.6-5.04,31.36-5.04h4.76
			c19.412,0,33.879,3.828,43.4,11.48c9.52,7.656,14.28,18.388,14.28,32.2v73.08c0,3.548,0.84,6.068,2.52,7.56
			c1.68,1.496,3.544,2.24,5.6,2.24c1.864,0,3.872-0.372,6.021-1.12c2.144-0.744,4.151-1.584,6.02-2.52v19.88
			c-2.428,1.868-5.508,3.312-9.239,4.34c-3.736,1.024-8.217,1.54-13.44,1.54c-6.16,0-11.248-1.12-15.26-3.36
			c-4.017-2.24-7.048-5.272-9.101-9.1c-2.056-3.824-3.268-8.164-3.64-13.02c-5.416,8.028-12.416,14.28-21,18.76
			C1367.213,280.865,1357.133,283.105,1345.561,283.105z M1359.561,260.986c5.972,0,11.664-1.352,17.08-4.06
			c5.412-2.704,9.892-6.764,13.44-12.18c3.544-5.412,5.319-12.224,5.319-20.44v-10.92c-13.067,0-24.268,0.7-33.599,2.1
			c-9.336,1.4-16.428,3.968-21.28,7.7c-4.856,3.736-7.28,9.336-7.28,16.8c0,7.468,2.24,12.836,6.72,16.1
			C1344.441,259.354,1350.973,260.986,1359.561,260.986z"/>
		<path d="M1530.078,283.105c-10.828,0-20.72-2.616-29.68-7.84c-8.961-5.224-16.148-13.344-21.561-24.36
			c-5.416-11.012-8.12-25.104-8.12-42.28v-3.08c0-15.68,2.563-28.792,7.7-39.34c5.132-10.543,11.943-18.48,20.44-23.8
			c8.491-5.32,17.871-7.98,28.14-7.98c10.08,0,18.664,1.916,25.76,5.74c7.092,3.828,12.504,8.728,16.24,14.7v-76.16h32.479v201.6
			h-25.199l-3.92-19.32c-4.669,6.72-10.457,12.088-17.36,16.1C1548.09,281.097,1539.781,283.105,1530.078,283.105z
			 M1536.518,260.986c5.973,0,11.384-1.444,16.24-4.34c4.852-2.892,8.772-7.512,11.76-13.86c2.984-6.344,4.48-14.652,4.48-24.92
			v-19.88c0-9.144-1.448-16.752-4.34-22.82c-2.896-6.063-6.816-10.592-11.76-13.58c-4.948-2.983-10.408-4.48-16.381-4.48
			c-8.96,0-16.476,3.408-22.54,10.22c-6.067,6.816-9.1,17.036-9.1,30.66v19.6c0,10.269,1.4,18.577,4.2,24.92
			c2.8,6.348,6.58,11.016,11.34,14C1525.178,259.493,1530.542,260.986,1536.518,260.986z"/>
		<path d="M1707.872,280.305V88.225h34.72v80.08h77.561v-80.08h34.72v192.08h-34.439v-84h-77.561v84H1707.872z"/>
		<path d="M1911.714,332.385c-4.296,0-8.26-0.328-11.899-0.98c-3.641-0.656-7.048-1.636-10.22-2.94v-24.92
			c2.052,0.932,4.76,1.724,8.119,2.38c3.36,0.652,6.624,0.98,9.801,0.98c4.852,0,8.911-0.937,12.18-2.8
			c3.264-1.868,6.16-4.948,8.68-9.24c2.521-4.296,4.992-9.896,7.42-16.8l-56-140.84h35l36.681,100.52h1.68l35.56-100.52h32.2
			l-52.92,136.64c-4.108,10.824-8.636,20.672-13.58,29.54c-4.948,8.864-10.828,15.912-17.64,21.14
			C1929.958,329.769,1921.606,332.385,1911.714,332.385z"/>
		<path d="M2097.914,283.105c-10.828,0-20.72-2.616-29.68-7.84s-16.148-13.344-21.561-24.36c-5.416-11.012-8.12-25.104-8.12-42.28
			v-3.08c0-15.68,2.564-28.792,7.7-39.34c5.132-10.543,11.944-18.48,20.44-23.8c8.491-5.32,17.872-7.98,28.14-7.98
			c10.08,0,18.664,1.916,25.76,5.74c7.092,3.828,12.504,8.728,16.24,14.7v-76.16h32.48v201.6h-25.2l-3.92-19.32
			c-4.668,6.72-10.456,12.088-17.36,16.1C2115.926,281.097,2107.618,283.105,2097.914,283.105z M2104.354,260.986
			c5.972,0,11.384-1.444,16.239-4.34c4.853-2.892,8.772-7.512,11.761-13.86c2.983-6.344,4.479-14.652,4.479-24.92v-19.88
			c0-9.144-1.448-16.752-4.34-22.82c-2.896-6.063-6.816-10.592-11.76-13.58c-4.948-2.983-10.408-4.48-16.38-4.48
			c-8.96,0-16.477,3.408-22.54,10.22c-6.068,6.816-9.101,17.036-9.101,30.66v19.6c0,10.269,1.4,18.577,4.2,24.92
			c2.8,6.348,6.58,11.016,11.34,14C2093.014,259.493,2098.378,260.986,2104.354,260.986z"/>
		<path d="M2210.75,280.305v-143.08h24.36l4.2,21c0.372-0.56,1.304-2.052,2.8-4.48c1.492-2.424,3.823-5.132,7-8.12
			c3.172-2.983,7.184-5.6,12.04-7.84c4.852-2.24,10.731-3.36,17.64-3.36c9.893,0,17.964,1.96,24.221,5.88
			c6.251,3.92,10.92,9.288,14,16.1c3.079,6.816,4.619,14.608,4.619,23.38c0,2.056-0.096,4.156-0.279,6.3
			c-0.188,2.148-0.377,3.968-0.561,5.46h-27.439v-5.6c0-3.92-0.748-7.932-2.24-12.04c-1.496-4.104-4.017-7.56-7.561-10.36
			c-3.548-2.8-8.496-4.2-14.84-4.2c-4.668,0-8.636,0.98-11.899,2.94c-3.269,1.96-5.929,4.436-7.98,7.42
			c-2.056,2.988-3.5,6.208-4.34,9.66c-0.84,3.456-1.26,6.676-1.26,9.66v91.28H2210.75z"/>
		<path d="M2386.307,283.105c-7.656,0-14.979-1.216-21.979-3.64s-12.74-6.58-17.221-12.46c-4.479-5.88-6.72-13.86-6.72-23.94
			c0-10.264,2.284-18.572,6.86-24.92c4.571-6.344,11.06-11.2,19.46-14.56c8.399-3.36,18.479-5.644,30.239-6.86
			c11.761-1.212,24.824-1.82,39.2-1.82v-13.44c0-9.332-2.38-15.912-7.14-19.74c-4.76-3.824-11.996-5.74-21.7-5.74
			c-8.028,0-15.12,1.776-21.28,5.32c-6.16,3.548-9.239,9.148-9.239,16.8v2.8h-31.36c-0.188-0.744-0.28-1.632-0.28-2.66
			c0-1.024,0-2.004,0-2.94c0-8.212,2.563-15.4,7.7-21.56c5.132-6.16,12.271-10.92,21.42-14.28c9.144-3.36,19.6-5.04,31.36-5.04h4.76
			c19.412,0,33.88,3.828,43.4,11.48c9.52,7.656,14.279,18.388,14.279,32.2v73.08c0,3.548,0.84,6.068,2.521,7.56
			c1.68,1.496,3.544,2.24,5.6,2.24c1.864,0,3.872-0.372,6.021-1.12c2.144-0.744,4.151-1.584,6.02-2.52v19.88
			c-2.428,1.868-5.508,3.312-9.24,4.34c-3.736,1.024-8.216,1.54-13.439,1.54c-6.16,0-11.248-1.12-15.26-3.36
			c-4.017-2.24-7.049-5.272-9.101-9.1c-2.056-3.824-3.268-8.164-3.64-13.02c-5.416,8.028-12.416,14.28-21,18.76
			C2407.959,280.865,2397.879,283.105,2386.307,283.105z M2400.307,260.986c5.972,0,11.664-1.352,17.08-4.06
			c5.412-2.704,9.892-6.764,13.44-12.18c3.543-5.412,5.319-12.224,5.319-20.44v-10.92c-13.068,0-24.268,0.7-33.6,2.1
			c-9.337,1.4-16.429,3.968-21.28,7.7c-4.856,3.736-7.28,9.336-7.28,16.8c0,7.468,2.24,12.836,6.721,16.1
			C2385.187,259.354,2391.719,260.986,2400.307,260.986z"/>
	</g>
	
		<circle style="fill:#3BD7B1;stroke:#000000;stroke-width:6.8317;stroke-miterlimit:10;stroke-dasharray:34.1586,34.1586;" cx="719.196" cy="484.149" r="75"/>
	<g>
		<path d="M863.548,504.895l-19.27-56.252h10.578l14.678,42.886h0.328l14.596-42.886h9.758l-19.352,56.252H863.548z"/>
		<path d="M901.759,453.563v-7.708h10.004v7.708H901.759z M902.005,504.895v-41.902h9.512v41.902H902.005z"/>
		<path d="M924.227,504.895v-41.902h7.134l1.23,6.15c0.109-0.164,0.382-0.601,0.82-1.312c0.437-0.71,1.12-1.503,2.05-2.378
			c0.929-0.874,2.104-1.64,3.526-2.296c1.421-0.656,3.143-0.984,5.166-0.984c2.897,0,5.261,0.574,7.093,1.722
			c1.831,1.148,3.198,2.72,4.1,4.715c0.902,1.997,1.353,4.278,1.353,6.847c0,0.602-0.028,1.217-0.082,1.845
			c-0.055,0.629-0.11,1.162-0.164,1.599h-8.036v-1.64c0-1.148-0.219-2.323-0.656-3.526c-0.438-1.202-1.176-2.214-2.214-3.034
			c-1.039-0.82-2.488-1.23-4.346-1.23c-1.367,0-2.529,0.287-3.485,0.861c-0.957,0.574-1.736,1.299-2.337,2.173
			c-0.603,0.875-1.025,1.818-1.271,2.829c-0.246,1.012-0.369,1.955-0.369,2.829v26.732H924.227z"/>
		<path d="M977.854,505.715c-2.187,0-4.141-0.328-5.863-0.984c-1.722-0.656-3.062-1.735-4.018-3.239
			c-0.957-1.503-1.435-3.485-1.435-5.945v-25.256h-4.592v-7.298h4.838l3.362-13.366h5.904v13.366h9.758v7.298h-9.758v23.37
			c0,2.406,0.492,3.936,1.476,4.592c0.984,0.656,2.05,0.984,3.198,0.984c0.601,0,1.435-0.136,2.501-0.41
			c1.066-0.273,1.927-0.546,2.583-0.82v6.15c-0.656,0.328-1.449,0.615-2.378,0.861c-0.93,0.246-1.886,0.423-2.87,0.533
			C979.576,505.66,978.674,505.715,977.854,505.715z"/>
		<path d="M1009.341,505.715c-4.319,0-7.736-1.189-10.25-3.567c-2.515-2.378-3.772-5.972-3.772-10.783v-28.372h9.512v26.24
			c0,3.335,0.669,5.713,2.009,7.134c1.339,1.422,3.292,2.132,5.863,2.132c1.749,0,3.362-0.423,4.838-1.271
			c1.476-0.847,2.665-1.995,3.567-3.444c0.902-1.448,1.353-3.047,1.353-4.797v-25.994h9.512v33.374c0,1.039,0.246,1.777,0.738,2.214
			c0.492,0.438,1.038,0.656,1.64,0.656c0.601,0,1.202-0.109,1.804-0.328c0.601-0.218,1.175-0.464,1.722-0.738v5.822
			c-0.711,0.547-1.613,0.97-2.706,1.271c-1.094,0.3-2.378,0.451-3.854,0.451c-1.804,0-3.28-0.315-4.428-0.943
			s-2.009-1.476-2.583-2.542s-0.998-2.2-1.271-3.403c-1.367,2.187-3.294,3.882-5.781,5.084
			C1014.766,505.113,1012.129,505.715,1009.341,505.715z"/>
		<path d="M1057.639,505.715c-2.242,0-4.387-0.356-6.437-1.066c-2.05-0.71-3.731-1.927-5.043-3.649s-1.968-4.059-1.968-7.011
			c0-3.006,0.669-5.439,2.009-7.298c1.339-1.858,3.239-3.28,5.699-4.264c2.46-0.984,5.412-1.653,8.856-2.009
			c3.444-0.355,7.27-0.533,11.48-0.533v-3.936c0-2.733-0.697-4.66-2.091-5.781c-1.394-1.12-3.513-1.681-6.355-1.681
			c-2.351,0-4.428,0.521-6.232,1.558c-1.804,1.039-2.706,2.679-2.706,4.92v0.82h-9.184c-0.055-0.218-0.082-0.478-0.082-0.779
			c0-0.3,0-0.586,0-0.861c0-2.405,0.751-4.51,2.255-6.314c1.503-1.804,3.594-3.198,6.273-4.182c2.678-0.984,5.74-1.476,9.184-1.476
			h1.394c5.685,0,9.922,1.121,12.71,3.362c2.788,2.242,4.182,5.385,4.182,9.43v21.402c0,1.039,0.246,1.777,0.738,2.214
			c0.492,0.438,1.038,0.656,1.64,0.656c0.546,0,1.134-0.109,1.763-0.328c0.628-0.218,1.216-0.464,1.763-0.738v5.822
			c-0.711,0.547-1.613,0.97-2.706,1.271c-1.094,0.3-2.406,0.451-3.936,0.451c-1.804,0-3.294-0.328-4.469-0.984
			c-1.176-0.656-2.064-1.544-2.665-2.665c-0.602-1.12-0.957-2.391-1.066-3.813c-1.586,2.351-3.636,4.182-6.15,5.494
			C1063.98,505.059,1061.028,505.715,1057.639,505.715z M1061.739,499.237c1.749,0,3.416-0.396,5.002-1.189
			c1.585-0.792,2.897-1.98,3.936-3.567c1.038-1.585,1.558-3.58,1.558-5.986v-3.198c-3.827,0-7.107,0.205-9.84,0.615
			c-2.734,0.41-4.811,1.162-6.232,2.255c-1.422,1.094-2.132,2.734-2.132,4.92c0,2.187,0.656,3.759,1.968,4.715
			C1057.311,498.76,1059.224,499.237,1061.739,499.237z"/>
		<path d="M1096.096,504.895v-59.04h9.512v59.04H1096.096z"/>
		<path d="M1137.095,504.895v-56.252h10.168v23.452h22.714v-23.452h10.168v56.252h-10.086v-24.6h-22.714v24.6H1137.095z"/>
		<path d="M1209.993,505.715c-3.827,0-7.189-0.807-10.086-2.419c-2.898-1.612-5.153-3.977-6.766-7.093
			c-1.612-3.116-2.419-6.888-2.419-11.316v-1.886c0-4.428,0.861-8.2,2.583-11.316c1.723-3.116,4.072-5.48,7.053-7.093
			c2.979-1.612,6.382-2.419,10.209-2.419h1.065c3.553,0,6.669,0.726,9.349,2.173c2.678,1.449,4.756,3.513,6.231,6.191
			c1.477,2.679,2.214,5.822,2.214,9.43v5.166h-28.782c0,2.898,0.382,5.412,1.148,7.544c0.765,2.132,1.898,3.759,3.403,4.879
			c1.503,1.121,3.375,1.681,5.617,1.681c1.857,0,3.512-0.369,4.961-1.107c1.447-0.738,2.596-1.845,3.443-3.321
			c0.847-1.476,1.271-3.307,1.271-5.494h8.938c0,3.28-0.819,6.15-2.46,8.61c-1.64,2.46-3.854,4.375-6.642,5.74
			s-5.959,2.05-9.512,2.05H1209.993z M1200.727,479.885h19.353c0-3.826-0.834-6.655-2.501-8.487
			c-1.668-1.831-3.95-2.747-6.847-2.747c-2.734,0-5.043,0.943-6.93,2.829C1201.916,473.366,1200.891,476.168,1200.727,479.885z"/>
		<path d="M1250.746,505.715c-2.242,0-4.387-0.356-6.437-1.066s-3.731-1.927-5.043-3.649c-1.312-1.722-1.968-4.059-1.968-7.011
			c0-3.006,0.668-5.439,2.009-7.298c1.339-1.858,3.239-3.28,5.699-4.264c2.46-0.984,5.412-1.653,8.855-2.009
			c3.444-0.355,7.27-0.533,11.48-0.533v-3.936c0-2.733-0.697-4.66-2.092-5.781c-1.394-1.12-3.513-1.681-6.354-1.681
			c-2.352,0-4.428,0.521-6.232,1.558c-1.804,1.039-2.706,2.679-2.706,4.92v0.82h-9.184c-0.055-0.218-0.082-0.478-0.082-0.779
			c0-0.3,0-0.586,0-0.861c0-2.405,0.751-4.51,2.255-6.314c1.503-1.804,3.594-3.198,6.273-4.182c2.678-0.984,5.74-1.476,9.184-1.476
			h1.395c5.685,0,9.922,1.121,12.71,3.362c2.788,2.242,4.182,5.385,4.182,9.43v21.402c0,1.039,0.246,1.777,0.738,2.214
			c0.492,0.438,1.037,0.656,1.64,0.656c0.546,0,1.134-0.109,1.763-0.328c0.628-0.218,1.217-0.464,1.764-0.738v5.822
			c-0.711,0.547-1.613,0.97-2.706,1.271c-1.095,0.3-2.406,0.451-3.937,0.451c-1.804,0-3.294-0.328-4.469-0.984
			c-1.176-0.656-2.064-1.544-2.665-2.665c-0.603-1.12-0.957-2.391-1.065-3.813c-1.587,2.351-3.637,4.182-6.15,5.494
			C1257.087,505.059,1254.136,505.715,1250.746,505.715z M1254.847,499.237c1.749,0,3.416-0.396,5.002-1.189
			c1.585-0.792,2.896-1.98,3.936-3.567c1.038-1.585,1.559-3.58,1.559-5.986v-3.198c-3.827,0-7.107,0.205-9.84,0.615
			c-2.734,0.41-4.812,1.162-6.232,2.255c-1.422,1.094-2.132,2.734-2.132,4.92c0,2.187,0.656,3.759,1.968,4.715
			C1250.419,498.76,1252.331,499.237,1254.847,499.237z"/>
		<path d="M1304.783,505.715c-3.172,0-6.068-0.766-8.692-2.296s-4.729-3.908-6.314-7.134c-1.586-3.225-2.378-7.352-2.378-12.382
			v-0.902c0-4.592,0.751-8.432,2.255-11.521c1.503-3.088,3.498-5.412,5.986-6.97c2.487-1.558,5.234-2.337,8.241-2.337
			c2.952,0,5.466,0.562,7.544,1.681c2.077,1.121,3.662,2.556,4.756,4.305v-22.304h9.512v59.04h-7.38l-1.147-5.658
			c-1.367,1.968-3.062,3.541-5.084,4.715C1310.058,505.127,1307.625,505.715,1304.783,505.715z M1306.669,499.237
			c1.749,0,3.334-0.423,4.756-1.271c1.421-0.847,2.569-2.2,3.444-4.059c0.873-1.858,1.312-4.291,1.312-7.298v-5.822
			c0-2.678-0.424-4.906-1.271-6.683c-0.849-1.776-1.996-3.102-3.444-3.977c-1.449-0.874-3.048-1.312-4.797-1.312
			c-2.624,0-4.825,0.998-6.602,2.993c-1.776,1.996-2.665,4.989-2.665,8.979v5.74c0,3.007,0.41,5.44,1.23,7.298
			c0.82,1.859,1.927,3.226,3.321,4.1C1303.348,498.801,1304.919,499.237,1306.669,499.237z"/>
		<path d="M1355.868,519.737v-56.744h7.298l1.229,5.658c1.312-1.968,3.034-3.539,5.166-4.715c2.132-1.175,4.619-1.763,7.462-1.763
			c3.17,0,6.04,0.697,8.61,2.091c2.569,1.394,4.619,3.636,6.15,6.724c1.529,3.089,2.296,7.148,2.296,12.177v1.722
			c0,4.538-0.738,8.364-2.214,11.48c-1.477,3.116-3.458,5.453-5.945,7.011c-2.488,1.558-5.235,2.337-8.241,2.337
			c-2.952,0-5.453-0.561-7.503-1.681c-2.05-1.12-3.622-2.555-4.715-4.305v20.008H1355.868z M1374.892,499.073
			c1.749,0,3.321-0.451,4.715-1.353c1.395-0.902,2.487-2.241,3.28-4.018c0.792-1.776,1.189-3.977,1.189-6.601v-5.74
			c0-3.006-0.397-5.439-1.189-7.298c-0.793-1.858-1.886-3.225-3.28-4.1c-1.394-0.874-2.966-1.312-4.715-1.312
			c-1.695,0-3.267,0.424-4.715,1.271c-1.449,0.848-2.611,2.187-3.485,4.018c-0.875,1.832-1.312,4.278-1.312,7.339v5.822
			c0,2.679,0.423,4.907,1.271,6.683c0.848,1.777,1.995,3.103,3.444,3.977C1371.543,498.636,1373.142,499.073,1374.892,499.073z"/>
		<path d="M1415.316,505.715c-2.242,0-4.387-0.356-6.437-1.066s-3.731-1.927-5.043-3.649c-1.312-1.722-1.968-4.059-1.968-7.011
			c0-3.006,0.668-5.439,2.009-7.298c1.339-1.858,3.239-3.28,5.699-4.264c2.46-0.984,5.412-1.653,8.855-2.009
			c3.444-0.355,7.27-0.533,11.48-0.533v-3.936c0-2.733-0.697-4.66-2.092-5.781c-1.394-1.12-3.513-1.681-6.354-1.681
			c-2.352,0-4.428,0.521-6.232,1.558c-1.804,1.039-2.706,2.679-2.706,4.92v0.82h-9.184c-0.055-0.218-0.082-0.478-0.082-0.779
			c0-0.3,0-0.586,0-0.861c0-2.405,0.751-4.51,2.255-6.314c1.503-1.804,3.594-3.198,6.273-4.182c2.678-0.984,5.74-1.476,9.184-1.476
			h1.395c5.685,0,9.922,1.121,12.71,3.362c2.788,2.242,4.182,5.385,4.182,9.43v21.402c0,1.039,0.246,1.777,0.738,2.214
			c0.492,0.438,1.037,0.656,1.64,0.656c0.546,0,1.134-0.109,1.763-0.328c0.628-0.218,1.217-0.464,1.764-0.738v5.822
			c-0.711,0.547-1.613,0.97-2.706,1.271c-1.095,0.3-2.406,0.451-3.937,0.451c-1.804,0-3.294-0.328-4.469-0.984
			c-1.176-0.656-2.064-1.544-2.665-2.665c-0.603-1.12-0.957-2.391-1.065-3.813c-1.587,2.351-3.637,4.182-6.15,5.494
			C1421.657,505.059,1418.706,505.715,1415.316,505.715z M1419.417,499.237c1.749,0,3.416-0.396,5.002-1.189
			c1.585-0.792,2.896-1.98,3.936-3.567c1.038-1.585,1.559-3.58,1.559-5.986v-3.198c-3.827,0-7.107,0.205-9.84,0.615
			c-2.734,0.41-4.812,1.162-6.232,2.255c-1.422,1.094-2.132,2.734-2.132,4.92c0,2.187,0.656,3.759,1.968,4.715
			C1414.989,498.76,1416.901,499.237,1419.417,499.237z"/>
		<path d="M1453.774,504.895v-41.902h7.134l1.229,6.15c0.109-0.164,0.382-0.601,0.82-1.312c0.437-0.71,1.12-1.503,2.05-2.378
			c0.929-0.874,2.104-1.64,3.526-2.296c1.421-0.656,3.143-0.984,5.166-0.984c2.896,0,5.261,0.574,7.093,1.722
			c1.831,1.148,3.198,2.72,4.1,4.715c0.902,1.997,1.354,4.278,1.354,6.847c0,0.602-0.028,1.217-0.082,1.845
			c-0.055,0.629-0.11,1.162-0.164,1.599h-8.036v-1.64c0-1.148-0.219-2.323-0.656-3.526c-0.438-1.202-1.176-2.214-2.214-3.034
			c-1.039-0.82-2.488-1.23-4.346-1.23c-1.367,0-2.529,0.287-3.485,0.861c-0.957,0.574-1.735,1.299-2.337,2.173
			c-0.602,0.875-1.024,1.818-1.271,2.829c-0.246,1.012-0.369,1.955-0.369,2.829v26.732H1453.774z"/>
		<path d="M1507.401,505.715c-2.188,0-4.142-0.328-5.863-0.984c-1.723-0.656-3.062-1.735-4.019-3.239
			c-0.957-1.503-1.435-3.485-1.435-5.945v-25.256h-4.592v-7.298h4.838l3.362-13.366h5.903v13.366h9.758v7.298h-9.758v23.37
			c0,2.406,0.492,3.936,1.477,4.592c0.983,0.656,2.05,0.984,3.197,0.984c0.602,0,1.436-0.136,2.501-0.41
			c1.066-0.273,1.928-0.546,2.583-0.82v6.15c-0.655,0.328-1.448,0.615-2.378,0.861s-1.886,0.423-2.87,0.533
			C1509.123,505.66,1508.221,505.715,1507.401,505.715z"/>
		<path d="M1529.622,520.147c-1.258,0-2.419-0.096-3.485-0.287c-1.065-0.192-2.063-0.479-2.993-0.861v-7.298
			c0.602,0.273,1.395,0.505,2.379,0.697c0.983,0.191,1.939,0.287,2.869,0.287c1.421,0,2.61-0.274,3.567-0.82
			c0.956-0.547,1.804-1.449,2.542-2.706c0.738-1.258,1.462-2.898,2.173-4.92l-16.399-41.246h10.25l10.741,29.438h0.492
			l10.414-29.438h9.43l-15.497,40.016c-1.203,3.17-2.529,6.054-3.978,8.651c-1.449,2.596-3.171,4.66-5.166,6.191
			C1534.965,519.381,1532.519,520.147,1529.622,520.147z"/>
		<path d="M1564.898,518.917l40.18-70.274h7.462l-40.098,70.274H1564.898z"/>
		<path d="M1622.149,453.563v-7.708h10.004v7.708H1622.149z M1622.395,504.895v-41.902h9.513v41.902H1622.395z"/>
		<path d="M1644.617,504.895v-41.902h6.97l1.229,6.15c1.585-2.296,3.554-4.031,5.904-5.207c2.35-1.175,4.974-1.763,7.872-1.763
			c2.896,0,5.438,0.547,7.626,1.64c2.186,1.094,3.896,2.693,5.125,4.797c1.23,2.105,1.845,4.688,1.845,7.749v28.536h-9.512v-26.814
			c0-3.116-0.726-5.343-2.173-6.683c-1.449-1.339-3.458-2.009-6.027-2.009c-1.695,0-3.253,0.424-4.674,1.271
			c-1.422,0.848-2.556,1.982-3.403,3.403c-0.848,1.422-1.271,3.034-1.271,4.838v25.994H1644.617z"/>
		<path d="M1706.363,505.715c-2.188,0-4.142-0.328-5.863-0.984c-1.723-0.656-3.062-1.735-4.019-3.239
			c-0.957-1.503-1.435-3.485-1.435-5.945v-25.256h-4.592v-7.298h4.838l3.362-13.366h5.903v13.366h9.758v7.298h-9.758v23.37
			c0,2.406,0.492,3.936,1.477,4.592c0.983,0.656,2.05,0.984,3.197,0.984c0.602,0,1.436-0.136,2.501-0.41
			c1.066-0.273,1.928-0.546,2.583-0.82v6.15c-0.655,0.328-1.448,0.615-2.378,0.861s-1.886,0.423-2.87,0.533
			C1708.085,505.66,1707.183,505.715,1706.363,505.715z"/>
		<path d="M1741.622,505.715c-3.827,0-7.189-0.807-10.086-2.419c-2.898-1.612-5.153-3.977-6.766-7.093
			c-1.612-3.116-2.419-6.888-2.419-11.316v-1.886c0-4.428,0.861-8.2,2.583-11.316c1.723-3.116,4.072-5.48,7.053-7.093
			c2.979-1.612,6.382-2.419,10.209-2.419h1.065c3.553,0,6.669,0.726,9.349,2.173c2.678,1.449,4.756,3.513,6.231,6.191
			c1.477,2.679,2.214,5.822,2.214,9.43v5.166h-28.782c0,2.898,0.382,5.412,1.148,7.544c0.765,2.132,1.898,3.759,3.403,4.879
			c1.503,1.121,3.375,1.681,5.617,1.681c1.857,0,3.512-0.369,4.961-1.107c1.447-0.738,2.596-1.845,3.443-3.321
			c0.847-1.476,1.271-3.307,1.271-5.494h8.938c0,3.28-0.819,6.15-2.46,8.61c-1.64,2.46-3.854,4.375-6.642,5.74
			s-5.959,2.05-9.512,2.05H1741.622z M1732.355,479.885h19.353c0-3.826-0.834-6.655-2.501-8.487
			c-1.668-1.831-3.95-2.747-6.847-2.747c-2.734,0-5.043,0.943-6.93,2.829C1733.545,473.366,1732.52,476.168,1732.355,479.885z"/>
		<path d="M1771.47,504.895v-41.902h7.134l1.229,6.15c0.109-0.164,0.382-0.601,0.82-1.312c0.437-0.71,1.12-1.503,2.05-2.378
			c0.929-0.874,2.104-1.64,3.526-2.296c1.421-0.656,3.143-0.984,5.166-0.984c2.896,0,5.261,0.574,7.093,1.722
			c1.831,1.148,3.198,2.72,4.1,4.715c0.902,1.997,1.354,4.278,1.354,6.847c0,0.602-0.028,1.217-0.082,1.845
			c-0.055,0.629-0.11,1.162-0.164,1.599h-8.036v-1.64c0-1.148-0.219-2.323-0.656-3.526c-0.438-1.202-1.176-2.214-2.214-3.034
			c-1.039-0.82-2.488-1.23-4.346-1.23c-1.367,0-2.529,0.287-3.485,0.861c-0.957,0.574-1.735,1.299-2.337,2.173
			c-0.602,0.875-1.024,1.818-1.271,2.829c-0.246,1.012-0.369,1.955-0.369,2.829v26.732H1771.47z"/>
		<path d="M1811.977,504.895v-41.902h7.134l1.312,6.15c1.421-2.186,3.116-3.895,5.084-5.125c1.969-1.23,4.291-1.845,6.971-1.845
			c2.732,0,5.166,0.533,7.298,1.599s3.799,2.802,5.002,5.207c1.257-2.077,2.938-3.731,5.043-4.961
			c2.104-1.23,4.604-1.845,7.503-1.845c2.678,0,5.056,0.547,7.134,1.64c2.077,1.094,3.703,2.693,4.879,4.797
			c1.175,2.105,1.764,4.688,1.764,7.749v28.536h-9.513v-26.486c0-3.17-0.629-5.453-1.886-6.847
			c-1.258-1.394-3.062-2.091-5.412-2.091c-1.531,0-2.898,0.397-4.1,1.189c-1.203,0.793-2.146,1.9-2.829,3.321
			c-0.685,1.422-1.025,3.034-1.025,4.838v26.076h-9.512v-26.486c0-3.17-0.644-5.453-1.927-6.847
			c-1.285-1.394-3.104-2.091-5.453-2.091c-1.531,0-2.898,0.397-4.101,1.189c-1.203,0.793-2.146,1.9-2.828,3.321
			c-0.685,1.422-1.025,3.034-1.025,4.838v26.076H1811.977z"/>
		<path d="M1900.781,505.715c-3.827,0-7.189-0.807-10.086-2.419c-2.898-1.612-5.153-3.977-6.766-7.093
			c-1.612-3.116-2.419-6.888-2.419-11.316v-1.886c0-4.428,0.861-8.2,2.583-11.316c1.723-3.116,4.072-5.48,7.053-7.093
			c2.979-1.612,6.382-2.419,10.209-2.419h1.065c3.553,0,6.669,0.726,9.349,2.173c2.678,1.449,4.756,3.513,6.231,6.191
			c1.477,2.679,2.214,5.822,2.214,9.43v5.166h-28.782c0,2.898,0.382,5.412,1.148,7.544c0.765,2.132,1.898,3.759,3.403,4.879
			c1.503,1.121,3.375,1.681,5.617,1.681c1.857,0,3.512-0.369,4.961-1.107c1.447-0.738,2.596-1.845,3.443-3.321
			c0.847-1.476,1.271-3.307,1.271-5.494h8.938c0,3.28-0.819,6.15-2.46,8.61c-1.64,2.46-3.854,4.375-6.642,5.74
			s-5.959,2.05-9.512,2.05H1900.781z M1891.515,479.885h19.353c0-3.826-0.834-6.655-2.501-8.487
			c-1.668-1.831-3.95-2.747-6.847-2.747c-2.734,0-5.043,0.943-6.93,2.829C1892.704,473.366,1891.679,476.168,1891.515,479.885z"/>
		<path d="M1946.209,505.715c-3.172,0-6.068-0.766-8.692-2.296s-4.729-3.908-6.314-7.134c-1.586-3.225-2.378-7.352-2.378-12.382
			v-0.902c0-4.592,0.751-8.432,2.255-11.521c1.503-3.088,3.498-5.412,5.986-6.97c2.487-1.558,5.234-2.337,8.241-2.337
			c2.952,0,5.466,0.562,7.544,1.681c2.077,1.121,3.662,2.556,4.756,4.305v-22.304h9.512v59.04h-7.38l-1.147-5.658
			c-1.367,1.968-3.062,3.541-5.084,4.715C1951.483,505.127,1949.051,505.715,1946.209,505.715z M1948.095,499.237
			c1.749,0,3.334-0.423,4.756-1.271c1.421-0.847,2.569-2.2,3.444-4.059c0.873-1.858,1.312-4.291,1.312-7.298v-5.822
			c0-2.678-0.424-4.906-1.271-6.683c-0.849-1.776-1.996-3.102-3.444-3.977c-1.449-0.874-3.048-1.312-4.797-1.312
			c-2.624,0-4.825,0.998-6.602,2.993c-1.776,1.996-2.665,4.989-2.665,8.979v5.74c0,3.007,0.41,5.44,1.23,7.298
			c0.82,1.859,1.927,3.226,3.321,4.1C1944.773,498.801,1946.345,499.237,1948.095,499.237z"/>
		<path d="M1980.073,453.563v-7.708h10.004v7.708H1980.073z M1980.318,504.895v-41.902h9.513v41.902H1980.318z"/>
		<path d="M2013.447,505.715c-2.242,0-4.387-0.356-6.437-1.066s-3.731-1.927-5.043-3.649c-1.312-1.722-1.968-4.059-1.968-7.011
			c0-3.006,0.668-5.439,2.009-7.298c1.339-1.858,3.239-3.28,5.699-4.264c2.46-0.984,5.412-1.653,8.855-2.009
			c3.444-0.355,7.27-0.533,11.48-0.533v-3.936c0-2.733-0.697-4.66-2.092-5.781c-1.394-1.12-3.513-1.681-6.354-1.681
			c-2.352,0-4.428,0.521-6.232,1.558c-1.804,1.039-2.706,2.679-2.706,4.92v0.82h-9.184c-0.055-0.218-0.082-0.478-0.082-0.779
			c0-0.3,0-0.586,0-0.861c0-2.405,0.751-4.51,2.255-6.314c1.503-1.804,3.594-3.198,6.273-4.182c2.678-0.984,5.74-1.476,9.184-1.476
			h1.395c5.685,0,9.922,1.121,12.71,3.362c2.788,2.242,4.182,5.385,4.182,9.43v21.402c0,1.039,0.246,1.777,0.738,2.214
			c0.492,0.438,1.037,0.656,1.64,0.656c0.546,0,1.134-0.109,1.763-0.328c0.628-0.218,1.217-0.464,1.764-0.738v5.822
			c-0.711,0.547-1.613,0.97-2.706,1.271c-1.095,0.3-2.406,0.451-3.937,0.451c-1.804,0-3.294-0.328-4.469-0.984
			c-1.176-0.656-2.064-1.544-2.665-2.665c-0.603-1.12-0.957-2.391-1.065-3.813c-1.587,2.351-3.637,4.182-6.15,5.494
			C2019.788,505.059,2016.837,505.715,2013.447,505.715z M2017.548,499.237c1.749,0,3.416-0.396,5.002-1.189
			c1.585-0.792,2.896-1.98,3.936-3.567c1.038-1.585,1.559-3.58,1.559-5.986v-3.198c-3.827,0-7.107,0.205-9.84,0.615
			c-2.734,0.41-4.812,1.162-6.232,2.255c-1.422,1.094-2.132,2.734-2.132,4.92c0,2.187,0.656,3.759,1.968,4.715
			C2013.12,498.76,2015.032,499.237,2017.548,499.237z"/>
		<path d="M2051.904,504.895v-41.902h7.134l1.229,6.15c0.109-0.164,0.382-0.601,0.82-1.312c0.437-0.71,1.12-1.503,2.05-2.378
			c0.929-0.874,2.104-1.64,3.526-2.296c1.421-0.656,3.143-0.984,5.166-0.984c2.896,0,5.261,0.574,7.093,1.722
			c1.831,1.148,3.198,2.72,4.1,4.715c0.902,1.997,1.354,4.278,1.354,6.847c0,0.602-0.028,1.217-0.082,1.845
			c-0.055,0.629-0.11,1.162-0.164,1.599h-8.036v-1.64c0-1.148-0.219-2.323-0.656-3.526c-0.438-1.202-1.176-2.214-2.214-3.034
			c-1.039-0.82-2.488-1.23-4.346-1.23c-1.367,0-2.529,0.287-3.485,0.861c-0.957,0.574-1.735,1.299-2.337,2.173
			c-0.602,0.875-1.024,1.818-1.271,2.829c-0.246,1.012-0.369,1.955-0.369,2.829v26.732H2051.904z"/>
		<path d="M2096.757,520.147c-1.258,0-2.419-0.096-3.485-0.287c-1.065-0.192-2.063-0.479-2.993-0.861v-7.298
			c0.602,0.273,1.395,0.505,2.379,0.697c0.983,0.191,1.939,0.287,2.869,0.287c1.421,0,2.61-0.274,3.567-0.82
			c0.956-0.547,1.804-1.449,2.542-2.706c0.738-1.258,1.462-2.898,2.173-4.92l-16.399-41.246h10.25l10.741,29.438h0.492
			l10.414-29.438h9.43l-15.497,40.016c-1.203,3.17-2.529,6.054-3.978,8.651c-1.449,2.596-3.171,4.66-5.166,6.191
			C2102.1,519.381,2099.653,520.147,2096.757,520.147z"/>
	</g>
</g>
</svg>
