<?xml version="1.0" encoding="iso-8859-1"?>
<!-- Generator: Adobe Illustrator 29.6.0, SVG Export Plug-In . SVG Version: 9.03 Build 0)  -->
<svg version="1.1" xmlns="http://www.w3.org/2000/svg" xmlns:xlink="http://www.w3.org/1999/xlink" x="0px" y="0px"
	 viewBox="0 0 2774 3300" style="enable-background:new 0 0 2774 3300;" xml:space="preserve">
<g id="Source." style="display:none;">
	
		<image style="display:inline;overflow:visible;" width="517" height="533" xlink:href="../../_Draft Images/hydra_basichydrahead.png"  transform="matrix(5.711 0 0 5.711 -89.3 -194.3333)">
	</image>
</g>
<g id="Fill">
	<path d="M1285.737,3206.325H960.662c-23.1,0-42-18.9-42-42V2839.25c0-23.1,18.9-42,42-42h325.075c23.1,0,42,18.9,42,42v325.075
		C1327.737,3187.425,1308.837,3206.325,1285.737,3206.325z"/>
	<path d="M2073.931,3146.052h-325.075c-23.1,0-42-18.9-42-42v-325.075c0-23.1,18.9-42,42-42h325.075c23.1,0,42,18.9,42,42v325.075
		C2115.931,3127.152,2097.031,3146.052,2073.931,3146.052z"/>
	<path d="M2603.229,2475.663h-325.075c-23.1,0-42-18.9-42-42v-325.075c0-23.1,18.9-42,42-42h325.075c23.1,0,42,18.9,42,42v325.075
		C2645.229,2456.763,2626.329,2475.663,2603.229,2475.663z"/>
	<path d="M1425.172,1276.718h-325.075c-23.1,0-42-18.9-42-42V909.642c0-23.1,18.9-42,42-42h325.075c23.1,0,42,18.9,42,42v325.075
		C1467.172,1257.818,1448.272,1276.718,1425.172,1276.718z"/>
	<path d="M2199.233,1184.798h-325.075c-23.1,0-42-18.9-42-42V817.723c0-23.1,18.9-42,42-42h325.075c23.1,0,42,18.9,42,42v325.075
		C2241.233,1165.898,2222.333,1184.798,2199.233,1184.798z"/>
	<path style="fill:#FFFFFF;stroke:#000000;stroke-width:6;stroke-miterlimit:10;" d="M1408.159,1262.706h-325.075
		c-23.1,0-42-18.9-42-42V895.631c0-23.1,18.9-42,42-42h325.075c23.1,0,42,18.9,42,42v325.075
		C1450.159,1243.806,1431.259,1262.706,1408.159,1262.706z"/>
	<path style="fill:#FFFFFF;stroke:#000000;stroke-width:6;stroke-miterlimit:10;" d="M2182.219,1170.786h-325.075
		c-23.1,0-42-18.9-42-42V803.711c0-23.1,18.9-42,42-42h325.075c23.1,0,42,18.9,42,42v325.075
		C2224.219,1151.886,2205.32,1170.786,2182.219,1170.786z"/>
	<path style="fill:#FFFFFF;stroke:#000000;stroke-width:6;stroke-miterlimit:10;" d="M1268.723,3192.313H943.648
		c-23.1,0-42-18.9-42-42v-325.075c0-23.1,18.9-42,42-42h325.075c23.1,0,42,18.9,42,42v325.075
		C1310.723,3173.413,1291.823,3192.313,1268.723,3192.313z"/>
	<path style="fill:#FFFFFF;stroke:#000000;stroke-width:6;stroke-miterlimit:10;" d="M2056.917,3132.041h-325.075
		c-23.1,0-42-18.9-42-42v-325.075c0-23.1,18.9-42,42-42h325.075c23.1,0,42,18.9,42,42v325.075
		C2098.917,3113.141,2080.017,3132.041,2056.917,3132.041z"/>
	<path style="fill:#FFFFFF;stroke:#000000;stroke-width:6;stroke-miterlimit:10;" d="M2586.216,2461.652h-325.075
		c-23.1,0-42-18.9-42-42v-325.075c0-23.1,18.9-42,42-42h325.075c23.1,0,42,18.9,42,42v325.075
		C2628.216,2442.751,2609.316,2461.652,2586.216,2461.652z"/>
	
		<line style="fill:none;stroke:#FF5553;stroke-width:12;stroke-miterlimit:10;" x1="1204.454" y1="1693.955" x2="1235.984" y2="1147.317"/>
	
		<line style="fill:none;stroke:#8FD14F;stroke-width:12;stroke-miterlimit:10;" x1="1339.984" y1="1072.65" x2="1929.316" y2="947.317"/>
	<circle style="fill:#8FD14F;stroke:#000000;stroke-width:6;stroke-miterlimit:10;" cx="1245.621" cy="1058.169" r="136.836"/>
	
		<line style="fill:none;stroke:#FF5553;stroke-width:12;stroke-miterlimit:10;" x1="1509.241" y1="1703.63" x2="2001.316" y2="1067.317"/>
	<circle style="fill:#8FD14F;stroke:#000000;stroke-width:6;stroke-miterlimit:10;" cx="2019.682" cy="966.249" r="136.836"/>
	
		<rect x="2085.962" y="711.741" style="fill:#E6E6E6;stroke:#000000;stroke-width:6;stroke-miterlimit:10;" width="272.131" height="163.279"/>
	
		<rect x="947.37" y="792.294" style="fill:#E6E6E6;stroke:#000000;stroke-width:6;stroke-miterlimit:10;" width="272.131" height="163.279"/>
	<path style="fill:#FF5553;" d="M1997.015,1837.527c-24.335-34.745-59.779-60.413-99.955-73.039
		c1.503-14.225,1.627-28.635,0.281-42.978c-5.293-56.12-32.928-108.842-75.842-145.318c-15.788-10.201-31.563-20.408-47.344-30.602
		c-36.15-16.892-74.103-23.584-113.848-20.081c-18.323,4.195-36.639,8.384-54.963,12.566c-21.702,8.168-41.365,19.251-59.041,33.19
		c-6.149-6.894-12.755-13.409-19.826-19.428c-14.723-9.514-29.445-19.022-44.155-28.543
		c-33.719-15.748-69.104-21.982-106.176-18.715c-17.088,3.902-34.17,7.809-51.252,11.717
		c-33.045,12.423-61.066,32.033-84.075,58.793c-19.519-24.159-44.475-44.168-74.234-57.538
		c-24.773-11.129-51.088-20.231-77.821-24.969c-26.943-4.77-55.186-3.836-82.625-3.052c-18.193,4.163-36.399,8.326-54.604,12.488
		c-35.294,13.279-65.222,34.235-89.773,62.864c-31.268,36.79-49.141,83.676-51.049,131.66c-14.677-2.149-29.647-2.647-44.932-1.294
		c-15.821,3.614-31.648,7.234-47.462,10.848c-30.693,11.547-56.701,29.759-78.037,54.643
		c-32.556,38.306-48.487,89.173-43.769,139.215c4.568,48.461,28.426,93.995,65.497,125.499c5.933,3.842,11.873,7.685,17.814,11.52
		c-0.314,7.561-0.17,15.154,0.542,22.734c4.123,43.684,25.629,84.729,59.047,113.129c12.286,7.946,24.564,15.885,36.856,23.825
		c28.145,13.154,57.688,18.362,88.636,15.631l42.783-9.789c6.92-2.6,13.579-5.58,19.977-8.939
		c5.776,6.287,11.912,12.279,18.447,17.833c15.311,9.894,30.622,19.794,45.932,29.694c35.078,16.389,71.902,22.878,110.469,19.48
		c17.775-4.064,35.549-8.129,53.323-12.201c31.464-11.827,58.505-29.981,81.22-54.303c1.333,1.183,2.627,2.405,3.986,3.555
		c15.781,10.201,31.556,20.408,47.337,30.608c36.15,16.885,74.103,23.584,113.854,20.075c18.317-4.189,36.633-8.378,54.95-12.567
		c3.313-1.248,6.528-2.626,9.743-4.005c7.613,4.927,15.233,9.848,22.852,14.775c37.796,17.657,77.475,24.649,119.023,20.989
		c19.146-4.384,38.306-8.763,57.453-13.141c37.143-13.965,68.64-36.019,94.472-66.151c12.174-14.317,22.407-30.098,30.602-46.847
		c2.568,0.562,5.143,1.111,7.75,1.568c17.029,0.699,34.059,1.392,51.082,2.091c33.379-3.306,63.831-14.532,91.349-33.666
		l8.351-6.391c12.109-11.024,24.211-22.035,36.32-33.059c22.309-26.479,36.516-56.773,42.645-90.891
		C2037.635,1931.058,2026.095,1879.055,1997.015,1837.527z"/>
	<g id="Layer_2_00000171693655610200325860000007420507718178109880_">
		<g id="Layer_1-2">
			<path style="fill:#FFFFFF;" d="M815.673,1897.948c-0.516,8.986,6.345,16.691,15.33,17.216h0.889
				c8.987-0.01,16.265-7.304,16.255-16.291s-7.304-16.265-16.291-16.255c-8.618,0.01-15.734,6.736-16.228,15.339L815.673,1897.948z"
				/>
			<path style="fill:#FFFFFF;" d="M754.992,1893.822c-2.898-0.162-5.379,2.056-5.541,4.953c-0.162,2.898,2.056,5.379,4.953,5.541
				c2.895,0.162,5.374-2.051,5.54-4.946c0.171-2.892-2.035-5.376-4.927-5.547C755.009,1893.823,755.001,1893.822,754.992,1893.822z"
				/>
			<path style="fill:#FFFFFF;" d="M814.642,1803.503c2.586-1.328,3.606-4.501,2.278-7.088c-1.328-2.586-4.501-3.606-7.088-2.278
				c-2.566,1.318-3.594,4.455-2.304,7.036c1.306,2.603,4.475,3.654,7.078,2.348C814.618,1803.515,814.63,1803.509,814.642,1803.503z
				"/>
			<path style="fill:#FFFFFF;" d="M831.155,1832.296c4.008-2.022,5.618-6.909,3.596-10.917s-6.909-5.618-10.917-3.596
				c-4.006,2.021-5.616,6.905-3.599,10.912c2.019,4.009,6.905,5.623,10.914,3.604
				C831.151,1832.298,831.153,1832.297,831.155,1832.296z"/>
			<path style="fill:#FFFFFF;" d="M775.587,1852.099c3.09,2.032,7.242,1.174,9.274-1.916c2.032-3.09,1.174-7.242-1.916-9.274
				c-3.09-2.032-7.242-1.174-9.274,1.916c-0.002,0.003-0.003,0.005-0.005,0.008C771.641,1845.923,772.5,1850.069,775.587,1852.099z"
				/>
			<path style="fill:#FFFFFF;" d="M785.484,1890.861c-4.482-0.253-8.32,3.175-8.573,7.657c-0.253,4.482,3.175,8.32,7.657,8.573
				c4.478,0.253,8.315-3.17,8.572-7.648C793.393,1894.959,789.967,1891.119,785.484,1890.861z"/>
			<path style="fill:#FFFFFF;" d="M776.476,1945.504c-3.3,1.668-4.624,5.696-2.956,8.996c1.668,3.301,5.696,4.624,8.996,2.956
				c3.298-1.667,4.623-5.691,2.958-8.991c-1.665-3.302-5.692-4.629-8.994-2.964C776.48,1945.502,776.478,1945.503,776.476,1945.504z
				"/>
			<path style="fill:#FFFFFF;" d="M808.07,1874.063c4.42,2.896,10.351,1.662,13.247-2.758c2.896-4.42,1.662-10.351-2.758-13.247
				c-4.419-2.896-10.349-1.662-13.246,2.756c-2.899,4.412-1.673,10.339,2.74,13.238
				C808.059,1874.056,808.065,1874.059,808.07,1874.063z"/>
			<path style="fill:#FFFFFF;" d="M908.305,1831.656c3.764,2.455,8.805,1.394,11.26-2.37c2.455-3.764,1.394-8.805-2.37-11.26
				c-3.761-2.453-8.799-1.396-11.256,2.363c-2.46,3.755-1.411,8.793,2.344,11.253
				C908.29,1831.646,908.298,1831.651,908.305,1831.656z"/>
			<path style="fill:#FFFFFF;" d="M924.987,1802.951c2.432,1.594,5.695,0.915,7.289-1.517c1.594-2.432,0.915-5.695-1.517-7.289
				c-2.432-1.594-5.695-0.915-7.289,1.517c-0.001,0.002-0.003,0.004-0.004,0.006C921.877,1798.1,922.557,1801.359,924.987,1802.951z
				"/>
			<path style="fill:#FFFFFF;" d="M909.585,1882.458c-8.975-0.516-16.669,6.342-17.184,15.317
				c-0.516,8.975,6.342,16.669,15.317,17.184l0,0c0.311,0,0.631,0,0.943,0c8.987-0.004,16.269-7.294,16.265-16.281
				c-0.002-3.996-1.474-7.851-4.136-10.832C917.928,1884.62,913.891,1882.679,909.585,1882.458z"/>
			<path style="fill:#FFFFFF;" d="M836.499,1872.934c2.756,5.505,8.392,8.974,14.548,8.954c8.992,0.002,16.283-7.286,16.285-16.278
				c0.001-2.556-0.601-5.077-1.755-7.358c-2.775-5.479-8.406-8.922-14.548-8.892c-8.992,0.015-16.269,7.317-16.254,16.31
				C834.779,1868.192,835.37,1870.679,836.499,1872.934z"/>
			<path style="fill:#FFFFFF;" d="M964.104,1852.081c3.302-1.666,4.627-5.693,2.961-8.995c-1.666-3.301-5.693-4.627-8.995-2.961
				c-3.298,1.664-4.625,5.685-2.966,8.986C956.771,1852.415,960.799,1853.744,964.104,1852.081z"/>
			<path style="fill:#FFFFFF;" d="M922.835,1857.266c-4.72,2.377-6.619,8.13-4.242,12.849c2.377,4.72,8.13,6.619,12.849,4.242
				s6.619-8.13,4.242-12.849c-2.37-4.717-8.116-6.62-12.833-4.25C922.845,1857.26,922.84,1857.263,922.835,1857.266z"/>
			<path style="fill:#FFFFFF;" d="M869.676,1800.497c3.692,0.21,6.856-2.612,7.066-6.304c0.21-3.692-2.612-6.855-6.304-7.066
				c-3.692-0.21-6.856,2.612-7.066,6.304c0,0.002,0,0.004,0,0.005C863.165,1797.127,865.986,1800.287,869.676,1800.497z"/>
			<path style="fill:#FFFFFF;" d="M869.605,1842.638c5.276,0.296,9.793-3.742,10.089-9.018c0.296-5.276-3.742-9.793-9.018-10.089
				c-5.271-0.296-9.785,3.734-10.088,9.005C860.29,1837.815,864.326,1842.337,869.605,1842.638z"/>
			<path style="fill:#FFFFFF;" d="M817.763,1940.311c4.719-2.379,6.615-8.133,4.236-12.851c-2.379-4.719-8.133-6.615-12.851-4.236
				s-6.615,8.133-4.236,12.851c0.001,0.001,0.001,0.002,0.002,0.003C807.294,1940.795,813.046,1942.689,817.763,1940.311z"/>
			<path style="fill:#FFFFFF;" d="M875.785,1856.599c-4.926,7.517-2.825,17.604,4.692,22.53c7.517,4.926,17.604,2.825,22.53-4.692
				c4.926-7.517,2.825-17.604-4.692-22.53c-2.644-1.733-5.736-2.658-8.898-2.662
				C883.924,1849.241,878.799,1852.006,875.785,1856.599z"/>
			<path style="fill:#FFFFFF;" d="M904.081,1924.652c-4.047-8.025-13.833-11.249-21.857-7.203
				c-8.025,4.047-11.249,13.833-7.203,21.857c2.766,5.486,8.386,8.946,14.53,8.946c2.547-0.017,5.055-0.626,7.327-1.778
				C904.878,1942.424,908.098,1932.668,904.081,1924.652z"/>
			<path style="fill:#FFFFFF;" d="M932.518,1923.513c-4.418-2.9-10.35-1.67-13.25,2.748s-1.67,10.349,2.748,13.25
				c4.417,2.9,10.349,1.67,13.249-2.748C938.156,1932.344,936.927,1926.419,932.518,1923.513z"/>
			<path style="fill:#FFFFFF;" d="M963.677,1899.068c0.253-4.482-3.175-8.32-7.657-8.573s-8.32,3.175-8.573,7.657
				c-0.253,4.478,3.17,8.315,7.648,8.572C959.579,1906.978,963.419,1903.551,963.677,1899.068z"/>
			<path style="fill:#FFFFFF;" d="M986.193,1893.28c-2.903-0.167-5.391,2.05-5.558,4.953c-0.167,2.903,2.05,5.391,4.953,5.558
				c2.903,0.167,5.391-2.05,5.558-4.953c0,0,0,0,0,0C991.307,1895.937,989.093,1893.451,986.193,1893.28z"/>
			<path style="fill:#FFFFFF;" d="M964.993,1945.478c-3.094-2.026-7.244-1.161-9.27,1.932c-2.026,3.094-1.161,7.244,1.933,9.27
				c3.092,2.025,7.24,1.162,9.267-1.928c2.029-3.092,1.167-7.243-1.925-9.272C964.996,1945.479,964.995,1945.479,964.993,1945.478z"
				/>
			<path style="fill:#FFFFFF;" d="M815.602,1994.625c-2.431-1.595-5.694-0.918-7.289,1.513c-1.595,2.431-0.918,5.694,1.513,7.289
				c2.43,1.594,5.692,0.918,7.288-1.511c1.596-2.43,0.921-5.694-1.509-7.29C815.604,1994.626,815.603,1994.626,815.602,1994.625z"/>
			<path style="fill:#FFFFFF;" d="M925.938,1994.074c-2.596,1.308-3.64,4.474-2.332,7.07c1.309,2.596,4.474,3.64,7.07,2.332
				c2.596-1.309,3.64-4.474,2.332-7.07c0,0-0.001-0.001-0.001-0.002c-1.303-2.594-4.462-3.64-7.055-2.337
				C925.948,1994.069,925.943,1994.072,925.938,1994.074z"/>
			<path style="fill:#FFFFFF;" d="M864.795,1940.951c4.926-7.517,2.825-17.604-4.692-22.53s-17.604-2.825-22.53,4.692
				c-4.926,7.517-2.825,17.604,4.692,22.53c2.647,1.734,5.742,2.66,8.907,2.662C856.666,1948.324,861.795,1945.555,864.795,1940.951
				z"/>
			<path style="fill:#FFFFFF;" d="M832.275,1965.93c-3.756-2.457-8.794-1.404-11.251,2.352c-2.457,3.756-1.404,8.794,2.352,11.251
				c3.754,2.456,8.787,1.406,11.246-2.345C837.081,1973.43,836.03,1968.392,832.275,1965.93z"/>
			<path style="fill:#FFFFFF;" d="M870.219,1997.08c-3.692-0.21-6.855,2.613-7.065,6.305c-0.21,3.692,2.613,6.855,6.305,7.065
				c3.691,0.21,6.853-2.61,7.065-6.301c0.212-3.692-2.609-6.857-6.301-7.069C870.222,1997.08,870.22,1997.08,870.219,1997.08z"/>
			<path style="fill:#FFFFFF;" d="M870.29,1954.948c-5.275-0.321-9.81,3.695-10.131,8.97c-0.321,5.275,3.695,9.81,8.97,10.131
				s9.81-3.695,10.131-8.97c0.001-0.013,0.001-0.025,0.002-0.038C879.566,1959.778,875.552,1955.263,870.29,1954.948z"/>
			<path style="fill:#FFFFFF;" d="M909.425,1965.281c-4.007,2.033-5.608,6.93-3.574,10.938c2.033,4.007,6.93,5.608,10.938,3.574
				s5.608-6.93,3.574-10.938c-0.003-0.006-0.006-0.012-0.009-0.017c-2.03-3.998-6.916-5.594-10.914-3.564
				C909.435,1965.276,909.43,1965.278,909.425,1965.281z"/>
			<path style="fill:#FFFFFF;" d="M1088.997,1860.342c15.757,0,26.793,8.661,26.793,24.738h20.639
				c0-28.206-20.799-41.794-47.743-41.794c-33.097,0-52.322,17.971-52.322,55.951c0,38.922,19.225,55.942,52.322,55.942
				c27.264,0,47.743-13.232,47.743-41.447h-19.857c0,15.757-10.875,24.427-27.566,24.427c-21.911,0-32.012-12.138-32.012-37.348
				v-3.148C1057.011,1872.943,1067.246,1860.342,1088.997,1860.342z"/>
			<path style="fill:#FFFFFF;" d="M1191.001,1845.208l-42.078,108.113h20.808l8.661-23.485h49.45l8.892,23.485h21.751
				l-42.105-108.113H1191.001z M1184.696,1912.789l11.035-29.638c2.205-5.825,6.145-18.434,6.936-20.639h0.783
				c0.791,2.205,4.731,14.966,6.936,20.639l11.026,29.629L1184.696,1912.789z"/>
			<path style="fill:#FFFFFF;" d="M1371.008,1877.985c0-20.008-11.507-32.777-35.302-32.777h-57.053v108.113h20.177v-41.794h33.56
				l20.452,41.794h22.062l-23.12-44.915C1364.543,1903.363,1371.008,1892.648,1371.008,1877.985z M1334.123,1894.533h-35.294
				v-32.146h35.294c10.875,0,16.549,5.833,16.549,15.597C1350.671,1888.238,1344.526,1894.533,1334.123,1894.533z"/>
			<path style="fill:#FFFFFF;" d="M1441.773,1845.208h-43.199v108.113h43.181c32.617,0,52.465-17.02,52.465-54.057
				C1494.22,1862.228,1474.39,1845.208,1441.773,1845.208z M1473.608,1900.838c-0.16,23.645-11.347,35.302-31.835,35.302h-23.004
				v-73.753h23.004c20.452,0,31.835,11.667,31.835,35.303V1900.838z"/>
			<path style="fill:#FFFFFF;" d="M1547.076,1845.208l-42.096,108.113h20.799l8.67-23.485h49.486l8.821,23.485h21.751
				l-42.078-108.113H1547.076z M1540.771,1912.789l11.018-29.638c2.205-5.825,6.145-18.434,6.936-20.639h0.8
				c0.782,2.205,4.731,14.966,6.936,20.639l11.026,29.629L1540.771,1912.789z"/>
			<path style="fill:#FFFFFF;" d="M1706.729,1909.508c0,2.045,0.311,7.558,0.311,8.51l-0.783,0.311
				c-0.471-0.622-3.628-6.145-5.335-8.661l-46.96-64.46h-19.252v108.113h19.385v-64.772c0-2.668-0.32-7.879-0.32-8.67l0.791-0.471
				c0.471,0.631,2.837,5.202,5.335,8.83l47.281,65.083h18.905v-108.113h-19.376v64.3H1706.729z"/>
			<path style="fill:#FFFFFF;" d="M1806.447,1843.323c-33.88,0-54.368,17.962-54.368,55.942s20.452,55.942,54.368,55.942
				c33.915,0,54.528-17.963,54.528-55.942S1840.327,1843.323,1806.447,1843.323z M1840.327,1900.998
				c0,24.739-11.818,37.188-33.88,37.188c-21.902,0-33.72-12.449-33.72-37.188v-3.308c0-24.747,11.978-37.348,33.72-37.348
				c21.911,0,33.88,12.6,33.88,37.348V1900.998z"/>
		</g>
	</g>
	
		<line style="fill:none;stroke:#FF5553;stroke-width:12;stroke-miterlimit:10;" x1="1113.45" y1="2865.376" x2="1238.651" y2="2155.314"/>
	
		<line style="fill:none;stroke:#FF5553;stroke-width:12;stroke-miterlimit:10;" x1="1848.561" y1="2810.728" x2="1435.983" y2="2208.648"/>
	
		<line style="fill:none;stroke:#FF5553;stroke-width:12;stroke-miterlimit:10;" x1="2312.329" y1="2182.581" x2="1949.488" y2="1979.39"/>
	
		<line style="fill:none;stroke:#5181F6;stroke-width:12;stroke-miterlimit:10;" x1="1235.972" y1="2971.678" x2="1788.152" y2="2963.189"/>
	
		<line style="fill:none;stroke:#5181F6;stroke-width:12;stroke-miterlimit:10;" x1="2307.491" y1="2332.555" x2="1920.461" y2="2802.49"/>
	
		<line style="fill:none;stroke:#5181F6;stroke-width:12;stroke-miterlimit:10;" x1="1239.836" y1="2969.303" x2="2291.561" y2="2255.404"/>
	
		<line style="fill:none;stroke:#5181F6;stroke-width:12;stroke-miterlimit:10;" x1="573.058" y1="2460.338" x2="2291.561" y2="2255.404"/>
	<path d="M540.692,2671.273H215.617c-23.1,0-42-18.9-42-42v-325.075c0-23.1,18.9-42,42-42h325.075c23.1,0,42,18.9,42,42v325.075
		C582.692,2652.373,563.792,2671.273,540.692,2671.273z"/>
	<path style="fill:#FFFFFF;stroke:#000000;stroke-width:6;stroke-miterlimit:10;" d="M523.678,2657.262H198.603
		c-23.1,0-42-18.9-42-42v-325.075c0-23.1,18.9-42,42-42h325.075c23.1,0,42,18.9,42,42v325.075
		C565.678,2638.362,546.778,2657.262,523.678,2657.262z"/>
	
		<line style="fill:none;stroke:#FF5553;stroke-width:12;stroke-miterlimit:10;" x1="339" y1="2339.333" x2="672.431" y2="1992.931"/>
	
		<line style="fill:none;stroke:#5181F6;stroke-width:12;stroke-miterlimit:10;" x1="452.874" y1="2389.981" x2="1770.486" y2="2884.734"/>
	
		<line style="fill:none;stroke:#5181F6;stroke-width:12;stroke-miterlimit:10;" x1="464.258" y1="2487.367" x2="972.236" y2="2971.155"/>
</g>
<g id="Type">
	<path d="M2143.99,570.977h-114c-9.9,0-18-8.1-18-18v-114c0-9.9,8.1-18,18-18h114c9.9,0,18,8.1,18,18v114
		C2161.99,562.877,2153.89,570.977,2143.99,570.977z"/>
	<g>
		<path d="M229.354,280.305V88.225h90.16c9.892,0,18.572,1.917,26.04,5.74c7.464,3.828,13.252,9.148,17.36,15.96
			c4.104,6.816,6.16,14.7,6.16,23.66c0,9.52-1.68,17.408-5.04,23.66c-3.36,6.256-7.56,11.156-12.6,14.7
			c-5.04,3.548-10.176,6.16-15.4,7.84v1.68c3.544,0.56,7.464,1.728,11.76,3.5c4.292,1.776,8.4,4.296,12.32,7.56
			c3.92,3.268,7.14,7.468,9.66,12.6c2.52,5.136,3.78,11.528,3.78,19.18c0,10.828-2.38,20.44-7.14,28.84
			c-4.76,8.4-11.296,15.028-19.6,19.88c-8.308,4.856-17.968,7.28-28.98,7.28H229.354z M262.954,169.426h45.08
			c5.6,0,10.452-1.352,14.56-4.06c4.104-2.704,7.28-6.252,9.52-10.64c2.24-4.384,3.36-9.192,3.36-14.42c0-8.4-2.1-14.792-6.3-19.18
			c-4.2-4.384-10.316-6.58-18.34-6.58h-47.88V169.426z M262.954,253.986h48.16c5.6,0,10.5-1.352,14.7-4.06
			c4.2-2.704,7.512-6.344,9.94-10.92c2.423-4.572,3.64-9.564,3.64-14.98c0-5.784-1.26-10.78-3.78-14.98
			c-2.52-4.2-5.928-7.464-10.22-9.8c-4.296-2.332-9.056-3.5-14.28-3.5h-48.16V253.986z"/>
		<path d="M446.354,283.105c-7.656,0-14.98-1.216-21.98-3.64s-12.74-6.58-17.22-12.46c-4.48-5.88-6.72-13.86-6.72-23.94
			c0-10.264,2.284-18.572,6.86-24.92c4.572-6.344,11.06-11.2,19.46-14.56c8.4-3.36,18.48-5.644,30.24-6.86
			c11.76-1.212,24.824-1.82,39.2-1.82v-13.44c0-9.332-2.38-15.912-7.14-19.74c-4.76-3.824-11.997-5.74-21.7-5.74
			c-8.028,0-15.12,1.776-21.28,5.32c-6.16,3.548-9.24,9.148-9.24,16.8v2.8h-31.36c-0.188-0.744-0.28-1.632-0.28-2.66
			c0-1.024,0-2.004,0-2.94c0-8.212,2.564-15.4,7.7-21.56c5.132-6.16,12.272-10.92,21.42-14.28c9.144-3.36,19.6-5.04,31.36-5.04h4.76
			c19.412,0,33.88,3.828,43.4,11.48c9.52,7.656,14.28,18.388,14.28,32.2v73.08c0,3.548,0.84,6.068,2.52,7.56
			c1.68,1.496,3.543,2.24,5.6,2.24c1.864,0,3.872-0.372,6.02-1.12c2.144-0.744,4.152-1.584,6.02-2.52v19.88
			c-2.428,1.868-5.508,3.312-9.24,4.34c-3.736,1.024-8.216,1.54-13.44,1.54c-6.16,0-11.249-1.12-15.26-3.36
			c-4.016-2.24-7.048-5.272-9.1-9.1c-2.056-3.824-3.268-8.164-3.64-13.02c-5.417,8.028-12.417,14.28-21,18.76
			C468.005,280.865,457.925,283.105,446.354,283.105z M460.354,260.986c5.972,0,11.664-1.352,17.08-4.06
			c5.412-2.704,9.892-6.764,13.44-12.18c3.544-5.412,5.32-12.224,5.32-20.44v-10.92c-13.068,0-24.268,0.7-33.6,2.1
			c-9.336,1.4-16.428,3.968-21.28,7.7c-4.856,3.736-7.28,9.336-7.28,16.8c0,7.468,2.24,12.836,6.72,16.1
			C445.233,259.354,451.766,260.986,460.354,260.986z"/>
		<path d="M628.071,283.105c-9.52,0-17.92-1.168-25.2-3.5c-7.28-2.332-13.44-5.46-18.48-9.38s-8.868-8.4-11.48-13.44
			c-2.616-5.04-3.92-10.264-3.92-15.68c0-1.12,0-2.052,0-2.8c0-0.744,0.092-1.772,0.28-3.08h28c-0.188,0.56-0.28,1.076-0.28,1.54
			c0,0.468,0,0.888,0,1.26c0,5.228,1.68,9.52,5.04,12.88s7.792,5.88,13.3,7.56c5.504,1.68,11.62,2.52,18.34,2.52
			c5.6,0,10.92-0.744,15.96-2.24c5.04-1.492,9.144-3.684,12.32-6.58c3.172-2.892,4.76-6.483,4.76-10.78
			c0-4.852-1.68-8.584-5.04-11.2c-3.36-2.612-7.796-4.664-13.3-6.16c-5.508-1.492-11.576-2.8-18.2-3.92
			c-6.628-1.12-13.3-2.472-20.02-4.06c-6.72-1.584-12.836-3.824-18.34-6.72c-5.508-2.892-9.94-6.86-13.3-11.9
			s-5.04-11.664-5.04-19.88c0-6.72,1.492-12.784,4.48-18.2c2.984-5.412,7.184-9.94,12.6-13.58c5.412-3.64,11.76-6.44,19.04-8.4
			c7.28-1.96,15.12-2.94,23.52-2.94h4.48c7.84,0,15.164,1.028,21.98,3.08c6.812,2.056,12.74,4.856,17.78,8.4
			c5.04,3.548,8.96,7.656,11.76,12.32c2.8,4.668,4.2,9.616,4.2,14.84c0,0.937-0.048,1.96-0.14,3.08
			c-0.097,1.12-0.14,1.868-0.14,2.24h-28.28v-2.8c0-1.864-0.468-3.872-1.4-6.02c-0.936-2.144-2.616-4.2-5.04-6.16
			c-2.428-1.96-5.648-3.592-9.66-4.9c-4.017-1.304-9.1-1.96-15.26-1.96c-5.6,0-10.36,0.56-14.28,1.68s-7.096,2.568-9.52,4.34
			c-2.428,1.776-4.156,3.688-5.18,5.74c-1.028,2.056-1.54,4.016-1.54,5.88c0,4.296,1.68,7.656,5.04,10.08
			c3.36,2.428,7.84,4.34,13.44,5.74c5.6,1.4,11.76,2.616,18.48,3.64c6.72,1.028,13.392,2.336,20.02,3.92
			c6.624,1.588,12.74,3.876,18.34,6.86c5.6,2.988,10.08,7,13.44,12.04c3.36,5.04,5.04,11.668,5.04,19.88
			c0,8.588-1.636,15.916-4.9,21.98c-3.268,6.068-7.796,10.876-13.58,14.42c-5.789,3.548-12.368,6.16-19.74,7.84
			c-7.376,1.68-15.168,2.52-23.38,2.52H628.071z"/>
		<path d="M731.39,105.026v-26.32h34.16v26.32H731.39z M732.23,280.305v-143.08h32.48v143.08H732.23z"/>
		<path d="M864.67,283.105c-11.948,0-22.68-2.94-32.2-8.82s-16.988-14.14-22.4-24.78c-5.417-10.64-8.12-22.96-8.12-36.96v-7.56
			c0-10.64,1.68-20.252,5.04-28.84c3.36-8.583,7.98-16.003,13.86-22.26c5.88-6.252,12.74-11.06,20.58-14.42
			c7.84-3.36,16.24-5.04,25.2-5.04h4.2c12.132,0,22.68,2.428,31.64,7.28c8.96,4.856,15.912,11.668,20.86,20.44
			c4.944,8.776,7.42,19.229,7.42,31.36h-28.84c0-8.212-1.356-15.072-4.06-20.58c-2.708-5.504-6.44-9.612-11.2-12.32
			c-4.76-2.704-10.316-4.06-16.66-4.06c-9.708,0-17.78,3.268-24.22,9.8c-6.44,6.536-9.66,16.428-9.66,29.68v24.64
			c0,13.256,3.124,23.288,9.38,30.1c6.252,6.816,14.512,10.22,24.78,10.22c6.72,0,12.552-1.26,17.5-3.78
			c4.944-2.52,8.772-6.484,11.48-11.9c2.704-5.412,4.06-12.504,4.06-21.28h27.44c0,12.508-2.708,23.196-8.12,32.06
			c-5.417,8.868-12.789,15.588-22.12,20.16c-9.336,4.572-19.88,6.86-31.64,6.86H864.67z"/>
		<path d="M1029.026,280.305V88.225h34.72v80.08h77.56v-80.08h34.72v192.08h-34.44v-84h-77.56v84H1029.026z"/>
		<path d="M1232.867,332.385c-4.296,0-8.26-0.328-11.9-0.98c-3.64-0.656-7.048-1.636-10.22-2.94v-24.92
			c2.052,0.932,4.76,1.724,8.12,2.38c3.36,0.652,6.624,0.98,9.8,0.98c4.852,0,8.912-0.937,12.18-2.8
			c3.264-1.868,6.16-4.948,8.68-9.24c2.52-4.296,4.992-9.896,7.42-16.8l-56-140.84h35l36.68,100.52h1.68l35.56-100.52h32.2
			l-52.92,136.64c-4.108,10.824-8.636,20.672-13.58,29.54c-4.948,8.864-10.828,15.912-17.64,21.14
			C1251.111,329.769,1242.759,332.385,1232.867,332.385z"/>
		<path d="M1419.067,283.105c-10.828,0-20.72-2.616-29.68-7.84c-8.96-5.224-16.148-13.344-21.56-24.36
			c-5.417-11.012-8.12-25.104-8.12-42.28v-3.08c0-15.68,2.563-28.792,7.7-39.34c5.132-10.543,11.944-18.48,20.44-23.8
			c8.492-5.32,17.872-7.98,28.14-7.98c10.08,0,18.664,1.916,25.761,5.74c7.092,3.828,12.503,8.728,16.239,14.7v-76.16h32.48v201.6
			h-25.2l-3.92-19.32c-4.668,6.72-10.456,12.088-17.36,16.1C1437.079,281.097,1428.771,283.105,1419.067,283.105z M1425.508,260.986
			c5.972,0,11.384-1.444,16.24-4.34c4.852-2.892,8.771-7.512,11.76-13.86c2.983-6.344,4.479-14.652,4.479-24.92v-19.88
			c0-9.144-1.447-16.752-4.34-22.82c-2.896-6.063-6.816-10.592-11.76-13.58c-4.948-2.983-10.408-4.48-16.38-4.48
			c-8.96,0-16.477,3.408-22.54,10.22c-6.068,6.816-9.1,17.036-9.1,30.66v19.6c0,10.269,1.399,18.577,4.199,24.92
			c2.801,6.348,6.58,11.016,11.34,14C1414.168,259.493,1419.531,260.986,1425.508,260.986z"/>
		<path d="M1531.904,280.305v-143.08h24.359l4.2,21c0.372-0.56,1.304-2.052,2.8-4.48c1.492-2.424,3.824-5.132,7-8.12
			c3.172-2.983,7.184-5.6,12.04-7.84c4.852-2.24,10.732-3.36,17.64-3.36c9.893,0,17.964,1.96,24.221,5.88
			c6.252,3.92,10.92,9.288,14,16.1c3.08,6.816,4.62,14.608,4.62,23.38c0,2.056-0.097,4.156-0.28,6.3
			c-0.188,2.148-0.376,3.968-0.561,5.46h-27.439v-5.6c0-3.92-0.748-7.932-2.24-12.04c-1.496-4.104-4.016-7.56-7.56-10.36
			c-3.549-2.8-8.496-4.2-14.84-4.2c-4.669,0-8.637,0.98-11.9,2.94c-3.269,1.96-5.928,4.436-7.98,7.42
			c-2.056,2.988-3.5,6.208-4.34,9.66c-0.84,3.456-1.26,6.676-1.26,9.66v91.28H1531.904z"/>
		<path d="M1707.46,283.105c-7.656,0-14.979-1.216-21.979-3.64s-12.74-6.58-17.221-12.46c-4.479-5.88-6.72-13.86-6.72-23.94
			c0-10.264,2.284-18.572,6.86-24.92c4.571-6.344,11.06-11.2,19.46-14.56c8.399-3.36,18.479-5.644,30.239-6.86
			c11.761-1.212,24.824-1.82,39.2-1.82v-13.44c0-9.332-2.38-15.912-7.14-19.74c-4.76-3.824-11.996-5.74-21.7-5.74
			c-8.028,0-15.12,1.776-21.28,5.32c-6.16,3.548-9.239,9.148-9.239,16.8v2.8h-31.36c-0.188-0.744-0.28-1.632-0.28-2.66
			c0-1.024,0-2.004,0-2.94c0-8.212,2.563-15.4,7.7-21.56c5.132-6.16,12.271-10.92,21.42-14.28c9.144-3.36,19.6-5.04,31.36-5.04h4.76
			c19.412,0,33.88,3.828,43.4,11.48c9.52,7.656,14.279,18.388,14.279,32.2v73.08c0,3.548,0.84,6.068,2.521,7.56
			c1.68,1.496,3.544,2.24,5.6,2.24c1.864,0,3.872-0.372,6.021-1.12c2.144-0.744,4.151-1.584,6.02-2.52v19.88
			c-2.428,1.868-5.508,3.312-9.24,4.34c-3.736,1.024-8.216,1.54-13.439,1.54c-6.16,0-11.248-1.12-15.26-3.36
			c-4.017-2.24-7.049-5.272-9.101-9.1c-2.056-3.824-3.268-8.164-3.64-13.02c-5.416,8.028-12.416,14.28-21,18.76
			C1729.112,280.865,1719.032,283.105,1707.46,283.105z M1721.46,260.986c5.972,0,11.664-1.352,17.08-4.06
			c5.412-2.704,9.892-6.764,13.44-12.18c3.543-5.412,5.319-12.224,5.319-20.44v-10.92c-13.068,0-24.268,0.7-33.6,2.1
			c-9.337,1.4-16.429,3.968-21.28,7.7c-4.856,3.736-7.28,9.336-7.28,16.8c0,7.468,2.24,12.836,6.721,16.1
			C1706.34,259.354,1712.872,260.986,1721.46,260.986z"/>
		<path d="M1903.735,280.305V88.225h34.72v80.08h77.561v-80.08h34.72v192.08h-34.439v-84h-77.561v84H1903.735z"/>
		<path d="M2152.656,283.105c-13.068,0-24.548-2.756-34.44-8.26c-9.896-5.504-17.596-13.58-23.1-24.22
			c-5.508-10.64-8.26-23.52-8.26-38.64v-6.44c0-15.12,2.939-28,8.819-38.64c5.881-10.64,13.904-18.712,24.08-24.22
			c10.172-5.503,21.792-8.26,34.86-8.26h3.64c12.132,0,22.772,2.476,31.92,7.42c9.145,4.948,16.24,11.996,21.28,21.14
			c5.04,9.148,7.561,19.88,7.561,32.2v17.64h-98.28c0,9.896,1.304,18.48,3.92,25.76c2.611,7.28,6.483,12.836,11.62,16.66
			c5.132,3.828,11.523,5.74,19.18,5.74c6.344,0,11.992-1.26,16.94-3.78c4.943-2.52,8.863-6.3,11.76-11.34
			c2.892-5.04,4.34-11.292,4.34-18.76h30.521c0,11.2-2.801,21-8.4,29.4c-5.6,8.4-13.16,14.936-22.68,19.6
			c-9.521,4.664-20.349,7-32.48,7H2152.656z M2121.017,194.906h66.079c0-13.064-2.848-22.724-8.539-28.98
			c-5.696-6.252-13.488-9.38-23.381-9.38c-9.336,0-17.22,3.22-23.659,9.66C2125.076,172.645,2121.576,182.214,2121.017,194.906z"/>
		<path d="M2291.813,283.105c-7.656,0-14.979-1.216-21.979-3.64s-12.74-6.58-17.221-12.46c-4.479-5.88-6.72-13.86-6.72-23.94
			c0-10.264,2.284-18.572,6.86-24.92c4.571-6.344,11.06-11.2,19.46-14.56c8.399-3.36,18.479-5.644,30.239-6.86
			c11.761-1.212,24.824-1.82,39.2-1.82v-13.44c0-9.332-2.38-15.912-7.14-19.74c-4.76-3.824-11.996-5.74-21.7-5.74
			c-8.028,0-15.12,1.776-21.28,5.32c-6.16,3.548-9.239,9.148-9.239,16.8v2.8h-31.36c-0.188-0.744-0.28-1.632-0.28-2.66
			c0-1.024,0-2.004,0-2.94c0-8.212,2.563-15.4,7.7-21.56c5.132-6.16,12.271-10.92,21.42-14.28c9.144-3.36,19.6-5.04,31.36-5.04h4.76
			c19.412,0,33.88,3.828,43.4,11.48c9.52,7.656,14.279,18.388,14.279,32.2v73.08c0,3.548,0.84,6.068,2.521,7.56
			c1.68,1.496,3.544,2.24,5.6,2.24c1.864,0,3.872-0.372,6.021-1.12c2.144-0.744,4.151-1.584,6.02-2.52v19.88
			c-2.428,1.868-5.508,3.312-9.24,4.34c-3.736,1.024-8.216,1.54-13.439,1.54c-6.16,0-11.248-1.12-15.26-3.36
			c-4.017-2.24-7.049-5.272-9.101-9.1c-2.056-3.824-3.268-8.164-3.64-13.02c-5.416,8.028-12.416,14.28-21,18.76
			C2313.466,280.865,2303.386,283.105,2291.813,283.105z M2305.813,260.986c5.972,0,11.664-1.352,17.08-4.06
			c5.412-2.704,9.892-6.764,13.44-12.18c3.543-5.412,5.319-12.224,5.319-20.44v-10.92c-13.068,0-24.268,0.7-33.6,2.1
			c-9.337,1.4-16.429,3.968-21.28,7.7c-4.856,3.736-7.28,9.336-7.28,16.8c0,7.468,2.24,12.836,6.721,16.1
			C2290.693,259.354,2297.226,260.986,2305.813,260.986z"/>
		<path d="M2476.33,283.105c-10.828,0-20.72-2.616-29.68-7.84s-16.148-13.344-21.561-24.36c-5.416-11.012-8.12-25.104-8.12-42.28
			v-3.08c0-15.68,2.564-28.792,7.7-39.34c5.132-10.543,11.944-18.48,20.44-23.8c8.491-5.32,17.872-7.98,28.14-7.98
			c10.08,0,18.664,1.916,25.76,5.74c7.092,3.828,12.504,8.728,16.24,14.7v-76.16h32.48v201.6h-25.2l-3.92-19.32
			c-4.668,6.72-10.456,12.088-17.36,16.1C2494.342,281.097,2486.034,283.105,2476.33,283.105z M2482.771,260.986
			c5.972,0,11.384-1.444,16.239-4.34c4.853-2.892,8.772-7.512,11.761-13.86c2.983-6.344,4.479-14.652,4.479-24.92v-19.88
			c0-9.144-1.448-16.752-4.34-22.82c-2.896-6.063-6.816-10.592-11.76-13.58c-4.948-2.983-10.408-4.48-16.38-4.48
			c-8.96,0-16.477,3.408-22.54,10.22c-6.068,6.816-9.101,17.036-9.101,30.66v19.6c0,10.269,1.4,18.577,4.2,24.92
			c2.8,6.348,6.58,11.016,11.34,14C2471.43,259.493,2476.794,260.986,2482.771,260.986z"/>
	</g>
	<g>
		<path d="M1042.095,919.384l31.088-47.155l-28.083-42.452h18.81l19.985,30.827h0.392l20.116-30.827h17.373l-28.214,42.583
			l31.088,47.024h-18.94l-22.859-35.269h-0.392l-22.859,35.269H1042.095z"/>
	</g>
	<g>
		<path d="M2213.865,838.831v-34.484l-30.958-55.123h18.287l21.292,39.579h0.392l21.684-39.579h16.459l-30.958,55.123v34.484
			H2213.865z"/>
	</g>
	
		<rect x="119.738" y="434.149" style="fill:#E6E6E6;stroke:#000000;stroke-width:6;stroke-miterlimit:10;" width="150" height="100"/>
	<g>
		<path d="M322.273,504.895v-56.252h10.168v23.452h22.714v-23.452h10.168v56.252h-10.086v-24.6h-22.714v24.6H322.273z"/>
		<path d="M381.97,520.147c-1.258,0-2.419-0.096-3.485-0.287c-1.066-0.192-2.064-0.479-2.993-0.861v-7.298
			c0.601,0.273,1.394,0.505,2.378,0.697c0.984,0.191,1.94,0.287,2.87,0.287c1.421,0,2.61-0.274,3.567-0.82
			c0.956-0.547,1.804-1.449,2.542-2.706c0.738-1.258,1.462-2.898,2.173-4.92l-16.4-41.246h10.25l10.742,29.438h0.492l10.414-29.438
			h9.43l-15.498,40.016c-1.203,3.17-2.529,6.054-3.977,8.651c-1.449,2.596-3.171,4.66-5.166,6.191
			C387.312,519.381,384.867,520.147,381.97,520.147z"/>
		<path d="M436.5,505.715c-3.171,0-6.068-0.766-8.692-2.296s-4.729-3.908-6.314-7.134c-1.586-3.225-2.378-7.352-2.378-12.382v-0.902
			c0-4.592,0.75-8.432,2.255-11.521c1.503-3.088,3.498-5.412,5.986-6.97c2.487-1.558,5.234-2.337,8.241-2.337
			c2.952,0,5.466,0.562,7.544,1.681c2.077,1.121,3.662,2.556,4.756,4.305v-22.304h9.512v59.04h-7.38l-1.148-5.658
			c-1.367,1.968-3.062,3.541-5.084,4.715C441.774,505.127,439.341,505.715,436.5,505.715z M438.386,499.237
			c1.749,0,3.333-0.423,4.756-1.271c1.421-0.847,2.569-2.2,3.444-4.059c0.874-1.858,1.312-4.291,1.312-7.298v-5.822
			c0-2.678-0.424-4.906-1.271-6.683c-0.848-1.776-1.996-3.102-3.444-3.977c-1.449-0.874-3.048-1.312-4.797-1.312
			c-2.624,0-4.825,0.998-6.601,2.993c-1.777,1.996-2.665,4.989-2.665,8.979v5.74c0,3.007,0.41,5.44,1.23,7.298
			c0.82,1.859,1.927,3.226,3.321,4.1C435.064,498.801,436.635,499.237,438.386,499.237z"/>
		<path d="M469.544,504.895v-41.902h7.134l1.23,6.15c0.109-0.164,0.382-0.601,0.82-1.312c0.437-0.71,1.12-1.503,2.05-2.378
			c0.929-0.874,2.104-1.64,3.526-2.296c1.421-0.656,3.143-0.984,5.166-0.984c2.897,0,5.261,0.574,7.093,1.722
			c1.831,1.148,3.198,2.72,4.1,4.715c0.902,1.997,1.353,4.278,1.353,6.847c0,0.602-0.028,1.217-0.082,1.845
			c-0.055,0.629-0.11,1.162-0.164,1.599h-8.036v-1.64c0-1.148-0.219-2.323-0.656-3.526c-0.438-1.202-1.176-2.214-2.214-3.034
			c-1.039-0.82-2.488-1.23-4.346-1.23c-1.367,0-2.529,0.287-3.485,0.861c-0.957,0.574-1.736,1.299-2.337,2.173
			c-0.603,0.875-1.025,1.818-1.271,2.829c-0.246,1.012-0.369,1.955-0.369,2.829v26.732H469.544z"/>
		<path d="M520.958,505.715c-2.242,0-4.387-0.356-6.437-1.066c-2.05-0.71-3.731-1.927-5.043-3.649s-1.968-4.059-1.968-7.011
			c0-3.006,0.669-5.439,2.009-7.298c1.339-1.858,3.239-3.28,5.699-4.264c2.46-0.984,5.412-1.653,8.856-2.009
			c3.444-0.355,7.27-0.533,11.48-0.533v-3.936c0-2.733-0.697-4.66-2.091-5.781c-1.394-1.12-3.513-1.681-6.355-1.681
			c-2.351,0-4.428,0.521-6.232,1.558c-1.804,1.039-2.706,2.679-2.706,4.92v0.82h-9.184c-0.055-0.218-0.082-0.478-0.082-0.779
			c0-0.3,0-0.586,0-0.861c0-2.405,0.751-4.51,2.255-6.314c1.503-1.804,3.594-3.198,6.273-4.182c2.678-0.984,5.74-1.476,9.184-1.476
			h1.394c5.685,0,9.922,1.121,12.71,3.362c2.788,2.242,4.182,5.385,4.182,9.43v21.402c0,1.039,0.246,1.777,0.738,2.214
			c0.492,0.438,1.038,0.656,1.64,0.656c0.546,0,1.134-0.109,1.763-0.328c0.628-0.218,1.216-0.464,1.763-0.738v5.822
			c-0.711,0.547-1.613,0.97-2.706,1.271c-1.094,0.3-2.406,0.451-3.936,0.451c-1.804,0-3.294-0.328-4.469-0.984
			c-1.176-0.656-2.064-1.544-2.665-2.665c-0.602-1.12-0.957-2.391-1.066-3.813c-1.586,2.351-3.636,4.182-6.15,5.494
			C527.298,505.059,524.346,505.715,520.958,505.715z M525.058,499.237c1.749,0,3.416-0.396,5.002-1.189
			c1.585-0.792,2.897-1.98,3.936-3.567c1.038-1.585,1.558-3.58,1.558-5.986v-3.198c-3.827,0-7.107,0.205-9.84,0.615
			c-2.734,0.41-4.811,1.162-6.232,2.255c-1.422,1.094-2.132,2.734-2.132,4.92c0,2.187,0.656,3.759,1.968,4.715
			C520.629,498.76,522.542,499.237,525.058,499.237z"/>
		<path d="M599.43,505.715c-3.227,0-6.246-0.465-9.061-1.394c-2.816-0.929-5.276-2.432-7.38-4.51
			c-2.105-2.077-3.759-4.797-4.961-8.159c-1.203-3.362-1.804-7.475-1.804-12.341v-5.084c0-4.756,0.601-8.815,1.804-12.177
			c1.202-3.362,2.856-6.095,4.961-8.2c2.104-2.104,4.537-3.635,7.298-4.592c2.76-0.956,5.726-1.435,8.896-1.435h1.23
			c2.952,0,5.753,0.41,8.404,1.23c2.651,0.82,4.988,2.119,7.012,3.895c2.021,1.777,3.62,4.1,4.797,6.97
			c1.175,2.87,1.763,6.355,1.763,10.455h-9.594c0-3.881-0.562-6.874-1.681-8.979c-1.121-2.104-2.665-3.58-4.634-4.428
			c-1.968-0.847-4.21-1.271-6.724-1.271c-1.859,0-3.581,0.274-5.166,0.82c-1.586,0.547-2.952,1.449-4.1,2.706
			c-1.148,1.258-2.038,2.939-2.665,5.043c-0.63,2.105-0.943,4.715-0.943,7.831v9.348c0,4.155,0.546,7.421,1.64,9.799
			c1.093,2.378,2.61,4.073,4.552,5.084c1.939,1.012,4.168,1.517,6.683,1.517c2.678,0,5.015-0.423,7.011-1.271
			c1.995-0.847,3.553-2.323,4.674-4.428c1.12-2.104,1.682-5.07,1.682-8.897h9.266c0,3.936-0.574,7.326-1.722,10.168
			c-1.148,2.843-2.721,5.166-4.715,6.97c-1.996,1.804-4.306,3.144-6.93,4.018c-2.624,0.874-5.412,1.312-8.363,1.312H599.43z"/>
		<path d="M632.64,504.895v-59.04h9.512v59.04H632.64z"/>
		<path d="M655.435,453.563v-7.708h10.004v7.708H655.435z M655.68,504.895v-41.902h9.513v41.902H655.68z"/>
		<path d="M695.287,505.715c-3.827,0-7.189-0.807-10.086-2.419c-2.898-1.612-5.153-3.977-6.766-7.093
			c-1.612-3.116-2.419-6.888-2.419-11.316v-1.886c0-4.428,0.861-8.2,2.583-11.316c1.723-3.116,4.072-5.48,7.053-7.093
			c2.979-1.612,6.382-2.419,10.209-2.419h1.065c3.553,0,6.669,0.726,9.349,2.173c2.678,1.449,4.756,3.513,6.231,6.191
			c1.477,2.679,2.214,5.822,2.214,9.43v5.166h-28.782c0,2.898,0.382,5.412,1.148,7.544c0.765,2.132,1.898,3.759,3.403,4.879
			c1.503,1.121,3.375,1.681,5.617,1.681c1.857,0,3.512-0.369,4.961-1.107c1.447-0.738,2.596-1.845,3.443-3.321
			c0.847-1.476,1.271-3.307,1.271-5.494h8.938c0,3.28-0.819,6.15-2.46,8.61c-1.64,2.46-3.854,4.375-6.642,5.74
			s-5.959,2.05-9.512,2.05H695.287z M686.02,479.885h19.353c0-3.826-0.834-6.655-2.501-8.487c-1.668-1.831-3.95-2.747-6.847-2.747
			c-2.734,0-5.043,0.943-6.93,2.829C687.209,473.366,686.184,476.168,686.02,479.885z"/>
		<path d="M725.134,504.895v-41.902h6.97l1.229,6.15c1.585-2.296,3.554-4.031,5.904-5.207c2.35-1.175,4.974-1.763,7.872-1.763
			c2.896,0,5.438,0.547,7.626,1.64c2.186,1.094,3.896,2.693,5.125,4.797c1.23,2.105,1.845,4.688,1.845,7.749v28.536h-9.512v-26.814
			c0-3.116-0.726-5.343-2.173-6.683c-1.449-1.339-3.458-2.009-6.027-2.009c-1.695,0-3.253,0.424-4.674,1.271
			c-1.422,0.848-2.556,1.982-3.403,3.403c-0.848,1.422-1.271,3.034-1.271,4.838v25.994H725.134z"/>
		<path d="M786.88,505.715c-2.188,0-4.142-0.328-5.863-0.984c-1.723-0.656-3.062-1.735-4.019-3.239
			c-0.957-1.503-1.435-3.485-1.435-5.945v-25.256h-4.592v-7.298h4.838l3.362-13.366h5.903v13.366h9.758v7.298h-9.758v23.37
			c0,2.406,0.492,3.936,1.477,4.592c0.983,0.656,2.05,0.984,3.197,0.984c0.602,0,1.436-0.136,2.501-0.41
			c1.066-0.273,1.928-0.546,2.583-0.82v6.15c-0.655,0.328-1.448,0.615-2.378,0.861s-1.886,0.423-2.87,0.533
			C788.602,505.66,787.7,505.715,786.88,505.715z"/>
	</g>
	<circle style="fill:#5181F6;stroke:#000000;stroke-width:6;stroke-miterlimit:10;" cx="1017.892" cy="484.149" r="75"/>
	<g>
		<path d="M1149.207,504.895v-56.252h10.168v23.452h22.714v-23.452h10.168v56.252h-10.086v-24.6h-22.714v24.6H1149.207z"/>
		<path d="M1208.903,520.147c-1.258,0-2.419-0.096-3.485-0.287c-1.066-0.192-2.064-0.479-2.993-0.861v-7.298
			c0.601,0.273,1.394,0.505,2.378,0.697c0.984,0.191,1.94,0.287,2.87,0.287c1.421,0,2.61-0.274,3.567-0.82
			c0.956-0.547,1.804-1.449,2.542-2.706c0.738-1.258,1.462-2.898,2.173-4.92l-16.4-41.246h10.25l10.742,29.438h0.492l10.414-29.438
			h9.43l-15.498,40.016c-1.203,3.17-2.529,6.054-3.977,8.651c-1.449,2.596-3.171,4.66-5.166,6.191
			C1214.246,519.381,1211.8,520.147,1208.903,520.147z"/>
		<path d="M1263.433,505.715c-3.171,0-6.068-0.766-8.692-2.296s-4.729-3.908-6.314-7.134c-1.586-3.225-2.378-7.352-2.378-12.382
			v-0.902c0-4.592,0.75-8.432,2.255-11.521c1.503-3.088,3.498-5.412,5.986-6.97c2.487-1.558,5.234-2.337,8.241-2.337
			c2.952,0,5.466,0.562,7.544,1.681c2.077,1.121,3.662,2.556,4.756,4.305v-22.304h9.512v59.04h-7.38l-1.148-5.658
			c-1.367,1.968-3.062,3.541-5.084,4.715C1268.708,505.127,1266.274,505.715,1263.433,505.715z M1265.319,499.237
			c1.749,0,3.333-0.423,4.756-1.271c1.421-0.847,2.569-2.2,3.444-4.059c0.874-1.858,1.312-4.291,1.312-7.298v-5.822
			c0-2.678-0.424-4.906-1.271-6.683c-0.848-1.776-1.996-3.102-3.444-3.977c-1.449-0.874-3.048-1.312-4.797-1.312
			c-2.624,0-4.825,0.998-6.601,2.993c-1.777,1.996-2.665,4.989-2.665,8.979v5.74c0,3.007,0.41,5.44,1.23,7.298
			c0.82,1.859,1.927,3.226,3.321,4.1C1261.998,498.801,1263.568,499.237,1265.319,499.237z"/>
		<path d="M1296.478,504.895v-41.902h7.134l1.23,6.15c0.109-0.164,0.382-0.601,0.82-1.312c0.437-0.71,1.12-1.503,2.05-2.378
			c0.929-0.874,2.104-1.64,3.526-2.296c1.421-0.656,3.143-0.984,5.166-0.984c2.897,0,5.261,0.574,7.093,1.722
			c1.831,1.148,3.198,2.72,4.1,4.715c0.902,1.997,1.353,4.278,1.353,6.847c0,0.602-0.028,1.217-0.082,1.845
			c-0.055,0.629-0.11,1.162-0.164,1.599h-8.036v-1.64c0-1.148-0.219-2.323-0.656-3.526c-0.438-1.202-1.176-2.214-2.214-3.034
			c-1.039-0.82-2.488-1.23-4.346-1.23c-1.367,0-2.529,0.287-3.485,0.861c-0.957,0.574-1.736,1.299-2.337,2.173
			c-0.603,0.875-1.025,1.818-1.271,2.829c-0.246,1.012-0.369,1.955-0.369,2.829v26.732H1296.478z"/>
		<path d="M1347.891,505.715c-2.242,0-4.387-0.356-6.437-1.066c-2.05-0.71-3.731-1.927-5.043-3.649s-1.968-4.059-1.968-7.011
			c0-3.006,0.669-5.439,2.009-7.298c1.339-1.858,3.239-3.28,5.699-4.264c2.46-0.984,5.412-1.653,8.856-2.009
			c3.444-0.355,7.27-0.533,11.48-0.533v-3.936c0-2.733-0.697-4.66-2.091-5.781c-1.394-1.12-3.513-1.681-6.355-1.681
			c-2.351,0-4.428,0.521-6.232,1.558c-1.804,1.039-2.706,2.679-2.706,4.92v0.82h-9.184c-0.055-0.218-0.082-0.478-0.082-0.779
			c0-0.3,0-0.586,0-0.861c0-2.405,0.751-4.51,2.255-6.314c1.503-1.804,3.594-3.198,6.273-4.182c2.678-0.984,5.74-1.476,9.184-1.476
			h1.394c5.685,0,9.922,1.121,12.71,3.362c2.788,2.242,4.182,5.385,4.182,9.43v21.402c0,1.039,0.246,1.777,0.738,2.214
			c0.492,0.438,1.038,0.656,1.64,0.656c0.546,0,1.134-0.109,1.763-0.328c0.628-0.218,1.216-0.464,1.763-0.738v5.822
			c-0.711,0.547-1.613,0.97-2.706,1.271c-1.094,0.3-2.406,0.451-3.936,0.451c-1.804,0-3.294-0.328-4.469-0.984
			c-1.176-0.656-2.064-1.544-2.665-2.665c-0.602-1.12-0.957-2.391-1.066-3.813c-1.586,2.351-3.636,4.182-6.15,5.494
			C1354.231,505.059,1351.279,505.715,1347.891,505.715z M1351.991,499.237c1.749,0,3.416-0.396,5.002-1.189
			c1.585-0.792,2.897-1.98,3.936-3.567c1.038-1.585,1.558-3.58,1.558-5.986v-3.198c-3.827,0-7.107,0.205-9.84,0.615
			c-2.734,0.41-4.811,1.162-6.232,2.255c-1.422,1.094-2.132,2.734-2.132,4.92c0,2.187,0.656,3.759,1.968,4.715
			C1347.562,498.76,1349.476,499.237,1351.991,499.237z"/>
		<path d="M1405.371,504.895v-56.252h10.168v23.452h22.714v-23.452h10.168v56.252h-10.086v-24.6h-22.714v24.6H1405.371z"/>
		<path d="M1478.27,505.715c-3.827,0-7.189-0.807-10.086-2.419c-2.898-1.612-5.153-3.977-6.766-7.093
			c-1.612-3.116-2.419-6.888-2.419-11.316v-1.886c0-4.428,0.861-8.2,2.583-11.316c1.723-3.116,4.072-5.48,7.053-7.093
			c2.979-1.612,6.382-2.419,10.209-2.419h1.065c3.553,0,6.669,0.726,9.349,2.173c2.678,1.449,4.756,3.513,6.231,6.191
			c1.477,2.679,2.214,5.822,2.214,9.43v5.166h-28.782c0,2.898,0.382,5.412,1.148,7.544c0.765,2.132,1.898,3.759,3.403,4.879
			c1.503,1.121,3.375,1.681,5.617,1.681c1.857,0,3.512-0.369,4.961-1.107c1.447-0.738,2.596-1.845,3.443-3.321
			c0.847-1.476,1.271-3.307,1.271-5.494h8.938c0,3.28-0.819,6.15-2.46,8.61c-1.64,2.46-3.854,4.375-6.642,5.74
			s-5.959,2.05-9.512,2.05H1478.27z M1469.003,479.885h19.353c0-3.826-0.834-6.655-2.501-8.487c-1.668-1.831-3.95-2.747-6.847-2.747
			c-2.734,0-5.043,0.943-6.93,2.829C1470.192,473.366,1469.167,476.168,1469.003,479.885z"/>
		<path d="M1519.022,505.715c-2.242,0-4.387-0.356-6.437-1.066s-3.731-1.927-5.043-3.649c-1.312-1.722-1.968-4.059-1.968-7.011
			c0-3.006,0.668-5.439,2.009-7.298c1.339-1.858,3.239-3.28,5.699-4.264c2.46-0.984,5.412-1.653,8.855-2.009
			c3.444-0.355,7.27-0.533,11.48-0.533v-3.936c0-2.733-0.697-4.66-2.092-5.781c-1.394-1.12-3.513-1.681-6.354-1.681
			c-2.352,0-4.428,0.521-6.232,1.558c-1.804,1.039-2.706,2.679-2.706,4.92v0.82h-9.184c-0.055-0.218-0.082-0.478-0.082-0.779
			c0-0.3,0-0.586,0-0.861c0-2.405,0.751-4.51,2.255-6.314c1.503-1.804,3.594-3.198,6.273-4.182c2.678-0.984,5.74-1.476,9.184-1.476
			h1.395c5.685,0,9.922,1.121,12.71,3.362c2.788,2.242,4.182,5.385,4.182,9.43v21.402c0,1.039,0.246,1.777,0.738,2.214
			c0.492,0.438,1.037,0.656,1.64,0.656c0.546,0,1.134-0.109,1.763-0.328c0.628-0.218,1.217-0.464,1.764-0.738v5.822
			c-0.711,0.547-1.613,0.97-2.706,1.271c-1.095,0.3-2.406,0.451-3.937,0.451c-1.804,0-3.294-0.328-4.469-0.984
			c-1.176-0.656-2.064-1.544-2.665-2.665c-0.603-1.12-0.957-2.391-1.065-3.813c-1.587,2.351-3.637,4.182-6.15,5.494
			C1525.363,505.059,1522.412,505.715,1519.022,505.715z M1523.123,499.237c1.749,0,3.416-0.396,5.002-1.189
			c1.585-0.792,2.896-1.98,3.936-3.567c1.038-1.585,1.559-3.58,1.559-5.986v-3.198c-3.827,0-7.107,0.205-9.84,0.615
			c-2.734,0.41-4.812,1.162-6.232,2.255c-1.422,1.094-2.132,2.734-2.132,4.92c0,2.187,0.656,3.759,1.968,4.715
			C1518.695,498.76,1520.607,499.237,1523.123,499.237z"/>
		<path d="M1573.061,505.715c-3.172,0-6.068-0.766-8.692-2.296s-4.729-3.908-6.314-7.134c-1.586-3.225-2.378-7.352-2.378-12.382
			v-0.902c0-4.592,0.751-8.432,2.255-11.521c1.503-3.088,3.498-5.412,5.986-6.97c2.487-1.558,5.234-2.337,8.241-2.337
			c2.952,0,5.466,0.562,7.544,1.681c2.077,1.121,3.662,2.556,4.756,4.305v-22.304h9.512v59.04h-7.38l-1.147-5.658
			c-1.367,1.968-3.062,3.541-5.084,4.715C1578.335,505.127,1575.902,505.715,1573.061,505.715z M1574.946,499.237
			c1.749,0,3.334-0.423,4.756-1.271c1.421-0.847,2.569-2.2,3.444-4.059c0.873-1.858,1.312-4.291,1.312-7.298v-5.822
			c0-2.678-0.424-4.906-1.271-6.683c-0.849-1.776-1.996-3.102-3.444-3.977c-1.449-0.874-3.048-1.312-4.797-1.312
			c-2.624,0-4.825,0.998-6.602,2.993c-1.776,1.996-2.665,4.989-2.665,8.979v5.74c0,3.007,0.41,5.44,1.23,7.298
			c0.82,1.859,1.927,3.226,3.321,4.1C1571.625,498.801,1573.196,499.237,1574.946,499.237z"/>
		<path d="M1624.145,519.737v-56.744h7.298l1.229,5.658c1.312-1.968,3.034-3.539,5.166-4.715c2.132-1.175,4.619-1.763,7.462-1.763
			c3.17,0,6.04,0.697,8.61,2.091c2.569,1.394,4.619,3.636,6.15,6.724c1.529,3.089,2.296,7.148,2.296,12.177v1.722
			c0,4.538-0.738,8.364-2.214,11.48c-1.477,3.116-3.458,5.453-5.945,7.011c-2.488,1.558-5.235,2.337-8.241,2.337
			c-2.952,0-5.453-0.561-7.503-1.681c-2.05-1.12-3.622-2.555-4.715-4.305v20.008H1624.145z M1643.168,499.073
			c1.749,0,3.321-0.451,4.715-1.353c1.395-0.902,2.487-2.241,3.28-4.018c0.792-1.776,1.189-3.977,1.189-6.601v-5.74
			c0-3.006-0.397-5.439-1.189-7.298c-0.793-1.858-1.886-3.225-3.28-4.1c-1.394-0.874-2.966-1.312-4.715-1.312
			c-1.695,0-3.267,0.424-4.715,1.271c-1.449,0.848-2.611,2.187-3.485,4.018c-0.875,1.832-1.312,4.278-1.312,7.339v5.822
			c0,2.679,0.423,4.907,1.271,6.683c0.848,1.777,1.995,3.103,3.444,3.977C1639.819,498.636,1641.418,499.073,1643.168,499.073z"/>
		<path d="M1683.593,505.715c-2.242,0-4.387-0.356-6.437-1.066s-3.731-1.927-5.043-3.649c-1.312-1.722-1.968-4.059-1.968-7.011
			c0-3.006,0.668-5.439,2.009-7.298c1.339-1.858,3.239-3.28,5.699-4.264c2.46-0.984,5.412-1.653,8.855-2.009
			c3.444-0.355,7.27-0.533,11.48-0.533v-3.936c0-2.733-0.697-4.66-2.092-5.781c-1.394-1.12-3.513-1.681-6.354-1.681
			c-2.352,0-4.428,0.521-6.232,1.558c-1.804,1.039-2.706,2.679-2.706,4.92v0.82h-9.184c-0.055-0.218-0.082-0.478-0.082-0.779
			c0-0.3,0-0.586,0-0.861c0-2.405,0.751-4.51,2.255-6.314c1.503-1.804,3.594-3.198,6.273-4.182c2.678-0.984,5.74-1.476,9.184-1.476
			h1.395c5.685,0,9.922,1.121,12.71,3.362c2.788,2.242,4.182,5.385,4.182,9.43v21.402c0,1.039,0.246,1.777,0.738,2.214
			c0.492,0.438,1.037,0.656,1.64,0.656c0.546,0,1.134-0.109,1.763-0.328c0.628-0.218,1.217-0.464,1.764-0.738v5.822
			c-0.711,0.547-1.613,0.97-2.706,1.271c-1.095,0.3-2.406,0.451-3.937,0.451c-1.804,0-3.294-0.328-4.469-0.984
			c-1.176-0.656-2.064-1.544-2.665-2.665c-0.603-1.12-0.957-2.391-1.065-3.813c-1.587,2.351-3.637,4.182-6.15,5.494
			C1689.934,505.059,1686.982,505.715,1683.593,505.715z M1687.693,499.237c1.749,0,3.416-0.396,5.002-1.189
			c1.585-0.792,2.896-1.98,3.936-3.567c1.038-1.585,1.559-3.58,1.559-5.986v-3.198c-3.827,0-7.107,0.205-9.84,0.615
			c-2.734,0.41-4.812,1.162-6.232,2.255c-1.422,1.094-2.132,2.734-2.132,4.92c0,2.187,0.656,3.759,1.968,4.715
			C1683.266,498.76,1685.178,499.237,1687.693,499.237z"/>
		<path d="M1722.051,504.895v-41.902h7.134l1.229,6.15c0.109-0.164,0.382-0.601,0.82-1.312c0.437-0.71,1.12-1.503,2.05-2.378
			c0.929-0.874,2.104-1.64,3.526-2.296c1.421-0.656,3.143-0.984,5.166-0.984c2.896,0,5.261,0.574,7.093,1.722
			c1.831,1.148,3.198,2.72,4.1,4.715c0.902,1.997,1.354,4.278,1.354,6.847c0,0.602-0.028,1.217-0.082,1.845
			c-0.055,0.629-0.11,1.162-0.164,1.599h-8.036v-1.64c0-1.148-0.219-2.323-0.656-3.526c-0.438-1.202-1.176-2.214-2.214-3.034
			c-1.039-0.82-2.488-1.23-4.346-1.23c-1.367,0-2.529,0.287-3.485,0.861c-0.957,0.574-1.735,1.299-2.337,2.173
			c-0.602,0.875-1.024,1.818-1.271,2.829c-0.246,1.012-0.369,1.955-0.369,2.829v26.732H1722.051z"/>
		<path d="M1775.678,505.715c-2.188,0-4.142-0.328-5.863-0.984c-1.723-0.656-3.062-1.735-4.019-3.239
			c-0.957-1.503-1.435-3.485-1.435-5.945v-25.256h-4.592v-7.298h4.838l3.362-13.366h5.903v13.366h9.758v7.298h-9.758v23.37
			c0,2.406,0.492,3.936,1.477,4.592c0.983,0.656,2.05,0.984,3.197,0.984c0.602,0,1.436-0.136,2.501-0.41
			c1.066-0.273,1.928-0.546,2.583-0.82v6.15c-0.655,0.328-1.448,0.615-2.378,0.861s-1.886,0.423-2.87,0.533
			C1777.399,505.66,1776.497,505.715,1775.678,505.715z"/>
		<path d="M1797.898,520.147c-1.258,0-2.419-0.096-3.485-0.287c-1.065-0.192-2.063-0.479-2.993-0.861v-7.298
			c0.602,0.273,1.395,0.505,2.379,0.697c0.983,0.191,1.939,0.287,2.869,0.287c1.421,0,2.61-0.274,3.567-0.82
			c0.956-0.547,1.804-1.449,2.542-2.706c0.738-1.258,1.462-2.898,2.173-4.92l-16.399-41.246h10.25l10.741,29.438h0.492
			l10.414-29.438h9.43l-15.497,40.016c-1.203,3.17-2.529,6.054-3.978,8.651c-1.449,2.596-3.171,4.66-5.166,6.191
			C1803.241,519.381,1800.795,520.147,1797.898,520.147z"/>
	</g>
	<g>
		<path d="M2205.47,504.895v-59.04h9.512v22.632c1.53-2.077,3.403-3.649,5.617-4.715s4.578-1.599,7.093-1.599
			c2.788,0,5.261,0.547,7.421,1.64c2.159,1.094,3.867,2.693,5.125,4.797c1.257,2.105,1.887,4.688,1.887,7.749v28.536h-9.513v-26.814
			c0-3.116-0.737-5.343-2.214-6.683c-1.476-1.339-3.499-2.009-6.067-2.009c-1.695,0-3.254,0.424-4.675,1.271
			c-1.422,0.848-2.556,1.982-3.402,3.403c-0.849,1.422-1.271,3.034-1.271,4.838v25.994H2205.47z"/>
		<path d="M2258.441,520.147c-1.258,0-2.419-0.096-3.484-0.287c-1.066-0.192-2.064-0.479-2.993-0.861v-7.298
			c0.601,0.273,1.394,0.505,2.378,0.697c0.983,0.191,1.939,0.287,2.87,0.287c1.421,0,2.609-0.274,3.566-0.82
			c0.956-0.547,1.805-1.449,2.542-2.706c0.738-1.258,1.462-2.898,2.173-4.92l-16.399-41.246h10.25l10.742,29.438h0.491
			l10.414-29.438h9.431l-15.498,40.016c-1.203,3.17-2.529,6.054-3.978,8.651c-1.449,2.596-3.171,4.66-5.166,6.191
			C2263.784,519.381,2261.339,520.147,2258.441,520.147z"/>
		<path d="M2312.972,505.715c-3.171,0-6.067-0.766-8.691-2.296s-4.729-3.908-6.314-7.134c-1.586-3.225-2.378-7.352-2.378-12.382
			v-0.902c0-4.592,0.751-8.432,2.255-11.521c1.503-3.088,3.498-5.412,5.986-6.97c2.486-1.558,5.233-2.337,8.241-2.337
			c2.952,0,5.466,0.562,7.544,1.681c2.076,1.121,3.661,2.556,4.756,4.305v-22.304h9.512v59.04h-7.38l-1.148-5.658
			c-1.366,1.968-3.062,3.541-5.084,4.715S2315.813,505.715,2312.972,505.715z M2314.858,499.237c1.748,0,3.333-0.423,4.756-1.271
			c1.421-0.847,2.568-2.2,3.443-4.059c0.874-1.858,1.312-4.291,1.312-7.298v-5.822c0-2.678-0.424-4.906-1.271-6.683
			c-0.848-1.776-1.996-3.102-3.443-3.977c-1.449-0.874-3.049-1.312-4.797-1.312c-2.624,0-4.825,0.998-6.602,2.993
			c-1.777,1.996-2.665,4.989-2.665,8.979v5.74c0,3.007,0.41,5.44,1.23,7.298c0.819,1.859,1.927,3.226,3.32,4.1
			C2311.537,498.801,2313.107,499.237,2314.858,499.237z"/>
		<path d="M2346.017,504.895v-41.902h7.134l1.23,6.15c0.108-0.164,0.382-0.601,0.819-1.312c0.438-0.71,1.12-1.503,2.05-2.378
			c0.93-0.874,2.104-1.64,3.526-2.296c1.421-0.656,3.143-0.984,5.166-0.984c2.897,0,5.261,0.574,7.093,1.722
			c1.831,1.148,3.198,2.72,4.101,4.715c0.901,1.997,1.353,4.278,1.353,6.847c0,0.602-0.028,1.217-0.082,1.845
			c-0.055,0.629-0.11,1.162-0.164,1.599h-8.036v-1.64c0-1.148-0.219-2.323-0.655-3.526c-0.438-1.202-1.177-2.214-2.214-3.034
			c-1.039-0.82-2.488-1.23-4.347-1.23c-1.367,0-2.529,0.287-3.484,0.861c-0.957,0.574-1.736,1.299-2.337,2.173
			c-0.603,0.875-1.025,1.818-1.271,2.829c-0.246,1.012-0.369,1.955-0.369,2.829v26.732H2346.017z"/>
		<path d="M2397.43,505.715c-2.242,0-4.387-0.356-6.437-1.066c-2.051-0.71-3.731-1.927-5.043-3.649
			c-1.312-1.722-1.969-4.059-1.969-7.011c0-3.006,0.669-5.439,2.01-7.298c1.339-1.858,3.238-3.28,5.698-4.264
			c2.46-0.984,5.412-1.653,8.856-2.009c3.444-0.355,7.27-0.533,11.479-0.533v-3.936c0-2.733-0.696-4.66-2.091-5.781
			c-1.394-1.12-3.513-1.681-6.354-1.681c-2.352,0-4.429,0.521-6.232,1.558c-1.804,1.039-2.706,2.679-2.706,4.92v0.82h-9.184
			c-0.056-0.218-0.082-0.478-0.082-0.779c0-0.3,0-0.586,0-0.861c0-2.405,0.751-4.51,2.255-6.314
			c1.503-1.804,3.594-3.198,6.273-4.182c2.678-0.984,5.739-1.476,9.184-1.476h1.394c5.686,0,9.923,1.121,12.71,3.362
			c2.788,2.242,4.183,5.385,4.183,9.43v21.402c0,1.039,0.246,1.777,0.737,2.214c0.492,0.438,1.038,0.656,1.641,0.656
			c0.546,0,1.134-0.109,1.763-0.328c0.628-0.218,1.216-0.464,1.763-0.738v5.822c-0.711,0.547-1.612,0.97-2.705,1.271
			c-1.095,0.3-2.406,0.451-3.937,0.451c-1.804,0-3.294-0.328-4.469-0.984c-1.177-0.656-2.064-1.544-2.665-2.665
			c-0.603-1.12-0.957-2.391-1.066-3.813c-1.586,2.351-3.636,4.182-6.149,5.494C2403.771,505.059,2400.818,505.715,2397.43,505.715z
			 M2401.53,499.237c1.748,0,3.415-0.396,5.002-1.189c1.585-0.792,2.896-1.98,3.936-3.567c1.038-1.585,1.558-3.58,1.558-5.986
			v-3.198c-3.827,0-7.106,0.205-9.84,0.615c-2.734,0.41-4.811,1.162-6.231,2.255c-1.423,1.094-2.132,2.734-2.132,4.92
			c0,2.187,0.655,3.759,1.968,4.715C2397.102,498.76,2399.015,499.237,2401.53,499.237z"/>
		<path d="M2434.739,486.937v-8.528h20.828v8.528H2434.739z"/>
		<path d="M2466.555,504.895v-41.902h6.97l1.229,6.15c1.585-2.296,3.554-4.031,5.904-5.207c2.35-1.175,4.974-1.763,7.872-1.763
			c2.896,0,5.438,0.547,7.626,1.64c2.186,1.094,3.896,2.693,5.125,4.797c1.23,2.105,1.845,4.688,1.845,7.749v28.536h-9.512v-26.814
			c0-3.116-0.726-5.343-2.173-6.683c-1.449-1.339-3.458-2.009-6.027-2.009c-1.695,0-3.253,0.424-4.674,1.271
			c-1.422,0.848-2.556,1.982-3.403,3.403c-0.848,1.422-1.271,3.034-1.271,4.838v25.994H2466.555z"/>
		<path d="M2533.056,505.715c-3.719,0-7.052-0.847-10.004-2.542c-2.952-1.694-5.263-4.127-6.93-7.298
			c-1.668-3.17-2.501-6.915-2.501-11.234v-1.394c0-4.373,0.833-8.131,2.501-11.275c1.667-3.143,3.963-5.562,6.889-7.257
			c2.924-1.694,6.244-2.542,9.963-2.542h1.312c3.772,0,7.12,0.848,10.045,2.542c2.924,1.695,5.22,4.114,6.889,7.257
			c1.667,3.144,2.501,6.902,2.501,11.275v1.394c0,4.319-0.834,8.064-2.501,11.234c-1.669,3.171-3.965,5.604-6.889,7.298
			c-2.925,1.695-6.246,2.542-9.963,2.542H2533.056z M2533.63,499.237c1.912,0,3.62-0.451,5.125-1.353
			c1.503-0.902,2.705-2.255,3.607-4.059c0.902-1.804,1.354-3.99,1.354-6.56v-6.642c0-2.624-0.451-4.824-1.354-6.601
			c-0.902-1.776-2.104-3.116-3.607-4.018c-1.505-0.902-3.213-1.353-5.125-1.353c-1.859,0-3.541,0.451-5.044,1.353
			c-1.504,0.902-2.705,2.242-3.607,4.018c-0.902,1.777-1.354,3.977-1.354,6.601v6.642c0,2.57,0.451,4.756,1.354,6.56
			c0.902,1.804,2.104,3.157,3.607,4.059C2530.089,498.786,2531.771,499.237,2533.63,499.237z"/>
		<path d="M2579.631,505.715c-3.172,0-6.068-0.766-8.692-2.296s-4.729-3.908-6.314-7.134c-1.586-3.225-2.378-7.352-2.378-12.382
			v-0.902c0-4.592,0.751-8.432,2.255-11.521c1.503-3.088,3.498-5.412,5.986-6.97c2.487-1.558,5.234-2.337,8.241-2.337
			c2.952,0,5.466,0.562,7.544,1.681c2.077,1.121,3.662,2.556,4.756,4.305v-22.304h9.512v59.04h-7.38l-1.147-5.658
			c-1.367,1.968-3.062,3.541-5.084,4.715C2584.905,505.127,2582.473,505.715,2579.631,505.715z M2581.517,499.237
			c1.749,0,3.334-0.423,4.756-1.271c1.421-0.847,2.569-2.2,3.444-4.059c0.873-1.858,1.312-4.291,1.312-7.298v-5.822
			c0-2.678-0.424-4.906-1.271-6.683c-0.849-1.776-1.996-3.102-3.444-3.977c-1.449-0.874-3.048-1.312-4.797-1.312
			c-2.624,0-4.825,0.998-6.602,2.993c-1.776,1.996-2.665,4.989-2.665,8.979v5.74c0,3.007,0.41,5.44,1.23,7.298
			c0.82,1.859,1.927,3.226,3.321,4.1C2578.195,498.801,2579.767,499.237,2581.517,499.237z"/>
		<path d="M2630.06,505.715c-3.827,0-7.189-0.807-10.086-2.419c-2.898-1.612-5.153-3.977-6.766-7.093
			c-1.612-3.116-2.419-6.888-2.419-11.316v-1.886c0-4.428,0.861-8.2,2.583-11.316c1.723-3.116,4.072-5.48,7.053-7.093
			c2.979-1.612,6.382-2.419,10.209-2.419h1.065c3.553,0,6.669,0.726,9.349,2.173c2.678,1.449,4.756,3.513,6.231,6.191
			c1.477,2.679,2.214,5.822,2.214,9.43v5.166h-28.782c0,2.898,0.382,5.412,1.148,7.544c0.765,2.132,1.898,3.759,3.403,4.879
			c1.503,1.121,3.375,1.681,5.617,1.681c1.857,0,3.512-0.369,4.961-1.107c1.447-0.738,2.596-1.845,3.443-3.321
			c0.847-1.476,1.271-3.307,1.271-5.494h8.938c0,3.28-0.819,6.15-2.46,8.61c-1.64,2.46-3.854,4.375-6.642,5.74
			s-5.959,2.05-9.512,2.05H2630.06z M2620.793,479.885h19.353c0-3.826-0.834-6.655-2.501-8.487c-1.668-1.831-3.95-2.747-6.847-2.747
			c-2.734,0-5.043,0.943-6.93,2.829C2621.982,473.366,2620.957,476.168,2620.793,479.885z"/>
	</g>
	<path style="fill:#FFFFFF;stroke:#000000;stroke-width:6;stroke-miterlimit:10;" d="M2132.162,559.149h-114c-9.9,0-18-8.1-18-18
		v-114c0-9.9,8.1-18,18-18h114c9.9,0,18,8.1,18,18v114C2150.162,551.049,2142.062,559.149,2132.162,559.149z"/>
	<circle style="fill:#5181F6;stroke:#000000;stroke-width:6;stroke-miterlimit:10;" cx="1106.186" cy="2987.776" r="136.836"/>
	<g>
		
			<rect x="782.045" y="3079.718" style="fill:#E6E6E6;stroke:#000000;stroke-width:6;stroke-miterlimit:10;" width="272.131" height="163.279"/>
		<g>
			<path d="M886.566,3206.806v-89.607h42.061c4.615,0,8.664,0.894,12.148,2.678c3.482,1.786,6.182,4.268,8.099,7.445
				c1.915,3.18,2.874,6.858,2.874,11.038c0,4.441-0.784,8.121-2.351,11.037c-1.567,2.919-3.527,5.205-5.878,6.858
				c-2.351,1.655-4.748,2.873-7.185,3.657v0.783c1.653,0.262,3.482,0.807,5.486,1.633c2.002,0.829,3.919,2.005,5.748,3.527
				c1.829,1.524,3.331,3.483,4.506,5.878c1.176,2.396,1.764,5.378,1.764,8.947c0,5.052-1.11,9.536-3.331,13.454
				c-2.221,3.919-5.27,7.012-9.144,9.274c-3.876,2.266-8.382,3.396-13.52,3.396H886.566z M902.241,3155.08h21.03
				c2.612,0,4.876-0.631,6.792-1.895c1.914-1.261,3.396-2.916,4.441-4.963c1.045-2.046,1.567-4.289,1.567-6.728
				c0-3.919-0.979-6.9-2.939-8.947c-1.959-2.046-4.812-3.07-8.556-3.07h-22.336V3155.08z M902.241,3194.528h22.467
				c2.612,0,4.898-0.631,6.857-1.895c1.959-1.261,3.504-2.959,4.637-5.094c1.131-2.133,1.698-4.462,1.698-6.988
				c0-2.698-0.588-5.029-1.764-6.988c-1.175-1.96-2.766-3.482-4.768-4.572c-2.004-1.088-4.225-1.633-6.662-1.633h-22.467V3194.528z"
				/>
		</g>
	</g>
	<circle style="fill:#5181F6;stroke:#000000;stroke-width:6;stroke-miterlimit:10;" cx="1894.38" cy="2927.503" r="136.836"/>
	<g>
		
			<rect x="1940.323" y="3017.408" style="fill:#E6E6E6;stroke:#000000;stroke-width:6;stroke-miterlimit:10;" width="272.131" height="163.279"/>
		<g>
			<path d="M2077.043,3145.802c-5.139,0-9.949-0.741-14.434-2.221c-4.486-1.48-8.404-3.874-11.756-7.185
				c-3.354-3.309-5.988-7.642-7.902-12.997c-1.917-5.355-2.874-11.907-2.874-19.659v-8.099c0-7.575,0.957-14.041,2.874-19.397
				c1.914-5.355,4.549-9.709,7.902-13.062c3.352-3.352,7.228-5.791,11.625-7.315c4.396-1.522,9.122-2.286,14.173-2.286h1.96
				c4.702,0,9.164,0.653,13.389,1.96c4.223,1.306,7.945,3.376,11.168,6.204c3.221,2.831,5.768,6.531,7.642,11.104
				c1.871,4.571,2.809,10.123,2.809,16.654h-15.283c0-6.183-0.894-10.95-2.678-14.304c-1.786-3.351-4.245-5.702-7.38-7.054
				c-3.136-1.349-6.707-2.024-10.711-2.024c-2.962,0-5.705,0.437-8.229,1.307c-2.527,0.871-4.703,2.309-6.531,4.311
				c-1.829,2.004-3.245,4.682-4.245,8.033c-1.002,3.354-1.502,7.511-1.502,12.475v14.891c0,6.619,0.869,11.821,2.612,15.609
				c1.74,3.788,4.157,6.488,7.249,8.099c3.09,1.612,6.64,2.417,10.646,2.417c4.266,0,7.988-0.674,11.168-2.024
				c3.178-1.35,5.659-3.701,7.445-7.054c1.784-3.352,2.678-8.076,2.678-14.173h14.761c0,6.27-0.915,11.67-2.743,16.197
				c-1.829,4.529-4.333,8.229-7.511,11.103c-3.18,2.874-6.858,5.009-11.038,6.4c-4.18,1.393-8.621,2.091-13.323,2.091H2077.043z"/>
		</g>
	</g>
	<circle style="fill:#5181F6;stroke:#000000;stroke-width:6;stroke-miterlimit:10;" cx="2423.678" cy="2257.114" r="136.836"/>
	<g>
		
			<rect x="2464.869" y="1994.874" style="fill:#E6E6E6;stroke:#000000;stroke-width:6;stroke-miterlimit:10;" width="272.131" height="163.279"/>
		<g>
			<path d="M2567.496,2121.964v-89.607h33.832c5.137,0,9.904,0.764,14.303,2.286c4.396,1.524,8.295,3.898,11.691,7.119
				c3.396,3.223,6.028,7.359,7.902,12.409c1.871,5.051,2.809,11.147,2.809,18.287v6.792c0,7.054-0.938,13.238-2.809,18.549
				c-1.874,5.312-4.507,9.776-7.902,13.389c-3.396,3.614-7.295,6.314-11.691,8.099c-4.398,1.786-9.166,2.678-14.303,2.678H2567.496z
				 M2583.693,2109.424h16.459c3.919,0,7.466-0.892,10.646-2.678c3.178-1.783,5.683-4.614,7.511-8.49
				c1.829-3.874,2.743-8.99,2.743-15.349v-13.062c0-6.271-0.914-11.212-2.743-14.826c-1.828-3.612-4.333-6.204-7.511-7.772
				c-3.18-1.567-6.727-2.351-10.646-2.351h-16.459V2109.424z"/>
		</g>
	</g>
	<circle style="fill:#5181F6;stroke:#000000;stroke-width:6;stroke-miterlimit:10;" cx="361.141" cy="2452.724" r="136.836"/>
	
		<rect x="37" y="2533.999" style="fill:#E6E6E6;stroke:#000000;stroke-width:6;stroke-miterlimit:10;" width="272.131" height="163.279"/>
	<g>
		<path d="M129.767,2661.086l33.962-89.607h18.81l33.832,89.607h-16.981l-7.446-19.463h-38.926l-7.445,19.463H129.767z
			 M157.197,2629.736h30.435l-14.891-40.624h-0.522L157.197,2629.736z"/>
	</g>
</g>
</svg>
