<?xml version="1.0" encoding="iso-8859-1"?>
<!-- Generator: Adobe Illustrator 29.6.0, SVG Export Plug-In . SVG Version: 9.03 Build 0)  -->
<svg version="1.1" xmlns="http://www.w3.org/2000/svg" xmlns:xlink="http://www.w3.org/1999/xlink" x="0px" y="0px"
	 viewBox="0 0 4000 2774" style="enable-background:new 0 0 4000 2774;" xml:space="preserve">
<g id="Fill">
	<path d="M2301.843,2131.605h-407.606c-23.1,0-42-18.9-42-42V1682c0-23.1,18.9-42,42-42h407.606c23.1,0,42,18.9,42,42v407.606
		C2343.843,2112.705,2324.942,2131.605,2301.843,2131.605z"/>
	<path style="fill:#FFFFFF;stroke:#000000;stroke-width:6;stroke-miterlimit:10;" d="M2281.396,2114.767h-407.606
		c-23.1,0-42-18.9-42-42v-407.605c0-23.1,18.9-42,42-42h407.606c23.1,0,42,18.9,42,42v407.605
		C2323.396,2095.867,2304.496,2114.767,2281.396,2114.767z"/>
	<path d="M3391.888,2246.842h-407.606c-23.1,0-42-18.9-42-42v-407.605c0-23.1,18.9-42,42-42h407.606c23.1,0,42,18.9,42,42v407.605
		C3433.888,2227.942,3414.988,2246.842,3391.888,2246.842z"/>
	<path style="fill:#FFFFFF;stroke:#000000;stroke-width:6;stroke-miterlimit:10;" d="M3371.442,2230.004h-407.606
		c-23.1,0-42-18.9-42-42v-407.605c0-23.1,18.9-42,42-42h407.606c23.1,0,42,18.9,42,42v407.605
		C3413.442,2211.104,3394.542,2230.004,3371.442,2230.004z"/>
	<path d="M1592.78,2677.985h-407.606c-23.1,0-42-18.9-42-42v-407.605c0-23.1,18.9-42,42-42h407.606c23.1,0,42,18.9,42,42v407.605
		C1634.78,2659.085,1615.88,2677.985,1592.78,2677.985z"/>
	<path style="fill:#FFFFFF;stroke:#000000;stroke-width:6;stroke-miterlimit:10;" d="M1572.334,2661.147h-407.606
		c-23.1,0-42-18.9-42-42v-407.605c0-23.1,18.9-42,42-42h407.606c23.1,0,42,18.9,42,42v407.605
		C1614.334,2642.247,1595.434,2661.147,1572.334,2661.147z"/>
	
		<line style="fill:none;stroke:#FAC710;stroke-width:12;stroke-miterlimit:10;" x1="1919.206" y1="1842.106" x2="1432.096" y2="2307.883"/>
	<path style="fill:#FF5553;" d="M2732.739,969.057c-24.335-34.745-59.78-60.413-99.955-73.039
		c1.503-14.226,1.627-28.635,0.281-42.978c-5.293-56.12-32.928-108.842-75.842-145.318c-15.788-10.201-31.562-20.408-47.344-30.602
		c-36.15-16.892-74.103-23.584-113.848-20.081c-18.323,4.195-36.639,8.384-54.963,12.566c-21.702,8.168-41.365,19.252-59.041,33.19
		c-6.149-6.894-12.755-13.409-19.826-19.428c-14.723-9.514-29.445-19.022-44.155-28.543
		c-33.719-15.749-69.104-21.982-106.176-18.716c-17.088,3.902-34.17,7.809-51.252,11.717
		c-33.045,12.423-61.066,32.033-84.075,58.793c-19.519-24.159-44.475-44.168-74.234-57.538
		c-24.773-11.129-51.088-20.231-77.821-24.969c-26.943-4.77-55.186-3.836-82.625-3.052c-18.193,4.163-36.399,8.326-54.604,12.488
		c-35.294,13.279-65.222,34.235-89.773,62.864c-31.268,36.79-49.141,83.676-51.049,131.66c-14.677-2.149-29.647-2.646-44.932-1.293
		c-15.821,3.613-31.647,7.234-47.462,10.848c-30.693,11.547-56.701,29.758-78.037,54.643
		c-32.556,38.306-48.487,89.173-43.769,139.215c4.568,48.461,28.426,93.995,65.497,125.499c5.933,3.842,11.873,7.685,17.814,11.52
		c-0.314,7.561-0.17,15.154,0.542,22.734c4.123,43.684,25.629,84.729,59.047,113.129c12.286,7.946,24.564,15.886,36.856,23.825
		c28.145,13.154,57.688,18.362,88.636,15.631l42.783-9.789c6.92-2.6,13.579-5.58,19.977-8.939
		c5.776,6.287,11.912,12.279,18.447,17.833c15.311,9.894,30.622,19.794,45.932,29.694c35.078,16.39,71.902,22.878,110.469,19.48
		c17.775-4.064,35.549-8.13,53.323-12.201c31.464-11.827,58.505-29.981,81.22-54.303c1.333,1.183,2.627,2.405,3.986,3.555
		c15.781,10.201,31.556,20.408,47.337,30.608c36.15,16.885,74.103,23.584,113.854,20.075c18.317-4.189,36.633-8.378,54.95-12.567
		c3.313-1.248,6.528-2.626,9.743-4.005c7.613,4.927,15.233,9.848,22.852,14.775c37.796,17.657,77.475,24.649,119.023,20.989
		c19.146-4.384,38.306-8.763,57.453-13.141c37.143-13.965,68.64-36.019,94.472-66.151c12.174-14.317,22.407-30.098,30.602-46.847
		c2.568,0.562,5.143,1.111,7.75,1.568c17.029,0.699,34.059,1.392,51.082,2.091c33.379-3.306,63.831-14.533,91.349-33.666
		l8.351-6.391c12.109-11.024,24.211-22.035,36.32-33.059c22.309-26.479,36.516-56.774,42.645-90.891
		C2773.359,1062.588,2761.818,1010.584,2732.739,969.057z"/>
	<g id="Layer_2_00000171693655610200325860000007420507718178109880_">
		<g id="Layer_1-2">
			<path style="fill:#FFFFFF;" d="M1551.397,1029.478c-0.516,8.986,6.345,16.69,15.33,17.215h0.889
				c8.987-0.01,16.265-7.303,16.255-16.291s-7.304-16.265-16.291-16.255c-8.618,0.01-15.734,6.736-16.228,15.339L1551.397,1029.478z
				"/>
			<path style="fill:#FFFFFF;" d="M1490.716,1025.352c-2.898-0.162-5.379,2.056-5.541,4.953c-0.162,2.898,2.056,5.379,4.953,5.541
				c2.895,0.162,5.374-2.051,5.54-4.946c0.171-2.892-2.035-5.376-4.927-5.547
				C1490.733,1025.353,1490.724,1025.352,1490.716,1025.352z"/>
			<path style="fill:#FFFFFF;" d="M1550.365,935.032c2.586-1.328,3.606-4.501,2.278-7.088s-4.501-3.606-7.088-2.278
				c-2.566,1.318-3.594,4.455-2.304,7.036c1.306,2.603,4.475,3.654,7.078,2.348C1550.342,935.044,1550.354,935.038,1550.365,935.032
				z"/>
			<path style="fill:#FFFFFF;" d="M1566.878,963.826c4.008-2.022,5.618-6.909,3.596-10.917c-2.022-4.008-6.909-5.618-10.917-3.596
				c-4.006,2.021-5.616,6.905-3.599,10.912c2.019,4.009,6.905,5.623,10.914,3.604
				C1566.875,963.828,1566.877,963.827,1566.878,963.826z"/>
			<path style="fill:#FFFFFF;" d="M1511.31,983.629c3.09,2.032,7.242,1.174,9.274-1.916c2.032-3.09,1.174-7.242-1.916-9.274
				c-3.09-2.032-7.242-1.174-9.274,1.916c-0.002,0.003-0.003,0.005-0.005,0.008C1507.364,977.453,1508.224,981.599,1511.31,983.629z
				"/>
			<path style="fill:#FFFFFF;" d="M1521.208,1022.391c-4.482-0.253-8.32,3.175-8.573,7.657c-0.253,4.482,3.175,8.32,7.657,8.573
				c4.478,0.253,8.315-3.17,8.572-7.648C1529.117,1026.489,1525.69,1022.648,1521.208,1022.391z"/>
			<path style="fill:#FFFFFF;" d="M1512.2,1077.034c-3.301,1.668-4.624,5.696-2.956,8.996c1.668,3.3,5.696,4.624,8.996,2.956
				c3.298-1.667,4.623-5.691,2.958-8.991c-1.665-3.302-5.692-4.629-8.994-2.964
				C1512.203,1077.032,1512.201,1077.033,1512.2,1077.034z"/>
			<path style="fill:#FFFFFF;" d="M1543.794,1005.593c4.42,2.897,10.351,1.662,13.247-2.758c2.897-4.42,1.662-10.351-2.758-13.247
				c-4.419-2.896-10.349-1.662-13.246,2.756c-2.899,4.412-1.673,10.339,2.74,13.238
				C1543.783,1005.586,1543.788,1005.589,1543.794,1005.593z"/>
			<path style="fill:#FFFFFF;" d="M1644.028,963.185c3.764,2.455,8.805,1.394,11.26-2.37c2.455-3.764,1.394-8.805-2.37-11.26
				c-3.761-2.453-8.799-1.396-11.256,2.363c-2.46,3.755-1.411,8.793,2.344,11.253
				C1644.014,963.176,1644.021,963.181,1644.028,963.185z"/>
			<path style="fill:#FFFFFF;" d="M1660.71,934.481c2.432,1.594,5.695,0.915,7.289-1.517c1.594-2.432,0.915-5.695-1.517-7.289
				c-2.432-1.594-5.695-0.915-7.289,1.517c-0.001,0.002-0.003,0.004-0.004,0.006C1657.6,929.63,1658.281,932.889,1660.71,934.481z"
				/>
			<path style="fill:#FFFFFF;" d="M1645.309,1013.987c-8.975-0.516-16.669,6.342-17.184,15.317
				c-0.516,8.975,6.342,16.669,15.317,17.184l0,0c0.311,0,0.631,0,0.943,0c8.987-0.004,16.269-7.294,16.265-16.281
				c-0.002-3.996-1.474-7.851-4.136-10.832C1653.652,1016.15,1649.615,1014.208,1645.309,1013.987z"/>
			<path style="fill:#FFFFFF;" d="M1572.223,1004.464c2.756,5.505,8.392,8.974,14.548,8.955c8.992,0.002,16.283-7.286,16.285-16.278
				c0.001-2.556-0.601-5.077-1.755-7.358c-2.775-5.479-8.406-8.922-14.548-8.892c-8.992,0.015-16.269,7.317-16.254,16.31
				C1570.503,999.722,1571.093,1002.209,1572.223,1004.464z"/>
			<path style="fill:#FFFFFF;" d="M1699.828,983.611c3.301-1.666,4.627-5.693,2.961-8.995c-1.666-3.301-5.693-4.627-8.995-2.961
				c-3.298,1.664-4.625,5.685-2.966,8.986C1692.495,983.945,1696.522,985.274,1699.828,983.611z"/>
			<path style="fill:#FFFFFF;" d="M1658.558,988.795c-4.72,2.377-6.619,8.13-4.242,12.849s8.13,6.619,12.849,4.242
				c4.719-2.377,6.619-8.13,4.242-12.849c-2.37-4.717-8.116-6.62-12.833-4.25C1658.569,988.79,1658.564,988.793,1658.558,988.795z"
				/>
			<path style="fill:#FFFFFF;" d="M1605.4,932.027c3.692,0.21,6.856-2.612,7.066-6.304c0.21-3.692-2.612-6.856-6.304-7.066
				c-3.692-0.21-6.856,2.612-7.066,6.304c0,0.002,0,0.004,0,0.005C1598.888,928.656,1601.71,931.817,1605.4,932.027z"/>
			<path style="fill:#FFFFFF;" d="M1605.329,974.167c5.276,0.296,9.793-3.741,10.089-9.018s-3.741-9.793-9.018-10.089
				c-5.271-0.296-9.785,3.734-10.088,9.005C1596.014,969.345,1600.05,973.867,1605.329,974.167z"/>
			<path style="fill:#FFFFFF;" d="M1553.487,1071.841c4.719-2.379,6.615-8.133,4.236-12.851c-2.379-4.719-8.133-6.615-12.851-4.236
				c-4.719,2.379-6.615,8.133-4.236,12.851c0,0.001,0.001,0.002,0.002,0.004C1543.017,1072.324,1548.769,1074.219,1553.487,1071.841
				z"/>
			<path style="fill:#FFFFFF;" d="M1611.509,988.128c-4.926,7.517-2.825,17.604,4.692,22.53c7.517,4.926,17.604,2.825,22.53-4.692
				c4.926-7.517,2.825-17.604-4.692-22.53c-2.644-1.733-5.736-2.658-8.898-2.662
				C1619.648,980.771,1614.522,983.536,1611.509,988.128z"/>
			<path style="fill:#FFFFFF;" d="M1639.804,1056.181c-4.047-8.025-13.833-11.249-21.857-7.203
				c-8.025,4.047-11.249,13.833-7.203,21.857c2.766,5.486,8.386,8.946,14.53,8.946c2.547-0.018,5.055-0.626,7.327-1.778
				C1640.602,1073.953,1643.822,1064.198,1639.804,1056.181z"/>
			<path style="fill:#FFFFFF;" d="M1668.242,1055.043c-4.417-2.9-10.349-1.67-13.25,2.748c-2.9,4.417-1.67,10.349,2.748,13.249
				s10.349,1.67,13.249-2.748C1673.879,1063.873,1672.651,1057.949,1668.242,1055.043z"/>
			<path style="fill:#FFFFFF;" d="M1699.401,1030.598c0.253-4.482-3.175-8.32-7.657-8.573c-4.482-0.253-8.32,3.175-8.573,7.657
				c-0.253,4.478,3.17,8.315,7.648,8.572C1695.303,1038.507,1699.143,1035.081,1699.401,1030.598z"/>
			<path style="fill:#FFFFFF;" d="M1721.916,1024.809c-2.903-0.167-5.391,2.05-5.558,4.953c-0.167,2.902,2.05,5.391,4.953,5.558
				c2.903,0.167,5.391-2.051,5.558-4.953c0,0,0,0,0,0C1727.031,1027.466,1724.816,1024.981,1721.916,1024.809z"/>
			<path style="fill:#FFFFFF;" d="M1700.717,1077.007c-3.094-2.026-7.244-1.161-9.27,1.933c-2.026,3.094-1.161,7.244,1.933,9.27
				c3.092,2.025,7.24,1.162,9.267-1.928c2.029-3.092,1.167-7.243-1.925-9.272C1700.72,1077.009,1700.718,1077.008,1700.717,1077.007
				z"/>
			<path style="fill:#FFFFFF;" d="M1551.326,1126.155c-2.431-1.595-5.694-0.918-7.289,1.513c-1.595,2.431-0.917,5.694,1.513,7.289
				c2.43,1.594,5.692,0.918,7.288-1.511c1.596-2.43,0.921-5.694-1.509-7.29C1551.327,1126.156,1551.327,1126.156,1551.326,1126.155z
				"/>
			<path style="fill:#FFFFFF;" d="M1661.662,1125.604c-2.596,1.309-3.64,4.474-2.332,7.07c1.309,2.596,4.474,3.64,7.07,2.332
				c2.596-1.309,3.64-4.474,2.332-7.07c0-0.001-0.001-0.001-0.001-0.002c-1.303-2.594-4.462-3.64-7.055-2.337
				C1661.671,1125.599,1661.667,1125.601,1661.662,1125.604z"/>
			<path style="fill:#FFFFFF;" d="M1600.518,1072.481c4.926-7.517,2.825-17.604-4.692-22.53c-7.517-4.926-17.604-2.825-22.53,4.692
				c-4.926,7.517-2.825,17.604,4.692,22.53c2.647,1.734,5.742,2.66,8.907,2.662
				C1592.39,1079.854,1597.519,1077.085,1600.518,1072.481z"/>
			<path style="fill:#FFFFFF;" d="M1567.999,1097.46c-3.756-2.457-8.794-1.404-11.251,2.352c-2.457,3.756-1.404,8.794,2.352,11.251
				c3.754,2.456,8.787,1.406,11.246-2.345C1572.804,1104.96,1571.754,1099.922,1567.999,1097.46z"/>
			<path style="fill:#FFFFFF;" d="M1605.943,1128.609c-3.692-0.21-6.855,2.613-7.065,6.305c-0.21,3.692,2.613,6.855,6.305,7.065
				c3.69,0.21,6.853-2.61,7.065-6.301c0.212-3.692-2.609-6.857-6.301-7.069C1605.945,1128.609,1605.944,1128.609,1605.943,1128.609z
				"/>
			<path style="fill:#FFFFFF;" d="M1606.014,1086.478c-5.275-0.321-9.81,3.696-10.131,8.97c-0.321,5.275,3.695,9.81,8.97,10.131
				c5.275,0.321,9.81-3.696,10.131-8.97c0.001-0.013,0.002-0.026,0.002-0.038C1615.29,1091.308,1611.276,1086.792,1606.014,1086.478
				z"/>
			<path style="fill:#FFFFFF;" d="M1645.149,1096.81c-4.007,2.033-5.608,6.93-3.574,10.938c2.033,4.007,6.93,5.608,10.938,3.574
				c4.007-2.033,5.608-6.93,3.574-10.938c-0.003-0.006-0.006-0.012-0.009-0.017c-2.03-3.998-6.916-5.594-10.914-3.564
				C1645.158,1096.806,1645.153,1096.808,1645.149,1096.81z"/>
			<path style="fill:#FFFFFF;" d="M1824.72,991.872c15.757,0,26.793,8.661,26.793,24.738h20.639
				c0-28.206-20.799-41.794-47.743-41.794c-33.097,0-52.322,17.971-52.322,55.95c0,38.922,19.225,55.942,52.322,55.942
				c27.264,0,47.743-13.232,47.743-41.447h-19.857c0,15.757-10.875,24.427-27.566,24.427c-21.911,0-32.012-12.138-32.012-37.348
				v-3.148C1792.735,1004.473,1802.97,991.872,1824.72,991.872z"/>
			<path style="fill:#FFFFFF;" d="M1926.724,976.737l-42.078,108.113h20.808l8.661-23.485h49.45l8.892,23.485h21.751
				l-42.105-108.113H1926.724z M1920.419,1044.319l11.035-29.638c2.205-5.824,6.145-18.434,6.936-20.639h0.782
				c0.792,2.205,4.731,14.966,6.936,20.639l11.026,29.629L1920.419,1044.319z"/>
			<path style="fill:#FFFFFF;" d="M2106.731,1009.514c0-20.008-11.507-32.777-35.302-32.777h-57.053v108.113h20.177v-41.794h33.56
				l20.452,41.794h22.062l-23.12-44.915C2100.267,1034.893,2106.731,1024.178,2106.731,1009.514z M2069.846,1026.063h-35.294
				v-32.146h35.294c10.875,0,16.549,5.833,16.549,15.597C2086.395,1019.767,2080.25,1026.063,2069.846,1026.063z"/>
			<path style="fill:#FFFFFF;" d="M2177.497,976.737h-43.199v108.113h43.181c32.617,0,52.465-17.02,52.465-54.056
				C2229.944,993.757,2210.114,976.737,2177.497,976.737z M2209.331,1032.368c-0.16,23.645-11.347,35.302-31.834,35.302h-23.004
				v-73.753h23.004c20.452,0,31.834,11.667,31.834,35.302V1032.368z"/>
			<path style="fill:#FFFFFF;" d="M2282.8,976.737l-42.096,108.113h20.799l8.67-23.485h49.486l8.821,23.485h21.751l-42.079-108.113
				H2282.8z M2276.495,1044.319l11.018-29.638c2.205-5.824,6.145-18.434,6.936-20.639h0.8c0.782,2.205,4.731,14.966,6.936,20.639
				l11.026,29.629L2276.495,1044.319z"/>
			<path style="fill:#FFFFFF;" d="M2442.452,1041.038c0,2.045,0.311,7.558,0.311,8.51l-0.782,0.311
				c-0.471-0.623-3.628-6.145-5.335-8.661l-46.96-64.461h-19.252v108.113h19.385v-64.772c0-2.668-0.32-7.879-0.32-8.67l0.791-0.471
				c0.471,0.631,2.837,5.202,5.335,8.83l47.281,65.083h18.905V976.737h-19.376v64.3H2442.452z"/>
			<path style="fill:#FFFFFF;" d="M2542.171,974.852c-33.88,0-54.368,17.962-54.368,55.942s20.452,55.942,54.368,55.942
				c33.915,0,54.528-17.963,54.528-55.942S2576.051,974.852,2542.171,974.852z M2576.051,1032.528
				c0,24.738-11.818,37.188-33.88,37.188c-21.902,0-33.72-12.449-33.72-37.188v-3.308c0-24.747,11.978-37.348,33.72-37.348
				c21.911,0,33.88,12.6,33.88,37.348V1032.528z"/>
		</g>
	</g>
	
		<line style="fill:none;stroke:#FF5553;stroke-width:12;stroke-miterlimit:10;" x1="3049.87" y1="1991.439" x2="2466.76" y2="1244.774"/>
	
		<line style="fill:none;stroke:#C68BFF;stroke-width:12;stroke-miterlimit:10;" x1="3088.981" y1="2044.772" x2="2246.316" y2="1920.328"/>
	<path d="M1130.559,1813.065H722.954c-23.1,0-42-18.9-42-42V1363.46c0-23.1,18.9-42,42-42h407.606c23.1,0,42,18.9,42,42v407.605
		C1172.559,1794.166,1153.659,1813.065,1130.559,1813.065z"/>
	<path style="fill:#FFFFFF;stroke:#000000;stroke-width:6;stroke-miterlimit:10;" d="M1110.113,1796.228H702.507
		c-23.1,0-42-18.9-42-42v-407.605c0-23.1,18.9-42,42-42h407.606c23.1,0,42,18.9,42,42v407.605
		C1152.113,1777.328,1133.213,1796.228,1110.113,1796.228z"/>
	
		<line style="fill:none;stroke:#FF5553;stroke-width:12;stroke-miterlimit:10;" x1="891.652" y1="1450.995" x2="1375.207" y2="1038.552"/>
	
		<line style="fill:none;stroke:#8FD14F;stroke-width:12;stroke-miterlimit:10;" x1="1010.763" y1="1554.436" x2="1912.095" y2="1834.995"/>
	<circle style="fill:#8FD14F;stroke:#000000;stroke-width:6;stroke-miterlimit:10;" cx="907.678" cy="1550.45" r="157.124"/>
	<circle style="fill:#C68BFF;stroke:#000000;stroke-width:6;stroke-miterlimit:10;" cx="3167.639" cy="1984.202" r="157.124"/>
	
		<line style="fill:none;stroke:#FF5553;stroke-width:12;stroke-miterlimit:10;" x1="2040.094" y1="1714.106" x2="2118.317" y2="1344.329"/>
	
		<line style="fill:none;stroke:#FF5553;stroke-width:12;stroke-miterlimit:10;" x1="1389.429" y1="2297.216" x2="1778.819" y2="1354.4"/>
	
		<rect x="3192.345" y="2092.534" style="fill:#E6E6E6;stroke:#000000;stroke-width:6;stroke-miterlimit:10;" width="320" height="175"/>
	<g>
		<path d="M3354.58,2226.503c-5.14,0-9.95-0.741-14.435-2.221c-4.485-1.48-8.404-3.874-11.756-7.185
			c-3.354-3.309-5.988-7.642-7.902-12.997c-1.917-5.355-2.874-11.907-2.874-19.659v-8.099c0-7.575,0.957-14.041,2.874-19.397
			c1.914-5.355,4.549-9.709,7.902-13.062c3.352-3.352,7.228-5.791,11.626-7.315c4.396-1.522,9.121-2.286,14.172-2.286h1.96
			c4.702,0,9.164,0.653,13.389,1.96c4.223,1.306,7.945,3.376,11.168,6.204c3.221,2.831,5.769,6.531,7.642,11.104
			c1.872,4.571,2.809,10.123,2.809,16.654h-15.283c0-6.183-0.894-10.95-2.678-14.304c-1.785-3.351-4.245-5.702-7.38-7.054
			c-3.135-1.349-6.707-2.024-10.711-2.024c-2.962,0-5.705,0.437-8.229,1.307c-2.526,0.871-4.702,2.309-6.531,4.311
			c-1.829,2.004-3.245,4.682-4.245,8.033c-1.002,3.354-1.502,7.511-1.502,12.475v14.891c0,6.619,0.869,11.821,2.612,15.609
			c1.741,3.788,4.157,6.488,7.249,8.099c3.091,1.612,6.64,2.417,10.646,2.417c4.266,0,7.988-0.674,11.168-2.024
			c3.178-1.35,5.66-3.701,7.445-7.054c1.784-3.352,2.678-8.076,2.678-14.173h14.761c0,6.27-0.914,11.67-2.743,16.197
			c-1.829,4.529-4.333,8.229-7.511,11.103c-3.18,2.874-6.857,5.009-11.038,6.4c-4.18,1.393-8.621,2.091-13.323,2.091H3354.58z"/>
	</g>
	<g>
		
			<rect x="487.654" y="1530.757" style="fill:#E6E6E6;stroke:#000000;stroke-width:6;stroke-miterlimit:10;" width="320" height="175"/>
		<g>
			<path d="M605.935,1662.419l33.962-89.607h18.81l33.832,89.607h-16.981l-7.446-19.463h-38.926l-7.445,19.463H605.935z
				 M633.366,1631.069h30.435l-14.891-40.624h-0.522L633.366,1631.069z"/>
		</g>
	</g>
	<circle style="fill:#8FD14F;stroke:#000000;stroke-width:6;stroke-miterlimit:10;" cx="2017.085" cy="1807.113" r="157.124"/>
	<circle style="fill:#FAC710;stroke:#000000;stroke-width:6;stroke-miterlimit:10;" cx="2078.961" cy="1868.989" r="157.124"/>
	<circle style="fill:#C68BFF;stroke:#000000;stroke-width:6;stroke-miterlimit:10;" cx="2140.837" cy="1930.865" r="157.124"/>
	<circle style="fill:#FAC710;stroke:#000000;stroke-width:6;stroke-miterlimit:10;" cx="1368.531" cy="2415.344" r="157.124"/>
	
		<rect x="1017.431" y="2522.898" style="fill:#E6E6E6;stroke:#000000;stroke-width:6;stroke-miterlimit:10;" width="320" height="175"/>
	<g>
		<path d="M1147.467,2655.56v-89.607h42.061c4.615,0,8.664,0.894,12.148,2.678c3.482,1.786,6.182,4.268,8.099,7.445
			c1.915,3.18,2.874,6.858,2.874,11.038c0,4.441-0.784,8.121-2.351,11.037c-1.567,2.919-3.527,5.205-5.878,6.858
			c-2.351,1.655-4.748,2.873-7.185,3.657v0.783c1.653,0.262,3.482,0.807,5.486,1.633c2.002,0.829,3.919,2.005,5.748,3.527
			c1.829,1.524,3.331,3.483,4.506,5.878c1.176,2.396,1.764,5.378,1.764,8.947c0,5.052-1.11,9.536-3.331,13.454
			c-2.221,3.919-5.27,7.012-9.144,9.274c-3.876,2.266-8.382,3.396-13.52,3.396H1147.467z M1163.142,2603.834h21.03
			c2.612,0,4.876-0.631,6.792-1.895c1.914-1.261,3.396-2.916,4.441-4.963c1.045-2.046,1.567-4.289,1.567-6.728
			c0-3.919-0.979-6.9-2.939-8.947c-1.959-2.046-4.812-3.07-8.556-3.07h-22.336V2603.834z M1163.142,2643.282h22.467
			c2.612,0,4.898-0.631,6.857-1.895c1.959-1.261,3.504-2.959,4.637-5.094c1.131-2.133,1.698-4.462,1.698-6.988
			c0-2.698-0.588-5.029-1.764-6.988c-1.175-1.96-2.766-3.482-4.768-4.572c-2.004-1.088-4.225-1.633-6.662-1.633h-22.467V2643.282z"
			/>
	</g>
</g>
<g id="Type">
	<path d="M2683.971,560.179h-114c-9.9,0-18-8.1-18-18v-114c0-9.9,8.1-18,18-18h114c9.9,0,18,8.1,18,18v114
		C2701.971,552.079,2693.871,560.179,2683.971,560.179z"/>
	<g>
		<path d="M251.853,283.105c-13.44,0-25.668-1.916-36.68-5.74c-11.016-3.824-19.836-9.984-26.46-18.48
			c-6.628-8.492-9.94-19.74-9.94-33.74c0-0.932,0-1.912,0-2.94c0-1.023,0.092-2.003,0.28-2.94h32.2
			c-0.188,0.937-0.28,1.868-0.28,2.8c0,0.937,0,1.868,0,2.8c0,6.908,1.68,12.696,5.04,17.36c3.36,4.668,8.164,8.168,14.42,10.5
			c6.252,2.336,13.58,3.5,21.98,3.5c8.96,0,16.563-0.98,22.82-2.94c6.252-1.96,11.012-5.083,14.28-9.38
			c3.264-4.292,4.9-9.8,4.9-16.52c0-6.344-2.008-11.432-6.02-15.26c-4.016-3.824-9.336-6.904-15.96-9.24
			c-6.628-2.332-13.908-4.432-21.84-6.3c-7.936-1.864-15.82-4.012-23.66-6.44c-7.84-2.424-15.076-5.644-21.7-9.66
			c-6.628-4.012-11.948-9.332-15.96-15.96c-4.016-6.624-6.02-15.072-6.02-25.34c0-12.132,3.312-22.164,9.94-30.1
			c6.624-7.932,15.352-13.86,26.18-17.78c10.824-3.92,22.68-5.88,35.56-5.88s24.592,1.868,35.14,5.6
			c10.543,3.736,18.992,9.568,25.34,17.5c6.344,7.936,9.52,18.248,9.52,30.94v3.64h-31.64v-3.92c0-5.784-1.588-10.684-4.76-14.7
			c-3.176-4.012-7.56-7.044-13.16-9.1c-5.6-2.052-12.228-3.08-19.88-3.08c-7.28,0-13.768,0.796-19.46,2.38
			c-5.696,1.588-10.128,4.108-13.3,7.56c-3.176,3.457-4.76,8.076-4.76,13.86c0,6.16,2.003,11.06,6.02,14.7
			c4.012,3.64,9.332,6.536,15.96,8.68c6.624,2.148,13.952,4.156,21.98,6.02c8.023,1.868,16.003,3.968,23.94,6.3
			c7.932,2.336,15.212,5.508,21.84,9.52c6.624,4.016,11.944,9.336,15.96,15.96c4.012,6.628,6.02,15.076,6.02,25.34
			c0,14.56-3.456,26.276-10.36,35.14c-6.908,8.868-16.24,15.308-28,19.32C279.573,281.097,266.413,283.105,251.853,283.105z"/>
		<path d="M409.488,283.105c-7.468,0-14.14-1.12-20.02-3.36c-5.88-2.24-10.456-5.924-13.72-11.06c-3.268-5.132-4.9-11.9-4.9-20.3
			v-86.24h-15.68v-24.92h16.52l11.48-45.64h20.16v45.64h33.32v24.92h-33.32v79.8c0,8.216,1.68,13.44,5.04,15.68
			c3.36,2.24,7,3.36,10.92,3.36c2.052,0,4.9-0.464,8.54-1.4c3.64-0.932,6.58-1.864,8.82-2.8v21c-2.24,1.12-4.948,2.1-8.12,2.94
			c-3.176,0.84-6.44,1.444-9.8,1.82C415.368,282.917,412.288,283.105,409.488,283.105z"/>
		<path d="M507.766,283.105c-7.656,0-14.98-1.216-21.98-3.64s-12.74-6.58-17.22-12.46c-4.48-5.88-6.72-13.86-6.72-23.94
			c0-10.264,2.284-18.572,6.86-24.92c4.572-6.344,11.06-11.2,19.46-14.56c8.4-3.36,18.48-5.644,30.24-6.86
			c11.76-1.212,24.824-1.82,39.2-1.82v-13.44c0-9.332-2.38-15.912-7.14-19.74c-4.76-3.824-11.997-5.74-21.7-5.74
			c-8.028,0-15.12,1.776-21.28,5.32c-6.16,3.548-9.24,9.148-9.24,16.8v2.8h-31.36c-0.188-0.744-0.28-1.632-0.28-2.66
			c0-1.024,0-2.004,0-2.94c0-8.212,2.564-15.4,7.7-21.56c5.132-6.16,12.272-10.92,21.42-14.28c9.144-3.36,19.6-5.04,31.36-5.04h4.76
			c19.412,0,33.88,3.828,43.4,11.48c9.52,7.656,14.28,18.388,14.28,32.2v73.08c0,3.548,0.84,6.068,2.52,7.56
			c1.68,1.496,3.543,2.24,5.6,2.24c1.864,0,3.872-0.372,6.02-1.12c2.144-0.744,4.152-1.584,6.02-2.52v19.88
			c-2.428,1.868-5.508,3.312-9.24,4.34c-3.736,1.024-8.216,1.54-13.44,1.54c-6.16,0-11.249-1.12-15.26-3.36
			c-4.016-2.24-7.048-5.272-9.1-9.1c-2.056-3.824-3.268-8.164-3.64-13.02c-5.417,8.028-12.417,14.28-21,18.76
			C529.417,280.865,519.337,283.105,507.766,283.105z M521.766,260.986c5.972,0,11.664-1.352,17.08-4.06
			c5.412-2.704,9.892-6.764,13.44-12.18c3.544-5.412,5.32-12.224,5.32-20.44v-10.92c-13.068,0-24.268,0.7-33.6,2.1
			c-9.336,1.4-16.428,3.968-21.28,7.7c-4.856,3.736-7.28,9.336-7.28,16.8c0,7.468,2.24,12.836,6.72,16.1
			C506.646,259.354,513.178,260.986,521.766,260.986z"/>
		<path d="M639.083,280.305v-143.08h24.36l4.2,21c0.372-0.56,1.304-2.052,2.8-4.48c1.492-2.424,3.824-5.132,7-8.12
			c3.172-2.983,7.184-5.6,12.04-7.84c4.852-2.24,10.732-3.36,17.64-3.36c9.892,0,17.964,1.96,24.22,5.88
			c6.252,3.92,10.92,9.288,14,16.1c3.08,6.816,4.62,14.608,4.62,23.38c0,2.056-0.096,4.156-0.28,6.3
			c-0.188,2.148-0.376,3.968-0.56,5.46h-27.44v-5.6c0-3.92-0.748-7.932-2.24-12.04c-1.496-4.104-4.016-7.56-7.56-10.36
			c-3.548-2.8-8.496-4.2-14.84-4.2c-4.668,0-8.636,0.98-11.9,2.94c-3.268,1.96-5.928,4.436-7.98,7.42
			c-2.056,2.988-3.5,6.208-4.34,9.66c-0.84,3.456-1.26,6.676-1.26,9.66v91.28H639.083z"/>
		<path d="M773.479,218.986v-29.12h71.12v29.12H773.479z"/>
		<path d="M947.917,283.105c-13.44,0-25.668-1.916-36.68-5.74c-11.016-3.824-19.836-9.984-26.46-18.48
			c-6.628-8.492-9.94-19.74-9.94-33.74c0-0.932,0-1.912,0-2.94c0-1.023,0.092-2.003,0.28-2.94h32.2
			c-0.188,0.937-0.28,1.868-0.28,2.8c0,0.937,0,1.868,0,2.8c0,6.908,1.68,12.696,5.04,17.36c3.36,4.668,8.164,8.168,14.42,10.5
			c6.252,2.336,13.58,3.5,21.98,3.5c8.96,0,16.563-0.98,22.82-2.94c6.252-1.96,11.012-5.083,14.28-9.38
			c3.264-4.292,4.9-9.8,4.9-16.52c0-6.344-2.008-11.432-6.02-15.26c-4.016-3.824-9.336-6.904-15.96-9.24
			c-6.628-2.332-13.908-4.432-21.84-6.3c-7.936-1.864-15.82-4.012-23.66-6.44c-7.84-2.424-15.076-5.644-21.7-9.66
			c-6.628-4.012-11.948-9.332-15.96-15.96c-4.016-6.624-6.02-15.072-6.02-25.34c0-12.132,3.312-22.164,9.94-30.1
			c6.624-7.932,15.352-13.86,26.18-17.78c10.824-3.92,22.68-5.88,35.56-5.88s24.592,1.868,35.14,5.6
			c10.543,3.736,18.992,9.568,25.34,17.5c6.344,7.936,9.52,18.248,9.52,30.94v3.64h-31.64v-3.92c0-5.784-1.588-10.684-4.76-14.7
			c-3.176-4.012-7.56-7.044-13.16-9.1c-5.6-2.052-12.228-3.08-19.88-3.08c-7.28,0-13.768,0.796-19.46,2.38
			c-5.696,1.588-10.128,4.108-13.3,7.56c-3.176,3.457-4.76,8.076-4.76,13.86c0,6.16,2.003,11.06,6.02,14.7
			c4.012,3.64,9.332,6.536,15.96,8.68c6.624,2.148,13.952,4.156,21.98,6.02c8.023,1.868,16.003,3.968,23.94,6.3
			c7.932,2.336,15.212,5.508,21.84,9.52c6.624,4.016,11.944,9.336,15.96,15.96c4.012,6.628,6.02,15.076,6.02,25.34
			c0,14.56-3.456,26.276-10.36,35.14c-6.908,8.868-16.24,15.308-28,19.32C975.638,281.097,962.478,283.105,947.917,283.105z"/>
		<path d="M1060.753,280.305v-201.6h32.48v77.28c5.224-7.092,11.62-12.46,19.18-16.1s15.632-5.46,24.22-5.46
			c9.52,0,17.964,1.868,25.34,5.6c7.372,3.736,13.204,9.196,17.5,16.38c4.292,7.188,6.44,16.008,6.44,26.46v97.44h-32.48v-91.56
			c0-10.64-2.52-18.244-7.56-22.82c-5.04-4.572-11.948-6.86-20.72-6.86c-5.788,0-11.108,1.448-15.96,4.34
			c-4.856,2.896-8.729,6.768-11.62,11.62c-2.896,4.856-4.34,10.36-4.34,16.52v88.76H1060.753z"/>
		<path d="M1264.872,283.105c-7.656,0-14.98-1.216-21.98-3.64s-12.74-6.58-17.22-12.46c-4.48-5.88-6.72-13.86-6.72-23.94
			c0-10.264,2.284-18.572,6.86-24.92c4.572-6.344,11.06-11.2,19.46-14.56c8.4-3.36,18.48-5.644,30.24-6.86
			c11.76-1.212,24.824-1.82,39.2-1.82v-13.44c0-9.332-2.38-15.912-7.14-19.74c-4.76-3.824-11.997-5.74-21.7-5.74
			c-8.028,0-15.12,1.776-21.28,5.32c-6.16,3.548-9.24,9.148-9.24,16.8v2.8h-31.36c-0.188-0.744-0.28-1.632-0.28-2.66
			c0-1.024,0-2.004,0-2.94c0-8.212,2.564-15.4,7.7-21.56c5.132-6.16,12.272-10.92,21.42-14.28c9.144-3.36,19.6-5.04,31.36-5.04h4.76
			c19.412,0,33.88,3.828,43.4,11.48c9.52,7.656,14.28,18.388,14.28,32.2v73.08c0,3.548,0.84,6.068,2.52,7.56
			c1.68,1.496,3.543,2.24,5.6,2.24c1.864,0,3.872-0.372,6.02-1.12c2.144-0.744,4.152-1.584,6.02-2.52v19.88
			c-2.428,1.868-5.508,3.312-9.24,4.34c-3.736,1.024-8.216,1.54-13.44,1.54c-6.16,0-11.249-1.12-15.26-3.36
			c-4.016-2.24-7.048-5.272-9.1-9.1c-2.056-3.824-3.268-8.164-3.64-13.02c-5.417,8.028-12.417,14.28-21,18.76
			C1286.523,280.865,1276.443,283.105,1264.872,283.105z M1278.872,260.986c5.972,0,11.664-1.352,17.08-4.06
			c5.412-2.704,9.892-6.764,13.44-12.18c3.544-5.412,5.32-12.224,5.32-20.44v-10.92c-13.068,0-24.268,0.7-33.6,2.1
			c-9.336,1.4-16.428,3.968-21.28,7.7c-4.856,3.736-7.28,9.336-7.28,16.8c0,7.468,2.24,12.836,6.72,16.1
			C1263.751,259.354,1270.284,260.986,1278.872,260.986z"/>
		<path d="M1395.909,330.986v-193.76h24.92l4.2,19.32c4.48-6.72,10.36-12.084,17.64-16.1c7.28-4.012,15.771-6.02,25.48-6.02
			c10.824,0,20.624,2.38,29.4,7.14c8.772,4.76,15.772,12.417,21,22.96c5.224,10.548,7.84,24.408,7.84,41.58v5.88
			c0,15.496-2.52,28.56-7.56,39.2c-5.04,10.64-11.808,18.62-20.3,23.94c-8.496,5.32-17.876,7.98-28.14,7.98
			c-10.08,0-18.62-1.916-25.62-5.74s-12.368-8.724-16.1-14.7v68.32H1395.909z M1460.869,260.426c5.972,0,11.34-1.54,16.1-4.62
			s8.492-7.652,11.2-13.72c2.704-6.063,4.06-13.58,4.06-22.54v-19.6c0-10.264-1.356-18.572-4.06-24.92
			c-2.708-6.344-6.44-11.012-11.2-14c-4.76-2.984-10.128-4.48-16.1-4.48c-5.788,0-11.156,1.448-16.1,4.34
			c-4.948,2.896-8.916,7.468-11.9,13.72c-2.988,6.256-4.48,14.608-4.48,25.06v19.88c0,9.148,1.444,16.756,4.34,22.82
			c2.892,6.068,6.812,10.596,11.76,13.58C1449.433,258.933,1454.893,260.426,1460.869,260.426z"/>
		<path d="M1621.025,283.105c-13.068,0-24.548-2.756-34.44-8.26c-9.896-5.504-17.596-13.58-23.1-24.22
			c-5.508-10.64-8.26-23.52-8.26-38.64v-6.44c0-15.12,2.94-28,8.82-38.64s13.904-18.712,24.08-24.22
			c10.172-5.503,21.792-8.26,34.86-8.26h3.64c12.132,0,22.771,2.476,31.92,7.42c9.144,4.948,16.24,11.996,21.28,21.14
			c5.04,9.148,7.56,19.88,7.56,32.2v17.64h-98.28c0,9.896,1.304,18.48,3.92,25.76c2.612,7.28,6.484,12.836,11.62,16.66
			c5.132,3.828,11.523,5.74,19.18,5.74c6.344,0,11.992-1.26,16.94-3.78c4.944-2.52,8.864-6.3,11.76-11.34
			c2.892-5.04,4.34-11.292,4.34-18.76h30.52c0,11.2-2.8,21-8.4,29.4c-5.6,8.4-13.16,14.936-22.68,19.6c-9.52,4.664-20.348,7-32.48,7
			H1621.025z M1589.385,194.906h66.08c0-13.064-2.848-22.724-8.54-28.98c-5.696-6.252-13.488-9.38-23.38-9.38
			c-9.336,0-17.22,3.22-23.66,9.66S1589.945,182.214,1589.385,194.906z"/>
		<path d="M1776.142,283.105c-10.828,0-20.72-2.616-29.68-7.84c-8.96-5.224-16.148-13.344-21.56-24.36
			c-5.417-11.012-8.12-25.104-8.12-42.28v-3.08c0-15.68,2.563-28.792,7.7-39.34c5.132-10.543,11.944-18.48,20.44-23.8
			c8.492-5.32,17.872-7.98,28.14-7.98c10.08,0,18.664,1.916,25.76,5.74c7.092,3.828,12.503,8.728,16.24,14.7v-76.16h32.48v201.6
			h-25.2l-3.92-19.32c-4.668,6.72-10.457,12.088-17.36,16.1C1794.154,281.097,1785.846,283.105,1776.142,283.105z M1782.582,260.986
			c5.972,0,11.384-1.444,16.24-4.34c4.852-2.892,8.772-7.512,11.76-13.86c2.984-6.344,4.48-14.652,4.48-24.92v-19.88
			c0-9.144-1.448-16.752-4.34-22.82c-2.896-6.063-6.816-10.592-11.76-13.58c-4.948-2.983-10.408-4.48-16.38-4.48
			c-8.96,0-16.476,3.408-22.54,10.22c-6.068,6.816-9.1,17.036-9.1,30.66v19.6c0,10.269,1.4,18.577,4.2,24.92
			c2.8,6.348,6.58,11.016,11.34,14C1771.242,259.493,1776.606,260.986,1782.582,260.986z"/>
		<path d="M1953.937,280.305V88.225h34.72v80.08h77.56v-80.08h34.72v192.08h-34.439v-84h-77.561v84H1953.937z"/>
		<path d="M2202.857,283.105c-13.068,0-24.548-2.756-34.439-8.26c-9.896-5.504-17.597-13.58-23.101-24.22
			c-5.508-10.64-8.26-23.52-8.26-38.64v-6.44c0-15.12,2.94-28,8.82-38.64s13.903-18.712,24.08-24.22
			c10.172-5.503,21.791-8.26,34.859-8.26h3.641c12.132,0,22.771,2.476,31.92,7.42c9.144,4.948,16.239,11.996,21.279,21.14
			c5.04,9.148,7.561,19.88,7.561,32.2v17.64h-98.28c0,9.896,1.304,18.48,3.92,25.76c2.612,7.28,6.484,12.836,11.62,16.66
			c5.132,3.828,11.523,5.74,19.18,5.74c6.344,0,11.992-1.26,16.94-3.78c4.943-2.52,8.863-6.3,11.76-11.34
			c2.892-5.04,4.34-11.292,4.34-18.76h30.521c0,11.2-2.8,21-8.4,29.4c-5.6,8.4-13.16,14.936-22.68,19.6
			c-9.521,4.664-20.349,7-32.48,7H2202.857z M2171.218,194.906h66.08c0-13.064-2.849-22.724-8.54-28.98
			c-5.696-6.252-13.488-9.38-23.38-9.38c-9.337,0-17.221,3.22-23.66,9.66C2175.277,172.645,2171.777,182.214,2171.218,194.906z"/>
		<path d="M2342.015,283.105c-7.656,0-14.979-1.216-21.979-3.64s-12.74-6.58-17.221-12.46c-4.479-5.88-6.72-13.86-6.72-23.94
			c0-10.264,2.284-18.572,6.86-24.92c4.571-6.344,11.06-11.2,19.46-14.56c8.399-3.36,18.479-5.644,30.239-6.86
			c11.761-1.212,24.824-1.82,39.2-1.82v-13.44c0-9.332-2.38-15.912-7.14-19.74c-4.76-3.824-11.996-5.74-21.7-5.74
			c-8.028,0-15.12,1.776-21.28,5.32c-6.16,3.548-9.239,9.148-9.239,16.8v2.8h-31.36c-0.188-0.744-0.28-1.632-0.28-2.66
			c0-1.024,0-2.004,0-2.94c0-8.212,2.563-15.4,7.7-21.56c5.132-6.16,12.271-10.92,21.42-14.28c9.144-3.36,19.6-5.04,31.36-5.04h4.76
			c19.412,0,33.88,3.828,43.4,11.48c9.52,7.656,14.279,18.388,14.279,32.2v73.08c0,3.548,0.84,6.068,2.521,7.56
			c1.68,1.496,3.544,2.24,5.6,2.24c1.864,0,3.872-0.372,6.021-1.12c2.144-0.744,4.151-1.584,6.02-2.52v19.88
			c-2.428,1.868-5.508,3.312-9.24,4.34c-3.736,1.024-8.216,1.54-13.439,1.54c-6.16,0-11.248-1.12-15.26-3.36
			c-4.017-2.24-7.049-5.272-9.101-9.1c-2.056-3.824-3.268-8.164-3.64-13.02c-5.416,8.028-12.416,14.28-21,18.76
			C2363.667,280.865,2353.587,283.105,2342.015,283.105z M2356.015,260.986c5.972,0,11.664-1.352,17.08-4.06
			c5.412-2.704,9.892-6.764,13.44-12.18c3.543-5.412,5.319-12.224,5.319-20.44v-10.92c-13.068,0-24.268,0.7-33.6,2.1
			c-9.337,1.4-16.429,3.968-21.28,7.7c-4.856,3.736-7.28,9.336-7.28,16.8c0,7.468,2.24,12.836,6.721,16.1
			C2340.895,259.354,2347.427,260.986,2356.015,260.986z"/>
		<path d="M2526.531,283.105c-10.828,0-20.72-2.616-29.68-7.84s-16.148-13.344-21.561-24.36c-5.416-11.012-8.12-25.104-8.12-42.28
			v-3.08c0-15.68,2.564-28.792,7.7-39.34c5.132-10.543,11.944-18.48,20.44-23.8c8.491-5.32,17.872-7.98,28.14-7.98
			c10.08,0,18.664,1.916,25.76,5.74c7.092,3.828,12.504,8.728,16.24,14.7v-76.16h32.48v201.6h-25.2l-3.92-19.32
			c-4.668,6.72-10.456,12.088-17.36,16.1C2544.543,281.097,2536.235,283.105,2526.531,283.105z M2532.972,260.986
			c5.972,0,11.384-1.444,16.239-4.34c4.853-2.892,8.772-7.512,11.761-13.86c2.983-6.344,4.479-14.652,4.479-24.92v-19.88
			c0-9.144-1.448-16.752-4.34-22.82c-2.896-6.063-6.816-10.592-11.76-13.58c-4.948-2.983-10.408-4.48-16.38-4.48
			c-8.96,0-16.477,3.408-22.54,10.22c-6.068,6.816-9.101,17.036-9.101,30.66v19.6c0,10.269,1.4,18.577,4.2,24.92
			c2.8,6.348,6.58,11.016,11.34,14C2521.631,259.493,2526.995,260.986,2532.972,260.986z"/>
		<path d="M2704.326,280.305V88.225h29.12l74.76,112.28l10.641,17.92l1.12-0.28V88.225h31.359v192.08h-29.96l-77-115.92l-7.56-13.44
			l-1.12,0.28v129.08H2704.326z"/>
		<path d="M2952.965,283.105c-13.068,0-24.548-2.756-34.44-8.26c-9.896-5.504-17.596-13.58-23.1-24.22
			c-5.508-10.64-8.26-23.52-8.26-38.64v-6.44c0-15.12,2.939-28,8.819-38.64c5.881-10.64,13.904-18.712,24.08-24.22
			c10.172-5.503,21.792-8.26,34.86-8.26h3.64c12.132,0,22.772,2.476,31.92,7.42c9.145,4.948,16.24,11.996,21.28,21.14
			c5.04,9.148,7.561,19.88,7.561,32.2v17.64h-98.28c0,9.896,1.304,18.48,3.92,25.76c2.611,7.28,6.483,12.836,11.62,16.66
			c5.132,3.828,11.523,5.74,19.18,5.74c6.344,0,11.992-1.26,16.94-3.78c4.943-2.52,8.863-6.3,11.76-11.34
			c2.892-5.04,4.34-11.292,4.34-18.76h30.521c0,11.2-2.801,21-8.4,29.4c-5.6,8.4-13.16,14.936-22.68,19.6
			c-9.521,4.664-20.349,7-32.48,7H2952.965z M2921.325,194.906h66.079c0-13.064-2.848-22.724-8.539-28.98
			c-5.696-6.252-13.488-9.38-23.381-9.38c-9.336,0-17.22,3.22-23.659,9.66C2925.385,172.645,2921.885,182.214,2921.325,194.906z"/>
		<path d="M3099.682,283.105c-7.468,0-14.14-1.12-20.02-3.36c-5.88-2.24-10.456-5.924-13.72-11.06c-3.269-5.132-4.9-11.9-4.9-20.3
			v-86.24h-15.68v-24.92h16.52l11.48-45.64h20.16v45.64h33.319v24.92h-33.319v79.8c0,8.216,1.68,13.44,5.04,15.68
			c3.359,2.24,7,3.36,10.92,3.36c2.052,0,4.899-0.464,8.54-1.4c3.64-0.932,6.58-1.864,8.819-2.8v21c-2.239,1.12-4.948,2.1-8.12,2.94
			c-3.176,0.84-6.439,1.444-9.8,1.82C3105.562,282.917,3102.482,283.105,3099.682,283.105z"/>
		<path d="M3190.68,280.305l-45.64-143.08h33.88l29.68,97.16h1.4l30.24-97.16h33.88l30.24,97.16h1.399l29.681-97.16h31.359
			l-45.64,143.08H3287l-30.24-95.76h-1.399l-29.96,95.76H3190.68z"/>
		<path d="M3453.038,283.105c-12.696,0-24.08-2.892-34.16-8.68c-10.08-5.784-17.968-14.092-23.66-24.92
			c-5.696-10.824-8.54-23.612-8.54-38.36v-4.76c0-14.932,2.844-27.764,8.54-38.5c5.692-10.732,13.532-18.992,23.521-24.78
			c9.983-5.784,21.323-8.68,34.02-8.68h4.48c12.88,0,24.312,2.896,34.3,8.68c9.983,5.788,17.824,14.048,23.521,24.78
			c5.691,10.736,8.54,23.568,8.54,38.5v4.76c0,14.748-2.849,27.537-8.54,38.36c-5.696,10.828-13.537,19.136-23.521,24.92
			c-9.988,5.788-21.328,8.68-34.02,8.68H3453.038z M3454.998,260.986c6.532,0,12.364-1.54,17.5-4.62
			c5.132-3.08,9.24-7.7,12.32-13.86c3.08-6.16,4.62-13.624,4.62-22.4v-22.68c0-8.96-1.54-16.472-4.62-22.54
			c-3.08-6.064-7.188-10.64-12.32-13.72c-5.136-3.08-10.968-4.62-17.5-4.62c-6.348,0-12.088,1.54-17.22,4.62
			c-5.137,3.08-9.24,7.656-12.32,13.72c-3.08,6.068-4.62,13.58-4.62,22.54v22.68c0,8.776,1.54,16.24,4.62,22.4
			c3.08,6.16,7.184,10.78,12.32,13.86C3442.91,259.446,3448.65,260.986,3454.998,260.986z"/>
		<path d="M3558.874,280.305v-143.08h24.36l4.2,21c0.372-0.56,1.304-2.052,2.8-4.48c1.492-2.424,3.823-5.132,7-8.12
			c3.172-2.983,7.184-5.6,12.04-7.84c4.852-2.24,10.731-3.36,17.64-3.36c9.893,0,17.964,1.96,24.221,5.88
			c6.251,3.92,10.92,9.288,14,16.1c3.079,6.816,4.619,14.608,4.619,23.38c0,2.056-0.096,4.156-0.279,6.3
			c-0.188,2.148-0.377,3.968-0.561,5.46h-27.439v-5.6c0-3.92-0.748-7.932-2.24-12.04c-1.496-4.104-4.017-7.56-7.561-10.36
			c-3.548-2.8-8.496-4.2-14.84-4.2c-4.668,0-8.636,0.98-11.899,2.94c-3.269,1.96-5.929,4.436-7.98,7.42
			c-2.056,2.988-3.5,6.208-4.34,9.66c-0.84,3.456-1.26,6.676-1.26,9.66v91.28H3558.874z"/>
		<path d="M3697.19,280.305v-201.6h32.48v132.72l61.319-74.2h38.08l-56.279,65.8l59.08,77.28h-39.2l-42.28-55.16l-20.72,21.28v33.88
			H3697.19z"/>
	</g>
	<g>
		<path d="M2782.783,505.925v-59.04h9.513v22.632c1.529-2.077,3.402-3.649,5.616-4.715c2.215-1.066,4.578-1.599,7.094-1.599
			c2.788,0,5.261,0.547,7.421,1.64c2.159,1.094,3.866,2.693,5.125,4.797c1.257,2.105,1.886,4.688,1.886,7.749v28.536h-9.512v-26.814
			c0-3.116-0.738-5.343-2.214-6.683c-1.477-1.339-3.499-2.009-6.068-2.009c-1.695,0-3.253,0.424-4.674,1.271
			c-1.422,0.848-2.557,1.982-3.403,3.403c-0.848,1.422-1.271,3.034-1.271,4.838v25.994H2782.783z"/>
		<path d="M2835.756,521.177c-1.259,0-2.419-0.096-3.485-0.287c-1.066-0.192-2.064-0.479-2.993-0.861v-7.298
			c0.602,0.273,1.395,0.505,2.378,0.697c0.984,0.191,1.94,0.287,2.87,0.287c1.421,0,2.61-0.274,3.567-0.82
			c0.956-0.547,1.804-1.449,2.542-2.706c0.737-1.258,1.462-2.898,2.173-4.92l-16.4-41.246h10.25l10.742,29.438h0.492l10.414-29.438
			h9.43l-15.498,40.016c-1.203,3.17-2.529,6.054-3.977,8.651c-1.449,2.596-3.171,4.66-5.166,6.191
			C2841.099,520.411,2838.652,521.177,2835.756,521.177z"/>
		<path d="M2890.286,506.745c-3.171,0-6.068-0.766-8.692-2.296s-4.729-3.908-6.313-7.134c-1.587-3.225-2.378-7.352-2.378-12.382
			v-0.902c0-4.592,0.75-8.432,2.255-11.521c1.503-3.088,3.497-5.412,5.985-6.97c2.487-1.558,5.234-2.337,8.241-2.337
			c2.952,0,5.466,0.562,7.544,1.681c2.077,1.121,3.662,2.556,4.756,4.305v-22.304h9.513v59.04h-7.38l-1.148-5.658
			c-1.367,1.968-3.062,3.541-5.084,4.715C2895.561,506.157,2893.128,506.745,2890.286,506.745z M2892.172,500.267
			c1.749,0,3.334-0.423,4.756-1.271c1.421-0.847,2.569-2.2,3.444-4.059c0.874-1.858,1.312-4.291,1.312-7.298v-5.822
			c0-2.678-0.424-4.906-1.271-6.683c-0.849-1.776-1.996-3.102-3.444-3.977c-1.449-0.874-3.048-1.312-4.797-1.312
			c-2.624,0-4.825,0.998-6.601,2.993c-1.777,1.996-2.665,4.989-2.665,8.979v5.74c0,3.007,0.41,5.44,1.229,7.298
			c0.82,1.859,1.927,3.226,3.321,4.1C2888.851,499.83,2890.422,500.267,2892.172,500.267z"/>
		<path d="M2923.33,505.925v-41.902h7.135l1.229,6.15c0.109-0.164,0.382-0.601,0.82-1.312c0.437-0.71,1.119-1.503,2.05-2.378
			c0.929-0.874,2.104-1.64,3.526-2.296c1.421-0.656,3.143-0.984,5.166-0.984c2.896,0,5.261,0.574,7.093,1.722
			c1.831,1.148,3.198,2.72,4.1,4.715c0.902,1.997,1.354,4.278,1.354,6.847c0,0.602-0.028,1.217-0.082,1.845
			c-0.056,0.629-0.11,1.162-0.164,1.599h-8.036v-1.64c0-1.148-0.219-2.323-0.656-3.526c-0.438-1.202-1.176-2.214-2.214-3.034
			c-1.039-0.82-2.488-1.23-4.346-1.23c-1.367,0-2.529,0.287-3.485,0.861c-0.957,0.574-1.736,1.299-2.337,2.173
			c-0.603,0.875-1.025,1.818-1.271,2.829c-0.246,1.012-0.369,1.955-0.369,2.829v26.732H2923.33z"/>
		<path d="M2974.744,506.745c-2.242,0-4.388-0.356-6.438-1.066s-3.73-1.927-5.043-3.649c-1.312-1.722-1.968-4.059-1.968-7.011
			c0-3.006,0.669-5.439,2.009-7.298c1.339-1.858,3.239-3.28,5.699-4.264c2.46-0.984,5.412-1.653,8.855-2.009
			c3.444-0.355,7.271-0.533,11.48-0.533v-3.936c0-2.733-0.697-4.66-2.091-5.781c-1.395-1.12-3.514-1.681-6.355-1.681
			c-2.351,0-4.428,0.521-6.231,1.558c-1.805,1.039-2.706,2.679-2.706,4.92v0.82h-9.185c-0.055-0.218-0.082-0.478-0.082-0.779
			c0-0.3,0-0.586,0-0.861c0-2.405,0.751-4.51,2.255-6.314c1.503-1.804,3.595-3.198,6.273-4.182c2.678-0.984,5.74-1.476,9.184-1.476
			h1.395c5.685,0,9.922,1.121,12.71,3.362c2.788,2.242,4.182,5.385,4.182,9.43v21.402c0,1.039,0.246,1.777,0.738,2.214
			c0.492,0.438,1.038,0.656,1.64,0.656c0.546,0,1.134-0.109,1.764-0.328c0.628-0.218,1.216-0.464,1.763-0.738v5.822
			c-0.711,0.547-1.613,0.97-2.706,1.271c-1.094,0.3-2.406,0.451-3.936,0.451c-1.805,0-3.295-0.328-4.47-0.984
			c-1.176-0.656-2.063-1.544-2.665-2.665c-0.602-1.12-0.957-2.391-1.065-3.813c-1.586,2.351-3.637,4.182-6.15,5.494
			C2981.085,506.089,2978.133,506.745,2974.744,506.745z M2978.844,500.267c1.749,0,3.416-0.396,5.002-1.189
			c1.585-0.792,2.897-1.98,3.937-3.567c1.037-1.585,1.558-3.58,1.558-5.986v-3.198c-3.827,0-7.107,0.205-9.84,0.615
			c-2.734,0.41-4.812,1.162-6.232,2.255c-1.422,1.094-2.132,2.734-2.132,4.92c0,2.187,0.656,3.759,1.968,4.715
			C2974.416,499.789,2976.329,500.267,2978.844,500.267z"/>
		<path d="M3012.053,487.967v-8.528h20.828v8.528H3012.053z"/>
		<path d="M3043.868,505.925v-41.902h6.971l1.229,6.15c1.585-2.296,3.554-4.031,5.904-5.207c2.35-1.175,4.974-1.763,7.872-1.763
			c2.896,0,5.438,0.547,7.626,1.64c2.186,1.094,3.896,2.693,5.125,4.797c1.23,2.105,1.845,4.688,1.845,7.749v28.536h-9.512v-26.814
			c0-3.116-0.726-5.343-2.173-6.683c-1.449-1.339-3.458-2.009-6.027-2.009c-1.695,0-3.253,0.424-4.674,1.271
			c-1.422,0.848-2.556,1.982-3.403,3.403c-0.848,1.422-1.271,3.034-1.271,4.838v25.994H3043.868z"/>
		<path d="M3110.37,506.745c-3.719,0-7.052-0.847-10.004-2.542c-2.952-1.694-5.263-4.127-6.93-7.298
			c-1.668-3.17-2.501-6.915-2.501-11.234v-1.394c0-4.373,0.833-8.131,2.501-11.275c1.667-3.143,3.963-5.562,6.889-7.257
			c2.924-1.694,6.244-2.542,9.963-2.542h1.312c3.772,0,7.12,0.848,10.045,2.542c2.924,1.695,5.22,4.114,6.889,7.257
			c1.667,3.144,2.501,6.902,2.501,11.275v1.394c0,4.319-0.834,8.064-2.501,11.234c-1.669,3.171-3.965,5.604-6.889,7.298
			c-2.925,1.695-6.246,2.542-9.963,2.542H3110.37z M3110.944,500.267c1.912,0,3.62-0.451,5.125-1.353
			c1.503-0.902,2.705-2.255,3.607-4.059c0.902-1.804,1.354-3.99,1.354-6.56v-6.642c0-2.624-0.451-4.824-1.354-6.601
			c-0.902-1.776-2.104-3.116-3.607-4.018c-1.505-0.902-3.213-1.353-5.125-1.353c-1.859,0-3.541,0.451-5.044,1.353
			c-1.504,0.902-2.705,2.242-3.607,4.018c-0.902,1.777-1.354,3.977-1.354,6.601v6.642c0,2.57,0.451,4.756,1.354,6.56
			c0.902,1.804,2.104,3.157,3.607,4.059C3107.403,499.816,3109.085,500.267,3110.944,500.267z"/>
		<path d="M3156.945,506.745c-3.172,0-6.068-0.766-8.692-2.296s-4.729-3.908-6.314-7.134c-1.586-3.225-2.378-7.352-2.378-12.382
			v-0.902c0-4.592,0.751-8.432,2.255-11.521c1.503-3.088,3.498-5.412,5.986-6.97c2.487-1.558,5.234-2.337,8.241-2.337
			c2.952,0,5.466,0.562,7.544,1.681c2.077,1.121,3.662,2.556,4.756,4.305v-22.304h9.512v59.04h-7.38l-1.147-5.658
			c-1.367,1.968-3.062,3.541-5.084,4.715C3162.22,506.157,3159.787,506.745,3156.945,506.745z M3158.831,500.267
			c1.749,0,3.334-0.423,4.756-1.271c1.421-0.847,2.569-2.2,3.444-4.059c0.873-1.858,1.312-4.291,1.312-7.298v-5.822
			c0-2.678-0.424-4.906-1.271-6.683c-0.849-1.776-1.996-3.102-3.444-3.977c-1.449-0.874-3.048-1.312-4.797-1.312
			c-2.624,0-4.825,0.998-6.602,2.993c-1.776,1.996-2.665,4.989-2.665,8.979v5.74c0,3.007,0.41,5.44,1.23,7.298
			c0.82,1.859,1.927,3.226,3.321,4.1C3155.51,499.83,3157.081,500.267,3158.831,500.267z"/>
		<path d="M3207.374,506.745c-3.827,0-7.189-0.807-10.086-2.419c-2.898-1.612-5.153-3.977-6.766-7.093
			c-1.612-3.116-2.419-6.888-2.419-11.316v-1.886c0-4.428,0.861-8.2,2.583-11.316c1.723-3.116,4.072-5.48,7.053-7.093
			c2.979-1.612,6.382-2.419,10.209-2.419h1.065c3.553,0,6.669,0.726,9.349,2.173c2.678,1.449,4.756,3.513,6.231,6.191
			c1.477,2.679,2.214,5.822,2.214,9.43v5.166h-28.782c0,2.898,0.382,5.412,1.148,7.544c0.765,2.132,1.898,3.759,3.403,4.879
			c1.503,1.121,3.375,1.681,5.617,1.681c1.857,0,3.512-0.369,4.961-1.107c1.447-0.738,2.596-1.845,3.443-3.321
			c0.847-1.476,1.271-3.307,1.271-5.494h8.938c0,3.28-0.819,6.15-2.46,8.61c-1.64,2.46-3.854,4.375-6.642,5.74
			s-5.959,2.05-9.512,2.05H3207.374z M3198.107,480.915h19.353c0-3.826-0.834-6.655-2.501-8.487
			c-1.668-1.831-3.95-2.747-6.847-2.747c-2.734,0-5.043,0.943-6.93,2.829C3199.297,474.396,3198.271,477.198,3198.107,480.915z"/>
	</g>
	<path style="fill:#FFFFFF;stroke:#000000;stroke-width:6;stroke-miterlimit:10;" d="M2672.143,560.179h-114c-9.9,0-18-8.1-18-18
		v-114c0-9.9,8.1-18,18-18h114c9.9,0,18,8.1,18,18v114C2690.143,552.079,2682.043,560.179,2672.143,560.179z"/>
	<g>
		<path d="M978.616,505.925v-56.252h10.168v23.452h22.714v-23.452h10.168v56.252h-10.086v-24.6h-22.714v24.6H978.616z"/>
		<path d="M1045.364,506.745c-2.242,0-4.387-0.356-6.437-1.066c-2.05-0.71-3.731-1.927-5.043-3.649s-1.968-4.059-1.968-7.011
			c0-3.006,0.669-5.439,2.009-7.298c1.339-1.858,3.239-3.28,5.699-4.264c2.46-0.984,5.412-1.653,8.856-2.009
			c3.444-0.355,7.27-0.533,11.48-0.533v-3.936c0-2.733-0.697-4.66-2.091-5.781c-1.394-1.12-3.513-1.681-6.355-1.681
			c-2.351,0-4.428,0.521-6.232,1.558c-1.804,1.039-2.706,2.679-2.706,4.92v0.82h-9.184c-0.055-0.218-0.082-0.478-0.082-0.779
			c0-0.3,0-0.586,0-0.861c0-2.405,0.751-4.51,2.255-6.314c1.503-1.804,3.594-3.198,6.273-4.182c2.678-0.984,5.74-1.476,9.184-1.476
			h1.394c5.685,0,9.922,1.121,12.71,3.362c2.788,2.242,4.182,5.385,4.182,9.43v21.402c0,1.039,0.246,1.777,0.738,2.214
			c0.492,0.438,1.038,0.656,1.64,0.656c0.546,0,1.134-0.109,1.763-0.328c0.628-0.218,1.216-0.464,1.763-0.738v5.822
			c-0.711,0.547-1.613,0.97-2.706,1.271c-1.094,0.3-2.406,0.451-3.936,0.451c-1.804,0-3.294-0.328-4.469-0.984
			c-1.176-0.656-2.064-1.544-2.665-2.665c-0.602-1.12-0.957-2.391-1.066-3.813c-1.586,2.351-3.636,4.182-6.15,5.494
			C1051.705,506.089,1048.753,506.745,1045.364,506.745z M1049.464,500.267c1.749,0,3.416-0.396,5.002-1.189
			c1.585-0.792,2.897-1.98,3.936-3.567c1.038-1.585,1.558-3.58,1.558-5.986v-3.198c-3.827,0-7.107,0.205-9.84,0.615
			c-2.734,0.41-4.811,1.162-6.232,2.255c-1.422,1.094-2.132,2.734-2.132,4.92c0,2.187,0.656,3.759,1.968,4.715
			C1045.036,499.789,1046.949,500.267,1049.464,500.267z"/>
		<path d="M1098.582,506.745c-2.788,0-5.248-0.342-7.38-1.025c-2.132-0.683-3.936-1.599-5.412-2.747s-2.597-2.46-3.362-3.936
			c-0.766-1.476-1.148-3.006-1.148-4.592c0-0.328,0-0.601,0-0.82c0-0.218,0.027-0.519,0.082-0.902h8.2
			c-0.055,0.164-0.082,0.315-0.082,0.451c0,0.137,0,0.26,0,0.369c0,1.531,0.492,2.788,1.476,3.772
			c0.984,0.984,2.282,1.722,3.895,2.214c1.612,0.492,3.403,0.738,5.371,0.738c1.64,0,3.198-0.218,4.674-0.656
			c1.476-0.437,2.678-1.079,3.608-1.927c0.929-0.847,1.394-1.898,1.394-3.157c0-1.421-0.492-2.514-1.476-3.28
			c-0.984-0.765-2.283-1.366-3.895-1.804c-1.613-0.437-3.39-0.82-5.33-1.148c-1.941-0.328-3.895-0.724-5.863-1.189
			c-1.968-0.464-3.759-1.12-5.371-1.968c-1.613-0.847-2.911-2.009-3.895-3.485s-1.476-3.416-1.476-5.822
			c0-1.968,0.437-3.744,1.312-5.33c0.874-1.585,2.104-2.911,3.69-3.977c1.585-1.066,3.444-1.886,5.576-2.46
			c2.132-0.574,4.428-0.861,6.888-0.861h1.312c2.296,0,4.44,0.301,6.437,0.902c1.995,0.602,3.731,1.422,5.207,2.46
			c1.476,1.039,2.624,2.242,3.444,3.608c0.82,1.367,1.23,2.816,1.23,4.346c0,0.274-0.014,0.574-0.041,0.902
			c-0.028,0.328-0.041,0.547-0.041,0.656h-8.282v-0.82c0-0.546-0.137-1.134-0.41-1.763c-0.274-0.627-0.766-1.23-1.476-1.804
			c-0.711-0.574-1.654-1.052-2.829-1.435c-1.176-0.382-2.665-0.574-4.469-0.574c-1.64,0-3.034,0.164-4.182,0.492
			s-2.078,0.752-2.788,1.271c-0.711,0.52-1.217,1.08-1.517,1.681c-0.301,0.602-0.451,1.176-0.451,1.722
			c0,1.258,0.492,2.242,1.476,2.952c0.984,0.711,2.296,1.271,3.936,1.681c1.64,0.41,3.444,0.766,5.412,1.066
			c1.968,0.301,3.922,0.684,5.863,1.148c1.94,0.465,3.731,1.135,5.371,2.009c1.64,0.875,2.952,2.05,3.936,3.526
			c0.984,1.476,1.476,3.417,1.476,5.822c0,2.515-0.479,4.661-1.435,6.437c-0.957,1.777-2.283,3.185-3.977,4.223
			c-1.695,1.039-3.622,1.804-5.781,2.296c-2.16,0.492-4.442,0.738-6.847,0.738H1098.582z"/>
		<path d="M1128.511,505.925v-59.04h9.512v22.632c1.53-2.077,3.403-3.649,5.617-4.715c2.214-1.066,4.578-1.599,7.093-1.599
			c2.788,0,5.261,0.547,7.421,1.64c2.159,1.094,3.867,2.693,5.125,4.797c1.257,2.105,1.886,4.688,1.886,7.749v28.536h-9.512v-26.814
			c0-3.116-0.738-5.343-2.214-6.683c-1.476-1.339-3.499-2.009-6.068-2.009c-1.695,0-3.253,0.424-4.674,1.271
			c-1.422,0.848-2.556,1.982-3.403,3.403c-0.848,1.422-1.271,3.034-1.271,4.838v25.994H1128.511z"/>
		<path d="M1208.214,505.925v-48.38h-16.81v-7.872h43.788v7.872h-16.81v48.38H1208.214z"/>
		<path d="M1242.244,454.593v-7.708h10.004v7.708H1242.244z M1242.49,505.925v-41.902h9.512v41.902H1242.49z"/>
		<path d="M1264.711,505.925v-41.902h7.134l1.312,6.15c1.421-2.186,3.116-3.895,5.084-5.125c1.969-1.23,4.291-1.845,6.971-1.845
			c2.732,0,5.166,0.533,7.298,1.599s3.799,2.802,5.002,5.207c1.257-2.077,2.938-3.731,5.043-4.961
			c2.104-1.23,4.604-1.845,7.503-1.845c2.678,0,5.056,0.547,7.134,1.64c2.077,1.094,3.703,2.693,4.879,4.797
			c1.175,2.105,1.764,4.688,1.764,7.749v28.536h-9.513v-26.486c0-3.17-0.629-5.453-1.886-6.847
			c-1.258-1.394-3.062-2.091-5.412-2.091c-1.531,0-2.898,0.397-4.1,1.189c-1.203,0.793-2.146,1.9-2.829,3.321
			c-0.685,1.422-1.025,3.034-1.025,4.838v26.076h-9.512v-26.486c0-3.17-0.644-5.453-1.927-6.847
			c-1.285-1.394-3.104-2.091-5.453-2.091c-1.531,0-2.898,0.397-4.101,1.189c-1.203,0.793-2.146,1.9-2.828,3.321
			c-0.685,1.422-1.025,3.034-1.025,4.838v26.076H1264.711z"/>
		<path d="M1353.516,506.745c-3.827,0-7.189-0.807-10.086-2.419c-2.898-1.612-5.153-3.977-6.766-7.093
			c-1.612-3.116-2.419-6.888-2.419-11.316v-1.886c0-4.428,0.861-8.2,2.583-11.316c1.723-3.116,4.072-5.48,7.053-7.093
			c2.979-1.612,6.382-2.419,10.209-2.419h1.065c3.553,0,6.669,0.726,9.349,2.173c2.678,1.449,4.756,3.513,6.231,6.191
			c1.477,2.679,2.214,5.822,2.214,9.43v5.166h-28.782c0,2.898,0.382,5.412,1.148,7.544c0.765,2.132,1.898,3.759,3.403,4.879
			c1.503,1.121,3.375,1.681,5.617,1.681c1.857,0,3.512-0.369,4.961-1.107c1.447-0.738,2.596-1.845,3.443-3.321
			c0.847-1.476,1.271-3.307,1.271-5.494h8.938c0,3.28-0.819,6.15-2.46,8.61c-1.64,2.46-3.854,4.375-6.642,5.74
			s-5.959,2.05-9.512,2.05H1353.516z M1344.25,480.915h19.353c0-3.826-0.834-6.655-2.501-8.487c-1.668-1.831-3.95-2.747-6.847-2.747
			c-2.734,0-5.043,0.943-6.93,2.829C1345.439,474.396,1344.414,477.198,1344.25,480.915z"/>
		<path d="M1402.386,505.925v-56.252h10.168v48.38h24.601l1.229,7.872H1402.386z"/>
		<path d="M1463.067,506.745c-3.719,0-7.052-0.847-10.004-2.542c-2.952-1.694-5.263-4.127-6.93-7.298
			c-1.668-3.17-2.501-6.915-2.501-11.234v-1.394c0-4.373,0.833-8.131,2.501-11.275c1.667-3.143,3.963-5.562,6.889-7.257
			c2.924-1.694,6.244-2.542,9.963-2.542h1.312c3.772,0,7.12,0.848,10.045,2.542c2.924,1.695,5.22,4.114,6.889,7.257
			c1.667,3.144,2.501,6.902,2.501,11.275v1.394c0,4.319-0.834,8.064-2.501,11.234c-1.669,3.171-3.965,5.604-6.889,7.298
			c-2.925,1.695-6.246,2.542-9.963,2.542H1463.067z M1463.641,500.267c1.912,0,3.62-0.451,5.125-1.353
			c1.503-0.902,2.705-2.255,3.607-4.059c0.902-1.804,1.354-3.99,1.354-6.56v-6.642c0-2.624-0.451-4.824-1.354-6.601
			c-0.902-1.776-2.104-3.116-3.607-4.018c-1.505-0.902-3.213-1.353-5.125-1.353c-1.859,0-3.541,0.451-5.044,1.353
			c-1.504,0.902-2.705,2.242-3.607,4.018c-0.902,1.777-1.354,3.977-1.354,6.601v6.642c0,2.57,0.451,4.756,1.354,6.56
			c0.902,1.804,2.104,3.157,3.607,4.059C1460.1,499.816,1461.782,500.267,1463.641,500.267z"/>
		<path d="M1510.625,506.745c-3.499,0-6.642-0.861-9.43-2.583c-2.788-1.722-4.976-4.141-6.561-7.257
			c-1.586-3.116-2.378-6.724-2.378-10.824v-2.214c0-3.116,0.492-5.931,1.477-8.446c0.983-2.514,2.337-4.687,4.059-6.519
			c1.723-1.831,3.731-3.239,6.027-4.223s4.756-1.476,7.38-1.476h1.229c3.554,0,6.643,0.711,9.267,2.132
			c2.624,1.422,4.66,3.417,6.108,5.986c1.448,2.57,2.174,5.631,2.174,9.184h-8.446c0-2.405-0.397-4.414-1.189-6.027
			c-0.793-1.612-1.886-2.815-3.279-3.608c-1.395-0.792-3.021-1.189-4.879-1.189c-2.844,0-5.207,0.957-7.094,2.87
			c-1.886,1.914-2.829,4.811-2.829,8.692v7.216c0,3.882,0.915,6.82,2.747,8.815c1.831,1.996,4.25,2.993,7.258,2.993
			c1.968,0,3.676-0.369,5.125-1.107c1.447-0.738,2.568-1.898,3.361-3.485c0.792-1.585,1.189-3.662,1.189-6.232h8.036
			c0,3.663-0.794,6.793-2.378,9.389c-1.587,2.597-3.745,4.565-6.479,5.904c-2.734,1.339-5.822,2.009-9.266,2.009H1510.625z"/>
		<path d="M1539.735,505.925v-59.04h9.512v38.868l17.958-21.73h11.152l-16.482,19.27l17.302,22.632h-11.479l-12.382-16.154
			l-6.068,6.232v9.922H1539.735z"/>
		<path d="M1602.628,506.745c-3.827,0-7.189-0.807-10.086-2.419c-2.898-1.612-5.153-3.977-6.766-7.093
			c-1.612-3.116-2.419-6.888-2.419-11.316v-1.886c0-4.428,0.861-8.2,2.583-11.316c1.723-3.116,4.072-5.48,7.053-7.093
			c2.979-1.612,6.382-2.419,10.209-2.419h1.065c3.553,0,6.669,0.726,9.349,2.173c2.678,1.449,4.756,3.513,6.231,6.191
			c1.477,2.679,2.214,5.822,2.214,9.43v5.166h-28.782c0,2.898,0.382,5.412,1.148,7.544c0.765,2.132,1.898,3.759,3.403,4.879
			c1.503,1.121,3.375,1.681,5.617,1.681c1.857,0,3.512-0.369,4.961-1.107c1.447-0.738,2.596-1.845,3.443-3.321
			c0.847-1.476,1.271-3.307,1.271-5.494h8.938c0,3.28-0.819,6.15-2.46,8.61c-1.64,2.46-3.854,4.375-6.642,5.74
			s-5.959,2.05-9.512,2.05H1602.628z M1593.362,480.915h19.353c0-3.826-0.834-6.655-2.501-8.487
			c-1.668-1.831-3.95-2.747-6.847-2.747c-2.734,0-5.043,0.943-6.93,2.829C1594.551,474.396,1593.526,477.198,1593.362,480.915z"/>
		<path d="M1648.056,506.745c-3.172,0-6.068-0.766-8.692-2.296s-4.729-3.908-6.314-7.134c-1.586-3.225-2.378-7.352-2.378-12.382
			v-0.902c0-4.592,0.751-8.432,2.255-11.521c1.503-3.088,3.498-5.412,5.986-6.97c2.487-1.558,5.234-2.337,8.241-2.337
			c2.952,0,5.466,0.562,7.544,1.681c2.077,1.121,3.662,2.556,4.756,4.305v-22.304h9.512v59.04h-7.38l-1.147-5.658
			c-1.367,1.968-3.062,3.541-5.084,4.715C1653.331,506.157,1650.898,506.745,1648.056,506.745z M1649.942,500.267
			c1.749,0,3.334-0.423,4.756-1.271c1.421-0.847,2.569-2.2,3.444-4.059c0.873-1.858,1.312-4.291,1.312-7.298v-5.822
			c0-2.678-0.424-4.906-1.271-6.683c-0.849-1.776-1.996-3.102-3.444-3.977c-1.449-0.874-3.048-1.312-4.797-1.312
			c-2.624,0-4.825,0.998-6.602,2.993c-1.776,1.996-2.665,4.989-2.665,8.979v5.74c0,3.007,0.41,5.44,1.23,7.298
			c0.82,1.859,1.927,3.226,3.321,4.1C1646.621,499.83,1648.192,500.267,1649.942,500.267z"/>
		<path d="M1721.116,506.745c-3.227,0-6.246-0.465-9.061-1.394c-2.816-0.929-5.276-2.432-7.38-4.51
			c-2.105-2.077-3.76-4.797-4.962-8.159c-1.203-3.362-1.804-7.475-1.804-12.341v-5.084c0-4.756,0.601-8.815,1.804-12.177
			c1.202-3.362,2.856-6.095,4.962-8.2c2.104-2.104,4.536-3.635,7.298-4.592c2.76-0.956,5.726-1.435,8.896-1.435h1.23
			c2.952,0,5.753,0.41,8.404,1.23c2.651,0.82,4.988,2.119,7.012,3.895c2.021,1.777,3.62,4.1,4.797,6.97
			c1.175,2.87,1.763,6.355,1.763,10.455h-9.594c0-3.881-0.562-6.874-1.681-8.979c-1.121-2.104-2.665-3.58-4.634-4.428
			c-1.968-0.847-4.21-1.271-6.724-1.271c-1.859,0-3.581,0.274-5.166,0.82c-1.586,0.547-2.952,1.449-4.1,2.706
			c-1.148,1.258-2.038,2.939-2.665,5.043c-0.63,2.105-0.943,4.715-0.943,7.831v9.348c0,4.155,0.546,7.421,1.64,9.799
			c1.093,2.378,2.61,4.073,4.552,5.084c1.939,1.012,4.168,1.517,6.683,1.517c2.678,0,5.015-0.423,7.011-1.271
			c1.995-0.847,3.553-2.323,4.674-4.428c1.12-2.104,1.682-5.07,1.682-8.897h9.266c0,3.936-0.574,7.326-1.722,10.168
			c-1.148,2.843-2.721,5.166-4.715,6.97c-1.996,1.804-4.306,3.144-6.93,4.018c-2.624,0.874-5.412,1.312-8.363,1.312H1721.116z"/>
		<path d="M1771.956,506.745c-3.719,0-7.052-0.847-10.004-2.542c-2.952-1.694-5.263-4.127-6.93-7.298
			c-1.668-3.17-2.501-6.915-2.501-11.234v-1.394c0-4.373,0.833-8.131,2.501-11.275c1.667-3.143,3.963-5.562,6.889-7.257
			c2.924-1.694,6.244-2.542,9.963-2.542h1.312c3.772,0,7.12,0.848,10.045,2.542c2.924,1.695,5.22,4.114,6.889,7.257
			c1.667,3.144,2.501,6.902,2.501,11.275v1.394c0,4.319-0.834,8.064-2.501,11.234c-1.669,3.171-3.965,5.604-6.889,7.298
			c-2.925,1.695-6.246,2.542-9.963,2.542H1771.956z M1772.53,500.267c1.912,0,3.62-0.451,5.125-1.353
			c1.503-0.902,2.705-2.255,3.607-4.059c0.902-1.804,1.354-3.99,1.354-6.56v-6.642c0-2.624-0.451-4.824-1.354-6.601
			c-0.902-1.776-2.104-3.116-3.607-4.018c-1.505-0.902-3.213-1.353-5.125-1.353c-1.859,0-3.541,0.451-5.044,1.353
			c-1.504,0.902-2.705,2.242-3.607,4.018c-0.902,1.777-1.354,3.977-1.354,6.601v6.642c0,2.57,0.451,4.756,1.354,6.56
			c0.902,1.804,2.104,3.157,3.607,4.059C1768.989,499.816,1770.67,500.267,1772.53,500.267z"/>
		<path d="M1802.951,505.925v-41.902h6.97l1.229,6.15c1.585-2.296,3.554-4.031,5.904-5.207c2.35-1.175,4.974-1.763,7.872-1.763
			c2.896,0,5.438,0.547,7.626,1.64c2.186,1.094,3.896,2.693,5.125,4.797c1.23,2.105,1.845,4.688,1.845,7.749v28.536h-9.512v-26.814
			c0-3.116-0.726-5.343-2.173-6.683c-1.449-1.339-3.458-2.009-6.027-2.009c-1.695,0-3.253,0.424-4.674,1.271
			c-1.422,0.848-2.556,1.982-3.403,3.403c-0.848,1.422-1.271,3.034-1.271,4.838v25.994H1802.951z"/>
		<path d="M1864.697,506.745c-2.188,0-4.142-0.328-5.863-0.984c-1.723-0.656-3.062-1.735-4.019-3.239
			c-0.957-1.503-1.435-3.485-1.435-5.945v-25.256h-4.592v-7.298h4.838l3.362-13.366h5.903v13.366h9.758v7.298h-9.758v23.37
			c0,2.406,0.492,3.936,1.477,4.592c0.983,0.656,2.05,0.984,3.197,0.984c0.602,0,1.436-0.136,2.501-0.41
			c1.066-0.273,1.928-0.546,2.583-0.82v6.15c-0.655,0.328-1.448,0.615-2.378,0.861s-1.886,0.423-2.87,0.533
			C1866.418,506.69,1865.516,506.745,1864.697,506.745z"/>
		<path d="M1882.572,505.925v-41.902h7.134l1.229,6.15c0.109-0.164,0.382-0.601,0.82-1.312c0.437-0.71,1.12-1.503,2.05-2.378
			c0.929-0.874,2.104-1.64,3.526-2.296c1.421-0.656,3.143-0.984,5.166-0.984c2.896,0,5.261,0.574,7.093,1.722
			c1.831,1.148,3.198,2.72,4.1,4.715c0.902,1.997,1.354,4.278,1.354,6.847c0,0.602-0.028,1.217-0.082,1.845
			c-0.055,0.629-0.11,1.162-0.164,1.599h-8.036v-1.64c0-1.148-0.219-2.323-0.656-3.526c-0.438-1.202-1.176-2.214-2.214-3.034
			c-1.039-0.82-2.488-1.23-4.346-1.23c-1.367,0-2.529,0.287-3.485,0.861c-0.957,0.574-1.735,1.299-2.337,2.173
			c-0.602,0.875-1.024,1.818-1.271,2.829c-0.246,1.012-0.369,1.955-0.369,2.829v26.732H1882.572z"/>
		<path d="M1933.985,506.745c-2.242,0-4.387-0.356-6.437-1.066s-3.731-1.927-5.043-3.649c-1.312-1.722-1.968-4.059-1.968-7.011
			c0-3.006,0.668-5.439,2.009-7.298c1.339-1.858,3.239-3.28,5.699-4.264c2.46-0.984,5.412-1.653,8.855-2.009
			c3.444-0.355,7.27-0.533,11.48-0.533v-3.936c0-2.733-0.697-4.66-2.092-5.781c-1.394-1.12-3.513-1.681-6.354-1.681
			c-2.352,0-4.428,0.521-6.232,1.558c-1.804,1.039-2.706,2.679-2.706,4.92v0.82h-9.184c-0.055-0.218-0.082-0.478-0.082-0.779
			c0-0.3,0-0.586,0-0.861c0-2.405,0.751-4.51,2.255-6.314c1.503-1.804,3.594-3.198,6.273-4.182c2.678-0.984,5.74-1.476,9.184-1.476
			h1.395c5.685,0,9.922,1.121,12.71,3.362c2.788,2.242,4.182,5.385,4.182,9.43v21.402c0,1.039,0.246,1.777,0.738,2.214
			c0.492,0.438,1.037,0.656,1.64,0.656c0.546,0,1.134-0.109,1.763-0.328c0.628-0.218,1.217-0.464,1.764-0.738v5.822
			c-0.711,0.547-1.613,0.97-2.706,1.271c-1.095,0.3-2.406,0.451-3.937,0.451c-1.804,0-3.294-0.328-4.469-0.984
			c-1.176-0.656-2.064-1.544-2.665-2.665c-0.603-1.12-0.957-2.391-1.065-3.813c-1.587,2.351-3.637,4.182-6.15,5.494
			C1940.326,506.089,1937.375,506.745,1933.985,506.745z M1938.085,500.267c1.749,0,3.416-0.396,5.002-1.189
			c1.585-0.792,2.896-1.98,3.936-3.567c1.038-1.585,1.559-3.58,1.559-5.986v-3.198c-3.827,0-7.107,0.205-9.84,0.615
			c-2.734,0.41-4.812,1.162-6.232,2.255c-1.422,1.094-2.132,2.734-2.132,4.92c0,2.187,0.656,3.759,1.968,4.715
			C1933.658,499.789,1935.57,500.267,1938.085,500.267z"/>
		<path d="M1989.006,506.745c-3.499,0-6.642-0.861-9.43-2.583c-2.788-1.722-4.976-4.141-6.561-7.257
			c-1.586-3.116-2.378-6.724-2.378-10.824v-2.214c0-3.116,0.492-5.931,1.477-8.446c0.983-2.514,2.337-4.687,4.059-6.519
			c1.723-1.831,3.731-3.239,6.027-4.223s4.756-1.476,7.38-1.476h1.229c3.554,0,6.643,0.711,9.267,2.132
			c2.625,1.422,4.661,3.417,6.109,5.986c1.448,2.57,2.174,5.631,2.174,9.184h-8.447c0-2.405-0.397-4.414-1.189-6.027
			c-0.793-1.612-1.886-2.815-3.279-3.608c-1.395-0.792-3.021-1.189-4.879-1.189c-2.844,0-5.207,0.957-7.094,2.87
			c-1.886,1.914-2.829,4.811-2.829,8.692v7.216c0,3.882,0.915,6.82,2.747,8.815c1.831,1.996,4.25,2.993,7.258,2.993
			c1.968,0,3.676-0.369,5.125-1.107c1.447-0.738,2.568-1.898,3.361-3.485c0.792-1.585,1.189-3.662,1.189-6.232h8.037
			c0,3.663-0.794,6.793-2.378,9.389c-1.587,2.597-3.745,4.565-6.479,5.904c-2.734,1.339-5.822,2.009-9.266,2.009H1989.006z"/>
		<path d="M2031.236,506.745c-2.188,0-4.142-0.328-5.863-0.984c-1.723-0.656-3.062-1.735-4.019-3.239
			c-0.957-1.503-1.435-3.485-1.435-5.945v-25.256h-4.592v-7.298h4.838l3.362-13.366h5.903v13.366h9.758v7.298h-9.758v23.37
			c0,2.406,0.492,3.936,1.477,4.592c0.983,0.656,2.05,0.984,3.197,0.984c0.602,0,1.436-0.136,2.501-0.41
			c1.066-0.273,1.928-0.546,2.583-0.82v6.15c-0.655,0.328-1.448,0.615-2.378,0.861s-1.886,0.423-2.87,0.533
			C2032.958,506.69,2032.056,506.745,2031.236,506.745z"/>
		<path d="M2077.564,518.799c-4.211-4.756-7.436-10.114-9.677-16.072c-2.242-5.958-3.361-12.136-3.361-18.532
			c0-6.341,1.119-12.491,3.361-18.45c2.241-5.958,5.466-11.316,9.677-16.072h5.248c-1.915,3.116-3.649,6.588-5.207,10.414
			c-1.559,3.827-2.788,7.79-3.69,11.89c-0.902,4.1-1.353,8.173-1.353,12.218c0,3.991,0.45,8.064,1.353,12.218
			c0.902,4.155,2.118,8.146,3.649,11.972c1.529,3.826,3.279,7.298,5.248,10.414H2077.564z"/>
		<path d="M2092.733,505.925v-56.252h10.168v23.452h22.714v-23.452h10.168v56.252h-10.086v-24.6h-22.714v24.6H2092.733z"/>
		<path d="M2161.531,505.925v-48.38h-16.811v-7.872h43.788v7.872h-16.81v48.38H2161.531z"/>
		<path d="M2197.445,505.925v-56.252h10.168v48.38h24.601l1.229,7.872H2197.445z"/>
		<path d="M2261.979,506.745c-3.227,0-6.246-0.465-9.061-1.394c-2.816-0.929-5.276-2.432-7.38-4.51
			c-2.105-2.077-3.76-4.797-4.962-8.159c-1.203-3.362-1.804-7.475-1.804-12.341v-5.084c0-4.756,0.601-8.815,1.804-12.177
			c1.202-3.362,2.856-6.095,4.962-8.2c2.104-2.104,4.536-3.635,7.298-4.592c2.76-0.956,5.726-1.435,8.896-1.435h1.23
			c2.952,0,5.753,0.41,8.404,1.23c2.651,0.82,4.988,2.119,7.012,3.895c2.021,1.777,3.62,4.1,4.797,6.97
			c1.175,2.87,1.763,6.355,1.763,10.455h-9.594c0-3.881-0.562-6.874-1.681-8.979c-1.121-2.104-2.665-3.58-4.634-4.428
			c-1.968-0.847-4.21-1.271-6.724-1.271c-1.859,0-3.581,0.274-5.166,0.82c-1.586,0.547-2.952,1.449-4.1,2.706
			c-1.148,1.258-2.038,2.939-2.665,5.043c-0.63,2.105-0.943,4.715-0.943,7.831v9.348c0,4.155,0.546,7.421,1.64,9.799
			c1.093,2.378,2.61,4.073,4.552,5.084c1.939,1.012,4.168,1.517,6.683,1.517c2.678,0,5.015-0.423,7.011-1.271
			c1.995-0.847,3.553-2.323,4.674-4.428c1.12-2.104,1.682-5.07,1.682-8.897h9.266c0,3.936-0.574,7.326-1.722,10.168
			c-1.148,2.843-2.721,5.166-4.715,6.97c-1.996,1.804-4.306,3.144-6.93,4.018c-2.624,0.874-5.412,1.312-8.363,1.312H2261.979z"/>
		<path d="M2291.007,518.799c1.968-3.116,3.731-6.588,5.289-10.414c1.559-3.826,2.774-7.817,3.649-11.972
			c0.874-4.154,1.312-8.227,1.312-12.218c0-4.045-0.451-8.118-1.353-12.218c-0.902-4.1-2.119-8.062-3.649-11.89
			c-1.531-3.826-3.28-7.298-5.248-10.414h5.248c4.209,4.756,7.434,10.114,9.676,16.072c2.241,5.959,3.362,12.109,3.362,18.45
			c0,6.396-1.121,12.574-3.362,18.532c-2.242,5.958-5.467,11.316-9.676,16.072H2291.007z"/>
	</g>
	<g>
		<g>
			<defs>
				<rect id="SVGID_1_" x="768.847" y="388.846" width="156.354" height="150"/>
			</defs>
			<clipPath id="SVGID_00000183214264689575690020000010258989669417857205_">
				<use xlink:href="#SVGID_1_"  style="overflow:visible;"/>
			</clipPath>
			<path style="clip-path:url(#SVGID_00000183214264689575690020000010258989669417857205_);" d="M926.808,445.161
				c-0.524-1.61-1.905-2.758-3.579-3.021l-49.916-7.094l-22.462-45.154c-0.755-1.511-2.299-2.463-3.974-2.463
				c-1.676,0-3.218,0.952-3.973,2.495l-22.167,45.285l-49.916,7.422c-1.674,0.263-3.053,1.413-3.579,3.021
				c-0.526,1.61-0.066,3.382,1.15,4.531l36.221,35.105l-8.373,49.719c-0.297,1.676,0.394,3.35,1.773,4.334
				c0.755,0.56,1.674,0.855,2.595,0.855c0.721,0,1.411-0.163,2.068-0.526l44.562-23.611l44.694,23.348
				c0.658,0.329,1.347,0.494,2.036,0.494c2.431,0,4.434-2.004,4.434-4.433c0-0.361-0.032-0.69-0.131-1.018l-8.636-49.422
				l35.991-35.302C926.907,448.543,927.333,446.77,926.808,445.161L926.808,445.161z"/>
		</g>
		<path style="fill:#FFFFFF;" d="M884.35,480.564c-1.129,1.093-1.621,2.677-1.34,4.229l8.068,46.26l-41.645-21.738
			c-1.375-0.74-3.03-0.706-4.44,0l-41.503,21.984l7.786-46.331c0.246-1.55-0.246-3.1-1.375-4.192l-33.681-32.697l46.472-6.906
			c1.55-0.246,2.888-1.197,3.558-2.606l20.646-42.174l20.93,42.068c0.704,1.411,2.042,2.36,3.592,2.608l46.508,6.623L884.35,480.564
			z"/>
	</g>
	<g>
		<g>
			<defs>
				
					<rect id="SVGID_00000127743724977908365770000009026635662605531026_" x="1342.761" y="1587.989" width="200" height="191.872"/>
			</defs>
			<clipPath id="SVGID_00000016782793278242112550000005585428775586581950_">
				<use xlink:href="#SVGID_00000127743724977908365770000009026635662605531026_"  style="overflow:visible;"/>
			</clipPath>
			<path style="clip-path:url(#SVGID_00000016782793278242112550000005585428775586581950_);" d="M1544.816,1660.025
				c-0.671-2.059-2.436-3.528-4.578-3.865l-63.85-9.074l-28.732-57.758c-0.966-1.932-2.941-3.151-5.083-3.151
				c-2.143,0-4.116,1.218-5.082,3.192l-28.354,57.926l-63.85,9.494c-2.141,0.337-3.905,1.807-4.578,3.865
				c-0.673,2.059-0.084,4.326,1.471,5.796l46.332,44.904l-10.711,63.598c-0.38,2.143,0.505,4.285,2.268,5.544
				c0.966,0.716,2.141,1.093,3.319,1.093c0.922,0,1.805-0.209,2.646-0.673l57.001-30.202l57.17,29.866
				c0.841,0.421,1.723,0.632,2.605,0.632c3.109,0,5.671-2.563,5.671-5.671c0-0.462-0.041-0.882-0.168-1.303l-11.047-63.218
				l46.038-45.156C1544.943,1664.35,1545.489,1662.082,1544.816,1660.025L1544.816,1660.025z"/>
		</g>
		<path style="fill:#8FD14F;" d="M1490.507,1705.31c-1.444,1.398-2.073,3.424-1.714,5.409l10.32,59.173l-53.27-27.806
			c-1.758-0.946-3.875-0.902-5.68,0l-53.089,28.121l9.96-59.264c0.314-1.982-0.315-3.965-1.758-5.362l-43.083-41.824l59.444-8.833
			c1.982-0.315,3.694-1.532,4.551-3.334l26.409-53.947l26.772,53.811c0.9,1.804,2.612,3.019,4.595,3.336l59.491,8.472
			L1490.507,1705.31z"/>
	</g>
	<g>
		<g>
			<defs>
				<rect id="SVGID_00000071542694080952743090000012686736482259327899_" x="2437.87" y="1843.988" width="200" height="191.872"/>
			</defs>
			<clipPath id="SVGID_00000163060680676367466970000018238132425448592259_">
				<use xlink:href="#SVGID_00000071542694080952743090000012686736482259327899_"  style="overflow:visible;"/>
			</clipPath>
			<path style="clip-path:url(#SVGID_00000163060680676367466970000018238132425448592259_);" d="M2639.925,1916.024
				c-0.67-2.059-2.436-3.528-4.578-3.865l-63.85-9.074l-28.731-57.758c-0.966-1.932-2.941-3.151-5.083-3.151
				c-2.144,0-4.116,1.218-5.082,3.191l-28.354,57.927l-63.85,9.494c-2.141,0.337-3.905,1.807-4.578,3.865
				c-0.673,2.059-0.084,4.326,1.471,5.796l46.332,44.904l-10.71,63.598c-0.38,2.143,0.505,4.285,2.268,5.544
				c0.966,0.716,2.141,1.093,3.319,1.093c0.923,0,1.805-0.209,2.646-0.673l57.001-30.202l57.17,29.866
				c0.841,0.421,1.723,0.632,2.605,0.632c3.11,0,5.671-2.563,5.671-5.671c0-0.462-0.041-0.882-0.168-1.303l-11.047-63.218
				l46.038-45.157C2640.052,1920.35,2640.598,1918.082,2639.925,1916.024L2639.925,1916.024z"/>
		</g>
		<path style="fill:#C68BFF;" d="M2585.616,1961.309c-1.444,1.398-2.073,3.424-1.714,5.409l10.321,59.173l-53.27-27.806
			c-1.758-0.946-3.875-0.902-5.68,0l-53.089,28.121l9.96-59.264c0.314-1.982-0.315-3.965-1.758-5.363l-43.083-41.824l59.444-8.833
			c1.982-0.315,3.695-1.532,4.551-3.334l26.409-53.947l26.772,53.811c0.9,1.804,2.612,3.019,4.595,3.336l59.49,8.472
			L2585.616,1961.309z"/>
	</g>
</g>
</svg>
