<?xml version="1.0" encoding="iso-8859-1"?>
<!-- Generator: Adobe Illustrator 29.6.0, SVG Export Plug-In . SVG Version: 9.03 Build 0)  -->
<svg version="1.1" id="Layer_1" xmlns="http://www.w3.org/2000/svg" xmlns:xlink="http://www.w3.org/1999/xlink" x="0px" y="0px"
	 viewBox="0 0 4000 2774" style="enable-background:new 0 0 4000 2774;" xml:space="preserve">
<line style="fill:none;stroke:#000000;stroke-width:12;stroke-miterlimit:10;" x1="1483.983" y1="2358.069" x2="2534.648" y2="2358.069"/>
<line style="stroke:#000000;stroke-width:12;stroke-miterlimit:10;" x1="3222.646" y1="2102.317" x2="2737.314" y2="411.653"/>
<line style="stroke:#000000;stroke-width:12;stroke-miterlimit:10;" x1="1262.442" y1="414.758" x2="777.11" y2="2105.421"/>
<path style="fill:#0033AD;" d="M2633.448,770.542h-1260c-66.274,0-120-53.726-120-120v-470c0-66.274,53.726-120,120-120h1260
	c66.274,0,120,53.726,120,120v470C2753.448,716.817,2699.722,770.542,2633.448,770.542z"/>
<g>
	<path style="fill:#FFFFFF;" d="M1724.014,467.742c-7.787,0-14.907-1.147-21.359-3.44c-6.455-2.292-11.628-5.893-15.521-10.8
		c-3.896-4.905-5.84-11.36-5.84-19.36c0-0.64,0-1.252,0-1.84c0-0.585,0.052-1.145,0.159-1.68h21.601
		c-0.107,0.535-0.16,1.015-0.16,1.44c0,0.428,0,0.908,0,1.44c0,3.415,0.825,6.348,2.479,8.8c1.653,2.455,4.105,4.32,7.361,5.6
		c3.252,1.28,7.119,1.92,11.6,1.92c5.012,0,9.119-0.505,12.32-1.52c3.199-1.013,5.6-2.585,7.199-4.72c1.6-2.132,2.4-4.745,2.4-7.84
		c0-3.305-1.147-5.945-3.439-7.92c-2.296-1.973-5.281-3.545-8.961-4.72c-3.68-1.172-7.734-2.265-12.16-3.28
		c-4.428-1.013-8.854-2.213-13.279-3.6c-4.428-1.385-8.508-3.252-12.24-5.6c-3.734-2.345-6.721-5.44-8.96-9.28
		c-2.24-3.84-3.36-8.745-3.36-14.72c0-7.145,1.945-13.065,5.84-17.76c3.893-4.693,9.065-8.213,15.521-10.56
		c6.452-2.345,13.465-3.52,21.04-3.52c7.572,0,14.452,1.095,20.64,3.28c6.185,2.188,11.146,5.6,14.88,10.24
		c3.732,4.64,5.6,10.64,5.6,18v2.08h-21.279v-1.92c0-2.88-0.775-5.385-2.32-7.52c-1.547-2.132-3.76-3.76-6.64-4.88
		s-6.399-1.68-10.56-1.68c-3.84,0-7.229,0.4-10.16,1.2c-2.936,0.8-5.2,2.08-6.801,3.84c-1.6,1.76-2.399,4.028-2.399,6.8
		c0,3.2,1.12,5.76,3.36,7.68c2.24,1.92,5.225,3.44,8.959,4.56c3.732,1.12,7.865,2.188,12.4,3.2c4.533,1.015,9.013,2.188,13.439,3.52
		c4.426,1.335,8.506,3.147,12.24,5.44c3.732,2.295,6.721,5.335,8.961,9.12c2.24,3.788,3.359,8.615,3.359,14.48
		c0,8.535-2.027,15.387-6.08,20.56c-4.055,5.175-9.52,8.96-16.4,11.36C1740.574,466.542,1732.759,467.742,1724.014,467.742z"/>
	<path style="fill:#FFFFFF;" d="M1823.532,467.742c-7.68,0-14.479-1.575-20.399-4.72s-10.535-7.732-13.84-13.76
		c-3.309-6.025-4.961-13.36-4.961-22v-4c0-8.64,1.732-15.973,5.2-22c3.466-6.025,8.212-10.613,14.24-13.76
		c6.024-3.145,12.88-4.72,20.56-4.72h2.561c7.252,0,13.572,1.467,18.96,4.4c5.385,2.935,9.545,7.04,12.479,12.32
		c2.933,5.28,4.4,11.44,4.4,18.48v10.08h-55.359c0,5.12,0.639,9.6,1.92,13.44c1.279,3.84,3.199,6.775,5.76,8.8
		c2.56,2.027,5.92,3.04,10.08,3.04c3.412,0,6.399-0.665,8.959-2c2.561-1.333,4.586-3.333,6.08-6c1.493-2.665,2.24-5.92,2.24-9.76
		h20.32c0,6.295-1.6,11.868-4.801,16.72c-3.199,4.855-7.6,8.64-13.199,11.36s-12.08,4.08-19.439,4.08H1823.532z M1807.532,416.862
		h33.761c0-6.72-1.469-11.705-4.4-14.96c-2.936-3.252-6.961-4.88-12.08-4.88c-4.801,0-8.828,1.68-12.08,5.04
		C1809.478,405.422,1807.744,410.357,1807.532,416.862z"/>
	<path style="fill:#FFFFFF;" d="M1914.41,467.742c-6.936,0-13.2-1.705-18.801-5.12c-5.6-3.413-10-8.132-13.199-14.16
		c-3.2-6.025-4.801-12.932-4.801-20.72v-4.96c0-5.865,0.986-11.225,2.961-16.08c1.973-4.853,4.664-9.093,8.08-12.72
		c3.412-3.625,7.412-6.4,12-8.32c4.584-1.92,9.492-2.88,14.72-2.88h3.04c7.145,0,13.359,1.415,18.64,4.24
		c5.28,2.828,9.333,6.775,12.16,11.84c2.825,5.067,4.24,11.015,4.24,17.84h-19.04c0-4.373-0.668-8-2-10.88
		c-1.335-2.88-3.228-5.065-5.68-6.56c-2.455-1.493-5.389-2.24-8.801-2.24c-4.907,0-9.015,1.68-12.32,5.04
		c-3.307,3.36-4.959,8.295-4.959,14.8v16.48c0,6.4,1.572,11.335,4.72,14.8c3.146,3.467,7.385,5.2,12.72,5.2
		c3.732,0,6.881-0.64,9.439-1.92c2.561-1.28,4.506-3.36,5.841-6.24c1.333-2.88,2-6.72,2-11.52h18.08
		c0,7.255-1.548,13.415-4.64,18.48c-3.096,5.067-7.36,8.935-12.801,11.6c-5.439,2.665-11.627,4-18.56,4H1914.41z"/>
	<path style="fill:#FFFFFF;" d="M1997.129,467.742c-8.427,0-15.066-2.32-19.92-6.96c-4.854-4.64-7.279-11.44-7.279-20.4v-56h21.92
		v51.2c0,5.547,1.145,9.6,3.439,12.16c2.293,2.56,5.681,3.84,10.16,3.84c2.985,0,5.705-0.745,8.16-2.24
		c2.453-1.493,4.453-3.465,6-5.92c1.545-2.452,2.32-5.172,2.32-8.16v-50.88h21.76v63.36c0,2.027,0.506,3.467,1.52,4.32
		c1.014,0.855,2.105,1.28,3.281,1.28c1.064,0,2.159-0.185,3.279-0.56c1.12-0.373,2.213-0.825,3.28-1.36v12.8
		c-1.388,1.067-3.228,1.92-5.521,2.56c-2.295,0.64-5.039,0.96-8.24,0.96c-3.734,0-6.854-0.587-9.359-1.76
		c-2.508-1.172-4.4-2.8-5.68-4.88c-1.28-2.08-2.24-4.292-2.881-6.64c-2.667,4.16-6.348,7.415-11.039,9.76
		C2007.635,466.567,2002.57,467.742,1997.129,467.742z"/>
	<path style="fill:#FFFFFF;" d="M2070.568,466.142v-81.76h16.32l2.72,12c0.212-0.425,0.772-1.333,1.681-2.72
		c0.904-1.385,2.265-2.933,4.08-4.64c1.812-1.705,4.079-3.172,6.799-4.4c2.721-1.225,6-1.84,9.84-1.84
		c5.546,0,10.053,1.067,13.521,3.2c3.466,2.135,6.053,5.12,7.761,8.96c1.705,3.84,2.56,8.32,2.56,13.44
		c0,1.175-0.056,2.455-0.16,3.84c-0.107,1.387-0.215,2.615-0.319,3.68h-18.24v-3.36c0-2.025-0.4-4.08-1.2-6.16
		c-0.8-2.08-2.08-3.812-3.841-5.2c-1.76-1.385-4.188-2.08-7.279-2.08c-2.24,0-4.16,0.48-5.76,1.44c-1.601,0.96-2.908,2.16-3.92,3.6
		c-1.016,1.44-1.76,3.04-2.24,4.8c-0.48,1.76-0.721,3.388-0.721,4.88v52.32H2070.568z"/>
	<path style="fill:#FFFFFF;" d="M2150.567,367.902v-16.96h22.56v16.96H2150.567z M2150.888,466.142v-81.76h21.92v81.76H2150.888z"/>
	<path style="fill:#FFFFFF;" d="M2223.046,467.742c-4.587,0-8.694-0.64-12.319-1.92c-3.629-1.28-6.455-3.44-8.48-6.48
		c-2.027-3.04-3.04-7.065-3.04-12.08v-46.56h-8.96v-16.32h9.6l7.68-26.08h13.44v26.08h19.2v16.32h-19.2v41.76
		c0,4.695,0.96,7.68,2.88,8.96c1.92,1.28,4,1.92,6.24,1.92c1.172,0,2.8-0.24,4.88-0.72s3.761-0.985,5.04-1.52v13.44
		c-1.388,0.748-3.096,1.36-5.12,1.84c-2.027,0.48-4.08,0.825-6.159,1.04C2226.646,467.635,2224.751,467.742,2223.046,467.742z"/>
	<path style="fill:#FFFFFF;" d="M2267.043,495.902c-2.667,0-5.119-0.188-7.359-0.56c-2.24-0.375-4.268-0.935-6.08-1.68v-15.84
		c1.172,0.532,2.772,0.985,4.8,1.36c2.025,0.373,4,0.56,5.92,0.56c2.88,0,5.226-0.56,7.04-1.68c1.812-1.12,3.332-2.828,4.561-5.12
		c1.225-2.295,2.425-5.095,3.6-8.4l-31.52-80.16h23.359l18.881,53.6h1.119l17.92-53.6h21.6l-29.6,77.6
		c-2.348,6.292-5.067,12-8.16,17.12c-3.095,5.12-6.747,9.2-10.959,12.24C2277.948,494.382,2272.908,495.902,2267.043,495.902z"/>
</g>
<path style="fill:#3B7982;" d="M1443.448,2713.069h-1260c-66.274,0-120-53.726-120-120v-470c0-66.274,53.726-120,120-120h1260
	c66.274,0,120,53.726,120,120v470C1563.448,2659.343,1509.722,2713.069,1443.448,2713.069z"/>
<g>
	<path style="fill:#FFFFFF;" d="M184.102,2408.668v-109.76h43.52c6.292,0,12.212,0.988,17.76,2.961
		c5.545,1.975,10.425,4.959,14.64,8.959c4.212,4,7.493,9.016,9.84,15.041c2.345,6.027,3.52,13.146,3.52,21.359v10.24
		c0,8.107-1.175,15.334-3.52,21.68c-2.348,6.348-5.628,11.707-9.84,16.08c-4.215,4.375-9.095,7.707-14.64,10
		c-5.547,2.295-11.467,3.439-17.76,3.439H184.102z M207.462,2390.748h18.24c4.373,0,8.292-0.984,11.76-2.959
		c3.465-1.973,6.213-5.041,8.24-9.201c2.025-4.16,3.04-9.545,3.04-16.16v-19.039c0-6.506-1.015-11.705-3.04-15.6
		c-2.027-3.893-4.775-6.721-8.24-8.48c-3.467-1.76-7.387-2.641-11.76-2.641h-18.24V2390.748z"/>
	<path style="fill:#FFFFFF;" d="M327.941,2410.269c-7.68,0-14.48-1.575-20.4-4.72c-5.92-3.146-10.535-7.732-13.84-13.76
		c-3.308-6.025-4.96-13.361-4.96-22v-4c0-8.641,1.732-15.973,5.2-22c3.465-6.025,8.212-10.613,14.24-13.761
		c6.025-3.146,12.88-4.72,20.56-4.72h2.56c7.253,0,13.573,1.467,18.96,4.4c5.385,2.935,9.545,7.039,12.48,12.319
		c2.932,5.28,4.4,11.44,4.4,18.479v10.08h-55.36c0,5.121,0.64,9.601,1.92,13.44c1.28,3.841,3.2,6.774,5.76,8.8
		c2.56,2.027,5.92,3.041,10.08,3.041c3.413,0,6.4-0.666,8.96-2c2.56-1.333,4.585-3.333,6.08-6c1.493-2.666,2.24-5.921,2.24-9.761
		h20.32c0,6.295-1.6,11.868-4.8,16.72c-3.2,4.855-7.6,8.641-13.2,11.36s-12.08,4.08-19.44,4.08H327.941z M311.941,2359.389h33.76
		c0-6.721-1.468-11.705-4.4-14.961c-2.935-3.252-6.96-4.879-12.08-4.879c-4.8,0-8.828,1.68-12.08,5.039
		C313.887,2347.948,312.154,2352.883,311.941,2359.389z"/>
	<path style="fill:#FFFFFF;" d="M418.819,2410.269c-6.935,0-13.2-1.705-18.8-5.12c-5.6-3.412-10-8.133-13.2-14.16
		c-3.2-6.025-4.8-12.932-4.8-20.72v-4.96c0-5.865,0.985-11.225,2.96-16.08c1.973-4.853,4.665-9.093,8.08-12.721
		c3.413-3.625,7.413-6.399,12-8.319c4.585-1.92,9.493-2.88,14.72-2.88h3.04c7.145,0,13.36,1.415,18.64,4.24
		c5.28,2.827,9.333,6.774,12.16,11.84c2.825,5.067,4.24,11.015,4.24,17.84h-19.04c0-4.373-0.667-8-2-10.88
		c-1.335-2.88-3.228-5.065-5.68-6.56c-2.455-1.493-5.388-2.24-8.8-2.24c-4.908,0-9.015,1.68-12.32,5.039
		c-3.307,3.36-4.96,8.295-4.96,14.801v16.48c0,6.399,1.573,11.334,4.72,14.799c3.145,3.468,7.385,5.201,12.72,5.201
		c3.732,0,6.88-0.641,9.44-1.921c2.56-1.28,4.505-3.36,5.84-6.239c1.333-2.881,2-6.721,2-11.521h18.08
		c0,7.255-1.548,13.415-4.64,18.479c-3.095,5.068-7.36,8.936-12.8,11.601c-5.44,2.665-11.627,4-18.56,4H418.819z"/>
	<path style="fill:#FFFFFF;" d="M510.659,2410.269c-7.68,0-14.48-1.575-20.4-4.72c-5.92-3.146-10.535-7.732-13.84-13.76
		c-3.308-6.025-4.96-13.361-4.96-22v-4c0-8.641,1.732-15.973,5.2-22c3.465-6.025,8.212-10.613,14.24-13.761
		c6.025-3.146,12.88-4.72,20.56-4.72h2.56c7.253,0,13.573,1.467,18.96,4.4c5.385,2.935,9.545,7.039,12.48,12.319
		c2.932,5.28,4.4,11.44,4.4,18.479v10.08h-55.36c0,5.121,0.64,9.601,1.92,13.44c1.28,3.841,3.2,6.774,5.76,8.8
		c2.56,2.027,5.92,3.041,10.08,3.041c3.413,0,6.4-0.666,8.96-2c2.56-1.333,4.585-3.333,6.08-6c1.493-2.666,2.24-5.921,2.24-9.761
		h20.32c0,6.295-1.6,11.868-4.8,16.72c-3.2,4.855-7.6,8.641-13.2,11.36s-12.08,4.08-19.44,4.08H510.659z M494.659,2359.389h33.76
		c0-6.721-1.468-11.705-4.4-14.961c-2.935-3.252-6.96-4.879-12.08-4.879c-4.8,0-8.828,1.68-12.08,5.039
		C496.604,2347.948,494.871,2352.883,494.659,2359.389z"/>
	<path style="fill:#FFFFFF;" d="M568.256,2408.668v-81.76h16.16l2.56,12c3.2-4.585,7.065-8,11.6-10.24
		c4.532-2.24,9.68-3.359,15.44-3.359c5.545,0,10.425,1.067,14.64,3.199c4.213,2.136,7.465,5.176,9.76,9.121
		c2.292,3.947,3.44,8.747,3.44,14.399v56.64h-21.76v-52c0-5.225-1.28-9.064-3.84-11.52c-2.56-2.453-6.027-3.68-10.4-3.68
		c-2.775,0-5.388,0.72-7.84,2.16c-2.455,1.439-4.375,3.387-5.76,5.84c-1.387,2.455-2.08,5.227-2.08,8.32v50.879H568.256z"/>
	<path style="fill:#FFFFFF;" d="M691.134,2410.269c-4.587,0-8.695-0.64-12.32-1.92c-3.628-1.28-6.455-3.44-8.48-6.479
		c-2.027-3.041-3.04-7.066-3.04-12.08v-46.561h-8.96v-16.32h9.6l7.68-26.08h13.44v26.08h19.2v16.32h-19.2v41.76
		c0,4.695,0.96,7.68,2.88,8.96s4,1.921,6.24,1.921c1.172,0,2.8-0.24,4.88-0.721s3.76-0.984,5.04-1.52v13.439
		c-1.388,0.748-3.095,1.359-5.12,1.84c-2.027,0.48-4.08,0.825-6.16,1.04C694.734,2410.161,692.839,2410.269,691.134,2410.269z"/>
	<path style="fill:#FFFFFF;" d="M725.532,2408.668v-81.76h16.32l2.72,12c0.212-0.425,0.772-1.332,1.68-2.72
		c0.905-1.386,2.265-2.933,4.08-4.64c1.812-1.705,4.08-3.173,6.8-4.4c2.72-1.225,6-1.84,9.84-1.84c5.545,0,10.053,1.067,13.52,3.199
		c3.465,2.136,6.053,5.121,7.76,8.961c1.705,3.84,2.56,8.32,2.56,13.439c0,1.176-0.055,2.455-0.16,3.84
		c-0.107,1.388-0.215,2.615-0.32,3.68h-18.24v-3.359c0-2.025-0.4-4.08-1.2-6.16c-0.8-2.08-2.08-3.812-3.84-5.199
		c-1.76-1.386-4.188-2.08-7.28-2.08c-2.24,0-4.16,0.479-5.76,1.439s-2.907,2.16-3.92,3.6c-1.015,1.44-1.76,3.041-2.24,4.801
		s-0.72,3.387-0.72,4.88v52.319H725.532z"/>
	<path style="fill:#FFFFFF;" d="M826.491,2410.269c-4.375,0-8.56-0.72-12.56-2.16s-7.28-3.84-9.84-7.2
		c-2.56-3.359-3.84-7.92-3.84-13.68c0-5.865,1.305-10.613,3.92-14.24c2.612-3.625,6.292-6.425,11.04-8.4
		c4.745-1.973,10.453-3.332,17.12-4.08c6.665-0.744,14.16-1.119,22.48-1.119v-7.2c0-4.692-1.28-8.024-3.84-10
		c-2.56-1.973-6.295-2.96-11.2-2.96c-4.16,0-7.815,0.936-10.96,2.8c-3.147,1.868-4.72,4.72-4.72,8.56v1.281h-20.96
		c-0.107-0.32-0.16-0.773-0.16-1.361c0-0.584,0-1.092,0-1.52c0-4.692,1.493-8.824,4.48-12.4c2.985-3.572,7.145-6.344,12.48-8.319
		c5.333-1.973,11.52-2.96,18.56-2.96h3.36c11.52,0,20.105,2.268,25.76,6.8c5.652,4.535,8.48,10.64,8.48,18.319v39.841
		c0,2.027,0.505,3.468,1.52,4.319c1.013,0.855,2.105,1.281,3.28,1.281c0.96,0,2.025-0.186,3.2-0.561
		c1.172-0.373,2.292-0.825,3.36-1.36v12.8c-1.387,1.068-3.227,1.92-5.52,2.561c-2.295,0.64-5.04,0.96-8.24,0.96
		c-3.84,0-7.04-0.615-9.6-1.841c-2.56-1.225-4.507-2.904-5.84-5.039c-1.335-2.133-2.16-4.586-2.48-7.36
		c-2.988,4.268-6.935,7.708-11.84,10.32C839.023,2408.961,833.211,2410.269,826.491,2410.269z M836.731,2395.869
		c2.985,0,5.84-0.693,8.56-2.08c2.72-1.386,4.985-3.44,6.8-6.16c1.812-2.721,2.72-6.105,2.72-10.16v-6.561
		c-6.828,0-12.615,0.428-17.36,1.28c-4.747,0.854-8.347,2.268-10.8,4.239c-2.455,1.976-3.68,4.828-3.68,8.561
		c0,3.947,1.2,6.748,3.6,8.4C828.971,2395.043,832.356,2395.869,836.731,2395.869z"/>
	<path style="fill:#FFFFFF;" d="M902.329,2408.668v-115.199h21.92v115.199H902.329z"/>
	<path style="fill:#FFFFFF;" d="M948.246,2310.428v-16.959h22.56v16.959H948.246z M948.566,2408.668v-81.76h21.92v81.76H948.566z"/>
	<path style="fill:#FFFFFF;" d="M987.604,2408.668v-7.52l36.16-59.52h-34.08v-14.721h62.88v7.2l-36.16,59.84h37.44v14.72H987.604z"
		/>
	<path style="fill:#FFFFFF;" d="M1091.923,2410.269c-4.375,0-8.56-0.72-12.56-2.16s-7.28-3.84-9.84-7.2
		c-2.56-3.359-3.84-7.92-3.84-13.68c0-5.865,1.305-10.613,3.92-14.24c2.612-3.625,6.292-6.425,11.04-8.4
		c4.745-1.973,10.453-3.332,17.12-4.08c6.665-0.744,14.16-1.119,22.48-1.119v-7.2c0-4.692-1.28-8.024-3.84-10
		c-2.56-1.973-6.295-2.96-11.2-2.96c-4.16,0-7.815,0.936-10.96,2.8c-3.147,1.868-4.72,4.72-4.72,8.56v1.281h-20.96
		c-0.107-0.32-0.16-0.773-0.16-1.361c0-0.584,0-1.092,0-1.52c0-4.692,1.493-8.824,4.48-12.4c2.985-3.572,7.145-6.344,12.48-8.319
		c5.333-1.973,11.52-2.96,18.56-2.96h3.36c11.52,0,20.105,2.268,25.76,6.8c5.652,4.535,8.48,10.64,8.48,18.319v39.841
		c0,2.027,0.505,3.468,1.52,4.319c1.013,0.855,2.105,1.281,3.28,1.281c0.96,0,2.025-0.186,3.2-0.561
		c1.172-0.373,2.292-0.825,3.36-1.36v12.8c-1.387,1.068-3.227,1.92-5.52,2.561c-2.295,0.64-5.04,0.96-8.24,0.96
		c-3.84,0-7.04-0.615-9.6-1.841c-2.56-1.225-4.507-2.904-5.84-5.039c-1.335-2.133-2.16-4.586-2.48-7.36
		c-2.988,4.268-6.935,7.708-11.84,10.32C1104.456,2408.961,1098.643,2410.269,1091.923,2410.269z M1102.163,2395.869
		c2.985,0,5.84-0.693,8.56-2.08c2.72-1.386,4.985-3.44,6.8-6.16c1.812-2.721,2.72-6.105,2.72-10.16v-6.561
		c-6.828,0-12.615,0.428-17.36,1.28c-4.747,0.854-8.347,2.268-10.8,4.239c-2.455,1.976-3.68,4.828-3.68,8.561
		c0,3.947,1.2,6.748,3.6,8.4C1094.403,2395.043,1097.788,2395.869,1102.163,2395.869z"/>
	<path style="fill:#FFFFFF;" d="M1195.282,2410.269c-4.587,0-8.695-0.64-12.32-1.92c-3.628-1.28-6.455-3.44-8.48-6.479
		c-2.027-3.041-3.04-7.066-3.04-12.08v-46.561h-8.96v-16.32h9.6l7.68-26.08h13.44v26.08h19.2v16.32h-19.2v41.76
		c0,4.695,0.96,7.68,2.88,8.96c1.92,1.28,4,1.921,6.24,1.921c1.173,0,2.801-0.24,4.881-0.721c2.079-0.48,3.76-0.984,5.039-1.52
		v13.439c-1.387,0.748-3.095,1.359-5.119,1.84c-2.028,0.48-4.08,0.825-6.16,1.04
		C1198.882,2410.161,1196.987,2410.269,1195.282,2410.269z"/>
	<path style="fill:#FFFFFF;" d="M1230.161,2310.428v-16.959h22.56v16.959H1230.161z M1230.48,2408.668v-81.76h21.92v81.76H1230.48z"
		/>
	<path style="fill:#FFFFFF;" d="M1310.478,2410.269c-7.468,0-14.16-1.681-20.08-5.04s-10.561-8.133-13.92-14.32
		c-3.36-6.185-5.04-13.439-5.04-21.76v-2.88c0-8.425,1.68-15.681,5.04-21.761c3.359-6.08,7.972-10.799,13.84-14.159
		c5.865-3.36,12.532-5.04,20-5.04h3.2c7.572,0,14.292,1.68,20.159,5.04c5.865,3.36,10.48,8.079,13.841,14.159
		c3.359,6.08,5.04,13.336,5.04,21.761v2.88c0,8.428-1.681,15.707-5.04,21.84c-3.36,6.135-7.976,10.881-13.841,14.24
		c-5.867,3.359-12.534,5.04-20,5.04H1310.478z M1311.917,2395.869c3.305,0,6.266-0.773,8.88-2.32
		c2.612-1.545,4.692-3.865,6.24-6.961c1.545-3.092,2.32-6.771,2.32-11.039v-15.68c0-4.373-0.775-8.053-2.32-11.041
		c-1.548-2.984-3.628-5.279-6.24-6.88c-2.614-1.6-5.575-2.399-8.88-2.399c-3.2,0-6.135,0.8-8.8,2.399
		c-2.668,1.601-4.775,3.896-6.32,6.88c-1.547,2.988-2.319,6.668-2.319,11.041v15.68c0,4.268,0.772,7.947,2.319,11.039
		c1.545,3.096,3.652,5.416,6.32,6.961C1305.783,2395.096,1308.717,2395.869,1311.917,2395.869z"/>
	<path style="fill:#FFFFFF;" d="M1370.637,2408.668v-81.76h16.16l2.56,12c3.199-4.585,7.064-8,11.6-10.24
		c4.533-2.24,9.68-3.359,15.439-3.359c5.545,0,10.426,1.067,14.641,3.199c4.213,2.136,7.465,5.176,9.76,9.121
		c2.293,3.947,3.441,8.747,3.441,14.399v56.64h-21.762v-52c0-5.225-1.279-9.064-3.84-11.52c-2.559-2.453-6.027-3.68-10.398-3.68
		c-2.775,0-5.389,0.72-7.842,2.16c-2.455,1.439-4.375,3.387-5.76,5.84c-1.387,2.455-2.08,5.227-2.08,8.32v50.879H1370.637z"/>
</g>
<path style="fill:#FF5553;" d="M3823.448,2713.069h-1260c-66.274,0-120-53.726-120-120v-470c0-66.274,53.726-120,120-120h1260
	c66.274,0,120,53.726,120,120v470C3943.448,2659.343,3889.722,2713.069,3823.448,2713.069z"/>
<g>
	<path style="fill:#FFFFFF;" d="M2837.139,2410.269c-7.787,0-14.907-1.147-21.359-3.44c-6.455-2.292-11.628-5.893-15.521-10.8
		c-3.896-4.905-5.84-11.36-5.84-19.36c0-0.64,0-1.252,0-1.84c0-0.584,0.052-1.145,0.159-1.68h21.601
		c-0.107,0.535-0.16,1.016-0.16,1.439c0,0.428,0,0.908,0,1.44c0,3.415,0.825,6.348,2.479,8.8c1.653,2.455,4.105,4.32,7.361,5.6
		c3.252,1.281,7.119,1.921,11.6,1.921c5.012,0,9.119-0.505,12.32-1.521c3.199-1.012,5.6-2.584,7.199-4.72
		c1.6-2.132,2.4-4.745,2.4-7.84c0-3.306-1.147-5.945-3.439-7.92c-2.296-1.973-5.281-3.546-8.961-4.72
		c-3.68-1.173-7.734-2.266-12.16-3.28c-4.428-1.013-8.854-2.213-13.279-3.601c-4.428-1.385-8.508-3.252-12.24-5.6
		c-3.734-2.346-6.721-5.439-8.96-9.279c-2.24-3.841-3.36-8.746-3.36-14.721c0-7.145,1.945-13.064,5.84-17.76
		c3.893-4.693,9.065-8.213,15.521-10.561c6.452-2.345,13.465-3.52,21.04-3.52c7.572,0,14.452,1.095,20.64,3.279
		c6.185,2.188,11.146,5.601,14.88,10.24c3.732,4.641,5.6,10.641,5.6,18v2.08h-21.279v-1.92c0-2.88-0.775-5.385-2.32-7.52
		c-1.547-2.133-3.76-3.76-6.64-4.881c-2.88-1.119-6.399-1.68-10.56-1.68c-3.84,0-7.229,0.4-10.16,1.2
		c-2.936,0.8-5.2,2.08-6.801,3.84c-1.6,1.761-2.399,4.028-2.399,6.8c0,3.2,1.12,5.76,3.36,7.68c2.24,1.921,5.225,3.441,8.959,4.561
		c3.732,1.12,7.865,2.188,12.4,3.2c4.533,1.015,9.013,2.188,13.439,3.521c4.426,1.334,8.506,3.146,12.24,5.439
		c3.732,2.295,6.721,5.335,8.961,9.12c2.24,3.788,3.359,8.614,3.359,14.479c0,8.535-2.027,15.388-6.08,20.561
		c-4.055,5.175-9.52,8.96-16.4,11.359C2853.699,2409.068,2845.884,2410.269,2837.139,2410.269z"/>
	<path style="fill:#FFFFFF;" d="M2934.418,2410.269c-6.936,0-13.201-1.705-18.801-5.12c-5.6-3.412-10-8.133-13.199-14.16
		c-3.201-6.025-4.801-12.932-4.801-20.72v-4.96c0-5.865,0.985-11.225,2.96-16.08c1.973-4.853,4.665-9.093,8.08-12.721
		c3.413-3.625,7.413-6.399,12-8.319c4.585-1.92,9.493-2.88,14.72-2.88h3.041c7.145,0,13.359,1.415,18.639,4.24
		c5.281,2.827,9.333,6.774,12.16,11.84c2.826,5.067,4.24,11.015,4.24,17.84h-19.039c0-4.373-0.668-8-2-10.88
		c-1.336-2.88-3.229-5.065-5.681-6.56c-2.455-1.493-5.388-2.24-8.8-2.24c-4.908,0-9.016,1.68-12.32,5.039
		c-3.307,3.36-4.96,8.295-4.96,14.801v16.48c0,6.399,1.573,11.334,4.72,14.799c3.146,3.468,7.385,5.201,12.721,5.201
		c3.732,0,6.88-0.641,9.439-1.921c2.561-1.28,4.506-3.36,5.84-6.239c1.333-2.881,2-6.721,2-11.521h18.08
		c0,7.255-1.547,13.415-4.64,18.479c-3.095,5.068-7.36,8.936-12.8,11.601c-5.44,2.665-11.628,4-18.561,4H2934.418z"/>
	<path style="fill:#FFFFFF;" d="M3012.177,2410.269c-4.375,0-8.56-0.72-12.56-2.16s-7.28-3.84-9.84-7.2
		c-2.561-3.359-3.84-7.92-3.84-13.68c0-5.865,1.305-10.613,3.92-14.24c2.611-3.625,6.292-6.425,11.039-8.4
		c4.746-1.973,10.453-3.332,17.121-4.08c6.664-0.744,14.159-1.119,22.479-1.119v-7.2c0-4.692-1.28-8.024-3.841-10
		c-2.559-1.973-6.295-2.96-11.199-2.96c-4.16,0-7.814,0.936-10.96,2.8c-3.147,1.868-4.72,4.72-4.72,8.56v1.281h-20.961
		c-0.107-0.32-0.16-0.773-0.16-1.361c0-0.584,0-1.092,0-1.52c0-4.692,1.493-8.824,4.48-12.4c2.985-3.572,7.145-6.344,12.48-8.319
		c5.332-1.973,11.52-2.96,18.56-2.96h3.36c11.52,0,20.105,2.268,25.76,6.8c5.652,4.535,8.48,10.64,8.48,18.319v39.841
		c0,2.027,0.504,3.468,1.52,4.319c1.013,0.855,2.105,1.281,3.28,1.281c0.96,0,2.024-0.186,3.2-0.561
		c1.172-0.373,2.292-0.825,3.359-1.36v12.8c-1.387,1.068-3.227,1.92-5.52,2.561c-2.295,0.64-5.04,0.96-8.24,0.96
		c-3.84,0-7.04-0.615-9.6-1.841c-2.561-1.225-4.508-2.904-5.84-5.039c-1.336-2.133-2.16-4.586-2.48-7.36
		c-2.988,4.268-6.936,7.708-11.84,10.32C3024.709,2408.961,3018.896,2410.269,3012.177,2410.269z M3022.417,2395.869
		c2.985,0,5.84-0.693,8.56-2.08c2.721-1.386,4.985-3.44,6.801-6.16c1.812-2.721,2.72-6.105,2.72-10.16v-6.561
		c-6.827,0-12.615,0.428-17.36,1.28c-4.747,0.854-8.348,2.268-10.8,4.239c-2.455,1.976-3.681,4.828-3.681,8.561
		c0,3.947,1.201,6.748,3.601,8.4C3014.656,2395.043,3018.042,2395.869,3022.417,2395.869z"/>
	<path style="fill:#FFFFFF;" d="M3088.015,2408.668v-115.199h21.92v115.199H3088.015z"/>
	<path style="fill:#FFFFFF;" d="M3153.612,2410.269c-4.375,0-8.56-0.72-12.56-2.16s-7.28-3.84-9.84-7.2
		c-2.561-3.359-3.84-7.92-3.84-13.68c0-5.865,1.305-10.613,3.92-14.24c2.611-3.625,6.292-6.425,11.039-8.4
		c4.746-1.973,10.453-3.332,17.121-4.08c6.664-0.744,14.159-1.119,22.479-1.119v-7.2c0-4.692-1.28-8.024-3.841-10
		c-2.559-1.973-6.295-2.96-11.199-2.96c-4.16,0-7.814,0.936-10.96,2.8c-3.147,1.868-4.72,4.72-4.72,8.56v1.281h-20.961
		c-0.107-0.32-0.16-0.773-0.16-1.361c0-0.584,0-1.092,0-1.52c0-4.692,1.493-8.824,4.48-12.4c2.985-3.572,7.145-6.344,12.48-8.319
		c5.332-1.973,11.52-2.96,18.56-2.96h3.36c11.52,0,20.105,2.268,25.76,6.8c5.652,4.535,8.48,10.64,8.48,18.319v39.841
		c0,2.027,0.504,3.468,1.52,4.319c1.013,0.855,2.105,1.281,3.28,1.281c0.96,0,2.024-0.186,3.2-0.561
		c1.172-0.373,2.292-0.825,3.359-1.36v12.8c-1.387,1.068-3.227,1.92-5.52,2.561c-2.295,0.64-5.04,0.96-8.24,0.96
		c-3.84,0-7.04-0.615-9.6-1.841c-2.561-1.225-4.508-2.904-5.84-5.039c-1.336-2.133-2.16-4.586-2.48-7.36
		c-2.988,4.268-6.936,7.708-11.84,10.32C3166.145,2408.961,3160.332,2410.269,3153.612,2410.269z M3163.853,2395.869
		c2.985,0,5.84-0.693,8.56-2.08c2.721-1.386,4.985-3.44,6.801-6.16c1.812-2.721,2.72-6.105,2.72-10.16v-6.561
		c-6.827,0-12.615,0.428-17.36,1.28c-4.747,0.854-8.348,2.268-10.8,4.239c-2.455,1.976-3.681,4.828-3.681,8.561
		c0,3.947,1.201,6.748,3.601,8.4C3156.092,2395.043,3159.478,2395.869,3163.853,2395.869z"/>
	<path style="fill:#FFFFFF;" d="M3272.33,2410.269c-11.947,0-21.067-4.8-27.359-14.399l-7.521,12.799h-8v-115.199h21.92v43.039
		c2.24-3.092,5.333-5.732,9.28-7.92c3.945-2.185,8.641-3.279,14.08-3.279c5.865,0,11.199,1.359,16,4.08
		c4.8,2.72,8.64,6.96,11.52,12.72c2.881,5.761,4.32,13.175,4.32,22.24v3.521c0,9.707-1.547,17.707-4.641,24
		c-3.094,6.295-7.254,10.934-12.479,13.92C3284.223,2408.773,3278.516,2410.269,3272.33,2410.269z M3267.69,2395.869
		c3.093,0,5.812-0.746,8.159-2.24c2.346-1.493,4.213-3.812,5.601-6.961c1.386-3.145,2.08-7.172,2.08-12.08v-14.399
		c0-4.479-0.667-8.185-2-11.12c-1.335-2.933-3.147-5.172-5.44-6.72c-2.295-1.546-4.986-2.32-8.08-2.32
		c-2.986,0-5.76,0.774-8.319,2.32c-2.56,1.548-4.587,3.815-6.08,6.8c-1.495,2.987-2.24,6.721-2.24,11.2v14.239
		c0,4.908,0.72,8.936,2.16,12.08c1.44,3.148,3.413,5.468,5.92,6.961C3261.955,2395.123,3264.703,2395.869,3267.69,2395.869z"/>
	<path style="fill:#FFFFFF;" d="M3325.289,2310.428v-16.959h22.561v16.959H3325.289z M3325.609,2408.668v-81.76h21.92v81.76
		H3325.609z"/>
	<path style="fill:#FFFFFF;" d="M3371.525,2408.668v-115.199h21.92v115.199H3371.525z"/>
	<path style="fill:#FFFFFF;" d="M3417.442,2310.428v-16.959h22.56v16.959H3417.442z M3417.763,2408.668v-81.76h21.92v81.76H3417.763
		z"/>
	<path style="fill:#FFFFFF;" d="M3489.921,2410.269c-4.587,0-8.694-0.64-12.319-1.92c-3.629-1.28-6.455-3.44-8.48-6.479
		c-2.027-3.041-3.04-7.066-3.04-12.08v-46.561h-8.96v-16.32h9.6l7.68-26.08h13.44v26.08h19.2v16.32h-19.2v41.76
		c0,4.695,0.96,7.68,2.88,8.96s4,1.921,6.24,1.921c1.172,0,2.8-0.24,4.88-0.721s3.761-0.984,5.04-1.52v13.439
		c-1.388,0.748-3.096,1.359-5.12,1.84c-2.027,0.48-4.08,0.825-6.159,1.04C3493.521,2410.161,3491.626,2410.269,3489.921,2410.269z"
		/>
	<path style="fill:#FFFFFF;" d="M3533.918,2438.428c-2.667,0-5.119-0.188-7.359-0.559c-2.24-0.375-4.268-0.936-6.08-1.681v-15.84
		c1.172,0.532,2.772,0.985,4.8,1.36c2.025,0.372,4,0.56,5.92,0.56c2.88,0,5.226-0.56,7.04-1.681
		c1.812-1.119,3.332-2.827,4.561-5.119c1.225-2.295,2.425-5.096,3.6-8.4l-31.52-80.16h23.359l18.881,53.6h1.119l17.92-53.6h21.602
		l-29.602,77.6c-2.348,6.293-5.067,12-8.16,17.121c-3.095,5.119-6.747,9.199-10.959,12.24
		C3544.823,2436.908,3539.783,2438.428,3533.918,2438.428z"/>
</g>
</svg>
