<?xml version="1.0" encoding="iso-8859-1"?>
<!-- Generator: Adobe Illustrator 29.6.0, SVG Export Plug-In . SVG Version: 9.03 Build 0)  -->
<svg version="1.1" xmlns="http://www.w3.org/2000/svg" xmlns:xlink="http://www.w3.org/1999/xlink" x="0px" y="0px"
	 viewBox="0 0 4000 2500" style="enable-background:new 0 0 4000 2500;" xml:space="preserve">
<g id="Fill">
	
		<line style="fill:none;stroke:#FF5553;stroke-width:12;stroke-miterlimit:10;" x1="1899.65" y1="1113.65" x2="907.652" y2="973.205"/>
	
		<line style="fill:none;stroke:#FF5553;stroke-width:12;stroke-miterlimit:10;" x1="1915.65" y1="1198.983" x2="944.986" y2="1296.76"/>
	
		<line style="fill:none;stroke:#FF5553;stroke-width:12;stroke-miterlimit:10;" x1="1981.428" y1="1282.538" x2="1613.429" y2="1405.204"/>
	
		<line style="fill:none;stroke:#FF5553;stroke-width:12;stroke-miterlimit:10;" x1="3179.648" y1="1246.983" x2="2873.871" y2="1122.538"/>
	
		<line style="fill:none;stroke:#FF5553;stroke-width:12;stroke-miterlimit:10;" x1="2619.649" y1="2234.98" x2="2526.316" y2="1400.316"/>
	
		<line style="fill:none;stroke:#FF5553;stroke-width:12;stroke-miterlimit:10;" x1="2760.982" y1="1764.315" x2="2742.315" y2="1354.982"/>
	
		<line style="fill:none;stroke:#FF5553;stroke-width:12;stroke-miterlimit:10;" x1="1602.318" y1="2149.647" x2="2058.317" y2="1374.982"/>
	
		<line style="fill:none;stroke:#FF5553;stroke-width:12;stroke-miterlimit:10;" x1="2163.65" y1="1820.315" x2="2296.983" y2="1369.649"/>
	
		<line style="fill:none;stroke:#000000;stroke-width:12;stroke-miterlimit:10;" x1="1200" y1="1737.334" x2="1433.333" y2="1560.667"/>
	
		<line style="fill:none;stroke:#000000;stroke-width:12;stroke-miterlimit:10;" x1="3533.333" y1="990.667" x2="3323.333" y2="1250.667"/>
	
		<line style="fill:none;stroke:#000000;stroke-width:12;stroke-miterlimit:10;" x1="3596.667" y1="1354" x2="3266.667" y2="1390.667"/>
	
		<line style="fill:none;stroke:#000000;stroke-width:12;stroke-miterlimit:10;" x1="3696.667" y1="1737.334" x2="3266.667" y2="1410.667"/>
	<line style="fill:none;stroke:#000000;stroke-width:12;stroke-miterlimit:10;" x1="3476.667" y1="2144" x2="2896.667" y2="1834"/>
	
		<line style="fill:none;stroke:#5181F6;stroke-width:12;stroke-miterlimit:10;" x1="2843.333" y1="1747.334" x2="3170" y2="1397.334"/>
	
		<line style="fill:none;stroke:#5181F6;stroke-width:12;stroke-miterlimit:10;" x1="2683.333" y1="1810.667" x2="1630" y2="1470.667"/>
	<line style="fill:none;stroke:#5181F6;stroke-width:12;stroke-miterlimit:10;" x1="2693.333" y1="1887.334" x2="2280" y2="1874"/>
	<circle style="fill:#5181F6;stroke:#000000;stroke-width:6;stroke-miterlimit:10;" cx="3236.667" cy="1329" r="129.182"/>
	<path style="fill:#FF5553;" d="M2930.489,1118.918c-18.359-26.212-45.098-45.576-75.406-55.101
		c1.134-10.732,1.228-21.602,0.212-32.423c-3.993-42.337-24.841-82.111-57.215-109.629c-11.911-7.695-23.811-15.396-35.717-23.087
		c-27.271-12.743-55.904-17.792-85.887-15.149c-13.823,3.165-27.641,6.325-41.464,9.48c-16.372,6.162-31.206,14.523-44.541,25.039
		c-4.639-5.201-9.623-10.116-14.957-14.657c-11.107-7.177-22.214-14.35-33.311-21.533c-25.438-11.881-52.133-16.584-80.1-14.119
		c-12.891,2.944-25.778,5.891-38.665,8.839c-24.93,9.372-46.069,24.166-63.427,44.354c-14.725-18.226-33.552-33.321-56.003-43.407
		c-18.688-8.396-38.541-15.263-58.708-18.837c-20.326-3.599-41.632-2.894-62.333-2.302c-13.725,3.14-27.459,6.281-41.194,9.421
		c-26.626,10.017-49.204,25.827-67.726,47.425c-23.589,27.755-37.072,63.126-38.511,99.325c-11.072-1.621-22.366-1.997-33.897-0.976
		c-11.935,2.726-23.875,5.457-35.805,8.184c-23.155,8.711-42.776,22.45-58.872,41.223c-24.56,28.898-36.579,67.272-33.02,105.025
		c3.446,36.559,21.444,70.91,49.411,94.677c4.476,2.899,8.957,5.797,13.439,8.691c-0.237,5.704-0.128,11.432,0.409,17.151
		c3.111,32.956,19.335,63.92,44.546,85.345c9.268,5.995,18.531,11.984,27.804,17.974c21.232,9.924,43.52,13.853,66.867,11.792
		l32.276-7.385c5.221-1.962,10.244-4.21,15.071-6.744c4.357,4.743,8.987,9.263,13.917,13.453
		c11.551,7.464,23.101,14.933,34.651,22.401c26.463,12.364,54.243,17.26,83.338,14.696c13.409-3.066,26.818-6.133,40.228-9.204
		c23.737-8.923,44.137-22.618,61.272-40.967c1.006,0.893,1.982,1.814,3.007,2.682c11.906,7.695,23.806,15.396,35.711,23.091
		c27.271,12.738,55.904,17.792,85.892,15.144c13.818-3.16,27.636-6.32,41.455-9.48c2.499-0.941,4.925-1.981,7.35-3.022
		c5.743,3.717,11.491,7.429,17.24,11.146c28.514,13.32,58.448,18.595,89.792,15.834c14.444-3.307,28.898-6.61,43.343-9.913
		c28.021-10.535,51.783-27.173,71.27-49.905c9.184-10.801,16.904-22.706,23.086-35.341c1.938,0.424,3.88,0.838,5.847,1.183
		c12.847,0.527,25.694,1.05,38.536,1.578c25.181-2.494,48.155-10.964,68.914-25.398l6.3-4.822c9.135-8.317,18.265-16.623,27.4-24.94
		c16.83-19.976,27.548-42.83,32.172-68.569C2961.133,1189.478,2952.427,1150.247,2930.489,1118.918z"/>
	<g id="Layer_1-2">
		<path style="fill:#FFFFFF;" d="M2039.278,1164.5c-0.389,6.779,4.787,12.591,11.565,12.988h0.671
			c6.78-0.007,12.271-5.51,12.263-12.29s-5.51-12.27-12.29-12.263c-6.501,0.007-11.87,5.082-12.243,11.572L2039.278,1164.5z"/>
		<path style="fill:#FFFFFF;" d="M1993.5,1161.387c-2.186-0.122-4.058,1.551-4.18,3.737c-0.122,2.186,1.551,4.058,3.737,4.18
			c2.184,0.122,4.054-1.547,4.18-3.731c0.129-2.182-1.535-4.056-3.717-4.185C1993.513,1161.388,1993.507,1161.388,1993.5,1161.387z"
			/>
		<path style="fill:#FFFFFF;" d="M2038.5,1093.25c1.951-1.002,2.721-3.396,1.719-5.347c-1.002-1.951-3.396-2.721-5.347-1.719
			c-1.936,0.994-2.711,3.361-1.738,5.308c0.985,1.964,3.376,2.757,5.34,1.771C2038.482,1093.259,2038.491,1093.255,2038.5,1093.25z"
			/>
		<path style="fill:#FFFFFF;" d="M2050.958,1114.972c3.023-1.525,4.238-5.213,2.713-8.236s-5.213-4.238-8.236-2.713
			c-3.022,1.524-4.237,5.209-2.715,8.232c1.523,3.025,5.209,4.242,8.234,2.719
			C2050.955,1114.973,2050.956,1114.973,2050.958,1114.972z"/>
		<path style="fill:#FFFFFF;" d="M2009.037,1129.912c2.331,1.533,5.463,0.886,6.996-1.445c1.533-2.331,0.886-5.463-1.445-6.996
			s-5.463-0.886-6.996,1.445c-0.001,0.002-0.003,0.004-0.004,0.006C2006.06,1125.252,2006.708,1128.38,2009.037,1129.912z"/>
		<path style="fill:#FFFFFF;" d="M2016.503,1159.154c-3.381-0.191-6.276,2.395-6.467,5.776c-0.191,3.381,2.395,6.276,5.776,6.467
			c3.378,0.191,6.273-2.392,6.467-5.77C2022.47,1162.245,2019.885,1159.348,2016.503,1159.154z"/>
		<path style="fill:#FFFFFF;" d="M2009.708,1200.377c-2.49,1.258-3.488,4.297-2.23,6.787c1.258,2.49,4.297,3.488,6.787,2.23
			c2.488-1.258,3.487-4.293,2.232-6.783c-1.256-2.491-4.294-3.492-6.785-2.236
			C2009.71,1200.375,2009.709,1200.376,2009.708,1200.377z"/>
		<path style="fill:#FFFFFF;" d="M2033.543,1146.481c3.334,2.185,7.809,1.254,9.994-2.081c2.185-3.334,1.254-7.809-2.081-9.994
			c-3.334-2.185-7.807-1.254-9.993,2.079c-2.187,3.328-1.262,7.8,2.067,9.987
			C2033.534,1146.476,2033.538,1146.479,2033.543,1146.481z"/>
		<path style="fill:#FFFFFF;" d="M2109.16,1114.489c2.839,1.852,6.643,1.052,8.495-1.788s1.052-6.643-1.788-8.495
			c-2.837-1.851-6.638-1.053-8.491,1.783c-1.856,2.832-1.064,6.633,1.768,8.489
			C2109.149,1114.482,2109.155,1114.485,2109.16,1114.489z"/>
		<path style="fill:#FFFFFF;" d="M2121.745,1092.834c1.834,1.202,4.296,0.69,5.499-1.144c1.202-1.834,0.69-4.296-1.144-5.499
			c-1.834-1.202-4.296-0.69-5.499,1.144c-0.001,0.001-0.002,0.003-0.003,0.004
			C2119.399,1089.174,2119.912,1091.633,2121.745,1092.834z"/>
		<path style="fill:#FFFFFF;" d="M2110.126,1152.814c-6.771-0.389-12.575,4.784-12.964,11.555
			c-0.389,6.771,4.784,12.575,11.555,12.964l0,0c0.235,0,0.476,0,0.711,0c6.78-0.003,12.274-5.502,12.27-12.282
			c-0.001-3.015-1.112-5.923-3.12-8.172C2116.42,1154.446,2113.375,1152.981,2110.126,1152.814z"/>
		<path style="fill:#FFFFFF;" d="M2054.99,1145.629c2.079,4.153,6.331,6.77,10.975,6.755c6.784,0.001,12.284-5.497,12.286-12.28
			c0-1.928-0.453-3.83-1.324-5.551c-2.093-4.134-6.342-6.731-10.975-6.708c-6.784,0.012-12.274,5.52-12.262,12.304
			C2053.692,1142.052,2054.137,1143.928,2054.99,1145.629z"/>
		<path style="fill:#FFFFFF;" d="M2151.255,1129.898c2.491-1.257,3.491-4.295,2.234-6.786c-1.257-2.491-4.295-3.491-6.785-2.234
			c-2.488,1.256-3.489,4.289-2.237,6.779C2145.723,1130.15,2148.762,1131.152,2151.255,1129.898z"/>
		<path style="fill:#FFFFFF;" d="M2120.121,1133.809c-3.56,1.793-4.993,6.133-3.2,9.694c1.793,3.56,6.133,4.993,9.694,3.2
			c3.56-1.793,4.993-6.133,3.2-9.694c-1.788-3.559-6.123-4.994-9.682-3.206C2120.129,1133.805,2120.125,1133.807,2120.121,1133.809z
			"/>
		<path style="fill:#FFFFFF;" d="M2080.019,1090.983c2.785,0.159,5.172-1.971,5.331-4.756c0.158-2.785-1.971-5.172-4.756-5.33
			c-2.785-0.159-5.172,1.971-5.331,4.756c0,0.001,0,0.003,0,0.004C2075.106,1088.44,2077.235,1090.824,2080.019,1090.983z"/>
		<path style="fill:#FFFFFF;" d="M2079.965,1122.774c3.98,0.223,7.388-2.823,7.611-6.803c0.223-3.98-2.823-7.388-6.803-7.611
			c-3.977-0.223-7.382,2.817-7.61,6.793C2072.938,1119.135,2075.982,1122.547,2079.965,1122.774z"/>
		<path style="fill:#FFFFFF;" d="M2040.855,1196.459c3.56-1.795,4.991-6.135,3.196-9.695s-6.135-4.99-9.695-3.196
			s-4.99,6.135-3.196,9.695c0,0.001,0.001,0.002,0.001,0.003C2032.957,1196.824,2037.296,1198.253,2040.855,1196.459z"/>
		<path style="fill:#FFFFFF;" d="M2084.627,1133.306c-3.716,5.671-2.131,13.281,3.54,16.997c5.671,3.716,13.281,2.131,16.997-3.54
			s2.131-13.281-3.54-16.997c-1.995-1.307-4.328-2.005-6.713-2.008C2090.767,1127.755,2086.901,1129.841,2084.627,1133.306z"/>
		<path style="fill:#FFFFFF;" d="M2105.973,1184.646c-3.053-6.054-10.435-8.487-16.489-5.434s-8.487,10.435-5.434,16.489
			c2.087,4.138,6.327,6.749,10.961,6.749c1.922-0.013,3.814-0.473,5.528-1.342
			C2106.575,1198.053,2109.004,1190.693,2105.973,1184.646z"/>
		<path style="fill:#FFFFFF;" d="M2127.427,1183.787c-3.333-2.188-7.808-1.26-9.996,2.073c-2.188,3.333-1.26,7.808,2.073,9.995
			s7.808,1.26,9.995-2.073C2131.68,1190.448,2130.753,1185.979,2127.427,1183.787z"/>
		<path style="fill:#FFFFFF;" d="M2150.933,1165.345c0.191-3.381-2.395-6.276-5.776-6.467c-3.381-0.191-6.277,2.395-6.467,5.776
			c-0.191,3.378,2.392,6.273,5.77,6.467C2147.842,1171.312,2150.739,1168.727,2150.933,1165.345z"/>
		<path style="fill:#FFFFFF;" d="M2167.919,1160.978c-2.19-0.126-4.067,1.547-4.193,3.737s1.547,4.067,3.737,4.193
			c2.19,0.126,4.067-1.547,4.193-3.737c0,0,0,0,0,0C2171.778,1162.983,2170.107,1161.108,2167.919,1160.978z"/>
		<path style="fill:#FFFFFF;" d="M2151.926,1200.357c-2.334-1.529-5.465-0.876-6.993,1.458c-1.529,2.334-0.876,5.465,1.458,6.994
			c2.332,1.528,5.461,0.877,6.991-1.455c1.53-2.333,0.88-5.464-1.452-6.995C2151.928,1200.358,2151.927,1200.357,2151.926,1200.357z
			"/>
		<path style="fill:#FFFFFF;" d="M2039.225,1237.434c-1.834-1.203-4.296-0.692-5.499,1.142c-1.203,1.834-0.692,4.296,1.142,5.499
			c1.833,1.203,4.294,0.693,5.498-1.14c1.204-1.833,0.694-4.295-1.139-5.5C2039.226,1237.435,2039.225,1237.434,2039.225,1237.434z"
			/>
		<path style="fill:#FFFFFF;" d="M2122.463,1237.018c-1.958,0.987-2.746,3.375-1.759,5.334c0.987,1.959,3.375,2.746,5.334,1.759
			c1.958-0.987,2.746-3.375,1.759-5.334c0,0,0-0.001-0.001-0.001c-0.983-1.957-3.366-2.746-5.323-1.763
			C2122.47,1237.015,2122.466,1237.016,2122.463,1237.018z"/>
		<path style="fill:#FFFFFF;" d="M2076.336,1196.942c3.716-5.671,2.131-13.281-3.54-16.997s-13.281-2.131-16.997,3.54
			s-2.131,13.281,3.54,16.997c1.997,1.308,4.332,2.006,6.719,2.008C2070.203,1202.504,2074.073,1200.415,2076.336,1196.942z"/>
		<path style="fill:#FFFFFF;" d="M2051.803,1215.786c-2.834-1.854-6.634-1.059-8.488,1.774c-1.854,2.834-1.059,6.634,1.774,8.488
			c2.832,1.853,6.629,1.061,8.484-1.769C2055.428,1221.444,2054.635,1217.643,2051.803,1215.786z"/>
		<path style="fill:#FFFFFF;" d="M2080.428,1239.286c-2.785-0.158-5.172,1.971-5.33,4.756c-0.158,2.785,1.971,5.172,4.756,5.33
			c2.784,0.158,5.17-1.969,5.33-4.753c0.16-2.785-1.968-5.173-4.753-5.333C2080.43,1239.286,2080.429,1239.286,2080.428,1239.286z"
			/>
		<path style="fill:#FFFFFF;" d="M2080.481,1207.501c-3.979-0.242-7.401,2.788-7.643,6.767c-0.242,3.979,2.788,7.401,6.767,7.643
			s7.401-2.788,7.643-6.767c0-0.01,0.001-0.019,0.002-0.029C2087.479,1211.145,2084.451,1207.739,2080.481,1207.501z"/>
		<path style="fill:#FFFFFF;" d="M2110.005,1215.296c-3.023,1.534-4.23,5.228-2.697,8.251c1.534,3.023,5.228,4.23,8.251,2.696
			c3.023-1.534,4.23-5.228,2.696-8.251c-0.002-0.004-0.004-0.009-0.007-0.013c-1.531-3.016-5.218-4.22-8.234-2.689
			C2110.012,1215.293,2110.009,1215.294,2110.005,1215.296z"/>
		<path style="fill:#FFFFFF;" d="M2245.475,1136.13c11.887,0,20.212,6.534,20.212,18.663h15.57c0-21.279-15.691-31.53-36.018-31.53
			c-24.969,0-39.472,13.558-39.472,42.209c0,29.363,14.504,42.203,39.472,42.203c20.568,0,36.018-9.982,36.018-31.268h-14.98
			c0,11.887-8.204,18.428-20.796,18.428c-16.53,0-24.15-9.157-24.15-28.175v-2.375
			C2221.345,1145.636,2229.066,1136.13,2245.475,1136.13z"/>
		<path style="fill:#FFFFFF;" d="M2322.427,1124.713l-31.744,81.561h15.698l6.534-17.717h37.305l6.708,17.717h16.409l-31.764-81.561
			H2322.427z M2317.671,1175.697l8.325-22.359c1.664-4.394,4.635-13.907,5.232-15.57h0.59c0.597,1.664,3.569,11.29,5.233,15.57
			l8.318,22.352L2317.671,1175.697z"/>
		<path style="fill:#FFFFFF;" d="M2458.226,1149.44c0-15.094-8.681-24.727-26.632-24.727h-43.041v81.561h15.221v-31.53h25.317
			l15.429,31.53h16.644l-17.442-33.884C2453.349,1168.586,2458.226,1160.502,2458.226,1149.44z M2430.399,1161.924h-26.626v-24.251
			h26.626c8.204,0,12.484,4.401,12.484,11.767C2442.884,1157.175,2438.248,1161.924,2430.399,1161.924z"/>
		<path style="fill:#FFFFFF;" d="M2511.611,1124.713h-32.589v81.561h32.576c24.606,0,39.58-12.84,39.58-40.78
			S2536.218,1124.713,2511.611,1124.713z M2535.627,1166.68c-0.121,17.838-8.56,26.632-24.016,26.632h-17.354v-55.64h17.354
			c15.429,0,24.016,8.801,24.016,26.632V1166.68z"/>
		<path style="fill:#FFFFFF;" d="M2591.052,1124.713l-31.758,81.561h15.691l6.541-17.717h37.332l6.655,17.717h16.409l-31.744-81.561
			H2591.052z M2586.296,1175.697l8.312-22.359c1.664-4.394,4.635-13.907,5.233-15.57h0.604c0.59,1.664,3.569,11.29,5.232,15.57
			l8.319,22.352L2586.296,1175.697z"/>
		<path style="fill:#FFFFFF;" d="M2711.495,1173.221c0,1.543,0.235,5.702,0.235,6.42l-0.59,0.235
			c-0.356-0.47-2.737-4.635-4.025-6.534l-35.427-48.629h-14.524v81.561h14.625v-48.864c0-2.012-0.242-5.944-0.242-6.541l0.597-0.356
			c0.355,0.476,2.14,3.924,4.025,6.661l35.668,49.099h14.262v-81.561h-14.618v48.509H2711.495z"/>
		<path style="fill:#FFFFFF;" d="M2786.723,1123.29c-25.559,0-41.015,13.551-41.015,42.203c0,28.652,15.429,42.203,41.015,42.203
			s41.136-13.551,41.136-42.203C2827.859,1136.841,2812.282,1123.29,2786.723,1123.29z M2812.282,1166.801
			c0,18.663-8.916,28.055-25.559,28.055c-16.523,0-25.438-9.392-25.438-28.055v-2.495c0-18.67,9.036-28.175,25.438-28.175
			c16.53,0,25.559,9.506,25.559,28.175V1166.801z"/>
	</g>
	
		<rect x="174.934" y="958.722" style="fill:#E6E6E6;stroke:#000000;stroke-width:6;stroke-miterlimit:10;" width="240.387" height="129.652"/>
	
		<rect x="1055.76" y="1775.851" style="fill:#E6E6E6;stroke:#000000;stroke-width:7;stroke-miterlimit:10;" width="240.387" height="129.652"/>
	
		<rect x="998.889" y="1723.642" style="fill:#E6E6E6;stroke:#000000;stroke-width:7;stroke-miterlimit:10;" width="240.387" height="129.652"/>
	
		<rect x="942.018" y="1671.432" style="fill:#E6E6E6;stroke:#000000;stroke-width:7;stroke-miterlimit:10;" width="240.387" height="129.652"/>
	
		<rect x="3575.76" y="2192.518" style="fill:#E6E6E6;stroke:#000000;stroke-width:7;stroke-miterlimit:10;" width="240.387" height="129.652"/>
	
		<rect x="3518.889" y="2140.308" style="fill:#E6E6E6;stroke:#000000;stroke-width:7;stroke-miterlimit:10;" width="240.387" height="129.652"/>
	
		<rect x="3462.018" y="2088.099" style="fill:#E6E6E6;stroke:#000000;stroke-width:7;stroke-miterlimit:10;" width="240.387" height="129.652"/>
	
		<rect x="3665.76" y="1822.518" style="fill:#E6E6E6;stroke:#000000;stroke-width:7;stroke-miterlimit:10;" width="240.387" height="129.652"/>
	
		<rect x="3608.889" y="1770.308" style="fill:#E6E6E6;stroke:#000000;stroke-width:7;stroke-miterlimit:10;" width="240.387" height="129.652"/>
	
		<rect x="3552.018" y="1718.099" style="fill:#E6E6E6;stroke:#000000;stroke-width:7;stroke-miterlimit:10;" width="240.387" height="129.652"/>
	
		<rect x="3705.76" y="1379.184" style="fill:#E6E6E6;stroke:#000000;stroke-width:7;stroke-miterlimit:10;" width="240.387" height="129.652"/>
	
		<rect x="3648.889" y="1326.975" style="fill:#E6E6E6;stroke:#000000;stroke-width:7;stroke-miterlimit:10;" width="240.387" height="129.652"/>
	
		<rect x="3592.018" y="1274.765" style="fill:#E6E6E6;stroke:#000000;stroke-width:7;stroke-miterlimit:10;" width="240.387" height="129.652"/>
	
		<rect x="3615.76" y="1035.851" style="fill:#E6E6E6;stroke:#000000;stroke-width:7;stroke-miterlimit:10;" width="240.387" height="129.652"/>
	
		<rect x="3558.889" y="983.642" style="fill:#E6E6E6;stroke:#000000;stroke-width:7;stroke-miterlimit:10;" width="240.387" height="129.652"/>
	
		<rect x="3502.018" y="931.432" style="fill:#E6E6E6;stroke:#000000;stroke-width:7;stroke-miterlimit:10;" width="240.387" height="129.652"/>
	
		<rect x="1459.67" y="2185.228" style="fill:#88E8F2;stroke:#000000;stroke-width:7;stroke-miterlimit:10;" width="240.387" height="129.652"/>
	
		<rect x="2549.504" y="2322.395" style="fill:#88E8F2;stroke:#000000;stroke-width:7;stroke-miterlimit:10;" width="240.387" height="129.652"/>
	
		<rect x="2492.633" y="2270.185" style="fill:#88E8F2;stroke:#000000;stroke-width:7;stroke-miterlimit:10;" width="240.387" height="129.652"/>
	
		<rect x="1361.182" y="857.719" style="fill:#C68BFF;stroke:#000000;stroke-width:7;stroke-miterlimit:10;" width="240.387" height="129.652"/>
	
		<rect x="862.871" y="1347.452" style="fill:#C68BFF;stroke:#000000;stroke-width:7;stroke-miterlimit:10;" width="240.387" height="129.652"/>
	<circle style="fill:#5181F6;stroke:#000000;stroke-width:6;stroke-miterlimit:10;" cx="2165.371" cy="1915.868" r="129.182"/>
	<circle style="fill:#5181F6;stroke:#000000;stroke-width:6;stroke-miterlimit:10;" cx="1528.704" cy="1475.868" r="129.182"/>
	<line style="fill:none;stroke:#88E8F2;stroke-width:12;stroke-miterlimit:10;" x1="1610" y1="2184" x2="2100" y2="1940.667"/>
	
		<rect x="1402.799" y="2133.019" style="fill:#88E8F2;stroke:#000000;stroke-width:7;stroke-miterlimit:10;" width="240.387" height="129.652"/>
	
		<rect x="1345.928" y="2080.809" style="fill:#88E8F2;stroke:#000000;stroke-width:7;stroke-miterlimit:10;" width="240.387" height="129.652"/>
	
		<line style="fill:none;stroke:#88E8F2;stroke-width:12;stroke-miterlimit:10;" x1="2566.667" y1="2250.667" x2="2228.539" y2="1933.203"/>
	
		<line style="fill:none;stroke:#5181F6;stroke-width:12;stroke-miterlimit:10;" x1="2096.667" y1="1887.334" x2="1556.667" y2="1517.334"/>
	
		<rect x="2074.025" y="1824.522" transform="matrix(0.7071 -0.7071 0.7071 0.7071 -720.5005 2092.293)" style="fill:#3EC2CF;stroke:#231F20;stroke-width:6.8317;stroke-miterlimit:10;" width="182.691" height="182.691"/>
	
		<rect x="2107.14" y="2001.573" style="fill:#E6E6E6;stroke:#000000;stroke-width:7;stroke-miterlimit:10;" width="240.387" height="129.652"/>
	
		<line style="fill:none;stroke:#C68BFF;stroke-width:12;stroke-miterlimit:10;" x1="1019.652" y1="1346.538" x2="1424.096" y2="1480.76"/>
	
		<rect x="806" y="1295.242" style="fill:#C68BFF;stroke:#000000;stroke-width:7;stroke-miterlimit:10;" width="240.387" height="129.652"/>
	
		<rect x="749.129" y="1243.033" style="fill:#C68BFF;stroke:#000000;stroke-width:7;stroke-miterlimit:10;" width="240.387" height="129.652"/>
	
		<line style="fill:none;stroke:#C68BFF;stroke-width:12;stroke-miterlimit:10;" x1="922.763" y1="957.205" x2="1478.318" y2="1414.093"/>
	
		<line style="fill:none;stroke:#C68BFF;stroke-width:12;stroke-miterlimit:10;" x1="1388.54" y1="916.317" x2="1531.651" y2="1374.982"/>
	
		<rect x="1304.311" y="805.51" style="fill:#C68BFF;stroke:#000000;stroke-width:7;stroke-miterlimit:10;" width="240.387" height="129.652"/>
	
		<rect x="1437.358" y="1384.522" transform="matrix(0.7071 -0.7071 0.7071 0.7071 -595.8489 1513.2285)" style="fill:#9510AC;stroke:#231F20;stroke-width:6;stroke-miterlimit:10;" width="182.691" height="182.691"/>
	
		<rect x="2435.762" y="2217.976" style="fill:#88E8F2;stroke:#000000;stroke-width:7;stroke-miterlimit:10;" width="240.387" height="129.652"/>
	<circle style="fill:#5181F6;stroke:#000000;stroke-width:6;stroke-miterlimit:10;" cx="2803.333" cy="1852.334" r="129.182"/>
	
		<rect x="2784.375" y="1902.24" style="fill:#E6E6E6;stroke:#000000;stroke-width:7;stroke-miterlimit:10;" width="240.387" height="129.652"/>
	
		<line style="fill:none;stroke:#FF5553;stroke-width:12;stroke-miterlimit:10;" x1="2040.094" y1="1030.983" x2="1455.207" y2="813.206"/>
	
		<rect x="1247.44" y="753.3" style="fill:#C68BFF;stroke:#000000;stroke-width:7;stroke-miterlimit:10;" width="240.387" height="129.652"/>
	
		<line style="fill:none;stroke:#000000;stroke-width:12;stroke-miterlimit:10;" x1="338.32" y1="978.983" x2="738.319" y2="976.316"/>
	
		<rect x="708.855" y="904.449" style="fill:#C68BFF;stroke:#000000;stroke-width:7;stroke-miterlimit:10;" width="240.387" height="129.652"/>
	
		<rect x="118.063" y="906.512" style="fill:#E6E6E6;stroke:#000000;stroke-width:6;stroke-miterlimit:10;" width="240.387" height="129.652"/>
	
		<rect x="61.192" y="854.303" style="fill:#E6E6E6;stroke:#000000;stroke-width:6;stroke-miterlimit:10;" width="240.387" height="129.652"/>
</g>
<g id="Type">
	<g>
		<path d="M730.922,260.105c-11.016,0-21.328-1.588-30.94-4.76c-9.616-3.172-18.016-8.304-25.2-15.4
			c-7.188-7.092-12.836-16.38-16.94-27.86c-4.108-11.48-6.16-25.523-6.16-42.14v-17.36c0-16.24,2.052-30.1,6.16-41.58
			c4.104-11.48,9.752-20.812,16.94-28c7.184-7.184,15.492-12.412,24.92-15.68c9.424-3.264,19.552-4.9,30.38-4.9h4.2
			c10.08,0,19.644,1.4,28.7,4.2c9.052,2.8,17.032,7.236,23.94,13.3c6.904,6.068,12.364,14,16.38,23.8c4.012,9.8,6.02,21.7,6.02,35.7
			h-32.76c0-13.252-1.917-23.472-5.74-30.66c-3.828-7.184-9.1-12.224-15.82-15.12c-6.72-2.892-14.376-4.34-22.96-4.34
			c-6.348,0-12.228,0.936-17.64,2.8c-5.416,1.868-10.08,4.948-14,9.24c-3.92,4.296-6.956,10.036-9.1,17.22
			c-2.148,7.188-3.22,16.1-3.22,26.74v31.92c0,14.188,1.864,25.34,5.6,33.46c3.731,8.12,8.912,13.908,15.54,17.36
			c6.624,3.456,14.232,5.18,22.82,5.18c9.144,0,17.124-1.444,23.94-4.34c6.812-2.892,12.132-7.932,15.96-15.12
			c3.824-7.184,5.74-17.312,5.74-30.38h31.64c0,13.44-1.96,25.016-5.88,34.72c-3.92,9.708-9.288,17.64-16.1,23.8
			c-6.816,6.16-14.7,10.736-23.66,13.72c-8.96,2.984-18.48,4.48-28.56,4.48H730.922z"/>
		<path d="M904.521,260.105c-12.696,0-24.08-2.892-34.16-8.68c-10.08-5.784-17.968-14.092-23.66-24.92
			c-5.696-10.824-8.54-23.612-8.54-38.36v-4.76c0-14.932,2.844-27.764,8.54-38.5c5.692-10.732,13.532-18.992,23.52-24.78
			c9.983-5.784,21.324-8.68,34.02-8.68h4.48c12.88,0,24.312,2.896,34.3,8.68c9.984,5.788,17.824,14.048,23.52,24.78
			c5.692,10.736,8.54,23.568,8.54,38.5v4.76c0,14.748-2.848,27.537-8.54,38.36c-5.696,10.828-13.536,19.136-23.52,24.92
			c-9.988,5.788-21.328,8.68-34.02,8.68H904.521z M906.481,237.985c6.532,0,12.364-1.54,17.5-4.62c5.132-3.08,9.24-7.7,12.32-13.86
			c3.08-6.16,4.62-13.624,4.62-22.4v-22.68c0-8.96-1.54-16.472-4.62-22.54c-3.08-6.064-7.188-10.64-12.32-13.72
			c-5.136-3.08-10.968-4.62-17.5-4.62c-6.348,0-12.088,1.54-17.22,4.62c-5.136,3.08-9.24,7.656-12.32,13.72
			c-3.08,6.068-4.62,13.58-4.62,22.54v22.68c0,8.776,1.54,16.24,4.62,22.4c3.08,6.16,7.184,10.78,12.32,13.86
			C894.394,236.445,900.133,237.985,906.481,237.985z"/>
		<path d="M1010.358,257.305v-143.08h24.36l4.48,21c4.852-7.464,10.64-13.3,17.36-17.5c6.72-4.2,14.652-6.3,23.8-6.3
			c9.332,0,17.64,1.82,24.92,5.46c7.28,3.64,12.972,9.568,17.08,17.78c4.292-7.092,10.032-12.74,17.22-16.94
			c7.184-4.2,15.724-6.3,25.62-6.3c9.144,0,17.264,1.868,24.36,5.6c7.092,3.736,12.644,9.196,16.66,16.38
			c4.012,7.188,6.02,16.008,6.02,26.46v97.44h-32.48v-90.44c0-10.824-2.148-18.62-6.44-23.38c-4.296-4.76-10.457-7.14-18.48-7.14
			c-5.229,0-9.896,1.356-14,4.06c-4.108,2.708-7.328,6.488-9.66,11.34c-2.336,4.856-3.5,10.36-3.5,16.52v89.04h-32.48v-90.44
			c0-10.824-2.196-18.62-6.58-23.38c-4.388-4.76-10.596-7.14-18.62-7.14c-5.228,0-9.896,1.356-14,4.06
			c-4.108,2.708-7.328,6.488-9.66,11.34c-2.336,4.856-3.5,10.36-3.5,16.52v89.04H1010.358z"/>
		<path d="M1325.634,260.105c-21.096,0-37.148-8.492-48.16-25.48l-11.2,22.68h-12.04v-201.6h32.48v76.16
			c3.731-5.412,9.192-10.172,16.38-14.28c7.184-4.104,15.632-6.16,25.34-6.16c10.264,0,19.644,2.38,28.14,7.14
			c8.492,4.76,15.26,12.137,20.3,22.12c5.04,9.988,7.56,22.82,7.56,38.5v6.44c0,17.176-2.66,31.268-7.98,42.28
			c-5.32,11.016-12.416,19.136-21.28,24.36C1346.306,257.489,1336.458,260.105,1325.634,260.105z M1319.194,237.985
			c5.972,0,11.292-1.492,15.96-4.48c4.664-2.984,8.352-7.652,11.06-14c2.704-6.344,4.06-14.652,4.06-24.92v-19.88
			c0-9.144-1.308-16.704-3.92-22.68c-2.616-5.972-6.16-10.452-10.64-13.44c-4.48-2.983-9.708-4.48-15.68-4.48
			c-5.976,0-11.48,1.497-16.52,4.48c-5.04,2.988-9.1,7.517-12.18,13.58c-3.08,6.068-4.62,13.676-4.62,22.82v19.88
			c0,10.268,1.443,18.576,4.34,24.92c2.892,6.348,6.812,10.968,11.76,13.86C1307.758,236.541,1313.218,237.985,1319.194,237.985z"/>
		<path d="M1420.831,82.025v-26.32h34.16v26.32H1420.831z M1421.671,257.305v-143.08h32.48v143.08H1421.671z"/>
		<path d="M1497.551,257.305v-143.08h23.8l4.2,21c5.412-7.84,12.132-13.764,20.16-17.78c8.024-4.012,16.984-6.02,26.88-6.02
			c9.892,0,18.572,1.868,26.04,5.6c7.464,3.736,13.3,9.196,17.5,16.38c4.2,7.188,6.3,16.008,6.3,26.46v97.44h-32.48v-91.56
			c0-10.64-2.477-18.244-7.42-22.82c-4.948-4.572-11.808-6.86-20.58-6.86c-5.788,0-11.108,1.448-15.96,4.34
			c-4.856,2.896-8.729,6.768-11.62,11.62c-2.896,4.856-4.34,10.36-4.34,16.52v88.76H1497.551z"/>
		<path d="M1723.789,260.105c-13.068,0-24.548-2.756-34.44-8.26c-9.896-5.504-17.596-13.58-23.1-24.22
			c-5.508-10.64-8.26-23.52-8.26-38.64v-6.44c0-15.12,2.94-28,8.82-38.64s13.904-18.712,24.08-24.22
			c10.172-5.503,21.792-8.26,34.86-8.26h3.64c12.132,0,22.771,2.476,31.92,7.42c9.144,4.948,16.24,11.996,21.28,21.14
			c5.04,9.148,7.56,19.88,7.56,32.2v17.64h-98.28c0,9.896,1.304,18.48,3.92,25.76c2.612,7.28,6.484,12.836,11.62,16.66
			c5.132,3.828,11.523,5.74,19.18,5.74c6.344,0,11.992-1.26,16.94-3.78c4.944-2.52,8.864-6.3,11.76-11.34
			c2.892-5.04,4.34-11.292,4.34-18.76h30.52c0,11.2-2.8,21-8.4,29.4c-5.6,8.4-13.16,14.936-22.68,19.6c-9.52,4.664-20.348,7-32.48,7
			H1723.789z M1692.149,171.905h66.08c0-13.064-2.848-22.724-8.54-28.98c-5.696-6.252-13.488-9.38-23.38-9.38
			c-9.336,0-17.22,3.22-23.66,9.66S1692.709,159.213,1692.149,171.905z"/>
		<path d="M1878.906,260.105c-10.828,0-20.72-2.616-29.68-7.84c-8.96-5.224-16.148-13.344-21.56-24.36
			c-5.417-11.012-8.12-25.104-8.12-42.28v-3.08c0-15.68,2.563-28.792,7.7-39.34c5.132-10.543,11.944-18.48,20.44-23.8
			c8.492-5.32,17.872-7.98,28.14-7.98c10.08,0,18.664,1.916,25.76,5.74c7.092,3.828,12.503,8.728,16.24,14.7v-76.16h32.48v201.6
			h-25.2l-3.92-19.32c-4.668,6.72-10.457,12.088-17.36,16.1C1896.917,258.097,1888.609,260.105,1878.906,260.105z M1885.346,237.985
			c5.972,0,11.384-1.444,16.24-4.34c4.852-2.892,8.772-7.512,11.76-13.86c2.984-6.344,4.48-14.652,4.48-24.92v-19.88
			c0-9.144-1.448-16.752-4.34-22.82c-2.896-6.063-6.816-10.592-11.76-13.58c-4.948-2.983-10.408-4.48-16.38-4.48
			c-8.96,0-16.476,3.408-22.54,10.22c-6.068,6.816-9.1,17.036-9.1,30.66v19.6c0,10.269,1.4,18.577,4.2,24.92
			c2.8,6.348,6.58,11.016,11.34,14C1874.006,236.493,1879.37,237.985,1885.346,237.985z"/>
		<path d="M2056.7,257.305V65.225h34.72v80.08h77.561v-80.08h34.72v192.08h-34.44v-84h-77.56v84H2056.7z"/>
		<path d="M2305.621,260.105c-13.068,0-24.548-2.756-34.44-8.26c-9.896-5.504-17.596-13.58-23.1-24.22
			c-5.509-10.64-8.261-23.52-8.261-38.64v-6.44c0-15.12,2.94-28,8.82-38.64s13.904-18.712,24.08-24.22
			c10.172-5.503,21.792-8.26,34.86-8.26h3.64c12.132,0,22.772,2.476,31.92,7.42c9.145,4.948,16.24,11.996,21.28,21.14
			c5.04,9.148,7.561,19.88,7.561,32.2v17.64h-98.28c0,9.896,1.304,18.48,3.92,25.76c2.611,7.28,6.483,12.836,11.62,16.66
			c5.132,3.828,11.523,5.74,19.18,5.74c6.344,0,11.992-1.26,16.94-3.78c4.943-2.52,8.863-6.3,11.76-11.34
			c2.892-5.04,4.34-11.292,4.34-18.76h30.521c0,11.2-2.801,21-8.4,29.4c-5.6,8.4-13.16,14.936-22.68,19.6
			c-9.521,4.664-20.349,7-32.48,7H2305.621z M2273.981,171.905h66.079c0-13.064-2.848-22.724-8.539-28.98
			c-5.696-6.252-13.488-9.38-23.381-9.38c-9.336,0-17.22,3.22-23.659,9.66C2278.041,149.645,2274.541,159.213,2273.981,171.905z"/>
		<path d="M2444.778,260.105c-7.656,0-14.979-1.216-21.979-3.64s-12.74-6.58-17.221-12.46c-4.479-5.88-6.72-13.86-6.72-23.94
			c0-10.264,2.284-18.572,6.86-24.92c4.571-6.344,11.06-11.2,19.46-14.56c8.399-3.36,18.479-5.644,30.239-6.86
			c11.761-1.212,24.824-1.82,39.2-1.82v-13.44c0-9.332-2.38-15.912-7.14-19.74c-4.76-3.824-11.996-5.74-21.7-5.74
			c-8.028,0-15.12,1.776-21.28,5.32c-6.16,3.548-9.239,9.148-9.239,16.8v2.8h-31.36c-0.188-0.744-0.28-1.632-0.28-2.66
			c0-1.024,0-2.004,0-2.94c0-8.212,2.563-15.4,7.7-21.56c5.132-6.16,12.271-10.92,21.42-14.28c9.144-3.36,19.6-5.04,31.36-5.04h4.76
			c19.412,0,33.88,3.828,43.4,11.48c9.52,7.656,14.279,18.388,14.279,32.2v73.08c0,3.548,0.84,6.068,2.521,7.56
			c1.68,1.496,3.544,2.24,5.6,2.24c1.864,0,3.872-0.372,6.021-1.12c2.144-0.744,4.151-1.584,6.02-2.52v19.88
			c-2.428,1.868-5.508,3.312-9.24,4.34c-3.736,1.024-8.216,1.54-13.439,1.54c-6.16,0-11.248-1.12-15.26-3.36
			c-4.017-2.24-7.049-5.272-9.101-9.1c-2.056-3.824-3.268-8.164-3.64-13.02c-5.416,8.028-12.416,14.28-21,18.76
			C2466.431,257.865,2456.351,260.105,2444.778,260.105z M2458.778,237.985c5.972,0,11.664-1.352,17.08-4.06
			c5.412-2.704,9.892-6.764,13.44-12.18c3.543-5.412,5.319-12.224,5.319-20.44v-10.92c-13.068,0-24.268,0.7-33.6,2.1
			c-9.337,1.4-16.429,3.968-21.28,7.7c-4.856,3.736-7.28,9.336-7.28,16.8c0,7.468,2.24,12.836,6.721,16.1
			C2443.658,236.353,2450.19,237.985,2458.778,237.985z"/>
		<path d="M2629.295,260.105c-10.828,0-20.72-2.616-29.68-7.84s-16.148-13.344-21.561-24.36c-5.416-11.012-8.12-25.104-8.12-42.28
			v-3.08c0-15.68,2.564-28.792,7.7-39.34c5.132-10.543,11.944-18.48,20.44-23.8c8.491-5.32,17.872-7.98,28.14-7.98
			c10.08,0,18.664,1.916,25.76,5.74c7.092,3.828,12.504,8.728,16.24,14.7v-76.16h32.48v201.6h-25.2l-3.92-19.32
			c-4.668,6.72-10.456,12.088-17.36,16.1C2647.307,258.097,2638.999,260.105,2629.295,260.105z M2635.735,237.985
			c5.972,0,11.384-1.444,16.239-4.34c4.853-2.892,8.772-7.512,11.761-13.86c2.983-6.344,4.479-14.652,4.479-24.92v-19.88
			c0-9.144-1.448-16.752-4.34-22.82c-2.896-6.063-6.816-10.592-11.76-13.58c-4.948-2.983-10.408-4.48-16.38-4.48
			c-8.96,0-16.477,3.408-22.54,10.22c-6.068,6.816-9.101,17.036-9.101,30.66v19.6c0,10.269,1.4,18.577,4.2,24.92
			c2.8,6.348,6.58,11.016,11.34,14C2624.395,236.493,2629.759,237.985,2635.735,237.985z"/>
		<path d="M2719.733,305.185l137.2-239.96h25.479l-136.92,239.96H2719.733z"/>
		<path d="M2954.089,257.305v-165.2h-57.4v-26.88h149.521v26.88h-57.4v165.2H2954.089z"/>
		<path d="M3099.127,260.105c-7.656,0-14.979-1.216-21.979-3.64s-12.74-6.58-17.221-12.46c-4.479-5.88-6.72-13.86-6.72-23.94
			c0-10.264,2.284-18.572,6.86-24.92c4.571-6.344,11.06-11.2,19.46-14.56c8.399-3.36,18.479-5.644,30.239-6.86
			c11.761-1.212,24.824-1.82,39.2-1.82v-13.44c0-9.332-2.38-15.912-7.14-19.74c-4.76-3.824-11.996-5.74-21.7-5.74
			c-8.028,0-15.12,1.776-21.28,5.32c-6.16,3.548-9.239,9.148-9.239,16.8v2.8h-31.36c-0.188-0.744-0.28-1.632-0.28-2.66
			c0-1.024,0-2.004,0-2.94c0-8.212,2.563-15.4,7.7-21.56c5.132-6.16,12.271-10.92,21.42-14.28c9.144-3.36,19.6-5.04,31.36-5.04h4.76
			c19.412,0,33.88,3.828,43.4,11.48c9.52,7.656,14.279,18.388,14.279,32.2v73.08c0,3.548,0.84,6.068,2.521,7.56
			c1.68,1.496,3.544,2.24,5.6,2.24c1.864,0,3.872-0.372,6.021-1.12c2.144-0.744,4.151-1.584,6.02-2.52v19.88
			c-2.428,1.868-5.508,3.312-9.24,4.34c-3.736,1.024-8.216,1.54-13.439,1.54c-6.16,0-11.248-1.12-15.26-3.36
			c-4.017-2.24-7.049-5.272-9.101-9.1c-2.056-3.824-3.268-8.164-3.64-13.02c-5.416,8.028-12.416,14.28-21,18.76
			C3120.779,257.865,3110.699,260.105,3099.127,260.105z M3113.127,237.985c5.972,0,11.664-1.352,17.08-4.06
			c5.412-2.704,9.892-6.764,13.44-12.18c3.543-5.412,5.319-12.224,5.319-20.44v-10.92c-13.068,0-24.268,0.7-33.6,2.1
			c-9.337,1.4-16.429,3.968-21.28,7.7c-4.856,3.736-7.28,9.336-7.28,16.8c0,7.468,2.24,12.836,6.721,16.1
			C3098.007,236.353,3104.539,237.985,3113.127,237.985z"/>
		<path d="M3231.563,82.025v-26.32h34.16v26.32H3231.563z M3232.403,257.305v-143.08h32.48v143.08H3232.403z"/>
		<path d="M3310.24,257.305v-201.6h32.48v201.6H3310.24z"/>
	</g>
	
		<rect x="1257.367" y="380.404" style="fill:none;stroke:#000000;stroke-width:6;stroke-miterlimit:10;" width="185.409" height="100"/>
	
		<rect x="2088.81" y="364.996" transform="matrix(0.7071 -0.7071 0.7071 0.7071 326.6145 1649.3242)" style="fill:none;stroke:#231F20;stroke-width:6;stroke-miterlimit:10;" width="130.815" height="130.815"/>
	<g>
		<path d="M1532.971,451.15v-48.38h-16.81v-7.872h43.788v7.872h-16.81v48.38H1532.971z"/>
		<path d="M1575.447,451.969c-2.242,0-4.387-0.356-6.437-1.066c-2.05-0.71-3.731-1.927-5.043-3.649s-1.968-4.059-1.968-7.011
			c0-3.006,0.669-5.439,2.009-7.298c1.339-1.858,3.239-3.28,5.699-4.264c2.46-0.984,5.412-1.653,8.856-2.009
			c3.444-0.355,7.27-0.533,11.48-0.533v-3.936c0-2.733-0.697-4.66-2.091-5.781c-1.394-1.12-3.513-1.681-6.355-1.681
			c-2.351,0-4.428,0.521-6.232,1.558c-1.804,1.039-2.706,2.679-2.706,4.92v0.82h-9.184c-0.055-0.218-0.082-0.478-0.082-0.779
			c0-0.3,0-0.586,0-0.861c0-2.405,0.751-4.51,2.255-6.314c1.503-1.804,3.594-3.198,6.273-4.182c2.678-0.984,5.74-1.476,9.184-1.476
			h1.394c5.685,0,9.922,1.121,12.71,3.362c2.788,2.242,4.182,5.385,4.182,9.43v21.402c0,1.039,0.246,1.777,0.738,2.214
			c0.492,0.438,1.038,0.656,1.64,0.656c0.546,0,1.134-0.109,1.763-0.328c0.628-0.218,1.216-0.464,1.763-0.738v5.822
			c-0.711,0.547-1.613,0.97-2.706,1.271c-1.094,0.3-2.406,0.451-3.936,0.451c-1.804,0-3.294-0.328-4.469-0.984
			c-1.176-0.656-2.064-1.544-2.665-2.665c-0.602-1.12-0.957-2.391-1.066-3.813c-1.586,2.351-3.636,4.182-6.15,5.494
			C1581.788,451.314,1578.835,451.969,1575.447,451.969z M1579.547,445.491c1.749,0,3.416-0.396,5.002-1.189
			c1.585-0.792,2.897-1.98,3.936-3.567c1.038-1.585,1.558-3.58,1.558-5.986v-3.198c-3.827,0-7.107,0.205-9.84,0.615
			c-2.734,0.41-4.811,1.162-6.232,2.255c-1.422,1.094-2.132,2.734-2.132,4.92c0,2.187,0.656,3.759,1.968,4.715
			C1575.119,445.014,1577.032,445.491,1579.547,445.491z"/>
		<path d="M1614.232,399.818v-7.708h10.004v7.708H1614.232z M1614.478,451.15v-41.902h9.512v41.902H1614.478z"/>
		<path d="M1637.273,451.15v-59.04h9.512v59.04H1637.273z"/>
		<path d="M1699.264,451.969c-3.226,0-6.246-0.465-9.061-1.394c-2.816-0.929-5.276-2.432-7.38-4.51
			c-2.105-2.077-3.759-4.797-4.961-8.159c-1.203-3.362-1.804-7.475-1.804-12.341v-5.084c0-4.756,0.601-8.815,1.804-12.177
			c1.202-3.362,2.856-6.095,4.961-8.2c2.104-2.104,4.537-3.635,7.298-4.592c2.76-0.956,5.726-1.435,8.897-1.435h1.23
			c2.952,0,5.753,0.41,8.405,1.23c2.651,0.82,4.988,2.119,7.011,3.895c2.022,1.777,3.621,4.1,4.797,6.97
			c1.175,2.87,1.763,6.355,1.763,10.455h-9.594c0-3.881-0.562-6.874-1.681-8.979c-1.121-2.104-2.665-3.58-4.633-4.428
			c-1.968-0.847-4.21-1.271-6.724-1.271c-1.859,0-3.581,0.274-5.166,0.82c-1.586,0.547-2.952,1.449-4.1,2.706
			c-1.148,1.258-2.037,2.939-2.665,5.043c-0.629,2.105-0.943,4.715-0.943,7.831v9.348c0,4.155,0.546,7.421,1.64,9.799
			c1.093,2.378,2.61,4.073,4.551,5.084c1.94,1.012,4.168,1.517,6.683,1.517c2.678,0,5.015-0.423,7.011-1.271
			c1.995-0.847,3.553-2.323,4.674-4.428c1.12-2.104,1.681-5.07,1.681-8.897h9.266c0,3.936-0.574,7.326-1.722,10.168
			c-1.148,2.843-2.72,5.166-4.715,6.97c-1.996,1.804-4.305,3.144-6.929,4.018c-2.624,0.874-5.412,1.312-8.364,1.312H1699.264z"/>
		<path d="M1732.473,451.15v-59.04h9.512v59.04H1732.473z"/>
		<path d="M1755.268,399.818v-7.708h10.004v7.708H1755.268z M1755.514,451.15v-41.902h9.512v41.902H1755.514z"/>
		<path d="M1795.121,451.969c-3.828,0-7.189-0.807-10.086-2.419c-2.899-1.612-5.154-3.977-6.766-7.093
			c-1.613-3.116-2.419-6.888-2.419-11.316v-1.886c0-4.428,0.861-8.2,2.583-11.316c1.722-3.116,4.072-5.48,7.053-7.093
			c2.979-1.612,6.381-2.419,10.209-2.419h1.064c3.553,0,6.67,0.726,9.35,2.173c2.678,1.449,4.756,3.513,6.23,6.191
			c1.477,2.679,2.215,5.822,2.215,9.43v5.166h-28.783c0,2.898,0.383,5.412,1.148,7.544c0.766,2.132,1.898,3.759,3.404,4.879
			c1.502,1.121,3.375,1.681,5.617,1.681c1.857,0,3.512-0.369,4.961-1.107c1.447-0.738,2.596-1.845,3.443-3.321
			c0.846-1.476,1.271-3.307,1.271-5.494h8.938c0,3.28-0.82,6.15-2.461,8.61c-1.639,2.46-3.854,4.375-6.641,5.74
			c-2.789,1.366-5.959,2.05-9.512,2.05H1795.121z M1785.854,426.14h19.354c0-3.826-0.834-6.655-2.502-8.487
			c-1.668-1.831-3.949-2.747-6.846-2.747c-2.734,0-5.043,0.943-6.93,2.829C1787.043,419.621,1786.018,422.423,1785.854,426.14z"/>
		<path d="M1824.968,451.15v-41.902h6.97l1.229,6.15c1.585-2.296,3.554-4.031,5.904-5.207c2.35-1.175,4.974-1.763,7.872-1.763
			c2.896,0,5.438,0.547,7.626,1.64c2.186,1.094,3.896,2.693,5.125,4.797c1.23,2.105,1.845,4.688,1.845,7.749v28.536h-9.512v-26.814
			c0-3.116-0.726-5.343-2.173-6.683c-1.449-1.339-3.458-2.009-6.027-2.009c-1.695,0-3.253,0.424-4.674,1.271
			c-1.422,0.848-2.556,1.982-3.403,3.403c-0.848,1.422-1.271,3.034-1.271,4.838v25.994H1824.968z"/>
		<path d="M1886.714,451.969c-2.188,0-4.142-0.328-5.863-0.984c-1.723-0.656-3.062-1.735-4.019-3.239
			c-0.957-1.503-1.435-3.485-1.435-5.945v-25.256h-4.592v-7.298h4.838l3.362-13.366h5.903v13.366h9.758v7.298h-9.758v23.37
			c0,2.406,0.492,3.936,1.477,4.592c0.983,0.656,2.05,0.984,3.197,0.984c0.602,0,1.436-0.136,2.501-0.41
			c1.066-0.273,1.928-0.546,2.583-0.82v6.15c-0.655,0.328-1.448,0.615-2.378,0.861s-1.886,0.423-2.87,0.533
			C1888.436,451.915,1887.533,451.969,1886.714,451.969z"/>
	</g>
	<g>
		<path d="M2332.97,451.15v-48.38h-16.81v-7.872h43.787v7.872h-16.81v48.38H2332.97z"/>
		<path d="M2375.445,451.969c-2.242,0-4.387-0.356-6.438-1.066c-2.05-0.71-3.73-1.927-5.043-3.649
			c-1.312-1.722-1.968-4.059-1.968-7.011c0-3.006,0.669-5.439,2.009-7.298c1.34-1.858,3.239-3.28,5.699-4.264
			c2.46-0.984,5.412-1.653,8.855-2.009c3.445-0.355,7.271-0.533,11.48-0.533v-3.936c0-2.733-0.697-4.66-2.091-5.781
			c-1.394-1.12-3.513-1.681-6.354-1.681c-2.352,0-4.429,0.521-6.232,1.558c-1.805,1.039-2.706,2.679-2.706,4.92v0.82h-9.185
			c-0.055-0.218-0.082-0.478-0.082-0.779c0-0.3,0-0.586,0-0.861c0-2.405,0.752-4.51,2.256-6.314
			c1.502-1.804,3.594-3.198,6.273-4.182c2.678-0.984,5.739-1.476,9.184-1.476h1.394c5.685,0,9.923,1.121,12.71,3.362
			c2.788,2.242,4.182,5.385,4.182,9.43v21.402c0,1.039,0.246,1.777,0.738,2.214c0.492,0.438,1.038,0.656,1.641,0.656
			c0.545,0,1.133-0.109,1.763-0.328c0.628-0.218,1.216-0.464,1.763-0.738v5.822c-0.711,0.547-1.613,0.97-2.705,1.271
			c-1.095,0.3-2.406,0.451-3.937,0.451c-1.804,0-3.294-0.328-4.47-0.984c-1.176-0.656-2.063-1.544-2.664-2.665
			c-0.603-1.12-0.957-2.391-1.066-3.813c-1.586,2.351-3.637,4.182-6.15,5.494C2381.786,451.314,2378.834,451.969,2375.445,451.969z
			 M2379.545,445.491c1.749,0,3.416-0.396,5.002-1.189c1.586-0.792,2.897-1.98,3.937-3.567c1.038-1.585,1.558-3.58,1.558-5.986
			v-3.198c-3.827,0-7.107,0.205-9.84,0.615c-2.734,0.41-4.811,1.162-6.232,2.255c-1.422,1.094-2.131,2.734-2.131,4.92
			c0,2.187,0.655,3.759,1.967,4.715C2375.117,445.014,2377.03,445.491,2379.545,445.491z"/>
		<path d="M2414.23,399.818v-7.708h10.004v7.708H2414.23z M2414.477,451.15v-41.902h9.512v41.902H2414.477z"/>
		<path d="M2437.271,451.15v-59.04h9.512v59.04H2437.271z"/>
		<path d="M2496.639,451.969c-3.937,0-7.518-0.561-10.742-1.681c-3.227-1.12-5.81-2.924-7.749-5.412
			c-1.941-2.487-2.911-5.781-2.911-9.881c0-0.273,0-0.56,0-0.861c0-0.3,0.027-0.587,0.082-0.861h9.43
			c-0.055,0.274-0.082,0.547-0.082,0.82c0,0.274,0,0.547,0,0.82c0,2.023,0.492,3.718,1.477,5.084
			c0.984,1.367,2.391,2.392,4.223,3.075c1.831,0.685,3.977,1.025,6.438,1.025c2.623,0,4.851-0.287,6.683-0.861
			c1.831-0.574,3.225-1.489,4.183-2.747c0.955-1.257,1.434-2.87,1.434-4.838c0-1.858-0.588-3.348-1.762-4.469
			c-1.177-1.12-2.734-2.022-4.674-2.706c-1.941-0.683-4.074-1.298-6.396-1.845c-2.324-0.546-4.633-1.175-6.93-1.886
			c-2.295-0.71-4.414-1.653-6.354-2.829c-1.94-1.175-3.499-2.733-4.674-4.674c-1.177-1.939-1.763-4.414-1.763-7.421
			c0-3.553,0.969-6.491,2.91-8.815c1.939-2.323,4.496-4.059,7.668-5.207c3.169-1.148,6.641-1.722,10.414-1.722
			c3.771,0,7.201,0.547,10.29,1.64c3.088,1.094,5.562,2.802,7.421,5.125c1.857,2.324,2.789,5.344,2.789,9.061v1.066h-9.267v-1.148
			c0-1.694-0.466-3.129-1.394-4.305c-0.931-1.175-2.215-2.063-3.854-2.665c-1.64-0.601-3.581-0.902-5.822-0.902
			c-2.132,0-4.032,0.233-5.698,0.697c-1.669,0.465-2.967,1.203-3.896,2.214c-0.931,1.012-1.394,2.365-1.394,4.059
			c0,1.804,0.586,3.239,1.763,4.305c1.175,1.066,2.733,1.914,4.674,2.542c1.94,0.629,4.086,1.217,6.437,1.763
			c2.35,0.547,4.688,1.162,7.012,1.845c2.322,0.684,4.455,1.613,6.396,2.788c1.94,1.176,3.498,2.734,4.675,4.674
			c1.174,1.941,1.762,4.415,1.762,7.421c0,4.264-1.012,7.695-3.033,10.291c-2.023,2.597-4.756,4.483-8.2,5.658
			S2500.902,451.969,2496.639,451.969z"/>
		<path d="M2547.066,451.969c-3.826,0-7.189-0.807-10.086-2.419c-2.898-1.612-5.152-3.977-6.765-7.093
			c-1.613-3.116-2.419-6.888-2.419-11.316v-1.886c0-4.428,0.861-8.2,2.583-11.316c1.722-3.116,4.071-5.48,7.052-7.093
			c2.979-1.612,6.382-2.419,10.209-2.419h1.066c3.553,0,6.668,0.726,9.348,2.173c2.678,1.449,4.756,3.513,6.232,6.191
			c1.476,2.679,2.214,5.822,2.214,9.43v5.166h-28.782c0,2.898,0.382,5.412,1.148,7.544c0.765,2.132,1.898,3.759,3.402,4.879
			c1.503,1.121,3.375,1.681,5.617,1.681c1.857,0,3.512-0.369,4.961-1.107c1.447-0.738,2.596-1.845,3.443-3.321
			s1.271-3.307,1.271-5.494h8.938c0,3.28-0.82,6.15-2.46,8.61c-1.641,2.46-3.854,4.375-6.643,5.74
			c-2.787,1.366-5.959,2.05-9.512,2.05H2547.066z M2537.801,426.14h19.352c0-3.826-0.834-6.655-2.5-8.487
			c-1.669-1.831-3.951-2.747-6.848-2.747c-2.734,0-5.043,0.943-6.929,2.829C2538.99,419.621,2537.965,422.423,2537.801,426.14z"/>
		<path d="M2576.914,451.15v-41.902h7.135l1.229,6.15c0.109-0.164,0.383-0.601,0.82-1.312c0.438-0.71,1.121-1.503,2.051-2.378
			c0.928-0.874,2.104-1.64,3.525-2.296c1.422-0.656,3.143-0.984,5.166-0.984c2.896,0,5.262,0.574,7.094,1.722
			c1.83,1.148,3.197,2.72,4.1,4.715c0.902,1.997,1.354,4.278,1.354,6.847c0,0.602-0.029,1.217-0.082,1.845
			c-0.055,0.629-0.111,1.162-0.164,1.599h-8.037v-1.64c0-1.148-0.219-2.323-0.656-3.526c-0.438-1.202-1.176-2.214-2.213-3.034
			c-1.039-0.82-2.488-1.23-4.346-1.23c-1.367,0-2.529,0.287-3.486,0.861s-1.734,1.299-2.336,2.173
			c-0.602,0.875-1.025,1.818-1.271,2.829c-0.246,1.012-0.369,1.955-0.369,2.829v26.732H2576.914z"/>
		<path d="M2627.918,451.15l-15.334-41.902h10.168l10.658,30.586h0.41l10.742-30.586h9.266l-15.498,41.902H2627.918z"/>
		<path d="M2678.346,451.969c-3.826,0-7.189-0.807-10.086-2.419c-2.898-1.612-5.152-3.977-6.766-7.093
			c-1.611-3.116-2.418-6.888-2.418-11.316v-1.886c0-4.428,0.861-8.2,2.582-11.316c1.723-3.116,4.072-5.48,7.053-7.093
			c2.979-1.612,6.383-2.419,10.209-2.419h1.066c3.553,0,6.668,0.726,9.348,2.173c2.678,1.449,4.756,3.513,6.232,6.191
			c1.477,2.679,2.213,5.822,2.213,9.43v5.166h-28.781c0,2.898,0.381,5.412,1.148,7.544c0.764,2.132,1.898,3.759,3.402,4.879
			c1.504,1.121,3.375,1.681,5.617,1.681c1.857,0,3.512-0.369,4.961-1.107c1.447-0.738,2.596-1.845,3.443-3.321
			s1.271-3.307,1.271-5.494h8.938c0,3.28-0.818,6.15-2.459,8.61c-1.641,2.46-3.854,4.375-6.643,5.74
			c-2.787,1.366-5.959,2.05-9.512,2.05H2678.346z M2669.08,426.14h19.352c0-3.826-0.834-6.655-2.5-8.487
			c-1.668-1.831-3.951-2.747-6.848-2.747c-2.734,0-5.043,0.943-6.93,2.829C2670.27,419.621,2669.244,422.423,2669.08,426.14z"/>
		<path d="M2708.193,451.15v-41.902h7.135l1.229,6.15c0.109-0.164,0.383-0.601,0.82-1.312c0.438-0.71,1.121-1.503,2.051-2.378
			c0.928-0.874,2.104-1.64,3.525-2.296c1.422-0.656,3.143-0.984,5.166-0.984c2.896,0,5.262,0.574,7.094,1.722
			c1.83,1.148,3.197,2.72,4.1,4.715c0.902,1.997,1.354,4.278,1.354,6.847c0,0.602-0.029,1.217-0.082,1.845
			c-0.055,0.629-0.111,1.162-0.164,1.599h-8.037v-1.64c0-1.148-0.219-2.323-0.656-3.526c-0.438-1.202-1.176-2.214-2.213-3.034
			c-1.039-0.82-2.488-1.23-4.346-1.23c-1.367,0-2.529,0.287-3.486,0.861s-1.734,1.299-2.336,2.173
			c-0.602,0.875-1.025,1.818-1.271,2.829c-0.246,1.012-0.369,1.955-0.369,2.829v26.732H2708.193z"/>
	</g>
</g>
</svg>
