<?xml version="1.0" encoding="iso-8859-1"?>
<!-- Generator: Adobe Illustrator 29.6.0, SVG Export Plug-In . SVG Version: 9.03 Build 0)  -->
<svg version="1.1" xmlns="http://www.w3.org/2000/svg" xmlns:xlink="http://www.w3.org/1999/xlink" x="0px" y="0px"
	 viewBox="0 0 4000 2774" style="enable-background:new 0 0 4000 2774;" xml:space="preserve">
<g id="Layer_3" style="display:none;">
	
		<image style="display:inline;overflow:visible;" width="536" height="409" xlink:href="../../_Draft Images/hydra_fullhydravision.png"  transform="matrix(6.7164 0 0 6.7164 255.9995 -170.6663)">
	</image>
</g>
<g id="Fill">
	
		<line style="fill:none;stroke:#FF5553;stroke-width:12;stroke-miterlimit:10;" x1="2417.385" y1="1266.226" x2="2855.581" y2="710.718"/>
	
		<line style="fill:none;stroke:#FF5553;stroke-width:12;stroke-miterlimit:10;" x1="2227.615" y1="1242.074" x2="2244.867" y2="796.977"/>
	
		<line style="fill:none;stroke:#8FD14F;stroke-width:12;stroke-miterlimit:10;" x1="2907.336" y1="690.016" x2="3162.663" y2="1469.797"/>
	
		<line style="fill:none;stroke:#8FD14F;stroke-width:12;stroke-miterlimit:10;" x1="2814.177" y1="603.757" x2="2362.179" y2="714.168"/>
	
		<rect x="2005.439" y="536.44" style="fill:#E6E6E6;stroke:#000000;stroke-width:6;stroke-miterlimit:10;" width="230.431" height="124.283"/>
	<circle style="fill:#8FD14F;stroke:#000000;stroke-width:6.8317;stroke-miterlimit:10;" cx="2257.718" cy="707.974" r="123.832"/>
	
		<line style="fill:none;stroke:#3BD7B1;stroke-width:12;stroke-miterlimit:10;" x1="3014.315" y1="1604.315" x2="1621.61" y2="1738.042"/>
	
		<line style="fill:none;stroke:#3BD7B1;stroke-width:12;stroke-miterlimit:10;" x1="2248.609" y1="805.895" x2="1542.666" y2="1589.263"/>
	
		<line style="fill:none;stroke:#000000;stroke-width:12;stroke-miterlimit:10;" x1="3527.021" y1="1692.258" x2="3210.688" y2="1727.406"/>
	
		<line style="fill:none;stroke:#000000;stroke-width:12;stroke-miterlimit:10;" x1="3504.123" y1="2038.637" x2="3210.688" y2="1746.578"/>
	<circle style="fill:#5181F6;stroke:#000000;stroke-width:6.8317;stroke-miterlimit:10;" cx="3181.931" cy="1668.294" r="123.832"/>
	
		<line style="fill:none;stroke:#FF5553;stroke-width:12;stroke-miterlimit:10;" x1="1967.75" y1="1394.939" x2="949.376" y2="1327.234"/>
	
		<line style="fill:none;stroke:#FF5553;stroke-width:12;stroke-miterlimit:10;" x1="1968.984" y1="1447.871" x2="985.163" y2="1637.389"/>
	
		<line style="fill:none;stroke:#FF5553;stroke-width:12;stroke-miterlimit:10;" x1="2011.65" y1="1511.871" x2="1598.595" y2="1665.434"/>
	
		<line style="fill:none;stroke:#FF5553;stroke-width:12;stroke-miterlimit:10;" x1="3127.273" y1="1589.673" x2="2786.76" y2="1451.427"/>
	
		<line style="fill:none;stroke:#FF5553;stroke-width:12;stroke-miterlimit:10;" x1="2590.468" y1="2536.751" x2="2427.649" y2="1561.649"/>
	
		<line style="fill:none;stroke:#FF5553;stroke-width:12;stroke-miterlimit:10;" x1="2738.973" y1="2044.71" x2="2605.427" y2="1547.426"/>
	
		<line style="fill:#FBB03B;stroke:#FF5553;stroke-width:12;stroke-miterlimit:10;" x1="1512.036" y1="2427.625" x2="2050.761" y2="1536.76"/>
	
		<line style="fill:none;stroke:#FF5553;stroke-width:12;stroke-miterlimit:10;" x1="2153.354" y1="2139.26" x2="2235.65" y2="1586.537"/>
	
		<line style="fill:none;stroke:#5181F6;stroke-width:12;stroke-miterlimit:10;" x1="2766.3" y1="2062.928" x2="3018.313" y2="1738.042"/>
	
		<line style="fill:none;stroke:#5181F6;stroke-width:12;stroke-miterlimit:10;" x1="2660.029" y1="2129.727" x2="2253.163" y2="2178.308"/>
	<path style="fill:#FF5553;" d="M2816.07,1347.618c-15.601-22.274-38.323-38.729-64.078-46.823c0.964-9.12,1.043-18.357,0.18-27.552
		c-3.393-35.977-21.109-69.776-48.62-93.16c-10.121-6.539-20.234-13.083-30.351-19.618c-23.175-10.829-47.506-15.119-72.985-12.873
		c-11.746,2.689-23.489,5.375-35.235,8.056c-13.912,5.236-26.518,12.342-37.85,21.277c-3.942-4.42-8.177-8.596-12.71-12.455
		c-9.438-6.099-18.877-12.194-28.306-18.298c-21.616-10.096-44.301-14.092-68.066-11.998c-10.955,2.501-21.905,5.006-32.856,7.511
		c-21.185,7.964-39.148,20.536-53.898,37.691c-12.513-15.488-28.512-28.315-47.59-36.886c-15.881-7.134-32.751-12.97-49.889-16.007
		c-17.272-3.058-35.378-2.459-52.969-1.957c-11.663,2.669-23.334,5.337-35.005,8.005c-22.626,8.513-41.812,21.947-57.552,40.301
		c-20.045,23.585-31.503,53.642-32.726,84.404c-9.409-1.378-19.006-1.697-28.805-0.829c-10.142,2.316-20.288,4.637-30.426,6.954
		c-19.677,7.402-36.35,19.077-50.028,35.03c-20.87,24.557-31.084,57.166-28.059,89.247c2.928,31.067,18.223,60.258,41.989,80.454
		c3.804,2.463,7.612,4.926,11.42,7.385c-0.201,4.847-0.109,9.715,0.348,14.574c2.643,28.005,16.43,54.317,37.854,72.524
		c7.876,5.094,15.747,10.184,23.627,15.274c18.043,8.433,36.982,11.771,56.822,10.02l27.427-6.276
		c4.437-1.667,8.705-3.577,12.807-5.731c3.703,4.03,7.637,7.872,11.826,11.432c9.815,6.343,19.631,12.69,29.446,19.036
		c22.488,10.507,46.094,14.667,70.819,12.488c11.395-2.606,22.789-5.212,34.184-7.822c20.171-7.582,37.506-19.22,52.068-34.812
		c0.854,0.758,1.684,1.542,2.555,2.279c10.117,6.539,20.23,13.083,30.347,19.622c23.175,10.825,47.506,15.119,72.989,12.869
		c11.742-2.685,23.485-5.371,35.227-8.056c2.124-0.8,4.185-1.684,6.246-2.568c4.881,3.159,9.765,6.313,14.65,9.472
		c24.23,11.319,49.667,15.802,76.302,13.456c12.274-2.811,24.557-5.617,36.832-8.424c23.812-8.952,44.003-23.091,60.563-42.408
		c7.804-9.178,14.365-19.295,19.618-30.032c1.646,0.36,3.297,0.712,4.969,1.005c10.917,0.448,21.834,0.892,32.747,1.341
		c21.399-2.12,40.92-9.316,58.561-21.583l5.354-4.097c7.763-7.067,15.521-14.126,23.284-21.193
		c14.302-16.975,23.409-36.396,27.339-58.268C2842.11,1407.578,2834.712,1374.241,2816.07,1347.618z"/>
	<g id="Layer_1-2">
		<path style="fill:#FFFFFF;" d="M2058.743,1386.353c-0.331,5.76,4.068,10.7,9.828,11.036h0.57
			c5.761-0.006,10.427-4.682,10.421-10.444c-0.006-5.761-4.682-10.427-10.444-10.421c-5.524,0.006-10.086,4.318-10.403,9.834
			L2058.743,1386.353z"/>
		<path style="fill:#FFFFFF;" d="M2019.842,1383.708c-1.858-0.104-3.448,1.318-3.552,3.176s1.318,3.448,3.176,3.552
			c1.856,0.104,3.445-1.315,3.552-3.17c0.11-1.854-1.304-3.446-3.159-3.556C2019.853,1383.708,2019.848,1383.708,2019.842,1383.708z
			"/>
		<path style="fill:#FFFFFF;" d="M2058.082,1325.806c1.658-0.851,2.312-2.886,1.46-4.544c-0.852-1.658-2.886-2.312-4.544-1.46
			c-1.645,0.845-2.304,2.856-1.477,4.511c0.837,1.669,2.869,2.343,4.538,1.505
			C2058.067,1325.814,2058.074,1325.81,2058.082,1325.806z"/>
		<path style="fill:#FFFFFF;" d="M2068.668,1344.265c2.569-1.296,3.602-4.429,2.305-6.999c-1.296-2.569-4.429-3.601-6.999-2.305
			c-2.568,1.295-3.601,4.426-2.307,6.995c1.294,2.57,4.427,3.605,6.997,2.31C2068.666,1344.266,2068.667,1344.266,2068.668,1344.265
			z"/>
		<path style="fill:#FFFFFF;" d="M2033.045,1356.96c1.981,1.303,4.643,0.753,5.945-1.228c1.303-1.981,0.753-4.643-1.228-5.945
			c-1.981-1.303-4.642-0.753-5.945,1.228c-0.001,0.002-0.002,0.003-0.003,0.005
			C2030.515,1353.001,2031.066,1355.659,2033.045,1356.96z"/>
		<path style="fill:#FFFFFF;" d="M2039.39,1381.809c-2.873-0.162-5.334,2.036-5.496,4.909s2.036,5.333,4.909,5.496
			c2.871,0.162,5.33-2.032,5.495-4.903C2044.46,1384.437,2042.264,1381.975,2039.39,1381.809z"/>
		<path style="fill:#FFFFFF;" d="M2033.615,1416.84c-2.116,1.069-2.964,3.651-1.895,5.767s3.651,2.964,5.767,1.895
			c2.115-1.069,2.963-3.648,1.897-5.764c-1.068-2.117-3.649-2.967-5.766-1.9C2033.617,1416.839,2033.616,1416.839,2033.615,1416.84z
			"/>
		<path style="fill:#FFFFFF;" d="M2053.869,1371.041c2.833,1.857,6.636,1.065,8.493-1.768c1.857-2.833,1.065-6.636-1.768-8.493
			c-2.833-1.856-6.634-1.066-8.491,1.767c-1.859,2.828-1.072,6.628,1.756,8.487
			C2053.862,1371.036,2053.866,1371.038,2053.869,1371.041z"/>
		<path style="fill:#FFFFFF;" d="M2118.127,1343.854c2.413,1.574,5.645,0.894,7.219-1.519c1.574-2.413,0.894-5.645-1.519-7.219
			c-2.411-1.573-5.641-0.895-7.216,1.515c-1.577,2.407-0.904,5.637,1.503,7.214
			C2118.118,1343.849,2118.122,1343.852,2118.127,1343.854z"/>
		<path style="fill:#FFFFFF;" d="M2128.821,1325.453c1.559,1.022,3.651,0.586,4.673-0.972c1.022-1.559,0.586-3.651-0.972-4.672
			c-1.559-1.022-3.651-0.586-4.673,0.972c-0.001,0.001-0.001,0.003-0.002,0.004
			C2126.828,1322.343,2127.264,1324.432,2128.821,1325.453z"/>
		<path style="fill:#FFFFFF;" d="M2118.948,1376.422c-5.754-0.331-10.686,4.066-11.016,9.819s4.066,10.686,9.819,11.016l0,0
			c0.199,0,0.405,0,0.604,0c5.761-0.003,10.43-4.676,10.427-10.437c-0.001-2.562-0.945-5.033-2.651-6.944
			C2124.296,1377.809,2121.708,1376.564,2118.948,1376.422z"/>
		<path style="fill:#FFFFFF;" d="M2072.094,1370.317c1.767,3.529,5.38,5.753,9.326,5.741c5.765,0.001,10.439-4.671,10.44-10.436
			c0-1.639-0.385-3.255-1.125-4.717c-1.779-3.513-5.389-5.719-9.326-5.701c-5.765,0.01-10.43,4.691-10.42,10.456
			C2070.992,1367.277,2071.37,1368.871,2072.094,1370.317z"/>
		<path style="fill:#FFFFFF;" d="M2153.898,1356.949c2.116-1.068,2.966-3.65,1.898-5.766c-1.068-2.117-3.65-2.966-5.766-1.898
			c-2.114,1.067-2.965,3.645-1.901,5.76C2149.198,1357.163,2151.78,1358.015,2153.898,1356.949z"/>
		<path style="fill:#FFFFFF;" d="M2127.442,1360.272c-3.025,1.524-4.243,5.212-2.719,8.237c1.524,3.026,5.212,4.243,8.237,2.719
			s4.243-5.212,2.719-8.237c-1.52-3.024-5.203-4.244-8.227-2.724C2127.448,1360.269,2127.445,1360.271,2127.442,1360.272z"/>
		<path style="fill:#FFFFFF;" d="M2093.363,1323.88c2.367,0.135,4.395-1.675,4.53-4.042c0.135-2.367-1.675-4.395-4.042-4.53
			s-4.395,1.675-4.53,4.042c0,0.001,0,0.002,0,0.003C2089.189,1321.719,2090.998,1323.745,2093.363,1323.88z"/>
		<path style="fill:#FFFFFF;" d="M2093.318,1350.895c3.382,0.19,6.278-2.399,6.468-5.781s-2.399-6.278-5.781-6.468
			c-3.379-0.189-6.273,2.394-6.467,5.773C2087.346,1347.803,2089.934,1350.702,2093.318,1350.895z"/>
		<path style="fill:#FFFFFF;" d="M2060.083,1413.51c3.025-1.525,4.241-5.214,2.716-8.239c-1.525-3.025-5.214-4.241-8.239-2.716
			c-3.025,1.525-4.241,5.214-2.716,8.239c0,0.001,0.001,0.001,0.001,0.002C2053.372,1413.82,2057.059,1415.035,2060.083,1413.51z"/>
		<path style="fill:#FFFFFF;" d="M2097.28,1359.845c-3.158,4.819-1.811,11.286,3.008,14.443c4.819,3.158,11.286,1.811,14.444-3.008
			c3.158-4.819,1.811-11.286-3.008-14.443c-1.695-1.111-3.677-1.704-5.704-1.706
			C2102.497,1355.128,2099.212,1356.9,2097.28,1359.845z"/>
		<path style="fill:#FFFFFF;" d="M2115.419,1403.472c-2.594-5.144-8.868-7.212-14.012-4.617c-5.144,2.594-7.212,8.868-4.617,14.012
			c1.773,3.517,5.376,5.735,9.315,5.735c1.633-0.011,3.241-0.402,4.697-1.14C2115.93,1414.865,2117.995,1408.611,2115.419,1403.472z
			"/>
		<path style="fill:#FFFFFF;" d="M2133.65,1402.742c-2.832-1.859-6.635-1.07-8.494,1.761c-1.859,2.832-1.07,6.635,1.762,8.494
			c2.832,1.859,6.635,1.07,8.494-1.761C2137.264,1408.403,2136.476,1404.605,2133.65,1402.742z"/>
		<path style="fill:#FFFFFF;" d="M2153.625,1387.071c0.162-2.873-2.035-5.333-4.908-5.496s-5.334,2.036-5.496,4.909
			c-0.162,2.871,2.032,5.33,4.903,5.495C2150.998,1392.141,2153.459,1389.945,2153.625,1387.071z"/>
		<path style="fill:#FFFFFF;" d="M2168.059,1383.36c-1.861-0.107-3.456,1.314-3.563,3.175c-0.107,1.861,1.314,3.456,3.175,3.563
			c1.861,0.107,3.456-1.314,3.563-3.175c0,0,0,0,0,0C2171.338,1385.063,2169.918,1383.47,2168.059,1383.36z"/>
		<path style="fill:#FFFFFF;" d="M2154.469,1416.823c-1.983-1.299-4.644-0.744-5.943,1.239c-1.299,1.983-0.744,4.644,1.239,5.943
			c1.982,1.298,4.641,0.745,5.941-1.236c1.301-1.982,0.748-4.643-1.234-5.944C2154.47,1416.824,2154.469,1416.823,2154.469,1416.823
			z"/>
		<path style="fill:#FFFFFF;" d="M2058.698,1448.33c-1.558-1.023-3.651-0.588-4.673,0.97c-1.022,1.558-0.588,3.651,0.97,4.673
			c1.558,1.022,3.649,0.589,4.672-0.969c1.023-1.558,0.59-3.65-0.968-4.673C2058.699,1448.331,2058.698,1448.33,2058.698,1448.33z"
			/>
		<path style="fill:#FFFFFF;" d="M2129.431,1447.977c-1.665,0.839-2.334,2.868-1.495,4.532c0.839,1.664,2.868,2.334,4.533,1.495
			c1.664-0.839,2.333-2.868,1.495-4.533c0,0,0-0.001,0-0.001c-0.835-1.663-2.86-2.333-4.523-1.498
			C2129.437,1447.974,2129.434,1447.975,2129.431,1447.977z"/>
		<path style="fill:#FFFFFF;" d="M2090.234,1413.921c3.158-4.819,1.811-11.286-3.008-14.443s-11.286-1.811-14.443,3.008
			c-3.158,4.819-1.811,11.286,3.008,14.443c1.697,1.112,3.681,1.705,5.71,1.707
			C2085.023,1418.647,2088.311,1416.872,2090.234,1413.921z"/>
		<path style="fill:#FFFFFF;" d="M2069.386,1429.934c-2.408-1.575-5.637-0.9-7.213,1.508c-1.575,2.408-0.9,5.637,1.508,7.213
			c2.406,1.574,5.633,0.901,7.21-1.503C2072.467,1434.742,2071.793,1431.512,2069.386,1429.934z"/>
		<path style="fill:#FFFFFF;" d="M2093.711,1449.903c-2.367-0.135-4.395,1.675-4.53,4.042c-0.135,2.367,1.675,4.395,4.042,4.529
			c2.366,0.135,4.393-1.673,4.529-4.039c0.136-2.367-1.672-4.396-4.039-4.532
			C2093.713,1449.903,2093.712,1449.903,2093.711,1449.903z"/>
		<path style="fill:#FFFFFF;" d="M2093.757,1422.894c-3.382-0.205-6.289,2.369-6.495,5.751c-0.205,3.381,2.369,6.289,5.751,6.495
			c3.381,0.205,6.289-2.369,6.495-5.75c0-0.008,0.001-0.016,0.001-0.025C2099.703,1425.99,2097.13,1423.096,2093.757,1422.894z"/>
		<path style="fill:#FFFFFF;" d="M2118.845,1429.518c-2.569,1.304-3.595,4.443-2.292,7.012c1.304,2.569,4.443,3.595,7.012,2.291
			c2.569-1.303,3.595-4.443,2.291-7.012c-0.002-0.004-0.004-0.007-0.006-0.011c-1.301-2.563-4.434-3.586-6.997-2.285
			C2118.851,1429.515,2118.848,1429.516,2118.845,1429.518z"/>
		<path style="fill:#FFFFFF;" d="M2233.964,1362.245c10.102,0,17.176,5.552,17.176,15.859h13.231
			c0-18.082-13.334-26.793-30.607-26.793c-21.218,0-33.542,11.521-33.542,35.868c0,24.952,12.325,35.863,33.542,35.863
			c17.478,0,30.607-8.483,30.607-26.571h-12.729c0,10.102-6.972,15.66-17.672,15.66c-14.046,0-20.522-7.781-20.522-23.943v-2.018
			C2213.458,1370.323,2220.02,1362.245,2233.964,1362.245z"/>
		<path style="fill:#FFFFFF;" d="M2299.356,1352.542l-26.975,69.308h13.339l5.552-15.055h31.701l5.701,15.055h13.944l-26.992-69.308
			H2299.356z M2295.314,1395.867l7.074-19c1.414-3.734,3.939-11.817,4.447-13.231h0.501c0.508,1.414,3.033,9.594,4.447,13.231
			l7.069,18.995L2295.314,1395.867z"/>
		<path style="fill:#FFFFFF;" d="M2414.753,1373.555c0-12.826-7.376-21.013-22.631-21.013h-36.575v69.308h12.935v-26.793h21.514
			l13.112,26.793h14.143l-14.822-28.794C2410.609,1389.824,2414.753,1382.955,2414.753,1373.555z M2391.107,1384.164h-22.626
			v-20.608h22.626c6.972,0,10.609,3.74,10.609,9.999C2401.716,1380.128,2397.777,1384.164,2391.107,1384.164z"/>
		<path style="fill:#FFFFFF;" d="M2460.119,1352.542h-27.694v69.308h27.682c20.91,0,33.634-10.911,33.634-34.654
			S2481.029,1352.542,2460.119,1352.542z M2480.527,1388.205c-0.103,15.158-7.274,22.631-20.408,22.631h-14.748v-47.281h14.748
			c13.111,0,20.408,7.479,20.408,22.631V1388.205z"/>
		<path style="fill:#FFFFFF;" d="M2527.626,1352.542l-26.987,69.308h13.334l5.558-15.055h31.724l5.655,15.055h13.944l-26.975-69.308
			H2527.626z M2523.584,1395.867l7.063-19c1.414-3.734,3.939-11.817,4.447-13.231h0.513c0.501,1.414,3.033,9.594,4.446,13.231
			l7.069,18.995L2523.584,1395.867z"/>
		<path style="fill:#FFFFFF;" d="M2629.975,1393.764c0,1.311,0.199,4.845,0.199,5.455l-0.502,0.2
			c-0.302-0.399-2.326-3.939-3.42-5.552l-30.105-41.324h-12.342v69.308h12.427v-41.523c0-1.71-0.205-5.051-0.205-5.558l0.507-0.302
			c0.302,0.405,1.819,3.335,3.42,5.661l30.31,41.723h12.119v-69.308h-12.422v41.221H2629.975z"/>
		<path style="fill:#FFFFFF;" d="M2693.902,1351.334c-21.719,0-34.854,11.515-34.854,35.863s13.111,35.863,34.854,35.863
			s34.956-11.515,34.956-35.863S2715.621,1351.334,2693.902,1351.334z M2715.621,1388.308c0,15.859-7.576,23.84-21.719,23.84
			c-14.041,0-21.617-7.981-21.617-23.84v-2.121c0-15.865,7.679-23.943,21.617-23.943c14.046,0,21.719,8.078,21.719,23.943V1388.308z
			"/>
	</g>
	
		<rect x="247.004" y="1313.35" style="fill:#E6E6E6;stroke:#000000;stroke-width:6.8317;stroke-miterlimit:10;" width="230.431" height="124.283"/>
	<g>
		
			<rect x="3593.253" y="2053.318" style="fill:#E6E6E6;stroke:#000000;stroke-width:6;stroke-miterlimit:10;" width="230.431" height="124.283"/>
		
			<rect x="3538.737" y="2003.271" style="fill:#E6E6E6;stroke:#000000;stroke-width:6;stroke-miterlimit:10;" width="230.431" height="124.283"/>
		
			<rect x="3484.221" y="1953.224" style="fill:#E6E6E6;stroke:#000000;stroke-width:6;stroke-miterlimit:10;" width="230.431" height="124.283"/>
	</g>
	
		<rect x="3631.596" y="1716.399" style="fill:#E6E6E6;stroke:#000000;stroke-width:6;stroke-miterlimit:10;" width="230.431" height="124.283"/>
	
		<rect x="3577.08" y="1666.352" style="fill:#E6E6E6;stroke:#000000;stroke-width:6;stroke-miterlimit:10;" width="230.431" height="124.283"/>
	
		<rect x="3522.565" y="1616.305" style="fill:#E6E6E6;stroke:#000000;stroke-width:6;stroke-miterlimit:10;" width="230.431" height="124.283"/>
	
		<rect x="3539.251" y="1317.45" style="fill:#E6E6E6;stroke:#000000;stroke-width:6;stroke-miterlimit:10;" width="230.431" height="124.283"/>
	
		<rect x="3484.735" y="1267.403" style="fill:#E6E6E6;stroke:#000000;stroke-width:6;stroke-miterlimit:10;" width="230.431" height="124.283"/>
	
		<rect x="1493.713" y="2473.878" style="fill:#88E8F2;stroke:#000000;stroke-width:6;stroke-miterlimit:10;" width="230.431" height="124.283"/>
	
		<rect x="2535.373" y="2605.364" style="fill:#88E8F2;stroke:#000000;stroke-width:6;stroke-miterlimit:10;" width="230.431" height="124.283"/>
	
		<rect x="2480.857" y="2555.316" style="fill:#88E8F2;stroke:#000000;stroke-width:6;stroke-miterlimit:10;" width="230.431" height="124.283"/>
	
		<rect x="1384.122" y="1216.531" style="fill:#C68BFF;stroke:#000000;stroke-width:6;stroke-miterlimit:10;" width="230.431" height="124.283"/>
	
		<rect x="906.45" y="1685.981" style="fill:#C68BFF;stroke:#000000;stroke-width:6;stroke-miterlimit:10;" width="230.431" height="124.283"/>
	<circle style="fill:#5181F6;stroke:#000000;stroke-width:6.8317;stroke-miterlimit:10;" cx="2155.004" cy="2230.855" r="123.832"/>
	<circle style="fill:#5181F6;stroke:#000000;stroke-width:6.8317;stroke-miterlimit:10;" cx="1544.706" cy="1809.078" r="123.832"/>
	
		<line style="fill:none;stroke:#88E8F2;stroke-width:12;stroke-miterlimit:10;" x1="1622.635" y1="2487.883" x2="2092.341" y2="2254.627"/>
	
		<rect x="1439.197" y="2423.831" style="fill:#88E8F2;stroke:#000000;stroke-width:6;stroke-miterlimit:10;" width="230.431" height="124.283"/>
	
		<rect x="1384.682" y="2373.784" style="fill:#88E8F2;stroke:#000000;stroke-width:6;stroke-miterlimit:10;" width="230.431" height="124.283"/>
	
		<line style="fill:none;stroke:#88E8F2;stroke-width:12;stroke-miterlimit:10;" x1="2539.68" y1="2551.788" x2="2215.556" y2="2247.473"/>
	
		<line style="fill:none;stroke:#5181F6;stroke-width:12;stroke-miterlimit:10;" x1="2087.37" y1="2212.073" x2="1650.764" y2="1811.996"/>
	
		<rect x="2067.442" y="2143.292" transform="matrix(0.7071 -0.7071 0.7071 0.7071 -946.2665 2177.2202)" style="fill:#3EC2CF;stroke:#231F20;stroke-width:6.8317;stroke-miterlimit:10;" width="175.125" height="175.125"/>
	
		<line style="fill:none;stroke:#C68BFF;stroke-width:12;stroke-miterlimit:10;" x1="1056.737" y1="1685.105" x2="1444.43" y2="1813.768"/>
	
		<rect x="851.934" y="1635.934" style="fill:#C68BFF;stroke:#000000;stroke-width:6;stroke-miterlimit:10;" width="230.431" height="124.283"/>
	
		<rect x="797.418" y="1585.887" style="fill:#C68BFF;stroke:#000000;stroke-width:6;stroke-miterlimit:10;" width="230.431" height="124.283"/>
	
		<line style="fill:none;stroke:#C68BFF;stroke-width:12;stroke-miterlimit:10;" x1="963.861" y1="1311.897" x2="1496.406" y2="1749.862"/>
	
		<line style="fill:none;stroke:#C68BFF;stroke-width:12;stroke-miterlimit:10;" x1="1410.347" y1="1272.702" x2="1547.531" y2="1712.371"/>
	
		<rect x="1329.606" y="1166.484" style="fill:#C68BFF;stroke:#000000;stroke-width:6;stroke-miterlimit:10;" width="230.431" height="124.283"/>
	
		<rect x="2426.342" y="2505.269" style="fill:#88E8F2;stroke:#000000;stroke-width:6;stroke-miterlimit:10;" width="230.431" height="124.283"/>
	<circle style="fill:#5181F6;stroke:#000000;stroke-width:6.8317;stroke-miterlimit:10;" cx="2763.508" cy="2136.553" r="123.832"/>
	
		<rect x="2787.844" y="2199.573" style="fill:#E6E6E6;stroke:#000000;stroke-width:6;stroke-miterlimit:10;" width="230.431" height="124.283"/>
	
		<line style="fill:none;stroke:#FF5553;stroke-width:12;stroke-miterlimit:10;" x1="2061.875" y1="1319.031" x2="1474.253" y2="1173.861"/>
	
		<rect x="1275.091" y="1116.437" style="fill:#C68BFF;stroke:#000000;stroke-width:6;stroke-miterlimit:10;" width="230.431" height="124.283"/>
	
		<line style="fill:none;stroke:#000000;stroke-width:12;stroke-miterlimit:10;" x1="403.623" y1="1332.773" x2="787.056" y2="1330.217"/>
	
		<rect x="758.812" y="1261.326" style="fill:#C68BFF;stroke:#000000;stroke-width:6;stroke-miterlimit:10;" width="230.431" height="124.283"/>
	
		<rect x="192.489" y="1263.303" style="fill:#E6E6E6;stroke:#000000;stroke-width:6.8317;stroke-miterlimit:10;" width="230.431" height="124.283"/>
	
		<rect x="137.973" y="1213.256" style="fill:#E6E6E6;stroke:#000000;stroke-width:6.8317;stroke-miterlimit:10;" width="230.431" height="124.283"/>
	
		<line style="fill:none;stroke:#000000;stroke-width:12;stroke-miterlimit:10;" x1="3592.176" y1="1300.813" x2="3265.008" y2="1593.205"/>
	
		<rect x="3430.22" y="1217.356" style="fill:#E6E6E6;stroke:#000000;stroke-width:6;stroke-miterlimit:10;" width="230.431" height="124.283"/>
	<circle style="fill:#8FD14F;stroke:#000000;stroke-width:6.8317;stroke-miterlimit:10;" cx="3164.056" cy="1602.927" r="123.832"/>
	
		<rect x="2922.439" y="1662.274" style="fill:#E6E6E6;stroke:#000000;stroke-width:6;stroke-miterlimit:10;" width="230.431" height="124.283"/>
	
		<line style="fill:none;stroke:#3BD7B1;stroke-width:12;stroke-miterlimit:10;" x1="2318.444" y1="729.987" x2="3118.512" y2="1452.629"/>
	
		<circle style="fill:#3BD7B1;stroke:#000000;stroke-width:6.8317;stroke-miterlimit:10;stroke-dasharray:34.1586,34.1586;" cx="3109.403" cy="1548.273" r="123.832"/>
	
		<circle style="fill:#3BD7B1;stroke:#000000;stroke-width:6.8317;stroke-miterlimit:10;stroke-dasharray:34.1586,34.1586;" cx="2207.618" cy="738.337" r="123.832"/>
	
		<rect x="3308.985" y="310.458" style="fill:#E6E6E6;stroke:#000000;stroke-width:6;stroke-miterlimit:10;" width="230.431" height="124.283"/>
	
		<rect x="3254.469" y="260.411" style="fill:#E6E6E6;stroke:#000000;stroke-width:6;stroke-miterlimit:10;" width="230.431" height="124.283"/>
	
		<rect x="2753.477" y="148.291" style="fill:#E6E6E6;stroke:#000000;stroke-width:6;stroke-miterlimit:10;" width="230.431" height="124.283"/>
	
		<rect x="2698.961" y="98.244" style="fill:#E6E6E6;stroke:#000000;stroke-width:6;stroke-miterlimit:10;" width="230.431" height="124.283"/>
	
		<line style="fill:none;stroke:#000000;stroke-width:12;stroke-miterlimit:10;" x1="3390.387" y1="300.125" x2="2948.741" y2="638.26"/>
	
		<line style="fill:none;stroke:#000000;stroke-width:12;stroke-miterlimit:10;" x1="2772.772" y1="96.554" x2="2883.184" y2="524.399"/>
	<circle style="fill:#8FD14F;stroke:#000000;stroke-width:6.8317;stroke-miterlimit:10;" cx="2874.089" cy="615.366" r="123.832"/>
	
		<rect x="3199.954" y="210.364" style="fill:#E6E6E6;stroke:#000000;stroke-width:6;stroke-miterlimit:10;" width="230.431" height="124.283"/>
	
		<rect x="2644.446" y="48.197" style="fill:#E6E6E6;stroke:#000000;stroke-width:6;stroke-miterlimit:10;" width="230.431" height="124.283"/>
	
		<rect x="1457.143" y="1721.516" transform="matrix(0.7071 -0.7071 0.7071 0.7071 -826.7775 1622.1387)" style="fill:#9510AC;stroke:#231F20;stroke-width:6.8317;stroke-miterlimit:10;" width="175.125" height="175.125"/>
	
		<circle style="fill:#3BD7B1;stroke:#000000;stroke-width:6.8317;stroke-miterlimit:10;stroke-dasharray:34.1586,34.1586;" cx="1530.521" cy="1690.979" r="123.832"/>
</g>
<g id="Type">
	<g>
		<path d="M177.488,342.638v-192.08h124.88l-3.92,26.88h-86.24v56h76.16v26.88h-76.16v82.32H177.488z"/>
		<path d="M373.21,345.438c-14.749,0-26.417-4.06-35-12.18c-8.588-8.12-12.88-20.392-12.88-36.82v-96.88h32.48v89.6
			c0,11.388,2.284,19.508,6.86,24.36c4.572,4.856,11.244,7.28,20.02,7.28c5.972,0,11.48-1.444,16.52-4.34
			c5.04-2.892,9.1-6.812,12.18-11.76c3.08-4.944,4.62-10.404,4.62-16.38v-88.76h32.48v113.96c0,3.548,0.84,6.068,2.52,7.56
			c1.68,1.496,3.544,2.24,5.6,2.24c2.052,0,4.104-0.372,6.16-1.12c2.052-0.744,4.012-1.584,5.88-2.52v19.88
			c-2.428,1.868-5.508,3.312-9.24,4.34c-3.736,1.024-8.12,1.54-13.16,1.54c-6.16,0-11.2-1.076-15.12-3.22
			c-3.92-2.144-6.86-5.04-8.82-8.68s-3.408-7.512-4.34-11.62c-4.668,7.468-11.248,13.256-19.74,17.36
			C391.733,343.382,382.73,345.438,373.21,345.438z"/>
		<path d="M500.888,342.638v-201.6h32.48v201.6H500.888z"/>
		<path d="M575.926,342.638v-201.6h32.48v201.6H575.926z"/>
		<path d="M715.92,342.638v-192.08h34.72v80.08h77.56v-80.08h34.72v192.08h-34.44v-84h-77.56v84H715.92z"/>
		<path d="M919.762,394.718c-4.296,0-8.26-0.328-11.9-0.98c-3.64-0.656-7.048-1.636-10.22-2.94v-24.92
			c2.052,0.932,4.76,1.724,8.12,2.38c3.36,0.652,6.624,0.98,9.8,0.98c4.852,0,8.912-0.937,12.18-2.8
			c3.264-1.868,6.16-4.948,8.68-9.24c2.52-4.296,4.992-9.896,7.42-16.8l-56-140.84h35l36.68,100.52h1.68l35.56-100.52h32.2
			l-52.92,136.64c-4.108,10.824-8.636,20.672-13.58,29.54c-4.948,8.864-10.828,15.912-17.64,21.14
			C938.005,392.102,929.653,394.718,919.762,394.718z"/>
		<path d="M1105.962,345.438c-10.828,0-20.72-2.616-29.68-7.84c-8.96-5.224-16.148-13.344-21.56-24.36
			c-5.417-11.012-8.12-25.104-8.12-42.28v-3.08c0-15.68,2.563-28.792,7.7-39.34c5.132-10.543,11.944-18.48,20.44-23.8
			c8.492-5.32,17.872-7.98,28.14-7.98c10.08,0,18.664,1.916,25.76,5.74c7.092,3.828,12.503,8.728,16.24,14.7v-76.16h32.48v201.6
			h-25.2l-3.92-19.32c-4.668,6.72-10.457,12.088-17.36,16.1C1123.974,343.43,1115.666,345.438,1105.962,345.438z M1112.402,323.318
			c5.972,0,11.384-1.444,16.24-4.34c4.852-2.892,8.772-7.512,11.76-13.86c2.984-6.344,4.48-14.652,4.48-24.92v-19.88
			c0-9.144-1.448-16.752-4.34-22.82c-2.896-6.063-6.816-10.592-11.76-13.58c-4.948-2.983-10.408-4.48-16.38-4.48
			c-8.96,0-16.476,3.408-22.54,10.22c-6.068,6.816-9.1,17.036-9.1,30.66v19.6c0,10.269,1.4,18.577,4.2,24.92
			c2.8,6.348,6.58,11.016,11.34,14C1101.062,321.826,1106.426,323.318,1112.402,323.318z"/>
		<path d="M1218.798,342.638v-143.08h24.36l4.2,21c0.372-0.56,1.304-2.052,2.8-4.48c1.492-2.424,3.824-5.132,7-8.12
			c3.172-2.983,7.184-5.6,12.04-7.84c4.852-2.24,10.732-3.36,17.64-3.36c9.892,0,17.964,1.96,24.22,5.88
			c6.252,3.92,10.92,9.288,14,16.1c3.08,6.816,4.62,14.608,4.62,23.38c0,2.056-0.096,4.156-0.28,6.3
			c-0.188,2.148-0.376,3.968-0.56,5.46h-27.44v-5.6c0-3.92-0.748-7.932-2.24-12.04c-1.496-4.104-4.016-7.56-7.56-10.36
			c-3.548-2.8-8.496-4.2-14.84-4.2c-4.668,0-8.636,0.98-11.9,2.94c-3.268,1.96-5.928,4.436-7.98,7.42
			c-2.056,2.988-3.5,6.208-4.34,9.66c-0.84,3.456-1.26,6.676-1.26,9.66v91.28H1218.798z"/>
		<path d="M1394.355,345.438c-7.656,0-14.98-1.216-21.98-3.64s-12.74-6.58-17.22-12.46c-4.48-5.88-6.72-13.86-6.72-23.94
			c0-10.264,2.284-18.572,6.86-24.92c4.572-6.344,11.06-11.2,19.46-14.56c8.4-3.36,18.48-5.644,30.24-6.86
			c11.76-1.212,24.824-1.82,39.2-1.82v-13.44c0-9.332-2.38-15.912-7.14-19.74c-4.76-3.824-11.997-5.74-21.7-5.74
			c-8.028,0-15.12,1.776-21.28,5.32c-6.16,3.548-9.24,9.148-9.24,16.8v2.8h-31.36c-0.188-0.744-0.28-1.632-0.28-2.66
			c0-1.024,0-2.004,0-2.94c0-8.212,2.564-15.4,7.7-21.56c5.132-6.16,12.272-10.92,21.42-14.28c9.144-3.36,19.6-5.04,31.36-5.04h4.76
			c19.412,0,33.88,3.828,43.4,11.48c9.52,7.656,14.28,18.388,14.28,32.2v73.08c0,3.548,0.84,6.068,2.52,7.56
			c1.68,1.496,3.543,2.24,5.6,2.24c1.864,0,3.872-0.372,6.02-1.12c2.144-0.744,4.152-1.584,6.02-2.52v19.88
			c-2.428,1.868-5.508,3.312-9.24,4.34c-3.736,1.024-8.216,1.54-13.44,1.54c-6.16,0-11.249-1.12-15.26-3.36
			c-4.016-2.24-7.048-5.272-9.1-9.1c-2.056-3.824-3.268-8.164-3.64-13.02c-5.417,8.028-12.417,14.28-21,18.76
			C1416.007,343.198,1405.927,345.438,1394.355,345.438z M1408.355,323.318c5.972,0,11.664-1.352,17.08-4.06
			c5.412-2.704,9.892-6.764,13.44-12.18c3.544-5.412,5.32-12.224,5.32-20.44v-10.92c-13.068,0-24.268,0.7-33.6,2.1
			c-9.336,1.4-16.428,3.968-21.28,7.7c-4.856,3.736-7.28,9.336-7.28,16.8c0,7.468,2.24,12.836,6.72,16.1
			C1393.235,321.686,1399.767,323.318,1408.355,323.318z"/>
		<path d="M1635.151,342.638l-65.801-192.08h36.12l50.12,146.44h1.12l49.84-146.44h33.32l-66.08,192.08H1635.151z"/>
		<path d="M1765.626,167.358v-26.32h34.16v26.32H1765.626z M1766.466,342.638v-143.08h32.48v143.08H1766.466z"/>
		<path d="M1892.747,345.438c-9.521,0-17.92-1.168-25.2-3.5c-7.28-2.332-13.439-5.46-18.479-9.38s-8.868-8.4-11.48-13.44
			c-2.616-5.04-3.92-10.264-3.92-15.68c0-1.12,0-2.052,0-2.8c0-0.744,0.092-1.772,0.28-3.08h28c-0.188,0.56-0.28,1.076-0.28,1.54
			c0,0.468,0,0.888,0,1.26c0,5.228,1.68,9.52,5.04,12.88s7.792,5.88,13.3,7.56c5.504,1.68,11.62,2.52,18.34,2.52
			c5.601,0,10.92-0.744,15.96-2.24c5.04-1.492,9.145-3.684,12.32-6.58c3.172-2.892,4.76-6.483,4.76-10.78
			c0-4.852-1.68-8.584-5.04-11.2c-3.359-2.612-7.796-4.664-13.3-6.16c-5.508-1.492-11.576-2.8-18.2-3.92
			c-6.628-1.12-13.3-2.472-20.02-4.06c-6.72-1.584-12.837-3.824-18.34-6.72c-5.509-2.892-9.94-6.86-13.301-11.9
			c-3.359-5.04-5.04-11.664-5.04-19.88c0-6.72,1.492-12.784,4.48-18.2c2.983-5.412,7.184-9.94,12.6-13.58
			c5.412-3.64,11.761-6.44,19.04-8.4c7.28-1.96,15.12-2.94,23.521-2.94h4.479c7.841,0,15.164,1.028,21.98,3.08
			c6.812,2.056,12.74,4.856,17.78,8.4c5.04,3.548,8.96,7.656,11.76,12.32c2.8,4.668,4.2,9.616,4.2,14.84
			c0,0.937-0.049,1.96-0.141,3.08c-0.096,1.12-0.14,1.868-0.14,2.24h-28.28v-2.8c0-1.864-0.468-3.872-1.399-6.02
			c-0.937-2.144-2.616-4.2-5.04-6.16c-2.429-1.96-5.648-3.592-9.66-4.9c-4.017-1.304-9.101-1.96-15.26-1.96
			c-5.601,0-10.36,0.56-14.28,1.68s-7.097,2.568-9.521,4.34c-2.428,1.776-4.156,3.688-5.18,5.74c-1.028,2.056-1.54,4.016-1.54,5.88
			c0,4.296,1.68,7.656,5.04,10.08c3.36,2.428,7.84,4.34,13.44,5.74c5.6,1.4,11.76,2.616,18.479,3.64
			c6.72,1.028,13.392,2.336,20.021,3.92c6.623,1.588,12.739,3.876,18.34,6.86c5.6,2.988,10.08,7,13.439,12.04
			c3.36,5.04,5.04,11.668,5.04,19.88c0,8.588-1.636,15.916-4.899,21.98c-3.269,6.068-7.797,10.876-13.58,14.42
			c-5.788,3.548-12.368,6.16-19.74,7.84c-7.376,1.68-15.168,2.52-23.38,2.52H1892.747z"/>
		<path d="M1996.066,167.358v-26.32h34.161v26.32H1996.066z M1996.906,342.638v-143.08h32.481v143.08H1996.906z"/>
		<path d="M2132.986,345.438c-12.696,0-24.08-2.892-34.16-8.68c-10.08-5.784-17.968-14.092-23.66-24.92
			c-5.696-10.824-8.54-23.612-8.54-38.36v-4.76c0-14.932,2.844-27.764,8.54-38.5c5.692-10.732,13.532-18.992,23.521-24.78
			c9.983-5.784,21.323-8.68,34.02-8.68h4.48c12.88,0,24.312,2.896,34.3,8.68c9.983,5.788,17.824,14.048,23.521,24.78
			c5.691,10.736,8.54,23.568,8.54,38.5v4.76c0,14.748-2.849,27.537-8.54,38.36c-5.696,10.828-13.537,19.136-23.521,24.92
			c-9.988,5.788-21.328,8.68-34.02,8.68H2132.986z M2134.946,323.318c6.532,0,12.364-1.54,17.5-4.62
			c5.132-3.08,9.24-7.7,12.32-13.86c3.08-6.16,4.62-13.624,4.62-22.4v-22.68c0-8.96-1.54-16.472-4.62-22.54
			c-3.08-6.064-7.188-10.64-12.32-13.72c-5.136-3.08-10.968-4.62-17.5-4.62c-6.348,0-12.088,1.54-17.22,4.62
			c-5.137,3.08-9.24,7.656-12.32,13.72c-3.08,6.068-4.62,13.58-4.62,22.54v22.68c0,8.776,1.54,16.24,4.62,22.4
			c3.08,6.16,7.184,10.78,12.32,13.86C2122.858,321.778,2128.599,323.318,2134.946,323.318z"/>
		<path d="M2238.822,342.638v-143.08h23.8l4.2,21c5.412-7.84,12.132-13.764,20.16-17.78c8.023-4.012,16.983-6.02,26.88-6.02
			c9.893,0,18.572,1.868,26.04,5.6c7.464,3.736,13.3,9.196,17.5,16.38c4.2,7.188,6.3,16.008,6.3,26.46v97.44h-32.479v-91.56
			c0-10.64-2.477-18.244-7.42-22.82c-4.948-4.572-11.809-6.86-20.58-6.86c-5.788,0-11.108,1.448-15.96,4.34
			c-4.856,2.896-8.729,6.768-11.62,11.62c-2.896,4.856-4.34,10.36-4.34,16.52v88.76H2238.822z"/>
	</g>
</g>
</svg>
