<?xml version="1.0" encoding="iso-8859-1"?>
<!-- Generator: Adobe Illustrator 29.6.0, SVG Export Plug-In . SVG Version: 9.03 Build 0)  -->
<svg version="1.1" xmlns="http://www.w3.org/2000/svg" xmlns:xlink="http://www.w3.org/1999/xlink" x="0px" y="0px"
	 viewBox="0 0 4000 2774" style="enable-background:new 0 0 4000 2774;" xml:space="preserve">
<g id="Background">
	<rect style="fill:#D9E7E8;" width="4000" height="1387"/>
	<rect y="1387" style="fill:#D4E1FC;" width="4000" height="1387"/>
</g>
<g id="Arrows">
</g>
<g id="Shapes">
	<rect x="920.424" y="150" style="fill:#3B7982;" width="2369.151" height="300"/>
	<rect x="920.424" y="450" style="fill:#A5D5D6;" width="447.878" height="200"/>
	<polygon style="fill:#A5D5D6;" points="1368.302,1904.397 920.424,1904.397 921.102,1704.397 1368.302,1704.397 	"/>
	<polygon style="fill:#A5D5D6;" points="3289.576,1904.397 2841.698,1904.397 2842.375,1704.397 3289.576,1704.397 	"/>
	<rect x="2841.698" y="450" style="fill:#A5D5D6;" width="447.878" height="200"/>
	<g>
		<g>
			<g>
				
					<line style="fill:none;stroke:#0033AD;stroke-width:12;stroke-miterlimit:10;" x1="722.307" y1="2080.5" x2="877.367" y2="2080.5"/>
				<g>
					<polygon style="fill:#0033AD;" points="868.613,2110.418 920.424,2080.5 868.613,2050.582 					"/>
				</g>
			</g>
		</g>
		<rect x="280" y="1905.5" style="fill:#0033AD;" width="447.878" height="350"/>
	</g>
	<g>
		<g>
			
				<line style="fill:none;stroke:#0033AD;stroke-width:12;stroke-miterlimit:10;" x1="1362.731" y1="2080.5" x2="1517.791" y2="2080.5"/>
			<g>
				<polygon style="fill:#0033AD;" points="1509.037,2110.418 1560.849,2080.5 1509.037,2050.582 				"/>
			</g>
		</g>
	</g>
	<rect x="920.424" y="1905.5" style="fill:#0033AD;" width="447.878" height="350"/>
	<g>
		<g>
			<g>
				
					<line style="fill:none;stroke:#0033AD;stroke-width:12;stroke-miterlimit:10;" x1="2003.155" y1="2080.5" x2="2158.216" y2="2080.5"/>
				<g>
					<polygon style="fill:#0033AD;" points="2149.462,2110.418 2201.273,2080.5 2149.462,2050.582 					"/>
				</g>
			</g>
		</g>
		<rect x="1560.849" y="1905.5" style="fill:#0033AD;" width="447.878" height="350"/>
	</g>
	<g>
		<g>
			<g>
				
					<line style="fill:none;stroke:#0033AD;stroke-width:12;stroke-miterlimit:10;" x1="2643.58" y1="2080.5" x2="2798.64" y2="2080.5"/>
				<g>
					<polygon style="fill:#0033AD;" points="2789.886,2110.418 2841.698,2080.5 2789.886,2050.582 					"/>
				</g>
			</g>
		</g>
		<rect x="2201.273" y="1905.5" style="fill:#0033AD;" width="447.878" height="350"/>
	</g>
	<g>
		<g>
			
				<line style="fill:none;stroke:#0033AD;stroke-width:12;stroke-miterlimit:10;" x1="3284.004" y1="2080.5" x2="3439.065" y2="2080.5"/>
			<g>
				<polygon style="fill:#0033AD;" points="3430.311,2110.418 3482.122,2080.5 3430.311,2050.582 				"/>
			</g>
		</g>
	</g>
	<rect x="2841.698" y="1905.5" style="fill:#0033AD;" width="447.878" height="350"/>
	<g>
		<rect x="3482.122" y="1905.5" style="fill:#0033AD;" width="447.878" height="350"/>
	</g>
	
		<line style="fill:none;stroke:#FF00FF;stroke-width:9;stroke-miterlimit:10;stroke-dasharray:60,30;" x1="2679.219" y1="1764.748" x2="1530.607" y2="1764.748"/>
	<g>
		<g>
			
				<line style="fill:none;stroke:#FF00FF;stroke-width:9;stroke-miterlimit:10;stroke-dasharray:60,30;" x1="1145.793" y1="713.493" x2="1145.793" y2="1695.79"/>
			<g>
				<polygon style="fill:#FF00FF;" points="1118.866,721.372 1145.793,674.741 1172.719,721.372 				"/>
			</g>
		</g>
	</g>
	<g>
		<g>
			
				<line style="fill:none;stroke:#FF00FF;stroke-width:9;stroke-miterlimit:10;stroke-dasharray:60,30;" x1="3068.226" y1="668.737" x2="3068.226" y2="1653.035"/>
			<g>
				<polygon style="fill:#FF00FF;" points="3041.3,1645.156 3068.226,1691.787 3095.152,1645.156 				"/>
			</g>
		</g>
	</g>
	<g>
		<g>
			<path style="fill:#CCCCCC;" d="M1479.83,1694.352h-5.952v-35.106c0-59.133-46.44-108.597-105.539-110.59
				c-62.1-2.095-113.101,47.625-113.101,109.256v36.44h-5.952c-16.838,0-30.488,13.65-30.488,30.488v194.104
				c0,16.838,13.65,30.488,30.488,30.488h230.544c16.838,0,30.488-13.65,30.488-30.488V1724.84
				C1510.318,1708.002,1496.668,1694.352,1479.83,1694.352z M1291.678,1658.981c0-39.072,30.338-72.023,69.366-73.866
				c41.776-1.973,76.393,31.444,76.393,72.797v36.44h-145.76V1658.981z"/>
		</g>
	</g>
	<g>
		<g>
			<path style="fill:#4D4D4D;" d="M1279.531,1646.834c0-39.072,30.338-72.023,69.366-73.866
				c41.776-1.973,76.394,31.444,76.394,72.797v109.32h36.44v-107.986c0-59.133-46.44-108.597-105.539-110.59
				c-62.1-2.094-113.101,47.625-113.101,109.256v109.32h36.44V1646.834z"/>
		</g>
		<g>
			<path style="fill:#FFD229;" d="M1467.683,1937.285h-230.544c-16.838,0-30.488-13.65-30.488-30.488v-194.104
				c0-16.838,13.65-30.488,30.488-30.488h230.544c16.838,0,30.488,13.65,30.488,30.488v194.104
				C1498.171,1923.635,1484.521,1937.285,1467.683,1937.285z"/>
		</g>
		<path style="opacity:0.2;fill:#FFFFFF;" d="M1230.945,1906.797v-194.104c0-16.838,13.65-30.488,30.488-30.488h-24.293
			c-16.838,0-30.488,13.65-30.488,30.488v194.104c0,16.838,13.65,30.488,30.488,30.488h24.293
			C1244.594,1937.285,1230.945,1923.635,1230.945,1906.797z"/>
		<g>
			<circle style="fill:#4D4D4D;" cx="1352.411" cy="1791.525" r="36.44"/>
		</g>
		<g>
			<rect x="1334.191" y="1791.525" style="fill:#4D4D4D;" width="36.44" height="72.88"/>
		</g>
	</g>
	<g>
		<g>
			<path style="fill:#CCCCCC;" d="M2984.44,1694.352h-5.952v-35.106c0-59.133-46.439-108.597-105.539-110.59
				c-62.1-2.095-113.101,47.625-113.101,109.256v36.44h-5.952c-16.838,0-30.488,13.65-30.488,30.488v194.104
				c0,16.838,13.649,30.488,30.488,30.488h230.544c16.838,0,30.488-13.65,30.488-30.488V1724.84
				C3014.927,1708.002,3001.278,1694.352,2984.44,1694.352z M2796.288,1658.981c0-39.072,30.338-72.023,69.366-73.866
				c41.775-1.973,76.393,31.444,76.393,72.797v36.44h-145.76V1658.981z"/>
		</g>
	</g>
	<g>
		<g>
			<path style="fill:#4D4D4D;" d="M2784.141,1646.834c0-39.072,30.338-72.023,69.366-73.866
				c41.776-1.973,76.394,31.444,76.394,72.797v109.32h36.44v-107.986c0-59.133-46.44-108.597-105.539-110.59
				c-62.1-2.094-113.101,47.625-113.101,109.256v109.32h36.44V1646.834z"/>
		</g>
		<g>
			<path style="fill:#FFD229;" d="M2972.293,1937.285h-230.544c-16.838,0-30.488-13.65-30.488-30.488v-194.104
				c0-16.838,13.65-30.488,30.488-30.488h230.544c16.838,0,30.488,13.65,30.488,30.488v194.104
				C3002.781,1923.635,2989.131,1937.285,2972.293,1937.285z"/>
		</g>
		<path style="opacity:0.2;fill:#FFFFFF;" d="M2735.554,1906.797v-194.104c0-16.838,13.65-30.488,30.488-30.488h-24.293
			c-16.838,0-30.488,13.65-30.488,30.488v194.104c0,16.838,13.65,30.488,30.488,30.488h24.293
			C2749.204,1937.285,2735.554,1923.635,2735.554,1906.797z"/>
		<g>
			<circle style="fill:#4D4D4D;" cx="2857.021" cy="1791.525" r="36.44"/>
		</g>
		<g>
			<rect x="2838.801" y="1791.525" style="fill:#4D4D4D;" width="36.44" height="72.88"/>
		</g>
	</g>
</g>
<g id="Text">
	<g>
		<path style="fill:#FFFFFF;" d="M1659.782,337.39c-6.814,0-13.044-1.004-18.69-3.01c-5.648-2.006-10.174-5.156-13.58-9.45
			c-3.408-4.292-5.11-9.939-5.11-16.939c0-0.561,0-1.096,0-1.61c0-0.512,0.046-1.002,0.14-1.47h18.9
			c-0.094,0.468-0.14,0.888-0.14,1.26c0,0.374,0,0.794,0,1.26c0,2.988,0.722,5.555,2.17,7.7c1.446,2.148,3.592,3.78,6.44,4.9
			c2.846,1.12,6.23,1.68,10.15,1.68c4.386,0,7.98-0.441,10.78-1.33c2.8-0.886,4.9-2.262,6.3-4.13c1.4-1.866,2.1-4.152,2.1-6.86
			c0-2.892-1.004-5.201-3.01-6.93c-2.008-1.726-4.62-3.102-7.84-4.13c-3.22-1.026-6.768-1.982-10.64-2.87
			c-3.874-0.886-7.748-1.936-11.62-3.15c-3.874-1.212-7.444-2.846-10.71-4.899c-3.268-2.052-5.88-4.76-7.84-8.12
			s-2.94-7.652-2.94-12.88c0-6.252,1.702-11.432,5.11-15.54c3.406-4.106,7.932-7.187,13.58-9.24c5.646-2.052,11.782-3.08,18.41-3.08
			c6.625,0,12.646,0.958,18.06,2.87c5.412,1.914,9.752,4.9,13.02,8.96c3.266,4.061,4.9,9.311,4.9,15.75v1.82h-18.62v-1.681
			c0-2.52-0.678-4.711-2.03-6.579c-1.354-1.866-3.29-3.29-5.81-4.271c-2.52-0.979-5.6-1.47-9.24-1.47c-3.36,0-6.324,0.35-8.89,1.05
			c-2.568,0.7-4.55,1.82-5.95,3.36c-1.4,1.54-2.1,3.523-2.1,5.949c0,2.801,0.98,5.04,2.94,6.721c1.96,1.68,4.572,3.01,7.84,3.989
			c3.266,0.98,6.882,1.914,10.85,2.801c3.966,0.888,7.886,1.914,11.76,3.08c3.872,1.168,7.442,2.754,10.71,4.76
			c3.266,2.008,5.88,4.668,7.84,7.979c1.96,3.314,2.94,7.538,2.94,12.67c0,7.469-1.774,13.465-5.32,17.99
			c-3.548,4.528-8.33,7.84-14.35,9.94C1674.272,336.34,1667.434,337.39,1659.782,337.39z"/>
		<path style="fill:#FFFFFF;" d="M1740.001,337.39c-4.014,0-7.608-0.56-10.78-1.68c-3.174-1.12-5.648-3.01-7.42-5.67
			c-1.774-2.66-2.66-6.182-2.66-10.57V278.73h-7.84v-14.28h8.4l6.72-22.82h11.76v22.82h16.8v14.28h-16.8v36.539
			c0,4.108,0.84,6.721,2.52,7.841s3.5,1.68,5.46,1.68c1.026,0,2.45-0.21,4.27-0.63c1.82-0.42,3.29-0.862,4.41-1.33v11.76
			c-1.214,0.654-2.708,1.19-4.48,1.61c-1.774,0.42-3.57,0.722-5.39,0.91C1743.151,337.296,1741.493,337.39,1740.001,337.39z"/>
		<path style="fill:#FFFFFF;" d="M1788.858,337.39c-3.828,0-7.49-0.63-10.99-1.89s-6.37-3.36-8.61-6.3
			c-2.24-2.94-3.36-6.931-3.36-11.97c0-5.133,1.142-9.286,3.43-12.461c2.286-3.172,5.506-5.621,9.66-7.35
			c4.152-1.726,9.146-2.916,14.98-3.57c5.832-0.651,12.39-0.979,19.67-0.979v-6.3c0-4.106-1.12-7.022-3.36-8.75
			c-2.24-1.727-5.508-2.59-9.8-2.59c-3.64,0-6.838,0.817-9.59,2.449c-2.754,1.635-4.13,4.13-4.13,7.49v1.12h-18.34
			c-0.094-0.28-0.14-0.676-0.14-1.19c0-0.512,0-0.955,0-1.33c0-4.105,1.306-7.722,3.92-10.85c2.612-3.126,6.252-5.552,10.92-7.28
			c4.666-1.726,10.08-2.59,16.24-2.59h2.94c10.08,0,17.592,1.984,22.54,5.95c4.946,3.968,7.42,9.31,7.42,16.03v34.859
			c0,1.774,0.442,3.034,1.33,3.78c0.886,0.748,1.842,1.12,2.87,1.12c0.84,0,1.772-0.162,2.8-0.49
			c1.026-0.326,2.006-0.722,2.94-1.189v11.199c-1.214,0.935-2.824,1.681-4.83,2.24c-2.008,0.561-4.41,0.84-7.21,0.84
			c-3.36,0-6.16-0.538-8.4-1.609c-2.24-1.072-3.944-2.542-5.11-4.41c-1.168-1.866-1.89-4.012-2.17-6.44
			c-2.614,3.734-6.068,6.744-10.36,9.03C1799.825,336.246,1794.739,337.39,1788.858,337.39z M1797.819,324.79
			c2.612,0,5.11-0.606,7.49-1.82c2.38-1.212,4.362-3.01,5.95-5.39c1.586-2.38,2.38-5.342,2.38-8.89v-5.74
			c-5.974,0-11.038,0.374-15.19,1.12c-4.154,0.748-7.304,1.983-9.45,3.71c-2.148,1.728-3.22,4.224-3.22,7.489
			c0,3.454,1.05,5.904,3.15,7.351C1791.029,324.068,1793.991,324.79,1797.819,324.79z"/>
		<path style="fill:#FFFFFF;" d="M1879.298,337.39c-4.014,0-7.608-0.56-10.78-1.68c-3.174-1.12-5.648-3.01-7.42-5.67
			c-1.774-2.66-2.66-6.182-2.66-10.57V278.73h-7.84v-14.28h8.4l6.72-22.82h11.76v22.82h16.8v14.28h-16.8v36.539
			c0,4.108,0.84,6.721,2.52,7.841s3.5,1.68,5.46,1.68c1.026,0,2.45-0.21,4.27-0.63c1.82-0.42,3.29-0.862,4.41-1.33v11.76
			c-1.214,0.654-2.708,1.19-4.48,1.61c-1.774,0.42-3.57,0.722-5.39,0.91C1882.448,337.296,1880.79,337.39,1879.298,337.39z"/>
		<path style="fill:#FFFFFF;" d="M1940.476,337.39c-6.72,0-12.67-1.378-17.85-4.13s-9.218-6.766-12.11-12.04
			c-2.894-5.271-4.34-11.689-4.34-19.25v-3.5c0-7.56,1.516-13.976,4.55-19.25c3.032-5.271,7.186-9.286,12.46-12.04
			c5.272-2.752,11.27-4.13,17.99-4.13h2.24c6.346,0,11.876,1.284,16.59,3.851c4.712,2.567,8.352,6.159,10.92,10.779
			c2.566,4.62,3.85,10.011,3.85,16.17v8.82h-48.44c0,4.48,0.56,8.4,1.68,11.76c1.12,3.36,2.8,5.929,5.04,7.7
			c2.24,1.774,5.18,2.66,8.82,2.66c2.986,0,5.6-0.582,7.84-1.75c2.24-1.166,4.012-2.916,5.32-5.25c1.306-2.332,1.96-5.18,1.96-8.54
			h17.78c0,5.508-1.4,10.384-4.2,14.63c-2.8,4.248-6.65,7.561-11.55,9.94s-10.57,3.569-17.01,3.569H1940.476z M1926.476,292.87
			h29.54c0-5.88-1.284-10.242-3.85-13.09c-2.568-2.847-6.09-4.271-10.57-4.271c-4.2,0-7.724,1.471-10.57,4.41
			C1928.178,282.86,1926.662,287.178,1926.476,292.87z"/>
		<path style="fill:#FFFFFF;" d="M1989.334,306.17v-16.52h35.561v16.52H1989.334z"/>
		<path style="fill:#FFFFFF;" d="M2080.893,337.39c-5.694,0-10.99-0.84-15.89-2.52c-4.9-1.68-9.219-4.292-12.95-7.84
			c-3.734-3.546-6.65-8.12-8.75-13.721c-2.101-5.6-3.15-12.365-3.15-20.3v-10.22c0-7.652,1.072-14.28,3.22-19.88
			c2.146-5.601,5.086-10.196,8.82-13.79c3.732-3.592,8.026-6.252,12.88-7.98c4.853-1.726,10.032-2.59,15.54-2.59h2.521
			c5.226,0,10.149,0.725,14.77,2.17c4.62,1.448,8.68,3.734,12.18,6.86c3.5,3.128,6.252,7.164,8.261,12.11
			c2.006,4.947,3.01,10.92,3.01,17.92h-19.18c0-6.16-0.864-10.942-2.591-14.351c-1.728-3.405-4.107-5.786-7.14-7.14
			c-3.034-1.352-6.604-2.03-10.71-2.03c-2.894,0-5.578,0.444-8.05,1.33c-2.475,0.889-4.599,2.288-6.37,4.2
			c-1.774,1.914-3.15,4.434-4.13,7.56c-0.98,3.129-1.47,6.931-1.47,11.41v18.76c0,5.975,0.84,10.759,2.52,14.351
			c1.68,3.594,4.012,6.184,7,7.77c2.986,1.589,6.486,2.38,10.5,2.38c4.386,0,8.166-0.676,11.34-2.029
			c3.172-1.353,5.601-3.732,7.28-7.141c1.68-3.405,2.52-8.142,2.52-14.21h18.48c0,6.628-1.004,12.391-3.01,17.29
			c-2.009,4.9-4.738,8.938-8.19,12.11c-3.454,3.174-7.468,5.554-12.04,7.14c-4.574,1.586-9.474,2.38-14.7,2.38H2080.893z"/>
		<path style="fill:#FFFFFF;" d="M2137.03,335.99v-100.8h19.18v38.359c2.612-3.452,5.716-6.065,9.31-7.84
			c3.593-1.771,7.582-2.66,11.971-2.66c4.76,0,8.936,0.935,12.529,2.8c3.593,1.868,6.416,4.551,8.471,8.051
			c2.052,3.5,3.08,7.678,3.08,12.529v49.561h-19.181v-45.5c0-4.572-1.12-7.932-3.359-10.08c-2.24-2.146-5.274-3.22-9.101-3.22
			c-2.428,0-4.714,0.63-6.859,1.89c-2.148,1.26-3.828,2.964-5.04,5.11c-1.214,2.147-1.82,4.573-1.82,7.279v44.521H2137.03z"/>
		<path style="fill:#FFFFFF;" d="M2239.368,337.39c-3.828,0-7.49-0.63-10.99-1.89s-6.37-3.36-8.609-6.3
			c-2.24-2.94-3.36-6.931-3.36-11.97c0-5.133,1.142-9.286,3.43-12.461c2.286-3.172,5.506-5.621,9.66-7.35
			c4.152-1.726,9.146-2.916,14.98-3.57c5.831-0.651,12.39-0.979,19.67-0.979v-6.3c0-4.106-1.12-7.022-3.36-8.75
			c-2.24-1.727-5.508-2.59-9.8-2.59c-3.641,0-6.838,0.817-9.59,2.449c-2.754,1.635-4.13,4.13-4.13,7.49v1.12h-18.341
			c-0.094-0.28-0.14-0.676-0.14-1.19c0-0.512,0-0.955,0-1.33c0-4.105,1.306-7.722,3.92-10.85c2.612-3.126,6.252-5.552,10.92-7.28
			c4.666-1.726,10.08-2.59,16.24-2.59h2.94c10.079,0,17.592,1.984,22.539,5.95c4.946,3.968,7.421,9.31,7.421,16.03v34.859
			c0,1.774,0.441,3.034,1.329,3.78c0.887,0.748,1.843,1.12,2.87,1.12c0.841,0,1.772-0.162,2.801-0.49
			c1.025-0.326,2.006-0.722,2.939-1.189v11.199c-1.214,0.935-2.824,1.681-4.83,2.24c-2.008,0.561-4.41,0.84-7.21,0.84
			c-3.359,0-6.16-0.538-8.399-1.609c-2.24-1.072-3.944-2.542-5.11-4.41c-1.168-1.866-1.89-4.012-2.17-6.44
			c-2.614,3.734-6.068,6.744-10.36,9.03C2250.334,336.246,2245.248,337.39,2239.368,337.39z M2248.328,324.79
			c2.612,0,5.11-0.606,7.49-1.82c2.38-1.212,4.361-3.01,5.95-5.39c1.586-2.38,2.38-5.342,2.38-8.89v-5.74
			c-5.975,0-11.038,0.374-15.19,1.12c-4.154,0.748-7.304,1.983-9.45,3.71c-2.147,1.728-3.22,4.224-3.22,7.489
			c0,3.454,1.05,5.904,3.15,7.351C2241.538,324.068,2244.5,324.79,2248.328,324.79z"/>
		<path style="fill:#FFFFFF;" d="M2305.727,335.99v-71.54h14.14l2.24,10.5c2.8-4.012,6.182-7,10.149-8.96
			c3.967-1.96,8.471-2.94,13.511-2.94c4.852,0,9.121,0.935,12.81,2.8c3.687,1.868,6.532,4.528,8.54,7.98
			c2.006,3.454,3.01,7.654,3.01,12.6v49.561h-19.04v-45.5c0-4.572-1.12-7.932-3.359-10.08c-2.24-2.146-5.274-3.22-9.101-3.22
			c-2.428,0-4.714,0.63-6.859,1.89c-2.148,1.26-3.828,2.964-5.04,5.11c-1.214,2.147-1.82,4.573-1.82,7.279v44.521H2305.727z"/>
		<path style="fill:#FFFFFF;" d="M2389.304,335.99v-71.54h14.141l2.239,10.5c2.801-4.012,6.183-7,10.15-8.96
			c3.966-1.96,8.47-2.94,13.51-2.94c4.853,0,9.122,0.935,12.811,2.8c3.686,1.868,6.531,4.528,8.54,7.98
			c2.006,3.454,3.01,7.654,3.01,12.6v49.561h-19.04v-45.5c0-4.572-1.12-7.932-3.36-10.08c-2.24-2.146-5.273-3.22-9.1-3.22
			c-2.429,0-4.714,0.63-6.86,1.89c-2.147,1.26-3.828,2.964-5.04,5.11c-1.214,2.147-1.819,4.573-1.819,7.279v44.521H2389.304z"/>
		<path style="fill:#FFFFFF;" d="M2503.962,337.39c-6.72,0-12.67-1.378-17.85-4.13c-5.181-2.752-9.219-6.766-12.11-12.04
			c-2.894-5.271-4.34-11.689-4.34-19.25v-3.5c0-7.56,1.516-13.976,4.55-19.25c3.032-5.271,7.187-9.286,12.46-12.04
			c5.272-2.752,11.271-4.13,17.99-4.13h2.24c6.346,0,11.876,1.284,16.59,3.851c4.712,2.567,8.352,6.159,10.92,10.779
			c2.565,4.62,3.85,10.011,3.85,16.17v8.82h-48.439c0,4.48,0.56,8.4,1.68,11.76c1.12,3.36,2.8,5.929,5.04,7.7
			c2.24,1.774,5.18,2.66,8.82,2.66c2.985,0,5.6-0.582,7.84-1.75c2.24-1.166,4.012-2.916,5.32-5.25c1.306-2.332,1.96-5.18,1.96-8.54
			h17.779c0,5.508-1.399,10.384-4.199,14.63c-2.801,4.248-6.65,7.561-11.551,9.94c-4.899,2.38-10.569,3.569-17.01,3.569H2503.962z
			 M2489.962,292.87h29.54c0-5.88-1.284-10.242-3.85-13.09c-2.568-2.847-6.09-4.271-10.57-4.271c-4.2,0-7.724,1.471-10.57,4.41
			C2491.664,282.86,2490.148,287.178,2489.962,292.87z"/>
		<path style="fill:#FFFFFF;" d="M2554.36,335.99v-100.8h19.18v100.8H2554.36z"/>
	</g>
	<g>
		<path d="M1096.005,603.833c-7.188,0-13.394-1.33-18.62-3.99c-5.228-2.66-9.264-6.416-12.11-11.27
			c-2.848-4.852-4.27-10.5-4.27-16.94v-65.24h20.44v64.96c0,5.04,1.562,9.124,4.69,12.25c3.126,3.128,7.35,4.69,12.67,4.69
			c5.32,0,9.52-1.586,12.6-4.76c3.08-3.172,4.62-7.232,4.62-12.18v-64.96h20.44v65.24c0,6.44-1.564,12.088-4.69,16.94
			c-3.128,4.854-7.42,8.61-12.88,11.27c-5.46,2.66-11.784,3.99-18.97,3.99H1096.005z"/>
		<path d="M1187.703,603.833c-6.16,0-11.76-1.446-16.799-4.34c-5.04-2.892-9.03-6.86-11.97-11.9s-4.41-10.732-4.41-17.08v-32.2
			c0-6.44,1.47-12.156,4.41-17.15c2.94-4.992,6.93-8.936,11.97-11.83c5.04-2.892,10.639-4.34,16.799-4.34h4.06
			c6.252,0,11.876,1.448,16.87,4.34c4.992,2.894,8.936,6.838,11.83,11.83c2.892,4.994,4.34,10.71,4.34,17.15v32.2
			c0,6.348-1.448,12.04-4.34,17.08c-2.894,5.04-6.838,9.008-11.83,11.9c-4.994,2.894-10.618,4.34-16.87,4.34H1187.703z
			 M1189.663,589.133c3.08,0,5.81-0.722,8.19-2.17c2.38-1.446,4.246-3.382,5.6-5.81c1.352-2.426,2.03-5.18,2.03-8.26v-37.1
			c0-3.08-0.678-5.832-2.03-8.26c-1.354-2.426-3.22-4.362-5.6-5.81c-2.38-1.446-5.11-2.17-8.19-2.17c-2.988,0-5.67,0.724-8.05,2.17
			c-2.38,1.448-4.27,3.384-5.67,5.81c-1.4,2.428-2.1,5.18-2.1,8.26v37.1c0,3.08,0.7,5.834,2.1,8.26c1.4,2.428,3.29,4.364,5.67,5.81
			C1183.993,588.411,1186.675,589.133,1189.663,589.133z"/>
	</g>
	<g>
		<path d="M3016.626,603.833c-7.188,0-13.394-1.33-18.62-3.99c-5.229-2.66-9.264-6.416-12.109-11.27
			c-2.849-4.852-4.271-10.5-4.271-16.94v-65.24h20.44v64.96c0,5.04,1.562,9.124,4.689,12.25c3.126,3.128,7.35,4.69,12.67,4.69
			s9.52-1.586,12.6-4.76c3.08-3.172,4.621-7.232,4.621-12.18v-64.96h20.439v65.24c0,6.44-1.564,12.088-4.689,16.94
			c-3.129,4.854-7.42,8.61-12.881,11.27c-5.46,2.66-11.783,3.99-18.97,3.99H3016.626z"/>
		<path d="M3076.406,602.433v-71.54h14.14l2.239,10.5c2.801-4.012,6.183-7,10.15-8.96c3.966-1.96,8.47-2.94,13.51-2.94
			c4.852,0,9.121,0.934,12.811,2.8c3.686,1.868,6.531,4.528,8.539,7.98c2.006,3.454,3.01,7.654,3.01,12.6v49.56h-19.039v-45.5
			c0-4.572-1.121-7.932-3.36-10.08c-2.24-2.146-5.274-3.22-9.101-3.22c-2.428,0-4.713,0.63-6.859,1.89
			c-2.148,1.26-3.828,2.964-5.039,5.11c-1.215,2.148-1.82,4.574-1.82,7.28v44.52H3076.406z"/>
	</g>
	<g>
		<path style="fill:#0033AD;" d="M168.021,2383.736H71.98v-17.359h82.6v-42l13.44-2.101V2383.736z"/>
		<path style="fill:#0033AD;" d="M168.021,2305.198l-96.04-36.399v-20.16l96.04-36.26v18.199l-20.86,7.98v41.72l20.86,7.979
			V2305.198z M134.42,2275.799v-32.621l-43.54,15.961v0.56L134.42,2275.799z"/>
		<path style="fill:#0033AD;" d="M168.021,2167.438h-36.96l-59.08,33.181v-19.601l42.42-22.819v-0.42l-42.42-23.24v-17.64
			l59.08,33.18h36.96V2167.438z"/>
		<path style="fill:#0033AD;" d="M168.021,2090.439H71.98v-64.961l13.44,1.961v45.64h26.88v-41.72h13.44v41.72h28.84v-46.341
			l13.44-2.1V2090.439z"/>
		<path style="fill:#0033AD;" d="M168.86,1924.819c0,2.708-0.49,5.181-1.47,7.42c-0.98,2.24-2.776,4.038-5.39,5.39
			c-2.612,1.354-6.346,2.03-11.2,2.03c-4.106,0-7.56,0.444-10.36,1.33c-2.8,0.888-5.086,2.078-6.86,3.57
			c-1.772,1.494-3.056,3.174-3.85,5.04c-0.792,1.868-1.19,3.779-1.19,5.74v20.3h39.48V1993H71.98v-46.48
			c0-4.572,1.004-8.796,3.01-12.67c2.008-3.872,4.808-7.021,8.4-9.45c3.594-2.426,7.818-3.64,12.67-3.64
			c3.828,0,7.374,0.77,10.64,2.31c3.268,1.54,6.114,3.595,8.54,6.16c2.428,2.567,4.248,5.39,5.46,8.47h0.7
			c0.374-1.212,1.05-2.66,2.03-4.34s2.38-3.336,4.2-4.97c1.82-1.632,4.178-3.011,7.07-4.13c2.894-1.12,6.44-1.68,10.64-1.68
			c3.08,0,5.67-0.141,7.77-0.421c2.1-0.28,3.828-0.7,5.18-1.26c1.354-0.56,2.428-1.306,3.22-2.24c0.794-0.932,1.424-2.006,1.89-3.22
			h3.92c0.468,1.12,0.84,2.52,1.12,4.2C168.721,1921.319,168.86,1923.047,168.86,1924.819z M115.101,1975.64v-24.08
			c0-2.521-0.816-4.782-2.45-6.79c-1.632-2.006-3.756-3.616-6.37-4.83c-2.612-1.212-5.366-1.82-8.26-1.82
			c-3.92,0-7,1.238-9.24,3.711c-2.24,2.474-3.36,5.67-3.36,9.59v24.22H115.101z"/>
		<path style="fill:#0033AD;" d="M168.021,1839.422h-13.3v-24.64H90.46v24.64h-9.8c-0.28-3.266-0.862-6.859-1.75-10.779
			c-0.886-3.92-2.052-7.98-3.5-12.18c-1.446-4.201-3.056-8.26-4.83-12.181v-5.88h84.14v-24.359h13.3V1839.422z"/>
	</g>
	<g>
		<path style="fill:#0033AD;" d="M547.898,2676.927v-10.899h8v-46.801h-8v-10.899h30.6v10.899h-8v46.801h8v10.899H547.898z"/>
		<path style="fill:#0033AD;" d="M590.298,2676.927v-51.1h10.1l1.6,7.5c2-2.866,4.416-5,7.25-6.4c2.833-1.399,6.05-2.1,9.65-2.1
			c3.466,0,6.516,0.667,9.15,2c2.633,1.334,4.666,3.234,6.1,5.7c1.433,2.467,2.15,5.467,2.15,9v35.399h-13.6v-32.5
			c0-3.266-0.8-5.665-2.4-7.2c-1.6-1.532-3.767-2.3-6.5-2.3c-1.734,0-3.367,0.45-4.9,1.351c-1.534,0.899-2.734,2.117-3.6,3.649
			c-0.867,1.534-1.3,3.268-1.3,5.2v31.8H590.298z"/>
		<path style="fill:#0033AD;" d="M650.297,2615.527v-10.601h14.1v10.601H650.297z M650.497,2676.927v-51.1h13.7v51.1H650.497z"/>
		<path style="fill:#0033AD;" d="M695.596,2677.927c-2.867,0-5.435-0.399-7.7-1.2c-2.267-0.8-4.034-2.149-5.3-4.05
			c-1.267-1.899-1.9-4.415-1.9-7.55v-29.1h-5.6v-10.2h6l4.8-16.3h8.4v16.3h12v10.2h-12v26.1c0,2.935,0.6,4.8,1.8,5.6
			c1.2,0.801,2.5,1.2,3.9,1.2c0.733,0,1.75-0.149,3.05-0.45c1.3-0.3,2.35-0.615,3.15-0.949v8.399c-0.867,0.468-1.935,0.851-3.2,1.15
			c-1.267,0.3-2.55,0.516-3.85,0.649C697.846,2677.859,696.661,2677.927,695.596,2677.927z"/>
		<path style="fill:#0033AD;" d="M717.395,2615.527v-10.601h14.1v10.601H717.395z M717.594,2676.927v-51.1h13.7v51.1H717.594z"/>
		<path style="fill:#0033AD;" d="M758.793,2677.927c-2.734,0-5.35-0.45-7.85-1.35c-2.5-0.9-4.55-2.4-6.15-4.5
			c-1.6-2.101-2.4-4.95-2.4-8.55c0-3.666,0.816-6.633,2.45-8.9c1.633-2.266,3.933-4.016,6.9-5.25c2.966-1.232,6.533-2.083,10.7-2.55
			c4.166-0.466,8.85-0.7,14.05-0.7v-4.5c0-2.933-0.8-5.016-2.4-6.25c-1.6-1.232-3.935-1.85-7-1.85c-2.6,0-4.884,0.584-6.85,1.75
			c-1.967,1.167-2.95,2.949-2.95,5.35v0.8h-13.1c-0.067-0.2-0.1-0.482-0.1-0.85c0-0.366,0-0.683,0-0.95
			c0-2.933,0.933-5.516,2.8-7.75c1.866-2.232,4.466-3.966,7.8-5.2c3.333-1.232,7.2-1.85,11.6-1.85h2.1c7.2,0,12.566,1.417,16.1,4.25
			c3.533,2.834,5.3,6.649,5.3,11.45v24.899c0,1.268,0.315,2.167,0.95,2.7c0.633,0.534,1.316,0.8,2.05,0.8c0.6,0,1.266-0.115,2-0.35
			c0.732-0.233,1.433-0.516,2.1-0.851v8c-0.867,0.668-2.017,1.2-3.45,1.601c-1.435,0.399-3.15,0.6-5.15,0.6
			c-2.4,0-4.4-0.384-6-1.149c-1.6-0.766-2.817-1.816-3.65-3.15c-0.834-1.333-1.35-2.865-1.55-4.6
			c-1.867,2.667-4.334,4.816-7.4,6.449C766.626,2677.109,762.993,2677.927,758.793,2677.927z M765.193,2668.927
			c1.866,0,3.65-0.433,5.35-1.3c1.7-0.865,3.115-2.15,4.25-3.85c1.133-1.7,1.7-3.816,1.7-6.351v-4.1c-4.267,0-7.884,0.267-10.85,0.8
			c-2.967,0.534-5.217,1.417-6.75,2.65c-1.534,1.234-2.3,3.017-2.3,5.35c0,2.467,0.75,4.217,2.25,5.25
			C760.343,2668.411,762.459,2668.927,765.193,2668.927z"/>
		<path style="fill:#0033AD;" d="M806.191,2676.927v-72h13.7v72H806.191z"/>
		<path style="fill:#0033AD;" d="M834.89,2615.527v-10.601h14.1v10.601H834.89z M835.09,2676.927v-51.1h13.7v51.1H835.09z"/>
		<path style="fill:#0033AD;" d="M859.489,2676.927v-4.7l22.6-37.199h-21.3v-9.2h39.3v4.5l-22.6,37.399h23.4v9.2H859.489z"/>
		<path style="fill:#0033AD;" d="M911.588,2615.527v-10.601h14.1v10.601H911.588z M911.788,2676.927v-51.1h13.7v51.1H911.788z"/>
		<path style="fill:#0033AD;" d="M939.587,2676.927v-51.1h10.1l1.6,7.5c2-2.866,4.416-5,7.25-6.4c2.833-1.399,6.05-2.1,9.65-2.1
			c3.466,0,6.516,0.667,9.15,2c2.633,1.334,4.666,3.234,6.1,5.7c1.433,2.467,2.15,5.467,2.15,9v35.399h-13.6v-32.5
			c0-3.266-0.8-5.665-2.4-7.2c-1.6-1.532-3.767-2.3-6.5-2.3c-1.734,0-3.367,0.45-4.9,1.351c-1.534,0.899-2.734,2.117-3.6,3.649
			c-0.867,1.534-1.3,3.268-1.3,5.2v31.8H939.587z"/>
		<path style="fill:#0033AD;" d="M1007.786,2695.727c-2.334,0-4.45-0.55-6.35-1.649c-1.9-1.101-3.435-2.585-4.6-4.45
			c-1.167-1.867-1.75-3.9-1.75-6.1c0-2.468,0.666-4.75,2-6.851c1.333-2.1,3.166-3.683,5.5-4.75c-1.467-0.933-2.617-2.149-3.45-3.649
			c-0.834-1.5-1.25-3.083-1.25-4.75c0-2.466,0.8-4.583,2.4-6.351c1.6-1.766,3.633-3.05,6.1-3.85c-2.067-1.266-3.767-2.833-5.1-4.7
			c-1.334-1.865-2-4.166-2-6.9c0-2.865,0.783-5.6,2.35-8.199c1.566-2.601,3.933-4.7,7.1-6.301c3.166-1.6,7.183-2.399,12.05-2.399
			c2,0,3.866,0.1,5.6,0.3c1.733,0.2,3.266,0.534,4.6,1c2.6-1.4,4.516-2.933,5.75-4.6c1.233-1.666,1.916-3.301,2.05-4.9h10.7
			c0,2.268-0.435,4.3-1.3,6.1c-0.867,1.801-2.084,3.285-3.65,4.45c-1.567,1.167-3.45,2.018-5.65,2.55l-0.1,0.301
			c1.6,1.334,2.883,2.899,3.85,4.699c0.966,1.801,1.45,3.768,1.45,5.9c0,2.935-0.817,5.635-2.45,8.1
			c-1.634,2.468-3.934,4.45-6.9,5.95c-2.967,1.5-6.45,2.25-10.45,2.25h-7.5c-2.067,0-3.667,0.417-4.8,1.25
			c-1.134,0.835-1.7,1.95-1.7,3.351c0,1.267,0.516,2.334,1.55,3.199c1.033,0.867,2.683,1.301,4.95,1.301h17.7
			c4.666,0,8.333,1.367,11,4.1c2.666,2.734,4,6.1,4,10.1c0,2.801-0.7,5.383-2.1,7.75c-1.4,2.366-3.35,4.25-5.85,5.65
			s-5.384,2.1-8.65,2.1H1007.786z M1012.986,2687.227h17.3c1.8,0,3.35-0.584,4.65-1.75c1.3-1.167,1.95-2.584,1.95-4.25
			c0-1.534-0.55-2.834-1.65-3.899s-2.484-1.601-4.15-1.601h-18.1c-1.734,0-3.2,0.567-4.4,1.7c-1.2,1.133-1.8,2.466-1.8,4
			c0,1.533,0.6,2.883,1.8,4.05C1009.786,2686.643,1011.251,2687.227,1012.986,2687.227z M1021.786,2649.427
			c2.933,0,5.25-0.833,6.95-2.5c1.7-1.665,2.55-3.665,2.55-6c0-2.333-0.85-4.35-2.55-6.05s-4.017-2.55-6.95-2.55
			c-2.934,0-5.267,0.85-7,2.55c-1.734,1.7-2.6,3.717-2.6,6.05c0,2.335,0.865,4.335,2.6,6
			C1016.519,2648.594,1018.852,2649.427,1021.786,2649.427z"/>
	</g>
	<g>
		<path style="fill:#0033AD;" d="M1917.059,2677.927c-3.935,0-7.635-0.667-11.1-2c-3.467-1.333-6.517-3.315-9.15-5.95
			c-2.635-2.633-4.685-5.915-6.15-9.85c-1.467-3.933-2.2-8.565-2.2-13.9v-7.1c0-5.333,0.75-9.966,2.25-13.9
			c1.5-3.933,3.565-7.215,6.2-9.85c2.633-2.633,5.666-4.615,9.1-5.95c3.433-1.333,7.083-2,10.95-2h3.4c4,0,7.716,0.667,11.15,2
			c3.433,1.335,6.466,3.317,9.1,5.95c2.633,2.635,4.683,5.917,6.15,9.85c1.466,3.935,2.2,8.567,2.2,13.9v7.1
			c0,5.335-0.75,9.968-2.25,13.9c-1.5,3.935-3.567,7.217-6.2,9.85c-2.634,2.635-5.667,4.617-9.1,5.95c-3.434,1.333-7.084,2-10.95,2
			H1917.059z M1918.658,2666.827c2.133,0,4.1-0.315,5.9-0.95c1.8-0.633,3.365-1.633,4.7-3c1.333-1.365,2.383-3.15,3.15-5.35
			c0.766-2.2,1.15-4.9,1.15-8.101v-13.399c0-3.2-0.385-5.916-1.15-8.15c-0.767-2.232-1.817-4.033-3.15-5.4
			c-1.334-1.365-2.9-2.365-4.7-3c-1.8-0.633-3.734-0.949-5.8-0.949c-2.067,0-4.017,0.316-5.85,0.949
			c-1.834,0.635-3.417,1.635-4.75,3c-1.334,1.367-2.384,3.15-3.15,5.351c-0.767,2.2-1.15,4.899-1.15,8.1v13.4
			c0,3.2,0.383,5.917,1.15,8.149c0.766,2.234,1.816,4.035,3.15,5.4c1.333,1.367,2.9,2.367,4.7,3
			C1914.658,2666.512,1916.591,2666.827,1918.658,2666.827z"/>
		<path style="fill:#0033AD;" d="M1960.458,2695.027v-69.2h10.7l1.5,6.6c1.533-2.2,3.583-4.016,6.15-5.45
			c2.566-1.433,5.583-2.149,9.05-2.149c3.933,0,7.483,0.85,10.65,2.55c3.166,1.7,5.666,4.417,7.5,8.15
			c1.833,3.734,2.75,8.634,2.75,14.699v2.101c0,5.6-0.9,10.317-2.7,14.149c-1.8,3.835-4.234,6.7-7.3,8.601
			c-3.067,1.899-6.435,2.85-10.1,2.85c-3.534,0-6.5-0.667-8.9-2s-4.234-3.032-5.5-5.1v24.2H1960.458z M1984.358,2668.827
			c1.933,0,3.65-0.5,5.15-1.5s2.683-2.433,3.55-4.3c0.866-1.866,1.3-4.166,1.3-6.9v-8.9c0-3.065-0.435-5.582-1.3-7.55
			c-0.867-1.966-2.05-3.433-3.55-4.399c-1.5-0.966-3.217-1.45-5.15-1.45c-1.8,0-3.484,0.467-5.05,1.399
			c-1.567,0.935-2.817,2.367-3.75,4.301c-0.934,1.934-1.4,4.467-1.4,7.6v9c0,2.734,0.45,5.05,1.35,6.95
			c0.9,1.899,2.133,3.334,3.7,4.3C1980.773,2668.344,1982.491,2668.827,1984.358,2668.827z"/>
		<path style="fill:#0033AD;" d="M2042.357,2677.927c-4.801,0-9.051-0.984-12.75-2.95c-3.701-1.965-6.585-4.832-8.65-8.6
			c-2.067-3.766-3.1-8.35-3.1-13.75v-2.5c0-5.4,1.082-9.982,3.25-13.75c2.165-3.766,5.133-6.633,8.899-8.6
			c3.766-1.966,8.05-2.95,12.851-2.95h1.6c4.533,0,8.482,0.917,11.85,2.75c3.365,1.834,5.966,4.399,7.801,7.7
			c1.832,3.3,2.75,7.149,2.75,11.55v6.3h-34.601c0,3.2,0.399,6,1.2,8.4c0.8,2.399,2,4.234,3.6,5.5c1.6,1.267,3.7,1.899,6.301,1.899
			c2.133,0,4-0.415,5.6-1.25c1.6-0.833,2.865-2.083,3.8-3.75c0.933-1.665,1.399-3.7,1.399-6.1h12.701c0,3.935-1,7.417-3,10.45
			c-2,3.034-4.75,5.399-8.25,7.1s-7.551,2.55-12.15,2.55H2042.357z M2032.357,2646.127h21.1c0-4.2-0.918-7.315-2.75-9.35
			c-1.834-2.033-4.35-3.051-7.551-3.051c-3,0-5.517,1.051-7.549,3.15C2033.572,2638.977,2032.49,2642.062,2032.357,2646.127z"/>
		<path style="fill:#0033AD;" d="M2078.355,2676.927v-51.1h10.1l1.601,7.5c2-2.866,4.415-5,7.25-6.4c2.833-1.399,6.05-2.1,9.649-2.1
			c3.467,0,6.516,0.667,9.15,2c2.633,1.334,4.666,3.234,6.1,5.7c1.434,2.467,2.15,5.467,2.15,9v35.399h-13.6v-32.5
			c0-3.266-0.801-5.665-2.4-7.2c-1.6-1.532-3.768-2.3-6.5-2.3c-1.734,0-3.367,0.45-4.9,1.351c-1.533,0.899-2.734,2.117-3.6,3.649
			c-0.867,1.534-1.3,3.268-1.3,5.2v31.8H2078.355z"/>
	</g>
	<g>
		<path style="fill:#0033AD;" d="M3031.417,2677.927c-4.067,0-7.85-0.6-11.35-1.8s-6.585-3.065-9.25-5.6
			c-2.668-2.533-4.75-5.801-6.25-9.801s-2.25-8.832-2.25-14.5v-7.3c0-5.466,0.766-10.2,2.3-14.2c1.532-4,3.633-7.282,6.3-9.85
			c2.666-2.565,5.732-4.466,9.2-5.7c3.466-1.232,7.165-1.85,11.1-1.85h1.8c3.733,0,7.25,0.517,10.551,1.55
			c3.3,1.034,6.199,2.667,8.699,4.9c2.5,2.234,4.466,5.117,5.9,8.649c1.433,3.534,2.15,7.8,2.15,12.8h-13.7
			c0-4.399-0.617-7.815-1.851-10.25c-1.234-2.433-2.934-4.133-5.1-5.1c-2.167-0.966-4.717-1.45-7.65-1.45
			c-2.066,0-3.984,0.317-5.75,0.95c-1.767,0.635-3.284,1.635-4.55,3c-1.267,1.367-2.25,3.167-2.95,5.4
			c-0.699,2.234-1.05,4.949-1.05,8.149v13.4c0,4.267,0.601,7.685,1.8,10.25c1.2,2.567,2.866,4.417,5,5.55
			c2.133,1.135,4.633,1.7,7.5,1.7c3.133,0,5.833-0.483,8.101-1.45c2.266-0.966,4-2.666,5.2-5.1c1.199-2.434,1.8-5.816,1.8-10.15
			h13.2c0,4.734-0.718,8.85-2.15,12.35c-1.435,3.5-3.385,6.385-5.85,8.65c-2.468,2.268-5.335,3.967-8.601,5.1
			c-3.267,1.133-6.767,1.7-10.5,1.7H3031.417z"/>
		<path style="fill:#0033AD;" d="M3071.516,2676.927v-72h13.7v72H3071.516z"/>
		<path style="fill:#0033AD;" d="M3121.314,2677.927c-4.667,0-8.851-1.05-12.55-3.149c-3.7-2.101-6.601-5.083-8.7-8.95
			c-2.101-3.866-3.15-8.4-3.15-13.601v-1.8c0-5.266,1.05-9.8,3.15-13.6c2.1-3.8,4.982-6.75,8.649-8.851
			c3.666-2.1,7.833-3.149,12.5-3.149h2c4.733,0,8.934,1.05,12.601,3.149c3.665,2.101,6.55,5.051,8.649,8.851
			c2.101,3.8,3.15,8.334,3.15,13.6v1.8c0,5.268-1.05,9.817-3.15,13.65c-2.1,3.834-4.984,6.8-8.649,8.9
			c-3.667,2.1-7.835,3.149-12.5,3.149H3121.314z M3122.214,2668.927c2.066,0,3.916-0.482,5.551-1.45
			c1.633-0.965,2.933-2.415,3.899-4.35c0.966-1.933,1.45-4.232,1.45-6.9v-9.8c0-2.732-0.484-5.032-1.45-6.899
			c-0.967-1.866-2.267-3.301-3.899-4.301c-1.635-1-3.484-1.5-5.551-1.5c-2,0-3.834,0.5-5.5,1.5c-1.667,1-2.984,2.435-3.949,4.301
			c-0.968,1.867-1.45,4.167-1.45,6.899v9.8c0,2.668,0.482,4.968,1.45,6.9c0.965,1.935,2.282,3.385,3.949,4.35
			C3118.38,2668.444,3120.214,2668.927,3122.214,2668.927z"/>
		<path style="fill:#0033AD;" d="M3177.214,2677.927c-3.2,0-6.101-0.399-8.7-1.2c-2.601-0.8-4.851-1.883-6.75-3.25
			c-1.9-1.365-3.351-2.965-4.351-4.8c-1-1.833-1.5-3.815-1.5-5.95c0-0.399,0-0.732,0-1c0-0.266,0.033-0.633,0.101-1.1h11.6
			c-0.067,0.2-0.1,0.385-0.1,0.55c0,0.167,0,0.317,0,0.45c0,1.667,0.565,3.05,1.7,4.15c1.133,1.1,2.6,1.899,4.399,2.399
			s3.733,0.75,5.8,0.75c1.666,0,3.351-0.2,5.051-0.6c1.699-0.4,3.115-1.05,4.25-1.95c1.133-0.9,1.699-2.05,1.699-3.45
			c0-1.532-0.584-2.716-1.75-3.55c-1.167-0.833-2.734-1.5-4.699-2c-1.968-0.5-4.117-0.933-6.45-1.3
			c-2.335-0.366-4.685-0.833-7.05-1.4c-2.367-0.565-4.535-1.383-6.5-2.45c-1.968-1.065-3.535-2.516-4.7-4.35
			c-1.167-1.833-1.75-4.25-1.75-7.25c0-2.533,0.583-4.8,1.75-6.8c1.165-2,2.766-3.666,4.8-5c2.033-1.333,4.365-2.333,7-3
			c2.633-0.666,5.383-1,8.25-1h2c2.666,0,5.216,0.334,7.65,1c2.433,0.667,4.615,1.617,6.55,2.85c1.933,1.234,3.45,2.7,4.55,4.4
			s1.65,3.55,1.65,5.55c0,0.334-0.018,0.717-0.051,1.15c-0.034,0.434-0.084,0.717-0.149,0.85h-11.601v-0.8
			c0-0.733-0.184-1.45-0.55-2.15c-0.367-0.7-0.967-1.35-1.8-1.95c-0.834-0.6-1.9-1.082-3.2-1.449c-1.3-0.366-2.85-0.551-4.649-0.551
			c-1.601,0-3.035,0.15-4.301,0.45c-1.267,0.3-2.334,0.7-3.199,1.2c-0.867,0.5-1.5,1.084-1.9,1.75c-0.4,0.667-0.6,1.334-0.6,2
			c0,1.4,0.6,2.484,1.8,3.25c1.2,0.768,2.782,1.367,4.75,1.8c1.966,0.435,4.133,0.835,6.5,1.2c2.365,0.367,4.716,0.817,7.05,1.35
			c2.333,0.535,4.5,1.351,6.5,2.45c2,1.101,3.583,2.585,4.75,4.45c1.166,1.867,1.75,4.3,1.75,7.3c0,3.135-0.6,5.8-1.8,8
			s-2.867,3.95-5,5.25c-2.135,1.3-4.534,2.25-7.2,2.851c-2.667,0.6-5.467,0.899-8.4,0.899H3177.214z"/>
		<path style="fill:#0033AD;" d="M3214.113,2615.527v-10.601h14.1v10.601H3214.113z M3214.312,2676.927v-51.1h13.7v51.1H3214.312z"
			/>
		<path style="fill:#0033AD;" d="M3242.112,2676.927v-51.1h10.1l1.601,7.5c2-2.866,4.415-5,7.25-6.4c2.833-1.399,6.05-2.1,9.649-2.1
			c3.466,0,6.516,0.667,9.15,2c2.633,1.334,4.666,3.234,6.1,5.7c1.434,2.467,2.15,5.467,2.15,9v35.399h-13.6v-32.5
			c0-3.266-0.801-5.665-2.4-7.2c-1.6-1.532-3.768-2.3-6.5-2.3c-1.734,0-3.367,0.45-4.9,1.351c-1.534,0.899-2.734,2.117-3.6,3.649
			c-0.867,1.534-1.3,3.268-1.3,5.2v31.8H3242.112z"/>
		<path style="fill:#0033AD;" d="M3310.311,2695.727c-2.334,0-4.45-0.55-6.35-1.649c-1.9-1.101-3.435-2.585-4.601-4.45
			c-1.167-1.867-1.75-3.9-1.75-6.1c0-2.468,0.666-4.75,2-6.851c1.333-2.1,3.166-3.683,5.5-4.75c-1.467-0.933-2.617-2.149-3.45-3.649
			c-0.834-1.5-1.25-3.083-1.25-4.75c0-2.466,0.801-4.583,2.4-6.351c1.6-1.766,3.633-3.05,6.1-3.85c-2.066-1.266-3.767-2.833-5.1-4.7
			c-1.334-1.865-2-4.166-2-6.9c0-2.865,0.783-5.6,2.35-8.199c1.566-2.601,3.934-4.7,7.101-6.301c3.165-1.6,7.183-2.399,12.05-2.399
			c2,0,3.865,0.1,5.6,0.3c1.733,0.2,3.266,0.534,4.601,1c2.6-1.4,4.516-2.933,5.75-4.6c1.232-1.666,1.915-3.301,2.05-4.9h10.7
			c0,2.268-0.435,4.3-1.3,6.1c-0.867,1.801-2.085,3.285-3.65,4.45c-1.567,1.167-3.45,2.018-5.65,2.55l-0.1,0.301
			c1.6,1.334,2.883,2.899,3.85,4.699c0.966,1.801,1.45,3.768,1.45,5.9c0,2.935-0.817,5.635-2.45,8.1
			c-1.634,2.468-3.934,4.45-6.899,5.95c-2.968,1.5-6.45,2.25-10.45,2.25h-7.5c-2.067,0-3.667,0.417-4.8,1.25
			c-1.135,0.835-1.7,1.95-1.7,3.351c0,1.267,0.516,2.334,1.55,3.199c1.033,0.867,2.683,1.301,4.95,1.301h17.7
			c4.665,0,8.333,1.367,11,4.1c2.665,2.734,4,6.1,4,10.1c0,2.801-0.7,5.383-2.101,7.75c-1.399,2.366-3.35,4.25-5.85,5.65
			s-5.385,2.1-8.65,2.1H3310.311z M3315.511,2687.227h17.3c1.8,0,3.35-0.584,4.65-1.75c1.3-1.167,1.949-2.584,1.949-4.25
			c0-1.534-0.55-2.834-1.649-3.899c-1.101-1.065-2.484-1.601-4.15-1.601h-18.1c-1.734,0-3.2,0.567-4.4,1.7s-1.8,2.466-1.8,4
			c0,1.533,0.6,2.883,1.8,4.05C3312.311,2686.643,3313.776,2687.227,3315.511,2687.227z M3324.311,2649.427
			c2.933,0,5.25-0.833,6.95-2.5c1.7-1.665,2.55-3.665,2.55-6c0-2.333-0.85-4.35-2.55-6.05s-4.018-2.55-6.95-2.55
			c-2.935,0-5.268,0.85-7,2.55c-1.734,1.7-2.6,3.717-2.6,6.05c0,2.335,0.865,4.335,2.6,6
			C3319.043,2648.594,3321.376,2649.427,3324.311,2649.427z"/>
	</g>
	<g>
		<path style="fill:#0033AD;" d="M3699.409,2676.927v-68.6h45.9l-1.601,11.2h-29.899v17.899h26.699v11h-26.699v28.5H3699.409z"/>
		<path style="fill:#0033AD;" d="M3753.71,2615.527v-10.601h14.1v10.601H3753.71z M3753.909,2676.927v-51.1h13.7v51.1H3753.909z"/>
		<path style="fill:#0033AD;" d="M3781.708,2676.927v-51.1h10.101l1.6,7.5c2-2.866,4.416-5,7.25-6.4c2.833-1.399,6.05-2.1,9.65-2.1
			c3.466,0,6.516,0.667,9.149,2c2.633,1.334,4.666,3.234,6.101,5.7c1.433,2.467,2.149,5.467,2.149,9v35.399h-13.6v-32.5
			c0-3.266-0.8-5.665-2.4-7.2c-1.6-1.532-3.767-2.3-6.5-2.3c-1.734,0-3.367,0.45-4.899,1.351c-1.534,0.899-2.734,2.117-3.601,3.649
			c-0.867,1.534-1.3,3.268-1.3,5.2v31.8H3781.708z"/>
		<path style="fill:#0033AD;" d="M3854.807,2677.927c-2.734,0-5.35-0.45-7.85-1.35c-2.5-0.9-4.551-2.4-6.15-4.5
			c-1.6-2.101-2.4-4.95-2.4-8.55c0-3.666,0.816-6.633,2.45-8.9c1.633-2.266,3.933-4.016,6.9-5.25c2.966-1.232,6.532-2.083,10.7-2.55
			c4.165-0.466,8.85-0.7,14.05-0.7v-4.5c0-2.933-0.8-5.016-2.4-6.25c-1.6-1.232-3.935-1.85-7-1.85c-2.6,0-4.884,0.584-6.85,1.75
			c-1.968,1.167-2.95,2.949-2.95,5.35v0.8h-13.1c-0.067-0.2-0.101-0.482-0.101-0.85c0-0.366,0-0.683,0-0.95
			c0-2.933,0.933-5.516,2.8-7.75c1.866-2.232,4.466-3.966,7.801-5.2c3.332-1.232,7.199-1.85,11.6-1.85h2.1
			c7.2,0,12.566,1.417,16.101,4.25c3.532,2.834,5.3,6.649,5.3,11.45v24.899c0,1.268,0.315,2.167,0.95,2.7
			c0.633,0.534,1.315,0.8,2.05,0.8c0.6,0,1.266-0.115,2-0.35c0.732-0.233,1.433-0.516,2.1-0.851v8
			c-0.867,0.668-2.017,1.2-3.449,1.601c-1.435,0.399-3.15,0.6-5.15,0.6c-2.4,0-4.4-0.384-6-1.149s-2.817-1.816-3.65-3.15
			c-0.834-1.333-1.35-2.865-1.55-4.6c-1.867,2.667-4.334,4.816-7.399,6.449C3862.64,2677.109,3859.007,2677.927,3854.807,2677.927z
			 M3861.207,2668.927c1.865,0,3.649-0.433,5.35-1.3c1.7-0.865,3.115-2.15,4.25-3.85c1.133-1.7,1.7-3.816,1.7-6.351v-4.1
			c-4.268,0-7.885,0.267-10.851,0.8c-2.967,0.534-5.217,1.417-6.75,2.65c-1.534,1.234-2.3,3.017-2.3,5.35
			c0,2.467,0.75,4.217,2.25,5.25C3856.356,2668.411,3858.473,2668.927,3861.207,2668.927z"/>
		<path style="fill:#0033AD;" d="M3902.205,2676.927v-72h13.7v72H3902.205z"/>
	</g>
	<g>
		<path style="fill:#3B7982;" d="M168.021,996.736H71.98v-17.36h82.6v-42l13.44-2.1V996.736z"/>
		<path style="fill:#3B7982;" d="M168.021,918.198l-96.04-36.4v-20.16l96.04-36.26v18.2l-20.86,7.98v41.72l20.86,7.98V918.198z
			 M134.42,888.798v-32.62l-43.54,15.96v0.56L134.42,888.798z"/>
		<path style="fill:#3B7982;" d="M168.021,780.438h-36.96l-59.08,33.18v-19.6l42.42-22.82v-0.42l-42.42-23.24v-17.64l59.08,33.18
			h36.96V780.438z"/>
		<path style="fill:#3B7982;" d="M168.021,703.439H71.98v-64.96l13.44,1.96v45.64h26.88v-41.72h13.44v41.72h28.84v-46.34l13.44-2.1
			V703.439z"/>
		<path style="fill:#3B7982;" d="M168.86,537.819c0,2.708-0.49,5.18-1.47,7.42c-0.98,2.24-2.776,4.038-5.39,5.39
			c-2.612,1.354-6.346,2.03-11.2,2.03c-4.106,0-7.56,0.444-10.36,1.33c-2.8,0.888-5.086,2.078-6.86,3.57
			c-1.772,1.494-3.056,3.174-3.85,5.04c-0.792,1.868-1.19,3.78-1.19,5.74v20.3h39.48V606H71.98v-46.48
			c0-4.572,1.004-8.796,3.01-12.67c2.008-3.872,4.808-7.022,8.4-9.45c3.594-2.426,7.818-3.64,12.67-3.64
			c3.828,0,7.374,0.77,10.64,2.31c3.268,1.54,6.114,3.594,8.54,6.16c2.428,2.568,4.248,5.39,5.46,8.47h0.7
			c0.374-1.212,1.05-2.66,2.03-4.34s2.38-3.336,4.2-4.97c1.82-1.632,4.178-3.01,7.07-4.13c2.894-1.12,6.44-1.68,10.64-1.68
			c3.08,0,5.67-0.14,7.77-0.42c2.1-0.28,3.828-0.7,5.18-1.26c1.354-0.56,2.428-1.306,3.22-2.24c0.794-0.932,1.424-2.006,1.89-3.22
			h3.92c0.468,1.12,0.84,2.52,1.12,4.2C168.721,534.319,168.86,536.047,168.86,537.819z M115.101,588.64v-24.08
			c0-2.52-0.816-4.782-2.45-6.79c-1.632-2.006-3.756-3.616-6.37-4.83c-2.612-1.212-5.366-1.82-8.26-1.82c-3.92,0-7,1.238-9.24,3.71
			c-2.24,2.474-3.36,5.67-3.36,9.59v24.22H115.101z"/>
		<path style="fill:#3B7982;" d="M168.021,456.062h-4.2c-5.786,0-10.92-1.26-15.4-3.78s-8.4-6.16-11.76-10.92l-18.62-26.32
			c-2.146-2.986-4.69-5.482-7.63-7.49c-2.94-2.006-6.416-3.01-10.43-3.01c-5.04,0-8.96,1.494-11.76,4.48
			c-2.8,2.988-4.2,7.328-4.2,13.02c0,3.454,0.77,6.534,2.31,9.24c1.54,2.708,3.64,4.854,6.3,6.44c2.66,1.588,5.67,2.38,9.03,2.38
			c0.654,0,1.26,0,1.82,0s1.12-0.046,1.68-0.14v15.26c-0.56,0-1.026,0-1.4,0c-0.372,0-0.746,0-1.12,0
			c-6.252,0-11.782-1.422-16.59-4.27c-4.806-2.846-8.586-6.812-11.34-11.9c-2.752-5.086-4.13-10.942-4.13-17.57v-2.1
			c0-6.626,1.214-12.296,3.64-17.01c2.428-4.712,5.788-8.306,10.08-10.78c4.294-2.472,9.334-3.71,15.12-3.71
			c4.854,0,9.1,0.818,12.74,2.45c3.64,1.634,6.86,3.874,9.66,6.72c2.8,2.848,5.46,6.044,7.98,9.59l16.52,23.38
			c0.654,0.934,1.4,1.89,2.24,2.87s1.704,1.798,2.59,2.45c0.888,0.654,1.798,1.074,2.73,1.26v-49.14h14.14V456.062z"/>
	</g>
</g>
</svg>
