<?xml version="1.0" encoding="iso-8859-1"?>
<!-- Generator: Adobe Illustrator 29.6.0, SVG Export Plug-In . SVG Version: 9.03 Build 0)  -->
<svg version="1.1" xmlns="http://www.w3.org/2000/svg" xmlns:xlink="http://www.w3.org/1999/xlink" x="0px" y="0px"
	 viewBox="0 0 4000 2774" style="enable-background:new 0 0 4000 2774;" xml:space="preserve">
<g id="Source." style="display:none;">
	
		<image style="display:inline;overflow:visible;" width="656" height="431" xlink:href="../../_Draft Images/hydra_delegatedhydrahead.png"  transform="matrix(6.0976 0 0 6.0976 0 0)">
	</image>
</g>
<g id="Fill">
	<g>
		<g>
			<path d="M1305.76,1803.883H970.662c-23.1,0-42-18.9-42-42v-335.097c0-23.1,18.9-42,42-42h335.097c23.1,0,42,18.9,42,42v335.097
				C1347.76,1784.983,1328.859,1803.883,1305.76,1803.883z"/>
			<path style="fill:#FFFFFF;stroke:#000000;stroke-width:6;stroke-miterlimit:10;" d="M1288.329,1789.528H953.232
				c-23.1,0-42-18.9-42-42v-335.097c0-23.1,18.9-42,42-42h335.097c23.1,0,42,18.9,42,42v335.097
				C1330.329,1770.628,1311.429,1789.528,1288.329,1789.528z"/>
		</g>
		<g>
			<path d="M2064.771,2334.752h-335.097c-23.1,0-42-18.9-42-42v-335.097c0-23.1,18.9-42,42-42h335.097c23.1,0,42,18.9,42,42v335.097
				C2106.771,2315.852,2087.871,2334.752,2064.771,2334.752z"/>
			<path style="fill:#FFFFFF;stroke:#000000;stroke-width:6;stroke-miterlimit:10;" d="M2047.34,2320.397h-335.097
				c-23.1,0-42-18.9-42-42V1943.3c0-23.1,18.9-42,42-42h335.097c23.1,0,42,18.9,42,42v335.097
				C2089.34,2301.497,2070.44,2320.397,2047.34,2320.397z"/>
		</g>
		<g>
			<path d="M2810.62,2238.23h-335.097c-23.1,0-42-18.9-42-42v-335.097c0-23.1,18.9-42,42-42h335.097c23.1,0,42,18.9,42,42v335.097
				C2852.62,2219.33,2833.72,2238.23,2810.62,2238.23z"/>
			<path style="fill:#FFFFFF;stroke:#000000;stroke-width:6;stroke-miterlimit:10;" d="M2793.189,2223.876h-335.097
				c-23.1,0-42-18.9-42-42v-335.097c0-23.1,18.9-42,42-42h335.097c23.1,0,42,18.9,42,42v335.097
				C2835.189,2204.976,2816.29,2223.876,2793.189,2223.876z"/>
		</g>
		<g>
			<path d="M3315.165,1641.551h-335.097c-23.1,0-42-18.9-42-42v-335.097c0-23.1,18.9-42,42-42h335.097c23.1,0,42,18.9,42,42v335.097
				C3357.165,1622.651,3338.265,1641.551,3315.165,1641.551z"/>
			<path style="fill:#FFFFFF;stroke:#000000;stroke-width:6;stroke-miterlimit:10;" d="M3297.735,1627.196h-335.097
				c-23.1,0-42-18.9-42-42v-335.097c0-23.1,18.9-42,42-42h335.097c23.1,0,42,18.9,42,42v335.097
				C3339.735,1608.296,3320.834,1627.196,3297.735,1627.196z"/>
		</g>
		
			<rect x="3548.45" y="1058.823" style="fill:#E6E6E6;stroke:#000000;stroke-width:6;stroke-miterlimit:10;" width="282.808" height="152.532"/>
		
			<line style="fill:none;stroke:#FF5553;stroke-width:12;stroke-miterlimit:10;" x1="1206.973" y1="1515.657" x2="1523.685" y2="1211.284"/>
		
			<line style="fill:none;stroke:#FF5553;stroke-width:12;stroke-miterlimit:10;" x1="1845.724" y1="2046.641" x2="1988.471" y2="1429.281"/>
		
			<line style="fill:none;stroke:#FF5553;stroke-width:12;stroke-miterlimit:10;" x1="3049.663" y1="1404.602" x2="2749.403" y2="1219.51"/>
		
			<line style="fill:none;stroke:#5181F6;stroke-width:12;stroke-miterlimit:10;" x1="3050.051" y1="1434.606" x2="2628.865" y2="1895.278"/>
		
			<line style="fill:none;stroke:#5181F6;stroke-width:12;stroke-miterlimit:10;" x1="2533.44" y1="2053.222" x2="2000.378" y2="2112.451"/>
		
			<line style="fill:none;stroke:#5181F6;stroke-width:12;stroke-miterlimit:10;" x1="2513.697" y1="1980.831" x2="1236.979" y2="1592.551"/>
		
			<line style="fill:none;stroke:#FF5553;stroke-width:12;stroke-miterlimit:10;" x1="2592.67" y1="1915.021" x2="2239.373" y2="1425.168"/>
		
			<line style="fill:none;stroke:#5181F6;stroke-width:12;stroke-miterlimit:10;" x1="1227.107" y1="1641.908" x2="1756.88" y2="2086.127"/>
		<path style="fill:#FF5553;" d="M2730.982,1130.114c-21.572-30.8-52.993-53.554-88.607-64.746
			c1.332-12.61,1.443-25.384,0.249-38.099c-4.692-49.748-29.19-96.485-67.231-128.82c-13.996-9.042-27.979-18.091-41.969-27.128
			c-32.046-14.974-65.69-20.906-100.923-17.801c-16.242,3.719-32.48,7.432-48.723,11.139c-19.238,7.241-36.669,17.066-52.338,29.422
			c-5.451-6.112-11.307-11.887-17.575-17.222c-13.051-8.434-26.102-16.862-39.142-25.303
			c-29.891-13.961-61.259-19.487-94.121-16.591c-15.148,3.459-30.29,6.922-45.433,10.387c-29.294,11.012-54.133,28.396-74.53,52.118
			c-17.303-21.416-39.426-39.154-65.807-51.006c-21.96-9.865-45.288-17.934-68.986-22.134c-23.884-4.229-48.92-3.401-73.244-2.706
			c-16.127,3.69-32.266,7.38-48.405,11.07c-31.287,11.771-57.818,30.348-79.581,55.727c-27.718,32.613-43.562,74.176-45.253,116.713
			c-13.01-1.905-26.282-2.346-39.831-1.147c-14.025,3.203-28.055,6.412-42.073,9.616c-27.209,10.236-50.264,26.38-69.178,48.439
			c-28.859,33.957-42.983,79.049-38.8,123.41c4.049,42.959,25.198,83.324,58.061,111.251c5.26,3.406,10.526,6.812,15.791,10.212
			c-0.278,6.702-0.151,13.434,0.481,20.153c3.655,38.725,22.719,75.109,52.344,100.285c10.891,7.044,21.775,14.082,32.672,21.12
			c24.949,11.661,51.138,16.278,78.573,13.856l37.926-8.678c6.135-2.305,12.037-4.947,17.709-7.924
			c5.12,5.573,10.56,10.885,16.353,15.808c13.573,8.771,27.145,17.547,40.717,26.323c31.096,14.529,63.739,20.281,97.927,17.269
			c15.757-3.603,31.513-7.207,47.27-10.815c27.892-10.484,51.863-26.577,71.999-48.138c1.182,1.049,2.329,2.132,3.533,3.152
			c13.99,9.042,27.973,18.091,41.963,27.133c32.045,14.968,65.69,20.906,100.928,17.795c16.237-3.713,32.474-7.427,48.711-11.14
			c2.937-1.106,5.787-2.328,8.637-3.551c6.749,4.368,13.503,8.73,20.258,13.097c33.505,15.652,68.679,21.85,105.51,18.606
			c16.973-3.886,33.958-7.768,50.93-11.649c32.926-12.379,60.847-31.93,83.747-58.641c10.792-12.692,19.863-26.681,27.127-41.528
			c2.277,0.498,4.559,0.985,6.87,1.39c15.096,0.62,30.192,1.234,45.282,1.854c29.59-2.931,56.584-12.883,80.978-29.844l7.403-5.666
			c10.734-9.773,21.463-19.533,32.197-29.306c19.776-23.473,32.37-50.328,37.803-80.572
			C2766.99,1213.026,2756.76,1166.927,2730.982,1130.114z"/>
		<g id="Layer_2_00000171693655610200325860000007420507718178109880_">
			<g id="Layer_1-2">
				<path style="fill:#FFFFFF;" d="M1683.758,1183.676c-0.457,7.965,5.625,14.796,13.59,15.261h0.788
					c7.967-0.009,14.418-6.474,14.41-14.441c-0.009-7.967-6.474-14.418-14.441-14.41c-7.639,0.008-13.948,5.971-14.386,13.598
					L1683.758,1183.676z"/>
				<path style="fill:#FFFFFF;" d="M1629.966,1180.018c-2.569-0.144-4.768,1.822-4.912,4.391c-0.144,2.569,1.822,4.768,4.391,4.912
					c2.566,0.144,4.764-1.818,4.911-4.384c0.152-2.564-1.804-4.766-4.368-4.918
					C1629.982,1180.019,1629.974,1180.018,1629.966,1180.018z"/>
				<path style="fill:#FFFFFF;" d="M1682.844,1099.953c2.293-1.177,3.197-3.99,2.019-6.283c-1.177-2.293-3.99-3.197-6.283-2.02
					c-2.275,1.168-3.186,3.95-2.043,6.237c1.158,2.307,3.967,3.239,6.275,2.081
					C1682.823,1099.963,1682.833,1099.958,1682.844,1099.953z"/>
				<path style="fill:#FFFFFF;" d="M1697.482,1125.477c3.553-1.792,4.98-6.125,3.188-9.678s-6.125-4.98-9.678-3.188
					c-3.551,1.791-4.979,6.121-3.19,9.673c1.79,3.554,6.121,4.984,9.675,3.195
					C1697.479,1125.479,1697.481,1125.478,1697.482,1125.477z"/>
				<path style="fill:#FFFFFF;" d="M1648.223,1143.032c2.739,1.801,6.42,1.041,8.221-1.698c1.801-2.739,1.041-6.42-1.698-8.221
					c-2.739-1.801-6.42-1.041-8.221,1.698c-0.002,0.002-0.003,0.005-0.005,0.007
					C1644.725,1137.557,1645.487,1141.233,1648.223,1143.032z"/>
				<path style="fill:#FFFFFF;" d="M1656.996,1177.393c-3.973-0.224-7.375,2.815-7.599,6.787c-0.224,3.973,2.815,7.375,6.788,7.599
					c3.97,0.224,7.371-2.81,7.599-6.78C1664.007,1181.026,1660.97,1177.621,1656.996,1177.393z"/>
				<path style="fill:#FFFFFF;" d="M1649.011,1225.833c-2.926,1.479-4.099,5.049-2.62,7.975s5.049,4.099,7.975,2.62
					c2.924-1.478,4.098-5.045,2.623-7.97c-1.476-2.927-5.046-4.103-7.973-2.627
					C1649.014,1225.831,1649.013,1225.832,1649.011,1225.833z"/>
				<path style="fill:#FFFFFF;" d="M1677.019,1162.502c3.918,2.568,9.176,1.473,11.743-2.445c2.568-3.918,1.473-9.176-2.445-11.743
					c-3.917-2.567-9.174-1.474-11.742,2.443c-2.57,3.911-1.483,9.165,2.428,11.735
					C1677.008,1162.496,1677.014,1162.499,1677.019,1162.502z"/>
				<path style="fill:#FFFFFF;" d="M1765.873,1124.909c3.336,2.176,7.805,1.236,9.982-2.101c2.176-3.336,1.236-7.805-2.101-9.982
					c-3.334-2.175-7.8-1.237-9.978,2.095c-2.181,3.328-1.25,7.794,2.078,9.975
					C1765.861,1124.901,1765.867,1124.905,1765.873,1124.909z"/>
				<path style="fill:#FFFFFF;" d="M1780.661,1099.464c2.156,1.413,5.048,0.811,6.461-1.345c1.413-2.156,0.811-5.048-1.345-6.461
					s-5.048-0.811-6.461,1.345c-0.001,0.002-0.002,0.003-0.003,0.005C1777.905,1095.163,1778.508,1098.052,1780.661,1099.464z"/>
				<path style="fill:#FFFFFF;" d="M1767.008,1169.944c-7.956-0.457-14.776,5.622-15.233,13.578
					c-0.457,7.956,5.622,14.776,13.578,15.234l0,0c0.276,0,0.56,0,0.836,0c7.967-0.004,14.422-6.466,14.418-14.432
					c-0.002-3.542-1.307-6.96-3.666-9.602C1774.404,1171.861,1770.826,1170.14,1767.008,1169.944z"/>
				<path style="fill:#FFFFFF;" d="M1702.22,1161.501c2.443,4.88,7.439,7.955,12.896,7.938c7.971,0.002,14.435-6.459,14.437-14.43
					c0-2.266-0.533-4.5-1.556-6.522c-2.459-4.857-7.452-7.909-12.896-7.883c-7.971,0.014-14.422,6.487-14.409,14.458
					C1700.695,1157.298,1701.219,1159.502,1702.22,1161.501z"/>
				<path style="fill:#FFFFFF;" d="M1815.338,1143.016c2.927-1.477,4.102-5.047,2.625-7.973s-5.047-4.102-7.973-2.625
					c-2.924,1.475-4.1,5.04-2.629,7.966C1808.837,1143.312,1812.408,1144.49,1815.338,1143.016z"/>
				<path style="fill:#FFFFFF;" d="M1778.754,1147.612c-4.184,2.107-5.867,7.207-3.76,11.391c2.107,4.184,7.207,5.867,11.391,3.76
					c4.184-2.107,5.867-7.207,3.76-11.391c-2.101-4.182-7.195-5.868-11.377-3.767
					C1778.763,1147.607,1778.758,1147.609,1778.754,1147.612z"/>
				<path style="fill:#FFFFFF;" d="M1731.63,1097.288c3.273,0.186,6.077-2.316,6.264-5.589c0.186-3.273-2.316-6.077-5.589-6.264
					c-3.273-0.186-6.077,2.316-6.264,5.589c0,0.002,0,0.003,0,0.005C1725.858,1094.3,1728.359,1097.102,1731.63,1097.288z"/>
				<path style="fill:#FFFFFF;" d="M1731.567,1134.645c4.677,0.262,8.681-3.317,8.943-7.994c0.262-4.677-3.317-8.681-7.994-8.943
					c-4.673-0.262-8.674,3.31-8.943,7.982C1723.31,1130.369,1726.888,1134.378,1731.567,1134.645z"/>
				<path style="fill:#FFFFFF;" d="M1685.611,1221.229c4.183-2.109,5.864-7.209,3.755-11.392s-7.209-5.864-11.392-3.755
					s-5.864,7.209-3.755,11.392c0,0.001,0.001,0.002,0.002,0.003C1676.33,1221.658,1681.429,1223.337,1685.611,1221.229z"/>
				<path style="fill:#FFFFFF;" d="M1737.046,1147.021c-4.367,6.664-2.504,15.606,4.159,19.972
					c6.664,4.367,15.606,2.504,19.972-4.159c4.367-6.664,2.504-15.606-4.159-19.972c-2.344-1.536-5.085-2.356-7.888-2.36
					C1744.261,1140.498,1739.717,1142.949,1737.046,1147.021z"/>
				<path style="fill:#FFFFFF;" d="M1762.129,1207.347c-3.587-7.114-12.262-9.972-19.376-6.385
					c-7.114,3.587-9.972,12.262-6.385,19.376c2.452,4.863,7.434,7.93,12.88,7.93c2.258-0.016,4.482-0.555,6.495-1.577
					C1762.836,1223.102,1765.69,1214.454,1762.129,1207.347z"/>
				<path style="fill:#FFFFFF;" d="M1787.338,1206.339c-3.916-2.571-9.175-1.48-11.745,2.436s-1.48,9.175,2.436,11.745
					s9.174,1.48,11.745-2.436C1792.335,1214.166,1791.246,1208.914,1787.338,1206.339z"/>
				<path style="fill:#FFFFFF;" d="M1814.959,1184.669c0.224-3.973-2.815-7.375-6.787-7.599c-3.973-0.224-7.375,2.815-7.599,6.787
					c-0.224,3.97,2.81,7.371,6.78,7.599C1811.326,1191.68,1814.731,1188.642,1814.959,1184.669z"/>
				<path style="fill:#FFFFFF;" d="M1834.918,1179.537c-2.573-0.148-4.779,1.818-4.927,4.391c-0.148,2.573,1.818,4.779,4.391,4.927
					c2.573,0.148,4.779-1.818,4.927-4.391c0,0,0,0,0,0C1839.453,1181.892,1837.489,1179.689,1834.918,1179.537z"/>
				<path style="fill:#FFFFFF;" d="M1816.126,1225.809c-2.742-1.796-6.422-1.029-8.218,1.713s-1.029,6.422,1.713,8.218
					c2.741,1.795,6.418,1.03,8.215-1.709c1.798-2.741,1.034-6.421-1.707-8.219
					C1816.129,1225.811,1816.127,1225.81,1816.126,1225.809z"/>
				<path style="fill:#FFFFFF;" d="M1683.695,1269.377c-2.155-1.414-5.048-0.813-6.462,1.341s-0.813,5.048,1.341,6.462
					c2.154,1.413,5.046,0.814,6.46-1.339c1.415-2.154,0.816-5.047-1.338-6.463
					C1683.697,1269.378,1683.696,1269.377,1683.695,1269.377z"/>
				<path style="fill:#FFFFFF;" d="M1781.505,1268.888c-2.302,1.16-3.227,3.966-2.067,6.268c1.16,2.301,3.966,3.227,6.268,2.067
					c2.301-1.16,3.227-3.966,2.067-6.268c0,0,0-0.001-0.001-0.002c-1.155-2.299-3.955-3.227-6.254-2.072
					C1781.513,1268.884,1781.509,1268.886,1781.505,1268.888z"/>
				<path style="fill:#FFFFFF;" d="M1727.303,1221.797c4.367-6.664,2.504-15.606-4.159-19.972s-15.606-2.504-19.972,4.159
					c-4.367,6.664-2.504,15.606,4.159,19.972c2.347,1.538,5.09,2.358,7.896,2.36
					C1720.097,1228.332,1724.644,1225.878,1727.303,1221.797z"/>
				<path style="fill:#FFFFFF;" d="M1698.475,1243.939c-3.33-2.178-7.795-1.245-9.974,2.085c-2.178,3.33-1.245,7.795,2.085,9.974
					c3.328,2.177,7.789,1.246,9.97-2.079C1702.735,1250.588,1701.804,1246.122,1698.475,1243.939z"/>
				<path style="fill:#FFFFFF;" d="M1732.111,1271.553c-3.273-0.186-6.077,2.316-6.263,5.589s2.316,6.077,5.589,6.263
					c3.272,0.186,6.075-2.314,6.263-5.585c0.188-3.273-2.312-6.078-5.585-6.267
					C1732.114,1271.553,1732.113,1271.553,1732.111,1271.553z"/>
				<path style="fill:#FFFFFF;" d="M1732.174,1234.204c-4.676-0.284-8.697,3.276-8.981,7.952s3.276,8.697,7.952,8.981
					c4.676,0.284,8.697-3.276,8.981-7.952c0.001-0.011,0.001-0.023,0.002-0.034
					C1740.397,1238.486,1736.839,1234.483,1732.174,1234.204z"/>
				<path style="fill:#FFFFFF;" d="M1766.866,1243.364c-3.552,1.802-4.971,6.143-3.168,9.696c1.802,3.552,6.143,4.971,9.696,3.169
					c3.552-1.802,4.971-6.143,3.169-9.696c-0.003-0.005-0.005-0.01-0.008-0.015c-1.799-3.544-6.131-4.959-9.675-3.16
					C1766.875,1243.359,1766.871,1243.362,1766.866,1243.364z"/>
				<path style="fill:#FFFFFF;" d="M1926.051,1150.339c13.968,0,23.751,7.678,23.751,21.93h18.296
					c0-25.004-18.438-37.049-42.323-37.049c-29.34,0-46.382,15.931-46.382,49.598c0,34.503,17.042,49.591,46.382,49.591
					c24.169,0,42.323-11.73,42.323-36.742h-17.602c0,13.968-9.641,21.654-24.437,21.654c-19.423,0-28.378-10.76-28.378-33.108
					v-2.791C1897.697,1161.509,1906.77,1150.339,1926.051,1150.339z"/>
				<path style="fill:#FFFFFF;" d="M2016.474,1136.923l-37.301,95.839h18.446l7.678-20.818h43.836l7.883,20.818h19.281
					l-37.325-95.839H2016.474z M2010.886,1196.832l9.782-26.273c1.955-5.163,5.447-16.341,6.149-18.296h0.694
					c0.702,1.955,4.194,13.267,6.149,18.296l9.775,26.265L2010.886,1196.832z"/>
				<path style="fill:#FFFFFF;" d="M2176.045,1165.979c0-17.736-10.2-29.056-31.295-29.056h-50.576v95.839h17.886v-37.049h29.75
					l18.13,37.049h19.557l-20.495-39.816C2170.315,1188.476,2176.045,1178.977,2176.045,1165.979z M2143.348,1180.648h-31.287
					v-28.496h31.287c9.641,0,14.67,5.171,14.67,13.826C2158.018,1175.068,2152.571,1180.648,2143.348,1180.648z"/>
				<path style="fill:#FFFFFF;" d="M2238.777,1136.923h-38.295v95.839h38.279c28.914,0,46.508-15.088,46.508-47.919
					C2285.269,1152.01,2267.691,1136.923,2238.777,1136.923z M2266.997,1186.237c-0.142,20.96-10.058,31.295-28.22,31.295h-20.393
					v-65.38h20.393c18.13,0,28.22,10.342,28.22,31.295V1186.237z"/>
				<path style="fill:#FFFFFF;" d="M2332.124,1136.923l-37.317,95.839h18.438l7.686-20.818h43.867l7.82,20.818h19.281
					l-37.301-95.839H2332.124z M2326.535,1196.832l9.767-26.273c1.955-5.163,5.447-16.341,6.148-18.296h0.709
					c0.694,1.955,4.194,13.267,6.149,18.296l9.775,26.265L2326.535,1196.832z"/>
				<path style="fill:#FFFFFF;" d="M2473.652,1193.923c0,1.813,0.276,6.7,0.276,7.544l-0.694,0.276
					c-0.418-0.552-3.216-5.447-4.73-7.678l-41.629-57.142h-17.066v95.839h17.184v-57.418c0-2.365-0.284-6.984-0.284-7.686
					l0.702-0.418c0.418,0.56,2.515,4.611,4.729,7.828l41.913,57.694h16.759v-95.839h-17.177v57H2473.652z"/>
				<path style="fill:#FFFFFF;" d="M2562.049,1135.252c-30.033,0-48.195,15.923-48.195,49.591c0,33.667,18.13,49.59,48.195,49.59
					s48.337-15.923,48.337-49.59C2610.386,1151.175,2592.083,1135.252,2562.049,1135.252z M2592.083,1186.379
					c0,21.93-10.476,32.966-30.033,32.966c-19.415,0-29.891-11.036-29.891-32.966v-2.932c0-21.938,10.618-33.108,29.891-33.108
					c19.423,0,30.033,11.17,30.033,33.108V1186.379z"/>
			</g>
		</g>
		
			<rect x="888.961" y="896.882" style="fill:#E6E6E6;stroke:#000000;stroke-width:6;stroke-miterlimit:10;" width="282.808" height="152.532"/>
		
			<rect x="822.054" y="835.459" style="fill:#E6E6E6;stroke:#000000;stroke-width:6;stroke-miterlimit:10;" width="282.808" height="152.532"/>
		
			<rect x="382.222" y="1445.3" style="fill:#E6E6E6;stroke:#000000;stroke-width:6;stroke-miterlimit:10;" width="282.808" height="152.532"/>
		
			<rect x="315.315" y="1383.877" style="fill:#E6E6E6;stroke:#000000;stroke-width:6;stroke-miterlimit:10;" width="282.808" height="152.532"/>
		
			<rect x="3481.543" y="997.401" style="fill:#E6E6E6;stroke:#000000;stroke-width:6;stroke-miterlimit:10;" width="282.808" height="152.532"/>
		
			<line style="fill:none;stroke:#000000;stroke-width:12;stroke-miterlimit:10;" x1="3612.728" y1="1056.198" x2="3240.9" y2="1381.958"/>
		
			<rect x="3414.636" y="935.978" style="fill:#E6E6E6;stroke:#000000;stroke-width:6;stroke-miterlimit:10;" width="282.808" height="152.532"/>
		
			<line style="fill:none;stroke:#000000;stroke-width:12;stroke-miterlimit:10;" x1="3543.627" y1="1421.444" x2="3221.157" y2="1474.092"/>
		
			<line style="fill:none;stroke:#000000;stroke-width:12;stroke-miterlimit:10;" x1="3550.208" y1="2026.898" x2="3122.442" y2="1523.45"/>
		
			<line style="fill:none;stroke:#000000;stroke-width:12;stroke-miterlimit:10;" x1="3415.297" y1="2398.726" x2="2730.871" y2="2010.446"/>
		
			<line style="fill:none;stroke:#000000;stroke-width:12;stroke-miterlimit:10;" x1="2168.194" y1="2553.38" x2="1934.567" y2="2329.625"/>
		<g>
			
				<rect x="3659.505" y="1457.799" style="fill:#E6E6E6;stroke:#000000;stroke-width:6;stroke-miterlimit:10;" width="282.808" height="152.532"/>
			
				<rect x="3592.598" y="1396.376" style="fill:#E6E6E6;stroke:#000000;stroke-width:6;stroke-miterlimit:10;" width="282.808" height="152.532"/>
			
				<rect x="3525.691" y="1334.953" style="fill:#E6E6E6;stroke:#000000;stroke-width:6;stroke-miterlimit:10;" width="282.808" height="152.532"/>
		</g>
		<circle style="fill:#5181F6;stroke:#000000;stroke-width:6;stroke-miterlimit:10;" cx="3133.239" cy="1421.798" r="139.458"/>
		<g>
			
				<rect x="3659.505" y="2045.979" style="fill:#E6E6E6;stroke:#000000;stroke-width:6;stroke-miterlimit:10;" width="282.808" height="152.532"/>
			
				<rect x="3592.598" y="1984.556" style="fill:#E6E6E6;stroke:#000000;stroke-width:6;stroke-miterlimit:10;" width="282.808" height="152.532"/>
			
				<rect x="3525.691" y="1923.133" style="fill:#E6E6E6;stroke:#000000;stroke-width:6;stroke-miterlimit:10;" width="282.808" height="152.532"/>
		</g>
		<circle style="fill:#5181F6;stroke:#000000;stroke-width:6;stroke-miterlimit:10;" cx="2627.322" cy="2018.204" r="139.458"/>
		<g>
			
				<rect x="3516.574" y="2429.127" style="fill:#E6E6E6;stroke:#000000;stroke-width:6;stroke-miterlimit:10;" width="282.808" height="152.532"/>
			
				<rect x="3449.667" y="2367.705" style="fill:#E6E6E6;stroke:#000000;stroke-width:6;stroke-miterlimit:10;" width="282.808" height="152.532"/>
			
				<rect x="3382.76" y="2306.282" style="fill:#E6E6E6;stroke:#000000;stroke-width:6;stroke-miterlimit:10;" width="282.808" height="152.532"/>
		</g>
		<g>
			<path d="M3524.78,2431.266c-4.854,0-9.398-0.7-13.635-2.098c-4.238-1.398-7.939-3.66-11.105-6.787
				c-3.168-3.125-5.657-7.219-7.466-12.277c-1.81-5.06-2.714-11.249-2.714-18.571v-7.65c0-7.157,0.904-13.265,2.714-18.324
				c1.809-5.06,4.298-9.172,7.466-12.34c3.166-3.165,6.827-5.47,10.982-6.909c4.152-1.438,8.616-2.16,13.388-2.16h1.852
				c4.441,0,8.656,0.617,12.647,1.852c3.989,1.233,7.506,3.188,10.551,5.861c3.042,2.674,5.448,6.169,7.218,10.488
				c1.769,4.318,2.653,9.562,2.653,15.732h-14.438c0-5.84-0.844-10.344-2.529-13.512c-1.687-3.166-4.011-5.387-6.972-6.663
				c-2.962-1.274-6.336-1.913-10.118-1.913c-2.798,0-5.389,0.413-7.774,1.234c-2.387,0.823-4.441,2.181-6.169,4.072
				c-1.728,1.894-3.066,4.423-4.011,7.589c-0.946,3.167-1.419,7.095-1.419,11.784v14.066c0,6.253,0.821,11.167,2.468,14.746
				c1.645,3.578,3.928,6.129,6.849,7.65c2.919,1.523,6.271,2.282,10.057,2.282c4.029,0,7.546-0.636,10.55-1.912
				c3.002-1.274,5.347-3.496,7.033-6.663c1.686-3.166,2.53-7.63,2.53-13.389h13.943c0,5.923-0.863,11.024-2.591,15.301
				c-1.728,4.278-4.094,7.774-7.096,10.488c-3.004,2.715-6.479,4.731-10.427,6.047c-3.948,1.314-8.144,1.975-12.586,1.975H3524.78z"
				/>
		</g>
		
			<rect x="2584.417" y="2119.843" style="fill:#E6E6E6;stroke:#000000;stroke-width:6;stroke-miterlimit:10;" width="282.808" height="152.532"/>
		<g>
			
				<rect x="2264.124" y="2582.447" style="fill:#E6E6E6;stroke:#000000;stroke-width:6;stroke-miterlimit:10;" width="282.808" height="152.532"/>
			
				<rect x="2197.217" y="2521.024" style="fill:#E6E6E6;stroke:#000000;stroke-width:6;stroke-miterlimit:10;" width="282.808" height="152.532"/>
			
				<rect x="2130.31" y="2459.602" style="fill:#E6E6E6;stroke:#000000;stroke-width:6;stroke-miterlimit:10;" width="282.808" height="152.532"/>
		</g>
		
			<line style="fill:none;stroke:#000000;stroke-width:12;stroke-miterlimit:10;" x1="1181.04" y1="2342.787" x2="1753.589" y2="2145.357"/>
		<g>
			
				<rect x="1003.441" y="2367.43" style="fill:#E6E6E6;stroke:#000000;stroke-width:6;stroke-miterlimit:10;" width="282.808" height="152.532"/>
			
				<rect x="936.534" y="2306.007" style="fill:#E6E6E6;stroke:#000000;stroke-width:6;stroke-miterlimit:10;" width="282.808" height="152.532"/>
			
				<rect x="869.627" y="2244.584" style="fill:#E6E6E6;stroke:#000000;stroke-width:6;stroke-miterlimit:10;" width="282.808" height="152.532"/>
		</g>
		<g>
			<path d="M1011.648,2369.569c-4.855,0-9.399-0.7-13.635-2.098c-4.238-1.398-7.939-3.66-11.105-6.787
				c-3.168-3.125-5.657-7.219-7.465-12.277c-1.811-5.06-2.715-11.249-2.715-18.571v-7.65c0-7.157,0.904-13.265,2.715-18.324
				c1.809-5.06,4.297-9.172,7.465-12.34c3.166-3.165,6.827-5.47,10.982-6.909c4.153-1.438,8.617-2.16,13.389-2.16h1.851
				c4.442,0,8.657,0.617,12.648,1.852c3.989,1.233,7.506,3.188,10.55,5.861c3.042,2.674,5.449,6.169,7.219,10.488
				c1.768,4.318,2.653,9.562,2.653,15.732h-14.437c0-5.84-0.845-10.344-2.53-13.512c-1.687-3.166-4.01-5.387-6.972-6.663
				c-2.961-1.274-6.335-1.913-10.118-1.913c-2.798,0-5.389,0.413-7.774,1.234c-2.387,0.823-4.442,2.181-6.17,4.072
				c-1.728,1.894-3.065,4.423-4.01,7.589c-0.947,3.167-1.419,7.095-1.419,11.784v14.066c0,6.253,0.821,11.167,2.468,14.746
				c1.645,3.578,3.927,6.129,6.849,7.65c2.919,1.523,6.271,2.282,10.057,2.282c4.029,0,7.546-0.636,10.55-1.912
				c3.002-1.274,5.347-3.496,7.034-6.663c1.685-3.166,2.53-7.63,2.53-13.389h13.943c0,5.923-0.864,11.024-2.591,15.301
				c-1.728,4.278-4.093,7.774-7.095,10.488c-3.004,2.715-6.478,4.731-10.427,6.047c-3.949,1.314-8.144,1.975-12.586,1.975H1011.648z
				"/>
		</g>
		<circle style="fill:#5181F6;stroke:#000000;stroke-width:6;stroke-miterlimit:10;" cx="1882.842" cy="2116.919" r="139.458"/>
		
			<rect x="1881.338" y="2216.792" style="fill:#E6E6E6;stroke:#000000;stroke-width:6;stroke-miterlimit:10;" width="282.808" height="152.532"/>
		
			<line style="fill:none;stroke:#000000;stroke-width:12;stroke-miterlimit:10;" x1="703.916" y1="1898.568" x2="1032.967" y2="1635.327"/>
		<g>
			
				<rect x="516.036" y="1936.683" style="fill:#E6E6E6;stroke:#000000;stroke-width:6;stroke-miterlimit:10;" width="282.808" height="152.532"/>
			
				<rect x="449.129" y="1875.26" style="fill:#E6E6E6;stroke:#000000;stroke-width:6;stroke-miterlimit:10;" width="282.808" height="152.532"/>
			
				<rect x="382.222" y="1813.838" style="fill:#E6E6E6;stroke:#000000;stroke-width:6;stroke-miterlimit:10;" width="282.808" height="152.532"/>
		</g>
		
			<line style="fill:none;stroke:#000000;stroke-width:12;stroke-miterlimit:10;" x1="493.323" y1="1385.249" x2="1009.934" y2="1605.713"/>
		
			<rect x="248.408" y="1322.454" style="fill:#E6E6E6;stroke:#000000;stroke-width:6;stroke-miterlimit:10;" width="282.808" height="152.532"/>
		
			<line style="fill:none;stroke:#000000;stroke-width:12;stroke-miterlimit:10;" x1="450.547" y1="1033.164" x2="1029.677" y2="1556.355"/>
		<g>
			
				<rect x="195.76" y="960.498" style="fill:#E6E6E6;stroke:#000000;stroke-width:6;stroke-miterlimit:10;" width="282.808" height="152.532"/>
			
				<rect x="128.853" y="899.075" style="fill:#E6E6E6;stroke:#000000;stroke-width:6;stroke-miterlimit:10;" width="282.808" height="152.532"/>
			
				<rect x="61.946" y="837.653" style="fill:#E6E6E6;stroke:#000000;stroke-width:6;stroke-miterlimit:10;" width="282.808" height="152.532"/>
		</g>
		<g>
			<path d="M162.445,961.404l32.083-84.648h17.769l31.959,84.648h-16.042l-7.033-18.386H184.41l-7.034,18.386H162.445z
				 M188.358,931.789h28.751l-14.067-38.375h-0.494L188.358,931.789z"/>
		</g>
		
			<line style="fill:none;stroke:#000000;stroke-width:12;stroke-miterlimit:10;" x1="881.604" y1="868.638" x2="1134.973" y2="1477.383"/>
		
			<rect x="755.147" y="774.036" style="fill:#E6E6E6;stroke:#000000;stroke-width:6;stroke-miterlimit:10;" width="282.808" height="152.532"/>
		<circle style="fill:#5181F6;stroke:#000000;stroke-width:6;stroke-miterlimit:10;" cx="1121.91" cy="1590.437" r="139.458"/>
	</g>
	<g>
		<path d="M2851.981,547.176h-114c-9.9,0-18-8.1-18-18v-114c0-9.9,8.1-18,18-18h114c9.9,0,18,8.1,18,18v114
			C2869.981,539.076,2861.881,547.176,2851.981,547.176z"/>
		<g>
			<path d="M2913.461,481.094v-59.04h9.512v22.632c1.53-2.077,3.403-3.649,5.617-4.715s4.578-1.599,7.093-1.599
				c2.788,0,5.261,0.547,7.421,1.64c2.159,1.094,3.867,2.693,5.125,4.797c1.257,2.105,1.887,4.688,1.887,7.749v28.536h-9.513V454.28
				c0-3.116-0.737-5.343-2.214-6.683c-1.476-1.339-3.499-2.009-6.067-2.009c-1.695,0-3.254,0.424-4.675,1.271
				c-1.422,0.848-2.556,1.982-3.402,3.403c-0.849,1.422-1.271,3.034-1.271,4.838v25.994H2913.461z"/>
			<path d="M2966.433,496.346c-1.258,0-2.419-0.096-3.484-0.287c-1.066-0.192-2.064-0.479-2.993-0.861V487.9
				c0.601,0.273,1.394,0.505,2.378,0.697c0.983,0.191,1.939,0.287,2.87,0.287c1.421,0,2.609-0.274,3.566-0.82
				c0.956-0.547,1.805-1.449,2.542-2.706c0.738-1.258,1.462-2.898,2.173-4.92l-16.399-41.246h10.25l10.742,29.438h0.491
				l10.414-29.438h9.431l-15.498,40.016c-1.203,3.17-2.529,6.054-3.978,8.651c-1.449,2.596-3.171,4.66-5.166,6.191
				C2971.775,495.58,2969.33,496.346,2966.433,496.346z"/>
			<path d="M3020.963,481.914c-3.171,0-6.067-0.766-8.691-2.296s-4.729-3.908-6.314-7.134c-1.586-3.225-2.378-7.352-2.378-12.382
				V459.2c0-4.592,0.751-8.432,2.255-11.521c1.503-3.088,3.498-5.412,5.986-6.97c2.486-1.558,5.233-2.337,8.241-2.337
				c2.952,0,5.466,0.562,7.544,1.681c2.076,1.121,3.661,2.556,4.756,4.305v-22.304h9.512v59.04h-7.38l-1.148-5.658
				c-1.366,1.968-3.062,3.541-5.084,4.715S3023.805,481.914,3020.963,481.914z M3022.85,475.436c1.748,0,3.333-0.423,4.756-1.271
				c1.421-0.847,2.568-2.2,3.443-4.059c0.874-1.858,1.312-4.291,1.312-7.298v-5.822c0-2.678-0.424-4.906-1.271-6.683
				c-0.848-1.776-1.996-3.102-3.443-3.977c-1.449-0.874-3.049-1.312-4.797-1.312c-2.624,0-4.825,0.998-6.602,2.993
				c-1.777,1.996-2.665,4.989-2.665,8.979v5.74c0,3.007,0.41,5.44,1.23,7.298c0.819,1.859,1.927,3.226,3.32,4.1
				C3019.528,474.999,3021.099,475.436,3022.85,475.436z"/>
			<path d="M3054.008,481.094v-41.902h7.134l1.23,6.15c0.108-0.164,0.382-0.601,0.819-1.312c0.438-0.71,1.12-1.503,2.05-2.378
				c0.93-0.874,2.104-1.64,3.526-2.296c1.421-0.656,3.143-0.984,5.166-0.984c2.897,0,5.261,0.574,7.093,1.722
				c1.831,1.148,3.198,2.72,4.101,4.715c0.901,1.997,1.353,4.278,1.353,6.847c0,0.602-0.028,1.217-0.082,1.845
				c-0.055,0.629-0.11,1.162-0.164,1.599h-8.036v-1.64c0-1.148-0.219-2.323-0.655-3.526c-0.438-1.202-1.177-2.214-2.214-3.034
				c-1.039-0.82-2.488-1.23-4.347-1.23c-1.367,0-2.529,0.287-3.484,0.861c-0.957,0.574-1.736,1.299-2.337,2.173
				c-0.603,0.875-1.025,1.818-1.271,2.829c-0.246,1.012-0.369,1.955-0.369,2.829v26.732H3054.008z"/>
			<path d="M3105.421,481.914c-2.242,0-4.387-0.356-6.437-1.066c-2.051-0.71-3.731-1.927-5.043-3.649
				c-1.312-1.722-1.969-4.059-1.969-7.011c0-3.006,0.669-5.439,2.01-7.298c1.339-1.858,3.238-3.28,5.698-4.264
				c2.46-0.984,5.412-1.653,8.856-2.009c3.444-0.355,7.27-0.533,11.479-0.533v-3.936c0-2.733-0.696-4.66-2.091-5.781
				c-1.394-1.12-3.513-1.681-6.354-1.681c-2.352,0-4.429,0.521-6.232,1.558c-1.804,1.039-2.706,2.679-2.706,4.92v0.82h-9.184
				c-0.056-0.218-0.082-0.478-0.082-0.779c0-0.3,0-0.586,0-0.861c0-2.405,0.751-4.51,2.255-6.314
				c1.503-1.804,3.594-3.198,6.273-4.182c2.678-0.984,5.739-1.476,9.184-1.476h1.394c5.686,0,9.923,1.121,12.71,3.362
				c2.788,2.242,4.183,5.385,4.183,9.43v21.402c0,1.039,0.246,1.777,0.737,2.214c0.492,0.438,1.038,0.656,1.641,0.656
				c0.546,0,1.134-0.109,1.763-0.328c0.628-0.218,1.216-0.464,1.763-0.738v5.822c-0.711,0.547-1.612,0.97-2.705,1.271
				c-1.095,0.3-2.406,0.451-3.937,0.451c-1.804,0-3.294-0.328-4.469-0.984c-1.177-0.656-2.064-1.544-2.665-2.665
				c-0.603-1.12-0.957-2.391-1.066-3.813c-1.586,2.351-3.636,4.182-6.149,5.494C3111.762,481.258,3108.81,481.914,3105.421,481.914z
				 M3109.521,475.436c1.748,0,3.415-0.396,5.002-1.189c1.585-0.792,2.896-1.98,3.936-3.567c1.038-1.585,1.558-3.58,1.558-5.986
				v-3.198c-3.827,0-7.106,0.205-9.84,0.615c-2.734,0.41-4.811,1.162-6.231,2.255c-1.423,1.094-2.132,2.734-2.132,4.92
				c0,2.187,0.655,3.759,1.968,4.715C3105.093,474.958,3107.006,475.436,3109.521,475.436z"/>
			<path d="M3142.73,463.136v-8.528h20.828v8.528H3142.73z"/>
			<path d="M3174.546,481.094v-41.902h6.97l1.229,6.15c1.585-2.296,3.554-4.031,5.904-5.207c2.35-1.175,4.974-1.763,7.872-1.763
				c2.896,0,5.438,0.547,7.626,1.64c2.186,1.094,3.896,2.693,5.125,4.797c1.23,2.105,1.845,4.688,1.845,7.749v28.536h-9.512V454.28
				c0-3.116-0.726-5.343-2.173-6.683c-1.449-1.339-3.458-2.009-6.027-2.009c-1.695,0-3.253,0.424-4.674,1.271
				c-1.422,0.848-2.556,1.982-3.403,3.403c-0.848,1.422-1.271,3.034-1.271,4.838v25.994H3174.546z"/>
			<path d="M3241.047,481.914c-3.719,0-7.052-0.847-10.004-2.542c-2.952-1.694-5.263-4.127-6.93-7.298
				c-1.668-3.17-2.501-6.915-2.501-11.234v-1.394c0-4.373,0.833-8.131,2.501-11.275c1.667-3.143,3.963-5.562,6.889-7.257
				c2.924-1.694,6.244-2.542,9.963-2.542h1.312c3.772,0,7.12,0.848,10.045,2.542c2.924,1.695,5.22,4.114,6.889,7.257
				c1.667,3.144,2.501,6.902,2.501,11.275v1.394c0,4.319-0.834,8.064-2.501,11.234c-1.669,3.171-3.965,5.604-6.889,7.298
				c-2.925,1.695-6.246,2.542-9.963,2.542H3241.047z M3241.621,475.436c1.912,0,3.62-0.451,5.125-1.353
				c1.503-0.902,2.705-2.255,3.607-4.059c0.902-1.804,1.354-3.99,1.354-6.56v-6.642c0-2.624-0.451-4.824-1.354-6.601
				c-0.902-1.776-2.104-3.116-3.607-4.018c-1.505-0.902-3.213-1.353-5.125-1.353c-1.859,0-3.541,0.451-5.044,1.353
				c-1.504,0.902-2.705,2.242-3.607,4.018c-0.902,1.777-1.354,3.977-1.354,6.601v6.642c0,2.57,0.451,4.756,1.354,6.56
				c0.902,1.804,2.104,3.157,3.607,4.059C3238.08,474.985,3239.762,475.436,3241.621,475.436z"/>
			<path d="M3287.622,481.914c-3.172,0-6.068-0.766-8.692-2.296s-4.729-3.908-6.314-7.134c-1.586-3.225-2.378-7.352-2.378-12.382
				V459.2c0-4.592,0.751-8.432,2.255-11.521c1.503-3.088,3.498-5.412,5.986-6.97c2.487-1.558,5.234-2.337,8.241-2.337
				c2.952,0,5.466,0.562,7.544,1.681c2.077,1.121,3.662,2.556,4.756,4.305v-22.304h9.512v59.04h-7.38l-1.147-5.658
				c-1.367,1.968-3.062,3.541-5.084,4.715C3292.896,481.326,3290.464,481.914,3287.622,481.914z M3289.508,475.436
				c1.749,0,3.334-0.423,4.756-1.271c1.421-0.847,2.569-2.2,3.444-4.059c0.873-1.858,1.312-4.291,1.312-7.298v-5.822
				c0-2.678-0.424-4.906-1.271-6.683c-0.849-1.776-1.996-3.102-3.444-3.977c-1.449-0.874-3.048-1.312-4.797-1.312
				c-2.624,0-4.825,0.998-6.602,2.993c-1.776,1.996-2.665,4.989-2.665,8.979v5.74c0,3.007,0.41,5.44,1.23,7.298
				c0.82,1.859,1.927,3.226,3.321,4.1C3286.187,474.999,3287.758,475.436,3289.508,475.436z"/>
			<path d="M3338.051,481.914c-3.827,0-7.189-0.807-10.086-2.419c-2.898-1.612-5.153-3.977-6.766-7.093
				c-1.612-3.116-2.419-6.888-2.419-11.316V459.2c0-4.428,0.861-8.2,2.583-11.316c1.723-3.116,4.072-5.48,7.053-7.093
				c2.979-1.612,6.382-2.419,10.209-2.419h1.065c3.553,0,6.669,0.726,9.349,2.173c2.678,1.449,4.756,3.513,6.231,6.191
				c1.477,2.679,2.214,5.822,2.214,9.43v5.166h-28.782c0,2.898,0.382,5.412,1.148,7.544c0.765,2.132,1.898,3.759,3.403,4.879
				c1.503,1.121,3.375,1.681,5.617,1.681c1.857,0,3.512-0.369,4.961-1.107c1.447-0.738,2.596-1.845,3.443-3.321
				c0.847-1.476,1.271-3.307,1.271-5.494h8.938c0,3.28-0.819,6.15-2.46,8.61c-1.64,2.46-3.854,4.375-6.642,5.74
				s-5.959,2.05-9.512,2.05H3338.051z M3328.784,456.084h19.353c0-3.826-0.834-6.655-2.501-8.487
				c-1.668-1.831-3.95-2.747-6.847-2.747c-2.734,0-5.043,0.943-6.93,2.829C3329.974,449.565,3328.948,452.367,3328.784,456.084z"/>
		</g>
		<path style="fill:#FFFFFF;stroke:#000000;stroke-width:6;stroke-miterlimit:10;" d="M2840.153,535.348h-114c-9.9,0-18-8.1-18-18
			v-114c0-9.9,8.1-18,18-18h114c9.9,0,18,8.1,18,18v114C2858.153,527.248,2850.053,535.348,2840.153,535.348z"/>
	</g>
</g>
<g id="Type">
	
		<rect x="681.191" y="462.533" style="fill:#E6E6E6;stroke:#000000;stroke-width:6;stroke-miterlimit:10;" width="185.409" height="100"/>
	
		<rect x="630.867" y="419.952" style="fill:#E6E6E6;stroke:#000000;stroke-width:6;stroke-miterlimit:10;" width="185.409" height="100"/>
	<g>
		<path d="M535.484,257.305V65.225h72.52c11.012,0,21.232,1.636,30.66,4.9c9.424,3.268,17.78,8.356,25.06,15.26
			c7.28,6.908,12.924,15.776,16.94,26.6c4.012,10.828,6.02,23.896,6.02,39.2v14.56c0,15.12-2.008,28.376-6.02,39.76
			c-4.016,11.388-9.66,20.956-16.94,28.7c-7.28,7.748-15.636,13.536-25.06,17.36c-9.428,3.828-19.648,5.74-30.66,5.74H535.484z
			 M570.204,230.425h35.28c8.4,0,16.004-1.912,22.82-5.74c6.812-3.824,12.18-9.892,16.1-18.2c3.92-8.304,5.88-19.272,5.88-32.9v-28
			c0-13.44-1.96-24.032-5.88-31.78c-3.92-7.744-9.289-13.3-16.1-16.66c-6.816-3.36-14.42-5.04-22.82-5.04h-35.28V230.425z"/>
		<path d="M782.722,260.105c-13.068,0-24.548-2.756-34.44-8.26c-9.896-5.504-17.596-13.58-23.1-24.22
			c-5.508-10.64-8.26-23.52-8.26-38.64v-6.44c0-15.12,2.94-28,8.82-38.64s13.904-18.712,24.08-24.22
			c10.172-5.503,21.792-8.26,34.86-8.26h3.64c12.132,0,22.771,2.476,31.92,7.42c9.144,4.948,16.24,11.996,21.28,21.14
			c5.04,9.148,7.56,19.88,7.56,32.2v17.64h-98.28c0,9.896,1.304,18.48,3.92,25.76c2.612,7.28,6.484,12.836,11.62,16.66
			c5.132,3.828,11.523,5.74,19.18,5.74c6.344,0,11.992-1.26,16.94-3.78c4.944-2.52,8.864-6.3,11.76-11.34
			c2.892-5.04,4.34-11.292,4.34-18.76h30.52c0,11.2-2.8,21-8.4,29.4c-5.6,8.4-13.16,14.936-22.68,19.6c-9.52,4.664-20.348,7-32.48,7
			H782.722z M751.082,171.905h66.08c0-13.064-2.848-22.724-8.54-28.98c-5.696-6.252-13.488-9.38-23.38-9.38
			c-9.336,0-17.22,3.22-23.66,9.66S751.642,159.213,751.082,171.905z"/>
		<path d="M884.639,257.305v-201.6h32.48v201.6H884.639z"/>
		<path d="M1019.036,260.105c-13.068,0-24.548-2.756-34.44-8.26c-9.896-5.504-17.596-13.58-23.1-24.22
			c-5.508-10.64-8.26-23.52-8.26-38.64v-6.44c0-15.12,2.94-28,8.82-38.64s13.904-18.712,24.08-24.22
			c10.172-5.503,21.792-8.26,34.86-8.26h3.64c12.132,0,22.771,2.476,31.92,7.42c9.144,4.948,16.24,11.996,21.28,21.14
			c5.04,9.148,7.56,19.88,7.56,32.2v17.64h-98.28c0,9.896,1.304,18.48,3.92,25.76c2.612,7.28,6.484,12.836,11.62,16.66
			c5.132,3.828,11.523,5.74,19.18,5.74c6.344,0,11.992-1.26,16.94-3.78c4.944-2.52,8.864-6.3,11.76-11.34
			c2.892-5.04,4.34-11.292,4.34-18.76h30.52c0,11.2-2.8,21-8.4,29.4c-5.6,8.4-13.16,14.936-22.68,19.6c-9.52,4.664-20.348,7-32.48,7
			H1019.036z M987.396,171.905h66.08c0-13.064-2.848-22.724-8.54-28.98c-5.696-6.252-13.488-9.38-23.38-9.38
			c-9.336,0-17.22,3.22-23.66,9.66S987.956,159.213,987.396,171.905z"/>
		<path d="M1144.752,309.945c-6.536,0-12.46-1.54-17.78-4.62c-5.32-3.08-9.568-7.236-12.74-12.46
			c-3.176-5.228-4.76-11.016-4.76-17.36c0-6.72,1.863-13.068,5.6-19.04c3.732-5.972,8.864-10.452,15.4-13.44
			c-4.108-2.612-7.328-5.972-9.66-10.08c-2.336-4.104-3.5-8.492-3.5-13.16c0-6.904,2.144-12.74,6.44-17.5
			c4.292-4.76,9.892-8.352,16.8-10.78c-5.788-3.732-10.456-8.212-14-13.44c-3.548-5.224-5.32-11.572-5.32-19.04
			c0-8.024,2.144-15.68,6.44-22.96c4.292-7.28,10.78-13.204,19.46-17.78c8.68-4.572,19.644-6.86,32.9-6.86
			c5.784,0,11.152,0.328,16.1,0.98c4.944,0.656,9.284,1.728,13.02,3.22c7.28-3.36,12.784-7.42,16.52-12.18
			c3.732-4.76,5.784-9.752,6.16-14.98h26.04c0,6.16-1.168,11.76-3.5,16.8c-2.336,5.04-5.696,9.24-10.08,12.6
			c-4.388,3.36-9.568,5.696-15.54,7l-0.28,0.84c4.292,3.736,7.744,8.12,10.36,13.16c2.612,5.04,3.92,10.64,3.92,16.8
			c0,8.216-2.196,15.776-6.58,22.68c-4.388,6.908-10.688,12.46-18.9,16.66c-8.216,4.2-18.108,6.3-29.68,6.3h-21.56
			c-5.788,0-10.36,1.308-13.72,3.92c-3.36,2.616-5.04,6.068-5.04,10.36c0,4.108,1.583,7.468,4.76,10.08
			c3.172,2.616,7.84,3.92,14,3.92h52.08c12.32,0,22.024,3.736,29.12,11.2c7.092,7.468,10.64,16.612,10.64,27.44
			c0,7.652-1.82,14.652-5.46,21c-3.64,6.344-8.776,11.384-15.4,15.12c-6.628,3.732-14.328,5.6-23.1,5.6H1144.752z M1156.512,288.945
			h51.24c5.412,0,10.08-1.82,14-5.46c3.92-3.64,5.88-8.077,5.88-13.3c0-4.48-1.636-8.356-4.9-11.62
			c-3.268-3.264-7.328-4.9-12.18-4.9h-54.04c-5.228,0-9.616,1.728-13.16,5.18c-3.548,3.452-5.32,7.604-5.32,12.46
			c0,4.664,1.772,8.772,5.32,12.32C1146.896,287.169,1151.284,288.945,1156.512,288.945z M1181.992,182.265
			c9.332,0,16.66-2.52,21.98-7.56c5.32-5.04,7.98-11.104,7.98-18.2c0-7.092-2.66-13.204-7.98-18.34
			c-5.32-5.132-12.648-7.7-21.98-7.7c-9.336,0-16.66,2.568-21.98,7.7c-5.32,5.136-7.98,11.248-7.98,18.34
			c0,7.096,2.66,13.16,7.98,18.2C1165.333,179.745,1172.656,182.265,1181.992,182.265z"/>
		<path d="M1320.029,260.105c-7.656,0-14.98-1.216-21.98-3.64s-12.74-6.58-17.22-12.46c-4.48-5.88-6.72-13.86-6.72-23.94
			c0-10.264,2.284-18.572,6.86-24.92c4.572-6.344,11.06-11.2,19.46-14.56c8.4-3.36,18.48-5.644,30.24-6.86
			c11.76-1.212,24.824-1.82,39.2-1.82v-13.44c0-9.332-2.38-15.912-7.14-19.74c-4.76-3.824-11.997-5.74-21.7-5.74
			c-8.028,0-15.12,1.776-21.28,5.32c-6.16,3.548-9.24,9.148-9.24,16.8v2.8h-31.36c-0.188-0.744-0.28-1.632-0.28-2.66
			c0-1.024,0-2.004,0-2.94c0-8.212,2.564-15.4,7.7-21.56c5.132-6.16,12.272-10.92,21.42-14.28c9.144-3.36,19.6-5.04,31.36-5.04h4.76
			c19.412,0,33.88,3.828,43.4,11.48c9.52,7.656,14.28,18.388,14.28,32.2v73.08c0,3.548,0.84,6.068,2.52,7.56
			c1.68,1.496,3.543,2.24,5.6,2.24c1.864,0,3.872-0.372,6.02-1.12c2.144-0.744,4.152-1.584,6.02-2.52v19.88
			c-2.428,1.868-5.508,3.312-9.24,4.34c-3.736,1.024-8.216,1.54-13.44,1.54c-6.16,0-11.249-1.12-15.26-3.36
			c-4.016-2.24-7.048-5.272-9.1-9.1c-2.056-3.824-3.268-8.164-3.64-13.02c-5.417,8.028-12.417,14.28-21,18.76
			C1341.681,257.865,1331.601,260.105,1320.029,260.105z M1334.029,237.985c5.972,0,11.664-1.352,17.08-4.06
			c5.412-2.704,9.892-6.764,13.44-12.18c3.544-5.412,5.32-12.224,5.32-20.44v-10.92c-13.068,0-24.268,0.7-33.6,2.1
			c-9.336,1.4-16.428,3.968-21.28,7.7c-4.856,3.736-7.28,9.336-7.28,16.8c0,7.468,2.24,12.836,6.72,16.1
			C1318.909,236.353,1325.441,237.985,1334.029,237.985z"/>
		<path d="M1495.586,260.105c-7.468,0-14.14-1.12-20.02-3.36c-5.88-2.24-10.456-5.924-13.72-11.06c-3.268-5.132-4.9-11.9-4.9-20.3
			v-86.24h-15.68v-24.92h16.52l11.48-45.64h20.16v45.64h33.32v24.92h-33.32v79.8c0,8.216,1.68,13.44,5.04,15.68
			c3.36,2.24,7,3.36,10.92,3.36c2.052,0,4.9-0.464,8.54-1.4c3.64-0.932,6.58-1.864,8.82-2.8v21c-2.24,1.12-4.948,2.1-8.12,2.94
			c-3.176,0.84-6.44,1.444-9.8,1.82C1501.466,259.917,1498.386,260.105,1495.586,260.105z"/>
		<path d="M1615.984,260.105c-13.068,0-24.548-2.756-34.44-8.26c-9.896-5.504-17.596-13.58-23.1-24.22
			c-5.508-10.64-8.26-23.52-8.26-38.64v-6.44c0-15.12,2.94-28,8.82-38.64s13.904-18.712,24.08-24.22
			c10.172-5.503,21.792-8.26,34.86-8.26h3.64c12.132,0,22.771,2.476,31.92,7.42c9.144,4.948,16.24,11.996,21.28,21.14
			c5.04,9.148,7.56,19.88,7.56,32.2v17.64h-98.28c0,9.896,1.304,18.48,3.92,25.76c2.612,7.28,6.484,12.836,11.62,16.66
			c5.132,3.828,11.523,5.74,19.18,5.74c6.344,0,11.992-1.26,16.94-3.78c4.944-2.52,8.864-6.3,11.76-11.34
			c2.892-5.04,4.34-11.292,4.34-18.76h30.52c0,11.2-2.8,21-8.4,29.4c-5.6,8.4-13.16,14.936-22.68,19.6c-9.52,4.664-20.348,7-32.48,7
			H1615.984z M1584.344,171.905h66.08c0-13.064-2.848-22.724-8.54-28.98c-5.696-6.252-13.488-9.38-23.38-9.38
			c-9.336,0-17.22,3.22-23.66,9.66S1584.904,159.213,1584.344,171.905z"/>
		<path d="M1771.101,260.105c-10.828,0-20.72-2.616-29.68-7.84c-8.96-5.224-16.148-13.344-21.56-24.36
			c-5.417-11.012-8.12-25.104-8.12-42.28v-3.08c0-15.68,2.563-28.792,7.7-39.34c5.132-10.543,11.944-18.48,20.44-23.8
			c8.492-5.32,17.872-7.98,28.14-7.98c10.08,0,18.664,1.916,25.76,5.74c7.092,3.828,12.503,8.728,16.24,14.7v-76.16h32.48v201.6
			h-25.2l-3.92-19.32c-4.668,6.72-10.457,12.088-17.36,16.1C1789.112,258.097,1780.804,260.105,1771.101,260.105z M1777.541,237.985
			c5.972,0,11.384-1.444,16.24-4.34c4.852-2.892,8.772-7.512,11.76-13.86c2.984-6.344,4.48-14.652,4.48-24.92v-19.88
			c0-9.144-1.448-16.752-4.34-22.82c-2.896-6.063-6.816-10.592-11.76-13.58c-4.948-2.983-10.408-4.48-16.38-4.48
			c-8.96,0-16.476,3.408-22.54,10.22c-6.068,6.816-9.1,17.036-9.1,30.66v19.6c0,10.269,1.4,18.577,4.2,24.92
			c2.8,6.348,6.58,11.016,11.34,14C1766.201,236.493,1771.564,237.985,1777.541,237.985z"/>
		<path d="M1948.895,257.305V65.225h34.72v80.08h77.56v-80.08h34.72v192.08h-34.439v-84h-77.56v84H1948.895z"/>
		<path d="M2152.736,309.385c-4.296,0-8.26-0.328-11.899-0.98c-3.641-0.656-7.049-1.636-10.221-2.94v-24.92
			c2.052,0.932,4.761,1.724,8.12,2.38c3.36,0.652,6.624,0.98,9.8,0.98c4.853,0,8.912-0.937,12.181-2.8
			c3.264-1.868,6.16-4.948,8.68-9.24c2.521-4.296,4.992-9.896,7.42-16.8l-56-140.84h35l36.68,100.52h1.681l35.56-100.52h32.2
			l-52.92,136.64c-4.108,10.824-8.637,20.672-13.58,29.54c-4.948,8.864-10.828,15.912-17.64,21.14
			C2170.98,306.769,2162.628,309.385,2152.736,309.385z"/>
		<path d="M2338.937,260.105c-10.828,0-20.72-2.616-29.68-7.84s-16.148-13.344-21.561-24.36c-5.416-11.012-8.12-25.104-8.12-42.28
			v-3.08c0-15.68,2.564-28.792,7.7-39.34c5.132-10.543,11.944-18.48,20.44-23.8c8.491-5.32,17.872-7.98,28.14-7.98
			c10.08,0,18.664,1.916,25.76,5.74c7.092,3.828,12.504,8.728,16.24,14.7v-76.16h32.48v201.6h-25.2l-3.92-19.32
			c-4.668,6.72-10.456,12.088-17.36,16.1C2356.948,258.097,2348.641,260.105,2338.937,260.105z M2345.377,237.985
			c5.972,0,11.384-1.444,16.239-4.34c4.853-2.892,8.772-7.512,11.761-13.86c2.983-6.344,4.479-14.652,4.479-24.92v-19.88
			c0-9.144-1.448-16.752-4.34-22.82c-2.896-6.063-6.816-10.592-11.76-13.58c-4.948-2.983-10.408-4.48-16.38-4.48
			c-8.96,0-16.477,3.408-22.54,10.22c-6.068,6.816-9.101,17.036-9.101,30.66v19.6c0,10.269,1.4,18.577,4.2,24.92
			c2.8,6.348,6.58,11.016,11.34,14C2334.036,236.493,2339.4,237.985,2345.377,237.985z"/>
		<path d="M2451.772,257.305v-143.08h24.36l4.2,21c0.372-0.56,1.304-2.052,2.8-4.48c1.492-2.424,3.823-5.132,7-8.12
			c3.172-2.983,7.184-5.6,12.04-7.84c4.852-2.24,10.731-3.36,17.64-3.36c9.893,0,17.964,1.96,24.221,5.88
			c6.251,3.92,10.92,9.288,14,16.1c3.079,6.816,4.619,14.608,4.619,23.38c0,2.056-0.096,4.156-0.279,6.3
			c-0.188,2.148-0.377,3.968-0.561,5.46h-27.439v-5.6c0-3.92-0.748-7.932-2.24-12.04c-1.496-4.104-4.017-7.56-7.561-10.36
			c-3.548-2.8-8.496-4.2-14.84-4.2c-4.668,0-8.636,0.98-11.899,2.94c-3.269,1.96-5.929,4.436-7.98,7.42
			c-2.056,2.988-3.5,6.208-4.34,9.66c-0.84,3.456-1.26,6.676-1.26,9.66v91.28H2451.772z"/>
		<path d="M2627.329,260.105c-7.656,0-14.979-1.216-21.979-3.64s-12.74-6.58-17.221-12.46c-4.479-5.88-6.72-13.86-6.72-23.94
			c0-10.264,2.284-18.572,6.86-24.92c4.571-6.344,11.06-11.2,19.46-14.56c8.399-3.36,18.479-5.644,30.239-6.86
			c11.761-1.212,24.824-1.82,39.2-1.82v-13.44c0-9.332-2.38-15.912-7.14-19.74c-4.76-3.824-11.996-5.74-21.7-5.74
			c-8.028,0-15.12,1.776-21.28,5.32c-6.16,3.548-9.239,9.148-9.239,16.8v2.8h-31.36c-0.188-0.744-0.28-1.632-0.28-2.66
			c0-1.024,0-2.004,0-2.94c0-8.212,2.563-15.4,7.7-21.56c5.132-6.16,12.271-10.92,21.42-14.28c9.144-3.36,19.6-5.04,31.36-5.04h4.76
			c19.412,0,33.88,3.828,43.4,11.48c9.52,7.656,14.279,18.388,14.279,32.2v73.08c0,3.548,0.84,6.068,2.521,7.56
			c1.68,1.496,3.544,2.24,5.6,2.24c1.864,0,3.872-0.372,6.021-1.12c2.144-0.744,4.151-1.584,6.02-2.52v19.88
			c-2.428,1.868-5.508,3.312-9.24,4.34c-3.736,1.024-8.216,1.54-13.439,1.54c-6.16,0-11.248-1.12-15.26-3.36
			c-4.017-2.24-7.049-5.272-9.101-9.1c-2.056-3.824-3.268-8.164-3.64-13.02c-5.416,8.028-12.416,14.28-21,18.76
			C2648.981,257.865,2638.901,260.105,2627.329,260.105z M2641.329,237.985c5.972,0,11.664-1.352,17.08-4.06
			c5.412-2.704,9.892-6.764,13.44-12.18c3.543-5.412,5.319-12.224,5.319-20.44v-10.92c-13.068,0-24.268,0.7-33.6,2.1
			c-9.337,1.4-16.429,3.968-21.28,7.7c-4.856,3.736-7.28,9.336-7.28,16.8c0,7.468,2.24,12.836,6.721,16.1
			C2626.209,236.353,2632.741,237.985,2641.329,237.985z"/>
		<path d="M2823.604,257.305V65.225h34.72v80.08h77.561v-80.08h34.72v192.08h-34.439v-84h-77.561v84H2823.604z"/>
		<path d="M3072.525,260.105c-13.068,0-24.548-2.756-34.44-8.26c-9.896-5.504-17.596-13.58-23.1-24.22
			c-5.508-10.64-8.26-23.52-8.26-38.64v-6.44c0-15.12,2.939-28,8.819-38.64c5.881-10.64,13.904-18.712,24.08-24.22
			c10.172-5.503,21.792-8.26,34.86-8.26h3.64c12.132,0,22.772,2.476,31.92,7.42c9.145,4.948,16.24,11.996,21.28,21.14
			c5.04,9.148,7.561,19.88,7.561,32.2v17.64h-98.28c0,9.896,1.304,18.48,3.92,25.76c2.611,7.28,6.483,12.836,11.62,16.66
			c5.132,3.828,11.523,5.74,19.18,5.74c6.344,0,11.992-1.26,16.94-3.78c4.943-2.52,8.863-6.3,11.76-11.34
			c2.892-5.04,4.34-11.292,4.34-18.76h30.521c0,11.2-2.801,21-8.4,29.4c-5.6,8.4-13.16,14.936-22.68,19.6
			c-9.521,4.664-20.349,7-32.48,7H3072.525z M3040.886,171.905h66.079c0-13.064-2.848-22.724-8.539-28.98
			c-5.696-6.252-13.488-9.38-23.381-9.38c-9.336,0-17.22,3.22-23.659,9.66C3044.945,149.645,3041.445,159.213,3040.886,171.905z"/>
		<path d="M3211.683,260.105c-7.656,0-14.979-1.216-21.979-3.64s-12.74-6.58-17.221-12.46c-4.479-5.88-6.72-13.86-6.72-23.94
			c0-10.264,2.284-18.572,6.86-24.92c4.571-6.344,11.06-11.2,19.46-14.56c8.399-3.36,18.479-5.644,30.239-6.86
			c11.761-1.212,24.824-1.82,39.2-1.82v-13.44c0-9.332-2.38-15.912-7.14-19.74c-4.76-3.824-11.996-5.74-21.7-5.74
			c-8.028,0-15.12,1.776-21.28,5.32c-6.16,3.548-9.239,9.148-9.239,16.8v2.8h-31.36c-0.188-0.744-0.28-1.632-0.28-2.66
			c0-1.024,0-2.004,0-2.94c0-8.212,2.563-15.4,7.7-21.56c5.132-6.16,12.271-10.92,21.42-14.28c9.144-3.36,19.6-5.04,31.36-5.04h4.76
			c19.412,0,33.88,3.828,43.4,11.48c9.52,7.656,14.279,18.388,14.279,32.2v73.08c0,3.548,0.84,6.068,2.521,7.56
			c1.68,1.496,3.544,2.24,5.6,2.24c1.864,0,3.872-0.372,6.021-1.12c2.144-0.744,4.151-1.584,6.02-2.52v19.88
			c-2.428,1.868-5.508,3.312-9.24,4.34c-3.736,1.024-8.216,1.54-13.439,1.54c-6.16,0-11.248-1.12-15.26-3.36
			c-4.017-2.24-7.049-5.272-9.101-9.1c-2.056-3.824-3.268-8.164-3.64-13.02c-5.416,8.028-12.416,14.28-21,18.76
			C3233.335,257.865,3223.255,260.105,3211.683,260.105z M3225.683,237.985c5.972,0,11.664-1.352,17.08-4.06
			c5.412-2.704,9.892-6.764,13.44-12.18c3.543-5.412,5.319-12.224,5.319-20.44v-10.92c-13.068,0-24.268,0.7-33.6,2.1
			c-9.337,1.4-16.429,3.968-21.28,7.7c-4.856,3.736-7.28,9.336-7.28,16.8c0,7.468,2.24,12.836,6.721,16.1
			C3210.562,236.353,3217.095,237.985,3225.683,237.985z"/>
		<path d="M3396.199,260.105c-10.828,0-20.72-2.616-29.68-7.84s-16.148-13.344-21.561-24.36c-5.416-11.012-8.12-25.104-8.12-42.28
			v-3.08c0-15.68,2.564-28.792,7.7-39.34c5.132-10.543,11.944-18.48,20.44-23.8c8.491-5.32,17.872-7.98,28.14-7.98
			c10.08,0,18.664,1.916,25.76,5.74c7.092,3.828,12.504,8.728,16.24,14.7v-76.16h32.48v201.6h-25.2l-3.92-19.32
			c-4.668,6.72-10.456,12.088-17.36,16.1C3414.211,258.097,3405.903,260.105,3396.199,260.105z M3402.64,237.985
			c5.972,0,11.384-1.444,16.239-4.34c4.853-2.892,8.772-7.512,11.761-13.86c2.983-6.344,4.479-14.652,4.479-24.92v-19.88
			c0-9.144-1.448-16.752-4.34-22.82c-2.896-6.063-6.816-10.592-11.76-13.58c-4.948-2.983-10.408-4.48-16.38-4.48
			c-8.96,0-16.477,3.408-22.54,10.22c-6.068,6.816-9.101,17.036-9.101,30.66v19.6c0,10.269,1.4,18.577,4.2,24.92
			c2.8,6.348,6.58,11.016,11.34,14C3391.299,236.493,3396.663,237.985,3402.64,237.985z"/>
	</g>
	
		<rect x="580.542" y="377.371" style="fill:#E6E6E6;stroke:#000000;stroke-width:6;stroke-miterlimit:10;" width="185.409" height="100"/>
	<g>
		<path d="M967.376,487.064v-7.872l33.702-12.792l-33.702-12.792v-7.954l41.738,16.154v9.102L967.376,487.064z"/>
		<path d="M1041.344,487.228v-7.79h14.432V441.8h-14.432v-5.74c1.913-0.164,4.018-0.505,6.314-1.025
			c2.296-0.519,4.674-1.202,7.134-2.05c2.46-0.847,4.838-1.79,7.134-2.829h3.444v49.282h14.268v7.79H1041.344z"/>
		<path d="M1108.993,488.048c-3.554,0-6.779-0.82-9.676-2.46c-2.898-1.64-5.194-3.908-6.888-6.806
			c-1.695-2.897-2.542-6.204-2.542-9.922v-19.516c0-3.717,0.847-7.024,2.542-9.922c1.694-2.897,3.99-5.166,6.888-6.806
			c2.896-1.64,6.122-2.46,9.676-2.46h1.886c3.608,0,6.847,0.82,9.717,2.46c2.87,1.64,5.138,3.909,6.806,6.806
			c1.667,2.898,2.501,6.205,2.501,9.922v19.516c0,3.718-0.834,7.025-2.501,9.922c-1.668,2.898-3.936,5.166-6.806,6.806
			c-2.87,1.64-6.109,2.46-9.717,2.46H1108.993z M1109.895,480.586c1.968,0,3.731-0.464,5.289-1.394
			c1.558-0.929,2.788-2.186,3.69-3.772c0.902-1.585,1.353-3.362,1.353-5.33v-21.976c0-2.022-0.451-3.813-1.353-5.371
			c-0.902-1.558-2.132-2.801-3.69-3.731c-1.558-0.929-3.321-1.394-5.289-1.394c-1.968,0-3.731,0.465-5.289,1.394
			c-1.558,0.93-2.788,2.173-3.69,3.731c-0.902,1.558-1.353,3.349-1.353,5.371v21.976c0,1.968,0.451,3.745,1.353,5.33
			c0.902,1.586,2.132,2.843,3.69,3.772C1106.164,480.122,1107.927,480.586,1109.895,480.586z"/>
		<path d="M1159.422,488.048c-3.554,0-6.779-0.82-9.676-2.46c-2.898-1.64-5.194-3.908-6.888-6.806
			c-1.695-2.897-2.542-6.204-2.542-9.922v-19.516c0-3.717,0.847-7.024,2.542-9.922c1.694-2.897,3.99-5.166,6.888-6.806
			c2.896-1.64,6.122-2.46,9.676-2.46h1.886c3.608,0,6.847,0.82,9.717,2.46c2.87,1.64,5.138,3.909,6.806,6.806
			c1.667,2.898,2.501,6.205,2.501,9.922v19.516c0,3.718-0.834,7.025-2.501,9.922c-1.668,2.898-3.936,5.166-6.806,6.806
			c-2.87,1.64-6.109,2.46-9.717,2.46H1159.422z M1160.324,480.586c1.968,0,3.731-0.464,5.289-1.394
			c1.558-0.929,2.788-2.186,3.69-3.772c0.902-1.585,1.353-3.362,1.353-5.33v-21.976c0-2.022-0.451-3.813-1.353-5.371
			c-0.902-1.558-2.132-2.801-3.69-3.731c-1.558-0.929-3.321-1.394-5.289-1.394c-1.968,0-3.731,0.465-5.289,1.394
			c-1.558,0.93-2.788,2.173-3.69,3.731c-0.902,1.558-1.353,3.349-1.353,5.371v21.976c0,1.968,0.451,3.745,1.353,5.33
			c0.902,1.586,2.132,2.843,3.69,3.772C1156.593,480.122,1158.356,480.586,1160.324,480.586z"/>
		<path d="M1231.663,488.048c-3.226,0-6.246-0.465-9.061-1.394c-2.816-0.929-5.276-2.432-7.38-4.51
			c-2.105-2.077-3.759-4.797-4.961-8.159c-1.203-3.362-1.804-7.475-1.804-12.341v-5.084c0-4.756,0.601-8.815,1.804-12.177
			c1.202-3.362,2.856-6.095,4.961-8.2c2.104-2.104,4.537-3.635,7.298-4.592c2.76-0.956,5.726-1.435,8.897-1.435h1.23
			c2.952,0,5.753,0.41,8.404,1.23c2.651,0.82,4.988,2.119,7.012,3.895c2.021,1.777,3.62,4.1,4.797,6.97
			c1.175,2.87,1.763,6.355,1.763,10.455h-9.594c0-3.881-0.562-6.874-1.681-8.979c-1.121-2.104-2.665-3.58-4.634-4.428
			c-1.968-0.847-4.21-1.271-6.724-1.271c-1.859,0-3.581,0.274-5.166,0.82c-1.586,0.547-2.952,1.449-4.1,2.706
			c-1.148,1.258-2.037,2.939-2.665,5.043c-0.629,2.105-0.943,4.715-0.943,7.831v9.348c0,4.155,0.546,7.421,1.64,9.799
			c1.093,2.378,2.61,4.073,4.551,5.084c1.94,1.012,4.168,1.517,6.683,1.517c2.678,0,5.015-0.423,7.011-1.271
			c1.995-0.847,3.553-2.323,4.674-4.428c1.12-2.104,1.682-5.07,1.682-8.897h9.266c0,3.936-0.574,7.326-1.722,10.168
			c-1.148,2.843-2.721,5.166-4.715,6.97c-1.996,1.804-4.306,3.144-6.93,4.018c-2.624,0.874-5.412,1.312-8.363,1.312H1231.663z"/>
		<path d="M1264.873,487.228v-59.04h9.512v59.04H1264.873z"/>
		<path d="M1287.668,435.896v-7.708h10.004v7.708H1287.668z M1287.913,487.228v-41.902h9.513v41.902H1287.913z"/>
		<path d="M1327.52,488.048c-3.827,0-7.189-0.807-10.086-2.419c-2.898-1.612-5.153-3.977-6.766-7.093
			c-1.612-3.116-2.419-6.888-2.419-11.316v-1.886c0-4.428,0.861-8.2,2.583-11.316c1.723-3.116,4.072-5.48,7.053-7.093
			c2.979-1.612,6.382-2.419,10.209-2.419h1.065c3.553,0,6.669,0.726,9.349,2.173c2.678,1.449,4.756,3.513,6.231,6.191
			c1.477,2.679,2.214,5.822,2.214,9.43v5.166h-28.782c0,2.898,0.382,5.412,1.148,7.544c0.765,2.132,1.898,3.759,3.403,4.879
			c1.503,1.121,3.375,1.681,5.617,1.681c1.857,0,3.512-0.369,4.961-1.107c1.447-0.738,2.596-1.845,3.443-3.321
			c0.847-1.476,1.271-3.307,1.271-5.494h8.938c0,3.28-0.819,6.15-2.46,8.61c-1.64,2.46-3.854,4.375-6.642,5.74
			s-5.959,2.05-9.512,2.05H1327.52z M1318.253,462.219h19.353c0-3.826-0.834-6.655-2.501-8.487c-1.668-1.831-3.95-2.747-6.847-2.747
			c-2.734,0-5.043,0.943-6.93,2.829C1319.442,455.699,1318.417,458.501,1318.253,462.219z"/>
		<path d="M1357.367,487.228v-41.902h6.97l1.229,6.15c1.585-2.296,3.554-4.031,5.904-5.207c2.35-1.175,4.974-1.763,7.872-1.763
			c2.896,0,5.438,0.547,7.626,1.64c2.186,1.094,3.896,2.693,5.125,4.797c1.23,2.105,1.845,4.688,1.845,7.749v28.536h-9.512v-26.814
			c0-3.116-0.726-5.343-2.173-6.683c-1.449-1.339-3.458-2.009-6.027-2.009c-1.695,0-3.253,0.424-4.674,1.271
			c-1.422,0.848-2.556,1.982-3.403,3.403c-0.848,1.422-1.271,3.034-1.271,4.838v25.994H1357.367z"/>
		<path d="M1419.113,488.048c-2.188,0-4.142-0.328-5.863-0.984c-1.723-0.656-3.062-1.735-4.019-3.239
			c-0.957-1.503-1.435-3.485-1.435-5.945v-25.256h-4.592v-7.298h4.838l3.362-13.366h5.903v13.366h9.758v7.298h-9.758v23.37
			c0,2.406,0.492,3.936,1.477,4.592c0.983,0.656,2.05,0.984,3.197,0.984c0.602,0,1.436-0.136,2.501-0.41
			c1.066-0.273,1.928-0.546,2.583-0.82v6.15c-0.655,0.328-1.448,0.615-2.378,0.861s-1.886,0.423-2.87,0.533
			C1420.835,487.993,1419.933,488.048,1419.113,488.048z"/>
		<path d="M1451.748,488.048c-2.788,0-5.248-0.342-7.38-1.025c-2.132-0.683-3.937-1.599-5.412-2.747
			c-1.477-1.148-2.598-2.46-3.362-3.936c-0.766-1.476-1.147-3.006-1.147-4.592c0-0.328,0-0.601,0-0.82
			c0-0.218,0.026-0.519,0.082-0.902h8.199c-0.055,0.164-0.082,0.315-0.082,0.451c0,0.137,0,0.26,0,0.369
			c0,1.531,0.492,2.788,1.477,3.772c0.983,0.984,2.282,1.722,3.895,2.214s3.403,0.738,5.371,0.738c1.641,0,3.198-0.218,4.674-0.656
			c1.477-0.437,2.678-1.079,3.608-1.927c0.929-0.847,1.394-1.898,1.394-3.157c0-1.421-0.491-2.514-1.476-3.28
			c-0.984-0.765-2.283-1.366-3.895-1.804c-1.613-0.437-3.391-0.82-5.33-1.148c-1.941-0.328-3.896-0.724-5.863-1.189
			c-1.968-0.464-3.759-1.12-5.371-1.968c-1.613-0.847-2.911-2.009-3.895-3.485c-0.984-1.476-1.477-3.416-1.477-5.822
			c0-1.968,0.438-3.744,1.312-5.33c0.873-1.585,2.104-2.911,3.689-3.977c1.585-1.066,3.444-1.886,5.576-2.46
			c2.132-0.574,4.428-0.861,6.888-0.861h1.312c2.296,0,4.44,0.301,6.437,0.902c1.995,0.602,3.731,1.422,5.207,2.46
			c1.477,1.039,2.624,2.242,3.444,3.608c0.82,1.367,1.229,2.816,1.229,4.346c0,0.274-0.014,0.574-0.041,0.902
			s-0.041,0.547-0.041,0.656h-8.281v-0.82c0-0.546-0.138-1.134-0.41-1.763c-0.274-0.627-0.767-1.23-1.477-1.804
			c-0.711-0.574-1.653-1.052-2.828-1.435c-1.177-0.382-2.665-0.574-4.47-0.574c-1.64,0-3.034,0.164-4.182,0.492
			c-1.148,0.328-2.078,0.752-2.788,1.271c-0.711,0.52-1.217,1.08-1.517,1.681c-0.302,0.602-0.451,1.176-0.451,1.722
			c0,1.258,0.492,2.242,1.476,2.952c0.984,0.711,2.296,1.271,3.937,1.681c1.64,0.41,3.443,0.766,5.412,1.066
			c1.968,0.301,3.922,0.684,5.862,1.148c1.94,0.465,3.731,1.135,5.371,2.009c1.641,0.875,2.952,2.05,3.937,3.526
			c0.983,1.476,1.476,3.417,1.476,5.822c0,2.515-0.479,4.661-1.435,6.437c-0.957,1.777-2.283,3.185-3.978,4.223
			c-1.695,1.039-3.622,1.804-5.781,2.296c-2.16,0.492-4.441,0.738-6.847,0.738H1451.748z"/>
	</g>
	<circle style="fill:#5181F6;stroke:#000000;stroke-width:6;stroke-miterlimit:10;" cx="1728.881" cy="461.149" r="75"/>
	<g>
		<path d="M1860.195,481.895v-56.252h10.168v23.452h22.714v-23.452h10.168v56.252h-10.086v-24.6h-22.714v24.6H1860.195z"/>
		<path d="M1919.892,497.147c-1.258,0-2.419-0.096-3.485-0.287c-1.066-0.192-2.064-0.479-2.993-0.861v-7.298
			c0.601,0.273,1.394,0.505,2.378,0.697c0.984,0.191,1.94,0.287,2.87,0.287c1.421,0,2.61-0.274,3.567-0.82
			c0.956-0.547,1.804-1.449,2.542-2.706c0.738-1.258,1.462-2.898,2.173-4.92l-16.4-41.246h10.25l10.742,29.438h0.492l10.414-29.438
			h9.43l-15.498,40.016c-1.203,3.17-2.529,6.054-3.977,8.651c-1.449,2.596-3.171,4.66-5.166,6.191
			C1925.234,496.381,1922.789,497.147,1919.892,497.147z"/>
		<path d="M1959.005,481.895v-41.902h7.134l1.23,6.15c0.109-0.164,0.382-0.601,0.82-1.312c0.437-0.71,1.12-1.503,2.05-2.378
			c0.929-0.874,2.104-1.64,3.526-2.296c1.421-0.656,3.143-0.984,5.166-0.984c2.897,0,5.261,0.574,7.093,1.722
			c1.831,1.148,3.198,2.72,4.1,4.715c0.902,1.997,1.353,4.278,1.353,6.847c0,0.602-0.028,1.217-0.082,1.845
			c-0.055,0.629-0.11,1.162-0.164,1.599h-8.036v-1.64c0-1.148-0.219-2.323-0.656-3.526c-0.438-1.202-1.176-2.214-2.214-3.034
			c-1.039-0.82-2.488-1.23-4.346-1.23c-1.367,0-2.529,0.287-3.485,0.861c-0.957,0.574-1.736,1.299-2.337,2.173
			c-0.603,0.875-1.025,1.818-1.271,2.829c-0.246,1.012-0.369,1.955-0.369,2.829v26.732H1959.005z"/>
		<path d="M2015.092,482.715c-3.171,0-6.067-0.766-8.691-2.296s-4.729-3.908-6.314-7.134c-1.586-3.225-2.378-7.352-2.378-12.382
			v-0.902c0-4.592,0.75-8.432,2.255-11.521c1.502-3.088,3.498-5.412,5.986-6.97c2.486-1.558,5.233-2.337,8.241-2.337
			c2.952,0,5.466,0.562,7.544,1.681c2.076,1.121,3.661,2.556,4.756,4.305v-22.304h9.512v59.04h-7.38l-1.148-5.658
			c-1.366,1.968-3.062,3.541-5.084,4.715S2017.934,482.715,2015.092,482.715z M2016.979,476.237c1.748,0,3.333-0.423,4.756-1.271
			c1.421-0.847,2.568-2.2,3.443-4.059c0.874-1.858,1.312-4.291,1.312-7.298v-5.822c0-2.678-0.424-4.906-1.271-6.683
			c-0.848-1.776-1.996-3.102-3.443-3.977c-1.449-0.874-3.049-1.312-4.797-1.312c-2.624,0-4.825,0.998-6.602,2.993
			c-1.777,1.996-2.665,4.989-2.665,8.979v5.74c0,3.007,0.41,5.44,1.23,7.298c0.819,1.859,1.927,3.226,3.32,4.1
			C2013.657,475.8,2015.228,476.237,2016.979,476.237z"/>
		<path d="M2059.043,482.715c-2.242,0-4.387-0.356-6.437-1.066c-2.051-0.71-3.731-1.927-5.043-3.649
			c-1.312-1.722-1.969-4.059-1.969-7.011c0-3.006,0.669-5.439,2.01-7.298c1.339-1.858,3.238-3.28,5.698-4.264
			c2.46-0.984,5.412-1.653,8.856-2.009c3.444-0.355,7.27-0.533,11.479-0.533v-3.936c0-2.733-0.696-4.66-2.091-5.781
			c-1.394-1.12-3.513-1.681-6.354-1.681c-2.352,0-4.429,0.521-6.232,1.558c-1.804,1.039-2.706,2.679-2.706,4.92v0.82h-9.184
			c-0.056-0.218-0.082-0.478-0.082-0.779c0-0.3,0-0.586,0-0.861c0-2.405,0.751-4.51,2.255-6.314
			c1.503-1.804,3.594-3.198,6.273-4.182c2.678-0.984,5.739-1.476,9.184-1.476h1.394c5.686,0,9.923,1.121,12.71,3.362
			c2.788,2.242,4.183,5.385,4.183,9.43v21.402c0,1.039,0.246,1.777,0.737,2.214c0.492,0.438,1.038,0.656,1.641,0.656
			c0.546,0,1.134-0.109,1.763-0.328c0.628-0.218,1.216-0.464,1.763-0.738v5.822c-0.711,0.547-1.612,0.97-2.705,1.271
			c-1.095,0.3-2.406,0.451-3.937,0.451c-1.804,0-3.294-0.328-4.469-0.984c-1.177-0.656-2.064-1.544-2.665-2.665
			c-0.603-1.12-0.957-2.391-1.066-3.813c-1.586,2.351-3.636,4.182-6.149,5.494C2065.384,482.059,2062.432,482.715,2059.043,482.715z
			 M2063.144,476.237c1.748,0,3.415-0.396,5.002-1.189c1.585-0.792,2.896-1.98,3.936-3.567c1.038-1.585,1.558-3.58,1.558-5.986
			v-3.198c-3.827,0-7.106,0.205-9.84,0.615c-2.734,0.41-4.811,1.162-6.231,2.255c-1.423,1.094-2.132,2.734-2.132,4.92
			c0,2.187,0.655,3.759,1.968,4.715C2058.715,475.759,2060.628,476.237,2063.144,476.237z"/>
		<path d="M2116.523,481.895v-56.252h10.168v23.452h22.713v-23.452h10.168v56.252h-10.086v-24.6h-22.713v24.6H2116.523z"/>
		<path d="M2189.422,482.715c-3.827,0-7.189-0.807-10.086-2.419c-2.898-1.612-5.153-3.977-6.766-7.093
			c-1.612-3.116-2.419-6.888-2.419-11.316v-1.886c0-4.428,0.861-8.2,2.583-11.316c1.723-3.116,4.072-5.48,7.053-7.093
			c2.979-1.612,6.382-2.419,10.209-2.419h1.065c3.553,0,6.669,0.726,9.349,2.173c2.678,1.449,4.756,3.513,6.231,6.191
			c1.477,2.679,2.214,5.822,2.214,9.43v5.166h-28.782c0,2.898,0.382,5.412,1.148,7.544c0.765,2.132,1.898,3.759,3.403,4.879
			c1.503,1.121,3.375,1.681,5.617,1.681c1.857,0,3.512-0.369,4.961-1.107c1.447-0.738,2.596-1.845,3.443-3.321
			c0.847-1.476,1.271-3.307,1.271-5.494h8.938c0,3.28-0.819,6.15-2.46,8.61c-1.64,2.46-3.854,4.375-6.642,5.74
			s-5.959,2.05-9.512,2.05H2189.422z M2180.155,456.885h19.353c0-3.826-0.834-6.655-2.501-8.487
			c-1.668-1.831-3.95-2.747-6.847-2.747c-2.734,0-5.043,0.943-6.93,2.829C2181.345,450.366,2180.319,453.168,2180.155,456.885z"/>
		<path d="M2230.175,482.715c-2.242,0-4.387-0.356-6.437-1.066s-3.731-1.927-5.043-3.649c-1.312-1.722-1.968-4.059-1.968-7.011
			c0-3.006,0.668-5.439,2.009-7.298c1.339-1.858,3.239-3.28,5.699-4.264c2.46-0.984,5.412-1.653,8.855-2.009
			c3.444-0.355,7.27-0.533,11.48-0.533v-3.936c0-2.733-0.697-4.66-2.092-5.781c-1.394-1.12-3.513-1.681-6.354-1.681
			c-2.352,0-4.428,0.521-6.232,1.558c-1.804,1.039-2.706,2.679-2.706,4.92v0.82h-9.184c-0.055-0.218-0.082-0.478-0.082-0.779
			c0-0.3,0-0.586,0-0.861c0-2.405,0.751-4.51,2.255-6.314c1.503-1.804,3.594-3.198,6.273-4.182c2.678-0.984,5.74-1.476,9.184-1.476
			h1.395c5.685,0,9.922,1.121,12.71,3.362c2.788,2.242,4.182,5.385,4.182,9.43v21.402c0,1.039,0.246,1.777,0.738,2.214
			c0.492,0.438,1.037,0.656,1.64,0.656c0.546,0,1.134-0.109,1.763-0.328c0.628-0.218,1.217-0.464,1.764-0.738v5.822
			c-0.711,0.547-1.613,0.97-2.706,1.271c-1.095,0.3-2.406,0.451-3.937,0.451c-1.804,0-3.294-0.328-4.469-0.984
			c-1.176-0.656-2.064-1.544-2.665-2.665c-0.603-1.12-0.957-2.391-1.065-3.813c-1.587,2.351-3.637,4.182-6.15,5.494
			C2236.516,482.059,2233.564,482.715,2230.175,482.715z M2234.275,476.237c1.749,0,3.416-0.396,5.002-1.189
			c1.585-0.792,2.896-1.98,3.936-3.567c1.038-1.585,1.559-3.58,1.559-5.986v-3.198c-3.827,0-7.107,0.205-9.84,0.615
			c-2.734,0.41-4.812,1.162-6.232,2.255c-1.422,1.094-2.132,2.734-2.132,4.92c0,2.187,0.656,3.759,1.968,4.715
			C2229.848,475.759,2231.76,476.237,2234.275,476.237z"/>
		<path d="M2284.213,482.715c-3.172,0-6.068-0.766-8.692-2.296s-4.729-3.908-6.314-7.134c-1.586-3.225-2.378-7.352-2.378-12.382
			v-0.902c0-4.592,0.751-8.432,2.255-11.521c1.503-3.088,3.498-5.412,5.986-6.97c2.487-1.558,5.234-2.337,8.241-2.337
			c2.952,0,5.466,0.562,7.544,1.681c2.077,1.121,3.662,2.556,4.756,4.305v-22.304h9.512v59.04h-7.38l-1.147-5.658
			c-1.367,1.968-3.062,3.541-5.084,4.715C2289.487,482.127,2287.055,482.715,2284.213,482.715z M2286.099,476.237
			c1.749,0,3.334-0.423,4.756-1.271c1.421-0.847,2.569-2.2,3.444-4.059c0.873-1.858,1.312-4.291,1.312-7.298v-5.822
			c0-2.678-0.424-4.906-1.271-6.683c-0.849-1.776-1.996-3.102-3.444-3.977c-1.449-0.874-3.048-1.312-4.797-1.312
			c-2.624,0-4.825,0.998-6.602,2.993c-1.776,1.996-2.665,4.989-2.665,8.979v5.74c0,3.007,0.41,5.44,1.23,7.298
			c0.82,1.859,1.927,3.226,3.321,4.1C2282.777,475.8,2284.349,476.237,2286.099,476.237z"/>
		<path d="M2335.297,496.737v-56.744h7.298l1.229,5.658c1.312-1.968,3.034-3.539,5.166-4.715c2.132-1.175,4.619-1.763,7.462-1.763
			c3.17,0,6.04,0.697,8.61,2.091c2.569,1.394,4.619,3.636,6.15,6.724c1.529,3.089,2.296,7.148,2.296,12.177v1.722
			c0,4.538-0.738,8.364-2.214,11.48c-1.477,3.116-3.458,5.453-5.945,7.011c-2.488,1.558-5.235,2.337-8.241,2.337
			c-2.952,0-5.453-0.561-7.503-1.681c-2.05-1.12-3.622-2.555-4.715-4.305v20.008H2335.297z M2354.32,476.073
			c1.749,0,3.321-0.451,4.715-1.353c1.395-0.902,2.487-2.241,3.28-4.018c0.792-1.776,1.189-3.977,1.189-6.601v-5.74
			c0-3.006-0.397-5.439-1.189-7.298c-0.793-1.858-1.886-3.225-3.28-4.1c-1.394-0.874-2.966-1.312-4.715-1.312
			c-1.695,0-3.267,0.424-4.715,1.271c-1.449,0.848-2.611,2.187-3.485,4.018c-0.875,1.832-1.312,4.278-1.312,7.339v5.822
			c0,2.679,0.423,4.907,1.271,6.683c0.848,1.777,1.995,3.103,3.444,3.977C2350.972,475.636,2352.57,476.073,2354.32,476.073z"/>
		<path d="M2394.745,482.715c-2.242,0-4.387-0.356-6.437-1.066s-3.731-1.927-5.043-3.649c-1.312-1.722-1.968-4.059-1.968-7.011
			c0-3.006,0.668-5.439,2.009-7.298c1.339-1.858,3.239-3.28,5.699-4.264c2.46-0.984,5.412-1.653,8.855-2.009
			c3.444-0.355,7.27-0.533,11.48-0.533v-3.936c0-2.733-0.697-4.66-2.092-5.781c-1.394-1.12-3.513-1.681-6.354-1.681
			c-2.352,0-4.428,0.521-6.232,1.558c-1.804,1.039-2.706,2.679-2.706,4.92v0.82h-9.184c-0.055-0.218-0.082-0.478-0.082-0.779
			c0-0.3,0-0.586,0-0.861c0-2.405,0.751-4.51,2.255-6.314c1.503-1.804,3.594-3.198,6.273-4.182c2.678-0.984,5.74-1.476,9.184-1.476
			h1.395c5.685,0,9.922,1.121,12.71,3.362c2.788,2.242,4.182,5.385,4.182,9.43v21.402c0,1.039,0.246,1.777,0.738,2.214
			c0.492,0.438,1.037,0.656,1.64,0.656c0.546,0,1.134-0.109,1.763-0.328c0.628-0.218,1.217-0.464,1.764-0.738v5.822
			c-0.711,0.547-1.613,0.97-2.706,1.271c-1.095,0.3-2.406,0.451-3.937,0.451c-1.804,0-3.294-0.328-4.469-0.984
			c-1.176-0.656-2.064-1.544-2.665-2.665c-0.603-1.12-0.957-2.391-1.065-3.813c-1.587,2.351-3.637,4.182-6.15,5.494
			C2401.086,482.059,2398.135,482.715,2394.745,482.715z M2398.846,476.237c1.749,0,3.416-0.396,5.002-1.189
			c1.585-0.792,2.896-1.98,3.936-3.567c1.038-1.585,1.559-3.58,1.559-5.986v-3.198c-3.827,0-7.107,0.205-9.84,0.615
			c-2.734,0.41-4.812,1.162-6.232,2.255c-1.422,1.094-2.132,2.734-2.132,4.92c0,2.187,0.656,3.759,1.968,4.715
			C2394.418,475.759,2396.33,476.237,2398.846,476.237z"/>
		<path d="M2433.203,481.895v-41.902h7.134l1.229,6.15c0.109-0.164,0.382-0.601,0.82-1.312c0.437-0.71,1.12-1.503,2.05-2.378
			c0.929-0.874,2.104-1.64,3.526-2.296c1.421-0.656,3.143-0.984,5.166-0.984c2.896,0,5.261,0.574,7.093,1.722
			c1.831,1.148,3.198,2.72,4.1,4.715c0.902,1.997,1.354,4.278,1.354,6.847c0,0.602-0.028,1.217-0.082,1.845
			c-0.055,0.629-0.11,1.162-0.164,1.599h-8.036v-1.64c0-1.148-0.219-2.323-0.656-3.526c-0.438-1.202-1.176-2.214-2.214-3.034
			c-1.039-0.82-2.488-1.23-4.346-1.23c-1.367,0-2.529,0.287-3.485,0.861c-0.957,0.574-1.735,1.299-2.337,2.173
			c-0.602,0.875-1.024,1.818-1.271,2.829c-0.246,1.012-0.369,1.955-0.369,2.829v26.732H2433.203z"/>
		<path d="M2486.83,482.715c-2.188,0-4.142-0.328-5.863-0.984c-1.723-0.656-3.062-1.735-4.019-3.239
			c-0.957-1.503-1.435-3.485-1.435-5.945v-25.256h-4.592v-7.298h4.838l3.362-13.366h5.903v13.366h9.758v7.298h-9.758v23.37
			c0,2.406,0.492,3.936,1.477,4.592c0.983,0.656,2.05,0.984,3.197,0.984c0.602,0,1.436-0.136,2.501-0.41
			c1.066-0.273,1.928-0.546,2.583-0.82v6.15c-0.655,0.328-1.448,0.615-2.378,0.861s-1.886,0.423-2.87,0.533
			C2488.552,482.66,2487.649,482.715,2486.83,482.715z"/>
		<path d="M2509.051,497.147c-1.258,0-2.419-0.096-3.485-0.287c-1.065-0.192-2.063-0.479-2.993-0.861v-7.298
			c0.602,0.273,1.395,0.505,2.379,0.697c0.983,0.191,1.939,0.287,2.869,0.287c1.421,0,2.61-0.274,3.567-0.82
			c0.956-0.547,1.804-1.449,2.542-2.706c0.738-1.258,1.462-2.898,2.173-4.92l-16.399-41.246h10.25l10.741,29.438h0.492
			l10.414-29.438h9.43l-15.497,40.016c-1.203,3.17-2.529,6.054-3.978,8.651c-1.449,2.596-3.171,4.66-5.166,6.191
			C2514.394,496.381,2511.947,497.147,2509.051,497.147z"/>
	</g>
</g>
</svg>
