<?xml version="1.0" encoding="iso-8859-1"?>
<!-- Generator: Adobe Illustrator 29.6.0, SVG Export Plug-In . SVG Version: 9.03 Build 0)  -->
<svg version="1.1" xmlns="http://www.w3.org/2000/svg" xmlns:xlink="http://www.w3.org/1999/xlink" x="0px" y="0px"
	 viewBox="0 0 4000 2774" style="enable-background:new 0 0 4000 2774;" xml:space="preserve">
<g id="Source." style="display:none;">
	
		<image style="display:inline;overflow:visible;" width="597" height="397" xlink:href="../../_Draft Images/hydra_managedhydrahead.png"  transform="matrix(8.6263 0 0 8.6263 -1283.2406 -325.3327)">
	</image>
</g>
<g id="Fill">
	<path d="M3608.776,1610.72h-407.606c-23.1,0-42-18.9-42-42v-407.605c0-23.1,18.9-42,42-42h407.606c23.1,0,42,18.9,42,42v407.605
		C3650.776,1591.82,3631.876,1610.72,3608.776,1610.72z"/>
	<path style="fill:#FFFFFF;stroke:#000000;stroke-width:6;stroke-miterlimit:10;" d="M3588.33,1593.882h-407.606
		c-23.1,0-42-18.9-42-42v-407.606c0-23.1,18.9-42,42-42h407.606c23.1,0,42,18.9,42,42v407.606
		C3630.33,1574.982,3611.43,1593.882,3588.33,1593.882z"/>
	<g>
		<g>
			<polyline style="fill:none;stroke:#999999;stroke-width:12;stroke-miterlimit:10;" points="3053.483,2403.643 3053.483,2443.643 
				3013.483,2443.643 			"/>
			
				<line style="fill:none;stroke:#999999;stroke-width:12;stroke-miterlimit:10;stroke-dasharray:78.8351,39.4175;" x1="2974.065" y1="2443.643" x2="746.974" y2="2443.643"/>
			<polyline style="fill:none;stroke:#999999;stroke-width:12;stroke-miterlimit:10;" points="727.266,2443.643 687.266,2443.643 
				687.266,2403.643 			"/>
			
				<line style="fill:none;stroke:#999999;stroke-width:12;stroke-miterlimit:10;stroke-dasharray:77.8521,38.9261;" x1="687.266" y1="2364.717" x2="687.266" y2="1333.176"/>
			<polyline style="fill:none;stroke:#999999;stroke-width:12;stroke-miterlimit:10;" points="687.266,1313.713 687.266,1273.713 
				727.266,1273.713 			"/>
			
				<line style="fill:none;stroke:#999999;stroke-width:12;stroke-miterlimit:10;stroke-dasharray:78.8351,39.4175;" x1="766.683" y1="1273.713" x2="2993.774" y2="1273.713"/>
			<polyline style="fill:none;stroke:#999999;stroke-width:12;stroke-miterlimit:10;" points="3013.483,1273.713 3053.483,1273.713 
				3053.483,1313.713 			"/>
			
				<line style="fill:none;stroke:#999999;stroke-width:12;stroke-miterlimit:10;stroke-dasharray:77.8521,38.9261;" x1="3053.483" y1="1352.639" x2="3053.483" y2="2384.18"/>
		</g>
	</g>
	<path d="M2865.667,2275.607h-407.606c-23.1,0-42-18.9-42-42v-407.605c0-23.1,18.9-42,42-42h407.606c23.1,0,42,18.9,42,42v407.605
		C2907.667,2256.707,2888.767,2275.607,2865.667,2275.607z"/>
	<path style="fill:#FFFFFF;stroke:#000000;stroke-width:6;stroke-miterlimit:10;" d="M2845.221,2258.77h-407.606
		c-23.1,0-42-18.9-42-42v-407.606c0-23.1,18.9-42,42-42h407.606c23.1,0,42,18.9,42,42v407.606
		C2887.221,2239.869,2868.321,2258.77,2845.221,2258.77z"/>
	
		<line style="fill:none;stroke:#000000;stroke-width:6;stroke-miterlimit:10;" x1="1654.375" y1="2649.861" x2="1800.152" y2="2304.973"/>
	<path d="M1983.891,2376.084h-407.606c-23.1,0-42-18.9-42-42v-407.605c0-23.1,18.9-42,42-42h407.606c23.1,0,42,18.9,42,42v407.605
		C2025.891,2357.184,2006.991,2376.084,1983.891,2376.084z"/>
	<path style="fill:#FFFFFF;stroke:#000000;stroke-width:6;stroke-miterlimit:10;" d="M1963.445,2359.246h-407.605
		c-23.1,0-42-18.9-42-42V1909.64c0-23.1,18.9-42,42-42h407.605c23.1,0,42,18.9,42,42v407.606
		C2005.445,2340.346,1986.545,2359.246,1963.445,2359.246z"/>
	
		<line style="fill:none;stroke:#FAC710;stroke-width:12;stroke-miterlimit:10;" x1="1220.598" y1="1632.053" x2="1640.152" y2="2026.719"/>
	
		<line style="fill:none;stroke:#000000;stroke-width:6;stroke-miterlimit:10;" x1="523.71" y1="1560.942" x2="772.599" y2="1571.609"/>
	<path style="fill:#FF5553;" d="M2697.183,1019.155c-24.335-34.745-59.779-60.413-99.955-73.039
		c1.503-14.225,1.627-28.635,0.281-42.978c-5.293-56.12-32.928-108.842-75.842-145.318c-15.788-10.201-31.562-20.408-47.344-30.602
		c-36.15-16.892-74.103-23.584-113.848-20.081c-18.323,4.195-36.639,8.384-54.963,12.566c-21.702,8.168-41.365,19.251-59.041,33.19
		c-6.149-6.894-12.755-13.409-19.826-19.428c-14.723-9.514-29.445-19.022-44.155-28.543
		c-33.719-15.748-69.104-21.982-106.176-18.716c-17.088,3.902-34.17,7.809-51.252,11.717
		c-33.045,12.423-61.066,32.033-84.075,58.793c-19.519-24.159-44.475-44.168-74.234-57.538
		c-24.773-11.129-51.088-20.231-77.821-24.969c-26.943-4.77-55.186-3.836-82.625-3.052c-18.193,4.163-36.399,8.326-54.604,12.488
		c-35.294,13.279-65.222,34.235-89.773,62.864c-31.268,36.79-49.141,83.676-51.049,131.66c-14.677-2.149-29.647-2.646-44.932-1.293
		c-15.821,3.613-31.648,7.234-47.462,10.848c-30.693,11.547-56.701,29.759-78.037,54.643
		c-32.556,38.306-48.487,89.173-43.769,139.215c4.568,48.461,28.426,93.995,65.497,125.499c5.933,3.842,11.873,7.685,17.813,11.52
		c-0.314,7.561-0.17,15.154,0.542,22.734c4.123,43.684,25.629,84.729,59.047,113.129c12.286,7.946,24.564,15.886,36.856,23.825
		c28.145,13.154,57.688,18.362,88.636,15.631l42.783-9.789c6.92-2.6,13.579-5.58,19.977-8.939
		c5.776,6.287,11.912,12.279,18.447,17.833c15.311,9.894,30.622,19.794,45.932,29.694c35.078,16.39,71.902,22.878,110.469,19.48
		c17.775-4.064,35.549-8.13,53.323-12.201c31.464-11.827,58.505-29.981,81.22-54.303c1.333,1.183,2.627,2.405,3.986,3.555
		c15.781,10.201,31.556,20.408,47.337,30.608c36.15,16.885,74.103,23.584,113.854,20.075c18.317-4.189,36.633-8.378,54.95-12.567
		c3.313-1.248,6.528-2.626,9.743-4.006c7.613,4.927,15.233,9.848,22.852,14.775c37.796,17.657,77.475,24.649,119.023,20.989
		c19.146-4.384,38.306-8.762,57.453-13.141c37.143-13.965,68.64-36.019,94.472-66.151c12.174-14.317,22.407-30.099,30.602-46.847
		c2.568,0.561,5.143,1.111,7.75,1.568c17.029,0.699,34.059,1.392,51.082,2.091c33.379-3.306,63.831-14.533,91.349-33.666
		l8.351-6.391c12.109-11.024,24.211-22.035,36.32-33.059c22.309-26.479,36.516-56.773,42.645-90.891
		C2737.803,1112.686,2726.263,1060.683,2697.183,1019.155z"/>
	<g id="Layer_2_00000171693655610200325860000007420507718178109880_">
		<g id="Layer_1-2">
			<path style="fill:#FFFFFF;" d="M1515.841,1079.576c-0.516,8.986,6.345,16.691,15.33,17.216h0.889
				c8.987-0.01,16.265-7.304,16.255-16.291s-7.304-16.265-16.291-16.255c-8.618,0.01-15.734,6.736-16.228,15.339L1515.841,1079.576z
				"/>
			<path style="fill:#FFFFFF;" d="M1455.16,1075.45c-2.898-0.162-5.379,2.056-5.541,4.953c-0.162,2.898,2.056,5.379,4.953,5.541
				c2.895,0.162,5.374-2.051,5.54-4.946c0.171-2.892-2.035-5.376-4.927-5.547C1455.177,1075.451,1455.169,1075.45,1455.16,1075.45z"
				/>
			<path style="fill:#FFFFFF;" d="M1514.81,985.131c2.586-1.328,3.606-4.501,2.278-7.088c-1.328-2.586-4.501-3.606-7.088-2.278
				c-2.566,1.318-3.594,4.456-2.304,7.036c1.306,2.603,4.475,3.654,7.078,2.348C1514.786,985.143,1514.798,985.137,1514.81,985.131z
				"/>
			<path style="fill:#FFFFFF;" d="M1531.323,1013.924c4.008-2.022,5.618-6.909,3.596-10.917c-2.022-4.008-6.909-5.618-10.917-3.596
				c-4.006,2.021-5.616,6.905-3.599,10.912c2.019,4.009,6.905,5.623,10.915,3.604
				C1531.319,1013.926,1531.321,1013.925,1531.323,1013.924z"/>
			<path style="fill:#FFFFFF;" d="M1475.755,1033.727c3.09,2.032,7.242,1.174,9.274-1.916s1.174-7.242-1.916-9.274
				c-3.09-2.032-7.242-1.174-9.274,1.916c-0.002,0.003-0.003,0.005-0.005,0.008
				C1471.809,1027.551,1472.668,1031.697,1475.755,1033.727z"/>
			<path style="fill:#FFFFFF;" d="M1485.652,1072.489c-4.482-0.253-8.32,3.175-8.573,7.657c-0.253,4.482,3.175,8.32,7.657,8.573
				c4.478,0.253,8.315-3.17,8.572-7.648C1493.561,1076.587,1490.135,1072.747,1485.652,1072.489z"/>
			<path style="fill:#FFFFFF;" d="M1476.644,1127.132c-3.3,1.668-4.624,5.696-2.956,8.996c1.668,3.301,5.696,4.624,8.996,2.956
				c3.298-1.667,4.623-5.691,2.958-8.991c-1.665-3.302-5.692-4.629-8.994-2.964
				C1476.648,1127.13,1476.646,1127.131,1476.644,1127.132z"/>
			<path style="fill:#FFFFFF;" d="M1508.239,1055.691c4.42,2.896,10.351,1.662,13.247-2.758c2.896-4.42,1.662-10.351-2.758-13.247
				c-4.419-2.896-10.349-1.662-13.246,2.756c-2.899,4.412-1.673,10.339,2.74,13.238
				C1508.227,1055.684,1508.233,1055.688,1508.239,1055.691z"/>
			<path style="fill:#FFFFFF;" d="M1608.473,1013.284c3.764,2.455,8.805,1.394,11.26-2.37c2.455-3.764,1.394-8.805-2.37-11.26
				c-3.761-2.453-8.799-1.396-11.256,2.363c-2.46,3.755-1.411,8.793,2.344,11.253
				C1608.458,1013.274,1608.466,1013.279,1608.473,1013.284z"/>
			<path style="fill:#FFFFFF;" d="M1625.155,984.579c2.432,1.594,5.695,0.915,7.289-1.517c1.594-2.432,0.915-5.695-1.517-7.289
				c-2.432-1.594-5.695-0.915-7.289,1.517c-0.001,0.002-0.002,0.004-0.004,0.006
				C1622.045,979.728,1622.725,982.987,1625.155,984.579z"/>
			<path style="fill:#FFFFFF;" d="M1609.753,1064.086c-8.975-0.516-16.669,6.342-17.184,15.317
				c-0.516,8.975,6.342,16.669,15.317,17.184l0,0c0.311,0,0.631,0,0.943,0c8.987-0.004,16.269-7.294,16.265-16.281
				c-0.002-3.996-1.474-7.851-4.136-10.832C1618.097,1066.248,1614.06,1064.307,1609.753,1064.086z"/>
			<path style="fill:#FFFFFF;" d="M1536.667,1054.562c2.756,5.505,8.392,8.974,14.548,8.954c8.992,0.002,16.283-7.286,16.286-16.278
				c0-2.556-0.601-5.077-1.755-7.358c-2.775-5.479-8.406-8.922-14.548-8.892c-8.992,0.015-16.269,7.317-16.254,16.31
				C1534.948,1049.82,1535.538,1052.307,1536.667,1054.562z"/>
			<path style="fill:#FFFFFF;" d="M1664.272,1033.709c3.302-1.666,4.627-5.693,2.961-8.995c-1.666-3.301-5.693-4.627-8.995-2.961
				c-3.298,1.664-4.625,5.685-2.966,8.986C1656.939,1034.043,1660.967,1035.372,1664.272,1033.709z"/>
			<path style="fill:#FFFFFF;" d="M1623.003,1038.894c-4.719,2.377-6.619,8.13-4.242,12.849c2.377,4.72,8.13,6.619,12.849,4.242
				s6.619-8.13,4.242-12.849c-2.37-4.717-8.116-6.62-12.834-4.25C1623.013,1038.888,1623.008,1038.891,1623.003,1038.894z"/>
			<path style="fill:#FFFFFF;" d="M1569.844,982.125c3.692,0.21,6.856-2.612,7.066-6.304c0.21-3.692-2.612-6.856-6.304-7.066
				c-3.692-0.21-6.855,2.612-7.066,6.304c0,0.002,0,0.004,0,0.005C1563.333,978.755,1566.155,981.915,1569.844,982.125z"/>
			<path style="fill:#FFFFFF;" d="M1569.773,1024.266c5.276,0.296,9.793-3.741,10.089-9.018c0.296-5.276-3.741-9.793-9.017-10.089
				c-5.271-0.296-9.785,3.734-10.088,9.005C1560.458,1019.443,1564.495,1023.965,1569.773,1024.266z"/>
			<path style="fill:#FFFFFF;" d="M1517.931,1121.939c4.719-2.379,6.615-8.133,4.236-12.851c-2.379-4.719-8.133-6.615-12.851-4.236
				c-4.719,2.379-6.615,8.133-4.236,12.851c0.001,0.001,0.001,0.002,0.002,0.003
				C1507.462,1122.423,1513.214,1124.317,1517.931,1121.939z"/>
			<path style="fill:#FFFFFF;" d="M1575.953,1038.227c-4.926,7.517-2.825,17.604,4.692,22.53c7.517,4.926,17.604,2.825,22.53-4.692
				s2.825-17.604-4.692-22.53c-2.645-1.733-5.737-2.658-8.898-2.662C1584.092,1030.869,1578.967,1033.634,1575.953,1038.227z"/>
			<path style="fill:#FFFFFF;" d="M1604.249,1106.28c-4.047-8.025-13.833-11.249-21.857-7.203s-11.25,13.833-7.203,21.857
				c2.766,5.486,8.386,8.946,14.53,8.946c2.547-0.017,5.055-0.626,7.327-1.778
				C1605.046,1124.052,1608.266,1114.296,1604.249,1106.28z"/>
			<path style="fill:#FFFFFF;" d="M1632.687,1105.141c-4.417-2.9-10.349-1.67-13.249,2.748c-2.9,4.417-1.67,10.349,2.748,13.25
				c4.417,2.9,10.349,1.67,13.249-2.748C1638.324,1113.972,1637.095,1108.047,1632.687,1105.141z"/>
			<path style="fill:#FFFFFF;" d="M1663.845,1080.697c0.253-4.482-3.175-8.32-7.657-8.573c-4.482-0.253-8.32,3.175-8.573,7.657
				c-0.253,4.478,3.17,8.315,7.648,8.572C1659.747,1088.606,1663.587,1085.179,1663.845,1080.697z"/>
			<path style="fill:#FFFFFF;" d="M1686.361,1074.908c-2.902-0.167-5.391,2.05-5.558,4.953c-0.167,2.903,2.051,5.391,4.953,5.558
				c2.903,0.167,5.391-2.05,5.558-4.953c0,0,0,0,0,0C1691.476,1077.565,1689.261,1075.079,1686.361,1074.908z"/>
			<path style="fill:#FFFFFF;" d="M1665.161,1127.105c-3.094-2.026-7.244-1.161-9.27,1.933c-2.026,3.094-1.161,7.244,1.933,9.27
				c3.092,2.025,7.24,1.162,9.267-1.928c2.029-3.092,1.167-7.243-1.925-9.272
				C1665.164,1127.108,1665.163,1127.107,1665.161,1127.105z"/>
			<path style="fill:#FFFFFF;" d="M1515.77,1176.253c-2.431-1.595-5.694-0.918-7.289,1.513c-1.595,2.431-0.918,5.694,1.513,7.289
				c2.43,1.594,5.692,0.918,7.288-1.511c1.596-2.43,0.921-5.694-1.509-7.29C1515.772,1176.254,1515.771,1176.254,1515.77,1176.253z"
				/>
			<path style="fill:#FFFFFF;" d="M1626.106,1175.702c-2.596,1.309-3.64,4.474-2.332,7.07c1.308,2.596,4.474,3.64,7.07,2.332
				c2.596-1.309,3.64-4.474,2.332-7.07c0,0-0.001-0.001-0.001-0.002c-1.303-2.594-4.462-3.64-7.055-2.337
				C1626.116,1175.697,1626.111,1175.7,1626.106,1175.702z"/>
			<path style="fill:#FFFFFF;" d="M1564.963,1122.579c4.926-7.517,2.825-17.604-4.692-22.53c-7.517-4.926-17.604-2.825-22.53,4.692
				c-4.926,7.517-2.825,17.604,4.692,22.53c2.647,1.734,5.742,2.66,8.907,2.662
				C1556.834,1129.952,1561.963,1127.183,1564.963,1122.579z"/>
			<path style="fill:#FFFFFF;" d="M1532.443,1147.558c-3.756-2.457-8.793-1.404-11.251,2.352s-1.404,8.793,2.352,11.251
				c3.754,2.456,8.787,1.406,11.247-2.345C1537.249,1155.058,1536.198,1150.02,1532.443,1147.558z"/>
			<path style="fill:#FFFFFF;" d="M1570.387,1178.708c-3.692-0.21-6.855,2.613-7.065,6.305c-0.21,3.692,2.613,6.855,6.305,7.065
				c3.691,0.21,6.853-2.61,7.065-6.301c0.212-3.692-2.609-6.857-6.301-7.069C1570.39,1178.708,1570.388,1178.708,1570.387,1178.708z
				"/>
			<path style="fill:#FFFFFF;" d="M1570.458,1136.576c-5.275-0.321-9.81,3.696-10.131,8.97c-0.321,5.275,3.696,9.81,8.97,10.131
				c5.275,0.321,9.81-3.695,10.131-8.97c0.001-0.013,0.001-0.025,0.002-0.038C1579.734,1141.406,1575.72,1136.891,1570.458,1136.576
				z"/>
			<path style="fill:#FFFFFF;" d="M1609.593,1146.909c-4.007,2.033-5.608,6.93-3.574,10.938s6.93,5.608,10.938,3.574
				s5.608-6.93,3.574-10.938c-0.003-0.006-0.006-0.012-0.009-0.017c-2.03-3.998-6.916-5.594-10.914-3.564
				C1609.603,1146.904,1609.598,1146.906,1609.593,1146.909z"/>
			<path style="fill:#FFFFFF;" d="M1789.165,1041.97c15.757,0,26.793,8.661,26.793,24.738h20.639
				c0-28.206-20.799-41.794-47.743-41.794c-33.097,0-52.323,17.971-52.323,55.951c0,38.922,19.225,55.942,52.323,55.942
				c27.264,0,47.743-13.232,47.743-41.447h-19.857c0,15.757-10.875,24.427-27.566,24.427c-21.911,0-32.012-12.138-32.012-37.348
				v-3.148C1757.179,1054.571,1767.414,1041.97,1789.165,1041.97z"/>
			<path style="fill:#FFFFFF;" d="M1891.169,1026.836l-42.078,108.113h20.808l8.661-23.485h49.45l8.892,23.485h21.751
				l-42.105-108.113H1891.169z M1884.864,1094.417l11.035-29.638c2.205-5.824,6.145-18.434,6.936-20.639h0.783
				c0.791,2.205,4.731,14.966,6.936,20.639l11.026,29.629L1884.864,1094.417z"/>
			<path style="fill:#FFFFFF;" d="M2071.176,1059.613c0-20.008-11.507-32.777-35.303-32.777h-57.053v108.113h20.177v-41.794h33.56
				l20.452,41.794h22.062l-23.12-44.915C2064.711,1084.991,2071.176,1074.276,2071.176,1059.613z M2034.291,1076.161h-35.294
				v-32.146h35.294c10.875,0,16.548,5.833,16.548,15.597C2050.839,1069.866,2044.695,1076.161,2034.291,1076.161z"/>
			<path style="fill:#FFFFFF;" d="M2141.941,1026.836h-43.199v108.113h43.181c32.617,0,52.465-17.02,52.465-54.057
				C2194.388,1043.856,2174.558,1026.836,2141.941,1026.836z M2173.776,1082.466c-0.16,23.645-11.347,35.302-31.834,35.302h-23.004
				v-73.753h23.004c20.452,0,31.834,11.667,31.834,35.303V1082.466z"/>
			<path style="fill:#FFFFFF;" d="M2247.244,1026.836l-42.096,108.113h20.799l8.67-23.485h49.486l8.821,23.485h21.751
				l-42.079-108.113H2247.244z M2240.939,1094.417l11.018-29.638c2.205-5.824,6.145-18.434,6.936-20.639h0.8
				c0.783,2.205,4.731,14.966,6.936,20.639l11.027,29.629L2240.939,1094.417z"/>
			<path style="fill:#FFFFFF;" d="M2406.897,1091.136c0,2.045,0.311,7.558,0.311,8.51l-0.782,0.311
				c-0.471-0.622-3.628-6.145-5.335-8.661l-46.96-64.46h-19.252v108.113h19.385v-64.772c0-2.668-0.32-7.879-0.32-8.67l0.792-0.471
				c0.471,0.631,2.837,5.202,5.335,8.83l47.281,65.083h18.905v-108.113h-19.376v64.3H2406.897z"/>
			<path style="fill:#FFFFFF;" d="M2506.615,1024.951c-33.88,0-54.368,17.962-54.368,55.942s20.452,55.942,54.368,55.942
				c33.916,0,54.528-17.963,54.528-55.942S2540.495,1024.951,2506.615,1024.951z M2540.495,1082.626
				c0,24.739-11.818,37.188-33.88,37.188c-21.902,0-33.72-12.449-33.72-37.188v-3.308c0-24.747,11.978-37.348,33.72-37.348
				c21.911,0,33.88,12.6,33.88,37.348V1082.626z"/>
		</g>
	</g>
	
		<line style="fill:none;stroke:#FF5553;stroke-width:12;stroke-miterlimit:10;" x1="3268.594" y1="1294.276" x2="2578.817" y2="1002.721"/>
	
		<line style="fill:none;stroke:#5181F6;stroke-width:12;stroke-miterlimit:10;" x1="3257.927" y1="1386.72" x2="2695.295" y2="1891.674"/>
	
		<line style="fill:none;stroke:#5181F6;stroke-width:12;stroke-miterlimit:10;" x1="1906.819" y1="2133.385" x2="2546.817" y2="2072.941"/>
	<path d="M1230.114,1834.719H822.509c-23.1,0-42-18.9-42-42v-407.605c0-23.1,18.9-42,42-42h407.605c23.1,0,42,18.9,42,42v407.605
		C1272.114,1815.819,1253.214,1834.719,1230.114,1834.719z"/>
	<path style="fill:#FFFFFF;stroke:#000000;stroke-width:6;stroke-miterlimit:10;" d="M1209.668,1817.881H802.063
		c-23.1,0-42-18.9-42-42v-407.605c0-23.1,18.9-42,42-42h407.606c23.1,0,42,18.9,42,42v407.605
		C1251.668,1798.981,1232.768,1817.881,1209.668,1817.881z"/>
	
		<line style="fill:none;stroke:#FF5553;stroke-width:12;stroke-miterlimit:10;" x1="907.71" y1="1386.72" x2="1348.598" y2="1031.165"/>
	
		<line style="fill:none;stroke:#5181F6;stroke-width:12;stroke-miterlimit:10;" x1="1110.376" y1="1472.053" x2="2523.649" y2="1920.978"/>
	
		<line style="fill:none;stroke:#5181F6;stroke-width:12;stroke-miterlimit:10;" x1="1107.537" y1="1604.995" x2="1615.515" y2="2088.783"/>
	
		<rect x="231.655" y="1467.078" style="fill:#E6E6E6;stroke:#000000;stroke-width:6;stroke-miterlimit:10;" width="320" height="175"/>
	<g>
		<path d="M349.936,1598.74l33.962-89.607h18.81l33.832,89.607h-16.981l-7.446-19.463h-38.926l-7.445,19.463H349.936z
			 M377.366,1567.39h30.435l-14.891-40.624h-0.522L377.366,1567.39z"/>
	</g>
	
		<rect x="1493.875" y="2540.996" style="fill:#E6E6E6;stroke:#000000;stroke-width:6;stroke-miterlimit:10;" width="320" height="175"/>
	<g>
		<path d="M1623.91,2673.658v-89.607h42.061c4.615,0,8.664,0.894,12.148,2.678c3.482,1.786,6.182,4.268,8.099,7.445
			c1.915,3.18,2.874,6.858,2.874,11.038c0,4.441-0.784,8.121-2.351,11.037c-1.567,2.919-3.527,5.205-5.878,6.858
			c-2.351,1.655-4.748,2.873-7.185,3.657v0.783c1.653,0.262,3.482,0.807,5.486,1.633c2.002,0.829,3.919,2.005,5.748,3.527
			c1.829,1.524,3.331,3.483,4.506,5.878c1.176,2.396,1.764,5.378,1.764,8.947c0,5.052-1.11,9.536-3.331,13.454
			c-2.221,3.919-5.27,7.012-9.144,9.274c-3.876,2.266-8.382,3.396-13.52,3.396H1623.91z M1639.585,2621.931h21.03
			c2.612,0,4.876-0.631,6.792-1.895c1.914-1.261,3.396-2.916,4.441-4.963c1.045-2.046,1.567-4.289,1.567-6.728
			c0-3.919-0.979-6.9-2.939-8.947c-1.959-2.046-4.812-3.07-8.556-3.07h-22.336V2621.931z M1639.585,2661.38h22.467
			c2.612,0,4.898-0.631,6.857-1.895c1.959-1.261,3.504-2.959,4.637-5.094c1.131-2.133,1.698-4.462,1.698-6.988
			c0-2.698-0.588-5.029-1.764-6.988c-1.175-1.96-2.766-3.482-4.768-4.572c-2.004-1.088-4.225-1.633-6.662-1.633h-22.467V2661.38z"/>
	</g>
	
		<line style="fill:none;stroke:#000000;stroke-width:6;stroke-miterlimit:10;" x1="3056.981" y1="2566.31" x2="2667.706" y2="2264.941"/>
	
		<rect x="2935.65" y="2540.996" style="fill:#E6E6E6;stroke:#000000;stroke-width:6;stroke-miterlimit:10;" width="320" height="175"/>
	<g>
		<path d="M3097.884,2674.966c-5.139,0-9.949-0.741-14.434-2.221c-4.486-1.48-8.405-3.874-11.756-7.185
			c-3.354-3.309-5.988-7.642-7.903-12.997c-1.916-5.355-2.873-11.907-2.873-19.659v-8.099c0-7.575,0.957-14.041,2.873-19.397
			c1.915-5.355,4.55-9.709,7.903-13.062c3.351-3.352,7.227-5.791,11.625-7.315c4.396-1.522,9.121-2.286,14.173-2.286h1.959
			c4.703,0,9.164,0.653,13.39,1.96c4.223,1.306,7.945,3.376,11.168,6.204c3.221,2.831,5.768,6.531,7.642,11.104
			c1.871,4.571,2.808,10.123,2.808,16.654h-15.282c0-6.183-0.895-10.95-2.678-14.304c-1.786-3.351-4.245-5.702-7.381-7.054
			c-3.135-1.349-6.706-2.024-10.711-2.024c-2.961,0-5.704,0.437-8.229,1.307c-2.527,0.871-4.703,2.309-6.531,4.311
			c-1.829,2.004-3.245,4.682-4.246,8.033c-1.002,3.354-1.502,7.511-1.502,12.475v14.891c0,6.619,0.87,11.821,2.612,15.609
			c1.741,3.788,4.158,6.488,7.25,8.099c3.09,1.612,6.64,2.417,10.646,2.417c4.266,0,7.988-0.674,11.169-2.024
			c3.178-1.35,5.659-3.701,7.445-7.054c1.783-3.352,2.678-8.076,2.678-14.173h14.76c0,6.27-0.914,11.67-2.742,16.197
			c-1.829,4.529-4.333,8.229-7.512,11.103c-3.18,2.874-6.857,5.009-11.037,6.4c-4.18,1.393-8.621,2.091-13.323,2.091H3097.884z"/>
	</g>
	
		<line style="fill:none;stroke:#8FD14F;stroke-width:12;stroke-miterlimit:10;" x1="1099.652" y1="1526.312" x2="2544.982" y2="1972.651"/>
	<circle style="fill:#5181F6;stroke:#000000;stroke-width:6;stroke-miterlimit:10;" cx="945.357" cy="1510.228" r="157.124"/>
	<circle style="fill:#8FD14F;stroke:#000000;stroke-width:6;stroke-miterlimit:10;" cx="1007.233" cy="1572.104" r="157.124"/>
	<circle style="fill:#FAC710;stroke:#000000;stroke-width:6;stroke-miterlimit:10;" cx="1069.109" cy="1633.979" r="157.124"/>
	<circle style="fill:#5181F6;stroke:#000000;stroke-width:6;stroke-miterlimit:10;" cx="1781.002" cy="2131.221" r="157.124"/>
	<circle style="fill:#FAC710;stroke:#000000;stroke-width:6;stroke-miterlimit:10;" cx="1738.281" cy="2095.665" r="157.124"/>
	<circle style="fill:#5181F6;stroke:#000000;stroke-width:6;stroke-miterlimit:10;" cx="2662.778" cy="2030.745" r="157.124"/>
	<circle style="fill:#8FD14F;stroke:#000000;stroke-width:6;stroke-miterlimit:10;" cx="2620.058" cy="1995.189" r="157.124"/>
	<circle style="fill:#5181F6;stroke:#000000;stroke-width:6;stroke-miterlimit:10;" cx="3384.528" cy="1348.079" r="157.124"/>
	
		<line style="fill:none;stroke:#FF5553;stroke-width:12;stroke-miterlimit:10;" x1="2600.151" y1="1888.053" x2="2312.151" y2="1390.276"/>
	
		<line style="fill:none;stroke:#FF5553;stroke-width:12;stroke-miterlimit:10;" x1="1803.708" y1="1952.052" x2="1846.374" y2="1386.72"/>
	
		<rect x="3448.345" y="1086.634" style="fill:#E6E6E6;stroke:#000000;stroke-width:6;stroke-miterlimit:10;" width="320" height="175"/>
	<g>
		<path d="M3576.487,1219.297v-89.607h33.831c5.137,0,9.905,0.764,14.304,2.286c4.396,1.524,8.294,3.898,11.69,7.119
			c3.396,3.223,6.029,7.359,7.902,12.409c1.872,5.051,2.809,11.147,2.809,18.287v6.792c0,7.054-0.937,13.238-2.809,18.549
			c-1.873,5.312-4.506,9.776-7.902,13.389c-3.396,3.614-7.295,6.314-11.69,8.099c-4.398,1.786-9.167,2.678-14.304,2.678H3576.487z
			 M3592.685,1206.757h16.458c3.919,0,7.466-0.892,10.646-2.678c3.179-1.783,5.683-4.614,7.512-8.49
			c1.828-3.874,2.742-8.99,2.742-15.349v-13.062c0-6.271-0.914-11.212-2.742-14.826c-1.829-3.612-4.333-6.204-7.512-7.772
			c-3.18-1.567-6.727-2.351-10.646-2.351h-16.458V1206.757z"/>
	</g>
</g>
<g id="Type">
	<path d="M2241.729,570.977h-114c-9.9,0-18-8.1-18-18v-114c0-9.9,8.1-18,18-18h114c9.9,0,18,8.1,18,18v114
		C2259.729,562.877,2251.629,570.977,2241.729,570.977z"/>
	<g>
		<path d="M580.699,280.305V88.225h56l54.04,141.4h0.84l54.04-141.4h56.28v192.08h-34.44v-152.04h-1.4l-57.68,152.04h-37.8
			l-57.4-152.04h-1.4v152.04H580.699z"/>
		<path d="M882.819,283.105c-7.656,0-14.98-1.216-21.98-3.64s-12.74-6.58-17.22-12.46c-4.48-5.88-6.72-13.86-6.72-23.94
			c0-10.264,2.284-18.572,6.86-24.92c4.572-6.344,11.06-11.2,19.46-14.56c8.4-3.36,18.48-5.644,30.24-6.86
			c11.76-1.212,24.824-1.82,39.2-1.82v-13.44c0-9.332-2.38-15.912-7.14-19.74c-4.76-3.824-11.997-5.74-21.7-5.74
			c-8.028,0-15.12,1.776-21.28,5.32c-6.16,3.548-9.24,9.148-9.24,16.8v2.8h-31.36c-0.188-0.744-0.28-1.632-0.28-2.66
			c0-1.024,0-2.004,0-2.94c0-8.212,2.564-15.4,7.7-21.56c5.132-6.16,12.272-10.92,21.42-14.28c9.144-3.36,19.6-5.04,31.36-5.04h4.76
			c19.412,0,33.88,3.828,43.4,11.48c9.52,7.656,14.28,18.388,14.28,32.2v73.08c0,3.548,0.84,6.068,2.52,7.56
			c1.68,1.496,3.543,2.24,5.6,2.24c1.864,0,3.872-0.372,6.02-1.12c2.144-0.744,4.152-1.584,6.02-2.52v19.88
			c-2.428,1.868-5.508,3.312-9.24,4.34c-3.736,1.024-8.216,1.54-13.44,1.54c-6.16,0-11.249-1.12-15.26-3.36
			c-4.016-2.24-7.048-5.272-9.1-9.1c-2.056-3.824-3.268-8.164-3.64-13.02c-5.417,8.028-12.417,14.28-21,18.76
			C904.471,280.865,894.391,283.105,882.819,283.105z M896.819,260.986c5.972,0,11.664-1.352,17.08-4.06
			c5.412-2.704,9.892-6.764,13.44-12.18c3.544-5.412,5.32-12.224,5.32-20.44v-10.92c-13.068,0-24.268,0.7-33.6,2.1
			c-9.336,1.4-16.428,3.968-21.28,7.7c-4.856,3.736-7.28,9.336-7.28,16.8c0,7.468,2.24,12.836,6.72,16.1
			C881.699,259.354,888.231,260.986,896.819,260.986z"/>
		<path d="M1014.137,280.305v-143.08h23.8l4.2,21c5.412-7.84,12.132-13.764,20.16-17.78c8.024-4.012,16.984-6.02,26.88-6.02
			c9.892,0,18.572,1.868,26.04,5.6c7.464,3.736,13.3,9.196,17.5,16.38c4.2,7.188,6.3,16.008,6.3,26.46v97.44h-32.48v-91.56
			c0-10.64-2.477-18.244-7.42-22.82c-4.948-4.572-11.808-6.86-20.58-6.86c-5.788,0-11.108,1.448-15.96,4.34
			c-4.856,2.896-8.729,6.768-11.62,11.62c-2.896,4.856-4.34,10.36-4.34,16.52v88.76H1014.137z"/>
		<path d="M1218.255,283.105c-7.656,0-14.98-1.216-21.98-3.64s-12.74-6.58-17.22-12.46c-4.48-5.88-6.72-13.86-6.72-23.94
			c0-10.264,2.284-18.572,6.86-24.92c4.572-6.344,11.06-11.2,19.46-14.56c8.4-3.36,18.48-5.644,30.24-6.86
			c11.76-1.212,24.824-1.82,39.2-1.82v-13.44c0-9.332-2.38-15.912-7.14-19.74c-4.76-3.824-11.997-5.74-21.7-5.74
			c-8.028,0-15.12,1.776-21.28,5.32c-6.16,3.548-9.24,9.148-9.24,16.8v2.8h-31.36c-0.188-0.744-0.28-1.632-0.28-2.66
			c0-1.024,0-2.004,0-2.94c0-8.212,2.564-15.4,7.7-21.56c5.132-6.16,12.272-10.92,21.42-14.28c9.144-3.36,19.6-5.04,31.36-5.04h4.76
			c19.412,0,33.88,3.828,43.4,11.48c9.52,7.656,14.28,18.388,14.28,32.2v73.08c0,3.548,0.84,6.068,2.52,7.56
			c1.68,1.496,3.543,2.24,5.6,2.24c1.864,0,3.872-0.372,6.02-1.12c2.144-0.744,4.152-1.584,6.02-2.52v19.88
			c-2.428,1.868-5.508,3.312-9.24,4.34c-3.736,1.024-8.216,1.54-13.44,1.54c-6.16,0-11.249-1.12-15.26-3.36
			c-4.016-2.24-7.048-5.272-9.1-9.1c-2.056-3.824-3.268-8.164-3.64-13.02c-5.417,8.028-12.417,14.28-21,18.76
			C1239.907,280.865,1229.827,283.105,1218.255,283.105z M1232.255,260.986c5.972,0,11.664-1.352,17.08-4.06
			c5.412-2.704,9.892-6.764,13.44-12.18c3.544-5.412,5.32-12.224,5.32-20.44v-10.92c-13.068,0-24.268,0.7-33.6,2.1
			c-9.336,1.4-16.428,3.968-21.28,7.7c-4.856,3.736-7.28,9.336-7.28,16.8c0,7.468,2.24,12.836,6.72,16.1
			C1217.135,259.354,1223.667,260.986,1232.255,260.986z"/>
		<path d="M1373.372,332.946c-6.536,0-12.46-1.54-17.78-4.62c-5.32-3.08-9.568-7.236-12.74-12.46
			c-3.176-5.228-4.76-11.016-4.76-17.36c0-6.72,1.863-13.068,5.6-19.04c3.732-5.972,8.864-10.452,15.4-13.44
			c-4.108-2.612-7.328-5.972-9.66-10.08c-2.336-4.104-3.5-8.492-3.5-13.16c0-6.904,2.144-12.74,6.44-17.5
			c4.292-4.76,9.892-8.352,16.8-10.78c-5.788-3.732-10.456-8.212-14-13.44c-3.548-5.224-5.32-11.572-5.32-19.04
			c0-8.024,2.144-15.68,6.44-22.96c4.292-7.28,10.78-13.204,19.46-17.78c8.68-4.572,19.644-6.86,32.9-6.86
			c5.784,0,11.152,0.328,16.1,0.98c4.944,0.656,9.284,1.728,13.02,3.22c7.28-3.36,12.784-7.42,16.52-12.18
			c3.732-4.76,5.784-9.752,6.16-14.98h26.04c0,6.16-1.168,11.76-3.5,16.8c-2.336,5.04-5.696,9.24-10.08,12.6
			c-4.388,3.36-9.568,5.696-15.54,7l-0.28,0.84c4.292,3.736,7.744,8.12,10.36,13.16c2.612,5.04,3.92,10.64,3.92,16.8
			c0,8.216-2.196,15.776-6.58,22.68c-4.388,6.908-10.688,12.46-18.9,16.66c-8.216,4.2-18.108,6.3-29.68,6.3h-21.56
			c-5.788,0-10.36,1.308-13.72,3.92c-3.36,2.616-5.04,6.068-5.04,10.36c0,4.108,1.583,7.468,4.76,10.08
			c3.172,2.616,7.84,3.92,14,3.92h52.08c12.32,0,22.024,3.736,29.12,11.2c7.092,7.468,10.64,16.612,10.64,27.44
			c0,7.652-1.82,14.652-5.46,21c-3.64,6.344-8.776,11.384-15.4,15.12c-6.628,3.732-14.328,5.6-23.1,5.6H1373.372z M1385.132,311.946
			h51.24c5.412,0,10.08-1.82,14-5.46c3.92-3.64,5.88-8.077,5.88-13.3c0-4.48-1.636-8.356-4.9-11.62
			c-3.268-3.264-7.328-4.9-12.18-4.9h-54.04c-5.228,0-9.616,1.728-13.16,5.18c-3.548,3.452-5.32,7.604-5.32,12.46
			c0,4.664,1.772,8.772,5.32,12.32C1375.516,310.169,1379.904,311.946,1385.132,311.946z M1410.612,205.265
			c9.332,0,16.66-2.52,21.98-7.56c5.32-5.04,7.98-11.104,7.98-18.2c0-7.092-2.66-13.204-7.98-18.34
			c-5.32-5.132-12.648-7.7-21.98-7.7c-9.336,0-16.66,2.568-21.98,7.7c-5.32,5.136-7.98,11.248-7.98,18.34
			c0,7.096,2.66,13.16,7.98,18.2C1393.952,202.745,1401.276,205.265,1410.612,205.265z"/>
		<path d="M1570.769,283.105c-13.068,0-24.548-2.756-34.44-8.26c-9.896-5.504-17.596-13.58-23.1-24.22
			c-5.508-10.64-8.26-23.52-8.26-38.64v-6.44c0-15.12,2.94-28,8.82-38.64s13.904-18.712,24.08-24.22
			c10.172-5.503,21.792-8.26,34.86-8.26h3.64c12.132,0,22.771,2.476,31.92,7.42c9.144,4.948,16.24,11.996,21.28,21.14
			c5.04,9.148,7.56,19.88,7.56,32.2v17.64h-98.28c0,9.896,1.304,18.48,3.92,25.76c2.612,7.28,6.484,12.836,11.62,16.66
			c5.132,3.828,11.523,5.74,19.18,5.74c6.344,0,11.992-1.26,16.94-3.78c4.944-2.52,8.864-6.3,11.76-11.34
			c2.892-5.04,4.34-11.292,4.34-18.76h30.52c0,11.2-2.8,21-8.4,29.4c-5.6,8.4-13.16,14.936-22.68,19.6c-9.52,4.664-20.348,7-32.48,7
			H1570.769z M1539.128,194.906h66.08c0-13.064-2.848-22.724-8.54-28.98c-5.696-6.252-13.488-9.38-23.38-9.38
			c-9.336,0-17.22,3.22-23.66,9.66S1539.688,182.214,1539.128,194.906z"/>
		<path d="M1725.885,283.105c-10.828,0-20.72-2.616-29.68-7.84c-8.96-5.224-16.148-13.344-21.56-24.36
			c-5.417-11.012-8.12-25.104-8.12-42.28v-3.08c0-15.68,2.563-28.792,7.7-39.34c5.132-10.543,11.944-18.48,20.44-23.8
			c8.492-5.32,17.872-7.98,28.14-7.98c10.08,0,18.664,1.916,25.76,5.74c7.092,3.828,12.503,8.728,16.24,14.7v-76.16h32.48v201.6
			h-25.2l-3.92-19.32c-4.668,6.72-10.457,12.088-17.36,16.1C1743.897,281.097,1735.589,283.105,1725.885,283.105z M1732.325,260.986
			c5.972,0,11.384-1.444,16.24-4.34c4.852-2.892,8.772-7.512,11.76-13.86c2.984-6.344,4.48-14.652,4.48-24.92v-19.88
			c0-9.144-1.448-16.752-4.34-22.82c-2.896-6.063-6.816-10.592-11.76-13.58c-4.948-2.983-10.408-4.48-16.38-4.48
			c-8.96,0-16.476,3.408-22.54,10.22c-6.068,6.816-9.1,17.036-9.1,30.66v19.6c0,10.269,1.4,18.577,4.2,24.92
			c2.8,6.348,6.58,11.016,11.34,14C1720.985,259.493,1726.349,260.986,1732.325,260.986z"/>
		<path d="M1903.68,280.305V88.225h34.72v80.08h77.56v-80.08h34.72v192.08h-34.439v-84h-77.561v84H1903.68z"/>
		<path d="M2107.521,332.385c-4.297,0-8.261-0.328-11.9-0.98c-3.64-0.656-7.048-1.636-10.22-2.94v-24.92
			c2.052,0.932,4.76,1.724,8.12,2.38c3.359,0.652,6.623,0.98,9.8,0.98c4.852,0,8.912-0.937,12.18-2.8
			c3.264-1.868,6.16-4.948,8.681-9.24c2.52-4.296,4.991-9.896,7.42-16.8l-56-140.84h35l36.68,100.52h1.68l35.561-100.52h32.199
			l-52.92,136.64c-4.107,10.824-8.636,20.672-13.58,29.54c-4.947,8.864-10.828,15.912-17.64,21.14
			C2125.765,329.769,2117.413,332.385,2107.521,332.385z"/>
		<path d="M2293.721,283.105c-10.828,0-20.72-2.616-29.68-7.84s-16.148-13.344-21.56-24.36c-5.417-11.012-8.12-25.104-8.12-42.28
			v-3.08c0-15.68,2.563-28.792,7.699-39.34c5.133-10.543,11.944-18.48,20.44-23.8c8.491-5.32,17.872-7.98,28.14-7.98
			c10.08,0,18.664,1.916,25.76,5.74c7.092,3.828,12.504,8.728,16.24,14.7v-76.16h32.48v201.6h-25.2l-3.92-19.32
			c-4.668,6.72-10.456,12.088-17.36,16.1C2311.732,281.097,2303.425,283.105,2293.721,283.105z M2300.161,260.986
			c5.972,0,11.384-1.444,16.239-4.34c4.853-2.892,8.772-7.512,11.761-13.86c2.983-6.344,4.479-14.652,4.479-24.92v-19.88
			c0-9.144-1.448-16.752-4.34-22.82c-2.896-6.063-6.816-10.592-11.76-13.58c-4.948-2.983-10.408-4.48-16.38-4.48
			c-8.96,0-16.477,3.408-22.54,10.22c-6.068,6.816-9.1,17.036-9.1,30.66v19.6c0,10.269,1.399,18.577,4.199,24.92
			c2.8,6.348,6.58,11.016,11.34,14C2288.82,259.493,2294.185,260.986,2300.161,260.986z"/>
		<path d="M2406.558,280.305v-143.08h24.36l4.2,21c0.372-0.56,1.304-2.052,2.8-4.48c1.492-2.424,3.823-5.132,7-8.12
			c3.172-2.983,7.184-5.6,12.04-7.84c4.852-2.24,10.731-3.36,17.64-3.36c9.893,0,17.964,1.96,24.221,5.88
			c6.251,3.92,10.92,9.288,14,16.1c3.079,6.816,4.619,14.608,4.619,23.38c0,2.056-0.096,4.156-0.279,6.3
			c-0.188,2.148-0.377,3.968-0.561,5.46h-27.439v-5.6c0-3.92-0.748-7.932-2.24-12.04c-1.496-4.104-4.017-7.56-7.561-10.36
			c-3.548-2.8-8.496-4.2-14.84-4.2c-4.668,0-8.636,0.98-11.899,2.94c-3.269,1.96-5.929,4.436-7.98,7.42
			c-2.056,2.988-3.5,6.208-4.34,9.66c-0.84,3.456-1.26,6.676-1.26,9.66v91.28H2406.558z"/>
		<path d="M2582.114,283.105c-7.656,0-14.979-1.216-21.979-3.64s-12.74-6.58-17.221-12.46c-4.479-5.88-6.72-13.86-6.72-23.94
			c0-10.264,2.284-18.572,6.86-24.92c4.571-6.344,11.06-11.2,19.46-14.56c8.399-3.36,18.479-5.644,30.239-6.86
			c11.761-1.212,24.824-1.82,39.2-1.82v-13.44c0-9.332-2.38-15.912-7.14-19.74c-4.76-3.824-11.996-5.74-21.7-5.74
			c-8.028,0-15.12,1.776-21.28,5.32c-6.16,3.548-9.239,9.148-9.239,16.8v2.8h-31.36c-0.188-0.744-0.28-1.632-0.28-2.66
			c0-1.024,0-2.004,0-2.94c0-8.212,2.563-15.4,7.7-21.56c5.132-6.16,12.271-10.92,21.42-14.28c9.144-3.36,19.6-5.04,31.36-5.04h4.76
			c19.412,0,33.88,3.828,43.4,11.48c9.52,7.656,14.279,18.388,14.279,32.2v73.08c0,3.548,0.84,6.068,2.521,7.56
			c1.68,1.496,3.544,2.24,5.6,2.24c1.864,0,3.872-0.372,6.021-1.12c2.144-0.744,4.151-1.584,6.02-2.52v19.88
			c-2.428,1.868-5.508,3.312-9.24,4.34c-3.736,1.024-8.216,1.54-13.439,1.54c-6.16,0-11.248-1.12-15.26-3.36
			c-4.017-2.24-7.049-5.272-9.101-9.1c-2.056-3.824-3.268-8.164-3.64-13.02c-5.416,8.028-12.416,14.28-21,18.76
			C2603.767,280.865,2593.687,283.105,2582.114,283.105z M2596.114,260.986c5.972,0,11.664-1.352,17.08-4.06
			c5.412-2.704,9.892-6.764,13.44-12.18c3.543-5.412,5.319-12.224,5.319-20.44v-10.92c-13.068,0-24.268,0.7-33.6,2.1
			c-9.337,1.4-16.429,3.968-21.28,7.7c-4.856,3.736-7.28,9.336-7.28,16.8c0,7.468,2.24,12.836,6.721,16.1
			C2580.994,259.354,2587.526,260.986,2596.114,260.986z"/>
		<path d="M2778.39,280.305V88.225h34.72v80.08h77.561v-80.08h34.72v192.08h-34.439v-84h-77.561v84H2778.39z"/>
		<path d="M3027.311,283.105c-13.068,0-24.548-2.756-34.44-8.26c-9.896-5.504-17.596-13.58-23.1-24.22
			c-5.508-10.64-8.26-23.52-8.26-38.64v-6.44c0-15.12,2.939-28,8.819-38.64c5.881-10.64,13.904-18.712,24.08-24.22
			c10.172-5.503,21.792-8.26,34.86-8.26h3.64c12.132,0,22.772,2.476,31.92,7.42c9.145,4.948,16.24,11.996,21.28,21.14
			c5.04,9.148,7.561,19.88,7.561,32.2v17.64h-98.28c0,9.896,1.304,18.48,3.92,25.76c2.611,7.28,6.483,12.836,11.62,16.66
			c5.132,3.828,11.523,5.74,19.18,5.74c6.344,0,11.992-1.26,16.94-3.78c4.943-2.52,8.863-6.3,11.76-11.34
			c2.892-5.04,4.34-11.292,4.34-18.76h30.521c0,11.2-2.801,21-8.4,29.4c-5.6,8.4-13.16,14.936-22.68,19.6
			c-9.521,4.664-20.349,7-32.48,7H3027.311z M2995.671,194.906h66.079c0-13.064-2.848-22.724-8.539-28.98
			c-5.696-6.252-13.488-9.38-23.381-9.38c-9.336,0-17.22,3.22-23.659,9.66C2999.73,172.645,2996.23,182.214,2995.671,194.906z"/>
		<path d="M3166.467,283.105c-7.656,0-14.979-1.216-21.979-3.64s-12.74-6.58-17.221-12.46c-4.479-5.88-6.72-13.86-6.72-23.94
			c0-10.264,2.284-18.572,6.86-24.92c4.571-6.344,11.06-11.2,19.46-14.56c8.399-3.36,18.479-5.644,30.239-6.86
			c11.761-1.212,24.824-1.82,39.2-1.82v-13.44c0-9.332-2.38-15.912-7.14-19.74c-4.76-3.824-11.996-5.74-21.7-5.74
			c-8.028,0-15.12,1.776-21.28,5.32c-6.16,3.548-9.239,9.148-9.239,16.8v2.8h-31.36c-0.188-0.744-0.28-1.632-0.28-2.66
			c0-1.024,0-2.004,0-2.94c0-8.212,2.563-15.4,7.7-21.56c5.132-6.16,12.271-10.92,21.42-14.28c9.144-3.36,19.6-5.04,31.36-5.04h4.76
			c19.412,0,33.88,3.828,43.4,11.48c9.52,7.656,14.279,18.388,14.279,32.2v73.08c0,3.548,0.84,6.068,2.521,7.56
			c1.68,1.496,3.544,2.24,5.6,2.24c1.864,0,3.872-0.372,6.021-1.12c2.144-0.744,4.151-1.584,6.02-2.52v19.88
			c-2.428,1.868-5.508,3.312-9.24,4.34c-3.736,1.024-8.216,1.54-13.439,1.54c-6.16,0-11.248-1.12-15.26-3.36
			c-4.017-2.24-7.049-5.272-9.101-9.1c-2.056-3.824-3.268-8.164-3.64-13.02c-5.416,8.028-12.416,14.28-21,18.76
			C3188.119,280.865,3178.039,283.105,3166.467,283.105z M3180.467,260.986c5.972,0,11.664-1.352,17.08-4.06
			c5.412-2.704,9.892-6.764,13.44-12.18c3.543-5.412,5.319-12.224,5.319-20.44v-10.92c-13.068,0-24.268,0.7-33.6,2.1
			c-9.337,1.4-16.429,3.968-21.28,7.7c-4.856,3.736-7.28,9.336-7.28,16.8c0,7.468,2.24,12.836,6.721,16.1
			C3165.347,259.354,3171.879,260.986,3180.467,260.986z"/>
		<path d="M3350.984,283.105c-10.828,0-20.72-2.616-29.68-7.84s-16.148-13.344-21.561-24.36c-5.416-11.012-8.12-25.104-8.12-42.28
			v-3.08c0-15.68,2.564-28.792,7.7-39.34c5.132-10.543,11.944-18.48,20.44-23.8c8.491-5.32,17.872-7.98,28.14-7.98
			c10.08,0,18.664,1.916,25.76,5.74c7.092,3.828,12.504,8.728,16.24,14.7v-76.16h32.48v201.6h-25.2l-3.92-19.32
			c-4.668,6.72-10.456,12.088-17.36,16.1C3368.996,281.097,3360.688,283.105,3350.984,283.105z M3357.425,260.986
			c5.972,0,11.384-1.444,16.239-4.34c4.853-2.892,8.772-7.512,11.761-13.86c2.983-6.344,4.479-14.652,4.479-24.92v-19.88
			c0-9.144-1.448-16.752-4.34-22.82c-2.896-6.063-6.816-10.592-11.76-13.58c-4.948-2.983-10.408-4.48-16.38-4.48
			c-8.96,0-16.477,3.408-22.54,10.22c-6.068,6.816-9.101,17.036-9.101,30.66v19.6c0,10.269,1.4,18.577,4.2,24.92
			c2.8,6.348,6.58,11.016,11.34,14C3346.084,259.493,3351.448,260.986,3357.425,260.986z"/>
	</g>
	
		<rect x="217.477" y="434.149" style="fill:#E6E6E6;stroke:#000000;stroke-width:6;stroke-miterlimit:10;" width="150" height="100"/>
	<g>
		<path d="M420.012,504.895v-56.252h10.168v23.452h22.714v-23.452h10.168v56.252h-10.086v-24.6h-22.714v24.6H420.012z"/>
		<path d="M479.708,520.147c-1.258,0-2.419-0.096-3.484-0.287c-1.066-0.192-2.064-0.479-2.993-0.861v-7.298
			c0.601,0.273,1.394,0.505,2.378,0.697c0.983,0.191,1.939,0.287,2.87,0.287c1.421,0,2.609-0.274,3.566-0.82
			c0.956-0.547,1.805-1.449,2.542-2.706c0.738-1.258,1.462-2.898,2.173-4.92l-16.399-41.246h10.25l10.742,29.438h0.491
			l10.414-29.438h9.431l-15.498,40.016c-1.203,3.17-2.529,6.054-3.978,8.651c-1.449,2.596-3.171,4.66-5.166,6.191
			C485.051,519.381,482.605,520.147,479.708,520.147z"/>
		<path d="M534.238,505.715c-3.171,0-6.068-0.766-8.692-2.296s-4.729-3.908-6.313-7.134c-1.587-3.225-2.378-7.352-2.378-12.382
			v-0.902c0-4.592,0.75-8.432,2.255-11.521c1.503-3.088,3.497-5.412,5.985-6.97c2.487-1.558,5.234-2.337,8.241-2.337
			c2.952,0,5.466,0.562,7.544,1.681c2.077,1.121,3.662,2.556,4.756,4.305v-22.304h9.513v59.04h-7.38l-1.148-5.658
			c-1.367,1.968-3.062,3.541-5.084,4.715C539.513,505.127,537.08,505.715,534.238,505.715z M536.124,499.237
			c1.749,0,3.334-0.423,4.756-1.271c1.421-0.847,2.569-2.2,3.444-4.059c0.874-1.858,1.312-4.291,1.312-7.298v-5.822
			c0-2.678-0.424-4.906-1.271-6.683c-0.849-1.776-1.996-3.102-3.444-3.977c-1.449-0.874-3.048-1.312-4.797-1.312
			c-2.624,0-4.825,0.998-6.601,2.993c-1.777,1.996-2.665,4.989-2.665,8.979v5.74c0,3.007,0.41,5.44,1.229,7.298
			c0.82,1.859,1.927,3.226,3.321,4.1C532.803,498.801,534.374,499.237,536.124,499.237z"/>
		<path d="M567.283,504.895v-41.902h7.134l1.23,6.15c0.108-0.164,0.382-0.601,0.819-1.312c0.438-0.71,1.12-1.503,2.05-2.378
			c0.93-0.874,2.104-1.64,3.526-2.296c1.421-0.656,3.143-0.984,5.166-0.984c2.897,0,5.261,0.574,7.093,1.722
			c1.831,1.148,3.198,2.72,4.101,4.715c0.901,1.997,1.353,4.278,1.353,6.847c0,0.602-0.028,1.217-0.082,1.845
			c-0.055,0.629-0.11,1.162-0.164,1.599h-8.036v-1.64c0-1.148-0.219-2.323-0.655-3.526c-0.438-1.202-1.177-2.214-2.214-3.034
			c-1.039-0.82-2.488-1.23-4.347-1.23c-1.367,0-2.529,0.287-3.484,0.861c-0.957,0.574-1.736,1.299-2.337,2.173
			c-0.603,0.875-1.025,1.818-1.271,2.829c-0.246,1.012-0.369,1.955-0.369,2.829v26.732H567.283z"/>
		<path d="M618.696,505.715c-2.242,0-4.388-0.356-6.438-1.066s-3.73-1.927-5.043-3.649c-1.312-1.722-1.968-4.059-1.968-7.011
			c0-3.006,0.669-5.439,2.009-7.298c1.339-1.858,3.239-3.28,5.699-4.264c2.46-0.984,5.412-1.653,8.855-2.009
			c3.444-0.355,7.271-0.533,11.48-0.533v-3.936c0-2.733-0.697-4.66-2.091-5.781c-1.395-1.12-3.514-1.681-6.355-1.681
			c-2.351,0-4.428,0.521-6.231,1.558c-1.805,1.039-2.706,2.679-2.706,4.92v0.82h-9.185c-0.055-0.218-0.082-0.478-0.082-0.779
			c0-0.3,0-0.586,0-0.861c0-2.405,0.751-4.51,2.255-6.314c1.503-1.804,3.595-3.198,6.273-4.182c2.678-0.984,5.74-1.476,9.184-1.476
			h1.395c5.685,0,9.922,1.121,12.71,3.362c2.788,2.242,4.182,5.385,4.182,9.43v21.402c0,1.039,0.246,1.777,0.738,2.214
			c0.492,0.438,1.038,0.656,1.64,0.656c0.546,0,1.134-0.109,1.764-0.328c0.628-0.218,1.216-0.464,1.763-0.738v5.822
			c-0.711,0.547-1.613,0.97-2.706,1.271c-1.094,0.3-2.406,0.451-3.936,0.451c-1.805,0-3.295-0.328-4.47-0.984
			c-1.176-0.656-2.063-1.544-2.665-2.665c-0.602-1.12-0.957-2.391-1.065-3.813c-1.586,2.351-3.637,4.182-6.15,5.494
			C625.037,505.059,622.085,505.715,618.696,505.715z M622.796,499.237c1.749,0,3.416-0.396,5.002-1.189
			c1.585-0.792,2.897-1.98,3.937-3.567c1.037-1.585,1.558-3.58,1.558-5.986v-3.198c-3.827,0-7.107,0.205-9.84,0.615
			c-2.734,0.41-4.812,1.162-6.232,2.255c-1.422,1.094-2.132,2.734-2.132,4.92c0,2.187,0.656,3.759,1.968,4.715
			C618.368,498.76,620.281,499.237,622.796,499.237z"/>
		<path d="M697.169,505.715c-3.227,0-6.246-0.465-9.061-1.394c-2.816-0.929-5.276-2.432-7.381-4.51
			c-2.104-2.077-3.759-4.797-4.961-8.159c-1.203-3.362-1.804-7.475-1.804-12.341v-5.084c0-4.756,0.601-8.815,1.804-12.177
			c1.202-3.362,2.856-6.095,4.961-8.2c2.104-2.104,4.537-3.635,7.299-4.592c2.76-0.956,5.726-1.435,8.896-1.435h1.23
			c2.952,0,5.753,0.41,8.404,1.23c2.651,0.82,4.988,2.119,7.012,3.895c2.021,1.777,3.62,4.1,4.797,6.97
			c1.175,2.87,1.763,6.355,1.763,10.455h-9.594c0-3.881-0.562-6.874-1.681-8.979c-1.121-2.104-2.665-3.58-4.634-4.428
			c-1.968-0.847-4.21-1.271-6.724-1.271c-1.859,0-3.581,0.274-5.166,0.82c-1.586,0.547-2.952,1.449-4.1,2.706
			c-1.148,1.258-2.038,2.939-2.665,5.043c-0.63,2.105-0.943,4.715-0.943,7.831v9.348c0,4.155,0.546,7.421,1.64,9.799
			c1.093,2.378,2.61,4.073,4.552,5.084c1.939,1.012,4.168,1.517,6.683,1.517c2.678,0,5.015-0.423,7.011-1.271
			c1.995-0.847,3.553-2.323,4.674-4.428c1.12-2.104,1.682-5.07,1.682-8.897h9.266c0,3.936-0.574,7.326-1.722,10.168
			c-1.148,2.843-2.721,5.166-4.715,6.97c-1.996,1.804-4.306,3.144-6.93,4.018c-2.624,0.874-5.412,1.312-8.363,1.312H697.169z"/>
		<path d="M730.379,504.895v-59.04h9.512v59.04H730.379z"/>
		<path d="M753.174,453.563v-7.708h10.004v7.708H753.174z M753.419,504.895v-41.902h9.513v41.902H753.419z"/>
		<path d="M793.025,505.715c-3.827,0-7.189-0.807-10.086-2.419c-2.898-1.612-5.153-3.977-6.766-7.093
			c-1.612-3.116-2.419-6.888-2.419-11.316v-1.886c0-4.428,0.861-8.2,2.583-11.316c1.723-3.116,4.072-5.48,7.053-7.093
			c2.979-1.612,6.382-2.419,10.209-2.419h1.065c3.553,0,6.669,0.726,9.349,2.173c2.678,1.449,4.756,3.513,6.231,6.191
			c1.477,2.679,2.214,5.822,2.214,9.43v5.166h-28.782c0,2.898,0.382,5.412,1.148,7.544c0.765,2.132,1.898,3.759,3.403,4.879
			c1.503,1.121,3.375,1.681,5.617,1.681c1.857,0,3.512-0.369,4.961-1.107c1.447-0.738,2.596-1.845,3.443-3.321
			c0.847-1.476,1.271-3.307,1.271-5.494h8.938c0,3.28-0.819,6.15-2.46,8.61c-1.64,2.46-3.854,4.375-6.642,5.74
			s-5.959,2.05-9.512,2.05H793.025z M783.759,479.885h19.353c0-3.826-0.834-6.655-2.501-8.487c-1.668-1.831-3.95-2.747-6.847-2.747
			c-2.734,0-5.043,0.943-6.93,2.829C784.948,473.366,783.923,476.168,783.759,479.885z"/>
		<path d="M822.873,504.895v-41.902h6.97l1.229,6.15c1.585-2.296,3.554-4.031,5.904-5.207c2.35-1.175,4.974-1.763,7.872-1.763
			c2.896,0,5.438,0.547,7.626,1.64c2.186,1.094,3.896,2.693,5.125,4.797c1.23,2.105,1.845,4.688,1.845,7.749v28.536h-9.512v-26.814
			c0-3.116-0.726-5.343-2.173-6.683c-1.449-1.339-3.458-2.009-6.027-2.009c-1.695,0-3.253,0.424-4.674,1.271
			c-1.422,0.848-2.556,1.982-3.403,3.403c-0.848,1.422-1.271,3.034-1.271,4.838v25.994H822.873z"/>
		<path d="M884.619,505.715c-2.188,0-4.142-0.328-5.863-0.984c-1.723-0.656-3.062-1.735-4.019-3.239
			c-0.957-1.503-1.435-3.485-1.435-5.945v-25.256h-4.592v-7.298h4.838l3.362-13.366h5.903v13.366h9.758v7.298h-9.758v23.37
			c0,2.406,0.492,3.936,1.477,4.592c0.983,0.656,2.05,0.984,3.197,0.984c0.602,0,1.436-0.136,2.501-0.41
			c1.066-0.273,1.928-0.546,2.583-0.82v6.15c-0.655,0.328-1.448,0.615-2.378,0.861s-1.886,0.423-2.87,0.533
			C886.341,505.66,885.438,505.715,884.619,505.715z"/>
	</g>
	<g>
		<g>
			<polyline style="fill:none;stroke:#999999;stroke-width:6;stroke-miterlimit:10;" points="3075.477,521.649 3075.477,534.149 
				3062.977,534.149 			"/>
			
				<line style="fill:none;stroke:#999999;stroke-width:6;stroke-miterlimit:10;stroke-dasharray:25,25;" x1="3037.977" y1="534.149" x2="2950.477" y2="534.149"/>
			<polyline style="fill:none;stroke:#999999;stroke-width:6;stroke-miterlimit:10;" points="2937.977,534.149 2925.477,534.149 
				2925.477,521.649 			"/>
			
				<line style="fill:none;stroke:#999999;stroke-width:6;stroke-miterlimit:10;stroke-dasharray:25,25;" x1="2925.477" y1="496.649" x2="2925.477" y2="459.149"/>
			<polyline style="fill:none;stroke:#999999;stroke-width:6;stroke-miterlimit:10;" points="2925.477,446.649 2925.477,434.149 
				2937.977,434.149 			"/>
			
				<line style="fill:none;stroke:#999999;stroke-width:6;stroke-miterlimit:10;stroke-dasharray:25,25;" x1="2962.977" y1="434.149" x2="3050.477" y2="434.149"/>
			<polyline style="fill:none;stroke:#999999;stroke-width:6;stroke-miterlimit:10;" points="3062.977,434.149 3075.477,434.149 
				3075.477,446.649 			"/>
			
				<line style="fill:none;stroke:#999999;stroke-width:6;stroke-miterlimit:10;stroke-dasharray:25,25;" x1="3075.477" y1="471.649" x2="3075.477" y2="509.149"/>
		</g>
	</g>
	<g>
		<path d="M3128.012,504.895v-56.252h16.4l15.825,41.41h0.246l15.826-41.41h16.482v56.252h-10.086v-44.526h-0.41l-16.893,44.526
			h-11.069l-16.811-44.526h-0.41v44.526H3128.012z"/>
		<path d="M3216.49,505.715c-2.242,0-4.388-0.356-6.438-1.066s-3.73-1.927-5.043-3.649c-1.312-1.722-1.968-4.059-1.968-7.011
			c0-3.006,0.669-5.439,2.009-7.298c1.339-1.858,3.239-3.28,5.699-4.264c2.46-0.984,5.412-1.653,8.855-2.009
			c3.444-0.355,7.271-0.533,11.48-0.533v-3.936c0-2.733-0.697-4.66-2.091-5.781c-1.395-1.12-3.514-1.681-6.355-1.681
			c-2.351,0-4.428,0.521-6.231,1.558c-1.805,1.039-2.706,2.679-2.706,4.92v0.82h-9.185c-0.055-0.218-0.082-0.478-0.082-0.779
			c0-0.3,0-0.586,0-0.861c0-2.405,0.751-4.51,2.255-6.314c1.503-1.804,3.595-3.198,6.273-4.182c2.678-0.984,5.74-1.476,9.184-1.476
			h1.395c5.685,0,9.922,1.121,12.71,3.362c2.788,2.242,4.182,5.385,4.182,9.43v21.402c0,1.039,0.246,1.777,0.738,2.214
			c0.492,0.438,1.038,0.656,1.64,0.656c0.546,0,1.134-0.109,1.764-0.328c0.628-0.218,1.216-0.464,1.763-0.738v5.822
			c-0.711,0.547-1.613,0.97-2.706,1.271c-1.094,0.3-2.406,0.451-3.936,0.451c-1.805,0-3.295-0.328-4.47-0.984
			c-1.176-0.656-2.063-1.544-2.665-2.665c-0.602-1.12-0.957-2.391-1.065-3.813c-1.586,2.351-3.637,4.182-6.15,5.494
			C3222.831,505.059,3219.879,505.715,3216.49,505.715z M3220.59,499.237c1.749,0,3.416-0.396,5.002-1.189
			c1.585-0.792,2.897-1.98,3.937-3.567c1.037-1.585,1.558-3.58,1.558-5.986v-3.198c-3.827,0-7.107,0.205-9.84,0.615
			c-2.734,0.41-4.812,1.162-6.232,2.255c-1.422,1.094-2.132,2.734-2.132,4.92c0,2.187,0.656,3.759,1.968,4.715
			C3216.162,498.76,3218.075,499.237,3220.59,499.237z"/>
		<path d="M3254.947,504.895v-41.902h6.97l1.23,6.15c1.585-2.296,3.553-4.031,5.903-5.207c2.351-1.175,4.975-1.763,7.872-1.763
			s5.439,0.547,7.626,1.64c2.187,1.094,3.896,2.693,5.125,4.797c1.23,2.105,1.846,4.688,1.846,7.749v28.536h-9.513v-26.814
			c0-3.116-0.725-5.343-2.173-6.683c-1.449-1.339-3.458-2.009-6.026-2.009c-1.695,0-3.254,0.424-4.675,1.271
			c-1.422,0.848-2.556,1.982-3.402,3.403c-0.849,1.422-1.271,3.034-1.271,4.838v25.994H3254.947z"/>
		<path d="M3314.725,505.715c-2.242,0-4.388-0.356-6.438-1.066s-3.73-1.927-5.043-3.649c-1.312-1.722-1.968-4.059-1.968-7.011
			c0-3.006,0.669-5.439,2.009-7.298c1.339-1.858,3.239-3.28,5.699-4.264c2.46-0.984,5.412-1.653,8.855-2.009
			c3.444-0.355,7.271-0.533,11.48-0.533v-3.936c0-2.733-0.697-4.66-2.091-5.781c-1.395-1.12-3.514-1.681-6.355-1.681
			c-2.351,0-4.428,0.521-6.231,1.558c-1.805,1.039-2.706,2.679-2.706,4.92v0.82h-9.185c-0.055-0.218-0.082-0.478-0.082-0.779
			c0-0.3,0-0.586,0-0.861c0-2.405,0.751-4.51,2.255-6.314c1.503-1.804,3.595-3.198,6.273-4.182c2.678-0.984,5.74-1.476,9.184-1.476
			h1.395c5.685,0,9.922,1.121,12.71,3.362c2.788,2.242,4.182,5.385,4.182,9.43v21.402c0,1.039,0.246,1.777,0.738,2.214
			c0.492,0.438,1.038,0.656,1.64,0.656c0.546,0,1.134-0.109,1.764-0.328c0.628-0.218,1.216-0.464,1.763-0.738v5.822
			c-0.711,0.547-1.613,0.97-2.706,1.271c-1.094,0.3-2.406,0.451-3.936,0.451c-1.805,0-3.295-0.328-4.47-0.984
			c-1.176-0.656-2.063-1.544-2.665-2.665c-0.602-1.12-0.957-2.391-1.065-3.813c-1.586,2.351-3.637,4.182-6.15,5.494
			C3321.065,505.059,3318.113,505.715,3314.725,505.715z M3318.824,499.237c1.749,0,3.416-0.396,5.002-1.189
			c1.585-0.792,2.897-1.98,3.937-3.567c1.037-1.585,1.558-3.58,1.558-5.986v-3.198c-3.827,0-7.107,0.205-9.84,0.615
			c-2.734,0.41-4.812,1.162-6.232,2.255c-1.422,1.094-2.132,2.734-2.132,4.92c0,2.187,0.656,3.759,1.968,4.715
			C3314.396,498.76,3316.31,499.237,3318.824,499.237z"/>
		<path d="M3360.151,520.311c-1.914,0-3.648-0.451-5.207-1.353c-1.558-0.902-2.802-2.119-3.73-3.649
			c-0.931-1.531-1.395-3.226-1.395-5.084c0-1.968,0.546-3.827,1.641-5.576c1.093-1.749,2.596-3.061,4.51-3.936
			c-1.203-0.765-2.146-1.749-2.829-2.952c-0.685-1.202-1.025-2.487-1.025-3.854c0-2.022,0.628-3.731,1.887-5.125
			c1.257-1.394,2.896-2.446,4.92-3.157c-1.695-1.093-3.062-2.405-4.101-3.936c-1.039-1.53-1.558-3.389-1.558-5.576
			c0-2.35,0.628-4.592,1.886-6.724c1.257-2.132,3.157-3.867,5.699-5.207c2.542-1.339,5.753-2.009,9.635-2.009
			c1.694,0,3.266,0.096,4.715,0.287c1.448,0.192,2.719,0.506,3.813,0.943c2.132-0.984,3.743-2.173,4.838-3.567
			c1.093-1.394,1.693-2.856,1.804-4.387h7.627c0,1.804-0.342,3.444-1.025,4.92s-1.668,2.706-2.951,3.69
			c-1.286,0.984-2.804,1.668-4.552,2.05l-0.082,0.246c1.257,1.094,2.268,2.378,3.033,3.854s1.148,3.116,1.148,4.92
			c0,2.406-0.644,4.62-1.927,6.642c-1.285,2.023-3.131,3.649-5.535,4.879c-2.406,1.23-5.303,1.845-8.692,1.845h-6.313
			c-1.695,0-3.034,0.383-4.019,1.148c-0.983,0.766-1.476,1.777-1.476,3.034c0,1.203,0.464,2.187,1.394,2.952
			c0.93,0.766,2.296,1.148,4.101,1.148h15.252c3.607,0,6.449,1.094,8.527,3.28c2.078,2.187,3.117,4.865,3.117,8.036
			c0,2.241-0.533,4.291-1.6,6.15c-1.066,1.858-2.57,3.333-4.51,4.428c-1.941,1.093-4.196,1.64-6.766,1.64H3360.151z
			 M3363.596,514.161h15.006c1.585,0,2.952-0.533,4.1-1.599c1.148-1.066,1.723-2.365,1.723-3.895c0-1.312-0.479-2.447-1.436-3.403
			c-0.957-0.956-2.146-1.435-3.566-1.435h-15.826c-1.531,0-2.816,0.506-3.854,1.517c-1.039,1.011-1.558,2.227-1.558,3.649
			c0,1.366,0.519,2.569,1.558,3.608C3360.779,513.641,3362.064,514.161,3363.596,514.161z M3371.058,482.919
			c2.732,0,4.879-0.738,6.437-2.214c1.559-1.476,2.337-3.252,2.337-5.33c0-2.077-0.778-3.867-2.337-5.371
			c-1.558-1.503-3.704-2.255-6.437-2.255c-2.734,0-4.879,0.752-6.438,2.255c-1.558,1.504-2.337,3.294-2.337,5.371
			c0,2.078,0.779,3.854,2.337,5.33C3366.179,482.181,3368.323,482.919,3371.058,482.919z"/>
		<path d="M3417.961,505.715c-3.827,0-7.189-0.807-10.086-2.419c-2.898-1.612-5.153-3.977-6.766-7.093
			c-1.612-3.116-2.419-6.888-2.419-11.316v-1.886c0-4.428,0.861-8.2,2.583-11.316c1.723-3.116,4.072-5.48,7.053-7.093
			c2.979-1.612,6.382-2.419,10.209-2.419h1.065c3.553,0,6.669,0.726,9.349,2.173c2.678,1.449,4.756,3.513,6.231,6.191
			c1.477,2.679,2.214,5.822,2.214,9.43v5.166h-28.782c0,2.898,0.382,5.412,1.148,7.544c0.765,2.132,1.898,3.759,3.403,4.879
			c1.503,1.121,3.375,1.681,5.617,1.681c1.857,0,3.512-0.369,4.961-1.107c1.447-0.738,2.596-1.845,3.443-3.321
			c0.847-1.476,1.271-3.307,1.271-5.494h8.938c0,3.28-0.819,6.15-2.46,8.61c-1.64,2.46-3.854,4.375-6.642,5.74
			s-5.959,2.05-9.512,2.05H3417.961z M3408.694,479.885h19.353c0-3.826-0.834-6.655-2.501-8.487
			c-1.668-1.831-3.95-2.747-6.847-2.747c-2.734,0-5.043,0.943-6.93,2.829C3409.884,473.366,3408.858,476.168,3408.694,479.885z"/>
		<path d="M3463.389,505.715c-3.172,0-6.068-0.766-8.692-2.296s-4.729-3.908-6.314-7.134c-1.586-3.225-2.378-7.352-2.378-12.382
			v-0.902c0-4.592,0.751-8.432,2.255-11.521c1.503-3.088,3.498-5.412,5.986-6.97c2.487-1.558,5.234-2.337,8.241-2.337
			c2.952,0,5.466,0.562,7.544,1.681c2.077,1.121,3.662,2.556,4.756,4.305v-22.304h9.512v59.04h-7.38l-1.147-5.658
			c-1.367,1.968-3.062,3.541-5.084,4.715C3468.663,505.127,3466.23,505.715,3463.389,505.715z M3465.274,499.237
			c1.749,0,3.334-0.423,4.756-1.271c1.421-0.847,2.569-2.2,3.444-4.059c0.873-1.858,1.312-4.291,1.312-7.298v-5.822
			c0-2.678-0.424-4.906-1.271-6.683c-0.849-1.776-1.996-3.102-3.444-3.977c-1.449-0.874-3.048-1.312-4.797-1.312
			c-2.624,0-4.825,0.998-6.602,2.993c-1.776,1.996-2.665,4.989-2.665,8.979v5.74c0,3.007,0.41,5.44,1.23,7.298
			c0.82,1.859,1.927,3.226,3.321,4.1C3461.953,498.801,3463.524,499.237,3465.274,499.237z"/>
		<path d="M3515.456,504.895v-56.252h10.168v23.452h22.714v-23.452h10.168v56.252h-10.086v-24.6h-22.714v24.6H3515.456z"/>
		<path d="M3588.354,505.715c-3.827,0-7.189-0.807-10.086-2.419c-2.898-1.612-5.153-3.977-6.766-7.093
			c-1.612-3.116-2.419-6.888-2.419-11.316v-1.886c0-4.428,0.861-8.2,2.583-11.316c1.723-3.116,4.072-5.48,7.053-7.093
			c2.979-1.612,6.382-2.419,10.209-2.419h1.065c3.553,0,6.669,0.726,9.349,2.173c2.678,1.449,4.756,3.513,6.231,6.191
			c1.477,2.679,2.214,5.822,2.214,9.43v5.166h-28.782c0,2.898,0.382,5.412,1.148,7.544c0.765,2.132,1.898,3.759,3.403,4.879
			c1.503,1.121,3.375,1.681,5.617,1.681c1.857,0,3.512-0.369,4.961-1.107c1.447-0.738,2.596-1.845,3.443-3.321
			c0.847-1.476,1.271-3.307,1.271-5.494h8.938c0,3.28-0.819,6.15-2.46,8.61c-1.64,2.46-3.854,4.375-6.642,5.74
			s-5.959,2.05-9.512,2.05H3588.354z M3579.088,479.885h19.353c0-3.826-0.834-6.655-2.501-8.487
			c-1.668-1.831-3.95-2.747-6.847-2.747c-2.734,0-5.043,0.943-6.93,2.829C3580.277,473.366,3579.252,476.168,3579.088,479.885z"/>
		<path d="M3629.107,505.715c-2.242,0-4.387-0.356-6.437-1.066s-3.731-1.927-5.043-3.649c-1.312-1.722-1.968-4.059-1.968-7.011
			c0-3.006,0.668-5.439,2.009-7.298c1.339-1.858,3.239-3.28,5.699-4.264c2.46-0.984,5.412-1.653,8.855-2.009
			c3.444-0.355,7.27-0.533,11.48-0.533v-3.936c0-2.733-0.697-4.66-2.092-5.781c-1.394-1.12-3.513-1.681-6.354-1.681
			c-2.352,0-4.428,0.521-6.232,1.558c-1.804,1.039-2.706,2.679-2.706,4.92v0.82h-9.184c-0.055-0.218-0.082-0.478-0.082-0.779
			c0-0.3,0-0.586,0-0.861c0-2.405,0.751-4.51,2.255-6.314c1.503-1.804,3.594-3.198,6.273-4.182c2.678-0.984,5.74-1.476,9.184-1.476
			h1.395c5.685,0,9.922,1.121,12.71,3.362c2.788,2.242,4.182,5.385,4.182,9.43v21.402c0,1.039,0.246,1.777,0.738,2.214
			c0.492,0.438,1.037,0.656,1.64,0.656c0.546,0,1.134-0.109,1.763-0.328c0.628-0.218,1.217-0.464,1.764-0.738v5.822
			c-0.711,0.547-1.613,0.97-2.706,1.271c-1.095,0.3-2.406,0.451-3.937,0.451c-1.804,0-3.294-0.328-4.469-0.984
			c-1.176-0.656-2.064-1.544-2.665-2.665c-0.603-1.12-0.957-2.391-1.065-3.813c-1.587,2.351-3.637,4.182-6.15,5.494
			C3635.448,505.059,3632.497,505.715,3629.107,505.715z M3633.208,499.237c1.749,0,3.416-0.396,5.002-1.189
			c1.585-0.792,2.896-1.98,3.936-3.567c1.038-1.585,1.559-3.58,1.559-5.986v-3.198c-3.827,0-7.107,0.205-9.84,0.615
			c-2.734,0.41-4.812,1.162-6.232,2.255c-1.422,1.094-2.132,2.734-2.132,4.92c0,2.187,0.656,3.759,1.968,4.715
			C3628.78,498.76,3630.692,499.237,3633.208,499.237z"/>
		<path d="M3683.146,505.715c-3.172,0-6.068-0.766-8.692-2.296s-4.729-3.908-6.314-7.134c-1.586-3.225-2.378-7.352-2.378-12.382
			v-0.902c0-4.592,0.751-8.432,2.255-11.521c1.503-3.088,3.498-5.412,5.986-6.97c2.487-1.558,5.234-2.337,8.241-2.337
			c2.952,0,5.466,0.562,7.544,1.681c2.077,1.121,3.662,2.556,4.756,4.305v-22.304h9.512v59.04h-7.38l-1.147-5.658
			c-1.367,1.968-3.062,3.541-5.084,4.715C3688.42,505.127,3685.987,505.715,3683.146,505.715z M3685.031,499.237
			c1.749,0,3.334-0.423,4.756-1.271c1.421-0.847,2.569-2.2,3.444-4.059c0.873-1.858,1.312-4.291,1.312-7.298v-5.822
			c0-2.678-0.424-4.906-1.271-6.683c-0.849-1.776-1.996-3.102-3.444-3.977c-1.449-0.874-3.048-1.312-4.797-1.312
			c-2.624,0-4.825,0.998-6.602,2.993c-1.776,1.996-2.665,4.989-2.665,8.979v5.74c0,3.007,0.41,5.44,1.23,7.298
			c0.82,1.859,1.927,3.226,3.321,4.1C3681.71,498.801,3683.281,499.237,3685.031,499.237z"/>
		<path d="M3146.38,605.715c-3.937,0-7.518-0.561-10.742-1.681c-3.227-1.12-5.81-2.924-7.749-5.412
			c-1.941-2.487-2.911-5.781-2.911-9.881c0-0.273,0-0.56,0-0.861c0-0.3,0.027-0.587,0.082-0.861h9.431
			c-0.056,0.274-0.082,0.547-0.082,0.82c0,0.274,0,0.547,0,0.82c0,2.023,0.491,3.718,1.476,5.084
			c0.984,1.367,2.391,2.392,4.223,3.075c1.831,0.685,3.978,1.025,6.438,1.025c2.624,0,4.851-0.287,6.683-0.861
			c1.831-0.574,3.225-1.489,4.183-2.747c0.955-1.257,1.435-2.87,1.435-4.838c0-1.858-0.588-3.348-1.763-4.469
			c-1.177-1.12-2.734-2.022-4.674-2.706c-1.941-0.683-4.073-1.298-6.396-1.845c-2.324-0.546-4.633-1.175-6.929-1.886
			c-2.296-0.71-4.415-1.653-6.355-2.829c-1.94-1.175-3.499-2.733-4.674-4.674c-1.176-1.939-1.763-4.414-1.763-7.421
			c0-3.553,0.97-6.491,2.911-8.815c1.939-2.323,4.495-4.059,7.667-5.207c3.169-1.148,6.642-1.722,10.414-1.722
			c3.771,0,7.201,0.547,10.29,1.64c3.088,1.094,5.562,2.802,7.422,5.125c1.857,2.324,2.788,5.344,2.788,9.061v1.066h-9.267v-1.148
			c0-1.694-0.465-3.129-1.394-4.305c-0.931-1.175-2.214-2.063-3.854-2.665c-1.64-0.601-3.581-0.902-5.822-0.902
			c-2.132,0-4.031,0.233-5.698,0.697c-1.669,0.465-2.967,1.203-3.896,2.214c-0.93,1.012-1.394,2.365-1.394,4.059
			c0,1.804,0.587,3.239,1.763,4.305c1.175,1.066,2.733,1.914,4.674,2.542c1.94,0.629,4.086,1.217,6.438,1.763
			c2.35,0.547,4.687,1.162,7.011,1.845c2.323,0.684,4.455,1.613,6.396,2.788c1.94,1.176,3.498,2.734,4.675,4.674
			c1.175,1.941,1.763,4.415,1.763,7.421c0,4.264-1.013,7.695-3.034,10.291c-2.022,2.597-4.756,4.483-8.2,5.658
			C3154.498,605.127,3150.644,605.715,3146.38,605.715z"/>
		<path d="M3196.809,605.715c-3.827,0-7.189-0.807-10.086-2.419c-2.898-1.612-5.153-3.977-6.765-7.093
			c-1.613-3.116-2.419-6.888-2.419-11.316v-1.886c0-4.428,0.86-8.2,2.583-11.316c1.722-3.116,4.071-5.48,7.052-7.093
			c2.979-1.612,6.382-2.419,10.209-2.419h1.065c3.554,0,6.669,0.726,9.349,2.173c2.678,1.449,4.756,3.513,6.231,6.191
			c1.477,2.679,2.215,5.822,2.215,9.43v5.166h-28.782c0,2.898,0.382,5.412,1.147,7.544c0.766,2.132,1.899,3.759,3.403,4.879
			c1.503,1.121,3.375,1.681,5.617,1.681c1.857,0,3.512-0.369,4.961-1.107c1.447-0.738,2.596-1.845,3.443-3.321
			s1.271-3.307,1.271-5.494h8.938c0,3.28-0.82,6.15-2.461,8.61c-1.64,2.46-3.854,4.375-6.642,5.74s-5.959,2.05-9.512,2.05H3196.809z
			 M3187.543,579.885h19.352c0-3.826-0.834-6.655-2.501-8.487c-1.668-1.831-3.95-2.747-6.847-2.747
			c-2.734,0-5.043,0.943-6.929,2.829C3188.731,573.366,3187.707,576.168,3187.543,579.885z"/>
		<path d="M3226.655,604.895v-41.902h7.135l1.229,6.15c0.109-0.164,0.382-0.601,0.82-1.312c0.437-0.71,1.119-1.503,2.05-2.378
			c0.929-0.874,2.104-1.64,3.526-2.296c1.421-0.656,3.143-0.984,5.166-0.984c2.896,0,5.261,0.574,7.093,1.722
			c1.831,1.148,3.198,2.72,4.1,4.715c0.902,1.997,1.354,4.278,1.354,6.847c0,0.602-0.028,1.217-0.082,1.845
			c-0.056,0.629-0.11,1.162-0.164,1.599h-8.036v-1.64c0-1.148-0.219-2.323-0.656-3.526c-0.438-1.202-1.176-2.214-2.214-3.034
			c-1.039-0.82-2.488-1.23-4.346-1.23c-1.367,0-2.529,0.287-3.485,0.861c-0.957,0.574-1.736,1.299-2.337,2.173
			c-0.603,0.875-1.025,1.818-1.271,2.829c-0.246,1.012-0.369,1.955-0.369,2.829v26.732H3226.655z"/>
		<path d="M3277.658,604.895l-15.334-41.902h10.168l10.66,30.586h0.41l10.742-30.586h9.266l-15.498,41.902H3277.658z"/>
		<path d="M3311.195,553.563v-7.708h10.004v7.708H3311.195z M3311.441,604.895v-41.902h9.512v41.902H3311.441z"/>
		<path d="M3350.228,605.715c-3.499,0-6.642-0.861-9.43-2.583c-2.788-1.722-4.975-4.141-6.56-7.257
			c-1.587-3.116-2.378-6.724-2.378-10.824v-2.214c0-3.116,0.491-5.931,1.476-8.446c0.984-2.514,2.337-4.687,4.059-6.519
			c1.723-1.831,3.731-3.239,6.027-4.223s4.756-1.476,7.38-1.476h1.23c3.553,0,6.642,0.711,9.266,2.132
			c2.624,1.422,4.66,3.417,6.109,5.986c1.447,2.57,2.173,5.631,2.173,9.184h-8.446c0-2.405-0.397-4.414-1.188-6.027
			c-0.794-1.612-1.887-2.815-3.28-3.608c-1.395-0.792-3.021-1.189-4.879-1.189c-2.844,0-5.207,0.957-7.093,2.87
			c-1.887,1.914-2.829,4.811-2.829,8.692v7.216c0,3.882,0.914,6.82,2.747,8.815c1.83,1.996,4.25,2.993,7.257,2.993
			c1.968,0,3.676-0.369,5.125-1.107c1.447-0.738,2.568-1.898,3.361-3.485c0.792-1.585,1.189-3.662,1.189-6.232h8.036
			c0,3.663-0.793,6.793-2.378,9.389c-1.586,2.597-3.745,4.565-6.479,5.904s-5.821,2.009-9.266,2.009H3350.228z"/>
		<path d="M3396.722,605.715c-3.827,0-7.189-0.807-10.086-2.419c-2.898-1.612-5.153-3.977-6.766-7.093
			c-1.613-3.116-2.419-6.888-2.419-11.316v-1.886c0-4.428,0.861-8.2,2.583-11.316c1.722-3.116,4.072-5.48,7.052-7.093
			c2.979-1.612,6.383-2.419,10.21-2.419h1.065c3.553,0,6.669,0.726,9.349,2.173c2.678,1.449,4.756,3.513,6.231,6.191
			c1.477,2.679,2.214,5.822,2.214,9.43v5.166h-28.782c0,2.898,0.382,5.412,1.148,7.544c0.765,2.132,1.898,3.759,3.403,4.879
			c1.503,1.121,3.375,1.681,5.617,1.681c1.857,0,3.512-0.369,4.961-1.107c1.447-0.738,2.596-1.845,3.443-3.321
			c0.847-1.476,1.271-3.307,1.271-5.494h8.938c0,3.28-0.819,6.15-2.46,8.61c-1.64,2.46-3.854,4.375-6.642,5.74
			s-5.959,2.05-9.512,2.05H3396.722z M3387.455,579.885h19.353c0-3.826-0.834-6.655-2.501-8.487
			c-1.668-1.831-3.95-2.747-6.847-2.747c-2.734,0-5.043,0.943-6.93,2.829C3388.645,573.366,3387.619,576.168,3387.455,579.885z"/>
		<path d="M3445.592,604.895v-56.252h26.076c2.952,0,5.658,0.697,8.118,2.091s4.414,3.294,5.863,5.699
			c1.447,2.406,2.173,5.084,2.173,8.036v0.984c0,2.952-0.767,5.686-2.296,8.2c-1.531,2.515-3.54,4.524-6.027,6.027
			c-2.488,1.504-5.235,2.255-8.241,2.255h-15.498v22.96H3445.592z M3455.76,574.063h13.448c1.64,0,3.088-0.382,4.346-1.148
			c1.257-0.765,2.255-1.804,2.993-3.116s1.107-2.815,1.107-4.51c0-2.405-0.808-4.469-2.419-6.191
			c-1.613-1.722-3.704-2.583-6.273-2.583h-13.202V574.063z"/>
		<path d="M3496.596,604.895v-41.902h7.134l1.229,6.15c0.109-0.164,0.382-0.601,0.82-1.312c0.437-0.71,1.12-1.503,2.05-2.378
			c0.929-0.874,2.104-1.64,3.526-2.296c1.421-0.656,3.143-0.984,5.166-0.984c2.896,0,5.261,0.574,7.093,1.722
			c1.831,1.148,3.198,2.72,4.1,4.715c0.902,1.997,1.354,4.278,1.354,6.847c0,0.602-0.028,1.217-0.082,1.845
			c-0.055,0.629-0.11,1.162-0.164,1.599h-8.036v-1.64c0-1.148-0.219-2.323-0.656-3.526c-0.438-1.202-1.176-2.214-2.214-3.034
			c-1.039-0.82-2.488-1.23-4.346-1.23c-1.367,0-2.529,0.287-3.485,0.861c-0.957,0.574-1.735,1.299-2.337,2.173
			c-0.602,0.875-1.024,1.818-1.271,2.829c-0.246,1.012-0.369,1.955-0.369,2.829v26.732H3496.596z"/>
		<path d="M3554.732,605.715c-3.719,0-7.052-0.847-10.004-2.542c-2.952-1.694-5.263-4.127-6.93-7.298
			c-1.668-3.17-2.501-6.915-2.501-11.234v-1.394c0-4.373,0.833-8.131,2.501-11.275c1.667-3.143,3.963-5.562,6.889-7.257
			c2.924-1.694,6.244-2.542,9.963-2.542h1.312c3.772,0,7.12,0.848,10.045,2.542c2.924,1.695,5.22,4.114,6.889,7.257
			c1.667,3.144,2.501,6.902,2.501,11.275v1.394c0,4.319-0.834,8.064-2.501,11.234c-1.669,3.171-3.965,5.604-6.889,7.298
			c-2.925,1.695-6.246,2.542-9.963,2.542H3554.732z M3555.307,599.237c1.912,0,3.62-0.451,5.125-1.353
			c1.503-0.902,2.705-2.255,3.607-4.059c0.902-1.804,1.354-3.99,1.354-6.56v-6.642c0-2.624-0.451-4.824-1.354-6.601
			c-0.902-1.776-2.104-3.116-3.607-4.018c-1.505-0.902-3.213-1.353-5.125-1.353c-1.859,0-3.541,0.451-5.044,1.353
			c-1.504,0.902-2.705,2.242-3.607,4.018c-0.902,1.777-1.354,3.977-1.354,6.601v6.642c0,2.57,0.451,4.756,1.354,6.56
			c0.902,1.804,2.104,3.157,3.607,4.059C3551.766,598.786,3553.447,599.237,3555.307,599.237z"/>
		<path d="M3596.224,604.895l-15.334-41.902h10.168l10.659,30.586h0.41l10.742-30.586h9.266l-15.498,41.902H3596.224z"/>
		<path d="M3629.761,553.563v-7.708h10.004v7.708H3629.761z M3630.006,604.895v-41.902h9.513v41.902H3630.006z"/>
		<path d="M3667.809,605.715c-3.172,0-6.068-0.766-8.692-2.296s-4.729-3.908-6.314-7.134c-1.586-3.225-2.378-7.352-2.378-12.382
			v-0.902c0-4.592,0.751-8.432,2.255-11.521c1.503-3.088,3.498-5.412,5.986-6.97c2.487-1.558,5.234-2.337,8.241-2.337
			c2.952,0,5.466,0.562,7.544,1.681c2.077,1.121,3.662,2.556,4.756,4.305v-22.304h9.512v59.04h-7.38l-1.147-5.658
			c-1.367,1.968-3.062,3.541-5.084,4.715C3673.083,605.127,3670.65,605.715,3667.809,605.715z M3669.694,599.237
			c1.749,0,3.334-0.423,4.756-1.271c1.421-0.847,2.569-2.2,3.444-4.059c0.873-1.858,1.312-4.291,1.312-7.298v-5.822
			c0-2.678-0.424-4.906-1.271-6.683c-0.849-1.776-1.996-3.102-3.444-3.977c-1.449-0.874-3.048-1.312-4.797-1.312
			c-2.624,0-4.825,0.998-6.602,2.993c-1.776,1.996-2.665,4.989-2.665,8.979v5.74c0,3.007,0.41,5.44,1.23,7.298
			c0.82,1.859,1.927,3.226,3.321,4.1C3666.373,598.801,3667.944,599.237,3669.694,599.237z"/>
		<path d="M3718.237,605.715c-3.827,0-7.189-0.807-10.086-2.419c-2.898-1.612-5.153-3.977-6.766-7.093
			c-1.612-3.116-2.419-6.888-2.419-11.316v-1.886c0-4.428,0.861-8.2,2.583-11.316c1.723-3.116,4.072-5.48,7.053-7.093
			c2.979-1.612,6.382-2.419,10.209-2.419h1.065c3.553,0,6.669,0.726,9.349,2.173c2.678,1.449,4.756,3.513,6.231,6.191
			c1.477,2.679,2.214,5.822,2.214,9.43v5.166h-28.782c0,2.898,0.382,5.412,1.148,7.544c0.765,2.132,1.898,3.759,3.403,4.879
			c1.503,1.121,3.375,1.681,5.617,1.681c1.857,0,3.512-0.369,4.961-1.107c1.447-0.738,2.596-1.845,3.443-3.321
			c0.847-1.476,1.271-3.307,1.271-5.494h8.938c0,3.28-0.819,6.15-2.46,8.61c-1.64,2.46-3.854,4.375-6.642,5.74
			s-5.959,2.05-9.512,2.05H3718.237z M3708.971,579.885h19.353c0-3.826-0.834-6.655-2.501-8.487
			c-1.668-1.831-3.95-2.747-6.847-2.747c-2.734,0-5.043,0.943-6.93,2.829C3710.16,573.366,3709.135,576.168,3708.971,579.885z"/>
		<path d="M3748.085,604.895v-41.902h7.134l1.229,6.15c0.109-0.164,0.382-0.601,0.82-1.312c0.437-0.71,1.12-1.503,2.05-2.378
			c0.929-0.874,2.104-1.64,3.526-2.296c1.421-0.656,3.143-0.984,5.166-0.984c2.896,0,5.261,0.574,7.093,1.722
			c1.831,1.148,3.198,2.72,4.1,4.715c0.902,1.997,1.354,4.278,1.354,6.847c0,0.602-0.028,1.217-0.082,1.845
			c-0.055,0.629-0.11,1.162-0.164,1.599h-8.036v-1.64c0-1.148-0.219-2.323-0.656-3.526c-0.438-1.202-1.176-2.214-2.214-3.034
			c-1.039-0.82-2.488-1.23-4.346-1.23c-1.367,0-2.529,0.287-3.485,0.861c-0.957,0.574-1.735,1.299-2.337,2.173
			c-0.602,0.875-1.024,1.818-1.271,2.829c-0.246,1.012-0.369,1.955-0.369,2.829v26.732H3748.085z"/>
	</g>
	<circle style="fill:#5181F6;stroke:#000000;stroke-width:6;stroke-miterlimit:10;" cx="1115.631" cy="484.149" r="75"/>
	<g>
		<path d="M1246.945,504.895v-56.252h10.168v23.452h22.714v-23.452h10.168v56.252h-10.086v-24.6h-22.714v24.6H1246.945z"/>
		<path d="M1306.642,520.147c-1.259,0-2.419-0.096-3.485-0.287c-1.066-0.192-2.064-0.479-2.993-0.861v-7.298
			c0.602,0.273,1.395,0.505,2.378,0.697c0.984,0.191,1.94,0.287,2.87,0.287c1.421,0,2.61-0.274,3.567-0.82
			c0.956-0.547,1.804-1.449,2.542-2.706c0.737-1.258,1.462-2.898,2.173-4.92l-16.4-41.246h10.25l10.742,29.438h0.492l10.414-29.438
			h9.43l-15.498,40.016c-1.203,3.17-2.529,6.054-3.977,8.651c-1.449,2.596-3.171,4.66-5.166,6.191
			C1311.984,519.381,1309.538,520.147,1306.642,520.147z"/>
		<path d="M1361.171,505.715c-3.171,0-6.067-0.766-8.691-2.296s-4.729-3.908-6.314-7.134c-1.586-3.225-2.378-7.352-2.378-12.382
			v-0.902c0-4.592,0.751-8.432,2.255-11.521c1.503-3.088,3.498-5.412,5.986-6.97c2.486-1.558,5.233-2.337,8.241-2.337
			c2.952,0,5.466,0.562,7.544,1.681c2.076,1.121,3.661,2.556,4.756,4.305v-22.304h9.512v59.04h-7.38l-1.148-5.658
			c-1.366,1.968-3.062,3.541-5.084,4.715S1364.013,505.715,1361.171,505.715z M1363.058,499.237c1.748,0,3.333-0.423,4.756-1.271
			c1.421-0.847,2.568-2.2,3.443-4.059c0.874-1.858,1.312-4.291,1.312-7.298v-5.822c0-2.678-0.424-4.906-1.271-6.683
			c-0.848-1.776-1.996-3.102-3.443-3.977c-1.449-0.874-3.049-1.312-4.797-1.312c-2.624,0-4.825,0.998-6.602,2.993
			c-1.777,1.996-2.665,4.989-2.665,8.979v5.74c0,3.007,0.41,5.44,1.23,7.298c0.819,1.859,1.927,3.226,3.32,4.1
			C1359.736,498.801,1361.307,499.237,1363.058,499.237z"/>
		<path d="M1394.216,504.895v-41.902h7.135l1.229,6.15c0.109-0.164,0.382-0.601,0.82-1.312c0.437-0.71,1.119-1.503,2.05-2.378
			c0.929-0.874,2.104-1.64,3.526-2.296c1.421-0.656,3.143-0.984,5.166-0.984c2.896,0,5.261,0.574,7.093,1.722
			c1.831,1.148,3.198,2.72,4.1,4.715c0.902,1.997,1.354,4.278,1.354,6.847c0,0.602-0.028,1.217-0.082,1.845
			c-0.056,0.629-0.11,1.162-0.164,1.599h-8.036v-1.64c0-1.148-0.219-2.323-0.656-3.526c-0.438-1.202-1.176-2.214-2.214-3.034
			c-1.039-0.82-2.488-1.23-4.346-1.23c-1.367,0-2.529,0.287-3.485,0.861c-0.957,0.574-1.736,1.299-2.337,2.173
			c-0.603,0.875-1.025,1.818-1.271,2.829c-0.246,1.012-0.369,1.955-0.369,2.829v26.732H1394.216z"/>
		<path d="M1445.629,505.715c-2.242,0-4.387-0.356-6.437-1.066c-2.051-0.71-3.731-1.927-5.043-3.649
			c-1.312-1.722-1.969-4.059-1.969-7.011c0-3.006,0.669-5.439,2.01-7.298c1.339-1.858,3.238-3.28,5.698-4.264
			c2.46-0.984,5.412-1.653,8.856-2.009c3.444-0.355,7.27-0.533,11.479-0.533v-3.936c0-2.733-0.696-4.66-2.091-5.781
			c-1.394-1.12-3.513-1.681-6.354-1.681c-2.352,0-4.429,0.521-6.232,1.558c-1.804,1.039-2.706,2.679-2.706,4.92v0.82h-9.184
			c-0.056-0.218-0.082-0.478-0.082-0.779c0-0.3,0-0.586,0-0.861c0-2.405,0.751-4.51,2.255-6.314
			c1.503-1.804,3.594-3.198,6.273-4.182c2.678-0.984,5.739-1.476,9.184-1.476h1.394c5.686,0,9.923,1.121,12.71,3.362
			c2.788,2.242,4.183,5.385,4.183,9.43v21.402c0,1.039,0.246,1.777,0.737,2.214c0.492,0.438,1.038,0.656,1.641,0.656
			c0.546,0,1.134-0.109,1.763-0.328c0.628-0.218,1.216-0.464,1.763-0.738v5.822c-0.711,0.547-1.612,0.97-2.705,1.271
			c-1.095,0.3-2.406,0.451-3.937,0.451c-1.804,0-3.294-0.328-4.469-0.984c-1.177-0.656-2.064-1.544-2.665-2.665
			c-0.603-1.12-0.957-2.391-1.066-3.813c-1.586,2.351-3.636,4.182-6.149,5.494C1451.97,505.059,1449.018,505.715,1445.629,505.715z
			 M1449.729,499.237c1.748,0,3.415-0.396,5.002-1.189c1.585-0.792,2.896-1.98,3.936-3.567c1.038-1.585,1.558-3.58,1.558-5.986
			v-3.198c-3.827,0-7.106,0.205-9.84,0.615c-2.734,0.41-4.811,1.162-6.231,2.255c-1.423,1.094-2.132,2.734-2.132,4.92
			c0,2.187,0.655,3.759,1.968,4.715C1445.301,498.76,1447.214,499.237,1449.729,499.237z"/>
		<path d="M1503.11,504.895v-56.252h10.167v23.452h22.714v-23.452h10.168v56.252h-10.086v-24.6h-22.714v24.6H1503.11z"/>
		<path d="M1576.008,505.715c-3.827,0-7.189-0.807-10.086-2.419c-2.898-1.612-5.153-3.977-6.766-7.093
			c-1.612-3.116-2.419-6.888-2.419-11.316v-1.886c0-4.428,0.861-8.2,2.583-11.316c1.723-3.116,4.072-5.48,7.053-7.093
			c2.979-1.612,6.382-2.419,10.209-2.419h1.065c3.553,0,6.669,0.726,9.349,2.173c2.678,1.449,4.756,3.513,6.231,6.191
			c1.477,2.679,2.214,5.822,2.214,9.43v5.166h-28.782c0,2.898,0.382,5.412,1.148,7.544c0.765,2.132,1.898,3.759,3.403,4.879
			c1.503,1.121,3.375,1.681,5.617,1.681c1.857,0,3.512-0.369,4.961-1.107c1.447-0.738,2.596-1.845,3.443-3.321
			c0.847-1.476,1.271-3.307,1.271-5.494h8.938c0,3.28-0.819,6.15-2.46,8.61c-1.64,2.46-3.854,4.375-6.642,5.74
			s-5.959,2.05-9.512,2.05H1576.008z M1566.741,479.885h19.353c0-3.826-0.834-6.655-2.501-8.487
			c-1.668-1.831-3.95-2.747-6.847-2.747c-2.734,0-5.043,0.943-6.93,2.829C1567.931,473.366,1566.905,476.168,1566.741,479.885z"/>
		<path d="M1616.761,505.715c-2.242,0-4.387-0.356-6.437-1.066s-3.731-1.927-5.043-3.649c-1.312-1.722-1.968-4.059-1.968-7.011
			c0-3.006,0.668-5.439,2.009-7.298c1.339-1.858,3.239-3.28,5.699-4.264c2.46-0.984,5.412-1.653,8.855-2.009
			c3.444-0.355,7.27-0.533,11.48-0.533v-3.936c0-2.733-0.697-4.66-2.092-5.781c-1.394-1.12-3.513-1.681-6.354-1.681
			c-2.352,0-4.428,0.521-6.232,1.558c-1.804,1.039-2.706,2.679-2.706,4.92v0.82h-9.184c-0.055-0.218-0.082-0.478-0.082-0.779
			c0-0.3,0-0.586,0-0.861c0-2.405,0.751-4.51,2.255-6.314c1.503-1.804,3.594-3.198,6.273-4.182c2.678-0.984,5.74-1.476,9.184-1.476
			h1.395c5.685,0,9.922,1.121,12.71,3.362c2.788,2.242,4.182,5.385,4.182,9.43v21.402c0,1.039,0.246,1.777,0.738,2.214
			c0.492,0.438,1.037,0.656,1.64,0.656c0.546,0,1.134-0.109,1.763-0.328c0.628-0.218,1.217-0.464,1.764-0.738v5.822
			c-0.711,0.547-1.613,0.97-2.706,1.271c-1.095,0.3-2.406,0.451-3.937,0.451c-1.804,0-3.294-0.328-4.469-0.984
			c-1.176-0.656-2.064-1.544-2.665-2.665c-0.603-1.12-0.957-2.391-1.065-3.813c-1.587,2.351-3.637,4.182-6.15,5.494
			C1623.102,505.059,1620.15,505.715,1616.761,505.715z M1620.861,499.237c1.749,0,3.416-0.396,5.002-1.189
			c1.585-0.792,2.896-1.98,3.936-3.567c1.038-1.585,1.559-3.58,1.559-5.986v-3.198c-3.827,0-7.107,0.205-9.84,0.615
			c-2.734,0.41-4.812,1.162-6.232,2.255c-1.422,1.094-2.132,2.734-2.132,4.92c0,2.187,0.656,3.759,1.968,4.715
			C1616.434,498.76,1618.346,499.237,1620.861,499.237z"/>
		<path d="M1670.799,505.715c-3.172,0-6.068-0.766-8.692-2.296s-4.729-3.908-6.314-7.134c-1.586-3.225-2.378-7.352-2.378-12.382
			v-0.902c0-4.592,0.751-8.432,2.255-11.521c1.503-3.088,3.498-5.412,5.986-6.97c2.487-1.558,5.234-2.337,8.241-2.337
			c2.952,0,5.466,0.562,7.544,1.681c2.077,1.121,3.662,2.556,4.756,4.305v-22.304h9.512v59.04h-7.38l-1.147-5.658
			c-1.367,1.968-3.062,3.541-5.084,4.715C1676.073,505.127,1673.641,505.715,1670.799,505.715z M1672.685,499.237
			c1.749,0,3.334-0.423,4.756-1.271c1.421-0.847,2.569-2.2,3.444-4.059c0.873-1.858,1.312-4.291,1.312-7.298v-5.822
			c0-2.678-0.424-4.906-1.271-6.683c-0.849-1.776-1.996-3.102-3.444-3.977c-1.449-0.874-3.048-1.312-4.797-1.312
			c-2.624,0-4.825,0.998-6.602,2.993c-1.776,1.996-2.665,4.989-2.665,8.979v5.74c0,3.007,0.41,5.44,1.23,7.298
			c0.82,1.859,1.927,3.226,3.321,4.1C1669.363,498.801,1670.935,499.237,1672.685,499.237z"/>
		<path d="M1721.883,519.737v-56.744h7.298l1.229,5.658c1.312-1.968,3.034-3.539,5.166-4.715c2.132-1.175,4.619-1.763,7.462-1.763
			c3.17,0,6.04,0.697,8.61,2.091c2.569,1.394,4.619,3.636,6.15,6.724c1.529,3.089,2.296,7.148,2.296,12.177v1.722
			c0,4.538-0.738,8.364-2.214,11.48c-1.477,3.116-3.458,5.453-5.945,7.011c-2.488,1.558-5.235,2.337-8.241,2.337
			c-2.952,0-5.453-0.561-7.503-1.681c-2.05-1.12-3.622-2.555-4.715-4.305v20.008H1721.883z M1740.906,499.073
			c1.749,0,3.321-0.451,4.715-1.353c1.395-0.902,2.487-2.241,3.28-4.018c0.792-1.776,1.189-3.977,1.189-6.601v-5.74
			c0-3.006-0.397-5.439-1.189-7.298c-0.793-1.858-1.886-3.225-3.28-4.1c-1.394-0.874-2.966-1.312-4.715-1.312
			c-1.695,0-3.267,0.424-4.715,1.271c-1.449,0.848-2.611,2.187-3.485,4.018c-0.875,1.832-1.312,4.278-1.312,7.339v5.822
			c0,2.679,0.423,4.907,1.271,6.683c0.848,1.777,1.995,3.103,3.444,3.977C1737.558,498.636,1739.156,499.073,1740.906,499.073z"/>
		<path d="M1781.331,505.715c-2.242,0-4.387-0.356-6.437-1.066s-3.731-1.927-5.043-3.649c-1.312-1.722-1.968-4.059-1.968-7.011
			c0-3.006,0.668-5.439,2.009-7.298c1.339-1.858,3.239-3.28,5.699-4.264c2.46-0.984,5.412-1.653,8.855-2.009
			c3.444-0.355,7.27-0.533,11.48-0.533v-3.936c0-2.733-0.697-4.66-2.092-5.781c-1.394-1.12-3.513-1.681-6.354-1.681
			c-2.352,0-4.428,0.521-6.232,1.558c-1.804,1.039-2.706,2.679-2.706,4.92v0.82h-9.184c-0.055-0.218-0.082-0.478-0.082-0.779
			c0-0.3,0-0.586,0-0.861c0-2.405,0.751-4.51,2.255-6.314c1.503-1.804,3.594-3.198,6.273-4.182c2.678-0.984,5.74-1.476,9.184-1.476
			h1.395c5.685,0,9.922,1.121,12.71,3.362c2.788,2.242,4.182,5.385,4.182,9.43v21.402c0,1.039,0.246,1.777,0.738,2.214
			c0.492,0.438,1.037,0.656,1.64,0.656c0.546,0,1.134-0.109,1.763-0.328c0.628-0.218,1.217-0.464,1.764-0.738v5.822
			c-0.711,0.547-1.613,0.97-2.706,1.271c-1.095,0.3-2.406,0.451-3.937,0.451c-1.804,0-3.294-0.328-4.469-0.984
			c-1.176-0.656-2.064-1.544-2.665-2.665c-0.603-1.12-0.957-2.391-1.065-3.813c-1.587,2.351-3.637,4.182-6.15,5.494
			C1787.672,505.059,1784.721,505.715,1781.331,505.715z M1785.432,499.237c1.749,0,3.416-0.396,5.002-1.189
			c1.585-0.792,2.896-1.98,3.936-3.567c1.038-1.585,1.559-3.58,1.559-5.986v-3.198c-3.827,0-7.107,0.205-9.84,0.615
			c-2.734,0.41-4.812,1.162-6.232,2.255c-1.422,1.094-2.132,2.734-2.132,4.92c0,2.187,0.656,3.759,1.968,4.715
			C1781.004,498.76,1782.916,499.237,1785.432,499.237z"/>
		<path d="M1819.789,504.895v-41.902h7.134l1.229,6.15c0.109-0.164,0.382-0.601,0.82-1.312c0.437-0.71,1.12-1.503,2.05-2.378
			c0.929-0.874,2.104-1.64,3.526-2.296c1.421-0.656,3.143-0.984,5.166-0.984c2.896,0,5.261,0.574,7.093,1.722
			c1.831,1.148,3.198,2.72,4.1,4.715c0.902,1.997,1.354,4.278,1.354,6.847c0,0.602-0.028,1.217-0.082,1.845
			c-0.055,0.629-0.11,1.162-0.164,1.599h-8.036v-1.64c0-1.148-0.219-2.323-0.656-3.526c-0.438-1.202-1.176-2.214-2.214-3.034
			c-1.039-0.82-2.488-1.23-4.346-1.23c-1.367,0-2.529,0.287-3.485,0.861c-0.957,0.574-1.735,1.299-2.337,2.173
			c-0.602,0.875-1.024,1.818-1.271,2.829c-0.246,1.012-0.369,1.955-0.369,2.829v26.732H1819.789z"/>
		<path d="M1873.416,505.715c-2.188,0-4.142-0.328-5.863-0.984c-1.723-0.656-3.062-1.735-4.019-3.239
			c-0.957-1.503-1.435-3.485-1.435-5.945v-25.256h-4.592v-7.298h4.838l3.362-13.366h5.903v13.366h9.758v7.298h-9.758v23.37
			c0,2.406,0.492,3.936,1.477,4.592c0.983,0.656,2.05,0.984,3.197,0.984c0.602,0,1.436-0.136,2.501-0.41
			c1.066-0.273,1.928-0.546,2.583-0.82v6.15c-0.655,0.328-1.448,0.615-2.378,0.861s-1.886,0.423-2.87,0.533
			C1875.138,505.66,1874.235,505.715,1873.416,505.715z"/>
		<path d="M1895.637,520.147c-1.258,0-2.419-0.096-3.485-0.287c-1.065-0.192-2.063-0.479-2.993-0.861v-7.298
			c0.602,0.273,1.395,0.505,2.379,0.697c0.983,0.191,1.939,0.287,2.869,0.287c1.421,0,2.61-0.274,3.567-0.82
			c0.956-0.547,1.804-1.449,2.542-2.706c0.738-1.258,1.462-2.898,2.173-4.92l-16.399-41.246h10.25l10.741,29.438h0.492
			l10.414-29.438h9.43l-15.497,40.016c-1.203,3.17-2.529,6.054-3.978,8.651c-1.449,2.596-3.171,4.66-5.166,6.191
			C1900.979,519.381,1898.533,520.147,1895.637,520.147z"/>
	</g>
	<g>
		<path d="M2303.208,504.895v-59.04h9.513v22.632c1.529-2.077,3.402-3.649,5.616-4.715c2.215-1.066,4.578-1.599,7.094-1.599
			c2.788,0,5.261,0.547,7.421,1.64c2.159,1.094,3.866,2.693,5.125,4.797c1.257,2.105,1.886,4.688,1.886,7.749v28.536h-9.512v-26.814
			c0-3.116-0.738-5.343-2.214-6.683c-1.477-1.339-3.499-2.009-6.068-2.009c-1.695,0-3.253,0.424-4.674,1.271
			c-1.422,0.848-2.557,1.982-3.403,3.403c-0.848,1.422-1.271,3.034-1.271,4.838v25.994H2303.208z"/>
		<path d="M2356.181,520.147c-1.259,0-2.419-0.096-3.485-0.287c-1.066-0.192-2.064-0.479-2.993-0.861v-7.298
			c0.602,0.273,1.395,0.505,2.378,0.697c0.984,0.191,1.94,0.287,2.87,0.287c1.421,0,2.61-0.274,3.567-0.82
			c0.956-0.547,1.804-1.449,2.542-2.706c0.737-1.258,1.462-2.898,2.173-4.92l-16.4-41.246h10.25l10.742,29.438h0.492l10.414-29.438
			h9.43l-15.498,40.016c-1.203,3.17-2.529,6.054-3.977,8.651c-1.449,2.596-3.171,4.66-5.166,6.191
			C2361.523,519.381,2359.077,520.147,2356.181,520.147z"/>
		<path d="M2410.711,505.715c-3.171,0-6.068-0.766-8.692-2.296s-4.729-3.908-6.313-7.134c-1.587-3.225-2.378-7.352-2.378-12.382
			v-0.902c0-4.592,0.75-8.432,2.255-11.521c1.503-3.088,3.497-5.412,5.985-6.97c2.487-1.558,5.234-2.337,8.241-2.337
			c2.952,0,5.466,0.562,7.544,1.681c2.077,1.121,3.662,2.556,4.756,4.305v-22.304h9.513v59.04h-7.38l-1.148-5.658
			c-1.367,1.968-3.062,3.541-5.084,4.715C2415.985,505.127,2413.553,505.715,2410.711,505.715z M2412.597,499.237
			c1.749,0,3.334-0.423,4.756-1.271c1.421-0.847,2.569-2.2,3.444-4.059c0.874-1.858,1.312-4.291,1.312-7.298v-5.822
			c0-2.678-0.424-4.906-1.271-6.683c-0.849-1.776-1.996-3.102-3.444-3.977c-1.449-0.874-3.048-1.312-4.797-1.312
			c-2.624,0-4.825,0.998-6.601,2.993c-1.777,1.996-2.665,4.989-2.665,8.979v5.74c0,3.007,0.41,5.44,1.229,7.298
			c0.82,1.859,1.927,3.226,3.321,4.1C2409.275,498.801,2410.847,499.237,2412.597,499.237z"/>
		<path d="M2443.755,504.895v-41.902h7.135l1.229,6.15c0.109-0.164,0.382-0.601,0.82-1.312c0.437-0.71,1.119-1.503,2.05-2.378
			c0.929-0.874,2.104-1.64,3.526-2.296c1.421-0.656,3.143-0.984,5.166-0.984c2.896,0,5.261,0.574,7.093,1.722
			c1.831,1.148,3.198,2.72,4.1,4.715c0.902,1.997,1.354,4.278,1.354,6.847c0,0.602-0.028,1.217-0.082,1.845
			c-0.056,0.629-0.11,1.162-0.164,1.599h-8.036v-1.64c0-1.148-0.219-2.323-0.656-3.526c-0.438-1.202-1.176-2.214-2.214-3.034
			c-1.039-0.82-2.488-1.23-4.346-1.23c-1.367,0-2.529,0.287-3.485,0.861c-0.957,0.574-1.736,1.299-2.337,2.173
			c-0.603,0.875-1.025,1.818-1.271,2.829c-0.246,1.012-0.369,1.955-0.369,2.829v26.732H2443.755z"/>
		<path d="M2495.169,505.715c-2.242,0-4.388-0.356-6.438-1.066s-3.73-1.927-5.043-3.649c-1.312-1.722-1.968-4.059-1.968-7.011
			c0-3.006,0.669-5.439,2.009-7.298c1.339-1.858,3.239-3.28,5.699-4.264c2.46-0.984,5.412-1.653,8.855-2.009
			c3.444-0.355,7.271-0.533,11.48-0.533v-3.936c0-2.733-0.697-4.66-2.091-5.781c-1.395-1.12-3.514-1.681-6.355-1.681
			c-2.351,0-4.428,0.521-6.231,1.558c-1.805,1.039-2.706,2.679-2.706,4.92v0.82h-9.185c-0.055-0.218-0.082-0.478-0.082-0.779
			c0-0.3,0-0.586,0-0.861c0-2.405,0.751-4.51,2.255-6.314c1.503-1.804,3.595-3.198,6.273-4.182c2.678-0.984,5.74-1.476,9.184-1.476
			h1.395c5.685,0,9.922,1.121,12.71,3.362c2.788,2.242,4.182,5.385,4.182,9.43v21.402c0,1.039,0.246,1.777,0.738,2.214
			c0.492,0.438,1.038,0.656,1.64,0.656c0.546,0,1.134-0.109,1.764-0.328c0.628-0.218,1.216-0.464,1.763-0.738v5.822
			c-0.711,0.547-1.613,0.97-2.706,1.271c-1.094,0.3-2.406,0.451-3.936,0.451c-1.805,0-3.295-0.328-4.47-0.984
			c-1.176-0.656-2.063-1.544-2.665-2.665c-0.602-1.12-0.957-2.391-1.065-3.813c-1.586,2.351-3.637,4.182-6.15,5.494
			C2501.51,505.059,2498.558,505.715,2495.169,505.715z M2499.269,499.237c1.749,0,3.416-0.396,5.002-1.189
			c1.585-0.792,2.897-1.98,3.937-3.567c1.037-1.585,1.558-3.58,1.558-5.986v-3.198c-3.827,0-7.107,0.205-9.84,0.615
			c-2.734,0.41-4.812,1.162-6.232,2.255c-1.422,1.094-2.132,2.734-2.132,4.92c0,2.187,0.656,3.759,1.968,4.715
			C2494.841,498.76,2496.754,499.237,2499.269,499.237z"/>
		<path d="M2532.478,486.937v-8.528h20.828v8.528H2532.478z"/>
		<path d="M2564.293,504.895v-41.902h6.971l1.229,6.15c1.585-2.296,3.554-4.031,5.904-5.207c2.35-1.175,4.974-1.763,7.872-1.763
			c2.896,0,5.438,0.547,7.626,1.64c2.186,1.094,3.896,2.693,5.125,4.797c1.23,2.105,1.845,4.688,1.845,7.749v28.536h-9.512v-26.814
			c0-3.116-0.726-5.343-2.173-6.683c-1.449-1.339-3.458-2.009-6.027-2.009c-1.695,0-3.253,0.424-4.674,1.271
			c-1.422,0.848-2.556,1.982-3.403,3.403c-0.848,1.422-1.271,3.034-1.271,4.838v25.994H2564.293z"/>
		<path d="M2630.795,505.715c-3.719,0-7.052-0.847-10.004-2.542c-2.952-1.694-5.263-4.127-6.93-7.298
			c-1.668-3.17-2.501-6.915-2.501-11.234v-1.394c0-4.373,0.833-8.131,2.501-11.275c1.667-3.143,3.963-5.562,6.889-7.257
			c2.924-1.694,6.244-2.542,9.963-2.542h1.312c3.772,0,7.12,0.848,10.045,2.542c2.924,1.695,5.22,4.114,6.889,7.257
			c1.667,3.144,2.501,6.902,2.501,11.275v1.394c0,4.319-0.834,8.064-2.501,11.234c-1.669,3.171-3.965,5.604-6.889,7.298
			c-2.925,1.695-6.246,2.542-9.963,2.542H2630.795z M2631.369,499.237c1.912,0,3.62-0.451,5.125-1.353
			c1.503-0.902,2.705-2.255,3.607-4.059c0.902-1.804,1.354-3.99,1.354-6.56v-6.642c0-2.624-0.451-4.824-1.354-6.601
			c-0.902-1.776-2.104-3.116-3.607-4.018c-1.505-0.902-3.213-1.353-5.125-1.353c-1.859,0-3.541,0.451-5.044,1.353
			c-1.504,0.902-2.705,2.242-3.607,4.018c-0.902,1.777-1.354,3.977-1.354,6.601v6.642c0,2.57,0.451,4.756,1.354,6.56
			c0.902,1.804,2.104,3.157,3.607,4.059C2627.828,498.786,2629.51,499.237,2631.369,499.237z"/>
		<path d="M2677.37,505.715c-3.172,0-6.068-0.766-8.692-2.296s-4.729-3.908-6.314-7.134c-1.586-3.225-2.378-7.352-2.378-12.382
			v-0.902c0-4.592,0.751-8.432,2.255-11.521c1.503-3.088,3.498-5.412,5.986-6.97c2.487-1.558,5.234-2.337,8.241-2.337
			c2.952,0,5.466,0.562,7.544,1.681c2.077,1.121,3.662,2.556,4.756,4.305v-22.304h9.512v59.04h-7.38l-1.147-5.658
			c-1.367,1.968-3.062,3.541-5.084,4.715C2682.645,505.127,2680.212,505.715,2677.37,505.715z M2679.256,499.237
			c1.749,0,3.334-0.423,4.756-1.271c1.421-0.847,2.569-2.2,3.444-4.059c0.873-1.858,1.312-4.291,1.312-7.298v-5.822
			c0-2.678-0.424-4.906-1.271-6.683c-0.849-1.776-1.996-3.102-3.444-3.977c-1.449-0.874-3.048-1.312-4.797-1.312
			c-2.624,0-4.825,0.998-6.602,2.993c-1.776,1.996-2.665,4.989-2.665,8.979v5.74c0,3.007,0.41,5.44,1.23,7.298
			c0.82,1.859,1.927,3.226,3.321,4.1C2675.935,498.801,2677.506,499.237,2679.256,499.237z"/>
		<path d="M2727.799,505.715c-3.827,0-7.189-0.807-10.086-2.419c-2.898-1.612-5.153-3.977-6.766-7.093
			c-1.612-3.116-2.419-6.888-2.419-11.316v-1.886c0-4.428,0.861-8.2,2.583-11.316c1.723-3.116,4.072-5.48,7.053-7.093
			c2.979-1.612,6.382-2.419,10.209-2.419h1.065c3.553,0,6.669,0.726,9.349,2.173c2.678,1.449,4.756,3.513,6.231,6.191
			c1.477,2.679,2.214,5.822,2.214,9.43v5.166h-28.782c0,2.898,0.382,5.412,1.148,7.544c0.765,2.132,1.898,3.759,3.403,4.879
			c1.503,1.121,3.375,1.681,5.617,1.681c1.857,0,3.512-0.369,4.961-1.107c1.447-0.738,2.596-1.845,3.443-3.321
			c0.847-1.476,1.271-3.307,1.271-5.494h8.938c0,3.28-0.819,6.15-2.46,8.61c-1.64,2.46-3.854,4.375-6.642,5.74
			s-5.959,2.05-9.512,2.05H2727.799z M2718.532,479.885h19.353c0-3.826-0.834-6.655-2.501-8.487
			c-1.668-1.831-3.95-2.747-6.847-2.747c-2.734,0-5.043,0.943-6.93,2.829C2719.722,473.366,2718.696,476.168,2718.532,479.885z"/>
	</g>
	<path style="fill:#FFFFFF;stroke:#000000;stroke-width:6;stroke-miterlimit:10;" d="M2229.901,559.149h-114c-9.9,0-18-8.1-18-18
		v-114c0-9.9,8.1-18,18-18h114c9.9,0,18,8.1,18,18v114C2247.901,551.049,2239.801,559.149,2229.901,559.149z"/>
</g>
</svg>
