<?xml version="1.0" encoding="iso-8859-1"?>
<!-- Generator: Adobe Illustrator 29.6.0, SVG Export Plug-In . SVG Version: 9.03 Build 0)  -->
<svg version="1.1" xmlns="http://www.w3.org/2000/svg" xmlns:xlink="http://www.w3.org/1999/xlink" x="0px" y="0px"
	 viewBox="0 0 2774 2790" style="enable-background:new 0 0 2774 2790;" xml:space="preserve">
<g id="Fill">
	
		<line style="fill:none;stroke:#FF5553;stroke-width:12;stroke-miterlimit:10;" x1="1466.108" y1="1147.728" x2="292.907" y2="981.63"/>
	
		<line style="fill:none;stroke:#FF5553;stroke-width:12;stroke-miterlimit:10;" x1="1485.031" y1="1248.649" x2="337.059" y2="1364.287"/>
	
		<line style="fill:none;stroke:#FF5553;stroke-width:12;stroke-miterlimit:10;" x1="1562.823" y1="1347.467" x2="1089.212" y2="1520.892"/>
	
		<line style="fill:none;stroke:#FF5553;stroke-width:12;stroke-miterlimit:10;" x1="2317.625" y1="2473.887" x2="2207.243" y2="1486.758"/>
	
		<line style="fill:none;stroke:#FF5553;stroke-width:12;stroke-miterlimit:10;" x1="1114.463" y1="2372.967" x2="1653.757" y2="1456.797"/>
	
		<line style="fill:none;stroke:#FF5553;stroke-width:12;stroke-miterlimit:10;" x1="1778.331" y1="1983.476" x2="1936.019" y2="1450.49"/>
	<path style="fill:#FF5553;" d="M2685.245,1153.959c-21.712-31-53.336-53.901-89.18-65.166c1.341-12.692,1.452-25.548,0.251-38.346
		c-4.722-50.071-29.379-97.109-67.667-129.654c-14.086-9.101-28.16-18.208-42.24-27.304
		c-32.253-15.071-66.116-21.042-101.576-17.916c-16.348,3.743-32.69,7.48-49.038,11.211c-19.363,7.288-36.906,17.176-52.677,29.612
		c-5.486-6.151-11.38-11.964-17.689-17.334c-13.136-8.488-26.271-16.972-39.395-25.467c-30.084-14.051-61.655-19.613-94.731-16.698
		c-15.246,3.481-30.487,6.967-45.727,10.454c-29.483,11.084-54.484,28.58-75.012,52.456c-17.415-21.555-39.681-39.407-66.233-51.336
		c-22.102-9.929-45.581-18.05-69.432-22.277c-24.039-4.256-49.237-3.423-73.719-2.723c-16.232,3.714-32.475,7.428-48.718,11.142
		c-31.489,11.847-58.192,30.545-80.097,56.088c-27.898,32.824-43.844,74.657-45.546,117.469
		c-13.094-1.918-26.452-2.361-40.089-1.154c-14.115,3.224-28.236,6.454-42.346,9.678c-27.385,10.302-50.589,26.551-69.625,48.753
		c-29.046,34.177-43.261,79.561-39.051,124.209c4.075,43.238,25.362,83.863,58.437,111.971c5.294,3.428,10.594,6.856,15.893,10.278
		c-0.28,6.746-0.152,13.521,0.484,20.284c3.679,38.975,22.867,75.596,52.682,100.935c10.961,7.09,21.916,14.173,32.884,21.257
		c25.111,11.736,51.469,16.383,79.082,13.946l38.171-8.734c6.174-2.32,12.115-4.979,17.823-7.976
		c5.154,5.609,10.628,10.955,16.459,15.911c13.661,8.828,27.321,17.661,40.981,26.493c31.297,14.623,64.151,20.412,98.561,17.38
		c15.859-3.626,31.717-7.253,47.576-10.885c28.073-10.552,52.199-26.749,72.465-48.45c1.189,1.056,2.344,2.146,3.556,3.172
		c14.08,9.101,28.154,18.208,42.235,27.309c32.253,15.065,66.115,21.042,101.582,17.911c16.342-3.737,32.685-7.475,49.027-11.212
		c2.956-1.113,5.825-2.343,8.693-3.574c6.792,4.396,13.591,8.786,20.389,13.182c33.722,15.754,69.124,21.992,106.193,18.727
		c17.083-3.912,34.177-7.818,51.26-11.724c33.139-12.459,61.241-32.136,84.289-59.021c10.862-12.774,19.992-26.854,27.303-41.797
		c2.291,0.501,4.589,0.991,6.915,1.399c15.194,0.624,30.388,1.242,45.576,1.866c29.781-2.95,56.951-12.966,81.502-30.037
		l7.451-5.702c10.804-9.836,21.602-19.66,32.405-29.495c19.904-23.625,32.579-50.654,38.048-81.094
		C2721.486,1237.408,2711.189,1191.011,2685.245,1153.959z"/>
	<g id="Layer_1-2_00000029736237288899047350000002102549442864370064_">
		<path style="fill:#FFFFFF;" d="M1631.241,1207.868c-0.46,8.017,5.661,14.891,13.678,15.36h0.793
			c8.019-0.009,14.512-6.516,14.503-14.535c-0.009-8.019-6.516-14.512-14.535-14.503c-7.689,0.008-14.038,6.01-14.479,13.686
			L1631.241,1207.868z"/>
		<path style="fill:#FFFFFF;" d="M1577.101,1204.186c-2.586-0.145-4.799,1.834-4.944,4.419c-0.145,2.586,1.834,4.799,4.42,4.944
			c2.583,0.145,4.795-1.83,4.943-4.412c0.153-2.581-1.815-4.797-4.396-4.949C1577.116,1204.187,1577.108,1204.187,1577.101,1204.186
			z"/>
		<path style="fill:#FFFFFF;" d="M1630.321,1123.603c2.307-1.185,3.218-4.016,2.032-6.324c-1.185-2.307-4.016-3.217-6.324-2.032
			c-2.29,1.176-3.206,3.975-2.056,6.278c1.165,2.322,3.993,3.26,6.315,2.095C1630.3,1123.613,1630.31,1123.608,1630.321,1123.603z"
			/>
		<path style="fill:#FFFFFF;" d="M1645.054,1149.292c3.576-1.804,5.012-6.165,3.208-9.74s-6.165-5.012-9.74-3.208
			c-3.574,1.803-5.011,6.16-3.211,9.736c1.801,3.577,6.161,5.017,9.738,3.216
			C1645.051,1149.294,1645.052,1149.293,1645.054,1149.292z"/>
		<path style="fill:#FFFFFF;" d="M1595.475,1166.961c2.757,1.813,6.461,1.048,8.274-1.709c1.813-2.757,1.048-6.461-1.709-8.274
			c-2.757-1.813-6.461-1.048-8.274,1.709c-0.001,0.002-0.003,0.005-0.005,0.007
			C1591.955,1161.45,1592.721,1165.15,1595.475,1166.961z"/>
		<path style="fill:#FFFFFF;" d="M1604.306,1201.544c-3.999-0.226-7.423,2.833-7.648,6.831c-0.226,3.999,2.833,7.423,6.831,7.649
			c3.995,0.225,7.418-2.829,7.648-6.824C1611.362,1205.201,1608.305,1201.774,1604.306,1201.544z"/>
		<path style="fill:#FFFFFF;" d="M1596.269,1250.297c-2.945,1.488-4.125,5.082-2.637,8.027c1.488,2.945,5.082,4.125,8.027,2.637
			c2.943-1.487,4.124-5.078,2.64-8.022c-1.486-2.946-5.078-4.13-8.024-2.644C1596.272,1250.296,1596.271,1250.297,1596.269,1250.297
			z"/>
		<path style="fill:#FFFFFF;" d="M1624.458,1186.557c3.943,2.584,9.235,1.483,11.819-2.461c2.584-3.943,1.483-9.235-2.461-11.819
			c-3.943-2.584-9.233-1.483-11.818,2.459c-2.587,3.937-1.492,9.225,2.444,11.811
			C1624.448,1186.551,1624.453,1186.554,1624.458,1186.557z"/>
		<path style="fill:#FFFFFF;" d="M1713.888,1148.721c3.358,2.19,7.856,1.244,10.046-2.114s1.244-7.856-2.114-10.046
			c-3.356-2.189-7.85-1.245-10.042,2.108c-2.195,3.35-1.259,7.845,2.091,10.04
			C1713.875,1148.713,1713.881,1148.717,1713.888,1148.721z"/>
		<path style="fill:#FFFFFF;" d="M1728.771,1123.111c2.169,1.422,5.081,0.816,6.503-1.353c1.422-2.169,0.816-5.081-1.353-6.503
			c-2.17-1.422-5.081-0.816-6.503,1.353c-0.001,0.002-0.002,0.003-0.003,0.005
			C1725.997,1118.782,1726.604,1121.69,1728.771,1123.111z"/>
		<path style="fill:#FFFFFF;" d="M1715.03,1194.047c-8.008-0.46-14.872,5.658-15.332,13.666c-0.46,8.008,5.658,14.872,13.666,15.332
			l0,0c0.278,0,0.563,0,0.841,0c8.019-0.004,14.516-6.507,14.512-14.526c-0.002-3.565-1.315-7.005-3.69-9.664
			C1722.474,1195.976,1718.872,1194.244,1715.03,1194.047z"/>
		<path style="fill:#FFFFFF;" d="M1649.822,1185.55c2.459,4.912,7.487,8.007,12.98,7.989c8.023,0.002,14.528-6.501,14.53-14.524
			c0-2.281-0.536-4.53-1.566-6.564c-2.475-4.889-7.5-7.96-12.98-7.934c-8.023,0.014-14.516,6.529-14.502,14.552
			C1648.288,1181.319,1648.814,1183.538,1649.822,1185.55z"/>
		<path style="fill:#FFFFFF;" d="M1763.672,1166.945c2.946-1.486,4.128-5.079,2.642-8.025c-1.486-2.946-5.079-4.129-8.025-2.642
			c-2.943,1.485-4.127,5.072-2.646,8.017C1757.13,1167.242,1760.723,1168.428,1763.672,1166.945z"/>
		<path style="fill:#FFFFFF;" d="M1726.851,1171.57c-4.211,2.121-5.905,7.254-3.784,11.464s7.254,5.905,11.464,3.784
			s5.905-7.254,3.784-11.464c-2.115-4.209-7.241-5.906-11.45-3.792C1726.861,1171.566,1726.856,1171.568,1726.851,1171.57z"/>
		<path style="fill:#FFFFFF;" d="M1679.423,1120.921c3.294,0.188,6.117-2.331,6.304-5.625c0.188-3.294-2.331-6.117-5.625-6.304
			c-3.294-0.188-6.117,2.331-6.304,5.625c0,0.002,0,0.003,0,0.005C1673.613,1117.914,1676.131,1120.733,1679.423,1120.921z"/>
		<path style="fill:#FFFFFF;" d="M1679.36,1158.519c4.707,0.264,8.737-3.338,9.001-8.046c0.264-4.707-3.338-8.737-8.046-9.001
			c-4.703-0.264-8.73,3.332-9,8.034C1671.049,1154.216,1674.65,1158.251,1679.36,1158.519z"/>
		<path style="fill:#FFFFFF;" d="M1633.106,1245.664c4.21-2.123,5.902-7.256,3.78-11.466c-2.122-4.21-7.256-5.902-11.466-3.78
			c-4.21,2.123-5.902,7.256-3.78,11.466c0,0.001,0.001,0.002,0.002,0.003C1623.765,1246.096,1628.897,1247.786,1633.106,1245.664z"
			/>
		<path style="fill:#FFFFFF;" d="M1684.874,1170.975c-4.395,6.707-2.521,15.707,4.186,20.101s15.707,2.521,20.101-4.186
			c4.395-6.707,2.521-15.707-4.186-20.101c-2.359-1.546-5.118-2.371-7.939-2.375
			C1692.135,1164.411,1687.562,1166.877,1684.874,1170.975z"/>
		<path style="fill:#FFFFFF;" d="M1710.119,1231.693c-3.61-7.16-12.342-10.037-19.501-6.426c-7.16,3.61-10.037,12.341-6.426,19.501
			c2.468,4.894,7.482,7.981,12.964,7.981c2.273-0.016,4.511-0.559,6.537-1.587
			C1710.83,1247.549,1713.703,1238.845,1710.119,1231.693z"/>
		<path style="fill:#FFFFFF;" d="M1735.491,1230.677c-3.941-2.587-9.234-1.49-11.821,2.452c-2.587,3.941-1.49,9.234,2.452,11.821
			c3.941,2.587,9.234,1.49,11.821-2.452C1740.521,1238.555,1739.425,1233.27,1735.491,1230.677z"/>
		<path style="fill:#FFFFFF;" d="M1763.291,1208.867c0.226-3.999-2.833-7.423-6.831-7.649c-3.999-0.226-7.423,2.833-7.649,6.831
			c-0.225,3.996,2.828,7.418,6.824,7.648C1759.635,1215.924,1763.061,1212.867,1763.291,1208.867z"/>
		<path style="fill:#FFFFFF;" d="M1783.38,1203.702c-2.59-0.149-4.81,1.829-4.959,4.419c-0.149,2.59,1.829,4.81,4.419,4.959
			c2.59,0.149,4.81-1.829,4.959-4.419c0,0,0,0,0,0C1787.943,1206.073,1785.967,1203.856,1783.38,1203.702z"/>
		<path style="fill:#FFFFFF;" d="M1764.466,1250.274c-2.76-1.808-6.463-1.036-8.271,1.724c-1.808,2.76-1.036,6.463,1.724,8.271
			c2.759,1.807,6.459,1.037,8.268-1.72c1.81-2.759,1.041-6.462-1.718-8.272C1764.468,1250.276,1764.467,1250.275,1764.466,1250.274z
			"/>
		<path style="fill:#FFFFFF;" d="M1631.178,1294.124c-2.169-1.423-5.081-0.819-6.504,1.35s-0.819,5.081,1.35,6.504
			c2.168,1.423,5.079,0.819,6.502-1.348c1.424-2.168,0.821-5.08-1.347-6.504C1631.179,1294.125,1631.178,1294.124,1631.178,1294.124
			z"/>
		<path style="fill:#FFFFFF;" d="M1729.62,1293.632c-2.316,1.168-3.248,3.992-2.08,6.308c1.167,2.316,3.992,3.248,6.308,2.08
			c2.316-1.168,3.248-3.992,2.08-6.308c0,0,0-0.001-0.001-0.001c-1.162-2.314-3.981-3.248-6.295-2.085
			C1729.629,1293.628,1729.625,1293.63,1729.62,1293.632z"/>
		<path style="fill:#FFFFFF;" d="M1675.068,1246.235c4.395-6.707,2.521-15.707-4.186-20.102c-6.707-4.395-15.707-2.521-20.101,4.186
			s-2.521,15.707,4.186,20.102c2.362,1.547,5.123,2.373,7.947,2.375C1667.815,1252.813,1672.391,1250.343,1675.068,1246.235z"/>
		<path style="fill:#FFFFFF;" d="M1646.053,1268.521c-3.351-2.193-7.846-1.253-10.038,2.099s-1.253,7.846,2.098,10.038
			c3.349,2.191,7.84,1.255,10.034-2.092C1650.341,1275.213,1649.403,1270.718,1646.053,1268.521z"/>
		<path style="fill:#FFFFFF;" d="M1679.907,1296.314c-3.294-0.187-6.116,2.331-6.304,5.625c-0.187,3.294,2.331,6.116,5.625,6.304
			c3.293,0.187,6.114-2.329,6.303-5.622c0.189-3.294-2.327-6.118-5.621-6.307C1679.91,1296.314,1679.908,1296.314,1679.907,1296.314
			z"/>
		<path style="fill:#FFFFFF;" d="M1679.971,1258.723c-4.706-0.286-8.753,3.297-9.039,8.003s3.297,8.753,8.003,9.039
			s8.753-3.297,9.039-8.003c0.001-0.011,0.001-0.023,0.002-0.034C1688.247,1263.033,1684.665,1259.004,1679.971,1258.723z"/>
		<path style="fill:#FFFFFF;" d="M1714.887,1267.942c-3.575,1.814-5.003,6.183-3.189,9.759c1.814,3.575,6.183,5.003,9.759,3.189
			c3.575-1.814,5.003-6.183,3.189-9.759c-0.003-0.005-0.005-0.01-0.008-0.016c-1.811-3.567-6.171-4.991-9.738-3.18
			C1714.896,1267.938,1714.891,1267.94,1714.887,1267.942z"/>
		<path style="fill:#FFFFFF;" d="M1875.103,1174.315c14.059,0,23.905,7.728,23.905,22.072h18.414
			c0-25.166-18.557-37.289-42.597-37.289c-29.53,0-46.683,16.034-46.683,49.92c0,34.726,17.153,49.912,46.683,49.912
			c24.325,0,42.597-11.806,42.597-36.979h-17.716c0,14.059-9.703,21.794-24.595,21.794c-19.549,0-28.562-10.83-28.562-33.322v-2.809
			C1846.565,1185.558,1855.696,1174.315,1875.103,1174.315z"/>
		<path style="fill:#FFFFFF;" d="M1966.111,1160.812l-37.543,96.459h18.565l7.727-20.953h44.12l7.934,20.953h19.406l-37.567-96.459
			H1966.111z M1960.486,1221.109l9.846-26.443c1.968-5.197,5.482-16.447,6.188-18.414h0.698c0.706,1.968,4.221,13.353,6.188,18.414
			l9.838,26.435L1960.486,1221.109z"/>
		<path style="fill:#FFFFFF;" d="M2126.715,1190.056c0-17.851-10.266-29.244-31.497-29.244h-50.903v96.459h18.002v-37.289h29.942
			l18.248,37.289h19.684l-20.628-40.074C2120.948,1212.699,2126.715,1203.139,2126.715,1190.056z M2093.806,1204.821h-31.489
			v-28.681h31.489c9.703,0,14.765,5.205,14.765,13.916C2108.571,1199.204,2103.088,1204.821,2093.806,1204.821z"/>
		<path style="fill:#FFFFFF;" d="M2189.853,1160.812h-38.542v96.459h38.527c29.101,0,46.81-15.185,46.81-48.23
			S2218.954,1160.812,2189.853,1160.812z M2218.256,1210.446c-0.143,21.096-10.124,31.497-28.403,31.497h-20.525v-65.803h20.525
			c18.248,0,28.403,10.409,28.403,31.497V1210.446z"/>
		<path style="fill:#FFFFFF;" d="M2283.805,1160.812l-37.559,96.459h18.557l7.736-20.953h44.152l7.87,20.953h19.406l-37.543-96.459
			H2283.805z M2278.18,1221.109l9.83-26.443c1.968-5.197,5.482-16.447,6.188-18.414h0.714c0.698,1.968,4.221,13.353,6.188,18.414
			l9.838,26.435L2278.18,1221.109z"/>
		<path style="fill:#FFFFFF;" d="M2426.248,1218.182c0,1.825,0.278,6.744,0.278,7.593l-0.698,0.278
			c-0.42-0.555-3.237-5.482-4.76-7.728l-41.898-57.512h-17.177v96.459h17.296v-57.79c0-2.38-0.286-7.029-0.286-7.735l0.706-0.42
			c0.42,0.563,2.531,4.641,4.76,7.878l42.184,58.068h16.867v-96.459h-17.288v57.369H2426.248z"/>
		<path style="fill:#FFFFFF;" d="M2515.218,1159.13c-30.228,0-48.507,16.026-48.507,49.912c0,33.885,18.248,49.912,48.507,49.912
			c30.26,0,48.65-16.026,48.65-49.912C2563.868,1175.156,2545.446,1159.13,2515.218,1159.13z M2545.446,1210.589
			c0,22.072-10.544,33.179-30.228,33.179c-19.541,0-30.085-11.107-30.085-33.179v-2.951c0-22.08,10.687-33.322,30.085-33.322
			c19.549,0,30.228,11.242,30.228,33.322V1210.589z"/>
	</g>
	
		<rect x="945.759" y="2415.047" style="fill:#88E8F2;stroke:#000000;stroke-width:6;stroke-miterlimit:10;" width="284.297" height="153.335"/>
	
		<rect x="2234.667" y="2577.269" style="fill:#88E8F2;stroke:#000000;stroke-width:6;stroke-miterlimit:10;" width="284.297" height="153.335"/>
	
		<rect x="2167.407" y="2515.523" style="fill:#88E8F2;stroke:#000000;stroke-width:6;stroke-miterlimit:10;" width="284.297" height="153.335"/>
	
		<rect x="829.28" y="845.049" style="fill:#C68BFF;stroke:#000000;stroke-width:6;stroke-miterlimit:10;" width="284.297" height="153.335"/>
	
		<rect x="239.946" y="1424.238" style="fill:#C68BFF;stroke:#000000;stroke-width:6;stroke-miterlimit:10;" width="284.297" height="153.335"/>
	
		<line style="fill:none;stroke:#88E8F2;stroke-width:12;stroke-miterlimit:10;" x1="1123.549" y1="2413.595" x2="1703.055" y2="2125.813"/>
	
		<rect x="878.5" y="2353.3" style="fill:#88E8F2;stroke:#000000;stroke-width:6;stroke-miterlimit:10;" width="284.297" height="153.335"/>
	
		<rect x="811.24" y="2291.554" style="fill:#88E8F2;stroke:#000000;stroke-width:6;stroke-miterlimit:10;" width="284.297" height="153.335"/>
	
		<line style="fill:none;stroke:#88E8F2;stroke-width:12;stroke-miterlimit:10;" x1="2254.965" y1="2492.439" x2="1855.073" y2="2116.986"/>
	
		<rect x="1672.335" y="1988.452" transform="matrix(0.7071 -0.7071 0.7071 0.7071 -960.9805 1872.9547)" style="fill:#3EC2CF;stroke:#231F20;stroke-width:7.096;stroke-miterlimit:10;" width="216.062" height="216.062"/>
	
		<line style="fill:none;stroke:#C68BFF;stroke-width:12;stroke-miterlimit:10;" x1="425.365" y1="1423.157" x2="903.686" y2="1581.897"/>
	
		<rect x="172.687" y="1362.492" style="fill:#C68BFF;stroke:#000000;stroke-width:6;stroke-miterlimit:10;" width="284.297" height="153.335"/>
	
		<rect x="105.427" y="1300.745" style="fill:#C68BFF;stroke:#000000;stroke-width:6;stroke-miterlimit:10;" width="284.297" height="153.335"/>
	
		<line style="fill:none;stroke:#C68BFF;stroke-width:12;stroke-miterlimit:10;" x1="310.778" y1="962.707" x2="967.813" y2="1503.053"/>
	
		<line style="fill:none;stroke:#C68BFF;stroke-width:12;stroke-miterlimit:10;" x1="861.636" y1="914.349" x2="1030.888" y2="1456.797"/>
	
		<rect x="762.021" y="783.302" style="fill:#C68BFF;stroke:#000000;stroke-width:6;stroke-miterlimit:10;" width="284.297" height="153.335"/>
	
		<rect x="919.372" y="1468.08" transform="matrix(0.7071 -0.7071 0.7071 0.7071 -813.5593 1188.1156)" style="fill:#9510AC;stroke:#231F20;stroke-width:7.096;stroke-miterlimit:10;" width="216.062" height="216.062"/>
	
		<rect x="2100.148" y="2453.776" style="fill:#88E8F2;stroke:#000000;stroke-width:6;stroke-miterlimit:10;" width="284.297" height="153.335"/>
	
		<line style="fill:none;stroke:#FF5553;stroke-width:12;stroke-miterlimit:10;" x1="1632.206" y1="1049.961" x2="940.48" y2="792.404"/>
	
		<rect x="699.307" y="721.556" style="fill:#C68BFF;stroke:#000000;stroke-width:6;stroke-miterlimit:10;" width="284.297" height="153.335"/>
	
		<rect x="57.796" y="900.315" style="fill:#C68BFF;stroke:#000000;stroke-width:6;stroke-miterlimit:10;" width="284.297" height="153.335"/>
</g>
<g id="Type">
	<g>
		<path d="M736.15,257.305V65.225h34.72v80.08h77.56v-80.08h34.72v192.08h-34.44v-84h-77.56v84H736.15z"/>
		<path d="M939.992,309.385c-4.296,0-8.26-0.328-11.9-0.98c-3.64-0.656-7.048-1.636-10.22-2.94v-24.92
			c2.052,0.932,4.76,1.724,8.12,2.38c3.36,0.652,6.624,0.98,9.8,0.98c4.852,0,8.912-0.937,12.18-2.8
			c3.264-1.868,6.16-4.948,8.68-9.24c2.52-4.296,4.992-9.896,7.42-16.8l-56-140.84h35l36.68,100.52h1.68l35.56-100.52h32.2
			l-52.92,136.64c-4.108,10.824-8.636,20.672-13.58,29.54c-4.948,8.864-10.828,15.912-17.64,21.14
			C958.235,306.769,949.883,309.385,939.992,309.385z"/>
		<path d="M1126.192,260.105c-10.828,0-20.72-2.616-29.68-7.84c-8.96-5.224-16.148-13.344-21.56-24.36
			c-5.417-11.012-8.12-25.104-8.12-42.28v-3.08c0-15.68,2.563-28.792,7.7-39.34c5.132-10.543,11.944-18.48,20.44-23.8
			c8.492-5.32,17.872-7.98,28.14-7.98c10.08,0,18.664,1.916,25.76,5.74c7.092,3.828,12.503,8.728,16.24,14.7v-76.16h32.48v201.6
			h-25.2l-3.92-19.32c-4.668,6.72-10.457,12.088-17.36,16.1C1144.204,258.097,1135.896,260.105,1126.192,260.105z M1132.632,237.985
			c5.972,0,11.384-1.444,16.24-4.34c4.852-2.892,8.772-7.512,11.76-13.86c2.984-6.344,4.48-14.652,4.48-24.92v-19.88
			c0-9.144-1.448-16.752-4.34-22.82c-2.896-6.063-6.816-10.592-11.76-13.58c-4.948-2.983-10.408-4.48-16.38-4.48
			c-8.96,0-16.476,3.408-22.54,10.22c-6.068,6.816-9.1,17.036-9.1,30.66v19.6c0,10.269,1.4,18.577,4.2,24.92
			c2.8,6.348,6.58,11.016,11.34,14C1121.292,236.493,1126.656,237.985,1132.632,237.985z"/>
		<path d="M1239.028,257.305v-143.08h24.36l4.2,21c0.372-0.56,1.304-2.052,2.8-4.48c1.492-2.424,3.824-5.132,7-8.12
			c3.172-2.983,7.184-5.6,12.04-7.84c4.852-2.24,10.732-3.36,17.64-3.36c9.892,0,17.964,1.96,24.22,5.88
			c6.252,3.92,10.92,9.288,14,16.1c3.08,6.816,4.62,14.608,4.62,23.38c0,2.056-0.096,4.156-0.28,6.3
			c-0.188,2.148-0.376,3.968-0.56,5.46h-27.44v-5.6c0-3.92-0.748-7.932-2.24-12.04c-1.496-4.104-4.016-7.56-7.56-10.36
			c-3.548-2.8-8.496-4.2-14.84-4.2c-4.668,0-8.636,0.98-11.9,2.94c-3.268,1.96-5.928,4.436-7.98,7.42
			c-2.056,2.988-3.5,6.208-4.34,9.66c-0.84,3.456-1.26,6.676-1.26,9.66v91.28H1239.028z"/>
		<path d="M1414.585,260.105c-7.656,0-14.98-1.216-21.98-3.64c-7-2.424-12.739-6.58-17.22-12.46c-4.48-5.88-6.72-13.86-6.72-23.94
			c0-10.264,2.284-18.572,6.86-24.92c4.572-6.344,11.06-11.2,19.459-14.56c8.4-3.36,18.48-5.644,30.24-6.86
			c11.76-1.212,24.824-1.82,39.2-1.82v-13.44c0-9.332-2.38-15.912-7.14-19.74c-4.761-3.824-11.997-5.74-21.7-5.74
			c-8.028,0-15.12,1.776-21.28,5.32c-6.16,3.548-9.24,9.148-9.24,16.8v2.8h-31.359c-0.188-0.744-0.28-1.632-0.28-2.66
			c0-1.024,0-2.004,0-2.94c0-8.212,2.564-15.4,7.7-21.56c5.132-6.16,12.271-10.92,21.42-14.28c9.144-3.36,19.6-5.04,31.359-5.04
			h4.761c19.411,0,33.88,3.828,43.399,11.48c9.521,7.656,14.28,18.388,14.28,32.2v73.08c0,3.548,0.84,6.068,2.521,7.56
			c1.68,1.496,3.543,2.24,5.6,2.24c1.863,0,3.872-0.372,6.02-1.12c2.145-0.744,4.152-1.584,6.021-2.52v19.88
			c-2.429,1.868-5.508,3.312-9.24,4.34c-3.736,1.024-8.216,1.54-13.439,1.54c-6.16,0-11.249-1.12-15.261-3.36
			c-4.016-2.24-7.048-5.272-9.1-9.1c-2.057-3.824-3.269-8.164-3.64-13.02c-5.417,8.028-12.417,14.28-21,18.76
			C1436.236,257.865,1426.156,260.105,1414.585,260.105z M1428.585,237.985c5.972,0,11.663-1.352,17.08-4.06
			c5.411-2.704,9.892-6.764,13.439-12.18c3.544-5.412,5.32-12.224,5.32-20.44v-10.92c-13.068,0-24.269,0.7-33.6,2.1
			c-9.337,1.4-16.429,3.968-21.28,7.7c-4.856,3.736-7.28,9.336-7.28,16.8c0,7.468,2.24,12.836,6.72,16.1
			C1413.465,236.353,1419.997,237.985,1428.585,237.985z"/>
		<path d="M1651.18,257.305v-165.2h-57.399v-26.88h149.521v26.88h-57.4v165.2H1651.18z"/>
		<path d="M1796.218,260.105c-7.656,0-14.979-1.216-21.979-3.64s-12.74-6.58-17.221-12.46c-4.479-5.88-6.72-13.86-6.72-23.94
			c0-10.264,2.284-18.572,6.86-24.92c4.571-6.344,11.06-11.2,19.46-14.56c8.399-3.36,18.479-5.644,30.239-6.86
			c11.761-1.212,24.824-1.82,39.2-1.82v-13.44c0-9.332-2.38-15.912-7.14-19.74c-4.76-3.824-11.996-5.74-21.7-5.74
			c-8.028,0-15.12,1.776-21.28,5.32c-6.16,3.548-9.239,9.148-9.239,16.8v2.8h-31.36c-0.188-0.744-0.28-1.632-0.28-2.66
			c0-1.024,0-2.004,0-2.94c0-8.212,2.563-15.4,7.7-21.56c5.132-6.16,12.271-10.92,21.42-14.28c9.144-3.36,19.6-5.04,31.36-5.04h4.76
			c19.412,0,33.88,3.828,43.4,11.48c9.52,7.656,14.279,18.388,14.279,32.2v73.08c0,3.548,0.84,6.068,2.521,7.56
			c1.68,1.496,3.544,2.24,5.6,2.24c1.864,0,3.872-0.372,6.021-1.12c2.144-0.744,4.151-1.584,6.02-2.52v19.88
			c-2.428,1.868-5.508,3.312-9.24,4.34c-3.736,1.024-8.216,1.54-13.439,1.54c-6.16,0-11.248-1.12-15.26-3.36
			c-4.017-2.24-7.049-5.272-9.101-9.1c-2.056-3.824-3.268-8.164-3.64-13.02c-5.416,8.028-12.416,14.28-21,18.76
			C1817.87,257.865,1807.79,260.105,1796.218,260.105z M1810.218,237.985c5.972,0,11.664-1.352,17.08-4.06
			c5.412-2.704,9.892-6.764,13.44-12.18c3.543-5.412,5.319-12.224,5.319-20.44v-10.92c-13.068,0-24.268,0.7-33.6,2.1
			c-9.337,1.4-16.429,3.968-21.28,7.7c-4.856,3.736-7.28,9.336-7.28,16.8c0,7.468,2.24,12.836,6.721,16.1
			C1795.098,236.353,1801.63,237.985,1810.218,237.985z"/>
		<path d="M1928.655,82.025v-26.32h34.16v26.32H1928.655z M1929.495,257.305v-143.08h32.48v143.08H1929.495z"/>
		<path d="M2007.332,257.305v-201.6h32.48v201.6H2007.332z"/>
	</g>
	
		<rect x="644.368" y="380.404" style="fill:none;stroke:#000000;stroke-width:6;stroke-miterlimit:10;" width="185.409" height="100"/>
	
		<rect x="1475.81" y="364.996" transform="matrix(0.7071 -0.7071 0.7071 0.7071 147.0709 1215.8679)" style="fill:none;stroke:#231F20;stroke-width:6;stroke-miterlimit:10;" width="130.815" height="130.815"/>
	<g>
		<path d="M919.972,451.149v-48.38h-16.81v-7.872h43.788v7.872h-16.81v48.38H919.972z"/>
		<path d="M962.447,451.969c-2.242,0-4.387-0.356-6.437-1.066c-2.05-0.71-3.731-1.927-5.043-3.649s-1.968-4.059-1.968-7.011
			c0-3.006,0.669-5.439,2.009-7.298c1.339-1.858,3.239-3.28,5.699-4.264c2.46-0.984,5.412-1.653,8.856-2.009
			c3.444-0.355,7.27-0.533,11.48-0.533v-3.936c0-2.733-0.697-4.66-2.091-5.781c-1.394-1.12-3.513-1.681-6.355-1.681
			c-2.351,0-4.428,0.521-6.232,1.558c-1.804,1.039-2.706,2.679-2.706,4.92v0.82h-9.184c-0.055-0.218-0.082-0.478-0.082-0.779
			c0-0.3,0-0.586,0-0.861c0-2.405,0.751-4.51,2.255-6.314c1.503-1.804,3.594-3.198,6.273-4.182c2.678-0.984,5.74-1.476,9.184-1.476
			h1.394c5.685,0,9.922,1.121,12.71,3.362c2.788,2.242,4.182,5.385,4.182,9.43v21.402c0,1.039,0.246,1.777,0.738,2.214
			c0.492,0.438,1.038,0.656,1.64,0.656c0.546,0,1.134-0.109,1.763-0.328c0.628-0.218,1.216-0.464,1.763-0.738v5.822
			c-0.711,0.547-1.613,0.97-2.706,1.271c-1.094,0.3-2.406,0.451-3.936,0.451c-1.804,0-3.294-0.328-4.469-0.984
			c-1.176-0.656-2.064-1.544-2.665-2.665c-0.602-1.12-0.957-2.391-1.066-3.813c-1.586,2.351-3.636,4.182-6.15,5.494
			C968.788,451.313,965.836,451.969,962.447,451.969z M966.547,445.491c1.749,0,3.416-0.396,5.002-1.189
			c1.585-0.792,2.897-1.98,3.936-3.567c1.038-1.585,1.558-3.58,1.558-5.986v-3.198c-3.827,0-7.107,0.205-9.84,0.615
			c-2.734,0.41-4.811,1.162-6.232,2.255c-1.422,1.094-2.132,2.734-2.132,4.92c0,2.187,0.656,3.759,1.968,4.715
			C962.119,445.013,964.032,445.491,966.547,445.491z"/>
		<path d="M1001.232,399.817v-7.708h10.004v7.708H1001.232z M1001.479,451.149v-41.902h9.512v41.902H1001.479z"/>
		<path d="M1024.273,451.149v-59.04h9.512v59.04H1024.273z"/>
		<path d="M1086.264,451.969c-3.226,0-6.246-0.465-9.061-1.394c-2.816-0.929-5.276-2.432-7.38-4.51
			c-2.105-2.077-3.759-4.797-4.961-8.159c-1.203-3.362-1.804-7.475-1.804-12.341v-5.084c0-4.756,0.601-8.815,1.804-12.177
			c1.202-3.362,2.856-6.095,4.961-8.2c2.104-2.104,4.537-3.635,7.298-4.592c2.76-0.956,5.726-1.435,8.897-1.435h1.23
			c2.952,0,5.753,0.41,8.405,1.23c2.651,0.82,4.988,2.119,7.011,3.895c2.022,1.777,3.621,4.1,4.797,6.97
			c1.175,2.87,1.763,6.355,1.763,10.455h-9.594c0-3.881-0.562-6.874-1.681-8.979c-1.121-2.104-2.665-3.58-4.633-4.428
			c-1.968-0.847-4.21-1.271-6.724-1.271c-1.859,0-3.581,0.274-5.166,0.82c-1.586,0.547-2.952,1.449-4.1,2.706
			c-1.148,1.258-2.037,2.939-2.665,5.043c-0.629,2.105-0.943,4.715-0.943,7.831v9.348c0,4.155,0.546,7.421,1.64,9.799
			c1.093,2.378,2.61,4.073,4.551,5.084c1.94,1.012,4.168,1.517,6.683,1.517c2.678,0,5.015-0.423,7.011-1.271
			c1.995-0.847,3.553-2.323,4.674-4.428c1.12-2.104,1.681-5.07,1.681-8.897h9.266c0,3.936-0.574,7.326-1.722,10.168
			c-1.148,2.843-2.72,5.166-4.715,6.97c-1.996,1.804-4.305,3.144-6.929,4.018c-2.624,0.874-5.412,1.312-8.364,1.312H1086.264z"/>
		<path d="M1119.474,451.149v-59.04h9.512v59.04H1119.474z"/>
		<path d="M1142.269,399.817v-7.708h10.004v7.708H1142.269z M1142.515,451.149v-41.902h9.512v41.902H1142.515z"/>
		<path d="M1182.122,451.969c-3.828,0-7.189-0.807-10.086-2.419c-2.899-1.612-5.154-3.977-6.766-7.093
			c-1.613-3.116-2.419-6.888-2.419-11.316v-1.886c0-4.428,0.861-8.2,2.583-11.316c1.722-3.116,4.072-5.48,7.053-7.093
			c2.979-1.612,6.381-2.419,10.209-2.419h1.064c3.553,0,6.67,0.726,9.35,2.173c2.678,1.449,4.756,3.513,6.23,6.191
			c1.477,2.679,2.215,5.822,2.215,9.43v5.166h-28.783c0,2.898,0.383,5.412,1.148,7.544c0.766,2.132,1.898,3.759,3.404,4.879
			c1.502,1.121,3.375,1.681,5.617,1.681c1.857,0,3.512-0.369,4.961-1.107c1.447-0.738,2.596-1.845,3.443-3.321
			c0.846-1.476,1.271-3.307,1.271-5.494h8.938c0,3.28-0.82,6.15-2.461,8.61c-1.639,2.46-3.854,4.375-6.641,5.74
			c-2.789,1.366-5.959,2.05-9.512,2.05H1182.122z M1172.854,426.139h19.354c0-3.826-0.834-6.655-2.502-8.487
			c-1.668-1.831-3.949-2.747-6.846-2.747c-2.734,0-5.043,0.943-6.93,2.829C1174.043,419.62,1173.018,422.422,1172.854,426.139z"/>
		<path d="M1211.968,451.149v-41.902h6.97l1.229,6.15c1.585-2.296,3.554-4.031,5.904-5.207c2.35-1.175,4.974-1.763,7.872-1.763
			c2.896,0,5.438,0.547,7.626,1.64c2.186,1.094,3.896,2.693,5.125,4.797c1.23,2.105,1.845,4.688,1.845,7.749v28.536h-9.512v-26.814
			c0-3.116-0.726-5.343-2.173-6.683c-1.449-1.339-3.458-2.009-6.027-2.009c-1.695,0-3.253,0.424-4.674,1.271
			c-1.422,0.848-2.556,1.982-3.403,3.403c-0.848,1.422-1.271,3.034-1.271,4.838v25.994H1211.968z"/>
		<path d="M1273.714,451.969c-2.188,0-4.142-0.328-5.863-0.984c-1.723-0.656-3.062-1.735-4.019-3.239
			c-0.957-1.503-1.435-3.485-1.435-5.945v-25.256h-4.592v-7.298h4.838l3.362-13.366h5.903v13.366h9.758v7.298h-9.758v23.37
			c0,2.406,0.492,3.936,1.477,4.592c0.983,0.656,2.05,0.984,3.197,0.984c0.602,0,1.436-0.136,2.501-0.41
			c1.066-0.273,1.928-0.546,2.583-0.82v6.15c-0.655,0.328-1.448,0.615-2.378,0.861s-1.886,0.423-2.87,0.533
			C1275.436,451.914,1274.534,451.969,1273.714,451.969z"/>
	</g>
	<g>
		<path d="M1719.97,451.149v-48.38h-16.81v-7.872h43.788v7.872h-16.811v48.38H1719.97z"/>
		<path d="M1762.445,451.969c-2.242,0-4.387-0.356-6.437-1.066c-2.051-0.71-3.731-1.927-5.043-3.649
			c-1.312-1.722-1.969-4.059-1.969-7.011c0-3.006,0.669-5.439,2.01-7.298c1.339-1.858,3.238-3.28,5.698-4.264
			c2.46-0.984,5.412-1.653,8.856-2.009c3.444-0.355,7.27-0.533,11.479-0.533v-3.936c0-2.733-0.696-4.66-2.091-5.781
			c-1.394-1.12-3.513-1.681-6.354-1.681c-2.352,0-4.429,0.521-6.232,1.558c-1.804,1.039-2.706,2.679-2.706,4.92v0.82h-9.184
			c-0.056-0.218-0.082-0.478-0.082-0.779c0-0.3,0-0.586,0-0.861c0-2.405,0.751-4.51,2.255-6.314
			c1.503-1.804,3.594-3.198,6.273-4.182c2.678-0.984,5.739-1.476,9.184-1.476h1.394c5.686,0,9.923,1.121,12.71,3.362
			c2.788,2.242,4.183,5.385,4.183,9.43v21.402c0,1.039,0.246,1.777,0.737,2.214c0.492,0.438,1.038,0.656,1.641,0.656
			c0.546,0,1.134-0.109,1.763-0.328c0.628-0.218,1.216-0.464,1.763-0.738v5.822c-0.711,0.547-1.612,0.97-2.705,1.271
			c-1.095,0.3-2.406,0.451-3.937,0.451c-1.804,0-3.294-0.328-4.469-0.984c-1.177-0.656-2.064-1.544-2.665-2.665
			c-0.603-1.12-0.957-2.391-1.066-3.813c-1.586,2.351-3.636,4.182-6.149,5.494C1768.786,451.313,1765.834,451.969,1762.445,451.969z
			 M1766.546,445.491c1.748,0,3.415-0.396,5.002-1.189c1.585-0.792,2.896-1.98,3.936-3.567c1.038-1.585,1.558-3.58,1.558-5.986
			v-3.198c-3.827,0-7.106,0.205-9.84,0.615c-2.734,0.41-4.811,1.162-6.231,2.255c-1.423,1.094-2.132,2.734-2.132,4.92
			c0,2.187,0.655,3.759,1.968,4.715C1762.117,445.013,1764.03,445.491,1766.546,445.491z"/>
		<path d="M1801.23,399.817v-7.708h10.004v7.708H1801.23z M1801.477,451.149v-41.902h9.512v41.902H1801.477z"/>
		<path d="M1824.271,451.149v-59.04h9.513v59.04H1824.271z"/>
		<path d="M1883.639,451.969c-3.937,0-7.518-0.561-10.742-1.681c-3.227-1.12-5.81-2.924-7.749-5.412
			c-1.941-2.487-2.911-5.781-2.911-9.881c0-0.273,0-0.56,0-0.861c0-0.3,0.027-0.587,0.082-0.861h9.431
			c-0.056,0.274-0.082,0.547-0.082,0.82c0,0.274,0,0.547,0,0.82c0,2.023,0.491,3.718,1.476,5.084
			c0.984,1.367,2.391,2.392,4.223,3.075c1.831,0.685,3.978,1.025,6.438,1.025c2.624,0,4.851-0.287,6.683-0.861
			c1.831-0.574,3.225-1.489,4.183-2.747c0.955-1.257,1.435-2.87,1.435-4.838c0-1.858-0.588-3.348-1.763-4.469
			c-1.177-1.12-2.734-2.022-4.674-2.706c-1.941-0.683-4.073-1.298-6.396-1.845c-2.324-0.546-4.633-1.175-6.929-1.886
			c-2.296-0.71-4.415-1.653-6.355-2.829c-1.94-1.175-3.499-2.733-4.674-4.674c-1.176-1.939-1.763-4.414-1.763-7.421
			c0-3.553,0.97-6.491,2.911-8.815c1.939-2.323,4.495-4.059,7.667-5.207c3.169-1.148,6.642-1.722,10.414-1.722
			c3.771,0,7.201,0.547,10.29,1.64c3.088,1.094,5.562,2.802,7.422,5.125c1.857,2.324,2.788,5.344,2.788,9.061v1.066h-9.267v-1.148
			c0-1.694-0.465-3.129-1.394-4.305c-0.931-1.175-2.214-2.063-3.854-2.665c-1.64-0.601-3.581-0.902-5.822-0.902
			c-2.132,0-4.031,0.233-5.698,0.697c-1.669,0.465-2.967,1.203-3.896,2.214c-0.93,1.012-1.394,2.365-1.394,4.059
			c0,1.804,0.587,3.239,1.763,4.305c1.175,1.066,2.733,1.914,4.674,2.542c1.94,0.629,4.086,1.217,6.438,1.763
			c2.35,0.547,4.687,1.162,7.011,1.845c2.323,0.684,4.455,1.613,6.396,2.788c1.94,1.176,3.498,2.734,4.675,4.674
			c1.175,1.941,1.763,4.415,1.763,7.421c0,4.264-1.013,7.695-3.034,10.291c-2.022,2.597-4.756,4.483-8.2,5.658
			C1891.757,451.381,1887.902,451.969,1883.639,451.969z"/>
		<path d="M1934.067,451.969c-3.827,0-7.189-0.807-10.086-2.419c-2.898-1.612-5.153-3.977-6.766-7.093
			c-1.613-3.116-2.419-6.888-2.419-11.316v-1.886c0-4.428,0.861-8.2,2.583-11.316c1.722-3.116,4.072-5.48,7.052-7.093
			c2.979-1.612,6.382-2.419,10.209-2.419h1.066c3.553,0,6.669,0.726,9.348,2.173c2.678,1.449,4.756,3.513,6.232,6.191
			c1.476,2.679,2.214,5.822,2.214,9.43v5.166h-28.782c0,2.898,0.382,5.412,1.148,7.544c0.765,2.132,1.898,3.759,3.402,4.879
			c1.503,1.121,3.375,1.681,5.617,1.681c1.858,0,3.512-0.369,4.961-1.107c1.448-0.738,2.596-1.845,3.444-3.321
			c0.847-1.476,1.271-3.307,1.271-5.494h8.938c0,3.28-0.82,6.15-2.46,8.61c-1.64,2.46-3.854,4.375-6.642,5.74
			c-2.788,1.366-5.96,2.05-9.513,2.05H1934.067z M1924.801,426.139h19.353c0-3.826-0.834-6.655-2.501-8.487
			c-1.669-1.831-3.95-2.747-6.848-2.747c-2.733,0-5.043,0.943-6.929,2.829C1925.99,419.62,1924.965,422.422,1924.801,426.139z"/>
		<path d="M1963.914,451.149v-41.902h7.135l1.229,6.15c0.109-0.164,0.382-0.601,0.82-1.312c0.437-0.71,1.12-1.503,2.05-2.378
			c0.929-0.874,2.104-1.64,3.526-2.296c1.421-0.656,3.143-0.984,5.166-0.984c2.896,0,5.261,0.574,7.093,1.722
			c1.831,1.148,3.198,2.72,4.1,4.715c0.902,1.997,1.354,4.278,1.354,6.847c0,0.602-0.028,1.217-0.082,1.845
			c-0.055,0.629-0.11,1.162-0.164,1.599h-8.036v-1.64c0-1.148-0.219-2.323-0.656-3.526c-0.438-1.202-1.176-2.214-2.214-3.034
			c-1.039-0.82-2.488-1.23-4.346-1.23c-1.367,0-2.529,0.287-3.485,0.861c-0.957,0.574-1.735,1.299-2.337,2.173
			c-0.602,0.875-1.024,1.818-1.271,2.829c-0.246,1.012-0.369,1.955-0.369,2.829v26.732H1963.914z"/>
		<path d="M2014.918,451.149l-15.334-41.902h10.168l10.659,30.586h0.41l10.742-30.586h9.266l-15.498,41.902H2014.918z"/>
		<path d="M2065.347,451.969c-3.827,0-7.189-0.807-10.086-2.419c-2.898-1.612-5.153-3.977-6.766-7.093
			c-1.612-3.116-2.419-6.888-2.419-11.316v-1.886c0-4.428,0.861-8.2,2.583-11.316c1.723-3.116,4.072-5.48,7.053-7.093
			c2.979-1.612,6.382-2.419,10.209-2.419h1.065c3.553,0,6.669,0.726,9.349,2.173c2.678,1.449,4.756,3.513,6.231,6.191
			c1.477,2.679,2.214,5.822,2.214,9.43v5.166h-28.782c0,2.898,0.382,5.412,1.148,7.544c0.765,2.132,1.898,3.759,3.403,4.879
			c1.503,1.121,3.375,1.681,5.617,1.681c1.857,0,3.512-0.369,4.961-1.107c1.447-0.738,2.596-1.845,3.443-3.321
			c0.847-1.476,1.271-3.307,1.271-5.494h8.938c0,3.28-0.819,6.15-2.46,8.61c-1.64,2.46-3.854,4.375-6.642,5.74
			s-5.959,2.05-9.512,2.05H2065.347z M2056.08,426.139h19.353c0-3.826-0.834-6.655-2.501-8.487c-1.668-1.831-3.95-2.747-6.847-2.747
			c-2.734,0-5.043,0.943-6.93,2.829C2057.27,419.62,2056.244,422.422,2056.08,426.139z"/>
		<path d="M2095.194,451.149v-41.902h7.134l1.229,6.15c0.109-0.164,0.382-0.601,0.82-1.312c0.437-0.71,1.12-1.503,2.05-2.378
			c0.929-0.874,2.104-1.64,3.526-2.296c1.421-0.656,3.143-0.984,5.166-0.984c2.896,0,5.261,0.574,7.093,1.722
			c1.831,1.148,3.198,2.72,4.1,4.715c0.902,1.997,1.354,4.278,1.354,6.847c0,0.602-0.028,1.217-0.082,1.845
			c-0.055,0.629-0.11,1.162-0.164,1.599h-8.036v-1.64c0-1.148-0.219-2.323-0.656-3.526c-0.438-1.202-1.176-2.214-2.214-3.034
			c-1.039-0.82-2.488-1.23-4.346-1.23c-1.367,0-2.529,0.287-3.485,0.861c-0.957,0.574-1.735,1.299-2.337,2.173
			c-0.602,0.875-1.024,1.818-1.271,2.829c-0.246,1.012-0.369,1.955-0.369,2.829v26.732H2095.194z"/>
	</g>
</g>
</svg>
