<?xml version="1.0" encoding="iso-8859-1"?>
<!-- Generator: Adobe Illustrator 29.6.0, SVG Export Plug-In . SVG Version: 9.03 Build 0)  -->
<svg version="1.1" xmlns="http://www.w3.org/2000/svg" xmlns:xlink="http://www.w3.org/1999/xlink" x="0px" y="0px"
	 viewBox="0 0 4000 2774" style="enable-background:new 0 0 4000 2774;" xml:space="preserve">
<g id="Gradient">
	<linearGradient id="SVGID_1_" gradientUnits="userSpaceOnUse" x1="2000" y1="-9.094947e-13" x2="2000" y2="2774">
		<stop  offset="0" style="stop-color:#D2E1FF;stop-opacity:0.6"/>
		<stop  offset="0.9977" style="stop-color:#FFB8B8"/>
	</linearGradient>
	<rect style="fill:url(#SVGID_1_);" width="4000" height="2774"/>
</g>
<g id="Lozenge">
	<path style="fill:#FFFFFF;" d="M3266.135,2629.664H553.842c-31.763,0-57.512-25.749-57.512-57.512V201.848
		c0-31.763,25.749-57.512,57.512-57.512h2712.293c31.763,0,57.512,25.749,57.512,57.512v2370.304
		C3323.647,2603.915,3297.898,2629.664,3266.135,2629.664z"/>
	<g>
		<path d="M346.769,2500.738H154.69v-90.158c0-9.893,1.917-18.572,5.74-26.041c3.828-7.463,9.148-13.251,15.96-17.359
			c6.816-4.104,14.7-6.16,23.659-6.16c9.52,0,17.408,1.681,23.66,5.041c6.256,3.359,11.156,7.56,14.7,12.6
			c3.548,5.039,6.16,10.176,7.84,15.399h1.68c0.56-3.544,1.728-7.464,3.5-11.761c1.776-4.291,4.296-8.398,7.56-12.318
			c3.268-3.92,7.468-7.141,12.6-9.66c5.136-2.521,11.528-3.78,19.18-3.78c10.828,0,20.439,2.38,28.839,7.14
			c8.4,4.76,15.028,11.297,19.88,19.6c4.856,8.309,7.279,17.969,7.279,28.98V2500.738z M235.89,2467.139v-45.079
			c0-5.601-1.352-10.452-4.06-14.56c-2.704-4.104-6.252-7.28-10.64-9.521c-4.384-2.239-9.192-3.36-14.42-3.36
			c-8.399,0-14.792,2.101-19.18,6.301c-4.384,4.199-6.58,10.316-6.58,18.34v47.879H235.89z M320.449,2467.139v-48.159
			c0-5.601-1.352-10.5-4.06-14.7c-2.704-4.199-6.344-7.512-10.92-9.939c-4.572-2.424-9.563-3.641-14.979-3.641
			c-5.784,0-10.78,1.26-14.98,3.78c-4.2,2.521-7.464,5.929-9.8,10.22c-2.332,4.297-3.5,9.057-3.5,14.28v48.159H320.449z"/>
		<path d="M346.769,2261.901H154.69v-34.72h165.199v-84l26.879-4.199V2261.901z"/>
		<path d="M349.568,1986.106c0,10.827-1.728,20.999-5.179,30.52c-3.452,9.521-8.82,17.92-16.1,25.199
			c-7.28,7.28-16.612,12.929-28,16.94c-11.383,4.016-25.011,6.02-40.879,6.02h-17.08c-15.864,0-29.492-2.052-40.88-6.16
			c-11.383-4.104-20.72-9.8-28-17.08c-7.28-7.279-12.644-15.631-16.1-25.059c-3.452-9.424-5.18-19.461-5.18-30.1v-7.28
			c0-11.012,1.728-21.231,5.18-30.66c3.456-9.423,8.82-17.779,16.1-25.06c7.28-7.279,16.616-12.924,28-16.939
			c11.388-4.012,25.016-6.021,40.88-6.021h17.08c15.868,0,29.496,2.056,40.879,6.16c11.388,4.108,20.72,9.8,28,17.08
			s12.648,15.636,16.1,25.06c3.451,9.428,5.179,19.46,5.179,30.1V1986.106z M322.689,1982.746c0-6.531-0.932-12.552-2.8-18.06
			c-1.864-5.504-4.944-10.36-9.24-14.56c-4.292-4.201-9.983-7.465-17.08-9.801c-7.092-2.331-15.96-3.5-26.6-3.5h-31.92
			c-10.64,0-19.552,1.169-26.74,3.5c-7.184,2.336-12.923,5.6-17.22,9.801c-4.292,4.199-7.372,9.056-9.24,14.56
			c-1.864,5.508-2.8,11.437-2.8,17.78c0,6.348,0.937,12.318,2.8,17.919c1.868,5.601,4.948,10.5,9.24,14.7
			c4.296,4.199,9.988,7.469,17.08,9.8c7.096,2.337,15.96,3.5,26.6,3.5h31.919c10.64,0,19.556-1.163,26.74-3.5
			c7.188-2.331,12.927-5.601,17.219-9.8c4.296-4.2,7.376-9.052,9.24-14.561C321.757,1995.021,322.689,1989.094,322.689,1982.746z"/>
		<path d="M349.568,1732.99c0,11.016-1.588,21.328-4.759,30.939c-3.172,9.616-8.304,18.016-15.4,25.2
			c-7.092,7.188-16.38,12.835-27.86,16.939c-11.479,4.108-25.523,6.159-42.139,6.159h-17.36c-16.24,0-30.1-2.051-41.58-6.159
			c-11.479-4.104-20.812-9.752-28-16.939c-7.184-7.185-12.412-15.492-15.68-24.92c-3.264-9.424-4.9-19.552-4.9-30.38v-4.199
			c0-10.08,1.4-19.645,4.2-28.701c2.8-9.051,7.236-17.031,13.3-23.939c6.068-6.903,14-12.363,23.8-16.379
			c9.8-4.013,21.7-6.021,35.7-6.021v32.76c-13.252,0-23.472,1.917-30.66,5.74c-7.184,3.827-12.224,9.1-15.12,15.819
			c-2.892,6.721-4.34,14.377-4.34,22.96c0,6.349,0.936,12.228,2.8,17.64c1.868,5.416,4.948,10.08,9.24,14
			c4.296,3.92,10.036,6.956,17.219,9.1c7.188,2.148,16.1,3.221,26.74,3.221h31.919c14.188,0,25.34-1.864,33.459-5.601
			c8.12-3.731,13.908-8.911,17.36-15.54c3.456-6.623,5.18-14.23,5.18-22.819c0-9.144-1.444-17.124-4.34-23.94
			c-2.892-6.812-7.932-12.131-15.12-15.959c-7.183-3.824-17.312-5.74-30.379-5.74v-31.64c13.44,0,25.016,1.96,34.719,5.88
			c9.708,3.92,17.64,9.288,23.8,16.1c6.16,6.816,10.736,14.7,13.72,23.66s4.479,18.48,4.479,28.56V1732.99z"/>
		<path d="M346.769,1560.513H154.69v-34.72h97.159l-97.159-79.799v-37.52l80.64,66.079l111.438-69.44v39.201l-84.839,52.919
			l33.6,28.56h51.239V1560.513z"/>
		<path d="M349.568,1254.478c0,11.016-1.588,21.328-4.759,30.939c-3.172,9.616-8.304,18.016-15.4,25.2
			c-7.092,7.188-16.38,12.836-27.86,16.94c-11.479,4.108-25.523,6.16-42.139,6.16h-17.36c-16.24,0-30.1-2.052-41.58-6.16
			c-11.479-4.104-20.812-9.752-28-16.94c-7.184-7.184-12.412-15.492-15.68-24.919c-3.264-9.424-4.9-19.552-4.9-30.38v-4.2
			c0-10.08,1.4-19.644,4.2-28.7c2.8-9.052,7.236-17.031,13.3-23.939c6.068-6.904,14-12.364,23.8-16.38
			c9.8-4.012,21.7-6.02,35.7-6.02v32.759c-13.252,0-23.472,1.917-30.66,5.74c-7.184,3.828-12.224,9.1-15.12,15.82
			c-2.892,6.72-4.34,14.376-4.34,22.96c0,6.348,0.936,12.228,2.8,17.64c1.868,5.416,4.948,10.08,9.24,14
			c4.296,3.92,10.036,6.956,17.219,9.1c7.188,2.148,16.1,3.22,26.74,3.22h31.919c14.188,0,25.34-1.864,33.459-5.6
			c8.12-3.731,13.908-8.912,17.36-15.54c3.456-6.624,5.18-14.232,5.18-22.82c0-9.144-1.444-17.124-4.34-23.94
			c-2.892-6.812-7.932-12.132-15.12-15.96c-7.183-3.824-17.312-5.74-30.379-5.74v-31.64c13.44,0,25.016,1.96,34.719,5.88
			c9.708,3.92,17.64,9.288,23.8,16.1c6.16,6.816,10.736,14.699,13.72,23.659c2.983,8.96,4.479,18.48,4.479,28.56V1254.478z"/>
		<path d="M346.769,1082H154.69v-34.72h80.08v-77.56h-80.08v-34.719h192.078v34.439H262.77V1047h83.999V1082z"/>
		<path d="M346.769,854.364L154.69,781.565v-40.319l192.078-72.52v36.398l-41.72,15.961v83.439l41.72,15.959V854.364z
			 M279.569,795.565v-65.239l-87.079,31.919v1.119L279.569,795.565z"/>
		<path d="M346.769,595.649h-26.879V573.25H181.57v22.399h-26.88v-79.519h26.88v22.399h138.319v-22.399h26.879V595.649z"/>
		<path d="M346.769,420.094H154.69v-29.12l112.279-74.759l17.92-10.641l-0.28-1.12H154.69v-31.359h192.078v29.96L230.85,380.054
			l-13.44,7.56l0.28,1.12h129.079V420.094z"/>
	</g>
	
		<path style="fill:none;stroke:#000000;stroke-width:21.5671;stroke-linecap:round;stroke-linejoin:round;stroke-miterlimit:10;" d="
		M3323.647,1684.284v883.376c0,34.244-23.884,62.004-53.346,62.004H549.676c-29.462,0-53.346-27.76-53.346-62.004V206.34
		c0-34.244,23.884-62.004,53.346-62.004h2720.626c29.462,0,53.346,27.76,53.346,62.004v909.392"/>
</g>
<g id="Arrows">
	<g>
		<path style="fill-rule:evenodd;clip-rule:evenodd;fill:#FF5553;" d="M1342.397,1053.321V786.593
			c0-11.043-8.962-20.005-20.005-20.005c-11.043,0-20.005,8.962-20.005,20.005v266.729c0,11.042,8.962,20.005,20.005,20.005
			C1333.435,1073.326,1342.397,1064.364,1342.397,1053.321z"/>
		<path style="fill-rule:evenodd;clip-rule:evenodd;fill:#FF5553;" d="M1374.938,972.502l-52.546,52.519l-52.546-52.519
			c-7.789-7.815-20.485-7.815-28.273,0c-7.815,7.789-7.815,20.485,0,28.273l66.682,66.682c7.815,7.815,20.458,7.815,28.273,0
			l66.682-66.682c7.815-7.788,7.815-20.485,0-28.273C1395.423,964.687,1382.727,964.687,1374.938,972.502z"/>
	</g>
	<g>
		<path style="fill-rule:evenodd;clip-rule:evenodd;fill:#FF5553;" d="M2658.795,1053.321v-163.7
			c0-11.043-8.962-20.005-20.005-20.005s-20.005,8.962-20.005,20.005v163.7c0,11.042,8.962,20.005,20.005,20.005
			S2658.795,1064.364,2658.795,1053.321z"/>
		<path style="fill-rule:evenodd;clip-rule:evenodd;fill:#FF5553;" d="M2691.336,972.502l-52.546,52.519l-52.545-52.519
			c-7.789-7.815-20.485-7.815-28.273,0c-7.815,7.789-7.815,20.485,0,28.273l66.682,66.682c7.815,7.815,20.458,7.815,28.273,0
			l66.682-66.682c7.815-7.788,7.815-20.485,0-28.273C2711.82,964.687,2699.124,964.687,2691.336,972.502z"/>
	</g>
	<path style="fill-rule:evenodd;clip-rule:evenodd;fill:#FF5553;" d="M2036.351,868.834H1328.18
		c-11.043,0-20.005,8.962-20.005,20.005c0,11.043,8.962,20.005,20.005,20.005h708.172c11.043,0,20.005-8.962,20.005-20.005
		C2056.356,877.796,2047.394,868.834,2036.351,868.834z"/>
	<path style="fill-rule:evenodd;clip-rule:evenodd;fill:#FF5553;" d="M1955.533,836.293l52.519,52.546l-52.519,52.546
		c-7.815,7.788-7.815,20.485,0,28.273c7.788,7.815,20.485,7.815,28.273,0l66.682-66.682c7.815-7.815,7.815-20.458,0-28.273
		l-66.682-66.682c-7.788-7.815-20.485-7.815-28.273,0C1947.717,815.808,1947.717,828.505,1955.533,836.293z"/>
	<g>
		<path style="fill-rule:evenodd;clip-rule:evenodd;fill:#FF5553;" d="M2638.158,868.834h-709.84
			c-11.042,0-20.005,8.962-20.005,20.005c0,11.043,8.962,20.005,20.005,20.005h709.84c11.042,0,20.005-8.962,20.005-20.005
			C2658.163,877.796,2649.2,868.834,2638.158,868.834z"/>
		<path style="fill-rule:evenodd;clip-rule:evenodd;fill:#FF5553;" d="M2608.189,888.839l42.437,14.137
			c7.815-7.815,7.815-20.458,0-28.273L2608.189,888.839z"/>
	</g>
	<g>
		<path style="fill-rule:evenodd;clip-rule:evenodd;fill:#FF5553;" d="M3913.681,1254.351h-708.172
			c-11.043,0-20.005,8.962-20.005,20.005c0,11.043,8.962,20.005,20.005,20.005h708.172c11.042,0,20.005-8.962,20.005-20.005
			C3933.686,1263.313,3924.723,1254.351,3913.681,1254.351z"/>
		<path style="fill-rule:evenodd;clip-rule:evenodd;fill:#FF5553;" d="M3832.862,1221.81l52.519,52.546l42.437,14.137
			c7.815-7.815,7.815-20.458,0-28.273l-66.682-66.682c-7.789-7.815-20.485-7.815-28.273,0
			C3825.047,1201.326,3825.047,1214.022,3832.862,1221.81z"/>
	</g>
	<g>
		<path style="fill:#FF5553;" d="M719.492,498.617c0,2.137,0.327,3.695,0.982,4.677c0.654,0.982,1.706,1.714,3.152,2.196
			l-2.584,7.855c-2.687-0.31-4.996-1.051-6.925-2.222c-1.93-1.171-3.394-2.946-4.393-5.323c-1.999,2.516-4.531,4.411-7.597,5.685
			c-3.067,1.274-6.34,1.912-9.819,1.912c-5.513,0-9.88-1.559-13.101-4.677c-3.222-3.118-4.832-7.209-4.832-12.273
			c0-5.753,2.239-10.181,6.718-13.282c4.478-3.101,10.886-4.651,19.224-4.651h7.804v-3.566c0-3.514-1.06-6.046-3.178-7.597
			s-5.108-2.326-8.966-2.326c-1.792,0-3.962,0.233-6.511,0.698c-2.55,0.465-5.22,1.181-8.01,2.145l-2.842-8.165
			c3.411-1.274,6.752-2.213,10.025-2.816c3.273-0.603,6.305-0.904,9.096-0.904c7.303,0,12.755,1.62,16.356,4.857
			c3.6,3.239,5.4,7.718,5.4,13.437V498.617z M695.823,504.87c2.342,0,4.633-0.62,6.873-1.86c2.239-1.24,4.048-2.979,5.426-5.219
			v-12.042h-6.408c-5.444,0-9.337,0.905-11.679,2.713c-2.343,1.809-3.514,4.298-3.514,7.467c0,2.894,0.783,5.108,2.351,6.641
			C690.439,504.104,692.756,504.87,695.823,504.87z"/>
		<path style="fill:#FF5553;" d="M766.105,503.888c2.549,0,4.926-0.439,7.131-1.317c2.205-0.879,4.307-2.024,6.305-3.437
			l5.375,7.442c-2.377,2.033-5.263,3.678-8.656,4.936c-3.394,1.257-6.899,1.886-10.517,1.886c-5.582,0-10.354-1.181-14.315-3.54
			c-3.962-2.359-6.995-5.676-9.096-9.948c-2.102-4.271-3.152-9.25-3.152-14.935c0-5.547,1.06-10.499,3.178-14.858
			c2.119-4.358,5.176-7.803,9.173-10.335c3.997-2.532,8.803-3.798,14.418-3.798c3.721,0,7.148,0.551,10.284,1.654
			c3.135,1.103,6.012,2.739,8.63,4.909l-5.323,7.287c-2.136-1.481-4.315-2.61-6.537-3.385c-2.222-0.775-4.505-1.163-6.848-1.163
			c-4.307,0-7.829,1.585-10.568,4.754c-2.739,3.17-4.108,8.148-4.108,14.935c0,4.548,0.628,8.208,1.886,10.981
			c1.257,2.774,2.988,4.79,5.193,6.046C760.765,503.26,763.28,503.888,766.105,503.888z"/>
		<path style="fill:#FF5553;" d="M828.119,503.888c2.549,0,4.926-0.439,7.131-1.317c2.205-0.879,4.307-2.024,6.305-3.437
			l5.375,7.442c-2.377,2.033-5.263,3.678-8.656,4.936c-3.394,1.257-6.899,1.886-10.517,1.886c-5.582,0-10.354-1.181-14.315-3.54
			c-3.962-2.359-6.995-5.676-9.096-9.948c-2.102-4.271-3.152-9.25-3.152-14.935c0-5.547,1.06-10.499,3.178-14.858
			c2.119-4.358,5.176-7.803,9.173-10.335c3.997-2.532,8.803-3.798,14.418-3.798c3.721,0,7.148,0.551,10.284,1.654
			c3.135,1.103,6.012,2.739,8.63,4.909l-5.323,7.287c-2.136-1.481-4.315-2.61-6.537-3.385c-2.222-0.775-4.505-1.163-6.848-1.163
			c-4.307,0-7.829,1.585-10.568,4.754c-2.739,3.17-4.108,8.148-4.108,14.935c0,4.548,0.628,8.208,1.886,10.981
			c1.257,2.774,2.988,4.79,5.193,6.046C822.778,503.26,825.293,503.888,828.119,503.888z"/>
		<path style="fill:#FF5553;" d="M885.688,455.982c5.34,0,9.836,1.188,13.488,3.566c3.651,2.377,6.417,5.702,8.294,9.974
			c1.877,4.272,2.816,9.302,2.816,15.09c0,5.754-0.956,10.792-2.868,15.116s-4.703,7.683-8.372,10.077
			c-3.669,2.394-8.14,3.592-13.411,3.592c-5.271,0-9.742-1.163-13.411-3.488c-3.669-2.326-6.46-5.641-8.372-9.948
			c-1.912-4.307-2.868-9.388-2.868-15.245c0-5.685,0.956-10.68,2.868-14.987c1.912-4.307,4.711-7.674,8.398-10.104
			C875.938,457.196,880.417,455.982,885.688,455.982z M885.688,464.974c-4.169,0-7.305,1.594-9.406,4.78
			c-2.102,3.187-3.152,8.174-3.152,14.961c0,6.753,1.042,11.731,3.126,14.935c2.084,3.204,5.211,4.806,9.38,4.806
			c4.168,0,7.294-1.602,9.379-4.806c2.084-3.204,3.127-8.217,3.127-15.039c0-6.718-1.034-11.67-3.101-14.857
			C892.975,466.568,889.856,464.974,885.688,464.974z"/>
		<path style="fill:#FF5553;" d="M937.417,457.429v38.139c0,3.239,0.646,5.547,1.938,6.925c1.292,1.378,3.247,2.067,5.865,2.067
			c2.481,0,4.875-0.74,7.184-2.222c2.308-1.481,4.134-3.29,5.478-5.426v-39.482h11.576v54.573h-9.974l-0.724-6.977
			c-2.033,2.722-4.6,4.798-7.7,6.227s-6.271,2.145-9.509,2.145c-5.271,0-9.208-1.455-11.809-4.367
			c-2.602-2.911-3.902-6.916-3.902-12.015v-39.586H937.417z"/>
		<path style="fill:#FF5553;" d="M987.854,512.001v-54.573h9.974l0.878,7.08c2.274-2.791,4.961-4.91,8.062-6.356
			c3.101-1.447,6.287-2.17,9.561-2.17c5.098,0,8.915,1.421,11.447,4.263s3.798,6.831,3.798,11.964v39.792h-11.576v-34.056
			c0-3.169-0.189-5.719-0.568-7.648c-0.379-1.929-1.129-3.325-2.248-4.186c-1.12-0.861-2.783-1.292-4.987-1.292
			c-1.757,0-3.429,0.379-5.013,1.137c-1.585,0.758-3.032,1.749-4.341,2.972c-1.31,1.223-2.447,2.524-3.411,3.902v39.172H987.854z"/>
		<path style="fill:#FF5553;" d="M1095.448,509.107c-1.999,1.275-4.393,2.309-7.183,3.101c-2.791,0.792-5.703,1.189-8.734,1.189
			c-6.339,0-11.154-1.645-14.444-4.936c-3.29-3.29-4.935-7.623-4.935-12.997v-29.612h-12.145v-8.424h12.145v-12.196l11.576-1.395
			v13.591h18.397l-1.292,8.424h-17.105v29.508c0,2.929,0.731,5.108,2.196,6.538c1.464,1.43,3.867,2.145,7.209,2.145
			c1.998,0,3.841-0.241,5.53-0.724c1.688-0.482,3.221-1.102,4.599-1.86L1095.448,509.107z"/>
		<path style="fill:#FF5553;" d="M1208.209,494.844h-25.478l-4.961,17.157h-12.196l22.687-71.316h14.883l22.739,71.316h-12.713
			L1208.209,494.844z M1185.212,485.594h20.464l-10.181-35.606L1185.212,485.594z"/>
	</g>
	<g>
		<path style="fill:#FF5553;" d="M891.369,645.177v69.249h-11.473v-57.363l-15.71,9.664l-4.961-8.113l21.912-13.437H891.369z
			 M905.632,707.398v9.095H862.48v-9.095H905.632z"/>
		<path style="fill:#FF5553;" d="M943.874,643.729c7.992,0,14.039,3.222,18.139,9.664c4.1,6.443,6.15,15.555,6.15,27.338
			c0,11.817-2.05,20.965-6.15,27.441c-4.101,6.478-10.147,9.716-18.139,9.716c-8.028,0-14.083-3.238-18.165-9.716
			c-4.083-6.477-6.124-15.624-6.124-27.441c0-11.783,2.042-20.895,6.124-27.338C929.791,646.952,935.845,643.729,943.874,643.729z
			 M943.874,652.567c-4.101,0-7.253,2.179-9.458,6.537c-2.205,4.359-3.307,11.568-3.307,21.627c0,5.375,0.232,9.879,0.698,13.514
			c0.465,3.635,1.206,6.537,2.222,8.708c1.016,2.171,2.333,3.73,3.953,4.677c1.619,0.948,3.583,1.421,5.892,1.421
			c2.756,0,5.082-0.938,6.977-2.816c1.894-1.877,3.333-4.9,4.315-9.069c0.982-4.168,1.473-9.646,1.473-16.434
			c0-7.062-0.422-12.652-1.266-16.77c-0.845-4.117-2.196-7.045-4.057-8.786C949.455,653.437,946.974,652.567,943.874,652.567z
			 M953.486,654.996l2.997,8.113l-21.292,43.462l-3.824-6.563L953.486,654.996z"/>
		<path style="fill:#FF5553;" d="M1005.887,643.729c7.992,0,14.039,3.222,18.139,9.664c4.1,6.443,6.15,15.555,6.15,27.338
			c0,11.817-2.05,20.965-6.15,27.441c-4.101,6.478-10.147,9.716-18.139,9.716c-8.028,0-14.083-3.238-18.165-9.716
			c-4.083-6.477-6.124-15.624-6.124-27.441c0-11.783,2.042-20.895,6.124-27.338C991.804,646.952,997.858,643.729,1005.887,643.729z
			 M1005.887,652.567c-4.101,0-7.253,2.179-9.458,6.537c-2.205,4.359-3.307,11.568-3.307,21.627c0,5.375,0.232,9.879,0.698,13.514
			c0.465,3.635,1.206,6.537,2.222,8.708c1.016,2.171,2.333,3.73,3.953,4.677c1.619,0.948,3.583,1.421,5.892,1.421
			c2.756,0,5.082-0.938,6.977-2.816c1.894-1.877,3.333-4.9,4.315-9.069c0.982-4.168,1.473-9.646,1.473-16.434
			c0-7.062-0.422-12.652-1.266-16.77c-0.845-4.117-2.196-7.045-4.057-8.786C1011.468,653.437,1008.987,652.567,1005.887,652.567z
			 M1015.499,654.996l2.997,8.113l-21.292,43.462l-3.824-6.563L1015.499,654.996z"/>
		<path style="fill:#FF5553;" d="M1122.575,654.272v21.447h25.839v9.095h-25.839v22.584h31.472v9.095h-43.462v-71.316h42.894
			l-1.344,9.095H1122.575z"/>
		<path style="fill:#FF5553;" d="M1197.767,654.84v61.653h-11.989V654.84h-21.395v-9.664h55.296l-1.24,9.664H1197.767z"/>
		<path style="fill:#FF5553;" d="M1265.568,716.493v-32.402h-23.255v32.402h-11.989v-71.316h11.989v29.043h23.255v-29.043h11.99
			v71.316H1265.568z"/>
		<path style="fill:#FF5553;" d="M1367.735,668.432c1.894-2.48,4.108-4.427,6.641-5.84c2.532-1.412,5.314-2.119,8.346-2.119
			c4.788,0,8.673,1.18,11.653,3.54c2.979,2.36,5.168,5.685,6.563,9.974c1.395,4.29,2.093,9.328,2.093,15.116
			c0,5.547-0.827,10.491-2.48,14.832c-1.654,4.341-4.091,7.752-7.312,10.232c-3.222,2.481-7.192,3.721-11.912,3.721
			c-6.098,0-10.887-2.256-14.367-6.77l-0.62,5.375h-10.181v-76.484l11.576-1.292V668.432z M1378.432,709.051
			c3.928,0,6.968-1.602,9.122-4.806c2.152-3.204,3.23-8.234,3.23-15.09c0-4.651-0.432-8.432-1.292-11.344
			c-0.862-2.911-2.128-5.039-3.798-6.382c-1.672-1.343-3.713-2.015-6.124-2.015c-2.584,0-4.858,0.775-6.822,2.325
			c-1.964,1.551-3.635,3.377-5.013,5.478v25.529c1.274,1.964,2.816,3.506,4.625,4.625
			C1374.169,708.492,1376.192,709.051,1378.432,709.051z"/>
		<path style="fill:#FF5553;" d="M1459.877,703.108c0,2.137,0.327,3.695,0.982,4.677c0.654,0.982,1.706,1.714,3.152,2.196
			l-2.584,7.855c-2.687-0.31-4.996-1.051-6.925-2.222c-1.93-1.171-3.394-2.946-4.393-5.323c-1.999,2.516-4.531,4.411-7.597,5.685
			c-3.067,1.274-6.34,1.912-9.819,1.912c-5.513,0-9.88-1.559-13.101-4.677c-3.222-3.118-4.832-7.209-4.832-12.273
			c0-5.753,2.239-10.181,6.718-13.282c4.478-3.101,10.886-4.651,19.224-4.651h7.804v-3.566c0-3.514-1.06-6.046-3.178-7.597
			s-5.108-2.326-8.966-2.326c-1.792,0-3.962,0.233-6.511,0.698c-2.55,0.465-5.22,1.181-8.01,2.145l-2.842-8.165
			c3.411-1.274,6.752-2.213,10.025-2.816c3.273-0.603,6.305-0.904,9.096-0.904c7.303,0,12.755,1.62,16.356,4.857
			c3.6,3.239,5.4,7.718,5.4,13.437V703.108z M1436.208,709.361c2.342,0,4.633-0.62,6.873-1.86c2.239-1.24,4.048-2.979,5.426-5.219
			V690.24h-6.408c-5.444,0-9.337,0.905-11.679,2.713c-2.343,1.809-3.514,4.298-3.514,7.467c0,2.894,0.783,5.108,2.351,6.641
			C1430.825,708.595,1433.142,709.361,1436.208,709.361z"/>
		<path style="fill:#FF5553;" d="M1504.165,640.009v61.601c0,2.515,0.766,4.298,2.3,5.349c1.532,1.051,3.522,1.576,5.969,1.576
			c1.584,0,3.083-0.172,4.496-0.517c1.412-0.344,2.791-0.775,4.134-1.292l2.946,8.062c-1.62,0.827-3.609,1.55-5.969,2.171
			c-2.36,0.62-5.056,0.93-8.087,0.93c-5.478,0-9.742-1.542-12.791-4.625c-3.049-3.083-4.574-7.312-4.574-12.687v-52.041h-16.485
			v-8.527H1504.165z"/>
		<path style="fill:#FF5553;" d="M1583.904,703.108c0,2.137,0.327,3.695,0.982,4.677c0.654,0.982,1.706,1.714,3.152,2.196
			l-2.584,7.855c-2.687-0.31-4.996-1.051-6.925-2.222c-1.93-1.171-3.394-2.946-4.393-5.323c-1.999,2.516-4.531,4.411-7.597,5.685
			c-3.067,1.274-6.34,1.912-9.819,1.912c-5.513,0-9.88-1.559-13.101-4.677c-3.222-3.118-4.832-7.209-4.832-12.273
			c0-5.753,2.239-10.181,6.718-13.282c4.478-3.101,10.886-4.651,19.224-4.651h7.804v-3.566c0-3.514-1.06-6.046-3.178-7.597
			s-5.108-2.326-8.966-2.326c-1.792,0-3.962,0.233-6.511,0.698c-2.55,0.465-5.22,1.181-8.01,2.145l-2.842-8.165
			c3.411-1.274,6.752-2.213,10.025-2.816c3.273-0.603,6.305-0.904,9.096-0.904c7.303,0,12.755,1.62,16.356,4.857
			c3.6,3.239,5.4,7.718,5.4,13.437V703.108z M1560.235,709.361c2.342,0,4.633-0.62,6.873-1.86c2.239-1.24,4.048-2.979,5.426-5.219
			V690.24h-6.408c-5.444,0-9.337,0.905-11.679,2.713c-2.343,1.809-3.514,4.298-3.514,7.467c0,2.894,0.783,5.108,2.351,6.641
			C1554.852,708.595,1557.168,709.361,1560.235,709.361z"/>
		<path style="fill:#FF5553;" d="M1604.212,716.493V661.92h9.974l0.878,7.08c2.274-2.791,4.961-4.91,8.062-6.356
			c3.101-1.447,6.287-2.17,9.561-2.17c5.098,0,8.915,1.421,11.447,4.263s3.798,6.831,3.798,11.964v39.792h-11.576v-34.056
			c0-3.169-0.189-5.719-0.568-7.648c-0.379-1.929-1.129-3.325-2.248-4.186c-1.12-0.861-2.783-1.292-4.987-1.292
			c-1.757,0-3.429,0.379-5.013,1.137c-1.585,0.758-3.032,1.749-4.341,2.972c-1.31,1.223-2.447,2.524-3.411,3.902v39.172H1604.212z"
			/>
		<path style="fill:#FF5553;" d="M1692.531,708.379c2.549,0,4.926-0.439,7.131-1.317c2.205-0.879,4.307-2.024,6.305-3.437
			l5.375,7.442c-2.377,2.033-5.263,3.678-8.656,4.936c-3.394,1.257-6.899,1.886-10.517,1.886c-5.582,0-10.354-1.181-14.315-3.54
			c-3.962-2.359-6.995-5.676-9.096-9.948c-2.102-4.271-3.152-9.25-3.152-14.935c0-5.547,1.06-10.499,3.178-14.858
			c2.119-4.358,5.176-7.803,9.173-10.335c3.997-2.532,8.803-3.798,14.418-3.798c3.721,0,7.148,0.551,10.284,1.654
			c3.135,1.103,6.012,2.739,8.63,4.909l-5.323,7.287c-2.136-1.481-4.315-2.61-6.537-3.385c-2.222-0.775-4.505-1.163-6.848-1.163
			c-4.307,0-7.829,1.585-10.568,4.754c-2.739,3.17-4.108,8.148-4.108,14.935c0,4.548,0.628,8.208,1.886,10.981
			c1.257,2.774,2.988,4.79,5.193,6.046C1687.19,707.751,1689.705,708.379,1692.531,708.379z"/>
		<path style="fill:#FF5553;" d="M1737.852,692.928c0.241,3.721,1.034,6.762,2.377,9.121c1.343,2.36,3.108,4.092,5.297,5.194
			c2.188,1.103,4.59,1.654,7.209,1.654c2.688,0,5.168-0.414,7.442-1.24c2.274-0.827,4.564-1.998,6.873-3.514l5.013,6.925
			c-2.55,2.067-5.53,3.721-8.94,4.961c-3.411,1.241-7.063,1.861-10.956,1.861c-5.651,0-10.431-1.207-14.341-3.618
			c-3.911-2.411-6.882-5.77-8.915-10.077c-2.033-4.307-3.049-9.285-3.049-14.936c0-5.478,0.999-10.378,2.997-14.702
			c1.998-4.323,4.858-7.752,8.579-10.284c3.721-2.532,8.166-3.798,13.333-3.798c4.858,0,9.035,1.103,12.532,3.307
			c3.497,2.206,6.202,5.332,8.114,9.38c1.912,4.049,2.868,8.915,2.868,14.599c0,0.93-0.026,1.853-0.078,2.765
			c-0.052,0.914-0.112,1.714-0.181,2.403H1737.852z M1750.875,669.052c-3.618,0-6.607,1.292-8.966,3.876
			c-2.36,2.584-3.729,6.615-4.108,12.093h25.271c-0.104-5.133-1.198-9.078-3.282-11.834
			C1757.704,670.431,1754.733,669.052,1750.875,669.052z"/>
	</g>
	<g>
		<path style="fill:#FF5553;" d="M938.205,1211.18l-10.904-3.359l27.338-60.103h-32.661v-9.095h44.392v8.32L938.205,1211.18z"/>
		<path style="fill:#FF5553;" d="M1006.11,1137.176c7.992,0,14.039,3.222,18.139,9.664c4.1,6.443,6.15,15.555,6.15,27.338
			c0,11.817-2.05,20.965-6.15,27.441c-4.101,6.478-10.147,9.716-18.139,9.716c-8.028,0-14.083-3.238-18.165-9.716
			c-4.083-6.477-6.124-15.624-6.124-27.441c0-11.783,2.042-20.895,6.124-27.338C992.027,1140.398,998.082,1137.176,1006.11,1137.176
			z M1006.11,1146.014c-4.101,0-7.253,2.179-9.458,6.537c-2.205,4.359-3.307,11.568-3.307,21.627c0,5.375,0.232,9.879,0.698,13.514
			c0.465,3.635,1.206,6.537,2.222,8.708c1.016,2.171,2.333,3.73,3.953,4.677c1.619,0.948,3.583,1.421,5.892,1.421
			c2.756,0,5.082-0.938,6.977-2.816c1.894-1.877,3.333-4.9,4.315-9.069c0.982-4.168,1.473-9.646,1.473-16.434
			c0-7.062-0.422-12.652-1.266-16.77c-0.845-4.117-2.196-7.045-4.057-8.786C1011.691,1146.884,1009.21,1146.014,1006.11,1146.014z
			 M1015.722,1148.442l2.997,8.113l-21.292,43.462l-3.824-6.563L1015.722,1148.442z"/>
		<path style="fill:#FF5553;" d="M1122.798,1147.719v21.447h25.839v9.095h-25.839v22.584h31.472v9.095h-43.462v-71.316h42.894
			l-1.344,9.095H1122.798z"/>
		<path style="fill:#FF5553;" d="M1197.989,1148.287v61.653H1186v-61.653h-21.395v-9.664h55.296l-1.24,9.664H1197.989z"/>
		<path style="fill:#FF5553;" d="M1265.791,1209.94v-32.402h-23.255v32.402h-11.989v-71.316h11.989v29.043h23.255v-29.043h11.99
			v71.316H1265.791z"/>
		<path style="fill:#FF5553;" d="M1367.958,1161.879c1.894-2.48,4.108-4.427,6.641-5.84c2.532-1.412,5.314-2.119,8.346-2.119
			c4.788,0,8.673,1.18,11.653,3.54c2.979,2.36,5.168,5.685,6.563,9.974c1.395,4.29,2.093,9.328,2.093,15.116
			c0,5.547-0.827,10.491-2.48,14.832c-1.654,4.341-4.091,7.752-7.312,10.232c-3.222,2.481-7.192,3.721-11.912,3.721
			c-6.098,0-10.887-2.256-14.367-6.77l-0.62,5.375h-10.181v-76.484l11.576-1.292V1161.879z M1378.655,1202.498
			c3.928,0,6.968-1.602,9.122-4.806c2.152-3.204,3.23-8.234,3.23-15.09c0-4.651-0.432-8.432-1.292-11.344
			c-0.862-2.911-2.128-5.039-3.798-6.382c-1.672-1.343-3.713-2.015-6.124-2.015c-2.584,0-4.858,0.775-6.822,2.325
			c-1.964,1.551-3.635,3.377-5.013,5.478v25.529c1.274,1.964,2.816,3.506,4.625,4.625
			C1374.392,1201.938,1376.416,1202.498,1378.655,1202.498z"/>
		<path style="fill:#FF5553;" d="M1460.1,1196.555c0,2.137,0.327,3.695,0.982,4.677c0.654,0.982,1.706,1.714,3.152,2.196
			l-2.584,7.855c-2.687-0.31-4.996-1.051-6.925-2.222c-1.93-1.171-3.394-2.946-4.393-5.323c-1.999,2.516-4.531,4.411-7.597,5.685
			c-3.067,1.274-6.34,1.912-9.819,1.912c-5.513,0-9.88-1.559-13.101-4.677c-3.222-3.118-4.832-7.209-4.832-12.273
			c0-5.753,2.239-10.181,6.718-13.282c4.478-3.101,10.886-4.651,19.224-4.651h7.804v-3.566c0-3.514-1.06-6.046-3.178-7.597
			s-5.108-2.326-8.966-2.326c-1.792,0-3.962,0.233-6.511,0.698c-2.55,0.465-5.22,1.181-8.01,2.145l-2.842-8.165
			c3.411-1.274,6.752-2.213,10.025-2.816c3.273-0.603,6.305-0.904,9.096-0.904c7.303,0,12.755,1.62,16.356,4.857
			c3.6,3.239,5.4,7.718,5.4,13.437V1196.555z M1436.431,1202.808c2.342,0,4.633-0.62,6.873-1.86c2.239-1.24,4.048-2.979,5.426-5.219
			v-12.042h-6.408c-5.444,0-9.337,0.905-11.679,2.713c-2.343,1.809-3.514,4.298-3.514,7.467c0,2.894,0.783,5.108,2.351,6.641
			C1431.047,1202.042,1433.364,1202.808,1436.431,1202.808z"/>
		<path style="fill:#FF5553;" d="M1504.388,1133.456v61.601c0,2.515,0.766,4.298,2.3,5.349c1.532,1.051,3.522,1.576,5.969,1.576
			c1.584,0,3.083-0.172,4.496-0.517c1.412-0.344,2.791-0.775,4.134-1.292l2.946,8.062c-1.62,0.827-3.609,1.55-5.969,2.171
			c-2.36,0.62-5.056,0.93-8.087,0.93c-5.478,0-9.742-1.542-12.791-4.625c-3.049-3.083-4.574-7.312-4.574-12.687v-52.041h-16.485
			v-8.527H1504.388z"/>
		<path style="fill:#FF5553;" d="M1584.126,1196.555c0,2.137,0.327,3.695,0.982,4.677c0.654,0.982,1.706,1.714,3.152,2.196
			l-2.584,7.855c-2.687-0.31-4.996-1.051-6.925-2.222c-1.93-1.171-3.394-2.946-4.393-5.323c-1.999,2.516-4.531,4.411-7.597,5.685
			c-3.067,1.274-6.34,1.912-9.819,1.912c-5.513,0-9.88-1.559-13.101-4.677c-3.222-3.118-4.832-7.209-4.832-12.273
			c0-5.753,2.239-10.181,6.718-13.282c4.478-3.101,10.886-4.651,19.224-4.651h7.804v-3.566c0-3.514-1.06-6.046-3.178-7.597
			s-5.108-2.326-8.966-2.326c-1.792,0-3.962,0.233-6.511,0.698c-2.55,0.465-5.22,1.181-8.01,2.145l-2.842-8.165
			c3.411-1.274,6.752-2.213,10.025-2.816c3.273-0.603,6.305-0.904,9.096-0.904c7.303,0,12.755,1.62,16.356,4.857
			c3.6,3.239,5.4,7.718,5.4,13.437V1196.555z M1560.458,1202.808c2.342,0,4.633-0.62,6.873-1.86c2.239-1.24,4.048-2.979,5.426-5.219
			v-12.042h-6.408c-5.444,0-9.337,0.905-11.679,2.713c-2.343,1.809-3.514,4.298-3.514,7.467c0,2.894,0.783,5.108,2.351,6.641
			C1555.074,1202.042,1557.391,1202.808,1560.458,1202.808z"/>
		<path style="fill:#FF5553;" d="M1604.436,1209.94v-54.573h9.974l0.878,7.08c2.274-2.791,4.961-4.91,8.062-6.356
			c3.101-1.447,6.287-2.17,9.561-2.17c5.098,0,8.915,1.421,11.447,4.263s3.798,6.831,3.798,11.964v39.792h-11.576v-34.056
			c0-3.169-0.189-5.719-0.568-7.648c-0.379-1.929-1.129-3.325-2.248-4.186c-1.12-0.861-2.783-1.292-4.987-1.292
			c-1.757,0-3.429,0.379-5.013,1.137c-1.585,0.758-3.032,1.749-4.341,2.972c-1.31,1.223-2.447,2.524-3.411,3.902v39.172H1604.436z"
			/>
		<path style="fill:#FF5553;" d="M1692.753,1201.826c2.549,0,4.926-0.439,7.131-1.317c2.205-0.879,4.307-2.024,6.305-3.437
			l5.375,7.442c-2.377,2.033-5.263,3.678-8.656,4.936c-3.394,1.257-6.899,1.886-10.517,1.886c-5.582,0-10.354-1.181-14.315-3.54
			c-3.962-2.359-6.995-5.676-9.096-9.948c-2.102-4.271-3.152-9.25-3.152-14.935c0-5.547,1.06-10.499,3.178-14.858
			c2.119-4.358,5.176-7.803,9.173-10.335c3.997-2.532,8.803-3.798,14.418-3.798c3.721,0,7.148,0.551,10.284,1.654
			c3.135,1.103,6.012,2.739,8.63,4.909l-5.323,7.287c-2.136-1.481-4.315-2.61-6.537-3.385c-2.222-0.775-4.505-1.163-6.848-1.163
			c-4.307,0-7.829,1.585-10.568,4.754c-2.739,3.17-4.108,8.148-4.108,14.935c0,4.548,0.628,8.208,1.886,10.981
			c1.257,2.774,2.988,4.79,5.193,6.046C1687.413,1201.198,1689.928,1201.826,1692.753,1201.826z"/>
		<path style="fill:#FF5553;" d="M1738.075,1186.375c0.241,3.721,1.034,6.762,2.377,9.121c1.343,2.36,3.108,4.092,5.297,5.194
			c2.188,1.103,4.59,1.654,7.209,1.654c2.688,0,5.168-0.414,7.442-1.24c2.274-0.827,4.564-1.998,6.873-3.514l5.013,6.925
			c-2.55,2.067-5.53,3.721-8.94,4.961c-3.411,1.241-7.063,1.861-10.956,1.861c-5.651,0-10.431-1.207-14.341-3.618
			c-3.911-2.411-6.882-5.77-8.915-10.077c-2.033-4.307-3.049-9.285-3.049-14.936c0-5.478,0.999-10.378,2.997-14.702
			c1.998-4.323,4.858-7.752,8.579-10.284c3.721-2.532,8.166-3.798,13.333-3.798c4.858,0,9.035,1.103,12.532,3.307
			c3.497,2.206,6.202,5.332,8.114,9.38c1.912,4.049,2.868,8.915,2.868,14.599c0,0.93-0.026,1.853-0.078,2.765
			c-0.052,0.914-0.112,1.714-0.181,2.403H1738.075z M1751.098,1162.499c-3.618,0-6.607,1.292-8.966,3.876
			c-2.36,2.584-3.729,6.615-4.108,12.093h25.271c-0.104-5.133-1.198-9.078-3.282-11.834
			C1757.927,1163.877,1754.956,1162.499,1751.098,1162.499z"/>
	</g>
	<g>
		<path style="fill:#0033AD;" d="M719.492,1605.538c0,2.137,0.327,3.695,0.982,4.677c0.654,0.982,1.706,1.715,3.152,2.196
			l-2.584,7.855c-2.687-0.311-4.996-1.052-6.925-2.223c-1.93-1.171-3.394-2.945-4.393-5.322c-1.999,2.515-4.531,4.41-7.597,5.685
			c-3.067,1.274-6.34,1.912-9.819,1.912c-5.513,0-9.88-1.559-13.101-4.677c-3.222-3.118-4.832-7.21-4.832-12.274
			c0-5.753,2.239-10.181,6.718-13.281c4.478-3.101,10.886-4.651,19.224-4.651h7.804v-3.565c0-3.515-1.06-6.047-3.178-7.597
			c-2.119-1.551-5.108-2.326-8.966-2.326c-1.792,0-3.962,0.233-6.511,0.698c-2.55,0.465-5.22,1.181-8.01,2.145l-2.842-8.165
			c3.411-1.274,6.752-2.214,10.025-2.816c3.273-0.603,6.305-0.904,9.096-0.904c7.303,0,12.755,1.619,16.356,4.857
			c3.6,3.239,5.4,7.718,5.4,13.437V1605.538z M695.823,1611.791c2.342,0,4.633-0.62,6.873-1.86c2.239-1.24,4.048-2.979,5.426-5.22
			v-12.041h-6.408c-5.444,0-9.337,0.904-11.679,2.713c-2.343,1.809-3.514,4.299-3.514,7.468c0,2.895,0.783,5.108,2.351,6.641
			C690.439,1611.024,692.756,1611.791,695.823,1611.791z"/>
		<path style="fill:#0033AD;" d="M766.105,1610.81c2.549,0,4.926-0.439,7.131-1.318c2.205-0.878,4.307-2.023,6.305-3.437
			l5.375,7.442c-2.377,2.033-5.263,3.678-8.656,4.935c-3.394,1.258-6.899,1.887-10.517,1.887c-5.582,0-10.354-1.181-14.315-3.54
			c-3.962-2.359-6.995-5.676-9.096-9.948c-2.102-4.271-3.152-9.251-3.152-14.936c0-5.547,1.06-10.499,3.178-14.857
			s5.176-7.804,9.173-10.336c3.997-2.532,8.803-3.798,14.418-3.798c3.721,0,7.148,0.551,10.284,1.653
			c3.135,1.104,6.012,2.739,8.63,4.909l-5.323,7.287c-2.136-1.481-4.315-2.61-6.537-3.385c-2.222-0.775-4.505-1.163-6.848-1.163
			c-4.307,0-7.829,1.585-10.568,4.755c-2.739,3.17-4.108,8.147-4.108,14.935c0,4.548,0.628,8.209,1.886,10.982
			c1.257,2.773,2.988,4.789,5.193,6.046C760.765,1610.181,763.28,1610.81,766.105,1610.81z"/>
		<path style="fill:#0033AD;" d="M828.119,1610.81c2.549,0,4.926-0.439,7.131-1.318c2.205-0.878,4.307-2.023,6.305-3.437
			l5.375,7.442c-2.377,2.033-5.263,3.678-8.656,4.935c-3.394,1.258-6.899,1.887-10.517,1.887c-5.582,0-10.354-1.181-14.315-3.54
			c-3.962-2.359-6.995-5.676-9.096-9.948c-2.102-4.271-3.152-9.251-3.152-14.936c0-5.547,1.06-10.499,3.178-14.857
			s5.176-7.804,9.173-10.336c3.997-2.532,8.803-3.798,14.418-3.798c3.721,0,7.148,0.551,10.284,1.653
			c3.135,1.104,6.012,2.739,8.63,4.909l-5.323,7.287c-2.136-1.481-4.315-2.61-6.537-3.385c-2.222-0.775-4.505-1.163-6.848-1.163
			c-4.307,0-7.829,1.585-10.568,4.755c-2.739,3.17-4.108,8.147-4.108,14.935c0,4.548,0.628,8.209,1.886,10.982
			c1.257,2.773,2.988,4.789,5.193,6.046C822.778,1610.181,825.293,1610.81,828.119,1610.81z"/>
		<path style="fill:#0033AD;" d="M885.688,1562.903c5.34,0,9.836,1.188,13.488,3.565c3.651,2.377,6.417,5.702,8.294,9.974
			c1.877,4.272,2.816,9.303,2.816,15.091c0,5.754-0.956,10.793-2.868,15.116c-1.912,4.324-4.703,7.683-8.372,10.077
			c-3.669,2.395-8.14,3.592-13.411,3.592c-5.271,0-9.742-1.163-13.411-3.488c-3.669-2.326-6.46-5.642-8.372-9.948
			s-2.868-9.388-2.868-15.245c0-5.686,0.956-10.68,2.868-14.987c1.912-4.307,4.711-7.674,8.398-10.104
			C875.938,1564.117,880.417,1562.903,885.688,1562.903z M885.688,1571.896c-4.169,0-7.305,1.594-9.406,4.78
			c-2.102,3.187-3.152,8.174-3.152,14.961c0,6.753,1.042,11.73,3.126,14.935c2.084,3.204,5.211,4.807,9.38,4.807
			c4.168,0,7.294-1.603,9.379-4.807c2.084-3.204,3.127-8.217,3.127-15.038c0-6.719-1.034-11.671-3.101-14.857
			C892.975,1573.489,889.856,1571.896,885.688,1571.896z"/>
		<path style="fill:#0033AD;" d="M937.417,1564.35v38.14c0,3.238,0.646,5.547,1.938,6.925s3.247,2.067,5.865,2.067
			c2.481,0,4.875-0.741,7.184-2.223c2.308-1.48,4.134-3.289,5.478-5.426v-39.483h11.576v54.573h-9.974l-0.724-6.977
			c-2.033,2.722-4.6,4.798-7.7,6.228c-3.101,1.429-6.271,2.145-9.509,2.145c-5.271,0-9.208-1.455-11.809-4.367
			c-2.602-2.911-3.902-6.916-3.902-12.015v-39.587H937.417z"/>
		<path style="fill:#0033AD;" d="M987.854,1618.923v-54.573h9.974l0.878,7.08c2.274-2.79,4.961-4.909,8.062-6.356
			s6.287-2.17,9.561-2.17c5.098,0,8.915,1.421,11.447,4.263c2.532,2.843,3.798,6.831,3.798,11.964v39.793h-11.576v-34.057
			c0-3.169-0.189-5.719-0.568-7.648c-0.379-1.929-1.129-3.324-2.248-4.186c-1.12-0.861-2.783-1.292-4.987-1.292
			c-1.757,0-3.429,0.379-5.013,1.137c-1.585,0.758-3.032,1.749-4.341,2.972c-1.31,1.223-2.447,2.524-3.411,3.901v39.173H987.854z"/>
		<path style="fill:#0033AD;" d="M1095.448,1616.029c-1.999,1.274-4.393,2.309-7.183,3.101c-2.791,0.792-5.703,1.188-8.734,1.188
			c-6.339,0-11.154-1.645-14.444-4.936c-3.29-3.29-4.935-7.622-4.935-12.997v-29.612h-12.145v-8.424h12.145v-12.196l11.576-1.395
			v13.591h18.397l-1.292,8.424h-17.105v29.509c0,2.929,0.731,5.108,2.196,6.537c1.464,1.431,3.867,2.145,7.209,2.145
			c1.998,0,3.841-0.24,5.53-0.723c1.688-0.482,3.221-1.103,4.599-1.86L1095.448,1616.029z"/>
		<path style="fill:#0033AD;" d="M1221.697,1598.354c0,3.963-0.775,7.279-2.326,9.948c-1.55,2.671-3.643,4.78-6.279,6.331
			c-2.636,1.55-5.607,2.653-8.915,3.308c-3.307,0.654-6.718,0.981-10.232,0.981h-20.878v-71.316h19.483
			c3.341,0,6.563,0.284,9.664,0.853c3.101,0.568,5.883,1.542,8.346,2.92c2.463,1.378,4.418,3.229,5.866,5.555
			c1.447,2.326,2.17,5.229,2.17,8.708c0,2.998-0.62,5.548-1.86,7.648c-1.24,2.103-2.868,3.799-4.884,5.091s-4.16,2.214-6.434,2.765
			c2.584,0.413,5.125,1.215,7.623,2.403c2.498,1.188,4.565,2.972,6.202,5.349
			C1220.878,1591.274,1221.697,1594.427,1221.697,1598.354z M1206.452,1566.624c0-3.583-1.12-6.15-3.359-7.7
			c-2.24-1.551-5.393-2.326-9.458-2.326h-8.579v20.62h9.302c3.996,0,7.011-0.835,9.044-2.506
			C1205.436,1573.041,1206.452,1570.345,1206.452,1566.624z M1209.191,1598.303c0-3.204-0.62-5.685-1.86-7.441
			s-2.912-2.988-5.013-3.695c-2.102-0.706-4.462-1.06-7.08-1.06h-10.181v23.515h9.664c1.722,0,3.437-0.146,5.142-0.439
			c1.705-0.293,3.264-0.844,4.677-1.654c1.412-0.809,2.541-1.954,3.385-3.437C1208.769,1602.61,1209.191,1600.68,1209.191,1598.303z
			"/>
	</g>
	<g>
		<path style="fill:#0033AD;" d="M891.369,1752.098v69.249h-11.473v-57.363l-15.71,9.664l-4.961-8.113l21.912-13.437H891.369z
			 M905.632,1814.318v9.096H862.48v-9.096H905.632z"/>
		<path style="fill:#0033AD;" d="M943.874,1750.65c7.992,0,14.039,3.222,18.139,9.664c4.1,6.442,6.15,15.556,6.15,27.338
			c0,11.817-2.05,20.965-6.15,27.441c-4.101,6.478-10.147,9.716-18.139,9.716c-8.028,0-14.083-3.238-18.165-9.716
			c-4.083-6.477-6.124-15.624-6.124-27.441c0-11.782,2.042-20.896,6.124-27.338S935.845,1750.65,943.874,1750.65z M943.874,1759.487
			c-4.101,0-7.253,2.18-9.458,6.538c-2.205,4.358-3.307,11.567-3.307,21.627c0,5.375,0.232,9.88,0.698,13.514
			c0.465,3.636,1.206,6.538,2.222,8.708c1.016,2.171,2.333,3.729,3.953,4.677c1.619,0.948,3.583,1.422,5.892,1.422
			c2.756,0,5.082-0.938,6.977-2.816c1.894-1.878,3.333-4.901,4.315-9.07c0.982-4.168,1.473-9.646,1.473-16.434
			c0-7.062-0.422-12.652-1.266-16.77c-0.845-4.116-2.196-7.045-4.057-8.785C949.455,1760.358,946.974,1759.487,943.874,1759.487z
			 M953.486,1761.916l2.997,8.114l-21.292,43.462l-3.824-6.563L953.486,1761.916z"/>
		<path style="fill:#0033AD;" d="M1060.562,1761.193v21.446h25.839v9.096h-25.839v22.583h31.472v9.096h-43.462v-71.316h42.894
			l-1.344,9.096H1060.562z"/>
		<path style="fill:#0033AD;" d="M1135.753,1761.762v61.652h-11.989v-61.652h-21.395v-9.664h55.296l-1.24,9.664H1135.753z"/>
		<path style="fill:#0033AD;" d="M1203.555,1823.414v-32.402h-23.255v32.402h-11.989v-71.316h11.989v29.043h23.255v-29.043h11.99
			v71.316H1203.555z"/>
		<path style="fill:#0033AD;" d="M1305.722,1775.353c1.894-2.48,4.108-4.426,6.641-5.839s5.314-2.119,8.346-2.119
			c4.788,0,8.673,1.181,11.653,3.54c2.979,2.36,5.168,5.685,6.563,9.974c1.395,4.289,2.093,9.328,2.093,15.116
			c0,5.547-0.827,10.491-2.48,14.832s-4.091,7.752-7.312,10.232c-3.222,2.48-7.192,3.721-11.912,3.721
			c-6.098,0-10.887-2.256-14.367-6.771l-0.62,5.375h-10.181v-76.484l11.576-1.292V1775.353z M1316.419,1815.973
			c3.928,0,6.968-1.603,9.122-4.807c2.152-3.204,3.23-8.233,3.23-15.09c0-4.651-0.432-8.432-1.292-11.344
			c-0.862-2.911-2.128-5.038-3.798-6.382c-1.672-1.344-3.713-2.016-6.124-2.016c-2.584,0-4.858,0.775-6.822,2.325
			c-1.964,1.551-3.635,3.377-5.013,5.479v25.529c1.274,1.963,2.816,3.506,4.625,4.625
			C1312.156,1815.413,1314.179,1815.973,1316.419,1815.973z"/>
		<path style="fill:#0033AD;" d="M1397.863,1810.029c0,2.137,0.327,3.695,0.982,4.677c0.654,0.982,1.706,1.715,3.152,2.196
			l-2.584,7.855c-2.687-0.311-4.996-1.052-6.925-2.223c-1.93-1.171-3.394-2.945-4.393-5.322c-1.999,2.515-4.531,4.41-7.597,5.685
			c-3.067,1.274-6.34,1.912-9.819,1.912c-5.513,0-9.88-1.559-13.101-4.677c-3.222-3.118-4.832-7.21-4.832-12.274
			c0-5.753,2.239-10.181,6.718-13.281c4.478-3.101,10.886-4.65,19.224-4.65h7.804v-3.566c0-3.514-1.06-6.046-3.178-7.597
			s-5.108-2.325-8.966-2.325c-1.792,0-3.962,0.232-6.511,0.697c-2.55,0.465-5.22,1.181-8.01,2.145l-2.842-8.165
			c3.411-1.274,6.752-2.213,10.025-2.816c3.273-0.603,6.305-0.904,9.096-0.904c7.303,0,12.755,1.62,16.356,4.857
			c3.6,3.239,5.4,7.718,5.4,13.437V1810.029z M1374.195,1816.282c2.342,0,4.633-0.62,6.873-1.86c2.239-1.24,4.048-2.979,5.426-5.22
			v-12.041h-6.408c-5.444,0-9.337,0.904-11.679,2.713c-2.343,1.81-3.514,4.299-3.514,7.468c0,2.895,0.783,5.108,2.351,6.641
			C1368.811,1815.516,1371.128,1816.282,1374.195,1816.282z"/>
		<path style="fill:#0033AD;" d="M1442.151,1746.93v61.601c0,2.516,0.766,4.299,2.3,5.349c1.532,1.052,3.522,1.576,5.969,1.576
			c1.584,0,3.083-0.172,4.496-0.517c1.412-0.344,2.791-0.774,4.134-1.292l2.946,8.062c-1.62,0.826-3.609,1.55-5.969,2.17
			s-5.056,0.931-8.087,0.931c-5.478,0-9.742-1.542-12.791-4.625c-3.049-3.083-4.574-7.312-4.574-12.688v-52.04h-16.485v-8.527
			H1442.151z"/>
		<path style="fill:#0033AD;" d="M1521.89,1810.029c0,2.137,0.327,3.695,0.982,4.677c0.654,0.982,1.706,1.715,3.152,2.196
			l-2.584,7.855c-2.687-0.311-4.996-1.052-6.925-2.223c-1.93-1.171-3.394-2.945-4.393-5.322c-1.999,2.515-4.531,4.41-7.597,5.685
			c-3.067,1.274-6.34,1.912-9.819,1.912c-5.513,0-9.88-1.559-13.101-4.677c-3.222-3.118-4.832-7.21-4.832-12.274
			c0-5.753,2.239-10.181,6.718-13.281c4.478-3.101,10.886-4.65,19.224-4.65h7.804v-3.566c0-3.514-1.06-6.046-3.178-7.597
			s-5.108-2.325-8.966-2.325c-1.792,0-3.962,0.232-6.511,0.697c-2.55,0.465-5.22,1.181-8.01,2.145l-2.842-8.165
			c3.411-1.274,6.752-2.213,10.025-2.816c3.273-0.603,6.305-0.904,9.096-0.904c7.303,0,12.755,1.62,16.356,4.857
			c3.6,3.239,5.4,7.718,5.4,13.437V1810.029z M1498.222,1816.282c2.342,0,4.633-0.62,6.873-1.86c2.239-1.24,4.048-2.979,5.426-5.22
			v-12.041h-6.408c-5.444,0-9.337,0.904-11.679,2.713c-2.343,1.81-3.514,4.299-3.514,7.468c0,2.895,0.783,5.108,2.351,6.641
			C1492.838,1815.516,1495.155,1816.282,1498.222,1816.282z"/>
		<path style="fill:#0033AD;" d="M1542.199,1823.414v-54.572h9.974l0.878,7.079c2.274-2.79,4.961-4.909,8.062-6.356
			c3.101-1.446,6.287-2.17,9.561-2.17c5.098,0,8.915,1.421,11.447,4.264c2.532,2.842,3.798,6.83,3.798,11.963v39.793h-11.576
			v-34.057c0-3.169-0.189-5.718-0.568-7.648c-0.379-1.929-1.129-3.324-2.248-4.186c-1.12-0.86-2.783-1.292-4.987-1.292
			c-1.757,0-3.429,0.38-5.013,1.137c-1.585,0.759-3.032,1.749-4.341,2.972c-1.31,1.224-2.447,2.524-3.411,3.901v39.173H1542.199z"/>
		<path style="fill:#0033AD;" d="M1630.517,1815.301c2.549,0,4.926-0.439,7.131-1.318c2.205-0.878,4.307-2.023,6.305-3.437
			l5.375,7.442c-2.377,2.033-5.263,3.678-8.656,4.935c-3.394,1.258-6.899,1.887-10.517,1.887c-5.582,0-10.354-1.181-14.315-3.54
			c-3.962-2.359-6.995-5.676-9.096-9.948c-2.102-4.271-3.152-9.251-3.152-14.936c0-5.546,1.06-10.498,3.178-14.857
			c2.119-4.357,5.176-7.804,9.173-10.336c3.997-2.532,8.803-3.798,14.418-3.798c3.721,0,7.148,0.552,10.284,1.653
			c3.135,1.104,6.012,2.739,8.63,4.91l-5.323,7.286c-2.136-1.48-4.315-2.609-6.537-3.385s-4.505-1.163-6.848-1.163
			c-4.307,0-7.829,1.585-10.568,4.755c-2.739,3.17-4.108,8.148-4.108,14.935c0,4.548,0.628,8.209,1.886,10.982
			c1.257,2.773,2.988,4.789,5.193,6.046C1625.176,1814.672,1627.691,1815.301,1630.517,1815.301z"/>
		<path style="fill:#0033AD;" d="M1675.838,1799.849c0.241,3.721,1.034,6.762,2.377,9.121c1.343,2.36,3.108,4.092,5.297,5.194
			c2.188,1.103,4.59,1.653,7.209,1.653c2.688,0,5.168-0.413,7.442-1.24s4.564-1.998,6.873-3.515l5.013,6.926
			c-2.55,2.066-5.53,3.721-8.94,4.961c-3.411,1.24-7.063,1.86-10.956,1.86c-5.651,0-10.431-1.207-14.341-3.618
			c-3.911-2.411-6.882-5.77-8.915-10.077c-2.033-4.306-3.049-9.284-3.049-14.935c0-5.479,0.999-10.379,2.997-14.703
			c1.998-4.323,4.858-7.752,8.579-10.284c3.721-2.532,8.166-3.798,13.333-3.798c4.858,0,9.035,1.103,12.532,3.308
			c3.497,2.205,6.202,5.331,8.114,9.379c1.912,4.049,2.868,8.915,2.868,14.6c0,0.931-0.026,1.853-0.078,2.765
			c-0.052,0.913-0.112,1.715-0.181,2.403H1675.838z M1688.861,1775.973c-3.618,0-6.607,1.292-8.966,3.876
			c-2.36,2.584-3.729,6.615-4.108,12.093h25.271c-0.104-5.133-1.198-9.077-3.282-11.834
			C1695.691,1777.352,1692.72,1775.973,1688.861,1775.973z"/>
	</g>
	<g>
		<path style="fill:#0033AD;" d="M877.726,2244.098l9.767,3.876l-18.191,43.462h37.157v8.992h-49.25v-8.062L877.726,2244.098z
			 M897.983,2272.366v44.495h-11.111l-0.104-23.772l1.499-20.723H897.983z"/>
		<path style="fill:#0033AD;" d="M943.874,2244.098c7.992,0,14.039,3.222,18.139,9.664c4.1,6.442,6.15,15.556,6.15,27.338
			c0,11.817-2.05,20.965-6.15,27.441c-4.101,6.478-10.147,9.716-18.139,9.716c-8.028,0-14.083-3.238-18.165-9.716
			c-4.083-6.477-6.124-15.624-6.124-27.441c0-11.782,2.042-20.896,6.124-27.338S935.845,2244.098,943.874,2244.098z
			 M943.874,2252.935c-4.101,0-7.253,2.18-9.458,6.538c-2.205,4.358-3.307,11.567-3.307,21.627c0,5.375,0.232,9.88,0.698,13.514
			c0.465,3.636,1.206,6.538,2.222,8.708c1.016,2.171,2.333,3.729,3.953,4.677c1.619,0.948,3.583,1.422,5.892,1.422
			c2.756,0,5.082-0.938,6.977-2.816c1.894-1.878,3.333-4.901,4.315-9.07c0.982-4.168,1.473-9.646,1.473-16.434
			c0-7.062-0.422-12.652-1.266-16.77c-0.845-4.116-2.196-7.045-4.057-8.785C949.455,2253.806,946.974,2252.935,943.874,2252.935z
			 M953.486,2255.363l2.997,8.114l-21.292,43.462l-3.824-6.563L953.486,2255.363z"/>
		<path style="fill:#0033AD;" d="M1060.562,2254.641v21.446h25.839v9.096h-25.839v22.583h31.472v9.096h-43.462v-71.316h42.894
			l-1.344,9.096H1060.562z"/>
		<path style="fill:#0033AD;" d="M1135.753,2255.209v61.652h-11.989v-61.652h-21.395v-9.664h55.296l-1.24,9.664H1135.753z"/>
		<path style="fill:#0033AD;" d="M1203.555,2316.861v-32.402h-23.255v32.402h-11.989v-71.316h11.989v29.043h23.255v-29.043h11.99
			v71.316H1203.555z"/>
		<path style="fill:#0033AD;" d="M1305.722,2268.8c1.894-2.48,4.108-4.426,6.641-5.839s5.314-2.119,8.346-2.119
			c4.788,0,8.673,1.181,11.653,3.54c2.979,2.36,5.168,5.685,6.563,9.974c1.395,4.289,2.093,9.328,2.093,15.116
			c0,5.547-0.827,10.491-2.48,14.832s-4.091,7.752-7.312,10.232c-3.222,2.48-7.192,3.721-11.912,3.721
			c-6.098,0-10.887-2.256-14.367-6.771l-0.62,5.375h-10.181v-76.484l11.576-1.292V2268.8z M1316.419,2309.42
			c3.928,0,6.968-1.603,9.122-4.807c2.152-3.204,3.23-8.233,3.23-15.09c0-4.651-0.432-8.432-1.292-11.344
			c-0.862-2.911-2.128-5.038-3.798-6.382c-1.672-1.344-3.713-2.016-6.124-2.016c-2.584,0-4.858,0.775-6.822,2.325
			c-1.964,1.551-3.635,3.377-5.013,5.479v25.529c1.274,1.963,2.816,3.506,4.625,4.625
			C1312.156,2308.86,1314.179,2309.42,1316.419,2309.42z"/>
		<path style="fill:#0033AD;" d="M1397.863,2303.477c0,2.137,0.327,3.695,0.982,4.677c0.654,0.982,1.706,1.715,3.152,2.196
			l-2.584,7.855c-2.687-0.311-4.996-1.052-6.925-2.223c-1.93-1.171-3.394-2.945-4.393-5.322c-1.999,2.515-4.531,4.41-7.597,5.685
			c-3.067,1.274-6.34,1.912-9.819,1.912c-5.513,0-9.88-1.559-13.101-4.677c-3.222-3.118-4.832-7.21-4.832-12.274
			c0-5.753,2.239-10.181,6.718-13.281c4.478-3.101,10.886-4.65,19.224-4.65h7.804v-3.566c0-3.514-1.06-6.046-3.178-7.597
			s-5.108-2.325-8.966-2.325c-1.792,0-3.962,0.232-6.511,0.697c-2.55,0.465-5.22,1.181-8.01,2.145l-2.842-8.165
			c3.411-1.274,6.752-2.213,10.025-2.816c3.273-0.603,6.305-0.904,9.096-0.904c7.303,0,12.755,1.62,16.356,4.857
			c3.6,3.239,5.4,7.718,5.4,13.437V2303.477z M1374.195,2309.729c2.342,0,4.633-0.62,6.873-1.86c2.239-1.24,4.048-2.979,5.426-5.22
			v-12.041h-6.408c-5.444,0-9.337,0.904-11.679,2.713c-2.343,1.81-3.514,4.299-3.514,7.468c0,2.895,0.783,5.108,2.351,6.641
			C1368.811,2308.963,1371.128,2309.729,1374.195,2309.729z"/>
		<path style="fill:#0033AD;" d="M1442.151,2240.377v61.601c0,2.516,0.766,4.299,2.3,5.349c1.532,1.052,3.522,1.576,5.969,1.576
			c1.584,0,3.083-0.172,4.496-0.517c1.412-0.344,2.791-0.774,4.134-1.292l2.946,8.062c-1.62,0.826-3.609,1.55-5.969,2.17
			s-5.056,0.931-8.087,0.931c-5.478,0-9.742-1.542-12.791-4.625c-3.049-3.083-4.574-7.312-4.574-12.688v-52.04h-16.485v-8.527
			H1442.151z"/>
		<path style="fill:#0033AD;" d="M1521.89,2303.477c0,2.137,0.327,3.695,0.982,4.677c0.654,0.982,1.706,1.715,3.152,2.196
			l-2.584,7.855c-2.687-0.311-4.996-1.052-6.925-2.223c-1.93-1.171-3.394-2.945-4.393-5.322c-1.999,2.515-4.531,4.41-7.597,5.685
			c-3.067,1.274-6.34,1.912-9.819,1.912c-5.513,0-9.88-1.559-13.101-4.677c-3.222-3.118-4.832-7.21-4.832-12.274
			c0-5.753,2.239-10.181,6.718-13.281c4.478-3.101,10.886-4.65,19.224-4.65h7.804v-3.566c0-3.514-1.06-6.046-3.178-7.597
			s-5.108-2.325-8.966-2.325c-1.792,0-3.962,0.232-6.511,0.697c-2.55,0.465-5.22,1.181-8.01,2.145l-2.842-8.165
			c3.411-1.274,6.752-2.213,10.025-2.816c3.273-0.603,6.305-0.904,9.096-0.904c7.303,0,12.755,1.62,16.356,4.857
			c3.6,3.239,5.4,7.718,5.4,13.437V2303.477z M1498.222,2309.729c2.342,0,4.633-0.62,6.873-1.86c2.239-1.24,4.048-2.979,5.426-5.22
			v-12.041h-6.408c-5.444,0-9.337,0.904-11.679,2.713c-2.343,1.81-3.514,4.299-3.514,7.468c0,2.895,0.783,5.108,2.351,6.641
			C1492.838,2308.963,1495.155,2309.729,1498.222,2309.729z"/>
		<path style="fill:#0033AD;" d="M1542.199,2316.861v-54.572h9.974l0.878,7.079c2.274-2.79,4.961-4.909,8.062-6.356
			c3.101-1.446,6.287-2.17,9.561-2.17c5.098,0,8.915,1.421,11.447,4.264c2.532,2.842,3.798,6.83,3.798,11.963v39.793h-11.576
			v-34.057c0-3.169-0.189-5.718-0.568-7.648c-0.379-1.929-1.129-3.324-2.248-4.186c-1.12-0.86-2.783-1.292-4.987-1.292
			c-1.757,0-3.429,0.38-5.013,1.137c-1.585,0.759-3.032,1.749-4.341,2.972c-1.31,1.224-2.447,2.524-3.411,3.901v39.173H1542.199z"/>
		<path style="fill:#0033AD;" d="M1630.517,2308.748c2.549,0,4.926-0.439,7.131-1.318c2.205-0.878,4.307-2.023,6.305-3.437
			l5.375,7.442c-2.377,2.033-5.263,3.678-8.656,4.935c-3.394,1.258-6.899,1.887-10.517,1.887c-5.582,0-10.354-1.181-14.315-3.54
			c-3.962-2.359-6.995-5.676-9.096-9.948c-2.102-4.271-3.152-9.251-3.152-14.936c0-5.546,1.06-10.498,3.178-14.857
			c2.119-4.357,5.176-7.804,9.173-10.336c3.997-2.532,8.803-3.798,14.418-3.798c3.721,0,7.148,0.552,10.284,1.653
			c3.135,1.104,6.012,2.739,8.63,4.91l-5.323,7.286c-2.136-1.48-4.315-2.609-6.537-3.385s-4.505-1.163-6.848-1.163
			c-4.307,0-7.829,1.585-10.568,4.755c-2.739,3.17-4.108,8.148-4.108,14.935c0,4.548,0.628,8.209,1.886,10.982
			c1.257,2.773,2.988,4.789,5.193,6.046C1625.176,2308.119,1627.691,2308.748,1630.517,2308.748z"/>
		<path style="fill:#0033AD;" d="M1675.838,2293.296c0.241,3.721,1.034,6.762,2.377,9.121c1.343,2.36,3.108,4.092,5.297,5.194
			c2.188,1.103,4.59,1.653,7.209,1.653c2.688,0,5.168-0.413,7.442-1.24s4.564-1.998,6.873-3.515l5.013,6.926
			c-2.55,2.066-5.53,3.721-8.94,4.961c-3.411,1.24-7.063,1.86-10.956,1.86c-5.651,0-10.431-1.207-14.341-3.618
			c-3.911-2.411-6.882-5.77-8.915-10.077c-2.033-4.306-3.049-9.284-3.049-14.935c0-5.479,0.999-10.379,2.997-14.703
			c1.998-4.323,4.858-7.752,8.579-10.284c3.721-2.532,8.166-3.798,13.333-3.798c4.858,0,9.035,1.103,12.532,3.308
			c3.497,2.205,6.202,5.331,8.114,9.379c1.912,4.049,2.868,8.915,2.868,14.6c0,0.931-0.026,1.853-0.078,2.765
			c-0.052,0.913-0.112,1.715-0.181,2.403H1675.838z M1688.861,2269.42c-3.618,0-6.607,1.292-8.966,3.876
			c-2.36,2.584-3.729,6.615-4.108,12.093h25.271c-0.104-5.133-1.198-9.077-3.282-11.834
			C1695.691,2270.799,1692.72,2269.42,1688.861,2269.42z"/>
	</g>
	<g>
		<path style="fill-rule:evenodd;clip-rule:evenodd;fill:#0033AD;" d="M1342.397,2158.837v-266.729
			c0-11.043-8.962-20.005-20.005-20.005c-11.043,0-20.005,8.962-20.005,20.005v266.729c0,11.042,8.962,20.005,20.005,20.005
			C1333.435,2178.842,1342.397,2169.88,1342.397,2158.837z"/>
		<path style="fill-rule:evenodd;clip-rule:evenodd;fill:#0033AD;" d="M1374.938,2078.018l-52.546,52.519l-52.546-52.519
			c-7.789-7.815-20.485-7.815-28.273,0c-7.815,7.789-7.815,20.485,0,28.273l66.682,66.682c7.815,7.815,20.458,7.815,28.273,0
			l66.682-66.682c7.815-7.788,7.815-20.485,0-28.273C1395.423,2070.203,1382.727,2070.203,1374.938,2078.018z"/>
	</g>
	<path style="fill-rule:evenodd;clip-rule:evenodd;fill:#0033AD;" d="M2036.351,1974.35H1328.18
		c-11.043,0-20.005,8.962-20.005,20.005c0,11.043,8.962,20.005,20.005,20.005h708.172c11.043,0,20.005-8.962,20.005-20.005
		C2056.356,1983.312,2047.394,1974.35,2036.351,1974.35z"/>
	<path style="fill-rule:evenodd;clip-rule:evenodd;fill:#0033AD;" d="M2050.488,1913.536c-7.789-7.815-20.485-7.815-28.273,0
		l-66.682,66.682c-7.815,7.815-7.815,20.458,0,28.273l66.682,66.682c7.788,7.815,20.485,7.815,28.273,0
		c7.815-7.789,7.815-20.485,0-28.273l-52.519-52.546l52.519-52.546C2058.303,1934.021,2058.303,1921.324,2050.488,1913.536z"/>
	<g>
		<path style="fill-rule:evenodd;clip-rule:evenodd;fill:#0033AD;" d="M3185.505,1487.689c0,11.043,8.962,20.005,20.005,20.005
			h708.172c11.042,0,20.005-8.962,20.005-20.005c0-11.042-8.962-20.005-20.005-20.005h-708.172
			C3194.467,1467.684,3185.505,1476.646,3185.505,1487.689z"/>
		<path style="fill-rule:evenodd;clip-rule:evenodd;fill:#0033AD;" d="M3191.373,1473.552c-7.815,7.815-7.815,20.458,0,28.273
			l66.682,66.682c7.789,7.815,20.485,7.815,28.273,0c7.815-7.788,7.815-20.485,0-28.273l-52.519-52.546L3191.373,1473.552z"/>
	</g>
	<g>
		<g>
			<path style="fill-rule:evenodd;clip-rule:evenodd;fill:#0033AD;" d="M2638.79,1809.867c-11.042,0-20.005,8.962-20.005,20.005
				v163.7c0,11.043,8.962,20.005,20.005,20.005s20.005-8.962,20.005-20.005v-163.7
				C2658.795,1818.829,2649.833,1809.867,2638.79,1809.867z"/>
		</g>
		<g>
			<path style="fill-rule:evenodd;clip-rule:evenodd;fill:#0033AD;" d="M2658.163,1994.354c0-11.042-8.962-20.005-20.005-20.005
				h-709.84c-11.042,0-20.005,8.962-20.005,20.005c0,11.043,8.962,20.005,20.005,20.005h709.84
				C2649.2,2014.359,2658.163,2005.397,2658.163,1994.354z"/>
			<path style="fill-rule:evenodd;clip-rule:evenodd;fill:#0033AD;" d="M2650.626,2008.491c7.815-7.815,7.815-20.458,0-28.273
				l-42.437,14.137L2650.626,2008.491z"/>
		</g>
	</g>
</g>
<g id="Text">
	<g>
		<path d="M2314.155,1173.149v38.139c0,3.239,0.646,5.547,1.938,6.925c1.292,1.378,3.247,2.067,5.865,2.067
			c2.48,0,4.875-0.74,7.184-2.222c2.308-1.481,4.134-3.29,5.478-5.426v-39.482h11.576v54.573h-9.974l-0.724-6.977
			c-2.033,2.722-4.6,4.798-7.7,6.227s-6.271,2.145-9.509,2.145c-5.271,0-9.208-1.455-11.809-4.367
			c-2.602-2.911-3.901-6.916-3.901-12.015v-39.586H2314.155z"/>
		<path d="M2391.208,1171.702c4.823,0,8.682,1.18,11.576,3.54c2.894,2.36,4.995,5.685,6.305,9.974
			c1.309,4.29,1.964,9.328,1.964,15.116c0,5.547-0.793,10.491-2.378,14.832c-1.585,4.341-3.937,7.752-7.054,10.232
			c-3.118,2.481-6.985,3.721-11.602,3.721c-5.72,0-10.336-2.016-13.851-6.046v25.632l-11.575,1.292v-76.846h10.077l0.724,7.028
			c2.066-2.825,4.47-4.943,7.209-6.356C2385.343,1172.409,2388.211,1171.702,2391.208,1171.702z M2388.004,1180.643
			c-2.584,0-4.858,0.775-6.821,2.325c-1.964,1.551-3.636,3.377-5.014,5.478v25.529c1.31,1.964,2.868,3.471,4.678,4.522
			c1.809,1.051,3.85,1.576,6.123,1.576c3.894,0,6.856-1.567,8.89-4.703c2.032-3.135,3.049-8.131,3.049-14.987
			c0-4.651-0.405-8.432-1.215-11.344c-0.81-2.911-2.016-5.039-3.617-6.382C2392.474,1181.314,2390.449,1180.643,2388.004,1180.643z"
			/>
		<path d="M2458.647,1149.945l11.576,1.292v76.484h-10.181l-0.827-6.718c-1.86,2.584-4.082,4.583-6.666,5.995
			c-2.584,1.413-5.479,2.119-8.682,2.119c-4.687,0-8.545-1.198-11.576-3.592c-3.032-2.394-5.28-5.753-6.744-10.077
			c-1.465-4.324-2.196-9.328-2.196-15.013c0-5.547,0.86-10.482,2.584-14.806c1.722-4.323,4.186-7.726,7.39-10.207
			s7.062-3.721,11.576-3.721c2.859,0,5.426,0.509,7.7,1.524c2.273,1.017,4.289,2.489,6.046,4.418V1149.945z M2447.95,1180.591
			c-3.894,0-6.925,1.611-9.096,4.832c-2.17,3.222-3.256,8.226-3.256,15.013c0,4.651,0.448,8.432,1.344,11.343
			c0.896,2.912,2.188,5.047,3.876,6.408c1.688,1.361,3.721,2.042,6.099,2.042c2.617,0,4.892-0.758,6.821-2.274
			c1.929-1.516,3.565-3.341,4.909-5.478v-25.839c-1.344-1.929-2.911-3.419-4.702-4.47
			C2452.153,1181.116,2450.154,1180.591,2447.95,1180.591z"/>
		<path d="M2530.324,1214.337c0,2.137,0.327,3.695,0.982,4.677c0.653,0.982,1.705,1.714,3.152,2.196l-2.584,7.855
			c-2.688-0.31-4.996-1.051-6.925-2.222c-1.931-1.171-3.395-2.946-4.394-5.323c-1.998,2.516-4.53,4.411-7.597,5.685
			c-3.066,1.274-6.339,1.912-9.818,1.912c-5.513,0-9.88-1.559-13.101-4.677c-3.222-3.118-4.832-7.209-4.832-12.273
			c0-5.753,2.239-10.181,6.718-13.282c4.479-3.101,10.887-4.651,19.225-4.651h7.804v-3.566c0-3.514-1.06-6.046-3.179-7.597
			c-2.118-1.55-5.107-2.326-8.966-2.326c-1.792,0-3.962,0.233-6.512,0.698c-2.55,0.465-5.22,1.181-8.01,2.145l-2.843-8.165
			c3.411-1.274,6.752-2.213,10.026-2.816c3.272-0.603,6.305-0.904,9.095-0.904c7.304,0,12.756,1.62,16.356,4.857
			c3.6,3.239,5.4,7.718,5.4,13.437V1214.337z M2506.655,1220.59c2.343,0,4.634-0.62,6.874-1.86c2.238-1.24,4.048-2.979,5.426-5.219
			v-12.042h-6.408c-5.444,0-9.337,0.905-11.68,2.713s-3.514,4.298-3.514,7.467c0,2.894,0.783,5.108,2.352,6.641
			C2501.272,1219.824,2503.589,1220.59,2506.655,1220.59z"/>
		<path d="M2596.214,1224.828c-1.998,1.275-4.393,2.309-7.184,3.101c-2.79,0.792-5.702,1.189-8.733,1.189
			c-6.34,0-11.154-1.645-14.444-4.936c-3.29-3.29-4.936-7.623-4.936-12.997v-29.612h-12.145v-8.424h12.145v-12.196l11.576-1.395
			v13.591h18.397l-1.292,8.424h-17.105v29.508c0,2.929,0.731,5.108,2.196,6.538c1.464,1.43,3.867,2.145,7.21,2.145
			c1.997,0,3.841-0.241,5.529-0.724c1.688-0.482,3.221-1.102,4.6-1.86L2596.214,1224.828z"/>
		<path d="M2622.259,1204.156c0.241,3.721,1.034,6.762,2.378,9.121c1.344,2.36,3.108,4.092,5.297,5.194
			c2.188,1.103,4.591,1.654,7.209,1.654c2.688,0,5.168-0.414,7.441-1.24c2.274-0.827,4.565-1.998,6.874-3.514l5.013,6.925
			c-2.55,2.067-5.529,3.721-8.94,4.961c-3.411,1.241-7.063,1.861-10.956,1.861c-5.65,0-10.431-1.207-14.341-3.618
			s-6.882-5.77-8.914-10.077c-2.034-4.307-3.05-9.285-3.05-14.936c0-5.478,0.999-10.378,2.998-14.702
			c1.997-4.323,4.857-7.752,8.578-10.284s8.165-3.798,13.333-3.798c4.858,0,9.035,1.103,12.532,3.307
			c3.496,2.206,6.201,5.332,8.113,9.38c1.912,4.049,2.868,8.915,2.868,14.599c0,0.93-0.025,1.853-0.077,2.765
			c-0.052,0.914-0.112,1.714-0.181,2.403H2622.259z M2635.282,1180.281c-3.617,0-6.606,1.292-8.966,3.876
			c-2.36,2.584-3.73,6.615-4.108,12.093h25.271c-0.104-5.133-1.197-9.078-3.281-11.834
			C2642.112,1181.659,2639.141,1180.281,2635.282,1180.281z"/>
		<path d="M2694.505,1220.229c3.618,0,6.494-0.646,8.631-1.938c2.136-1.292,3.204-3.075,3.204-5.349
			c0-1.481-0.311-2.747-0.931-3.798c-0.62-1.05-1.86-2.015-3.721-2.894c-1.86-0.878-4.686-1.8-8.476-2.765
			c-3.583-0.93-6.727-2.032-9.431-3.308c-2.705-1.274-4.798-2.928-6.279-4.961c-1.481-2.032-2.222-4.651-2.222-7.855
			c0-3.135,0.878-5.874,2.635-8.217c1.758-2.342,4.281-4.168,7.571-5.478c3.29-1.309,7.157-1.964,11.602-1.964
			c4.582,0,8.579,0.603,11.99,1.809c3.41,1.207,6.321,2.705,8.733,4.496l-4.857,7.287c-2.137-1.412-4.471-2.566-7.003-3.462
			c-2.532-0.896-5.384-1.344-8.553-1.344c-3.688,0-6.331,0.552-7.933,1.654c-1.603,1.103-2.403,2.567-2.403,4.393
			c0,1.344,0.404,2.473,1.215,3.385c0.809,0.913,2.213,1.757,4.212,2.532c1.997,0.775,4.822,1.679,8.475,2.713
			c3.549,0.965,6.641,2.102,9.276,3.411c2.636,1.31,4.686,3.041,6.15,5.194c1.464,2.154,2.196,4.953,2.196,8.398
			c0,3.927-1.129,7.141-3.386,9.638c-2.257,2.498-5.219,4.341-8.889,5.529c-3.669,1.188-7.605,1.783-11.809,1.783
			c-5.064,0-9.439-0.732-13.126-2.196c-3.687-1.464-6.788-3.299-9.302-5.504l6.149-7.028c2.136,1.723,4.582,3.126,7.338,4.212
			C2688.321,1219.686,2691.301,1220.229,2694.505,1220.229z"/>
		<path d="M2844.268,1224.828c-1.998,1.275-4.393,2.309-7.184,3.101c-2.79,0.792-5.702,1.189-8.733,1.189
			c-6.34,0-11.154-1.645-14.444-4.936c-3.29-3.29-4.936-7.623-4.936-12.997v-29.612h-12.145v-8.424h12.145v-12.196l11.576-1.395
			v13.591h18.397l-1.292,8.424h-17.105v29.508c0,2.929,0.731,5.108,2.196,6.538c1.464,1.43,3.867,2.145,7.21,2.145
			c1.997,0,3.841-0.241,5.529-0.724c1.688-0.482,3.221-1.102,4.6-1.86L2844.268,1224.828z"/>
		<path d="M2872.276,1150.1v29.715c2.205-2.687,4.789-4.711,7.752-6.072c2.963-1.36,6.012-2.041,9.147-2.041
			c5.133,0,8.957,1.421,11.473,4.263c2.515,2.842,3.772,6.831,3.772,11.964v39.792h-11.576v-37.984c0-3.272-0.62-5.624-1.86-7.054
			c-1.24-1.429-3.238-2.145-5.995-2.145c-1.723,0-3.367,0.388-4.935,1.163c-1.568,0.775-3.016,1.783-4.341,3.023
			c-1.327,1.24-2.473,2.567-3.438,3.979v39.018h-11.575v-76.381L2872.276,1150.1z"/>
		<path d="M2932.326,1204.156c0.241,3.721,1.034,6.762,2.378,9.121c1.344,2.36,3.108,4.092,5.297,5.194
			c2.188,1.103,4.591,1.654,7.209,1.654c2.688,0,5.168-0.414,7.441-1.24c2.274-0.827,4.565-1.998,6.874-3.514l5.013,6.925
			c-2.55,2.067-5.529,3.721-8.94,4.961c-3.411,1.241-7.063,1.861-10.956,1.861c-5.65,0-10.431-1.207-14.341-3.618
			s-6.882-5.77-8.914-10.077c-2.034-4.307-3.05-9.285-3.05-14.936c0-5.478,0.999-10.378,2.998-14.702
			c1.997-4.323,4.857-7.752,8.578-10.284s8.165-3.798,13.333-3.798c4.858,0,9.035,1.103,12.532,3.307
			c3.496,2.206,6.201,5.332,8.113,9.38c1.912,4.049,2.868,8.915,2.868,14.599c0,0.93-0.025,1.853-0.077,2.765
			c-0.052,0.914-0.112,1.714-0.181,2.403H2932.326z M2945.35,1180.281c-3.617,0-6.606,1.292-8.966,3.876
			c-2.36,2.584-3.73,6.615-4.108,12.093h25.271c-0.104-5.133-1.197-9.078-3.281-11.834
			C2952.18,1181.659,2949.208,1180.281,2945.35,1180.281z"/>
		<path d="M2224.496,1289.586l3.101,9.612c-2.171,0.723-4.557,1.206-7.158,1.447c-2.602,0.242-5.503,0.362-8.707,0.362
			c3.272,1.447,5.736,3.299,7.39,5.556c1.653,2.257,2.48,5.021,2.48,8.294c0,3.549-0.861,6.718-2.584,9.509s-4.186,4.979-7.39,6.563
			c-3.204,1.585-7.046,2.377-11.524,2.377c-1.585,0-2.955-0.069-4.108-0.207c-1.155-0.137-2.283-0.361-3.385-0.671
			c-0.69,0.482-1.267,1.128-1.731,1.938c-0.466,0.81-0.698,1.663-0.698,2.558c0,1.103,0.457,2.059,1.37,2.868
			c0.912,0.81,2.729,1.215,5.452,1.215h9.509c3.893,0,7.329,0.664,10.31,1.989c2.979,1.327,5.323,3.136,7.028,5.426
			c1.705,2.292,2.559,4.884,2.559,7.778c0,5.443-2.344,9.664-7.028,12.661c-4.687,2.998-11.439,4.496-20.259,4.496
			c-6.236,0-11.128-0.638-14.677-1.912c-3.549-1.275-6.046-3.17-7.493-5.685c-1.447-2.515-2.171-5.599-2.171-9.25h10.388
			c0,1.895,0.37,3.462,1.111,4.703c0.74,1.24,2.127,2.17,4.16,2.791c2.032,0.621,4.961,0.931,8.785,0.931s6.864-0.319,9.121-0.956
			c2.257-0.638,3.894-1.551,4.91-2.739c1.016-1.188,1.524-2.61,1.524-4.263c0-2.206-0.965-3.911-2.895-5.116
			s-4.514-1.809-7.752-1.809h-9.354c-5.168,0-8.949-1.05-11.344-3.152c-2.395-2.101-3.591-4.548-3.591-7.338
			c0-1.86,0.524-3.651,1.576-5.375c1.05-1.722,2.558-3.221,4.521-4.496c-3.273-1.722-5.659-3.815-7.157-6.279
			c-1.499-2.463-2.248-5.452-2.248-8.966c0-3.858,0.964-7.235,2.894-10.129s4.607-5.15,8.036-6.77
			c3.428-1.619,7.381-2.429,11.86-2.429c4.375,0,8.027-0.233,10.956-0.698c2.928-0.465,5.485-1.128,7.674-1.99
			C2220.146,1291.567,2222.325,1290.62,2224.496,1289.586z M2199.432,1303.074c-3.688,0-6.46,1.042-8.32,3.126
			c-1.86,2.085-2.791,4.798-2.791,8.139c0,3.446,0.956,6.21,2.868,8.294c1.912,2.085,4.711,3.126,8.398,3.126
			c3.41,0,6.021-0.999,7.829-2.997c1.809-1.998,2.713-4.84,2.713-8.527c0-3.721-0.896-6.512-2.688-8.372
			C2205.649,1304.004,2202.979,1303.074,2199.432,1303.074z"/>
		<path d="M2264.546,1274.599v61.601c0,2.515,0.767,4.298,2.3,5.349c1.532,1.051,3.522,1.576,5.969,1.576
			c1.584,0,3.083-0.172,4.496-0.517c1.412-0.344,2.791-0.775,4.134-1.292l2.946,8.062c-1.62,0.827-3.609,1.55-5.969,2.171
			c-2.36,0.62-5.057,0.93-8.088,0.93c-5.479,0-9.741-1.542-12.791-4.625c-3.049-3.083-4.573-7.312-4.573-12.687v-52.041h-16.485
			v-8.527H2264.546z"/>
		<path d="M2324.44,1295.064c5.34,0,9.836,1.188,13.488,3.566c3.651,2.377,6.416,5.702,8.295,9.974
			c1.877,4.272,2.816,9.302,2.816,15.09c0,5.754-0.956,10.792-2.868,15.116s-4.703,7.683-8.372,10.077s-8.14,3.592-13.411,3.592
			c-5.271,0-9.741-1.163-13.41-3.488c-3.669-2.326-6.46-5.641-8.372-9.948c-1.912-4.307-2.868-9.388-2.868-15.245
			c0-5.685,0.956-10.68,2.868-14.987c1.912-4.307,4.711-7.674,8.397-10.104C2314.69,1296.278,2319.17,1295.064,2324.44,1295.064z
			 M2324.44,1304.056c-4.169,0-7.304,1.594-9.405,4.78c-2.102,3.187-3.152,8.174-3.152,14.961c0,6.753,1.042,11.731,3.127,14.935
			c2.084,3.204,5.21,4.806,9.379,4.806s7.295-1.602,9.38-4.806c2.084-3.204,3.127-8.217,3.127-15.039
			c0-6.718-1.034-11.67-3.101-14.857C2331.728,1305.65,2328.609,1304.056,2324.44,1304.056z"/>
		<path d="M2376.169,1303.022c1.895-2.48,4.108-4.427,6.642-5.84c2.532-1.412,5.313-2.119,8.346-2.119
			c4.788,0,8.673,1.18,11.653,3.54c2.979,2.36,5.168,5.685,6.563,9.974c1.396,4.29,2.093,9.328,2.093,15.116
			c0,5.547-0.827,10.491-2.48,14.832c-1.653,4.341-4.092,7.752-7.312,10.232c-3.222,2.481-7.192,3.721-11.912,3.721
			c-6.098,0-10.887-2.256-14.366-6.77l-0.62,5.375h-10.181v-76.484l11.575-1.292V1303.022z M2386.867,1343.642
			c3.927,0,6.968-1.602,9.121-4.806c2.152-3.204,3.229-8.234,3.229-15.09c0-4.651-0.431-8.432-1.292-11.344
			c-0.861-2.911-2.127-5.039-3.798-6.382c-1.672-1.343-3.713-2.015-6.124-2.015c-2.584,0-4.858,0.775-6.821,2.325
			c-1.964,1.551-3.636,3.377-5.014,5.478v25.529c1.274,1.964,2.817,3.506,4.626,4.625
			C2382.604,1343.082,2384.627,1343.642,2386.867,1343.642z"/>
		<path d="M2468.312,1337.699c0,2.137,0.327,3.695,0.982,4.677c0.653,0.982,1.705,1.714,3.152,2.196l-2.584,7.855
			c-2.688-0.31-4.996-1.051-6.925-2.222c-1.931-1.171-3.395-2.946-4.394-5.323c-1.998,2.516-4.53,4.411-7.597,5.685
			c-3.066,1.274-6.339,1.912-9.818,1.912c-5.513,0-9.88-1.559-13.101-4.677c-3.222-3.118-4.832-7.209-4.832-12.273
			c0-5.753,2.239-10.181,6.718-13.282c4.479-3.101,10.887-4.651,19.225-4.651h7.804v-3.566c0-3.514-1.06-6.046-3.179-7.597
			c-2.118-1.55-5.107-2.326-8.966-2.326c-1.792,0-3.962,0.233-6.512,0.698c-2.55,0.465-5.22,1.181-8.01,2.145l-2.843-8.165
			c3.411-1.274,6.752-2.213,10.026-2.816c3.272-0.603,6.305-0.904,9.095-0.904c7.304,0,12.756,1.62,16.356,4.857
			c3.6,3.239,5.4,7.718,5.4,13.437V1337.699z M2444.643,1343.952c2.343,0,4.634-0.62,6.874-1.86c2.238-1.24,4.048-2.979,5.426-5.219
			v-12.042h-6.408c-5.444,0-9.337,0.905-11.68,2.713s-3.514,4.298-3.514,7.467c0,2.894,0.783,5.108,2.352,6.641
			C2439.26,1343.186,2441.576,1343.952,2444.643,1343.952z"/>
		<path d="M2512.6,1274.599v61.601c0,2.515,0.767,4.298,2.3,5.349c1.532,1.051,3.522,1.576,5.969,1.576
			c1.584,0,3.083-0.172,4.496-0.517c1.412-0.344,2.791-0.775,4.134-1.292l2.946,8.062c-1.62,0.827-3.609,1.55-5.969,2.171
			c-2.36,0.62-5.057,0.93-8.088,0.93c-5.479,0-9.741-1.542-12.791-4.625c-3.049-3.083-4.573-7.312-4.573-12.687v-52.041h-16.485
			v-8.527H2512.6z"/>
		<path d="M2632.491,1343.59c3.618,0,6.494-0.646,8.631-1.938c2.136-1.292,3.204-3.075,3.204-5.349c0-1.481-0.311-2.747-0.931-3.798
			c-0.62-1.05-1.86-2.015-3.721-2.894c-1.86-0.878-4.686-1.8-8.476-2.765c-3.583-0.93-6.727-2.032-9.431-3.308
			c-2.705-1.274-4.798-2.928-6.279-4.961c-1.481-2.032-2.222-4.651-2.222-7.855c0-3.135,0.878-5.874,2.635-8.217
			c1.758-2.342,4.281-4.168,7.571-5.478c3.29-1.309,7.157-1.964,11.602-1.964c4.582,0,8.579,0.603,11.99,1.809
			c3.41,1.207,6.321,2.705,8.733,4.496l-4.857,7.287c-2.137-1.412-4.471-2.566-7.003-3.462c-2.532-0.896-5.384-1.344-8.553-1.344
			c-3.688,0-6.331,0.552-7.933,1.654c-1.603,1.103-2.403,2.567-2.403,4.393c0,1.344,0.404,2.473,1.215,3.385
			c0.809,0.913,2.213,1.757,4.212,2.532c1.997,0.775,4.822,1.679,8.475,2.713c3.549,0.965,6.641,2.102,9.276,3.411
			c2.636,1.31,4.686,3.041,6.15,5.194c1.464,2.154,2.196,4.953,2.196,8.398c0,3.927-1.129,7.141-3.386,9.638
			c-2.257,2.498-5.219,4.341-8.889,5.529c-3.669,1.188-7.605,1.783-11.809,1.783c-5.064,0-9.439-0.732-13.126-2.196
			c-3.687-1.464-6.788-3.299-9.302-5.504l6.149-7.028c2.136,1.723,4.582,3.126,7.338,4.212
			C2626.308,1343.047,2629.287,1343.59,2632.491,1343.59z"/>
		<path d="M2720.241,1348.189c-1.998,1.275-4.393,2.309-7.184,3.101c-2.79,0.792-5.702,1.189-8.733,1.189
			c-6.34,0-11.154-1.645-14.444-4.936c-3.29-3.29-4.936-7.623-4.936-12.997v-29.612H2672.8v-8.424h12.145v-12.196l11.576-1.395
			v13.591h18.397l-1.292,8.424h-17.105v29.508c0,2.929,0.731,5.108,2.196,6.538c1.464,1.43,3.867,2.145,7.21,2.145
			c1.997,0,3.841-0.241,5.529-0.724c1.688-0.482,3.221-1.102,4.6-1.86L2720.241,1348.189z"/>
		<path d="M2778.379,1337.699c0,2.137,0.327,3.695,0.982,4.677c0.653,0.982,1.705,1.714,3.152,2.196l-2.584,7.855
			c-2.688-0.31-4.996-1.051-6.925-2.222c-1.931-1.171-3.395-2.946-4.394-5.323c-1.998,2.516-4.53,4.411-7.597,5.685
			c-3.066,1.274-6.339,1.912-9.818,1.912c-5.513,0-9.88-1.559-13.101-4.677c-3.222-3.118-4.832-7.209-4.832-12.273
			c0-5.753,2.239-10.181,6.718-13.282c4.479-3.101,10.887-4.651,19.225-4.651h7.804v-3.566c0-3.514-1.06-6.046-3.179-7.597
			c-2.118-1.55-5.107-2.326-8.966-2.326c-1.792,0-3.962,0.233-6.512,0.698c-2.55,0.465-5.22,1.181-8.01,2.145l-2.843-8.165
			c3.411-1.274,6.752-2.213,10.026-2.816c3.272-0.603,6.305-0.904,9.095-0.904c7.304,0,12.756,1.62,16.356,4.857
			c3.6,3.239,5.4,7.718,5.4,13.437V1337.699z M2754.71,1343.952c2.343,0,4.634-0.62,6.874-1.86c2.238-1.24,4.048-2.979,5.426-5.219
			v-12.042h-6.408c-5.444,0-9.337,0.905-11.68,2.713s-3.514,4.298-3.514,7.467c0,2.894,0.783,5.108,2.352,6.641
			C2749.327,1343.186,2751.644,1343.952,2754.71,1343.952z"/>
		<path d="M2844.269,1348.189c-1.998,1.275-4.393,2.309-7.184,3.101c-2.79,0.792-5.702,1.189-8.733,1.189
			c-6.34,0-11.154-1.645-14.444-4.936c-3.29-3.29-4.936-7.623-4.936-12.997v-29.612h-12.145v-8.424h12.145v-12.196l11.576-1.395
			v13.591h18.397l-1.292,8.424h-17.105v29.508c0,2.929,0.731,5.108,2.196,6.538c1.464,1.43,3.867,2.145,7.21,2.145
			c1.997,0,3.841-0.241,5.529-0.724c1.688-0.482,3.221-1.102,4.6-1.86L2844.269,1348.189z"/>
		<path d="M2870.312,1327.518c0.241,3.721,1.034,6.762,2.378,9.121c1.344,2.36,3.108,4.092,5.297,5.194
			c2.188,1.103,4.591,1.654,7.209,1.654c2.688,0,5.168-0.414,7.441-1.24c2.274-0.827,4.565-1.998,6.874-3.514l5.013,6.925
			c-2.55,2.067-5.529,3.721-8.94,4.961c-3.411,1.241-7.063,1.861-10.956,1.861c-5.65,0-10.431-1.207-14.341-3.618
			s-6.882-5.77-8.914-10.077c-2.034-4.307-3.05-9.285-3.05-14.936c0-5.478,0.999-10.378,2.998-14.702
			c1.997-4.323,4.857-7.752,8.578-10.284s8.165-3.798,13.333-3.798c4.858,0,9.035,1.103,12.532,3.307
			c3.496,2.206,6.201,5.332,8.113,9.38c1.912,4.049,2.868,8.915,2.868,14.599c0,0.93-0.025,1.853-0.077,2.765
			c-0.052,0.914-0.112,1.714-0.181,2.403H2870.312z M2883.336,1303.643c-3.617,0-6.606,1.292-8.966,3.876
			c-2.36,2.584-3.73,6.615-4.108,12.093h25.271c-0.104-5.133-1.197-9.078-3.281-11.834
			C2890.166,1305.021,2887.194,1303.643,2883.336,1303.643z"/>
		<path d="M3030.309,1348.189c-1.998,1.275-4.393,2.309-7.184,3.101c-2.79,0.792-5.702,1.189-8.733,1.189
			c-6.34,0-11.154-1.645-14.444-4.936c-3.29-3.29-4.936-7.623-4.936-12.997v-29.612h-12.145v-8.424h12.145v-12.196l11.576-1.395
			v13.591h18.397l-1.292,8.424h-17.105v29.508c0,2.929,0.731,5.108,2.196,6.538c1.464,1.43,3.867,2.145,7.21,2.145
			c1.997,0,3.841-0.241,5.529-0.724c1.688-0.482,3.221-1.102,4.6-1.86L3030.309,1348.189z"/>
		<path d="M3068.602,1295.064c5.34,0,9.836,1.188,13.488,3.566c3.651,2.377,6.416,5.702,8.295,9.974
			c1.877,4.272,2.816,9.302,2.816,15.09c0,5.754-0.956,10.792-2.868,15.116s-4.703,7.683-8.372,10.077s-8.14,3.592-13.411,3.592
			c-5.271,0-9.741-1.163-13.41-3.488c-3.669-2.326-6.46-5.641-8.372-9.948c-1.912-4.307-2.868-9.388-2.868-15.245
			c0-5.685,0.956-10.68,2.868-14.987c1.912-4.307,4.711-7.674,8.397-10.104C3058.852,1296.278,3063.331,1295.064,3068.602,1295.064z
			 M3068.602,1304.056c-4.169,0-7.304,1.594-9.405,4.78c-2.102,3.187-3.152,8.174-3.152,14.961c0,6.753,1.042,11.731,3.127,14.935
			c2.084,3.204,5.21,4.806,9.379,4.806s7.295-1.602,9.38-4.806c2.084-3.204,3.127-8.217,3.127-15.039
			c0-6.718-1.034-11.67-3.101-14.857C3075.889,1305.65,3072.771,1304.056,3068.602,1304.056z"/>
		<path d="M2260.411,1466.952c3.618,0,6.494-0.646,8.631-1.938c2.136-1.292,3.204-3.075,3.204-5.35c0-1.48-0.311-2.747-0.931-3.798
			s-1.86-2.016-3.721-2.895c-1.86-0.878-4.686-1.8-8.476-2.765c-3.583-0.93-6.727-2.032-9.431-3.308
			c-2.705-1.273-4.798-2.928-6.279-4.961c-1.481-2.032-2.222-4.65-2.222-7.854c0-3.135,0.878-5.874,2.635-8.218
			c1.758-2.342,4.281-4.168,7.571-5.478c3.29-1.309,7.157-1.964,11.602-1.964c4.582,0,8.579,0.604,11.99,1.809
			c3.41,1.207,6.321,2.705,8.733,4.496l-4.857,7.287c-2.137-1.412-4.471-2.566-7.003-3.463c-2.532-0.896-5.384-1.344-8.553-1.344
			c-3.688,0-6.331,0.552-7.933,1.654c-1.603,1.103-2.403,2.566-2.403,4.393c0,1.344,0.404,2.473,1.215,3.385
			c0.809,0.913,2.213,1.757,4.212,2.532c1.997,0.775,4.822,1.68,8.475,2.713c3.549,0.965,6.641,2.103,9.276,3.411
			c2.636,1.31,4.686,3.041,6.15,5.193c1.464,2.154,2.196,4.953,2.196,8.398c0,3.927-1.129,7.141-3.386,9.638
			c-2.257,2.498-5.219,4.341-8.889,5.529c-3.669,1.188-7.605,1.783-11.809,1.783c-5.064,0-9.439-0.732-13.126-2.196
			s-6.788-3.299-9.302-5.504l6.149-7.028c2.136,1.724,4.582,3.127,7.338,4.212
			C2254.228,1466.409,2257.207,1466.952,2260.411,1466.952z"/>
		<path d="M2314.156,1396.824v29.715c2.205-2.687,4.789-4.711,7.752-6.072c2.963-1.36,6.012-2.041,9.147-2.041
			c5.133,0,8.957,1.421,11.473,4.264c2.515,2.842,3.772,6.83,3.772,11.964v39.792h-11.576v-37.983c0-3.272-0.62-5.624-1.86-7.055
			c-1.24-1.429-3.238-2.145-5.995-2.145c-1.723,0-3.367,0.388-4.935,1.163c-1.568,0.775-3.016,1.783-4.341,3.023
			c-1.327,1.24-2.473,2.566-3.438,3.979v39.018h-11.575v-76.381L2314.156,1396.824z"/>
		<path d="M2386.454,1418.426c5.34,0,9.836,1.188,13.488,3.566c3.651,2.377,6.416,5.702,8.295,9.974
			c1.877,4.272,2.816,9.302,2.816,15.09c0,5.754-0.956,10.793-2.868,15.116c-1.912,4.324-4.703,7.684-8.372,10.077
			c-3.669,2.395-8.14,3.592-13.411,3.592c-5.271,0-9.741-1.163-13.41-3.488s-6.46-5.641-8.372-9.948
			c-1.912-4.307-2.868-9.388-2.868-15.245c0-5.685,0.956-10.68,2.868-14.986s4.711-7.675,8.397-10.104
			S2381.184,1418.426,2386.454,1418.426z M2386.454,1427.418c-4.169,0-7.304,1.594-9.405,4.78
			c-2.102,3.188-3.152,8.174-3.152,14.961c0,6.753,1.042,11.731,3.127,14.936c2.084,3.204,5.21,4.806,9.379,4.806
			s7.295-1.602,9.38-4.806c2.084-3.204,3.127-8.217,3.127-15.039c0-6.718-1.034-11.67-3.101-14.857
			C2393.741,1429.012,2390.623,1427.418,2386.454,1427.418z"/>
		<path d="M2469.294,1474.445h-14.471l-6.149-38.759l-6.615,38.759h-14.159l-9.251-54.572h11.163l5.685,47.39l7.597-40.465h11.576
			l7.079,40.465l5.686-47.39h10.749L2469.294,1474.445z"/>
		<path d="M2596.215,1471.552c-1.998,1.274-4.393,2.309-7.184,3.101c-2.79,0.792-5.702,1.188-8.733,1.188
			c-6.34,0-11.154-1.645-14.444-4.936c-3.29-3.289-4.936-7.622-4.936-12.997v-29.611h-12.145v-8.424h12.145v-12.196l11.576-1.396
			v13.592h18.397l-1.292,8.424h-17.105v29.508c0,2.929,0.731,5.108,2.196,6.538c1.464,1.43,3.867,2.145,7.21,2.145
			c1.997,0,3.841-0.241,5.529-0.724c1.688-0.482,3.221-1.103,4.6-1.86L2596.215,1471.552z"/>
		<path d="M2613.165,1474.445v-8.269h8.01v-38.087h-8.01v-8.217h16.847l2.119,12.661c2.032-4.582,4.556-8.07,7.571-10.465
			c3.014-2.395,6.898-3.592,11.653-3.592c1.619,0,3.075,0.129,4.367,0.388c1.291,0.259,2.574,0.594,3.85,1.008l-3.463,9.922
			c-1.103-0.31-2.136-0.542-3.101-0.697s-2.033-0.232-3.204-0.232c-3.962,0-7.382,1.481-10.258,4.444
			c-2.877,2.963-5.143,7.166-6.796,12.609v20.258h11.008v8.269H2613.165z M2649.34,1439.976v-13.437l1.447-6.666h8.785
			l-1.964,20.103H2649.34z"/>
		<path d="M2716.365,1461.061c0,2.137,0.327,3.695,0.982,4.677c0.653,0.982,1.705,1.715,3.152,2.196l-2.584,7.855
			c-2.688-0.31-4.996-1.051-6.925-2.222c-1.931-1.171-3.395-2.946-4.394-5.323c-1.998,2.516-4.53,4.41-7.597,5.685
			s-6.339,1.912-9.818,1.912c-5.513,0-9.88-1.559-13.101-4.677c-3.222-3.118-4.832-7.209-4.832-12.273
			c0-5.754,2.239-10.181,6.718-13.282c4.479-3.101,10.887-4.65,19.225-4.65h7.804v-3.566c0-3.514-1.06-6.046-3.179-7.597
			c-2.118-1.55-5.107-2.325-8.966-2.325c-1.792,0-3.962,0.232-6.512,0.697c-2.55,0.466-5.22,1.181-8.01,2.145l-2.843-8.165
			c3.411-1.274,6.752-2.213,10.026-2.816c3.272-0.603,6.305-0.904,9.095-0.904c7.304,0,12.756,1.62,16.356,4.857
			c3.6,3.239,5.4,7.719,5.4,13.437V1461.061z M2692.696,1467.313c2.343,0,4.634-0.62,6.874-1.86c2.238-1.24,4.048-2.979,5.426-5.219
			v-12.042h-6.408c-5.444,0-9.337,0.905-11.68,2.714s-3.514,4.298-3.514,7.467c0,2.895,0.783,5.108,2.352,6.642
			C2687.313,1466.548,2689.63,1467.313,2692.696,1467.313z"/>
		<path d="M2736.675,1474.445v-54.572h9.974l0.879,7.08c2.273-2.791,4.961-4.91,8.062-6.356c3.101-1.447,6.287-2.171,9.561-2.171
			c5.099,0,8.914,1.421,11.446,4.264c2.532,2.842,3.799,6.83,3.799,11.964v39.792h-11.576v-34.056c0-3.17-0.189-5.719-0.568-7.648
			c-0.38-1.93-1.129-3.325-2.248-4.187c-1.12-0.86-2.782-1.292-4.987-1.292c-1.757,0-3.428,0.38-5.013,1.137
			c-1.585,0.759-3.032,1.749-4.341,2.972c-1.31,1.224-2.446,2.524-3.411,3.902v39.172H2736.675z"/>
		<path d="M2818.532,1466.952c3.618,0,6.494-0.646,8.631-1.938c2.136-1.292,3.204-3.075,3.204-5.35c0-1.48-0.311-2.747-0.931-3.798
			s-1.86-2.016-3.721-2.895c-1.86-0.878-4.686-1.8-8.476-2.765c-3.583-0.93-6.727-2.032-9.431-3.308
			c-2.705-1.273-4.798-2.928-6.279-4.961c-1.481-2.032-2.222-4.65-2.222-7.854c0-3.135,0.878-5.874,2.635-8.218
			c1.758-2.342,4.281-4.168,7.571-5.478c3.29-1.309,7.157-1.964,11.602-1.964c4.582,0,8.579,0.604,11.99,1.809
			c3.41,1.207,6.321,2.705,8.733,4.496l-4.857,7.287c-2.137-1.412-4.471-2.566-7.003-3.463c-2.532-0.896-5.384-1.344-8.553-1.344
			c-3.688,0-6.331,0.552-7.933,1.654c-1.603,1.103-2.403,2.566-2.403,4.393c0,1.344,0.404,2.473,1.215,3.385
			c0.809,0.913,2.213,1.757,4.212,2.532c1.997,0.775,4.822,1.68,8.475,2.713c3.549,0.965,6.641,2.103,9.276,3.411
			c2.636,1.31,4.686,3.041,6.15,5.193c1.464,2.154,2.196,4.953,2.196,8.398c0,3.927-1.129,7.141-3.386,9.638
			c-2.257,2.498-5.219,4.341-8.889,5.529c-3.669,1.188-7.605,1.783-11.809,1.783c-5.064,0-9.439-0.732-13.126-2.196
			s-6.788-3.299-9.302-5.504l6.149-7.028c2.136,1.724,4.582,3.127,7.338,4.212
			C2812.349,1466.409,2815.328,1466.952,2818.532,1466.952z"/>
		<path d="M2893.88,1396.669c3.341,0,6.33,0.284,8.966,0.853s5.072,1.336,7.312,2.3l-3.411,8.011
			c-1.826-0.758-3.729-1.31-5.71-1.654c-1.981-0.344-3.988-0.517-6.021-0.517c-3.584,0-6.236,0.681-7.959,2.041
			c-1.723,1.362-2.584,3.507-2.584,6.435v9.664h18.243l-1.24,8.526h-17.003v42.118h-11.524v-42.118h-12.402v-8.526h12.402v-9.768
			c0-3.444,0.87-6.468,2.61-9.069c1.739-2.602,4.177-4.634,7.312-6.099C2886.007,1397.401,2889.676,1396.669,2893.88,1396.669z"/>
		<path d="M2932.326,1450.88c0.241,3.721,1.034,6.762,2.378,9.121c1.344,2.36,3.108,4.092,5.297,5.194
			c2.188,1.103,4.591,1.653,7.209,1.653c2.688,0,5.168-0.413,7.441-1.24c2.274-0.827,4.565-1.998,6.874-3.514l5.013,6.925
			c-2.55,2.067-5.529,3.721-8.94,4.961s-7.063,1.86-10.956,1.86c-5.65,0-10.431-1.206-14.341-3.617s-6.882-5.771-8.914-10.077
			c-2.034-4.307-3.05-9.285-3.05-14.936c0-5.478,0.999-10.379,2.998-14.702c1.997-4.323,4.857-7.752,8.578-10.284
			s8.165-3.799,13.333-3.799c4.858,0,9.035,1.104,12.532,3.308c3.496,2.205,6.201,5.332,8.113,9.38
			c1.912,4.049,2.868,8.914,2.868,14.599c0,0.931-0.025,1.853-0.077,2.765c-0.052,0.914-0.112,1.715-0.181,2.403H2932.326z
			 M2945.35,1427.005c-3.617,0-6.606,1.292-8.966,3.876c-2.36,2.584-3.73,6.614-4.108,12.093h25.271
			c-0.104-5.134-1.197-9.078-3.281-11.835C2952.18,1428.383,2949.208,1427.005,2945.35,1427.005z"/>
		<path d="M2985.245,1474.445v-8.269h8.01v-38.087h-8.01v-8.217h16.847l2.119,12.661c2.032-4.582,4.556-8.07,7.571-10.465
			c3.014-2.395,6.898-3.592,11.653-3.592c1.619,0,3.075,0.129,4.367,0.388c1.291,0.259,2.574,0.594,3.85,1.008l-3.463,9.922
			c-1.103-0.31-2.136-0.542-3.101-0.697s-2.033-0.232-3.204-0.232c-3.962,0-7.382,1.481-10.258,4.444
			c-2.877,2.963-5.143,7.166-6.796,12.609v20.258h11.008v8.269H2985.245z M3021.42,1439.976v-13.437l1.447-6.666h8.785
			l-1.964,20.103H3021.42z"/>
		<path d="M2386.453,1541.788c5.34,0,9.836,1.188,13.488,3.565c3.651,2.377,6.416,5.702,8.295,9.974
			c1.877,4.272,2.816,9.303,2.816,15.091c0,5.754-0.956,10.792-2.868,15.116c-1.912,4.323-4.703,7.683-8.372,10.077
			c-3.669,2.394-8.14,3.592-13.411,3.592c-5.271,0-9.741-1.163-13.41-3.488c-3.669-2.326-6.46-5.642-8.372-9.948
			s-2.868-9.388-2.868-15.245c0-5.686,0.956-10.68,2.868-14.987c1.912-4.307,4.711-7.674,8.397-10.104
			C2376.703,1543.002,2381.183,1541.788,2386.453,1541.788z M2386.453,1550.78c-4.169,0-7.304,1.594-9.405,4.78
			s-3.152,8.174-3.152,14.961c0,6.753,1.042,11.73,3.127,14.935c2.084,3.204,5.21,4.807,9.379,4.807s7.295-1.603,9.38-4.807
			c2.084-3.204,3.127-8.217,3.127-15.038c0-6.719-1.034-11.671-3.101-14.857C2393.74,1552.374,2390.622,1550.78,2386.453,1550.78z"
			/>
		<path d="M2459.785,1520.031c3.341,0,6.33,0.284,8.966,0.853s5.072,1.336,7.312,2.3l-3.411,8.01
			c-1.826-0.757-3.729-1.309-5.71-1.653c-1.981-0.344-3.988-0.517-6.021-0.517c-3.584,0-6.236,0.681-7.959,2.041
			c-1.723,1.361-2.584,3.506-2.584,6.434v9.664h18.243l-1.24,8.527h-17.003v42.118h-11.524v-42.118h-12.402v-8.527h12.402v-9.767
			c0-3.445,0.87-6.469,2.61-9.07c1.739-2.601,4.177-4.633,7.312-6.098C2451.912,1520.764,2455.581,1520.031,2459.785,1520.031z"/>
		<path d="M2569.341,1525.044c4.72,0,8.785,0.827,12.196,2.48s6.028,3.842,7.855,6.563c1.825,2.722,2.738,5.719,2.738,8.992
			c0,2.929-0.62,5.547-1.86,7.854c-1.24,2.309-2.929,4.221-5.064,5.736c-2.137,1.517-4.548,2.584-7.234,3.204
			c2.997,0.311,5.736,1.137,8.217,2.48s4.47,3.256,5.969,5.736s2.248,5.6,2.248,9.354c0,4.065-1.06,7.743-3.179,11.033
			c-2.118,3.29-5.116,5.9-8.991,7.829c-3.876,1.929-8.433,2.895-13.67,2.895c-4.479,0-8.742-0.827-12.79-2.481
			c-4.049-1.653-7.485-4.15-10.31-7.493l7.08-6.201c2.032,2.377,4.409,4.134,7.131,5.271c2.722,1.137,5.513,1.705,8.372,1.705
			c4.41,0,7.907-1.145,10.491-3.437c2.584-2.291,3.876-5.469,3.876-9.535c0-3.101-0.577-5.555-1.731-7.364
			c-1.154-1.809-2.765-3.108-4.832-3.901c-2.067-0.792-4.462-1.188-7.184-1.188h-6.149l1.344-8.527h4.341
			c2.239,0,4.307-0.404,6.201-1.214s3.419-2.059,4.574-3.747c1.153-1.688,1.73-3.789,1.73-6.305c0-3.479-1.18-6.149-3.54-8.011
			c-2.359-1.86-5.279-2.79-8.759-2.79c-2.964,0-5.607,0.542-7.933,1.628c-2.326,1.085-4.608,2.679-6.848,4.78l-6.149-6.563
			c3.134-2.997,6.528-5.211,10.181-6.641C2561.313,1525.759,2565.207,1525.044,2569.341,1525.044z"/>
		<path d="M2634.455,1525.044c7.993,0,14.039,3.222,18.14,9.664c4.1,6.442,6.149,15.555,6.149,27.338
			c0,11.817-2.05,20.965-6.149,27.441c-4.101,6.478-10.146,9.716-18.14,9.716c-8.027,0-14.082-3.238-18.165-9.716
			c-4.082-6.477-6.124-15.624-6.124-27.441c0-11.783,2.042-20.896,6.124-27.338
			C2620.373,1528.266,2626.428,1525.044,2634.455,1525.044z M2634.455,1533.881c-4.1,0-7.252,2.18-9.457,6.537
			c-2.205,4.359-3.308,11.568-3.308,21.628c0,5.374,0.233,9.879,0.698,13.514c0.465,3.636,1.205,6.537,2.222,8.708
			c1.016,2.171,2.334,3.729,3.954,4.677c1.618,0.948,3.582,1.421,5.891,1.421c2.756,0,5.082-0.938,6.977-2.816
			c1.895-1.877,3.334-4.9,4.315-9.069c0.982-4.168,1.473-9.646,1.473-16.434c0-7.062-0.422-12.652-1.266-16.77
			c-0.845-4.117-2.196-7.046-4.057-8.786C2640.037,1534.751,2637.557,1533.881,2634.455,1533.881z M2644.067,1536.31l2.998,8.113
			l-21.292,43.462l-3.824-6.562L2644.067,1536.31z"/>
		<path d="M2751.145,1535.586v21.447h25.839v9.095h-25.839v22.584h31.473v9.096h-43.462v-71.316h42.893l-1.343,9.095H2751.145z"/>
		<path d="M2826.335,1536.154v61.653h-11.989v-61.653h-21.395v-9.663h55.296l-1.24,9.663H2826.335z"/>
		<path d="M2894.137,1597.808v-32.402h-23.255v32.402h-11.99v-71.316h11.99v29.043h23.255v-29.043h11.989v71.316H2894.137z"/>
	</g>
</g>
</svg>
