<?xml version="1.0" encoding="iso-8859-1"?>
<!-- Generator: Adobe Illustrator 29.6.0, SVG Export Plug-In . SVG Version: 9.03 Build 0)  -->
<svg version="1.1" xmlns="http://www.w3.org/2000/svg" xmlns:xlink="http://www.w3.org/1999/xlink" x="0px" y="0px"
	 viewBox="0 0 4000 1500" style="enable-background:new 0 0 4000 1500;" xml:space="preserve">
<g id="Layer_1" style="display:none;">
	
		<image style="display:inline;overflow:visible;" width="1251" height="585" xlink:href="../../_Draft Images/network_ntn.png"  transform="matrix(3.1974 0 0 3.1974 0 0)">
	</image>
</g>
<g id="Background">
	<line style="fill:none;stroke:#000000;stroke-width:3.3;stroke-miterlimit:10;" x1="941.43" y1="813" x2="3074.104" y2="813"/>
	<path style="fill:#E6E6E6;" d="M2456.52,1437.5h-902.626c-69.739,0-126.273-56.535-126.273-126.273V188.773
		c0-69.739,56.535-126.273,126.273-126.273h902.626c69.739,0,126.273,56.535,126.273,126.273v1122.453
		C2582.793,1380.965,2526.259,1437.5,2456.52,1437.5z"/>
	<rect x="3052.276" y="530.872" style="fill:#0033AD;" width="870" height="651.34"/>
	<rect x="72.966" y="530.872" style="fill:#0033AD;" width="870" height="651.34"/>
</g>
<g id="Layer_2">
	<polyline style="fill:none;stroke:#000000;stroke-width:3.3;stroke-miterlimit:10;" points="941.43,755.264 1488.563,755.264 
		1488.563,501.763 1549.429,501.763 	"/>
	<polyline style="fill:none;stroke:#000000;stroke-width:3.3;stroke-miterlimit:10;" points="3048.988,755.264 2501.854,755.264 
		2501.854,501.763 2440.989,501.763 	"/>
	<polyline style="fill:none;stroke:#000000;stroke-width:3.3;stroke-miterlimit:10;" points="3048.988,861.951 2501.854,861.951 
		2501.854,1115.452 2440.989,1115.452 	"/>
	<polyline style="fill:none;stroke:#000000;stroke-width:3.3;stroke-miterlimit:10;" points="941.43,861.951 1488.563,861.951 
		1488.563,1115.452 1549.429,1115.452 	"/>
	<g>
		<path style="fill:#FFFFFF;" d="M3354.901,898.415c-4.881,0-9.42-0.72-13.62-2.16s-7.901-3.679-11.101-6.72
			c-3.2-3.039-5.699-6.96-7.5-11.76c-1.8-4.8-2.699-10.6-2.699-17.4v-8.76c0-6.559,0.918-12.24,2.76-17.04
			c1.839-4.8,4.359-8.739,7.56-11.82c3.199-3.079,6.88-5.359,11.04-6.84c4.159-1.479,8.599-2.22,13.32-2.22h2.16
			c4.479,0,8.7,0.621,12.66,1.86c3.96,1.241,7.439,3.201,10.439,5.88c3,2.681,5.359,6.141,7.08,10.38
			c1.72,4.241,2.58,9.36,2.58,15.36h-16.44c0-5.28-0.74-9.379-2.22-12.3c-1.481-2.919-3.521-4.959-6.12-6.12
			c-2.601-1.159-5.66-1.74-9.18-1.74c-2.48,0-4.781,0.381-6.9,1.14c-2.12,0.761-3.94,1.961-5.46,3.6
			c-1.521,1.641-2.699,3.801-3.54,6.48c-0.84,2.681-1.26,5.94-1.26,9.78v16.08c0,5.121,0.72,9.221,2.16,12.3
			c1.44,3.081,3.438,5.3,6,6.66c2.56,1.361,5.56,2.04,9,2.04c3.76,0,6.999-0.579,9.72-1.74c2.719-1.159,4.8-3.199,6.24-6.12
			c1.44-2.919,2.16-6.979,2.16-12.18h15.84c0,5.682-0.86,10.62-2.58,14.82c-1.721,4.2-4.062,7.661-7.02,10.38
			c-2.961,2.721-6.401,4.761-10.32,6.12c-3.921,1.359-8.121,2.04-12.6,2.04H3354.901z"/>
		<path style="fill:#FFFFFF;" d="M3403.02,897.214v-86.4h16.44v86.4H3403.02z"/>
		<path style="fill:#FFFFFF;" d="M3437.457,823.534v-12.72h16.92v12.72H3437.457z M3437.697,897.214v-61.32h16.44v61.32H3437.697z"
			/>
		<path style="fill:#FFFFFF;" d="M3497.696,898.415c-5.76,0-10.86-1.182-15.3-3.54c-4.44-2.359-7.901-5.799-10.38-10.32
			c-2.481-4.519-3.721-10.02-3.721-16.5v-3c0-6.48,1.3-11.979,3.9-16.5c2.599-4.519,6.159-7.959,10.68-10.32
			c4.519-2.359,9.66-3.54,15.42-3.54h1.92c5.439,0,10.18,1.101,14.221,3.3c4.038,2.202,7.158,5.28,9.359,9.24
			c2.2,3.96,3.301,8.58,3.301,13.86v7.56h-41.521c0,3.84,0.48,7.2,1.44,10.08s2.399,5.081,4.319,6.6
			c1.92,1.521,4.44,2.28,7.561,2.28c2.56,0,4.8-0.499,6.72-1.5c1.92-1,3.438-2.5,4.56-4.5c1.12-1.999,1.681-4.44,1.681-7.32h15.24
			c0,4.721-1.2,8.9-3.601,12.54c-2.399,3.641-5.7,6.48-9.899,8.52c-4.2,2.04-9.061,3.06-14.58,3.06H3497.696z M3485.696,860.254
			h25.32c0-5.04-1.101-8.779-3.301-11.22c-2.201-2.439-5.22-3.66-9.06-3.66c-3.6,0-6.621,1.26-9.06,3.78
			C3487.155,851.674,3485.855,855.375,3485.696,860.254z"/>
		<path style="fill:#FFFFFF;" d="M3540.895,897.214v-61.32h12.12l1.92,9c2.4-3.439,5.299-6,8.7-7.68
			c3.399-1.68,7.26-2.52,11.58-2.52c4.158,0,7.818,0.801,10.979,2.4c3.159,1.602,5.599,3.881,7.32,6.84
			c1.72,2.96,2.58,6.561,2.58,10.8v42.48h-16.32v-39c0-3.919-0.96-6.799-2.88-8.64c-1.92-1.839-4.521-2.76-7.8-2.76
			c-2.081,0-4.041,0.54-5.88,1.62c-1.842,1.08-3.281,2.541-4.32,4.38c-1.041,1.841-1.56,3.92-1.56,6.24v38.16H3540.895z"/>
		<path style="fill:#FFFFFF;" d="M3633.053,898.415c-3.44,0-6.521-0.48-9.24-1.44c-2.721-0.96-4.841-2.58-6.36-4.86
			c-1.521-2.28-2.279-5.299-2.279-9.06v-34.92h-6.721v-12.24h7.2l5.76-19.56h10.08v19.56h14.4v12.24h-14.4v31.32
			c0,3.521,0.721,5.76,2.16,6.72c1.44,0.96,3,1.44,4.681,1.44c0.879,0,2.1-0.18,3.659-0.54c1.561-0.36,2.82-0.739,3.78-1.14v10.08
			c-1.04,0.561-2.321,1.02-3.84,1.38c-1.521,0.36-3.06,0.619-4.62,0.78C3635.753,898.333,3634.331,898.415,3633.053,898.415z"/>
	</g>
	<g>
		<path style="fill:#FFFFFF;" d="M364.308,897.214v-82.32h14.64l29.4,43.68l4.32,7.56l0.48-0.12v-51.12h15.84v82.32h-15
			l-30.24-45.24l-3-5.52l-0.6,0.12v50.64H364.308z"/>
		<path style="fill:#FFFFFF;" d="M472.548,898.415c-5.601,0-10.62-1.26-15.06-3.78c-4.44-2.52-7.92-6.099-10.44-10.74
			c-2.52-4.639-3.78-10.08-3.78-16.32v-2.16c0-6.319,1.26-11.76,3.78-16.32s5.979-8.1,10.38-10.62c4.398-2.52,9.399-3.78,15-3.78
			h2.4c5.679,0,10.719,1.26,15.12,3.78c4.398,2.52,7.86,6.06,10.38,10.62s3.78,10.001,3.78,16.32v2.16
			c0,6.321-1.26,11.781-3.78,16.38c-2.52,4.601-5.981,8.16-10.38,10.68c-4.401,2.52-9.401,3.78-15,3.78H472.548z M473.628,887.614
			c2.479,0,4.699-0.579,6.66-1.74c1.959-1.159,3.52-2.899,4.68-5.22c1.159-2.319,1.74-5.079,1.74-8.28v-11.76
			c0-3.279-0.581-6.039-1.74-8.28c-1.161-2.239-2.721-3.96-4.68-5.16c-1.961-1.2-4.181-1.8-6.66-1.8c-2.4,0-4.601,0.6-6.6,1.8
			c-2,1.2-3.581,2.921-4.74,5.16c-1.161,2.241-1.74,5-1.74,8.28v11.76c0,3.201,0.58,5.96,1.74,8.28
			c1.159,2.321,2.739,4.062,4.74,5.22C469.027,887.035,471.228,887.614,473.628,887.614z"/>
		<path style="fill:#FFFFFF;" d="M540.107,898.415c-4.8,0-9.081-1.122-12.84-3.36c-3.761-2.239-6.74-5.719-8.94-10.44
			c-2.201-4.719-3.3-10.719-3.3-18v-1.32c0-6.799,1.099-12.459,3.3-16.98c2.2-4.519,5.14-7.92,8.82-10.2
			c3.679-2.28,7.68-3.42,12-3.42c4.32,0,7.938,0.801,10.86,2.4c2.919,1.602,5.139,3.6,6.66,6v-32.28h16.32v86.4h-12.84l-1.8-8.16
			c-1.92,2.721-4.361,4.961-7.32,6.72C548.067,897.533,544.427,898.415,540.107,898.415z M544.307,887.614
			c2.319,0,4.399-0.559,6.24-1.68c1.839-1.12,3.319-2.859,4.44-5.22c1.12-2.359,1.68-5.379,1.68-9.06v-10.68
			c0-3.36-0.54-6.159-1.62-8.4c-1.08-2.239-2.562-3.939-4.44-5.1c-1.881-1.159-3.981-1.74-6.3-1.74c-3.36,0-6.2,1.301-8.52,3.9
			c-2.321,2.601-3.48,6.381-3.48,11.34v10.68c0,3.681,0.54,6.701,1.62,9.06c1.08,2.361,2.52,4.101,4.32,5.22
			C540.047,887.056,542.067,887.614,544.307,887.614z"/>
		<path style="fill:#FFFFFF;" d="M615.945,898.415c-5.76,0-10.86-1.182-15.3-3.54c-4.44-2.359-7.901-5.799-10.38-10.32
			c-2.481-4.519-3.72-10.02-3.72-16.5v-3c0-6.48,1.299-11.979,3.9-16.5c2.599-4.519,6.16-7.959,10.68-10.32
			c4.519-2.359,9.66-3.54,15.42-3.54h1.92c5.439,0,10.18,1.101,14.22,3.3c4.039,2.202,7.159,5.28,9.36,9.24
			c2.2,3.96,3.3,8.58,3.3,13.86v7.56h-41.52c0,3.84,0.48,7.2,1.44,10.08s2.4,5.081,4.32,6.6c1.92,1.521,4.44,2.28,7.56,2.28
			c2.56,0,4.8-0.499,6.72-1.5c1.92-1,3.438-2.5,4.56-4.5c1.12-1.999,1.68-4.44,1.68-7.32h15.24c0,4.721-1.2,8.9-3.6,12.54
			c-2.4,3.641-5.7,6.48-9.9,8.52c-4.2,2.04-9.06,3.06-14.58,3.06H615.945z M603.945,860.254h25.32c0-5.04-1.101-8.779-3.3-11.22
			c-2.201-2.439-5.22-3.66-9.06-3.66c-3.6,0-6.621,1.26-9.06,3.78C605.404,851.674,604.104,855.375,603.945,860.254z"/>
	</g>
	<g>
		<path style="fill:#FF5553;" d="M2421.407,632.864h-844.833c-15.234,0-27.583-12.35-27.583-27.584V409.817
			c0-15.234,12.35-27.584,27.583-27.584h844.833c15.234,0,27.583,12.35,27.583,27.584v195.464
			C2448.99,620.515,2436.641,632.864,2421.407,632.864z"/>
		<path style="fill:#FF5553;" d="M2421.407,937.815h-844.833c-15.234,0-27.583-12.35-27.583-27.584V714.768
			c0-15.234,12.35-27.584,27.583-27.584h844.833c15.234,0,27.583,12.35,27.583,27.584v195.464
			C2448.99,925.466,2436.641,937.815,2421.407,937.815z"/>
		<path style="fill:#FF5553;" d="M2421.407,1242.766h-844.833c-15.234,0-27.583-12.35-27.583-27.583v-195.464
			c0-15.234,12.35-27.584,27.583-27.584h844.833c15.234,0,27.583,12.35,27.583,27.584v195.464
			C2448.99,1230.417,2436.641,1242.766,2421.407,1242.766z"/>
		<g>
			<path style="fill:#FFFFFF;" d="M1804.366,534.951c-3.587,0-6.827-0.882-9.723-2.648c-2.896-1.765-5.172-4.206-6.827-7.324
				c-1.655-3.116-2.482-6.688-2.482-10.716v-2.565c0-3.034,0.509-5.806,1.531-8.316c1.02-2.51,2.413-4.703,4.179-6.579
				c1.765-1.875,3.834-3.31,6.207-4.303c2.371-0.993,4.909-1.49,7.613-1.49h1.572c3.696,0,6.91,0.732,9.641,2.193
				c2.731,1.462,4.827,3.504,6.289,6.124c1.461,2.621,2.193,5.697,2.193,9.227h-9.847c0-2.262-0.345-4.138-1.035-5.627
				c-0.69-1.49-1.669-2.62-2.938-3.393c-1.27-0.772-2.786-1.158-4.551-1.158c-2.538,0-4.663,0.869-6.372,2.606
				c-1.711,1.738-2.565,4.29-2.565,7.654v8.523c0,3.31,0.813,5.862,2.441,7.654c1.627,1.793,3.82,2.689,6.579,2.689
				c1.93,0,3.558-0.331,4.882-0.993c1.324-0.662,2.33-1.737,3.021-3.227c0.689-1.49,1.035-3.476,1.035-5.958h9.351
				c0,3.752-0.8,6.938-2.4,9.558c-1.601,2.621-3.806,4.621-6.62,6c-2.814,1.378-6.014,2.069-9.599,2.069H1804.366z"/>
			<path style="fill:#FFFFFF;" d="M1833.494,534.123v-59.581h11.337v22.674c1.544-2.041,3.378-3.585,5.503-4.634
				c2.123-1.047,4.481-1.572,7.075-1.572c2.813,0,5.282,0.552,7.406,1.655c2.123,1.104,3.792,2.689,5.006,4.758
				c1.213,2.068,1.82,4.538,1.82,7.406v29.294h-11.336v-26.894c0-2.702-0.662-4.688-1.986-5.958
				c-1.324-1.269-3.117-1.903-5.379-1.903c-1.435,0-2.786,0.373-4.055,1.117c-1.27,0.745-2.263,1.752-2.979,3.021
				c-0.717,1.27-1.076,2.704-1.076,4.303v26.315H1833.494z"/>
			<path style="fill:#FFFFFF;" d="M1893.983,534.951c-2.263,0-4.427-0.373-6.496-1.117s-3.765-1.986-5.089-3.724
				c-1.324-1.738-1.986-4.096-1.986-7.075c0-3.034,0.675-5.489,2.027-7.365c1.351-1.875,3.254-3.323,5.71-4.344
				c2.454-1.02,5.406-1.724,8.854-2.11c3.447-0.386,7.324-0.58,11.626-0.58v-3.724c0-2.427-0.662-4.15-1.986-5.172
				c-1.324-1.02-3.256-1.531-5.792-1.531c-2.151,0-4.042,0.483-5.668,1.448c-1.628,0.966-2.441,2.441-2.441,4.427v0.662h-10.84
				c-0.056-0.166-0.083-0.399-0.083-0.704c0-0.302,0-0.565,0-0.786c0-2.427,0.772-4.564,2.317-6.413
				c1.544-1.848,3.695-3.281,6.455-4.303c2.758-1.021,5.958-1.531,9.599-1.531h1.738c5.958,0,10.398,1.173,13.323,3.517
				c2.923,2.345,4.386,5.503,4.386,9.475v20.605c0,1.048,0.261,1.793,0.786,2.234c0.524,0.442,1.089,0.662,1.697,0.662
				c0.496,0,1.047-0.096,1.655-0.29c0.606-0.193,1.186-0.427,1.738-0.704v6.62c-0.718,0.552-1.669,0.993-2.855,1.324
				c-1.187,0.331-2.606,0.497-4.262,0.497c-1.986,0-3.641-0.318-4.965-0.952c-1.324-0.634-2.332-1.502-3.021-2.607
				c-0.69-1.103-1.117-2.371-1.283-3.806c-1.545,2.207-3.586,3.986-6.124,5.337C1900.465,534.274,1897.459,534.951,1893.983,534.951
				z M1899.279,527.503c1.544,0,3.021-0.358,4.427-1.076c1.407-0.716,2.578-1.779,3.517-3.186c0.938-1.407,1.407-3.157,1.407-5.254
				v-3.393c-3.531,0-6.524,0.221-8.978,0.662c-2.456,0.442-4.317,1.173-5.586,2.193c-1.27,1.021-1.903,2.497-1.903,4.427
				c0,2.042,0.621,3.49,1.862,4.344C1895.266,527.076,1897.017,527.503,1899.279,527.503z"/>
			<path style="fill:#FFFFFF;" d="M1933.454,483.314v-8.771h11.667v8.771H1933.454z M1933.62,534.123v-42.286h11.336v42.286H1933.62
				z"/>
			<path style="fill:#FFFFFF;" d="M1956.623,534.123v-42.286h8.358l1.324,6.207c1.655-2.372,3.654-4.138,5.999-5.296
				c2.344-1.158,5.007-1.738,7.986-1.738c2.868,0,5.392,0.552,7.571,1.655c2.179,1.104,3.861,2.676,5.048,4.717
				c1.186,2.042,1.779,4.524,1.779,7.447v29.294h-11.254v-26.894c0-2.702-0.662-4.688-1.986-5.958
				c-1.324-1.269-3.117-1.903-5.379-1.903c-1.435,0-2.786,0.373-4.055,1.117c-1.27,0.745-2.263,1.752-2.979,3.021
				c-0.717,1.27-1.076,2.704-1.076,4.303v26.315H1956.623z"/>
			<path style="fill:#FFFFFF;" d="M2005.113,516.497v-9.765h21.02v9.765H2005.113z"/>
			<path style="fill:#FFFFFF;" d="M2051.702,534.951c-2.648,0-5.048-0.331-7.199-0.993s-4.014-1.558-5.586-2.689
				c-1.572-1.13-2.772-2.454-3.6-3.972c-0.827-1.517-1.241-3.157-1.241-4.923c0-0.331,0-0.606,0-0.828
				c0-0.22,0.027-0.523,0.083-0.91h9.599c-0.056,0.166-0.083,0.318-0.083,0.455c0,0.138,0,0.262,0,0.373
				c0,1.379,0.469,2.524,1.407,3.434c0.938,0.91,2.151,1.572,3.641,1.986c1.49,0.414,3.089,0.621,4.8,0.621
				c1.379,0,2.772-0.166,4.179-0.497c1.407-0.331,2.578-0.869,3.518-1.613c0.938-0.745,1.406-1.697,1.406-2.855
				c0-1.269-0.483-2.248-1.448-2.938c-0.966-0.689-2.263-1.241-3.889-1.655c-1.628-0.414-3.407-0.772-5.338-1.076
				c-1.932-0.303-3.876-0.689-5.834-1.159c-1.959-0.468-3.752-1.144-5.379-2.027c-1.628-0.882-2.925-2.082-3.889-3.6
				c-0.966-1.517-1.448-3.517-1.448-6c0-2.096,0.482-3.972,1.448-5.627c0.964-1.655,2.288-3.033,3.972-4.138
				c1.683-1.103,3.612-1.93,5.793-2.482c2.179-0.551,4.454-0.828,6.826-0.828h1.655c2.206,0,4.316,0.277,6.33,0.828
				c2.014,0.552,3.82,1.338,5.421,2.358c1.6,1.021,2.854,2.234,3.765,3.641s1.365,2.938,1.365,4.593
				c0,0.276-0.014,0.593-0.041,0.952c-0.028,0.359-0.069,0.593-0.124,0.703h-9.6v-0.662c0-0.606-0.152-1.2-0.455-1.779
				c-0.304-0.58-0.8-1.117-1.489-1.614c-0.69-0.497-1.572-0.896-2.647-1.2c-1.076-0.303-2.358-0.455-3.849-0.455
				c-1.323,0-2.511,0.124-3.558,0.372c-1.049,0.249-1.932,0.579-2.648,0.993c-0.718,0.414-1.241,0.897-1.572,1.448
				c-0.331,0.552-0.496,1.104-0.496,1.655c0,1.159,0.496,2.056,1.489,2.689c0.993,0.635,2.303,1.131,3.931,1.489
				c1.627,0.36,3.42,0.691,5.379,0.993c1.957,0.304,3.902,0.676,5.834,1.117c1.93,0.442,3.724,1.117,5.379,2.027
				c1.654,0.91,2.965,2.139,3.931,3.683c0.964,1.545,1.448,3.558,1.448,6.041c0,2.594-0.497,4.8-1.49,6.62
				c-0.993,1.821-2.372,3.269-4.138,4.344c-1.766,1.076-3.752,1.862-5.958,2.358c-2.207,0.497-4.523,0.745-6.951,0.745H2051.702z"/>
			<path style="fill:#FFFFFF;" d="M2086.953,549.515c-1.379,0-2.647-0.097-3.807-0.29c-1.158-0.194-2.207-0.483-3.145-0.869v-8.192
				c0.606,0.275,1.435,0.509,2.483,0.703c1.047,0.193,2.068,0.29,3.062,0.29c1.489,0,2.702-0.29,3.641-0.869
				c0.938-0.58,1.724-1.462,2.358-2.648c0.634-1.187,1.254-2.635,1.862-4.345l-16.302-41.458h12.081l9.765,27.722h0.579
				l9.269-27.722h11.171l-15.309,40.134c-1.214,3.254-2.621,6.206-4.221,8.854c-1.601,2.648-3.489,4.758-5.668,6.331
				C2092.594,548.729,2089.986,549.515,2086.953,549.515z"/>
			<path style="fill:#FFFFFF;" d="M2126.342,534.123v-42.286h8.358l1.323,6.207c1.655-2.372,3.654-4.138,6-5.296
				c2.344-1.158,5.006-1.738,7.985-1.738c2.867,0,5.392,0.552,7.571,1.655c2.179,1.104,3.861,2.676,5.048,4.717
				c1.186,2.042,1.779,4.524,1.779,7.447v29.294h-11.254v-26.894c0-2.702-0.662-4.688-1.986-5.958
				c-1.324-1.269-3.117-1.903-5.379-1.903c-1.435,0-2.786,0.373-4.055,1.117c-1.27,0.745-2.263,1.752-2.979,3.021
				c-0.718,1.27-1.076,2.704-1.076,4.303v26.315H2126.342z"/>
			<path style="fill:#FFFFFF;" d="M2192.955,534.951c-3.586,0-6.826-0.882-9.723-2.648c-2.896-1.765-5.172-4.206-6.827-7.324
				c-1.655-3.116-2.482-6.688-2.482-10.716v-2.565c0-3.034,0.51-5.806,1.531-8.316c1.02-2.51,2.412-4.703,4.179-6.579
				c1.765-1.875,3.833-3.31,6.206-4.303c2.371-0.993,4.909-1.49,7.613-1.49h1.572c3.695,0,6.909,0.732,9.641,2.193
				c2.73,1.462,4.826,3.504,6.289,6.124c1.461,2.621,2.192,5.697,2.192,9.227h-9.848c0-2.262-0.345-4.138-1.034-5.627
				c-0.69-1.49-1.669-2.62-2.938-3.393c-1.27-0.772-2.786-1.158-4.551-1.158c-2.538,0-4.663,0.869-6.372,2.606
				c-1.711,1.738-2.565,4.29-2.565,7.654v8.523c0,3.31,0.813,5.862,2.441,7.654c1.626,1.793,3.819,2.689,6.578,2.689
				c1.931,0,3.559-0.331,4.883-0.993c1.324-0.662,2.33-1.737,3.021-3.227c0.688-1.49,1.034-3.476,1.034-5.958h9.351
				c0,3.752-0.8,6.938-2.399,9.558c-1.601,2.621-3.807,4.621-6.62,6s-6.014,2.069-9.6,2.069H2192.955z"/>
		</g>
		<g>
			<path style="fill:#FFFFFF;" d="M1804.366,841.434c-3.587,0-6.827-0.882-9.723-2.648c-2.896-1.765-5.172-4.206-6.827-7.324
				c-1.655-3.116-2.482-6.688-2.482-10.716v-2.565c0-3.034,0.509-5.806,1.531-8.316c1.02-2.51,2.413-4.703,4.179-6.579
				c1.765-1.875,3.834-3.31,6.207-4.303c2.371-0.993,4.909-1.49,7.613-1.49h1.572c3.696,0,6.91,0.732,9.641,2.193
				c2.731,1.462,4.827,3.504,6.289,6.124c1.461,2.621,2.193,5.697,2.193,9.227h-9.847c0-2.262-0.345-4.138-1.035-5.627
				c-0.69-1.49-1.669-2.62-2.938-3.393c-1.27-0.772-2.786-1.158-4.551-1.158c-2.538,0-4.663,0.869-6.372,2.606
				c-1.711,1.738-2.565,4.29-2.565,7.654v8.523c0,3.31,0.813,5.862,2.441,7.654c1.627,1.793,3.82,2.689,6.579,2.689
				c1.93,0,3.558-0.331,4.882-0.993c1.324-0.662,2.33-1.737,3.021-3.227c0.689-1.49,1.035-3.476,1.035-5.958h9.351
				c0,3.752-0.8,6.938-2.4,9.558c-1.601,2.621-3.806,4.621-6.62,6c-2.814,1.378-6.014,2.069-9.599,2.069H1804.366z"/>
			<path style="fill:#FFFFFF;" d="M1833.494,840.606v-59.581h11.337V803.7c1.544-2.041,3.378-3.585,5.503-4.634
				c2.123-1.047,4.481-1.572,7.075-1.572c2.813,0,5.282,0.552,7.406,1.655c2.123,1.104,3.792,2.689,5.006,4.758
				c1.213,2.068,1.82,4.538,1.82,7.406v29.294h-11.336v-26.894c0-2.702-0.662-4.688-1.986-5.958
				c-1.324-1.269-3.117-1.903-5.379-1.903c-1.435,0-2.786,0.373-4.055,1.117c-1.27,0.745-2.263,1.752-2.979,3.021
				c-0.717,1.27-1.076,2.704-1.076,4.303v26.315H1833.494z"/>
			<path style="fill:#FFFFFF;" d="M1893.983,841.434c-2.263,0-4.427-0.373-6.496-1.117s-3.765-1.986-5.089-3.724
				c-1.324-1.738-1.986-4.096-1.986-7.075c0-3.034,0.675-5.489,2.027-7.365c1.351-1.875,3.254-3.323,5.71-4.344
				c2.454-1.02,5.406-1.724,8.854-2.11c3.447-0.386,7.324-0.58,11.626-0.58v-3.724c0-2.427-0.662-4.15-1.986-5.172
				c-1.324-1.02-3.256-1.531-5.792-1.531c-2.151,0-4.042,0.483-5.668,1.448c-1.628,0.966-2.441,2.441-2.441,4.427v0.662h-10.84
				c-0.056-0.166-0.083-0.399-0.083-0.704c0-0.302,0-0.565,0-0.786c0-2.427,0.772-4.564,2.317-6.413
				c1.544-1.848,3.695-3.281,6.455-4.303c2.758-1.021,5.958-1.531,9.599-1.531h1.738c5.958,0,10.398,1.173,13.323,3.517
				c2.923,2.345,4.386,5.503,4.386,9.475v20.605c0,1.048,0.261,1.793,0.786,2.234c0.524,0.442,1.089,0.662,1.697,0.662
				c0.496,0,1.047-0.096,1.655-0.29c0.606-0.193,1.186-0.427,1.738-0.704v6.62c-0.718,0.552-1.669,0.993-2.855,1.324
				c-1.187,0.331-2.606,0.497-4.262,0.497c-1.986,0-3.641-0.318-4.965-0.952c-1.324-0.634-2.332-1.502-3.021-2.607
				c-0.69-1.103-1.117-2.371-1.283-3.806c-1.545,2.207-3.586,3.986-6.124,5.337C1900.465,840.758,1897.459,841.434,1893.983,841.434
				z M1899.279,833.986c1.544,0,3.021-0.358,4.427-1.076c1.407-0.716,2.578-1.779,3.517-3.186c0.938-1.407,1.407-3.157,1.407-5.254
				v-3.393c-3.531,0-6.524,0.221-8.978,0.662c-2.456,0.442-4.317,1.173-5.586,2.193c-1.27,1.021-1.903,2.497-1.903,4.427
				c0,2.042,0.621,3.49,1.862,4.344C1895.266,833.56,1897.017,833.986,1899.279,833.986z"/>
			<path style="fill:#FFFFFF;" d="M1933.454,789.797v-8.771h11.667v8.771H1933.454z M1933.62,840.606v-42.286h11.336v42.286H1933.62
				z"/>
			<path style="fill:#FFFFFF;" d="M1956.623,840.606v-42.286h8.358l1.324,6.207c1.655-2.372,3.654-4.138,5.999-5.296
				c2.344-1.158,5.007-1.738,7.986-1.738c2.868,0,5.392,0.552,7.571,1.655c2.179,1.104,3.861,2.676,5.048,4.717
				c1.186,2.042,1.779,4.524,1.779,7.447v29.294h-11.254v-26.894c0-2.702-0.662-4.688-1.986-5.958
				c-1.324-1.269-3.117-1.903-5.379-1.903c-1.435,0-2.786,0.373-4.055,1.117c-1.27,0.745-2.263,1.752-2.979,3.021
				c-0.717,1.27-1.076,2.704-1.076,4.303v26.315H1956.623z"/>
			<path style="fill:#FFFFFF;" d="M2005.113,822.98v-9.765h21.02v9.765H2005.113z"/>
			<path style="fill:#FFFFFF;" d="M2051.702,841.434c-2.648,0-5.048-0.331-7.199-0.993s-4.014-1.558-5.586-2.689
				c-1.572-1.13-2.772-2.454-3.6-3.972c-0.827-1.517-1.241-3.157-1.241-4.923c0-0.331,0-0.606,0-0.828
				c0-0.22,0.027-0.523,0.083-0.91h9.599c-0.056,0.166-0.083,0.318-0.083,0.455c0,0.138,0,0.262,0,0.373
				c0,1.379,0.469,2.524,1.407,3.434c0.938,0.91,2.151,1.572,3.641,1.986c1.49,0.414,3.089,0.621,4.8,0.621
				c1.379,0,2.772-0.166,4.179-0.497c1.407-0.331,2.578-0.869,3.518-1.613c0.938-0.745,1.406-1.697,1.406-2.855
				c0-1.269-0.483-2.248-1.448-2.938c-0.966-0.689-2.263-1.241-3.889-1.655c-1.628-0.414-3.407-0.772-5.338-1.076
				c-1.932-0.303-3.876-0.689-5.834-1.159c-1.959-0.468-3.752-1.144-5.379-2.027c-1.628-0.882-2.925-2.082-3.889-3.6
				c-0.966-1.517-1.448-3.517-1.448-6c0-2.096,0.482-3.972,1.448-5.627c0.964-1.655,2.288-3.033,3.972-4.138
				c1.683-1.103,3.612-1.93,5.793-2.482c2.179-0.551,4.454-0.828,6.826-0.828h1.655c2.206,0,4.316,0.277,6.33,0.828
				c2.014,0.552,3.82,1.338,5.421,2.358c1.6,1.021,2.854,2.234,3.765,3.641s1.365,2.938,1.365,4.593
				c0,0.276-0.014,0.593-0.041,0.952c-0.028,0.359-0.069,0.593-0.124,0.703h-9.6v-0.662c0-0.606-0.152-1.2-0.455-1.779
				c-0.304-0.58-0.8-1.117-1.489-1.614c-0.69-0.497-1.572-0.896-2.647-1.2c-1.076-0.303-2.358-0.455-3.849-0.455
				c-1.323,0-2.511,0.124-3.558,0.372c-1.049,0.249-1.932,0.579-2.648,0.993c-0.718,0.414-1.241,0.897-1.572,1.448
				c-0.331,0.552-0.496,1.104-0.496,1.655c0,1.159,0.496,2.056,1.489,2.689c0.993,0.635,2.303,1.131,3.931,1.489
				c1.627,0.36,3.42,0.691,5.379,0.993c1.957,0.304,3.902,0.676,5.834,1.117c1.93,0.442,3.724,1.117,5.379,2.027
				c1.654,0.91,2.965,2.139,3.931,3.683c0.964,1.545,1.448,3.558,1.448,6.041c0,2.594-0.497,4.8-1.49,6.62
				c-0.993,1.821-2.372,3.269-4.138,4.344c-1.766,1.076-3.752,1.862-5.958,2.358c-2.207,0.497-4.523,0.745-6.951,0.745H2051.702z"/>
			<path style="fill:#FFFFFF;" d="M2086.953,855.998c-1.379,0-2.647-0.097-3.807-0.29c-1.158-0.194-2.207-0.483-3.145-0.869v-8.192
				c0.606,0.275,1.435,0.509,2.483,0.703c1.047,0.193,2.068,0.29,3.062,0.29c1.489,0,2.702-0.29,3.641-0.869
				c0.938-0.58,1.724-1.462,2.358-2.648c0.634-1.187,1.254-2.635,1.862-4.345l-16.302-41.458h12.081l9.765,27.722h0.579
				l9.269-27.722h11.171l-15.309,40.134c-1.214,3.254-2.621,6.206-4.221,8.854c-1.601,2.648-3.489,4.758-5.668,6.331
				C2092.594,855.212,2089.986,855.998,2086.953,855.998z"/>
			<path style="fill:#FFFFFF;" d="M2126.342,840.606v-42.286h8.358l1.323,6.207c1.655-2.372,3.654-4.138,6-5.296
				c2.344-1.158,5.006-1.738,7.985-1.738c2.867,0,5.392,0.552,7.571,1.655c2.179,1.104,3.861,2.676,5.048,4.717
				c1.186,2.042,1.779,4.524,1.779,7.447v29.294h-11.254v-26.894c0-2.702-0.662-4.688-1.986-5.958
				c-1.324-1.269-3.117-1.903-5.379-1.903c-1.435,0-2.786,0.373-4.055,1.117c-1.27,0.745-2.263,1.752-2.979,3.021
				c-0.718,1.27-1.076,2.704-1.076,4.303v26.315H2126.342z"/>
			<path style="fill:#FFFFFF;" d="M2192.955,841.434c-3.586,0-6.826-0.882-9.723-2.648c-2.896-1.765-5.172-4.206-6.827-7.324
				c-1.655-3.116-2.482-6.688-2.482-10.716v-2.565c0-3.034,0.51-5.806,1.531-8.316c1.02-2.51,2.412-4.703,4.179-6.579
				c1.765-1.875,3.833-3.31,6.206-4.303c2.371-0.993,4.909-1.49,7.613-1.49h1.572c3.695,0,6.909,0.732,9.641,2.193
				c2.73,1.462,4.826,3.504,6.289,6.124c1.461,2.621,2.192,5.697,2.192,9.227h-9.848c0-2.262-0.345-4.138-1.034-5.627
				c-0.69-1.49-1.669-2.62-2.938-3.393c-1.27-0.772-2.786-1.158-4.551-1.158c-2.538,0-4.663,0.869-6.372,2.606
				c-1.711,1.738-2.565,4.29-2.565,7.654v8.523c0,3.31,0.813,5.862,2.441,7.654c1.626,1.793,3.819,2.689,6.578,2.689
				c1.931,0,3.559-0.331,4.883-0.993c1.324-0.662,2.33-1.737,3.021-3.227c0.688-1.49,1.034-3.476,1.034-5.958h9.351
				c0,3.752-0.8,6.938-2.399,9.558c-1.601,2.621-3.807,4.621-6.62,6s-6.014,2.069-9.6,2.069H2192.955z"/>
		</g>
		<g>
			<path style="fill:#FFFFFF;" d="M1804.366,1144.853c-3.587,0-6.827-0.882-9.723-2.648c-2.896-1.765-5.172-4.206-6.827-7.324
				c-1.655-3.116-2.482-6.688-2.482-10.716v-2.565c0-3.034,0.509-5.806,1.531-8.316c1.02-2.51,2.413-4.703,4.179-6.579
				c1.765-1.875,3.834-3.31,6.207-4.303c2.371-0.993,4.909-1.49,7.613-1.49h1.572c3.696,0,6.91,0.732,9.641,2.193
				c2.731,1.462,4.827,3.504,6.289,6.124c1.461,2.621,2.193,5.697,2.193,9.227h-9.847c0-2.262-0.345-4.138-1.035-5.627
				c-0.69-1.49-1.669-2.62-2.938-3.393c-1.27-0.772-2.786-1.158-4.551-1.158c-2.538,0-4.663,0.869-6.372,2.606
				c-1.711,1.738-2.565,4.29-2.565,7.654v8.523c0,3.31,0.813,5.862,2.441,7.654c1.627,1.793,3.82,2.689,6.579,2.689
				c1.93,0,3.558-0.331,4.882-0.993c1.324-0.662,2.33-1.737,3.021-3.227c0.689-1.49,1.035-3.476,1.035-5.958h9.351
				c0,3.752-0.8,6.938-2.4,9.558c-1.601,2.621-3.806,4.621-6.62,6c-2.814,1.378-6.014,2.069-9.599,2.069H1804.366z"/>
			<path style="fill:#FFFFFF;" d="M1833.494,1144.025v-59.581h11.337v22.674c1.544-2.041,3.378-3.585,5.503-4.634
				c2.123-1.047,4.481-1.572,7.075-1.572c2.813,0,5.282,0.552,7.406,1.655c2.123,1.104,3.792,2.689,5.006,4.758
				c1.213,2.068,1.82,4.538,1.82,7.406v29.294h-11.336v-26.894c0-2.702-0.662-4.688-1.986-5.958
				c-1.324-1.269-3.117-1.903-5.379-1.903c-1.435,0-2.786,0.373-4.055,1.117c-1.27,0.745-2.263,1.752-2.979,3.021
				c-0.717,1.27-1.076,2.704-1.076,4.303v26.315H1833.494z"/>
			<path style="fill:#FFFFFF;" d="M1893.983,1144.853c-2.263,0-4.427-0.373-6.496-1.117s-3.765-1.986-5.089-3.724
				c-1.324-1.738-1.986-4.096-1.986-7.075c0-3.034,0.675-5.489,2.027-7.365c1.351-1.875,3.254-3.323,5.71-4.344
				c2.454-1.02,5.406-1.724,8.854-2.11c3.447-0.386,7.324-0.58,11.626-0.58v-3.724c0-2.427-0.662-4.15-1.986-5.172
				c-1.324-1.02-3.256-1.531-5.792-1.531c-2.151,0-4.042,0.483-5.668,1.448c-1.628,0.966-2.441,2.441-2.441,4.427v0.662h-10.84
				c-0.056-0.166-0.083-0.399-0.083-0.704c0-0.302,0-0.565,0-0.786c0-2.427,0.772-4.564,2.317-6.413
				c1.544-1.848,3.695-3.281,6.455-4.303c2.758-1.021,5.958-1.531,9.599-1.531h1.738c5.958,0,10.398,1.173,13.323,3.517
				c2.923,2.345,4.386,5.503,4.386,9.475v20.605c0,1.048,0.261,1.793,0.786,2.234c0.524,0.442,1.089,0.662,1.697,0.662
				c0.496,0,1.047-0.096,1.655-0.29c0.606-0.193,1.186-0.427,1.738-0.704v6.62c-0.718,0.552-1.669,0.993-2.855,1.324
				c-1.187,0.331-2.606,0.497-4.262,0.497c-1.986,0-3.641-0.318-4.965-0.952c-1.324-0.634-2.332-1.502-3.021-2.607
				c-0.69-1.103-1.117-2.371-1.283-3.806c-1.545,2.207-3.586,3.986-6.124,5.337
				C1900.465,1144.177,1897.459,1144.853,1893.983,1144.853z M1899.279,1137.405c1.544,0,3.021-0.358,4.427-1.076
				c1.407-0.716,2.578-1.779,3.517-3.186c0.938-1.407,1.407-3.157,1.407-5.254v-3.393c-3.531,0-6.524,0.221-8.978,0.662
				c-2.456,0.442-4.317,1.173-5.586,2.193c-1.27,1.021-1.903,2.497-1.903,4.427c0,2.042,0.621,3.49,1.862,4.344
				C1895.266,1136.979,1897.017,1137.405,1899.279,1137.405z"/>
			<path style="fill:#FFFFFF;" d="M1933.454,1093.216v-8.771h11.667v8.771H1933.454z M1933.62,1144.025v-42.286h11.336v42.286
				H1933.62z"/>
			<path style="fill:#FFFFFF;" d="M1956.623,1144.025v-42.286h8.358l1.324,6.207c1.655-2.372,3.654-4.138,5.999-5.296
				c2.344-1.158,5.007-1.738,7.986-1.738c2.868,0,5.392,0.552,7.571,1.655c2.179,1.104,3.861,2.676,5.048,4.717
				c1.186,2.042,1.779,4.524,1.779,7.447v29.294h-11.254v-26.894c0-2.702-0.662-4.688-1.986-5.958
				c-1.324-1.269-3.117-1.903-5.379-1.903c-1.435,0-2.786,0.373-4.055,1.117c-1.27,0.745-2.263,1.752-2.979,3.021
				c-0.717,1.27-1.076,2.704-1.076,4.303v26.315H1956.623z"/>
			<path style="fill:#FFFFFF;" d="M2005.113,1126.399v-9.765h21.02v9.765H2005.113z"/>
			<path style="fill:#FFFFFF;" d="M2051.702,1144.853c-2.648,0-5.048-0.331-7.199-0.993s-4.014-1.558-5.586-2.689
				c-1.572-1.13-2.772-2.454-3.6-3.972c-0.827-1.517-1.241-3.157-1.241-4.923c0-0.331,0-0.606,0-0.828
				c0-0.22,0.027-0.523,0.083-0.91h9.599c-0.056,0.166-0.083,0.318-0.083,0.455c0,0.138,0,0.262,0,0.373
				c0,1.379,0.469,2.524,1.407,3.434c0.938,0.91,2.151,1.572,3.641,1.986c1.49,0.414,3.089,0.621,4.8,0.621
				c1.379,0,2.772-0.166,4.179-0.497c1.407-0.331,2.578-0.869,3.518-1.613c0.938-0.745,1.406-1.697,1.406-2.855
				c0-1.269-0.483-2.248-1.448-2.938c-0.966-0.689-2.263-1.241-3.889-1.655c-1.628-0.414-3.407-0.772-5.338-1.076
				c-1.932-0.303-3.876-0.689-5.834-1.159c-1.959-0.468-3.752-1.144-5.379-2.027c-1.628-0.882-2.925-2.082-3.889-3.6
				c-0.966-1.517-1.448-3.517-1.448-6c0-2.096,0.482-3.972,1.448-5.627c0.964-1.655,2.288-3.033,3.972-4.138
				c1.683-1.103,3.612-1.93,5.793-2.482c2.179-0.551,4.454-0.828,6.826-0.828h1.655c2.206,0,4.316,0.277,6.33,0.828
				c2.014,0.552,3.82,1.338,5.421,2.358c1.6,1.021,2.854,2.234,3.765,3.641s1.365,2.938,1.365,4.593
				c0,0.276-0.014,0.593-0.041,0.952c-0.028,0.359-0.069,0.593-0.124,0.703h-9.6v-0.662c0-0.606-0.152-1.2-0.455-1.779
				c-0.304-0.58-0.8-1.117-1.489-1.614c-0.69-0.497-1.572-0.896-2.647-1.2c-1.076-0.303-2.358-0.455-3.849-0.455
				c-1.323,0-2.511,0.124-3.558,0.372c-1.049,0.249-1.932,0.579-2.648,0.993c-0.718,0.414-1.241,0.897-1.572,1.448
				c-0.331,0.552-0.496,1.104-0.496,1.655c0,1.159,0.496,2.056,1.489,2.689c0.993,0.635,2.303,1.131,3.931,1.489
				c1.627,0.36,3.42,0.691,5.379,0.993c1.957,0.304,3.902,0.676,5.834,1.117c1.93,0.442,3.724,1.117,5.379,2.027
				c1.654,0.91,2.965,2.139,3.931,3.683c0.964,1.545,1.448,3.558,1.448,6.041c0,2.594-0.497,4.8-1.49,6.62
				c-0.993,1.821-2.372,3.269-4.138,4.344c-1.766,1.076-3.752,1.862-5.958,2.358c-2.207,0.497-4.523,0.745-6.951,0.745H2051.702z"/>
			<path style="fill:#FFFFFF;" d="M2086.953,1159.417c-1.379,0-2.647-0.097-3.807-0.29c-1.158-0.194-2.207-0.483-3.145-0.869v-8.192
				c0.606,0.275,1.435,0.509,2.483,0.703c1.047,0.193,2.068,0.29,3.062,0.29c1.489,0,2.702-0.29,3.641-0.869
				c0.938-0.58,1.724-1.462,2.358-2.648c0.634-1.187,1.254-2.635,1.862-4.345l-16.302-41.458h12.081l9.765,27.722h0.579
				l9.269-27.722h11.171l-15.309,40.134c-1.214,3.254-2.621,6.206-4.221,8.854c-1.601,2.648-3.489,4.758-5.668,6.331
				C2092.594,1158.631,2089.986,1159.417,2086.953,1159.417z"/>
			<path style="fill:#FFFFFF;" d="M2126.342,1144.025v-42.286h8.358l1.323,6.207c1.655-2.372,3.654-4.138,6-5.296
				c2.344-1.158,5.006-1.738,7.985-1.738c2.867,0,5.392,0.552,7.571,1.655c2.179,1.104,3.861,2.676,5.048,4.717
				c1.186,2.042,1.779,4.524,1.779,7.447v29.294h-11.254v-26.894c0-2.702-0.662-4.688-1.986-5.958
				c-1.324-1.269-3.117-1.903-5.379-1.903c-1.435,0-2.786,0.373-4.055,1.117c-1.27,0.745-2.263,1.752-2.979,3.021
				c-0.718,1.27-1.076,2.704-1.076,4.303v26.315H2126.342z"/>
			<path style="fill:#FFFFFF;" d="M2192.955,1144.853c-3.586,0-6.826-0.882-9.723-2.648c-2.896-1.765-5.172-4.206-6.827-7.324
				c-1.655-3.116-2.482-6.688-2.482-10.716v-2.565c0-3.034,0.51-5.806,1.531-8.316c1.02-2.51,2.412-4.703,4.179-6.579
				c1.765-1.875,3.833-3.31,6.206-4.303c2.371-0.993,4.909-1.49,7.613-1.49h1.572c3.695,0,6.909,0.732,9.641,2.193
				c2.73,1.462,4.826,3.504,6.289,6.124c1.461,2.621,2.192,5.697,2.192,9.227h-9.848c0-2.262-0.345-4.138-1.034-5.627
				c-0.69-1.49-1.669-2.62-2.938-3.393c-1.27-0.772-2.786-1.158-4.551-1.158c-2.538,0-4.663,0.869-6.372,2.606
				c-1.711,1.738-2.565,4.29-2.565,7.654v8.523c0,3.31,0.813,5.862,2.441,7.654c1.626,1.793,3.819,2.689,6.578,2.689
				c1.931,0,3.559-0.331,4.883-0.993c1.324-0.662,2.33-1.737,3.021-3.227c0.688-1.49,1.034-3.476,1.034-5.958h9.351
				c0,3.752-0.8,6.938-2.399,9.558c-1.601,2.621-3.807,4.621-6.62,6s-6.014,2.069-9.6,2.069H2192.955z"/>
		</g>
	</g>
	<g>
		<path d="M1616.901,289.216V230.22h10.492l21.07,31.304l3.096,5.418l0.344-0.086V230.22h11.352v58.996h-10.75l-21.672-32.422
			l-2.15-3.956l-0.43,0.086v36.292H1616.901z"/>
		<path d="M1690.172,290.076c-2.466,0-4.674-0.344-6.622-1.032c-1.95-0.688-3.47-1.849-4.558-3.483
			c-1.09-1.634-1.634-3.798-1.634-6.493v-25.026h-4.816v-8.772h5.16l4.128-14.018h7.224v14.018h10.32v8.772h-10.32v22.446
			c0,2.523,0.516,4.128,1.548,4.816c1.032,0.688,2.15,1.032,3.354,1.032c0.63,0,1.505-0.129,2.623-0.387
			c1.118-0.258,2.021-0.529,2.709-0.817v7.224c-0.746,0.402-1.664,0.731-2.752,0.989c-1.09,0.258-2.193,0.443-3.311,0.559
			C1692.107,290.018,1691.089,290.076,1690.172,290.076z"/>
		<path d="M1709.521,289.216V230.22h10.492l21.07,31.304l3.096,5.418l0.344-0.086V230.22h11.352v58.996h-10.75l-21.672-32.422
			l-2.15-3.956l-0.43,0.086v36.292H1709.521z"/>
		<path d="M1787.694,289.216V230.22h20.296l14.62,40.42h0.258l14.534-40.42h20.382v58.996h-12.47v-44.462h-0.344l-15.91,44.462
			h-13.846l-15.824-44.462h-0.43v44.462H1787.694z"/>
		<path d="M1871.37,236.412v-9.116h12.126v9.116H1871.37z M1871.542,289.216V245.27h11.782v43.946H1871.542z"/>
		<path d="M1895.449,289.216V245.27h8.686l1.376,6.45c1.72-2.464,3.797-4.3,6.235-5.504c2.436-1.204,5.203-1.806,8.299-1.806
			c2.98,0,5.604,0.574,7.869,1.72c2.264,1.147,4.012,2.782,5.246,4.902c1.232,2.122,1.849,4.702,1.849,7.74v30.444h-11.696v-27.95
			c0-2.808-0.688-4.872-2.064-6.192c-1.376-1.318-3.24-1.978-5.59-1.978c-1.492,0-2.896,0.387-4.214,1.161
			c-1.32,0.774-2.352,1.821-3.096,3.139c-0.746,1.319-1.118,2.81-1.118,4.472v27.348H1895.449z"/>
		<path d="M1947.048,236.412v-9.116h12.126v9.116H1947.048z M1947.22,289.216V245.27h11.782v43.946H1947.22z"/>
		<path d="M1990.39,289.216V230.22h28.379c3.152,0,6.034,0.746,8.644,2.236c2.608,1.491,4.687,3.512,6.234,6.063
			c1.549,2.552,2.322,5.404,2.322,8.557v1.204c0,3.154-0.804,6.078-2.408,8.772c-1.605,2.696-3.728,4.846-6.363,6.45
			c-2.638,1.605-5.562,2.408-8.772,2.408h-15.479v23.306H1990.39z M2002.946,256.45h12.556c1.548,0,2.909-0.357,4.085-1.075
			c1.175-0.716,2.107-1.706,2.795-2.967c0.688-1.26,1.032-2.694,1.032-4.3c0-2.292-0.746-4.257-2.236-5.891
			c-1.491-1.634-3.47-2.451-5.934-2.451h-12.298V256.45z"/>
		<path d="M2044.225,289.216V245.27h8.771l1.462,6.45c0.114-0.229,0.415-0.716,0.903-1.462c0.486-0.745,1.218-1.576,2.193-2.494
			c0.974-0.917,2.192-1.705,3.654-2.365c1.462-0.659,3.226-0.989,5.289-0.989c2.98,0,5.403,0.574,7.268,1.72
			c1.862,1.147,3.253,2.752,4.171,4.816c0.916,2.064,1.376,4.472,1.376,7.224c0,0.631-0.03,1.319-0.086,2.064
			c-0.059,0.746-0.116,1.405-0.172,1.978h-9.805v-1.806c0-1.088-0.215-2.193-0.645-3.311c-0.431-1.118-1.118-2.049-2.064-2.795
			c-0.945-0.745-2.251-1.118-3.913-1.118c-1.204,0-2.235,0.258-3.096,0.774c-0.86,0.516-1.562,1.161-2.107,1.935
			c-0.545,0.774-0.945,1.634-1.203,2.58c-0.259,0.946-0.388,1.821-0.388,2.623v28.122H2044.225z"/>
		<path d="M2106.058,290.076c-4.014,0-7.61-0.903-10.793-2.709c-3.182-1.806-5.676-4.371-7.481-7.697
			c-1.807-3.325-2.709-7.224-2.709-11.696v-1.548c0-4.528,0.902-8.428,2.709-11.696c1.806-3.268,4.285-5.805,7.438-7.611
			c3.152-1.806,6.736-2.709,10.75-2.709h1.721c4.069,0,7.682,0.903,10.836,2.709c3.152,1.806,5.633,4.343,7.438,7.611
			s2.709,7.167,2.709,11.696v1.548c0,4.53-0.903,8.443-2.709,11.739c-1.806,3.297-4.286,5.848-7.438,7.654
			c-3.154,1.806-6.738,2.709-10.75,2.709H2106.058z M2106.832,282.336c1.776,0,3.367-0.416,4.772-1.247
			c1.404-0.831,2.522-2.078,3.354-3.741c0.83-1.662,1.247-3.64,1.247-5.934v-8.428c0-2.35-0.417-4.328-1.247-5.934
			c-0.832-1.604-1.95-2.838-3.354-3.698c-1.405-0.86-2.996-1.29-4.772-1.29c-1.72,0-3.298,0.43-4.73,1.29
			c-1.434,0.86-2.566,2.093-3.396,3.698c-0.832,1.606-1.247,3.584-1.247,5.934v8.428c0,2.293,0.415,4.271,1.247,5.934
			c0.83,1.664,1.963,2.911,3.396,3.741C2103.534,281.92,2105.112,282.336,2106.832,282.336z"/>
		<path d="M2153.187,290.076c-2.466,0-4.674-0.344-6.622-1.032c-1.95-0.688-3.47-1.849-4.559-3.483
			c-1.09-1.634-1.634-3.798-1.634-6.493v-25.026h-4.815v-8.772h5.159l4.128-14.018h7.225v14.018h10.32v8.772h-10.32v22.446
			c0,2.523,0.516,4.128,1.548,4.816s2.15,1.032,3.354,1.032c0.631,0,1.506-0.129,2.623-0.387c1.118-0.258,2.021-0.529,2.709-0.817
			v7.224c-0.745,0.402-1.663,0.731-2.752,0.989c-1.09,0.258-2.192,0.443-3.311,0.559
			C2155.121,290.018,2154.103,290.076,2153.187,290.076z"/>
		<path d="M2190.767,290.076c-4.014,0-7.611-0.903-10.793-2.709c-3.183-1.806-5.676-4.371-7.482-7.697
			c-1.806-3.325-2.709-7.224-2.709-11.696v-1.548c0-4.528,0.903-8.428,2.709-11.696c1.807-3.268,4.285-5.805,7.439-7.611
			c3.152-1.806,6.736-2.709,10.75-2.709h1.72c4.07,0,7.683,0.903,10.836,2.709c3.152,1.806,5.633,4.343,7.439,7.611
			c1.806,3.268,2.709,7.167,2.709,11.696v1.548c0,4.53-0.903,8.443-2.709,11.739c-1.807,3.297-4.287,5.848-7.439,7.654
			c-3.153,1.806-6.737,2.709-10.75,2.709H2190.767z M2191.54,282.336c1.776,0,3.368-0.416,4.773-1.247
			c1.404-0.831,2.522-2.078,3.354-3.741c0.831-1.662,1.247-3.64,1.247-5.934v-8.428c0-2.35-0.416-4.328-1.247-5.934
			c-0.831-1.604-1.949-2.838-3.354-3.698c-1.405-0.86-2.997-1.29-4.773-1.29c-1.72,0-3.297,0.43-4.729,1.29
			c-1.434,0.86-2.566,2.093-3.397,3.698c-0.831,1.606-1.247,3.584-1.247,5.934v8.428c0,2.293,0.416,4.271,1.247,5.934
			c0.831,1.664,1.964,2.911,3.397,3.741C2188.243,281.92,2189.82,282.336,2191.54,282.336z"/>
		<path d="M2240.99,290.076c-3.728,0-7.095-0.917-10.105-2.752c-3.01-1.834-5.375-4.371-7.095-7.611
			c-1.72-3.238-2.58-6.951-2.58-11.137v-2.666c0-3.152,0.529-6.033,1.591-8.643c1.061-2.608,2.508-4.887,4.344-6.837
			c1.834-1.948,3.983-3.44,6.449-4.472c2.465-1.032,5.103-1.548,7.912-1.548h1.635c3.84,0,7.181,0.761,10.019,2.279
			c2.838,1.52,5.017,3.642,6.536,6.364c1.519,2.724,2.279,5.92,2.279,9.589h-10.234c0-2.35-0.358-4.3-1.075-5.848
			c-0.718-1.548-1.734-2.723-3.053-3.526c-1.319-0.802-2.896-1.204-4.73-1.204c-2.638,0-4.846,0.903-6.622,2.709
			c-1.777,1.806-2.666,4.458-2.666,7.955v8.858c0,3.44,0.846,6.092,2.537,7.955c1.69,1.864,3.97,2.795,6.837,2.795
			c2.007,0,3.698-0.344,5.074-1.032s2.422-1.806,3.139-3.354c0.717-1.548,1.075-3.612,1.075-6.192h9.719
			c0,3.899-0.832,7.21-2.494,9.933c-1.664,2.724-3.956,4.802-6.88,6.235c-2.925,1.433-6.25,2.15-9.977,2.15H2240.99z"/>
		<path d="M2290.354,290.076c-4.014,0-7.61-0.903-10.793-2.709c-3.182-1.806-5.676-4.371-7.481-7.697
			c-1.807-3.325-2.709-7.224-2.709-11.696v-1.548c0-4.528,0.902-8.428,2.709-11.696c1.806-3.268,4.285-5.805,7.438-7.611
			c3.152-1.806,6.736-2.709,10.75-2.709h1.721c4.069,0,7.682,0.903,10.836,2.709c3.152,1.806,5.633,4.343,7.438,7.611
			s2.709,7.167,2.709,11.696v1.548c0,4.53-0.903,8.443-2.709,11.739c-1.806,3.297-4.286,5.848-7.438,7.654
			c-3.154,1.806-6.738,2.709-10.75,2.709H2290.354z M2291.128,282.336c1.776,0,3.367-0.416,4.772-1.247
			c1.404-0.831,2.522-2.078,3.354-3.741c0.83-1.662,1.247-3.64,1.247-5.934v-8.428c0-2.35-0.417-4.328-1.247-5.934
			c-0.832-1.604-1.95-2.838-3.354-3.698c-1.405-0.86-2.996-1.29-4.772-1.29c-1.72,0-3.298,0.43-4.73,1.29
			c-1.434,0.86-2.566,2.093-3.396,3.698c-0.832,1.606-1.247,3.584-1.247,5.934v8.428c0,2.293,0.415,4.271,1.247,5.934
			c0.83,1.664,1.963,2.911,3.396,3.741C2287.83,281.92,2289.408,282.336,2291.128,282.336z"/>
		<path d="M2322.689,289.216v-61.92h11.781v61.92H2322.689z"/>
		<path d="M2362.162,290.076c-2.752,0-5.246-0.344-7.482-1.032c-2.235-0.688-4.171-1.619-5.805-2.795
			c-1.634-1.175-2.881-2.551-3.741-4.128c-0.859-1.576-1.29-3.281-1.29-5.117c0-0.344,0-0.63,0-0.86
			c0-0.229,0.028-0.544,0.086-0.946h9.977c-0.058,0.172-0.086,0.331-0.086,0.473c0,0.144,0,0.272,0,0.387
			c0,1.434,0.486,2.623,1.462,3.569c0.974,0.946,2.235,1.634,3.784,2.064c1.548,0.43,3.21,0.645,4.987,0.645
			c1.433,0,2.881-0.172,4.343-0.516c1.463-0.344,2.68-0.903,3.655-1.677c0.975-0.774,1.462-1.763,1.462-2.967
			c0-1.318-0.502-2.335-1.505-3.053c-1.004-0.716-2.352-1.29-4.042-1.72c-1.691-0.43-3.541-0.802-5.547-1.118
			c-2.008-0.314-4.028-0.716-6.063-1.204c-2.035-0.487-3.899-1.189-5.59-2.107c-1.691-0.916-3.039-2.163-4.042-3.741
			c-1.004-1.576-1.505-3.655-1.505-6.235c0-2.178,0.501-4.128,1.505-5.848c1.003-1.72,2.379-3.152,4.128-4.3
			c1.749-1.146,3.755-2.006,6.021-2.58c2.264-0.573,4.629-0.86,7.095-0.86h1.72c2.293,0,4.486,0.288,6.579,0.86
			c2.093,0.574,3.97,1.391,5.634,2.451c1.662,1.062,2.967,2.322,3.912,3.784c0.946,1.462,1.419,3.053,1.419,4.773
			c0,0.288-0.014,0.617-0.043,0.989c-0.029,0.374-0.072,0.617-0.129,0.731h-9.976v-0.688c0-0.63-0.158-1.247-0.473-1.849
			c-0.316-0.602-0.832-1.161-1.549-1.677s-1.634-0.931-2.752-1.247c-1.117-0.314-2.45-0.473-3.999-0.473
			c-1.376,0-2.609,0.129-3.697,0.387c-1.09,0.258-2.008,0.602-2.752,1.032c-0.746,0.43-1.29,0.933-1.635,1.505
			c-0.344,0.574-0.516,1.147-0.516,1.72c0,1.204,0.516,2.136,1.548,2.795c1.032,0.66,2.394,1.176,4.085,1.548
			c1.69,0.374,3.555,0.718,5.59,1.032c2.035,0.315,4.056,0.703,6.063,1.161c2.006,0.46,3.87,1.161,5.59,2.107
			c1.72,0.946,3.081,2.223,4.085,3.827c1.002,1.606,1.504,3.698,1.504,6.278c0,2.695-0.516,4.988-1.547,6.88
			c-1.032,1.892-2.466,3.397-4.3,4.515c-1.836,1.118-3.899,1.935-6.192,2.451c-2.294,0.516-4.701,0.774-7.224,0.774H2362.162z"/>
	</g>
	<g>
		<path d="M2672.947,1003.517v-32.928h5.856l11.76,17.472l1.728,3.024l0.192-0.048v-20.448h6.336v32.928h-6l-12.096-18.096
			l-1.2-2.208l-0.24,0.048v20.256H2672.947z"/>
		<path d="M2713.843,1003.997c-1.376,0-2.608-0.192-3.695-0.576c-1.089-0.384-1.937-1.032-2.544-1.944
			c-0.608-0.912-0.912-2.12-0.912-3.624v-13.968h-2.688v-4.896h2.88l2.305-7.824h4.031v7.824h5.761v4.896h-5.761v12.528
			c0,1.409,0.288,2.304,0.864,2.688s1.2,0.576,1.872,0.576c0.352,0,0.84-0.072,1.464-0.216s1.128-0.295,1.512-0.456v4.032
			c-0.416,0.224-0.928,0.408-1.535,0.552c-0.608,0.144-1.225,0.248-1.849,0.312
			C2714.923,1003.965,2714.354,1003.997,2713.843,1003.997z"/>
		<path d="M2737.314,1003.997c-1.952,0-3.768-0.288-5.448-0.864c-1.68-0.576-3.16-1.472-4.439-2.688c-1.28-1.216-2.28-2.784-3-4.704
			s-1.08-4.24-1.08-6.96v-3.504c0-2.623,0.367-4.896,1.104-6.816s1.744-3.496,3.024-4.728c1.279-1.231,2.752-2.144,4.416-2.736
			c1.663-0.592,3.439-0.888,5.328-0.888h0.864c1.791,0,3.479,0.249,5.063,0.744c1.584,0.497,2.977,1.28,4.176,2.352
			c1.2,1.073,2.144,2.456,2.832,4.152c0.688,1.697,1.032,3.744,1.032,6.144h-6.576c0-2.112-0.296-3.751-0.888-4.92
			c-0.593-1.167-1.408-1.984-2.448-2.448s-2.264-0.696-3.672-0.696c-0.992,0-1.912,0.152-2.76,0.456
			c-0.849,0.305-1.576,0.785-2.185,1.44c-0.607,0.656-1.079,1.521-1.415,2.592c-0.337,1.072-0.505,2.376-0.505,3.912v6.432
			c0,2.048,0.288,3.688,0.864,4.92c0.576,1.232,1.376,2.121,2.4,2.664c1.023,0.544,2.224,0.816,3.6,0.816
			c1.504,0,2.8-0.231,3.888-0.696c1.088-0.463,1.921-1.28,2.496-2.448c0.576-1.167,0.864-2.792,0.864-4.872h6.336
			c0,2.272-0.344,4.248-1.032,5.928s-1.624,3.064-2.808,4.152c-1.185,1.088-2.561,1.904-4.128,2.448
			c-1.568,0.543-3.248,0.816-5.04,0.816H2737.314z"/>
		<path d="M2766.113,1003.517v-5.232h3.84v-22.464h-3.84v-5.232h14.688v5.232h-3.84v22.464h3.84v5.232H2766.113z"/>
		<path d="M2787.089,1003.517v-32.928h15.84c1.76,0,3.368,0.417,4.824,1.248c1.456,0.833,2.616,1.96,3.48,3.384
			c0.863,1.424,1.296,3.017,1.296,4.776v0.672c0,1.76-0.449,3.393-1.345,4.896c-0.896,1.505-2.08,2.705-3.552,3.6
			c-1.472,0.896-3.104,1.344-4.896,1.344h-8.641v13.008H2787.089z M2794.097,985.229h7.008c0.864,0,1.624-0.199,2.28-0.6
			c0.655-0.399,1.176-0.952,1.561-1.656c0.384-0.704,0.575-1.504,0.575-2.4c0-1.28-0.416-2.376-1.247-3.288
			c-0.833-0.912-1.937-1.368-3.312-1.368h-6.864V985.229z"/>
		<path d="M2830.288,1003.997c-1.952,0-3.768-0.288-5.448-0.864c-1.68-0.576-3.16-1.472-4.439-2.688c-1.28-1.216-2.28-2.784-3-4.704
			s-1.08-4.24-1.08-6.96v-3.504c0-2.623,0.367-4.896,1.104-6.816s1.744-3.496,3.024-4.728c1.279-1.231,2.752-2.144,4.416-2.736
			c1.663-0.592,3.439-0.888,5.328-0.888h0.864c1.791,0,3.479,0.249,5.063,0.744c1.584,0.497,2.977,1.28,4.176,2.352
			c1.2,1.073,2.144,2.456,2.832,4.152c0.688,1.697,1.032,3.744,1.032,6.144h-6.576c0-2.112-0.296-3.751-0.888-4.92
			c-0.593-1.167-1.408-1.984-2.448-2.448s-2.264-0.696-3.672-0.696c-0.992,0-1.912,0.152-2.76,0.456
			c-0.849,0.305-1.576,0.785-2.185,1.44c-0.607,0.656-1.079,1.521-1.415,2.592c-0.337,1.072-0.505,2.376-0.505,3.912v6.432
			c0,2.048,0.288,3.688,0.864,4.92c0.576,1.232,1.376,2.121,2.4,2.664c1.023,0.544,2.224,0.816,3.6,0.816
			c1.504,0,2.8-0.231,3.888-0.696c1.088-0.463,1.921-1.28,2.496-2.448c0.576-1.167,0.864-2.792,0.864-4.872h6.336
			c0,2.272-0.344,4.248-1.032,5.928s-1.624,3.064-2.808,4.152c-1.185,1.088-2.561,1.904-4.128,2.448
			c-1.568,0.543-3.248,0.816-5.04,0.816H2830.288z"/>
		<path d="M2870.463,1003.997c-2.24,0-4.248-0.504-6.023-1.512c-1.776-1.008-3.168-2.439-4.176-4.296
			c-1.009-1.855-1.513-4.032-1.513-6.528v-0.864c0-2.527,0.504-4.704,1.513-6.528c1.008-1.824,2.392-3.24,4.151-4.248
			c1.76-1.008,3.76-1.512,6-1.512h0.96c2.271,0,4.288,0.504,6.048,1.512c1.76,1.008,3.145,2.424,4.152,4.248
			c1.008,1.824,1.512,4,1.512,6.528v0.864c0,2.528-0.504,4.712-1.512,6.552c-1.008,1.841-2.393,3.264-4.152,4.272
			c-1.76,1.008-3.76,1.512-6,1.512H2870.463z M2870.896,999.677c0.991,0,1.879-0.232,2.664-0.696
			c0.783-0.463,1.407-1.159,1.872-2.088c0.463-0.928,0.695-2.032,0.695-3.312v-4.704c0-1.312-0.232-2.416-0.695-3.312
			c-0.465-0.896-1.089-1.584-1.872-2.064c-0.785-0.48-1.673-0.72-2.664-0.72c-0.96,0-1.841,0.24-2.641,0.72
			s-1.433,1.168-1.896,2.064c-0.465,0.896-0.696,2-0.696,3.312v4.704c0,1.28,0.231,2.384,0.696,3.312
			c0.463,0.929,1.096,1.625,1.896,2.088C2869.055,999.445,2869.936,999.677,2870.896,999.677z"/>
		<path d="M2894.511,1003.517l-8.736-24.528h7.008l5.568,16.944h0.288l5.615-16.944h6.385l-8.832,24.528H2894.511z"/>
		<path d="M2925.038,1003.997c-2.304,0-4.344-0.473-6.12-1.416c-1.775-0.943-3.16-2.32-4.151-4.128
			c-0.992-1.808-1.488-4.008-1.488-6.6v-1.2c0-2.592,0.52-4.792,1.561-6.6c1.039-1.808,2.463-3.184,4.271-4.128
			c1.808-0.944,3.864-1.416,6.168-1.416h0.769c2.175,0,4.071,0.44,5.688,1.32c1.615,0.88,2.863,2.112,3.744,3.696
			c0.88,1.584,1.32,3.432,1.32,5.544v3.024h-16.608c0,1.536,0.192,2.88,0.576,4.032s0.96,2.033,1.728,2.64
			c0.769,0.608,1.776,0.912,3.024,0.912c1.023,0,1.92-0.2,2.688-0.6c0.769-0.4,1.376-1,1.824-1.8
			c0.448-0.799,0.672-1.776,0.672-2.928h6.097c0,1.889-0.48,3.56-1.44,5.016c-0.96,1.457-2.28,2.592-3.96,3.408
			s-3.624,1.224-5.832,1.224H2925.038z M2920.238,988.733h10.128c0-2.016-0.44-3.511-1.319-4.488
			c-0.881-0.976-2.089-1.464-3.624-1.464c-1.44,0-2.648,0.504-3.624,1.512C2920.822,985.301,2920.302,986.782,2920.238,988.733z"/>
		<path d="M2942.318,1003.517v-24.528h4.896l0.816,3.6c0.063-0.127,0.231-0.399,0.504-0.816c0.271-0.416,0.68-0.879,1.224-1.392
			c0.544-0.511,1.225-0.952,2.04-1.32c0.816-0.368,1.8-0.552,2.952-0.552c1.663,0,3.016,0.32,4.056,0.96s1.816,1.536,2.328,2.688
			c0.512,1.152,0.769,2.496,0.769,4.032c0,0.353-0.017,0.737-0.049,1.152c-0.032,0.416-0.064,0.784-0.096,1.104h-5.472v-1.008
			c0-0.607-0.12-1.224-0.36-1.848c-0.24-0.624-0.624-1.144-1.151-1.56c-0.528-0.416-1.257-0.624-2.185-0.624
			c-0.672,0-1.248,0.144-1.728,0.432c-0.48,0.288-0.873,0.648-1.177,1.08s-0.527,0.912-0.672,1.44
			c-0.144,0.528-0.216,1.017-0.216,1.464v15.696H2942.318z"/>
		<path d="M2701.675,1051.517v-32.928h7.008v27.456h13.776l0.816,5.472H2701.675z"/>
		<path d="M2737.675,1051.997c-2.24,0-4.248-0.504-6.024-1.512c-1.775-1.008-3.168-2.439-4.176-4.296
			c-1.008-1.855-1.512-4.032-1.512-6.528v-0.864c0-2.527,0.504-4.704,1.512-6.528c1.008-1.824,2.392-3.24,4.152-4.248
			c1.759-1.008,3.76-1.512,6-1.512h0.96c2.271,0,4.287,0.504,6.048,1.512c1.76,1.008,3.144,2.424,4.152,4.248
			c1.008,1.824,1.512,4,1.512,6.528v0.864c0,2.528-0.504,4.712-1.512,6.552c-1.009,1.841-2.393,3.264-4.152,4.272
			c-1.761,1.008-3.761,1.512-6,1.512H2737.675z M2738.106,1047.677c0.991,0,1.88-0.232,2.664-0.696
			c0.784-0.463,1.408-1.159,1.872-2.088c0.464-0.928,0.696-2.032,0.696-3.312v-4.704c0-1.312-0.232-2.416-0.696-3.312
			c-0.464-0.896-1.088-1.584-1.872-2.064s-1.673-0.72-2.664-0.72c-0.96,0-1.84,0.24-2.64,0.72c-0.801,0.48-1.433,1.168-1.896,2.064
			c-0.464,0.896-0.695,2-0.695,3.312v4.704c0,1.28,0.231,2.384,0.695,3.312c0.464,0.929,1.096,1.625,1.896,2.088
			C2736.267,1047.445,2737.146,1047.677,2738.106,1047.677z"/>
		<path d="M2765.706,1051.997c-2.08,0-3.96-0.512-5.64-1.536c-1.68-1.023-3-2.439-3.96-4.248c-0.96-1.807-1.44-3.879-1.44-6.216
			v-1.488c0-1.76,0.296-3.368,0.889-4.824c0.592-1.456,1.399-2.728,2.424-3.816c1.023-1.087,2.224-1.92,3.6-2.496
			s2.848-0.864,4.416-0.864h0.912c2.144,0,4.008,0.424,5.592,1.272c1.584,0.848,2.8,2.032,3.648,3.552
			c0.848,1.521,1.271,3.305,1.271,5.352h-5.712c0-1.312-0.2-2.4-0.6-3.264c-0.4-0.864-0.969-1.52-1.704-1.968
			c-0.736-0.448-1.616-0.672-2.64-0.672c-1.473,0-2.705,0.504-3.696,1.512c-0.992,1.008-1.488,2.489-1.488,4.44v4.944
			c0,1.92,0.472,3.4,1.416,4.44c0.943,1.04,2.216,1.56,3.816,1.56c1.119,0,2.063-0.192,2.832-0.576
			c0.768-0.384,1.352-1.008,1.752-1.872c0.399-0.864,0.6-2.016,0.6-3.456h5.424c0,2.177-0.464,4.024-1.392,5.544
			c-0.929,1.521-2.208,2.681-3.84,3.48c-1.632,0.8-3.488,1.2-5.568,1.2H2765.706z"/>
		<path d="M2789.034,1051.997c-1.312,0-2.568-0.216-3.768-0.648c-1.2-0.432-2.185-1.152-2.952-2.16
			c-0.769-1.008-1.152-2.376-1.152-4.104c0-1.759,0.392-3.184,1.176-4.272c0.784-1.087,1.888-1.927,3.312-2.52
			c1.423-0.592,3.136-1,5.136-1.224c1.999-0.223,4.248-0.336,6.744-0.336v-2.16c0-1.408-0.384-2.408-1.152-3
			c-0.768-0.592-1.889-0.888-3.359-0.888c-1.248,0-2.345,0.281-3.288,0.84c-0.944,0.561-1.416,1.416-1.416,2.568v0.384h-6.288
			c-0.032-0.096-0.048-0.232-0.048-0.408c0-0.175,0-0.328,0-0.456c0-1.408,0.447-2.647,1.344-3.72
			c0.896-1.072,2.144-1.903,3.744-2.496c1.6-0.592,3.456-0.888,5.567-0.888h1.009c3.455,0,6.031,0.68,7.728,2.04
			c1.695,1.36,2.544,3.192,2.544,5.496v11.952c0,0.608,0.151,1.04,0.456,1.296c0.304,0.257,0.632,0.384,0.984,0.384
			c0.288,0,0.607-0.056,0.96-0.168c0.352-0.112,0.688-0.248,1.008-0.408v3.84c-0.416,0.32-0.969,0.576-1.656,0.768
			c-0.688,0.192-1.512,0.288-2.472,0.288c-1.152,0-2.112-0.185-2.88-0.552c-0.769-0.368-1.353-0.872-1.752-1.512
			c-0.4-0.64-0.648-1.375-0.744-2.208c-0.896,1.28-2.081,2.312-3.552,3.096C2792.794,1051.605,2791.05,1051.997,2789.034,1051.997z
			 M2792.106,1047.677c0.896,0,1.752-0.208,2.567-0.624c0.816-0.416,1.496-1.032,2.04-1.848s0.816-1.832,0.816-3.048v-1.968
			c-2.049,0-3.784,0.128-5.208,0.384c-1.425,0.256-2.504,0.68-3.24,1.272c-0.736,0.592-1.104,1.448-1.104,2.568
			c0,1.184,0.359,2.024,1.08,2.52C2789.778,1047.43,2790.794,1047.677,2792.106,1047.677z"/>
		<path d="M2811.786,1051.517v-34.56h6.575v34.56H2811.786z"/>
		<path d="M2835.784,1051.517v-32.928h15.84c1.76,0,3.368,0.417,4.824,1.248c1.456,0.833,2.616,1.96,3.48,3.384
			c0.863,1.424,1.296,3.017,1.296,4.776v0.672c0,1.76-0.449,3.393-1.345,4.896c-0.896,1.505-2.08,2.705-3.552,3.6
			c-1.472,0.896-3.104,1.344-4.896,1.344h-8.641v13.008H2835.784z M2842.792,1033.229h7.008c0.864,0,1.624-0.199,2.28-0.6
			c0.655-0.399,1.176-0.952,1.561-1.656c0.384-0.704,0.575-1.504,0.575-2.4c0-1.28-0.416-2.376-1.247-3.288
			c-0.833-0.912-1.937-1.368-3.312-1.368h-6.864V1033.229z"/>
		<path d="M2867.463,1022.045v-5.088h6.768v5.088H2867.463z M2867.559,1051.517v-24.528h6.576v24.528H2867.559z"/>
		<path d="M2880.854,1060.205v-33.216h5.137l0.72,3.168c0.735-1.056,1.72-1.928,2.952-2.616c1.231-0.688,2.68-1.032,4.344-1.032
			c1.888,0,3.592,0.408,5.112,1.224c1.52,0.816,2.72,2.121,3.6,3.912c0.88,1.792,1.32,4.145,1.32,7.056v1.008
			c0,2.688-0.433,4.952-1.296,6.792c-0.864,1.841-2.033,3.216-3.504,4.128c-1.473,0.912-3.089,1.368-4.849,1.368
			c-1.696,0-3.12-0.32-4.271-0.96c-1.152-0.64-2.033-1.456-2.641-2.448v11.616H2880.854z M2892.327,1047.629
			c0.928,0,1.752-0.24,2.472-0.72s1.288-1.168,1.704-2.064c0.415-0.896,0.624-2,0.624-3.312v-4.272c0-1.472-0.209-2.68-0.624-3.624
			c-0.416-0.944-0.984-1.648-1.704-2.112c-0.72-0.463-1.544-0.696-2.472-0.696c-0.864,0-1.673,0.224-2.424,0.672
			c-0.753,0.449-1.353,1.136-1.801,2.064c-0.448,0.929-0.672,2.145-0.672,3.648v4.32c0,1.312,0.216,2.424,0.648,3.336
			c0.432,0.912,1.023,1.601,1.775,2.064C2890.606,1047.397,2891.431,1047.629,2892.327,1047.629z"/>
		<path d="M2920.166,1051.997c-2.304,0-4.344-0.473-6.12-1.416c-1.775-0.943-3.16-2.32-4.151-4.128
			c-0.992-1.808-1.488-4.008-1.488-6.6v-1.2c0-2.592,0.52-4.792,1.561-6.6c1.039-1.808,2.463-3.184,4.271-4.128
			c1.808-0.944,3.864-1.416,6.168-1.416h0.769c2.175,0,4.071,0.44,5.688,1.32c1.615,0.88,2.863,2.112,3.744,3.696
			c0.88,1.584,1.32,3.432,1.32,5.544v3.024h-16.608c0,1.536,0.192,2.88,0.576,4.032s0.96,2.033,1.728,2.64
			c0.769,0.608,1.776,0.912,3.024,0.912c1.023,0,1.92-0.2,2.688-0.6c0.769-0.4,1.376-1,1.824-1.8
			c0.448-0.799,0.672-1.776,0.672-2.928h6.097c0,1.889-0.48,3.56-1.44,5.016c-0.96,1.457-2.28,2.592-3.96,3.408
			s-3.624,1.224-5.832,1.224H2920.166z M2915.366,1036.733h10.128c0-2.016-0.44-3.511-1.319-4.488
			c-0.881-0.976-2.089-1.464-3.624-1.464c-1.44,0-2.648,0.504-3.624,1.512C2915.95,1033.301,2915.43,1034.782,2915.366,1036.733z"/>
	</g>
	
		<line style="fill:none;stroke:#999999;stroke-width:4.4;stroke-linejoin:round;stroke-miterlimit:10;stroke-dasharray:13.2,6.6;" x1="2816.056" y1="946.831" x2="2816.056" y2="872.165"/>
</g>
<g id="Layer_4">
</g>
</svg>
