<?xml version="1.0" encoding="iso-8859-1"?>
<!-- Generator: Adobe Illustrator 29.6.0, SVG Export Plug-In . SVG Version: 9.03 Build 0)  -->
<svg version="1.1" xmlns="http://www.w3.org/2000/svg" xmlns:xlink="http://www.w3.org/1999/xlink" x="0px" y="0px"
	 viewBox="0 0 4000 1840" style="enable-background:new 0 0 4000 1840;" xml:space="preserve">
<g id="Layer_1" style="display:none;">
	
		<image style="display:inline;overflow:visible;" width="1251" height="585" xlink:href="../../_Draft Images/network_ntn.png"  transform="matrix(3.1974 0 0 3.1974 0 0)">
	</image>
</g>
<g id="Background">
	<path style="fill:#E6E6E6;" d="M2441.852,1773h-873.289c-77.84,0-140.942-63.102-140.942-140.942V200.942
		c0-77.84,63.102-140.942,140.942-140.942h873.289c77.84,0,140.942,63.102,140.942,140.942v1431.117
		C2582.793,1709.898,2519.691,1773,2441.852,1773z"/>
	<rect x="3052.276" y="634.872" style="fill:#0033AD;" width="870" height="651.34"/>
	<rect x="72.966" y="634.872" style="fill:#0033AD;" width="870" height="651.34"/>
</g>
<g id="Layer_2">
	<g>
		<path d="M1005.548,979.881v-32.928h5.856l11.76,17.472l1.728,3.024l0.192-0.048v-20.448h6.336v32.928h-6l-12.096-18.096
			l-1.2-2.208l-0.24,0.048v20.256H1005.548z"/>
		<path d="M1046.444,980.361c-1.376,0-2.608-0.192-3.696-0.576c-1.088-0.384-1.937-1.032-2.544-1.944
			c-0.608-0.912-0.912-2.12-0.912-3.624v-13.968h-2.688v-4.896h2.88l2.304-7.824h4.032v7.824h5.76v4.896h-5.76v12.528
			c0,1.409,0.288,2.304,0.864,2.688c0.576,0.384,1.2,0.576,1.872,0.576c0.352,0,0.84-0.072,1.464-0.216s1.128-0.295,1.512-0.456
			v4.032c-0.416,0.224-0.928,0.408-1.536,0.552c-0.608,0.144-1.224,0.248-1.848,0.312
			C1047.524,980.329,1046.956,980.361,1046.444,980.361z"/>
		<path d="M1057.243,979.881v-32.928h5.856l11.76,17.472l1.728,3.024l0.192-0.048v-20.448h6.336v32.928h-6l-12.096-18.096
			l-1.2-2.208l-0.24,0.048v20.256H1057.243z"/>
		<path d="M1099.674,979.881v-5.232h3.84v-22.464h-3.84v-5.232h14.688v5.232h-3.84v22.464h3.84v5.232H1099.674z"/>
		<path d="M1120.65,979.881v-32.928h15.84c1.759,0,3.368,0.417,4.824,1.248c1.456,0.833,2.616,1.96,3.48,3.384
			c0.864,1.424,1.296,3.017,1.296,4.776v0.672c0,1.76-0.449,3.393-1.344,4.896c-0.896,1.505-2.081,2.705-3.552,3.6
			c-1.472,0.896-3.104,1.344-4.896,1.344h-8.64v13.008H1120.65z M1127.658,961.593h7.008c0.864,0,1.624-0.199,2.28-0.6
			c0.655-0.399,1.176-0.952,1.56-1.656c0.384-0.704,0.576-1.504,0.576-2.4c0-1.28-0.416-2.376-1.248-3.288
			c-0.833-0.912-1.937-1.368-3.312-1.368h-6.864V961.593z"/>
		<path d="M1163.849,980.361c-1.952,0-3.768-0.288-5.448-0.864c-1.68-0.576-3.16-1.472-4.44-2.688c-1.28-1.216-2.28-2.784-3-4.704
			c-0.72-1.92-1.08-4.24-1.08-6.96v-3.504c0-2.623,0.367-4.896,1.104-6.816c0.736-1.92,1.744-3.496,3.024-4.728
			c1.279-1.231,2.751-2.144,4.416-2.736c1.663-0.592,3.439-0.888,5.328-0.888h0.864c1.792,0,3.48,0.249,5.064,0.744
			c1.584,0.497,2.976,1.28,4.176,2.352c1.2,1.073,2.144,2.456,2.832,4.152c0.688,1.697,1.032,3.744,1.032,6.144h-6.576
			c0-2.112-0.296-3.751-0.888-4.92c-0.593-1.167-1.409-1.984-2.448-2.448c-1.04-0.464-2.264-0.696-3.672-0.696
			c-0.992,0-1.913,0.152-2.76,0.456c-0.848,0.305-1.576,0.785-2.184,1.44c-0.608,0.656-1.08,1.521-1.416,2.592
			c-0.336,1.072-0.504,2.376-0.504,3.912v6.432c0,2.048,0.288,3.688,0.864,4.92c0.576,1.232,1.375,2.121,2.4,2.664
			c1.024,0.544,2.224,0.816,3.6,0.816c1.503,0,2.8-0.231,3.888-0.696c1.088-0.463,1.92-1.28,2.496-2.448
			c0.576-1.167,0.864-2.792,0.864-4.872h6.336c0,2.272-0.344,4.248-1.032,5.928c-0.688,1.68-1.625,3.064-2.808,4.152
			c-1.185,1.088-2.561,1.904-4.128,2.448c-1.568,0.543-3.248,0.816-5.04,0.816H1163.849z"/>
		<path d="M1204.024,980.361c-2.24,0-4.248-0.504-6.024-1.512c-1.776-1.008-3.168-2.439-4.176-4.296
			c-1.008-1.855-1.512-4.032-1.512-6.528v-0.864c0-2.527,0.504-4.704,1.512-6.528c1.008-1.824,2.392-3.24,4.152-4.248
			c1.759-1.008,3.76-1.512,6-1.512h0.96c2.271,0,4.288,0.504,6.048,1.512c1.76,1.008,3.144,2.424,4.152,4.248
			c1.008,1.824,1.512,4,1.512,6.528v0.864c0,2.528-0.504,4.712-1.512,6.552c-1.008,1.841-2.393,3.264-4.152,4.272
			c-1.76,1.008-3.76,1.512-6,1.512H1204.024z M1204.456,976.041c0.991,0,1.879-0.232,2.664-0.696
			c0.784-0.463,1.408-1.159,1.872-2.088c0.463-0.928,0.696-2.032,0.696-3.312v-4.704c0-1.312-0.232-2.416-0.696-3.312
			c-0.464-0.896-1.088-1.584-1.872-2.064c-0.785-0.48-1.673-0.72-2.664-0.72c-0.96,0-1.84,0.24-2.64,0.72
			c-0.8,0.48-1.433,1.168-1.896,2.064c-0.464,0.896-0.696,2-0.696,3.312v4.704c0,1.28,0.231,2.384,0.696,3.312
			c0.463,0.929,1.096,1.625,1.896,2.088C1202.616,975.809,1203.496,976.041,1204.456,976.041z"/>
		<path d="M1228.072,979.881l-8.736-24.528h7.008l5.568,16.944h0.288l5.616-16.944h6.384l-8.832,24.528H1228.072z"/>
		<path d="M1258.6,980.361c-2.304,0-4.344-0.473-6.12-1.416c-1.776-0.943-3.16-2.32-4.152-4.128c-0.992-1.808-1.488-4.008-1.488-6.6
			v-1.2c0-2.592,0.52-4.792,1.56-6.6c1.039-1.808,2.463-3.184,4.272-4.128c1.807-0.944,3.864-1.416,6.168-1.416h0.768
			c2.175,0,4.071,0.44,5.688,1.32c1.615,0.88,2.863,2.112,3.744,3.696c0.88,1.584,1.32,3.432,1.32,5.544v3.024h-16.608
			c0,1.536,0.192,2.88,0.576,4.032c0.384,1.152,0.96,2.033,1.728,2.64c0.768,0.608,1.776,0.912,3.024,0.912
			c1.024,0,1.92-0.2,2.688-0.6c0.768-0.4,1.375-1,1.824-1.8c0.448-0.799,0.672-1.776,0.672-2.928h6.096
			c0,1.889-0.48,3.56-1.44,5.016c-0.96,1.457-2.28,2.592-3.96,3.408c-1.68,0.816-3.624,1.224-5.832,1.224H1258.6z M1253.8,965.097
			h10.128c0-2.016-0.44-3.511-1.32-4.488c-0.881-0.976-2.088-1.464-3.624-1.464c-1.44,0-2.648,0.504-3.624,1.512
			C1254.383,961.665,1253.863,963.146,1253.8,965.097z"/>
		<path d="M1275.879,979.881v-24.528h4.896l0.816,3.6c0.063-0.127,0.231-0.399,0.504-0.816c0.271-0.416,0.68-0.879,1.224-1.392
			c0.543-0.511,1.224-0.952,2.04-1.32c0.816-0.368,1.8-0.552,2.952-0.552c1.664,0,3.016,0.32,4.056,0.96
			c1.04,0.64,1.816,1.536,2.328,2.688c0.511,1.152,0.768,2.496,0.768,4.032c0,0.353-0.017,0.737-0.048,1.152
			c-0.032,0.416-0.064,0.784-0.096,1.104h-5.472v-1.008c0-0.607-0.12-1.224-0.36-1.848c-0.24-0.624-0.624-1.144-1.152-1.56
			c-0.528-0.416-1.256-0.624-2.184-0.624c-0.672,0-1.248,0.144-1.728,0.432c-0.48,0.288-0.873,0.648-1.176,1.08
			c-0.304,0.432-0.528,0.912-0.672,1.44c-0.144,0.528-0.216,1.017-0.216,1.464v15.696H1275.879z"/>
		<path d="M1317.254,979.881v-27.504h-9.456v-5.424h25.872v5.424h-9.456v27.504H1317.254z"/>
		<path d="M1350.95,980.361c-1.952,0-3.768-0.288-5.448-0.864c-1.68-0.576-3.16-1.472-4.44-2.688c-1.28-1.216-2.28-2.784-3-4.704
			c-0.72-1.92-1.08-4.24-1.08-6.96v-3.504c0-2.623,0.367-4.896,1.104-6.816c0.736-1.92,1.744-3.496,3.024-4.728
			c1.279-1.231,2.751-2.144,4.416-2.736c1.663-0.592,3.439-0.888,5.328-0.888h0.864c1.792,0,3.48,0.249,5.064,0.744
			c1.584,0.497,2.976,1.28,4.176,2.352c1.2,1.073,2.144,2.456,2.832,4.152c0.688,1.697,1.032,3.744,1.032,6.144h-6.576
			c0-2.112-0.296-3.751-0.888-4.92c-0.593-1.167-1.409-1.984-2.448-2.448c-1.04-0.464-2.264-0.696-3.672-0.696
			c-0.992,0-1.913,0.152-2.76,0.456c-0.848,0.305-1.576,0.785-2.184,1.44c-0.608,0.656-1.08,1.521-1.416,2.592
			c-0.336,1.072-0.504,2.376-0.504,3.912v6.432c0,2.048,0.288,3.688,0.864,4.92c0.576,1.232,1.375,2.121,2.4,2.664
			c1.024,0.544,2.224,0.816,3.6,0.816c1.503,0,2.8-0.231,3.888-0.696c1.088-0.463,1.92-1.28,2.496-2.448
			c0.576-1.167,0.864-2.792,0.864-4.872h6.336c0,2.272-0.344,4.248-1.032,5.928c-0.688,1.68-1.625,3.064-2.808,4.152
			c-1.185,1.088-2.561,1.904-4.128,2.448c-1.568,0.543-3.248,0.816-5.04,0.816H1350.95z"/>
		<path d="M1370.678,979.881v-32.928h15.84c1.759,0,3.368,0.417,4.824,1.248c1.456,0.833,2.616,1.96,3.48,3.384
			c0.864,1.424,1.296,3.017,1.296,4.776v0.672c0,1.76-0.449,3.393-1.344,4.896c-0.896,1.505-2.081,2.705-3.552,3.6
			c-1.472,0.896-3.104,1.344-4.896,1.344h-8.64v13.008H1370.678z M1377.686,961.593h7.008c0.864,0,1.624-0.199,2.28-0.6
			c0.655-0.399,1.176-0.952,1.56-1.656c0.384-0.704,0.576-1.504,0.576-2.4c0-1.28-0.416-2.376-1.248-3.288
			c-0.833-0.912-1.937-1.368-3.312-1.368h-6.864V961.593z"/>
	</g>
	<g>
		<path d="M1616.901,199.438v-58.996h10.492l21.07,31.304l3.096,5.418l0.344-0.086v-36.636h11.352v58.996h-10.75l-21.672-32.422
			l-2.15-3.956l-0.43,0.086v36.292H1616.901z"/>
		<path d="M1690.172,200.298c-2.466,0-4.674-0.344-6.622-1.031c-1.95-0.688-3.47-1.85-4.558-3.483
			c-1.09-1.634-1.634-3.798-1.634-6.493v-25.025h-4.816v-8.772h5.16l4.128-14.018h7.224v14.018h10.32v8.772h-10.32v22.445
			c0,2.523,0.516,4.128,1.548,4.816c1.032,0.688,2.15,1.032,3.354,1.032c0.63,0,1.505-0.129,2.623-0.388
			c1.118-0.258,2.021-0.529,2.709-0.816v7.224c-0.746,0.402-1.664,0.731-2.752,0.989c-1.09,0.258-2.193,0.443-3.311,0.559
			C1692.107,200.24,1691.089,200.298,1690.172,200.298z"/>
		<path d="M1709.521,199.438v-58.996h10.492l21.07,31.304l3.096,5.418l0.344-0.086v-36.636h11.352v58.996h-10.75l-21.672-32.422
			l-2.15-3.956l-0.43,0.086v36.292H1709.521z"/>
		<path d="M1787.694,199.438v-58.996h20.296l14.62,40.42h0.258l14.534-40.42h20.382v58.996h-12.47v-44.462h-0.344l-15.91,44.462
			h-13.846l-15.824-44.462h-0.43v44.462H1787.694z"/>
		<path d="M1871.37,146.634v-9.115h12.126v9.115H1871.37z M1871.542,199.438v-43.946h11.782v43.946H1871.542z"/>
		<path d="M1895.449,199.438v-43.946h8.686l1.376,6.45c1.72-2.465,3.797-4.3,6.235-5.504c2.436-1.204,5.203-1.807,8.299-1.807
			c2.98,0,5.604,0.574,7.869,1.721c2.264,1.147,4.012,2.781,5.246,4.901c1.232,2.122,1.849,4.702,1.849,7.74v30.444h-11.696v-27.95
			c0-2.809-0.688-4.872-2.064-6.192c-1.376-1.318-3.24-1.978-5.59-1.978c-1.492,0-2.896,0.387-4.214,1.161
			c-1.32,0.773-2.352,1.82-3.096,3.139c-0.746,1.319-1.118,2.81-1.118,4.472v27.349H1895.449z"/>
		<path d="M1947.048,146.634v-9.115h12.126v9.115H1947.048z M1947.22,199.438v-43.946h11.782v43.946H1947.22z"/>
		<path d="M1990.39,199.438v-58.996h28.379c3.152,0,6.034,0.746,8.644,2.236c2.608,1.491,4.687,3.512,6.234,6.062
			c1.549,2.552,2.322,5.404,2.322,8.557v1.204c0,3.154-0.804,6.078-2.408,8.772c-1.605,2.695-3.728,4.846-6.363,6.45
			c-2.638,1.605-5.562,2.407-8.772,2.407h-15.479v23.307H1990.39z M2002.946,166.672h12.556c1.548,0,2.909-0.357,4.085-1.074
			c1.175-0.717,2.107-1.706,2.795-2.968c0.688-1.26,1.032-2.694,1.032-4.3c0-2.292-0.746-4.257-2.236-5.891
			c-1.491-1.634-3.47-2.451-5.934-2.451h-12.298V166.672z"/>
		<path d="M2044.225,199.438v-43.946h8.771l1.462,6.45c0.114-0.229,0.415-0.717,0.903-1.462c0.486-0.745,1.218-1.576,2.193-2.494
			c0.974-0.917,2.192-1.705,3.654-2.365c1.462-0.658,3.226-0.989,5.289-0.989c2.98,0,5.403,0.574,7.268,1.721
			c1.862,1.147,3.253,2.752,4.171,4.815c0.916,2.064,1.376,4.473,1.376,7.225c0,0.631-0.03,1.319-0.086,2.063
			c-0.059,0.746-0.116,1.405-0.172,1.979h-9.805v-1.807c0-1.088-0.215-2.192-0.645-3.311c-0.431-1.118-1.118-2.05-2.064-2.795
			c-0.945-0.745-2.251-1.118-3.913-1.118c-1.204,0-2.235,0.258-3.096,0.774c-0.86,0.516-1.562,1.16-2.107,1.935
			s-0.945,1.634-1.203,2.58c-0.259,0.946-0.388,1.82-0.388,2.623v28.122H2044.225z"/>
		<path d="M2106.058,200.298c-4.014,0-7.61-0.902-10.793-2.709c-3.182-1.806-5.676-4.371-7.481-7.696
			c-1.807-3.325-2.709-7.225-2.709-11.696v-1.548c0-4.528,0.902-8.428,2.709-11.696c1.806-3.268,4.285-5.805,7.438-7.611
			c3.152-1.806,6.736-2.709,10.75-2.709h1.721c4.069,0,7.682,0.903,10.836,2.709c3.152,1.807,5.633,4.344,7.438,7.611
			c1.806,3.269,2.709,7.168,2.709,11.696v1.548c0,4.529-0.903,8.442-2.709,11.739s-4.286,5.848-7.438,7.653
			c-3.154,1.807-6.738,2.709-10.75,2.709H2106.058z M2106.832,192.559c1.776,0,3.367-0.416,4.772-1.247
			c1.404-0.831,2.522-2.078,3.354-3.741c0.83-1.662,1.247-3.641,1.247-5.934v-8.429c0-2.35-0.417-4.328-1.247-5.934
			c-0.832-1.604-1.95-2.838-3.354-3.698c-1.405-0.86-2.996-1.29-4.772-1.29c-1.72,0-3.298,0.43-4.73,1.29
			c-1.434,0.86-2.566,2.094-3.396,3.698c-0.832,1.605-1.247,3.584-1.247,5.934v8.429c0,2.293,0.415,4.271,1.247,5.934
			c0.83,1.663,1.963,2.91,3.396,3.741C2103.534,192.143,2105.112,192.559,2106.832,192.559z"/>
		<path d="M2153.187,200.298c-2.466,0-4.674-0.344-6.622-1.031c-1.95-0.688-3.47-1.85-4.559-3.483
			c-1.09-1.634-1.634-3.798-1.634-6.493v-25.025h-4.815v-8.772h5.159l4.128-14.018h7.225v14.018h10.32v8.772h-10.32v22.445
			c0,2.523,0.516,4.128,1.548,4.816c1.032,0.688,2.15,1.032,3.354,1.032c0.631,0,1.506-0.129,2.623-0.388
			c1.118-0.258,2.021-0.529,2.709-0.816v7.224c-0.745,0.402-1.663,0.731-2.752,0.989c-1.09,0.258-2.192,0.443-3.311,0.559
			C2155.121,200.24,2154.103,200.298,2153.187,200.298z"/>
		<path d="M2190.767,200.298c-4.014,0-7.611-0.902-10.793-2.709c-3.183-1.806-5.676-4.371-7.482-7.696
			c-1.806-3.325-2.709-7.225-2.709-11.696v-1.548c0-4.528,0.903-8.428,2.709-11.696c1.807-3.268,4.285-5.805,7.439-7.611
			c3.152-1.806,6.736-2.709,10.75-2.709h1.72c4.07,0,7.683,0.903,10.836,2.709c3.152,1.807,5.633,4.344,7.439,7.611
			c1.806,3.269,2.709,7.168,2.709,11.696v1.548c0,4.529-0.903,8.442-2.709,11.739c-1.807,3.297-4.287,5.848-7.439,7.653
			c-3.153,1.807-6.737,2.709-10.75,2.709H2190.767z M2191.54,192.559c1.776,0,3.368-0.416,4.773-1.247
			c1.404-0.831,2.522-2.078,3.354-3.741c0.831-1.662,1.247-3.641,1.247-5.934v-8.429c0-2.35-0.416-4.328-1.247-5.934
			c-0.831-1.604-1.949-2.838-3.354-3.698c-1.405-0.86-2.997-1.29-4.773-1.29c-1.72,0-3.297,0.43-4.729,1.29
			c-1.434,0.86-2.566,2.094-3.397,3.698c-0.831,1.605-1.247,3.584-1.247,5.934v8.429c0,2.293,0.416,4.271,1.247,5.934
			c0.831,1.663,1.964,2.91,3.397,3.741C2188.243,192.143,2189.82,192.559,2191.54,192.559z"/>
		<path d="M2240.99,200.298c-3.728,0-7.095-0.916-10.105-2.752c-3.01-1.834-5.375-4.371-7.095-7.61
			c-1.72-3.238-2.58-6.951-2.58-11.138v-2.666c0-3.152,0.529-6.033,1.591-8.643c1.061-2.608,2.508-4.888,4.344-6.837
			c1.834-1.948,3.983-3.44,6.449-4.472c2.465-1.032,5.103-1.549,7.912-1.549h1.635c3.84,0,7.181,0.761,10.019,2.279
			c2.838,1.52,5.017,3.642,6.536,6.364c1.519,2.724,2.279,5.92,2.279,9.589h-10.234c0-2.351-0.358-4.3-1.075-5.848
			c-0.718-1.549-1.734-2.723-3.053-3.526c-1.319-0.802-2.896-1.204-4.73-1.204c-2.638,0-4.846,0.903-6.622,2.709
			c-1.777,1.806-2.666,4.459-2.666,7.955v8.858c0,3.439,0.846,6.092,2.537,7.955c1.69,1.863,3.97,2.795,6.837,2.795
			c2.007,0,3.698-0.345,5.074-1.032c1.376-0.688,2.422-1.806,3.139-3.354c0.717-1.548,1.075-3.611,1.075-6.191h9.719
			c0,3.899-0.832,7.21-2.494,9.933c-1.664,2.724-3.956,4.803-6.88,6.235c-2.925,1.433-6.25,2.149-9.977,2.149H2240.99z"/>
		<path d="M2290.354,200.298c-4.014,0-7.61-0.902-10.793-2.709c-3.182-1.806-5.676-4.371-7.481-7.696
			c-1.807-3.325-2.709-7.225-2.709-11.696v-1.548c0-4.528,0.902-8.428,2.709-11.696c1.806-3.268,4.285-5.805,7.438-7.611
			c3.152-1.806,6.736-2.709,10.75-2.709h1.721c4.069,0,7.682,0.903,10.836,2.709c3.152,1.807,5.633,4.344,7.438,7.611
			c1.806,3.269,2.709,7.168,2.709,11.696v1.548c0,4.529-0.903,8.442-2.709,11.739s-4.286,5.848-7.438,7.653
			c-3.154,1.807-6.738,2.709-10.75,2.709H2290.354z M2291.128,192.559c1.776,0,3.367-0.416,4.772-1.247
			c1.404-0.831,2.522-2.078,3.354-3.741c0.83-1.662,1.247-3.641,1.247-5.934v-8.429c0-2.35-0.417-4.328-1.247-5.934
			c-0.832-1.604-1.95-2.838-3.354-3.698c-1.405-0.86-2.996-1.29-4.772-1.29c-1.72,0-3.298,0.43-4.73,1.29
			c-1.434,0.86-2.566,2.094-3.396,3.698c-0.832,1.605-1.247,3.584-1.247,5.934v8.429c0,2.293,0.415,4.271,1.247,5.934
			c0.83,1.663,1.963,2.91,3.396,3.741C2287.83,192.143,2289.408,192.559,2291.128,192.559z"/>
		<path d="M2322.689,199.438v-61.92h11.781v61.92H2322.689z"/>
		<path d="M2362.162,200.298c-2.752,0-5.246-0.344-7.482-1.031c-2.235-0.688-4.171-1.619-5.805-2.795
			c-1.634-1.175-2.881-2.551-3.741-4.129c-0.859-1.576-1.29-3.281-1.29-5.116c0-0.345,0-0.631,0-0.86
			c0-0.229,0.028-0.544,0.086-0.946h9.977c-0.058,0.172-0.086,0.331-0.086,0.474c0,0.144,0,0.272,0,0.387
			c0,1.434,0.486,2.623,1.462,3.569c0.974,0.945,2.235,1.634,3.784,2.063c1.548,0.43,3.21,0.646,4.987,0.646
			c1.433,0,2.881-0.172,4.343-0.517c1.463-0.344,2.68-0.902,3.655-1.677c0.975-0.774,1.462-1.763,1.462-2.967
			c0-1.318-0.502-2.336-1.505-3.053c-1.004-0.717-2.352-1.29-4.042-1.721c-1.691-0.43-3.541-0.802-5.547-1.118
			c-2.008-0.314-4.028-0.716-6.063-1.203s-3.899-1.189-5.59-2.107c-1.691-0.916-3.039-2.163-4.042-3.741
			c-1.004-1.576-1.505-3.655-1.505-6.234c0-2.179,0.501-4.129,1.505-5.849c1.003-1.72,2.379-3.152,4.128-4.3
			c1.749-1.146,3.755-2.006,6.021-2.58c2.264-0.572,4.629-0.86,7.095-0.86h1.72c2.293,0,4.486,0.288,6.579,0.86
			c2.093,0.574,3.97,1.391,5.634,2.451c1.662,1.062,2.967,2.322,3.912,3.784c0.946,1.462,1.419,3.053,1.419,4.772
			c0,0.288-0.014,0.617-0.043,0.989c-0.029,0.374-0.072,0.617-0.129,0.731h-9.976v-0.688c0-0.63-0.158-1.247-0.473-1.849
			c-0.316-0.603-0.832-1.161-1.549-1.678c-0.717-0.516-1.634-0.931-2.752-1.247c-1.117-0.314-2.45-0.473-3.999-0.473
			c-1.376,0-2.609,0.129-3.697,0.387c-1.09,0.259-2.008,0.603-2.752,1.032c-0.746,0.43-1.29,0.933-1.635,1.505
			c-0.344,0.574-0.516,1.147-0.516,1.721c0,1.203,0.516,2.136,1.548,2.795s2.394,1.176,4.085,1.548
			c1.69,0.373,3.555,0.718,5.59,1.032c2.035,0.315,4.056,0.702,6.063,1.16c2.006,0.46,3.87,1.161,5.59,2.107
			s3.081,2.223,4.085,3.827c1.002,1.605,1.504,3.698,1.504,6.278c0,2.695-0.516,4.987-1.547,6.88
			c-1.032,1.892-2.466,3.396-4.3,4.515c-1.836,1.118-3.899,1.935-6.192,2.451c-2.294,0.516-4.701,0.773-7.224,0.773H2362.162z"/>
	</g>
	<path style="fill:#FF5553;" d="M2244.016,401.932h-490.05c-8.837,0-16-7.163-16-16v-113.38c0-8.837,7.163-16,16-16h490.05
		c8.837,0,16,7.163,16,16v113.38C2260.016,394.768,2252.852,401.932,2244.016,401.932z"/>
	<path style="fill:#FF5553;" d="M2244.016,578.82h-490.05c-8.837,0-16-7.163-16-16V449.44c0-8.837,7.163-16,16-16h490.05
		c8.837,0,16,7.163,16,16v113.38C2260.016,571.657,2252.852,578.82,2244.016,578.82z"/>
	<path style="fill:#FF5553;" d="M2244.016,755.709h-490.05c-8.837,0-16-7.163-16-16v-113.38c0-8.837,7.163-16,16-16h490.05
		c8.837,0,16,7.163,16,16v113.38C2260.016,748.545,2252.852,755.709,2244.016,755.709z"/>
	<path style="fill:#FF5553;" d="M2244.016,932.597h-490.05c-8.837,0-16-7.163-16-16v-113.38c0-8.837,7.163-16,16-16h490.05
		c8.837,0,16,7.163,16,16v113.38C2260.016,925.434,2252.852,932.597,2244.016,932.597z"/>
	<path style="fill:#3B7982;" d="M2244.016,1151.932h-490.05c-8.837,0-16-7.163-16-16v-113.38c0-8.837,7.163-16,16-16h490.05
		c8.837,0,16,7.163,16,16v113.38C2260.016,1144.768,2252.852,1151.932,2244.016,1151.932z"/>
	<path style="fill:#3B7982;" d="M2244.016,1328.82h-490.05c-8.837,0-16-7.163-16-16v-113.38c0-8.837,7.163-16,16-16h490.05
		c8.837,0,16,7.163,16,16v113.38C2260.016,1321.657,2252.852,1328.82,2244.016,1328.82z"/>
	<path style="fill:#3B7982;" d="M2244.016,1505.709h-490.05c-8.837,0-16-7.163-16-16v-113.38c0-8.837,7.163-16,16-16h490.05
		c8.837,0,16,7.163,16,16v113.38C2260.016,1498.545,2252.852,1505.709,2244.016,1505.709z"/>
	<path style="fill:#3B7982;" d="M2244.016,1682.597h-490.05c-8.837,0-16-7.163-16-16v-113.38c0-8.837,7.163-16,16-16h490.05
		c8.837,0,16,7.163,16,16v113.38C2260.016,1675.434,2252.852,1682.597,2244.016,1682.597z"/>
	
		<line style="fill:none;stroke:#999999;stroke-width:4.4;stroke-linejoin:round;stroke-miterlimit:10;stroke-dasharray:13.2,6.6;" x1="1188.985" y1="932.528" x2="1188.985" y2="857.862"/>
	
		<line style="fill:none;stroke:#999999;stroke-width:4.4;stroke-linejoin:round;stroke-miterlimit:10;stroke-dasharray:13.2,6.6;" x1="1188.985" y1="1065.816" x2="1188.985" y2="991.15"/>
	<g>
		<path d="M2623.323,979.881v-32.928h5.855l11.76,17.472l1.729,3.024l0.191-0.048v-20.448h6.337v32.928h-6l-12.097-18.096
			l-1.2-2.208l-0.239,0.048v20.256H2623.323z"/>
		<path d="M2664.219,980.361c-1.376,0-2.608-0.192-3.696-0.576c-1.088-0.384-1.937-1.032-2.544-1.944
			c-0.608-0.912-0.912-2.12-0.912-3.624v-13.968h-2.688v-4.896h2.88l2.304-7.824h4.032v7.824h5.76v4.896h-5.76v12.528
			c0,1.409,0.288,2.304,0.864,2.688c0.575,0.384,1.199,0.576,1.872,0.576c0.352,0,0.84-0.072,1.464-0.216s1.128-0.295,1.512-0.456
			v4.032c-0.416,0.224-0.929,0.408-1.536,0.552c-0.608,0.144-1.224,0.248-1.848,0.312
			C2665.299,980.329,2664.73,980.361,2664.219,980.361z"/>
		<path d="M2675.018,979.881v-32.928h5.856l11.76,17.472l1.728,3.024l0.192-0.048v-20.448h6.336v32.928h-6l-12.096-18.096
			l-1.2-2.208l-0.24,0.048v20.256H2675.018z"/>
		<path d="M2717.449,979.881v-5.232h3.84v-22.464h-3.84v-5.232h14.688v5.232h-3.84v22.464h3.84v5.232H2717.449z"/>
		<path d="M2738.425,979.881v-32.928h15.84c1.759,0,3.367,0.417,4.824,1.248c1.455,0.833,2.615,1.96,3.479,3.384
			c0.864,1.424,1.296,3.017,1.296,4.776v0.672c0,1.76-0.448,3.393-1.344,4.896c-0.896,1.505-2.081,2.705-3.552,3.6
			c-1.473,0.896-3.104,1.344-4.896,1.344h-8.64v13.008H2738.425z M2745.433,961.593h7.008c0.864,0,1.624-0.199,2.28-0.6
			c0.655-0.399,1.176-0.952,1.56-1.656c0.384-0.704,0.576-1.504,0.576-2.4c0-1.28-0.416-2.376-1.248-3.288s-1.937-1.368-3.312-1.368
			h-6.864V961.593z"/>
		<path d="M2781.624,980.361c-1.952,0-3.769-0.288-5.448-0.864c-1.68-0.576-3.16-1.472-4.44-2.688c-1.28-1.216-2.279-2.784-3-4.704
			c-0.72-1.92-1.079-4.24-1.079-6.96v-3.504c0-2.623,0.367-4.896,1.104-6.816c0.735-1.92,1.744-3.496,3.024-4.728
			c1.279-1.231,2.751-2.144,4.416-2.736c1.663-0.592,3.439-0.888,5.327-0.888h0.864c1.792,0,3.48,0.249,5.064,0.744
			c1.584,0.497,2.976,1.28,4.176,2.352c1.2,1.073,2.144,2.456,2.832,4.152c0.688,1.697,1.032,3.744,1.032,6.144h-6.576
			c0-2.112-0.297-3.751-0.888-4.92c-0.593-1.167-1.409-1.984-2.448-2.448c-1.04-0.464-2.265-0.696-3.672-0.696
			c-0.992,0-1.913,0.152-2.761,0.456c-0.848,0.305-1.576,0.785-2.184,1.44c-0.608,0.656-1.08,1.521-1.416,2.592
			c-0.336,1.072-0.504,2.376-0.504,3.912v6.432c0,2.048,0.288,3.688,0.864,4.92c0.575,1.232,1.375,2.121,2.399,2.664
			c1.024,0.544,2.224,0.816,3.601,0.816c1.503,0,2.8-0.231,3.888-0.696c1.088-0.463,1.92-1.28,2.496-2.448
			c0.576-1.167,0.864-2.792,0.864-4.872h6.336c0,2.272-0.345,4.248-1.032,5.928c-0.688,1.68-1.625,3.064-2.808,4.152
			c-1.185,1.088-2.561,1.904-4.129,2.448c-1.567,0.543-3.248,0.816-5.04,0.816H2781.624z"/>
		<path d="M2821.799,980.361c-2.24,0-4.248-0.504-6.024-1.512c-1.775-1.008-3.168-2.439-4.176-4.296
			c-1.008-1.855-1.512-4.032-1.512-6.528v-0.864c0-2.527,0.504-4.704,1.512-6.528c1.008-1.824,2.392-3.24,4.152-4.248
			c1.759-1.008,3.76-1.512,6-1.512h0.96c2.271,0,4.287,0.504,6.048,1.512c1.76,1.008,3.144,2.424,4.152,4.248
			c1.008,1.824,1.512,4,1.512,6.528v0.864c0,2.528-0.504,4.712-1.512,6.552c-1.009,1.841-2.393,3.264-4.152,4.272
			c-1.761,1.008-3.761,1.512-6,1.512H2821.799z M2822.23,976.041c0.991,0,1.88-0.232,2.664-0.696
			c0.784-0.463,1.408-1.159,1.872-2.088c0.464-0.928,0.696-2.032,0.696-3.312v-4.704c0-1.312-0.232-2.416-0.696-3.312
			c-0.464-0.896-1.088-1.584-1.872-2.064s-1.673-0.72-2.664-0.72c-0.96,0-1.84,0.24-2.64,0.72c-0.801,0.48-1.433,1.168-1.896,2.064
			c-0.464,0.896-0.695,2-0.695,3.312v4.704c0,1.28,0.231,2.384,0.695,3.312c0.464,0.929,1.096,1.625,1.896,2.088
			C2820.391,975.809,2821.271,976.041,2822.23,976.041z"/>
		<path d="M2845.847,979.881l-8.736-24.528h7.008l5.568,16.944h0.288l5.615-16.944h6.385l-8.832,24.528H2845.847z"/>
		<path d="M2876.374,980.361c-2.304,0-4.344-0.473-6.12-1.416c-1.775-0.943-3.16-2.32-4.151-4.128
			c-0.992-1.808-1.488-4.008-1.488-6.6v-1.2c0-2.592,0.52-4.792,1.561-6.6c1.039-1.808,2.463-3.184,4.271-4.128
			c1.808-0.944,3.864-1.416,6.168-1.416h0.769c2.175,0,4.071,0.44,5.688,1.32c1.615,0.88,2.863,2.112,3.744,3.696
			c0.88,1.584,1.32,3.432,1.32,5.544v3.024h-16.608c0,1.536,0.192,2.88,0.576,4.032s0.96,2.033,1.728,2.64
			c0.769,0.608,1.776,0.912,3.024,0.912c1.023,0,1.92-0.2,2.688-0.6c0.769-0.4,1.376-1,1.824-1.8
			c0.448-0.799,0.672-1.776,0.672-2.928h6.097c0,1.889-0.48,3.56-1.44,5.016c-0.96,1.457-2.28,2.592-3.96,3.408
			s-3.624,1.224-5.832,1.224H2876.374z M2871.574,965.097h10.128c0-2.016-0.44-3.511-1.319-4.488
			c-0.881-0.976-2.089-1.464-3.624-1.464c-1.44,0-2.648,0.504-3.624,1.512C2872.158,961.665,2871.638,963.146,2871.574,965.097z"/>
		<path d="M2893.654,979.881v-24.528h4.896l0.816,3.6c0.063-0.127,0.231-0.399,0.504-0.816c0.271-0.416,0.68-0.879,1.224-1.392
			c0.544-0.511,1.225-0.952,2.04-1.32c0.816-0.368,1.8-0.552,2.952-0.552c1.663,0,3.016,0.32,4.056,0.96s1.816,1.536,2.328,2.688
			c0.512,1.152,0.769,2.496,0.769,4.032c0,0.353-0.017,0.737-0.049,1.152c-0.032,0.416-0.064,0.784-0.096,1.104h-5.472v-1.008
			c0-0.607-0.12-1.224-0.36-1.848c-0.24-0.624-0.624-1.144-1.151-1.56c-0.528-0.416-1.257-0.624-2.185-0.624
			c-0.672,0-1.248,0.144-1.728,0.432c-0.48,0.288-0.873,0.648-1.177,1.08s-0.527,0.912-0.672,1.44
			c-0.144,0.528-0.216,1.017-0.216,1.464v15.696H2893.654z"/>
		<path d="M2935.029,979.881v-27.504h-9.456v-5.424h25.872v5.424h-9.456v27.504H2935.029z"/>
		<path d="M2968.725,980.361c-1.952,0-3.768-0.288-5.448-0.864c-1.68-0.576-3.16-1.472-4.439-2.688c-1.28-1.216-2.28-2.784-3-4.704
			s-1.08-4.24-1.08-6.96v-3.504c0-2.623,0.367-4.896,1.104-6.816s1.744-3.496,3.024-4.728c1.279-1.231,2.752-2.144,4.416-2.736
			c1.663-0.592,3.439-0.888,5.328-0.888h0.864c1.791,0,3.479,0.249,5.063,0.744c1.584,0.497,2.977,1.28,4.176,2.352
			c1.2,1.073,2.144,2.456,2.832,4.152c0.688,1.697,1.032,3.744,1.032,6.144h-6.576c0-2.112-0.296-3.751-0.888-4.92
			c-0.593-1.167-1.408-1.984-2.448-2.448s-2.264-0.696-3.672-0.696c-0.992,0-1.912,0.152-2.76,0.456
			c-0.849,0.305-1.576,0.785-2.185,1.44c-0.607,0.656-1.079,1.521-1.415,2.592c-0.337,1.072-0.505,2.376-0.505,3.912v6.432
			c0,2.048,0.288,3.688,0.864,4.92c0.576,1.232,1.376,2.121,2.4,2.664c1.023,0.544,2.224,0.816,3.6,0.816
			c1.504,0,2.8-0.231,3.888-0.696c1.088-0.463,1.921-1.28,2.496-2.448c0.576-1.167,0.864-2.792,0.864-4.872h6.336
			c0,2.272-0.344,4.248-1.032,5.928s-1.624,3.064-2.808,4.152c-1.185,1.088-2.561,1.904-4.128,2.448
			c-1.568,0.543-3.248,0.816-5.04,0.816H2968.725z"/>
		<path d="M2988.452,979.881v-32.928h15.84c1.76,0,3.368,0.417,4.824,1.248c1.456,0.833,2.616,1.96,3.48,3.384
			c0.863,1.424,1.296,3.017,1.296,4.776v0.672c0,1.76-0.449,3.393-1.345,4.896c-0.896,1.505-2.08,2.705-3.552,3.6
			c-1.472,0.896-3.104,1.344-4.896,1.344h-8.641v13.008H2988.452z M2995.46,961.593h7.008c0.864,0,1.624-0.199,2.28-0.6
			c0.655-0.399,1.176-0.952,1.561-1.656c0.384-0.704,0.575-1.504,0.575-2.4c0-1.28-0.416-2.376-1.247-3.288
			c-0.833-0.912-1.937-1.368-3.312-1.368h-6.864V961.593z"/>
	</g>
	
		<line style="fill:none;stroke:#999999;stroke-width:4.4;stroke-linejoin:round;stroke-miterlimit:10;stroke-dasharray:13.2,6.6;" x1="2806.76" y1="932.528" x2="2806.76" y2="857.862"/>
	
		<line style="fill:none;stroke:#999999;stroke-width:4.4;stroke-linejoin:round;stroke-miterlimit:10;stroke-dasharray:13.2,6.6;" x1="2806.76" y1="1065.816" x2="2806.76" y2="991.15"/>
	<g>
		<g>
			
				<line style="fill:none;stroke:#000000;stroke-width:3.3;stroke-miterlimit:10;" x1="953.271" y1="1067.639" x2="1737.166" y2="1067.639"/>
			<g>
				<polygon points="955.678,1075.867 941.43,1067.639 955.678,1059.412 				"/>
			</g>
		</g>
	</g>
	<g>
		<g>
			<polyline style="fill:none;stroke:#000000;stroke-width:3.3;stroke-miterlimit:10;" points="953.271,1087.972 1676,1087.972 
				1676,1243.63 1736.865,1244.477 			"/>
			<g>
				<polygon points="955.678,1096.199 941.43,1087.972 955.678,1079.744 				"/>
			</g>
		</g>
	</g>
	<g>
		<g>
			<polyline style="fill:none;stroke:#000000;stroke-width:3.3;stroke-miterlimit:10;" points="953.271,1107.843 1658.431,1107.843 
				1658.431,1418.368 1736.865,1419.216 			"/>
			<g>
				<polygon points="955.678,1116.07 941.43,1107.843 955.678,1099.615 				"/>
			</g>
		</g>
	</g>
	<g>
		<g>
			<polyline style="fill:none;stroke:#000000;stroke-width:3.3;stroke-miterlimit:10;" points="953.271,1127.714 1643.464,1127.714 
				1643.464,1593.211 1736.865,1594.058 			"/>
			<g>
				<polygon points="955.678,1135.942 941.43,1127.714 955.678,1119.487 				"/>
			</g>
		</g>
	</g>
	
		<line style="fill:none;stroke:#000000;stroke-width:3.3;stroke-miterlimit:10;" x1="3056.504" y1="1067.639" x2="2260.768" y2="1067.639"/>
	<polyline style="fill:none;stroke:#000000;stroke-width:3.3;stroke-miterlimit:10;" points="3056.504,1087.972 2321.934,1087.972 
		2321.934,1243.63 2261.069,1244.477 	"/>
	<polyline style="fill:none;stroke:#000000;stroke-width:3.3;stroke-miterlimit:10;" points="3056.504,1107.843 2339.503,1107.843 
		2339.503,1418.368 2261.069,1419.216 	"/>
	<polyline style="fill:none;stroke:#000000;stroke-width:3.3;stroke-miterlimit:10;" points="3056.504,1127.714 2354.469,1127.714 
		2354.469,1593.211 2261.069,1594.058 	"/>
	
		<line style="fill:none;stroke:#000000;stroke-width:3.3;stroke-miterlimit:10;" x1="941.43" y1="850.725" x2="1737.166" y2="850.725"/>
	<polyline style="fill:none;stroke:#000000;stroke-width:3.3;stroke-miterlimit:10;" points="941.43,830.393 1676,830.392 
		1676,674.734 1736.865,673.887 	"/>
	<polyline style="fill:none;stroke:#000000;stroke-width:3.3;stroke-miterlimit:10;" points="941.43,810.521 1658.431,810.521 
		1658.431,499.996 1736.865,499.149 	"/>
	<polyline style="fill:none;stroke:#000000;stroke-width:3.3;stroke-miterlimit:10;" points="941.43,790.65 1643.464,790.65 
		1643.464,325.153 1736.865,324.306 	"/>
	<g>
		<g>
			
				<line style="fill:none;stroke:#000000;stroke-width:3.3;stroke-miterlimit:10;" x1="3044.663" y1="850.725" x2="2260.768" y2="850.725"/>
			<g>
				<polygon points="3042.256,842.498 3056.504,850.725 3042.256,858.952 				"/>
			</g>
		</g>
	</g>
	<g>
		<g>
			<polyline style="fill:none;stroke:#000000;stroke-width:3.3;stroke-miterlimit:10;" points="3044.663,830.393 2321.934,830.392 
				2321.934,674.734 2261.069,673.887 			"/>
			<g>
				<polygon points="3042.256,822.165 3056.504,830.393 3042.256,838.62 				"/>
			</g>
		</g>
	</g>
	<g>
		<g>
			<polyline style="fill:none;stroke:#000000;stroke-width:3.3;stroke-miterlimit:10;" points="3044.663,810.521 2339.503,810.521 
				2339.503,499.996 2261.069,499.149 			"/>
			<g>
				<polygon points="3042.256,802.294 3056.504,810.521 3042.256,818.749 				"/>
			</g>
		</g>
	</g>
	<g>
		<g>
			<polyline style="fill:none;stroke:#000000;stroke-width:3.3;stroke-miterlimit:10;" points="3044.663,790.65 2354.469,790.65 
				2354.469,325.153 2261.069,324.306 			"/>
			<g>
				<polygon points="3042.256,782.423 3056.504,790.65 3042.256,798.878 				"/>
			</g>
		</g>
	</g>
	<g>
		<path style="fill:#FFFFFF;" d="M1886.098,344.8c-2.081,0-3.96-0.512-5.64-1.536c-1.68-1.023-3-2.439-3.96-4.248
			c-0.96-1.807-1.44-3.879-1.44-6.216v-1.488c0-1.76,0.295-3.368,0.888-4.824c0.592-1.456,1.399-2.728,2.424-3.816
			c1.024-1.087,2.224-1.92,3.6-2.496c1.375-0.576,2.848-0.864,4.416-0.864h0.912c2.143,0,4.008,0.424,5.592,1.272
			c1.584,0.848,2.8,2.032,3.648,3.552c0.848,1.521,1.272,3.305,1.272,5.352h-5.712c0-1.312-0.2-2.4-0.6-3.264
			c-0.4-0.864-0.968-1.52-1.704-1.968c-0.736-0.448-1.616-0.672-2.64-0.672c-1.473,0-2.705,0.504-3.696,1.512
			c-0.992,1.008-1.488,2.489-1.488,4.44v4.944c0,1.92,0.472,3.4,1.416,4.44c0.943,1.04,2.215,1.56,3.816,1.56
			c1.12,0,2.064-0.192,2.832-0.576s1.352-1.008,1.752-1.872c0.4-0.864,0.6-2.016,0.6-3.456h5.424c0,2.177-0.464,4.024-1.392,5.544
			c-0.928,1.521-2.208,2.681-3.84,3.48c-1.632,0.8-3.488,1.2-5.568,1.2H1886.098z"/>
		<path style="fill:#FFFFFF;" d="M1902.994,344.32v-34.56h6.576v13.152c0.896-1.183,1.96-2.08,3.192-2.688
			c1.231-0.607,2.599-0.912,4.104-0.912c1.632,0,3.063,0.32,4.296,0.96c1.231,0.64,2.2,1.56,2.904,2.76
			c0.704,1.2,1.056,2.633,1.056,4.296v16.992h-6.576v-15.6c0-1.567-0.384-2.719-1.152-3.456c-0.768-0.736-1.808-1.104-3.12-1.104
			c-0.833,0-1.616,0.216-2.352,0.648c-0.736,0.432-1.312,1.017-1.728,1.752c-0.416,0.736-0.624,1.568-0.624,2.496v15.264H1902.994z"
			/>
		<path style="fill:#FFFFFF;" d="M1938.081,344.8c-1.312,0-2.568-0.216-3.768-0.648c-1.2-0.432-2.184-1.152-2.952-2.16
			c-0.768-1.008-1.152-2.376-1.152-4.104c0-1.759,0.391-3.184,1.176-4.272c0.784-1.087,1.888-1.927,3.312-2.52
			c1.423-0.592,3.136-1,5.136-1.224c1.999-0.223,4.248-0.336,6.744-0.336v-2.16c0-1.408-0.384-2.408-1.152-3
			c-0.768-0.592-1.889-0.888-3.36-0.888c-1.248,0-2.345,0.281-3.288,0.84c-0.944,0.561-1.416,1.416-1.416,2.568v0.384h-6.288
			c-0.032-0.096-0.048-0.232-0.048-0.408c0-0.175,0-0.328,0-0.456c0-1.408,0.448-2.647,1.344-3.72
			c0.896-1.072,2.144-1.903,3.744-2.496c1.6-0.592,3.456-0.888,5.568-0.888h1.008c3.456,0,6.031,0.68,7.728,2.04
			c1.695,1.36,2.544,3.192,2.544,5.496V338.8c0,0.608,0.151,1.04,0.456,1.296c0.304,0.257,0.631,0.384,0.984,0.384
			c0.288,0,0.607-0.056,0.96-0.168c0.352-0.112,0.688-0.248,1.008-0.408v3.84c-0.416,0.32-0.968,0.576-1.656,0.768
			c-0.688,0.192-1.512,0.288-2.472,0.288c-1.152,0-2.112-0.185-2.88-0.552c-0.768-0.368-1.353-0.872-1.752-1.512
			c-0.4-0.64-0.648-1.375-0.744-2.208c-0.896,1.28-2.081,2.312-3.552,3.096C1941.84,344.408,1940.097,344.8,1938.081,344.8z
			 M1941.153,340.48c0.896,0,1.752-0.208,2.568-0.624c0.816-0.416,1.496-1.032,2.04-1.848c0.544-0.816,0.816-1.832,0.816-3.048
			v-1.968c-2.048,0-3.784,0.128-5.208,0.384c-1.424,0.256-2.504,0.68-3.24,1.272c-0.737,0.592-1.104,1.448-1.104,2.568
			c0,1.184,0.36,2.024,1.08,2.52C1938.825,340.232,1939.84,340.48,1941.153,340.48z"/>
		<path style="fill:#FFFFFF;" d="M1960.976,314.848v-5.088h6.768v5.088H1960.976z M1961.072,344.32v-24.528h6.576v24.528H1961.072z"
			/>
		<path style="fill:#FFFFFF;" d="M1974.416,344.32v-24.528h4.848l0.768,3.6c0.96-1.375,2.12-2.4,3.48-3.072
			c1.36-0.672,2.904-1.008,4.632-1.008c1.663,0,3.127,0.32,4.392,0.96s2.24,1.552,2.928,2.736c0.688,1.184,1.032,2.624,1.032,4.32
			v16.992h-6.528v-15.6c0-1.567-0.384-2.719-1.152-3.456c-0.768-0.736-1.808-1.104-3.12-1.104c-0.833,0-1.616,0.216-2.352,0.648
			c-0.736,0.432-1.312,1.017-1.728,1.752c-0.416,0.736-0.624,1.568-0.624,2.496v15.264H1974.416z"/>
		<path style="fill:#FFFFFF;" d="M2002.543,334.096v-5.664h12.192v5.664H2002.543z"/>
		<path style="fill:#FFFFFF;" d="M2029.565,344.8c-1.535,0-2.928-0.192-4.176-0.576c-1.248-0.384-2.328-0.903-3.24-1.56
			c-0.911-0.656-1.607-1.424-2.088-2.304c-0.479-0.88-0.72-1.832-0.72-2.856c0-0.192,0-0.352,0-0.48
			c0-0.127,0.016-0.304,0.048-0.528h5.568c-0.032,0.096-0.048,0.185-0.048,0.264c0,0.08,0,0.152,0,0.216
			c0,0.8,0.271,1.464,0.815,1.992s1.248,0.912,2.112,1.152c0.864,0.24,1.792,0.36,2.784,0.36c0.799,0,1.607-0.096,2.424-0.288
			s1.495-0.504,2.04-0.936c0.544-0.432,0.815-0.984,0.815-1.656c0-0.735-0.28-1.303-0.84-1.704c-0.56-0.4-1.312-0.72-2.256-0.96
			c-0.944-0.24-1.977-0.448-3.096-0.624c-1.121-0.176-2.249-0.4-3.384-0.672c-1.137-0.271-2.177-0.664-3.12-1.176
			c-0.944-0.512-1.696-1.208-2.256-2.088c-0.561-0.88-0.841-2.04-0.841-3.48c0-1.216,0.28-2.304,0.841-3.264
			c0.56-0.96,1.327-1.759,2.304-2.4c0.976-0.64,2.096-1.12,3.36-1.44c1.264-0.32,2.583-0.48,3.96-0.48h0.96
			c1.279,0,2.503,0.16,3.672,0.48c1.168,0.32,2.215,0.776,3.144,1.368c0.928,0.593,1.656,1.296,2.185,2.112
			c0.527,0.816,0.792,1.704,0.792,2.664c0,0.16-0.009,0.344-0.024,0.552c-0.017,0.208-0.04,0.344-0.072,0.408h-5.567v-0.384
			c0-0.352-0.089-0.696-0.265-1.032s-0.464-0.648-0.863-0.936c-0.4-0.288-0.912-0.52-1.536-0.696
			c-0.624-0.175-1.368-0.264-2.232-0.264c-0.768,0-1.456,0.072-2.063,0.216c-0.608,0.144-1.121,0.336-1.536,0.576
			c-0.416,0.24-0.72,0.521-0.912,0.84c-0.192,0.32-0.288,0.641-0.288,0.96c0,0.672,0.288,1.192,0.864,1.56
			c0.576,0.368,1.336,0.656,2.279,0.864c0.944,0.208,1.984,0.401,3.12,0.576c1.136,0.176,2.264,0.392,3.385,0.648
			c1.119,0.257,2.159,0.648,3.119,1.176c0.96,0.528,1.72,1.24,2.28,2.136c0.56,0.896,0.84,2.064,0.84,3.504
			c0,1.505-0.288,2.784-0.863,3.84c-0.576,1.056-1.377,1.896-2.4,2.52c-1.024,0.624-2.177,1.08-3.456,1.368
			c-1.28,0.288-2.624,0.432-4.032,0.432H2029.565z"/>
		<path style="fill:#FFFFFF;" d="M2050.014,353.248c-0.8,0-1.536-0.057-2.208-0.168c-0.672-0.112-1.28-0.28-1.824-0.504v-4.752
			c0.353,0.16,0.832,0.295,1.44,0.408c0.607,0.112,1.2,0.168,1.776,0.168c0.863,0,1.567-0.168,2.111-0.504s1-0.849,1.368-1.536
			c0.367-0.688,0.728-1.528,1.08-2.52l-9.456-24.048h7.008l5.664,16.08h0.336l5.376-16.08h6.48l-8.88,23.28
			c-0.704,1.888-1.521,3.6-2.448,5.136c-0.929,1.536-2.024,2.76-3.288,3.672C2053.285,352.792,2051.773,353.248,2050.014,353.248z"
			/>
		<path style="fill:#FFFFFF;" d="M2072.862,344.32v-24.528h4.848l0.768,3.6c0.96-1.375,2.12-2.4,3.48-3.072
			c1.359-0.672,2.904-1.008,4.632-1.008c1.663,0,3.128,0.32,4.392,0.96c1.265,0.64,2.24,1.552,2.929,2.736
			c0.688,1.184,1.032,2.624,1.032,4.32v16.992h-6.528v-15.6c0-1.567-0.384-2.719-1.152-3.456c-0.768-0.736-1.808-1.104-3.12-1.104
			c-0.832,0-1.616,0.216-2.352,0.648c-0.736,0.432-1.312,1.017-1.729,1.752c-0.416,0.736-0.624,1.568-0.624,2.496v15.264H2072.862z"
			/>
		<path style="fill:#FFFFFF;" d="M2111.501,344.8c-2.08,0-3.96-0.512-5.64-1.536c-1.68-1.023-3-2.439-3.96-4.248
			c-0.96-1.807-1.44-3.879-1.44-6.216v-1.488c0-1.76,0.296-3.368,0.889-4.824c0.592-1.456,1.399-2.728,2.424-3.816
			c1.023-1.087,2.224-1.92,3.6-2.496s2.848-0.864,4.416-0.864h0.912c2.144,0,4.008,0.424,5.592,1.272
			c1.584,0.848,2.8,2.032,3.648,3.552c0.848,1.521,1.271,3.305,1.271,5.352h-5.712c0-1.312-0.2-2.4-0.6-3.264
			c-0.4-0.864-0.969-1.52-1.704-1.968c-0.736-0.448-1.616-0.672-2.64-0.672c-1.473,0-2.705,0.504-3.696,1.512
			c-0.992,1.008-1.488,2.489-1.488,4.44v4.944c0,1.92,0.472,3.4,1.416,4.44c0.943,1.04,2.216,1.56,3.816,1.56
			c1.119,0,2.063-0.192,2.832-0.576c0.768-0.384,1.352-1.008,1.752-1.872c0.399-0.864,0.6-2.016,0.6-3.456h5.424
			c0,2.177-0.464,4.024-1.392,5.544c-0.929,1.521-2.208,2.681-3.84,3.48c-1.632,0.8-3.488,1.2-5.568,1.2H2111.501z"/>
	</g>
	<g>
		<path style="fill:#FFFFFF;" d="M1883.913,522.024c-3.584,0-6.32-1.44-8.208-4.32l-2.256,3.84h-2.4v-34.56h6.576v12.912
			c0.672-0.928,1.6-1.72,2.784-2.376c1.184-0.656,2.592-0.984,4.224-0.984c1.759,0,3.36,0.408,4.8,1.224
			c1.44,0.816,2.592,2.088,3.456,3.816c0.864,1.728,1.296,3.952,1.296,6.672v1.056c0,2.913-0.464,5.312-1.392,7.2
			c-0.928,1.889-2.176,3.281-3.744,4.176C1887.481,521.576,1885.769,522.024,1883.913,522.024z M1882.521,517.705
			c0.928,0,1.744-0.224,2.448-0.672c0.704-0.448,1.264-1.144,1.68-2.088c0.416-0.943,0.624-2.152,0.624-3.624V507
			c0-1.344-0.2-2.456-0.6-3.336c-0.401-0.88-0.944-1.552-1.632-2.016c-0.688-0.463-1.496-0.696-2.424-0.696
			c-0.896,0-1.728,0.232-2.496,0.696c-0.768,0.464-1.376,1.145-1.824,2.04c-0.449,0.896-0.672,2.016-0.672,3.36v4.272
			c0,1.472,0.216,2.681,0.648,3.624c0.432,0.944,1.024,1.64,1.776,2.088C1880.801,517.481,1881.625,517.705,1882.521,517.705z"/>
		<path style="fill:#FFFFFF;" d="M1899.657,521.544v-34.56h6.576v34.56H1899.657z"/>
		<path style="fill:#FFFFFF;" d="M1923.56,522.024c-2.24,0-4.248-0.504-6.024-1.512c-1.776-1.008-3.168-2.439-4.176-4.296
			c-1.008-1.855-1.512-4.032-1.512-6.528v-0.864c0-2.527,0.504-4.704,1.512-6.528c1.008-1.824,2.392-3.24,4.152-4.248
			c1.759-1.008,3.76-1.512,6-1.512h0.96c2.271,0,4.288,0.504,6.048,1.512c1.76,1.008,3.144,2.424,4.152,4.248
			c1.008,1.824,1.512,4,1.512,6.528v0.864c0,2.528-0.504,4.712-1.512,6.552c-1.008,1.841-2.393,3.264-4.152,4.272
			c-1.76,1.008-3.76,1.512-6,1.512H1923.56z M1923.992,517.705c0.991,0,1.879-0.232,2.664-0.696
			c0.784-0.463,1.408-1.159,1.872-2.088c0.463-0.928,0.696-2.032,0.696-3.312v-4.704c0-1.312-0.232-2.416-0.696-3.312
			c-0.464-0.896-1.088-1.584-1.872-2.064c-0.785-0.48-1.673-0.72-2.664-0.72c-0.96,0-1.84,0.24-2.64,0.72
			c-0.8,0.48-1.433,1.168-1.896,2.064c-0.464,0.896-0.696,2-0.696,3.312v4.704c0,1.28,0.231,2.384,0.696,3.312
			c0.463,0.929,1.096,1.625,1.896,2.088C1922.152,517.473,1923.032,517.705,1923.992,517.705z"/>
		<path style="fill:#FFFFFF;" d="M1951.592,522.024c-2.081,0-3.96-0.512-5.64-1.536c-1.68-1.023-3-2.439-3.96-4.248
			c-0.96-1.807-1.44-3.879-1.44-6.216v-1.488c0-1.76,0.295-3.368,0.888-4.824c0.592-1.456,1.399-2.728,2.424-3.816
			c1.024-1.087,2.224-1.92,3.6-2.496c1.375-0.576,2.848-0.864,4.416-0.864h0.912c2.143,0,4.008,0.424,5.592,1.272
			c1.584,0.848,2.8,2.032,3.648,3.552c0.848,1.521,1.272,3.305,1.272,5.352h-5.712c0-1.312-0.2-2.4-0.6-3.264
			c-0.4-0.864-0.968-1.52-1.704-1.968c-0.736-0.448-1.616-0.672-2.64-0.672c-1.473,0-2.705,0.504-3.696,1.512
			c-0.992,1.008-1.488,2.489-1.488,4.44v4.944c0,1.92,0.472,3.4,1.416,4.44c0.943,1.04,2.215,1.56,3.816,1.56
			c1.12,0,2.064-0.192,2.832-0.576s1.352-1.008,1.752-1.872c0.4-0.864,0.6-2.016,0.6-3.456h5.424c0,2.177-0.464,4.024-1.392,5.544
			c-0.928,1.521-2.208,2.681-3.84,3.48c-1.632,0.8-3.488,1.2-5.568,1.2H1951.592z"/>
		<path style="fill:#FFFFFF;" d="M1968.488,521.544v-34.56h6.576v21.84l9.408-11.808h7.632l-9.408,11.232l9.792,13.296h-7.824
			l-6.528-8.832l-3.072,3.12v5.712H1968.488z"/>
		<path style="fill:#FFFFFF;" d="M1994.936,511.32v-5.664h12.192v5.664H1994.936z"/>
		<path style="fill:#FFFFFF;" d="M2014.472,521.544v-19.632h-2.88v-4.896h2.88v-3.984c0-2.271,0.672-3.912,2.016-4.92
			c1.344-1.008,3.056-1.512,5.136-1.512c0.512,0,1.08,0.041,1.704,0.12c0.624,0.081,1.248,0.185,1.872,0.312
			c0.624,0.128,1.144,0.305,1.561,0.528v3.984c-0.385-0.16-0.889-0.304-1.513-0.432c-0.624-0.127-1.112-0.192-1.464-0.192
			c-0.416,0-0.84,0.064-1.271,0.192c-0.433,0.128-0.792,0.393-1.08,0.792c-0.288,0.401-0.433,1.064-0.433,1.992v3.12h5.761v4.896
			h-5.761v19.632H2014.472z"/>
		<path style="fill:#FFFFFF;" d="M2042.023,522.024c-2.304,0-4.344-0.473-6.12-1.416s-3.16-2.32-4.152-4.128
			c-0.992-1.808-1.487-4.008-1.487-6.6v-1.2c0-2.592,0.52-4.792,1.56-6.6c1.039-1.808,2.464-3.184,4.272-4.128
			c1.807-0.944,3.863-1.416,6.168-1.416h0.768c2.176,0,4.071,0.44,5.688,1.32c1.615,0.88,2.863,2.112,3.743,3.696
			s1.32,3.432,1.32,5.544v3.024h-16.608c0,1.536,0.192,2.88,0.576,4.032c0.385,1.152,0.96,2.033,1.729,2.64
			c0.768,0.608,1.775,0.912,3.023,0.912c1.024,0,1.92-0.2,2.688-0.6c0.768-0.4,1.375-1,1.824-1.8
			c0.447-0.799,0.672-1.776,0.672-2.928h6.096c0,1.889-0.479,3.56-1.439,5.016c-0.961,1.457-2.28,2.592-3.961,3.408
			c-1.68,0.816-3.624,1.224-5.831,1.224H2042.023z M2037.224,506.76h10.128c0-2.016-0.44-3.511-1.32-4.488
			c-0.881-0.976-2.088-1.464-3.624-1.464c-1.44,0-2.648,0.504-3.624,1.512C2037.807,503.329,2037.287,504.809,2037.224,506.76z"/>
		<path style="fill:#FFFFFF;" d="M2067.606,522.024c-1.376,0-2.608-0.192-3.696-0.576c-1.088-0.384-1.937-1.032-2.544-1.944
			c-0.608-0.912-0.912-2.12-0.912-3.624v-13.968h-2.688v-4.896h2.88l2.304-7.824h4.032v7.824h5.76v4.896h-5.76v12.528
			c0,1.409,0.288,2.304,0.864,2.688c0.575,0.384,1.199,0.576,1.872,0.576c0.352,0,0.84-0.072,1.464-0.216s1.128-0.295,1.512-0.456
			v4.032c-0.416,0.224-0.929,0.408-1.536,0.552c-0.608,0.144-1.224,0.248-1.848,0.312
			C2068.687,521.992,2068.118,522.024,2067.606,522.024z"/>
		<path style="fill:#FFFFFF;" d="M2087.91,522.024c-2.081,0-3.96-0.512-5.641-1.536c-1.68-1.023-3-2.439-3.96-4.248
			c-0.96-1.807-1.439-3.879-1.439-6.216v-1.488c0-1.76,0.295-3.368,0.888-4.824c0.592-1.456,1.399-2.728,2.424-3.816
			c1.024-1.087,2.224-1.92,3.601-2.496c1.375-0.576,2.848-0.864,4.416-0.864h0.912c2.143,0,4.008,0.424,5.592,1.272
			c1.584,0.848,2.8,2.032,3.647,3.552c0.848,1.521,1.272,3.305,1.272,5.352h-5.712c0-1.312-0.2-2.4-0.601-3.264
			c-0.4-0.864-0.968-1.52-1.704-1.968c-0.736-0.448-1.616-0.672-2.64-0.672c-1.473,0-2.704,0.504-3.696,1.512
			c-0.992,1.008-1.487,2.489-1.487,4.44v4.944c0,1.92,0.472,3.4,1.416,4.44c0.943,1.04,2.215,1.56,3.815,1.56
			c1.12,0,2.064-0.192,2.832-0.576c0.769-0.384,1.352-1.008,1.752-1.872c0.4-0.864,0.601-2.016,0.601-3.456h5.424
			c0,2.177-0.465,4.024-1.393,5.544c-0.928,1.521-2.208,2.681-3.84,3.48c-1.632,0.8-3.488,1.2-5.567,1.2H2087.91z"/>
		<path style="fill:#FFFFFF;" d="M2104.806,521.544v-34.56h6.576v13.152c0.896-1.183,1.96-2.08,3.192-2.688
			c1.231-0.607,2.599-0.912,4.104-0.912c1.632,0,3.063,0.32,4.296,0.96c1.231,0.64,2.2,1.56,2.904,2.76
			c0.703,1.2,1.056,2.633,1.056,4.296v16.992h-6.576v-15.6c0-1.567-0.384-2.719-1.151-3.456c-0.769-0.736-1.809-1.104-3.12-1.104
			c-0.833,0-1.616,0.216-2.353,0.648c-0.736,0.432-1.312,1.017-1.728,1.752c-0.416,0.736-0.624,1.568-0.624,2.496v15.264H2104.806z"
			/>
	</g>
	<g>
		<path style="fill:#FFFFFF;" d="M1847.338,699.802c-1.376,0-2.608-0.192-3.696-0.576c-1.088-0.384-1.937-1.032-2.544-1.944
			c-0.608-0.912-0.912-2.12-0.912-3.624V679.69h-2.688v-4.896h2.88l2.304-7.824h4.032v7.824h5.76v4.896h-5.76v12.528
			c0,1.409,0.288,2.304,0.864,2.688c0.576,0.384,1.2,0.576,1.872,0.576c0.352,0,0.84-0.072,1.464-0.216s1.128-0.295,1.512-0.456
			v4.032c-0.416,0.224-0.928,0.408-1.536,0.552c-0.608,0.144-1.224,0.248-1.848,0.312
			C1848.418,699.77,1847.85,699.802,1847.338,699.802z"/>
		<path style="fill:#FFFFFF;" d="M1855.017,699.322l8.544-12.816l-7.872-11.712h7.632l4.704,7.44h0.096l4.752-7.44h7.104
			l-7.968,11.856l8.496,12.672h-7.632l-5.28-8.4h-0.096l-5.376,8.4H1855.017z"/>
		<path style="fill:#FFFFFF;" d="M1883.289,689.098v-5.664h12.192v5.664H1883.289z"/>
		<path style="fill:#FFFFFF;" d="M1910.312,699.802c-1.536,0-2.928-0.192-4.176-0.576c-1.248-0.384-2.328-0.903-3.24-1.56
			c-0.912-0.656-1.608-1.424-2.088-2.304c-0.48-0.88-0.72-1.832-0.72-2.856c0-0.192,0-0.352,0-0.48c0-0.127,0.016-0.304,0.048-0.528
			h5.568c-0.032,0.096-0.048,0.185-0.048,0.264c0,0.08,0,0.152,0,0.216c0,0.8,0.271,1.464,0.816,1.992
			c0.544,0.528,1.248,0.912,2.112,1.152c0.864,0.24,1.792,0.36,2.784,0.36c0.799,0,1.608-0.096,2.424-0.288
			c0.816-0.192,1.496-0.504,2.04-0.936c0.544-0.432,0.816-0.984,0.816-1.656c0-0.735-0.28-1.303-0.84-1.704
			c-0.56-0.4-1.312-0.72-2.256-0.96c-0.944-0.24-1.977-0.448-3.096-0.624c-1.121-0.176-2.249-0.4-3.384-0.672
			c-1.136-0.271-2.177-0.664-3.12-1.176c-0.944-0.512-1.696-1.208-2.256-2.088c-0.561-0.88-0.84-2.04-0.84-3.48
			c0-1.216,0.28-2.304,0.84-3.264c0.56-0.96,1.327-1.759,2.304-2.4c0.976-0.64,2.096-1.12,3.36-1.44
			c1.264-0.32,2.583-0.48,3.96-0.48h0.96c1.279,0,2.503,0.16,3.672,0.48c1.168,0.32,2.215,0.776,3.144,1.368
			c0.928,0.593,1.656,1.296,2.184,2.112c0.528,0.816,0.792,1.704,0.792,2.664c0,0.16-0.008,0.344-0.024,0.552
			c-0.017,0.208-0.041,0.344-0.072,0.408h-5.568v-0.384c0-0.352-0.088-0.696-0.264-1.032c-0.176-0.336-0.464-0.648-0.864-0.936
			c-0.4-0.288-0.912-0.52-1.536-0.696c-0.624-0.175-1.368-0.264-2.232-0.264c-0.768,0-1.457,0.072-2.064,0.216
			c-0.608,0.144-1.121,0.336-1.536,0.576c-0.416,0.24-0.72,0.521-0.912,0.84c-0.192,0.32-0.288,0.641-0.288,0.96
			c0,0.672,0.288,1.192,0.864,1.56c0.576,0.368,1.336,0.656,2.28,0.864c0.944,0.208,1.984,0.401,3.12,0.576
			c1.136,0.176,2.264,0.392,3.384,0.648c1.12,0.257,2.16,0.648,3.12,1.176c0.96,0.528,1.72,1.24,2.28,2.136
			c0.56,0.896,0.84,2.064,0.84,3.504c0,1.505-0.288,2.784-0.864,3.84c-0.576,1.056-1.376,1.896-2.4,2.52
			c-1.024,0.624-2.176,1.08-3.456,1.368c-1.28,0.288-2.625,0.432-4.032,0.432H1910.312z"/>
		<path style="fill:#FFFFFF;" d="M1935.801,699.802c-2.528,0-4.521-0.696-5.976-2.088c-1.457-1.392-2.184-3.432-2.184-6.12v-16.8
			h6.576v15.36c0,1.664,0.343,2.88,1.032,3.648c0.688,0.768,1.704,1.152,3.048,1.152c0.896,0,1.711-0.223,2.448-0.672
			c0.736-0.448,1.336-1.04,1.8-1.776c0.463-0.736,0.696-1.552,0.696-2.448v-15.264h6.528v19.008c0,0.608,0.152,1.04,0.456,1.296
			c0.304,0.257,0.631,0.384,0.984,0.384c0.32,0,0.648-0.056,0.984-0.168c0.336-0.112,0.664-0.248,0.984-0.408v3.84
			c-0.417,0.32-0.968,0.576-1.656,0.768c-0.688,0.192-1.512,0.288-2.472,0.288c-1.121,0-2.057-0.176-2.808-0.528
			c-0.752-0.352-1.32-0.84-1.704-1.464c-0.384-0.624-0.672-1.288-0.864-1.992c-0.8,1.248-1.904,2.225-3.312,2.928
			C1938.952,699.449,1937.433,699.802,1935.801,699.802z"/>
		<path style="fill:#FFFFFF;" d="M1970.696,699.802c-3.584,0-6.32-1.44-8.208-4.32l-2.256,3.84h-2.4v-34.56h6.576v12.912
			c0.672-0.928,1.6-1.72,2.784-2.376c1.184-0.656,2.592-0.984,4.224-0.984c1.759,0,3.36,0.408,4.8,1.224
			c1.44,0.816,2.592,2.088,3.456,3.816c0.864,1.728,1.296,3.952,1.296,6.672v1.056c0,2.913-0.464,5.312-1.392,7.2
			c-0.928,1.889-2.176,3.281-3.744,4.176C1974.264,699.354,1972.551,699.802,1970.696,699.802z M1969.304,695.482
			c0.928,0,1.744-0.224,2.448-0.672c0.704-0.448,1.264-1.144,1.68-2.088c0.416-0.943,0.624-2.152,0.624-3.624v-4.32
			c0-1.344-0.2-2.456-0.6-3.336c-0.401-0.88-0.944-1.552-1.632-2.016c-0.688-0.463-1.496-0.696-2.424-0.696
			c-0.896,0-1.728,0.232-2.496,0.696c-0.768,0.464-1.376,1.145-1.824,2.04c-0.449,0.896-0.672,2.016-0.672,3.36v4.272
			c0,1.472,0.216,2.681,0.648,3.624c0.432,0.944,1.024,1.64,1.776,2.088C1967.583,695.258,1968.408,695.482,1969.304,695.482z"/>
		<path style="fill:#FFFFFF;" d="M1986.44,699.322v-24.528h4.896l0.864,3.6c0.832-1.279,1.816-2.28,2.952-3
			c1.135-0.72,2.52-1.08,4.152-1.08c1.6,0,3.008,0.304,4.224,0.912c1.216,0.608,2.176,1.616,2.88,3.024
			c0.769-1.28,1.76-2.256,2.977-2.928c1.216-0.672,2.655-1.008,4.319-1.008c1.568,0,2.952,0.32,4.152,0.96s2.136,1.552,2.808,2.736
			c0.673,1.184,1.009,2.624,1.009,4.32v16.992h-6.48v-15.504c0-1.6-0.336-2.768-1.008-3.504c-0.672-0.736-1.601-1.104-2.784-1.104
			c-0.768,0-1.464,0.2-2.088,0.6c-0.624,0.401-1.112,0.96-1.464,1.68c-0.353,0.72-0.528,1.544-0.528,2.472v15.36h-6.479v-15.504
			c0-1.6-0.336-2.768-1.008-3.504c-0.672-0.736-1.616-1.104-2.832-1.104c-0.768,0-1.457,0.2-2.064,0.6
			c-0.608,0.401-1.088,0.96-1.44,1.68c-0.353,0.72-0.528,1.544-0.528,2.472v15.36H1986.44z"/>
		<path style="fill:#FFFFFF;" d="M2028.391,669.85v-5.088h6.768v5.088H2028.391z M2028.486,699.322v-24.528h6.576v24.528H2028.486z"
			/>
		<path style="fill:#FFFFFF;" d="M2050.614,699.802c-1.535,0-2.928-0.192-4.176-0.576c-1.248-0.384-2.328-0.903-3.24-1.56
			c-0.911-0.656-1.607-1.424-2.088-2.304c-0.479-0.88-0.72-1.832-0.72-2.856c0-0.192,0-0.352,0-0.48
			c0-0.127,0.016-0.304,0.048-0.528h5.568c-0.032,0.096-0.048,0.185-0.048,0.264c0,0.08,0,0.152,0,0.216
			c0,0.8,0.271,1.464,0.815,1.992s1.248,0.912,2.112,1.152c0.864,0.24,1.792,0.36,2.784,0.36c0.799,0,1.607-0.096,2.424-0.288
			s1.495-0.504,2.04-0.936c0.544-0.432,0.815-0.984,0.815-1.656c0-0.735-0.28-1.303-0.84-1.704c-0.56-0.4-1.312-0.72-2.256-0.96
			c-0.944-0.24-1.977-0.448-3.096-0.624c-1.121-0.176-2.249-0.4-3.384-0.672c-1.137-0.271-2.177-0.664-3.12-1.176
			c-0.944-0.512-1.696-1.208-2.256-2.088c-0.561-0.88-0.841-2.04-0.841-3.48c0-1.216,0.28-2.304,0.841-3.264
			c0.56-0.96,1.327-1.759,2.304-2.4c0.976-0.64,2.096-1.12,3.36-1.44c1.264-0.32,2.583-0.48,3.96-0.48h0.96
			c1.279,0,2.503,0.16,3.672,0.48c1.168,0.32,2.215,0.776,3.144,1.368c0.928,0.593,1.656,1.296,2.185,2.112
			c0.527,0.816,0.792,1.704,0.792,2.664c0,0.16-0.009,0.344-0.024,0.552c-0.017,0.208-0.04,0.344-0.072,0.408h-5.567v-0.384
			c0-0.352-0.089-0.696-0.265-1.032s-0.464-0.648-0.863-0.936c-0.4-0.288-0.912-0.52-1.536-0.696
			c-0.624-0.175-1.368-0.264-2.232-0.264c-0.768,0-1.456,0.072-2.063,0.216c-0.608,0.144-1.121,0.336-1.536,0.576
			c-0.416,0.24-0.72,0.521-0.912,0.84c-0.192,0.32-0.288,0.641-0.288,0.96c0,0.672,0.288,1.192,0.864,1.56
			c0.576,0.368,1.336,0.656,2.279,0.864c0.944,0.208,1.984,0.401,3.12,0.576c1.136,0.176,2.264,0.392,3.385,0.648
			c1.119,0.257,2.159,0.648,3.119,1.176c0.96,0.528,1.72,1.24,2.28,2.136c0.56,0.896,0.84,2.064,0.84,3.504
			c0,1.505-0.288,2.784-0.863,3.84c-0.576,1.056-1.377,1.896-2.4,2.52c-1.024,0.624-2.177,1.08-3.456,1.368
			c-1.28,0.288-2.624,0.432-4.032,0.432H2050.614z"/>
		<path style="fill:#FFFFFF;" d="M2076.966,699.802c-1.535,0-2.928-0.192-4.176-0.576c-1.248-0.384-2.328-0.903-3.24-1.56
			c-0.911-0.656-1.607-1.424-2.088-2.304c-0.479-0.88-0.72-1.832-0.72-2.856c0-0.192,0-0.352,0-0.48
			c0-0.127,0.016-0.304,0.048-0.528h5.568c-0.032,0.096-0.048,0.185-0.048,0.264c0,0.08,0,0.152,0,0.216
			c0,0.8,0.271,1.464,0.815,1.992s1.248,0.912,2.112,1.152c0.864,0.24,1.792,0.36,2.784,0.36c0.799,0,1.607-0.096,2.424-0.288
			s1.495-0.504,2.04-0.936c0.544-0.432,0.815-0.984,0.815-1.656c0-0.735-0.28-1.303-0.84-1.704c-0.56-0.4-1.312-0.72-2.256-0.96
			c-0.944-0.24-1.977-0.448-3.096-0.624c-1.121-0.176-2.249-0.4-3.384-0.672c-1.137-0.271-2.177-0.664-3.12-1.176
			c-0.944-0.512-1.696-1.208-2.256-2.088c-0.561-0.88-0.841-2.04-0.841-3.48c0-1.216,0.28-2.304,0.841-3.264
			c0.56-0.96,1.327-1.759,2.304-2.4c0.976-0.64,2.096-1.12,3.36-1.44c1.264-0.32,2.583-0.48,3.96-0.48h0.96
			c1.279,0,2.503,0.16,3.672,0.48c1.168,0.32,2.215,0.776,3.144,1.368c0.928,0.593,1.656,1.296,2.185,2.112
			c0.527,0.816,0.792,1.704,0.792,2.664c0,0.16-0.009,0.344-0.024,0.552c-0.017,0.208-0.04,0.344-0.072,0.408h-5.567v-0.384
			c0-0.352-0.089-0.696-0.265-1.032s-0.464-0.648-0.863-0.936c-0.4-0.288-0.912-0.52-1.536-0.696
			c-0.624-0.175-1.368-0.264-2.232-0.264c-0.768,0-1.456,0.072-2.063,0.216c-0.608,0.144-1.121,0.336-1.536,0.576
			c-0.416,0.24-0.72,0.521-0.912,0.84c-0.192,0.32-0.288,0.641-0.288,0.96c0,0.672,0.288,1.192,0.864,1.56
			c0.576,0.368,1.336,0.656,2.279,0.864c0.944,0.208,1.984,0.401,3.12,0.576c1.136,0.176,2.264,0.392,3.385,0.648
			c1.119,0.257,2.159,0.648,3.119,1.176c0.96,0.528,1.72,1.24,2.28,2.136c0.56,0.896,0.84,2.064,0.84,3.504
			c0,1.505-0.288,2.784-0.863,3.84c-0.576,1.056-1.377,1.896-2.4,2.52c-1.024,0.624-2.177,1.08-3.456,1.368
			c-1.28,0.288-2.624,0.432-4.032,0.432H2076.966z"/>
		<path style="fill:#FFFFFF;" d="M2094.678,669.85v-5.088h6.768v5.088H2094.678z M2094.773,699.322v-24.528h6.576v24.528H2094.773z"
			/>
		<path style="fill:#FFFFFF;" d="M2118.773,699.802c-2.24,0-4.248-0.504-6.023-1.512c-1.776-1.008-3.168-2.439-4.176-4.296
			c-1.009-1.855-1.513-4.032-1.513-6.528v-0.864c0-2.527,0.504-4.704,1.513-6.528c1.008-1.824,2.392-3.24,4.151-4.248
			c1.76-1.008,3.76-1.512,6-1.512h0.96c2.271,0,4.288,0.504,6.048,1.512c1.76,1.008,3.145,2.424,4.152,4.248
			c1.008,1.824,1.512,4,1.512,6.528v0.864c0,2.528-0.504,4.712-1.512,6.552c-1.008,1.841-2.393,3.264-4.152,4.272
			c-1.76,1.008-3.76,1.512-6,1.512H2118.773z M2119.206,695.482c0.991,0,1.879-0.232,2.664-0.696
			c0.783-0.463,1.407-1.159,1.872-2.088c0.463-0.928,0.695-2.032,0.695-3.312v-4.704c0-1.312-0.232-2.416-0.695-3.312
			c-0.465-0.896-1.089-1.584-1.872-2.064c-0.785-0.48-1.673-0.72-2.664-0.72c-0.96,0-1.841,0.24-2.641,0.72
			s-1.433,1.168-1.896,2.064c-0.465,0.896-0.696,2-0.696,3.312v4.704c0,1.28,0.231,2.384,0.696,3.312
			c0.463,0.929,1.096,1.625,1.896,2.088C2117.365,695.25,2118.246,695.482,2119.206,695.482z"/>
		<path style="fill:#FFFFFF;" d="M2136.821,699.322v-24.528h4.848l0.768,3.6c0.96-1.375,2.12-2.4,3.48-3.072
			c1.359-0.672,2.904-1.008,4.632-1.008c1.663,0,3.128,0.32,4.392,0.96c1.265,0.64,2.24,1.552,2.929,2.736
			c0.688,1.184,1.032,2.624,1.032,4.32v16.992h-6.528v-15.6c0-1.567-0.384-2.719-1.152-3.456c-0.768-0.736-1.808-1.104-3.12-1.104
			c-0.832,0-1.616,0.216-2.352,0.648c-0.736,0.432-1.312,1.017-1.729,1.752c-0.416,0.736-0.624,1.568-0.624,2.496v15.264H2136.821z"
			/>
	</g>
	<g>
		<path style="fill:#FFFFFF;" d="M1882.426,875.321v-34.56h6.576v21.84l9.408-11.808h7.632l-9.408,11.231l9.792,13.296h-7.824
			l-6.528-8.832l-3.072,3.12v5.712H1882.426z"/>
		<path style="fill:#FFFFFF;" d="M1920.346,875.802c-2.304,0-4.344-0.473-6.12-1.416c-1.776-0.943-3.16-2.32-4.152-4.128
			c-0.992-1.808-1.488-4.008-1.488-6.601v-1.199c0-2.593,0.52-4.792,1.56-6.601c1.039-1.808,2.463-3.184,4.272-4.128
			c1.807-0.943,3.864-1.416,6.168-1.416h0.768c2.175,0,4.071,0.44,5.688,1.32c1.615,0.88,2.863,2.111,3.744,3.695
			c0.88,1.584,1.32,3.433,1.32,5.544v3.024h-16.608c0,1.536,0.192,2.88,0.576,4.032c0.384,1.151,0.96,2.032,1.728,2.64
			c0.768,0.608,1.776,0.912,3.024,0.912c1.024,0,1.92-0.199,2.688-0.6s1.375-1,1.824-1.801c0.448-0.799,0.672-1.775,0.672-2.928
			h6.096c0,1.889-0.48,3.561-1.44,5.017c-0.96,1.456-2.28,2.592-3.96,3.407c-1.68,0.816-3.624,1.225-5.832,1.225H1920.346z
			 M1915.546,860.537h10.128c0-2.016-0.44-3.511-1.32-4.487c-0.881-0.976-2.088-1.464-3.624-1.464c-1.44,0-2.648,0.504-3.624,1.512
			C1916.13,857.105,1915.61,858.586,1915.546,860.537z"/>
		<path style="fill:#FFFFFF;" d="M1948.281,875.802c-2.304,0-4.344-0.473-6.12-1.416c-1.776-0.943-3.16-2.32-4.152-4.128
			c-0.992-1.808-1.488-4.008-1.488-6.601v-1.199c0-2.593,0.52-4.792,1.56-6.601c1.039-1.808,2.463-3.184,4.272-4.128
			c1.807-0.943,3.864-1.416,6.168-1.416h0.768c2.175,0,4.071,0.44,5.688,1.32c1.615,0.88,2.863,2.111,3.744,3.695
			c0.88,1.584,1.32,3.433,1.32,5.544v3.024h-16.608c0,1.536,0.192,2.88,0.576,4.032c0.384,1.151,0.96,2.032,1.728,2.64
			c0.768,0.608,1.776,0.912,3.024,0.912c1.024,0,1.92-0.199,2.688-0.6s1.375-1,1.824-1.801c0.448-0.799,0.672-1.775,0.672-2.928
			h6.096c0,1.889-0.48,3.561-1.44,5.017c-0.96,1.456-2.28,2.592-3.96,3.407c-1.68,0.816-3.624,1.225-5.832,1.225H1948.281z
			 M1943.481,860.537h10.128c0-2.016-0.44-3.511-1.32-4.487c-0.881-0.976-2.088-1.464-3.624-1.464c-1.44,0-2.648,0.504-3.624,1.512
			C1944.065,857.105,1943.545,858.586,1943.481,860.537z"/>
		<path style="fill:#FFFFFF;" d="M1965.512,884.01v-33.216h5.136l0.72,3.168c0.736-1.057,1.72-1.928,2.952-2.616
			c1.231-0.688,2.68-1.032,4.344-1.032c1.888,0,3.592,0.408,5.112,1.224c1.52,0.816,2.72,2.121,3.6,3.912
			c0.88,1.793,1.32,4.145,1.32,7.057v1.008c0,2.688-0.432,4.952-1.296,6.792c-0.864,1.841-2.033,3.216-3.504,4.128
			c-1.472,0.912-3.088,1.368-4.848,1.368c-1.696,0-3.12-0.32-4.272-0.96s-2.033-1.456-2.64-2.448v11.616H1965.512z
			 M1976.984,871.434c0.928,0,1.752-0.24,2.472-0.72c0.72-0.48,1.288-1.168,1.704-2.064c0.416-0.896,0.624-1.999,0.624-3.312v-4.272
			c0-1.472-0.208-2.68-0.624-3.624c-0.416-0.943-0.984-1.647-1.704-2.112c-0.72-0.463-1.544-0.695-2.472-0.695
			c-0.864,0-1.672,0.224-2.424,0.672c-0.752,0.448-1.353,1.136-1.8,2.063c-0.448,0.929-0.672,2.145-0.672,3.648v4.32
			c0,1.312,0.216,2.424,0.648,3.336s1.024,1.601,1.776,2.063C1975.264,871.202,1976.088,871.434,1976.984,871.434z"/>
		<path style="fill:#FFFFFF;" d="M1993.64,865.098v-5.664h12.192v5.664H1993.64z"/>
		<path style="fill:#FFFFFF;" d="M2018.312,875.802c-1.312,0-2.568-0.216-3.768-0.648c-1.2-0.432-2.185-1.151-2.952-2.16
			c-0.769-1.008-1.152-2.376-1.152-4.104c0-1.76,0.392-3.184,1.176-4.272c0.784-1.087,1.888-1.927,3.312-2.52
			c1.423-0.592,3.136-1,5.136-1.225c1.999-0.223,4.248-0.336,6.744-0.336v-2.159c0-1.408-0.384-2.408-1.152-3
			c-0.768-0.592-1.889-0.889-3.359-0.889c-1.248,0-2.345,0.281-3.288,0.84c-0.944,0.561-1.416,1.416-1.416,2.568v0.384h-6.288
			c-0.032-0.096-0.048-0.231-0.048-0.408c0-0.175,0-0.327,0-0.455c0-1.408,0.447-2.647,1.344-3.721
			c0.896-1.071,2.144-1.903,3.744-2.496c1.6-0.592,3.456-0.888,5.567-0.888h1.009c3.455,0,6.031,0.681,7.728,2.04
			c1.695,1.36,2.544,3.192,2.544,5.496v11.952c0,0.608,0.151,1.04,0.456,1.296c0.304,0.257,0.632,0.384,0.984,0.384
			c0.288,0,0.607-0.056,0.96-0.168c0.352-0.111,0.688-0.247,1.008-0.408v3.84c-0.416,0.32-0.969,0.576-1.656,0.769
			c-0.688,0.191-1.512,0.288-2.472,0.288c-1.152,0-2.112-0.185-2.88-0.552c-0.769-0.368-1.353-0.872-1.752-1.513
			c-0.4-0.64-0.648-1.375-0.744-2.208c-0.896,1.28-2.081,2.312-3.552,3.097C2022.071,875.409,2020.327,875.802,2018.312,875.802z
			 M2021.384,871.481c0.896,0,1.752-0.208,2.567-0.624c0.816-0.415,1.496-1.032,2.04-1.848c0.544-0.816,0.816-1.832,0.816-3.048
			v-1.969c-2.049,0-3.784,0.129-5.208,0.385c-1.425,0.256-2.504,0.68-3.24,1.271c-0.736,0.593-1.104,1.448-1.104,2.568
			c0,1.184,0.359,2.024,1.08,2.52C2019.056,871.234,2020.071,871.481,2021.384,871.481z"/>
		<path style="fill:#FFFFFF;" d="M2041.063,875.321v-34.56h6.575v34.56H2041.063z"/>
		<path style="fill:#FFFFFF;" d="M2054.838,845.85v-5.088h6.768v5.088H2054.838z M2054.934,875.321v-24.527h6.576v24.527H2054.934z"
			/>
		<path style="fill:#FFFFFF;" d="M2074.277,875.321l-8.736-24.527h7.009l5.567,16.943h0.288l5.616-16.943h6.384l-8.832,24.527
			H2074.277z"/>
		<path style="fill:#FFFFFF;" d="M2104.806,875.802c-2.304,0-4.344-0.473-6.12-1.416s-3.16-2.32-4.152-4.128
			s-1.487-4.008-1.487-6.601v-1.199c0-2.593,0.52-4.792,1.56-6.601c1.039-1.808,2.464-3.184,4.272-4.128
			c1.807-0.943,3.863-1.416,6.168-1.416h0.768c2.176,0,4.071,0.44,5.688,1.32c1.615,0.88,2.863,2.111,3.743,3.695
			s1.32,3.433,1.32,5.544v3.024h-16.608c0,1.536,0.192,2.88,0.576,4.032c0.385,1.151,0.96,2.032,1.729,2.64
			c0.768,0.608,1.775,0.912,3.023,0.912c1.024,0,1.92-0.199,2.688-0.6c0.768-0.4,1.375-1,1.824-1.801
			c0.447-0.799,0.672-1.775,0.672-2.928h6.096c0,1.889-0.479,3.561-1.439,5.017c-0.961,1.456-2.28,2.592-3.961,3.407
			c-1.68,0.816-3.624,1.225-5.831,1.225H2104.806z M2100.006,860.537h10.128c0-2.016-0.44-3.511-1.32-4.487
			c-0.881-0.976-2.088-1.464-3.624-1.464c-1.44,0-2.648,0.504-3.624,1.512C2100.589,857.105,2100.069,858.586,2100.006,860.537z"/>
	</g>
	<g>
		<path style="fill:#FFFFFF;" d="M1886.098,1095.351c-2.081,0-3.96-0.512-5.64-1.536c-1.68-1.023-3-2.439-3.96-4.248
			c-0.96-1.808-1.44-3.88-1.44-6.216v-1.488c0-1.76,0.295-3.367,0.888-4.824c0.592-1.455,1.399-2.728,2.424-3.815
			c1.024-1.088,2.224-1.92,3.6-2.496c1.375-0.576,2.848-0.864,4.416-0.864h0.912c2.143,0,4.008,0.425,5.592,1.272
			s2.8,2.032,3.648,3.552c0.848,1.521,1.272,3.305,1.272,5.352h-5.712c0-1.312-0.2-2.399-0.6-3.264
			c-0.4-0.864-0.968-1.52-1.704-1.968c-0.736-0.448-1.616-0.672-2.64-0.672c-1.473,0-2.705,0.504-3.696,1.512
			c-0.992,1.008-1.488,2.488-1.488,4.439v4.944c0,1.92,0.472,3.4,1.416,4.44c0.943,1.04,2.215,1.56,3.816,1.56
			c1.12,0,2.064-0.192,2.832-0.576s1.352-1.008,1.752-1.872c0.4-0.863,0.6-2.016,0.6-3.456h5.424c0,2.177-0.464,4.024-1.392,5.544
			c-0.928,1.521-2.208,2.681-3.84,3.48s-3.488,1.2-5.568,1.2H1886.098z"/>
		<path style="fill:#FFFFFF;" d="M1902.994,1094.87v-34.56h6.576v13.151c0.896-1.183,1.96-2.079,3.192-2.688
			c1.231-0.607,2.599-0.912,4.104-0.912c1.632,0,3.063,0.32,4.296,0.96c1.231,0.641,2.2,1.561,2.904,2.76
			c0.704,1.2,1.056,2.633,1.056,4.296v16.992h-6.576v-15.6c0-1.567-0.384-2.72-1.152-3.456s-1.808-1.104-3.12-1.104
			c-0.833,0-1.616,0.217-2.352,0.648c-0.736,0.432-1.312,1.017-1.728,1.752c-0.416,0.736-0.624,1.568-0.624,2.496v15.264H1902.994z"
			/>
		<path style="fill:#FFFFFF;" d="M1938.081,1095.351c-1.312,0-2.568-0.216-3.768-0.648c-1.2-0.432-2.184-1.151-2.952-2.16
			c-0.768-1.008-1.152-2.376-1.152-4.104c0-1.76,0.391-3.184,1.176-4.272c0.784-1.087,1.888-1.927,3.312-2.52
			c1.423-0.592,3.136-1,5.136-1.225c1.999-0.223,4.248-0.336,6.744-0.336v-2.159c0-1.408-0.384-2.408-1.152-3
			s-1.889-0.889-3.36-0.889c-1.248,0-2.345,0.281-3.288,0.84c-0.944,0.561-1.416,1.416-1.416,2.568v0.384h-6.288
			c-0.032-0.096-0.048-0.231-0.048-0.408c0-0.175,0-0.327,0-0.455c0-1.408,0.448-2.647,1.344-3.721
			c0.896-1.071,2.144-1.903,3.744-2.496c1.6-0.592,3.456-0.888,5.568-0.888h1.008c3.456,0,6.031,0.681,7.728,2.04
			c1.695,1.36,2.544,3.192,2.544,5.496v11.952c0,0.608,0.151,1.04,0.456,1.296c0.304,0.257,0.631,0.384,0.984,0.384
			c0.288,0,0.607-0.056,0.96-0.168c0.352-0.111,0.688-0.247,1.008-0.408v3.84c-0.416,0.32-0.968,0.576-1.656,0.769
			c-0.688,0.191-1.512,0.288-2.472,0.288c-1.152,0-2.112-0.185-2.88-0.552c-0.768-0.368-1.353-0.872-1.752-1.513
			c-0.4-0.64-0.648-1.375-0.744-2.208c-0.896,1.28-2.081,2.312-3.552,3.097C1941.84,1094.958,1940.097,1095.351,1938.081,1095.351z
			 M1941.153,1091.03c0.896,0,1.752-0.208,2.568-0.624c0.816-0.415,1.496-1.032,2.04-1.848c0.544-0.816,0.816-1.832,0.816-3.048
			v-1.969c-2.048,0-3.784,0.129-5.208,0.385c-1.424,0.256-2.504,0.68-3.24,1.271c-0.737,0.593-1.104,1.448-1.104,2.568
			c0,1.184,0.36,2.024,1.08,2.52C1938.825,1090.783,1939.84,1091.03,1941.153,1091.03z"/>
		<path style="fill:#FFFFFF;" d="M1960.976,1065.398v-5.088h6.768v5.088H1960.976z M1961.072,1094.87v-24.527h6.576v24.527H1961.072
			z"/>
		<path style="fill:#FFFFFF;" d="M1974.416,1094.87v-24.527h4.848l0.768,3.6c0.96-1.376,2.12-2.4,3.48-3.072
			c1.36-0.672,2.904-1.008,4.632-1.008c1.663,0,3.127,0.32,4.392,0.96c1.264,0.641,2.24,1.553,2.928,2.736
			c0.688,1.184,1.032,2.624,1.032,4.319v16.992h-6.528v-15.6c0-1.567-0.384-2.72-1.152-3.456s-1.808-1.104-3.12-1.104
			c-0.833,0-1.616,0.217-2.352,0.648c-0.736,0.432-1.312,1.017-1.728,1.752c-0.416,0.736-0.624,1.568-0.624,2.496v15.264H1974.416z"
			/>
		<path style="fill:#FFFFFF;" d="M2002.543,1084.646v-5.664h12.192v5.664H2002.543z"/>
		<path style="fill:#FFFFFF;" d="M2029.565,1095.351c-1.535,0-2.928-0.192-4.176-0.576s-2.328-0.903-3.24-1.56
			c-0.911-0.656-1.607-1.424-2.088-2.305c-0.479-0.88-0.72-1.831-0.72-2.855c0-0.192,0-0.353,0-0.48
			c0-0.127,0.016-0.304,0.048-0.528h5.568c-0.032,0.097-0.048,0.185-0.048,0.265s0,0.152,0,0.216c0,0.8,0.271,1.464,0.815,1.992
			c0.544,0.527,1.248,0.912,2.112,1.151c0.864,0.24,1.792,0.36,2.784,0.36c0.799,0,1.607-0.096,2.424-0.288
			c0.816-0.191,1.495-0.504,2.04-0.936c0.544-0.433,0.815-0.984,0.815-1.656c0-0.735-0.28-1.304-0.84-1.704
			c-0.56-0.399-1.312-0.72-2.256-0.96c-0.944-0.24-1.977-0.447-3.096-0.624c-1.121-0.176-2.249-0.399-3.384-0.672
			c-1.137-0.271-2.177-0.664-3.12-1.176c-0.944-0.512-1.696-1.208-2.256-2.088c-0.561-0.88-0.841-2.04-0.841-3.48
			c0-1.216,0.28-2.304,0.841-3.264c0.56-0.96,1.327-1.76,2.304-2.4c0.976-0.64,2.096-1.119,3.36-1.439
			c1.264-0.32,2.583-0.48,3.96-0.48h0.96c1.279,0,2.503,0.16,3.672,0.48c1.168,0.32,2.215,0.775,3.144,1.367
			c0.928,0.593,1.656,1.297,2.185,2.112c0.527,0.816,0.792,1.704,0.792,2.664c0,0.16-0.009,0.345-0.024,0.552
			c-0.017,0.209-0.04,0.345-0.072,0.408h-5.567v-0.384c0-0.352-0.089-0.696-0.265-1.032s-0.464-0.647-0.863-0.936
			c-0.4-0.288-0.912-0.521-1.536-0.696s-1.368-0.264-2.232-0.264c-0.768,0-1.456,0.071-2.063,0.216
			c-0.608,0.144-1.121,0.336-1.536,0.576c-0.416,0.239-0.72,0.521-0.912,0.84c-0.192,0.32-0.288,0.641-0.288,0.96
			c0,0.672,0.288,1.192,0.864,1.56c0.576,0.368,1.336,0.656,2.279,0.864c0.944,0.208,1.984,0.4,3.12,0.576s2.264,0.392,3.385,0.647
			c1.119,0.257,2.159,0.648,3.119,1.177c0.96,0.527,1.72,1.24,2.28,2.136c0.56,0.896,0.84,2.063,0.84,3.504
			c0,1.505-0.288,2.784-0.863,3.84c-0.576,1.056-1.377,1.896-2.4,2.521c-1.024,0.624-2.177,1.079-3.456,1.367
			c-1.28,0.288-2.624,0.433-4.032,0.433H2029.565z"/>
		<path style="fill:#FFFFFF;" d="M2050.014,1103.799c-0.8,0-1.536-0.057-2.208-0.169s-1.28-0.28-1.824-0.504v-4.752
			c0.353,0.16,0.832,0.296,1.44,0.408c0.607,0.112,1.2,0.168,1.776,0.168c0.863,0,1.567-0.168,2.111-0.504s1-0.849,1.368-1.536
			c0.367-0.688,0.728-1.528,1.08-2.52l-9.456-24.048h7.008l5.664,16.079h0.336l5.376-16.079h6.48l-8.88,23.279
			c-0.704,1.888-1.521,3.601-2.448,5.137c-0.929,1.535-2.024,2.76-3.288,3.672
			C2053.285,1103.343,2051.773,1103.799,2050.014,1103.799z"/>
		<path style="fill:#FFFFFF;" d="M2072.862,1094.87v-24.527h4.848l0.768,3.6c0.96-1.376,2.12-2.4,3.48-3.072
			c1.359-0.672,2.904-1.008,4.632-1.008c1.663,0,3.128,0.32,4.392,0.96c1.265,0.641,2.24,1.553,2.929,2.736
			c0.688,1.184,1.032,2.624,1.032,4.319v16.992h-6.528v-15.6c0-1.567-0.384-2.72-1.152-3.456c-0.768-0.736-1.808-1.104-3.12-1.104
			c-0.832,0-1.616,0.217-2.352,0.648c-0.736,0.432-1.312,1.017-1.729,1.752c-0.416,0.736-0.624,1.568-0.624,2.496v15.264H2072.862z"
			/>
		<path style="fill:#FFFFFF;" d="M2111.501,1095.351c-2.08,0-3.96-0.512-5.64-1.536c-1.68-1.023-3-2.439-3.96-4.248
			c-0.96-1.808-1.44-3.88-1.44-6.216v-1.488c0-1.76,0.296-3.367,0.889-4.824c0.592-1.455,1.399-2.728,2.424-3.815
			c1.023-1.088,2.224-1.92,3.6-2.496s2.848-0.864,4.416-0.864h0.912c2.144,0,4.008,0.425,5.592,1.272s2.8,2.032,3.648,3.552
			c0.848,1.521,1.271,3.305,1.271,5.352h-5.712c0-1.312-0.2-2.399-0.6-3.264c-0.4-0.864-0.969-1.52-1.704-1.968
			c-0.736-0.448-1.616-0.672-2.64-0.672c-1.473,0-2.705,0.504-3.696,1.512c-0.992,1.008-1.488,2.488-1.488,4.439v4.944
			c0,1.92,0.472,3.4,1.416,4.44c0.943,1.04,2.216,1.56,3.816,1.56c1.119,0,2.063-0.192,2.832-0.576
			c0.768-0.384,1.352-1.008,1.752-1.872c0.399-0.863,0.6-2.016,0.6-3.456h5.424c0,2.177-0.464,4.024-1.392,5.544
			c-0.929,1.521-2.208,2.681-3.84,3.48s-3.488,1.2-5.568,1.2H2111.501z"/>
	</g>
	<g>
		<path style="fill:#FFFFFF;" d="M1883.913,1272.575c-3.584,0-6.32-1.44-8.208-4.32l-2.256,3.84h-2.4v-34.56h6.576v12.912
			c0.672-0.928,1.6-1.72,2.784-2.376c1.184-0.656,2.592-0.984,4.224-0.984c1.759,0,3.36,0.408,4.8,1.224
			c1.44,0.816,2.592,2.089,3.456,3.816s1.296,3.952,1.296,6.672v1.056c0,2.913-0.464,5.312-1.392,7.2
			c-0.928,1.889-2.176,3.281-3.744,4.177C1887.481,1272.127,1885.769,1272.575,1883.913,1272.575z M1882.521,1268.255
			c0.928,0,1.744-0.224,2.448-0.672c0.704-0.448,1.264-1.144,1.68-2.088c0.416-0.943,0.624-2.152,0.624-3.624v-4.32
			c0-1.344-0.2-2.455-0.6-3.336c-0.401-0.88-0.944-1.552-1.632-2.016c-0.688-0.464-1.496-0.696-2.424-0.696
			c-0.896,0-1.728,0.232-2.496,0.696s-1.376,1.145-1.824,2.04c-0.449,0.896-0.672,2.016-0.672,3.359v4.272
			c0,1.472,0.216,2.681,0.648,3.624c0.432,0.944,1.024,1.64,1.776,2.088C1880.801,1268.031,1881.625,1268.255,1882.521,1268.255z"/>
		<path style="fill:#FFFFFF;" d="M1899.657,1272.095v-34.56h6.576v34.56H1899.657z"/>
		<path style="fill:#FFFFFF;" d="M1923.56,1272.575c-2.24,0-4.248-0.504-6.024-1.513c-1.776-1.008-3.168-2.439-4.176-4.296
			c-1.008-1.855-1.512-4.031-1.512-6.527v-0.864c0-2.527,0.504-4.704,1.512-6.528c1.008-1.823,2.392-3.239,4.152-4.248
			c1.759-1.008,3.76-1.512,6-1.512h0.96c2.271,0,4.288,0.504,6.048,1.512c1.76,1.009,3.144,2.425,4.152,4.248
			c1.008,1.824,1.512,4.001,1.512,6.528v0.864c0,2.528-0.504,4.712-1.512,6.552c-1.008,1.841-2.393,3.264-4.152,4.271
			c-1.76,1.009-3.76,1.513-6,1.513H1923.56z M1923.992,1268.255c0.991,0,1.879-0.231,2.664-0.696
			c0.784-0.463,1.408-1.159,1.872-2.088c0.463-0.928,0.696-2.031,0.696-3.312v-4.704c0-1.312-0.232-2.416-0.696-3.312
			c-0.464-0.896-1.088-1.584-1.872-2.063c-0.785-0.48-1.673-0.72-2.664-0.72c-0.96,0-1.84,0.239-2.64,0.72
			c-0.8,0.479-1.433,1.168-1.896,2.063c-0.464,0.896-0.696,2.001-0.696,3.312v4.704c0,1.28,0.231,2.384,0.696,3.312
			c0.463,0.929,1.096,1.625,1.896,2.088C1922.152,1268.023,1923.032,1268.255,1923.992,1268.255z"/>
		<path style="fill:#FFFFFF;" d="M1951.592,1272.575c-2.081,0-3.96-0.512-5.64-1.536c-1.68-1.023-3-2.439-3.96-4.248
			c-0.96-1.808-1.44-3.88-1.44-6.216v-1.488c0-1.76,0.295-3.367,0.888-4.824c0.592-1.455,1.399-2.728,2.424-3.815
			c1.024-1.088,2.224-1.92,3.6-2.496c1.375-0.576,2.848-0.864,4.416-0.864h0.912c2.143,0,4.008,0.425,5.592,1.272
			s2.8,2.032,3.648,3.552c0.848,1.521,1.272,3.305,1.272,5.352h-5.712c0-1.312-0.2-2.399-0.6-3.264
			c-0.4-0.864-0.968-1.52-1.704-1.968c-0.736-0.448-1.616-0.672-2.64-0.672c-1.473,0-2.705,0.504-3.696,1.512
			c-0.992,1.008-1.488,2.488-1.488,4.439v4.944c0,1.92,0.472,3.4,1.416,4.44c0.943,1.04,2.215,1.56,3.816,1.56
			c1.12,0,2.064-0.192,2.832-0.576s1.352-1.008,1.752-1.872c0.4-0.863,0.6-2.016,0.6-3.456h5.424c0,2.177-0.464,4.024-1.392,5.544
			c-0.928,1.521-2.208,2.681-3.84,3.48s-3.488,1.2-5.568,1.2H1951.592z"/>
		<path style="fill:#FFFFFF;" d="M1968.488,1272.095v-34.56h6.576v21.84l9.408-11.808h7.632l-9.408,11.231l9.792,13.296h-7.824
			l-6.528-8.832l-3.072,3.12v5.712H1968.488z"/>
		<path style="fill:#FFFFFF;" d="M1994.936,1261.871v-5.664h12.192v5.664H1994.936z"/>
		<path style="fill:#FFFFFF;" d="M2014.472,1272.095v-19.632h-2.88v-4.896h2.88v-3.984c0-2.271,0.672-3.912,2.016-4.92
			s3.056-1.512,5.136-1.512c0.512,0,1.08,0.04,1.704,0.119c0.624,0.081,1.248,0.185,1.872,0.312s1.144,0.305,1.561,0.528v3.983
			c-0.385-0.159-0.889-0.304-1.513-0.432s-1.112-0.192-1.464-0.192c-0.416,0-0.84,0.064-1.271,0.192
			c-0.433,0.128-0.792,0.393-1.08,0.792c-0.288,0.4-0.433,1.064-0.433,1.992v3.12h5.761v4.896h-5.761v19.632H2014.472z"/>
		<path style="fill:#FFFFFF;" d="M2042.023,1272.575c-2.304,0-4.344-0.473-6.12-1.416s-3.16-2.32-4.152-4.128
			s-1.487-4.008-1.487-6.601v-1.199c0-2.593,0.52-4.792,1.56-6.601c1.039-1.808,2.464-3.184,4.272-4.128
			c1.807-0.943,3.863-1.416,6.168-1.416h0.768c2.176,0,4.071,0.44,5.688,1.32c1.615,0.88,2.863,2.111,3.743,3.695
			s1.32,3.433,1.32,5.544v3.024h-16.608c0,1.536,0.192,2.88,0.576,4.032c0.385,1.151,0.96,2.032,1.729,2.64
			c0.768,0.608,1.775,0.912,3.023,0.912c1.024,0,1.92-0.199,2.688-0.6c0.768-0.4,1.375-1,1.824-1.801
			c0.447-0.799,0.672-1.775,0.672-2.928h6.096c0,1.889-0.479,3.561-1.439,5.017c-0.961,1.456-2.28,2.592-3.961,3.407
			c-1.68,0.816-3.624,1.225-5.831,1.225H2042.023z M2037.224,1257.311h10.128c0-2.016-0.44-3.511-1.32-4.487
			c-0.881-0.976-2.088-1.464-3.624-1.464c-1.44,0-2.648,0.504-3.624,1.512C2037.807,1253.879,2037.287,1255.359,2037.224,1257.311z"
			/>
		<path style="fill:#FFFFFF;" d="M2067.606,1272.575c-1.376,0-2.608-0.192-3.696-0.576s-1.937-1.032-2.544-1.944
			c-0.608-0.912-0.912-2.119-0.912-3.624v-13.968h-2.688v-4.896h2.88l2.304-7.824h4.032v7.824h5.76v4.896h-5.76v12.528
			c0,1.408,0.288,2.304,0.864,2.688c0.575,0.384,1.199,0.576,1.872,0.576c0.352,0,0.84-0.072,1.464-0.216
			c0.624-0.145,1.128-0.296,1.512-0.456v4.032c-0.416,0.224-0.929,0.408-1.536,0.552c-0.608,0.144-1.224,0.247-1.848,0.312
			S2068.118,1272.575,2067.606,1272.575z"/>
		<path style="fill:#FFFFFF;" d="M2087.91,1272.575c-2.081,0-3.96-0.512-5.641-1.536c-1.68-1.023-3-2.439-3.96-4.248
			c-0.96-1.808-1.439-3.88-1.439-6.216v-1.488c0-1.76,0.295-3.367,0.888-4.824c0.592-1.455,1.399-2.728,2.424-3.815
			s2.224-1.92,3.601-2.496c1.375-0.576,2.848-0.864,4.416-0.864h0.912c2.143,0,4.008,0.425,5.592,1.272s2.8,2.032,3.647,3.552
			c0.848,1.521,1.272,3.305,1.272,5.352h-5.712c0-1.312-0.2-2.399-0.601-3.264s-0.968-1.52-1.704-1.968s-1.616-0.672-2.64-0.672
			c-1.473,0-2.704,0.504-3.696,1.512s-1.487,2.488-1.487,4.439v4.944c0,1.92,0.472,3.4,1.416,4.44c0.943,1.04,2.215,1.56,3.815,1.56
			c1.12,0,2.064-0.192,2.832-0.576c0.769-0.384,1.352-1.008,1.752-1.872c0.4-0.863,0.601-2.016,0.601-3.456h5.424
			c0,2.177-0.465,4.024-1.393,5.544c-0.928,1.521-2.208,2.681-3.84,3.48s-3.488,1.2-5.567,1.2H2087.91z"/>
		<path style="fill:#FFFFFF;" d="M2104.806,1272.095v-34.56h6.576v13.151c0.896-1.183,1.96-2.079,3.192-2.688
			c1.231-0.607,2.599-0.912,4.104-0.912c1.632,0,3.063,0.32,4.296,0.96c1.231,0.641,2.2,1.561,2.904,2.76
			c0.703,1.2,1.056,2.633,1.056,4.296v16.992h-6.576v-15.6c0-1.567-0.384-2.72-1.151-3.456c-0.769-0.736-1.809-1.104-3.12-1.104
			c-0.833,0-1.616,0.217-2.353,0.648s-1.312,1.017-1.728,1.752c-0.416,0.736-0.624,1.568-0.624,2.496v15.264H2104.806z"/>
	</g>
	<g>
		<path style="fill:#FFFFFF;" d="M1847.338,1450.353c-1.376,0-2.608-0.192-3.696-0.576c-1.088-0.384-1.937-1.032-2.544-1.944
			c-0.608-0.912-0.912-2.119-0.912-3.624v-13.968h-2.688v-4.896h2.88l2.304-7.824h4.032v7.824h5.76v4.896h-5.76v12.528
			c0,1.408,0.288,2.304,0.864,2.688c0.576,0.384,1.2,0.576,1.872,0.576c0.352,0,0.84-0.072,1.464-0.216
			c0.624-0.145,1.128-0.296,1.512-0.456v4.032c-0.416,0.224-0.928,0.408-1.536,0.552c-0.608,0.144-1.224,0.247-1.848,0.312
			S1847.85,1450.353,1847.338,1450.353z"/>
		<path style="fill:#FFFFFF;" d="M1855.017,1449.872l8.544-12.815l-7.872-11.712h7.632l4.704,7.439h0.096l4.752-7.439h7.104
			l-7.968,11.855l8.496,12.672h-7.632l-5.28-8.399h-0.096l-5.376,8.399H1855.017z"/>
		<path style="fill:#FFFFFF;" d="M1883.289,1439.648v-5.664h12.192v5.664H1883.289z"/>
		<path style="fill:#FFFFFF;" d="M1910.312,1450.353c-1.536,0-2.928-0.192-4.176-0.576s-2.328-0.903-3.24-1.56
			c-0.912-0.656-1.608-1.424-2.088-2.305c-0.48-0.88-0.72-1.831-0.72-2.855c0-0.192,0-0.353,0-0.48c0-0.127,0.016-0.304,0.048-0.528
			h5.568c-0.032,0.097-0.048,0.185-0.048,0.265s0,0.152,0,0.216c0,0.8,0.271,1.464,0.816,1.992c0.544,0.527,1.248,0.912,2.112,1.151
			c0.864,0.24,1.792,0.36,2.784,0.36c0.799,0,1.608-0.096,2.424-0.288c0.816-0.191,1.496-0.504,2.04-0.936
			c0.544-0.433,0.816-0.984,0.816-1.656c0-0.735-0.28-1.304-0.84-1.704c-0.56-0.399-1.312-0.72-2.256-0.96
			c-0.944-0.24-1.977-0.447-3.096-0.624c-1.121-0.176-2.249-0.399-3.384-0.672c-1.136-0.271-2.177-0.664-3.12-1.176
			c-0.944-0.512-1.696-1.208-2.256-2.088c-0.561-0.88-0.84-2.04-0.84-3.48c0-1.216,0.28-2.304,0.84-3.264
			c0.56-0.96,1.327-1.76,2.304-2.4c0.976-0.64,2.096-1.119,3.36-1.439c1.264-0.32,2.583-0.48,3.96-0.48h0.96
			c1.279,0,2.503,0.16,3.672,0.48c1.168,0.32,2.215,0.775,3.144,1.367c0.928,0.593,1.656,1.297,2.184,2.112
			c0.528,0.816,0.792,1.704,0.792,2.664c0,0.16-0.008,0.345-0.024,0.552c-0.017,0.209-0.041,0.345-0.072,0.408h-5.568v-0.384
			c0-0.352-0.088-0.696-0.264-1.032c-0.176-0.336-0.464-0.647-0.864-0.936c-0.4-0.288-0.912-0.521-1.536-0.696
			s-1.368-0.264-2.232-0.264c-0.768,0-1.457,0.071-2.064,0.216c-0.608,0.144-1.121,0.336-1.536,0.576
			c-0.416,0.239-0.72,0.521-0.912,0.84c-0.192,0.32-0.288,0.641-0.288,0.96c0,0.672,0.288,1.192,0.864,1.56
			c0.576,0.368,1.336,0.656,2.28,0.864s1.984,0.4,3.12,0.576c1.136,0.176,2.264,0.392,3.384,0.647c1.12,0.257,2.16,0.648,3.12,1.177
			c0.96,0.527,1.72,1.24,2.28,2.136c0.56,0.896,0.84,2.063,0.84,3.504c0,1.505-0.288,2.784-0.864,3.84
			c-0.576,1.056-1.376,1.896-2.4,2.521c-1.024,0.624-2.176,1.079-3.456,1.367c-1.28,0.288-2.625,0.433-4.032,0.433H1910.312z"/>
		<path style="fill:#FFFFFF;" d="M1935.801,1450.353c-2.528,0-4.521-0.696-5.976-2.088c-1.457-1.393-2.184-3.433-2.184-6.12v-16.8
			h6.576v15.359c0,1.664,0.343,2.88,1.032,3.648c0.688,0.768,1.704,1.151,3.048,1.151c0.896,0,1.711-0.223,2.448-0.672
			c0.736-0.447,1.336-1.039,1.8-1.775c0.463-0.736,0.696-1.552,0.696-2.448v-15.264h6.528v19.008c0,0.608,0.152,1.04,0.456,1.296
			c0.304,0.257,0.631,0.384,0.984,0.384c0.32,0,0.648-0.056,0.984-0.168c0.336-0.111,0.664-0.247,0.984-0.408v3.84
			c-0.417,0.32-0.968,0.576-1.656,0.769c-0.688,0.191-1.512,0.288-2.472,0.288c-1.121,0-2.057-0.177-2.808-0.528
			c-0.752-0.352-1.32-0.84-1.704-1.464c-0.384-0.624-0.672-1.288-0.864-1.992c-0.8,1.248-1.904,2.225-3.312,2.928
			C1938.952,1450,1937.433,1450.353,1935.801,1450.353z"/>
		<path style="fill:#FFFFFF;" d="M1970.696,1450.353c-3.584,0-6.32-1.44-8.208-4.32l-2.256,3.84h-2.4v-34.56h6.576v12.912
			c0.672-0.928,1.6-1.72,2.784-2.376c1.184-0.656,2.592-0.984,4.224-0.984c1.759,0,3.36,0.408,4.8,1.224
			c1.44,0.816,2.592,2.089,3.456,3.816s1.296,3.952,1.296,6.672v1.056c0,2.913-0.464,5.312-1.392,7.2
			c-0.928,1.889-2.176,3.281-3.744,4.177C1974.264,1449.904,1972.551,1450.353,1970.696,1450.353z M1969.304,1446.032
			c0.928,0,1.744-0.224,2.448-0.672c0.704-0.448,1.264-1.144,1.68-2.088c0.416-0.943,0.624-2.152,0.624-3.624v-4.32
			c0-1.344-0.2-2.455-0.6-3.336c-0.401-0.88-0.944-1.552-1.632-2.016c-0.688-0.464-1.496-0.696-2.424-0.696
			c-0.896,0-1.728,0.232-2.496,0.696s-1.376,1.145-1.824,2.04c-0.449,0.896-0.672,2.016-0.672,3.359v4.272
			c0,1.472,0.216,2.681,0.648,3.624c0.432,0.944,1.024,1.64,1.776,2.088C1967.583,1445.809,1968.408,1446.032,1969.304,1446.032z"/>
		<path style="fill:#FFFFFF;" d="M1986.44,1449.872v-24.527h4.896l0.864,3.6c0.832-1.279,1.816-2.28,2.952-3
			c1.135-0.72,2.52-1.08,4.152-1.08c1.6,0,3.008,0.305,4.224,0.912c1.216,0.608,2.176,1.616,2.88,3.024
			c0.769-1.28,1.76-2.257,2.977-2.929c1.216-0.672,2.655-1.008,4.319-1.008c1.568,0,2.952,0.32,4.152,0.96
			c1.2,0.641,2.136,1.553,2.808,2.736c0.673,1.184,1.009,2.624,1.009,4.319v16.992h-6.48v-15.504c0-1.6-0.336-2.768-1.008-3.504
			c-0.672-0.735-1.601-1.104-2.784-1.104c-0.768,0-1.464,0.2-2.088,0.6c-0.624,0.4-1.112,0.96-1.464,1.68
			c-0.353,0.721-0.528,1.545-0.528,2.473v15.359h-6.479v-15.504c0-1.6-0.336-2.768-1.008-3.504
			c-0.672-0.735-1.616-1.104-2.832-1.104c-0.768,0-1.457,0.2-2.064,0.6c-0.608,0.4-1.088,0.96-1.44,1.68
			c-0.353,0.721-0.528,1.545-0.528,2.473v15.359H1986.44z"/>
		<path style="fill:#FFFFFF;" d="M2028.391,1420.4v-5.088h6.768v5.088H2028.391z M2028.486,1449.872v-24.527h6.576v24.527H2028.486z
			"/>
		<path style="fill:#FFFFFF;" d="M2050.614,1450.353c-1.535,0-2.928-0.192-4.176-0.576s-2.328-0.903-3.24-1.56
			c-0.911-0.656-1.607-1.424-2.088-2.305c-0.479-0.88-0.72-1.831-0.72-2.855c0-0.192,0-0.353,0-0.48
			c0-0.127,0.016-0.304,0.048-0.528h5.568c-0.032,0.097-0.048,0.185-0.048,0.265s0,0.152,0,0.216c0,0.8,0.271,1.464,0.815,1.992
			c0.544,0.527,1.248,0.912,2.112,1.151c0.864,0.24,1.792,0.36,2.784,0.36c0.799,0,1.607-0.096,2.424-0.288
			c0.816-0.191,1.495-0.504,2.04-0.936c0.544-0.433,0.815-0.984,0.815-1.656c0-0.735-0.28-1.304-0.84-1.704
			c-0.56-0.399-1.312-0.72-2.256-0.96c-0.944-0.24-1.977-0.447-3.096-0.624c-1.121-0.176-2.249-0.399-3.384-0.672
			c-1.137-0.271-2.177-0.664-3.12-1.176c-0.944-0.512-1.696-1.208-2.256-2.088c-0.561-0.88-0.841-2.04-0.841-3.48
			c0-1.216,0.28-2.304,0.841-3.264c0.56-0.96,1.327-1.76,2.304-2.4c0.976-0.64,2.096-1.119,3.36-1.439
			c1.264-0.32,2.583-0.48,3.96-0.48h0.96c1.279,0,2.503,0.16,3.672,0.48c1.168,0.32,2.215,0.775,3.144,1.367
			c0.928,0.593,1.656,1.297,2.185,2.112c0.527,0.816,0.792,1.704,0.792,2.664c0,0.16-0.009,0.345-0.024,0.552
			c-0.017,0.209-0.04,0.345-0.072,0.408h-5.567v-0.384c0-0.352-0.089-0.696-0.265-1.032s-0.464-0.647-0.863-0.936
			c-0.4-0.288-0.912-0.521-1.536-0.696s-1.368-0.264-2.232-0.264c-0.768,0-1.456,0.071-2.063,0.216
			c-0.608,0.144-1.121,0.336-1.536,0.576c-0.416,0.239-0.72,0.521-0.912,0.84c-0.192,0.32-0.288,0.641-0.288,0.96
			c0,0.672,0.288,1.192,0.864,1.56c0.576,0.368,1.336,0.656,2.279,0.864c0.944,0.208,1.984,0.4,3.12,0.576s2.264,0.392,3.385,0.647
			c1.119,0.257,2.159,0.648,3.119,1.177c0.96,0.527,1.72,1.24,2.28,2.136c0.56,0.896,0.84,2.063,0.84,3.504
			c0,1.505-0.288,2.784-0.863,3.84c-0.576,1.056-1.377,1.896-2.4,2.521c-1.024,0.624-2.177,1.079-3.456,1.367
			c-1.28,0.288-2.624,0.433-4.032,0.433H2050.614z"/>
		<path style="fill:#FFFFFF;" d="M2076.966,1450.353c-1.535,0-2.928-0.192-4.176-0.576s-2.328-0.903-3.24-1.56
			c-0.911-0.656-1.607-1.424-2.088-2.305c-0.479-0.88-0.72-1.831-0.72-2.855c0-0.192,0-0.353,0-0.48
			c0-0.127,0.016-0.304,0.048-0.528h5.568c-0.032,0.097-0.048,0.185-0.048,0.265s0,0.152,0,0.216c0,0.8,0.271,1.464,0.815,1.992
			c0.544,0.527,1.248,0.912,2.112,1.151c0.864,0.24,1.792,0.36,2.784,0.36c0.799,0,1.607-0.096,2.424-0.288
			c0.816-0.191,1.495-0.504,2.04-0.936c0.544-0.433,0.815-0.984,0.815-1.656c0-0.735-0.28-1.304-0.84-1.704
			c-0.56-0.399-1.312-0.72-2.256-0.96c-0.944-0.24-1.977-0.447-3.096-0.624c-1.121-0.176-2.249-0.399-3.384-0.672
			c-1.137-0.271-2.177-0.664-3.12-1.176c-0.944-0.512-1.696-1.208-2.256-2.088c-0.561-0.88-0.841-2.04-0.841-3.48
			c0-1.216,0.28-2.304,0.841-3.264c0.56-0.96,1.327-1.76,2.304-2.4c0.976-0.64,2.096-1.119,3.36-1.439
			c1.264-0.32,2.583-0.48,3.96-0.48h0.96c1.279,0,2.503,0.16,3.672,0.48c1.168,0.32,2.215,0.775,3.144,1.367
			c0.928,0.593,1.656,1.297,2.185,2.112c0.527,0.816,0.792,1.704,0.792,2.664c0,0.16-0.009,0.345-0.024,0.552
			c-0.017,0.209-0.04,0.345-0.072,0.408h-5.567v-0.384c0-0.352-0.089-0.696-0.265-1.032s-0.464-0.647-0.863-0.936
			c-0.4-0.288-0.912-0.521-1.536-0.696s-1.368-0.264-2.232-0.264c-0.768,0-1.456,0.071-2.063,0.216
			c-0.608,0.144-1.121,0.336-1.536,0.576c-0.416,0.239-0.72,0.521-0.912,0.84c-0.192,0.32-0.288,0.641-0.288,0.96
			c0,0.672,0.288,1.192,0.864,1.56c0.576,0.368,1.336,0.656,2.279,0.864c0.944,0.208,1.984,0.4,3.12,0.576s2.264,0.392,3.385,0.647
			c1.119,0.257,2.159,0.648,3.119,1.177c0.96,0.527,1.72,1.24,2.28,2.136c0.56,0.896,0.84,2.063,0.84,3.504
			c0,1.505-0.288,2.784-0.863,3.84c-0.576,1.056-1.377,1.896-2.4,2.521c-1.024,0.624-2.177,1.079-3.456,1.367
			c-1.28,0.288-2.624,0.433-4.032,0.433H2076.966z"/>
		<path style="fill:#FFFFFF;" d="M2094.678,1420.4v-5.088h6.768v5.088H2094.678z M2094.773,1449.872v-24.527h6.576v24.527H2094.773z
			"/>
		<path style="fill:#FFFFFF;" d="M2118.773,1450.353c-2.24,0-4.248-0.504-6.023-1.513c-1.776-1.008-3.168-2.439-4.176-4.296
			c-1.009-1.855-1.513-4.031-1.513-6.527v-0.864c0-2.527,0.504-4.704,1.513-6.528c1.008-1.823,2.392-3.239,4.151-4.248
			c1.76-1.008,3.76-1.512,6-1.512h0.96c2.271,0,4.288,0.504,6.048,1.512c1.76,1.009,3.145,2.425,4.152,4.248
			c1.008,1.824,1.512,4.001,1.512,6.528v0.864c0,2.528-0.504,4.712-1.512,6.552c-1.008,1.841-2.393,3.264-4.152,4.271
			c-1.76,1.009-3.76,1.513-6,1.513H2118.773z M2119.206,1446.032c0.991,0,1.879-0.231,2.664-0.696
			c0.783-0.463,1.407-1.159,1.872-2.088c0.463-0.928,0.695-2.031,0.695-3.312v-4.704c0-1.312-0.232-2.416-0.695-3.312
			c-0.465-0.896-1.089-1.584-1.872-2.063c-0.785-0.48-1.673-0.72-2.664-0.72c-0.96,0-1.841,0.239-2.641,0.72
			c-0.8,0.479-1.433,1.168-1.896,2.063c-0.465,0.896-0.696,2.001-0.696,3.312v4.704c0,1.28,0.231,2.384,0.696,3.312
			c0.463,0.929,1.096,1.625,1.896,2.088C2117.365,1445.801,2118.246,1446.032,2119.206,1446.032z"/>
		<path style="fill:#FFFFFF;" d="M2136.821,1449.872v-24.527h4.848l0.768,3.6c0.96-1.376,2.12-2.4,3.48-3.072
			c1.359-0.672,2.904-1.008,4.632-1.008c1.663,0,3.128,0.32,4.392,0.96c1.265,0.641,2.24,1.553,2.929,2.736
			c0.688,1.184,1.032,2.624,1.032,4.319v16.992h-6.528v-15.6c0-1.567-0.384-2.72-1.152-3.456c-0.768-0.736-1.808-1.104-3.12-1.104
			c-0.832,0-1.616,0.217-2.352,0.648c-0.736,0.432-1.312,1.017-1.729,1.752c-0.416,0.736-0.624,1.568-0.624,2.496v15.264H2136.821z"
			/>
	</g>
	<g>
		<path style="fill:#FFFFFF;" d="M1882.426,1625.872v-34.56h6.576v21.84l9.408-11.809h7.632l-9.408,11.232l9.792,13.296h-7.824
			l-6.528-8.832l-3.072,3.12v5.712H1882.426z"/>
		<path style="fill:#FFFFFF;" d="M1920.346,1626.352c-2.304,0-4.344-0.473-6.12-1.416c-1.776-0.943-3.16-2.319-4.152-4.127
			c-0.992-1.809-1.488-4.008-1.488-6.601v-1.2c0-2.592,0.52-4.791,1.56-6.6c1.039-1.808,2.463-3.184,4.272-4.128
			c1.807-0.944,3.864-1.416,6.168-1.416h0.768c2.175,0,4.071,0.44,5.688,1.319c1.615,0.881,2.863,2.112,3.744,3.696
			c0.88,1.584,1.32,3.433,1.32,5.544v3.024h-16.608c0,1.536,0.192,2.88,0.576,4.032c0.384,1.151,0.96,2.032,1.728,2.64
			c0.768,0.608,1.776,0.912,3.024,0.912c1.024,0,1.92-0.2,2.688-0.601c0.768-0.399,1.375-1,1.824-1.8
			c0.448-0.8,0.672-1.776,0.672-2.928h6.096c0,1.889-0.48,3.56-1.44,5.017c-0.96,1.456-2.28,2.592-3.96,3.407
			c-1.68,0.815-3.624,1.224-5.832,1.224H1920.346z M1915.546,1611.088h10.128c0-2.016-0.44-3.512-1.32-4.488
			c-0.881-0.975-2.088-1.463-3.624-1.463c-1.44,0-2.648,0.504-3.624,1.512C1916.13,1607.656,1915.61,1609.137,1915.546,1611.088z"/>
		<path style="fill:#FFFFFF;" d="M1948.281,1626.352c-2.304,0-4.344-0.473-6.12-1.416c-1.776-0.943-3.16-2.319-4.152-4.127
			c-0.992-1.809-1.488-4.008-1.488-6.601v-1.2c0-2.592,0.52-4.791,1.56-6.6c1.039-1.808,2.463-3.184,4.272-4.128
			c1.807-0.944,3.864-1.416,6.168-1.416h0.768c2.175,0,4.071,0.44,5.688,1.319c1.615,0.881,2.863,2.112,3.744,3.696
			c0.88,1.584,1.32,3.433,1.32,5.544v3.024h-16.608c0,1.536,0.192,2.88,0.576,4.032c0.384,1.151,0.96,2.032,1.728,2.64
			c0.768,0.608,1.776,0.912,3.024,0.912c1.024,0,1.92-0.2,2.688-0.601c0.768-0.399,1.375-1,1.824-1.8
			c0.448-0.8,0.672-1.776,0.672-2.928h6.096c0,1.889-0.48,3.56-1.44,5.017c-0.96,1.456-2.28,2.592-3.96,3.407
			c-1.68,0.815-3.624,1.224-5.832,1.224H1948.281z M1943.481,1611.088h10.128c0-2.016-0.44-3.512-1.32-4.488
			c-0.881-0.975-2.088-1.463-3.624-1.463c-1.44,0-2.648,0.504-3.624,1.512C1944.065,1607.656,1943.545,1609.137,1943.481,1611.088z"
			/>
		<path style="fill:#FFFFFF;" d="M1965.512,1634.561v-33.217h5.136l0.72,3.168c0.736-1.056,1.72-1.928,2.952-2.615
			c1.231-0.688,2.68-1.032,4.344-1.032c1.888,0,3.592,0.407,5.112,1.224c1.52,0.816,2.72,2.121,3.6,3.912
			c0.88,1.793,1.32,4.145,1.32,7.057v1.008c0,2.688-0.432,4.951-1.296,6.791c-0.864,1.842-2.033,3.217-3.504,4.129
			c-1.472,0.912-3.088,1.367-4.848,1.367c-1.696,0-3.12-0.32-4.272-0.959c-1.152-0.641-2.033-1.456-2.64-2.449v11.617H1965.512z
			 M1976.984,1621.984c0.928,0,1.752-0.24,2.472-0.721c0.72-0.479,1.288-1.168,1.704-2.063c0.416-0.896,0.624-1.999,0.624-3.312
			v-4.272c0-1.472-0.208-2.68-0.624-3.624c-0.416-0.943-0.984-1.648-1.704-2.112c-0.72-0.464-1.544-0.696-2.472-0.696
			c-0.864,0-1.672,0.225-2.424,0.672c-0.752,0.449-1.353,1.137-1.8,2.064c-0.448,0.929-0.672,2.145-0.672,3.648v4.32
			c0,1.312,0.216,2.424,0.648,3.336s1.024,1.6,1.776,2.063C1975.264,1621.752,1976.088,1621.984,1976.984,1621.984z"/>
		<path style="fill:#FFFFFF;" d="M1993.64,1615.648v-5.664h12.192v5.664H1993.64z"/>
		<path style="fill:#FFFFFF;" d="M2018.312,1626.352c-1.312,0-2.568-0.215-3.768-0.647c-1.2-0.433-2.185-1.151-2.952-2.16
			c-0.769-1.008-1.152-2.376-1.152-4.104c0-1.759,0.392-3.184,1.176-4.271s1.888-1.928,3.312-2.52c1.423-0.592,3.136-1,5.136-1.225
			c1.999-0.223,4.248-0.336,6.744-0.336v-2.16c0-1.407-0.384-2.407-1.152-3c-0.768-0.592-1.889-0.888-3.359-0.888
			c-1.248,0-2.345,0.28-3.288,0.84c-0.944,0.561-1.416,1.416-1.416,2.568v0.384h-6.288c-0.032-0.096-0.048-0.232-0.048-0.408
			s0-0.328,0-0.455c0-1.408,0.447-2.648,1.344-3.721c0.896-1.072,2.144-1.903,3.744-2.496c1.6-0.592,3.456-0.888,5.567-0.888h1.009
			c3.455,0,6.031,0.681,7.728,2.04c1.695,1.36,2.544,3.191,2.544,5.496v11.951c0,0.609,0.151,1.041,0.456,1.297
			c0.304,0.256,0.632,0.384,0.984,0.384c0.288,0,0.607-0.056,0.96-0.168c0.352-0.112,0.688-0.247,1.008-0.408v3.84
			c-0.416,0.32-0.969,0.576-1.656,0.769c-0.688,0.191-1.512,0.287-2.472,0.287c-1.152,0-2.112-0.184-2.88-0.551
			c-0.769-0.368-1.353-0.872-1.752-1.513c-0.4-0.64-0.648-1.376-0.744-2.208c-0.896,1.28-2.081,2.312-3.552,3.096
			C2022.071,1625.96,2020.327,1626.352,2018.312,1626.352z M2021.384,1622.032c0.896,0,1.752-0.208,2.567-0.624
			c0.816-0.416,1.496-1.032,2.04-1.848c0.544-0.816,0.816-1.832,0.816-3.049v-1.968c-2.049,0-3.784,0.128-5.208,0.384
			c-1.425,0.257-2.504,0.681-3.24,1.272c-0.736,0.593-1.104,1.448-1.104,2.567c0,1.185,0.359,2.025,1.08,2.521
			C2019.056,1621.785,2020.071,1622.032,2021.384,1622.032z"/>
		<path style="fill:#FFFFFF;" d="M2041.063,1625.872v-34.56h6.575v34.56H2041.063z"/>
		<path style="fill:#FFFFFF;" d="M2054.838,1596.4v-5.088h6.768v5.088H2054.838z M2054.934,1625.872v-24.528h6.576v24.528H2054.934z
			"/>
		<path style="fill:#FFFFFF;" d="M2074.277,1625.872l-8.736-24.528h7.009l5.567,16.944h0.288l5.616-16.944h6.384l-8.832,24.528
			H2074.277z"/>
		<path style="fill:#FFFFFF;" d="M2104.806,1626.352c-2.304,0-4.344-0.473-6.12-1.416s-3.16-2.319-4.152-4.127
			c-0.992-1.809-1.487-4.008-1.487-6.601v-1.2c0-2.592,0.52-4.791,1.56-6.6c1.039-1.808,2.464-3.184,4.272-4.128
			c1.807-0.944,3.863-1.416,6.168-1.416h0.768c2.176,0,4.071,0.44,5.688,1.319c1.615,0.881,2.863,2.112,3.743,3.696
			s1.32,3.433,1.32,5.544v3.024h-16.608c0,1.536,0.192,2.88,0.576,4.032c0.385,1.151,0.96,2.032,1.729,2.64
			c0.768,0.608,1.775,0.912,3.023,0.912c1.024,0,1.92-0.2,2.688-0.601c0.768-0.399,1.375-1,1.824-1.8
			c0.447-0.8,0.672-1.776,0.672-2.928h6.096c0,1.889-0.479,3.56-1.439,5.017c-0.961,1.456-2.28,2.592-3.961,3.407
			c-1.68,0.815-3.624,1.224-5.831,1.224H2104.806z M2100.006,1611.088h10.128c0-2.016-0.44-3.512-1.32-4.488
			c-0.881-0.975-2.088-1.463-3.624-1.463c-1.44,0-2.648,0.504-3.624,1.512C2100.589,1607.656,2100.069,1609.137,2100.006,1611.088z"
			/>
	</g>
	<g>
		<path style="fill:#FFFFFF;" d="M3291.539,1001.214v-82.32h14.641l29.399,43.68l4.32,7.56l0.48-0.12v-51.12h15.84v82.32h-15
			l-30.24-45.24l-3-5.52l-0.6,0.12v50.64H3291.539z"/>
		<path style="fill:#FFFFFF;" d="M3399.779,1002.415c-5.601,0-10.619-1.26-15.06-3.78s-7.92-6.099-10.44-10.74
			c-2.52-4.639-3.779-10.08-3.779-16.32v-2.16c0-6.319,1.26-11.76,3.779-16.32c2.521-4.56,5.979-8.1,10.381-10.62
			c4.398-2.52,9.399-3.78,15-3.78h2.399c5.68,0,10.72,1.26,15.12,3.78c4.398,2.52,7.86,6.06,10.38,10.62
			c2.521,4.56,3.78,10.001,3.78,16.32v2.16c0,6.321-1.26,11.781-3.78,16.38c-2.52,4.601-5.981,8.16-10.38,10.68
			c-4.4,2.52-9.401,3.78-15,3.78H3399.779z M3400.859,991.614c2.479,0,4.699-0.579,6.66-1.74c1.96-1.159,3.52-2.899,4.681-5.22
			c1.158-2.319,1.739-5.079,1.739-8.28v-11.76c0-3.279-0.581-6.039-1.739-8.28c-1.161-2.239-2.721-3.96-4.681-5.16
			c-1.961-1.2-4.181-1.8-6.66-1.8c-2.399,0-4.601,0.6-6.6,1.8c-2.001,1.2-3.581,2.921-4.74,5.16c-1.16,2.241-1.74,5-1.74,8.28v11.76
			c0,3.201,0.58,5.96,1.74,8.28c1.159,2.321,2.739,4.062,4.74,5.22C3396.259,991.035,3398.46,991.614,3400.859,991.614z"/>
		<path style="fill:#FFFFFF;" d="M3467.339,1002.415c-4.801,0-9.081-1.122-12.841-3.36c-3.761-2.239-6.74-5.719-8.939-10.44
			c-2.201-4.719-3.3-10.719-3.3-18v-1.32c0-6.799,1.099-12.459,3.3-16.98c2.199-4.519,5.14-7.92,8.82-10.2
			c3.679-2.28,7.68-3.42,12-3.42c4.319,0,7.938,0.801,10.859,2.4c2.92,1.602,5.14,3.6,6.66,6v-32.28h16.32v86.4h-12.84l-1.801-8.16
			c-1.92,2.721-4.361,4.961-7.319,6.72C3475.298,1001.533,3471.658,1002.415,3467.339,1002.415z M3471.538,991.614
			c2.319,0,4.399-0.559,6.24-1.68c1.84-1.12,3.319-2.859,4.44-5.22c1.119-2.359,1.68-5.379,1.68-9.06v-10.68
			c0-3.36-0.54-6.159-1.62-8.4c-1.08-2.239-2.562-3.939-4.439-5.1c-1.881-1.159-3.981-1.74-6.301-1.74c-3.359,0-6.2,1.301-8.52,3.9
			c-2.321,2.601-3.48,6.381-3.48,11.34v10.68c0,3.681,0.54,6.701,1.62,9.06c1.08,2.361,2.521,4.101,4.32,5.22
			C3467.278,991.056,3469.298,991.614,3471.538,991.614z"/>
		<path style="fill:#FFFFFF;" d="M3543.177,1002.415c-5.76,0-10.859-1.182-15.3-3.54c-4.439-2.359-7.901-5.799-10.38-10.32
			c-2.48-4.519-3.72-10.02-3.72-16.5v-3c0-6.48,1.299-11.979,3.899-16.5c2.6-4.519,6.16-7.959,10.681-10.32
			c4.519-2.359,9.66-3.54,15.42-3.54h1.92c5.439,0,10.18,1.101,14.22,3.3c4.039,2.202,7.159,5.28,9.36,9.24
			c2.199,3.96,3.3,8.58,3.3,13.86v7.56h-41.52c0,3.84,0.479,7.2,1.439,10.08s2.4,5.081,4.32,6.6c1.92,1.521,4.439,2.28,7.56,2.28
			c2.56,0,4.8-0.499,6.721-1.5c1.92-1,3.438-2.5,4.56-4.5c1.119-1.999,1.68-4.44,1.68-7.32h15.24c0,4.721-1.2,8.9-3.6,12.54
			c-2.4,3.641-5.7,6.48-9.9,8.52s-9.06,3.06-14.58,3.06H3543.177z M3531.177,964.254h25.32c0-5.04-1.101-8.779-3.3-11.22
			c-2.201-2.439-5.22-3.66-9.061-3.66c-3.6,0-6.62,1.26-9.06,3.78C3532.636,955.674,3531.337,959.375,3531.177,964.254z"/>
		<path style="fill:#FFFFFF;" d="M3613.254,1001.214v-82.32h40.08c4.158,0,7.879,0.8,11.16,2.4c3.279,1.601,5.819,3.84,7.62,6.72
			c1.8,2.88,2.699,6.281,2.699,10.2c0,4.08-0.701,7.46-2.1,10.14c-1.4,2.681-3.161,4.8-5.28,6.36c-2.12,1.56-4.341,2.7-6.66,3.42
			v0.72c1.6,0.24,3.34,0.78,5.221,1.62c1.878,0.84,3.639,1.98,5.279,3.42c1.639,1.44,2.959,3.24,3.96,5.4c1,2.16,1.5,4.841,1.5,8.04
			c0,4.641-1.04,8.76-3.119,12.36c-2.082,3.6-4.921,6.42-8.521,8.46s-7.722,3.06-12.36,3.06H3613.254z M3629.813,952.854h18
			c2.16,0,4.021-0.52,5.58-1.56c1.561-1.039,2.739-2.419,3.54-4.14c0.799-1.719,1.2-3.579,1.2-5.58c0-3.279-0.821-5.739-2.46-7.38
			c-1.641-1.639-3.98-2.46-7.021-2.46h-18.84V952.854z M3629.813,988.134h18.96c2.16,0,4.06-0.52,5.7-1.56
			c1.639-1.039,2.92-2.439,3.84-4.2c0.919-1.759,1.38-3.76,1.38-6c0-2.239-0.479-4.14-1.439-5.7s-2.262-2.779-3.9-3.66
			c-1.641-0.879-3.461-1.32-5.46-1.32h-19.08V988.134z"/>
	</g>
	<g>
		<path style="fill:#FFFFFF;" d="M310.369,1001.214v-82.32h14.64l29.4,43.68l4.32,7.56l0.48-0.12v-51.12h15.84v82.32h-15
			l-30.24-45.24l-3-5.52l-0.6,0.12v50.64H310.369z"/>
		<path style="fill:#FFFFFF;" d="M418.609,1002.415c-5.601,0-10.62-1.26-15.06-3.78c-4.44-2.52-7.92-6.099-10.44-10.74
			c-2.52-4.639-3.78-10.08-3.78-16.32v-2.16c0-6.319,1.26-11.76,3.78-16.32s5.979-8.1,10.38-10.62c4.398-2.52,9.399-3.78,15-3.78
			h2.4c5.679,0,10.719,1.26,15.12,3.78c4.398,2.52,7.86,6.06,10.38,10.62s3.78,10.001,3.78,16.32v2.16
			c0,6.321-1.26,11.781-3.78,16.38c-2.52,4.601-5.981,8.16-10.38,10.68c-4.401,2.52-9.401,3.78-15,3.78H418.609z M419.689,991.614
			c2.479,0,4.699-0.579,6.66-1.74c1.959-1.159,3.52-2.899,4.68-5.22c1.159-2.319,1.74-5.079,1.74-8.28v-11.76
			c0-3.279-0.581-6.039-1.74-8.28c-1.161-2.239-2.721-3.96-4.68-5.16c-1.961-1.2-4.181-1.8-6.66-1.8c-2.4,0-4.601,0.6-6.6,1.8
			c-2,1.2-3.581,2.921-4.74,5.16c-1.161,2.241-1.74,5-1.74,8.28v11.76c0,3.201,0.58,5.96,1.74,8.28
			c1.159,2.321,2.739,4.062,4.74,5.22C415.088,991.035,417.289,991.614,419.689,991.614z"/>
		<path style="fill:#FFFFFF;" d="M486.168,1002.415c-4.8,0-9.081-1.122-12.84-3.36c-3.761-2.239-6.74-5.719-8.94-10.44
			c-2.201-4.719-3.3-10.719-3.3-18v-1.32c0-6.799,1.099-12.459,3.3-16.98c2.2-4.519,5.14-7.92,8.82-10.2
			c3.679-2.28,7.68-3.42,12-3.42c4.32,0,7.938,0.801,10.86,2.4c2.919,1.602,5.139,3.6,6.66,6v-32.28h16.32v86.4h-12.84l-1.8-8.16
			c-1.92,2.721-4.361,4.961-7.32,6.72C494.127,1001.533,490.488,1002.415,486.168,1002.415z M490.368,991.614
			c2.319,0,4.399-0.559,6.24-1.68c1.839-1.12,3.319-2.859,4.44-5.22c1.12-2.359,1.68-5.379,1.68-9.06v-10.68
			c0-3.36-0.54-6.159-1.62-8.4c-1.08-2.239-2.562-3.939-4.44-5.1c-1.881-1.159-3.981-1.74-6.3-1.74c-3.36,0-6.2,1.301-8.52,3.9
			c-2.321,2.601-3.48,6.381-3.48,11.34v10.68c0,3.681,0.54,6.701,1.62,9.06c1.08,2.361,2.52,4.101,4.32,5.22
			C486.108,991.056,488.127,991.614,490.368,991.614z"/>
		<path style="fill:#FFFFFF;" d="M562.006,1002.415c-5.76,0-10.86-1.182-15.3-3.54c-4.44-2.359-7.901-5.799-10.38-10.32
			c-2.481-4.519-3.72-10.02-3.72-16.5v-3c0-6.48,1.299-11.979,3.9-16.5c2.599-4.519,6.16-7.959,10.68-10.32
			c4.519-2.359,9.66-3.54,15.42-3.54h1.92c5.439,0,10.18,1.101,14.22,3.3c4.039,2.202,7.159,5.28,9.36,9.24
			c2.2,3.96,3.3,8.58,3.3,13.86v7.56h-41.52c0,3.84,0.48,7.2,1.44,10.08s2.4,5.081,4.32,6.6c1.92,1.521,4.44,2.28,7.56,2.28
			c2.56,0,4.8-0.499,6.72-1.5c1.92-1,3.438-2.5,4.56-4.5c1.12-1.999,1.68-4.44,1.68-7.32h15.24c0,4.721-1.2,8.9-3.6,12.54
			c-2.4,3.641-5.7,6.48-9.9,8.52c-4.2,2.04-9.06,3.06-14.58,3.06H562.006z M550.006,964.254h25.32c0-5.04-1.101-8.779-3.3-11.22
			c-2.201-2.439-5.22-3.66-9.06-3.66c-3.6,0-6.621,1.26-9.06,3.78C551.465,955.674,550.166,959.375,550.006,964.254z"/>
		<path style="fill:#FFFFFF;" d="M623.203,1001.214l30.24-82.32h20.88l30.12,82.32h-18.24l-6.36-17.04h-33.36l-6.36,17.04H623.203z
			 M650.803,971.574h24.6l-12-34.2h-0.48L650.803,971.574z"/>
	</g>
</g>
</svg>
