<?xml version="1.0" encoding="iso-8859-1"?>
<!-- Generator: Adobe Illustrator 29.6.0, SVG Export Plug-In . SVG Version: 9.03 Build 0)  -->
<svg version="1.1" xmlns="http://www.w3.org/2000/svg" xmlns:xlink="http://www.w3.org/1999/xlink" x="0px" y="0px"
	 viewBox="0 0 4000 850" style="enable-background:new 0 0 4000 850;" xml:space="preserve">
<g id="Lines">
	
		<polyline style="fill:none;stroke:#0033AD;stroke-width:12.321;stroke-linecap:round;stroke-linejoin:round;stroke-miterlimit:10;" points="
		3922.998,170.983 2729.634,170.983 2248.142,298.844 	"/>
	
		<polyline style="fill:none;stroke:#3B7982;stroke-width:12.321;stroke-linecap:round;stroke-linejoin:round;stroke-miterlimit:10;" points="
		1533.967,475.083 2728.482,228.578 3920.694,228.578 	"/>
	
		<polyline style="fill:none;stroke:#FF5553;stroke-width:12.321;stroke-linecap:round;stroke-linejoin:round;stroke-miterlimit:10;" points="
		372.857,680.121 2722.723,318.426 3919.542,318.426 	"/>
</g>
<g id="text">
	<g>
		<path d="M2019.073,52.291c-0.884-0.862-2.31-1.293-4.281-1.293c-1.15,0-2.136,0.195-2.957,0.585
			c-0.822,0.391-1.447,0.873-1.879,1.448c-0.432,0.576-0.646,1.109-0.646,1.602v0.493h-8.687c-0.083-0.493-0.124-0.862-0.124-1.109
			c0-1.765,0.585-3.347,1.756-4.744c1.17-1.396,2.803-2.484,4.897-3.265c2.095-0.779,4.497-1.17,7.207-1.17h1.294
			c4.436,0,7.803,0.873,10.104,2.618c2.3,1.746,3.45,4.138,3.45,7.177v14.539c0,0.739,0.174,1.293,0.523,1.663
			c0.349,0.37,0.77,0.555,1.263,0.555c0.41,0,0.862-0.082,1.355-0.247c0.492-0.164,0.883-0.308,1.17-0.431v5.544
			c-1.52,0.862-3.326,1.294-5.421,1.294c-2.259,0-3.984-0.462-5.175-1.386c-1.191-0.924-1.89-2.228-2.095-3.912
			c-2.875,3.533-6.406,5.298-10.596,5.298c-3.122,0-5.689-0.636-7.701-1.91c-2.012-1.272-3.018-3.696-3.018-7.269
			c0-2.916,0.832-5.144,2.495-6.684s3.974-2.577,6.931-3.111c2.957-0.533,6.776-0.801,11.459-0.801v-2.095
			C2020.398,54.284,2019.956,53.154,2019.073,52.291z M2011.681,63.965c-1.909,0.76-2.864,2.002-2.864,3.727
			c0,1.355,0.379,2.31,1.14,2.865c0.76,0.554,1.919,0.832,3.48,0.832c1.067,0,2.135-0.287,3.203-0.862
			c1.068-0.575,1.961-1.396,2.681-2.464c0.718-1.067,1.078-2.258,1.078-3.573v-1.663
			C2016.496,62.826,2013.591,63.206,2011.681,63.965z"/>
		<path d="M2066.416,70.28c-1.314,2.259-3.102,4.035-5.359,5.329c-2.26,1.294-4.744,1.941-7.454,1.941h-1.787
			c-2.71,0-5.195-0.647-7.454-1.941c-2.259-1.293-4.035-3.069-5.329-5.329c-1.293-2.258-1.94-4.764-1.94-7.516V48.903
			c0-2.751,0.647-5.256,1.94-7.516c1.294-2.258,3.07-4.045,5.329-5.36c2.259-1.314,4.744-1.971,7.454-1.971h1.787
			c2.71,0,5.194,0.657,7.454,1.971c2.258,1.315,4.045,3.102,5.359,5.36c1.313,2.259,1.972,4.765,1.972,7.516v13.861
			C2068.388,65.516,2067.729,68.022,2066.416,70.28z M2057.391,43.174c-1.253-1.272-2.803-1.91-4.65-1.91
			c-1.849,0-3.399,0.637-4.651,1.91c-1.254,1.273-1.879,2.833-1.879,4.682V63.75c0,1.848,0.625,3.41,1.879,4.682
			c1.252,1.273,2.803,1.91,4.651,1.91c1.848,0,3.397-0.636,4.65-1.91c1.253-1.272,1.879-2.834,1.879-4.682V47.856
			C2059.27,46.007,2058.644,44.447,2057.391,43.174z"/>
		<path d="M2087.978,57.897v-6.53h31.295v6.53H2087.978z M2087.978,71.204v-6.53h31.295v6.53H2087.978z"/>
		<path d="M2168.186,70.28c-1.314,2.259-3.102,4.035-5.359,5.329c-2.26,1.294-4.744,1.941-7.454,1.941h-1.787
			c-2.71,0-5.195-0.647-7.454-1.941c-2.259-1.293-4.035-3.069-5.329-5.329c-1.293-2.258-1.94-4.764-1.94-7.516V48.903
			c0-2.751,0.647-5.256,1.94-7.516c1.294-2.258,3.07-4.045,5.329-5.36c2.259-1.314,4.744-1.971,7.454-1.971h1.787
			c2.71,0,5.194,0.657,7.454,1.971c2.258,1.315,4.045,3.102,5.359,5.36c1.313,2.259,1.972,4.765,1.972,7.516v13.861
			C2170.157,65.516,2169.499,68.022,2168.186,70.28z M2159.16,43.174c-1.253-1.272-2.803-1.91-4.65-1.91
			c-1.849,0-3.399,0.637-4.651,1.91c-1.254,1.273-1.879,2.833-1.879,4.682V63.75c0,1.848,0.625,3.41,1.879,4.682
			c1.252,1.273,2.803,1.91,4.651,1.91c1.848,0,3.397-0.636,4.65-1.91c1.253-1.272,1.879-2.834,1.879-4.682V47.856
			C2161.039,46.007,2160.413,44.447,2159.16,43.174z"/>
		<path d="M2177.364,67.877h8.995v9.056h-8.995V67.877z"/>
		<path d="M2218.762,50.843c2.054,1.212,3.604,2.896,4.651,5.052c1.048,2.156,1.571,4.59,1.571,7.3c0,2.752-0.647,5.216-1.94,7.393
			c-1.294,2.177-3.102,3.881-5.422,5.113c-2.32,1.232-4.98,1.848-7.978,1.848h-0.924c-3.04,0-5.709-0.626-8.009-1.879
			c-2.301-1.252-4.076-2.947-5.329-5.083c-1.253-2.135-1.9-4.518-1.94-7.146h8.44c0.04,1.931,0.748,3.522,2.125,4.774
			c1.375,1.253,2.987,1.879,4.836,1.879c2.095,0,3.789-0.656,5.082-1.971c1.294-1.314,1.94-3.039,1.94-5.175
			c0-1.93-0.585-3.562-1.755-4.897c-1.171-1.334-2.783-2.002-4.836-2.002c-2.876,0-5.073,1.068-6.592,3.203l-7.578-1.109
			l1.726-23.471h25.442v8.008h-18.297l-0.739,9.302c2.505-1.971,5.236-2.957,8.193-2.957
			C2214.265,49.026,2216.708,49.632,2218.762,50.843z"/>
	</g>
	<g>
		<path d="M2040.573,809.317c0,1.438,0.637,2.475,1.91,3.111c1.272,0.637,2.854,0.955,4.743,0.955c1.643,0,3.111-0.247,4.405-0.739
			c1.293-0.493,1.94-1.272,1.94-2.341c0-1.149-0.596-1.972-1.787-2.464s-3.039-0.924-5.544-1.294
			c-2.629-0.451-4.785-0.944-6.469-1.479c-1.685-0.533-3.132-1.457-4.343-2.772c-1.212-1.314-1.817-3.142-1.817-5.483
			c0-2.135,0.625-3.952,1.879-5.452c1.252-1.499,2.915-2.627,4.99-3.388c2.073-0.759,4.343-1.14,6.807-1.14h1.232
			c2.177,0,4.24,0.36,6.191,1.078c1.95,0.719,3.521,1.725,4.713,3.019c1.19,1.294,1.786,2.763,1.786,4.405
			c0,0.329-0.021,0.627-0.062,0.894c-0.041,0.268-0.062,0.421-0.062,0.462h-7.886c0-2.464-1.89-3.696-5.667-3.696
			c-1.726,0-3.111,0.246-4.159,0.739c-1.047,0.493-1.57,1.17-1.57,2.033c0,1.027,0.563,1.746,1.694,2.156
			c1.129,0.411,2.904,0.801,5.328,1.17c2.751,0.453,4.979,0.935,6.685,1.448c1.704,0.514,3.192,1.438,4.466,2.772
			c1.272,1.335,1.91,3.214,1.91,5.637c0,3.738-1.314,6.438-3.942,8.101c-2.629,1.663-5.976,2.495-10.042,2.495h-2.033
			c-2.547,0-4.826-0.391-6.838-1.171c-2.013-0.779-3.584-1.888-4.713-3.327c-1.13-1.437-1.694-3.08-1.694-4.928l0.062-1.232h7.885
			V809.317z"/>
		<path d="M2081.94,819.205c-1.335,0.225-2.517,0.339-3.543,0.339c-3.163,0-5.544-0.678-7.146-2.033s-2.403-3.613-2.403-6.776
			v-17.126h-3.449v-6.16h3.758l3.142-10.042h5.545v10.042h7.331v6.16h-7.331v15.586c0,1.643,0.317,2.752,0.954,3.327
			c0.637,0.576,1.488,0.862,2.557,0.862c0.493,0,1.13-0.082,1.91-0.247c0.779-0.164,1.417-0.348,1.91-0.554v5.791
			C2084.353,818.702,2083.274,818.978,2081.94,819.205z"/>
		<path d="M2108.922,794.285c-0.884-0.862-2.31-1.293-4.281-1.293c-1.15,0-2.136,0.195-2.957,0.585
			c-0.822,0.391-1.447,0.873-1.879,1.448c-0.432,0.576-0.646,1.109-0.646,1.602v0.493h-8.687c-0.083-0.493-0.123-0.862-0.123-1.109
			c0-1.765,0.585-3.347,1.756-4.744c1.17-1.396,2.803-2.484,4.897-3.265c2.095-0.779,4.497-1.17,7.207-1.17h1.294
			c4.436,0,7.803,0.873,10.104,2.618c2.3,1.746,3.45,4.138,3.45,7.177v14.539c0,0.739,0.174,1.293,0.523,1.663
			c0.349,0.37,0.77,0.555,1.263,0.555c0.41,0,0.862-0.082,1.355-0.247c0.492-0.164,0.883-0.308,1.17-0.431v5.544
			c-1.52,0.862-3.326,1.294-5.421,1.294c-2.259,0-3.984-0.462-5.175-1.386c-1.191-0.924-1.89-2.228-2.095-3.912
			c-2.875,3.533-6.406,5.298-10.596,5.298c-3.122,0-5.689-0.636-7.701-1.91c-2.013-1.272-3.019-3.696-3.019-7.269
			c0-2.916,0.832-5.144,2.495-6.684s3.974-2.577,6.931-3.111c2.957-0.533,6.776-0.801,11.459-0.801v-2.095
			C2110.247,796.278,2109.805,795.148,2108.922,794.285z M2101.529,805.96c-1.909,0.76-2.864,2.002-2.864,3.727
			c0,1.355,0.379,2.31,1.14,2.865c0.76,0.554,1.919,0.832,3.48,0.832c1.067,0,2.135-0.287,3.203-0.862
			c1.068-0.575,1.961-1.396,2.681-2.464c0.718-1.067,1.078-2.258,1.078-3.573v-1.663
			C2106.345,804.82,2103.439,805.2,2101.529,805.96z"/>
		<path d="M2147.764,818.927l-7.455-10.288l-3.511,3.388v6.9h-8.994v-44.355h8.994v27.537l11.027-14.662h10.164l-11.581,14.785
			l12.074,16.695H2147.764z"/>
		<path d="M2189.654,814.091c-1.314,1.869-3.049,3.245-5.205,4.127s-4.508,1.325-7.054,1.325h-0.986
			c-2.916,0-5.544-0.616-7.885-1.848c-2.341-1.232-4.18-3.008-5.514-5.329c-1.335-2.32-2.002-5.083-2.002-8.286v-1.787
			c0-3.162,0.678-5.914,2.032-8.255c1.355-2.341,3.193-4.128,5.514-5.36s4.938-1.848,7.854-1.848h0.986
			c2.546,0,4.907,0.524,7.084,1.571c2.177,1.047,3.922,2.567,5.236,4.559c1.314,1.992,1.972,4.343,1.972,7.054v4.682h-21.562v1.479
			c0,2.054,0.605,3.769,1.817,5.144c1.211,1.376,2.864,2.064,4.959,2.064c1.889,0,3.378-0.523,4.467-1.571
			c1.087-1.047,1.632-2.597,1.632-4.651h8.625C2191.626,809.913,2190.969,812.223,2189.654,814.091z M2172.066,794.901
			c-1.13,1.273-1.777,2.896-1.94,4.867h12.444c0-2.095-0.483-3.747-1.448-4.959c-0.965-1.211-2.516-1.817-4.651-1.817
			C2174.663,792.992,2173.195,793.629,2172.066,794.901z"/>
	</g>
	<g>
		<path d="M57.023,507.09c-1.272,0-2.372,0.35-3.296,1.047c-0.924,0.699-1.386,1.808-1.386,3.327c0,1.438,0.565,2.537,1.694,3.296
			c1.13,0.76,2.536,1.14,4.22,1.14h19.467v8.871h-31.48v-6.653l4.62-1.109c-0.451-0.164-1.087-0.585-1.91-1.263
			c-0.821-0.678-1.581-1.664-2.279-2.957c-0.698-1.294-1.047-2.823-1.047-4.59c0-2.834,0.884-5.021,2.649-6.561
			c1.767-1.54,4.107-2.31,7.023-2.31c0.616,0,1.232,0.031,1.848,0.092c0.616,0.062,1.047,0.114,1.294,0.154v7.516H57.023z"/>
		<path d="M72.887,467.417c1.869,1.315,3.245,3.05,4.127,5.206c0.883,2.156,1.325,4.508,1.325,7.054v0.986
			c0,2.917-0.616,5.544-1.848,7.885c-1.232,2.341-3.008,4.18-5.329,5.514c-2.32,1.335-5.083,2.002-8.286,2.002h-1.787
			c-3.162,0-5.914-0.678-8.255-2.033c-2.341-1.355-4.128-3.193-5.36-5.514c-1.232-2.32-1.848-4.938-1.848-7.854v-0.986
			c0-2.546,0.524-4.907,1.571-7.084c1.047-2.176,2.567-3.921,4.559-5.236c1.992-1.314,4.343-1.971,7.054-1.971h4.682v21.562h1.479
			c2.054,0,3.769-0.605,5.144-1.817c1.376-1.211,2.064-2.864,2.064-4.959c0-1.889-0.523-3.378-1.571-4.466
			c-1.047-1.088-2.597-1.633-4.651-1.633v-8.625C68.708,465.445,71.019,466.103,72.887,467.417z M53.697,485.005
			c1.273,1.13,2.896,1.777,4.867,1.94v-12.444c-2.095,0-3.747,0.483-4.959,1.448c-1.211,0.966-1.817,2.517-1.817,4.651
			C51.787,482.408,52.424,483.876,53.697,485.005z"/>
		<path d="M77.723,442.713v10.042l-31.48,9.61v-9.302l19.467-5.421v-0.37c-3.778-1.067-6.612-1.889-8.501-2.464l-10.965-3.142
			v-8.994l19.467-5.483v-0.37c-8.625-2.464-15.113-4.291-19.467-5.483v-8.748l31.48,9.61v9.918l-17.558,5.175v0.37
			C67.969,439.879,73.821,441.564,77.723,442.713z"/>
		<path d="M53.081,391.119c-0.862,0.884-1.293,2.311-1.293,4.282c0,1.15,0.195,2.136,0.585,2.957
			c0.391,0.822,0.873,1.448,1.448,1.879c0.576,0.431,1.109,0.647,1.602,0.647h0.493v8.686c-0.493,0.083-0.862,0.124-1.109,0.124
			c-1.765,0-3.347-0.585-4.744-1.756c-1.396-1.17-2.484-2.803-3.265-4.897c-0.779-2.095-1.17-4.498-1.17-7.208v-1.293
			c0-4.436,0.873-7.803,2.618-10.104c1.746-2.299,4.138-3.45,7.177-3.45H69.96c0.739,0,1.293-0.174,1.663-0.523
			c0.37-0.349,0.555-0.77,0.555-1.263c0-0.41-0.082-0.862-0.247-1.355c-0.164-0.493-0.308-0.882-0.431-1.17h5.544
			c0.862,1.52,1.294,3.327,1.294,5.421c0,2.259-0.462,3.984-1.386,5.175c-0.924,1.192-2.228,1.89-3.912,2.095
			c3.533,2.875,5.298,6.407,5.298,10.596c0,3.122-0.636,5.689-1.91,7.701c-1.272,2.013-3.696,3.019-7.269,3.019
			c-2.916,0-5.144-0.832-6.684-2.495c-1.54-1.664-2.577-3.974-3.111-6.931c-0.533-2.957-0.801-6.776-0.801-11.458h-2.095
			C55.073,389.795,53.943,390.237,53.081,391.119z M64.755,398.512c0.76,1.91,2.002,2.865,3.727,2.865
			c1.355,0,2.31-0.379,2.865-1.14c0.554-0.759,0.832-1.919,0.832-3.48c0-1.068-0.287-2.135-0.862-3.204
			c-0.575-1.067-1.396-1.961-2.464-2.68c-1.067-0.718-2.258-1.078-3.573-1.078h-1.663C63.615,393.697,63.996,396.602,64.755,398.512
			z"/>
		<path d="M57.023,354.558c-1.272,0-2.372,0.35-3.296,1.047c-0.924,0.699-1.386,1.808-1.386,3.327c0,1.438,0.565,2.537,1.694,3.296
			c1.13,0.76,2.536,1.14,4.22,1.14h19.467v8.871h-31.48v-6.653l4.62-1.109c-0.451-0.164-1.087-0.585-1.91-1.263
			c-0.821-0.678-1.581-1.664-2.279-2.957c-0.698-1.294-1.047-2.823-1.047-4.59c0-2.834,0.884-5.021,2.649-6.561
			c1.767-1.54,4.107-2.31,7.023-2.31c0.616,0,1.232,0.031,1.848,0.092c0.616,0.062,1.047,0.114,1.294,0.154v7.516H57.023z"/>
		<path d="M73.78,321.599c3.04,2.301,4.559,5.258,4.559,8.871c0,2.464-0.596,4.682-1.787,6.654
			c-1.191,1.971-2.998,3.532-5.421,4.682c-2.423,1.15-5.421,1.725-8.994,1.725h-0.678c-3.409,0-6.304-0.533-8.687-1.602
			c-2.381-1.067-4.167-2.515-5.359-4.343c-1.191-1.827-1.787-3.891-1.787-6.191c0-1.971,0.411-3.706,1.232-5.206
			c0.822-1.499,1.828-2.7,3.019-3.604h-16.51v-8.994h44.355v7.084L73.78,321.599z M70.238,332.75c1.293-1.109,1.94-2.526,1.94-4.251
			c0-1.725-0.647-3.142-1.94-4.25c-1.294-1.109-3.131-1.664-5.514-1.664h-5.113c-2.423,0-4.271,0.555-5.544,1.664
			c-1.272,1.109-1.91,2.526-1.91,4.25c0,1.725,0.637,3.142,1.91,4.251c1.273,1.109,3.122,1.663,5.544,1.663h5.113
			C67.106,334.413,68.944,333.858,70.238,332.75z"/>
	</g>
	
		<rect x="332.175" y="141.051" style="fill:none;stroke:#999999;stroke-width:6.0849;stroke-miterlimit:10;" width="3593.615" height="533.908"/>
	<g>
		
			<line style="fill:none;stroke:#999999;stroke-width:6.1605;stroke-miterlimit:10;" x1="814.882" y1="164.98" x2="814.882" y2="139.312"/>
		
			<line style="fill:none;stroke:#999999;stroke-width:6.1605;stroke-miterlimit:10;" x1="814.882" y1="674.959" x2="814.882" y2="649.291"/>
	</g>
	<g>
		
			<line style="fill:none;stroke:#999999;stroke-width:6.0483;stroke-miterlimit:10;" x1="331.149" y1="191.914" x2="372.219" y2="191.914"/>
		
			<line style="fill:none;stroke:#999999;stroke-width:6.0483;stroke-miterlimit:10;" x1="331.149" y1="245.626" x2="372.219" y2="245.626"/>
		
			<line style="fill:none;stroke:#999999;stroke-width:6.0483;stroke-miterlimit:10;" x1="331.149" y1="299.337" x2="372.219" y2="299.337"/>
		
			<line style="fill:none;stroke:#999999;stroke-width:6.0483;stroke-miterlimit:10;" x1="331.149" y1="353.049" x2="372.219" y2="353.049"/>
		
			<line style="fill:none;stroke:#999999;stroke-width:6.0483;stroke-miterlimit:10;" x1="331.149" y1="406.76" x2="372.219" y2="406.76"/>
		
			<line style="fill:none;stroke:#999999;stroke-width:6.0483;stroke-miterlimit:10;" x1="331.149" y1="460.472" x2="372.219" y2="460.472"/>
		
			<line style="fill:none;stroke:#999999;stroke-width:6.0483;stroke-miterlimit:10;" x1="331.149" y1="514.183" x2="372.219" y2="514.183"/>
		
			<line style="fill:none;stroke:#999999;stroke-width:6.0483;stroke-miterlimit:10;" x1="331.149" y1="567.894" x2="372.219" y2="567.894"/>
		
			<line style="fill:none;stroke:#999999;stroke-width:6.0483;stroke-miterlimit:10;" x1="330.754" y1="621.606" x2="371.824" y2="621.606"/>
	</g>
	<g>
		
			<line style="fill:none;stroke:#999999;stroke-width:6.0483;stroke-miterlimit:10;" x1="3884.72" y1="191.914" x2="3925.79" y2="191.914"/>
		
			<line style="fill:none;stroke:#999999;stroke-width:6.0483;stroke-miterlimit:10;" x1="3884.72" y1="245.626" x2="3925.79" y2="245.626"/>
		
			<line style="fill:none;stroke:#999999;stroke-width:6.0483;stroke-miterlimit:10;" x1="3884.72" y1="299.337" x2="3925.79" y2="299.337"/>
		
			<line style="fill:none;stroke:#999999;stroke-width:6.0483;stroke-miterlimit:10;" x1="3884.72" y1="353.049" x2="3925.79" y2="353.049"/>
		
			<line style="fill:none;stroke:#999999;stroke-width:6.0483;stroke-miterlimit:10;" x1="3884.72" y1="406.76" x2="3925.79" y2="406.76"/>
		
			<line style="fill:none;stroke:#999999;stroke-width:6.0483;stroke-miterlimit:10;" x1="3884.72" y1="460.472" x2="3925.79" y2="460.472"/>
		
			<line style="fill:none;stroke:#999999;stroke-width:6.0483;stroke-miterlimit:10;" x1="3884.72" y1="514.183" x2="3925.79" y2="514.183"/>
		
			<line style="fill:none;stroke:#999999;stroke-width:6.0483;stroke-miterlimit:10;" x1="3884.72" y1="567.894" x2="3925.79" y2="567.894"/>
		
			<line style="fill:none;stroke:#999999;stroke-width:6.0483;stroke-miterlimit:10;" x1="3884.324" y1="621.606" x2="3925.394" y2="621.606"/>
	</g>
	<g>
		<path d="M332.605,744.2c-2.67,0-5.093-0.616-7.269-1.848c-2.178-1.232-3.902-2.936-5.175-5.113
			c-1.273-2.176-1.91-4.661-1.91-7.454v-14.662c0-2.792,0.636-5.277,1.91-7.454c1.272-2.176,2.997-3.881,5.175-5.113
			c2.176-1.232,4.599-1.848,7.269-1.848h1.417c2.71,0,5.144,0.616,7.3,1.848s3.86,2.937,5.113,5.113
			c1.252,2.177,1.879,4.662,1.879,7.454v14.662c0,2.793-0.627,5.278-1.879,7.454c-1.253,2.177-2.957,3.881-5.113,5.113
			c-2.156,1.232-4.59,1.848-7.3,1.848H332.605z M333.283,738.593c1.479,0,2.803-0.348,3.974-1.047
			c1.17-0.698,2.095-1.642,2.772-2.834c0.678-1.191,1.017-2.526,1.017-4.004v-16.51c0-1.519-0.339-2.864-1.017-4.035
			c-0.677-1.171-1.602-2.104-2.772-2.803c-1.17-0.698-2.495-1.047-3.974-1.047s-2.803,0.35-3.974,1.047
			c-1.17,0.699-2.094,1.632-2.772,2.803c-0.678,1.17-1.017,2.516-1.017,4.035v16.51c0,1.479,0.339,2.813,1.017,4.004
			c0.678,1.192,1.602,2.136,2.772,2.834C330.48,738.245,331.804,738.593,333.283,738.593z"/>
	</g>
	<g>
		<path d="M769.164,744.2c-2.67,0-5.093-0.616-7.269-1.848c-2.178-1.232-3.902-2.936-5.175-5.113
			c-1.273-2.176-1.91-4.661-1.91-7.454v-14.662c0-2.792,0.636-5.277,1.91-7.454c1.272-2.176,2.997-3.881,5.175-5.113
			c2.176-1.232,4.599-1.848,7.269-1.848h1.417c2.71,0,5.144,0.616,7.3,1.848s3.86,2.937,5.113,5.113
			c1.252,2.177,1.879,4.662,1.879,7.454v14.662c0,2.793-0.627,5.278-1.879,7.454c-1.253,2.177-2.957,3.881-5.113,5.113
			c-2.156,1.232-4.59,1.848-7.3,1.848H769.164z M769.842,738.593c1.479,0,2.803-0.348,3.974-1.047
			c1.17-0.698,2.095-1.642,2.772-2.834c0.678-1.191,1.017-2.526,1.017-4.004v-16.51c0-1.519-0.339-2.864-1.017-4.035
			c-0.677-1.171-1.602-2.104-2.772-2.803c-1.17-0.698-2.495-1.047-3.974-1.047s-2.803,0.35-3.974,1.047
			c-1.17,0.699-2.094,1.632-2.772,2.803c-0.678,1.17-1.017,2.516-1.017,4.035v16.51c0,1.479,0.339,2.813,1.017,4.004
			c0.678,1.192,1.602,2.136,2.772,2.834C767.039,738.245,768.363,738.593,769.842,738.593z"/>
		<path d="M793.128,743.584v-7.393h7.454v7.393H793.128z"/>
		<path d="M823.067,744.2c-2.67,0-5.093-0.616-7.269-1.848c-2.178-1.232-3.902-2.936-5.175-5.113
			c-1.273-2.176-1.91-4.661-1.91-7.454v-14.662c0-2.792,0.636-5.277,1.91-7.454c1.272-2.176,2.997-3.881,5.175-5.113
			c2.176-1.232,4.599-1.848,7.269-1.848h1.417c2.71,0,5.144,0.616,7.3,1.848s3.86,2.937,5.113,5.113
			c1.252,2.177,1.879,4.662,1.879,7.454v14.662c0,2.793-0.627,5.278-1.879,7.454c-1.253,2.177-2.957,3.881-5.113,5.113
			c-2.156,1.232-4.59,1.848-7.3,1.848H823.067z M823.745,738.593c1.479,0,2.803-0.348,3.974-1.047
			c1.17-0.698,2.095-1.642,2.772-2.834c0.678-1.191,1.017-2.526,1.017-4.004v-16.51c0-1.519-0.339-2.864-1.017-4.035
			c-0.677-1.171-1.602-2.104-2.772-2.803c-1.17-0.698-2.495-1.047-3.974-1.047s-2.803,0.35-3.974,1.047
			c-1.17,0.699-2.094,1.632-2.772,2.803c-0.678,1.17-1.017,2.516-1.017,4.035v16.51c0,1.479,0.339,2.813,1.017,4.004
			c0.678,1.192,1.602,2.136,2.772,2.834C820.942,738.245,822.267,738.593,823.745,738.593z"/>
		<path d="M846.415,743.584v-1.848c0-2.546,0.555-4.805,1.663-6.776c1.109-1.972,2.711-3.696,4.806-5.175l11.582-8.194
			c1.314-0.944,2.412-2.063,3.296-3.357c0.882-1.293,1.324-2.823,1.324-4.589c0-2.218-0.657-3.943-1.971-5.175
			c-1.315-1.232-3.225-1.848-5.729-1.848c-1.52,0-2.875,0.339-4.065,1.017c-1.192,0.678-2.136,1.602-2.834,2.772
			c-0.699,1.17-1.047,2.495-1.047,3.974c0,0.288,0,0.554,0,0.801s0.02,0.493,0.062,0.739h-6.715c0-0.247,0-0.451,0-0.616
			c0-0.164,0-0.328,0-0.493c0-2.751,0.625-5.185,1.879-7.3c1.252-2.115,2.998-3.778,5.236-4.99c2.238-1.211,4.815-1.817,7.731-1.817
			h0.924c2.916,0,5.411,0.534,7.485,1.602c2.073,1.069,3.655,2.547,4.744,4.436c1.087,1.89,1.632,4.107,1.632,6.653
			c0,2.136-0.36,4.004-1.078,5.606c-0.719,1.602-1.705,3.019-2.957,4.251c-1.253,1.232-2.66,2.403-4.22,3.511l-10.288,7.27
			c-0.411,0.288-0.832,0.616-1.263,0.986c-0.432,0.37-0.792,0.75-1.078,1.14c-0.288,0.391-0.473,0.791-0.555,1.201h21.624v6.222
			H846.415z"/>
	</g>
	<g>
		
			<line style="fill:none;stroke:#999999;stroke-width:6.1605;stroke-miterlimit:10;" x1="1289.466" y1="164.98" x2="1289.466" y2="139.312"/>
		
			<line style="fill:none;stroke:#999999;stroke-width:6.1605;stroke-miterlimit:10;" x1="1289.466" y1="674.959" x2="1289.466" y2="649.291"/>
	</g>
	<g>
		<path d="M1243.749,744.2c-2.67,0-5.093-0.616-7.269-1.848c-2.178-1.232-3.902-2.936-5.175-5.113
			c-1.273-2.176-1.91-4.661-1.91-7.454v-14.662c0-2.792,0.636-5.277,1.91-7.454c1.272-2.176,2.997-3.881,5.175-5.113
			c2.176-1.232,4.599-1.848,7.269-1.848h1.417c2.71,0,5.144,0.616,7.3,1.848s3.86,2.937,5.113,5.113
			c1.252,2.177,1.879,4.662,1.879,7.454v14.662c0,2.793-0.627,5.278-1.879,7.454c-1.253,2.177-2.957,3.881-5.113,5.113
			c-2.156,1.232-4.59,1.848-7.3,1.848H1243.749z M1244.426,738.593c1.479,0,2.803-0.348,3.974-1.047
			c1.17-0.698,2.095-1.642,2.772-2.834c0.678-1.191,1.017-2.526,1.017-4.004v-16.51c0-1.519-0.339-2.864-1.017-4.035
			c-0.677-1.171-1.602-2.104-2.772-2.803c-1.17-0.698-2.495-1.047-3.974-1.047s-2.803,0.35-3.974,1.047
			c-1.17,0.699-2.094,1.632-2.772,2.803c-0.678,1.17-1.017,2.516-1.017,4.035v16.51c0,1.479,0.339,2.813,1.017,4.004
			c0.678,1.192,1.602,2.136,2.772,2.834C1241.624,738.245,1242.948,738.593,1244.426,738.593z"/>
		<path d="M1267.712,743.584v-7.393h7.454v7.393H1267.712z"/>
		<path d="M1297.652,744.2c-2.67,0-5.093-0.616-7.269-1.848c-2.178-1.232-3.902-2.936-5.175-5.113
			c-1.273-2.176-1.91-4.661-1.91-7.454v-14.662c0-2.792,0.636-5.277,1.91-7.454c1.272-2.176,2.997-3.881,5.175-5.113
			c2.176-1.232,4.599-1.848,7.269-1.848h1.417c2.71,0,5.144,0.616,7.3,1.848s3.86,2.937,5.113,5.113
			c1.252,2.177,1.879,4.662,1.879,7.454v14.662c0,2.793-0.627,5.278-1.879,7.454c-1.253,2.177-2.957,3.881-5.113,5.113
			c-2.156,1.232-4.59,1.848-7.3,1.848H1297.652z M1298.33,738.593c1.479,0,2.803-0.348,3.974-1.047
			c1.17-0.698,2.095-1.642,2.772-2.834c0.678-1.191,1.017-2.526,1.017-4.004v-16.51c0-1.519-0.339-2.864-1.017-4.035
			c-0.677-1.171-1.602-2.104-2.772-2.803c-1.17-0.698-2.495-1.047-3.974-1.047s-2.803,0.35-3.974,1.047
			c-1.17,0.699-2.094,1.632-2.772,2.803c-0.678,1.17-1.017,2.516-1.017,4.035v16.51c0,1.479,0.339,2.813,1.017,4.004
			c0.678,1.192,1.602,2.136,2.772,2.834C1295.527,738.245,1296.851,738.593,1298.33,738.593z"/>
		<path d="M1339.542,743.584v-10.534h-19.529v-5.729c0.575-0.903,1.283-2.125,2.125-3.666c0.841-1.54,1.745-3.274,2.71-5.206
			c0.965-1.93,1.919-3.952,2.865-6.068c0.944-2.115,1.827-4.179,2.649-6.191c0.821-2.012,1.499-3.84,2.033-5.483h6.715
			c-0.453,1.766-1.089,3.666-1.91,5.698c-0.822,2.033-1.725,4.097-2.711,6.191c-0.985,2.095-2.023,4.097-3.111,6.006
			c-1.089,1.91-2.125,3.625-3.111,5.144c-0.986,1.52-1.89,2.732-2.711,3.635h13.984V715.8c0.328-0.493,0.688-1.14,1.078-1.94
			c0.39-0.801,0.791-1.633,1.201-2.495c0.41-0.863,0.78-1.704,1.109-2.526c0.329-0.821,0.575-1.519,0.739-2.095h2.957v20.638h5.483
			v5.668h-5.483v10.534H1339.542z"/>
	</g>
	<g>
		
			<line style="fill:none;stroke:#999999;stroke-width:6.1605;stroke-miterlimit:10;" x1="1770.439" y1="164.98" x2="1770.439" y2="139.312"/>
		
			<line style="fill:none;stroke:#999999;stroke-width:6.1605;stroke-miterlimit:10;" x1="1770.439" y1="674.959" x2="1770.439" y2="649.291"/>
	</g>
	<g>
		<path d="M1724.721,744.2c-2.67,0-5.093-0.616-7.269-1.848c-2.178-1.232-3.902-2.936-5.175-5.113
			c-1.273-2.176-1.91-4.661-1.91-7.454v-14.662c0-2.792,0.636-5.277,1.91-7.454c1.272-2.176,2.997-3.881,5.175-5.113
			c2.176-1.232,4.599-1.848,7.269-1.848h1.417c2.71,0,5.144,0.616,7.3,1.848s3.86,2.937,5.113,5.113
			c1.252,2.177,1.879,4.662,1.879,7.454v14.662c0,2.793-0.627,5.278-1.879,7.454c-1.253,2.177-2.957,3.881-5.113,5.113
			c-2.156,1.232-4.59,1.848-7.3,1.848H1724.721z M1725.399,738.593c1.479,0,2.803-0.348,3.974-1.047
			c1.17-0.698,2.095-1.642,2.772-2.834c0.678-1.191,1.017-2.526,1.017-4.004v-16.51c0-1.519-0.339-2.864-1.017-4.035
			c-0.677-1.171-1.602-2.104-2.772-2.803c-1.17-0.698-2.495-1.047-3.974-1.047s-2.803,0.35-3.974,1.047
			c-1.17,0.699-2.094,1.632-2.772,2.803c-0.678,1.17-1.017,2.516-1.017,4.035v16.51c0,1.479,0.339,2.813,1.017,4.004
			c0.678,1.192,1.602,2.136,2.772,2.834C1722.596,738.245,1723.92,738.593,1725.399,738.593z"/>
		<path d="M1748.685,743.584v-7.393h7.454v7.393H1748.685z"/>
		<path d="M1778.625,744.2c-2.67,0-5.093-0.616-7.269-1.848c-2.178-1.232-3.902-2.936-5.175-5.113
			c-1.273-2.176-1.91-4.661-1.91-7.454v-14.662c0-2.792,0.636-5.277,1.91-7.454c1.272-2.176,2.997-3.881,5.175-5.113
			c2.176-1.232,4.599-1.848,7.269-1.848h1.417c2.71,0,5.144,0.616,7.3,1.848s3.86,2.937,5.113,5.113
			c1.252,2.177,1.879,4.662,1.879,7.454v14.662c0,2.793-0.627,5.278-1.879,7.454c-1.253,2.177-2.957,3.881-5.113,5.113
			c-2.156,1.232-4.59,1.848-7.3,1.848H1778.625z M1779.302,738.593c1.479,0,2.803-0.348,3.974-1.047
			c1.17-0.698,2.095-1.642,2.772-2.834c0.678-1.191,1.017-2.526,1.017-4.004v-16.51c0-1.519-0.339-2.864-1.017-4.035
			c-0.677-1.171-1.602-2.104-2.772-2.803c-1.17-0.698-2.495-1.047-3.974-1.047s-2.803,0.35-3.974,1.047
			c-1.17,0.699-2.094,1.632-2.772,2.803c-0.678,1.17-1.017,2.516-1.017,4.035v16.51c0,1.479,0.339,2.813,1.017,4.004
			c0.678,1.192,1.602,2.136,2.772,2.834C1776.5,738.245,1777.824,738.593,1779.302,738.593z"/>
		<path d="M1816.88,744.2c-2.752,0-5.206-0.616-7.362-1.848c-2.156-1.232-3.85-2.926-5.082-5.083
			c-1.232-2.156-1.848-4.651-1.848-7.485v-14.662c0-2.834,0.636-5.338,1.91-7.516c1.272-2.177,2.998-3.871,5.175-5.083
			c2.176-1.211,4.641-1.817,7.393-1.817h0.862c2.628,0,4.979,0.555,7.054,1.663c2.074,1.109,3.727,2.69,4.959,4.744
			c1.232,2.054,1.848,4.539,1.848,7.454h-6.653c0-2.546-0.719-4.537-2.156-5.976c-1.438-1.437-3.245-2.156-5.421-2.156
			c-1.479,0-2.803,0.338-3.974,1.016c-1.17,0.678-2.094,1.602-2.772,2.772s-1.017,2.495-1.017,3.973v7.146
			c1.149-1.437,2.587-2.536,4.312-3.296c1.725-0.759,3.429-1.14,5.113-1.14c2.504,0,4.774,0.534,6.807,1.602
			c2.033,1.068,3.645,2.587,4.836,4.559c1.191,1.972,1.787,4.312,1.787,7.023c0,2.834-0.668,5.309-2.002,7.424
			c-1.335,2.116-3.132,3.758-5.391,4.928c-2.259,1.17-4.765,1.756-7.516,1.756H1816.88z M1817.681,738.717
			c1.643,0,3.039-0.359,4.189-1.078c1.149-0.718,2.042-1.714,2.68-2.988c0.636-1.272,0.955-2.751,0.955-4.436
			c0-1.725-0.33-3.224-0.986-4.497c-0.657-1.272-1.571-2.249-2.741-2.926c-1.171-0.678-2.537-1.017-4.097-1.017
			c-1.602,0-2.988,0.35-4.158,1.047c-1.17,0.699-2.085,1.674-2.741,2.926c-0.658,1.253-0.986,2.721-0.986,4.405
			c0,1.766,0.328,3.286,0.986,4.559c0.656,1.273,1.581,2.259,2.772,2.957C1814.745,738.368,1816.12,738.717,1817.681,738.717z"/>
	</g>
	<g>
		
			<line style="fill:none;stroke:#999999;stroke-width:6.1605;stroke-miterlimit:10;" x1="2251.412" y1="164.98" x2="2251.412" y2="139.312"/>
		
			<line style="fill:none;stroke:#999999;stroke-width:6.1605;stroke-miterlimit:10;" x1="2251.412" y1="674.959" x2="2251.412" y2="649.291"/>
	</g>
	<g>
		<path d="M2205.694,744.2c-2.671,0-5.094-0.616-7.27-1.848c-2.178-1.232-3.902-2.936-5.175-5.113
			c-1.273-2.176-1.91-4.661-1.91-7.454v-14.662c0-2.792,0.637-5.277,1.91-7.454c1.272-2.176,2.997-3.881,5.175-5.113
			c2.176-1.232,4.599-1.848,7.27-1.848h1.417c2.71,0,5.144,0.616,7.3,1.848s3.86,2.937,5.113,5.113
			c1.252,2.177,1.879,4.662,1.879,7.454v14.662c0,2.793-0.627,5.278-1.879,7.454c-1.253,2.177-2.957,3.881-5.113,5.113
			c-2.156,1.232-4.59,1.848-7.3,1.848H2205.694z M2206.372,738.593c1.479,0,2.803-0.348,3.973-1.047
			c1.171-0.698,2.095-1.642,2.772-2.834c0.678-1.191,1.017-2.526,1.017-4.004v-16.51c0-1.519-0.339-2.864-1.017-4.035
			c-0.678-1.171-1.602-2.104-2.772-2.803c-1.17-0.698-2.494-1.047-3.973-1.047s-2.804,0.35-3.974,1.047
			c-1.171,0.699-2.095,1.632-2.772,2.803c-0.678,1.17-1.017,2.516-1.017,4.035v16.51c0,1.479,0.339,2.813,1.017,4.004
			c0.678,1.192,1.602,2.136,2.772,2.834C2203.568,738.245,2204.894,738.593,2206.372,738.593z"/>
		<path d="M2229.658,743.584v-7.393h7.454v7.393H2229.658z"/>
		<path d="M2259.598,744.2c-2.671,0-5.094-0.616-7.27-1.848c-2.178-1.232-3.902-2.936-5.175-5.113
			c-1.273-2.176-1.91-4.661-1.91-7.454v-14.662c0-2.792,0.637-5.277,1.91-7.454c1.272-2.176,2.997-3.881,5.175-5.113
			c2.176-1.232,4.599-1.848,7.27-1.848h1.417c2.71,0,5.144,0.616,7.3,1.848s3.86,2.937,5.113,5.113
			c1.252,2.177,1.879,4.662,1.879,7.454v14.662c0,2.793-0.627,5.278-1.879,7.454c-1.253,2.177-2.957,3.881-5.113,5.113
			c-2.156,1.232-4.59,1.848-7.3,1.848H2259.598z M2260.275,738.593c1.479,0,2.803-0.348,3.973-1.047
			c1.171-0.698,2.095-1.642,2.772-2.834c0.678-1.191,1.017-2.526,1.017-4.004v-16.51c0-1.519-0.339-2.864-1.017-4.035
			c-0.678-1.171-1.602-2.104-2.772-2.803c-1.17-0.698-2.494-1.047-3.973-1.047s-2.804,0.35-3.974,1.047
			c-1.171,0.699-2.095,1.632-2.772,2.803c-0.678,1.17-1.017,2.516-1.017,4.035v16.51c0,1.479,0.339,2.813,1.017,4.004
			c0.678,1.192,1.602,2.136,2.772,2.834C2257.472,738.245,2258.797,738.593,2260.275,738.593z"/>
		<path d="M2297.915,744.2c-2.957,0-5.555-0.453-7.793-1.355s-3.984-2.258-5.236-4.066c-1.253-1.807-1.879-4.024-1.879-6.653
			c0-2.669,0.646-4.794,1.94-6.376c1.294-1.581,2.967-2.823,5.021-3.727v-0.247c-1.602-0.821-2.926-1.971-3.973-3.45
			c-1.048-1.479-1.571-3.409-1.571-5.791c0-2.546,0.616-4.691,1.849-6.438c1.231-1.745,2.915-3.081,5.051-4.004
			c2.136-0.924,4.518-1.386,7.146-1.386c2.628,0,4.959,0.462,6.992,1.386c2.033,0.924,3.624,2.259,4.774,4.004
			c1.149,1.746,1.725,3.892,1.725,6.438c0,1.602-0.246,2.999-0.739,4.189c-0.492,1.192-1.15,2.198-1.971,3.019
			c-0.822,0.822-1.767,1.5-2.834,2.033v0.247c2.095,1.027,3.778,2.279,5.052,3.758c1.272,1.479,1.909,3.594,1.909,6.345
			c0,2.505-0.627,4.662-1.879,6.468c-1.253,1.808-3.029,3.194-5.329,4.159C2303.87,743.716,2301.119,744.2,2297.915,744.2z
			 M2298.224,738.963c2.669,0,4.65-0.667,5.944-2.002c1.294-1.334,1.94-3.131,1.94-5.391c0-2.299-0.698-4.086-2.094-5.359
			c-1.397-1.272-3.327-1.91-5.791-1.91c-2.506,0-4.446,0.657-5.822,1.971c-1.376,1.315-2.063,3.08-2.063,5.298
			c0,2.301,0.646,4.107,1.94,5.421C2293.572,738.307,2295.553,738.963,2298.224,738.963z M2298.162,719.681
			c2.053,0,3.747-0.595,5.082-1.787c1.334-1.19,2.002-2.895,2.002-5.113s-0.637-3.922-1.909-5.113
			c-1.273-1.191-2.999-1.787-5.175-1.787c-2.178,0-3.893,0.606-5.145,1.817c-1.253,1.212-1.879,2.906-1.879,5.083
			c0,2.218,0.667,3.922,2.002,5.113C2294.475,719.086,2296.149,719.681,2298.162,719.681z"/>
	</g>
	<g>
		
			<line style="fill:none;stroke:#999999;stroke-width:6.1605;stroke-miterlimit:10;" x1="2728.734" y1="164.98" x2="2728.734" y2="139.312"/>
		
			<line style="fill:none;stroke:#999999;stroke-width:6.1605;stroke-miterlimit:10;" x1="2728.734" y1="674.959" x2="2728.734" y2="649.291"/>
	</g>
	<g>
		<path d="M2701.96,744.2c-2.671,0-5.094-0.616-7.27-1.848c-2.178-1.232-3.902-2.936-5.175-5.113
			c-1.273-2.176-1.91-4.661-1.91-7.454v-14.662c0-2.792,0.637-5.277,1.91-7.454c1.272-2.176,2.997-3.881,5.175-5.113
			c2.176-1.232,4.599-1.848,7.27-1.848h1.417c2.71,0,5.144,0.616,7.3,1.848s3.86,2.937,5.113,5.113
			c1.252,2.177,1.879,4.662,1.879,7.454v14.662c0,2.793-0.627,5.278-1.879,7.454c-1.253,2.177-2.957,3.881-5.113,5.113
			c-2.156,1.232-4.59,1.848-7.3,1.848H2701.96z M2702.638,738.593c1.479,0,2.803-0.348,3.973-1.047
			c1.171-0.698,2.095-1.642,2.772-2.834c0.678-1.191,1.017-2.526,1.017-4.004v-16.51c0-1.519-0.339-2.864-1.017-4.035
			c-0.678-1.171-1.602-2.104-2.772-2.803c-1.17-0.698-2.494-1.047-3.973-1.047s-2.804,0.35-3.974,1.047
			c-1.171,0.699-2.095,1.632-2.772,2.803c-0.678,1.17-1.017,2.516-1.017,4.035v16.51c0,1.479,0.339,2.813,1.017,4.004
			c0.678,1.192,1.602,2.136,2.772,2.834C2699.834,738.245,2701.159,738.593,2702.638,738.593z"/>
		<path d="M2725.924,743.584v-7.393h7.454v7.393H2725.924z"/>
		<path d="M2742.926,743.584v-5.853h10.843v-28.276h-10.843v-4.312c1.438-0.123,3.019-0.379,4.744-0.77
			c1.725-0.39,3.511-0.903,5.359-1.54c1.848-0.636,3.635-1.345,5.359-2.125h2.588v37.024h10.719v5.853H2742.926z"/>
	</g>
	<g>
		
			<line style="fill:none;stroke:#999999;stroke-width:6.1605;stroke-miterlimit:10;" x1="3209.707" y1="164.98" x2="3209.707" y2="139.312"/>
		
			<line style="fill:none;stroke:#999999;stroke-width:6.1605;stroke-miterlimit:10;" x1="3209.707" y1="674.959" x2="3209.707" y2="649.291"/>
	</g>
	<g>
		<path d="M3163.99,744.2c-2.671,0-5.094-0.616-7.27-1.848c-2.178-1.232-3.902-2.936-5.175-5.113
			c-1.273-2.176-1.91-4.661-1.91-7.454v-14.662c0-2.792,0.637-5.277,1.91-7.454c1.272-2.176,2.997-3.881,5.175-5.113
			c2.176-1.232,4.599-1.848,7.27-1.848h1.417c2.71,0,5.144,0.616,7.3,1.848s3.86,2.937,5.113,5.113
			c1.252,2.177,1.879,4.662,1.879,7.454v14.662c0,2.793-0.627,5.278-1.879,7.454c-1.253,2.177-2.957,3.881-5.113,5.113
			c-2.156,1.232-4.59,1.848-7.3,1.848H3163.99z M3164.668,738.593c1.479,0,2.803-0.348,3.973-1.047
			c1.171-0.698,2.095-1.642,2.772-2.834c0.678-1.191,1.017-2.526,1.017-4.004v-16.51c0-1.519-0.339-2.864-1.017-4.035
			c-0.678-1.171-1.602-2.104-2.772-2.803c-1.17-0.698-2.494-1.047-3.973-1.047s-2.804,0.35-3.974,1.047
			c-1.171,0.699-2.095,1.632-2.772,2.803c-0.678,1.17-1.017,2.516-1.017,4.035v16.51c0,1.479,0.339,2.813,1.017,4.004
			c0.678,1.192,1.602,2.136,2.772,2.834C3161.864,738.245,3163.189,738.593,3164.668,738.593z"/>
		<path d="M3187.954,743.584v-7.393h7.454v7.393H3187.954z"/>
		<path d="M3204.956,743.584v-5.853h10.843v-28.276h-10.843v-4.312c1.438-0.123,3.019-0.379,4.744-0.77
			c1.725-0.39,3.511-0.903,5.359-1.54c1.848-0.636,3.635-1.345,5.359-2.125h2.588v37.024h10.719v5.853H3204.956z"/>
		<path d="M3241.241,743.584v-1.848c0-2.546,0.555-4.805,1.663-6.776c1.109-1.972,2.711-3.696,4.806-5.175l11.581-8.194
			c1.314-0.944,2.413-2.063,3.296-3.357c0.883-1.293,1.325-2.823,1.325-4.589c0-2.218-0.658-3.943-1.972-5.175
			c-1.314-1.232-3.225-1.848-5.729-1.848c-1.52,0-2.875,0.339-4.065,1.017c-1.192,0.678-2.136,1.602-2.834,2.772
			c-0.699,1.17-1.048,2.495-1.048,3.974c0,0.288,0,0.554,0,0.801s0.021,0.493,0.062,0.739h-6.715c0-0.247,0-0.451,0-0.616
			c0-0.164,0-0.328,0-0.493c0-2.751,0.625-5.185,1.879-7.3c1.252-2.115,2.997-3.778,5.236-4.99c2.237-1.211,4.814-1.817,7.731-1.817
			h0.924c2.915,0,5.41,0.534,7.484,1.602c2.074,1.069,3.655,2.547,4.744,4.436c1.088,1.89,1.633,4.107,1.633,6.653
			c0,2.136-0.36,4.004-1.078,5.606c-0.72,1.602-1.705,3.019-2.957,4.251c-1.254,1.232-2.66,2.403-4.221,3.511l-10.287,7.27
			c-0.411,0.288-0.832,0.616-1.264,0.986c-0.431,0.37-0.791,0.75-1.078,1.14c-0.287,0.391-0.473,0.791-0.554,1.201h21.623v6.222
			H3241.241z"/>
	</g>
	<g>
		<path d="M3399.202,549.406c-1.577,0-3.006-0.197-4.287-0.591c-1.282-0.394-2.391-0.928-3.327-1.602
			c-0.937-0.673-1.651-1.462-2.144-2.366c-0.493-0.903-0.739-1.88-0.739-2.933c0-0.197,0-0.361,0-0.493
			c0-0.131,0.016-0.312,0.049-0.542h5.717c-0.033,0.099-0.049,0.189-0.049,0.271c0,0.083,0,0.156,0,0.222
			c0,0.822,0.278,1.503,0.838,2.045c0.558,0.542,1.281,0.937,2.168,1.183c0.888,0.247,1.84,0.37,2.858,0.37
			c0.821,0,1.651-0.099,2.489-0.295c0.838-0.197,1.535-0.518,2.095-0.961c0.558-0.444,0.838-1.011,0.838-1.701
			c0-0.755-0.288-1.338-0.862-1.75c-0.575-0.41-1.348-0.739-2.316-0.985c-0.97-0.247-2.029-0.46-3.179-0.641
			c-1.151-0.18-2.31-0.41-3.475-0.69c-1.167-0.279-2.235-0.681-3.204-1.208c-0.969-0.525-1.741-1.24-2.316-2.144
			c-0.575-0.903-0.862-2.095-0.862-3.573c0-1.248,0.287-2.366,0.862-3.351c0.575-0.986,1.363-1.807,2.366-2.464
			c1.002-0.657,2.151-1.15,3.449-1.479c1.298-0.328,2.653-0.493,4.066-0.493h0.985c1.314,0,2.57,0.165,3.771,0.493
			c1.199,0.329,2.274,0.797,3.229,1.405c0.952,0.608,1.7,1.331,2.242,2.168s0.812,1.75,0.812,2.735c0,0.165-0.008,0.353-0.024,0.566
			c-0.017,0.214-0.041,0.354-0.073,0.419h-5.718v-0.394c0-0.361-0.091-0.715-0.271-1.06c-0.181-0.345-0.477-0.666-0.888-0.961
			c-0.411-0.295-0.936-0.533-1.576-0.714c-0.642-0.18-1.405-0.271-2.292-0.271c-0.789,0-1.496,0.074-2.119,0.222
			c-0.625,0.148-1.15,0.345-1.577,0.591c-0.428,0.247-0.739,0.535-0.937,0.863c-0.197,0.329-0.296,0.657-0.296,0.985
			c0,0.69,0.296,1.225,0.888,1.602c0.591,0.378,1.371,0.673,2.341,0.887c0.969,0.214,2.036,0.411,3.203,0.592
			c1.166,0.181,2.324,0.402,3.475,0.665c1.149,0.263,2.218,0.666,3.203,1.208c0.986,0.542,1.766,1.273,2.341,2.193
			s0.863,2.119,0.863,3.598c0,1.544-0.296,2.858-0.888,3.942c-0.591,1.084-1.413,1.947-2.464,2.587
			c-1.052,0.641-2.234,1.109-3.549,1.405s-2.694,0.443-4.14,0.443H3399.202z"/>
		<path d="M3426.997,533.537v-4.879h24.987v4.879H3426.997z M3426.997,544.084v-4.83h24.987v4.83H3426.997z"/>
		<path d="M3479.533,549.406c-2.169,0-4.14-0.509-5.914-1.528c-1.774-1.018-3.179-2.415-4.214-4.189s-1.553-3.778-1.553-6.013
			v-11.335c0-2.267,0.518-4.279,1.553-6.038c1.035-1.757,2.439-3.146,4.214-4.165c1.774-1.018,3.745-1.528,5.914-1.528h1.429
			c2.201,0,4.181,0.51,5.939,1.528c1.757,1.019,3.146,2.407,4.164,4.165c1.018,1.758,1.527,3.771,1.527,6.038v11.335
			c0,2.235-0.51,4.238-1.527,6.013c-1.019,1.774-2.407,3.171-4.164,4.189c-1.759,1.019-3.738,1.528-5.939,1.528H3479.533z
			 M3480.223,544.231c1.085,0,2.046-0.254,2.884-0.764c0.838-0.509,1.494-1.19,1.971-2.045c0.477-0.854,0.715-1.823,0.715-2.908
			v-13.06c0-1.084-0.238-2.053-0.715-2.908c-0.477-0.854-1.133-1.536-1.971-2.045c-0.838-0.509-1.799-0.764-2.884-0.764
			c-1.052,0-1.996,0.255-2.834,0.764c-0.837,0.51-1.503,1.191-1.995,2.045c-0.493,0.854-0.739,1.823-0.739,2.908v13.06
			c0,1.084,0.246,2.054,0.739,2.908c0.492,0.855,1.158,1.536,1.995,2.045C3478.227,543.977,3479.171,544.231,3480.223,544.231z"/>
		<path d="M3498.605,548.913v-6.703h6.802v6.703H3498.605z"/>
		<path d="M3523.001,549.406c-2.169,0-4.14-0.509-5.914-1.528c-1.774-1.018-3.179-2.415-4.214-4.189s-1.553-3.778-1.553-6.013
			v-11.335c0-2.267,0.518-4.279,1.553-6.038c1.035-1.757,2.439-3.146,4.214-4.165c1.774-1.018,3.745-1.528,5.914-1.528h1.429
			c2.201,0,4.181,0.51,5.939,1.528c1.757,1.019,3.146,2.407,4.164,4.165c1.018,1.758,1.527,3.771,1.527,6.038v11.335
			c0,2.235-0.51,4.238-1.527,6.013c-1.019,1.774-2.407,3.171-4.164,4.189c-1.759,1.019-3.738,1.528-5.939,1.528H3523.001z
			 M3523.69,544.231c1.085,0,2.046-0.254,2.884-0.764c0.838-0.509,1.494-1.19,1.971-2.045c0.477-0.854,0.715-1.823,0.715-2.908
			v-13.06c0-1.084-0.238-2.053-0.715-2.908c-0.477-0.854-1.133-1.536-1.971-2.045c-0.838-0.509-1.799-0.764-2.884-0.764
			c-1.052,0-1.996,0.255-2.834,0.764c-0.837,0.51-1.503,1.191-1.995,2.045c-0.493,0.854-0.739,1.823-0.739,2.908v13.06
			c0,1.084,0.246,2.054,0.739,2.908c0.492,0.855,1.158,1.536,1.995,2.045C3521.694,543.977,3522.639,544.231,3523.69,544.231z"/>
		<path d="M3553.803,549.406c-2.432,0-4.559-0.362-6.382-1.084c-1.823-0.723-3.253-1.815-4.288-3.277
			c-1.034-1.462-1.552-3.245-1.552-5.348c0-2.102,0.5-3.786,1.503-5.051c1.002-1.265,2.308-2.243,3.918-2.933v-0.197
			c-1.216-0.723-2.234-1.651-3.056-2.785c-0.821-1.134-1.232-2.653-1.232-4.559c0-2.07,0.51-3.811,1.528-5.224
			c1.018-1.413,2.406-2.489,4.164-3.229s3.704-1.109,5.841-1.109c2.135,0,4.041,0.37,5.717,1.109s2.989,1.816,3.942,3.229
			c0.952,1.413,1.43,3.154,1.43,5.224c0,1.282-0.189,2.383-0.567,3.302c-0.378,0.92-0.887,1.7-1.527,2.341s-1.372,1.208-2.193,1.701
			v0.197c1.643,0.756,2.957,1.733,3.942,2.933c0.986,1.2,1.479,2.883,1.479,5.051c0,2.038-0.518,3.779-1.552,5.224
			c-1.035,1.446-2.498,2.555-4.387,3.327C3558.641,549.02,3556.398,549.406,3553.803,549.406z M3554.05,544.626
			c1.905,0,3.318-0.493,4.238-1.479c0.919-0.986,1.38-2.333,1.38-4.042c0-1.708-0.501-3.039-1.503-3.992
			c-1.003-0.953-2.374-1.429-4.115-1.429c-1.808,0-3.196,0.493-4.165,1.479c-0.969,0.985-1.453,2.3-1.453,3.942
			c0,1.742,0.468,3.097,1.404,4.066C3550.772,544.141,3552.177,544.626,3554.05,544.626z M3554,529.594
			c1.511,0,2.743-0.451,3.696-1.355c0.953-0.903,1.43-2.16,1.43-3.77c0-1.676-0.461-2.957-1.38-3.844
			c-0.921-0.887-2.169-1.331-3.746-1.331s-2.817,0.452-3.721,1.355c-0.904,0.904-1.355,2.177-1.355,3.819
			c0,1.644,0.484,2.908,1.454,3.795C3551.347,529.15,3552.554,529.594,3554,529.594z"/>
		<path d="M3399.202,596.636c-1.577,0-3.006-0.197-4.287-0.591c-1.282-0.394-2.391-0.928-3.327-1.602
			c-0.937-0.673-1.651-1.462-2.144-2.366c-0.493-0.903-0.739-1.88-0.739-2.933c0-0.197,0-0.361,0-0.493
			c0-0.131,0.016-0.312,0.049-0.542h5.717c-0.033,0.099-0.049,0.189-0.049,0.271c0,0.083,0,0.156,0,0.222
			c0,0.822,0.278,1.503,0.838,2.045c0.558,0.542,1.281,0.937,2.168,1.183c0.888,0.247,1.84,0.37,2.858,0.37
			c0.821,0,1.651-0.099,2.489-0.295c0.838-0.197,1.535-0.518,2.095-0.961c0.558-0.444,0.838-1.011,0.838-1.701
			c0-0.755-0.288-1.338-0.862-1.75c-0.575-0.41-1.348-0.739-2.316-0.985c-0.97-0.247-2.029-0.46-3.179-0.641
			c-1.151-0.18-2.31-0.41-3.475-0.69c-1.167-0.279-2.235-0.681-3.204-1.208c-0.969-0.525-1.741-1.24-2.316-2.144
			c-0.575-0.903-0.862-2.095-0.862-3.573c0-1.248,0.287-2.366,0.862-3.351c0.575-0.986,1.363-1.807,2.366-2.464
			c1.002-0.657,2.151-1.15,3.449-1.479c1.298-0.328,2.653-0.493,4.066-0.493h0.985c1.314,0,2.57,0.165,3.771,0.493
			c1.199,0.329,2.274,0.797,3.229,1.405c0.952,0.608,1.7,1.331,2.242,2.168s0.812,1.75,0.812,2.735c0,0.165-0.008,0.353-0.024,0.566
			c-0.017,0.214-0.041,0.354-0.073,0.419h-5.718v-0.394c0-0.361-0.091-0.715-0.271-1.06c-0.181-0.345-0.477-0.666-0.888-0.961
			c-0.411-0.295-0.936-0.533-1.576-0.714c-0.642-0.18-1.405-0.271-2.292-0.271c-0.789,0-1.496,0.074-2.119,0.222
			c-0.625,0.148-1.15,0.345-1.577,0.591c-0.428,0.247-0.739,0.535-0.937,0.863c-0.197,0.329-0.296,0.657-0.296,0.985
			c0,0.69,0.296,1.225,0.888,1.602c0.591,0.378,1.371,0.673,2.341,0.887c0.969,0.214,2.036,0.411,3.203,0.592
			c1.166,0.181,2.324,0.402,3.475,0.665c1.149,0.263,2.218,0.666,3.203,1.208c0.986,0.542,1.766,1.273,2.341,2.193
			s0.863,2.119,0.863,3.598c0,1.544-0.296,2.858-0.888,3.942c-0.591,1.084-1.413,1.947-2.464,2.587
			c-1.052,0.641-2.234,1.109-3.549,1.405s-2.694,0.443-4.14,0.443H3399.202z"/>
		<path d="M3426.997,580.767v-4.879h24.987v4.879H3426.997z M3426.997,591.314v-4.83h24.987v4.83H3426.997z"/>
		<path d="M3479.533,596.636c-2.169,0-4.14-0.509-5.914-1.528c-1.774-1.018-3.179-2.415-4.214-4.189s-1.553-3.778-1.553-6.013
			v-11.335c0-2.267,0.518-4.279,1.553-6.038c1.035-1.757,2.439-3.146,4.214-4.165c1.774-1.018,3.745-1.528,5.914-1.528h1.429
			c2.201,0,4.181,0.51,5.939,1.528c1.757,1.019,3.146,2.407,4.164,4.165c1.018,1.758,1.527,3.771,1.527,6.038v11.335
			c0,2.235-0.51,4.238-1.527,6.013c-1.019,1.774-2.407,3.171-4.164,4.189c-1.759,1.019-3.738,1.528-5.939,1.528H3479.533z
			 M3480.223,591.461c1.085,0,2.046-0.254,2.884-0.764c0.838-0.509,1.494-1.19,1.971-2.045c0.477-0.854,0.715-1.823,0.715-2.908
			v-13.06c0-1.084-0.238-2.053-0.715-2.908c-0.477-0.854-1.133-1.536-1.971-2.045c-0.838-0.509-1.799-0.764-2.884-0.764
			c-1.052,0-1.996,0.255-2.834,0.764c-0.837,0.51-1.503,1.191-1.995,2.045c-0.493,0.854-0.739,1.823-0.739,2.908v13.06
			c0,1.084,0.246,2.054,0.739,2.908c0.492,0.855,1.158,1.536,1.995,2.045C3478.227,591.208,3479.171,591.461,3480.223,591.461z"/>
		<path d="M3498.605,596.144v-6.703h6.802v6.703H3498.605z"/>
		<path d="M3523.001,596.636c-2.169,0-4.14-0.509-5.914-1.528c-1.774-1.018-3.179-2.415-4.214-4.189s-1.553-3.778-1.553-6.013
			v-11.335c0-2.267,0.518-4.279,1.553-6.038c1.035-1.757,2.439-3.146,4.214-4.165c1.774-1.018,3.745-1.528,5.914-1.528h1.429
			c2.201,0,4.181,0.51,5.939,1.528c1.757,1.019,3.146,2.407,4.164,4.165c1.018,1.758,1.527,3.771,1.527,6.038v11.335
			c0,2.235-0.51,4.238-1.527,6.013c-1.019,1.774-2.407,3.171-4.164,4.189c-1.759,1.019-3.738,1.528-5.939,1.528H3523.001z
			 M3523.69,591.461c1.085,0,2.046-0.254,2.884-0.764c0.838-0.509,1.494-1.19,1.971-2.045c0.477-0.854,0.715-1.823,0.715-2.908
			v-13.06c0-1.084-0.238-2.053-0.715-2.908c-0.477-0.854-1.133-1.536-1.971-2.045c-0.838-0.509-1.799-0.764-2.884-0.764
			c-1.052,0-1.996,0.255-2.834,0.764c-0.837,0.51-1.503,1.191-1.995,2.045c-0.493,0.854-0.739,1.823-0.739,2.908v13.06
			c0,1.084,0.246,2.054,0.739,2.908c0.492,0.855,1.158,1.536,1.995,2.045C3521.694,591.208,3522.639,591.461,3523.69,591.461z"/>
		<path d="M3553.951,596.636c-2.53,0-4.715-0.468-6.555-1.404c-1.841-0.937-3.262-2.25-4.264-3.943
			c-1.002-1.692-1.503-3.671-1.503-5.938h6.16c0,1.117,0.247,2.119,0.739,3.006c0.493,0.887,1.191,1.585,2.095,2.094
			c0.903,0.51,1.947,0.764,3.13,0.764c1.281,0,2.365-0.271,3.253-0.813c0.887-0.542,1.568-1.281,2.045-2.218
			c0.476-0.936,0.715-1.963,0.715-3.08c0-1.774-0.56-3.228-1.676-4.362c-1.117-1.133-2.547-1.7-4.288-1.7
			c-1.117,0-2.152,0.271-3.104,0.813c-0.953,0.542-1.709,1.207-2.267,1.996l-5.521-0.789l1.43-18.728h20.107v6.013h-14.785
			l-0.641,8.033c0.723-0.657,1.659-1.24,2.81-1.75c1.149-0.509,2.514-0.764,4.09-0.764c2.07,0,3.901,0.427,5.495,1.281
			c1.594,0.855,2.842,2.095,3.746,3.721c0.903,1.626,1.355,3.606,1.355,5.938c0,2.235-0.542,4.247-1.627,6.038
			c-1.084,1.791-2.571,3.203-4.46,4.238C3558.542,596.119,3556.382,596.636,3553.951,596.636z"/>
		<path d="M3399.202,643.867c-1.577,0-3.006-0.197-4.287-0.591c-1.282-0.394-2.391-0.928-3.327-1.602
			c-0.937-0.673-1.651-1.462-2.144-2.366c-0.493-0.903-0.739-1.88-0.739-2.933c0-0.197,0-0.361,0-0.493
			c0-0.131,0.016-0.312,0.049-0.542h5.717c-0.033,0.099-0.049,0.189-0.049,0.271c0,0.083,0,0.156,0,0.222
			c0,0.822,0.278,1.503,0.838,2.045c0.558,0.542,1.281,0.937,2.168,1.183c0.888,0.247,1.84,0.37,2.858,0.37
			c0.821,0,1.651-0.099,2.489-0.295c0.838-0.197,1.535-0.518,2.095-0.961c0.558-0.444,0.838-1.011,0.838-1.701
			c0-0.755-0.288-1.338-0.862-1.75c-0.575-0.41-1.348-0.739-2.316-0.985c-0.97-0.247-2.029-0.46-3.179-0.641
			c-1.151-0.18-2.31-0.41-3.475-0.69c-1.167-0.279-2.235-0.681-3.204-1.208c-0.969-0.525-1.741-1.24-2.316-2.144
			c-0.575-0.903-0.862-2.095-0.862-3.573c0-1.248,0.287-2.366,0.862-3.351c0.575-0.986,1.363-1.807,2.366-2.464
			c1.002-0.657,2.151-1.15,3.449-1.479c1.298-0.328,2.653-0.493,4.066-0.493h0.985c1.314,0,2.57,0.165,3.771,0.493
			c1.199,0.329,2.274,0.797,3.229,1.405c0.952,0.608,1.7,1.331,2.242,2.168s0.812,1.75,0.812,2.735c0,0.165-0.008,0.353-0.024,0.566
			c-0.017,0.214-0.041,0.354-0.073,0.419h-5.718v-0.394c0-0.361-0.091-0.715-0.271-1.06c-0.181-0.345-0.477-0.666-0.888-0.961
			c-0.411-0.295-0.936-0.533-1.576-0.714c-0.642-0.18-1.405-0.271-2.292-0.271c-0.789,0-1.496,0.074-2.119,0.222
			c-0.625,0.148-1.15,0.345-1.577,0.591c-0.428,0.247-0.739,0.535-0.937,0.863c-0.197,0.329-0.296,0.657-0.296,0.985
			c0,0.69,0.296,1.225,0.888,1.602c0.591,0.378,1.371,0.673,2.341,0.887c0.969,0.214,2.036,0.411,3.203,0.592
			c1.166,0.181,2.324,0.402,3.475,0.665c1.149,0.263,2.218,0.666,3.203,1.208c0.986,0.542,1.766,1.273,2.341,2.193
			s0.863,2.119,0.863,3.598c0,1.544-0.296,2.858-0.888,3.942c-0.591,1.084-1.413,1.947-2.464,2.587
			c-1.052,0.641-2.234,1.109-3.549,1.405s-2.694,0.443-4.14,0.443H3399.202z"/>
		<path d="M3426.997,627.998v-4.879h24.987v4.879H3426.997z M3426.997,638.544v-4.83h24.987v4.83H3426.997z"/>
		<path d="M3479.533,643.867c-2.169,0-4.14-0.509-5.914-1.528c-1.774-1.018-3.179-2.415-4.214-4.189s-1.553-3.778-1.553-6.013
			v-11.335c0-2.267,0.518-4.279,1.553-6.038c1.035-1.757,2.439-3.146,4.214-4.165c1.774-1.018,3.745-1.528,5.914-1.528h1.429
			c2.201,0,4.181,0.51,5.939,1.528c1.757,1.019,3.146,2.407,4.164,4.165c1.018,1.758,1.527,3.771,1.527,6.038v11.335
			c0,2.235-0.51,4.238-1.527,6.013c-1.019,1.774-2.407,3.171-4.164,4.189c-1.759,1.019-3.738,1.528-5.939,1.528H3479.533z
			 M3480.223,638.692c1.085,0,2.046-0.254,2.884-0.764c0.838-0.509,1.494-1.19,1.971-2.045c0.477-0.854,0.715-1.823,0.715-2.908
			v-13.06c0-1.084-0.238-2.053-0.715-2.908c-0.477-0.854-1.133-1.536-1.971-2.045c-0.838-0.509-1.799-0.764-2.884-0.764
			c-1.052,0-1.996,0.255-2.834,0.764c-0.837,0.51-1.503,1.191-1.995,2.045c-0.493,0.854-0.739,1.823-0.739,2.908v13.06
			c0,1.084,0.246,2.054,0.739,2.908c0.492,0.855,1.158,1.536,1.995,2.045C3478.227,638.438,3479.171,638.692,3480.223,638.692z"/>
		<path d="M3498.605,643.374v-6.703h6.802v6.703H3498.605z"/>
		<path d="M3523.001,643.867c-2.169,0-4.14-0.509-5.914-1.528c-1.774-1.018-3.179-2.415-4.214-4.189s-1.553-3.778-1.553-6.013
			v-11.335c0-2.267,0.518-4.279,1.553-6.038c1.035-1.757,2.439-3.146,4.214-4.165c1.774-1.018,3.745-1.528,5.914-1.528h1.429
			c2.201,0,4.181,0.51,5.939,1.528c1.757,1.019,3.146,2.407,4.164,4.165c1.018,1.758,1.527,3.771,1.527,6.038v11.335
			c0,2.235-0.51,4.238-1.527,6.013c-1.019,1.774-2.407,3.171-4.164,4.189c-1.759,1.019-3.738,1.528-5.939,1.528H3523.001z
			 M3523.69,638.692c1.085,0,2.046-0.254,2.884-0.764c0.838-0.509,1.494-1.19,1.971-2.045c0.477-0.854,0.715-1.823,0.715-2.908
			v-13.06c0-1.084-0.238-2.053-0.715-2.908c-0.477-0.854-1.133-1.536-1.971-2.045c-0.838-0.509-1.799-0.764-2.884-0.764
			c-1.052,0-1.996,0.255-2.834,0.764c-0.837,0.51-1.503,1.191-1.995,2.045c-0.493,0.854-0.739,1.823-0.739,2.908v13.06
			c0,1.084,0.246,2.054,0.739,2.908c0.492,0.855,1.158,1.536,1.995,2.045C3521.694,638.438,3522.639,638.692,3523.69,638.692z"/>
		<path d="M3553.311,643.867c-2.169,0-4.14-0.509-5.914-1.528c-1.774-1.018-3.179-2.415-4.214-4.189s-1.553-3.778-1.553-6.013
			v-11.335c0-2.267,0.518-4.279,1.553-6.038c1.035-1.757,2.439-3.146,4.214-4.165c1.774-1.018,3.745-1.528,5.914-1.528h1.429
			c2.201,0,4.181,0.51,5.939,1.528c1.757,1.019,3.146,2.407,4.164,4.165c1.018,1.758,1.527,3.771,1.527,6.038v11.335
			c0,2.235-0.51,4.238-1.527,6.013c-1.019,1.774-2.407,3.171-4.164,4.189c-1.759,1.019-3.738,1.528-5.939,1.528H3553.311z
			 M3554,638.692c1.085,0,2.046-0.254,2.884-0.764c0.838-0.509,1.494-1.19,1.971-2.045c0.477-0.854,0.715-1.823,0.715-2.908v-13.06
			c0-1.084-0.238-2.053-0.715-2.908c-0.477-0.854-1.133-1.536-1.971-2.045c-0.838-0.509-1.799-0.764-2.884-0.764
			c-1.052,0-1.996,0.255-2.834,0.764c-0.837,0.51-1.503,1.191-1.995,2.045c-0.493,0.854-0.739,1.823-0.739,2.908v13.06
			c0,1.084,0.246,2.054,0.739,2.908c0.492,0.855,1.158,1.536,1.995,2.045C3552.004,638.438,3552.948,638.692,3554,638.692z"/>
	</g>
	<g>
		
			<line style="fill:none;stroke:#999999;stroke-width:6.1605;stroke-miterlimit:10;" x1="3688.855" y1="164.98" x2="3688.855" y2="139.312"/>
		
			<line style="fill:none;stroke:#999999;stroke-width:6.1605;stroke-miterlimit:10;" x1="3688.855" y1="674.959" x2="3688.855" y2="649.291"/>
	</g>
	<g>
		<path d="M3643.138,744.2c-2.671,0-5.094-0.616-7.27-1.848c-2.178-1.232-3.902-2.936-5.175-5.113
			c-1.273-2.176-1.91-4.661-1.91-7.454v-14.662c0-2.792,0.637-5.277,1.91-7.454c1.272-2.176,2.997-3.881,5.175-5.113
			c2.176-1.232,4.599-1.848,7.27-1.848h1.417c2.71,0,5.144,0.616,7.3,1.848s3.86,2.937,5.113,5.113
			c1.252,2.177,1.879,4.662,1.879,7.454v14.662c0,2.793-0.627,5.278-1.879,7.454c-1.253,2.177-2.957,3.881-5.113,5.113
			c-2.156,1.232-4.59,1.848-7.3,1.848H3643.138z M3643.815,738.593c1.479,0,2.803-0.348,3.973-1.047
			c1.171-0.698,2.095-1.642,2.772-2.834c0.678-1.191,1.017-2.526,1.017-4.004v-16.51c0-1.519-0.339-2.864-1.017-4.035
			c-0.678-1.171-1.602-2.104-2.772-2.803c-1.17-0.698-2.494-1.047-3.973-1.047s-2.804,0.35-3.974,1.047
			c-1.171,0.699-2.095,1.632-2.772,2.803c-0.678,1.17-1.017,2.516-1.017,4.035v16.51c0,1.479,0.339,2.813,1.017,4.004
			c0.678,1.192,1.602,2.136,2.772,2.834C3641.012,738.245,3642.337,738.593,3643.815,738.593z"/>
		<path d="M3667.102,743.584v-7.393h7.454v7.393H3667.102z"/>
		<path d="M3684.104,743.584v-5.853h10.843v-28.276h-10.843v-4.312c1.438-0.123,3.019-0.379,4.744-0.77
			c1.725-0.39,3.511-0.903,5.359-1.54c1.848-0.636,3.635-1.345,5.359-2.125h2.588v37.024h10.719v5.853H3684.104z"/>
		<path d="M3738.932,743.584v-10.534h-19.528v-5.729c0.574-0.903,1.283-2.125,2.125-3.666s1.745-3.274,2.711-5.206
			c0.964-1.93,1.919-3.952,2.864-6.068c0.944-2.115,1.827-4.179,2.649-6.191c0.82-2.012,1.498-3.84,2.032-5.483h6.716
			c-0.453,1.766-1.089,3.666-1.91,5.698c-0.822,2.033-1.725,4.097-2.711,6.191c-0.985,2.095-2.023,4.097-3.11,6.006
			c-1.089,1.91-2.126,3.625-3.111,5.144c-0.985,1.52-1.89,2.732-2.711,3.635h13.984V715.8c0.328-0.493,0.688-1.14,1.078-1.94
			c0.39-0.801,0.79-1.633,1.201-2.495c0.41-0.863,0.78-1.704,1.109-2.526c0.328-0.821,0.574-1.519,0.739-2.095h2.957v20.638h5.482
			v5.668h-5.482v10.534H3738.932z"/>
	</g>
	<g>
		<path d="M209.272,155.931c-2.403,0-4.584-0.555-6.542-1.664c-1.959-1.109-3.512-2.642-4.657-4.602
			c-1.146-1.958-1.719-4.194-1.719-6.708v-13.196c0-2.513,0.572-4.749,1.719-6.709c1.145-1.958,2.698-3.493,4.657-4.602
			c1.958-1.109,4.139-1.664,6.542-1.664h1.275c2.44,0,4.63,0.555,6.57,1.664s3.474,2.643,4.602,4.602
			c1.127,1.96,1.691,4.196,1.691,6.709v13.196c0,2.514-0.564,4.75-1.691,6.708c-1.128,1.96-2.662,3.493-4.602,4.602
			s-4.13,1.664-6.57,1.664H209.272z M209.882,150.885c1.331,0,2.522-0.313,3.576-0.942c1.053-0.628,1.885-1.478,2.495-2.55
			c0.61-1.072,0.915-2.273,0.915-3.604v-14.859c0-1.367-0.305-2.578-0.915-3.632c-0.61-1.053-1.442-1.894-2.495-2.522
			c-1.054-0.628-2.246-0.943-3.576-0.943s-2.523,0.314-3.576,0.943c-1.054,0.629-1.885,1.469-2.495,2.522
			c-0.61,1.054-0.915,2.265-0.915,3.632v14.859c0,1.331,0.305,2.532,0.915,3.604c0.61,1.072,1.441,1.922,2.495,2.55
			C207.359,150.571,208.551,150.885,209.882,150.885z"/>
		<path d="M230.839,155.376v-6.653h6.709v6.653H230.839z"/>
		<path d="M246.141,155.376v-5.267h9.758V124.66h-9.758v-3.881c1.293-0.111,2.717-0.341,4.27-0.693
			c1.552-0.351,3.16-0.812,4.824-1.386c1.663-0.573,3.271-1.21,4.823-1.913h2.329v33.322h9.647v5.267H246.141z"/>
		<path d="M175.174,210.348c-2.403,0-4.584-0.555-6.542-1.664c-1.959-1.109-3.512-2.642-4.657-4.602
			c-1.146-1.958-1.719-4.194-1.719-6.708v-13.196c0-2.513,0.572-4.749,1.719-6.709c1.145-1.958,2.698-3.493,4.657-4.602
			c1.958-1.109,4.139-1.664,6.542-1.664h1.275c2.44,0,4.63,0.555,6.57,1.664s3.474,2.643,4.602,4.602
			c1.127,1.96,1.691,4.196,1.691,6.709v13.196c0,2.514-0.564,4.75-1.691,6.708c-1.128,1.96-2.662,3.493-4.602,4.602
			s-4.13,1.664-6.57,1.664H175.174z M175.784,205.302c1.331,0,2.522-0.313,3.576-0.942c1.053-0.628,1.885-1.478,2.495-2.55
			c0.61-1.072,0.915-2.273,0.915-3.604v-14.859c0-1.367-0.305-2.578-0.915-3.632c-0.61-1.053-1.442-1.894-2.495-2.522
			c-1.054-0.628-2.246-0.943-3.576-0.943s-2.523,0.314-3.576,0.943c-1.054,0.629-1.885,1.469-2.495,2.522
			c-0.61,1.054-0.915,2.265-0.915,3.632v14.859c0,1.331,0.305,2.532,0.915,3.604c0.61,1.072,1.441,1.922,2.495,2.55
			C173.261,204.989,174.454,205.302,175.784,205.302z"/>
		<path d="M196.741,209.794v-6.653h6.709v6.653H196.741z"/>
		<path d="M223.687,210.348c-2.403,0-4.584-0.555-6.542-1.664c-1.959-1.109-3.512-2.642-4.657-4.602
			c-1.146-1.958-1.719-4.194-1.719-6.708v-13.196c0-2.513,0.572-4.749,1.719-6.709c1.145-1.958,2.698-3.493,4.657-4.602
			c1.958-1.109,4.139-1.664,6.542-1.664h1.275c2.44,0,4.63,0.555,6.57,1.664s3.474,2.643,4.602,4.602
			c1.127,1.96,1.691,4.196,1.691,6.709v13.196c0,2.514-0.564,4.75-1.691,6.708c-1.128,1.96-2.662,3.493-4.602,4.602
			s-4.13,1.664-6.57,1.664H223.687z M224.297,205.302c1.331,0,2.522-0.313,3.576-0.942c1.053-0.628,1.885-1.478,2.495-2.55
			c0.61-1.072,0.915-2.273,0.915-3.604v-14.859c0-1.367-0.305-2.578-0.915-3.632c-0.61-1.053-1.442-1.894-2.495-2.522
			c-1.054-0.628-2.246-0.943-3.576-0.943s-2.523,0.314-3.576,0.943c-1.054,0.629-1.885,1.469-2.495,2.522
			c-0.61,1.054-0.915,2.265-0.915,3.632v14.859c0,1.331,0.305,2.532,0.915,3.604c0.61,1.072,1.441,1.922,2.495,2.55
			C221.774,204.989,222.966,205.302,224.297,205.302z"/>
		<path d="M258.561,210.348c-2.587,0-4.851-0.509-6.792-1.525c-1.941-1.016-3.447-2.458-4.519-4.325
			c-1.072-1.866-1.608-4.075-1.608-6.625h5.988c0,2.218,0.638,3.992,1.913,5.323c1.275,1.331,2.911,1.996,4.907,1.996
			c1.367,0,2.578-0.305,3.632-0.915c1.053-0.61,1.894-1.442,2.522-2.495c0.628-1.053,0.943-2.246,0.943-3.576v-6.487
			c-1.035,1.294-2.329,2.292-3.881,2.994c-1.552,0.703-3.086,1.054-4.602,1.054c-2.255,0-4.297-0.48-6.127-1.441
			c-1.83-0.961-3.281-2.329-4.352-4.103c-1.073-1.774-1.608-3.881-1.608-6.321c0-2.587,0.591-4.832,1.774-6.736
			c1.183-1.903,2.809-3.373,4.879-4.408c2.069-1.035,4.398-1.553,6.986-1.553c2.624,0,4.943,0.546,6.958,1.636
			c2.014,1.091,3.594,2.606,4.74,4.546c1.146,1.94,1.719,4.205,1.719,6.792v13.196c0,2.587-0.582,4.861-1.747,6.819
			c-1.164,1.96-2.754,3.475-4.768,4.547C263.504,209.812,261.186,210.348,258.561,210.348z M258.45,191.386
			c1.478,0,2.745-0.323,3.798-0.97c1.053-0.646,1.866-1.543,2.439-2.689c0.573-1.145,0.859-2.458,0.859-3.937
			c0-1.589-0.296-2.947-0.887-4.075c-0.592-1.127-1.414-2.004-2.467-2.633c-1.053-0.628-2.301-0.943-3.743-0.943
			c-1.441,0-2.689,0.324-3.742,0.97c-1.054,0.647-1.867,1.544-2.439,2.689c-0.574,1.146-0.859,2.477-0.859,3.992
			c0,1.516,0.286,2.847,0.859,3.992c0.572,1.146,1.395,2.033,2.467,2.661C255.807,191.072,257.045,191.386,258.45,191.386z"/>
		<path d="M175.174,264.766c-2.403,0-4.584-0.555-6.542-1.664c-1.959-1.109-3.512-2.642-4.657-4.602
			c-1.146-1.958-1.719-4.194-1.719-6.708v-13.196c0-2.513,0.572-4.749,1.719-6.709c1.145-1.958,2.698-3.493,4.657-4.602
			c1.958-1.109,4.139-1.664,6.542-1.664h1.275c2.44,0,4.63,0.555,6.57,1.664s3.474,2.643,4.602,4.602
			c1.127,1.96,1.691,4.196,1.691,6.709v13.196c0,2.514-0.564,4.75-1.691,6.708c-1.128,1.96-2.662,3.493-4.602,4.602
			s-4.13,1.664-6.57,1.664H175.174z M175.784,259.72c1.331,0,2.522-0.313,3.576-0.942c1.053-0.628,1.885-1.478,2.495-2.55
			c0.61-1.072,0.915-2.273,0.915-3.604v-14.859c0-1.367-0.305-2.578-0.915-3.632c-0.61-1.053-1.442-1.894-2.495-2.522
			c-1.054-0.628-2.246-0.943-3.576-0.943s-2.523,0.314-3.576,0.943c-1.054,0.629-1.885,1.469-2.495,2.522
			c-0.61,1.054-0.915,2.265-0.915,3.632v14.859c0,1.331,0.305,2.532,0.915,3.604c0.61,1.072,1.441,1.922,2.495,2.55
			C173.261,259.406,174.454,259.72,175.784,259.72z"/>
		<path d="M196.741,264.211v-6.653h6.709v6.653H196.741z"/>
		<path d="M223.687,264.766c-2.403,0-4.584-0.555-6.542-1.664c-1.959-1.109-3.512-2.642-4.657-4.602
			c-1.146-1.958-1.719-4.194-1.719-6.708v-13.196c0-2.513,0.572-4.749,1.719-6.709c1.145-1.958,2.698-3.493,4.657-4.602
			c1.958-1.109,4.139-1.664,6.542-1.664h1.275c2.44,0,4.63,0.555,6.57,1.664s3.474,2.643,4.602,4.602
			c1.127,1.96,1.691,4.196,1.691,6.709v13.196c0,2.514-0.564,4.75-1.691,6.708c-1.128,1.96-2.662,3.493-4.602,4.602
			s-4.13,1.664-6.57,1.664H223.687z M224.297,259.72c1.331,0,2.522-0.313,3.576-0.942c1.053-0.628,1.885-1.478,2.495-2.55
			c0.61-1.072,0.915-2.273,0.915-3.604v-14.859c0-1.367-0.305-2.578-0.915-3.632c-0.61-1.053-1.442-1.894-2.495-2.522
			c-1.054-0.628-2.246-0.943-3.576-0.943s-2.523,0.314-3.576,0.943c-1.054,0.629-1.885,1.469-2.495,2.522
			c-0.61,1.054-0.915,2.265-0.915,3.632v14.859c0,1.331,0.305,2.532,0.915,3.604c0.61,1.072,1.441,1.922,2.495,2.55
			C221.774,259.406,222.966,259.72,224.297,259.72z"/>
		<path d="M258.173,264.766c-2.662,0-5-0.407-7.014-1.22c-2.015-0.812-3.586-2.032-4.713-3.659
			c-1.128-1.626-1.691-3.622-1.691-5.988c0-2.402,0.582-4.315,1.746-5.739c1.165-1.422,2.67-2.541,4.519-3.354v-0.222
			c-1.442-0.739-2.634-1.774-3.576-3.105c-0.943-1.331-1.414-3.067-1.414-5.211c0-2.292,0.555-4.223,1.664-5.794
			c1.109-1.571,2.624-2.772,4.546-3.604c1.921-0.832,4.065-1.248,6.432-1.248c2.365,0,4.463,0.416,6.293,1.248
			c1.83,0.832,3.261,2.033,4.297,3.604c1.034,1.571,1.552,3.502,1.552,5.794c0,1.441-0.222,2.698-0.666,3.77
			c-0.443,1.073-1.035,1.978-1.774,2.717c-0.74,0.74-1.59,1.35-2.55,1.83v0.222c1.885,0.924,3.4,2.051,4.546,3.382
			c1.145,1.331,1.719,3.235,1.719,5.711c0,2.255-0.564,4.195-1.691,5.821c-1.128,1.627-2.726,2.875-4.796,3.743
			C263.532,264.331,261.056,264.766,258.173,264.766z M258.45,260.053c2.402,0,4.186-0.601,5.351-1.802
			c1.165-1.201,1.747-2.818,1.747-4.851c0-2.07-0.629-3.678-1.885-4.824c-1.257-1.146-2.994-1.719-5.212-1.719
			c-2.255,0-4.001,0.592-5.239,1.774c-1.239,1.184-1.857,2.772-1.857,4.769c0,2.07,0.582,3.696,1.747,4.879
			C254.264,259.462,256.047,260.053,258.45,260.053z M258.395,242.699c1.848,0,3.373-0.536,4.574-1.608
			c1.201-1.072,1.802-2.606,1.802-4.602s-0.573-3.529-1.719-4.602c-1.146-1.071-2.699-1.608-4.657-1.608
			c-1.959,0-3.502,0.546-4.63,1.636c-1.128,1.091-1.691,2.615-1.691,4.574c0,1.996,0.601,3.53,1.802,4.602
			C255.077,242.163,256.583,242.699,258.395,242.699z"/>
		<path d="M175.174,319.184c-2.403,0-4.584-0.555-6.542-1.664c-1.959-1.109-3.512-2.642-4.657-4.602
			c-1.146-1.958-1.719-4.194-1.719-6.708v-13.196c0-2.513,0.572-4.749,1.719-6.709c1.145-1.958,2.698-3.493,4.657-4.602
			c1.958-1.109,4.139-1.664,6.542-1.664h1.275c2.44,0,4.63,0.555,6.57,1.664s3.474,2.643,4.602,4.602
			c1.127,1.96,1.691,4.196,1.691,6.709v13.196c0,2.514-0.564,4.75-1.691,6.708c-1.128,1.96-2.662,3.493-4.602,4.602
			s-4.13,1.664-6.57,1.664H175.174z M175.784,314.138c1.331,0,2.522-0.313,3.576-0.942c1.053-0.628,1.885-1.478,2.495-2.55
			c0.61-1.072,0.915-2.273,0.915-3.604v-14.859c0-1.367-0.305-2.578-0.915-3.632c-0.61-1.053-1.442-1.894-2.495-2.522
			c-1.054-0.628-2.246-0.943-3.576-0.943s-2.523,0.314-3.576,0.943c-1.054,0.629-1.885,1.469-2.495,2.522
			c-0.61,1.054-0.915,2.265-0.915,3.632v14.859c0,1.331,0.305,2.532,0.915,3.604c0.61,1.072,1.441,1.922,2.495,2.55
			C173.261,313.824,174.454,314.138,175.784,314.138z"/>
		<path d="M196.741,318.629v-6.653h6.709v6.653H196.741z"/>
		<path d="M223.687,319.184c-2.403,0-4.584-0.555-6.542-1.664c-1.959-1.109-3.512-2.642-4.657-4.602
			c-1.146-1.958-1.719-4.194-1.719-6.708v-13.196c0-2.513,0.572-4.749,1.719-6.709c1.145-1.958,2.698-3.493,4.657-4.602
			c1.958-1.109,4.139-1.664,6.542-1.664h1.275c2.44,0,4.63,0.555,6.57,1.664s3.474,2.643,4.602,4.602
			c1.127,1.96,1.691,4.196,1.691,6.709v13.196c0,2.514-0.564,4.75-1.691,6.708c-1.128,1.96-2.662,3.493-4.602,4.602
			s-4.13,1.664-6.57,1.664H223.687z M224.297,314.138c1.331,0,2.522-0.313,3.576-0.942c1.053-0.628,1.885-1.478,2.495-2.55
			c0.61-1.072,0.915-2.273,0.915-3.604v-14.859c0-1.367-0.305-2.578-0.915-3.632c-0.61-1.053-1.442-1.894-2.495-2.522
			c-1.054-0.628-2.246-0.943-3.576-0.943s-2.523,0.314-3.576,0.943c-1.054,0.629-1.885,1.469-2.495,2.522
			c-0.61,1.054-0.915,2.265-0.915,3.632v14.859c0,1.331,0.305,2.532,0.915,3.604c0.61,1.072,1.441,1.922,2.495,2.55
			C221.774,313.824,222.966,314.138,224.297,314.138z"/>
		<path d="M250.91,318.629c0-3.216,0.396-6.329,1.192-9.342c0.794-3.012,1.848-5.905,3.16-8.677c1.312-2.772,2.763-5.369,4.353-7.79
			c1.589-2.42,3.179-4.629,4.768-6.625h-19.184v-5.6h27.057v3.16c-2.255,2.81-4.279,5.609-6.071,8.4
			c-1.793,2.791-3.299,5.609-4.519,8.455c-1.22,2.847-2.126,5.766-2.717,8.76c-0.591,2.994-0.813,6.081-0.665,9.259H250.91z"/>
		<path d="M175.174,373.601c-2.403,0-4.584-0.555-6.542-1.664c-1.959-1.109-3.512-2.642-4.657-4.602
			c-1.146-1.958-1.719-4.194-1.719-6.708v-13.196c0-2.513,0.572-4.749,1.719-6.709c1.145-1.958,2.698-3.493,4.657-4.602
			c1.958-1.109,4.139-1.664,6.542-1.664h1.275c2.44,0,4.63,0.555,6.57,1.664s3.474,2.643,4.602,4.602
			c1.127,1.96,1.691,4.196,1.691,6.709v13.196c0,2.514-0.564,4.75-1.691,6.708c-1.128,1.96-2.662,3.493-4.602,4.602
			s-4.13,1.664-6.57,1.664H175.174z M175.784,368.555c1.331,0,2.522-0.313,3.576-0.942c1.053-0.628,1.885-1.478,2.495-2.55
			c0.61-1.072,0.915-2.273,0.915-3.604V346.6c0-1.367-0.305-2.578-0.915-3.632c-0.61-1.053-1.442-1.894-2.495-2.522
			c-1.054-0.628-2.246-0.943-3.576-0.943s-2.523,0.314-3.576,0.943c-1.054,0.629-1.885,1.469-2.495,2.522
			c-0.61,1.054-0.915,2.265-0.915,3.632v14.859c0,1.331,0.305,2.532,0.915,3.604c0.61,1.072,1.441,1.922,2.495,2.55
			C173.261,368.242,174.454,368.555,175.784,368.555z"/>
		<path d="M196.741,373.046v-6.653h6.709v6.653H196.741z"/>
		<path d="M223.687,373.601c-2.403,0-4.584-0.555-6.542-1.664c-1.959-1.109-3.512-2.642-4.657-4.602
			c-1.146-1.958-1.719-4.194-1.719-6.708v-13.196c0-2.513,0.572-4.749,1.719-6.709c1.145-1.958,2.698-3.493,4.657-4.602
			c1.958-1.109,4.139-1.664,6.542-1.664h1.275c2.44,0,4.63,0.555,6.57,1.664s3.474,2.643,4.602,4.602
			c1.127,1.96,1.691,4.196,1.691,6.709v13.196c0,2.514-0.564,4.75-1.691,6.708c-1.128,1.96-2.662,3.493-4.602,4.602
			s-4.13,1.664-6.57,1.664H223.687z M224.297,368.555c1.331,0,2.522-0.313,3.576-0.942c1.053-0.628,1.885-1.478,2.495-2.55
			c0.61-1.072,0.915-2.273,0.915-3.604V346.6c0-1.367-0.305-2.578-0.915-3.632c-0.61-1.053-1.442-1.894-2.495-2.522
			c-1.054-0.628-2.246-0.943-3.576-0.943s-2.523,0.314-3.576,0.943c-1.054,0.629-1.885,1.469-2.495,2.522
			c-0.61,1.054-0.915,2.265-0.915,3.632v14.859c0,1.331,0.305,2.532,0.915,3.604c0.61,1.072,1.441,1.922,2.495,2.55
			C221.774,368.242,222.966,368.555,224.297,368.555z"/>
		<path d="M258.118,373.601c-2.477,0-4.685-0.555-6.625-1.664s-3.465-2.634-4.574-4.574s-1.664-4.186-1.664-6.736v-13.196
			c0-2.55,0.573-4.805,1.719-6.764c1.145-1.959,2.697-3.483,4.657-4.574c1.958-1.09,4.176-1.636,6.653-1.636h0.776
			c2.365,0,4.481,0.499,6.349,1.497c1.866,0.998,3.354,2.421,4.463,4.269c1.109,1.849,1.663,4.085,1.663,6.709h-5.988
			c0-2.292-0.647-4.084-1.94-5.378c-1.294-1.293-2.92-1.941-4.879-1.941c-1.331,0-2.522,0.305-3.576,0.915
			c-1.053,0.61-1.885,1.441-2.495,2.495c-0.61,1.053-0.915,2.245-0.915,3.576v6.431c1.034-1.293,2.329-2.282,3.881-2.966
			c1.553-0.684,3.086-1.026,4.602-1.026c2.254,0,4.297,0.481,6.126,1.441c1.83,0.962,3.28,2.329,4.353,4.103
			c1.072,1.774,1.608,3.881,1.608,6.321c0,2.55-0.601,4.777-1.802,6.681c-1.202,1.904-2.819,3.382-4.852,4.436
			c-2.033,1.054-4.288,1.581-6.764,1.581H258.118z M258.838,368.667c1.478,0,2.735-0.323,3.771-0.971
			c1.034-0.646,1.838-1.542,2.412-2.689c0.573-1.145,0.859-2.476,0.859-3.992c0-1.553-0.296-2.901-0.887-4.048
			c-0.591-1.145-1.414-2.023-2.467-2.633c-1.053-0.61-2.283-0.915-3.687-0.915c-1.441,0-2.689,0.314-3.742,0.943
			c-1.054,0.629-1.876,1.506-2.467,2.633c-0.592,1.128-0.887,2.449-0.887,3.964c0,1.59,0.295,2.958,0.887,4.103
			c0.591,1.146,1.422,2.033,2.495,2.661C256.195,368.353,257.433,368.667,258.838,368.667z"/>
		<path d="M175.174,428.019c-2.403,0-4.584-0.555-6.542-1.664c-1.959-1.109-3.512-2.642-4.657-4.602
			c-1.146-1.958-1.719-4.194-1.719-6.708v-13.196c0-2.513,0.572-4.749,1.719-6.709c1.145-1.958,2.698-3.493,4.657-4.602
			c1.958-1.109,4.139-1.664,6.542-1.664h1.275c2.44,0,4.63,0.555,6.57,1.664s3.474,2.643,4.602,4.602
			c1.127,1.96,1.691,4.196,1.691,6.709v13.196c0,2.514-0.564,4.75-1.691,6.708c-1.128,1.96-2.662,3.493-4.602,4.602
			s-4.13,1.664-6.57,1.664H175.174z M175.784,422.973c1.331,0,2.522-0.313,3.576-0.942c1.053-0.628,1.885-1.478,2.495-2.55
			c0.61-1.072,0.915-2.273,0.915-3.604v-14.859c0-1.367-0.305-2.578-0.915-3.632c-0.61-1.053-1.442-1.894-2.495-2.522
			c-1.054-0.628-2.246-0.943-3.576-0.943s-2.523,0.314-3.576,0.943c-1.054,0.629-1.885,1.469-2.495,2.522
			c-0.61,1.054-0.915,2.265-0.915,3.632v14.859c0,1.331,0.305,2.532,0.915,3.604c0.61,1.072,1.441,1.922,2.495,2.55
			C173.261,422.659,174.454,422.973,175.784,422.973z"/>
		<path d="M196.741,427.464v-6.653h6.709v6.653H196.741z"/>
		<path d="M223.687,428.019c-2.403,0-4.584-0.555-6.542-1.664c-1.959-1.109-3.512-2.642-4.657-4.602
			c-1.146-1.958-1.719-4.194-1.719-6.708v-13.196c0-2.513,0.572-4.749,1.719-6.709c1.145-1.958,2.698-3.493,4.657-4.602
			c1.958-1.109,4.139-1.664,6.542-1.664h1.275c2.44,0,4.63,0.555,6.57,1.664s3.474,2.643,4.602,4.602
			c1.127,1.96,1.691,4.196,1.691,6.709v13.196c0,2.514-0.564,4.75-1.691,6.708c-1.128,1.96-2.662,3.493-4.602,4.602
			s-4.13,1.664-6.57,1.664H223.687z M224.297,422.973c1.331,0,2.522-0.313,3.576-0.942c1.053-0.628,1.885-1.478,2.495-2.55
			c0.61-1.072,0.915-2.273,0.915-3.604v-14.859c0-1.367-0.305-2.578-0.915-3.632c-0.61-1.053-1.442-1.894-2.495-2.522
			c-1.054-0.628-2.246-0.943-3.576-0.943s-2.523,0.314-3.576,0.943c-1.054,0.629-1.885,1.469-2.495,2.522
			c-0.61,1.054-0.915,2.265-0.915,3.632v14.859c0,1.331,0.305,2.532,0.915,3.604c0.61,1.072,1.441,1.922,2.495,2.55
			C221.774,422.659,222.966,422.973,224.297,422.973z"/>
		<path d="M258.339,428.019c-2.772,0-5.156-0.537-7.152-1.608c-1.996-1.072-3.54-2.551-4.629-4.436
			c-1.091-1.885-1.636-4.066-1.636-6.542h6.043c0,1.368,0.295,2.605,0.887,3.715c0.591,1.108,1.441,1.987,2.55,2.633
			c1.109,0.647,2.402,0.97,3.881,0.97c1.552,0,2.874-0.341,3.964-1.025c1.09-0.684,1.921-1.608,2.495-2.772
			c0.573-1.164,0.859-2.43,0.859-3.798c0-2.181-0.693-3.982-2.079-5.406c-1.386-1.422-3.132-2.135-5.239-2.135
			c-1.368,0-2.643,0.342-3.826,1.026c-1.184,0.684-2.107,1.543-2.772,2.578l-5.378-0.776l1.608-21.013h22.011v5.877h-16.799
			l-0.776,10.202c0.887-0.85,1.968-1.552,3.244-2.107c1.275-0.554,2.8-0.832,4.574-0.832c2.365,0,4.444,0.499,6.238,1.497
			c1.792,0.998,3.188,2.431,4.186,4.297c0.998,1.867,1.497,4.094,1.497,6.681c0,2.439-0.583,4.639-1.747,6.598
			c-1.165,1.96-2.782,3.512-4.852,4.657C263.421,427.446,261.037,428.019,258.339,428.019z"/>
		<path d="M175.174,482.436c-2.403,0-4.584-0.555-6.542-1.664c-1.959-1.109-3.512-2.642-4.657-4.602
			c-1.146-1.958-1.719-4.194-1.719-6.708v-13.196c0-2.513,0.572-4.749,1.719-6.709c1.145-1.958,2.698-3.493,4.657-4.602
			c1.958-1.109,4.139-1.664,6.542-1.664h1.275c2.44,0,4.63,0.555,6.57,1.664s3.474,2.643,4.602,4.602
			c1.127,1.96,1.691,4.196,1.691,6.709v13.196c0,2.514-0.564,4.75-1.691,6.708c-1.128,1.96-2.662,3.493-4.602,4.602
			s-4.13,1.664-6.57,1.664H175.174z M175.784,477.39c1.331,0,2.522-0.313,3.576-0.942c1.053-0.628,1.885-1.478,2.495-2.55
			c0.61-1.072,0.915-2.273,0.915-3.604v-14.859c0-1.367-0.305-2.578-0.915-3.632c-0.61-1.053-1.442-1.894-2.495-2.522
			c-1.054-0.628-2.246-0.943-3.576-0.943s-2.523,0.314-3.576,0.943c-1.054,0.629-1.885,1.469-2.495,2.522
			c-0.61,1.054-0.915,2.265-0.915,3.632v14.859c0,1.331,0.305,2.532,0.915,3.604c0.61,1.072,1.441,1.922,2.495,2.55
			C173.261,477.077,174.454,477.39,175.784,477.39z"/>
		<path d="M196.741,481.881v-6.653h6.709v6.653H196.741z"/>
		<path d="M223.687,482.436c-2.403,0-4.584-0.555-6.542-1.664c-1.959-1.109-3.512-2.642-4.657-4.602
			c-1.146-1.958-1.719-4.194-1.719-6.708v-13.196c0-2.513,0.572-4.749,1.719-6.709c1.145-1.958,2.698-3.493,4.657-4.602
			c1.958-1.109,4.139-1.664,6.542-1.664h1.275c2.44,0,4.63,0.555,6.57,1.664s3.474,2.643,4.602,4.602
			c1.127,1.96,1.691,4.196,1.691,6.709v13.196c0,2.514-0.564,4.75-1.691,6.708c-1.128,1.96-2.662,3.493-4.602,4.602
			s-4.13,1.664-6.57,1.664H223.687z M224.297,477.39c1.331,0,2.522-0.313,3.576-0.942c1.053-0.628,1.885-1.478,2.495-2.55
			c0.61-1.072,0.915-2.273,0.915-3.604v-14.859c0-1.367-0.305-2.578-0.915-3.632c-0.61-1.053-1.442-1.894-2.495-2.522
			c-1.054-0.628-2.246-0.943-3.576-0.943s-2.523,0.314-3.576,0.943c-1.054,0.629-1.885,1.469-2.495,2.522
			c-0.61,1.054-0.915,2.265-0.915,3.632v14.859c0,1.331,0.305,2.532,0.915,3.604c0.61,1.072,1.441,1.922,2.495,2.55
			C221.774,477.077,222.966,477.39,224.297,477.39z"/>
		<path d="M261.389,481.881V472.4h-17.576v-5.156c0.517-0.812,1.155-1.913,1.913-3.299c0.757-1.386,1.57-2.947,2.439-4.685
			c0.868-1.737,1.728-3.557,2.578-5.461c0.85-1.903,1.644-3.761,2.384-5.572c0.739-1.811,1.349-3.456,1.83-4.935h6.043
			c-0.407,1.59-0.98,3.299-1.719,5.129c-0.74,1.83-1.553,3.687-2.44,5.572c-0.887,1.885-1.821,3.687-2.8,5.406
			c-0.979,1.719-1.913,3.263-2.8,4.63c-0.887,1.368-1.701,2.458-2.439,3.271h12.586v-10.423c0.295-0.443,0.618-1.026,0.97-1.747
			c0.351-0.721,0.711-1.469,1.081-2.246c0.369-0.776,0.702-1.533,0.998-2.273c0.295-0.739,0.517-1.367,0.665-1.885h2.662v18.574
			h4.935v5.101h-4.935v9.481H261.389z"/>
		<path d="M175.174,536.854c-2.403,0-4.584-0.555-6.542-1.664c-1.959-1.109-3.512-2.642-4.657-4.602
			c-1.146-1.958-1.719-4.194-1.719-6.708v-13.196c0-2.513,0.572-4.749,1.719-6.709c1.145-1.958,2.698-3.493,4.657-4.602
			c1.958-1.109,4.139-1.664,6.542-1.664h1.275c2.44,0,4.63,0.555,6.57,1.664s3.474,2.643,4.602,4.602
			c1.127,1.96,1.691,4.196,1.691,6.709v13.196c0,2.514-0.564,4.75-1.691,6.708c-1.128,1.96-2.662,3.493-4.602,4.602
			s-4.13,1.664-6.57,1.664H175.174z M175.784,531.808c1.331,0,2.522-0.313,3.576-0.942c1.053-0.628,1.885-1.478,2.495-2.55
			c0.61-1.072,0.915-2.273,0.915-3.604v-14.859c0-1.367-0.305-2.578-0.915-3.632c-0.61-1.053-1.442-1.894-2.495-2.522
			c-1.054-0.628-2.246-0.943-3.576-0.943s-2.523,0.314-3.576,0.943c-1.054,0.629-1.885,1.469-2.495,2.522
			c-0.61,1.054-0.915,2.265-0.915,3.632v14.859c0,1.331,0.305,2.532,0.915,3.604c0.61,1.072,1.441,1.922,2.495,2.55
			C173.261,531.495,174.454,531.808,175.784,531.808z"/>
		<path d="M196.741,536.299v-6.653h6.709v6.653H196.741z"/>
		<path d="M223.687,536.854c-2.403,0-4.584-0.555-6.542-1.664c-1.959-1.109-3.512-2.642-4.657-4.602
			c-1.146-1.958-1.719-4.194-1.719-6.708v-13.196c0-2.513,0.572-4.749,1.719-6.709c1.145-1.958,2.698-3.493,4.657-4.602
			c1.958-1.109,4.139-1.664,6.542-1.664h1.275c2.44,0,4.63,0.555,6.57,1.664s3.474,2.643,4.602,4.602
			c1.127,1.96,1.691,4.196,1.691,6.709v13.196c0,2.514-0.564,4.75-1.691,6.708c-1.128,1.96-2.662,3.493-4.602,4.602
			s-4.13,1.664-6.57,1.664H223.687z M224.297,531.808c1.331,0,2.522-0.313,3.576-0.942c1.053-0.628,1.885-1.478,2.495-2.55
			c0.61-1.072,0.915-2.273,0.915-3.604v-14.859c0-1.367-0.305-2.578-0.915-3.632c-0.61-1.053-1.442-1.894-2.495-2.522
			c-1.054-0.628-2.246-0.943-3.576-0.943s-2.523,0.314-3.576,0.943c-1.054,0.629-1.885,1.469-2.495,2.522
			c-0.61,1.054-0.915,2.265-0.915,3.632v14.859c0,1.331,0.305,2.532,0.915,3.604c0.61,1.072,1.441,1.922,2.495,2.55
			C221.774,531.495,222.966,531.808,224.297,531.808z"/>
		<path d="M257.286,536.854c-2.736,0-5.073-0.463-7.014-1.386c-1.94-0.924-3.419-2.208-4.436-3.854
			c-1.017-1.644-1.525-3.501-1.525-5.572v-0.998h5.988c0,2.403,0.702,4.122,2.106,5.157c1.404,1.035,3.271,1.552,5.6,1.552
			c2.292,0,4.158-0.527,5.6-1.58c1.441-1.054,2.162-2.652,2.162-4.796c0-1.442-0.324-2.624-0.97-3.549
			c-0.647-0.923-1.516-1.608-2.606-2.051c-1.091-0.443-2.283-0.665-3.576-0.665h-4.935v-4.491h4.38c1.22,0,2.356-0.222,3.41-0.666
			c1.053-0.443,1.894-1.109,2.522-1.996c0.628-0.887,0.943-1.996,0.943-3.327c0-1.293-0.314-2.365-0.943-3.216
			c-0.629-0.85-1.469-1.488-2.522-1.913c-1.054-0.424-2.228-0.638-3.521-0.638c-2.144,0-3.835,0.537-5.073,1.608
			c-1.239,1.073-1.857,2.606-1.857,4.602h-5.711v-1.053c0-2.07,0.563-3.872,1.691-5.406c1.127-1.533,2.652-2.735,4.574-3.604
			c1.921-0.868,4.103-1.303,6.542-1.303h0.887c2.365,0,4.481,0.425,6.348,1.275c1.866,0.851,3.335,2.042,4.408,3.576
			c1.071,1.534,1.608,3.336,1.608,5.406c0,1.441-0.25,2.699-0.749,3.77c-0.499,1.073-1.184,1.987-2.052,2.745
			c-0.869,0.758-1.876,1.396-3.021,1.913v0.333c1.958,0.629,3.576,1.701,4.851,3.216c1.275,1.516,1.913,3.512,1.913,5.988
			c0,2.107-0.601,3.983-1.802,5.627c-1.202,1.646-2.847,2.939-4.935,3.881c-2.089,0.942-4.463,1.414-7.125,1.414H257.286z"/>
		<path d="M175.174,591.272c-2.403,0-4.584-0.555-6.542-1.664c-1.959-1.109-3.512-2.642-4.657-4.602
			c-1.146-1.958-1.719-4.194-1.719-6.708v-13.196c0-2.513,0.572-4.749,1.719-6.709c1.145-1.958,2.698-3.493,4.657-4.602
			c1.958-1.109,4.139-1.664,6.542-1.664h1.275c2.44,0,4.63,0.555,6.57,1.664s3.474,2.643,4.602,4.602
			c1.127,1.96,1.691,4.196,1.691,6.709v13.196c0,2.514-0.564,4.75-1.691,6.708c-1.128,1.96-2.662,3.493-4.602,4.602
			s-4.13,1.664-6.57,1.664H175.174z M175.784,586.226c1.331,0,2.522-0.313,3.576-0.942c1.053-0.628,1.885-1.478,2.495-2.55
			c0.61-1.072,0.915-2.273,0.915-3.604V564.27c0-1.367-0.305-2.578-0.915-3.632c-0.61-1.053-1.442-1.894-2.495-2.522
			c-1.054-0.628-2.246-0.943-3.576-0.943s-2.523,0.314-3.576,0.943c-1.054,0.629-1.885,1.469-2.495,2.522
			c-0.61,1.054-0.915,2.265-0.915,3.632v14.859c0,1.331,0.305,2.532,0.915,3.604c0.61,1.072,1.441,1.922,2.495,2.55
			C173.261,585.912,174.454,586.226,175.784,586.226z"/>
		<path d="M196.741,590.717v-6.653h6.709v6.653H196.741z"/>
		<path d="M223.687,591.272c-2.403,0-4.584-0.555-6.542-1.664c-1.959-1.109-3.512-2.642-4.657-4.602
			c-1.146-1.958-1.719-4.194-1.719-6.708v-13.196c0-2.513,0.572-4.749,1.719-6.709c1.145-1.958,2.698-3.493,4.657-4.602
			c1.958-1.109,4.139-1.664,6.542-1.664h1.275c2.44,0,4.63,0.555,6.57,1.664s3.474,2.643,4.602,4.602
			c1.127,1.96,1.691,4.196,1.691,6.709v13.196c0,2.514-0.564,4.75-1.691,6.708c-1.128,1.96-2.662,3.493-4.602,4.602
			s-4.13,1.664-6.57,1.664H223.687z M224.297,586.226c1.331,0,2.522-0.313,3.576-0.942c1.053-0.628,1.885-1.478,2.495-2.55
			c0.61-1.072,0.915-2.273,0.915-3.604V564.27c0-1.367-0.305-2.578-0.915-3.632c-0.61-1.053-1.442-1.894-2.495-2.522
			c-1.054-0.628-2.246-0.943-3.576-0.943s-2.523,0.314-3.576,0.943c-1.054,0.629-1.885,1.469-2.495,2.522
			c-0.61,1.054-0.915,2.265-0.915,3.632v14.859c0,1.331,0.305,2.532,0.915,3.604c0.61,1.072,1.441,1.922,2.495,2.55
			C221.774,585.912,222.966,586.226,224.297,586.226z"/>
		<path d="M244.7,590.717v-1.663c0-2.292,0.499-4.325,1.497-6.099s2.439-3.327,4.325-4.657l10.423-7.374
			c1.183-0.85,2.171-1.857,2.966-3.022c0.794-1.164,1.192-2.541,1.192-4.13c0-1.996-0.591-3.548-1.774-4.658
			c-1.184-1.108-2.902-1.663-5.156-1.663c-1.368,0-2.588,0.305-3.66,0.915c-1.072,0.61-1.922,1.441-2.55,2.495
			c-0.629,1.054-0.942,2.246-0.942,3.576c0,0.259,0,0.499,0,0.721c0,0.222,0.018,0.444,0.055,0.666h-6.043c0-0.222,0-0.406,0-0.554
			c0-0.147,0-0.295,0-0.444c0-2.476,0.563-4.666,1.691-6.57c1.127-1.903,2.697-3.4,4.712-4.491c2.014-1.09,4.333-1.636,6.958-1.636
			h0.832c2.624,0,4.87,0.481,6.736,1.442c1.866,0.961,3.29,2.292,4.27,3.992c0.979,1.701,1.469,3.697,1.469,5.988
			c0,1.922-0.324,3.604-0.97,5.046c-0.647,1.441-1.534,2.717-2.662,3.825c-1.128,1.109-2.394,2.163-3.798,3.161l-9.259,6.542
			c-0.37,0.259-0.749,0.554-1.136,0.887c-0.388,0.333-0.712,0.675-0.971,1.025c-0.259,0.352-0.425,0.712-0.499,1.081h19.461v5.6
			H244.7z"/>
		<path d="M175.174,645.689c-2.403,0-4.584-0.555-6.542-1.664c-1.959-1.109-3.512-2.642-4.657-4.602
			c-1.146-1.958-1.719-4.194-1.719-6.708v-13.196c0-2.513,0.572-4.749,1.719-6.709c1.145-1.958,2.698-3.493,4.657-4.602
			c1.958-1.109,4.139-1.664,6.542-1.664h1.275c2.44,0,4.63,0.555,6.57,1.664s3.474,2.643,4.602,4.602
			c1.127,1.96,1.691,4.196,1.691,6.709v13.196c0,2.514-0.564,4.75-1.691,6.708c-1.128,1.96-2.662,3.493-4.602,4.602
			s-4.13,1.664-6.57,1.664H175.174z M175.784,640.643c1.331,0,2.522-0.313,3.576-0.942c1.053-0.628,1.885-1.478,2.495-2.55
			c0.61-1.072,0.915-2.273,0.915-3.604v-14.859c0-1.367-0.305-2.578-0.915-3.632c-0.61-1.053-1.442-1.894-2.495-2.522
			c-1.054-0.628-2.246-0.943-3.576-0.943s-2.523,0.314-3.576,0.943c-1.054,0.629-1.885,1.469-2.495,2.522
			c-0.61,1.054-0.915,2.265-0.915,3.632v14.859c0,1.331,0.305,2.532,0.915,3.604c0.61,1.072,1.441,1.922,2.495,2.55
			C173.261,640.33,174.454,640.643,175.784,640.643z"/>
		<path d="M196.741,645.134v-6.653h6.709v6.653H196.741z"/>
		<path d="M223.687,645.689c-2.403,0-4.584-0.555-6.542-1.664c-1.959-1.109-3.512-2.642-4.657-4.602
			c-1.146-1.958-1.719-4.194-1.719-6.708v-13.196c0-2.513,0.572-4.749,1.719-6.709c1.145-1.958,2.698-3.493,4.657-4.602
			c1.958-1.109,4.139-1.664,6.542-1.664h1.275c2.44,0,4.63,0.555,6.57,1.664s3.474,2.643,4.602,4.602
			c1.127,1.96,1.691,4.196,1.691,6.709v13.196c0,2.514-0.564,4.75-1.691,6.708c-1.128,1.96-2.662,3.493-4.602,4.602
			s-4.13,1.664-6.57,1.664H223.687z M224.297,640.643c1.331,0,2.522-0.313,3.576-0.942c1.053-0.628,1.885-1.478,2.495-2.55
			c0.61-1.072,0.915-2.273,0.915-3.604v-14.859c0-1.367-0.305-2.578-0.915-3.632c-0.61-1.053-1.442-1.894-2.495-2.522
			c-1.054-0.628-2.246-0.943-3.576-0.943s-2.523,0.314-3.576,0.943c-1.054,0.629-1.885,1.469-2.495,2.522
			c-0.61,1.054-0.915,2.265-0.915,3.632v14.859c0,1.331,0.305,2.532,0.915,3.604c0.61,1.072,1.441,1.922,2.495,2.55
			C221.774,640.33,222.966,640.643,224.297,640.643z"/>
		<path d="M246.142,645.134v-5.267h9.758v-25.449h-9.758v-3.881c1.293-0.111,2.717-0.341,4.27-0.693
			c1.552-0.351,3.16-0.812,4.824-1.386c1.663-0.573,3.271-1.21,4.823-1.913h2.329v33.322h9.647v5.267H246.142z"/>
		<path d="M257.785,700.107c-2.403,0-4.584-0.555-6.542-1.664c-1.959-1.109-3.512-2.642-4.657-4.602
			c-1.146-1.958-1.719-4.194-1.719-6.708v-13.196c0-2.513,0.572-4.749,1.719-6.709c1.145-1.958,2.698-3.493,4.657-4.602
			c1.958-1.109,4.139-1.664,6.542-1.664h1.275c2.44,0,4.63,0.555,6.57,1.664s3.474,2.643,4.602,4.602
			c1.127,1.96,1.691,4.196,1.691,6.709v13.196c0,2.514-0.564,4.75-1.691,6.708c-1.128,1.96-2.662,3.493-4.602,4.602
			s-4.13,1.664-6.57,1.664H257.785z M258.395,695.061c1.331,0,2.522-0.313,3.576-0.942c1.053-0.628,1.885-1.478,2.495-2.55
			c0.61-1.072,0.915-2.273,0.915-3.604v-14.859c0-1.367-0.305-2.578-0.915-3.632c-0.61-1.053-1.442-1.894-2.495-2.522
			c-1.054-0.628-2.246-0.943-3.576-0.943s-2.523,0.314-3.576,0.943c-1.054,0.629-1.885,1.469-2.495,2.522
			c-0.61,1.054-0.915,2.265-0.915,3.632v14.859c0,1.331,0.305,2.532,0.915,3.604c0.61,1.072,1.441,1.922,2.495,2.55
			C255.872,694.747,257.064,695.061,258.395,695.061z"/>
	</g>
	
		<line style="fill:none;stroke:#0033AD;stroke-width:12.321;stroke-linecap:round;stroke-linejoin:round;stroke-miterlimit:10;" x1="3638.479" y1="534.982" x2="3850.428" y2="534.982"/>
	
		<line style="fill:none;stroke:#3B7982;stroke-width:12.321;stroke-linecap:round;stroke-linejoin:round;stroke-miterlimit:10;" x1="3638.479" y1="582.39" x2="3850.428" y2="582.39"/>
	
		<line style="fill:none;stroke:#FF5553;stroke-width:12.321;stroke-linecap:round;stroke-linejoin:round;stroke-miterlimit:10;" x1="3638.479" y1="630.769" x2="3850.428" y2="630.769"/>
</g>
</svg>
