<?xml version="1.0" encoding="iso-8859-1"?>
<!-- Generator: Adobe Illustrator 29.6.0, SVG Export Plug-In . SVG Version: 9.03 Build 0)  -->
<svg version="1.1" xmlns="http://www.w3.org/2000/svg" xmlns:xlink="http://www.w3.org/1999/xlink" x="0px" y="0px"
	 viewBox="0 0 4000 2774" style="enable-background:new 0 0 4000 2774;" xml:space="preserve">
<g id="source" style="display:none;">
	
		<image style="display:inline;overflow:visible;" width="1086" height="719" xlink:href="../../_Draft Images/sc_aiken_compilation.png"  transform="matrix(3.8642 0 0 3.8642 -86.1724 -3.2194)">
	</image>
</g>
<g id="Background_00000161625753845957949980000003220958196925983382_">
	<rect width="4000" height="2774"/>
</g>
<g id="Lozenges">
	<linearGradient id="SVGID_1_" gradientUnits="userSpaceOnUse" x1="2536.5242" y1="760.1522" x2="3871.5242" y2="760.1522">
		<stop  offset="0" style="stop-color:#AB31E4"/>
		<stop  offset="1" style="stop-color:#660FF7"/>
	</linearGradient>
	<path style="fill:url(#SVGID_1_);" d="M3835.524,1165.652h-1263c-19.8,0-36-16.2-36-36v-739c0-19.8,16.2-36,36-36h1263
		c19.8,0,36,16.2,36,36v739C3871.524,1149.452,3855.324,1165.652,3835.524,1165.652z"/>
	<path style="fill:#6875C8;" d="M1629.901,1300.123H183.196c-19.8,0-36-16.2-36-36v-873.47c0-19.8,16.2-36,36-36h1446.705
		c19.8,0,36,16.2,36,36v873.47C1665.901,1283.923,1649.701,1300.123,1629.901,1300.123z"/>
	<path style="fill:#959595;stroke:#FFFFFF;stroke-width:6;stroke-miterlimit:10;" d="M2216.487,1934.083H183.196
		c-19.8,0-36-16.2-36-36v-116.724c0-19.8,16.2-36,36-36h2033.292c19.8,0,36,16.2,36,36v116.724
		C2252.487,1917.883,2236.287,1934.083,2216.487,1934.083z"/>
	<path style="fill:none;stroke:#FFFFFF;stroke-width:6;stroke-miterlimit:10;" d="M3842.177,2624.135H183.196c-19.8,0-36-16.2-36-36
		v-386.776c0-19.8,16.2-36,36-36h3658.981c19.8,0,36,16.2,36,36v386.776C3878.177,2607.935,3861.977,2624.135,3842.177,2624.135z"/>
	<path style="fill:none;stroke:#FFFFFF;stroke-width:6;stroke-miterlimit:10;" d="M1714.745,2522.208H615.477c-45.1,0-82-36.9-82-82
		v-31.156c0-45.1,36.9-82,82-82h1099.268c45.1,0,82,36.9,82,82v31.156C1796.745,2485.308,1759.845,2522.208,1714.745,2522.208z"/>
	<path style="fill:none;stroke:#FFFFFF;stroke-width:6;stroke-miterlimit:10;" d="M3711.411,2522.208H2612.143
		c-45.1,0-82-36.9-82-82v-31.156c0-45.1,36.9-82,82-82h1099.268c45.1,0,82,36.9,82,82v31.156
		C3793.411,2485.308,3756.511,2522.208,3711.411,2522.208z"/>
</g>
<g id="Type">
	<g>
		<path style="fill:#FFFFFF;" d="M205.953,199.164v41.625c0,4.23-0.863,8.003-2.587,11.317c-1.726,3.315-4.238,5.917-7.538,7.808
			c-3.3,1.89-7.365,2.835-12.195,2.835c-4.86,0-8.94-0.922-12.24-2.768c-3.3-1.845-5.79-4.417-7.47-7.717
			c-1.681-3.3-2.52-7.125-2.52-11.475v-41.625h12.33v38.16c0,5.31,0.72,9.292,2.16,11.948c1.44,2.655,4.02,3.982,7.74,3.982
			c3.75,0,6.345-1.328,7.785-3.982c1.44-2.655,2.16-6.638,2.16-11.948v-38.16H205.953z"/>
		<path style="fill:#FFFFFF;" d="M219.272,261.398v-47.655h10.35l0.855,5.895c2.04-2.4,4.334-4.208,6.885-5.423
			c2.55-1.215,5.294-1.822,8.235-1.822c4.29,0,7.56,1.237,9.81,3.712s3.375,5.948,3.375,10.417v34.875h-11.88v-30.24
			c0-2.399-0.15-4.327-0.45-5.782c-0.3-1.455-0.87-2.504-1.71-3.15c-0.84-0.645-2.055-0.968-3.645-0.968
			c-1.29,0-2.527,0.286-3.712,0.855c-1.186,0.57-2.295,1.335-3.33,2.295c-1.035,0.961-2.002,2.025-2.902,3.195v33.795H219.272z"/>
		<path style="fill:#FFFFFF;" d="M315.751,258.744c-1.771,1.17-3.915,2.13-6.435,2.88s-5.25,1.125-8.19,1.125
			c-5.82,0-10.2-1.508-13.14-4.522c-2.94-3.015-4.41-7.027-4.41-12.038v-24.03h-10.35v-8.415h10.35v-10.485l11.88-1.44v11.925h15.75
			l-1.215,8.415h-14.535v23.985c0,2.46,0.6,4.26,1.8,5.4c1.2,1.141,3.135,1.71,5.805,1.71c1.71,0,3.277-0.203,4.703-0.607
			c1.424-0.405,2.722-0.922,3.892-1.553L315.751,258.744z"/>
		<path style="fill:#FFFFFF;" d="M373.125,213.744l-16.155,47.745c-1.321,3.9-3.031,7.245-5.13,10.035
			c-2.101,2.79-4.748,5.002-7.943,6.638c-3.195,1.635-7.103,2.602-11.722,2.902l-1.485-8.595c3.21-0.45,5.775-1.125,7.695-2.025
			c1.919-0.9,3.457-2.085,4.612-3.555c1.155-1.471,2.152-3.301,2.993-5.49h-4.05l-15.615-47.655h12.555l10.8,39.735l11.25-39.735
			H373.125z"/>
		<path style="fill:#FFFFFF;" d="M409.935,212.394c4.2,0,7.567,1.028,10.103,3.083c2.535,2.055,4.38,4.958,5.535,8.708
			c1.154,3.75,1.732,8.175,1.732,13.275c0,4.89-0.705,9.24-2.115,13.05c-1.411,3.811-3.473,6.803-6.188,8.978
			c-2.716,2.175-6.053,3.263-10.013,3.263c-4.86,0-8.791-1.725-11.79-5.175v22.185l-11.88,1.26v-67.275h10.44l0.63,5.805
			c1.89-2.459,4.005-4.267,6.345-5.422C405.075,212.971,407.475,212.394,409.935,212.394z M406.47,221.303
			c-2.01,0-3.773,0.601-5.288,1.8c-1.515,1.2-2.843,2.685-3.982,4.455v21.33c1.08,1.62,2.31,2.835,3.69,3.645
			c1.379,0.81,2.94,1.215,4.68,1.215c3.03,0,5.347-1.267,6.952-3.803c1.605-2.535,2.408-6.652,2.408-12.353
			c0-4.02-0.323-7.222-0.967-9.607c-0.646-2.385-1.598-4.095-2.858-5.13C409.845,221.821,408.299,221.303,406.47,221.303z"/>
		<path style="fill:#FFFFFF;" d="M450.794,241.193c0.24,2.97,0.922,5.385,2.047,7.245c1.125,1.86,2.572,3.225,4.342,4.095
			c1.77,0.871,3.735,1.305,5.895,1.305c2.28,0,4.425-0.36,6.435-1.08c2.01-0.72,3.99-1.725,5.94-3.015l4.95,6.795
			c-2.22,1.86-4.868,3.36-7.942,4.5c-3.076,1.14-6.458,1.71-10.147,1.71c-5.16,0-9.503-1.065-13.028-3.195
			c-3.525-2.129-6.188-5.085-7.987-8.865c-1.8-3.78-2.7-8.129-2.7-13.05c0-4.74,0.885-9.015,2.655-12.825
			c1.77-3.81,4.32-6.833,7.65-9.067s7.35-3.353,12.06-3.353c4.38,0,8.16,0.96,11.34,2.88c3.18,1.92,5.64,4.673,7.38,8.257
			c1.74,3.585,2.61,7.897,2.61,12.938c0,0.81-0.022,1.636-0.067,2.475c-0.045,0.84-0.098,1.59-0.158,2.25H450.794z M461.009,220.764
			c-2.88,0-5.243,1.028-7.087,3.082c-1.845,2.056-2.933,5.303-3.263,9.743h20.07c-0.061-4.02-0.893-7.162-2.498-9.427
			C466.626,221.896,464.219,220.764,461.009,220.764z"/>
		<path style="fill:#FFFFFF;" d="M523.648,193.448l11.88,1.26v66.69h-10.53l-0.72-5.625c-1.47,2.1-3.315,3.788-5.535,5.062
			c-2.221,1.275-4.8,1.913-7.74,1.913c-4.021,0-7.343-1.051-9.967-3.15c-2.625-2.1-4.575-5.047-5.85-8.843
			c-1.275-3.795-1.913-8.212-1.913-13.252c0-4.86,0.75-9.18,2.25-12.96c1.5-3.78,3.667-6.75,6.502-8.91
			c2.835-2.16,6.202-3.24,10.103-3.24c2.34,0,4.47,0.405,6.39,1.215c1.919,0.81,3.629,2.01,5.13,3.6V193.448z M515.323,221.258
			c-3,0-5.362,1.298-7.087,3.893c-1.726,2.595-2.587,6.728-2.587,12.397c0,3.99,0.36,7.178,1.08,9.562
			c0.72,2.385,1.739,4.103,3.06,5.153c1.32,1.05,2.88,1.575,4.68,1.575c1.98,0,3.728-0.592,5.243-1.777
			c1.515-1.185,2.827-2.662,3.938-4.433v-21.69c-1.11-1.47-2.348-2.617-3.712-3.442C518.57,221.671,517.033,221.258,515.323,221.258
			z"/>
		<path style="fill:#FFFFFF;" d="M650.727,219.008c0,4.831-1.028,8.783-3.083,11.857c-2.055,3.076-4.927,5.34-8.617,6.795
			s-7.95,2.182-12.78,2.182h-7.155v21.555h-12.33v-62.235h18.315c8.07,0,14.362,1.635,18.877,4.905
			C648.469,207.339,650.727,212.319,650.727,219.008z M637.947,219.099c0-2.58-0.488-4.672-1.462-6.278
			c-0.976-1.604-2.393-2.782-4.253-3.532c-1.86-0.75-4.095-1.125-6.705-1.125h-6.435v22.545h6.795c2.459,0,4.582-0.382,6.368-1.147
			c1.784-0.765,3.179-2.002,4.185-3.712C637.444,224.139,637.947,221.889,637.947,219.099z"/>
		<path style="fill:#FFFFFF;" d="M684.746,194.708v52.83c0,2.07,0.608,3.54,1.823,4.41c1.215,0.871,2.857,1.305,4.927,1.305
			c1.29,0,2.535-0.142,3.735-0.427c1.199-0.285,2.34-0.637,3.42-1.058l2.925,8.1c-1.5,0.75-3.323,1.417-5.467,2.002
			c-2.146,0.585-4.628,0.877-7.448,0.877c-5.19,0-9.12-1.485-11.79-4.455c-2.67-2.97-4.005-6.975-4.005-12.015v-43.155h-14.265
			v-8.415H684.746z"/>
		<path style="fill:#FFFFFF;" d="M729.295,213.744v33.03c0,2.581,0.51,4.395,1.53,5.445c1.02,1.051,2.505,1.575,4.455,1.575
			c1.86,0,3.675-0.562,5.445-1.688c1.77-1.125,3.209-2.557,4.32-4.297v-34.065h11.88v47.655h-10.35l-0.63-5.85
			c-1.71,2.34-3.9,4.125-6.57,5.355c-2.67,1.23-5.43,1.845-8.28,1.845c-4.59,0-8.018-1.298-10.282-3.893
			c-2.266-2.595-3.397-6.143-3.397-10.643v-34.47H729.295z"/>
		<path style="fill:#FFFFFF;" d="M813.894,258.744c-1.771,1.17-3.915,2.13-6.435,2.88s-5.25,1.125-8.19,1.125
			c-5.82,0-10.2-1.508-13.14-4.522c-2.94-3.015-4.41-7.027-4.41-12.038v-24.03h-10.35v-8.415h10.35v-10.485l11.88-1.44v11.925h15.75
			l-1.215,8.415h-14.535v23.985c0,2.46,0.6,4.26,1.8,5.4c1.2,1.141,3.135,1.71,5.805,1.71c1.71,0,3.277-0.203,4.703-0.607
			c1.424-0.405,2.722-0.922,3.892-1.553L813.894,258.744z"/>
		<path style="fill:#FFFFFF;" d="M839.993,213.744v33.03c0,2.581,0.51,4.395,1.53,5.445c1.02,1.051,2.505,1.575,4.455,1.575
			c1.86,0,3.675-0.562,5.445-1.688c1.77-1.125,3.209-2.557,4.32-4.297v-34.065h11.88v47.655h-10.35l-0.63-5.85
			c-1.71,2.34-3.9,4.125-6.57,5.355c-2.67,1.23-5.43,1.845-8.28,1.845c-4.59,0-8.018-1.298-10.282-3.893
			c-2.266-2.595-3.397-6.143-3.397-10.643v-34.47H839.993z"/>
		<path style="fill:#FFFFFF;" d="M901.597,253.974c2.79,0,5.032-0.487,6.728-1.463c1.695-0.974,2.542-2.347,2.542-4.117
			c0-1.17-0.278-2.16-0.833-2.97c-0.555-0.81-1.643-1.567-3.262-2.272c-1.62-0.705-4.05-1.492-7.29-2.362
			c-3.06-0.78-5.738-1.748-8.033-2.903c-2.295-1.154-4.08-2.647-5.355-4.478c-1.275-1.829-1.913-4.14-1.913-6.93
			s0.78-5.243,2.34-7.357c1.56-2.115,3.817-3.765,6.772-4.95c2.955-1.185,6.517-1.777,10.688-1.777c4.08,0,7.65,0.533,10.71,1.597
			c3.06,1.065,5.685,2.393,7.875,3.983l-4.86,7.245c-1.92-1.229-3.998-2.228-6.233-2.992c-2.235-0.765-4.643-1.147-7.222-1.147
			c-2.79,0-4.823,0.405-6.098,1.215c-1.275,0.81-1.913,1.935-1.913,3.375c0,1.02,0.322,1.883,0.968,2.587
			c0.645,0.705,1.814,1.38,3.51,2.025c1.695,0.646,4.118,1.417,7.268,2.318c3.089,0.84,5.783,1.83,8.078,2.97
			c2.295,1.141,4.072,2.655,5.333,4.545c1.26,1.89,1.89,4.365,1.89,7.425c0,3.45-1.005,6.3-3.015,8.55
			c-2.01,2.25-4.658,3.923-7.943,5.018c-3.285,1.095-6.848,1.643-10.688,1.643c-4.5,0-8.43-0.646-11.79-1.935
			s-6.21-2.955-8.55-4.995l6.165-6.93c1.86,1.47,3.982,2.685,6.368,3.645C896.22,253.494,898.807,253.974,901.597,253.974z"/>
		<path style="fill:#FFFFFF;" d="M1019.136,197.813c4.32,0,7.979,0.562,10.98,1.688c3,1.125,5.774,2.738,8.325,4.837l-6.255,7.425
			c-1.771-1.5-3.712-2.64-5.828-3.42c-2.115-0.78-4.373-1.17-6.772-1.17c-2.88,0-5.528,0.765-7.942,2.295
			c-2.415,1.53-4.35,3.983-5.805,7.358c-1.456,3.375-2.182,7.823-2.182,13.342c0,5.43,0.697,9.826,2.092,13.185
			c1.395,3.36,3.3,5.812,5.715,7.357c2.415,1.545,5.153,2.317,8.212,2.317c3.24,0,5.925-0.569,8.055-1.71
			c2.13-1.14,4.05-2.385,5.76-3.735l5.805,7.335c-2.19,2.16-4.927,4.005-8.212,5.535c-3.285,1.53-7.268,2.295-11.947,2.295
			c-5.431,0-10.276-1.245-14.535-3.735c-4.26-2.49-7.605-6.15-10.035-10.98c-2.43-4.83-3.645-10.784-3.645-17.865
			c0-6.959,1.252-12.848,3.758-17.663c2.504-4.815,5.895-8.467,10.17-10.958C1009.124,199.059,1013.886,197.813,1019.136,197.813z"
			/>
		<path style="fill:#FFFFFF;" d="M1069.31,212.394c4.74,0,8.76,1.035,12.06,3.105c3.3,2.07,5.812,4.988,7.538,8.752
			c1.725,3.765,2.587,8.167,2.587,13.208c0,5.16-0.871,9.63-2.61,13.41c-1.74,3.78-4.26,6.705-7.56,8.775
			c-3.3,2.07-7.32,3.105-12.06,3.105c-4.71,0-8.723-1.013-12.038-3.038c-3.315-2.025-5.843-4.92-7.583-8.685
			c-1.74-3.765-2.61-8.257-2.61-13.478c0-4.979,0.87-9.36,2.61-13.14c1.74-3.78,4.275-6.727,7.605-8.842
			C1060.58,213.451,1064.6,212.394,1069.31,212.394z M1069.31,221.349c-3.33,0-5.812,1.305-7.447,3.915
			c-1.636,2.61-2.453,6.705-2.453,12.285c0,5.641,0.81,9.758,2.43,12.353c1.62,2.595,4.095,3.893,7.425,3.893
			s5.805-1.297,7.425-3.893c1.62-2.594,2.43-6.742,2.43-12.442c0-5.55-0.81-9.623-2.43-12.218
			C1075.07,222.646,1072.609,221.349,1069.31,221.349z"/>
		<path style="fill:#FFFFFF;" d="M1105.309,261.398v-8.235h6.705v-31.23h-6.705v-8.19h15.75l2.205,10.935
			c1.74-4.05,3.93-7.102,6.57-9.157c2.639-2.055,5.955-3.083,9.945-3.083c1.53,0,2.887,0.12,4.072,0.36
			c1.185,0.241,2.318,0.556,3.397,0.945l-3.555,9.99c-0.93-0.24-1.815-0.427-2.655-0.562c-0.84-0.135-1.785-0.203-2.835-0.203
			c-3.3,0-6.172,1.283-8.617,3.848c-2.446,2.565-4.343,6.038-5.693,10.417v15.93h9.495v8.235H1105.309z M1137.214,232.329v-12.645
			l1.62-5.94h8.415l-2.115,18.585H1137.214z"/>
		<path style="fill:#FFFFFF;" d="M1170.333,241.193c0.24,2.97,0.922,5.385,2.047,7.245c1.125,1.86,2.572,3.225,4.342,4.095
			c1.77,0.871,3.735,1.305,5.895,1.305c2.28,0,4.425-0.36,6.435-1.08c2.01-0.72,3.99-1.725,5.94-3.015l4.95,6.795
			c-2.22,1.86-4.868,3.36-7.942,4.5c-3.076,1.14-6.458,1.71-10.147,1.71c-5.16,0-9.503-1.065-13.028-3.195
			c-3.525-2.129-6.188-5.085-7.987-8.865c-1.8-3.78-2.7-8.129-2.7-13.05c0-4.74,0.885-9.015,2.655-12.825
			c1.77-3.81,4.32-6.833,7.65-9.067s7.35-3.353,12.06-3.353c4.38,0,8.16,0.96,11.34,2.88c3.18,1.92,5.64,4.673,7.38,8.257
			c1.74,3.585,2.61,7.897,2.61,12.938c0,0.81-0.022,1.636-0.067,2.475c-0.045,0.84-0.098,1.59-0.158,2.25H1170.333z
			 M1180.548,220.764c-2.88,0-5.243,1.028-7.087,3.082c-1.845,2.056-2.933,5.303-3.263,9.743h20.07
			c-0.061-4.02-0.893-7.162-2.498-9.427C1186.166,221.896,1183.758,220.764,1180.548,220.764z"/>
	</g>
	<g>
		<path style="fill:#FFFFFF;" d="M207.078,1677.688c0,3.51-0.683,6.436-2.047,8.775c-1.366,2.34-3.218,4.185-5.558,5.535
			c-2.34,1.35-4.988,2.311-7.942,2.88c-2.955,0.57-6.038,0.854-9.248,0.854h-19.305v-62.234h18.18c3.06,0,5.97,0.255,8.73,0.765
			c2.76,0.511,5.227,1.372,7.402,2.588c2.175,1.215,3.9,2.843,5.175,4.882c1.275,2.041,1.913,4.575,1.913,7.605
			c0,2.55-0.533,4.74-1.598,6.569c-1.065,1.831-2.475,3.308-4.23,4.433s-3.638,1.943-5.647,2.453
			c2.25,0.359,4.462,1.058,6.637,2.092c2.175,1.035,3.975,2.581,5.4,4.636C206.365,1671.575,207.078,1674.298,207.078,1677.688z
			 M191.913,1650.418c0-2.82-0.877-4.845-2.632-6.075c-1.755-1.229-4.343-1.845-7.763-1.845h-6.21v16.425h6.75
			c3.36,0,5.842-0.667,7.448-2.003C191.11,1655.586,191.913,1653.418,191.913,1650.418z M194.298,1677.373
			c0-2.521-0.488-4.485-1.462-5.896c-0.976-1.409-2.318-2.407-4.028-2.992s-3.66-0.878-5.85-0.878h-7.65v18.9h7.11
			c1.469,0,2.909-0.12,4.32-0.36c1.41-0.239,2.692-0.682,3.848-1.327c1.154-0.645,2.062-1.567,2.722-2.768
			C193.968,1680.854,194.298,1679.293,194.298,1677.373z"/>
		<path style="fill:#FFFFFF;" d="M246.677,1648.078v39.239h12.555v8.415h-38.385v-8.415h13.95v-30.825h-13.5v-8.414H246.677z
			 M238.982,1624.048c2.189,0,3.967,0.675,5.333,2.024c1.365,1.351,2.047,3.031,2.047,5.04c0,2.011-0.683,3.698-2.047,5.062
			c-1.366,1.366-3.143,2.048-5.333,2.048c-2.19,0-3.976-0.682-5.355-2.048c-1.38-1.364-2.07-3.052-2.07-5.062
			c0-2.009,0.69-3.689,2.07-5.04C235.007,1624.723,236.792,1624.048,238.982,1624.048z"/>
		<path style="fill:#FFFFFF;" d="M274.622,1695.732v-47.654h10.35l0.855,5.895c2.04-2.399,4.334-4.207,6.885-5.423
			c2.55-1.215,5.294-1.822,8.235-1.822c4.29,0,7.56,1.237,9.81,3.713c2.25,2.475,3.375,5.947,3.375,10.417v34.875h-11.88v-30.24
			c0-2.399-0.15-4.326-0.45-5.782c-0.3-1.454-0.87-2.504-1.71-3.149s-2.055-0.968-3.645-0.968c-1.29,0-2.527,0.285-3.712,0.854
			c-1.186,0.57-2.295,1.336-3.33,2.295c-1.035,0.961-2.002,2.025-2.902,3.195v33.795H274.622z"/>
		<path style="fill:#FFFFFF;" d="M367.996,1683.178c0,1.83,0.27,3.157,0.81,3.982s1.41,1.447,2.61,1.867l-2.565,7.965
			c-2.55-0.27-4.718-0.907-6.502-1.912c-1.785-1.005-3.158-2.512-4.118-4.522c-1.8,2.19-4.072,3.825-6.817,4.905
			s-5.618,1.62-8.618,1.62c-4.86,0-8.715-1.38-11.565-4.141c-2.851-2.76-4.275-6.345-4.275-10.755c0-5.069,1.987-8.978,5.962-11.723
			c3.975-2.745,9.607-4.117,16.897-4.117h6.66v-2.565c0-2.819-0.871-4.866-2.61-6.142c-1.74-1.275-4.246-1.913-7.515-1.913
			c-1.53,0-3.442,0.202-5.737,0.607c-2.295,0.405-4.658,1.028-7.088,1.868l-2.835-8.146c3.03-1.14,6.082-1.979,9.158-2.52
			c3.075-0.54,5.873-0.811,8.393-0.811c6.689,0,11.655,1.418,14.895,4.253c3.24,2.835,4.86,6.848,4.86,12.037V1683.178z
			 M346.666,1688.487c1.8,0,3.623-0.51,5.468-1.529c1.845-1.02,3.292-2.445,4.342-4.275v-9.27h-4.68
			c-4.41,0-7.598,0.705-9.562,2.114c-1.965,1.411-2.947,3.405-2.947,5.985c0,2.221,0.63,3.938,1.89,5.152
			C342.436,1687.88,344.265,1688.487,346.666,1688.487z"/>
		<path style="fill:#FFFFFF;" d="M385.77,1695.732v-8.234h6.705v-31.23h-6.705v-8.189h15.75l2.205,10.935
			c1.74-4.05,3.93-7.103,6.57-9.157c2.639-2.055,5.955-3.083,9.945-3.083c1.53,0,2.887,0.12,4.072,0.36s2.318,0.556,3.397,0.945
			l-3.555,9.989c-0.93-0.239-1.815-0.427-2.655-0.562c-0.84-0.135-1.785-0.202-2.835-0.202c-3.3,0-6.172,1.282-8.617,3.848
			c-2.446,2.564-4.343,6.037-5.693,10.417v15.931h9.495v8.234H385.77z M417.675,1666.663v-12.646l1.62-5.939h8.415l-2.115,18.585
			H417.675z"/>
		<path style="fill:#FFFFFF;" d="M483.824,1648.078l-16.155,47.744c-1.321,3.9-3.031,7.245-5.13,10.035
			c-2.101,2.79-4.748,5.002-7.943,6.638c-3.195,1.635-7.103,2.603-11.722,2.902l-1.485-8.595c3.21-0.45,5.775-1.125,7.695-2.025
			c1.919-0.899,3.457-2.085,4.612-3.555c1.155-1.471,2.152-3.301,2.993-5.49h-4.05l-15.615-47.654h12.555l10.8,39.734l11.25-39.734
			H483.824z"/>
		<path style="fill:#FFFFFF;" d="M561.493,1675.527c0.24,2.971,0.922,5.386,2.047,7.245c1.125,1.86,2.572,3.226,4.342,4.095
			c1.77,0.871,3.735,1.306,5.895,1.306c2.28,0,4.425-0.36,6.435-1.08c2.01-0.72,3.99-1.725,5.94-3.015l4.95,6.795
			c-2.22,1.86-4.868,3.359-7.942,4.5c-3.076,1.14-6.458,1.71-10.147,1.71c-5.16,0-9.503-1.065-13.028-3.195
			c-3.525-2.13-6.188-5.085-7.987-8.865s-2.7-8.129-2.7-13.05c0-4.74,0.885-9.015,2.655-12.825c1.77-3.81,4.32-6.832,7.65-9.067
			c3.33-2.234,7.35-3.353,12.06-3.353c4.38,0,8.16,0.961,11.34,2.88c3.18,1.921,5.64,4.673,7.38,8.258
			c1.74,3.585,2.61,7.897,2.61,12.938c0,0.81-0.022,1.636-0.067,2.475c-0.045,0.841-0.098,1.591-0.158,2.25H561.493z
			 M571.708,1655.098c-2.88,0-5.243,1.028-7.087,3.082c-1.845,2.056-2.933,5.304-3.263,9.743h20.07
			c-0.061-4.02-0.893-7.162-2.498-9.428C577.325,1656.23,574.917,1655.098,571.708,1655.098z"/>
		<path style="fill:#FFFFFF;" d="M606.717,1695.732v-47.654h10.35l0.855,5.895c2.04-2.399,4.334-4.207,6.885-5.423
			c2.55-1.215,5.294-1.822,8.235-1.822c4.29,0,7.56,1.237,9.81,3.713c2.25,2.475,3.375,5.947,3.375,10.417v34.875h-11.88v-30.24
			c0-2.399-0.15-4.326-0.45-5.782c-0.3-1.454-0.87-2.504-1.71-3.149s-2.055-0.968-3.645-0.968c-1.29,0-2.527,0.285-3.712,0.854
			c-1.186,0.57-2.295,1.336-3.33,2.295c-1.035,0.961-2.002,2.025-2.902,3.195v33.795H606.717z"/>
		<path style="fill:#FFFFFF;" d="M686.051,1687.543c2.1,0,4.073-0.39,5.917-1.17c1.845-0.78,3.623-1.771,5.333-2.971l5.4,7.605
			c-2.1,1.771-4.635,3.225-7.605,4.365c-2.97,1.14-6.15,1.71-9.54,1.71c-4.98,0-9.248-1.043-12.802-3.128
			c-3.555-2.085-6.285-4.995-8.19-8.729c-1.906-3.735-2.858-8.078-2.858-13.028c0-4.889,0.968-9.262,2.903-13.117
			c1.935-3.854,4.695-6.877,8.28-9.067c3.584-2.189,7.867-3.285,12.848-3.285c3.42,0,6.517,0.488,9.292,1.463
			c2.774,0.975,5.317,2.423,7.627,4.342l-5.265,7.29c-1.771-1.229-3.593-2.167-5.467-2.812c-1.875-0.645-3.818-0.967-5.828-0.967
			c-3.51,0-6.367,1.268-8.572,3.802c-2.205,2.536-3.308,6.653-3.308,12.353c0,3.751,0.518,6.75,1.552,9
			c1.035,2.25,2.445,3.87,4.23,4.86C681.783,1687.048,683.801,1687.543,686.051,1687.543z"/>
		<path style="fill:#FFFFFF;" d="M737.215,1646.728c4.74,0,8.76,1.035,12.06,3.105c3.3,2.069,5.812,4.987,7.538,8.752
			c1.725,3.766,2.587,8.168,2.587,13.208c0,5.16-0.871,9.63-2.61,13.41c-1.74,3.779-4.26,6.704-7.56,8.774
			c-3.3,2.07-7.32,3.105-12.06,3.105c-4.71,0-8.723-1.013-12.038-3.038c-3.315-2.024-5.843-4.92-7.583-8.685
			c-1.74-3.765-2.61-8.258-2.61-13.478c0-4.979,0.87-9.36,2.61-13.141c1.74-3.779,4.275-6.727,7.605-8.842
			S732.505,1646.728,737.215,1646.728z M737.215,1655.683c-3.33,0-5.812,1.305-7.447,3.915c-1.636,2.61-2.453,6.705-2.453,12.285
			c0,5.641,0.81,9.758,2.43,12.353c1.62,2.595,4.095,3.893,7.425,3.893s5.805-1.298,7.425-3.893c1.62-2.595,2.43-6.742,2.43-12.442
			c0-5.55-0.81-9.623-2.43-12.218C742.975,1656.98,740.515,1655.683,737.215,1655.683z"/>
		<path style="fill:#FFFFFF;" d="M800.394,1627.782l11.88,1.261v66.689h-10.53l-0.72-5.625c-1.47,2.101-3.315,3.788-5.535,5.062
			c-2.221,1.275-4.8,1.913-7.74,1.913c-4.021,0-7.343-1.051-9.967-3.15c-2.625-2.1-4.575-5.047-5.85-8.843
			c-1.275-3.795-1.913-8.212-1.913-13.252c0-4.86,0.75-9.181,2.25-12.96c1.5-3.78,3.667-6.75,6.502-8.91s6.202-3.24,10.103-3.24
			c2.34,0,4.47,0.405,6.39,1.215c1.919,0.811,3.629,2.011,5.13,3.601V1627.782z M792.069,1655.593c-3,0-5.362,1.298-7.087,3.893
			c-1.726,2.595-2.587,6.728-2.587,12.397c0,3.99,0.36,7.178,1.08,9.562c0.72,2.385,1.739,4.103,3.06,5.152
			c1.32,1.051,2.88,1.575,4.68,1.575c1.98,0,3.728-0.592,5.243-1.777c1.515-1.186,2.827-2.662,3.938-4.433v-21.69
			c-1.11-1.47-2.348-2.617-3.712-3.442C795.316,1656.006,793.779,1655.593,792.069,1655.593z"/>
		<path style="fill:#FFFFFF;" d="M855.518,1648.078v39.239h12.555v8.415h-38.385v-8.415h13.95v-30.825h-13.5v-8.414H855.518z
			 M847.823,1624.048c2.189,0,3.967,0.675,5.333,2.024c1.365,1.351,2.047,3.031,2.047,5.04c0,2.011-0.683,3.698-2.047,5.062
			c-1.366,1.366-3.143,2.048-5.333,2.048c-2.19,0-3.976-0.682-5.355-2.048c-1.38-1.364-2.07-3.052-2.07-5.062
			c0-2.009,0.69-3.689,2.07-5.04C843.848,1624.723,845.633,1624.048,847.823,1624.048z"/>
		<path style="fill:#FFFFFF;" d="M883.462,1695.732v-47.654h10.35l0.855,5.895c2.04-2.399,4.334-4.207,6.885-5.423
			c2.55-1.215,5.294-1.822,8.235-1.822c4.29,0,7.56,1.237,9.81,3.713c2.25,2.475,3.375,5.947,3.375,10.417v34.875h-11.88v-30.24
			c0-2.399-0.15-4.326-0.45-5.782c-0.3-1.454-0.87-2.504-1.71-3.149s-2.055-0.968-3.645-0.968c-1.29,0-2.527,0.285-3.712,0.854
			c-1.186,0.57-2.295,1.336-3.33,2.295c-1.035,0.961-2.002,2.025-2.902,3.195v33.795H883.462z"/>
		<path style="fill:#FFFFFF;" d="M979.896,1641.373l2.97,9.27c-1.8,0.63-3.825,1.073-6.075,1.327
			c-2.25,0.256-4.831,0.383-7.74,0.383c2.91,1.26,5.123,2.857,6.638,4.793c1.515,1.935,2.272,4.387,2.272,7.357
			c0,3.09-0.788,5.85-2.362,8.279c-1.575,2.431-3.811,4.336-6.705,5.716c-2.896,1.38-6.338,2.069-10.328,2.069
			c-1.23,0-2.325-0.06-3.285-0.18c-0.96-0.119-1.89-0.285-2.79-0.495c-0.6,0.33-1.065,0.811-1.395,1.44s-0.495,1.275-0.495,1.935
			c0,0.9,0.352,1.673,1.057,2.317c0.705,0.646,2.228,0.968,4.568,0.968h8.1c3.51,0,6.593,0.593,9.248,1.777
			c2.655,1.186,4.725,2.783,6.21,4.793c1.485,2.01,2.228,4.319,2.228,6.93c0,4.8-2.085,8.55-6.255,11.25
			c-4.17,2.7-10.26,4.05-18.27,4.05c-5.73,0-10.192-0.585-13.387-1.755c-3.195-1.17-5.438-2.873-6.728-5.107
			c-1.291-2.235-1.935-4.928-1.935-8.077h10.575c0,1.529,0.308,2.79,0.923,3.779c0.614,0.99,1.77,1.725,3.465,2.205
			c1.694,0.479,4.132,0.72,7.312,0.72c3.18,0,5.677-0.255,7.493-0.765c1.814-0.511,3.097-1.237,3.847-2.183
			c0.75-0.944,1.125-2.047,1.125-3.308c0-1.71-0.72-3.045-2.16-4.005c-1.44-0.96-3.48-1.439-6.12-1.439h-7.875
			c-4.8,0-8.295-0.938-10.485-2.812c-2.19-1.875-3.285-4.043-3.285-6.503c0-1.68,0.457-3.292,1.373-4.837
			c0.915-1.545,2.228-2.858,3.938-3.938c-2.94-1.56-5.062-3.428-6.368-5.603s-1.958-4.808-1.958-7.897c0-3.45,0.87-6.45,2.61-9
			c1.74-2.55,4.155-4.53,7.245-5.94c3.09-1.41,6.645-2.115,10.665-2.115c3.69,0.03,6.833-0.194,9.428-0.675
			c2.594-0.479,4.889-1.14,6.885-1.98C976.063,1643.278,978.006,1642.362,979.896,1641.373z M957.981,1654.692
			c-2.82,0-4.973,0.826-6.458,2.476c-1.485,1.65-2.228,3.84-2.228,6.569c0,2.82,0.765,5.056,2.295,6.705
			c1.53,1.65,3.675,2.476,6.435,2.476c2.729,0,4.807-0.803,6.232-2.408c1.425-1.604,2.138-3.907,2.138-6.907
			c0-2.999-0.713-5.234-2.138-6.705C962.833,1655.428,960.741,1654.692,957.981,1654.692z"/>
	</g>
	<g>
		<path style="fill:#FFFFFF;" d="M345.875,1852.487c0,9.955-7.979,16.3-18.769,16.3c-9.917,0-16.946-5.016-18.58-14.514l7.979-1.14
			c1.178,5.736,5.547,8.473,10.828,8.473c6.042,0,9.803-3.229,9.841-9.233c0.038-5.812-3.154-9.309-9.271-9.309
			c-3.762,0-6.573,1.292-9.613,4.445l-6.763-3.951l1.71-24.886H343.9c-0.57,4.787-0.76,9.422-0.608,14.247h-7.181
			c-0.076-2.469-0.038-4.938,0.114-7.37h-16.034l-1.026,15.083c3.268-2.812,6.763-3.913,11.246-3.913
			C340.176,1836.758,345.875,1842.951,345.875,1852.487z"/>
		<path style="fill:#FFFFFF;" d="M394.172,1852.563c0,10.297-8.168,16.224-19.073,16.224c-9.917,0-16.49-4.901-18.352-15.312
			l8.093-1.748c1.368,6.991,5.547,9.765,10.524,9.765c5.585,0,10.183-2.773,10.183-9.081c0-5.205-3.686-8.093-9.385-8.093
			c-1.596,0-3.115,0.19-4.787,0.685l-2.204-4.37l14.362-15.121h-17.439c-0.076,3.609-0.342,6.421-0.684,9.688h-6.763
			c0.646-6.003,0.874-10.753,0.684-16.489l33.473-0.038v6.648l-13.336,13.336C388.701,1839.037,394.172,1844.889,394.172,1852.563z"
			/>
		<path style="fill:#FFFFFF;" d="M404.628,1843.369c0-15.464,6.649-25.419,19.567-25.419c12.918,0,19.567,9.955,19.567,25.419
			s-6.421,25.418-19.567,25.418C411.087,1868.787,404.628,1858.833,404.628,1843.369z M435.062,1843.369
			c0-10.829-3.42-18.162-10.867-18.162s-10.866,7.333-10.866,18.162c0,10.866,3.419,18.199,10.866,18.199
			S435.062,1854.235,435.062,1843.369z"/>
		<path style="fill:#FFFFFF;" d="M483.777,1860.58v7.485h-30.775v-7.485h10.866v-33.131c-3.496,0.95-6.953,1.481-10.866,1.71v-7.713
			c7.143-0.38,13.374-1.634,19.871-3.914v43.048H483.777z"/>
		<path style="fill:#FFFFFF;" d="M491.344,1843.369c0-15.464,6.649-25.419,19.567-25.419c12.918,0,19.567,9.955,19.567,25.419
			s-6.421,25.418-19.567,25.418C497.803,1868.787,491.344,1858.833,491.344,1843.369z M521.777,1843.369
			c0-10.829-3.42-18.162-10.867-18.162s-10.866,7.333-10.866,18.162c0,10.866,3.419,18.199,10.866,18.199
			S521.777,1854.235,521.777,1843.369z"/>
		<path style="fill:#FFFFFF;" d="M540.478,1843.369c0-15.464,6.649-25.419,19.567-25.419c12.918,0,19.567,9.955,19.567,25.419
			s-6.421,25.418-19.567,25.418C546.937,1868.787,540.478,1858.833,540.478,1843.369z M570.911,1843.369
			c0-10.829-3.42-18.162-10.867-18.162s-10.866,7.333-10.866,18.162c0,10.866,3.419,18.199,10.866,18.199
			S570.911,1854.235,570.911,1843.369z"/>
		<path style="fill:#FFFFFF;" d="M589.611,1843.369c0-15.464,6.649-25.419,19.567-25.419c12.918,0,19.567,9.955,19.567,25.419
			s-6.421,25.418-19.567,25.418C596.07,1868.787,589.611,1858.833,589.611,1843.369z M620.045,1843.369
			c0-10.829-3.42-18.162-10.867-18.162s-10.866,7.333-10.866,18.162c0,10.866,3.419,18.199,10.866,18.199
			S620.045,1854.235,620.045,1843.369z"/>
		<path style="fill:#FFFFFF;" d="M638.745,1843.369c0-15.464,6.649-25.419,19.567-25.419c12.918,0,19.567,9.955,19.567,25.419
			s-6.421,25.418-19.567,25.418C645.204,1868.787,638.745,1858.833,638.745,1843.369z M669.179,1843.369
			c0-10.829-3.42-18.162-10.867-18.162s-10.866,7.333-10.866,18.162c0,10.866,3.419,18.199,10.866,18.199
			S669.179,1854.235,669.179,1843.369z"/>
		<path style="fill:#FFFFFF;" d="M724.81,1868.065h-35.601l-0.38-7.333l15.996-12.994c5.015-4.104,9.461-8.739,9.461-15.084
			c0-4.787-2.432-7.447-7.941-7.447c-6.953,0-9.461,4.065-8.777,12.652l-8.321-1.52c-1.292-11.702,5.395-18.39,17.363-18.39
			c11.55,0,16.793,6.079,16.793,14.438c0,9.08-5.319,14.932-12.766,20.175l-11.931,8.625h19.301
			c0.076-2.812,0.266-5.357,0.608-7.979h6.839C724.847,1858.034,724.619,1862.974,724.81,1868.065z"/>
		<path style="fill:#FFFFFF;" d="M771.093,1868.065h-35.601l-0.38-7.333l15.996-12.994c5.015-4.104,9.461-8.739,9.461-15.084
			c0-4.787-2.432-7.447-7.941-7.447c-6.953,0-9.461,4.065-8.777,12.652l-8.321-1.52c-1.292-11.702,5.395-18.39,17.363-18.39
			c11.55,0,16.793,6.079,16.793,14.438c0,9.08-5.319,14.932-12.766,20.175l-11.931,8.625h19.301
			c0.076-2.812,0.266-5.357,0.608-7.979h6.839C771.13,1858.034,770.902,1862.974,771.093,1868.065z"/>
		<path style="fill:#FFFFFF;" d="M817.908,1852.487c0,9.955-7.979,16.3-18.769,16.3c-9.917,0-16.946-5.016-18.58-14.514l7.979-1.14
			c1.178,5.736,5.547,8.473,10.828,8.473c6.042,0,9.803-3.229,9.841-9.233c0.038-5.812-3.154-9.309-9.271-9.309
			c-3.762,0-6.573,1.292-9.613,4.445l-6.763-3.951l1.71-24.886h30.662c-0.57,4.787-0.76,9.422-0.608,14.247h-7.181
			c-0.076-2.469-0.038-4.938,0.114-7.37h-16.034l-1.026,15.083c3.268-2.812,6.763-3.913,11.246-3.913
			C812.208,1836.758,817.908,1842.951,817.908,1852.487z"/>
		<path style="fill:#FFFFFF;" d="M866.205,1852.563c0,10.297-8.168,16.224-19.073,16.224c-9.917,0-16.49-4.901-18.352-15.312
			l8.093-1.748c1.368,6.991,5.547,9.765,10.524,9.765c5.585,0,10.183-2.773,10.183-9.081c0-5.205-3.686-8.093-9.385-8.093
			c-1.596,0-3.115,0.19-4.787,0.685l-2.204-4.37l14.362-15.121h-17.439c-0.076,3.609-0.342,6.421-0.684,9.688h-6.763
			c0.646-6.003,0.874-10.753,0.684-16.489l33.473-0.038v6.648l-13.336,13.336C860.733,1839.037,866.205,1844.889,866.205,1852.563z"
			/>
		<path style="fill:#FFFFFF;" d="M914.844,1852.563c0,10.297-8.168,16.224-19.073,16.224c-9.917,0-16.49-4.901-18.352-15.312
			l8.093-1.748c1.368,6.991,5.547,9.765,10.524,9.765c5.585,0,10.183-2.773,10.183-9.081c0-5.205-3.686-8.093-9.385-8.093
			c-1.596,0-3.115,0.19-4.787,0.685l-2.204-4.37l14.362-15.121h-17.439c-0.076,3.609-0.342,6.421-0.684,9.688h-6.763
			c0.646-6.003,0.874-10.753,0.684-16.489l33.473-0.038v6.648l-13.336,13.336C909.373,1839.037,914.844,1844.889,914.844,1852.563z"
			/>
		<path style="fill:#FFFFFF;" d="M963.484,1852.563c0,10.297-8.168,16.224-19.073,16.224c-9.917,0-16.489-4.901-18.351-15.312
			l8.093-1.748c1.368,6.991,5.547,9.765,10.524,9.765c5.585,0,10.183-2.773,10.183-9.081c0-5.205-3.686-8.093-9.385-8.093
			c-1.596,0-3.115,0.19-4.787,0.685l-2.204-4.37l14.362-15.121h-17.439c-0.076,3.609-0.342,6.421-0.684,9.688h-6.763
			c0.646-6.003,0.874-10.753,0.684-16.489l33.473-0.038v6.648l-13.336,13.336C958.013,1839.037,963.484,1844.889,963.484,1852.563z"
			/>
		<path style="fill:#FFFFFF;" d="M1011.402,1852.487c0,9.955-7.979,16.3-18.769,16.3c-9.917,0-16.946-5.016-18.58-14.514l7.979-1.14
			c1.178,5.736,5.547,8.473,10.828,8.473c6.042,0,9.803-3.229,9.841-9.233c0.038-5.812-3.154-9.309-9.271-9.309
			c-3.762,0-6.573,1.292-9.613,4.445l-6.763-3.951l1.71-24.886h30.662c-0.57,4.787-0.76,9.422-0.608,14.247h-7.181
			c-0.076-2.469-0.038-4.938,0.114-7.37h-16.034l-1.026,15.083c3.268-2.812,6.763-3.913,11.246-3.913
			C1005.703,1836.758,1011.402,1842.951,1011.402,1852.487z"/>
		<path style="fill:#FFFFFF;" d="M1056.318,1825.321c-10.183,13.641-14.552,26.064-15.578,42.744h-8.967
			c1.558-16.983,6.649-29.446,17.173-42.516h-19.833c-0.076,3.609-0.342,7.028-0.684,10.524h-6.763
			c0.608-6.004,0.836-11.589,0.722-17.363l33.663-0.038L1056.318,1825.321z"/>
		<path style="fill:#FFFFFF;" d="M1103.398,1852.563c0,10.297-8.168,16.224-19.073,16.224c-9.917,0-16.489-4.901-18.351-15.312
			l8.093-1.748c1.368,6.991,5.547,9.765,10.524,9.765c5.585,0,10.183-2.773,10.183-9.081c0-5.205-3.686-8.093-9.385-8.093
			c-1.596,0-3.115,0.19-4.787,0.685l-2.204-4.37l14.362-15.121h-17.439c-0.076,3.609-0.342,6.421-0.684,9.688h-6.763
			c0.646-6.003,0.874-10.753,0.684-16.489l33.473-0.038v6.648l-13.336,13.336
			C1097.927,1839.037,1103.398,1844.889,1103.398,1852.563z"/>
		<path style="fill:#FFFFFF;" d="M1144.553,1853.894v7.637h6.269v6.535h-22.455v-6.535h8.321v-7.637h-22.531l-0.76-5.243
			l19.453-30.396h11.702v29.331h7.979v6.308H1144.553z M1136.688,1847.586v-11.398c0-3.647-0.038-7.484,0.19-11.474
			c-2.014,3.837-3.875,6.839-6.079,10.41l-8.017,12.462H1136.688z"/>
		<path style="fill:#FFFFFF;" d="M1199.082,1851.728c0,10.068-7.067,17.06-18.01,17.06c-11.512,0-18.503-7.713-18.503-23.746
			c0-15.769,7.067-27.091,22.15-27.091c4.939,0,9.537,1.33,13.184,3.762l-2.849,6.726c-3.116-2.242-6.535-3.268-10.259-3.268
			c-8.625,0-13.754,5.471-14.134,17.401c2.66-4.37,7.105-6.573,12.576-6.573C1192.965,1835.998,1199.082,1842.457,1199.082,1851.728
			z M1190.799,1852.336c0-6.117-3.989-9.157-9.499-9.157c-4.179,0-8.168,1.976-10.372,6.155c0.304,8.131,3.685,12.424,10.144,12.424
			C1187.114,1861.758,1190.799,1858.225,1190.799,1852.336z"/>
		<path style="fill:#FFFFFF;" d="M1245.936,1851.728c0,10.068-7.067,17.06-18.009,17.06c-11.513,0-18.503-7.713-18.503-23.746
			c0-15.769,7.067-27.091,22.151-27.091c4.939,0,9.536,1.33,13.184,3.762l-2.85,6.726c-3.115-2.242-6.535-3.268-10.258-3.268
			c-8.625,0-13.754,5.471-14.134,17.401c2.66-4.37,7.105-6.573,12.576-6.573C1239.819,1835.998,1245.936,1842.457,1245.936,1851.728
			z M1237.653,1852.336c0-6.117-3.99-9.157-9.499-9.157c-4.179,0-8.168,1.976-10.372,6.155c0.304,8.131,3.685,12.424,10.145,12.424
			C1233.968,1861.758,1237.653,1858.225,1237.653,1852.336z"/>
		<path style="fill:#FFFFFF;" d="M1291.003,1851.766h-27.698c0.76,6.421,4.673,10.41,11.322,10.41c4.863,0,8.245-1.672,10.259-4.901
			l5.585,3.078c-3.191,5.585-8.663,8.435-15.844,8.435c-12.082,0-19.111-8.093-19.111-19.301c0-10.867,7.067-19.149,18.199-19.149
			c10.942,0,17.401,7.333,17.401,18.579C1291.118,1849.79,1291.08,1850.815,1291.003,1851.766z M1263.382,1846.294h20.023
			c-0.494-6.154-4.027-9.46-9.727-9.46C1267.941,1836.834,1264.293,1840.405,1263.382,1846.294z"/>
		<path style="fill:#FFFFFF;" d="M1330.334,1860.58v7.485h-30.775v-7.485h10.866v-33.131c-3.496,0.95-6.953,1.481-10.866,1.71
			v-7.713c7.143-0.38,13.374-1.634,19.871-3.914v43.048H1330.334z"/>
		<path style="fill:#FFFFFF;" d="M1380.796,1861.645v6.421H1368.6l-0.38-7.409c-2.318,5.205-6.649,8.131-13.108,8.131
			c-10.449,0-16.604-7.789-16.604-19.226c0-11.474,6.231-19.225,16.869-19.225c5.737,0,9.765,2.241,12.158,6.459v-14.97h-7.637
			v-6.801h15.084v46.619H1380.796z M1367.688,1849.523c0-7.143-4.255-12.195-10.98-12.195c-6.801,0-10.296,4.9-10.296,12.195
			s3.495,12.349,10.296,12.349C1363.433,1861.872,1367.688,1856.743,1367.688,1849.523z"/>
		<path style="fill:#FFFFFF;" d="M1426.434,1868.065h-35.601l-0.38-7.333l15.996-12.994c5.015-4.104,9.46-8.739,9.46-15.084
			c0-4.787-2.432-7.447-7.94-7.447c-6.953,0-9.461,4.065-8.777,12.652l-8.321-1.52c-1.292-11.702,5.395-18.39,17.363-18.39
			c11.55,0,16.794,6.079,16.794,14.438c0,9.08-5.319,14.932-12.767,20.175l-11.93,8.625h19.301c0.076-2.812,0.266-5.357,0.608-7.979
			h6.839C1426.472,1858.034,1426.244,1862.974,1426.434,1868.065z"/>
		<path style="fill:#FFFFFF;" d="M1435.787,1843.369c0-15.464,6.649-25.419,19.567-25.419s19.567,9.955,19.567,25.419
			s-6.421,25.418-19.567,25.418C1442.246,1868.787,1435.787,1858.833,1435.787,1843.369z M1466.22,1843.369
			c0-10.829-3.419-18.162-10.867-18.162c-7.447,0-10.866,7.333-10.866,18.162c0,10.866,3.419,18.199,10.866,18.199
			C1462.801,1861.568,1466.22,1854.235,1466.22,1843.369z"/>
		<path style="fill:#FFFFFF;" d="M1522.383,1852.487c0,9.955-7.979,16.3-18.769,16.3c-9.917,0-16.946-5.016-18.58-14.514l7.979-1.14
			c1.178,5.736,5.547,8.473,10.828,8.473c6.042,0,9.803-3.229,9.841-9.233c0.038-5.812-3.154-9.309-9.271-9.309
			c-3.762,0-6.573,1.292-9.613,4.445l-6.763-3.951l1.71-24.886h30.662c-0.57,4.787-0.76,9.422-0.608,14.247h-7.181
			c-0.076-2.469-0.038-4.938,0.114-7.37h-16.034l-1.026,15.083c3.268-2.812,6.763-3.913,11.246-3.913
			C1516.684,1836.758,1522.383,1842.951,1522.383,1852.487z"/>
		<path style="fill:#FFFFFF;" d="M1563.195,1853.894v7.637h6.269v6.535h-22.455v-6.535h8.321v-7.637h-22.531l-0.76-5.243
			l19.453-30.396h11.702v29.331h7.979v6.308H1563.195z M1555.33,1847.586v-11.398c0-3.647-0.038-7.484,0.19-11.474
			c-2.014,3.837-3.875,6.839-6.079,10.41l-8.017,12.462H1555.33z"/>
		<path style="fill:#FFFFFF;" d="M1611.91,1853.894v7.637h6.269v6.535h-22.455v-6.535h8.321v-7.637h-22.531l-0.76-5.243
			l19.453-30.396h11.702v29.331h7.979v6.308H1611.91z M1604.045,1847.586v-11.398c0-3.647-0.038-7.484,0.19-11.474
			c-2.014,3.837-3.875,6.839-6.079,10.41l-8.017,12.462H1604.045z"/>
		<path style="fill:#FFFFFF;" d="M1666.704,1854.653c0,8.32-7.903,14.134-18.237,14.134s-18.237-5.813-18.237-14.134
			c0-6.155,3.762-10.524,9.803-12.538c-5.129-1.976-8.321-5.852-8.321-10.942c0-8.245,7.029-13.223,16.755-13.223
			c9.651,0,16.68,4.978,16.68,13.223c0,5.091-3.153,8.967-8.245,10.942C1662.943,1844.129,1666.704,1848.498,1666.704,1854.653z
			 M1658.231,1853.894c0-5.168-3.875-8.511-9.765-8.511s-9.802,3.343-9.802,8.511c0,4.825,3.989,8.244,9.802,8.244
			C1654.28,1862.138,1658.231,1858.681,1658.231,1853.894z M1640.07,1831.667c0,4.407,3.458,7.257,8.396,7.257
			c4.939,0,8.397-2.888,8.397-7.257c0-4.445-3.344-7.067-8.397-7.067C1643.375,1824.6,1640.07,1827.222,1640.07,1831.667z"/>
		<path style="fill:#FFFFFF;" d="M1706.984,1860.58v7.485h-30.775v-7.485h10.866v-33.131c-3.496,0.95-6.953,1.481-10.866,1.71
			v-7.713c7.143-0.38,13.374-1.634,19.871-3.914v43.048H1706.984z"/>
		<path style="fill:#FFFFFF;" d="M1752.204,1852.487c0,9.955-7.979,16.3-18.769,16.3c-9.917,0-16.946-5.016-18.58-14.514l7.979-1.14
			c1.178,5.736,5.547,8.473,10.828,8.473c6.042,0,9.803-3.229,9.841-9.233c0.038-5.812-3.154-9.309-9.271-9.309
			c-3.762,0-6.573,1.292-9.613,4.445l-6.763-3.951l1.71-24.886h30.662c-0.57,4.787-0.76,9.422-0.608,14.247h-7.181
			c-0.076-2.469-0.038-4.938,0.114-7.37h-16.034l-1.026,15.083c3.268-2.812,6.763-3.913,11.246-3.913
			C1746.504,1836.758,1752.204,1842.951,1752.204,1852.487z"/>
		<path style="fill:#FFFFFF;" d="M1762.316,1843.369c0-15.464,6.649-25.419,19.567-25.419c12.918,0,19.567,9.955,19.567,25.419
			s-6.421,25.418-19.567,25.418C1768.775,1868.787,1762.316,1858.833,1762.316,1843.369z M1792.75,1843.369
			c0-10.829-3.42-18.162-10.867-18.162s-10.866,7.333-10.866,18.162c0,10.866,3.419,18.199,10.866,18.199
			S1792.75,1854.235,1792.75,1843.369z"/>
		<path style="fill:#FFFFFF;" d="M1848.913,1852.487c0,9.955-7.979,16.3-18.769,16.3c-9.917,0-16.946-5.016-18.58-14.514l7.979-1.14
			c1.178,5.736,5.547,8.473,10.828,8.473c6.042,0,9.803-3.229,9.841-9.233c0.038-5.812-3.154-9.309-9.271-9.309
			c-3.762,0-6.573,1.292-9.613,4.445l-6.763-3.951l1.71-24.886h30.662c-0.57,4.787-0.76,9.422-0.608,14.247h-7.181
			c-0.076-2.469-0.038-4.938,0.114-7.37h-16.034l-1.026,15.083c3.268-2.812,6.763-3.913,11.246-3.913
			C1843.213,1836.758,1848.913,1842.951,1848.913,1852.487z"/>
		<path style="fill:#FFFFFF;" d="M1895.956,1868.065h-35.601l-0.38-7.333l15.996-12.994c5.015-4.104,9.461-8.739,9.461-15.084
			c0-4.787-2.432-7.447-7.941-7.447c-6.953,0-9.461,4.065-8.777,12.652l-8.321-1.52c-1.292-11.702,5.395-18.39,17.363-18.39
			c11.55,0,16.793,6.079,16.793,14.438c0,9.08-5.319,14.932-12.766,20.175l-11.931,8.625h19.301
			c0.076-2.812,0.266-5.357,0.608-7.979h6.839C1895.994,1858.034,1895.766,1862.974,1895.956,1868.065z"/>
		<path style="fill:#FFFFFF;" d="M1941.821,1851.728c0,10.068-7.067,17.06-18.01,17.06c-11.512,0-18.503-7.713-18.503-23.746
			c0-15.769,7.067-27.091,22.15-27.091c4.939,0,9.537,1.33,13.184,3.762l-2.849,6.726c-3.116-2.242-6.535-3.268-10.259-3.268
			c-8.625,0-13.754,5.471-14.134,17.401c2.66-4.37,7.105-6.573,12.576-6.573C1935.704,1835.998,1941.821,1842.457,1941.821,1851.728
			z M1933.538,1852.336c0-6.117-3.989-9.157-9.499-9.157c-4.179,0-8.168,1.976-10.372,6.155c0.304,8.131,3.685,12.424,10.144,12.424
			C1929.853,1861.758,1933.538,1858.225,1933.538,1852.336z"/>
		<path style="fill:#FFFFFF;" d="M1982.178,1860.58v7.485h-30.775v-7.485h10.866v-33.131c-3.496,0.95-6.953,1.481-10.866,1.71
			v-7.713c7.143-0.38,13.374-1.634,19.871-3.914v43.048H1982.178z"/>
		<path style="fill:#FFFFFF;" d="M2026.257,1851.728c0,10.068-7.066,17.06-18.009,17.06c-11.513,0-18.503-7.713-18.503-23.746
			c0-15.769,7.067-27.091,22.151-27.091c4.938,0,9.536,1.33,13.184,3.762l-2.85,6.726c-3.115-2.242-6.535-3.268-10.259-3.268
			c-8.624,0-13.753,5.471-14.133,17.401c2.66-4.37,7.105-6.573,12.576-6.573C2020.14,1835.998,2026.257,1842.457,2026.257,1851.728z
			 M2017.975,1852.336c0-6.117-3.99-9.157-9.499-9.157c-4.18,0-8.168,1.976-10.372,6.155c0.304,8.131,3.685,12.424,10.145,12.424
			C2014.289,1861.758,2017.975,1858.225,2017.975,1852.336z"/>
		<path style="fill:#FFFFFF;" d="M2036.599,1843.369c0-15.464,6.648-25.419,19.566-25.419c12.919,0,19.567,9.955,19.567,25.419
			s-6.421,25.418-19.567,25.418C2043.058,1868.787,2036.599,1858.833,2036.599,1843.369z M2067.032,1843.369
			c0-10.829-3.42-18.162-10.867-18.162c-7.446,0-10.866,7.333-10.866,18.162c0,10.866,3.42,18.199,10.866,18.199
			C2063.612,1861.568,2067.032,1854.235,2067.032,1843.369z"/>
		<path style="fill:#FFFFFF;" d="M2115.748,1860.58v7.485h-30.775v-7.485h10.866v-33.131c-3.496,0.95-6.953,1.481-10.866,1.71
			v-7.713c7.143-0.38,13.374-1.634,19.871-3.914v43.048H2115.748z"/>
	</g>
	<g>
		<path style="fill:#FFFFFF;" d="M1014.359,2448.065v-62.235h12.33v52.245h27.45l-1.305,9.99H1014.359z"/>
		<path style="fill:#FFFFFF;" d="M1077.358,2427.86c0.24,2.97,0.922,5.385,2.047,7.245s2.572,3.225,4.342,4.095
			s3.735,1.305,5.895,1.305c2.28,0,4.425-0.359,6.435-1.08c2.01-0.72,3.99-1.725,5.94-3.015l4.95,6.795
			c-2.22,1.86-4.868,3.36-7.942,4.5c-3.076,1.14-6.458,1.71-10.147,1.71c-5.16,0-9.503-1.065-13.028-3.195
			c-3.525-2.129-6.188-5.085-7.987-8.864c-1.8-3.78-2.7-8.13-2.7-13.05c0-4.74,0.885-9.016,2.655-12.825
			c1.77-3.81,4.32-6.833,7.65-9.067c3.33-2.235,7.35-3.353,12.06-3.353c4.38,0,8.16,0.96,11.34,2.88
			c3.18,1.92,5.64,4.673,7.38,8.257c1.74,3.586,2.61,7.897,2.61,12.938c0,0.811-0.022,1.636-0.067,2.476
			c-0.045,0.84-0.098,1.59-0.158,2.25H1077.358z M1087.573,2407.431c-2.88,0-5.243,1.027-7.087,3.082
			c-1.845,2.056-2.933,5.303-3.263,9.742h20.07c-0.061-4.02-0.893-7.162-2.498-9.427
			C1093.19,2408.562,1090.783,2407.431,1087.573,2407.431z"/>
		<path style="fill:#FFFFFF;" d="M1150.212,2380.115l11.88,1.26v66.69h-10.53l-0.72-5.625c-1.47,2.1-3.315,3.787-5.535,5.062
			c-2.221,1.274-4.8,1.912-7.74,1.912c-4.021,0-7.343-1.051-9.967-3.149c-2.625-2.1-4.575-5.048-5.85-8.843
			c-1.275-3.795-1.913-8.213-1.913-13.253c0-4.859,0.75-9.18,2.25-12.96c1.5-3.779,3.667-6.75,6.502-8.91
			c2.835-2.159,6.202-3.239,10.103-3.239c2.34,0,4.47,0.404,6.39,1.215c1.919,0.81,3.629,2.01,5.13,3.6V2380.115z
			 M1141.887,2407.925c-3,0-5.362,1.299-7.087,3.893c-1.726,2.596-2.587,6.728-2.587,12.397c0,3.99,0.36,7.178,1.08,9.562
			c0.72,2.386,1.739,4.104,3.06,5.153c1.32,1.05,2.88,1.574,4.68,1.574c1.98,0,3.728-0.592,5.243-1.777
			c1.515-1.185,2.827-2.662,3.938-4.433v-21.689c-1.11-1.47-2.348-2.617-3.712-3.442
			C1145.134,2408.338,1143.597,2407.925,1141.887,2407.925z"/>
		<path style="fill:#FFFFFF;" d="M1219.016,2393.705l2.97,9.271c-1.8,0.63-3.825,1.072-6.075,1.327s-4.831,0.383-7.74,0.383
			c2.91,1.26,5.123,2.857,6.638,4.792c1.515,1.936,2.272,4.388,2.272,7.357c0,3.091-0.788,5.851-2.362,8.28
			c-1.575,2.43-3.811,4.335-6.705,5.715c-2.896,1.38-6.338,2.07-10.328,2.07c-1.23,0-2.325-0.06-3.285-0.181
			c-0.96-0.119-1.89-0.284-2.79-0.494c-0.6,0.33-1.065,0.81-1.395,1.439s-0.495,1.275-0.495,1.936c0,0.899,0.352,1.672,1.057,2.317
			c0.705,0.646,2.228,0.967,4.568,0.967h8.1c3.51,0,6.593,0.593,9.248,1.778c2.655,1.186,4.725,2.782,6.21,4.792
			c1.485,2.011,2.228,4.32,2.228,6.93c0,4.8-2.085,8.551-6.255,11.25c-4.17,2.7-10.26,4.051-18.27,4.051
			c-5.73,0-10.192-0.585-13.387-1.755c-3.195-1.171-5.438-2.873-6.728-5.108c-1.291-2.234-1.935-4.927-1.935-8.077h10.575
			c0,1.53,0.308,2.79,0.923,3.78c0.614,0.99,1.77,1.725,3.465,2.205c1.694,0.479,4.132,0.72,7.312,0.72
			c3.18,0,5.677-0.255,7.493-0.765c1.814-0.511,3.097-1.238,3.847-2.183c0.75-0.945,1.125-2.048,1.125-3.308
			c0-1.71-0.72-3.045-2.16-4.005c-1.44-0.961-3.48-1.44-6.12-1.44h-7.875c-4.8,0-8.295-0.938-10.485-2.812
			c-2.19-1.874-3.285-4.042-3.285-6.502c0-1.68,0.457-3.292,1.373-4.838c0.915-1.545,2.228-2.857,3.938-3.938
			c-2.94-1.56-5.062-3.427-6.368-5.603c-1.305-2.175-1.958-4.808-1.958-7.897c0-3.449,0.87-6.45,2.61-9
			c1.74-2.55,4.155-4.529,7.245-5.94c3.09-1.409,6.645-2.114,10.665-2.114c3.69,0.03,6.833-0.195,9.428-0.675
			c2.594-0.48,4.889-1.141,6.885-1.98C1215.183,2395.61,1217.126,2394.695,1219.016,2393.705z M1197.101,2407.025
			c-2.82,0-4.973,0.825-6.458,2.475c-1.485,1.65-2.228,3.841-2.228,6.57c0,2.82,0.765,5.056,2.295,6.705
			c1.53,1.65,3.675,2.475,6.435,2.475c2.729,0,4.807-0.802,6.232-2.407c1.425-1.604,2.138-3.907,2.138-6.907
			s-0.713-5.235-2.138-6.705C1201.953,2407.761,1199.861,2407.025,1197.101,2407.025z"/>
		<path style="fill:#FFFFFF;" d="M1243.405,2427.86c0.24,2.97,0.922,5.385,2.047,7.245s2.572,3.225,4.342,4.095
			s3.735,1.305,5.895,1.305c2.28,0,4.425-0.359,6.435-1.08c2.01-0.72,3.99-1.725,5.94-3.015l4.95,6.795
			c-2.22,1.86-4.868,3.36-7.942,4.5c-3.076,1.14-6.458,1.71-10.147,1.71c-5.16,0-9.503-1.065-13.028-3.195
			c-3.525-2.129-6.188-5.085-7.987-8.864c-1.8-3.78-2.7-8.13-2.7-13.05c0-4.74,0.885-9.016,2.655-12.825
			c1.77-3.81,4.32-6.833,7.65-9.067c3.33-2.235,7.35-3.353,12.06-3.353c4.38,0,8.16,0.96,11.34,2.88
			c3.18,1.92,5.64,4.673,7.38,8.257c1.74,3.586,2.61,7.897,2.61,12.938c0,0.811-0.022,1.636-0.067,2.476
			c-0.045,0.84-0.098,1.59-0.158,2.25H1243.405z M1253.62,2407.431c-2.88,0-5.243,1.027-7.087,3.082
			c-1.845,2.056-2.933,5.303-3.263,9.742h20.07c-0.061-4.02-0.893-7.162-2.498-9.427
			C1259.237,2408.562,1256.83,2407.431,1253.62,2407.431z"/>
		<path style="fill:#FFFFFF;" d="M1289.08,2448.065v-8.235h6.705v-31.229h-6.705v-8.19h15.75l2.205,10.935
			c1.74-4.05,3.93-7.102,6.57-9.157c2.639-2.055,5.955-3.082,9.945-3.082c1.53,0,2.887,0.12,4.072,0.359
			c1.185,0.241,2.318,0.556,3.397,0.945l-3.555,9.99c-0.93-0.24-1.815-0.428-2.655-0.562s-1.785-0.203-2.835-0.203
			c-3.3,0-6.172,1.283-8.617,3.848c-2.446,2.565-4.343,6.038-5.693,10.418v15.93h9.495v8.235H1289.08z M1320.985,2418.995v-12.645
			l1.62-5.94h8.415l-2.115,18.585H1320.985z"/>
	</g>
	<g>
		<path style="fill:#FFFFFF;" d="M2720.466,2405.675c0,4.831-1.028,8.783-3.083,11.857c-2.055,3.076-4.927,5.341-8.617,6.796
			c-3.689,1.455-7.95,2.182-12.78,2.182h-7.154v21.556h-12.33v-62.235h18.314c8.07,0,14.362,1.636,18.878,4.905
			C2718.208,2394.006,2720.466,2398.985,2720.466,2405.675z M2707.686,2405.766c0-2.58-0.488-4.673-1.462-6.278
			c-0.976-1.604-2.394-2.782-4.253-3.532c-1.86-0.749-4.095-1.125-6.705-1.125h-6.435v22.545h6.795c2.459,0,4.582-0.382,6.367-1.147
			c1.784-0.765,3.18-2.002,4.185-3.712S2707.686,2408.556,2707.686,2405.766z"/>
		<path style="fill:#FFFFFF;" d="M2754.484,2381.375v52.83c0,2.07,0.608,3.54,1.823,4.41s2.857,1.305,4.927,1.305
			c1.29,0,2.535-0.142,3.735-0.427c1.199-0.285,2.34-0.638,3.42-1.058l2.925,8.1c-1.5,0.75-3.322,1.418-5.467,2.003
			c-2.146,0.585-4.628,0.877-7.448,0.877c-5.19,0-9.12-1.484-11.79-4.455c-2.67-2.97-4.005-6.975-4.005-12.015v-43.155h-14.265
			v-8.415H2754.484z"/>
		<path style="fill:#FFFFFF;" d="M2799.034,2400.41v33.03c0,2.58,0.51,4.395,1.529,5.444c1.02,1.051,2.505,1.575,4.455,1.575
			c1.86,0,3.675-0.562,5.445-1.688c1.77-1.125,3.21-2.557,4.32-4.297v-34.065h11.88v47.655h-10.351l-0.63-5.851
			c-1.71,2.341-3.899,4.126-6.569,5.355c-2.671,1.229-5.431,1.845-8.28,1.845c-4.59,0-8.018-1.298-10.282-3.893
			c-2.266-2.595-3.397-6.143-3.397-10.643v-34.47H2799.034z"/>
		<path style="fill:#FFFFFF;" d="M2883.633,2445.41c-1.771,1.17-3.915,2.131-6.435,2.88c-2.521,0.75-5.25,1.125-8.19,1.125
			c-5.82,0-10.2-1.508-13.14-4.522c-2.94-3.015-4.41-7.027-4.41-12.037v-24.03h-10.35v-8.415h10.35v-10.485l11.88-1.439v11.925
			h15.75l-1.215,8.415h-14.535v23.985c0,2.46,0.6,4.26,1.8,5.399c1.2,1.141,3.135,1.71,5.806,1.71c1.71,0,3.277-0.202,4.702-0.607
			s2.723-0.922,3.893-1.553L2883.633,2445.41z"/>
		<path style="fill:#FFFFFF;" d="M2909.732,2400.41v33.03c0,2.58,0.51,4.395,1.529,5.444c1.02,1.051,2.505,1.575,4.455,1.575
			c1.86,0,3.675-0.562,5.445-1.688c1.77-1.125,3.21-2.557,4.32-4.297v-34.065h11.88v47.655h-10.351l-0.63-5.851
			c-1.71,2.341-3.899,4.126-6.569,5.355c-2.671,1.229-5.431,1.845-8.28,1.845c-4.59,0-8.018-1.298-10.282-3.893
			c-2.266-2.595-3.397-6.143-3.397-10.643v-34.47H2909.732z"/>
		<path style="fill:#FFFFFF;" d="M2971.337,2440.641c2.79,0,5.032-0.487,6.728-1.463c1.694-0.975,2.542-2.347,2.542-4.117
			c0-1.17-0.277-2.16-0.832-2.971c-0.556-0.81-1.643-1.567-3.263-2.272c-1.62-0.704-4.05-1.492-7.29-2.362
			c-3.06-0.779-5.737-1.747-8.032-2.902c-2.295-1.154-4.08-2.647-5.355-4.478c-1.275-1.829-1.912-4.14-1.912-6.93
			s0.779-5.243,2.34-7.357c1.56-2.115,3.817-3.765,6.772-4.95c2.955-1.185,6.518-1.777,10.688-1.777c4.08,0,7.65,0.532,10.71,1.597
			c3.061,1.065,5.685,2.394,7.875,3.983l-4.859,7.244c-1.921-1.229-3.998-2.228-6.233-2.992c-2.234-0.765-4.643-1.147-7.222-1.147
			c-2.79,0-4.823,0.405-6.098,1.215c-1.275,0.811-1.913,1.936-1.913,3.375c0,1.021,0.322,1.883,0.968,2.588
			c0.645,0.705,1.814,1.38,3.51,2.024c1.695,0.646,4.118,1.418,7.268,2.318c3.09,0.84,5.783,1.83,8.078,2.97
			c2.295,1.141,4.072,2.655,5.332,4.545s1.89,4.365,1.89,7.425c0,3.45-1.005,6.3-3.015,8.55s-4.657,3.923-7.942,5.018
			s-6.848,1.643-10.688,1.643c-4.5,0-8.431-0.646-11.79-1.935c-3.36-1.29-6.21-2.955-8.55-4.995l6.165-6.93
			c1.859,1.47,3.982,2.685,6.367,3.645C2965.959,2440.161,2968.547,2440.641,2971.337,2440.641z"/>
		<path style="fill:#FFFFFF;" d="M3103.005,2385.83v9.226h-13.185v43.784h13.185v9.226h-38.7v-9.226h13.186v-43.784h-13.186v-9.226
			H3103.005z"/>
		<path style="fill:#FFFFFF;" d="M3119.249,2448.065v-47.655h10.351l0.854,5.896c2.04-2.4,4.335-4.208,6.885-5.423
			s5.295-1.822,8.235-1.822c4.29,0,7.56,1.237,9.81,3.712c2.25,2.476,3.375,5.948,3.375,10.418v34.875h-11.88v-30.24
			c0-2.399-0.15-4.327-0.45-5.782s-0.87-2.505-1.71-3.15c-0.84-0.645-2.055-0.968-3.645-0.968c-1.29,0-2.527,0.286-3.713,0.855
			c-1.186,0.57-2.295,1.335-3.33,2.295c-1.034,0.961-2.002,2.025-2.902,3.195v33.795H3119.249z"/>
		<path style="fill:#FFFFFF;" d="M3215.729,2445.41c-1.771,1.17-3.915,2.131-6.436,2.88c-2.52,0.75-5.25,1.125-8.189,1.125
			c-5.82,0-10.2-1.508-13.141-4.522s-4.409-7.027-4.409-12.037v-24.03h-10.351v-8.415h10.351v-10.485l11.88-1.439v11.925h15.75
			l-1.215,8.415h-14.535v23.985c0,2.46,0.6,4.26,1.8,5.399c1.199,1.141,3.135,1.71,5.805,1.71c1.71,0,3.277-0.202,4.703-0.607
			c1.424-0.405,2.722-0.922,3.892-1.553L3215.729,2445.41z"/>
		<path style="fill:#FFFFFF;" d="M3240.072,2427.86c0.24,2.97,0.923,5.385,2.048,7.245s2.572,3.225,4.342,4.095
			c1.771,0.87,3.735,1.305,5.896,1.305c2.279,0,4.425-0.359,6.435-1.08c2.01-0.72,3.99-1.725,5.94-3.015l4.95,6.795
			c-2.221,1.86-4.868,3.36-7.942,4.5c-3.076,1.14-6.458,1.71-10.147,1.71c-5.16,0-9.503-1.065-13.028-3.195
			c-3.525-2.129-6.188-5.085-7.987-8.864c-1.8-3.78-2.7-8.13-2.7-13.05c0-4.74,0.885-9.016,2.655-12.825
			c1.77-3.81,4.32-6.833,7.65-9.067c3.33-2.235,7.35-3.353,12.06-3.353c4.38,0,8.16,0.96,11.34,2.88s5.64,4.673,7.38,8.257
			c1.74,3.586,2.61,7.897,2.61,12.938c0,0.811-0.022,1.636-0.067,2.476s-0.098,1.59-0.157,2.25H3240.072z M3250.287,2407.431
			c-2.88,0-5.242,1.027-7.087,3.082c-1.846,2.056-2.933,5.303-3.263,9.742h20.07c-0.061-4.02-0.894-7.162-2.498-9.427
			C3255.904,2408.562,3253.497,2407.431,3250.287,2407.431z"/>
		<path style="fill:#FFFFFF;" d="M3285.746,2448.065v-8.235h6.705v-31.229h-6.705v-8.19h15.75l2.205,10.935
			c1.74-4.05,3.93-7.102,6.57-9.157c2.64-2.055,5.955-3.082,9.945-3.082c1.529,0,2.887,0.12,4.072,0.359
			c1.185,0.241,2.317,0.556,3.397,0.945l-3.555,9.99c-0.931-0.24-1.815-0.428-2.655-0.562s-1.785-0.203-2.835-0.203
			c-3.301,0-6.173,1.283-8.617,3.848c-2.446,2.565-4.343,6.038-5.693,10.418v15.93h9.495v8.235H3285.746z M3317.651,2418.995
			v-12.645l1.62-5.94h8.415l-2.115,18.585H3317.651z"/>
		<path style="fill:#FFFFFF;" d="M3365.261,2399.061c4.199,0,7.567,1.027,10.103,3.082c2.534,2.056,4.38,4.958,5.535,8.708
			c1.154,3.75,1.732,8.175,1.732,13.274c0,4.891-0.705,9.24-2.115,13.05c-1.41,3.811-3.473,6.803-6.188,8.978
			c-2.716,2.175-6.053,3.263-10.013,3.263c-4.859,0-8.79-1.725-11.79-5.175v22.185l-11.88,1.261v-67.275h10.44l0.63,5.805
			c1.89-2.459,4.005-4.267,6.345-5.422S3362.801,2399.061,3365.261,2399.061z M3361.796,2407.97c-2.011,0-3.773,0.601-5.288,1.801
			s-2.843,2.685-3.982,4.455v21.33c1.08,1.619,2.31,2.835,3.69,3.645c1.379,0.81,2.939,1.215,4.68,1.215
			c3.03,0,5.348-1.267,6.952-3.803c1.605-2.534,2.408-6.652,2.408-12.353c0-4.02-0.323-7.222-0.968-9.607
			c-0.646-2.385-1.598-4.095-2.857-5.13S3363.625,2407.97,3361.796,2407.97z"/>
		<path style="fill:#FFFFFF;" d="M3396.444,2448.065v-8.235h6.705v-31.229h-6.705v-8.19h15.75l2.205,10.935
			c1.74-4.05,3.93-7.102,6.57-9.157c2.64-2.055,5.955-3.082,9.945-3.082c1.529,0,2.887,0.12,4.072,0.359
			c1.185,0.241,2.317,0.556,3.397,0.945l-3.555,9.99c-0.931-0.24-1.815-0.428-2.655-0.562s-1.785-0.203-2.835-0.203
			c-3.301,0-6.173,1.283-8.617,3.848c-2.446,2.565-4.343,6.038-5.693,10.418v15.93h9.495v8.235H3396.444z M3428.35,2418.995v-12.645
			l1.62-5.94h8.415l-2.115,18.585H3428.35z"/>
		<path style="fill:#FFFFFF;" d="M3461.469,2427.86c0.24,2.97,0.923,5.385,2.048,7.245s2.572,3.225,4.342,4.095
			c1.771,0.87,3.735,1.305,5.896,1.305c2.279,0,4.425-0.359,6.435-1.08c2.01-0.72,3.99-1.725,5.94-3.015l4.95,6.795
			c-2.221,1.86-4.868,3.36-7.942,4.5c-3.076,1.14-6.458,1.71-10.147,1.71c-5.16,0-9.503-1.065-13.028-3.195
			c-3.525-2.129-6.188-5.085-7.987-8.864c-1.8-3.78-2.7-8.13-2.7-13.05c0-4.74,0.885-9.016,2.655-12.825
			c1.77-3.81,4.32-6.833,7.65-9.067c3.33-2.235,7.35-3.353,12.06-3.353c4.38,0,8.16,0.96,11.34,2.88s5.64,4.673,7.38,8.257
			c1.74,3.586,2.61,7.897,2.61,12.938c0,0.811-0.022,1.636-0.067,2.476s-0.098,1.59-0.157,2.25H3461.469z M3471.684,2407.431
			c-2.88,0-5.242,1.027-7.087,3.082c-1.846,2.056-2.933,5.303-3.263,9.742h20.07c-0.061-4.02-0.894-7.162-2.498-9.427
			C3477.301,2408.562,3474.894,2407.431,3471.684,2407.431z"/>
		<path style="fill:#FFFFFF;" d="M3547.823,2445.41c-1.771,1.17-3.915,2.131-6.436,2.88c-2.52,0.75-5.25,1.125-8.189,1.125
			c-5.82,0-10.2-1.508-13.141-4.522s-4.409-7.027-4.409-12.037v-24.03h-10.351v-8.415h10.351v-10.485l11.88-1.439v11.925h15.75
			l-1.215,8.415h-14.535v23.985c0,2.46,0.6,4.26,1.8,5.399c1.199,1.141,3.135,1.71,5.805,1.71c1.71,0,3.277-0.202,4.703-0.607
			c1.424-0.405,2.722-0.922,3.892-1.553L3547.823,2445.41z"/>
		<path style="fill:#FFFFFF;" d="M3572.168,2427.86c0.239,2.97,0.922,5.385,2.047,7.245s2.572,3.225,4.343,4.095
			c1.77,0.87,3.735,1.305,5.895,1.305c2.28,0,4.425-0.359,6.436-1.08c2.01-0.72,3.989-1.725,5.939-3.015l4.95,6.795
			c-2.22,1.86-4.867,3.36-7.942,4.5s-6.457,1.71-10.147,1.71c-5.16,0-9.503-1.065-13.027-3.195
			c-3.525-2.129-6.188-5.085-7.987-8.864c-1.8-3.78-2.7-8.13-2.7-13.05c0-4.74,0.885-9.016,2.655-12.825
			c1.77-3.81,4.319-6.833,7.649-9.067c3.33-2.235,7.35-3.353,12.061-3.353c4.38,0,8.159,0.96,11.34,2.88
			c3.18,1.92,5.64,4.673,7.38,8.257c1.739,3.586,2.61,7.897,2.61,12.938c0,0.811-0.022,1.636-0.067,2.476
			c-0.046,0.84-0.099,1.59-0.158,2.25H3572.168z M3582.383,2407.431c-2.88,0-5.243,1.027-7.088,3.082
			c-1.845,2.056-2.933,5.303-3.263,9.742h20.07c-0.061-4.02-0.893-7.162-2.497-9.427
			C3588,2408.562,3585.593,2407.431,3582.383,2407.431z"/>
		<path style="fill:#FFFFFF;" d="M3617.841,2448.065v-8.235h6.705v-31.229h-6.705v-8.19h15.75l2.205,10.935
			c1.74-4.05,3.93-7.102,6.57-9.157c2.64-2.055,5.955-3.082,9.945-3.082c1.529,0,2.887,0.12,4.072,0.359
			c1.185,0.241,2.317,0.556,3.397,0.945l-3.555,9.99c-0.931-0.24-1.815-0.428-2.655-0.562s-1.785-0.203-2.835-0.203
			c-3.301,0-6.173,1.283-8.617,3.848c-2.446,2.565-4.343,6.038-5.693,10.418v15.93h9.495v8.235H3617.841z M3649.746,2418.995
			v-12.645l1.62-5.94h8.415l-2.115,18.585H3649.746z"/>
	</g>
	<g>
		<path style="fill:#FFFFFF;" d="M296.195,2308.065l-18.315-51.705c0.149,1.141,0.33,2.609,0.54,4.41
			c0.209,1.8,0.412,3.84,0.607,6.12c0.195,2.28,0.36,4.695,0.495,7.244c0.135,2.551,0.202,5.131,0.202,7.74v26.19h-10.71v-62.235
			h15.66l18.135,51.615c-0.24-1.53-0.502-3.555-0.787-6.075c-0.286-2.52-0.533-5.415-0.743-8.685c-0.21-3.27-0.315-6.75-0.315-10.44
			v-26.415h10.71v62.235H296.195z"/>
		<path style="fill:#FFFFFF;" d="M345.739,2259.061c4.74,0,8.76,1.034,12.06,3.104c3.3,2.07,5.812,4.988,7.538,8.753
			c1.725,3.765,2.587,8.167,2.587,13.207c0,5.16-0.871,9.63-2.61,13.41c-1.74,3.78-4.26,6.705-7.56,8.775
			c-3.3,2.069-7.32,3.104-12.06,3.104c-4.71,0-8.723-1.013-12.038-3.037c-3.315-2.025-5.843-4.92-7.583-8.686
			c-1.74-3.765-2.61-8.257-2.61-13.478c0-4.979,0.87-9.359,2.61-13.14c1.74-3.78,4.275-6.728,7.605-8.843
			C337.009,2260.118,341.029,2259.061,345.739,2259.061z M345.739,2268.016c-3.33,0-5.812,1.305-7.447,3.915
			c-1.636,2.609-2.453,6.704-2.453,12.284c0,5.641,0.81,9.759,2.43,12.353c1.62,2.596,4.095,3.893,7.425,3.893
			s5.805-1.297,7.425-3.893c1.62-2.594,2.43-6.742,2.43-12.442c0-5.55-0.81-9.622-2.43-12.218
			C351.499,2269.313,349.039,2268.016,345.739,2268.016z"/>
		<path style="fill:#FFFFFF;" d="M408.918,2240.115l11.88,1.26v66.69h-10.53l-0.72-5.625c-1.47,2.1-3.315,3.787-5.535,5.062
			c-2.221,1.274-4.8,1.912-7.74,1.912c-4.021,0-7.343-1.051-9.967-3.149c-2.625-2.1-4.575-5.048-5.85-8.843
			c-1.275-3.795-1.913-8.213-1.913-13.253c0-4.859,0.75-9.18,2.25-12.96c1.5-3.779,3.667-6.75,6.502-8.91
			c2.835-2.159,6.202-3.239,10.103-3.239c2.34,0,4.47,0.404,6.39,1.215c1.919,0.81,3.629,2.01,5.13,3.6V2240.115z M400.593,2267.925
			c-3,0-5.362,1.299-7.087,3.893c-1.726,2.596-2.587,6.728-2.587,12.397c0,3.99,0.36,7.178,1.08,9.562
			c0.72,2.386,1.739,4.104,3.06,5.153c1.32,1.05,2.88,1.574,4.68,1.574c1.98,0,3.728-0.592,5.243-1.777
			c1.515-1.185,2.827-2.662,3.938-4.433v-21.689c-1.11-1.47-2.348-2.617-3.712-3.442
			C403.84,2268.338,402.303,2267.925,400.593,2267.925z"/>
		<path style="fill:#FFFFFF;" d="M446.762,2287.86c0.24,2.97,0.922,5.385,2.047,7.245s2.572,3.225,4.342,4.095
			s3.735,1.305,5.895,1.305c2.28,0,4.425-0.359,6.435-1.08c2.01-0.72,3.99-1.725,5.94-3.015l4.95,6.795
			c-2.22,1.86-4.868,3.36-7.942,4.5c-3.076,1.14-6.458,1.71-10.147,1.71c-5.16,0-9.503-1.065-13.028-3.195
			c-3.525-2.129-6.188-5.085-7.987-8.864c-1.8-3.78-2.7-8.13-2.7-13.05c0-4.74,0.885-9.016,2.655-12.825
			c1.77-3.81,4.32-6.833,7.65-9.067c3.33-2.235,7.35-3.353,12.06-3.353c4.38,0,8.16,0.96,11.34,2.88
			c3.18,1.92,5.64,4.673,7.38,8.257c1.74,3.586,2.61,7.897,2.61,12.938c0,0.811-0.022,1.636-0.067,2.476
			c-0.045,0.84-0.098,1.59-0.158,2.25H446.762z M456.977,2267.431c-2.88,0-5.243,1.027-7.087,3.082
			c-1.845,2.056-2.933,5.303-3.263,9.742h20.07c-0.061-4.02-0.893-7.162-2.498-9.427
			C462.594,2268.562,460.187,2267.431,456.977,2267.431z"/>
	</g>
	<g>
		<path style="fill:#FFFFFF;" d="M3141.267,219.008c0,4.831-1.028,8.783-3.083,11.857c-2.055,3.076-4.927,5.34-8.617,6.795
			c-3.689,1.455-7.95,2.182-12.78,2.182h-7.154v21.555h-12.33v-62.235h18.314c8.07,0,14.362,1.635,18.878,4.905
			C3139.009,207.339,3141.267,212.319,3141.267,219.008z M3128.486,219.099c0-2.58-0.488-4.672-1.462-6.278
			c-0.976-1.604-2.394-2.782-4.253-3.532c-1.86-0.75-4.095-1.125-6.705-1.125h-6.435v22.545h6.795c2.459,0,4.582-0.382,6.367-1.147
			c1.784-0.765,3.18-2.002,4.185-3.712S3128.486,221.889,3128.486,219.099z"/>
		<path style="fill:#FFFFFF;" d="M3153.056,261.398v-8.235h6.705v-31.23h-6.705v-8.19h15.75l2.205,10.935
			c1.739-4.05,3.93-7.102,6.57-9.157c2.639-2.055,5.954-3.083,9.944-3.083c1.53,0,2.888,0.12,4.072,0.36
			c1.186,0.241,2.318,0.556,3.397,0.945l-3.555,9.99c-0.93-0.24-1.815-0.427-2.655-0.562c-0.84-0.135-1.785-0.203-2.835-0.203
			c-3.3,0-6.172,1.283-8.617,3.848s-4.343,6.038-5.692,10.417v15.93h9.495v8.235H3153.056z M3184.961,232.329v-12.645l1.62-5.94
			h8.414l-2.114,18.585H3184.961z"/>
		<path style="fill:#FFFFFF;" d="M3227.755,212.394c4.739,0,8.76,1.035,12.06,3.105c3.3,2.07,5.812,4.988,7.538,8.752
			c1.725,3.765,2.587,8.167,2.587,13.208c0,5.16-0.87,9.63-2.609,13.41c-1.74,3.78-4.261,6.705-7.561,8.775
			c-3.3,2.07-7.32,3.105-12.06,3.105c-4.711,0-8.724-1.013-12.038-3.038s-5.843-4.92-7.582-8.685
			c-1.74-3.765-2.61-8.257-2.61-13.478c0-4.979,0.87-9.36,2.61-13.14c1.739-3.78,4.274-6.727,7.604-8.842
			C3219.024,213.451,3223.045,212.394,3227.755,212.394z M3227.755,221.349c-3.33,0-5.812,1.305-7.447,3.915
			c-1.636,2.61-2.453,6.705-2.453,12.285c0,5.641,0.811,9.758,2.431,12.353c1.619,2.595,4.095,3.893,7.425,3.893
			s5.805-1.297,7.425-3.893c1.62-2.594,2.43-6.742,2.43-12.442c0-5.55-0.81-9.623-2.43-12.218
			C3233.515,222.646,3231.055,221.349,3227.755,221.349z"/>
		<path style="fill:#FFFFFF;" d="M3304.389,207.039l2.97,9.27c-1.8,0.63-3.824,1.073-6.074,1.327
			c-2.25,0.255-4.831,0.383-7.74,0.383c2.909,1.26,5.122,2.857,6.638,4.792c1.515,1.935,2.272,4.387,2.272,7.357
			c0,3.09-0.788,5.85-2.362,8.28c-1.575,2.43-3.811,4.335-6.705,5.715c-2.896,1.38-6.338,2.07-10.328,2.07
			c-1.23,0-2.325-0.06-3.285-0.18c-0.96-0.119-1.89-0.285-2.79-0.495c-0.6,0.33-1.064,0.81-1.395,1.44s-0.495,1.275-0.495,1.935
			c0,0.9,0.353,1.672,1.058,2.317c0.704,0.646,2.228,0.967,4.567,0.967h8.1c3.511,0,6.593,0.593,9.248,1.778
			c2.655,1.186,4.725,2.783,6.21,4.792c1.485,2.01,2.228,4.32,2.228,6.93c0,4.8-2.086,8.55-6.255,11.25
			c-4.171,2.7-10.26,4.05-18.271,4.05c-5.73,0-10.192-0.585-13.387-1.755c-3.195-1.17-5.438-2.873-6.728-5.108
			c-1.291-2.235-1.936-4.927-1.936-8.077h10.575c0,1.53,0.308,2.79,0.923,3.78c0.614,0.99,1.77,1.725,3.465,2.205
			c1.694,0.479,4.132,0.72,7.312,0.72c3.18,0,5.677-0.255,7.492-0.765c1.814-0.511,3.098-1.238,3.848-2.183
			c0.749-0.945,1.125-2.047,1.125-3.308c0-1.71-0.72-3.045-2.16-4.005c-1.44-0.96-3.48-1.44-6.12-1.44h-7.875
			c-4.8,0-8.295-0.938-10.484-2.812c-2.19-1.875-3.285-4.042-3.285-6.502c0-1.68,0.457-3.292,1.372-4.837
			c0.915-1.545,2.228-2.858,3.938-3.938c-2.94-1.56-5.062-3.427-6.367-5.603c-1.306-2.175-1.958-4.808-1.958-7.897
			c0-3.45,0.87-6.45,2.61-9c1.739-2.55,4.154-4.53,7.245-5.94c3.09-1.41,6.645-2.115,10.665-2.115
			c3.689,0.03,6.832-0.195,9.428-0.675c2.594-0.48,4.889-1.14,6.885-1.98C3300.556,208.944,3302.499,208.028,3304.389,207.039z
			 M3282.474,220.358c-2.82,0-4.973,0.826-6.457,2.475c-1.485,1.65-2.228,3.84-2.228,6.57c0,2.82,0.765,5.056,2.295,6.705
			c1.53,1.65,3.675,2.475,6.435,2.475c2.729,0,4.808-0.802,6.232-2.408c1.425-1.604,2.138-3.907,2.138-6.907
			c0-3-0.713-5.235-2.138-6.705C3287.326,221.094,3285.233,220.358,3282.474,220.358z"/>
		<path style="fill:#FFFFFF;" d="M3319.103,261.398v-8.235h6.705v-31.23h-6.705v-8.19h15.75l2.205,10.935
			c1.74-4.05,3.93-7.102,6.57-9.157c2.64-2.055,5.955-3.083,9.945-3.083c1.529,0,2.887,0.12,4.072,0.36
			c1.185,0.241,2.317,0.556,3.397,0.945l-3.555,9.99c-0.931-0.24-1.815-0.427-2.655-0.562c-0.84-0.135-1.785-0.203-2.835-0.203
			c-3.301,0-6.173,1.283-8.617,3.848c-2.446,2.565-4.343,6.038-5.693,10.417v15.93h9.495v8.235H3319.103z M3351.008,232.329v-12.645
			l1.62-5.94h8.415l-2.115,18.585H3351.008z"/>
		<path style="fill:#FFFFFF;" d="M3412.027,248.843c0,1.831,0.271,3.158,0.811,3.983s1.409,1.447,2.609,1.867l-2.564,7.965
			c-2.551-0.27-4.718-0.908-6.503-1.912c-1.785-1.005-3.157-2.512-4.117-4.522c-1.8,2.19-4.072,3.825-6.817,4.905
			s-5.618,1.62-8.618,1.62c-4.859,0-8.715-1.379-11.564-4.14c-2.851-2.76-4.275-6.345-4.275-10.755c0-5.07,1.987-8.978,5.963-11.723
			c3.975-2.745,9.607-4.117,16.897-4.117h6.66v-2.565c0-2.819-0.871-4.867-2.61-6.142c-1.74-1.275-4.245-1.913-7.515-1.913
			c-1.53,0-3.442,0.202-5.737,0.607c-2.296,0.405-4.658,1.028-7.088,1.868l-2.835-8.145c3.029-1.14,6.082-1.98,9.157-2.52
			s5.873-0.81,8.393-0.81c6.689,0,11.655,1.417,14.896,4.252c3.239,2.835,4.859,6.848,4.859,12.038V248.843z M3390.697,254.153
			c1.801,0,3.623-0.51,5.468-1.53c1.845-1.02,3.292-2.445,4.343-4.275v-9.27h-4.681c-4.409,0-7.598,0.705-9.562,2.115
			c-1.965,1.411-2.947,3.405-2.947,5.985c0,2.221,0.63,3.938,1.891,5.153C3386.468,253.546,3388.297,254.153,3390.697,254.153z"/>
		<path style="fill:#FFFFFF;" d="M3463.236,212.394c2.04,0,3.78,0.427,5.221,1.282c1.439,0.855,2.549,2.28,3.33,4.275
			c0.779,1.995,1.17,4.702,1.17,8.122v35.325h-10.351v-33.84c0-2.16-0.173-3.69-0.518-4.59c-0.345-0.9-1.117-1.35-2.317-1.35
			c-0.99,0-1.987,0.292-2.992,0.877c-1.006,0.585-2.048,1.627-3.128,3.127v35.775h-8.955v-33.84c0-2.16-0.173-3.69-0.518-4.59
			c-0.345-0.9-1.117-1.35-2.317-1.35c-1.02,0-2.024,0.292-3.015,0.877s-2.025,1.627-3.105,3.127v35.775h-10.484v-47.655h8.865
			l0.765,4.95c1.41-1.98,2.895-3.525,4.455-4.635c1.56-1.11,3.435-1.665,5.625-1.665c1.8,0,3.397,0.443,4.792,1.327
			c1.396,0.885,2.393,2.393,2.993,4.523c1.379-1.74,2.925-3.15,4.635-4.23C3459.097,212.934,3461.047,212.394,3463.236,212.394z"/>
	</g>
	<g>
		<g>
			<path style="fill:#FFFFFF;" d="M2827.301,645.917v6.591h-12.168l-0.352-7.644c-1.988,5.187-6.279,8.385-12.831,8.385
				c-8.736,0-13.104-5.616-13.104-14.938v-16.849h-6.357v-6.903h14.002v22.036c0,6.318,2.612,9.204,7.332,9.204
				c5.928,0,10.141-4.251,10.141-12.246v-12.091h-8.112v-6.903h15.834v31.357H2827.301z"/>
			<path style="fill:#FFFFFF;" d="M2866.104,642.212c0,6.786-4.68,11.038-13.026,11.038c-5.343,0-9.478-1.794-11.622-5.655
				c0.156,1.755,0.272,3.471,0.272,5.226h-6.669c0-4.719-0.156-8.736-0.546-13.183h7.293c0.897,4.992,4.642,7.372,9.712,7.372
				c4.446,0,6.591-1.443,6.591-4.368c0-3.198-2.34-4.524-8.269-5.655c-10.023-1.989-14.781-4.875-14.781-12.247
				c0-6.474,4.642-10.959,12.637-10.959c5.499,0,9.438,2.145,11.311,6.162c0-1.833,0.117-3.705,0.39-5.694h6.669
				c-0.546,4.368-0.936,8.658-0.975,13.221h-7.021c-0.857-4.914-4.407-7.371-8.893-7.371c-4.406,0-6.201,1.872-6.201,4.446
				c0,2.769,1.6,4.368,8.269,5.811C2861.971,632.735,2866.104,635.309,2866.104,642.212z"/>
			<path style="fill:#FFFFFF;" d="M2910.136,635.777h-28.432c0.779,6.591,4.797,10.686,11.622,10.686
				c4.992,0,8.463-1.716,10.53-5.031l5.733,3.159c-3.276,5.733-8.893,8.659-16.264,8.659c-12.402,0-19.618-8.308-19.618-19.813
				c0-11.154,7.255-19.657,18.683-19.657c11.232,0,17.862,7.527,17.862,19.072C2910.253,633.749,2910.214,634.802,2910.136,635.777z
				 M2881.782,630.161h20.554c-0.508-6.318-4.135-9.711-9.984-9.711C2886.462,620.45,2882.718,624.116,2881.782,630.161z"/>
			<path style="fill:#FFFFFF;" d="M2970.857,645.917v6.474c-2.028,0.351-3.744,0.507-5.928,0.507c-5.305,0-6.631-2.184-6.825-5.5
				c-2.652,3.549-7.177,5.889-13.378,5.889c-7.839,0-12.87-4.602-12.87-11.544c0-8.151,7.683-11.155,18.019-11.155
				c2.418,0,4.914,0.156,7.371,0.468v-2.184c0-4.953-1.872-8.463-7.917-8.463c-5.227,0-7.918,1.989-9.438,6.591l-7.06-2.145
				c2.067-7.215,7.723-11.077,16.303-11.077c13.026,0,15.718,7.566,15.718,15.679v9.984v6.474H2970.857z M2957.246,641.861v-5.148
				c-2.223-0.273-4.407-0.39-6.436-0.39c-6.513,0-10.881,1.17-10.881,5.343c0,3.51,2.769,5.382,7.059,5.382
				C2951.435,647.048,2955.179,644.981,2957.246,641.861z"/>
			<path style="fill:#FFFFFF;" d="M2976.588,645.917h7.761v-24.454h-7.761v-6.903h15.483v31.357h7.488v6.591h-22.972V645.917z
				 M2982.555,603.172c0-3.042,2.574-5.46,5.538-5.46c3.12,0,5.733,2.418,5.733,5.46c0,3.003-2.613,5.46-5.733,5.46
				C2985.129,608.632,2982.555,606.175,2982.555,603.172z"/>
			<path style="fill:#FFFFFF;" d="M3048.309,645.917v6.591h-18.76v-6.591h4.368l-8.229-10.959l-5.928,5.304v5.655h5.147v6.591
				h-19.891v-6.591h7.099v-40.874h-7.099v-6.981h14.743v35.374l13.026-11.974h-6.514v-6.903h20.398v6.903h-5.968l-9.828,8.814
				l11.622,15.64H3048.309z"/>
			<path style="fill:#FFFFFF;" d="M3089.219,635.777h-28.432c0.779,6.591,4.797,10.686,11.622,10.686
				c4.992,0,8.463-1.716,10.53-5.031l5.733,3.159c-3.276,5.733-8.893,8.659-16.264,8.659c-12.402,0-19.618-8.308-19.618-19.813
				c0-11.154,7.255-19.657,18.683-19.657c11.232,0,17.862,7.527,17.862,19.072C3089.336,633.749,3089.297,634.802,3089.219,635.777z
				 M3060.865,630.161h20.554c-0.508-6.318-4.135-9.711-9.984-9.711C3065.545,620.45,3061.801,624.116,3060.865,630.161z"/>
			<path style="fill:#FFFFFF;" d="M3143.352,645.917v6.591h-20.319v-6.591h6.084v-15.171c0-6.318-2.769-9.283-8.034-9.283
				c-6.084,0-10.374,4.251-10.374,12.208v12.247h6.513v6.591h-21.333v-6.591h7.137v-24.454h-7.137v-6.903h14.001l-0.039,7.839
				c2.067-5.343,6.475-8.62,13.222-8.62c9.438,0,13.729,5.616,13.729,15.016v17.122H3143.352z"/>
			<path style="fill:#FFFFFF;" d="M3179.735,597.283h6.592l-14.509,61.544h-6.591L3179.735,597.283z"/>
			<path style="fill:#FFFFFF;" d="M3241.473,642.212c0,6.786-4.68,11.038-13.026,11.038c-5.343,0-9.478-1.794-11.622-5.655
				c0.156,1.755,0.272,3.471,0.272,5.226h-6.669c0-4.719-0.156-8.736-0.546-13.183h7.293c0.897,4.992,4.642,7.372,9.712,7.372
				c4.446,0,6.591-1.443,6.591-4.368c0-3.198-2.34-4.524-8.269-5.655c-10.023-1.989-14.781-4.875-14.781-12.247
				c0-6.474,4.642-10.959,12.637-10.959c5.499,0,9.438,2.145,11.311,6.162c0-1.833,0.117-3.705,0.39-5.694h6.669
				c-0.546,4.368-0.936,8.658-0.975,13.221h-7.021c-0.857-4.914-4.407-7.371-8.893-7.371c-4.406,0-6.201,1.872-6.201,4.446
				c0,2.769,1.6,4.368,8.269,5.811C3237.339,632.735,3241.473,635.309,3241.473,642.212z"/>
			<path style="fill:#FFFFFF;" d="M3279.654,637.259v1.677c0,9.79-3.706,14.314-12.754,14.314c-7.878,0-11.935-4.758-11.935-13.417
				v-18.37h-7.449v-6.903h7.449v-10.608l7.723-1.092v11.701h16.536v6.903h-16.536v17.863c0,4.875,1.638,7.021,4.992,7.021
				c3.899,0,4.992-2.652,4.992-8.229v-1.677L3279.654,637.259z"/>
			<path style="fill:#FFFFFF;" d="M3329.027,645.917v6.591h-12.52l-0.39-7.605c-2.379,5.343-6.825,8.347-13.455,8.347
				c-10.726,0-17.044-7.996-17.044-19.735c0-11.778,6.396-19.735,17.316-19.735c5.89,0,10.023,2.301,12.48,6.63v-15.367h-7.839
				v-6.981h15.483v47.854H3329.027z M3315.572,633.476c0-7.332-4.368-12.52-11.271-12.52c-6.981,0-10.569,5.031-10.569,12.52
				s3.588,12.675,10.569,12.675C3311.204,646.151,3315.572,640.886,3315.572,633.476z"/>
			<path style="fill:#FFFFFF;" d="M3334.874,645.917h6.67v-40.874h-7.527v-6.981h15.288v47.854h6.709v6.591h-21.14V645.917z"/>
			<path style="fill:#FFFFFF;" d="M3362.096,645.917h7.762v-24.454h-7.762v-6.903h15.483v31.357h7.488v6.591h-22.972V645.917z
				 M3368.062,603.172c0-3.042,2.574-5.46,5.539-5.46c3.12,0,5.732,2.418,5.732,5.46c0,3.003-2.612,5.46-5.732,5.46
				C3370.637,608.632,3368.062,606.175,3368.062,603.172z"/>
			<path style="fill:#FFFFFF;" d="M3434.597,633.476c0,11.778-6.357,19.774-17.082,19.774c-6.514,0-10.921-2.886-13.3-7.996
				l-0.117,7.254h-13.572v-6.591h6.591v-40.874h-6.591v-6.981h14.274v22.309c2.496-4.329,6.747-6.591,12.715-6.591
				C3428.278,613.78,3434.597,621.737,3434.597,633.476z M3426.484,633.476c0-7.488-3.666-12.52-10.608-12.52
				c-6.864,0-11.232,5.188-11.232,12.52c0,7.41,4.368,12.675,11.232,12.675C3422.818,646.151,3426.484,640.964,3426.484,633.476z"/>
		</g>
	</g>
	<g>
		<g>
			<path style="fill:#FFFFFF;" d="M385.793,483.39c0-13.768,3.861-27.028,11.154-36.934l6.201,3.003
				c-6.63,9.009-10.257,21.022-10.257,33.931c0,12.91,3.627,24.922,10.257,33.932l-6.201,3.003
				C389.654,510.418,385.793,497.157,385.793,483.39z"/>
			<path style="fill:#FFFFFF;" d="M454.005,489.708c0,11.778-6.318,19.774-17.043,19.774c-6.123,0-10.375-2.535-12.871-7.137v15.405
				h7.761v6.591h-21.763v-6.591h6.318v-40.055h-6.318v-6.903h13.183l0.117,7.449c2.34-5.382,6.864-8.229,13.572-8.229
				C447.726,470.012,454.005,477.969,454.005,489.708z M445.893,489.708c0-7.488-3.627-12.52-10.569-12.52
				c-6.903,0-11.271,5.188-11.271,12.52c0,7.41,4.368,12.675,11.271,12.675C442.266,502.383,445.893,497.196,445.893,489.708z"/>
			<path style="fill:#FFFFFF;" d="M489.845,470.363l-0.156,8.697c-7.254-1.716-14.977,2.223-14.977,11.701v11.388h9.204v6.591
				h-23.479v-6.591h6.552v-24.454h-6.552v-6.903h13.416l0.039,9.594C475.96,472.938,482.005,468.881,489.845,470.363z"/>
			<path style="fill:#FFFFFF;" d="M494.289,489.708c0-11.389,7.333-19.696,19.345-19.696c11.974,0,19.345,8.307,19.345,19.696
				c0,11.505-7.371,19.774-19.345,19.774C501.622,509.482,494.289,501.213,494.289,489.708z M525.022,489.708
				c0-7.488-4.485-12.559-11.389-12.559c-6.903,0-11.427,5.07-11.427,12.559c0,7.566,4.524,12.637,11.427,12.637
				C520.537,502.345,525.022,497.274,525.022,489.708z"/>
			<path style="fill:#FFFFFF;" d="M578.334,470.792l-0.039,35.803c0,11.193-6.903,18.252-19.306,18.252
				c-6.942,0-12.792-2.262-17.395-6.864l4.017-5.616c3.744,3.783,8.697,5.733,13.534,5.733c7.059,0,11.895-3.705,11.895-11.623
				l0.039-5.304c-2.457,4.797-6.747,7.527-13.026,7.527c-10.842,0-17.2-7.917-17.239-19.423
				c-0.039-11.388,6.279-19.267,17.317-19.267c6.513,0,10.999,2.808,13.417,8.034l0.663-7.254H578.334z M570.768,489.279
				c0-7.137-4.368-12.285-11.271-12.285c-6.981,0-10.57,5.031-10.57,12.285c0,7.333,3.588,12.52,10.57,12.52
				C566.399,501.798,570.768,496.533,570.768,489.279z"/>
			<path style="fill:#FFFFFF;" d="M616.279,470.363l-0.156,8.697c-7.254-1.716-14.977,2.223-14.977,11.701v11.388h9.204v6.591
				h-23.479v-6.591h6.552v-24.454h-6.552v-6.903h13.416l0.039,9.594C602.395,472.938,608.44,468.881,616.279,470.363z"/>
			<path style="fill:#FFFFFF;" d="M660.155,502.149v6.474c-2.028,0.351-3.744,0.507-5.928,0.507c-5.304,0-6.63-2.184-6.825-5.5
				c-2.652,3.549-7.176,5.889-13.378,5.889c-7.839,0-12.87-4.602-12.87-11.544c0-8.151,7.683-11.155,18.019-11.155
				c2.418,0,4.914,0.156,7.371,0.468v-2.184c0-4.953-1.872-8.463-7.917-8.463c-5.227,0-7.917,1.989-9.438,6.591l-7.059-2.145
				c2.067-7.215,7.722-11.077,16.302-11.077c13.027,0,15.718,7.566,15.718,15.679v9.984v6.474H660.155z M646.543,498.093v-5.148
				c-2.223-0.273-4.407-0.39-6.435-0.39c-6.513,0-10.881,1.17-10.881,5.343c0,3.51,2.769,5.382,7.059,5.382
				C640.732,503.28,644.477,501.213,646.543,498.093z"/>
			<path style="fill:#FFFFFF;" d="M734.332,502.149v6.591h-19.618v-6.591h5.304v-15.171c0-6.24-1.911-9.283-6.708-9.283
				c-5.811,0-9.087,4.251-9.087,12.208v12.247h5.109v6.591h-18.097v-6.591h5.265v-15.171c0-6.318-1.833-9.283-6.669-9.283
				c-5.772,0-9.126,4.251-9.126,12.208v12.247h5.811v6.591h-20.632v-6.591h7.099v-24.454h-7.099v-6.903h13.924v7.098
				c1.872-4.914,5.694-7.878,12.051-7.878c6.24,0,9.868,2.925,11.466,8.034c1.833-5.031,5.733-8.034,12.052-8.034
				c8.658,0,12.324,5.772,12.324,15.016v17.122H734.332z"/>
			<path style="fill:#FFFFFF;" d="M801.37,501.058v7.683h-31.591v-7.683h11.155v-34.009c-3.588,0.975-7.137,1.521-11.155,1.755
				v-7.917c7.333-0.39,13.729-1.677,20.398-4.017v44.189H801.37z"/>
			<path style="fill:#FFFFFF;" d="M824.534,503.866c0-3.159,2.613-5.694,5.694-5.694c3.042,0,5.694,2.535,5.694,5.694
				c0,3.081-2.652,5.616-5.694,5.616C827.147,509.482,824.534,506.947,824.534,503.866z"/>
			<path style="fill:#FFFFFF;" d="M860.14,483.39c0-15.874,6.825-26.092,20.085-26.092c13.261,0,20.086,10.218,20.086,26.092
				s-6.591,26.092-20.086,26.092C866.77,509.482,860.14,499.263,860.14,483.39z M891.38,483.39c0-11.115-3.51-18.643-11.155-18.643
				c-7.644,0-11.154,7.527-11.154,18.643c0,11.154,3.51,18.682,11.154,18.682C887.87,502.071,891.38,494.544,891.38,483.39z"/>
			<path style="fill:#FFFFFF;" d="M924.567,503.866c0-3.159,2.613-5.694,5.694-5.694c3.042,0,5.694,2.535,5.694,5.694
				c0,3.081-2.652,5.616-5.694,5.616C927.18,509.482,924.567,506.947,924.567,503.866z"/>
			<path style="fill:#FFFFFF;" d="M960.172,483.39c0-15.874,6.825-26.092,20.086-26.092c13.26,0,20.085,10.218,20.085,26.092
				s-6.591,26.092-20.085,26.092C966.803,509.482,960.172,499.263,960.172,483.39z M991.413,483.39
				c0-11.115-3.51-18.643-11.154-18.643c-7.645,0-11.155,7.527-11.155,18.643c0,11.154,3.51,18.682,11.155,18.682
				C987.902,502.071,991.413,494.544,991.413,483.39z"/>
			<path style="fill:#FFFFFF;" d="M446.163,573.39c0-13.768,3.861-27.028,11.154-36.934l6.201,3.003
				c-6.63,9.009-10.257,21.022-10.257,33.931c0,12.91,3.627,24.922,10.257,33.932l-6.201,3.003
				C450.023,600.418,446.163,587.157,446.163,573.39z"/>
			<path style="fill:#FFFFFF;" d="M470.693,592.149h6.669v-40.874h-7.527v-6.981h15.289v47.854h6.708v6.591h-21.139V592.149z"/>
			<path style="fill:#FFFFFF;" d="M536.837,592.149v6.474c-2.028,0.351-3.744,0.507-5.928,0.507c-5.304,0-6.63-2.184-6.825-5.5
				c-2.652,3.549-7.176,5.889-13.377,5.889c-7.839,0-12.871-4.602-12.871-11.544c0-8.151,7.683-11.155,18.019-11.155
				c2.418,0,4.914,0.156,7.371,0.468v-2.184c0-4.953-1.872-8.463-7.917-8.463c-5.226,0-7.917,1.989-9.438,6.591l-7.059-2.145
				c2.067-7.215,7.722-11.077,16.302-11.077c13.027,0,15.718,7.566,15.718,15.679v9.984v6.474H536.837z M523.226,588.093v-5.148
				c-2.223-0.273-4.407-0.39-6.435-0.39c-6.513,0-10.881,1.17-10.881,5.343c0,3.51,2.769,5.382,7.059,5.382
				C517.415,593.28,521.159,591.213,523.226,588.093z"/>
			<path style="fill:#FFFFFF;" d="M611.015,592.149v6.591h-19.618v-6.591h5.304v-15.171c0-6.24-1.911-9.283-6.708-9.283
				c-5.811,0-9.087,4.251-9.087,12.208v12.247h5.109v6.591h-18.097v-6.591h5.265v-15.171c0-6.318-1.833-9.283-6.669-9.283
				c-5.772,0-9.126,4.251-9.126,12.208v12.247h5.811v6.591h-20.632v-6.591h7.099v-24.454h-7.099v-6.903h13.924v7.098
				c1.872-4.914,5.694-7.878,12.051-7.878c6.24,0,9.868,2.925,11.466,8.034c1.833-5.031,5.733-8.034,12.052-8.034
				c8.658,0,12.324,5.772,12.324,15.016v17.122H611.015z"/>
			<path style="fill:#FFFFFF;" d="M646.735,592.149h7.761v-24.454h-7.761v-6.903h15.483v31.357h7.488v6.591h-22.972V592.149z
				 M652.702,549.404c0-3.042,2.574-5.46,5.539-5.46c3.12,0,5.733,2.418,5.733,5.46c0,3.003-2.613,5.46-5.733,5.46
				C655.276,554.864,652.702,552.407,652.702,549.404z"/>
			<path style="fill:#FFFFFF;" d="M691.974,594.373h44.228v6.552h-44.228V594.373z"/>
			<path style="fill:#FFFFFF;" d="M759.95,573.39c0-15.874,6.825-26.092,20.085-26.092c13.261,0,20.086,10.218,20.086,26.092
				s-6.591,26.092-20.086,26.092C766.581,599.482,759.95,589.263,759.95,573.39z M791.19,573.39c0-11.115-3.51-18.643-11.155-18.643
				c-7.644,0-11.154,7.527-11.154,18.643c0,11.154,3.51,18.682,11.154,18.682C787.68,592.071,791.19,584.544,791.19,573.39z"/>
			<path style="fill:#FFFFFF;" d="M503.232,663.39c0-13.768,3.861-27.028,11.154-36.934l6.201,3.003
				c-6.63,9.009-10.257,21.022-10.257,33.931c0,12.91,3.627,24.922,10.257,33.932l-6.201,3.003
				C507.093,690.418,503.232,677.157,503.232,663.39z"/>
			<path style="fill:#FFFFFF;" d="M527.763,682.149h6.669v-40.874h-7.527v-6.981h15.289v47.854h6.708v6.591h-21.139V682.149z"/>
			<path style="fill:#FFFFFF;" d="M593.908,682.149v6.474c-2.028,0.351-3.744,0.507-5.928,0.507c-5.304,0-6.63-2.184-6.825-5.5
				c-2.652,3.549-7.176,5.889-13.377,5.889c-7.839,0-12.871-4.602-12.871-11.544c0-8.151,7.683-11.155,18.019-11.155
				c2.418,0,4.914,0.156,7.371,0.468v-2.184c0-4.953-1.872-8.463-7.917-8.463c-5.226,0-7.917,1.989-9.438,6.591l-7.059-2.145
				c2.067-7.215,7.722-11.077,16.302-11.077c13.027,0,15.718,7.566,15.718,15.679v9.984v6.474H593.908z M580.296,678.093v-5.148
				c-2.223-0.273-4.407-0.39-6.435-0.39c-6.513,0-10.881,1.17-10.881,5.343c0,3.51,2.769,5.382,7.059,5.382
				C574.485,683.28,578.229,681.213,580.296,678.093z"/>
			<path style="fill:#FFFFFF;" d="M668.084,682.149v6.591h-19.618v-6.591h5.304v-15.171c0-6.24-1.911-9.283-6.708-9.283
				c-5.812,0-9.087,4.251-9.087,12.208v12.247h5.109v6.591h-18.097v-6.591h5.265v-15.171c0-6.318-1.833-9.283-6.669-9.283
				c-5.772,0-9.126,4.251-9.126,12.208v12.247h5.811v6.591h-20.631v-6.591h7.098v-24.454h-7.098v-6.903h13.923v7.098
				c1.872-4.914,5.694-7.878,12.051-7.878c6.24,0,9.868,2.925,11.467,8.034c1.833-5.031,5.733-8.034,12.051-8.034
				c8.658,0,12.324,5.772,12.324,15.016v17.122H668.084z"/>
			<path style="fill:#FFFFFF;" d="M703.804,682.149h7.761v-24.454h-7.761v-6.903h15.483v31.357h7.488v6.591h-22.972V682.149z
				 M709.771,639.404c0-3.042,2.574-5.46,5.539-5.46c3.12,0,5.733,2.418,5.733,5.46c0,3.003-2.613,5.46-5.733,5.46
				C712.345,644.864,709.771,642.407,709.771,639.404z"/>
			<path style="fill:#FFFFFF;" d="M748.224,684.373h44.228v6.552h-44.228V684.373z"/>
			<path style="fill:#FFFFFF;" d="M847.011,681.058v7.683h-31.591v-7.683h11.155v-34.009c-3.588,0.975-7.137,1.521-11.155,1.755
				v-7.917c7.333-0.39,13.729-1.677,20.398-4.017v44.189H847.011z"/>
			<path style="fill:#FFFFFF;" d="M539.547,753.39c0-13.768,3.861-27.028,11.154-36.934l6.201,3.003
				c-6.63,9.009-10.257,21.022-10.257,33.931c0,12.91,3.627,24.922,10.257,33.932l-6.201,3.003
				C543.408,780.418,539.547,767.157,539.547,753.39z"/>
			<path style="fill:#FFFFFF;" d="M564.077,772.149h6.669v-40.874h-7.527v-6.981h15.289v47.854h6.708v6.591h-21.139V772.149z"/>
			<path style="fill:#FFFFFF;" d="M630.222,772.149v6.474c-2.028,0.351-3.744,0.507-5.928,0.507c-5.304,0-6.63-2.184-6.825-5.5
				c-2.652,3.549-7.176,5.889-13.377,5.889c-7.839,0-12.871-4.602-12.871-11.544c0-8.151,7.683-11.155,18.019-11.155
				c2.418,0,4.914,0.156,7.371,0.468v-2.184c0-4.953-1.872-8.463-7.917-8.463c-5.226,0-7.917,1.989-9.438,6.591l-7.059-2.145
				c2.067-7.215,7.722-11.077,16.302-11.077c13.027,0,15.718,7.566,15.718,15.679v9.984v6.474H630.222z M616.61,768.093v-5.148
				c-2.223-0.273-4.407-0.39-6.435-0.39c-6.513,0-10.881,1.17-10.881,5.343c0,3.51,2.769,5.382,7.059,5.382
				C610.799,773.28,614.543,771.213,616.61,768.093z"/>
			<path style="fill:#FFFFFF;" d="M704.399,772.149v6.591h-19.618v-6.591h5.304v-15.171c0-6.24-1.911-9.283-6.708-9.283
				c-5.812,0-9.087,4.251-9.087,12.208v12.247h5.109v6.591h-18.097v-6.591h5.265v-15.171c0-6.318-1.833-9.283-6.669-9.283
				c-5.772,0-9.126,4.251-9.126,12.208v12.247h5.811v6.591h-20.631v-6.591h7.098v-24.454h-7.098v-6.903h13.923v7.098
				c1.872-4.914,5.694-7.878,12.051-7.878c6.24,0,9.868,2.925,11.467,8.034c1.833-5.031,5.733-8.034,12.051-8.034
				c8.658,0,12.324,5.772,12.324,15.016v17.122H704.399z"/>
			<path style="fill:#FFFFFF;" d="M740.119,772.149h7.762v-24.454h-7.762v-6.903h15.484v31.357h7.488v6.591h-22.972V772.149z
				 M746.086,729.404c0-3.042,2.574-5.46,5.539-5.46c3.12,0,5.733,2.418,5.733,5.46c0,3.003-2.613,5.46-5.733,5.46
				C748.66,734.864,746.086,732.407,746.086,729.404z"/>
			<path style="fill:#FFFFFF;" d="M784.538,774.373h44.228v6.552h-44.228V774.373z"/>
			<path style="fill:#FFFFFF;" d="M890.423,778.741h-36.544l-0.39-7.527l16.419-13.338c5.148-4.212,9.711-8.97,9.711-15.483
				c0-4.915-2.496-7.645-8.151-7.645c-7.137,0-9.711,4.173-9.009,12.987l-8.542-1.56c-1.326-12.012,5.539-18.876,17.824-18.876
				c11.856,0,17.239,6.24,17.239,14.82c0,9.321-5.46,15.328-13.104,20.71l-12.247,8.854h19.813c0.078-2.886,0.273-5.5,0.624-8.19
				h7.02C890.462,768.444,890.229,773.515,890.423,778.741z"/>
			<path style="fill:#FFFFFF;" d="M582.735,807.353h17.746v6.123h-11.31v59.828h11.31v6.124h-17.746V807.353z"/>
			<path style="fill:#FFFFFF;" d="M680.311,825.878c0.78,6.864,1.482,15.406-5.967,17.59c7.45,2.184,6.748,10.687,5.967,17.59
				c-1.053,8.697,1.131,12.948,8.971,12.597v6.045c-12.715,0.624-17.239-6.084-15.757-19.072c1.014-9.166,0.819-14.197-5.499-14.197
				h-1.56v-5.928h1.56c6.318,0,6.513-5.031,5.499-14.158c-1.482-13.026,3.042-19.735,15.757-19.111v6.084
				C681.442,812.93,679.258,817.181,680.311,825.878z"/>
			<path style="fill:#FFFFFF;" d="M725.395,856.65l6.24,1.521c-2.458,7.8-8.424,11.311-16.576,11.311
				c-12.052,0-19.54-8.347-19.54-19.891c0-10.998,6.787-19.579,17.707-19.579c5.85,0,10.179,2.301,12.207,6.474
				c0-1.95,0.156-3.9,0.429-6.006h6.552c-0.663,5.265-1.053,10.179-1.053,15.64h-6.826c-0.897-6.318-4.524-9.244-10.062-9.244
				c-6.981,0-11.116,5.304-11.116,12.714c0,7.527,4.212,12.91,11.779,12.91C720.246,862.5,723.678,860.395,725.395,856.65z"/>
			<path style="fill:#FFFFFF;" d="M740.057,849.708c0-11.389,7.333-19.696,19.345-19.696c11.974,0,19.345,8.307,19.345,19.696
				c0,11.505-7.371,19.774-19.345,19.774C747.389,869.482,740.057,861.213,740.057,849.708z M770.79,849.708
				c0-7.488-4.485-12.559-11.389-12.559c-6.903,0-11.427,5.07-11.427,12.559c0,7.566,4.524,12.637,11.427,12.637
				C766.305,862.345,770.79,857.274,770.79,849.708z"/>
			<path style="fill:#FFFFFF;" d="M832.604,862.149v6.591h-20.32v-6.591h6.084v-15.171c0-6.318-2.769-9.283-8.034-9.283
				c-6.084,0-10.375,4.251-10.375,12.208v12.247h6.513v6.591H785.14v-6.591h7.137v-24.454h-7.137v-6.903h14.001l-0.039,7.839
				c2.067-5.343,6.474-8.62,13.221-8.62c9.438,0,13.729,5.616,13.729,15.016v17.122H832.604z"/>
			<path style="fill:#FFFFFF;" d="M868.325,862.149h7.762v-24.454h-7.762v-6.903h15.484v31.357h7.488v6.591h-22.972V862.149z
				 M874.292,819.404c0-3.042,2.574-5.46,5.539-5.46c3.12,0,5.733,2.418,5.733,5.46c0,3.003-2.613,5.46-5.733,5.46
				C876.866,824.864,874.292,822.407,874.292,819.404z"/>
			<path style="fill:#FFFFFF;" d="M944.843,862.149v6.591h-20.32v-6.591h6.084v-15.171c0-6.318-2.769-9.283-8.034-9.283
				c-6.084,0-10.375,4.251-10.375,12.208v12.247h6.513v6.591h-21.333v-6.591h7.137v-24.454h-7.137v-6.903h14.001l-0.039,7.839
				c2.067-5.343,6.474-8.62,13.221-8.62c9.438,0,13.729,5.616,13.729,15.016v17.122H944.843z"/>
			<path style="fill:#FFFFFF;" d="M978.538,853.491v1.677c0,9.79-3.705,14.314-12.753,14.314c-7.878,0-11.934-4.758-11.934-13.417
				v-18.37h-7.449v-6.903h7.449v-10.608l7.722-1.092v11.701h16.537v6.903h-16.537v17.863c0,4.875,1.638,7.021,4.992,7.021
				c3.9,0,4.992-2.652,4.992-8.229v-1.677L978.538,853.491z"/>
			<path style="fill:#FFFFFF;" d="M1020.931,852.009h-28.432c0.78,6.591,4.797,10.686,11.622,10.686
				c4.992,0,8.463-1.716,10.531-5.031l5.733,3.159c-3.276,5.733-8.892,8.659-16.264,8.659c-12.402,0-19.618-8.308-19.618-19.813
				c0-11.154,7.254-19.657,18.682-19.657c11.232,0,17.862,7.527,17.862,19.072C1021.047,849.981,1021.008,851.034,1020.931,852.009z
				 M992.577,846.393h20.554c-0.507-6.318-4.134-9.711-9.984-9.711C997.256,836.682,993.512,840.348,992.577,846.393z"/>
			<path style="fill:#FFFFFF;" d="M1066.482,830.792l-0.039,35.803c0,11.193-6.903,18.252-19.306,18.252
				c-6.942,0-12.792-2.262-17.395-6.864l4.017-5.616c3.744,3.783,8.697,5.733,13.534,5.733c7.059,0,11.896-3.705,11.896-11.623
				l0.039-5.304c-2.457,4.797-6.747,7.527-13.026,7.527c-10.842,0-17.2-7.917-17.239-19.423
				c-0.039-11.388,6.279-19.267,17.317-19.267c6.513,0,10.999,2.808,13.417,8.034l0.663-7.254H1066.482z M1058.916,849.279
				c0-7.137-4.368-12.285-11.271-12.285c-6.981,0-10.569,5.031-10.569,12.285c0,7.333,3.588,12.52,10.569,12.52
				C1054.547,861.798,1058.916,856.533,1058.916,849.279z"/>
			<path style="fill:#FFFFFF;" d="M1112.071,852.009h-28.432c0.78,6.591,4.797,10.686,11.623,10.686
				c4.992,0,8.463-1.716,10.53-5.031l5.733,3.159c-3.276,5.733-8.892,8.659-16.263,8.659c-12.403,0-19.618-8.308-19.618-19.813
				c0-11.154,7.254-19.657,18.682-19.657c11.232,0,17.863,7.527,17.863,19.072C1112.188,849.981,1112.148,851.034,1112.071,852.009z
				 M1083.716,846.393h20.554c-0.507-6.318-4.134-9.711-9.984-9.711C1088.397,836.682,1084.653,840.348,1083.716,846.393z"/>
			<path style="fill:#FFFFFF;" d="M1148.34,830.363l-0.156,8.697c-7.254-1.716-14.977,2.223-14.977,11.701v11.388h9.204v6.591
				h-23.479v-6.591h6.552v-24.454h-6.552v-6.903h13.416l0.039,9.594C1134.456,832.938,1140.5,828.881,1148.34,830.363z"/>
			<path style="fill:#FFFFFF;" d="M1216.082,854.193v7.839h6.435v6.708h-23.05v-6.708h8.542v-7.839h-23.128l-0.78-5.382
				l19.969-31.201h12.013v30.109h8.19v6.475H1216.082z M1208.008,847.719v-11.7c0-3.744-0.039-7.684,0.195-11.778
				c-2.067,3.939-3.978,7.02-6.24,10.686l-8.229,12.792H1208.008z"/>
			<path style="fill:#FFFFFF;" d="M1270.135,868.741h-36.544l-0.39-7.527l16.419-13.338c5.148-4.212,9.711-8.97,9.711-15.483
				c0-4.915-2.496-7.645-8.151-7.645c-7.137,0-9.711,4.173-9.009,12.987l-8.542-1.56c-1.326-12.012,5.539-18.876,17.824-18.876
				c11.856,0,17.239,6.24,17.239,14.82c0,9.321-5.46,15.328-13.104,20.71l-12.247,8.854h19.813c0.078-2.886,0.273-5.5,0.624-8.19
				h7.02C1270.174,858.444,1269.94,863.515,1270.135,868.741z"/>
			<path style="fill:#FFFFFF;" d="M1277.777,877.321c6.63-9.01,10.257-21.022,10.257-33.932c0-12.909-3.627-24.922-10.257-33.931
				l6.201-3.003c7.332,9.906,11.193,23.167,11.193,36.934s-3.861,27.028-11.193,36.935L1277.777,877.321z"/>
			<path style="fill:#FFFFFF;" d="M1364.9,879.427v-6.124h11.311v-59.828H1364.9v-6.123h17.746v72.075H1364.9z"/>
			<path style="fill:#FFFFFF;" d="M520.064,967.321c6.63-9.01,10.257-21.022,10.257-33.932c0-12.909-3.627-24.922-10.257-33.931
				l6.201-3.003c7.332,9.906,11.193,23.167,11.193,36.934s-3.861,27.028-11.193,36.935L520.064,967.321z"/>
			<path style="fill:#FFFFFF;" d="M462.526,1057.321c6.63-9.01,10.257-21.022,10.257-33.932c0-12.909-3.627-24.922-10.257-33.931
				l6.201-3.003c7.332,9.906,11.193,23.167,11.193,36.934s-3.861,27.028-11.193,36.935L462.526,1057.321z"/>
			<path style="fill:#FFFFFF;" d="M423.379,1147.321c6.63-9.01,10.257-21.022,10.257-33.932c0-12.909-3.627-24.922-10.257-33.931
				l6.201-3.003c7.332,9.906,11.193,23.167,11.193,36.934s-3.861,27.028-11.193,36.935L423.379,1147.321z"/>
			<path style="fill:#FFFFFF;" d="M384.233,1237.321c6.63-9.01,10.257-21.022,10.257-33.932c0-12.909-3.627-24.922-10.257-33.931
				l6.201-3.003c7.332,9.906,11.193,23.167,11.193,36.934s-3.861,27.028-11.193,36.935L384.233,1237.321z"/>
		</g>
	</g>
	<g>
		<g>
			<path style="fill:#FFFFFF;" d="M2826.872,813.031c0,11.778-6.318,19.774-17.044,19.774c-6.123,0-10.374-2.535-12.87-7.137v15.405
				h7.761v6.591h-21.763v-6.591h6.318v-40.055h-6.318v-6.903h13.183l0.117,7.449c2.34-5.382,6.864-8.229,13.572-8.229
				C2820.593,793.335,2826.872,801.292,2826.872,813.031z M2818.76,813.031c0-7.488-3.627-12.52-10.569-12.52
				c-6.903,0-11.271,5.188-11.271,12.52c0,7.41,4.368,12.675,11.271,12.675C2815.133,825.707,2818.76,820.52,2818.76,813.031z"/>
			<path style="fill:#FFFFFF;" d="M2876.362,825.473v6.591h-12.168l-0.352-7.644c-1.988,5.187-6.279,8.385-12.831,8.385
				c-8.736,0-13.104-5.616-13.104-14.938v-16.849h-6.357v-6.903h14.002v22.036c0,6.318,2.612,9.204,7.332,9.204
				c5.928,0,10.141-4.251,10.141-12.246v-12.091h-8.112v-6.903h15.834v31.357H2876.362z"/>
			<path style="fill:#FFFFFF;" d="M2926.866,813.031c0,11.778-6.357,19.774-17.083,19.774c-6.513,0-10.92-2.886-13.3-7.996
				l-0.116,7.254h-13.573v-6.591h6.592v-40.874h-6.592v-6.981h14.274v22.309c2.496-4.329,6.748-6.591,12.715-6.591
				C2920.548,793.335,2926.866,801.292,2926.866,813.031z M2918.754,813.031c0-7.488-3.666-12.52-10.608-12.52
				c-6.864,0-11.232,5.188-11.232,12.52c0,7.41,4.368,12.675,11.232,12.675C2915.088,825.707,2918.754,820.52,2918.754,813.031z"/>
			<path style="fill:#FFFFFF;" d="M2962.938,790.839v3.276h11.271v6.903h-11.271v24.454h9.517v6.591h-23.908v-6.591h6.708v-24.454
				h-6.708v-6.903h6.708v-3.276c0-9.087,4.875-14.001,13.456-14.001c3.549,0,6.435,0.819,9.438,3.003l-2.652,6.357
				c-1.95-1.677-4.018-2.418-6.396-2.418C2965.045,783.78,2962.938,786.003,2962.938,790.839z"/>
			<path style="fill:#FFFFFF;" d="M3027.874,825.473v6.591h-20.319v-6.591h6.084v-15.171c0-6.318-2.77-9.283-8.034-9.283
				c-6.085,0-10.375,4.251-10.375,12.208v12.247h6.514v6.591h-21.334v-6.591h7.138v-24.454h-7.138v-6.903h14.002l-0.039,7.839
				c2.066-5.343,6.474-8.62,13.221-8.62c9.438,0,13.729,5.616,13.729,15.016v17.122H3027.874z"/>
			<path style="fill:#FFFFFF;" d="M3062.893,790.839v3.276h11.271v6.903h-11.271v24.454h9.517v6.591h-23.907v-6.591h6.708v-24.454
				h-6.708v-6.903h6.708v-3.276c0-9.087,4.875-14.001,13.455-14.001c3.55,0,6.436,0.819,9.438,3.003l-2.652,6.357
				c-1.95-1.677-4.017-2.418-6.396-2.418C3064.999,783.78,3062.893,786.003,3062.893,790.839z"/>
			<path style="fill:#FFFFFF;" d="M3079.506,813.031c0-11.389,7.332-19.696,19.345-19.696c11.974,0,19.345,8.307,19.345,19.696
				c0,11.505-7.371,19.774-19.345,19.774C3086.838,832.805,3079.506,824.537,3079.506,813.031z M3110.239,813.031
				c0-7.488-4.485-12.559-11.389-12.559s-11.428,5.07-11.428,12.559c0,7.566,4.524,12.637,11.428,12.637
				S3110.239,820.598,3110.239,813.031z"/>
			<path style="fill:#FFFFFF;" d="M3126.031,813.031c0-11.389,7.332-19.696,19.345-19.696c11.974,0,19.345,8.307,19.345,19.696
				c0,11.505-7.371,19.774-19.345,19.774C3133.363,832.805,3126.031,824.537,3126.031,813.031z M3156.765,813.031
				c0-7.488-4.485-12.559-11.389-12.559s-11.428,5.07-11.428,12.559c0,7.566,4.524,12.637,11.428,12.637
				S3156.765,820.598,3156.765,813.031z"/>
			<path style="fill:#FFFFFF;" d="M3188.82,806.713c0-13.768,3.86-27.028,11.154-36.934l6.201,3.003
				c-6.631,9.009-10.258,21.022-10.258,33.931c0,12.91,3.627,24.922,10.258,33.932l-6.201,3.003
				C3192.681,833.741,3188.82,820.48,3188.82,806.713z"/>
			<path style="fill:#FFFFFF;" d="M3229.925,840.645c6.63-9.01,10.258-21.022,10.258-33.932c0-12.909-3.628-24.922-10.258-33.931
				l6.201-3.003c7.332,9.906,11.193,23.167,11.193,36.934s-3.861,27.028-11.193,36.935L3229.925,840.645z"/>
			<path style="fill:#FFFFFF;" d="M3352.656,782.3l22.775,25.35L3352.656,833l-6.942-5.967l7.488-8.151
				c1.273-1.404,2.541-2.684,3.803-3.841c1.261-1.157,2.567-2.19,3.919-3.101h-74.49v-8.58h74.568
				c-0.962-0.624-1.859-1.273-2.69-1.95c-0.833-0.676-1.658-1.424-2.477-2.243c-0.819-0.819-1.697-1.735-2.633-2.75l-7.488-8.151
				L3352.656,782.3z"/>
			<path style="fill:#FFFFFF;" d="M3412.286,825.239h8.151v-37.051h-7.879v-6.825h23.869v6.825h-7.878v37.051h8.268v6.825h-24.531
				V825.239z"/>
			<path style="fill:#FFFFFF;" d="M3490.756,825.473v6.591h-20.319v-6.591h6.084v-15.171c0-6.318-2.77-9.283-8.034-9.283
				c-6.085,0-10.375,4.251-10.375,12.208v12.247h6.514v6.591h-21.334v-6.591h7.138v-24.454h-7.138v-6.903h14.002l-0.039,7.839
				c2.066-5.343,6.474-8.62,13.221-8.62c9.438,0,13.729,5.616,13.729,15.016v17.122H3490.756z"/>
			<path style="fill:#FFFFFF;" d="M3524.451,816.814v1.677c0,9.79-3.706,14.314-12.754,14.314c-7.878,0-11.935-4.758-11.935-13.417
				v-18.37h-7.449v-6.903h7.449v-10.608l7.723-1.092v11.701h16.536v6.903h-16.536v17.863c0,4.875,1.638,7.021,4.992,7.021
				c3.899,0,4.992-2.652,4.992-8.229v-1.677L3524.451,816.814z"/>
			<path style="fill:#FFFFFF;" d="M3558.612,789.201c0.78,6.864,1.482,15.406-5.967,17.59c7.449,2.184,6.747,10.687,5.967,17.59
				c-1.053,8.697,1.132,12.948,8.971,12.597v6.045c-12.715,0.624-17.238-6.084-15.757-19.072c1.015-9.166,0.819-14.197-5.499-14.197
				h-1.56v-5.928h1.56c6.318,0,6.514-5.031,5.499-14.158c-1.481-13.026,3.042-19.735,15.757-19.111v6.084
				C3559.744,776.253,3557.56,780.504,3558.612,789.201z"/>
			<path style="fill:#FFFFFF;" d="M2891.258,907.517v7.839h6.435v6.708h-23.05v-6.708h8.542v-7.839h-23.128l-0.78-5.382
				l19.969-31.201h12.013v30.109h8.19v6.475H2891.258z M2883.185,901.042v-11.7c0-3.744-0.039-7.684,0.194-11.778
				c-2.066,3.939-3.978,7.02-6.24,10.686l-8.229,12.792H2883.185z"/>
			<path style="fill:#FFFFFF;" d="M2945.311,922.064h-36.544l-0.39-7.527l16.419-13.338c5.148-4.212,9.712-8.97,9.712-15.483
				c0-4.915-2.496-7.645-8.151-7.645c-7.138,0-9.712,4.173-9.01,12.987l-8.541-1.56c-1.326-12.012,5.538-18.876,17.823-18.876
				c11.856,0,17.239,6.24,17.239,14.82c0,9.321-5.46,15.328-13.104,20.71l-12.247,8.854h19.813c0.078-2.886,0.272-5.5,0.624-8.19
				h7.02C2945.35,911.768,2945.116,916.838,2945.311,922.064z"/>
			<path style="fill:#FFFFFF;" d="M2806.24,983.827v5.928h-1.56c-6.318,0-6.514,5.031-5.5,14.197
				c1.482,12.987-3.042,19.696-15.756,19.072v-6.045c7.839,0.351,10.023-3.9,8.97-12.597c-0.78-6.903-1.481-15.406,5.968-17.59
				c-7.449-2.184-6.748-10.726-5.968-17.59c1.054-8.697-1.131-12.948-8.97-12.558v-6.084c12.714-0.624,17.238,6.084,15.756,19.111
				c-1.014,9.126-0.818,14.158,5.5,14.158H2806.24z"/>
		</g>
	</g>
	<g>
		<g>
			
				<line style="fill:none;stroke:#FFFFFF;stroke-width:6;stroke-miterlimit:10;" x1="1313.875" y1="239.165" x2="2454.316" y2="239.165"/>
			<g>
				<path style="fill:#FFFFFF;" d="M1375.383,282.363c1.336-2.092,0.716-4.878-1.38-6.214l-58.073-36.984l58.073-36.984
					c2.096-1.336,2.716-4.122,1.38-6.214c-1.336-2.092-4.135-2.698-6.214-1.38l-64.033,40.781c-1.296,0.826-2.083,2.259-2.083,3.797
					s0.786,2.971,2.083,3.797l64.033,40.781c0.747,0.475,1.586,0.703,2.413,0.703
					C1373.067,284.446,1374.522,283.708,1375.383,282.363z"/>
			</g>
		</g>
	</g>
	<g>
		<g>
			
				<line style="fill:none;stroke:#FFFFFF;stroke-width:6;stroke-miterlimit:10;" x1="1900.541" y1="2429.165" x2="2429.179" y2="2429.165"/>
			<g>
				<path style="fill:#FFFFFF;" d="M1962.05,2472.363c1.336-2.092,0.716-4.878-1.38-6.214l-58.073-36.984l58.073-36.984
					c2.096-1.336,2.716-4.122,1.38-6.214c-1.336-2.092-4.135-2.698-6.214-1.38l-64.033,40.781c-1.296,0.826-2.083,2.259-2.083,3.797
					s0.786,2.971,2.083,3.797l64.033,40.781c0.747,0.475,1.586,0.703,2.413,0.703
					C1959.734,2474.446,1961.189,2473.708,1962.05,2472.363z"/>
			</g>
			<g>
				<path style="fill:#FFFFFF;" d="M2367.67,2472.363c-1.336-2.092-0.716-4.878,1.38-6.214l58.073-36.984l-58.073-36.984
					c-2.096-1.336-2.716-4.122-1.38-6.214s4.135-2.698,6.214-1.38l64.033,40.781c1.296,0.826,2.083,2.259,2.083,3.797
					s-0.787,2.971-2.083,3.797l-64.033,40.781c-0.747,0.475-1.586,0.703-2.413,0.703
					C2369.986,2474.446,2368.532,2473.708,2367.67,2472.363z"/>
			</g>
		</g>
	</g>
	<g>
		<line x1="1198.193" y1="1677.638" x2="1198.193" y2="1372"/>
		<g>
			
				<line style="fill:none;stroke:#FFFFFF;stroke-width:6;stroke-miterlimit:10;" x1="1198.193" y1="1666.817" x2="1198.193" y2="1372"/>
			<g>
				<path style="fill:#FFFFFF;" d="M1241.392,1605.308c-2.092-1.336-4.878-0.716-6.214,1.38l-36.984,58.073l-36.984-58.073
					c-1.336-2.096-4.122-2.716-6.214-1.38c-2.092,1.336-2.698,4.135-1.38,6.214l40.781,64.033c0.826,1.296,2.259,2.083,3.797,2.083
					s2.971-0.787,3.797-2.083l40.781-64.033c0.474-0.747,0.703-1.586,0.703-2.413
					C1243.475,1607.624,1242.736,1606.17,1241.392,1605.308z"/>
			</g>
		</g>
	</g>
	<g>
		<line x1="1198.193" y1="2334.305" x2="1198.193" y2="2028.667"/>
		<g>
			
				<line style="fill:none;stroke:#FFFFFF;stroke-width:6;stroke-miterlimit:10;" x1="1198.193" y1="2323.484" x2="1198.193" y2="2028.667"/>
			<g>
				<path style="fill:#FFFFFF;" d="M1241.392,2261.975c-2.092-1.336-4.878-0.716-6.214,1.38l-36.984,58.073l-36.984-58.073
					c-1.336-2.096-4.122-2.716-6.214-1.38c-2.092,1.336-2.698,4.135-1.38,6.214l40.781,64.033c0.826,1.296,2.259,2.083,3.797,2.083
					s2.971-0.787,3.797-2.083l40.781-64.033c0.474-0.747,0.703-1.586,0.703-2.413
					C1243.475,2264.291,1242.736,2262.836,1241.392,2261.975z"/>
			</g>
		</g>
	</g>
	
		<image style="overflow:visible;" width="1280" height="431" xlink:href="../../../Branding/logo-light.png"  transform="matrix(0.3935 0 0 0.3935 2533.3333 148.5789)">
	</image>
</g>
</svg>
