<?xml version="1.0" encoding="iso-8859-1"?>
<!-- Generator: Adobe Illustrator 29.6.0, SVG Export Plug-In . SVG Version: 9.03 Build 0)  -->
<svg version="1.1" id="Layer_2" xmlns="http://www.w3.org/2000/svg" xmlns:xlink="http://www.w3.org/1999/xlink" x="0px" y="0px"
	 viewBox="0 0 4000 2774" style="enable-background:new 0 0 4000 2774;" xml:space="preserve">
<g>
	<path d="M334.26,84.863v117.25h-19.425v-97.125l-26.6,16.362l-8.4-13.737l37.1-22.75H334.26z M358.41,190.213v15.4h-73.062v-15.4
		H358.41z"/>
	<path d="M510.831,124.238c3.208-4.2,6.957-7.495,11.244-9.888c4.287-2.391,8.997-3.587,14.131-3.587
		c8.107,0,14.685,1.999,19.731,5.994c5.045,3.997,8.75,9.625,11.112,16.888c2.363,7.263,3.544,15.794,3.544,25.594
		c0,9.393-1.4,17.763-4.2,25.112c-2.8,7.35-6.927,13.125-12.381,17.325c-5.455,4.2-12.178,6.3-20.169,6.3
		c-10.325,0-18.434-3.82-24.325-11.462l-1.05,9.1h-17.237v-129.5l19.6-2.188V124.238z M528.944,193.013
		c6.65,0,11.797-2.712,15.444-8.137c3.645-5.425,5.469-13.941,5.469-25.55c0-7.875-0.73-14.276-2.188-19.206
		c-1.459-4.929-3.603-8.531-6.432-10.806c-2.83-2.275-6.286-3.413-10.369-3.413c-4.375,0-8.225,1.312-11.55,3.938
		c-3.325,2.625-6.155,5.717-8.488,9.275v43.225c2.158,3.325,4.769,5.936,7.832,7.831
		C521.725,192.066,525.151,193.013,528.944,193.013z"/>
	<path d="M677.08,113.213l-31.85,92.75c-2.393,7-5.455,13.168-9.188,18.506c-3.734,5.337-8.518,9.639-14.35,12.906
		c-5.834,3.266-13.068,5.278-21.7,6.037l-2.538-14.7c6.241-0.993,11.214-2.437,14.919-4.332c3.704-1.896,6.65-4.39,8.837-7.481
		c2.188-3.093,4.126-6.855,5.819-11.288h-6.65l-31.15-92.4h20.825l23.275,78.75l23.625-78.75H677.08z"/>
	<path d="M778.403,200.713c-3.384,2.159-7.438,3.909-12.163,5.25s-9.655,2.012-14.788,2.012c-10.733,0-18.886-2.785-24.456-8.356
		c-5.571-5.57-8.356-12.906-8.356-22.006v-50.138h-20.562v-14.262h20.562v-20.65l19.6-2.363v23.013h31.15l-2.188,14.262h-28.962
		v49.963c0,4.958,1.239,8.648,3.719,11.068c2.479,2.421,6.547,3.631,12.207,3.631c3.382,0,6.503-0.407,9.362-1.225
		c2.857-0.816,5.454-1.866,7.788-3.15L778.403,200.713z"/>
	<path d="M822.502,165.713c0.407,6.3,1.75,11.449,4.025,15.444c2.275,3.996,5.264,6.927,8.969,8.793
		c3.704,1.868,7.772,2.8,12.206,2.8c4.55,0,8.75-0.7,12.6-2.1s7.729-3.382,11.638-5.95l8.487,11.725
		c-4.317,3.5-9.362,6.3-15.137,8.4c-5.775,2.1-11.959,3.15-18.55,3.15c-9.567,0-17.661-2.042-24.281-6.125
		c-6.621-4.082-11.652-9.77-15.094-17.062c-3.442-7.291-5.163-15.72-5.163-25.287c0-9.275,1.691-17.573,5.075-24.894
		c3.382-7.32,8.225-13.125,14.525-17.413c6.3-4.287,13.825-6.431,22.575-6.431c8.225,0,15.297,1.868,21.219,5.6
		c5.92,3.734,10.5,9.027,13.737,15.881c3.238,6.855,4.856,15.094,4.856,24.719c0,1.575-0.044,3.136-0.131,4.681
		c-0.087,1.546-0.19,2.902-0.306,4.069H822.502z M844.552,125.288c-6.125,0-11.186,2.188-15.181,6.562
		c-3.996,4.375-6.315,11.2-6.956,20.475h42.787c-0.175-8.691-2.027-15.37-5.556-20.038
		C856.116,127.622,851.084,125.288,844.552,125.288z"/>
</g>
<g>
	<path d="M714.415,926.71v50.312c3.732-4.55,8.107-7.977,13.125-10.281c5.017-2.304,10.179-3.457,15.488-3.457
		c8.691,0,15.166,2.406,19.425,7.219c4.257,4.812,6.388,11.565,6.388,20.256v67.375h-19.6v-64.312c0-5.541-1.05-9.522-3.15-11.944
		c-2.1-2.42-5.484-3.631-10.15-3.631c-2.918,0-5.703,0.656-8.356,1.969c-2.655,1.312-5.105,3.019-7.35,5.119
		c-2.246,2.1-4.186,4.346-5.819,6.737v66.062h-19.6V928.81L714.415,926.71z"/>
	<path d="M816.089,1018.235c0.407,6.3,1.75,11.449,4.025,15.444c2.275,3.996,5.264,6.927,8.969,8.793
		c3.704,1.868,7.772,2.8,12.206,2.8c4.55,0,8.75-0.7,12.6-2.1s7.729-3.382,11.638-5.95l8.487,11.725
		c-4.317,3.5-9.362,6.3-15.137,8.4c-5.775,2.1-11.959,3.15-18.55,3.15c-9.567,0-17.661-2.042-24.281-6.125
		c-6.621-4.082-11.652-9.77-15.094-17.062c-3.442-7.291-5.163-15.72-5.163-25.287c0-9.275,1.691-17.573,5.075-24.894
		c3.382-7.32,8.225-13.125,14.525-17.413c6.3-4.287,13.825-6.431,22.575-6.431c8.225,0,15.297,1.868,21.219,5.6
		c5.92,3.734,10.5,9.027,13.737,15.881c3.238,6.855,4.856,15.094,4.856,24.719c0,1.575-0.044,3.136-0.131,4.681
		c-0.087,1.546-0.19,2.902-0.306,4.069H816.089z M838.139,977.81c-6.125,0-11.186,2.188-15.181,6.562
		c-3.996,4.375-6.315,11.2-6.956,20.475h42.787c-0.175-8.691-2.027-15.37-5.556-20.038
		C849.703,980.144,844.671,977.81,838.139,977.81z"/>
	<path d="M975.424,1035.473c0,3.618,0.554,6.256,1.663,7.919c1.107,1.663,2.887,2.902,5.337,3.719l-4.375,13.3
		c-4.55-0.525-8.459-1.78-11.725-3.762c-3.268-1.982-5.746-4.988-7.438-9.013c-3.384,4.259-7.671,7.468-12.862,9.625
		c-5.193,2.157-10.734,3.237-16.625,3.237c-9.334,0-16.728-2.639-22.181-7.918c-5.455-5.279-8.182-12.207-8.182-20.781
		c0-9.741,3.792-17.238,11.375-22.488c7.583-5.25,18.433-7.875,32.55-7.875h13.212v-6.037c0-5.95-1.794-10.238-5.381-12.863
		s-8.649-3.938-15.181-3.938c-3.034,0-6.709,0.394-11.025,1.181c-4.318,0.788-8.837,1.999-13.562,3.631l-4.812-13.825
		c5.775-2.158,11.432-3.748,16.975-4.769c5.541-1.02,10.675-1.531,15.4-1.531c12.366,0,21.597,2.743,27.694,8.225
		c6.095,5.484,9.144,13.067,9.144,22.75V1035.473z M935.349,1046.06c3.966,0,7.845-1.05,11.638-3.15
		c3.791-2.1,6.854-5.045,9.188-8.837v-20.388h-10.85c-9.217,0-15.809,1.531-19.775,4.594c-3.968,3.062-5.95,7.278-5.95,12.644
		c0,4.9,1.326,8.649,3.981,11.244C926.234,1044.763,930.157,1046.06,935.349,1046.06z"/>
	<path d="M1064.061,926.448l19.6,2.188v129.5h-17.237l-1.4-11.375c-3.15,4.375-6.913,7.759-11.288,10.15s-9.275,3.587-14.7,3.587
		c-7.934,0-14.467-2.027-19.6-6.081c-5.134-4.054-8.94-9.741-11.419-17.062c-2.48-7.32-3.719-15.794-3.719-25.419
		c0-9.391,1.458-17.747,4.375-25.068c2.916-7.32,7.087-13.082,12.513-17.281c5.425-4.2,11.957-6.3,19.6-6.3
		c4.841,0,9.188,0.861,13.038,2.582c3.85,1.721,7.263,4.215,10.238,7.481V926.448z M1045.948,978.335
		c-6.592,0-11.725,2.728-15.4,8.181c-3.675,5.455-5.513,13.927-5.513,25.418c0,7.875,0.758,14.278,2.275,19.207
		c1.516,4.93,3.704,8.546,6.562,10.85c2.857,2.305,6.3,3.456,10.325,3.456c4.433,0,8.283-1.282,11.55-3.85
		c3.266-2.566,6.037-5.657,8.312-9.275v-43.75c-2.275-3.266-4.93-5.789-7.963-7.569
		C1053.064,979.225,1049.68,978.335,1045.948,978.335z"/>
	<path d="M1131.084,1018.235c0.407,6.3,1.75,11.449,4.025,15.444c2.275,3.996,5.264,6.927,8.969,8.793
		c3.704,1.868,7.772,2.8,12.206,2.8c4.55,0,8.75-0.7,12.6-2.1s7.729-3.382,11.638-5.95l8.487,11.725
		c-4.317,3.5-9.362,6.3-15.137,8.4c-5.775,2.1-11.959,3.15-18.55,3.15c-9.567,0-17.661-2.042-24.281-6.125
		c-6.621-4.082-11.652-9.77-15.094-17.062c-3.442-7.291-5.163-15.72-5.163-25.287c0-9.275,1.691-17.573,5.075-24.894
		c3.382-7.32,8.225-13.125,14.525-17.413c6.3-4.287,13.825-6.431,22.575-6.431c8.225,0,15.297,1.868,21.219,5.6
		c5.92,3.734,10.5,9.027,13.737,15.881c3.238,6.855,4.856,15.094,4.856,24.719c0,1.575-0.044,3.136-0.131,4.681
		c-0.087,1.546-0.19,2.902-0.306,4.069H1131.084z M1153.134,977.81c-6.125,0-11.186,2.188-15.181,6.562
		c-3.996,4.375-6.315,11.2-6.956,20.475h42.787c-0.175-8.691-2.027-15.37-5.556-20.038
		C1164.698,980.144,1159.667,977.81,1153.134,977.81z"/>
	<path d="M1220.683,1058.135v-14h13.562v-64.487h-13.562v-13.913h28.525l3.587,21.438c3.441-7.757,7.714-13.664,12.819-17.719
		c5.104-4.054,11.681-6.082,19.731-6.082c2.741,0,5.207,0.219,7.394,0.656s4.36,1.006,6.519,1.707l-5.862,16.8
		c-1.868-0.525-3.618-0.918-5.25-1.181c-1.634-0.263-3.443-0.394-5.425-0.394c-6.708,0-12.499,2.509-17.369,7.525
		c-4.871,5.018-8.706,12.134-11.506,21.35v34.3h18.638v14H1220.683z M1281.933,999.773v-22.75l2.45-11.288h14.875l-3.325,34.038
		H1281.933z"/>
</g>
<g>
	<path d="M2309.72,963.285c8.166,0,14.7,1.999,19.6,5.994c4.9,3.997,8.458,9.625,10.675,16.888s3.325,15.794,3.325,25.594
		c0,9.393-1.343,17.763-4.024,25.112c-2.685,7.35-6.665,13.125-11.944,17.325c-5.28,4.2-11.827,6.3-19.644,6.3
		c-9.684,0-17.5-3.412-23.45-10.237v43.4l-19.6,2.188V965.735h17.062l1.225,11.9c3.5-4.782,7.569-8.37,12.206-10.763
		C2299.788,964.481,2304.645,963.285,2309.72,963.285z M2304.295,978.423c-4.375,0-8.226,1.312-11.551,3.938
		c-3.324,2.625-6.154,5.717-8.487,9.275v43.225c2.217,3.325,4.856,5.877,7.919,7.656c3.062,1.78,6.519,2.668,10.369,2.668
		c6.591,0,11.607-2.653,15.05-7.962c3.441-5.307,5.162-13.766,5.162-25.375c0-7.875-0.687-14.276-2.056-19.206
		c-1.372-4.929-3.413-8.531-6.125-10.806C2311.863,979.56,2308.436,978.423,2304.295,978.423z"/>
	<path d="M2440.268,1035.473c0,3.618,0.554,6.256,1.662,7.919c1.107,1.663,2.888,2.902,5.338,3.719l-4.375,13.3
		c-4.55-0.525-8.459-1.78-11.725-3.762c-3.268-1.982-5.747-4.988-7.438-9.013c-3.384,4.259-7.672,7.468-12.863,9.625
		c-5.192,2.157-10.733,3.237-16.625,3.237c-9.333,0-16.728-2.639-22.181-7.918c-5.455-5.279-8.182-12.207-8.182-20.781
		c0-9.741,3.791-17.238,11.375-22.488c7.583-5.25,18.433-7.875,32.55-7.875h13.213v-6.037c0-5.95-1.794-10.238-5.381-12.863
		c-3.588-2.625-8.649-3.938-15.182-3.938c-3.034,0-6.709,0.394-11.025,1.181c-4.317,0.788-8.837,1.999-13.562,3.631l-4.812-13.825
		c5.775-2.158,11.433-3.748,16.976-4.769c5.541-1.02,10.675-1.531,15.399-1.531c12.366,0,21.598,2.743,27.694,8.225
		c6.095,5.484,9.144,13.067,9.144,22.75V1035.473z M2400.192,1046.06c3.967,0,7.845-1.05,11.638-3.15
		c3.791-2.1,6.854-5.045,9.188-8.837v-20.388h-10.85c-9.218,0-15.81,1.531-19.775,4.594c-3.968,3.062-5.95,7.278-5.95,12.644
		c0,4.9,1.326,8.649,3.981,11.244C2391.077,1044.763,2395,1046.06,2400.192,1046.06z"/>
	<path d="M2555.504,965.735l-31.85,92.75c-2.393,7-5.455,13.168-9.188,18.506c-3.734,5.337-8.518,9.639-14.351,12.906
		c-5.833,3.266-13.067,5.278-21.699,6.037l-2.538-14.7c6.241-0.993,11.214-2.437,14.919-4.332c3.704-1.896,6.65-4.39,8.838-7.481
		c2.188-3.093,4.126-6.855,5.818-11.288h-6.65l-31.149-92.4h20.825l23.274,78.75l23.625-78.75H2555.504z"/>
	<path d="M2620.252,928.635v104.3c0,4.259,1.298,7.278,3.894,9.057c2.596,1.78,5.964,2.668,10.106,2.668
		c2.683,0,5.22-0.291,7.612-0.875c2.392-0.583,4.726-1.312,7-2.188l4.988,13.65c-2.743,1.4-6.111,2.625-10.106,3.675
		c-3.996,1.05-8.562,1.575-13.694,1.575c-9.274,0-16.493-2.61-21.656-7.831c-5.162-5.22-7.743-12.381-7.743-21.481v-88.112h-27.913
		v-14.438H2620.252z"/>
	<path d="M2721.663,963.285c9.041,0,16.653,2.013,22.837,6.038c6.183,4.025,10.864,9.655,14.044,16.888
		c3.179,7.233,4.769,15.75,4.769,25.55c0,9.743-1.618,18.274-4.856,25.594c-3.237,7.321-7.962,13.009-14.175,17.062
		c-6.212,4.054-13.781,6.081-22.706,6.081s-16.494-1.969-22.706-5.906c-6.213-3.938-10.938-9.551-14.175-16.844
		c-3.238-7.291-4.856-15.895-4.856-25.812c0-9.625,1.618-18.082,4.856-25.375c3.237-7.291,7.976-12.994,14.219-17.106
		C2705.154,965.341,2712.737,963.285,2721.663,963.285z M2721.663,978.51c-7.06,0-12.368,2.699-15.926,8.094
		c-3.559,5.396-5.337,13.84-5.337,25.331c0,11.434,1.764,19.863,5.294,25.288c3.528,5.425,8.822,8.138,15.881,8.138
		c7.058,0,12.352-2.712,15.881-8.138c3.529-5.425,5.294-13.913,5.294-25.462c0-11.375-1.75-19.76-5.25-25.156
		C2734,981.209,2728.72,978.51,2721.663,978.51z"/>
	<path d="M2860.262,1035.473c0,3.618,0.554,6.256,1.662,7.919c1.107,1.663,2.888,2.902,5.338,3.719l-4.375,13.3
		c-4.55-0.525-8.459-1.78-11.725-3.762c-3.268-1.982-5.747-4.988-7.438-9.013c-3.384,4.259-7.672,7.468-12.863,9.625
		c-5.192,2.157-10.733,3.237-16.625,3.237c-9.333,0-16.728-2.639-22.181-7.918c-5.455-5.279-8.182-12.207-8.182-20.781
		c0-9.741,3.791-17.238,11.375-22.488c7.583-5.25,18.433-7.875,32.55-7.875h13.213v-6.037c0-5.95-1.794-10.238-5.381-12.863
		c-3.588-2.625-8.649-3.938-15.182-3.938c-3.034,0-6.709,0.394-11.025,1.181c-4.317,0.788-8.837,1.999-13.562,3.631l-4.812-13.825
		c5.775-2.158,11.433-3.748,16.976-4.769c5.541-1.02,10.675-1.531,15.399-1.531c12.366,0,21.598,2.743,27.694,8.225
		c6.095,5.484,9.144,13.067,9.144,22.75V1035.473z M2820.187,1046.06c3.967,0,7.845-1.05,11.638-3.15
		c3.791-2.1,6.854-5.045,9.188-8.837v-20.388h-10.85c-9.218,0-15.81,1.531-19.775,4.594c-3.968,3.062-5.95,7.278-5.95,12.644
		c0,4.9,1.326,8.649,3.981,11.244C2811.071,1044.763,2814.994,1046.06,2820.187,1046.06z"/>
	<path d="M2948.897,926.448l19.6,2.188v129.5h-17.237l-1.4-11.375c-3.149,4.375-6.912,7.759-11.287,10.15s-9.275,3.587-14.7,3.587
		c-7.934,0-14.468-2.027-19.6-6.081c-5.134-4.054-8.94-9.741-11.419-17.062c-2.48-7.32-3.719-15.794-3.719-25.419
		c0-9.391,1.457-17.747,4.375-25.068c2.916-7.32,7.088-13.082,12.513-17.281c5.425-4.2,11.957-6.3,19.6-6.3
		c4.842,0,9.188,0.861,13.038,2.582c3.85,1.721,7.262,4.215,10.237,7.481V926.448z M2930.785,978.335
		c-6.593,0-11.726,2.728-15.4,8.181c-3.675,5.455-5.513,13.927-5.513,25.418c0,7.875,0.758,14.278,2.275,19.207
		c1.516,4.93,3.703,8.546,6.562,10.85c2.857,2.305,6.3,3.456,10.325,3.456c4.432,0,8.282-1.282,11.55-3.85
		c3.266-2.566,6.037-5.657,8.312-9.275v-43.75c-2.275-3.266-4.931-5.789-7.963-7.569
		C2937.901,979.225,2934.518,978.335,2930.785,978.335z"/>
</g>
<g>
	<path d="M2087.175,1924.354l-18.463-5.688l46.287-101.762h-55.3v-15.4h75.163v14.088L2087.175,1924.354z"/>
	<path d="M2314.321,1799.055c4.958,0,9.494,0.656,13.606,1.969s7.86,3.106,11.244,5.382l-7.613,12.6
		c-2.567-1.691-5.309-2.96-8.225-3.807c-2.918-0.845-5.893-1.269-8.925-1.269c-5.775,0-10.749,1.896-14.919,5.688
		c-4.171,3.793-7.365,9.188-9.581,16.188c-2.218,7-3.325,15.343-3.325,25.025l0.175,6.737c0,14.409,1.647,25.04,4.944,31.894
		c3.295,6.855,8.938,10.281,16.931,10.281c6.708,0,11.71-2.522,15.007-7.568c3.295-5.045,4.943-11.651,4.943-19.819
		c0-6.241-0.759-11.17-2.275-14.787c-1.518-3.616-3.646-6.213-6.387-7.787c-2.743-1.575-5.98-2.363-9.713-2.363
		c-5.309,0-10.121,1.547-14.438,4.638c-4.317,3.093-7.875,7.175-10.675,12.25l-0.351-14.7c3.908-5.949,8.37-10.251,13.388-12.906
		c5.017-2.653,10.413-3.98,16.188-3.98c6.241,0,11.944,1.443,17.106,4.331s9.289,7.205,12.381,12.95
		c3.092,5.746,4.638,12.906,4.638,21.48c0,8.575-1.736,16.101-5.206,22.575c-3.472,6.476-8.211,11.521-14.219,15.138
		c-6.009,3.616-12.834,5.425-20.475,5.425c-7.584,0-14.044-1.43-19.382-4.287c-5.337-2.857-9.669-6.913-12.993-12.163
		c-3.325-5.25-5.762-11.447-7.307-18.594c-1.546-7.145-2.318-14.976-2.318-23.493c0-13.476,1.909-25.229,5.73-35.263
		c3.82-10.032,9.289-17.835,16.406-23.406C2295.8,1801.841,2304.347,1799.055,2314.321,1799.055z"/>
	<path d="M2551.705,1801.505l-2.537,14.7h-46.375v33.6c3.44-1.808,6.781-3.047,10.019-3.719c3.237-0.67,6.488-1.006,9.756-1.006
		c6.416,0,12.133,1.518,17.15,4.55c5.016,3.034,8.969,7.409,11.856,13.125c2.887,5.718,4.331,12.63,4.331,20.737
		c0,8.05-1.794,15.182-5.382,21.394c-3.587,6.213-8.618,11.056-15.094,14.525c-6.475,3.47-14.087,5.206-22.837,5.206
		c-7.875,0-14.861-1.415-20.956-4.243c-6.097-2.829-11.449-6.694-16.057-11.594l11.725-11.025c3.383,3.733,7.102,6.549,11.156,8.443
		c4.054,1.896,8.502,2.844,13.344,2.844c7.351,0,13.139-2.23,17.369-6.693c4.229-4.463,6.344-10.776,6.344-18.943
		c0-5.95-0.861-10.66-2.581-14.132c-1.722-3.47-4.069-5.964-7.044-7.481c-2.975-1.516-6.33-2.274-10.062-2.274
		c-3.034,0-5.878,0.321-8.531,0.962c-2.655,0.643-5.586,1.663-8.794,3.062h-14.438v-62.037H2551.705z"/>
	<path d="M2720.14,1799.055l16.537,6.562l-30.8,73.588h62.913v15.225h-83.388v-13.649L2720.14,1799.055z M2754.439,1846.917v75.338
		h-18.812l-0.175-40.25l2.537-35.088H2754.439z"/>
	<path d="M2931.887,1799.055c7.991,0,14.875,1.4,20.65,4.2c5.774,2.8,10.207,6.505,13.3,11.112
		c3.091,4.609,4.638,9.684,4.638,15.226c0,4.958-1.051,9.393-3.15,13.3c-2.1,3.908-4.959,7.146-8.575,9.712
		c-3.617,2.568-7.7,4.375-12.25,5.426c5.075,0.524,9.713,1.925,13.913,4.199c4.199,2.275,7.568,5.513,10.105,9.713
		c2.538,4.2,3.807,9.48,3.807,15.838c0,6.884-1.794,13.111-5.381,18.681c-3.588,5.571-8.663,9.99-15.226,13.257
		c-6.562,3.266-14.277,4.899-23.144,4.899c-7.584,0-14.803-1.399-21.656-4.2c-6.855-2.8-12.674-7.028-17.456-12.688l11.987-10.5
		c3.441,4.025,7.466,7,12.075,8.926c4.607,1.925,9.332,2.887,14.175,2.887c7.466,0,13.388-1.938,17.763-5.818
		c4.375-3.879,6.562-9.26,6.562-16.144c0-5.25-0.978-9.406-2.932-12.469c-1.955-3.062-4.681-5.264-8.181-6.606
		c-3.5-1.341-7.556-2.013-12.163-2.013h-10.412l2.274-14.438h7.351c3.791,0,7.291-0.685,10.5-2.056
		c3.207-1.37,5.788-3.485,7.743-6.344c1.954-2.857,2.932-6.417,2.932-10.676c0-5.891-1.999-10.412-5.994-13.562
		c-3.996-3.149-8.939-4.725-14.831-4.725c-5.018,0-9.493,0.919-13.431,2.756c-3.938,1.838-7.803,4.537-11.594,8.094l-10.413-11.112
		c5.308-5.075,11.054-8.822,17.237-11.243C2918.294,1800.267,2924.887,1799.055,2931.887,1799.055z"/>
	<path d="M3142.233,1799.055c8.226,0,15.182,1.531,20.869,4.594s10.032,7.161,13.037,12.294c3.004,5.134,4.507,10.88,4.507,17.237
		c0,5.25-0.919,10.413-2.757,15.487c-1.837,5.075-4.783,10.399-8.837,15.969c-4.056,5.571-9.406,11.756-16.057,18.551
		c-6.649,6.796-14.787,14.568-24.412,23.318h54.862l-2.275,15.75h-75.074v-14.875c8.69-8.282,16.128-15.589,22.312-21.919
		c6.182-6.328,11.345-11.899,15.487-16.712c4.141-4.812,7.407-9.158,9.8-13.038c2.392-3.879,4.098-7.524,5.119-10.938
		c1.02-3.412,1.531-6.868,1.531-10.368c0-6.066-1.722-10.851-5.163-14.351c-3.442-3.5-8.225-5.25-14.35-5.25
		c-5.484,0-10.034,0.993-13.65,2.976c-3.617,1.983-7.205,5.192-10.763,9.625l-12.774-9.713c4.725-6.008,10.149-10.616,16.274-13.825
		C3126.046,1800.66,3133.483,1799.055,3142.233,1799.055z"/>
	<path d="M3373.229,1801.505v117.25h-19.425v-97.125l-26.6,16.362l-8.4-13.737l37.101-22.75H3373.229z M3397.38,1906.854v15.4
		h-73.062v-15.4H3397.38z"/>
	<path d="M3567.127,1799.055c13.532,0,23.77,5.455,30.713,16.362c6.94,10.909,10.412,26.338,10.412,46.288
		c0,20.009-3.472,35.496-10.412,46.462c-6.943,10.968-17.181,16.45-30.713,16.45c-13.593,0-23.844-5.482-30.756-16.45
		c-6.913-10.966-10.369-26.453-10.369-46.462c0-19.95,3.456-35.379,10.369-46.288
		C3543.283,1804.51,3553.534,1799.055,3567.127,1799.055z M3567.127,1814.018c-6.942,0-12.28,3.689-16.013,11.068
		c-3.733,7.38-5.6,19.587-5.6,36.619c0,9.1,0.394,16.728,1.181,22.881c0.788,6.155,2.042,11.069,3.763,14.744
		c1.72,3.675,3.951,6.314,6.694,7.919c2.741,1.604,6.065,2.406,9.975,2.406c4.666,0,8.604-1.589,11.812-4.77
		c3.207-3.179,5.644-8.297,7.307-15.355c1.662-7.058,2.493-16.333,2.493-27.825c0-11.958-0.715-21.423-2.144-28.394
		c-1.43-6.971-3.719-11.929-6.869-14.875C3576.577,1815.491,3572.377,1814.018,3567.127,1814.018z M3583.402,1818.13l5.074,13.737
		l-36.05,73.588l-6.475-11.112L3583.402,1818.13z"/>
</g>
<g>
	<path d="M2137.399,2479.903c-3.384,2.159-7.438,3.909-12.162,5.25c-4.726,1.342-9.655,2.013-14.788,2.013
		c-10.733,0-18.886-2.785-24.456-8.356c-5.571-5.569-8.356-12.906-8.356-22.006v-50.138h-20.562v-14.263h20.562v-20.649
		l19.601-2.362v23.012h31.149l-2.188,14.263h-28.962v49.963c0,4.959,1.238,8.648,3.719,11.068c2.479,2.422,6.547,3.632,12.206,3.632
		c3.382,0,6.504-0.408,9.362-1.226c2.857-0.816,5.454-1.866,7.787-3.149L2137.399,2479.903z"/>
	<path d="M2347.396,2479.903c-3.384,2.159-7.438,3.909-12.162,5.25c-4.726,1.342-9.655,2.013-14.788,2.013
		c-10.733,0-18.886-2.785-24.456-8.356c-5.571-5.569-8.356-12.906-8.356-22.006v-50.138h-20.562v-14.263h20.562v-20.649
		l19.601-2.362v23.012h31.149l-2.188,14.263h-28.962v49.963c0,4.959,1.238,8.648,3.719,11.068c2.479,2.422,6.547,3.632,12.206,3.632
		c3.382,0,6.504-0.408,9.362-1.226c2.857-0.816,5.454-1.866,7.787-3.149L2347.396,2479.903z"/>
	<path d="M2557.393,2479.903c-3.384,2.159-7.438,3.909-12.162,5.25c-4.726,1.342-9.655,2.013-14.788,2.013
		c-10.733,0-18.886-2.785-24.456-8.356c-5.571-5.569-8.356-12.906-8.356-22.006v-50.138h-20.562v-14.263h20.562v-20.649
		l19.601-2.362v23.012h31.149l-2.188,14.263h-28.962v49.963c0,4.959,1.238,8.648,3.719,11.068c2.479,2.422,6.547,3.632,12.206,3.632
		c3.382,0,6.504-0.408,9.362-1.226c2.857-0.816,5.454-1.866,7.787-3.149L2557.393,2479.903z"/>
	<path d="M2767.39,2479.903c-3.384,2.159-7.438,3.909-12.162,5.25c-4.726,1.342-9.655,2.013-14.788,2.013
		c-10.733,0-18.886-2.785-24.456-8.356c-5.571-5.569-8.356-12.906-8.356-22.006v-50.138h-20.562v-14.263h20.562v-20.649
		l19.601-2.362v23.012h31.149l-2.188,14.263h-28.962v49.963c0,4.959,1.238,8.648,3.719,11.068c2.479,2.422,6.547,3.632,12.206,3.632
		c3.382,0,6.504-0.408,9.362-1.226c2.857-0.816,5.454-1.866,7.787-3.149L2767.39,2479.903z"/>
	<path d="M2900.212,2484.804v-92.4h16.888l1.487,11.988c3.85-4.726,8.399-8.312,13.649-10.763s10.646-3.675,16.188-3.675
		c8.633,0,15.094,2.406,19.382,7.219c4.287,4.812,6.431,11.564,6.431,20.256v67.375h-19.6v-57.662c0-5.366-0.321-9.683-0.963-12.95
		c-0.643-3.267-1.911-5.629-3.806-7.088c-1.896-1.457-4.712-2.188-8.444-2.188c-2.975,0-5.805,0.643-8.487,1.925
		c-2.684,1.284-5.134,2.962-7.35,5.031c-2.218,2.071-4.143,4.274-5.775,6.606v66.325H2900.212z"/>
	<path d="M3110.209,2484.804v-92.4h16.888l1.487,11.988c3.85-4.726,8.399-8.312,13.649-10.763s10.646-3.675,16.188-3.675
		c8.633,0,15.094,2.406,19.382,7.219c4.287,4.812,6.431,11.564,6.431,20.256v67.375h-19.6v-57.662c0-5.366-0.321-9.683-0.963-12.95
		c-0.643-3.267-1.911-5.629-3.806-7.088c-1.896-1.457-4.712-2.188-8.444-2.188c-2.975,0-5.805,0.643-8.487,1.925
		c-2.684,1.284-5.134,2.962-7.35,5.031c-2.218,2.071-4.143,4.274-5.775,6.606v66.325H3110.209z"/>
	<path d="M3320.205,2484.804v-92.4h16.888l1.487,11.988c3.85-4.726,8.399-8.312,13.649-10.763s10.646-3.675,16.188-3.675
		c8.633,0,15.094,2.406,19.382,7.219c4.287,4.812,6.431,11.564,6.431,20.256v67.375h-19.6v-57.662c0-5.366-0.321-9.683-0.963-12.95
		c-0.643-3.267-1.911-5.629-3.806-7.088c-1.896-1.457-4.712-2.188-8.444-2.188c-2.975,0-5.805,0.643-8.487,1.925
		c-2.684,1.284-5.134,2.962-7.35,5.031c-2.218,2.071-4.143,4.274-5.775,6.606v66.325H3320.205z"/>
	<path d="M3530.202,2484.804v-92.4h16.888l1.487,11.988c3.85-4.726,8.399-8.312,13.649-10.763s10.646-3.675,16.188-3.675
		c8.633,0,15.094,2.406,19.382,7.219c4.287,4.812,6.431,11.564,6.431,20.256v67.375h-19.6v-57.662c0-5.366-0.321-9.683-0.963-12.95
		c-0.643-3.267-1.911-5.629-3.806-7.088c-1.896-1.457-4.712-2.188-8.444-2.188c-2.975,0-5.805,0.643-8.487,1.925
		c-2.684,1.284-5.134,2.962-7.35,5.031c-2.218,2.071-4.143,4.274-5.775,6.606v66.325H3530.202z"/>
</g>
<g>
	<path d="M1504.667,113.213l-32.55,92.4h-22.925l-32.55-92.4h21l23.45,76.125l23.538-76.125H1504.667z"/>
	<path d="M1599.341,182.951c0,3.618,0.554,6.256,1.663,7.919c1.107,1.663,2.887,2.902,5.337,3.719l-4.375,13.3
		c-4.55-0.525-8.459-1.78-11.725-3.762c-3.268-1.982-5.746-4.988-7.438-9.013c-3.384,4.259-7.671,7.468-12.862,9.625
		c-5.193,2.157-10.734,3.237-16.625,3.237c-9.334,0-16.728-2.639-22.181-7.918c-5.455-5.279-8.182-12.207-8.182-20.781
		c0-9.741,3.792-17.238,11.375-22.488c7.583-5.25,18.433-7.875,32.55-7.875h13.212v-6.037c0-5.95-1.794-10.238-5.381-12.863
		s-8.649-3.938-15.181-3.938c-3.034,0-6.709,0.394-11.025,1.181c-4.318,0.788-8.837,1.999-13.562,3.631l-4.812-13.825
		c5.775-2.158,11.432-3.748,16.975-4.769c5.541-1.02,10.675-1.531,15.4-1.531c12.366,0,21.597,2.743,27.694,8.225
		c6.095,5.484,9.144,13.067,9.144,22.75V182.951z M1559.266,193.538c3.966,0,7.845-1.05,11.638-3.15
		c3.791-2.1,6.854-5.045,9.188-8.837v-20.388h-10.85c-9.217,0-15.809,1.531-19.775,4.594c-3.968,3.062-5.95,7.278-5.95,12.644
		c0,4.9,1.326,8.649,3.981,11.244C1550.151,192.241,1554.073,193.538,1559.266,193.538z"/>
	<path d="M1634.602,205.613v-14h13.562v-64.487h-13.562v-13.913h28.525l3.587,21.438c3.441-7.757,7.714-13.664,12.819-17.719
		c5.104-4.054,11.681-6.082,19.731-6.082c2.741,0,5.207,0.219,7.394,0.656s4.36,1.006,6.519,1.707l-5.862,16.8
		c-1.868-0.525-3.618-0.918-5.25-1.181c-1.634-0.263-3.443-0.394-5.425-0.394c-6.708,0-12.499,2.509-17.369,7.525
		c-4.871,5.018-8.706,12.134-11.506,21.35v34.3h18.638v14H1634.602z M1695.852,147.251v-22.75l2.45-11.288h14.875l-3.325,34.038
		H1695.852z"/>
	<path d="M1789.212,113.213v78.05h25.112v14.35h-72.362v-14.35h27.65v-63.7h-26.775v-14.35H1789.212z M1775.562,67.976
		c3.85,0,6.956,1.168,9.319,3.5c2.362,2.334,3.543,5.25,3.543,8.75s-1.181,6.446-3.543,8.838c-2.363,2.393-5.469,3.587-9.319,3.587
		c-3.734,0-6.796-1.195-9.188-3.587c-2.393-2.392-3.587-5.338-3.587-8.838s1.195-6.416,3.587-8.75
		C1768.766,69.144,1771.829,67.976,1775.562,67.976z"/>
	<path d="M1914.336,182.951c0,3.618,0.554,6.256,1.663,7.919c1.107,1.663,2.887,2.902,5.337,3.719l-4.375,13.3
		c-4.55-0.525-8.459-1.78-11.725-3.762c-3.268-1.982-5.746-4.988-7.438-9.013c-3.384,4.259-7.671,7.468-12.862,9.625
		c-5.193,2.157-10.734,3.237-16.625,3.237c-9.334,0-16.728-2.639-22.181-7.918c-5.455-5.279-8.182-12.207-8.182-20.781
		c0-9.741,3.792-17.238,11.375-22.488c7.583-5.25,18.433-7.875,32.55-7.875h13.212v-6.037c0-5.95-1.794-10.238-5.381-12.863
		s-8.649-3.938-15.181-3.938c-3.034,0-6.709,0.394-11.025,1.181c-4.318,0.788-8.837,1.999-13.562,3.631l-4.812-13.825
		c5.775-2.158,11.432-3.748,16.975-4.769c5.541-1.02,10.675-1.531,15.4-1.531c12.366,0,21.597,2.743,27.694,8.225
		c6.095,5.484,9.144,13.067,9.144,22.75V182.951z M1874.261,193.538c3.966,0,7.845-1.05,11.638-3.15
		c3.791-2.1,6.854-5.045,9.188-8.837v-20.388h-10.85c-9.217,0-15.809,1.531-19.775,4.594c-3.968,3.062-5.95,7.278-5.95,12.644
		c0,4.9,1.326,8.649,3.981,11.244C1865.146,192.241,1869.068,193.538,1874.261,193.538z"/>
	<path d="M1968.322,124.238c3.208-4.2,6.957-7.495,11.244-9.888c4.287-2.391,8.997-3.587,14.131-3.587
		c8.108,0,14.686,1.999,19.731,5.994c5.045,3.997,8.75,9.625,11.113,16.888c2.361,7.263,3.543,15.794,3.543,25.594
		c0,9.393-1.4,17.763-4.199,25.112c-2.801,7.35-6.928,13.125-12.381,17.325c-5.455,4.2-12.178,6.3-20.169,6.3
		c-10.325,0-18.434-3.82-24.325-11.462l-1.05,9.1h-17.237v-129.5l19.6-2.188V124.238z M1986.435,193.013
		c6.65,0,11.797-2.712,15.444-8.137c3.645-5.425,5.469-13.941,5.469-25.55c0-7.875-0.73-14.276-2.188-19.206
		c-1.459-4.929-3.604-8.531-6.432-10.806c-2.83-2.275-6.286-3.413-10.369-3.413c-4.375,0-8.225,1.312-11.55,3.938
		c-3.325,2.625-6.155,5.717-8.488,9.275v43.225c2.158,3.325,4.769,5.936,7.832,7.831
		C1979.216,192.066,1982.642,193.013,1986.435,193.013z"/>
	<path d="M2094.32,76.113v104.3c0,4.259,1.298,7.278,3.894,9.057c2.596,1.78,5.964,2.668,10.106,2.668
		c2.683,0,5.22-0.291,7.612-0.875c2.392-0.583,4.726-1.312,7-2.188l4.988,13.65c-2.743,1.4-6.111,2.625-10.106,3.675
		c-3.996,1.05-8.562,1.575-13.694,1.575c-9.274,0-16.493-2.61-21.656-7.831c-5.162-5.22-7.743-12.381-7.743-21.481V90.551h-27.913
		V76.113H2094.32z"/>
	<path d="M2174.993,165.713c0.408,6.3,1.75,11.449,4.025,15.444c2.275,3.996,5.264,6.927,8.969,8.793
		c3.704,1.868,7.772,2.8,12.206,2.8c4.55,0,8.75-0.7,12.601-2.1c3.85-1.4,7.729-3.382,11.637-5.95l8.488,11.725
		c-4.318,3.5-9.363,6.3-15.138,8.4c-5.775,2.1-11.959,3.15-18.55,3.15c-9.568,0-17.662-2.042-24.281-6.125
		c-6.622-4.082-11.653-9.77-15.094-17.062c-3.443-7.291-5.163-15.72-5.163-25.287c0-9.275,1.691-17.573,5.075-24.894
		c3.383-7.32,8.225-13.125,14.525-17.413c6.3-4.287,13.824-6.431,22.574-6.431c8.226,0,15.298,1.868,21.219,5.6
		c5.92,3.734,10.5,9.027,13.738,15.881c3.237,6.855,4.855,15.094,4.855,24.719c0,1.575-0.043,3.136-0.131,4.681
		c-0.088,1.546-0.19,2.902-0.307,4.069H2174.993z M2197.044,125.288c-6.125,0-11.187,2.188-15.182,6.562
		c-3.996,4.375-6.315,11.2-6.956,20.475h42.787c-0.175-8.691-2.027-15.37-5.556-20.038
		C2208.607,127.622,2203.576,125.288,2197.044,125.288z"/>
	<path d="M2409.315,76.113v104.3c0,4.259,1.298,7.278,3.894,9.057c2.596,1.78,5.964,2.668,10.106,2.668
		c2.683,0,5.22-0.291,7.612-0.875c2.392-0.583,4.726-1.312,7-2.188l4.988,13.65c-2.743,1.4-6.111,2.625-10.106,3.675
		c-3.996,1.05-8.562,1.575-13.694,1.575c-9.274,0-16.493-2.61-21.656-7.831c-5.162-5.22-7.743-12.381-7.743-21.481V90.551h-27.913
		V76.113H2409.315z"/>
	<path d="M2489.988,165.713c0.408,6.3,1.75,11.449,4.025,15.444c2.275,3.996,5.264,6.927,8.969,8.793
		c3.704,1.868,7.772,2.8,12.206,2.8c4.55,0,8.75-0.7,12.601-2.1c3.85-1.4,7.729-3.382,11.637-5.95l8.488,11.725
		c-4.318,3.5-9.363,6.3-15.138,8.4c-5.775,2.1-11.959,3.15-18.55,3.15c-9.568,0-17.662-2.042-24.281-6.125
		c-6.622-4.082-11.653-9.77-15.094-17.062c-3.443-7.291-5.163-15.72-5.163-25.287c0-9.275,1.691-17.573,5.075-24.894
		c3.383-7.32,8.225-13.125,14.525-17.413c6.3-4.287,13.824-6.431,22.574-6.431c8.226,0,15.298,1.868,21.219,5.6
		c5.92,3.734,10.5,9.027,13.738,15.881c3.237,6.855,4.855,15.094,4.855,24.719c0,1.575-0.043,3.136-0.131,4.681
		c-0.088,1.546-0.19,2.902-0.307,4.069H2489.988z M2512.039,125.288c-6.125,0-11.187,2.188-15.182,6.562
		c-3.996,4.375-6.315,11.2-6.956,20.475h42.787c-0.175-8.691-2.027-15.37-5.556-20.038
		C2523.603,127.622,2518.571,125.288,2512.039,125.288z"/>
	<path d="M2578.712,205.613v-92.4h16.888l1.487,11.987c3.85-4.725,8.399-8.312,13.649-10.762c5.25-2.45,10.646-3.675,16.188-3.675
		c8.633,0,15.094,2.406,19.382,7.219c4.287,4.812,6.431,11.565,6.431,20.256v67.375h-19.6v-57.663c0-5.366-0.321-9.682-0.963-12.95
		c-0.643-3.267-1.911-5.629-3.806-7.088c-1.896-1.457-4.712-2.188-8.444-2.188c-2.975,0-5.805,0.643-8.487,1.925
		c-2.684,1.284-5.134,2.961-7.35,5.031c-2.218,2.071-4.143,4.274-5.775,6.606v66.325H2578.712z"/>
	<path d="M2761.498,101.488l5.25,16.275c-3.675,1.225-7.715,2.042-12.118,2.45c-4.405,0.409-9.319,0.612-14.744,0.612
		c5.541,2.45,9.713,5.586,12.513,9.406c2.8,3.821,4.2,8.502,4.2,14.044c0,6.009-1.459,11.375-4.375,16.1
		c-2.918,4.725-7.088,8.43-12.513,11.112c-5.425,2.684-11.931,4.025-19.513,4.025c-2.684,0-5.003-0.116-6.956-0.35
		c-1.955-0.232-3.865-0.612-5.731-1.137c-1.168,0.817-2.144,1.911-2.932,3.281c-0.787,1.371-1.181,2.815-1.181,4.331
		c0,1.868,0.772,3.486,2.318,4.856c1.545,1.371,4.623,2.056,9.231,2.056h16.1c6.592,0,12.41,1.124,17.457,3.369
		c5.045,2.247,9.012,5.309,11.899,9.188c2.888,3.88,4.331,8.269,4.331,13.169c0,9.216-3.967,16.362-11.899,21.438
		c-7.934,5.075-19.368,7.612-34.3,7.612c-10.56,0-18.843-1.08-24.851-3.237c-6.009-2.159-10.237-5.368-12.688-9.625
		c-2.45-4.259-3.675-9.48-3.675-15.663h17.588c0,3.208,0.626,5.862,1.881,7.962c1.254,2.1,3.602,3.675,7.044,4.725
		c3.441,1.05,8.399,1.575,14.875,1.575c6.475,0,11.622-0.54,15.443-1.619c3.82-1.08,6.592-2.625,8.312-4.637
		c1.72-2.013,2.581-4.419,2.581-7.219c0-3.734-1.634-6.622-4.899-8.663c-3.268-2.041-7.643-3.062-13.125-3.062h-15.838
		c-8.75,0-15.152-1.779-19.206-5.337c-4.055-3.558-6.081-7.7-6.081-12.425c0-3.15,0.889-6.182,2.669-9.1
		c1.778-2.917,4.331-5.454,7.656-7.613c-5.543-2.916-9.582-6.46-12.119-10.631c-2.537-4.17-3.807-9.231-3.807-15.181
		c0-6.532,1.633-12.25,4.9-17.15c3.267-4.9,7.801-8.72,13.606-11.462c5.804-2.741,12.497-4.113,20.081-4.113
		c7.407,0,13.591-0.394,18.55-1.181c4.958-0.788,9.289-1.91,12.994-3.369C2754.133,104.843,2757.823,103.238,2761.498,101.488z
		 M2719.061,124.326c-6.242,0-10.938,1.765-14.087,5.294c-3.15,3.53-4.726,8.124-4.726,13.781c0,5.833,1.619,10.515,4.856,14.043
		c3.237,3.53,7.977,5.294,14.219,5.294c5.775,0,10.193-1.691,13.256-5.075c3.062-3.382,4.594-8.195,4.594-14.438
		c0-6.3-1.518-11.025-4.55-14.175C2729.59,125.901,2725.068,124.326,2719.061,124.326z"/>
	<path d="M2865.884,200.713c-3.384,2.159-7.438,3.909-12.162,5.25c-4.726,1.341-9.655,2.012-14.788,2.012
		c-10.733,0-18.886-2.785-24.456-8.356c-5.571-5.57-8.356-12.906-8.356-22.006v-50.138h-20.562v-14.262h20.562v-20.65l19.601-2.363
		v23.013h31.149l-2.188,14.262h-28.962v49.963c0,4.958,1.238,8.648,3.719,11.068c2.479,2.421,6.547,3.631,12.206,3.631
		c3.382,0,6.504-0.407,9.362-1.225c2.857-0.816,5.454-1.866,7.787-3.15L2865.884,200.713z"/>
	<path d="M2913.308,74.188v50.312c3.732-4.55,8.107-7.977,13.125-10.281c5.017-2.304,10.179-3.457,15.487-3.457
		c8.691,0,15.167,2.406,19.426,7.219c4.257,4.812,6.387,11.565,6.387,20.256v67.375h-19.6v-64.312c0-5.541-1.05-9.522-3.15-11.944
		c-2.1-2.42-5.483-3.631-10.149-3.631c-2.918,0-5.703,0.656-8.356,1.969c-2.655,1.312-5.105,3.019-7.35,5.119
		c-2.247,2.1-4.187,4.346-5.819,6.737v66.062h-19.6V76.288L2913.308,74.188z"/>
</g>
<g>
	<path style="stroke:#000000;stroke-width:21.748;stroke-linecap:round;stroke-linejoin:round;stroke-miterlimit:10;" d="
		M1105.52,1484.37c-13.189-13.193-31.403-21.364-51.49-21.364c-40.177,0-72.858,32.681-72.858,72.85
		c0,13.438,3.641,26.421,10.563,37.794c-0.513,0.271-0.987,0.618-1.405,1.036l-61.816,61.817c-2.291,2.291-2.281,6.007,0,8.288
		l8.292,8.292l8.289,8.289c2.284,2.284,5.997,2.291,8.289,0l61.813-61.817c0.425-0.425,0.771-0.899,1.039-1.404
		c11.376,6.921,24.359,10.562,37.796,10.562c40.169,0,72.85-32.681,72.85-72.858
		C1126.88,1515.774,1118.709,1497.563,1105.52,1484.37z"/>
	<g>
		<g>
			<path style="fill:#B3B3B3;" d="M1015.196,1599.556l-61.813,61.817c-2.291,2.291-6.004,2.284-8.289,0l-8.289-8.289l-8.292-8.292
				c-2.281-2.281-2.291-5.997,0-8.289l61.816-61.817c1.098-1.098,2.587-1.716,4.142-1.716s3.048,0.617,4.146,1.716l8.292,8.292
				l8.285,8.289C1017.486,1593.557,1017.486,1597.27,1015.196,1599.556z"/>
		</g>
		<path style="fill:#666666;" d="M1015.196,1599.556l-61.813,61.817c-2.291,2.291-6.004,2.284-8.289,0l-8.289-8.289l70.105-70.105
			l8.285,8.289C1017.486,1593.557,1017.486,1597.27,1015.196,1599.556z"/>
		<g>
			<g>
				<path style="fill:#B9E5FB;" d="M1121.019,1535.86c0,36.937-30.051,66.992-66.992,66.992c-13.603,0-26.706-4.06-37.887-11.739
					c-3.415-2.345-6.581-4.975-9.484-7.878c-2.9-2.904-5.537-6.073-7.882-9.492c-7.679-11.176-11.739-24.279-11.739-37.883
					c0-36.941,30.055-66.992,66.992-66.992c18.472,0,35.221,7.515,47.348,19.649
					C1113.508,1500.646,1121.019,1517.392,1121.019,1535.86L1121.019,1535.86z"/>
			</g>
		</g>
		<path style="fill:#6AA9FF;" d="M1121.019,1535.86c0,36.937-30.051,66.992-66.992,66.992c-13.603,0-26.706-4.06-37.887-11.739
			c-3.415-2.345-6.581-4.975-9.484-7.878l94.719-94.718C1113.508,1500.646,1121.019,1517.392,1121.019,1535.86L1121.019,1535.86z"/>
		<g>
			<g>
				<path style="fill:#B3B3B3;" d="M1105.52,1484.37c-13.189-13.193-31.403-21.364-51.49-21.364
					c-40.177,0-72.858,32.681-72.858,72.85c0,14.799,4.416,29.047,12.767,41.201c2.552,3.716,5.416,7.167,8.574,10.321
					c3.158,3.161,6.6,6.018,10.313,8.57c12.157,8.351,26.405,12.767,41.204,12.767c40.169,0,72.85-32.681,72.85-72.858
					C1126.88,1515.774,1118.709,1497.563,1105.52,1484.37L1105.52,1484.37z M1054.03,1596.991c-12.419,0-24.369-3.701-34.569-10.708
					c-3.118-2.141-6.006-4.545-8.656-7.198c-2.653-2.646-5.061-5.541-7.202-8.664c-7.007-10.196-10.708-22.146-10.708-34.565
					c0-33.705,27.425-61.126,61.134-61.126c16.854,0,32.138,6.858,43.201,17.929c11.071,11.067,17.925,26.351,17.925,43.197
					C1115.157,1569.565,1087.736,1596.991,1054.03,1596.991L1054.03,1596.991z"/>
			</g>
		</g>
		<path style="fill:#666666;" d="M1126.88,1535.856c0,40.177-32.681,72.858-72.85,72.858c-14.799,0-29.047-4.416-41.204-12.767
			c-3.712-2.552-7.155-5.408-10.313-8.57l8.292-8.292c2.65,2.653,5.537,5.057,8.656,7.198c10.199,7.007,22.15,10.707,34.569,10.707
			c33.705,0,61.127-27.425,61.127-61.134c0-16.847-6.854-32.13-17.925-43.197l8.288-8.289
			C1118.709,1497.563,1126.88,1515.774,1126.88,1535.856L1126.88,1535.856z"/>
	</g>
</g>
<line style="fill:none;stroke:#000000;stroke-width:12;stroke-miterlimit:10;stroke-dasharray:67.4189,38.0591;" x1="699.741" y1="435.543" x2="1295.942" y2="435.543"/>
<polyline style="fill:none;stroke:#000000;stroke-width:12;stroke-linecap:round;stroke-linejoin:round;stroke-miterlimit:10;" points="
	661.126,385.755 602.029,435.051 661.126,484.346 "/>
<line style="fill:none;stroke:#000000;stroke-width:12;stroke-miterlimit:10;stroke-dasharray:67.4189,38.0591;" x1="1640.704" y1="435.543" x2="3614.877" y2="435.543"/>
<polyline style="fill:none;stroke:#000000;stroke-width:12;stroke-linecap:round;stroke-linejoin:round;stroke-miterlimit:10;" points="
	1602.09,385.755 1542.993,435.051 1602.09,484.346 "/>
<polyline style="fill:none;stroke:#000000;stroke-width:12;stroke-linecap:round;stroke-linejoin:round;stroke-miterlimit:10;" points="
	1334.556,385.755 1393.653,435.051 1334.556,484.346 "/>
<polyline style="fill:none;stroke:#000000;stroke-width:12;stroke-linecap:round;stroke-linejoin:round;stroke-miterlimit:10;" points="
	3632.595,385.755 3691.692,435.051 3632.595,484.346 "/>
<polyline style="fill:none;stroke:#000000;stroke-width:12;stroke-miterlimit:10;" points="519.764,824.364 519.764,715.279 
	3765.66,715.279 3765.66,824.364 "/>
<polyline style="fill:none;stroke:#000000;stroke-width:12;stroke-miterlimit:10;" points="519.764,1176.488 519.764,1285.572 
	3765.66,1285.572 3765.66,1176.488 "/>
<line style="fill:none;stroke:#000000;stroke-width:12;stroke-miterlimit:10;" x1="519.764" y1="891.513" x2="519.764" y2="1111.892"/>
<line style="fill:none;stroke:#000000;stroke-width:12;stroke-miterlimit:10;" x1="1468.429" y1="891.513" x2="1468.429" y2="1111.892"/>
<line style="fill:none;stroke:#000000;stroke-width:12;stroke-miterlimit:10;" x1="1468.429" y1="1171.452" x2="1468.429" y2="1284.058"/>
<line style="fill:none;stroke:#000000;stroke-width:12;stroke-miterlimit:10;" x1="1468.429" y1="715.279" x2="1468.429" y2="827.885"/>
<polyline style="fill:none;stroke:#000000;stroke-width:12;stroke-miterlimit:10;" points="1992.829,2253.933 1992.829,2144.848 
	3655.449,2144.848 3655.449,2253.933 "/>
<polyline style="fill:none;stroke:#000000;stroke-width:12;stroke-miterlimit:10;" points="1992.829,2606.056 1992.829,2715.141 
	3655.449,2715.141 3655.449,2606.056 "/>
<line style="fill:none;stroke:#000000;stroke-width:12;stroke-miterlimit:10;" x1="1992.829" y1="2321.082" x2="1992.829" y2="2541.461"/>
<g>
	
		<line style="fill:none;stroke:#000000;stroke-width:12;stroke-miterlimit:10;" x1="2199.801" y1="2321.082" x2="2199.801" y2="2541.461"/>
	
		<line style="fill:none;stroke:#000000;stroke-width:12;stroke-miterlimit:10;" x1="2199.801" y1="2601.021" x2="2199.801" y2="2713.627"/>
	
		<line style="fill:none;stroke:#000000;stroke-width:12;stroke-miterlimit:10;" x1="2199.801" y1="2144.848" x2="2199.801" y2="2257.454"/>
</g>
<g>
	
		<line style="fill:none;stroke:#000000;stroke-width:12;stroke-miterlimit:10;" x1="2408.947" y1="2321.082" x2="2408.947" y2="2541.461"/>
	
		<line style="fill:none;stroke:#000000;stroke-width:12;stroke-miterlimit:10;" x1="2408.947" y1="2601.021" x2="2408.947" y2="2713.627"/>
	
		<line style="fill:none;stroke:#000000;stroke-width:12;stroke-miterlimit:10;" x1="2408.947" y1="2144.848" x2="2408.947" y2="2257.454"/>
</g>
<g>
	
		<line style="fill:none;stroke:#000000;stroke-width:12;stroke-miterlimit:10;" x1="2618.092" y1="2321.082" x2="2618.092" y2="2541.461"/>
	
		<line style="fill:none;stroke:#000000;stroke-width:12;stroke-miterlimit:10;" x1="2618.092" y1="2601.021" x2="2618.092" y2="2713.627"/>
	
		<line style="fill:none;stroke:#000000;stroke-width:12;stroke-miterlimit:10;" x1="2618.092" y1="2144.848" x2="2618.092" y2="2257.454"/>
</g>
<g>
	
		<line style="fill:none;stroke:#000000;stroke-width:12;stroke-miterlimit:10;" x1="2827.238" y1="2321.082" x2="2827.238" y2="2541.461"/>
	
		<line style="fill:none;stroke:#000000;stroke-width:12;stroke-miterlimit:10;" x1="2827.238" y1="2601.021" x2="2827.238" y2="2713.627"/>
	
		<line style="fill:none;stroke:#000000;stroke-width:12;stroke-miterlimit:10;" x1="2827.238" y1="2144.848" x2="2827.238" y2="2257.454"/>
</g>
<g>
	
		<line style="fill:none;stroke:#000000;stroke-width:12;stroke-miterlimit:10;" x1="3036.384" y1="2321.082" x2="3036.384" y2="2541.461"/>
	
		<line style="fill:none;stroke:#000000;stroke-width:12;stroke-miterlimit:10;" x1="3036.384" y1="2601.021" x2="3036.384" y2="2713.627"/>
	
		<line style="fill:none;stroke:#000000;stroke-width:12;stroke-miterlimit:10;" x1="3036.384" y1="2144.848" x2="3036.384" y2="2257.454"/>
</g>
<g>
	
		<line style="fill:none;stroke:#000000;stroke-width:12;stroke-miterlimit:10;" x1="3245.53" y1="2321.082" x2="3245.53" y2="2541.461"/>
	
		<line style="fill:none;stroke:#000000;stroke-width:12;stroke-miterlimit:10;" x1="3245.53" y1="2601.021" x2="3245.53" y2="2713.627"/>
	
		<line style="fill:none;stroke:#000000;stroke-width:12;stroke-miterlimit:10;" x1="3245.53" y1="2144.848" x2="3245.53" y2="2257.454"/>
</g>
<g>
	
		<line style="fill:none;stroke:#000000;stroke-width:12;stroke-miterlimit:10;" x1="3454.675" y1="2321.082" x2="3454.675" y2="2541.461"/>
	
		<line style="fill:none;stroke:#000000;stroke-width:12;stroke-miterlimit:10;" x1="3454.675" y1="2601.021" x2="3454.675" y2="2713.627"/>
	
		<line style="fill:none;stroke:#000000;stroke-width:12;stroke-miterlimit:10;" x1="3454.675" y1="2144.848" x2="3454.675" y2="2257.454"/>
</g>
<line style="fill:none;stroke:#000000;stroke-width:12;stroke-miterlimit:10;" x1="3765.66" y1="891.513" x2="3765.66" y2="1111.892"/>
<line style="fill:none;stroke:#000000;stroke-width:12;stroke-miterlimit:10;" x1="943.36" y1="1759.851" x2="943.36" y2="1868.591"/>
<line style="fill:none;stroke:#000000;stroke-width:12;stroke-miterlimit:10;" x1="943.36" y1="1890.339" x2="943.36" y2="1999.079"/>
<line style="fill:none;stroke:#000000;stroke-width:12;stroke-miterlimit:10;" x1="943.36" y1="2031.701" x2="943.36" y2="2140.441"/>
<line style="fill:none;stroke:#000000;stroke-width:12;stroke-miterlimit:10;" x1="943.36" y1="2162.189" x2="943.36" y2="2270.93"/>
<g>
	
		<line style="fill:none;stroke:#000000;stroke-width:12;stroke-miterlimit:10;" x1="1065.261" y1="2428.618" x2="1174.001" y2="2428.618"/>
	
		<line style="fill:none;stroke:#000000;stroke-width:12;stroke-miterlimit:10;" x1="1195.75" y1="2428.618" x2="1304.49" y2="2428.618"/>
	
		<line style="fill:none;stroke:#000000;stroke-width:12;stroke-miterlimit:10;" x1="1326.238" y1="2428.618" x2="1434.978" y2="2428.618"/>
	
		<line style="fill:none;stroke:#000000;stroke-width:12;stroke-miterlimit:10;" x1="1456.726" y1="2428.618" x2="1565.466" y2="2428.618"/>
	
		<line style="fill:none;stroke:#000000;stroke-width:12;stroke-miterlimit:10;" x1="1587.214" y1="2428.618" x2="1695.955" y2="2428.618"/>
	
		<line style="fill:none;stroke:#000000;stroke-width:12;stroke-miterlimit:10;" x1="1717.703" y1="2428.618" x2="1826.443" y2="2428.618"/>
</g>
<path style="fill:none;stroke:#000000;stroke-width:12;stroke-miterlimit:10;" d="M942.264,2292.813c0,0,0,22.468,0,39.866
	c0,44.463-7.733,95.938,57.995,95.938h37.696"/>
</svg>
