<?xml version="1.0" encoding="iso-8859-1"?>
<!-- Generator: Adobe Illustrator 29.6.0, SVG Export Plug-In . SVG Version: 9.03 Build 0)  -->
<svg version="1.1" id="Layer_1" xmlns="http://www.w3.org/2000/svg" xmlns:xlink="http://www.w3.org/1999/xlink" x="0px" y="0px"
	 viewBox="0 0 4000 2774" style="enable-background:new 0 0 4000 2774;" xml:space="preserve">
<rect x="103.634" y="1050.607" style="fill:#3B7982;" width="1799.258" height="710"/>
<g>
	<path style="fill:#FFFFFF;" d="M491.674,1449.475v-109.76h52.8c5.865,0,11.225,1.387,16.08,4.16c4.853,2.775,8.72,6.535,11.6,11.28
		c2.88,4.748,4.32,10.055,4.32,15.92v2.24c0,5.868-1.495,11.308-4.48,16.32c-2.987,5.015-6.935,9.015-11.84,12
		c-4.907,2.987-10.348,4.48-16.32,4.48h-28.8v43.36H491.674z M515.034,1388.515h23.36c2.88,0,5.412-0.665,7.6-2
		c2.185-1.333,3.92-3.172,5.2-5.52c1.28-2.345,1.92-5.013,1.92-8c0-4.265-1.387-7.92-4.16-10.96c-2.775-3.04-6.455-4.56-11.04-4.56
		h-22.88V1388.515z"/>
	<path style="fill:#FFFFFF;" d="M612.952,1451.075c-4.375,0-8.56-0.72-12.56-2.16s-7.28-3.84-9.84-7.2
		c-2.56-3.36-3.84-7.92-3.84-13.68c0-5.865,1.305-10.613,3.92-14.24c2.612-3.625,6.292-6.425,11.04-8.4
		c4.745-1.973,10.453-3.333,17.12-4.08c6.665-0.745,14.16-1.12,22.48-1.12v-7.2c0-4.692-1.28-8.025-3.84-10
		c-2.56-1.973-6.295-2.96-11.2-2.96c-4.16,0-7.815,0.935-10.96,2.8c-3.147,1.868-4.72,4.72-4.72,8.56v1.28h-20.96
		c-0.107-0.32-0.16-0.772-0.16-1.36c0-0.585,0-1.092,0-1.52c0-4.692,1.493-8.825,4.48-12.4c2.985-3.572,7.145-6.345,12.48-8.32
		c5.333-1.973,11.52-2.96,18.56-2.96h3.36c11.52,0,20.105,2.268,25.76,6.8c5.652,4.535,8.48,10.64,8.48,18.32v39.84
		c0,2.027,0.505,3.467,1.52,4.32c1.013,0.855,2.105,1.28,3.28,1.28c0.96,0,2.025-0.185,3.2-0.56c1.172-0.373,2.292-0.825,3.36-1.36
		v12.8c-1.387,1.067-3.227,1.92-5.52,2.56c-2.295,0.64-5.04,0.96-8.24,0.96c-3.84,0-7.04-0.615-9.6-1.84
		c-2.56-1.225-4.507-2.905-5.84-5.04c-1.335-2.133-2.16-4.585-2.48-7.36c-2.988,4.268-6.935,7.708-11.84,10.32
		C625.484,1449.768,619.672,1451.075,612.952,1451.075z M623.192,1436.675c2.985,0,5.84-0.693,8.56-2.08
		c2.72-1.385,4.985-3.44,6.8-6.16c1.812-2.72,2.72-6.105,2.72-10.16v-6.56c-6.828,0-12.615,0.427-17.36,1.28
		c-4.747,0.855-8.347,2.268-10.8,4.24c-2.455,1.975-3.68,4.828-3.68,8.56c0,3.948,1.2,6.748,3.6,8.4
		C615.432,1435.85,618.817,1436.675,623.192,1436.675z"/>
	<path style="fill:#FFFFFF;" d="M697.75,1479.235c-2.667,0-5.12-0.188-7.36-0.56c-2.24-0.375-4.268-0.935-6.08-1.68v-15.84
		c1.172,0.532,2.772,0.985,4.8,1.36c2.025,0.373,4,0.56,5.92,0.56c2.88,0,5.225-0.56,7.04-1.68c1.812-1.12,3.333-2.828,4.56-5.12
		c1.225-2.295,2.425-5.095,3.6-8.4l-31.52-80.16h23.36l18.88,53.6h1.12l17.92-53.6h21.6l-29.6,77.6
		c-2.348,6.292-5.068,12-8.16,17.12c-3.095,5.12-6.748,9.2-10.96,12.24C708.655,1477.715,703.615,1479.235,697.75,1479.235z"/>
	<path style="fill:#FFFFFF;" d="M773.909,1449.475v-81.76h16.32l2.88,12c2.772-4.265,6.052-7.6,9.84-10c3.785-2.4,8.4-3.6,13.84-3.6
		c5.333,0,10.025,1.015,14.08,3.04c4.053,2.027,7.252,5.387,9.6,10.08c2.56-4.265,5.865-7.52,9.92-9.76
		c4.053-2.24,8.853-3.36,14.4-3.36c5.225,0,9.84,1.067,13.84,3.2c4,2.135,7.12,5.175,9.36,9.12c2.24,3.948,3.36,8.748,3.36,14.4
		v56.64h-21.6v-51.68c0-5.333-1.12-9.225-3.36-11.68c-2.24-2.453-5.335-3.68-9.28-3.68c-2.56,0-4.88,0.667-6.96,2
		c-2.08,1.335-3.708,3.2-4.88,5.6c-1.175,2.4-1.76,5.147-1.76,8.24v51.2h-21.6v-51.68c0-5.333-1.12-9.225-3.36-11.68
		c-2.24-2.453-5.388-3.68-9.44-3.68c-2.56,0-4.855,0.667-6.88,2c-2.028,1.335-3.628,3.2-4.8,5.6c-1.175,2.4-1.76,5.147-1.76,8.24
		v51.2H773.909z"/>
	<path style="fill:#FFFFFF;" d="M948.787,1451.075c-7.68,0-14.48-1.575-20.4-4.72s-10.535-7.732-13.84-13.76
		c-3.308-6.025-4.96-13.36-4.96-22v-4c0-8.64,1.732-15.973,5.2-22c3.465-6.025,8.212-10.613,14.24-13.76
		c6.025-3.145,12.88-4.72,20.56-4.72h2.56c7.253,0,13.573,1.467,18.96,4.4c5.385,2.935,9.545,7.04,12.48,12.32
		c2.932,5.28,4.4,11.44,4.4,18.48v10.08h-55.36c0,5.12,0.64,9.6,1.92,13.44c1.28,3.84,3.2,6.775,5.76,8.8
		c2.56,2.027,5.92,3.04,10.08,3.04c3.413,0,6.4-0.665,8.96-2c2.56-1.333,4.585-3.333,6.08-6c1.493-2.665,2.24-5.92,2.24-9.76h20.32
		c0,6.295-1.6,11.868-4.8,16.72c-3.2,4.855-7.6,8.64-13.2,11.36s-12.08,4.08-19.44,4.08H948.787z M932.787,1400.195h33.76
		c0-6.72-1.468-11.705-4.4-14.96c-2.935-3.252-6.96-4.88-12.08-4.88c-4.8,0-8.828,1.68-12.08,5.04
		C934.732,1388.755,933,1393.69,932.787,1400.195z"/>
	<path style="fill:#FFFFFF;" d="M1006.385,1449.475v-81.76h16.16l2.56,12c3.2-4.585,7.065-8,11.6-10.24
		c4.532-2.24,9.68-3.36,15.44-3.36c5.545,0,10.425,1.067,14.64,3.2c4.213,2.135,7.465,5.175,9.76,9.12
		c2.292,3.948,3.44,8.748,3.44,14.4v56.64h-21.76v-52c0-5.225-1.28-9.065-3.84-11.52c-2.56-2.453-6.027-3.68-10.4-3.68
		c-2.775,0-5.388,0.72-7.84,2.16c-2.455,1.44-4.375,3.388-5.76,5.84c-1.387,2.455-2.08,5.228-2.08,8.32v50.88H1006.385z"/>
	<path style="fill:#FFFFFF;" d="M1129.263,1451.075c-4.587,0-8.695-0.64-12.32-1.92c-3.628-1.28-6.455-3.44-8.48-6.48
		c-2.027-3.04-3.04-7.065-3.04-12.08v-46.56h-8.96v-16.32h9.6l7.68-26.08h13.44v26.08h19.2v16.32h-19.2v41.76
		c0,4.695,0.96,7.68,2.88,8.96c1.92,1.28,4,1.92,6.24,1.92c1.172,0,2.8-0.24,4.88-0.72s3.76-0.985,5.04-1.52v13.44
		c-1.388,0.748-3.095,1.36-5.12,1.84c-2.027,0.48-4.08,0.825-6.16,1.04C1132.863,1450.968,1130.968,1451.075,1129.263,1451.075z"/>
	<path style="fill:#FFFFFF;" d="M1199.499,1449.475v-109.76h52.8c5.865,0,11.225,1.387,16.08,4.16
		c4.853,2.775,8.72,6.535,11.6,11.28c2.88,4.748,4.32,10.055,4.32,15.92v2.24c0,5.868-1.495,11.308-4.48,16.32
		c-2.987,5.015-6.935,9.015-11.84,12c-4.907,2.987-10.348,4.48-16.32,4.48h-28.8v43.36H1199.499z M1222.858,1388.515h23.36
		c2.88,0,5.412-0.665,7.6-2c2.185-1.333,3.92-3.172,5.2-5.52c1.28-2.345,1.92-5.013,1.92-8c0-4.265-1.387-7.92-4.16-10.96
		c-2.775-3.04-6.455-4.56-11.04-4.56h-22.88V1388.515z"/>
	<path style="fill:#FFFFFF;" d="M1320.776,1451.075c-4.375,0-8.56-0.72-12.56-2.16s-7.28-3.84-9.84-7.2
		c-2.56-3.36-3.84-7.92-3.84-13.68c0-5.865,1.305-10.613,3.92-14.24c2.612-3.625,6.292-6.425,11.04-8.4
		c4.745-1.973,10.453-3.333,17.12-4.08c6.665-0.745,14.16-1.12,22.48-1.12v-7.2c0-4.692-1.28-8.025-3.84-10
		c-2.56-1.973-6.295-2.96-11.2-2.96c-4.16,0-7.815,0.935-10.96,2.8c-3.147,1.868-4.72,4.72-4.72,8.56v1.28h-20.96
		c-0.107-0.32-0.16-0.772-0.16-1.36c0-0.585,0-1.092,0-1.52c0-4.692,1.493-8.825,4.48-12.4c2.985-3.572,7.145-6.345,12.48-8.32
		c5.333-1.973,11.52-2.96,18.56-2.96h3.36c11.52,0,20.105,2.268,25.76,6.8c5.652,4.535,8.48,10.64,8.48,18.32v39.84
		c0,2.027,0.505,3.467,1.52,4.32c1.013,0.855,2.105,1.28,3.28,1.28c0.96,0,2.025-0.185,3.2-0.56c1.172-0.373,2.292-0.825,3.36-1.36
		v12.8c-1.387,1.067-3.227,1.92-5.52,2.56c-2.295,0.64-5.04,0.96-8.24,0.96c-3.84,0-7.04-0.615-9.6-1.84
		c-2.56-1.225-4.507-2.905-5.84-5.04c-1.335-2.133-2.16-4.585-2.48-7.36c-2.988,4.268-6.935,7.708-11.84,10.32
		C1333.309,1449.768,1327.497,1451.075,1320.776,1451.075z M1331.017,1436.675c2.985,0,5.84-0.693,8.56-2.08
		c2.72-1.385,4.985-3.44,6.8-6.16c1.812-2.72,2.72-6.105,2.72-10.16v-6.56c-6.828,0-12.615,0.427-17.36,1.28
		c-4.747,0.855-8.347,2.268-10.8,4.24c-2.455,1.975-3.68,4.828-3.68,8.56c0,3.948,1.2,6.748,3.6,8.4
		C1323.256,1435.85,1326.642,1436.675,1331.017,1436.675z"/>
	<path style="fill:#FFFFFF;" d="M1396.614,1449.475v-81.76h16.32l2.719,12c0.213-0.425,0.773-1.333,1.68-2.72
		c0.906-1.385,2.266-2.933,4.08-4.64c1.812-1.705,4.08-3.172,6.801-4.4c2.721-1.225,6-1.84,9.84-1.84
		c5.545,0,10.053,1.067,13.52,3.2c3.465,2.135,6.053,5.12,7.76,8.96c1.705,3.84,2.561,8.32,2.561,13.44
		c0,1.175-0.055,2.455-0.16,3.84c-0.107,1.387-0.215,2.615-0.32,3.68h-18.238v-3.36c0-2.025-0.4-4.08-1.201-6.16
		c-0.799-2.08-2.08-3.812-3.84-5.2c-1.76-1.385-4.188-2.08-7.279-2.08c-2.24,0-4.16,0.48-5.76,1.44c-1.602,0.96-2.908,2.16-3.92,3.6
		c-1.016,1.44-1.762,3.04-2.24,4.8c-0.48,1.76-0.721,3.388-0.721,4.88v52.32H1396.614z"/>
	<path style="fill:#FFFFFF;" d="M1503.812,1451.075c-4.587,0-8.694-0.64-12.319-1.92c-3.628-1.28-6.455-3.44-8.48-6.48
		c-2.027-3.04-3.04-7.065-3.04-12.08v-46.56h-8.96v-16.32h9.601l7.68-26.08h13.44v26.08h19.199v16.32h-19.199v41.76
		c0,4.695,0.96,7.68,2.88,8.96c1.92,1.28,4,1.92,6.239,1.92c1.173,0,2.801-0.24,4.881-0.72c2.079-0.48,3.76-0.985,5.039-1.52v13.44
		c-1.387,0.748-3.095,1.36-5.119,1.84c-2.028,0.48-4.08,0.825-6.16,1.04C1507.413,1450.968,1505.518,1451.075,1503.812,1451.075z"/>
</g>
<rect x="2093.053" y="1050.607" style="fill:#0033AD;" width="1800" height="710"/>
<g>
	<path style="fill:#FFFFFF;" d="M2561.384,1381.742c-7.788,0-14.907-1.147-21.36-3.44c-6.455-2.292-11.627-5.893-15.52-10.8
		c-3.896-4.905-5.84-11.36-5.84-19.36c0-0.64,0-1.252,0-1.84c0-0.585,0.052-1.145,0.159-1.68h21.601
		c-0.107,0.535-0.16,1.015-0.16,1.439c0,0.428,0,0.908,0,1.44c0,3.415,0.825,6.348,2.479,8.8c1.653,2.455,4.105,4.32,7.36,5.6
		c3.253,1.28,7.12,1.921,11.6,1.921c5.013,0,9.12-0.506,12.32-1.521c3.2-1.013,5.601-2.585,7.2-4.72c1.6-2.133,2.4-4.745,2.4-7.84
		c0-3.306-1.147-5.945-3.44-7.92c-2.295-1.973-5.28-3.546-8.96-4.721c-3.68-1.172-7.735-2.265-12.16-3.279
		c-4.428-1.013-8.854-2.213-13.28-3.601c-4.427-1.385-8.507-3.252-12.239-5.6c-3.735-2.346-6.721-5.44-8.96-9.28
		c-2.24-3.84-3.36-8.745-3.36-14.72c0-7.146,1.945-13.065,5.84-17.76c3.893-4.693,9.065-8.213,15.521-10.561
		c6.452-2.345,13.465-3.52,21.04-3.52c7.572,0,14.452,1.095,20.64,3.279c6.185,2.188,11.145,5.601,14.88,10.24
		c3.732,4.64,5.6,10.64,5.6,18v2.08h-21.279v-1.92c0-2.88-0.775-5.385-2.32-7.521c-1.548-2.132-3.76-3.76-6.64-4.88
		s-6.4-1.68-10.561-1.68c-3.84,0-7.228,0.4-10.16,1.2c-2.935,0.8-5.199,2.08-6.8,3.84c-1.6,1.76-2.399,4.027-2.399,6.8
		c0,3.2,1.119,5.76,3.359,7.68c2.24,1.921,5.226,3.44,8.96,4.561c3.732,1.12,7.865,2.188,12.4,3.2
		c4.532,1.015,9.013,2.188,13.439,3.52c4.426,1.335,8.506,3.147,12.24,5.44c3.732,2.295,6.72,5.335,8.96,9.12
		c2.24,3.787,3.36,8.614,3.36,14.479c0,8.535-2.027,15.388-6.08,20.561c-4.055,5.175-9.521,8.96-16.4,11.359
		C2577.943,1380.542,2570.129,1381.742,2561.384,1381.742z"/>
	<path style="fill:#FFFFFF;" d="M2653.062,1381.742c-4.588,0-8.695-0.641-12.32-1.92c-3.628-1.28-6.455-3.44-8.48-6.48
		c-2.027-3.04-3.039-7.065-3.039-12.08v-46.56h-8.961v-16.32h9.601l7.68-26.08h13.44v26.08h19.2v16.32h-19.2v41.76
		c0,4.695,0.96,7.68,2.88,8.96s4,1.92,6.24,1.92c1.172,0,2.8-0.24,4.88-0.72c2.08-0.48,3.76-0.985,5.04-1.521v13.44
		c-1.388,0.747-3.096,1.359-5.12,1.84c-2.027,0.48-4.08,0.825-6.16,1.04C2656.662,1381.635,2654.768,1381.742,2653.062,1381.742z"/>
	<path style="fill:#FFFFFF;" d="M2708.899,1381.742c-4.375,0-8.56-0.721-12.56-2.16c-4-1.44-7.28-3.84-9.84-7.2
		c-2.561-3.36-3.84-7.92-3.84-13.68c0-5.865,1.305-10.613,3.92-14.24c2.612-3.625,6.292-6.425,11.04-8.4
		c4.745-1.973,10.452-3.332,17.12-4.08c6.665-0.744,14.159-1.119,22.479-1.119v-7.2c0-4.692-1.28-8.025-3.84-10
		c-2.56-1.973-6.295-2.96-11.2-2.96c-4.16,0-7.814,0.935-10.96,2.8c-3.147,1.867-4.72,4.72-4.72,8.56v1.28h-20.96
		c-0.107-0.32-0.16-0.772-0.16-1.36c0-0.585,0-1.092,0-1.52c0-4.692,1.492-8.825,4.479-12.4c2.985-3.572,7.146-6.345,12.48-8.319
		c5.332-1.973,11.52-2.96,18.56-2.96h3.36c11.521,0,20.105,2.268,25.76,6.8c5.652,4.535,8.48,10.64,8.48,18.319v39.841
		c0,2.027,0.505,3.467,1.52,4.319c1.013,0.855,2.105,1.28,3.28,1.28c0.96,0,2.025-0.185,3.2-0.56
		c1.172-0.373,2.292-0.825,3.359-1.36v12.8c-1.387,1.067-3.227,1.92-5.52,2.561c-2.295,0.64-5.04,0.96-8.24,0.96
		c-3.84,0-7.04-0.615-9.6-1.841c-2.561-1.225-4.508-2.904-5.84-5.039c-1.335-2.133-2.16-4.586-2.48-7.36
		c-2.987,4.268-6.935,7.707-11.84,10.32C2721.433,1380.435,2715.62,1381.742,2708.899,1381.742z M2719.14,1367.342
		c2.985,0,5.84-0.692,8.561-2.08c2.72-1.385,4.984-3.439,6.8-6.16c1.812-2.72,2.72-6.104,2.72-10.16v-6.56
		c-6.827,0-12.615,0.428-17.36,1.28c-4.747,0.854-8.347,2.268-10.8,4.239c-2.455,1.976-3.68,4.828-3.68,8.561
		c0,3.947,1.2,6.747,3.6,8.4C2711.38,1366.517,2714.765,1367.342,2719.14,1367.342z"/>
	<path style="fill:#FFFFFF;" d="M2784.737,1380.142v-115.2h21.92v72.801l31.36-39.36h25.44l-31.36,37.44l32.64,44.319h-26.08
		l-21.76-29.439l-10.24,10.399v19.04H2784.737z"/>
	<path style="fill:#FFFFFF;" d="M2877.217,1281.901v-16.96h22.561v16.96H2877.217z M2877.537,1380.142v-81.76h21.92v81.76H2877.537z
		"/>
	<path style="fill:#FFFFFF;" d="M2922.016,1380.142v-81.76h16.16l2.56,12c3.2-4.585,7.065-8,11.601-10.24
		c4.532-2.24,9.68-3.359,15.439-3.359c5.545,0,10.425,1.067,14.64,3.199c4.213,2.136,7.466,5.176,9.761,9.12
		c2.292,3.948,3.439,8.748,3.439,14.4v56.64h-21.76v-52c0-5.225-1.28-9.064-3.84-11.52c-2.561-2.453-6.027-3.681-10.4-3.681
		c-2.774,0-5.388,0.721-7.84,2.16c-2.455,1.44-4.375,3.388-5.76,5.84c-1.388,2.455-2.08,5.228-2.08,8.32v50.88H2922.016z"/>
	<path style="fill:#FFFFFF;" d="M3031.133,1410.222c-3.734,0-7.12-0.88-10.16-2.64s-5.494-4.135-7.359-7.12
		c-1.868-2.987-2.8-6.24-2.8-9.76c0-3.948,1.064-7.601,3.199-10.96c2.133-3.36,5.065-5.893,8.801-7.601
		c-2.348-1.492-4.188-3.439-5.521-5.84c-1.335-2.4-2-4.933-2-7.6c0-3.945,1.28-7.333,3.84-10.16c2.561-2.825,5.812-4.88,9.761-6.16
		c-3.308-2.025-6.028-4.532-8.16-7.52c-2.136-2.985-3.2-6.665-3.2-11.04c0-4.585,1.252-8.96,3.76-13.12
		c2.505-4.16,6.293-7.521,11.36-10.08c5.064-2.561,11.492-3.84,19.279-3.84c3.2,0,6.186,0.159,8.961,0.479
		c2.772,0.32,5.225,0.855,7.359,1.601c4.16-2.24,7.226-4.693,9.2-7.36c1.973-2.665,3.065-5.28,3.28-7.84h17.12
		c0,3.627-0.695,6.88-2.08,9.76c-1.388,2.88-3.335,5.255-5.841,7.12c-2.507,1.867-5.52,3.228-9.039,4.08l-0.16,0.479
		c2.56,2.136,4.612,4.641,6.16,7.521c1.545,2.88,2.319,6.027,2.319,9.439c0,4.695-1.308,9.016-3.92,12.96
		c-2.615,3.948-6.295,7.12-11.04,9.521c-4.747,2.399-10.32,3.6-16.72,3.6h-12c-3.308,0-5.867,0.668-7.68,2
		c-1.815,1.335-2.721,3.12-2.721,5.36c0,2.027,0.825,3.735,2.48,5.12c1.652,1.388,4.292,2.08,7.92,2.08h28.32
		c7.465,0,13.332,2.188,17.6,6.56c4.265,4.375,6.4,9.76,6.4,16.16c0,4.479-1.12,8.612-3.36,12.4c-2.24,3.784-5.36,6.8-9.36,9.04
		c-4,2.239-8.614,3.359-13.84,3.359H3031.133z M3039.453,1396.622h27.68c2.88,0,5.36-0.936,7.44-2.8
		c2.08-1.868,3.12-4.136,3.12-6.801c0-2.455-0.88-4.534-2.641-6.239c-1.76-1.705-3.975-2.561-6.64-2.561h-28.96
		c-2.775,0-5.12,0.907-7.04,2.72s-2.88,3.945-2.88,6.4c0,2.452,0.96,4.612,2.88,6.48
		C3034.333,1395.687,3036.678,1396.622,3039.453,1396.622z M3053.533,1336.142c4.692,0,8.399-1.332,11.12-4
		c2.72-2.665,4.08-5.865,4.08-9.6c0-3.732-1.36-6.96-4.08-9.68c-2.721-2.721-6.428-4.08-11.12-4.08c-4.695,0-8.428,1.359-11.2,4.08
		c-2.775,2.72-4.16,5.947-4.16,9.68c0,3.734,1.385,6.935,4.16,9.6C3045.105,1334.81,3048.838,1336.142,3053.533,1336.142z"/>
	<path style="fill:#FFFFFF;" d="M3146.33,1380.142v-109.76h52.8c5.865,0,11.226,1.388,16.08,4.16
		c4.853,2.774,8.721,6.535,11.601,11.28c2.88,4.747,4.319,10.055,4.319,15.92v2.239c0,5.868-1.494,11.308-4.479,16.32
		c-2.987,5.015-6.935,9.015-11.84,12c-4.907,2.987-10.348,4.48-16.32,4.48h-28.8v43.359H3146.33z M3169.69,1319.182h23.36
		c2.88,0,5.412-0.665,7.6-2c2.185-1.332,3.92-3.172,5.2-5.52c1.279-2.346,1.92-5.013,1.92-8c0-4.266-1.388-7.92-4.16-10.96
		c-2.775-3.04-6.455-4.561-11.04-4.561h-22.88V1319.182z"/>
	<path style="fill:#FFFFFF;" d="M3267.608,1381.742c-4.375,0-8.561-0.721-12.561-2.16c-4-1.44-7.279-3.84-9.84-7.2
		c-2.56-3.36-3.84-7.92-3.84-13.68c0-5.865,1.305-10.613,3.92-14.24c2.612-3.625,6.293-6.425,11.04-8.4
		c4.745-1.973,10.453-3.332,17.12-4.08c6.665-0.744,14.16-1.119,22.48-1.119v-7.2c0-4.692-1.28-8.025-3.841-10
		c-2.56-1.973-6.295-2.96-11.199-2.96c-4.16,0-7.815,0.935-10.96,2.8c-3.147,1.867-4.721,4.72-4.721,8.56v1.28h-20.96
		c-0.107-0.32-0.16-0.772-0.16-1.36c0-0.585,0-1.092,0-1.52c0-4.692,1.493-8.825,4.48-12.4c2.985-3.572,7.145-6.345,12.479-8.319
		c5.333-1.973,11.521-2.96,18.561-2.96h3.36c11.52,0,20.104,2.268,25.76,6.8c5.652,4.535,8.479,10.64,8.479,18.319v39.841
		c0,2.027,0.505,3.467,1.521,4.319c1.013,0.855,2.104,1.28,3.28,1.28c0.96,0,2.024-0.185,3.199-0.56
		c1.173-0.373,2.293-0.825,3.36-1.36v12.8c-1.388,1.067-3.228,1.92-5.521,2.561c-2.295,0.64-5.039,0.96-8.239,0.96
		c-3.84,0-7.04-0.615-9.601-1.841c-2.56-1.225-4.507-2.904-5.84-5.039c-1.335-2.133-2.16-4.586-2.479-7.36
		c-2.988,4.268-6.936,7.707-11.841,10.32C3280.141,1380.435,3274.328,1381.742,3267.608,1381.742z M3277.849,1367.342
		c2.984,0,5.84-0.692,8.56-2.08c2.72-1.385,4.985-3.439,6.8-6.16c1.812-2.72,2.721-6.104,2.721-10.16v-6.56
		c-6.828,0-12.615,0.428-17.36,1.28c-4.747,0.854-8.348,2.268-10.8,4.239c-2.455,1.976-3.681,4.828-3.681,8.561
		c0,3.947,1.2,6.747,3.601,8.4C3270.088,1366.517,3273.474,1367.342,3277.849,1367.342z"/>
	<path style="fill:#FFFFFF;" d="M3343.446,1380.142v-81.76h16.32l2.72,12c0.212-0.425,0.772-1.332,1.68-2.72
		c0.905-1.386,2.266-2.933,4.08-4.641c1.812-1.705,4.08-3.172,6.8-4.399c2.721-1.226,6-1.84,9.84-1.84
		c5.545,0,10.053,1.067,13.52,3.199c3.465,2.136,6.053,5.12,7.76,8.96c1.705,3.841,2.561,8.32,2.561,13.44
		c0,1.175-0.055,2.455-0.16,3.84c-0.107,1.388-0.215,2.615-0.32,3.68h-18.238v-3.359c0-2.025-0.4-4.08-1.201-6.16
		c-0.799-2.08-2.08-3.812-3.84-5.2c-1.76-1.385-4.188-2.08-7.279-2.08c-2.24,0-4.16,0.48-5.761,1.44c-1.6,0.96-2.907,2.16-3.92,3.6
		c-1.015,1.44-1.76,3.04-2.239,4.8c-0.48,1.761-0.721,3.388-0.721,4.881v52.319H3343.446z"/>
	<path style="fill:#FFFFFF;" d="M3450.645,1381.742c-4.587,0-8.694-0.641-12.319-1.92c-3.628-1.28-6.455-3.44-8.48-6.48
		c-2.027-3.04-3.04-7.065-3.04-12.08v-46.56h-8.96v-16.32h9.601l7.68-26.08h13.44v26.08h19.199v16.32h-19.199v41.76
		c0,4.695,0.96,7.68,2.88,8.96s4,1.92,6.239,1.92c1.173,0,2.801-0.24,4.881-0.72c2.079-0.48,3.76-0.985,5.039-1.521v13.44
		c-1.387,0.747-3.095,1.359-5.119,1.84c-2.028,0.48-4.08,0.825-6.16,1.04C3454.245,1381.635,3452.35,1381.742,3450.645,1381.742z"/>
	<path style="fill:#FFFFFF;" d="M2741.537,1556.981c-4.161-5.681-7.32-11.921-9.48-18.72c-2.159-6.799-3.239-13.92-3.239-21.36
		c0-7.839,1.099-15.339,3.3-22.5c2.199-7.158,5.319-13.979,9.36-20.46c4.038-6.479,8.819-12.519,14.34-18.119h7.8
		c-4.4,5.84-8.34,12.141-11.82,18.899c-3.479,6.762-6.2,13.8-8.16,21.12c-1.961,7.32-2.939,14.741-2.939,22.26
		c0,7.041,0.799,13.92,2.399,20.641c1.6,6.72,3.679,12.799,6.24,18.239H2741.537z"/>
	<path style="fill:#FFFFFF;" d="M2791.457,1539.342c-4.8,0-9.101-0.941-12.899-2.82c-3.801-1.878-6.821-4.62-9.061-8.22
		c-2.24-3.6-3.359-8.079-3.359-13.439c0-5.28,0.659-10.3,1.979-15.061c1.32-4.759,3.36-8.939,6.12-12.54
		c2.76-3.6,6.279-6.438,10.56-8.52c4.279-2.08,9.34-3.12,15.181-3.12h1.2c4.8,0,9.099,0.941,12.899,2.819
		c3.799,1.881,6.819,4.62,9.061,8.221c2.238,3.6,3.359,8.081,3.359,13.439c0,5.28-0.66,10.302-1.979,15.061
		c-1.32,4.761-3.36,8.939-6.12,12.54c-2.76,3.6-6.261,6.44-10.5,8.52c-4.241,2.079-9.321,3.12-15.24,3.12H2791.457z
		 M2793.617,1528.901c3.039,0,5.76-0.639,8.16-1.92c2.4-1.278,4.398-3.139,6-5.58c1.6-2.438,2.64-5.298,3.12-8.579
		c0.399-2.641,0.72-5.06,0.96-7.261c0.24-2.199,0.359-3.979,0.359-5.34c0-4.398-1.121-7.859-3.359-10.38
		c-2.241-2.52-5.521-3.78-9.84-3.78c-3.042,0-5.761,0.642-8.16,1.92c-2.4,1.281-4.38,3.12-5.94,5.521
		c-1.56,2.399-2.621,5.28-3.18,8.64c-0.401,2.641-0.72,5.061-0.96,7.26c-0.24,2.202-0.36,3.981-0.36,5.341
		c0,4.4,1.141,7.859,3.42,10.38C2786.117,1527.642,2789.376,1528.901,2793.617,1528.901z"/>
	<path style="fill:#FFFFFF;" d="M2834.057,1559.862l11.641-83.04h11.04l0.359,8.04c2.479-2.8,5.319-5.04,8.521-6.721
		c3.198-1.68,6.879-2.52,11.04-2.52c6.078,0,11.118,1.881,15.119,5.64c4,3.762,6,9.72,6,17.88c0,4.641-0.561,9.321-1.68,14.04
		c-1.121,4.722-2.861,9.061-5.22,13.021c-2.36,3.96-5.421,7.14-9.18,9.54c-3.762,2.399-8.28,3.6-13.561,3.6
		c-4.241,0-7.602-0.86-10.08-2.58c-2.48-1.72-4.4-3.738-5.76-6.06l-4.08,29.16H2834.057z M2865.856,1528.901
		c3.12,0,5.8-0.639,8.04-1.92c2.239-1.278,4.06-3.139,5.46-5.58c1.399-2.438,2.341-5.298,2.82-8.579
		c0.399-2.641,0.72-5.06,0.96-7.261c0.24-2.199,0.36-3.979,0.36-5.34c0-4.398-0.921-7.818-2.76-10.26
		c-1.842-2.439-4.761-3.66-8.761-3.66c-2.801,0-5.321,0.701-7.56,2.1c-2.241,1.401-4.101,3.36-5.58,5.881
		c-1.481,2.52-2.501,5.501-3.061,8.939c-0.4,2.802-0.72,5.22-0.96,7.26c-0.239,2.04-0.359,3.741-0.359,5.101
		c0,2.88,0.399,5.321,1.2,7.319c0.799,2.001,2.04,3.501,3.72,4.5C2861.057,1528.403,2863.217,1528.901,2865.856,1528.901z"/>
	<path style="fill:#FFFFFF;" d="M2924.655,1539.342c-4.4,0-7.94-0.881-10.62-2.64c-2.681-1.759-4.02-4.84-4.02-9.24
		c0-1.039,0.159-2.88,0.479-5.521c0.319-2.64,0.739-5.819,1.261-9.54c0.52-3.72,1.08-7.739,1.68-12.06s1.219-8.68,1.86-13.08h-6.721
		l1.44-10.439h6.72l7.44-19.561h10.439l-3.72,19.561h14.28l-1.44,10.439h-14.28c-0.96,6.401-1.82,12.201-2.579,17.4
		c-0.762,5.201-1.361,9.461-1.801,12.779c-0.44,3.321-0.659,5.382-0.659,6.181c0,2.399,0.618,3.92,1.859,4.56
		c1.239,0.642,2.58,0.96,4.021,0.96c0.879,0,2.118-0.198,3.72-0.6c1.6-0.399,2.919-0.799,3.96-1.2l-1.32,9.84
		c-0.96,0.401-2.141,0.78-3.54,1.141c-1.4,0.359-2.84,0.618-4.319,0.779C2927.314,1539.261,2925.935,1539.342,2924.655,1539.342z"/>
	<path style="fill:#FFFFFF;" d="M2949.014,1538.142l8.641-61.319h14.159l-8.64,61.319H2949.014z M2959.214,1463.742l1.68-12h14.521
		l-1.681,12H2959.214z"/>
	<path style="fill:#FFFFFF;" d="M3007.572,1539.342c-4.8,0-9.101-0.941-12.899-2.82c-3.801-1.878-6.821-4.62-9.061-8.22
		c-2.24-3.6-3.359-8.079-3.359-13.439c0-5.28,0.659-10.3,1.979-15.061c1.32-4.759,3.36-8.939,6.12-12.54
		c2.76-3.6,6.279-6.438,10.56-8.52c4.279-2.08,9.34-3.12,15.181-3.12h1.2c4.8,0,9.099,0.941,12.899,2.819
		c3.799,1.881,6.819,4.62,9.061,8.221c2.238,3.6,3.359,8.081,3.359,13.439c0,5.28-0.66,10.302-1.979,15.061
		c-1.32,4.761-3.36,8.939-6.12,12.54c-2.76,3.6-6.261,6.44-10.5,8.52c-4.241,2.079-9.321,3.12-15.24,3.12H3007.572z
		 M3009.732,1528.901c3.039,0,5.76-0.639,8.16-1.92c2.4-1.278,4.398-3.139,6-5.58c1.6-2.438,2.64-5.298,3.12-8.579
		c0.399-2.641,0.72-5.06,0.96-7.261c0.24-2.199,0.359-3.979,0.359-5.34c0-4.398-1.121-7.859-3.359-10.38
		c-2.241-2.52-5.521-3.78-9.84-3.78c-3.042,0-5.761,0.642-8.16,1.92c-2.4,1.281-4.38,3.12-5.94,5.521
		c-1.56,2.399-2.621,5.28-3.18,8.64c-0.401,2.641-0.72,5.061-0.96,7.26c-0.24,2.202-0.36,3.981-0.36,5.341
		c0,4.4,1.141,7.859,3.42,10.38C3002.232,1527.642,3005.491,1528.901,3009.732,1528.901z"/>
	<path style="fill:#FFFFFF;" d="M3052.452,1538.142l8.641-61.319h10.56l0.24,9c1.92-2.16,3.999-4,6.24-5.521
		c2.238-1.519,4.659-2.68,7.26-3.479c2.599-0.799,5.299-1.2,8.1-1.2c5.439,0,9.96,1.341,13.561,4.02
		c3.6,2.682,5.399,6.861,5.399,12.54c0,0.48-0.041,1.2-0.119,2.16c-0.081,0.96-0.24,2.36-0.48,4.2c-0.24,1.841-0.6,4.421-1.08,7.74
		c-0.479,3.32-1.08,7.56-1.8,12.72s-1.641,11.54-2.76,19.14h-14.16c1.039-7.119,1.899-13.08,2.58-17.88
		c0.679-4.8,1.219-8.7,1.62-11.7c0.399-3,0.72-5.319,0.96-6.96c0.239-1.639,0.399-2.839,0.479-3.6c0.079-0.76,0.12-1.339,0.12-1.74
		c0-3.279-0.9-5.76-2.7-7.439c-1.8-1.681-4.181-2.521-7.14-2.521c-2.48,0-4.881,0.66-7.2,1.98c-2.321,1.319-4.301,3.08-5.939,5.279
		c-1.641,2.201-2.661,4.701-3.061,7.5l-5.16,37.08H3052.452z"/>
	<path style="fill:#FFFFFF;" d="M3144.73,1539.342c-4.241,0-7.92-0.9-11.04-2.7s-5.52-4.479-7.2-8.04
		c-1.68-3.559-2.52-7.979-2.52-13.26c0-6,0.72-11.419,2.16-16.26c1.439-4.84,3.459-9.019,6.06-12.54
		c2.599-3.52,5.659-6.22,9.18-8.101c3.52-1.878,7.359-2.819,11.521-2.819c3.999,0,7.459,0.821,10.38,2.46
		c2.919,1.641,5.14,3.78,6.66,6.42h0.72l3.84-7.68h10.08c-0.479,3.281-1.02,6.98-1.62,11.1c-0.6,4.121-1.199,8.28-1.8,12.479
		c-0.6,4.2-1.16,8.142-1.68,11.82c-0.521,3.681-0.921,6.741-1.2,9.18c-0.281,2.441-0.42,3.941-0.42,4.5
		c0,1.041,0.279,1.801,0.84,2.28c0.559,0.48,1.279,0.72,2.16,0.72c0.879,0,1.839-0.18,2.88-0.539c1.039-0.36,1.84-0.739,2.4-1.141
		l-1.32,9.72c-1.041,0.562-2.441,1.101-4.2,1.62c-1.761,0.52-3.681,0.78-5.76,0.78c-2.48,0-4.5-0.381-6.061-1.14
		c-1.56-0.76-2.699-1.819-3.42-3.181c-0.72-1.359-1.16-2.919-1.319-4.68c-2.48,2.721-5.321,4.901-8.521,6.54
		C3152.33,1538.521,3148.729,1539.342,3144.73,1539.342z M3149.53,1528.901c2.8,0,5.299-0.679,7.5-2.039
		c2.199-1.359,4.039-3.301,5.521-5.82c1.479-2.521,2.499-5.5,3.06-8.94c0.559-3.679,0.919-6.339,1.08-7.979
		c0.159-1.639,0.24-3.019,0.24-4.141c0-4.239-0.921-7.578-2.76-10.02c-1.842-2.439-4.761-3.66-8.761-3.66
		c-3.12,0-5.819,0.801-8.1,2.4c-2.28,1.601-4.101,3.779-5.46,6.54c-1.361,2.76-2.321,5.819-2.88,9.18c-0.48,3.44-0.78,5.9-0.9,7.38
		c-0.12,1.481-0.18,2.741-0.18,3.78c0,4.241,0.96,7.521,2.88,9.84C3142.69,1527.743,3145.61,1528.901,3149.53,1528.901z"/>
	<path style="fill:#FFFFFF;" d="M3195.73,1538.142l12.12-86.399h14.16l-12.12,86.399H3195.73z"/>
	<path style="fill:#FFFFFF;" d="M3221.77,1556.981c4.32-5.76,8.179-11.98,11.58-18.659c3.399-6.679,6.1-13.66,8.1-20.94
		c1.999-7.278,3-14.68,3-22.2c0-7.038-0.761-13.999-2.279-20.88c-1.521-6.879-3.561-13.039-6.12-18.479h7.68
		c4.159,5.681,7.32,11.939,9.48,18.779s3.239,13.98,3.239,21.42c0,7.521-1.101,14.88-3.3,22.08c-2.201,7.2-5.301,14.081-9.3,20.641
		c-4.001,6.559-8.801,12.639-14.4,18.239H3221.77z"/>
</g>
<rect x="103.448" y="1911.593" style="fill:#3B7982;" width="699.258" height="710"/>
<rect x="1202.892" y="1911.593" style="fill:#3B7982;" width="700" height="710"/>
<g>
	<path style="fill:#FFFFFF;" d="M182.2,2246.087v-109.76H235c5.865,0,11.226,1.388,16.08,4.159
		c4.853,2.775,8.721,6.535,11.601,11.281c2.88,4.747,4.319,10.055,4.319,15.92v2.239c0,5.868-1.494,11.308-4.479,16.32
		c-2.987,5.015-6.935,9.015-11.84,12c-4.907,2.987-10.348,4.479-16.32,4.479h-28.8v43.36H182.2z M205.561,2185.127h23.36
		c2.88,0,5.412-0.665,7.6-2c2.185-1.332,3.92-3.172,5.2-5.52c1.279-2.346,1.92-5.014,1.92-8c0-4.266-1.388-7.92-4.16-10.961
		c-2.775-3.039-6.455-4.56-11.04-4.56h-22.88V2185.127z"/>
	<path style="fill:#FFFFFF;" d="M308.758,2247.688c-8.427,0-15.067-2.32-19.92-6.961c-4.854-4.64-7.279-11.439-7.279-20.399v-56
		h21.92v51.2c0,5.547,1.145,9.6,3.439,12.16c2.293,2.56,5.681,3.84,10.16,3.84c2.985,0,5.705-0.746,8.16-2.24
		c2.452-1.492,4.452-3.465,6-5.92c1.545-2.453,2.32-5.173,2.32-8.16v-50.88h21.76v63.36c0,2.027,0.505,3.467,1.52,4.319
		c1.013,0.854,2.105,1.28,3.28,1.28c1.065,0,2.16-0.186,3.28-0.561c1.12-0.372,2.212-0.824,3.28-1.359v12.8
		c-1.388,1.067-3.228,1.92-5.521,2.56c-2.295,0.641-5.04,0.961-8.24,0.961c-3.734,0-6.854-0.588-9.359-1.761
		c-2.508-1.173-4.4-2.8-5.681-4.88c-1.279-2.08-2.239-4.293-2.88-6.641c-2.667,4.16-6.348,7.416-11.04,9.761
		C319.264,2246.512,314.198,2247.688,308.758,2247.688z"/>
	<path style="fill:#FFFFFF;" d="M425.077,2247.688c-11.947,0-21.067-4.801-27.36-14.4l-7.52,12.8h-8v-115.2h21.92v43.04
		c2.24-3.093,5.332-5.732,9.28-7.92c3.944-2.185,8.64-3.28,14.08-3.28c5.864,0,11.199,1.36,16,4.08
		c4.8,2.721,8.64,6.961,11.52,12.721s4.32,13.175,4.32,22.24v3.52c0,9.707-1.548,17.707-4.641,24
		c-3.095,6.295-7.255,10.935-12.479,13.92C436.97,2246.191,431.262,2247.688,425.077,2247.688z M420.438,2233.287
		c3.092,0,5.812-0.745,8.159-2.24c2.346-1.492,4.213-3.812,5.601-6.96c1.385-3.146,2.08-7.173,2.08-12.08v-14.399
		c0-4.48-0.668-8.186-2-11.121c-1.335-2.932-3.147-5.172-5.44-6.719c-2.295-1.546-4.987-2.32-8.08-2.32
		c-2.987,0-5.76,0.774-8.319,2.32c-2.561,1.547-4.588,3.814-6.08,6.799c-1.495,2.988-2.24,6.721-2.24,11.201v14.239
		c0,4.907,0.72,8.935,2.16,12.08c1.439,3.147,3.412,5.468,5.92,6.96C414.702,2232.542,417.449,2233.287,420.438,2233.287z"/>
	<path style="fill:#FFFFFF;" d="M477.556,2246.087v-115.2h21.92v72.801l31.36-39.36h25.44l-31.36,37.44l32.64,44.319h-26.08
		l-21.76-29.44l-10.24,10.4v19.04H477.556z"/>
	<path style="fill:#FFFFFF;" d="M603.957,2247.688c-7.68,0-14.479-1.576-20.399-4.721s-10.535-7.732-13.84-13.76
		c-3.308-6.025-4.96-13.36-4.96-22v-4c0-8.641,1.732-15.973,5.199-22c3.466-6.025,8.213-10.613,14.24-13.76
		c6.025-3.146,12.88-4.721,20.561-4.721h2.56c7.253,0,13.572,1.468,18.96,4.4c5.385,2.936,9.545,7.04,12.48,12.32
		c2.932,5.279,4.399,11.439,4.399,18.479v10.08h-55.359c0,5.12,0.64,9.601,1.92,13.44c1.279,3.84,3.199,6.774,5.76,8.8
		c2.56,2.027,5.92,3.04,10.08,3.04c3.412,0,6.399-0.665,8.96-2c2.56-1.332,4.585-3.332,6.08-6c1.492-2.665,2.239-5.92,2.239-9.76
		h20.32c0,6.295-1.6,11.867-4.8,16.72c-3.2,4.854-7.6,8.64-13.2,11.36c-5.6,2.72-12.08,4.08-19.439,4.08H603.957z M587.957,2196.807
		h33.761c0-6.72-1.468-11.705-4.4-14.96c-2.935-3.253-6.96-4.88-12.08-4.88c-4.8,0-8.827,1.68-12.08,5.04
		C589.902,2185.367,588.17,2190.302,587.957,2196.807z"/>
	<path style="fill:#FFFFFF;" d="M671.155,2275.847c-2.668,0-5.12-0.188-7.36-0.56c-2.24-0.375-4.268-0.936-6.08-1.68v-15.84
		c1.173,0.531,2.772,0.984,4.8,1.359c2.025,0.373,4,0.561,5.92,0.561c2.881,0,5.226-0.561,7.04-1.681
		c1.812-1.12,3.333-2.827,4.561-5.12c1.225-2.295,2.425-5.095,3.6-8.4l-31.52-80.159h23.359l18.881,53.6h1.119l17.921-53.6h21.6
		l-29.6,77.6c-2.348,6.292-5.068,12-8.16,17.12c-3.096,5.12-6.748,9.2-10.96,12.24
		C682.06,2274.327,677.021,2275.847,671.155,2275.847z"/>
	<path style="fill:#FFFFFF;" d="M269.72,2406.087v-109.76h23.36v44.479h39.68v-44.479h23.36v109.76h-23.2v-46.72h-39.68v46.72
		H269.72z"/>
	<path style="fill:#FFFFFF;" d="M400.6,2407.688c-4.375,0-8.56-0.721-12.56-2.16c-4-1.44-7.28-3.84-9.84-7.2
		c-2.561-3.36-3.84-7.921-3.84-13.681c0-5.865,1.305-10.612,3.92-14.24c2.612-3.625,6.292-6.424,11.04-8.399
		c4.745-1.973,10.452-3.333,17.12-4.08c6.665-0.745,14.159-1.12,22.479-1.12v-7.199c0-4.693-1.28-8.025-3.84-10
		c-2.56-1.973-6.295-2.961-11.2-2.961c-4.16,0-7.814,0.936-10.96,2.801c-3.147,1.867-4.72,4.72-4.72,8.56v1.28h-20.96
		c-0.107-0.32-0.16-0.772-0.16-1.36c0-0.585,0-1.093,0-1.521c0-4.691,1.492-8.824,4.479-12.399c2.985-3.572,7.146-6.345,12.48-8.319
		c5.332-1.973,11.52-2.961,18.56-2.961h3.36c11.521,0,20.105,2.268,25.76,6.801c5.652,4.535,8.48,10.64,8.48,18.319v39.841
		c0,2.027,0.505,3.467,1.52,4.319c1.013,0.854,2.105,1.28,3.28,1.28c0.96,0,2.025-0.186,3.2-0.561
		c1.172-0.372,2.292-0.824,3.359-1.359v12.8c-1.387,1.067-3.227,1.92-5.52,2.56c-2.295,0.641-5.04,0.961-8.24,0.961
		c-3.84,0-7.04-0.615-9.6-1.841c-2.561-1.225-4.508-2.905-5.84-5.04c-1.335-2.133-2.16-4.585-2.48-7.359
		c-2.987,4.268-6.935,7.707-11.84,10.32C413.133,2406.379,407.32,2407.688,400.6,2407.688z M410.84,2393.287
		c2.985,0,5.84-0.693,8.561-2.08c2.72-1.385,4.984-3.439,6.8-6.16c1.812-2.72,2.72-6.105,2.72-10.16v-6.56
		c-6.827,0-12.615,0.427-17.36,1.28c-4.747,0.854-8.347,2.268-10.8,4.239c-2.455,1.976-3.68,4.827-3.68,8.56
		c0,3.948,1.2,6.748,3.6,8.4C403.08,2392.462,406.465,2393.287,410.84,2393.287z"/>
	<path style="fill:#FFFFFF;" d="M505.718,2407.688c-5.12,0-9.76-0.641-13.92-1.92c-4.16-1.281-7.76-3.014-10.8-5.201
		c-3.04-2.185-5.36-4.744-6.96-7.68c-1.601-2.932-2.4-6.105-2.4-9.52c0-0.641,0-1.173,0-1.6c0-0.426,0.053-1.014,0.16-1.761h18.56
		c-0.107,0.32-0.159,0.615-0.159,0.88c0,0.268,0,0.508,0,0.721c0,2.667,0.904,4.879,2.72,6.64c1.812,1.76,4.16,3.04,7.04,3.84
		s5.973,1.2,9.28,1.2c2.665,0,5.359-0.32,8.079-0.96c2.721-0.64,4.985-1.681,6.801-3.12c1.812-1.439,2.72-3.28,2.72-5.52
		c0-2.453-0.935-4.346-2.8-5.681c-1.868-1.333-4.375-2.399-7.521-3.2c-3.147-0.8-6.587-1.492-10.319-2.08
		c-3.735-0.584-7.495-1.332-11.28-2.24c-3.788-0.904-7.255-2.212-10.4-3.92c-3.147-1.705-5.654-4.024-7.52-6.959
		c-1.868-2.934-2.8-6.801-2.8-11.601c0-4.052,0.932-7.68,2.8-10.88c1.865-3.2,4.425-5.865,7.68-8c3.253-2.133,6.985-3.732,11.2-4.8
		c4.213-1.065,8.612-1.601,13.2-1.601h3.2c4.265,0,8.345,0.535,12.239,1.601c3.893,1.067,7.386,2.587,10.48,4.56
		c3.093,1.975,5.52,4.32,7.28,7.04c1.76,2.72,2.64,5.681,2.64,8.88c0,0.535-0.027,1.148-0.08,1.84
		c-0.055,0.695-0.135,1.148-0.24,1.36h-18.56v-1.28c0-1.172-0.295-2.32-0.88-3.439c-0.588-1.12-1.548-2.16-2.88-3.12
		c-1.336-0.96-3.04-1.732-5.12-2.32c-2.08-0.585-4.561-0.88-7.44-0.88c-2.56,0-4.854,0.24-6.88,0.721
		c-2.027,0.479-3.735,1.119-5.12,1.92c-1.388,0.799-2.4,1.734-3.04,2.799c-0.64,1.068-0.96,2.136-0.96,3.201
		c0,2.239,0.96,3.975,2.88,5.199c1.92,1.228,4.453,2.188,7.601,2.881c3.145,0.694,6.612,1.334,10.399,1.92
		c3.785,0.587,7.545,1.307,11.28,2.16c3.732,0.854,7.2,2.159,10.4,3.92c3.199,1.76,5.732,4.135,7.6,7.119
		c1.865,2.988,2.8,6.881,2.8,11.68c0,5.016-0.96,9.281-2.88,12.801s-4.588,6.32-8,8.4c-3.415,2.08-7.255,3.6-11.52,4.56
		c-4.268,0.96-8.748,1.44-13.44,1.44H505.718z"/>
	<path style="fill:#FFFFFF;" d="M564.277,2406.087v-115.2h21.92v43.84c2.985-3.945,6.532-6.932,10.64-8.959
		c4.105-2.025,8.665-3.041,13.681-3.041c5.439,0,10.212,1.068,14.319,3.2c4.105,2.136,7.333,5.2,9.681,9.2
		c2.345,4,3.52,8.775,3.52,14.32v56.64h-21.92v-52c0-5.226-1.28-9.065-3.84-11.521c-2.561-2.452-6.027-3.68-10.4-3.68
		c-2.774,0-5.388,0.721-7.84,2.16c-2.455,1.439-4.375,3.388-5.76,5.84c-1.388,2.455-2.08,5.228-2.08,8.32v50.88H564.277z"/>
</g>
<g>
	<path style="fill:#FFFFFF;" d="M1365.215,2247.688c-7.787,0-14.907-1.148-21.359-3.44c-6.455-2.292-11.628-5.893-15.521-10.8
		c-3.895-4.905-5.84-11.36-5.84-19.36c0-0.64,0-1.253,0-1.84c0-0.585,0.053-1.146,0.16-1.681h21.6
		c-0.107,0.535-0.16,1.016-0.16,1.44c0,0.428,0,0.907,0,1.44c0,3.414,0.825,6.348,2.48,8.8c1.652,2.455,4.104,4.319,7.36,5.6
		c3.252,1.28,7.119,1.921,11.6,1.921c5.013,0,9.12-0.506,12.32-1.521c3.199-1.013,5.6-2.585,7.199-4.72
		c1.601-2.133,2.4-4.746,2.4-7.84c0-3.306-1.147-5.945-3.439-7.92c-2.296-1.973-5.28-3.546-8.961-4.721
		c-3.68-1.172-7.734-2.266-12.159-3.279c-4.428-1.014-8.855-2.213-13.28-3.601c-4.428-1.386-8.508-3.253-12.24-5.601
		c-3.734-2.345-6.72-5.439-8.96-9.279s-3.36-8.745-3.36-14.721c0-7.145,1.945-13.064,5.841-17.76
		c3.893-4.692,9.064-8.213,15.52-10.56c6.452-2.345,13.465-3.521,21.04-3.521c7.572,0,14.452,1.096,20.64,3.28
		c6.186,2.188,11.146,5.601,14.881,10.24c3.732,4.64,5.6,10.64,5.6,18v2.08h-21.28v-1.921c0-2.879-0.774-5.385-2.319-7.52
		c-1.548-2.133-3.761-3.76-6.641-4.88s-6.399-1.68-10.56-1.68c-3.84,0-7.228,0.399-10.16,1.2c-2.936,0.8-5.2,2.08-6.8,3.84
		c-1.601,1.76-2.4,4.027-2.4,6.8c0,3.2,1.12,5.76,3.36,7.68c2.24,1.921,5.225,3.44,8.96,4.56c3.732,1.121,7.865,2.188,12.399,3.201
		c4.533,1.015,9.013,2.188,13.44,3.52c4.425,1.335,8.505,3.147,12.24,5.439c3.732,2.295,6.72,5.336,8.96,9.121
		c2.24,3.787,3.359,8.614,3.359,14.479c0,8.535-2.027,15.388-6.08,20.56c-4.055,5.176-9.52,8.961-16.399,11.36
		S1373.96,2247.688,1365.215,2247.688z"/>
	<path style="fill:#FFFFFF;" d="M1462.494,2247.688c-6.936,0-13.2-1.705-18.801-5.121c-5.6-3.412-10-8.132-13.199-14.16
		c-3.2-6.024-4.801-12.932-4.801-20.719v-4.961c0-5.865,0.985-11.225,2.96-16.08c1.973-4.852,4.665-9.092,8.08-12.72
		c3.413-3.625,7.413-6.399,12-8.319c4.585-1.92,9.493-2.881,14.721-2.881h3.04c7.145,0,13.359,1.416,18.64,4.24
		c5.28,2.828,9.332,6.775,12.16,11.84c2.825,5.068,4.24,11.016,4.24,17.84h-19.04c0-4.372-0.668-8-2-10.879
		c-1.335-2.881-3.228-5.065-5.681-6.561c-2.455-1.492-5.388-2.24-8.8-2.24c-4.907,0-9.015,1.68-12.32,5.04
		c-3.307,3.36-4.96,8.295-4.96,14.8v16.48c0,6.4,1.573,11.335,4.721,14.8c3.145,3.468,7.385,5.2,12.72,5.2
		c3.732,0,6.88-0.641,9.439-1.92c2.561-1.28,4.506-3.36,5.841-6.24c1.332-2.88,2-6.721,2-11.52h18.08
		c0,7.254-1.548,13.414-4.641,18.479c-3.095,5.067-7.359,8.935-12.8,11.601c-5.44,2.664-11.628,4-18.56,4H1462.494z"/>
	<path style="fill:#FFFFFF;" d="M1518.813,2246.087v-81.76h16.32l2.72,12c0.212-0.425,0.772-1.333,1.68-2.72
		c0.905-1.386,2.266-2.934,4.08-4.641c1.812-1.705,4.08-3.172,6.8-4.4c2.721-1.225,6-1.84,9.84-1.84
		c5.546,0,10.053,1.068,13.521,3.2c3.465,2.136,6.053,5.12,7.76,8.96c1.705,3.84,2.561,8.32,2.561,13.44
		c0,1.175-0.056,2.454-0.16,3.84c-0.107,1.388-0.215,2.614-0.32,3.68h-18.24v-3.36c0-2.024-0.399-4.08-1.199-6.159
		c-0.801-2.08-2.08-3.812-3.841-5.2c-1.76-1.385-4.188-2.08-7.279-2.08c-2.24,0-4.16,0.48-5.761,1.439
		c-1.6,0.961-2.907,2.16-3.92,3.601c-1.015,1.44-1.76,3.04-2.239,4.8c-0.48,1.76-0.721,3.388-0.721,4.881v52.319H1518.813z"/>
	<path style="fill:#FFFFFF;" d="M1598.812,2147.847v-16.96h22.56v16.96H1598.812z M1599.133,2246.087v-81.76h21.92v81.76H1599.133z"
		/>
	<path style="fill:#FFFFFF;" d="M1643.451,2275.047v-110.72h17.119l2.4,10.56c2.452-3.52,5.732-6.425,9.84-8.72
		c4.105-2.292,8.933-3.44,14.48-3.44c6.292,0,11.973,1.36,17.04,4.08c5.064,2.721,9.064,7.068,12,13.04
		c2.933,5.976,4.399,13.815,4.399,23.521v3.359c0,8.961-1.439,16.508-4.319,22.641c-2.881,6.135-6.775,10.72-11.681,13.76
		c-4.907,3.04-10.295,4.561-16.16,4.561c-5.654,0-10.399-1.068-14.239-3.201c-3.841-2.132-6.775-4.852-8.801-8.159v38.72H1643.451z
		 M1681.69,2233.127c3.093,0,5.84-0.8,8.24-2.4c2.4-1.6,4.293-3.893,5.68-6.88c1.386-2.985,2.08-6.665,2.08-11.04v-14.24
		c0-4.904-0.694-8.932-2.08-12.08c-1.387-3.145-3.279-5.492-5.68-7.039c-2.4-1.545-5.147-2.32-8.24-2.32
		c-2.88,0-5.575,0.748-8.08,2.24c-2.507,1.494-4.507,3.787-6,6.88c-1.495,3.095-2.239,7.147-2.239,12.159v14.4
		c0,4.375,0.72,8.08,2.159,11.12c1.44,3.04,3.413,5.335,5.921,6.88C1675.956,2232.354,1678.703,2233.127,1681.69,2233.127z"/>
	<path style="fill:#FFFFFF;" d="M1766.491,2247.688c-4.588,0-8.695-0.641-12.32-1.92c-3.628-1.281-6.455-3.44-8.48-6.48
		c-2.027-3.04-3.039-7.065-3.039-12.08v-46.561h-8.961v-16.319h9.601l7.68-26.08h13.44v26.08h19.2v16.319h-19.2v41.76
		c0,4.695,0.96,7.681,2.88,8.961c1.92,1.279,4,1.92,6.24,1.92c1.172,0,2.8-0.24,4.88-0.721c2.08-0.479,3.76-0.984,5.04-1.52v13.439
		c-1.388,0.748-3.096,1.36-5.12,1.841c-2.027,0.479-4.08,0.825-6.16,1.04C1770.091,2247.58,1768.196,2247.688,1766.491,2247.688z"/>
	<path style="fill:#FFFFFF;" d="M1369.534,2406.087v-109.76h23.36v44.479h39.68v-44.479h23.36v109.76h-23.2v-46.72h-39.68v46.72
		H1369.534z"/>
	<path style="fill:#FFFFFF;" d="M1500.414,2407.688c-4.375,0-8.56-0.721-12.56-2.16c-4-1.44-7.28-3.84-9.84-7.2
		c-2.561-3.36-3.84-7.921-3.84-13.681c0-5.865,1.305-10.612,3.92-14.24c2.612-3.625,6.292-6.424,11.04-8.399
		c4.745-1.973,10.452-3.333,17.12-4.08c6.665-0.745,14.159-1.12,22.479-1.12v-7.199c0-4.693-1.28-8.025-3.84-10
		c-2.56-1.973-6.295-2.961-11.2-2.961c-4.16,0-7.814,0.936-10.96,2.801c-3.147,1.867-4.72,4.72-4.72,8.56v1.28h-20.96
		c-0.107-0.32-0.16-0.772-0.16-1.36c0-0.585,0-1.093,0-1.521c0-4.691,1.492-8.824,4.479-12.399c2.985-3.572,7.146-6.345,12.48-8.319
		c5.332-1.973,11.52-2.961,18.56-2.961h3.36c11.521,0,20.105,2.268,25.76,6.801c5.652,4.535,8.48,10.64,8.48,18.319v39.841
		c0,2.027,0.505,3.467,1.52,4.319c1.013,0.854,2.105,1.28,3.28,1.28c0.96,0,2.025-0.186,3.2-0.561
		c1.172-0.372,2.292-0.824,3.359-1.359v12.8c-1.387,1.067-3.227,1.92-5.52,2.56c-2.295,0.641-5.04,0.961-8.24,0.961
		c-3.84,0-7.04-0.615-9.6-1.841c-2.561-1.225-4.508-2.905-5.84-5.04c-1.335-2.133-2.16-4.585-2.48-7.359
		c-2.987,4.268-6.935,7.707-11.84,10.32C1512.947,2406.379,1507.135,2407.688,1500.414,2407.688z M1510.654,2393.287
		c2.985,0,5.84-0.693,8.561-2.08c2.72-1.385,4.984-3.439,6.8-6.16c1.812-2.72,2.72-6.105,2.72-10.16v-6.56
		c-6.827,0-12.615,0.427-17.36,1.28c-4.747,0.854-8.347,2.268-10.8,4.239c-2.455,1.976-3.68,4.827-3.68,8.56
		c0,3.948,1.2,6.748,3.6,8.4C1502.895,2392.462,1506.279,2393.287,1510.654,2393.287z"/>
	<path style="fill:#FFFFFF;" d="M1605.532,2407.688c-5.12,0-9.76-0.641-13.92-1.92c-4.16-1.281-7.76-3.014-10.8-5.201
		c-3.04-2.185-5.36-4.744-6.96-7.68c-1.601-2.932-2.4-6.105-2.4-9.52c0-0.641,0-1.173,0-1.6c0-0.426,0.053-1.014,0.16-1.761h18.56
		c-0.107,0.32-0.159,0.615-0.159,0.88c0,0.268,0,0.508,0,0.721c0,2.667,0.904,4.879,2.72,6.64c1.812,1.76,4.16,3.04,7.04,3.84
		s5.973,1.2,9.28,1.2c2.665,0,5.359-0.32,8.079-0.96c2.721-0.64,4.985-1.681,6.801-3.12c1.812-1.439,2.72-3.28,2.72-5.52
		c0-2.453-0.935-4.346-2.8-5.681c-1.868-1.333-4.375-2.399-7.521-3.2c-3.147-0.8-6.587-1.492-10.319-2.08
		c-3.735-0.584-7.495-1.332-11.28-2.24c-3.788-0.904-7.255-2.212-10.4-3.92c-3.147-1.705-5.654-4.024-7.52-6.959
		c-1.868-2.934-2.8-6.801-2.8-11.601c0-4.052,0.932-7.68,2.8-10.88c1.865-3.2,4.425-5.865,7.68-8c3.253-2.133,6.985-3.732,11.2-4.8
		c4.213-1.065,8.612-1.601,13.2-1.601h3.2c4.265,0,8.345,0.535,12.239,1.601c3.893,1.067,7.386,2.587,10.48,4.56
		c3.093,1.975,5.52,4.32,7.28,7.04c1.76,2.72,2.64,5.681,2.64,8.88c0,0.535-0.027,1.148-0.08,1.84
		c-0.055,0.695-0.135,1.148-0.24,1.36h-18.56v-1.28c0-1.172-0.295-2.32-0.88-3.439c-0.588-1.12-1.548-2.16-2.88-3.12
		c-1.336-0.96-3.04-1.732-5.12-2.32c-2.08-0.585-4.561-0.88-7.44-0.88c-2.56,0-4.854,0.24-6.88,0.721
		c-2.027,0.479-3.735,1.119-5.12,1.92c-1.388,0.799-2.4,1.734-3.04,2.799c-0.64,1.068-0.96,2.136-0.96,3.201
		c0,2.239,0.96,3.975,2.88,5.199c1.92,1.228,4.453,2.188,7.601,2.881c3.145,0.694,6.612,1.334,10.399,1.92
		c3.785,0.587,7.545,1.307,11.28,2.16c3.732,0.854,7.2,2.159,10.4,3.92c3.199,1.76,5.732,4.135,7.6,7.119
		c1.865,2.988,2.8,6.881,2.8,11.68c0,5.016-0.96,9.281-2.88,12.801s-4.588,6.32-8,8.4c-3.415,2.08-7.255,3.6-11.52,4.56
		c-4.268,0.96-8.748,1.44-13.44,1.44H1605.532z"/>
	<path style="fill:#FFFFFF;" d="M1664.092,2406.087v-115.2h21.92v43.84c2.985-3.945,6.532-6.932,10.64-8.959
		c4.105-2.025,8.665-3.041,13.681-3.041c5.439,0,10.212,1.068,14.319,3.2c4.105,2.136,7.333,5.2,9.681,9.2
		c2.345,4,3.52,8.775,3.52,14.32v56.64h-21.92v-52c0-5.226-1.28-9.065-3.84-11.521c-2.561-2.452-6.027-3.68-10.4-3.68
		c-2.774,0-5.388,0.721-7.84,2.16c-2.455,1.439-4.375,3.388-5.76,5.84c-1.388,2.455-2.08,5.228-2.08,8.32v50.88H1664.092z"/>
</g>
<g>
	<path d="M962.063,2327.688c-7.467,0-14.16-1.681-20.08-5.041c-5.92-3.359-10.56-8.132-13.92-14.319
		c-3.36-6.185-5.04-13.44-5.04-21.761v-2.879c0-8.426,1.68-15.681,5.04-21.761s7.973-10.8,13.84-14.159
		c5.865-3.361,12.532-5.041,20-5.041h3.2c7.573,0,14.292,1.68,20.16,5.041c5.865,3.359,10.48,8.079,13.84,14.159
		s5.04,13.335,5.04,21.761v2.879c0,8.428-1.68,15.708-5.04,21.84c-3.36,6.136-7.975,10.881-13.84,14.24
		c-5.868,3.36-12.535,5.041-20,5.041H962.063z M963.503,2313.287c3.305,0,6.265-0.772,8.88-2.32c2.612-1.545,4.692-3.865,6.24-6.96
		c1.545-3.093,2.32-6.772,2.32-11.04v-15.68c0-4.373-0.775-8.053-2.32-11.04c-1.547-2.985-3.627-5.28-6.24-6.88
		c-2.615-1.6-5.575-2.4-8.88-2.4c-3.2,0-6.135,0.801-8.8,2.4c-2.667,1.6-4.775,3.895-6.32,6.88c-1.548,2.987-2.32,6.667-2.32,11.04
		v15.68c0,4.268,0.772,7.947,2.32,11.04c1.545,3.095,3.652,5.415,6.32,6.96C957.369,2312.515,960.304,2313.287,963.503,2313.287z"/>
	<path d="M1022.222,2326.087v-81.76h16.32l2.72,12c0.212-0.425,0.772-1.333,1.68-2.72c0.905-1.386,2.265-2.934,4.08-4.641
		c1.812-1.705,4.08-3.172,6.8-4.4c2.72-1.225,6-1.84,9.84-1.84c5.545,0,10.053,1.068,13.52,3.2c3.465,2.136,6.053,5.12,7.76,8.96
		c1.705,3.84,2.56,8.32,2.56,13.44c0,1.175-0.055,2.454-0.16,3.84c-0.107,1.388-0.215,2.614-0.32,3.68h-18.24v-3.36
		c0-2.024-0.4-4.08-1.2-6.159c-0.8-2.08-2.08-3.812-3.84-5.2c-1.76-1.385-4.188-2.08-7.28-2.08c-2.24,0-4.16,0.48-5.76,1.439
		c-1.6,0.961-2.907,2.16-3.92,3.601c-1.015,1.44-1.76,3.04-2.24,4.8s-0.72,3.388-0.72,4.881v52.319H1022.222z"/>
</g>
<rect x="2093.053" y="1911.833" style="fill:#0033AD;" width="700" height="710"/>
<rect x="3193.053" y="1911.833" style="fill:#0033AD;" width="700" height="710"/>
<g>
	<path style="fill:#FFFFFF;" d="M2172.177,2246.087v-109.76h52.8c5.865,0,11.225,1.388,16.08,4.159
		c4.853,2.775,8.72,6.535,11.6,11.281c2.88,4.747,4.32,10.055,4.32,15.92v2.239c0,5.868-1.495,11.308-4.48,16.32
		c-2.987,5.015-6.935,9.015-11.84,12c-4.907,2.987-10.348,4.479-16.319,4.479h-28.801v43.36H2172.177z M2195.536,2185.127h23.36
		c2.88,0,5.412-0.665,7.6-2c2.186-1.332,3.921-3.172,5.2-5.52c1.28-2.346,1.92-5.014,1.92-8c0-4.266-1.387-7.92-4.16-10.961
		c-2.774-3.039-6.454-4.56-11.039-4.56h-22.881V2185.127z"/>
	<path style="fill:#FFFFFF;" d="M2298.734,2247.688c-8.428,0-15.067-2.32-19.92-6.961c-4.855-4.64-7.28-11.439-7.28-20.399v-56
		h21.92v51.2c0,5.547,1.146,9.6,3.44,12.16c2.292,2.56,5.68,3.84,10.16,3.84c2.984,0,5.705-0.746,8.159-2.24
		c2.453-1.492,4.453-3.465,6-5.92c1.546-2.453,2.32-5.173,2.32-8.16v-50.88h21.76v63.36c0,2.027,0.506,3.467,1.521,4.319
		c1.013,0.854,2.104,1.28,3.28,1.28c1.064,0,2.159-0.186,3.279-0.561c1.12-0.372,2.213-0.824,3.28-1.359v12.8
		c-1.388,1.067-3.228,1.92-5.52,2.56c-2.296,0.641-5.04,0.961-8.24,0.961c-3.735,0-6.855-0.588-9.36-1.761
		c-2.508-1.173-4.399-2.8-5.68-4.88s-2.24-4.293-2.88-6.641c-2.668,4.16-6.348,7.416-11.04,9.761
		C2309.239,2246.512,2304.175,2247.688,2298.734,2247.688z"/>
	<path style="fill:#FFFFFF;" d="M2415.053,2247.688c-11.947,0-21.067-4.801-27.359-14.4l-7.521,12.8h-8v-115.2h21.92v43.04
		c2.24-3.093,5.333-5.732,9.28-7.92c3.945-2.185,8.641-3.28,14.08-3.28c5.865,0,11.2,1.36,16,4.08
		c4.8,2.721,8.64,6.961,11.521,12.721c2.88,5.76,4.319,13.175,4.319,22.24v3.52c0,9.707-1.547,17.707-4.64,24
		c-3.095,6.295-7.255,10.935-12.48,13.92C2426.945,2246.191,2421.238,2247.688,2415.053,2247.688z M2410.413,2233.287
		c3.093,0,5.812-0.745,8.16-2.24c2.345-1.492,4.213-3.812,5.6-6.96c1.386-3.146,2.08-7.173,2.08-12.08v-14.399
		c0-4.48-0.667-8.186-2-11.121c-1.335-2.932-3.147-5.172-5.439-6.719c-2.295-1.546-4.987-2.32-8.08-2.32
		c-2.987,0-5.76,0.774-8.32,2.32c-2.56,1.547-4.587,3.814-6.08,6.799c-1.495,2.988-2.24,6.721-2.24,11.201v14.239
		c0,4.907,0.721,8.935,2.16,12.08c1.44,3.147,3.413,5.468,5.92,6.96C2404.678,2232.542,2407.426,2233.287,2410.413,2233.287z"/>
	<path style="fill:#FFFFFF;" d="M2467.532,2246.087v-115.2h21.92v72.801l31.36-39.36h25.439l-31.359,37.44l32.64,44.319h-26.08
		l-21.76-29.44l-10.24,10.4v19.04H2467.532z"/>
	<path style="fill:#FFFFFF;" d="M2593.934,2247.688c-7.68,0-14.48-1.576-20.4-4.721s-10.535-7.732-13.84-13.76
		c-3.308-6.025-4.96-13.36-4.96-22v-4c0-8.641,1.732-15.973,5.2-22c3.465-6.025,8.212-10.613,14.24-13.76
		c6.024-3.146,12.88-4.721,20.56-4.721h2.56c7.253,0,13.573,1.468,18.961,4.4c5.385,2.936,9.545,7.04,12.479,12.32
		c2.933,5.279,4.4,11.439,4.4,18.479v10.08h-55.36c0,5.12,0.64,9.601,1.92,13.44s3.2,6.774,5.76,8.8
		c2.561,2.027,5.92,3.04,10.08,3.04c3.413,0,6.4-0.665,8.96-2c2.561-1.332,4.585-3.332,6.08-6c1.493-2.665,2.24-5.92,2.24-9.76
		h20.32c0,6.295-1.601,11.867-4.801,16.72c-3.199,4.854-7.6,8.64-13.199,11.36c-5.601,2.72-12.08,4.08-19.44,4.08H2593.934z
		 M2577.934,2196.807h33.76c0-6.72-1.468-11.705-4.4-14.96c-2.935-3.253-6.96-4.88-12.079-4.88c-4.801,0-8.828,1.68-12.08,5.04
		C2579.879,2185.367,2578.146,2190.302,2577.934,2196.807z"/>
	<path style="fill:#FFFFFF;" d="M2661.131,2275.847c-2.667,0-5.12-0.188-7.359-0.56c-2.24-0.375-4.268-0.936-6.08-1.68v-15.84
		c1.172,0.531,2.772,0.984,4.8,1.359c2.025,0.373,4,0.561,5.92,0.561c2.88,0,5.225-0.561,7.04-1.681
		c1.812-1.12,3.332-2.827,4.56-5.12c1.226-2.295,2.426-5.095,3.601-8.4l-31.521-80.159h23.36l18.88,53.6h1.12l17.92-53.6h21.6
		l-29.6,77.6c-2.348,6.292-5.067,12-8.16,17.12c-3.095,5.12-6.747,9.2-10.96,12.24
		C2672.036,2274.327,2666.996,2275.847,2661.131,2275.847z"/>
	<path style="fill:#FFFFFF;" d="M2259.696,2406.087v-109.76h23.359v44.479h39.681v-44.479h23.359v109.76h-23.199v-46.72h-39.681
		v46.72H2259.696z"/>
	<path style="fill:#FFFFFF;" d="M2390.576,2407.688c-4.375,0-8.561-0.721-12.561-2.16c-4-1.44-7.279-3.84-9.84-7.2
		c-2.56-3.36-3.84-7.921-3.84-13.681c0-5.865,1.305-10.612,3.92-14.24c2.612-3.625,6.293-6.424,11.04-8.399
		c4.745-1.973,10.453-3.333,17.12-4.08c6.665-0.745,14.16-1.12,22.48-1.12v-7.199c0-4.693-1.28-8.025-3.841-10
		c-2.56-1.973-6.295-2.961-11.199-2.961c-4.16,0-7.815,0.936-10.96,2.801c-3.147,1.867-4.721,4.72-4.721,8.56v1.28h-20.96
		c-0.107-0.32-0.16-0.772-0.16-1.36c0-0.585,0-1.093,0-1.521c0-4.691,1.493-8.824,4.48-12.399c2.985-3.572,7.145-6.345,12.479-8.319
		c5.333-1.973,11.521-2.961,18.561-2.961h3.36c11.52,0,20.104,2.268,25.76,6.801c5.652,4.535,8.479,10.64,8.479,18.319v39.841
		c0,2.027,0.505,3.467,1.521,4.319c1.013,0.854,2.104,1.28,3.28,1.28c0.96,0,2.024-0.186,3.199-0.561
		c1.173-0.372,2.293-0.824,3.36-1.359v12.8c-1.388,1.067-3.228,1.92-5.521,2.56c-2.295,0.641-5.039,0.961-8.239,0.961
		c-3.84,0-7.04-0.615-9.601-1.841c-2.56-1.225-4.507-2.905-5.84-5.04c-1.335-2.133-2.16-4.585-2.479-7.359
		c-2.988,4.268-6.936,7.707-11.841,10.32C2403.108,2406.379,2397.296,2407.688,2390.576,2407.688z M2400.816,2393.287
		c2.984,0,5.84-0.693,8.56-2.08c2.72-1.385,4.985-3.439,6.8-6.16c1.812-2.72,2.721-6.105,2.721-10.16v-6.56
		c-6.828,0-12.615,0.427-17.36,1.28c-4.747,0.854-8.348,2.268-10.8,4.239c-2.455,1.976-3.681,4.827-3.681,8.56
		c0,3.948,1.2,6.748,3.601,8.4C2393.056,2392.462,2396.441,2393.287,2400.816,2393.287z"/>
	<path style="fill:#FFFFFF;" d="M2495.694,2407.688c-5.12,0-9.761-0.641-13.92-1.92c-4.16-1.281-7.761-3.014-10.801-5.201
		c-3.04-2.185-5.359-4.744-6.96-7.68c-1.6-2.932-2.399-6.105-2.399-9.52c0-0.641,0-1.173,0-1.6c0-0.426,0.052-1.014,0.16-1.761
		h18.56c-0.107,0.32-0.16,0.615-0.16,0.88c0,0.268,0,0.508,0,0.721c0,2.667,0.905,4.879,2.72,6.64c1.812,1.76,4.16,3.04,7.04,3.84
		s5.973,1.2,9.28,1.2c2.665,0,5.36-0.32,8.08-0.96s4.985-1.681,6.8-3.12c1.812-1.439,2.72-3.28,2.72-5.52
		c0-2.453-0.935-4.346-2.8-5.681c-1.867-1.333-4.375-2.399-7.52-3.2c-3.147-0.8-6.588-1.492-10.32-2.08
		c-3.735-0.584-7.495-1.332-11.28-2.24c-3.787-0.904-7.255-2.212-10.399-3.92c-3.147-1.705-5.655-4.024-7.521-6.959
		c-1.867-2.934-2.8-6.801-2.8-11.601c0-4.052,0.933-7.68,2.8-10.88c1.865-3.2,4.426-5.865,7.681-8
		c3.252-2.133,6.984-3.732,11.199-4.8c4.213-1.065,8.613-1.601,13.2-1.601h3.2c4.265,0,8.345,0.535,12.24,1.601
		c3.893,1.067,7.385,2.587,10.479,4.56c3.093,1.975,5.521,4.32,7.28,7.04s2.64,5.681,2.64,8.88c0,0.535-0.027,1.148-0.08,1.84
		c-0.055,0.695-0.135,1.148-0.239,1.36h-18.561v-1.28c0-1.172-0.295-2.32-0.88-3.439c-0.587-1.12-1.547-2.16-2.88-3.12
		c-1.335-0.96-3.04-1.732-5.12-2.32c-2.08-0.585-4.56-0.88-7.439-0.88c-2.561,0-4.855,0.24-6.881,0.721
		c-2.027,0.479-3.734,1.119-5.119,1.92c-1.388,0.799-2.4,1.734-3.04,2.799c-0.641,1.068-0.96,2.136-0.96,3.201
		c0,2.239,0.96,3.975,2.88,5.199c1.92,1.228,4.452,2.188,7.6,2.881c3.146,0.694,6.612,1.334,10.4,1.92
		c3.785,0.587,7.545,1.307,11.279,2.16c3.733,0.854,7.2,2.159,10.4,3.92c3.2,1.76,5.732,4.135,7.6,7.119
		c1.865,2.988,2.801,6.881,2.801,11.68c0,5.016-0.96,9.281-2.88,12.801c-1.921,3.52-4.588,6.32-8,8.4
		c-3.415,2.08-7.256,3.6-11.521,4.56c-4.268,0.96-8.747,1.44-13.44,1.44H2495.694z"/>
	<path style="fill:#FFFFFF;" d="M2554.253,2406.087v-115.2h21.92v43.84c2.985-3.945,6.533-6.932,10.641-8.959
		c4.104-2.025,8.665-3.041,13.68-3.041c5.44,0,10.213,1.068,14.32,3.2c4.104,2.136,7.332,5.2,9.68,9.2
		c2.345,4,3.521,8.775,3.521,14.32v56.64h-21.92v-52c0-5.226-1.28-9.065-3.841-11.521c-2.56-2.452-6.027-3.68-10.399-3.68
		c-2.775,0-5.388,0.721-7.84,2.16c-2.455,1.439-4.375,3.388-5.761,5.84c-1.387,2.455-2.08,5.228-2.08,8.32v50.88H2554.253z"/>
</g>
<g>
	<path style="fill:#FFFFFF;" d="M3355.377,2247.688c-7.787,0-14.907-1.148-21.359-3.44c-6.455-2.292-11.628-5.893-15.521-10.8
		c-3.895-4.905-5.84-11.36-5.84-19.36c0-0.64,0-1.253,0-1.84c0-0.585,0.053-1.146,0.16-1.681h21.6
		c-0.107,0.535-0.16,1.016-0.16,1.44c0,0.428,0,0.907,0,1.44c0,3.414,0.825,6.348,2.48,8.8c1.652,2.455,4.104,4.319,7.36,5.6
		c3.252,1.28,7.119,1.921,11.6,1.921c5.013,0,9.12-0.506,12.32-1.521c3.199-1.013,5.6-2.585,7.199-4.72
		c1.601-2.133,2.4-4.746,2.4-7.84c0-3.306-1.147-5.945-3.439-7.92c-2.296-1.973-5.28-3.546-8.961-4.721
		c-3.68-1.172-7.734-2.266-12.159-3.279c-4.428-1.014-8.855-2.213-13.28-3.601c-4.428-1.386-8.508-3.253-12.24-5.601
		c-3.734-2.345-6.72-5.439-8.96-9.279s-3.36-8.745-3.36-14.721c0-7.145,1.945-13.064,5.841-17.76
		c3.893-4.692,9.064-8.213,15.52-10.56c6.452-2.345,13.465-3.521,21.04-3.521c7.572,0,14.452,1.096,20.64,3.28
		c6.186,2.188,11.146,5.601,14.881,10.24c3.732,4.64,5.6,10.64,5.6,18v2.08h-21.28v-1.921c0-2.879-0.774-5.385-2.319-7.52
		c-1.548-2.133-3.761-3.76-6.641-4.88s-6.399-1.68-10.56-1.68c-3.84,0-7.228,0.399-10.16,1.2c-2.936,0.8-5.2,2.08-6.8,3.84
		c-1.601,1.76-2.4,4.027-2.4,6.8c0,3.2,1.12,5.76,3.36,7.68c2.24,1.921,5.225,3.44,8.96,4.56c3.732,1.121,7.865,2.188,12.399,3.201
		c4.533,1.015,9.013,2.188,13.44,3.52c4.425,1.335,8.505,3.147,12.24,5.439c3.732,2.295,6.72,5.336,8.96,9.121
		c2.24,3.787,3.359,8.614,3.359,14.479c0,8.535-2.027,15.388-6.08,20.56c-4.055,5.176-9.52,8.961-16.399,11.36
		S3364.122,2247.688,3355.377,2247.688z"/>
	<path style="fill:#FFFFFF;" d="M3452.656,2247.688c-6.936,0-13.2-1.705-18.801-5.121c-5.6-3.412-10-8.132-13.199-14.16
		c-3.2-6.024-4.801-12.932-4.801-20.719v-4.961c0-5.865,0.985-11.225,2.96-16.08c1.973-4.852,4.665-9.092,8.08-12.72
		c3.413-3.625,7.413-6.399,12-8.319c4.585-1.92,9.493-2.881,14.721-2.881h3.04c7.145,0,13.359,1.416,18.64,4.24
		c5.28,2.828,9.332,6.775,12.16,11.84c2.825,5.068,4.24,11.016,4.24,17.84h-19.04c0-4.372-0.668-8-2-10.879
		c-1.335-2.881-3.228-5.065-5.681-6.561c-2.455-1.492-5.388-2.24-8.8-2.24c-4.907,0-9.015,1.68-12.32,5.04
		c-3.307,3.36-4.96,8.295-4.96,14.8v16.48c0,6.4,1.573,11.335,4.721,14.8c3.145,3.468,7.385,5.2,12.72,5.2
		c3.732,0,6.88-0.641,9.439-1.92c2.561-1.28,4.506-3.36,5.841-6.24c1.332-2.88,2-6.721,2-11.52h18.08
		c0,7.254-1.548,13.414-4.641,18.479c-3.095,5.067-7.359,8.935-12.8,11.601c-5.44,2.664-11.628,4-18.56,4H3452.656z"/>
	<path style="fill:#FFFFFF;" d="M3508.976,2246.087v-81.76h16.32l2.72,12c0.212-0.425,0.772-1.333,1.68-2.72
		c0.905-1.386,2.266-2.934,4.08-4.641c1.812-1.705,4.08-3.172,6.8-4.4c2.721-1.225,6-1.84,9.84-1.84
		c5.546,0,10.053,1.068,13.521,3.2c3.465,2.136,6.053,5.12,7.76,8.96c1.705,3.84,2.561,8.32,2.561,13.44
		c0,1.175-0.056,2.454-0.16,3.84c-0.107,1.388-0.215,2.614-0.32,3.68h-18.24v-3.36c0-2.024-0.399-4.08-1.199-6.159
		c-0.801-2.08-2.08-3.812-3.841-5.2c-1.76-1.385-4.188-2.08-7.279-2.08c-2.24,0-4.16,0.48-5.761,1.439
		c-1.6,0.961-2.907,2.16-3.92,3.601c-1.015,1.44-1.76,3.04-2.239,4.8c-0.48,1.76-0.721,3.388-0.721,4.881v52.319H3508.976z"/>
	<path style="fill:#FFFFFF;" d="M3588.975,2147.847v-16.96h22.56v16.96H3588.975z M3589.295,2246.087v-81.76h21.92v81.76H3589.295z"
		/>
	<path style="fill:#FFFFFF;" d="M3633.613,2275.047v-110.72h17.119l2.4,10.56c2.452-3.52,5.732-6.425,9.84-8.72
		c4.105-2.292,8.933-3.44,14.48-3.44c6.292,0,11.973,1.36,17.04,4.08c5.064,2.721,9.064,7.068,12,13.04
		c2.933,5.976,4.399,13.815,4.399,23.521v3.359c0,8.961-1.439,16.508-4.319,22.641c-2.881,6.135-6.775,10.72-11.681,13.76
		c-4.907,3.04-10.295,4.561-16.16,4.561c-5.654,0-10.399-1.068-14.239-3.201c-3.841-2.132-6.775-4.852-8.801-8.159v38.72H3633.613z
		 M3671.853,2233.127c3.093,0,5.84-0.8,8.24-2.4c2.4-1.6,4.293-3.893,5.68-6.88c1.386-2.985,2.08-6.665,2.08-11.04v-14.24
		c0-4.904-0.694-8.932-2.08-12.08c-1.387-3.145-3.279-5.492-5.68-7.039c-2.4-1.545-5.147-2.32-8.24-2.32
		c-2.88,0-5.575,0.748-8.08,2.24c-2.507,1.494-4.507,3.787-6,6.88c-1.495,3.095-2.239,7.147-2.239,12.159v14.4
		c0,4.375,0.72,8.08,2.159,11.12c1.44,3.04,3.413,5.335,5.921,6.88C3666.118,2232.354,3668.865,2233.127,3671.853,2233.127z"/>
	<path style="fill:#FFFFFF;" d="M3756.653,2247.688c-4.588,0-8.695-0.641-12.32-1.92c-3.628-1.281-6.455-3.44-8.48-6.48
		c-2.027-3.04-3.039-7.065-3.039-12.08v-46.561h-8.961v-16.319h9.601l7.68-26.08h13.44v26.08h19.2v16.319h-19.2v41.76
		c0,4.695,0.96,7.681,2.88,8.961c1.92,1.279,4,1.92,6.24,1.92c1.172,0,2.8-0.24,4.88-0.721c2.08-0.479,3.76-0.984,5.04-1.52v13.439
		c-1.388,0.748-3.096,1.36-5.12,1.841c-2.027,0.479-4.08,0.825-6.16,1.04C3760.253,2247.58,3758.358,2247.688,3756.653,2247.688z"/>
	<path style="fill:#FFFFFF;" d="M3359.696,2406.087v-109.76h23.36v44.479h39.68v-44.479h23.36v109.76h-23.2v-46.72h-39.68v46.72
		H3359.696z"/>
	<path style="fill:#FFFFFF;" d="M3490.576,2407.688c-4.375,0-8.56-0.721-12.56-2.16c-4-1.44-7.28-3.84-9.84-7.2
		c-2.561-3.36-3.84-7.921-3.84-13.681c0-5.865,1.305-10.612,3.92-14.24c2.612-3.625,6.292-6.424,11.04-8.399
		c4.745-1.973,10.452-3.333,17.12-4.08c6.665-0.745,14.159-1.12,22.479-1.12v-7.199c0-4.693-1.28-8.025-3.84-10
		c-2.56-1.973-6.295-2.961-11.2-2.961c-4.16,0-7.814,0.936-10.96,2.801c-3.147,1.867-4.72,4.72-4.72,8.56v1.28h-20.96
		c-0.107-0.32-0.16-0.772-0.16-1.36c0-0.585,0-1.093,0-1.521c0-4.691,1.492-8.824,4.479-12.399c2.985-3.572,7.146-6.345,12.48-8.319
		c5.332-1.973,11.52-2.961,18.56-2.961h3.36c11.521,0,20.105,2.268,25.76,6.801c5.652,4.535,8.48,10.64,8.48,18.319v39.841
		c0,2.027,0.505,3.467,1.52,4.319c1.013,0.854,2.105,1.28,3.28,1.28c0.96,0,2.025-0.186,3.2-0.561
		c1.172-0.372,2.292-0.824,3.359-1.359v12.8c-1.387,1.067-3.227,1.92-5.52,2.56c-2.295,0.641-5.04,0.961-8.24,0.961
		c-3.84,0-7.04-0.615-9.6-1.841c-2.561-1.225-4.508-2.905-5.84-5.04c-1.335-2.133-2.16-4.585-2.48-7.359
		c-2.987,4.268-6.935,7.707-11.84,10.32C3503.109,2406.379,3497.297,2407.688,3490.576,2407.688z M3500.816,2393.287
		c2.985,0,5.84-0.693,8.561-2.08c2.72-1.385,4.984-3.439,6.8-6.16c1.812-2.72,2.72-6.105,2.72-10.16v-6.56
		c-6.827,0-12.615,0.427-17.36,1.28c-4.747,0.854-8.347,2.268-10.8,4.239c-2.455,1.976-3.68,4.827-3.68,8.56
		c0,3.948,1.2,6.748,3.6,8.4C3493.057,2392.462,3496.441,2393.287,3500.816,2393.287z"/>
	<path style="fill:#FFFFFF;" d="M3595.694,2407.688c-5.12,0-9.76-0.641-13.92-1.92c-4.16-1.281-7.76-3.014-10.8-5.201
		c-3.04-2.185-5.36-4.744-6.96-7.68c-1.601-2.932-2.4-6.105-2.4-9.52c0-0.641,0-1.173,0-1.6c0-0.426,0.053-1.014,0.16-1.761h18.56
		c-0.107,0.32-0.159,0.615-0.159,0.88c0,0.268,0,0.508,0,0.721c0,2.667,0.904,4.879,2.72,6.64c1.812,1.76,4.16,3.04,7.04,3.84
		s5.973,1.2,9.28,1.2c2.665,0,5.359-0.32,8.079-0.96c2.721-0.64,4.985-1.681,6.801-3.12c1.812-1.439,2.72-3.28,2.72-5.52
		c0-2.453-0.935-4.346-2.8-5.681c-1.868-1.333-4.375-2.399-7.521-3.2c-3.147-0.8-6.587-1.492-10.319-2.08
		c-3.735-0.584-7.495-1.332-11.28-2.24c-3.788-0.904-7.255-2.212-10.4-3.92c-3.147-1.705-5.654-4.024-7.52-6.959
		c-1.868-2.934-2.8-6.801-2.8-11.601c0-4.052,0.932-7.68,2.8-10.88c1.865-3.2,4.425-5.865,7.68-8c3.253-2.133,6.985-3.732,11.2-4.8
		c4.213-1.065,8.612-1.601,13.2-1.601h3.2c4.265,0,8.345,0.535,12.239,1.601c3.893,1.067,7.386,2.587,10.48,4.56
		c3.093,1.975,5.52,4.32,7.28,7.04c1.76,2.72,2.64,5.681,2.64,8.88c0,0.535-0.027,1.148-0.08,1.84
		c-0.055,0.695-0.135,1.148-0.24,1.36h-18.56v-1.28c0-1.172-0.295-2.32-0.88-3.439c-0.588-1.12-1.548-2.16-2.88-3.12
		c-1.336-0.96-3.04-1.732-5.12-2.32c-2.08-0.585-4.561-0.88-7.44-0.88c-2.56,0-4.854,0.24-6.88,0.721
		c-2.027,0.479-3.735,1.119-5.12,1.92c-1.388,0.799-2.4,1.734-3.04,2.799c-0.64,1.068-0.96,2.136-0.96,3.201
		c0,2.239,0.96,3.975,2.88,5.199c1.92,1.228,4.453,2.188,7.601,2.881c3.145,0.694,6.612,1.334,10.399,1.92
		c3.785,0.587,7.545,1.307,11.28,2.16c3.732,0.854,7.2,2.159,10.4,3.92c3.199,1.76,5.732,4.135,7.6,7.119
		c1.865,2.988,2.8,6.881,2.8,11.68c0,5.016-0.96,9.281-2.88,12.801s-4.588,6.32-8,8.4c-3.415,2.08-7.255,3.6-11.52,4.56
		c-4.268,0.96-8.748,1.44-13.44,1.44H3595.694z"/>
	<path style="fill:#FFFFFF;" d="M3654.254,2406.087v-115.2h21.92v43.84c2.985-3.945,6.532-6.932,10.64-8.959
		c4.105-2.025,8.665-3.041,13.681-3.041c5.439,0,10.212,1.068,14.319,3.2c4.105,2.136,7.333,5.2,9.681,9.2
		c2.345,4,3.52,8.775,3.52,14.32v56.64h-21.92v-52c0-5.226-1.28-9.065-3.84-11.521c-2.561-2.452-6.027-3.68-10.4-3.68
		c-2.774,0-5.388,0.721-7.84,2.16c-2.455,1.439-4.375,3.388-5.76,5.84c-1.388,2.455-2.08,5.228-2.08,8.32v50.88H3654.254z"/>
</g>
<g>
	<path d="M2948.576,2327.688c-7.468,0-14.16-1.681-20.08-5.041c-5.92-3.359-10.561-8.132-13.92-14.319
		c-3.36-6.185-5.04-13.44-5.04-21.761v-2.879c0-8.426,1.68-15.681,5.04-21.761c3.359-6.08,7.973-10.8,13.84-14.159
		c5.865-3.361,12.532-5.041,20-5.041h3.2c7.572,0,14.292,1.68,20.16,5.041c5.864,3.359,10.479,8.079,13.84,14.159
		c3.359,6.08,5.04,13.335,5.04,21.761v2.879c0,8.428-1.681,15.708-5.04,21.84c-3.36,6.136-7.976,10.881-13.84,14.24
		c-5.868,3.36-12.535,5.041-20,5.041H2948.576z M2950.016,2313.287c3.306,0,6.266-0.772,8.881-2.32
		c2.612-1.545,4.692-3.865,6.239-6.96c1.545-3.093,2.32-6.772,2.32-11.04v-15.68c0-4.373-0.775-8.053-2.32-11.04
		c-1.547-2.985-3.627-5.28-6.239-6.88c-2.615-1.6-5.575-2.4-8.881-2.4c-3.199,0-6.135,0.801-8.8,2.4
		c-2.667,1.6-4.774,3.895-6.319,6.88c-1.548,2.987-2.32,6.667-2.32,11.04v15.68c0,4.268,0.772,7.947,2.32,11.04
		c1.545,3.095,3.652,5.415,6.319,6.96C2943.881,2312.515,2946.816,2313.287,2950.016,2313.287z"/>
	<path d="M3008.734,2326.087v-81.76h16.32l2.72,12c0.213-0.425,0.772-1.333,1.681-2.72c0.904-1.386,2.265-2.934,4.08-4.641
		c1.812-1.705,4.079-3.172,6.8-4.4c2.72-1.225,6-1.84,9.84-1.84c5.545,0,10.053,1.068,13.52,3.2c3.466,2.136,6.053,5.12,7.761,8.96
		c1.705,3.84,2.56,8.32,2.56,13.44c0,1.175-0.055,2.454-0.16,3.84c-0.107,1.388-0.215,2.614-0.319,3.68h-18.24v-3.36
		c0-2.024-0.4-4.08-1.2-6.159c-0.8-2.08-2.08-3.812-3.84-5.2c-1.76-1.385-4.188-2.08-7.28-2.08c-2.24,0-4.16,0.48-5.76,1.439
		c-1.601,0.961-2.907,2.16-3.92,3.601c-1.016,1.44-1.76,3.04-2.24,4.8c-0.479,1.76-0.72,3.388-0.72,4.881v52.319H3008.734z"/>
</g>
<rect x="113.451" y="152.167" style="fill:none;stroke:#000000;stroke-width:18;stroke-miterlimit:10;" width="3772.677" height="740"/>
<g>
	<g>
		<path d="M2445.22,592.145l62.489-170.111h43.147l62.242,170.111h-37.692l-13.143-35.212h-68.938l-13.143,35.212H2445.22z
			 M2502.254,530.895h50.835l-24.798-70.673h-0.992L2502.254,530.895z"/>
		<path d="M2677.323,594.625c-9.919,0-18.765-2.317-26.533-6.943c-7.772-4.626-13.929-11.818-18.474-21.574
			c-4.549-9.752-6.819-22.151-6.819-37.196v-2.728c0-14.049,2.271-25.747,6.819-35.088c4.545-9.338,10.62-16.366,18.226-21.078
			c7.603-4.711,15.87-7.067,24.798-7.067c8.927,0,16.405,1.654,22.441,4.959c6.033,3.309,10.62,7.439,13.763,12.398v-66.705h33.725
			v178.542h-26.533l-3.72-16.862c-3.968,5.622-9.013,10.252-15.126,13.887C2693.771,592.804,2686.251,594.625,2677.323,594.625z
			 M2686.003,572.307c4.793,0,9.09-1.155,12.895-3.472c3.801-2.313,6.857-5.909,9.175-10.787c2.313-4.874,3.472-11.116,3.472-18.722
			v-22.07c0-6.943-1.116-12.728-3.348-17.358c-2.231-4.626-5.293-8.141-9.175-10.539c-3.887-2.395-8.226-3.596-13.019-3.596
			c-6.943,0-12.813,2.689-17.606,8.059c-4.797,5.374-7.191,13.186-7.191,23.434v22.07c0,7.606,1.116,13.848,3.348,18.722
			c2.231,4.878,5.207,8.474,8.927,10.787C2677.199,571.152,2681.372,572.307,2686.003,572.307z"/>
		<path d="M2825.36,594.625c-9.919,0-18.765-2.317-26.533-6.943c-7.772-4.626-13.929-11.818-18.474-21.574
			c-4.549-9.752-6.819-22.151-6.819-37.196v-2.728c0-14.049,2.271-25.747,6.819-35.088c4.545-9.338,10.62-16.366,18.226-21.078
			c7.603-4.711,15.87-7.067,24.798-7.067c8.927,0,16.405,1.654,22.441,4.959c6.033,3.309,10.62,7.439,13.763,12.398v-66.705h33.725
			v178.542h-26.533l-3.72-16.862c-3.968,5.622-9.013,10.252-15.126,13.887C2841.809,592.804,2834.288,594.625,2825.36,594.625z
			 M2834.04,572.307c4.793,0,9.09-1.155,12.895-3.472c3.801-2.313,6.857-5.909,9.175-10.787c2.313-4.874,3.472-11.116,3.472-18.722
			v-22.07c0-6.943-1.116-12.728-3.348-17.358c-2.231-4.626-5.293-8.141-9.175-10.539c-3.887-2.395-8.226-3.596-13.019-3.596
			c-6.943,0-12.813,2.689-17.606,8.059c-4.797,5.374-7.191,13.186-7.191,23.434v22.07c0,7.606,1.116,13.848,3.348,18.722
			c2.231,4.878,5.207,8.474,8.927,10.787C2825.236,571.152,2829.409,572.307,2834.04,572.307z"/>
		<path d="M2927.026,592.145V465.43h25.293l4.216,18.598c0.329-0.659,1.197-2.065,2.604-4.215c1.403-2.146,3.511-4.545,6.324-7.191
			c2.809-2.643,6.323-4.917,10.538-6.819c4.216-1.898,9.3-2.852,15.251-2.852c8.594,0,15.58,1.654,20.954,4.959
			c5.37,3.309,9.38,7.935,12.026,13.887c2.643,5.951,3.968,12.895,3.968,20.83c0,1.821-0.085,3.805-0.248,5.952
			c-0.167,2.15-0.333,4.053-0.496,5.703h-28.269v-5.208c0-3.138-0.62-6.323-1.86-9.547s-3.224-5.909-5.951-8.059
			c-2.728-2.146-6.49-3.224-11.283-3.224c-3.472,0-6.447,0.744-8.927,2.231s-4.506,3.348-6.075,5.58
			c-1.573,2.232-2.728,4.711-3.472,7.439c-0.744,2.728-1.116,5.25-1.116,7.563v81.088H2927.026z"/>
		<path d="M3105.319,594.625c-11.903,0-22.442-2.441-31.617-7.315c-9.175-4.875-16.327-11.984-21.45-21.326
			c-5.126-9.338-7.687-20.706-7.687-34.097v-6.2c0-13.391,2.685-24.755,8.059-34.096c5.37-9.338,12.729-16.448,22.07-21.326
			c9.338-4.874,19.962-7.315,31.864-7.315h3.968c11.24,0,21.035,2.274,29.385,6.819c8.347,4.549,14.794,10.911,19.343,19.094
			c4.545,8.183,6.819,17.73,6.819,28.641v15.623h-85.8c0,7.935,0.992,14.878,2.976,20.83c1.984,5.951,4.96,10.5,8.928,13.639
			c3.967,3.142,9.175,4.711,15.622,4.711c5.289,0,9.919-1.031,13.887-3.1c3.968-2.065,7.105-5.165,9.423-9.299
			c2.313-4.13,3.472-9.175,3.472-15.126h31.493c0,9.756-2.48,18.393-7.439,25.914c-4.96,7.524-11.779,13.391-20.458,17.606
			c-8.68,4.216-18.723,6.324-30.129,6.324H3105.319z M3080.521,515.769h52.322c0-10.415-2.273-18.141-6.818-23.186
			c-4.549-5.041-10.787-7.563-18.723-7.563c-7.439,0-13.682,2.604-18.722,7.811C3083.536,498.039,3080.851,505.687,3080.521,515.769
			z"/>
		<path d="M3239.967,594.625c-7.936,0-15.127-0.992-21.574-2.976s-12.027-4.669-16.738-8.059
			c-4.712-3.386-8.308-7.354-10.787-11.903c-2.479-4.545-3.72-9.462-3.72-14.754c0-0.992,0-1.817,0-2.48
			c0-0.659,0.082-1.569,0.248-2.728h28.766c-0.167,0.496-0.248,0.953-0.248,1.364c0,0.415,0,0.787,0,1.116
			c0,4.134,1.402,7.563,4.215,10.291c2.81,2.728,6.448,4.712,10.911,5.952c4.464,1.24,9.257,1.86,14.383,1.86
			c4.13,0,8.307-0.496,12.522-1.488c4.216-0.992,7.727-2.604,10.539-4.835c2.81-2.232,4.216-5.083,4.216-8.555
			c0-3.801-1.449-6.734-4.34-8.803c-2.895-2.065-6.78-3.72-11.654-4.959c-4.879-1.24-10.21-2.313-15.995-3.224
			c-5.788-0.907-11.616-2.065-17.482-3.472c-5.869-1.403-11.243-3.429-16.118-6.076c-4.878-2.642-8.764-6.238-11.654-10.787
			c-2.895-4.545-4.34-10.539-4.34-17.979c0-6.281,1.445-11.903,4.34-16.862c2.891-4.959,6.857-9.09,11.902-12.398
			c5.041-3.305,10.826-5.785,17.358-7.439c6.528-1.65,13.348-2.479,20.458-2.479h4.96c6.609,0,12.933,0.829,18.97,2.479
			c6.032,1.655,11.445,4.01,16.242,7.067c4.793,3.061,8.556,6.695,11.283,10.911c2.728,4.215,4.091,8.803,4.091,13.762
			c0,0.83-0.042,1.779-0.123,2.852c-0.086,1.077-0.21,1.778-0.372,2.107h-28.766v-1.983c0-1.817-0.457-3.596-1.363-5.332
			c-0.911-1.736-2.398-3.348-4.464-4.835c-2.069-1.488-4.712-2.685-7.936-3.596c-3.224-0.907-7.067-1.364-11.53-1.364
			c-3.968,0-7.524,0.372-10.663,1.116c-3.143,0.744-5.789,1.736-7.936,2.976c-2.15,1.24-3.72,2.689-4.711,4.34
			c-0.992,1.654-1.488,3.309-1.488,4.959c0,3.472,1.488,6.161,4.464,8.059c2.976,1.902,6.9,3.39,11.778,4.463
			c4.874,1.077,10.249,2.069,16.118,2.976c5.866,0.911,11.694,2.027,17.482,3.348c5.785,1.325,11.159,3.348,16.118,6.076
			c4.96,2.728,8.885,6.409,11.779,11.035c2.891,4.63,4.34,10.663,4.34,18.103c0,7.772-1.488,14.382-4.464,19.838
			s-7.11,9.795-12.398,13.019c-5.293,3.224-11.244,5.58-17.854,7.067c-6.614,1.488-13.558,2.232-20.83,2.232H3239.967z"/>
		<path d="M3376.104,594.625c-7.936,0-15.127-0.992-21.574-2.976s-12.027-4.669-16.738-8.059
			c-4.712-3.386-8.308-7.354-10.787-11.903c-2.479-4.545-3.72-9.462-3.72-14.754c0-0.992,0-1.817,0-2.48
			c0-0.659,0.082-1.569,0.248-2.728h28.766c-0.167,0.496-0.248,0.953-0.248,1.364c0,0.415,0,0.787,0,1.116
			c0,4.134,1.402,7.563,4.215,10.291c2.81,2.728,6.448,4.712,10.911,5.952c4.464,1.24,9.257,1.86,14.383,1.86
			c4.13,0,8.307-0.496,12.522-1.488c4.216-0.992,7.727-2.604,10.539-4.835c2.81-2.232,4.216-5.083,4.216-8.555
			c0-3.801-1.449-6.734-4.34-8.803c-2.895-2.065-6.78-3.72-11.654-4.959c-4.879-1.24-10.21-2.313-15.995-3.224
			c-5.788-0.907-11.616-2.065-17.482-3.472c-5.869-1.403-11.243-3.429-16.118-6.076c-4.878-2.642-8.764-6.238-11.654-10.787
			c-2.895-4.545-4.34-10.539-4.34-17.979c0-6.281,1.445-11.903,4.34-16.862c2.891-4.959,6.857-9.09,11.902-12.398
			c5.041-3.305,10.826-5.785,17.358-7.439c6.528-1.65,13.348-2.479,20.458-2.479h4.96c6.609,0,12.933,0.829,18.97,2.479
			c6.032,1.655,11.445,4.01,16.242,7.067c4.793,3.061,8.556,6.695,11.283,10.911c2.728,4.215,4.091,8.803,4.091,13.762
			c0,0.83-0.042,1.779-0.123,2.852c-0.086,1.077-0.21,1.778-0.372,2.107h-28.766v-1.983c0-1.817-0.457-3.596-1.363-5.332
			c-0.911-1.736-2.398-3.348-4.464-4.835c-2.069-1.488-4.712-2.685-7.936-3.596c-3.224-0.907-7.067-1.364-11.53-1.364
			c-3.968,0-7.524,0.372-10.663,1.116c-3.143,0.744-5.789,1.736-7.936,2.976c-2.15,1.24-3.72,2.689-4.711,4.34
			c-0.992,1.654-1.488,3.309-1.488,4.959c0,3.472,1.488,6.161,4.464,8.059c2.976,1.902,6.9,3.39,11.778,4.463
			c4.874,1.077,10.249,2.069,16.118,2.976c5.866,0.911,11.694,2.027,17.482,3.348c5.785,1.325,11.159,3.348,16.118,6.076
			c4.96,2.728,8.885,6.409,11.779,11.035c2.891,4.63,4.34,10.663,4.34,18.103c0,7.772-1.488,14.382-4.464,19.838
			s-7.11,9.795-12.398,13.019c-5.293,3.224-11.244,5.58-17.854,7.067c-6.614,1.488-13.558,2.232-20.83,2.232H3376.104z"/>
	</g>
	<g id="Layer_1-2">
		<path d="M652.607,505.179c-0.799,13.921,9.83,25.858,23.75,26.671h1.378c13.924-0.015,25.198-11.315,25.183-25.239
			c-0.015-13.924-11.315-25.198-25.239-25.183c-13.351,0.015-24.375,10.435-25.142,23.764L652.607,505.179z"/>
		<path d="M558.597,498.787c-4.49-0.251-8.333,3.185-8.584,7.674c-0.251,4.49,3.185,8.333,7.674,8.584
			c4.485,0.251,8.326-3.177,8.583-7.662c0.265-4.481-3.152-8.329-7.634-8.594C558.624,498.788,558.61,498.787,558.597,498.787z"/>
		<path d="M651.009,358.86c4.007-2.058,5.587-6.974,3.529-10.981c-2.058-4.007-6.974-5.587-10.981-3.529
			c-3.976,2.042-5.568,6.903-3.57,10.9c2.024,4.033,6.933,5.661,10.966,3.637C650.972,358.879,650.991,358.869,651.009,358.86z"/>
		<path d="M676.592,403.468c6.209-3.132,8.703-10.704,5.571-16.913s-10.704-8.703-16.913-5.571
			c-6.206,3.13-8.701,10.697-5.575,16.905c3.128,6.211,10.698,8.711,16.909,5.584C676.586,403.47,676.589,403.469,676.592,403.468z"
			/>
		<path d="M590.503,434.148c4.787,3.148,11.219,1.819,14.367-2.968s1.819-11.219-2.968-14.367
			c-4.787-3.148-11.219-1.819-14.367,2.968c-0.003,0.004-0.005,0.008-0.008,0.012C584.389,424.579,585.721,431.003,590.503,434.148z
			"/>
		<path d="M605.836,494.199c-6.943-0.392-12.889,4.919-13.281,11.862c-0.392,6.943,4.919,12.889,11.862,13.281
			c6.938,0.391,12.881-4.911,13.28-11.849C618.089,500.548,612.781,494.599,605.836,494.199z"/>
		<path d="M591.881,578.855c-5.113,2.584-7.164,8.824-4.579,13.938s8.824,7.163,13.938,4.579c5.11-2.583,7.161-8.817,4.583-13.929
			c-2.58-5.116-8.818-7.171-13.933-4.592C591.886,578.852,591.884,578.854,591.881,578.855z"/>
		<path d="M640.828,468.175c6.847,4.487,16.036,2.574,20.523-4.273s2.574-16.036-4.273-20.523
			c-6.846-4.487-16.033-2.575-20.521,4.269c-4.492,6.836-2.591,16.018,4.244,20.509C640.811,468.164,640.82,468.17,640.828,468.175z
			"/>
		<path d="M796.116,402.476c5.831,3.803,13.641,2.16,17.445-3.671c3.803-5.831,2.16-13.641-3.671-17.445
			c-5.827-3.801-13.632-2.162-17.438,3.661c-3.811,5.817-2.185,13.622,3.631,17.433
			C796.094,402.461,796.105,402.469,796.116,402.476z"/>
		<path d="M821.96,358.006c3.767,2.469,8.823,1.417,11.292-2.35c2.469-3.767,1.417-8.823-2.35-11.292
			c-3.767-2.469-8.823-1.417-11.292,2.35c-0.002,0.003-0.004,0.006-0.006,0.009C817.143,350.49,818.197,355.539,821.96,358.006z"/>
		<path d="M798.1,481.18c-13.904-0.799-25.824,9.825-26.623,23.73c-0.799,13.905,9.825,25.824,23.73,26.623l0,0
			c0.482,0,0.978,0,1.46,0c13.924-0.007,25.205-11.3,25.198-25.223c-0.003-6.191-2.284-12.164-6.407-16.781
			C811.025,484.531,804.771,481.523,798.1,481.18z"/>
		<path d="M684.871,466.426c4.269,8.529,13.001,13.903,22.538,13.873c13.931,0.003,25.227-11.288,25.23-25.219
			c0.001-3.96-0.931-7.865-2.72-11.399c-4.298-8.489-13.023-13.822-22.538-13.776c-13.931,0.024-25.205,11.336-25.182,25.268
			C682.207,459.08,683.122,462.932,684.871,466.426z"/>
		<path d="M882.563,434.12c5.115-2.581,7.169-8.82,4.588-13.935c-2.581-5.115-8.82-7.169-13.935-4.588
			c-5.109,2.578-7.165,8.808-4.594,13.921C871.203,434.637,877.442,436.696,882.563,434.12z"/>
		<path d="M818.626,442.152c-7.312,3.682-10.254,12.595-6.571,19.907c3.682,7.312,12.595,10.254,19.907,6.571
			s10.254-12.595,6.571-19.907c-3.672-7.308-12.574-10.256-19.882-6.584C818.643,442.144,818.635,442.148,818.626,442.152z"/>
		<path d="M736.271,354.203c5.72,0.326,10.621-4.047,10.947-9.767c0.326-5.72-4.047-10.621-9.767-10.947
			c-5.72-0.326-10.621,4.047-10.947,9.767c0,0.003,0,0.005,0,0.008C726.183,348.982,730.554,353.878,736.271,354.203z"/>
		<path d="M736.161,419.49c8.174,0.458,15.172-5.796,15.63-13.97c0.458-8.174-5.797-15.172-13.97-15.63
			c-8.166-0.458-15.16,5.785-15.629,13.95C721.73,412.018,727.983,419.024,736.161,419.49z"/>
		<path d="M655.845,570.81c7.31-3.686,10.249-12.599,6.563-19.91c-3.686-7.31-12.599-10.249-19.91-6.563
			c-7.31,3.686-10.249,12.599-6.563,19.91c0.001,0.002,0.002,0.004,0.003,0.005C639.625,571.559,648.536,574.494,655.845,570.81z"/>
		<path d="M745.736,441.119c-7.631,11.646-4.377,27.273,7.269,34.905c11.646,7.631,27.273,4.377,34.905-7.269
			c7.631-11.646,4.377-27.273-7.269-34.905c-4.097-2.685-8.887-4.118-13.785-4.124C758.344,429.72,750.404,434.003,745.736,441.119z
			"/>
		<path d="M789.572,546.549c-6.269-12.432-21.43-17.428-33.862-11.159c-12.432,6.269-17.428,21.43-11.159,33.862
			c4.286,8.499,12.992,13.859,22.51,13.859c3.946-0.027,7.832-0.97,11.352-2.755C790.807,574.083,795.796,558.969,789.572,546.549z"
			/>
		<path d="M833.629,544.786c-6.844-4.493-16.034-2.587-20.527,4.257s-2.587,16.034,4.257,20.527
			c6.844,4.493,16.034,2.587,20.527-4.257C842.363,558.466,840.459,549.288,833.629,544.786z"/>
		<path d="M881.901,506.915c0.392-6.943-4.919-12.889-11.862-13.281s-12.889,4.919-13.281,11.862
			c-0.391,6.938,4.911,12.882,11.849,13.28C875.552,519.168,881.502,513.859,881.901,506.915z"/>
		<path d="M916.783,497.946c-4.497-0.259-8.352,3.177-8.611,7.673c-0.259,4.497,3.177,8.352,7.673,8.611
			c4.497,0.259,8.352-3.177,8.611-7.673c0,0,0,0,0-0.001C924.707,502.063,921.276,498.212,916.783,497.946z"/>
		<path d="M883.94,578.814c-4.793-3.139-11.223-1.799-14.362,2.994c-3.139,4.793-1.799,11.223,2.994,14.362
			c4.79,3.137,11.216,1.8,14.357-2.987c3.143-4.79,1.808-11.221-2.982-14.364C883.945,578.817,883.943,578.815,883.94,578.814z"/>
		<path d="M652.497,654.956c-3.766-2.471-8.822-1.422-11.293,2.344c-2.471,3.766-1.422,8.822,2.344,11.293
			c3.764,2.47,8.818,1.422,11.291-2.341c2.473-3.765,1.426-8.821-2.338-11.294C652.499,654.957,652.498,654.957,652.497,654.956z"/>
		<path d="M823.434,654.102c-4.022,2.027-5.639,6.931-3.612,10.954c2.027,4.022,6.931,5.639,10.954,3.612s5.639-6.931,3.612-10.954
			c0-0.001-0.001-0.002-0.001-0.003c-2.018-4.018-6.912-5.639-10.93-3.62C823.449,654.094,823.442,654.098,823.434,654.102z"/>
		<path d="M728.708,571.801c7.631-11.646,4.377-27.273-7.269-34.905c-11.646-7.631-27.273-4.377-34.905,7.269
			s-4.377,27.273,7.269,34.905c4.101,2.687,8.896,4.12,13.799,4.124C716.115,583.224,724.061,578.934,728.708,571.801z"/>
		<path d="M678.328,610.499c-5.82-3.807-13.623-2.176-17.43,3.644s-2.176,13.623,3.644,17.43c5.815,3.804,13.613,2.178,17.424-3.633
			C685.772,622.119,684.144,614.314,678.328,610.499z"/>
		<path d="M737.112,658.758c-5.72-0.325-10.621,4.048-10.946,9.768s4.048,10.621,9.768,10.946
			c5.717,0.325,10.617-4.044,10.946-9.762c0.329-5.72-4.041-10.623-9.761-10.952C737.116,658.758,737.114,658.758,737.112,658.758z"
			/>
		<path d="M737.222,593.485c-8.172-0.497-15.199,5.725-15.695,13.897c-0.497,8.172,5.725,15.199,13.897,15.695
			c8.172,0.497,15.199-5.725,15.695-13.897c0.001-0.02,0.002-0.039,0.003-0.059C751.593,600.969,745.374,593.973,737.222,593.485z"
			/>
		<path d="M797.852,609.494c-6.208,3.15-8.688,10.737-5.537,16.945c3.15,6.208,10.737,8.688,16.945,5.537
			c6.208-3.15,8.688-10.737,5.537-16.945c-0.005-0.009-0.009-0.018-0.014-0.027c-3.144-6.194-10.715-8.666-16.909-5.522
			C797.866,609.486,797.859,609.49,797.852,609.494z"/>
		<path d="M1076.052,446.918c24.412,0,41.508,13.418,41.508,38.326h31.975c0-43.699-32.223-64.749-73.965-64.749
			c-51.276,0-81.06,27.842-81.06,86.681c0,60.299,29.785,86.667,81.06,86.667c42.238,0,73.965-20.499,73.965-64.212h-30.763
			c0,24.412-16.849,37.844-42.707,37.844c-33.945,0-49.595-18.805-49.595-57.861v-4.877
			C1026.498,466.44,1042.355,446.918,1076.052,446.918z"/>
		<path d="M1234.081,423.471l-65.19,167.493h32.237l13.418-36.383h76.611l13.776,36.383h33.697l-65.231-167.493H1234.081z
			 M1224.314,528.172l17.096-45.917c3.417-9.024,9.52-28.558,10.746-31.975h1.212c1.226,3.417,7.329,23.186,10.746,31.975
			l17.083,45.903L1224.314,528.172z"/>
		<path d="M1512.957,474.251c0-30.997-17.827-50.78-54.692-50.78h-88.389v167.493h31.259v-64.749h51.992l31.686,64.749h34.179
			l-35.819-69.585C1502.941,513.569,1512.957,496.968,1512.957,474.251z M1455.812,499.889h-54.678v-49.802h54.678
			c16.849,0,25.638,9.037,25.638,24.164C1481.45,490.135,1471.93,499.889,1455.812,499.889z"/>
		<path d="M1622.589,423.471h-66.926v167.493h66.898c50.532,0,81.281-26.368,81.281-83.747S1673.121,423.471,1622.589,423.471z
			 M1671.908,509.656c-0.248,36.631-17.579,54.692-49.319,54.692h-35.64V450.087h35.64c31.686,0,49.319,18.075,49.319,54.692
			V509.656z"/>
		<path d="M1785.729,423.471l-65.218,167.493h32.223l13.432-36.383h76.666l13.666,36.383h33.697l-65.19-167.493H1785.729z
			 M1775.962,528.172l17.069-45.917c3.417-9.024,9.519-28.558,10.745-31.975h1.24c1.212,3.417,7.329,23.186,10.745,31.975
			l17.083,45.903L1775.962,528.172z"/>
		<path d="M2033.07,523.088c0,3.169,0.482,11.71,0.482,13.184l-1.212,0.482c-0.73-0.964-5.621-9.519-8.266-13.418l-72.753-99.865
			h-29.826v167.493h30.032V490.617c0-4.133-0.496-12.206-0.496-13.432l1.226-0.73c0.73,0.978,4.395,8.059,8.266,13.68
			l73.249,100.829h29.289V423.471h-30.019v99.617H2033.07z"/>
		<path d="M2187.559,420.55c-52.488,0-84.229,27.828-84.229,86.667s31.686,86.667,84.229,86.667s84.477-27.828,84.477-86.667
			S2240.047,420.55,2187.559,420.55z M2240.047,509.904c0,38.326-18.309,57.613-52.488,57.613c-33.931,0-52.24-19.287-52.24-57.613
			v-5.125c0-38.34,18.557-57.861,52.24-57.861c33.945,0,52.488,19.521,52.488,57.861V509.904z"/>
	</g>
</g>
</svg>
