<?xml version="1.0" encoding="UTF-8"?><svg xmlns="http://www.w3.org/2000/svg" viewBox="0 0 4000 890.67"><defs><style>.cls-1{letter-spacing:0em;}.cls-2,.cls-3{font-family:FiraCode-Medium, 'Fira Code';font-size:60px;font-variation-settings:'wght' 500;font-weight:500;}.cls-3,.cls-4{fill:#b4b3b7;}.cls-5{stroke:#fff;stroke-width:7px;}.cls-5,.cls-6,.cls-7,.cls-8,.cls-9{stroke-miterlimit:10;}.cls-5,.cls-6,.cls-10,.cls-9{fill:none;}.cls-6,.cls-7{stroke-width:3px;}.cls-6,.cls-7,.cls-8{stroke:#b7b6bb;}.cls-7{fill:#b7b6bb;}.cls-10{stroke:#dbdbdd;stroke-dasharray:.25 50;stroke-linecap:round;stroke-linejoin:round;}.cls-10,.cls-9{stroke-width:6px;}.cls-11{letter-spacing:0em;}.cls-12{letter-spacing:-.4em;}.cls-13{letter-spacing:-.4em;}.cls-8{fill:#fff;stroke-width:3px;}.cls-9{stroke:#000;}</style></defs><g id="Background"><rect class="cls-8" x="20" y="20" width="3960" height="850" rx="17.97" ry="17.97"/></g><g id="Dots"><line class="cls-10" x1="40.43" y1="831.21" x2="3960.61" y2="831.21"/><line class="cls-10" x1="40.43" y1="782.46" x2="3960.61" y2="782.46"/><line class="cls-10" x1="40.43" y1="733.71" x2="3960.61" y2="733.71"/><line class="cls-10" x1="40.43" y1="684.96" x2="3960.61" y2="684.96"/><line class="cls-10" x1="40.43" y1="636.21" x2="3960.61" y2="636.21"/><line class="cls-10" x1="40.43" y1="587.46" x2="3960.61" y2="587.46"/><line class="cls-10" x1="40.43" y1="538.71" x2="3960.61" y2="538.71"/><line class="cls-10" x1="40.43" y1="489.97" x2="3960.61" y2="489.97"/><line class="cls-10" x1="40.43" y1="441.22" x2="3960.61" y2="441.22"/><line class="cls-10" x1="40.43" y1="392.47" x2="3960.61" y2="392.47"/><line class="cls-10" x1="40.43" y1="343.72" x2="3960.61" y2="343.72"/><line class="cls-10" x1="40.43" y1="294.97" x2="3960.61" y2="294.97"/><line class="cls-10" x1="40.43" y1="246.22" x2="3960.61" y2="246.22"/><line class="cls-10" x1="40.43" y1="197.47" x2="3960.61" y2="197.47"/><line class="cls-10" x1="40.43" y1="148.72" x2="3960.61" y2="148.72"/><line class="cls-10" x1="40.43" y1="99.97" x2="3960.61" y2="99.97"/><line class="cls-10" x1="40.43" y1="51.22" x2="3960.61" y2="51.22"/></g><g id="Text"><circle class="cls-4" cx="851.32" cy="764.62" r="11.33"/><rect class="cls-9" x="50" y="50" width="600" height="280"/><text class="cls-2" transform="translate(84.59 131.83)"><tspan x="0" y="0">When</tspan><tspan x="0" y="80">Deposit (.</tspan><tspan class="cls-12" x="359.99" y="80"> </tspan><tspan class="cls-11" x="372.21" y="80">.</tspan><tspan class="cls-12" x="408.21" y="80"> </tspan><tspan x="420.43" y="80">.)</tspan><tspan x="0" y="160">on timeout:</tspan></text><rect class="cls-6" x="858" y="50" width="608.01" height="280" rx="18" ry="18"/><text class="cls-3" transform="translate(896.59 130.49)"><tspan x="0" y="0">When</tspan><tspan x="0" y="80">Deposit (.</tspan><tspan class="cls-12" x="359.99" y="80"> </tspan><tspan class="cls-11" x="372.21" y="80">.</tspan><tspan class="cls-12" x="408.21" y="80"> </tspan><tspan x="420.43" y="80">.)</tspan><tspan x="0" y="160">on timeout:</tspan></text><rect class="cls-6" x="1666" y="50" width="613.01" height="280" rx="18" ry="18"/><text class="cls-3" transform="translate(1704.59 130.49)"><tspan x="0" y="0">When</tspan><tspan x="0" y="80">Choice (.</tspan><tspan class="cls-12" x="324" y="80"> </tspan><tspan x="336.21" y="80">.</tspan><tspan class="cls-12" x="372.21" y="80"> </tspan><tspan class="cls-11" x="384.43" y="80">.)</tspan><tspan x="0" y="160">on timeout:</tspan></text><rect class="cls-6" x="857.29" y="702" width="600" height="126.52" rx="12.1" ry="12.1"/><text class="cls-3" transform="translate(1067.29 782.49)"><tspan x="0" y="0">Close</tspan></text><rect class="cls-6" x="1665.29" y="538.44" width="600" height="126.52" rx="12.1" ry="12.1"/><text class="cls-3" transform="translate(1875.29 618.94)"><tspan x="0" y="0">Close</tspan></text><rect class="cls-6" x="2484.84" y="376.67" width="608.01" height="126.52" rx="12.1" ry="12.1"/><text class="cls-3" transform="translate(2694.85 457.16)"><tspan x="0" y="0">Close</tspan></text><rect class="cls-6" x="2484.84" y="50" width="611" height="126.52" rx="12.13" ry="12.13"/><text class="cls-3" transform="translate(2628.63 130.49)"><tspan x="0" y="0">If (.</tspan><tspan class="cls-13" x="180" y="0"> </tspan><tspan x="192.21" y="0">.</tspan><tspan class="cls-12" x="228.21" y="0"> </tspan><tspan class="cls-1" x="240.43" y="0">.)</tspan></text><rect class="cls-6" x="3304.4" y="50" width="605" height="126.52" rx="12.1" ry="12.1"/><text class="cls-3" transform="translate(3430.19 130.49)"><tspan x="0" y="0">Pay (.</tspan><tspan class="cls-13" x="216" y="0"> </tspan><tspan x="228.21" y="0">.</tspan><tspan class="cls-13" x="264.21" y="0"> </tspan><tspan x="276.43" y="0">.)</tspan></text><rect class="cls-6" x="3304.4" y="211.78" width="605" height="126.52" rx="12.1" ry="12.1"/><text class="cls-3" transform="translate(3430.19 292.27)"><tspan x="0" y="0">Pay (.</tspan><tspan class="cls-13" x="216" y="0"> </tspan><tspan x="228.21" y="0">.</tspan><tspan class="cls-13" x="264.21" y="0"> </tspan><tspan x="276.43" y="0">.)</tspan></text><path class="cls-6" d="M669.17,240.39s49.19,1.78,77.04-54.52c0,0,39.11-77.04,90.07-74.67"/><path class="cls-6" d="M671.98,274.32s37.33-29.33,82.67,230.67c0,0,38.67,279.26,85.33,259.63"/><path class="cls-6" d="M1485.17,240.39s49.19,1.78,77.04-54.52c0,0,39.11-77.04,90.07-74.67"/><path class="cls-6" d="M2307.95,240.39s44.18,1.78,72.03-54.52c0,0,39.11-77.04,90.07-74.67"/><path class="cls-6" d="M1487.98,274.32s44-13.78,92,192.44c0,0,29.78,152.96,76.44,133.33"/><path class="cls-6" d="M2304.99,271.21s37.66-3.56,80.33,87.11c0,0,28.44,80,76.44,78.22"/><path class="cls-7" d="M3114.2,81.88s47.11,3.56,101.33,18.67c0,0,26.67,8,65.78,9.78"/><path class="cls-6" d="M3115.09,147.65s34.67-6.22,81.78,57.78c0,0,31.11,64.89,84.44,66.67"/><circle class="cls-5" cx="663.99" cy="242.99" r="11.33"/><circle cx="663.99" cy="242.99" r="11.33"/><circle class="cls-5" cx="663.99" cy="275.73" r="11.33"/><circle cx="663.99" cy="275.73" r="11.33"/><circle class="cls-4" cx="851.32" cy="112.62" r="11.33"/><circle class="cls-4" cx="1469.99" cy="242.99" r="11.33"/><circle class="cls-4" cx="1469.99" cy="275.73" r="11.33"/><circle class="cls-4" cx="1659.32" cy="112.62" r="11.33"/><circle class="cls-4" cx="1659.32" cy="601.06" r="11.33"/><circle class="cls-4" cx="2282.99" cy="242.99" r="11.33"/><circle class="cls-4" cx="2282.99" cy="275.73" r="11.33"/><circle class="cls-4" cx="2478.87" cy="439.28" r="11.33"/><circle class="cls-4" cx="2478.87" cy="112.62" r="11.33"/><circle class="cls-4" cx="3098.99" cy="82.99" r="11.33"/><circle class="cls-4" cx="3098.99" cy="146.65" r="11.33"/><circle class="cls-4" cx="3298.42" cy="112.62" r="11.33"/><circle class="cls-4" cx="3298.42" cy="274.39" r="11.33"/><circle class="cls-4" cx="3911.43" cy="112.62" r="11.33"/><circle class="cls-4" cx="3911.43" cy="274.39" r="11.33"/></g></svg>