<?xml version="1.0" encoding="iso-8859-1"?>
<!-- Generator: Adobe Illustrator 29.6.0, SVG Export Plug-In . SVG Version: 9.03 Build 0)  -->
<svg version="1.1" id="Layer_2" xmlns="http://www.w3.org/2000/svg" xmlns:xlink="http://www.w3.org/1999/xlink" x="0px" y="0px"
	 viewBox="0 0 4000 600" style="enable-background:new 0 0 4000 600;" xml:space="preserve">
<polygon style="fill:#0033AD;" points="767.584,20 25,20 213.802,300.532 25,581.064 767.584,581.064 956.387,300.532 "/>
<g>
	<polygon style="fill:#2E60C6;" points="1522.259,20 779.674,20 968.477,300.532 779.674,581.064 1522.259,581.064 
		1711.061,300.532 	"/>
</g>
<g>
	<polygon style="fill:#5885DD;" points="2276.859,20 1534.274,20 1723.076,300.532 1534.274,581.064 2276.859,581.064 
		2465.661,300.532 	"/>
</g>
<g>
	<polygon style="fill:#81A7F2;" points="3031.459,20 2288.874,20 2477.677,300.532 2288.874,581.064 3031.459,581.064 
		3220.261,300.532 	"/>
</g>
<g>
	<polygon style="fill:#A4C0F7;" points="3786.198,20 3043.613,20 3232.416,300.532 3043.613,581.064 3786.198,581.064 3975,300.532 
			"/>
</g>
<g>
	<path style="fill:#FFFFFF;" d="M399.387,256.328v-82.32h38.16c4.32,0,8.28,1.02,11.88,3.06c3.6,2.04,6.459,4.82,8.58,8.34
		c2.119,3.521,3.18,7.44,3.18,11.76v1.44c0,4.32-1.121,8.321-3.36,12c-2.241,3.681-5.181,6.621-8.82,8.82
		c-3.641,2.201-7.661,3.3-12.06,3.3h-22.68v33.6H399.387z M414.267,211.208h19.68c2.4,0,4.519-0.559,6.36-1.68
		c1.839-1.12,3.3-2.64,4.38-4.56s1.62-4.12,1.62-6.6c0-3.52-1.181-6.54-3.54-9.06c-2.361-2.52-5.421-3.78-9.18-3.78h-19.32V211.208z
		"/>
	<path style="fill:#FFFFFF;" d="M474.026,256.328v-86.4h13.92v86.4H474.026z"/>
	<path style="fill:#FFFFFF;" d="M507.385,181.208v-11.28h14.64v11.28H507.385z M507.745,256.328v-61.32h13.92v61.32H507.745z"/>
	<path style="fill:#FFFFFF;" d="M540.265,256.328v-61.32h10.2l1.8,9c2.319-3.36,5.2-5.899,8.64-7.62
		c3.439-1.719,7.279-2.58,11.52-2.58c4.239,0,7.959,0.801,11.16,2.4c3.199,1.602,5.7,3.941,7.5,7.02c1.8,3.081,2.7,6.861,2.7,11.34
		v41.76h-13.92v-39.24c0-4.56-1.061-7.818-3.18-9.78c-2.121-1.959-5.061-2.94-8.82-2.94c-2.48,0-4.761,0.621-6.84,1.86
		c-2.082,1.241-3.741,2.901-4.98,4.98c-1.241,2.082-1.86,4.44-1.86,7.08v38.04H540.265z"/>
	<path style="fill:#FFFFFF;" d="M630.625,257.528c-3.201,0-6.06-0.48-8.58-1.44c-2.52-0.96-4.481-2.539-5.88-4.74
		c-1.401-2.199-2.1-5.1-2.1-8.7v-36.96h-6.72v-10.68h7.08l4.92-19.56h8.64v19.56h14.28v10.68h-14.28v34.2
		c0,3.521,0.72,5.76,2.16,6.72c1.44,0.96,3,1.44,4.68,1.44c0.879,0,2.1-0.199,3.66-0.6c1.56-0.399,2.82-0.799,3.78-1.2v9
		c-0.96,0.48-2.121,0.9-3.48,1.26c-1.361,0.36-2.76,0.619-4.2,0.78C633.145,257.447,631.825,257.528,630.625,257.528z"/>
	<path style="fill:#FFFFFF;" d="M656.784,256.328v-86.4h13.92v33.12c2.239-3.04,4.98-5.34,8.22-6.9c3.24-1.56,6.699-2.34,10.38-2.34
		c4.08,0,7.699,0.801,10.86,2.4c3.16,1.602,5.659,3.941,7.5,7.02c1.84,3.081,2.76,6.861,2.76,11.34v41.76h-13.92v-39.24
		c0-4.56-1.08-7.818-3.24-9.78c-2.16-1.959-5.121-2.94-8.88-2.94c-2.48,0-4.761,0.621-6.84,1.86c-2.082,1.241-3.741,2.901-4.98,4.98
		c-1.241,2.082-1.86,4.44-1.86,7.08v38.04H656.784z"/>
	<path style="fill:#FFFFFF;" d="M286.885,362.375c-3.286-3.712-5.803-7.894-7.552-12.544c-1.75-4.65-2.624-9.472-2.624-14.464
		c0-4.949,0.874-9.749,2.624-14.4c1.749-4.65,4.266-8.832,7.552-12.544h4.096c-1.494,2.432-2.848,5.142-4.064,8.128
		c-1.216,2.987-2.176,6.08-2.88,9.28c-0.704,3.2-1.056,6.379-1.056,9.536c0,3.115,0.352,6.294,1.056,9.536
		c0.704,3.243,1.653,6.358,2.848,9.344c1.194,2.986,2.56,5.696,4.096,8.128H286.885z"/>
	<path style="fill:#FFFFFF;" d="M308.837,352.968c-2.176,0-4.096-0.267-5.76-0.8c-1.664-0.533-3.072-1.248-4.224-2.144
		s-2.027-1.92-2.624-3.072c-0.598-1.152-0.896-2.346-0.896-3.584c0-0.256,0-0.469,0-0.64c0-0.17,0.021-0.405,0.064-0.704h6.4
		c-0.043,0.128-0.064,0.246-0.064,0.352c0,0.107,0,0.203,0,0.288c0,1.195,0.384,2.176,1.152,2.944
		c0.768,0.768,1.781,1.344,3.04,1.728c1.258,0.384,2.656,0.576,4.192,0.576c1.28,0,2.496-0.17,3.648-0.512
		c1.152-0.341,2.09-0.842,2.816-1.504c0.725-0.661,1.088-1.482,1.088-2.464c0-1.109-0.384-1.962-1.152-2.56
		c-0.768-0.597-1.782-1.066-3.04-1.408c-1.259-0.341-2.646-0.64-4.16-0.896c-1.515-0.256-3.04-0.565-4.576-0.928
		c-1.536-0.362-2.934-0.874-4.192-1.536c-1.259-0.661-2.272-1.568-3.04-2.72c-0.768-1.152-1.152-2.666-1.152-4.544
		c0-1.536,0.341-2.922,1.024-4.16c0.682-1.237,1.642-2.272,2.88-3.104c1.237-0.832,2.688-1.472,4.352-1.92
		c1.664-0.448,3.456-0.672,5.376-0.672h1.024c1.792,0,3.466,0.235,5.024,0.704c1.557,0.47,2.912,1.11,4.064,1.92
		c1.152,0.811,2.048,1.75,2.688,2.816c0.64,1.067,0.96,2.198,0.96,3.392c0,0.214-0.011,0.448-0.032,0.704
		c-0.022,0.256-0.032,0.427-0.032,0.512h-6.464v-0.64c0-0.426-0.107-0.885-0.32-1.376c-0.214-0.49-0.598-0.96-1.152-1.408
		c-0.555-0.448-1.291-0.821-2.208-1.12c-0.918-0.298-2.08-0.448-3.488-0.448c-1.28,0-2.368,0.128-3.264,0.384
		c-0.896,0.256-1.622,0.587-2.176,0.992c-0.555,0.406-0.95,0.843-1.184,1.312c-0.235,0.47-0.352,0.918-0.352,1.344
		c0,0.982,0.384,1.75,1.152,2.304c0.768,0.555,1.792,0.992,3.072,1.312c1.28,0.32,2.688,0.598,4.224,0.832
		c1.536,0.235,3.061,0.534,4.576,0.896c1.514,0.363,2.912,0.886,4.192,1.568c1.28,0.683,2.304,1.6,3.072,2.752
		c0.768,1.152,1.152,2.667,1.152,4.544c0,1.963-0.374,3.638-1.12,5.024c-0.747,1.387-1.782,2.486-3.104,3.296
		c-1.323,0.811-2.827,1.408-4.512,1.792c-1.686,0.384-3.467,0.576-5.344,0.576H308.837z"/>
	<path style="fill:#FFFFFF;" d="M342.821,352.968c-3.371,0-6.038-0.928-8-2.784c-1.963-1.856-2.944-4.661-2.944-8.416v-22.144h7.424
		v20.48c0,2.603,0.522,4.459,1.568,5.568c1.045,1.11,2.57,1.664,4.576,1.664c1.365,0,2.624-0.33,3.776-0.992
		c1.152-0.661,2.08-1.557,2.784-2.688c0.704-1.13,1.056-2.378,1.056-3.744v-20.288h7.424v26.048c0,0.811,0.192,1.387,0.576,1.728
		c0.384,0.342,0.81,0.512,1.28,0.512c0.469,0,0.938-0.085,1.408-0.256c0.469-0.17,0.917-0.362,1.344-0.576v4.544
		c-0.555,0.427-1.259,0.757-2.112,0.992c-0.854,0.234-1.856,0.352-3.008,0.352c-1.408,0-2.56-0.246-3.456-0.736
		c-0.896-0.49-1.568-1.152-2.016-1.984c-0.448-0.832-0.779-1.717-0.992-2.656c-1.067,1.707-2.571,3.03-4.512,3.968
		C347.055,352.498,344.997,352.968,342.821,352.968z"/>
	<path style="fill:#FFFFFF;" d="M388.325,352.968c-4.822,0-8.491-1.941-11.008-5.824l-2.56,5.184h-2.752v-46.08h7.424v17.408
		c0.853-1.237,2.101-2.325,3.744-3.264c1.642-0.938,3.573-1.408,5.792-1.408c2.346,0,4.49,0.544,6.432,1.632
		c1.941,1.088,3.488,2.774,4.64,5.056c1.152,2.283,1.728,5.216,1.728,8.8v1.472c0,3.926-0.608,7.147-1.824,9.664
		c-1.216,2.518-2.838,4.374-4.864,5.568C393.049,352.37,390.798,352.968,388.325,352.968z M386.853,347.912
		c1.365,0,2.581-0.341,3.648-1.024c1.066-0.682,1.909-1.749,2.528-3.2c0.618-1.45,0.928-3.349,0.928-5.696v-4.544
		c0-2.09-0.299-3.818-0.896-5.184c-0.598-1.365-1.408-2.389-2.432-3.072c-1.024-0.682-2.219-1.024-3.584-1.024
		c-1.366,0-2.624,0.342-3.776,1.024c-1.152,0.683-2.08,1.718-2.784,3.104c-0.704,1.387-1.056,3.126-1.056,5.216v4.544
		c0,2.347,0.33,4.246,0.992,5.696c0.661,1.451,1.557,2.507,2.688,3.168C384.239,347.582,385.486,347.912,386.853,347.912z"/>
	<path style="fill:#FFFFFF;" d="M421.348,352.968c-2.176,0-4.096-0.267-5.76-0.8c-1.664-0.533-3.072-1.248-4.224-2.144
		s-2.027-1.92-2.624-3.072c-0.598-1.152-0.896-2.346-0.896-3.584c0-0.256,0-0.469,0-0.64c0-0.17,0.021-0.405,0.064-0.704h6.4
		c-0.043,0.128-0.064,0.246-0.064,0.352c0,0.107,0,0.203,0,0.288c0,1.195,0.384,2.176,1.152,2.944
		c0.768,0.768,1.781,1.344,3.04,1.728c1.258,0.384,2.656,0.576,4.192,0.576c1.28,0,2.496-0.17,3.648-0.512
		c1.152-0.341,2.09-0.842,2.816-1.504c0.725-0.661,1.088-1.482,1.088-2.464c0-1.109-0.384-1.962-1.152-2.56
		c-0.768-0.597-1.782-1.066-3.04-1.408c-1.259-0.341-2.646-0.64-4.16-0.896c-1.515-0.256-3.04-0.565-4.576-0.928
		c-1.536-0.362-2.934-0.874-4.192-1.536c-1.259-0.661-2.272-1.568-3.04-2.72c-0.768-1.152-1.152-2.666-1.152-4.544
		c0-1.536,0.341-2.922,1.024-4.16c0.682-1.237,1.642-2.272,2.88-3.104c1.237-0.832,2.688-1.472,4.352-1.92
		c1.664-0.448,3.456-0.672,5.376-0.672h1.024c1.792,0,3.466,0.235,5.024,0.704c1.557,0.47,2.912,1.11,4.064,1.92
		c1.152,0.811,2.048,1.75,2.688,2.816c0.64,1.067,0.96,2.198,0.96,3.392c0,0.214-0.011,0.448-0.032,0.704
		c-0.022,0.256-0.032,0.427-0.032,0.512h-6.464v-0.64c0-0.426-0.107-0.885-0.32-1.376c-0.214-0.49-0.598-0.96-1.152-1.408
		c-0.555-0.448-1.291-0.821-2.208-1.12c-0.918-0.298-2.08-0.448-3.488-0.448c-1.28,0-2.368,0.128-3.264,0.384
		c-0.896,0.256-1.622,0.587-2.176,0.992c-0.555,0.406-0.95,0.843-1.184,1.312c-0.235,0.47-0.352,0.918-0.352,1.344
		c0,0.982,0.384,1.75,1.152,2.304c0.768,0.555,1.792,0.992,3.072,1.312c1.28,0.32,2.688,0.598,4.224,0.832
		c1.536,0.235,3.061,0.534,4.576,0.896c1.514,0.363,2.912,0.886,4.192,1.568c1.28,0.683,2.304,1.6,3.072,2.752
		c0.768,1.152,1.152,2.667,1.152,4.544c0,1.963-0.374,3.638-1.12,5.024c-0.747,1.387-1.782,2.486-3.104,3.296
		c-1.323,0.811-2.827,1.408-4.512,1.792c-1.686,0.384-3.467,0.576-5.344,0.576H421.348z"/>
	<path style="fill:#FFFFFF;" d="M458.276,352.968c-2.987,0-5.611-0.63-7.872-1.888c-2.262-1.258-4.022-3.104-5.28-5.536
		c-1.259-2.432-1.888-5.376-1.888-8.832v-1.472c0-3.456,0.672-6.4,2.016-8.832c1.344-2.432,3.178-4.277,5.504-5.536
		c2.325-1.258,4.981-1.888,7.968-1.888h0.832c2.773,0,5.205,0.566,7.296,1.696c2.09,1.131,3.712,2.742,4.864,4.832
		c1.152,2.091,1.728,4.544,1.728,7.36v4.032h-22.464c0,2.262,0.298,4.224,0.896,5.888c0.597,1.664,1.482,2.934,2.656,3.808
		c1.173,0.875,2.634,1.312,4.384,1.312c1.45,0,2.741-0.288,3.872-0.864c1.13-0.576,2.026-1.44,2.688-2.592
		c0.661-1.152,0.992-2.581,0.992-4.288h6.976c0,2.56-0.64,4.8-1.92,6.72c-1.28,1.92-3.008,3.414-5.184,4.48
		c-2.176,1.066-4.651,1.6-7.424,1.6H458.276z M451.043,332.808h15.104c0-2.986-0.651-5.194-1.952-6.624
		c-1.302-1.429-3.083-2.144-5.344-2.144c-2.134,0-3.936,0.736-5.408,2.208C451.972,327.72,451.172,329.907,451.043,332.808z"/>
	<path style="fill:#FFFFFF;" d="M491.811,352.968c-1.707,0-3.232-0.256-4.576-0.768c-1.344-0.512-2.39-1.354-3.136-2.528
		c-0.747-1.173-1.12-2.72-1.12-4.64V325.32h-3.584v-5.696h3.776l2.624-10.432h4.608v10.432h7.616v5.696h-7.616v18.24
		c0,1.878,0.384,3.072,1.152,3.584c0.768,0.512,1.6,0.768,2.496,0.768c0.469,0,1.12-0.106,1.952-0.32
		c0.832-0.213,1.504-0.426,2.016-0.64v4.8c-0.512,0.256-1.131,0.48-1.856,0.672c-0.726,0.192-1.472,0.33-2.24,0.416
		C493.155,352.925,492.451,352.968,491.811,352.968z"/>
	<path style="fill:#FFFFFF;" d="M533.666,352.968c-2.902,0-5.504-0.661-7.808-1.984c-2.304-1.322-4.107-3.221-5.408-5.696
		c-1.302-2.474-1.952-5.397-1.952-8.768v-1.088c0-3.413,0.65-6.346,1.952-8.8c1.301-2.453,3.093-4.341,5.376-5.664
		c2.282-1.322,4.874-1.984,7.776-1.984h1.024c2.944,0,5.557,0.662,7.84,1.984c2.282,1.323,4.074,3.211,5.376,5.664
		c1.301,2.454,1.952,5.387,1.952,8.8v1.088c0,3.371-0.651,6.294-1.952,8.768c-1.302,2.475-3.094,4.374-5.376,5.696
		c-2.283,1.323-4.875,1.984-7.776,1.984H533.666z M534.114,347.912c1.493,0,2.826-0.352,4-1.056c1.173-0.704,2.112-1.76,2.816-3.168
		c0.704-1.408,1.056-3.114,1.056-5.12v-5.184c0-2.048-0.352-3.765-1.056-5.152c-0.704-1.386-1.643-2.432-2.816-3.136
		c-1.174-0.704-2.507-1.056-4-1.056c-1.451,0-2.763,0.352-3.936,1.056c-1.174,0.704-2.112,1.75-2.816,3.136
		c-0.704,1.387-1.056,3.104-1.056,5.152v5.184c0,2.006,0.352,3.712,1.056,5.12c0.704,1.408,1.642,2.464,2.816,3.168
		C531.351,347.56,532.663,347.912,534.114,347.912z"/>
	<path style="fill:#FFFFFF;" d="M559.458,352.328V325.32h-3.776v-5.696h3.776v-5.632c0-2.901,0.832-5.002,2.496-6.304
		c1.664-1.301,3.776-1.952,6.336-1.952c0.64,0,1.344,0.054,2.112,0.16c0.768,0.107,1.525,0.246,2.272,0.416
		c0.746,0.171,1.376,0.384,1.888,0.64v4.736c-0.512-0.213-1.184-0.405-2.016-0.576c-0.832-0.17-1.483-0.256-1.952-0.256
		c-0.555,0-1.12,0.086-1.696,0.256c-0.576,0.171-1.056,0.534-1.44,1.088c-0.384,0.555-0.576,1.451-0.576,2.688v4.736h7.68v5.696
		h-7.68v27.008H559.458z"/>
	<path style="fill:#FFFFFF;" d="M596.449,352.328v-43.904h7.936v18.304h17.728v-18.304h7.936v43.904h-7.872v-19.2h-17.728v19.2
		H596.449z"/>
	<path style="fill:#FFFFFF;" d="M648.545,352.968c-1.75,0-3.424-0.278-5.024-0.832c-1.6-0.554-2.912-1.504-3.936-2.848
		c-1.024-1.344-1.536-3.168-1.536-5.472c0-2.346,0.522-4.245,1.568-5.696c1.045-1.45,2.528-2.56,4.448-3.328s4.224-1.29,6.912-1.568
		c2.688-0.277,5.674-0.416,8.96-0.416v-3.072c0-2.133-0.544-3.637-1.632-4.512c-1.088-0.874-2.742-1.312-4.96-1.312
		c-1.835,0-3.456,0.406-4.864,1.216c-1.408,0.811-2.112,2.091-2.112,3.84v0.64h-7.168c-0.043-0.17-0.064-0.373-0.064-0.608
		c0-0.234,0-0.458,0-0.672c0-1.877,0.586-3.52,1.76-4.928c1.173-1.408,2.805-2.496,4.896-3.264c2.09-0.768,4.48-1.152,7.168-1.152
		h1.088c4.437,0,7.744,0.875,9.92,2.624c2.176,1.75,3.264,4.203,3.264,7.36v16.704c0,0.811,0.192,1.387,0.576,1.728
		c0.384,0.342,0.81,0.512,1.28,0.512c0.426,0,0.885-0.085,1.376-0.256c0.49-0.17,0.949-0.362,1.376-0.576v4.544
		c-0.555,0.427-1.259,0.757-2.112,0.992c-0.854,0.234-1.878,0.352-3.072,0.352c-1.408,0-2.571-0.256-3.488-0.768
		c-0.918-0.512-1.611-1.205-2.08-2.08c-0.47-0.874-0.747-1.866-0.832-2.976c-1.238,1.835-2.838,3.264-4.8,4.288
		C653.494,352.456,651.19,352.968,648.545,352.968z M651.745,347.912c1.365,0,2.666-0.309,3.904-0.928
		c1.237-0.618,2.261-1.546,3.072-2.784c0.81-1.237,1.216-2.794,1.216-4.672v-2.496c-2.987,0-5.547,0.16-7.68,0.48
		c-2.134,0.32-3.755,0.907-4.864,1.76c-1.11,0.854-1.664,2.134-1.664,3.84c0,1.707,0.512,2.934,1.536,3.68
		C648.289,347.539,649.782,347.912,651.745,347.912z"/>
	<path style="fill:#FFFFFF;" d="M690.08,352.968c-2.176,0-4.096-0.267-5.76-0.8c-1.664-0.533-3.072-1.248-4.224-2.144
		s-2.027-1.92-2.624-3.072c-0.598-1.152-0.896-2.346-0.896-3.584c0-0.256,0-0.469,0-0.64c0-0.17,0.021-0.405,0.064-0.704h6.4
		c-0.043,0.128-0.064,0.246-0.064,0.352c0,0.107,0,0.203,0,0.288c0,1.195,0.384,2.176,1.152,2.944
		c0.768,0.768,1.781,1.344,3.04,1.728c1.258,0.384,2.656,0.576,4.192,0.576c1.28,0,2.496-0.17,3.648-0.512
		c1.152-0.341,2.09-0.842,2.816-1.504c0.725-0.661,1.088-1.482,1.088-2.464c0-1.109-0.384-1.962-1.152-2.56
		c-0.768-0.597-1.782-1.066-3.04-1.408c-1.259-0.341-2.646-0.64-4.16-0.896c-1.515-0.256-3.04-0.565-4.576-0.928
		c-1.536-0.362-2.934-0.874-4.192-1.536c-1.259-0.661-2.272-1.568-3.04-2.72c-0.768-1.152-1.152-2.666-1.152-4.544
		c0-1.536,0.341-2.922,1.024-4.16c0.682-1.237,1.642-2.272,2.88-3.104c1.237-0.832,2.688-1.472,4.352-1.92
		c1.664-0.448,3.456-0.672,5.376-0.672h1.024c1.792,0,3.466,0.235,5.024,0.704c1.557,0.47,2.912,1.11,4.064,1.92
		c1.152,0.811,2.048,1.75,2.688,2.816c0.64,1.067,0.96,2.198,0.96,3.392c0,0.214-0.011,0.448-0.032,0.704
		c-0.022,0.256-0.032,0.427-0.032,0.512h-6.464v-0.64c0-0.426-0.107-0.885-0.32-1.376c-0.214-0.49-0.598-0.96-1.152-1.408
		c-0.555-0.448-1.291-0.821-2.208-1.12c-0.918-0.298-2.08-0.448-3.488-0.448c-1.28,0-2.368,0.128-3.264,0.384
		c-0.896,0.256-1.622,0.587-2.176,0.992c-0.555,0.406-0.95,0.843-1.184,1.312c-0.235,0.47-0.352,0.918-0.352,1.344
		c0,0.982,0.384,1.75,1.152,2.304c0.768,0.555,1.792,0.992,3.072,1.312c1.28,0.32,2.688,0.598,4.224,0.832
		c1.536,0.235,3.061,0.534,4.576,0.896c1.514,0.363,2.912,0.886,4.192,1.568c1.28,0.683,2.304,1.6,3.072,2.752
		c0.768,1.152,1.152,2.667,1.152,4.544c0,1.963-0.374,3.638-1.12,5.024c-0.747,1.387-1.782,2.486-3.104,3.296
		c-1.323,0.811-2.827,1.408-4.512,1.792c-1.686,0.384-3.467,0.576-5.344,0.576H690.08z"/>
	<path style="fill:#FFFFFF;" d="M713.44,352.328v-46.08h7.424v30.336l14.016-16.96h8.704l-12.864,15.04l13.504,17.664h-8.96
		L725.6,339.72l-4.736,4.864v7.744H713.44z"/>
	<path style="fill:#FFFFFF;" d="M762.528,352.968c-2.987,0-5.611-0.63-7.872-1.888c-2.262-1.258-4.022-3.104-5.28-5.536
		c-1.259-2.432-1.888-5.376-1.888-8.832v-1.472c0-3.456,0.672-6.4,2.016-8.832c1.344-2.432,3.178-4.277,5.504-5.536
		c2.325-1.258,4.981-1.888,7.968-1.888h0.832c2.773,0,5.205,0.566,7.296,1.696c2.09,1.131,3.712,2.742,4.864,4.832
		c1.152,2.091,1.728,4.544,1.728,7.36v4.032h-22.464c0,2.262,0.298,4.224,0.896,5.888c0.597,1.664,1.482,2.934,2.656,3.808
		c1.173,0.875,2.634,1.312,4.384,1.312c1.45,0,2.741-0.288,3.872-0.864c1.13-0.576,2.026-1.44,2.688-2.592
		c0.661-1.152,0.992-2.581,0.992-4.288h6.976c0,2.56-0.64,4.8-1.92,6.72c-1.28,1.92-3.008,3.414-5.184,4.48
		c-2.176,1.066-4.651,1.6-7.424,1.6H762.528z M755.295,332.808h15.104c0-2.986-0.651-5.194-1.952-6.624
		c-1.302-1.429-3.083-2.144-5.344-2.144c-2.134,0-3.936,0.736-5.408,2.208C756.224,327.72,755.424,329.907,755.295,332.808z"/>
	<path style="fill:#FFFFFF;" d="M785.823,352.328v-46.08h7.424v46.08H785.823z"/>
	<path style="fill:#FFFFFF;" d="M802.974,352.328v-46.08h7.424v46.08H802.974z"/>
	<path style="fill:#FFFFFF;" d="M816.862,362.375c1.536-2.432,2.912-5.142,4.128-8.128c1.216-2.986,2.165-6.101,2.848-9.344
		c0.682-3.242,1.024-6.421,1.024-9.536c0-3.157-0.352-6.336-1.056-9.536c-0.704-3.2-1.654-6.293-2.848-9.28
		c-1.195-2.986-2.56-5.696-4.096-8.128h4.096c3.285,3.712,5.802,7.894,7.552,12.544c1.749,4.651,2.624,9.451,2.624,14.4
		c0,4.992-0.875,9.814-2.624,14.464c-1.75,4.65-4.267,8.832-7.552,12.544H816.862z"/>
</g>
<g>
	<path style="fill:#FFFFFF;" d="M2705.465,256.328v-82.32h38.16c4.32,0,8.279,1.02,11.88,3.06c3.6,2.04,6.459,4.82,8.579,8.34
		c2.119,3.521,3.181,7.44,3.181,11.76v1.44c0,4.32-1.121,8.321-3.36,12c-2.24,3.681-5.18,6.621-8.82,8.82
		c-3.641,2.201-7.66,3.3-12.06,3.3h-22.68v33.6H2705.465z M2720.345,211.208h19.68c2.4,0,4.519-0.559,6.36-1.68
		c1.84-1.12,3.3-2.64,4.38-4.56s1.62-4.12,1.62-6.6c0-3.52-1.182-6.54-3.54-9.06c-2.36-2.52-5.421-3.78-9.181-3.78h-19.319V211.208z
		"/>
	<path style="fill:#FFFFFF;" d="M2780.586,256.328v-82.32h14.88v70.8h36l1.8,11.52H2780.586z"/>
	<path style="fill:#FFFFFF;" d="M2875.024,257.528c-4.722,0-9.141-0.681-13.26-2.04c-4.122-1.359-7.722-3.559-10.8-6.6
		c-3.081-3.04-5.502-7.02-7.26-11.94c-1.762-4.92-2.641-10.939-2.641-18.06v-7.44c0-6.96,0.879-12.9,2.641-17.82
		c1.758-4.92,4.179-8.919,7.26-12c3.078-3.079,6.639-5.319,10.68-6.72c4.039-1.399,8.379-2.1,13.02-2.1h1.801
		c4.32,0,8.418,0.6,12.3,1.8c3.88,1.2,7.3,3.102,10.26,5.7c2.959,2.601,5.299,6,7.021,10.2c1.719,4.2,2.58,9.3,2.58,15.3h-14.041
		c0-5.679-0.82-10.06-2.459-13.14c-1.641-3.079-3.9-5.239-6.78-6.48c-2.88-1.239-6.161-1.86-9.841-1.86
		c-2.721,0-5.24,0.401-7.56,1.2c-2.321,0.8-4.319,2.121-6,3.96c-1.68,1.841-2.981,4.301-3.899,7.38
		c-0.921,3.081-1.381,6.9-1.381,11.46v13.68c0,6.081,0.799,10.86,2.4,14.34c1.6,3.48,3.819,5.96,6.66,7.44
		c2.839,1.481,6.1,2.22,9.779,2.22c3.92,0,7.34-0.619,10.261-1.86c2.919-1.239,5.199-3.399,6.84-6.48
		c1.639-3.079,2.46-7.419,2.46-13.02h13.561c0,5.76-0.84,10.721-2.521,14.88c-1.681,4.161-3.98,7.56-6.899,10.2
		c-2.922,2.64-6.301,4.602-10.141,5.88c-3.84,1.279-7.92,1.92-12.24,1.92H2875.024z"/>
	<path style="fill:#FFFFFF;" d="M2619.183,362.375c-3.286-3.712-5.803-7.894-7.552-12.544c-1.75-4.65-2.624-9.472-2.624-14.464
		c0-4.949,0.874-9.749,2.624-14.4c1.749-4.65,4.266-8.832,7.552-12.544h4.097c-1.494,2.432-2.849,5.142-4.064,8.128
		c-1.216,2.987-2.176,6.08-2.88,9.28c-0.704,3.2-1.056,6.379-1.056,9.536c0,3.115,0.352,6.294,1.056,9.536
		c0.704,3.243,1.653,6.358,2.848,9.344s2.56,5.696,4.097,8.128H2619.183z"/>
	<path style="fill:#FFFFFF;" d="M2631.021,352.328v-43.904h20.353c2.304,0,4.416,0.544,6.336,1.632s3.445,2.571,4.576,4.448
		c1.13,1.878,1.696,3.968,1.696,6.272v0.768c0,2.304-0.599,4.438-1.793,6.4c-1.194,1.963-2.762,3.531-4.703,4.704
		c-1.942,1.174-4.086,1.76-6.432,1.76h-12.097v17.92H2631.021z M2638.958,328.264h10.496c1.28,0,2.41-0.298,3.392-0.896
		c0.981-0.597,1.76-1.408,2.336-2.432s0.864-2.197,0.864-3.52c0-1.877-0.63-3.488-1.888-4.832c-1.26-1.344-2.891-2.016-4.896-2.016
		h-10.304V328.264z"/>
	<path style="fill:#FFFFFF;" d="M2670.83,352.328v-46.08h7.424v46.08H2670.83z"/>
	<path style="fill:#FFFFFF;" d="M2698.605,352.968c-3.371,0-6.039-0.928-8-2.784c-1.963-1.856-2.944-4.661-2.944-8.416v-22.144
		h7.424v20.48c0,2.603,0.522,4.459,1.568,5.568c1.045,1.11,2.569,1.664,4.575,1.664c1.365,0,2.625-0.33,3.776-0.992
		c1.152-0.661,2.08-1.557,2.784-2.688c0.704-1.13,1.057-2.378,1.057-3.744v-20.288h7.424v26.048c0,0.811,0.191,1.387,0.576,1.728
		c0.383,0.342,0.81,0.512,1.279,0.512c0.469,0,0.938-0.085,1.408-0.256c0.469-0.17,0.917-0.362,1.344-0.576v4.544
		c-0.555,0.427-1.259,0.757-2.111,0.992c-0.854,0.234-1.856,0.352-3.008,0.352c-1.408,0-2.561-0.246-3.457-0.736
		c-0.896-0.49-1.568-1.152-2.016-1.984c-0.448-0.832-0.779-1.717-0.992-2.656c-1.066,1.707-2.57,3.03-4.512,3.968
		S2700.781,352.968,2698.605,352.968z"/>
	<path style="fill:#FFFFFF;" d="M2737.838,352.968c-1.707,0-3.232-0.256-4.576-0.768c-1.344-0.512-2.391-1.354-3.137-2.528
		c-0.746-1.173-1.119-2.72-1.119-4.64V325.32h-3.584v-5.696h3.775l2.624-10.432h4.608v10.432h7.615v5.696h-7.615v18.24
		c0,1.878,0.384,3.072,1.152,3.584c0.768,0.512,1.6,0.768,2.495,0.768c0.47,0,1.12-0.106,1.952-0.32
		c0.832-0.213,1.504-0.426,2.016-0.64v4.8c-0.512,0.256-1.131,0.48-1.855,0.672c-0.727,0.192-1.473,0.33-2.24,0.416
		C2739.182,352.925,2738.478,352.968,2737.838,352.968z"/>
	<path style="fill:#FFFFFF;" d="M2762.412,352.968c-3.371,0-6.037-0.928-8-2.784s-2.943-4.661-2.943-8.416v-22.144h7.424v20.48
		c0,2.603,0.521,4.459,1.568,5.568c1.045,1.11,2.57,1.664,4.576,1.664c1.365,0,2.623-0.33,3.775-0.992
		c1.152-0.661,2.08-1.557,2.784-2.688c0.704-1.13,1.056-2.378,1.056-3.744v-20.288h7.424v26.048c0,0.811,0.192,1.387,0.576,1.728
		c0.385,0.342,0.811,0.512,1.28,0.512s0.938-0.085,1.408-0.256c0.469-0.17,0.917-0.362,1.344-0.576v4.544
		c-0.555,0.427-1.259,0.757-2.112,0.992c-0.854,0.234-1.855,0.352-3.008,0.352c-1.408,0-2.56-0.246-3.455-0.736
		c-0.896-0.49-1.568-1.152-2.017-1.984s-0.778-1.717-0.992-2.656c-1.067,1.707-2.571,3.03-4.512,3.968
		C2766.646,352.498,2764.589,352.968,2762.412,352.968z"/>
	<path style="fill:#FFFFFF;" d="M2803.116,352.968c-2.176,0-4.096-0.267-5.76-0.8c-1.664-0.533-3.072-1.248-4.224-2.144
		c-1.152-0.896-2.027-1.92-2.625-3.072s-0.896-2.346-0.896-3.584c0-0.256,0-0.469,0-0.64c0-0.17,0.021-0.405,0.063-0.704h6.4
		c-0.043,0.128-0.064,0.246-0.064,0.352c0,0.107,0,0.203,0,0.288c0,1.195,0.385,2.176,1.152,2.944
		c0.768,0.768,1.781,1.344,3.041,1.728c1.258,0.384,2.655,0.576,4.191,0.576c1.279,0,2.496-0.17,3.648-0.512
		c1.151-0.341,2.09-0.842,2.815-1.504c0.726-0.661,1.088-1.482,1.088-2.464c0-1.109-0.384-1.962-1.151-2.56
		c-0.769-0.597-1.783-1.066-3.041-1.408c-1.258-0.341-2.646-0.64-4.16-0.896c-1.514-0.256-3.039-0.565-4.575-0.928
		c-1.536-0.362-2.935-0.874-4.192-1.536c-1.259-0.661-2.271-1.568-3.039-2.72c-0.769-1.152-1.152-2.666-1.152-4.544
		c0-1.536,0.341-2.922,1.023-4.16c0.682-1.237,1.643-2.272,2.881-3.104c1.236-0.832,2.688-1.472,4.352-1.92
		c1.664-0.448,3.455-0.672,5.376-0.672h1.024c1.791,0,3.465,0.235,5.023,0.704c1.557,0.47,2.912,1.11,4.064,1.92
		c1.151,0.811,2.047,1.75,2.688,2.816c0.641,1.067,0.96,2.198,0.96,3.392c0,0.214-0.011,0.448-0.032,0.704
		c-0.021,0.256-0.031,0.427-0.031,0.512h-6.465v-0.64c0-0.426-0.106-0.885-0.32-1.376c-0.213-0.49-0.598-0.96-1.151-1.408
		c-0.556-0.448-1.291-0.821-2.208-1.12c-0.918-0.298-2.08-0.448-3.488-0.448c-1.279,0-2.367,0.128-3.264,0.384
		c-0.896,0.256-1.622,0.587-2.176,0.992c-0.555,0.406-0.95,0.843-1.184,1.312c-0.236,0.47-0.353,0.918-0.353,1.344
		c0,0.982,0.384,1.75,1.151,2.304c0.769,0.555,1.793,0.992,3.072,1.312c1.28,0.32,2.688,0.598,4.225,0.832
		c1.535,0.235,3.061,0.534,4.576,0.896c1.514,0.363,2.912,0.886,4.191,1.568c1.28,0.683,2.305,1.6,3.072,2.752
		c0.768,1.152,1.152,2.667,1.152,4.544c0,1.963-0.375,3.638-1.121,5.024c-0.746,1.387-1.781,2.486-3.104,3.296
		c-1.322,0.811-2.827,1.408-4.512,1.792c-1.686,0.384-3.467,0.576-5.344,0.576H2803.116z"/>
	<path style="fill:#FFFFFF;" d="M2857.708,352.968c-2.519,0-4.875-0.363-7.072-1.088c-2.198-0.725-4.118-1.898-5.76-3.52
		c-1.644-1.621-2.935-3.744-3.872-6.368c-0.939-2.624-1.408-5.834-1.408-9.632v-3.968c0-3.712,0.469-6.88,1.408-9.504
		c0.938-2.624,2.229-4.757,3.872-6.4c1.642-1.642,3.541-2.837,5.696-3.584c2.153-0.746,4.469-1.12,6.943-1.12h0.96
		c2.304,0,4.49,0.32,6.56,0.96c2.07,0.64,3.894,1.654,5.473,3.04c1.578,1.387,2.826,3.2,3.744,5.44
		c0.917,2.24,1.376,4.96,1.376,8.16h-7.488c0-3.029-0.438-5.365-1.312-7.008c-0.875-1.642-2.08-2.794-3.616-3.456
		c-1.536-0.661-3.286-0.992-5.248-0.992c-1.451,0-2.795,0.214-4.032,0.64c-1.238,0.427-2.304,1.131-3.199,2.112
		c-0.896,0.982-1.591,2.294-2.08,3.936c-0.492,1.643-0.736,3.68-0.736,6.112v7.296c0,3.243,0.426,5.792,1.279,7.648
		c0.854,1.856,2.037,3.179,3.553,3.968c1.514,0.79,3.253,1.184,5.216,1.184c2.09,0,3.914-0.33,5.472-0.992
		c1.557-0.661,2.773-1.813,3.648-3.456c0.874-1.642,1.312-3.957,1.312-6.944h7.231c0,3.072-0.448,5.718-1.345,7.936
		c-0.896,2.219-2.123,4.032-3.68,5.44c-1.558,1.408-3.359,2.454-5.408,3.136c-2.047,0.682-4.224,1.024-6.527,1.024H2857.708z"/>
	<path style="fill:#FFFFFF;" d="M2897.388,352.968c-2.901,0-5.504-0.661-7.808-1.984c-2.305-1.322-4.107-3.221-5.408-5.696
		c-1.303-2.474-1.952-5.397-1.952-8.768v-1.088c0-3.413,0.649-6.346,1.952-8.8c1.301-2.453,3.093-4.341,5.375-5.664
		c2.283-1.322,4.875-1.984,7.777-1.984h1.023c2.943,0,5.557,0.662,7.84,1.984c2.282,1.323,4.074,3.211,5.376,5.664
		c1.302,2.454,1.952,5.387,1.952,8.8v1.088c0,3.371-0.65,6.294-1.952,8.768c-1.302,2.475-3.094,4.374-5.376,5.696
		c-2.283,1.323-4.875,1.984-7.775,1.984H2897.388z M2897.836,347.912c1.492,0,2.826-0.352,4-1.056
		c1.173-0.704,2.111-1.76,2.815-3.168c0.704-1.408,1.056-3.114,1.056-5.12v-5.184c0-2.048-0.352-3.765-1.056-5.152
		c-0.704-1.386-1.643-2.432-2.815-3.136c-1.174-0.704-2.508-1.056-4-1.056c-1.451,0-2.764,0.352-3.937,1.056
		c-1.174,0.704-2.112,1.75-2.815,3.136c-0.705,1.387-1.057,3.104-1.057,5.152v5.184c0,2.006,0.352,3.712,1.057,5.12
		c0.703,1.408,1.642,2.464,2.815,3.168C2895.072,347.56,2896.385,347.912,2897.836,347.912z"/>
	<path style="fill:#FFFFFF;" d="M2921.578,352.328v-32.704h5.568l0.961,4.8c0.084-0.128,0.297-0.469,0.639-1.024
		c0.342-0.554,0.875-1.173,1.601-1.856c0.726-0.682,1.642-1.28,2.752-1.792c1.109-0.512,2.453-0.768,4.032-0.768
		c2.261,0,4.105,0.448,5.536,1.344c1.429,0.896,2.495,2.123,3.2,3.68c0.703,1.558,1.056,3.339,1.056,5.344
		c0,0.47-0.022,0.95-0.063,1.44c-0.043,0.491-0.086,0.907-0.129,1.248h-6.271v-1.28c0-0.896-0.172-1.813-0.512-2.752
		c-0.342-0.938-0.918-1.728-1.729-2.368s-1.941-0.96-3.393-0.96c-1.066,0-1.974,0.224-2.719,0.672
		c-0.748,0.448-1.355,1.014-1.824,1.696c-0.471,0.683-0.801,1.419-0.992,2.208c-0.192,0.79-0.288,1.526-0.288,2.208v20.864H2921.578
		z"/>
	<path style="fill:#FFFFFF;" d="M2966.762,352.968c-2.986,0-5.611-0.63-7.871-1.888c-2.263-1.258-4.022-3.104-5.281-5.536
		c-1.258-2.432-1.887-5.376-1.887-8.832v-1.472c0-3.456,0.672-6.4,2.016-8.832s3.178-4.277,5.504-5.536
		c2.324-1.258,4.98-1.888,7.968-1.888h0.832c2.772,0,5.205,0.566,7.296,1.696c2.09,1.131,3.712,2.742,4.864,4.832
		c1.151,2.091,1.728,4.544,1.728,7.36v4.032h-22.464c0,2.262,0.298,4.224,0.896,5.888s1.482,2.934,2.656,3.808
		c1.174,0.875,2.635,1.312,4.385,1.312c1.449,0,2.74-0.288,3.871-0.864c1.131-0.576,2.026-1.44,2.688-2.592
		c0.661-1.152,0.992-2.581,0.992-4.288h6.976c0,2.56-0.64,4.8-1.92,6.72c-1.279,1.92-3.008,3.414-5.184,4.48s-4.651,1.6-7.424,1.6
		H2966.762z M2959.529,332.808h15.104c0-2.986-0.651-5.194-1.952-6.624c-1.302-1.429-3.082-2.144-5.344-2.144
		c-2.134,0-3.936,0.736-5.408,2.208C2960.458,327.72,2959.658,329.907,2959.529,332.808z"/>
	<path style="fill:#FFFFFF;" d="M2985.963,362.375c1.535-2.432,2.911-5.142,4.127-8.128c1.217-2.986,2.166-6.101,2.849-9.344
		c0.682-3.242,1.024-6.421,1.024-9.536c0-3.157-0.353-6.336-1.057-9.536c-0.704-3.2-1.654-6.293-2.848-9.28
		c-1.195-2.986-2.561-5.696-4.096-8.128h4.096c3.285,3.712,5.802,7.894,7.552,12.544c1.749,4.651,2.624,9.451,2.624,14.4
		c0,4.992-0.875,9.814-2.624,14.464c-1.75,4.65-4.267,8.832-7.552,12.544H2985.963z"/>
</g>
<g>
	<path style="fill:#FFFFFF;" d="M3418.33,257.528c-6,0-11.221-1.141-15.66-3.421c-4.44-2.279-7.86-5.479-10.26-9.6
		c-2.4-4.119-3.601-8.939-3.601-14.46v-56.04h14.88v55.68c0,4.881,1.479,8.82,4.44,11.82c2.959,3,6.999,4.5,12.12,4.5
		c5.199,0,9.259-1.519,12.18-4.56c2.92-3.04,4.38-6.96,4.38-11.761v-55.68h14.88v56.04c0,5.521-1.301,10.341-3.899,14.46
		c-2.601,4.121-6.201,7.32-10.8,9.6c-4.602,2.28-9.9,3.421-15.9,3.421H3418.33z"/>
	<path style="fill:#FFFFFF;" d="M3471.49,256.328v-82.32h38.159c4.32,0,8.28,1.021,11.881,3.061c3.6,2.039,6.459,4.82,8.579,8.34
		c2.119,3.521,3.181,7.439,3.181,11.76v1.439c0,4.32-1.121,8.321-3.36,12c-2.24,3.681-5.181,6.621-8.82,8.82
		c-3.641,2.201-7.661,3.3-12.06,3.3h-22.68v33.601H3471.49z M3486.37,211.208h19.68c2.4,0,4.519-0.559,6.36-1.68
		c1.839-1.12,3.3-2.641,4.38-4.561s1.62-4.119,1.62-6.6c0-3.52-1.182-6.54-3.54-9.061c-2.361-2.52-5.421-3.779-9.181-3.779h-19.319
		V211.208z"/>
	<path style="fill:#FFFFFF;" d="M3546.61,256.328v-82.32h14.88v70.8h36l1.8,11.521H3546.61z"/>
	<path style="fill:#FFFFFF;" d="M3641.049,257.528c-4.721,0-9.141-0.681-13.26-2.04c-4.121-1.359-7.721-3.56-10.8-6.601
		c-3.081-3.039-5.501-7.02-7.26-11.939c-1.761-4.92-2.641-10.939-2.641-18.061v-7.439c0-6.96,0.88-12.9,2.641-17.82
		c1.759-4.92,4.179-8.919,7.26-12c3.079-3.079,6.64-5.319,10.68-6.72c4.039-1.399,8.38-2.101,13.021-2.101h1.8
		c4.32,0,8.419,0.601,12.3,1.8c3.88,1.2,7.3,3.102,10.26,5.7c2.959,2.601,5.299,6,7.021,10.2c1.719,4.2,2.58,9.3,2.58,15.3h-14.04
		c0-5.679-0.821-10.06-2.46-13.14c-1.641-3.079-3.9-5.239-6.78-6.48c-2.88-1.239-6.161-1.859-9.84-1.859
		c-2.721,0-5.241,0.401-7.561,1.2c-2.321,0.8-4.319,2.12-6,3.96c-1.68,1.841-2.98,4.301-3.899,7.38
		c-0.921,3.08-1.38,6.899-1.38,11.46v13.68c0,6.081,0.799,10.86,2.399,14.34c1.6,3.48,3.819,5.961,6.66,7.44
		c2.839,1.481,6.1,2.22,9.78,2.22c3.919,0,7.339-0.619,10.26-1.86c2.92-1.239,5.199-3.399,6.84-6.479
		c1.639-3.079,2.46-7.42,2.46-13.021h13.561c0,5.761-0.84,10.722-2.521,14.881c-1.68,4.16-3.98,7.56-6.899,10.199
		c-2.922,2.641-6.301,4.602-10.141,5.88c-3.84,1.279-7.92,1.921-12.239,1.921H3641.049z"/>
	<path style="fill:#FFFFFF;" d="M3407.171,362.376c-3.285-3.712-5.803-7.895-7.552-12.544c-1.75-4.65-2.624-9.472-2.624-14.464
		c0-4.949,0.874-9.749,2.624-14.4c1.749-4.649,4.267-8.832,7.552-12.544h4.097c-1.494,2.432-2.849,5.142-4.064,8.128
		c-1.216,2.987-2.176,6.08-2.88,9.28s-1.056,6.379-1.056,9.536c0,3.114,0.352,6.294,1.056,9.536s1.653,6.357,2.848,9.344
		c1.194,2.985,2.561,5.696,4.097,8.128H3407.171z"/>
	<path style="fill:#FFFFFF;" d="M3434.37,352.968c-3.199,0-5.983-0.607-8.352-1.824c-2.368-1.216-4.192-2.922-5.472-5.12
		c-1.28-2.196-1.92-4.768-1.92-7.712v-29.888h7.936v29.696c0,2.603,0.789,4.704,2.368,6.304c1.578,1.6,3.732,2.4,6.464,2.4
		c2.773,0,4.938-0.811,6.496-2.433c1.557-1.621,2.336-3.712,2.336-6.271v-29.696h7.936v29.888c0,2.944-0.693,5.516-2.079,7.712
		c-1.388,2.198-3.308,3.904-5.761,5.12c-2.454,1.217-5.279,1.824-8.479,1.824H3434.37z"/>
	<path style="fill:#FFFFFF;" d="M3461.763,352.328v-32.704h5.439l0.961,4.8c1.236-1.792,2.772-3.146,4.607-4.063
		c1.834-0.917,3.882-1.377,6.145-1.377c2.261,0,4.244,0.428,5.951,1.28c1.706,0.854,3.04,2.103,4,3.744
		c0.96,1.644,1.44,3.659,1.44,6.048v22.272h-7.424v-20.929c0-2.432-0.566-4.17-1.696-5.216c-1.131-1.045-2.699-1.567-4.704-1.567
		c-1.323,0-2.539,0.331-3.647,0.991c-1.11,0.662-1.995,1.548-2.656,2.656c-0.662,1.11-0.992,2.368-0.992,3.776v20.288H3461.763z"/>
	<path style="fill:#FFFFFF;" d="M3509.955,352.968c-1.707,0-3.232-0.256-4.576-0.768c-1.344-0.513-2.391-1.354-3.136-2.528
		c-0.747-1.173-1.12-2.72-1.12-4.64V325.32h-3.584v-5.696h3.775l2.624-10.433h4.608v10.433h7.616v5.696h-7.616v18.239
		c0,1.878,0.384,3.072,1.152,3.584c0.768,0.513,1.6,0.769,2.495,0.769c0.47,0,1.12-0.106,1.952-0.32
		c0.832-0.213,1.504-0.426,2.017-0.64v4.8c-0.513,0.256-1.131,0.479-1.856,0.672s-1.472,0.33-2.24,0.416
		C3511.299,352.925,3510.595,352.968,3509.955,352.968z"/>
	<path style="fill:#FFFFFF;" d="M3527.298,364.231c-0.981,0-1.888-0.074-2.72-0.224c-0.832-0.15-1.611-0.374-2.336-0.672v-5.696
		c0.469,0.213,1.088,0.395,1.856,0.544c0.768,0.149,1.514,0.225,2.239,0.225c1.109,0,2.037-0.214,2.784-0.641
		c0.746-0.427,1.408-1.131,1.984-2.111c0.576-0.982,1.141-2.263,1.695-3.841l-12.8-32.191h8l8.384,22.976h0.385l8.128-22.976h7.359
		l-12.096,31.231c-0.938,2.475-1.974,4.726-3.104,6.752c-1.132,2.026-2.476,3.638-4.032,4.832
		C3531.468,363.634,3529.56,364.231,3527.298,364.231z"/>
	<path style="fill:#FFFFFF;" d="M3557.762,363.912v-44.288h5.696l0.96,4.416c1.024-1.536,2.368-2.762,4.032-3.68
		c1.664-0.917,3.604-1.377,5.824-1.377c2.474,0,4.714,0.545,6.72,1.633c2.005,1.088,3.604,2.838,4.8,5.248
		c1.194,2.41,1.792,5.579,1.792,9.504v1.344c0,3.542-0.576,6.528-1.728,8.96c-1.152,2.432-2.699,4.256-4.641,5.472
		c-1.941,1.217-4.086,1.824-6.432,1.824c-2.304,0-4.256-0.438-5.856-1.312c-1.6-0.874-2.826-1.994-3.68-3.36v15.616H3557.762z
		 M3572.61,347.784c1.364,0,2.592-0.353,3.68-1.057s1.941-1.749,2.56-3.136c0.618-1.386,0.929-3.104,0.929-5.152v-4.479
		c0-2.346-0.311-4.245-0.929-5.696c-0.618-1.45-1.472-2.517-2.56-3.2c-1.088-0.682-2.315-1.023-3.68-1.023
		c-1.323,0-2.55,0.331-3.681,0.992c-1.131,0.662-2.038,1.707-2.72,3.136c-0.683,1.43-1.023,3.339-1.023,5.728v4.544
		c0,2.092,0.329,3.83,0.991,5.217c0.661,1.387,1.558,2.422,2.688,3.104C3569.996,347.443,3571.244,347.784,3572.61,347.784z"/>
	<path style="fill:#FFFFFF;" d="M3609.218,352.968c-2.987,0-5.611-0.63-7.872-1.888c-2.263-1.258-4.022-3.104-5.28-5.536
		c-1.259-2.432-1.888-5.376-1.888-8.832v-1.472c0-3.456,0.672-6.4,2.016-8.832c1.344-2.433,3.178-4.277,5.504-5.536
		c2.325-1.258,4.981-1.889,7.968-1.889h0.832c2.773,0,5.205,0.566,7.296,1.696c2.091,1.131,3.712,2.742,4.864,4.832
		c1.152,2.091,1.729,4.544,1.729,7.36v4.032h-22.465c0,2.262,0.299,4.224,0.896,5.888c0.597,1.664,1.482,2.934,2.656,3.808
		c1.173,0.875,2.634,1.312,4.384,1.312c1.45,0,2.741-0.288,3.872-0.864c1.13-0.576,2.025-1.44,2.688-2.592
		c0.661-1.152,0.992-2.581,0.992-4.288h6.977c0,2.56-0.641,4.8-1.921,6.72c-1.279,1.92-3.008,3.414-5.184,4.48
		c-2.176,1.065-4.651,1.6-7.424,1.6H3609.218z M3601.985,332.808h15.104c0-2.985-0.65-5.193-1.951-6.624
		c-1.303-1.429-3.083-2.144-5.345-2.144c-2.134,0-3.936,0.736-5.407,2.208C3602.913,327.72,3602.113,329.907,3601.985,332.808z"/>
	<path style="fill:#FFFFFF;" d="M3644.673,352.968c-2.476,0-4.736-0.598-6.784-1.792s-3.691-3.05-4.928-5.568
		c-1.238-2.517-1.856-5.737-1.856-9.663v-0.704c0-3.584,0.586-6.581,1.76-8.992c1.174-2.41,2.73-4.225,4.672-5.44
		s4.086-1.824,6.433-1.824c2.304,0,4.266,0.438,5.888,1.312c1.621,0.875,2.858,1.995,3.712,3.36v-17.408h7.424v46.08h-5.76
		l-0.896-4.416c-1.067,1.536-2.391,2.763-3.969,3.68S3646.891,352.968,3644.673,352.968z M3646.145,347.912
		c1.365,0,2.603-0.33,3.712-0.992c1.109-0.661,2.005-1.717,2.688-3.168c0.682-1.45,1.023-3.349,1.023-5.696v-4.544
		c0-2.09-0.331-3.829-0.992-5.216c-0.661-1.386-1.558-2.421-2.688-3.104c-1.131-0.682-2.379-1.023-3.744-1.023
		c-2.048,0-3.766,0.779-5.152,2.336c-1.387,1.558-2.079,3.894-2.079,7.008v4.48c0,2.347,0.319,4.246,0.96,5.695
		c0.64,1.451,1.504,2.519,2.592,3.2C3643.553,347.571,3644.778,347.912,3646.145,347.912z"/>
	<path style="fill:#FFFFFF;" d="M3346.468,424.328v-43.904h20.352c2.305,0,4.416,0.544,6.336,1.632s3.445,2.571,4.576,4.448
		c1.13,1.878,1.696,3.968,1.696,6.272v0.768c0,2.304-0.599,4.438-1.792,6.4c-1.195,1.963-2.763,3.53-4.704,4.703
		c-1.942,1.175-4.086,1.761-6.432,1.761h-12.097v17.92H3346.468z M3354.403,400.264h10.496c1.28,0,2.41-0.298,3.393-0.896
		c0.98-0.598,1.76-1.408,2.336-2.433c0.575-1.023,0.863-2.196,0.863-3.52c0-1.877-0.63-3.488-1.888-4.832
		c-1.259-1.344-2.891-2.016-4.896-2.016h-10.305V400.264z"/>
	<path style="fill:#FFFFFF;" d="M3386.275,424.328v-46.08h7.424v46.08H3386.275z"/>
	<path style="fill:#FFFFFF;" d="M3414.051,424.968c-3.371,0-6.038-0.928-8-2.784c-1.963-1.855-2.944-4.661-2.944-8.416v-22.144
		h7.424v20.479c0,2.604,0.522,4.459,1.568,5.568c1.045,1.11,2.57,1.664,4.576,1.664c1.365,0,2.624-0.33,3.775-0.992
		c1.152-0.661,2.08-1.557,2.784-2.688c0.704-1.13,1.057-2.378,1.057-3.744v-20.288h7.424v26.048c0,0.811,0.191,1.387,0.576,1.728
		c0.384,0.343,0.81,0.513,1.279,0.513s0.938-0.085,1.408-0.256c0.469-0.17,0.917-0.362,1.344-0.576v4.544
		c-0.555,0.427-1.259,0.757-2.111,0.992c-0.854,0.233-1.856,0.352-3.008,0.352c-1.408,0-2.561-0.246-3.456-0.736
		c-0.896-0.489-1.568-1.151-2.017-1.983s-0.778-1.717-0.992-2.656c-1.066,1.707-2.57,3.03-4.512,3.968
		C3418.285,424.498,3416.227,424.968,3414.051,424.968z"/>
	<path style="fill:#FFFFFF;" d="M3453.283,424.968c-1.707,0-3.232-0.256-4.576-0.768c-1.344-0.513-2.391-1.354-3.136-2.528
		c-0.747-1.173-1.12-2.72-1.12-4.64V397.32h-3.584v-5.696h3.775l2.624-10.433h4.608v10.433h7.616v5.696h-7.616v18.239
		c0,1.878,0.384,3.072,1.152,3.584c0.768,0.513,1.6,0.769,2.495,0.769c0.47,0,1.12-0.106,1.952-0.32
		c0.832-0.213,1.504-0.426,2.017-0.64v4.8c-0.513,0.256-1.131,0.479-1.856,0.672s-1.472,0.33-2.24,0.416
		C3454.627,424.925,3453.923,424.968,3453.283,424.968z"/>
	<path style="fill:#FFFFFF;" d="M3477.858,424.968c-3.371,0-6.038-0.928-8-2.784c-1.963-1.855-2.944-4.661-2.944-8.416v-22.144
		h7.424v20.479c0,2.604,0.522,4.459,1.568,5.568c1.045,1.11,2.57,1.664,4.576,1.664c1.365,0,2.624-0.33,3.775-0.992
		c1.152-0.661,2.08-1.557,2.784-2.688c0.704-1.13,1.057-2.378,1.057-3.744v-20.288h7.424v26.048c0,0.811,0.191,1.387,0.576,1.728
		c0.384,0.343,0.81,0.513,1.279,0.513s0.938-0.085,1.408-0.256c0.469-0.17,0.917-0.362,1.344-0.576v4.544
		c-0.555,0.427-1.259,0.757-2.111,0.992c-0.854,0.233-1.856,0.352-3.008,0.352c-1.408,0-2.561-0.246-3.456-0.736
		c-0.896-0.489-1.568-1.151-2.017-1.983s-0.778-1.717-0.992-2.656c-1.066,1.707-2.57,3.03-4.512,3.968
		C3482.093,424.498,3480.034,424.968,3477.858,424.968z"/>
	<path style="fill:#FFFFFF;" d="M3518.562,424.968c-2.176,0-4.096-0.267-5.76-0.8s-3.072-1.248-4.224-2.145
		c-1.152-0.896-2.027-1.92-2.624-3.071c-0.599-1.152-0.896-2.347-0.896-3.584c0-0.256,0-0.47,0-0.641
		c0-0.17,0.021-0.404,0.064-0.704h6.399c-0.043,0.129-0.063,0.246-0.063,0.353s0,0.203,0,0.288c0,1.194,0.384,2.176,1.152,2.943
		c0.768,0.769,1.78,1.345,3.04,1.729c1.258,0.384,2.655,0.576,4.191,0.576c1.28,0,2.496-0.17,3.648-0.513
		c1.151-0.341,2.09-0.842,2.815-1.504c0.726-0.66,1.088-1.481,1.088-2.464c0-1.108-0.384-1.962-1.151-2.56
		c-0.769-0.598-1.782-1.066-3.04-1.408c-1.259-0.341-2.646-0.64-4.16-0.896c-1.515-0.257-3.04-0.565-4.576-0.929
		c-1.536-0.361-2.934-0.874-4.192-1.536c-1.259-0.66-2.271-1.567-3.039-2.72c-0.769-1.152-1.152-2.666-1.152-4.544
		c0-1.536,0.341-2.922,1.023-4.16c0.683-1.236,1.643-2.271,2.881-3.104c1.236-0.832,2.688-1.473,4.352-1.92
		c1.664-0.448,3.456-0.673,5.376-0.673h1.024c1.792,0,3.466,0.235,5.023,0.704c1.558,0.471,2.912,1.11,4.064,1.92
		c1.151,0.812,2.048,1.75,2.688,2.816c0.641,1.067,0.96,2.198,0.96,3.392c0,0.215-0.011,0.448-0.031,0.704
		c-0.022,0.257-0.032,0.428-0.032,0.513h-6.464v-0.641c0-0.426-0.107-0.885-0.32-1.376c-0.214-0.489-0.598-0.96-1.152-1.408
		c-0.555-0.447-1.291-0.82-2.208-1.119c-0.918-0.299-2.08-0.448-3.487-0.448c-1.28,0-2.368,0.128-3.265,0.384
		c-0.896,0.256-1.622,0.587-2.176,0.992c-0.555,0.406-0.95,0.843-1.184,1.312c-0.235,0.471-0.353,0.918-0.353,1.345
		c0,0.981,0.384,1.75,1.152,2.304c0.768,0.555,1.792,0.992,3.072,1.312c1.279,0.32,2.688,0.599,4.224,0.832
		c1.536,0.235,3.061,0.534,4.576,0.896c1.514,0.363,2.912,0.886,4.191,1.567c1.28,0.684,2.305,1.601,3.072,2.753
		c0.768,1.151,1.152,2.667,1.152,4.544c0,1.963-0.374,3.638-1.12,5.023c-0.747,1.387-1.782,2.486-3.104,3.296
		c-1.322,0.812-2.827,1.408-4.512,1.792c-1.686,0.385-3.467,0.576-5.344,0.576H3518.562z"/>
	<path style="fill:#FFFFFF;" d="M3573.153,424.968c-2.518,0-4.875-0.363-7.072-1.088s-4.118-1.898-5.76-3.52
		c-1.643-1.621-2.934-3.744-3.872-6.368s-1.408-5.834-1.408-9.632v-3.969c0-3.712,0.47-6.88,1.408-9.504s2.229-4.757,3.872-6.399
		c1.642-1.643,3.541-2.837,5.696-3.584c2.153-0.746,4.469-1.12,6.943-1.12h0.96c2.305,0,4.49,0.319,6.561,0.96
		c2.069,0.64,3.893,1.653,5.472,3.04c1.578,1.387,2.826,3.199,3.744,5.439c0.917,2.24,1.376,4.96,1.376,8.16h-7.488
		c0-3.029-0.438-5.365-1.312-7.008c-0.875-1.643-2.08-2.794-3.616-3.456c-1.536-0.661-3.286-0.992-5.248-0.992
		c-1.451,0-2.795,0.214-4.032,0.641s-2.304,1.131-3.199,2.111c-0.896,0.982-1.591,2.294-2.08,3.937
		c-0.491,1.643-0.736,3.68-0.736,6.111v7.296c0,3.243,0.426,5.792,1.28,7.648c0.853,1.856,2.037,3.179,3.552,3.968
		c1.514,0.79,3.253,1.185,5.216,1.185c2.09,0,3.914-0.33,5.472-0.992c1.558-0.661,2.773-1.813,3.648-3.456
		c0.874-1.643,1.312-3.957,1.312-6.944h7.231c0,3.072-0.448,5.718-1.344,7.937c-0.896,2.219-2.123,4.031-3.68,5.439
		c-1.559,1.408-3.36,2.454-5.408,3.137c-2.048,0.682-4.225,1.023-6.528,1.023H3573.153z"/>
	<path style="fill:#FFFFFF;" d="M3612.833,424.968c-2.901,0-5.504-0.661-7.808-1.984c-2.305-1.321-4.107-3.221-5.408-5.695
		c-1.302-2.475-1.952-5.397-1.952-8.769v-1.088c0-3.413,0.65-6.346,1.952-8.8c1.301-2.453,3.093-4.341,5.376-5.664
		c2.282-1.322,4.874-1.984,7.776-1.984h1.023c2.944,0,5.558,0.662,7.84,1.984c2.282,1.323,4.074,3.211,5.376,5.664
		c1.302,2.454,1.952,5.387,1.952,8.8v1.088c0,3.371-0.65,6.294-1.952,8.769s-3.094,4.374-5.376,5.695
		c-2.282,1.323-4.875,1.984-7.775,1.984H3612.833z M3613.281,419.912c1.493,0,2.826-0.353,4-1.057
		c1.173-0.703,2.112-1.76,2.815-3.168c0.704-1.407,1.057-3.113,1.057-5.119v-5.185c0-2.048-0.353-3.765-1.057-5.152
		c-0.703-1.386-1.643-2.432-2.815-3.136c-1.174-0.704-2.507-1.056-4-1.056c-1.451,0-2.763,0.352-3.937,1.056
		s-2.111,1.75-2.815,3.136c-0.704,1.388-1.056,3.104-1.056,5.152v5.185c0,2.006,0.352,3.712,1.056,5.119
		c0.704,1.408,1.642,2.465,2.815,3.168C3610.519,419.56,3611.83,419.912,3613.281,419.912z"/>
	<path style="fill:#FFFFFF;" d="M3637.024,424.328v-32.704h5.568l0.96,4.8c0.085-0.128,0.298-0.469,0.64-1.024
		c0.341-0.554,0.874-1.173,1.6-1.855c0.726-0.682,1.643-1.28,2.752-1.792s2.453-0.769,4.032-0.769c2.261,0,4.106,0.448,5.536,1.345
		c1.429,0.896,2.496,2.123,3.2,3.68c0.704,1.558,1.056,3.339,1.056,5.344c0,0.471-0.021,0.95-0.063,1.44
		c-0.043,0.491-0.086,0.907-0.128,1.248h-6.272v-1.28c0-0.896-0.171-1.812-0.512-2.752c-0.342-0.938-0.918-1.728-1.729-2.368
		c-0.811-0.64-1.941-0.96-3.392-0.96c-1.067,0-1.975,0.225-2.72,0.672c-0.747,0.448-1.355,1.015-1.824,1.696
		c-0.47,0.683-0.8,1.419-0.992,2.208c-0.192,0.79-0.288,1.526-0.288,2.208v20.864H3637.024z"/>
	<path style="fill:#FFFFFF;" d="M3682.208,424.968c-2.987,0-5.611-0.63-7.872-1.888c-2.263-1.258-4.022-3.104-5.28-5.536
		c-1.259-2.432-1.888-5.376-1.888-8.832v-1.472c0-3.456,0.672-6.4,2.016-8.832c1.344-2.433,3.178-4.277,5.504-5.536
		c2.325-1.258,4.981-1.889,7.968-1.889h0.832c2.773,0,5.205,0.566,7.296,1.696c2.091,1.131,3.712,2.742,4.864,4.832
		c1.152,2.091,1.729,4.544,1.729,7.36v4.032h-22.465c0,2.262,0.299,4.224,0.896,5.888c0.597,1.664,1.482,2.934,2.656,3.808
		c1.173,0.875,2.634,1.312,4.384,1.312c1.45,0,2.741-0.288,3.872-0.864c1.13-0.576,2.025-1.44,2.688-2.592
		c0.661-1.152,0.992-2.581,0.992-4.288h6.977c0,2.56-0.641,4.8-1.921,6.72c-1.279,1.92-3.008,3.414-5.184,4.48
		c-2.176,1.065-4.651,1.6-7.424,1.6H3682.208z M3674.976,404.808h15.104c0-2.985-0.65-5.193-1.951-6.624
		c-1.303-1.429-3.083-2.144-5.345-2.144c-2.134,0-3.936,0.736-5.407,2.208C3675.903,399.72,3675.104,401.907,3674.976,404.808z"/>
	<path style="fill:#FFFFFF;" d="M3701.408,434.376c1.535-2.432,2.911-5.143,4.128-8.128c1.216-2.986,2.165-6.102,2.848-9.344
		c0.682-3.242,1.024-6.422,1.024-9.536c0-3.157-0.353-6.336-1.057-9.536s-1.653-6.293-2.848-9.28
		c-1.195-2.986-2.561-5.696-4.096-8.128h4.096c3.285,3.712,5.802,7.895,7.552,12.544c1.749,4.651,2.624,9.451,2.624,14.4
		c0,4.992-0.875,9.813-2.624,14.464c-1.75,4.649-4.267,8.832-7.552,12.544H3701.408z"/>
</g>
<g>
	<path style="fill:#FFFFFF;" d="M1973.296,256.328v-82.32h38.16c4.32,0,8.28,1.02,11.88,3.06c3.6,2.04,6.459,4.82,8.58,8.34
		c2.119,3.521,3.18,7.44,3.18,11.76v1.44c0,4.32-1.121,8.321-3.359,12c-2.241,3.681-5.181,6.621-8.82,8.82
		c-3.642,2.201-7.661,3.3-12.061,3.3h-22.68v33.6H1973.296z M1988.176,211.208h19.68c2.4,0,4.52-0.559,6.36-1.68
		c1.84-1.12,3.3-2.64,4.38-4.56s1.62-4.12,1.62-6.6c0-3.52-1.181-6.54-3.54-9.06c-2.36-2.52-5.421-3.78-9.18-3.78h-19.32V211.208z"
		/>
	<path style="fill:#FFFFFF;" d="M2045.177,256.328v-11.52h9.601v-59.28h-9.601v-11.52h34.08v11.52h-9.6v59.28h9.6v11.52H2045.177z"
		/>
	<path style="fill:#FFFFFF;" d="M2154.856,257.048c-2.321,0-4.44-0.42-6.36-1.26s-3.461-2.379-4.62-4.62
		c-1.16-2.239-1.74-5.439-1.74-9.6c0-3.52-0.38-6.48-1.14-8.88c-0.762-2.4-1.781-4.359-3.06-5.88c-1.281-1.519-2.721-2.619-4.32-3.3
		c-1.602-0.679-3.24-1.02-4.92-1.02h-17.4v33.84h-14.88v-82.32h39.84c3.919,0,7.54,0.86,10.86,2.58c3.318,1.722,6.019,4.122,8.1,7.2
		c2.08,3.081,3.12,6.701,3.12,10.86c0,3.281-0.66,6.321-1.979,9.12c-1.32,2.801-3.081,5.241-5.28,7.32
		c-2.201,2.082-4.62,3.642-7.26,4.68v0.6c1.038,0.321,2.279,0.9,3.72,1.74c1.439,0.84,2.859,2.04,4.26,3.6
		c1.398,1.56,2.58,3.582,3.54,6.06c0.96,2.48,1.44,5.52,1.44,9.12c0,2.64,0.12,4.86,0.359,6.66c0.24,1.8,0.601,3.281,1.08,4.44
		c0.48,1.161,1.119,2.081,1.92,2.76c0.799,0.681,1.72,1.221,2.761,1.62v3.36c-0.96,0.401-2.16,0.72-3.601,0.96
		C2157.856,256.928,2156.375,257.048,2154.856,257.048z M2111.296,210.968h20.641c2.159,0,4.099-0.7,5.819-2.1
		c1.72-1.399,3.1-3.219,4.141-5.46c1.038-2.239,1.56-4.6,1.56-7.08c0-3.36-1.062-6-3.18-7.92c-2.121-1.92-4.86-2.88-8.221-2.88
		h-20.76V210.968z"/>
	<path style="fill:#FFFFFF;" d="M1761.127,362.375c-3.286-3.712-5.803-7.894-7.552-12.544c-1.75-4.65-2.624-9.472-2.624-14.464
		c0-4.949,0.874-9.749,2.624-14.4c1.749-4.65,4.266-8.832,7.552-12.544h4.096c-1.494,2.432-2.848,5.142-4.064,8.128
		c-1.216,2.987-2.176,6.08-2.88,9.28c-0.704,3.2-1.056,6.379-1.056,9.536c0,3.115,0.352,6.294,1.056,9.536
		c0.704,3.243,1.653,6.358,2.848,9.344c1.194,2.986,2.56,5.696,4.096,8.128H1761.127z"/>
	<path style="fill:#FFFFFF;" d="M1772.967,352.328v-43.904h20.352c2.304,0,4.416,0.544,6.336,1.632s3.445,2.571,4.576,4.448
		c1.13,1.878,1.696,3.968,1.696,6.272v0.768c0,2.304-0.598,4.438-1.792,6.4c-1.195,1.963-2.763,3.531-4.704,4.704
		c-1.942,1.174-4.086,1.76-6.432,1.76h-12.096v17.92H1772.967z M1780.903,328.264h10.496c1.28,0,2.41-0.298,3.392-0.896
		c0.981-0.597,1.76-1.408,2.336-2.432c0.576-1.024,0.864-2.197,0.864-3.52c0-1.877-0.63-3.488-1.888-4.832
		c-1.259-1.344-2.891-2.016-4.896-2.016h-10.304V328.264z"/>
	<path style="fill:#FFFFFF;" d="M1812.774,352.328v-46.08h7.424v46.08H1812.774z"/>
	<path style="fill:#FFFFFF;" d="M1840.55,352.968c-3.371,0-6.038-0.928-8-2.784c-1.963-1.856-2.944-4.661-2.944-8.416v-22.144h7.424
		v20.48c0,2.603,0.522,4.459,1.568,5.568c1.045,1.11,2.57,1.664,4.576,1.664c1.365,0,2.624-0.33,3.776-0.992
		c1.152-0.661,2.08-1.557,2.784-2.688c0.704-1.13,1.056-2.378,1.056-3.744v-20.288h7.424v26.048c0,0.811,0.192,1.387,0.576,1.728
		c0.384,0.342,0.81,0.512,1.28,0.512c0.469,0,0.938-0.085,1.408-0.256c0.469-0.17,0.917-0.362,1.344-0.576v4.544
		c-0.555,0.427-1.259,0.757-2.112,0.992c-0.854,0.234-1.856,0.352-3.008,0.352c-1.408,0-2.56-0.246-3.456-0.736
		c-0.896-0.49-1.568-1.152-2.016-1.984c-0.448-0.832-0.779-1.717-0.992-2.656c-1.067,1.707-2.571,3.03-4.512,3.968
		C1844.784,352.498,1842.726,352.968,1840.55,352.968z"/>
	<path style="fill:#FFFFFF;" d="M1879.782,352.968c-1.707,0-3.232-0.256-4.576-0.768c-1.344-0.512-2.39-1.354-3.136-2.528
		c-0.747-1.173-1.12-2.72-1.12-4.64V325.32h-3.584v-5.696h3.776l2.624-10.432h4.608v10.432h7.616v5.696h-7.616v18.24
		c0,1.878,0.384,3.072,1.152,3.584c0.768,0.512,1.6,0.768,2.496,0.768c0.469,0,1.12-0.106,1.952-0.32
		c0.832-0.213,1.504-0.426,2.016-0.64v4.8c-0.512,0.256-1.131,0.48-1.856,0.672c-0.726,0.192-1.472,0.33-2.24,0.416
		C1881.126,352.925,1880.422,352.968,1879.782,352.968z"/>
	<path style="fill:#FFFFFF;" d="M1904.357,352.968c-3.371,0-6.038-0.928-8-2.784c-1.963-1.856-2.944-4.661-2.944-8.416v-22.144
		h7.424v20.48c0,2.603,0.522,4.459,1.568,5.568c1.045,1.11,2.57,1.664,4.576,1.664c1.365,0,2.624-0.33,3.776-0.992
		c1.152-0.661,2.08-1.557,2.784-2.688c0.704-1.13,1.056-2.378,1.056-3.744v-20.288h7.424v26.048c0,0.811,0.192,1.387,0.576,1.728
		c0.384,0.342,0.81,0.512,1.28,0.512c0.469,0,0.938-0.085,1.408-0.256c0.469-0.17,0.917-0.362,1.344-0.576v4.544
		c-0.555,0.427-1.259,0.757-2.112,0.992c-0.854,0.234-1.856,0.352-3.008,0.352c-1.408,0-2.56-0.246-3.456-0.736
		c-0.896-0.49-1.568-1.152-2.016-1.984c-0.448-0.832-0.779-1.717-0.992-2.656c-1.067,1.707-2.571,3.03-4.512,3.968
		C1908.592,352.498,1906.534,352.968,1904.357,352.968z"/>
	<path style="fill:#FFFFFF;" d="M1945.061,352.968c-2.176,0-4.096-0.267-5.76-0.8c-1.664-0.533-3.072-1.248-4.224-2.144
		s-2.027-1.92-2.624-3.072c-0.598-1.152-0.896-2.346-0.896-3.584c0-0.256,0-0.469,0-0.64c0-0.17,0.021-0.405,0.064-0.704h6.4
		c-0.043,0.128-0.064,0.246-0.064,0.352c0,0.107,0,0.203,0,0.288c0,1.195,0.384,2.176,1.152,2.944
		c0.768,0.768,1.781,1.344,3.04,1.728c1.258,0.384,2.656,0.576,4.192,0.576c1.28,0,2.496-0.17,3.648-0.512
		c1.152-0.341,2.09-0.842,2.816-1.504c0.725-0.661,1.088-1.482,1.088-2.464c0-1.109-0.384-1.962-1.152-2.56
		c-0.768-0.597-1.782-1.066-3.04-1.408c-1.259-0.341-2.646-0.64-4.16-0.896c-1.515-0.256-3.04-0.565-4.576-0.928
		c-1.536-0.362-2.934-0.874-4.192-1.536c-1.259-0.661-2.272-1.568-3.04-2.72c-0.768-1.152-1.152-2.666-1.152-4.544
		c0-1.536,0.341-2.922,1.024-4.16c0.682-1.237,1.642-2.272,2.88-3.104c1.237-0.832,2.688-1.472,4.352-1.92
		c1.664-0.448,3.456-0.672,5.376-0.672h1.024c1.792,0,3.466,0.235,5.024,0.704c1.557,0.47,2.912,1.11,4.064,1.92
		c1.152,0.811,2.048,1.75,2.688,2.816c0.64,1.067,0.96,2.198,0.96,3.392c0,0.214-0.011,0.448-0.032,0.704
		c-0.022,0.256-0.032,0.427-0.032,0.512h-6.464v-0.64c0-0.426-0.107-0.885-0.32-1.376c-0.214-0.49-0.598-0.96-1.152-1.408
		c-0.555-0.448-1.291-0.821-2.208-1.12c-0.918-0.298-2.08-0.448-3.488-0.448c-1.28,0-2.368,0.128-3.264,0.384
		c-0.896,0.256-1.622,0.587-2.176,0.992c-0.555,0.406-0.95,0.843-1.184,1.312c-0.235,0.47-0.352,0.918-0.352,1.344
		c0,0.982,0.384,1.75,1.152,2.304c0.768,0.555,1.792,0.992,3.072,1.312c1.28,0.32,2.688,0.598,4.224,0.832
		c1.536,0.235,3.061,0.534,4.576,0.896c1.514,0.363,2.912,0.886,4.192,1.568c1.28,0.683,2.304,1.6,3.072,2.752
		c0.768,1.152,1.152,2.667,1.152,4.544c0,1.963-0.374,3.638-1.12,5.024c-0.747,1.387-1.782,2.486-3.104,3.296
		c-1.323,0.811-2.827,1.408-4.512,1.792c-1.686,0.384-3.467,0.576-5.344,0.576H1945.061z"/>
	<path style="fill:#FFFFFF;" d="M1981.541,352.328v-6.144h5.12v-31.616h-5.12v-6.144h18.176v6.144h-5.12v31.616h5.12v6.144H1981.541
		z"/>
	<path style="fill:#FFFFFF;" d="M2007.908,352.328v-32.704h5.44l0.96,4.8c1.237-1.792,2.773-3.146,4.608-4.064
		c1.834-0.917,3.882-1.376,6.144-1.376c2.261,0,4.245,0.427,5.952,1.28c1.706,0.854,3.04,2.102,4,3.744
		c0.96,1.643,1.439,3.659,1.439,6.048v22.272h-7.424v-20.928c0-2.432-0.565-4.17-1.695-5.216c-1.132-1.045-2.699-1.568-4.704-1.568
		c-1.323,0-2.539,0.331-3.648,0.992c-1.109,0.662-1.995,1.547-2.656,2.656c-0.661,1.11-0.991,2.368-0.991,3.776v20.288H2007.908z"/>
	<path style="fill:#FFFFFF;" d="M2056.101,352.968c-1.707,0-3.231-0.256-4.576-0.768c-1.344-0.512-2.39-1.354-3.136-2.528
		c-0.747-1.173-1.12-2.72-1.12-4.64V325.32h-3.584v-5.696h3.776l2.624-10.432h4.607v10.432h7.616v5.696h-7.616v18.24
		c0,1.878,0.385,3.072,1.152,3.584c0.768,0.512,1.6,0.768,2.496,0.768c0.469,0,1.12-0.106,1.952-0.32
		c0.832-0.213,1.504-0.426,2.016-0.64v4.8c-0.512,0.256-1.131,0.48-1.855,0.672c-0.727,0.192-1.473,0.33-2.24,0.416
		C2057.444,352.925,2056.741,352.968,2056.101,352.968z"/>
	<path style="fill:#FFFFFF;" d="M2083.62,352.968c-2.987,0-5.611-0.63-7.872-1.888c-2.262-1.258-4.021-3.104-5.28-5.536
		c-1.259-2.432-1.888-5.376-1.888-8.832v-1.472c0-3.456,0.672-6.4,2.016-8.832c1.345-2.432,3.179-4.277,5.505-5.536
		c2.324-1.258,4.98-1.888,7.968-1.888h0.832c2.772,0,5.205,0.566,7.296,1.696c2.09,1.131,3.712,2.742,4.864,4.832
		c1.151,2.091,1.728,4.544,1.728,7.36v4.032h-22.464c0,2.262,0.298,4.224,0.896,5.888s1.482,2.934,2.656,3.808
		c1.173,0.875,2.634,1.312,4.384,1.312c1.45,0,2.741-0.288,3.872-0.864c1.13-0.576,2.026-1.44,2.688-2.592
		c0.661-1.152,0.992-2.581,0.992-4.288h6.976c0,2.56-0.64,4.8-1.92,6.72s-3.008,3.414-5.184,4.48c-2.177,1.066-4.651,1.6-7.425,1.6
		H2083.62z M2076.388,332.808h15.104c0-2.986-0.651-5.194-1.952-6.624c-1.302-1.429-3.083-2.144-5.344-2.144
		c-2.134,0-3.937,0.736-5.408,2.208C2077.316,327.72,2076.517,329.907,2076.388,332.808z"/>
	<path style="fill:#FFFFFF;" d="M2106.915,352.328v-32.704h5.568l0.96,4.8c0.085-0.128,0.298-0.469,0.64-1.024
		c0.342-0.554,0.874-1.173,1.601-1.856c0.725-0.682,1.642-1.28,2.752-1.792c1.109-0.512,2.453-0.768,4.032-0.768
		c2.261,0,4.105,0.448,5.536,1.344c1.429,0.896,2.495,2.123,3.199,3.68c0.704,1.558,1.057,3.339,1.057,5.344
		c0,0.47-0.022,0.95-0.064,1.44c-0.043,0.491-0.086,0.907-0.128,1.248h-6.271v-1.28c0-0.896-0.172-1.813-0.513-2.752
		c-0.342-0.938-0.918-1.728-1.728-2.368c-0.812-0.64-1.942-0.96-3.393-0.96c-1.066,0-1.974,0.224-2.72,0.672
		c-0.747,0.448-1.354,1.014-1.824,1.696c-0.47,0.683-0.8,1.419-0.991,2.208c-0.192,0.79-0.288,1.526-0.288,2.208v20.864H2106.915z"
		/>
	<path style="fill:#FFFFFF;" d="M2138.53,352.328v-32.704h5.568l1.024,4.8c1.108-1.706,2.432-3.04,3.968-4s3.349-1.44,5.439-1.44
		c2.134,0,4.032,0.416,5.696,1.248s2.965,2.187,3.904,4.064c0.98-1.621,2.293-2.912,3.936-3.872s3.595-1.44,5.856-1.44
		c2.09,0,3.946,0.427,5.567,1.28c1.621,0.854,2.891,2.102,3.809,3.744c0.917,1.643,1.376,3.659,1.376,6.048v22.272h-7.424v-20.672
		c0-2.474-0.491-4.256-1.473-5.344s-2.39-1.632-4.224-1.632c-1.195,0-2.262,0.31-3.2,0.928c-0.938,0.619-1.675,1.483-2.208,2.592
		c-0.534,1.11-0.8,2.368-0.8,3.776v20.352h-7.424v-20.672c0-2.474-0.502-4.256-1.504-5.344c-1.003-1.088-2.422-1.632-4.256-1.632
		c-1.195,0-2.263,0.31-3.2,0.928c-0.939,0.619-1.675,1.483-2.208,2.592c-0.534,1.11-0.8,2.368-0.8,3.776v20.352H2138.53z"/>
	<path style="fill:#FFFFFF;" d="M2207.842,352.968c-2.987,0-5.611-0.63-7.872-1.888c-2.262-1.258-4.021-3.104-5.28-5.536
		c-1.259-2.432-1.888-5.376-1.888-8.832v-1.472c0-3.456,0.672-6.4,2.016-8.832c1.345-2.432,3.179-4.277,5.505-5.536
		c2.324-1.258,4.98-1.888,7.968-1.888h0.832c2.772,0,5.205,0.566,7.296,1.696c2.09,1.131,3.712,2.742,4.864,4.832
		c1.151,2.091,1.728,4.544,1.728,7.36v4.032h-22.464c0,2.262,0.298,4.224,0.896,5.888s1.482,2.934,2.656,3.808
		c1.173,0.875,2.634,1.312,4.384,1.312c1.45,0,2.741-0.288,3.872-0.864c1.13-0.576,2.026-1.44,2.688-2.592
		c0.661-1.152,0.992-2.581,0.992-4.288h6.976c0,2.56-0.64,4.8-1.92,6.72s-3.008,3.414-5.184,4.48c-2.177,1.066-4.651,1.6-7.425,1.6
		H2207.842z M2200.609,332.808h15.104c0-2.986-0.651-5.194-1.952-6.624c-1.302-1.429-3.083-2.144-5.344-2.144
		c-2.134,0-3.937,0.736-5.408,2.208C2201.538,327.72,2200.738,329.907,2200.609,332.808z"/>
	<path style="fill:#FFFFFF;" d="M2243.297,352.968c-2.475,0-4.735-0.598-6.784-1.792c-2.048-1.194-3.69-3.05-4.928-5.568
		c-1.238-2.517-1.855-5.738-1.855-9.664v-0.704c0-3.584,0.586-6.581,1.76-8.992c1.173-2.41,2.729-4.224,4.672-5.44
		c1.941-1.216,4.085-1.824,6.432-1.824c2.305,0,4.267,0.438,5.889,1.312c1.621,0.875,2.857,1.995,3.712,3.36v-17.408h7.424v46.08
		h-5.76l-0.896-4.416c-1.066,1.536-2.39,2.763-3.968,3.68C2247.414,352.509,2245.515,352.968,2243.297,352.968z M2244.77,347.912
		c1.364,0,2.602-0.33,3.712-0.992c1.108-0.661,2.005-1.717,2.688-3.168c0.683-1.45,1.024-3.349,1.024-5.696v-4.544
		c0-2.09-0.331-3.829-0.992-5.216c-0.662-1.386-1.558-2.421-2.688-3.104c-1.131-0.682-2.379-1.024-3.743-1.024
		c-2.049,0-3.767,0.779-5.152,2.336c-1.387,1.558-2.08,3.894-2.08,7.008v4.48c0,2.347,0.32,4.246,0.96,5.696
		c0.64,1.451,1.504,2.518,2.592,3.2C2242.177,347.571,2243.403,347.912,2244.77,347.912z"/>
	<path style="fill:#FFFFFF;" d="M2269.729,312.264v-6.016h7.808v6.016H2269.729z M2269.92,352.328v-32.704h7.424v32.704H2269.92z"/>
	<path style="fill:#FFFFFF;" d="M2295.776,352.968c-1.75,0-3.424-0.278-5.024-0.832c-1.6-0.554-2.912-1.504-3.936-2.848
		c-1.024-1.344-1.536-3.168-1.536-5.472c0-2.346,0.521-4.245,1.567-5.696c1.046-1.45,2.528-2.56,4.448-3.328s4.225-1.29,6.912-1.568
		c2.688-0.277,5.674-0.416,8.96-0.416v-3.072c0-2.133-0.544-3.637-1.632-4.512c-1.088-0.874-2.742-1.312-4.96-1.312
		c-1.835,0-3.456,0.406-4.864,1.216c-1.408,0.811-2.112,2.091-2.112,3.84v0.64h-7.168c-0.043-0.17-0.063-0.373-0.063-0.608
		c0-0.234,0-0.458,0-0.672c0-1.877,0.586-3.52,1.76-4.928c1.173-1.408,2.805-2.496,4.896-3.264c2.09-0.768,4.479-1.152,7.168-1.152
		h1.088c4.437,0,7.744,0.875,9.92,2.624c2.176,1.75,3.264,4.203,3.264,7.36v16.704c0,0.811,0.192,1.387,0.576,1.728
		c0.384,0.342,0.81,0.512,1.28,0.512c0.426,0,0.885-0.085,1.376-0.256c0.49-0.17,0.949-0.362,1.376-0.576v4.544
		c-0.556,0.427-1.259,0.757-2.112,0.992c-0.854,0.234-1.878,0.352-3.072,0.352c-1.407,0-2.57-0.256-3.487-0.768
		c-0.918-0.512-1.611-1.205-2.08-2.08c-0.471-0.874-0.747-1.866-0.832-2.976c-1.238,1.835-2.838,3.264-4.8,4.288
		C2300.725,352.456,2298.421,352.968,2295.776,352.968z M2298.977,347.912c1.364,0,2.665-0.309,3.903-0.928
		c1.237-0.618,2.261-1.546,3.072-2.784c0.81-1.237,1.216-2.794,1.216-4.672v-2.496c-2.987,0-5.547,0.16-7.68,0.48
		c-2.134,0.32-3.755,0.907-4.864,1.76c-1.11,0.854-1.664,2.134-1.664,3.84c0,1.707,0.512,2.934,1.536,3.68
		C2295.521,347.539,2297.013,347.912,2298.977,347.912z"/>
	<path style="fill:#FFFFFF;" d="M2335.903,352.968c-1.707,0-3.231-0.256-4.576-0.768c-1.344-0.512-2.39-1.354-3.136-2.528
		c-0.747-1.173-1.12-2.72-1.12-4.64V325.32h-3.584v-5.696h3.776l2.624-10.432h4.607v10.432h7.616v5.696h-7.616v18.24
		c0,1.878,0.385,3.072,1.152,3.584c0.768,0.512,1.6,0.768,2.496,0.768c0.469,0,1.12-0.106,1.952-0.32
		c0.832-0.213,1.504-0.426,2.016-0.64v4.8c-0.512,0.256-1.131,0.48-1.855,0.672c-0.727,0.192-1.473,0.33-2.24,0.416
		C2337.247,352.925,2336.544,352.968,2335.903,352.968z"/>
	<path style="fill:#FFFFFF;" d="M2363.423,352.968c-2.987,0-5.611-0.63-7.872-1.888c-2.262-1.258-4.021-3.104-5.28-5.536
		c-1.259-2.432-1.888-5.376-1.888-8.832v-1.472c0-3.456,0.672-6.4,2.016-8.832c1.345-2.432,3.179-4.277,5.505-5.536
		c2.324-1.258,4.98-1.888,7.968-1.888h0.832c2.772,0,5.205,0.566,7.296,1.696c2.09,1.131,3.712,2.742,4.864,4.832
		c1.151,2.091,1.728,4.544,1.728,7.36v4.032h-22.464c0,2.262,0.298,4.224,0.896,5.888s1.482,2.934,2.656,3.808
		c1.173,0.875,2.634,1.312,4.384,1.312c1.45,0,2.741-0.288,3.872-0.864c1.13-0.576,2.026-1.44,2.688-2.592
		c0.661-1.152,0.992-2.581,0.992-4.288h6.976c0,2.56-0.64,4.8-1.92,6.72s-3.008,3.414-5.184,4.48c-2.177,1.066-4.651,1.6-7.425,1.6
		H2363.423z M2356.19,332.808h15.104c0-2.986-0.651-5.194-1.952-6.624c-1.302-1.429-3.083-2.144-5.344-2.144
		c-2.134,0-3.937,0.736-5.408,2.208C2357.119,327.72,2356.319,329.907,2356.19,332.808z"/>
	<path style="fill:#FFFFFF;" d="M1854.278,424.711c-1.238,0-2.368-0.224-3.392-0.672c-1.024-0.448-1.846-1.269-2.464-2.464
		c-0.619-1.194-0.928-2.901-0.928-5.12c0-1.877-0.203-3.456-0.608-4.736c-0.406-1.28-0.95-2.325-1.632-3.136
		c-0.683-0.81-1.451-1.397-2.304-1.76c-0.854-0.362-1.728-0.544-2.624-0.544h-9.28v18.048h-7.936v-43.904h21.248
		c2.09,0,4.021,0.459,5.792,1.376c1.77,0.918,3.21,2.198,4.32,3.84c1.109,1.643,1.664,3.574,1.664,5.792
		c0,1.75-0.352,3.371-1.056,4.864c-0.704,1.494-1.643,2.795-2.816,3.904c-1.174,1.11-2.464,1.942-3.872,2.496v0.32
		c0.554,0.171,1.216,0.48,1.984,0.928c0.768,0.448,1.525,1.088,2.272,1.92c0.746,0.832,1.376,1.91,1.888,3.232
		c0.512,1.323,0.768,2.944,0.768,4.864c0,1.408,0.064,2.592,0.192,3.552c0.128,0.96,0.32,1.75,0.576,2.368
		c0.256,0.619,0.597,1.11,1.024,1.472c0.426,0.363,0.917,0.651,1.472,0.864v1.792c-0.512,0.214-1.152,0.384-1.92,0.512
		S1855.088,424.711,1854.278,424.711z M1831.046,400.136h11.008c1.152,0,2.186-0.373,3.104-1.12
		c0.917-0.746,1.653-1.717,2.208-2.912c0.554-1.194,0.832-2.453,0.832-3.776c0-1.792-0.566-3.2-1.696-4.224
		c-1.131-1.024-2.592-1.536-4.384-1.536h-11.072V400.136z"/>
	<path style="fill:#FFFFFF;" d="M1878.982,424.968c-2.987,0-5.611-0.63-7.872-1.888c-2.262-1.258-4.022-3.104-5.28-5.536
		c-1.259-2.432-1.888-5.376-1.888-8.832v-1.472c0-3.456,0.672-6.4,2.016-8.832c1.344-2.432,3.178-4.277,5.504-5.536
		c2.325-1.258,4.981-1.888,7.968-1.888h0.832c2.773,0,5.205,0.566,7.296,1.696c2.09,1.131,3.712,2.742,4.864,4.832
		c1.152,2.091,1.728,4.544,1.728,7.36v4.032h-22.464c0,2.262,0.298,4.224,0.896,5.888c0.597,1.664,1.482,2.934,2.656,3.808
		c1.173,0.875,2.634,1.312,4.384,1.312c1.45,0,2.741-0.288,3.872-0.864c1.13-0.576,2.026-1.44,2.688-2.592
		c0.661-1.152,0.992-2.581,0.992-4.288h6.976c0,2.56-0.64,4.8-1.92,6.72c-1.28,1.92-3.008,3.414-5.184,4.48
		c-2.176,1.066-4.651,1.6-7.424,1.6H1878.982z M1871.75,404.808h15.104c0-2.986-0.651-5.194-1.952-6.624
		c-1.302-1.429-3.083-2.144-5.344-2.144c-2.134,0-3.936,0.736-5.408,2.208C1872.678,399.72,1871.878,401.907,1871.75,404.808z"/>
	<path style="fill:#FFFFFF;" d="M1902.213,435.912v-44.288h5.696l0.96,4.416c1.024-1.536,2.368-2.762,4.032-3.68
		c1.664-0.917,3.605-1.376,5.824-1.376c2.474,0,4.714,0.544,6.72,1.632c2.005,1.088,3.605,2.838,4.8,5.248
		c1.194,2.411,1.792,5.579,1.792,9.504v1.344c0,3.542-0.576,6.528-1.728,8.96c-1.152,2.432-2.699,4.256-4.64,5.472
		c-1.942,1.216-4.086,1.824-6.432,1.824c-2.304,0-4.256-0.438-5.856-1.312c-1.6-0.874-2.827-1.994-3.68-3.36v15.616H1902.213z
		 M1917.061,419.784c1.365,0,2.592-0.352,3.68-1.056c1.088-0.704,1.941-1.749,2.56-3.136c0.618-1.386,0.928-3.104,0.928-5.152v-4.48
		c0-2.346-0.31-4.245-0.928-5.696c-0.619-1.45-1.472-2.517-2.56-3.2c-1.088-0.682-2.315-1.024-3.68-1.024
		c-1.323,0-2.55,0.331-3.68,0.992c-1.131,0.662-2.038,1.707-2.72,3.136c-0.683,1.43-1.024,3.339-1.024,5.728v4.544
		c0,2.091,0.33,3.83,0.992,5.216c0.661,1.387,1.557,2.422,2.688,3.104C1914.447,419.443,1915.695,419.784,1917.061,419.784z"/>
	<path style="fill:#FFFFFF;" d="M1940.1,424.328v-32.704h5.568l0.96,4.8c0.085-0.128,0.298-0.469,0.64-1.024
		c0.341-0.554,0.874-1.173,1.6-1.856c0.725-0.682,1.642-1.28,2.752-1.792c1.109-0.512,2.453-0.768,4.032-0.768
		c2.261,0,4.106,0.448,5.536,1.344c1.429,0.896,2.496,2.123,3.2,3.68c0.704,1.558,1.056,3.339,1.056,5.344
		c0,0.47-0.022,0.95-0.064,1.44c-0.043,0.491-0.086,0.907-0.128,1.248h-6.272v-1.28c0-0.896-0.171-1.813-0.512-2.752
		c-0.342-0.938-0.918-1.728-1.728-2.368c-0.811-0.64-1.942-0.96-3.392-0.96c-1.067,0-1.974,0.224-2.72,0.672
		c-0.747,0.448-1.355,1.014-1.824,1.696c-0.47,0.683-0.8,1.419-0.992,2.208c-0.192,0.79-0.288,1.526-0.288,2.208v20.864H1940.1z"/>
	<path style="fill:#FFFFFF;" d="M1985.284,424.968c-2.987,0-5.611-0.63-7.872-1.888c-2.262-1.258-4.022-3.104-5.28-5.536
		c-1.259-2.432-1.888-5.376-1.888-8.832v-1.472c0-3.456,0.672-6.4,2.016-8.832c1.344-2.432,3.178-4.277,5.504-5.536
		c2.325-1.258,4.981-1.888,7.968-1.888h0.832c2.773,0,5.205,0.566,7.296,1.696c2.09,1.131,3.712,2.742,4.864,4.832
		c1.152,2.091,1.728,4.544,1.728,7.36v4.032h-22.464c0,2.262,0.298,4.224,0.896,5.888c0.597,1.664,1.482,2.934,2.656,3.808
		c1.173,0.875,2.634,1.312,4.384,1.312c1.45,0,2.741-0.288,3.872-0.864c1.13-0.576,2.026-1.44,2.688-2.592
		c0.661-1.152,0.992-2.581,0.992-4.288h6.976c0,2.56-0.64,4.8-1.92,6.72c-1.28,1.92-3.008,3.414-5.184,4.48
		c-2.176,1.066-4.651,1.6-7.424,1.6H1985.284z M1978.051,404.808h15.104c0-2.986-0.651-5.194-1.952-6.624
		c-1.302-1.429-3.083-2.144-5.344-2.144c-2.134,0-3.936,0.736-5.408,2.208C1978.979,399.72,1978.18,401.907,1978.051,404.808z"/>
	<path style="fill:#FFFFFF;" d="M2020.099,424.968c-2.176,0-4.096-0.267-5.76-0.8c-1.664-0.533-3.072-1.248-4.224-2.144
		c-1.152-0.896-2.027-1.92-2.624-3.072c-0.599-1.152-0.896-2.346-0.896-3.584c0-0.256,0-0.469,0-0.64
		c0-0.17,0.021-0.405,0.064-0.704h6.399c-0.043,0.128-0.063,0.246-0.063,0.352c0,0.107,0,0.203,0,0.288
		c0,1.195,0.384,2.176,1.152,2.944c0.768,0.768,1.78,1.344,3.04,1.728c1.258,0.384,2.655,0.576,4.191,0.576
		c1.28,0,2.496-0.17,3.648-0.512c1.151-0.341,2.09-0.842,2.815-1.504c0.726-0.661,1.088-1.482,1.088-2.464
		c0-1.109-0.384-1.962-1.151-2.56c-0.769-0.597-1.782-1.066-3.04-1.408c-1.259-0.341-2.646-0.64-4.16-0.896
		c-1.515-0.256-3.04-0.565-4.576-0.928c-1.536-0.362-2.934-0.874-4.192-1.536c-1.259-0.661-2.271-1.568-3.039-2.72
		c-0.769-1.152-1.152-2.666-1.152-4.544c0-1.536,0.341-2.922,1.023-4.16c0.683-1.237,1.643-2.272,2.881-3.104
		c1.236-0.832,2.688-1.472,4.352-1.92c1.664-0.448,3.456-0.672,5.376-0.672h1.024c1.792,0,3.466,0.235,5.023,0.704
		c1.558,0.47,2.912,1.11,4.064,1.92c1.151,0.811,2.048,1.75,2.688,2.816c0.641,1.067,0.96,2.198,0.96,3.392
		c0,0.214-0.011,0.448-0.031,0.704c-0.022,0.256-0.032,0.427-0.032,0.512h-6.464v-0.64c0-0.426-0.107-0.885-0.32-1.376
		c-0.214-0.49-0.598-0.96-1.152-1.408c-0.555-0.448-1.291-0.821-2.208-1.12c-0.918-0.298-2.08-0.448-3.487-0.448
		c-1.28,0-2.368,0.128-3.265,0.384c-0.896,0.256-1.622,0.587-2.176,0.992c-0.555,0.406-0.95,0.843-1.184,1.312
		c-0.235,0.47-0.353,0.918-0.353,1.344c0,0.982,0.384,1.75,1.152,2.304c0.768,0.555,1.792,0.992,3.072,1.312
		c1.279,0.32,2.688,0.598,4.224,0.832c1.536,0.235,3.061,0.534,4.576,0.896c1.514,0.363,2.912,0.886,4.191,1.568
		c1.28,0.683,2.305,1.6,3.072,2.752c0.768,1.152,1.152,2.667,1.152,4.544c0,1.963-0.374,3.638-1.12,5.024
		c-0.747,1.387-1.782,2.486-3.104,3.296c-1.322,0.811-2.827,1.408-4.512,1.792c-1.686,0.384-3.467,0.576-5.344,0.576H2020.099z"/>
	<path style="fill:#FFFFFF;" d="M2057.027,424.968c-2.987,0-5.611-0.63-7.872-1.888c-2.263-1.258-4.022-3.104-5.28-5.536
		c-1.259-2.432-1.888-5.376-1.888-8.832v-1.472c0-3.456,0.672-6.4,2.016-8.832s3.178-4.277,5.504-5.536
		c2.325-1.258,4.981-1.888,7.968-1.888h0.832c2.773,0,5.205,0.566,7.296,1.696c2.091,1.131,3.712,2.742,4.864,4.832
		c1.152,2.091,1.729,4.544,1.729,7.36v4.032h-22.465c0,2.262,0.299,4.224,0.896,5.888c0.597,1.664,1.482,2.934,2.656,3.808
		c1.173,0.875,2.634,1.312,4.384,1.312c1.45,0,2.741-0.288,3.872-0.864c1.13-0.576,2.025-1.44,2.688-2.592
		c0.661-1.152,0.992-2.581,0.992-4.288h6.977c0,2.56-0.641,4.8-1.921,6.72c-1.279,1.92-3.008,3.414-5.184,4.48s-4.651,1.6-7.424,1.6
		H2057.027z M2049.795,404.808h15.104c0-2.986-0.65-5.194-1.951-6.624c-1.303-1.429-3.083-2.144-5.345-2.144
		c-2.134,0-3.936,0.736-5.407,2.208C2050.723,399.72,2049.923,401.907,2049.795,404.808z"/>
	<path style="fill:#FFFFFF;" d="M2080.322,424.328v-32.704h5.439l0.961,4.8c1.236-1.792,2.772-3.146,4.607-4.064
		c1.834-0.917,3.882-1.376,6.145-1.376c2.261,0,4.244,0.427,5.951,1.28c1.706,0.854,3.04,2.102,4,3.744
		c0.96,1.643,1.44,3.659,1.44,6.048v22.272h-7.424v-20.928c0-2.432-0.566-4.17-1.696-5.216c-1.131-1.045-2.699-1.568-4.704-1.568
		c-1.323,0-2.539,0.331-3.647,0.992c-1.11,0.662-1.995,1.547-2.656,2.656c-0.662,1.11-0.992,2.368-0.992,3.776v20.288H2080.322z"/>
	<path style="fill:#FFFFFF;" d="M2128.515,424.968c-1.707,0-3.232-0.256-4.576-0.768c-1.344-0.512-2.391-1.354-3.136-2.528
		c-0.747-1.173-1.12-2.72-1.12-4.64V397.32h-3.584v-5.696h3.775l2.624-10.432h4.608v10.432h7.616v5.696h-7.616v18.24
		c0,1.878,0.384,3.072,1.152,3.584c0.768,0.512,1.6,0.768,2.495,0.768c0.47,0,1.12-0.106,1.952-0.32
		c0.832-0.213,1.504-0.426,2.017-0.64v4.8c-0.513,0.256-1.131,0.48-1.856,0.672c-0.726,0.192-1.472,0.33-2.24,0.416
		C2129.858,424.925,2129.154,424.968,2128.515,424.968z"/>
	<path style="fill:#FFFFFF;" d="M2150.978,424.968c-1.75,0-3.424-0.278-5.023-0.832c-1.601-0.554-2.912-1.504-3.937-2.848
		c-1.023-1.344-1.536-3.168-1.536-5.472c0-2.346,0.522-4.245,1.568-5.696c1.045-1.45,2.528-2.56,4.448-3.328s4.224-1.29,6.912-1.568
		c2.688-0.277,5.674-0.416,8.96-0.416v-3.072c0-2.133-0.544-3.637-1.633-4.512c-1.088-0.874-2.741-1.312-4.96-1.312
		c-1.835,0-3.456,0.406-4.863,1.216c-1.408,0.811-2.112,2.091-2.112,3.84v0.64h-7.168c-0.043-0.17-0.064-0.373-0.064-0.608
		c0-0.234,0-0.458,0-0.672c0-1.877,0.586-3.52,1.761-4.928c1.173-1.408,2.805-2.496,4.896-3.264c2.09-0.768,4.48-1.152,7.168-1.152
		h1.088c4.438,0,7.744,0.875,9.92,2.624c2.177,1.75,3.265,4.203,3.265,7.36v16.704c0,0.811,0.191,1.387,0.576,1.728
		c0.384,0.342,0.81,0.512,1.279,0.512c0.426,0,0.885-0.085,1.376-0.256c0.49-0.17,0.949-0.362,1.376-0.576v4.544
		c-0.555,0.427-1.259,0.757-2.111,0.992c-0.854,0.234-1.878,0.352-3.072,0.352c-1.408,0-2.571-0.256-3.488-0.768
		c-0.918-0.512-1.61-1.205-2.08-2.08c-0.47-0.874-0.747-1.866-0.832-2.976c-1.237,1.835-2.838,3.264-4.8,4.288
		C2155.927,424.456,2153.623,424.968,2150.978,424.968z M2154.178,419.912c1.365,0,2.666-0.309,3.904-0.928
		c1.236-0.618,2.261-1.546,3.071-2.784c0.811-1.237,1.217-2.794,1.217-4.672v-2.496c-2.987,0-5.548,0.16-7.681,0.48
		c-2.134,0.32-3.755,0.907-4.863,1.76c-1.11,0.854-1.664,2.134-1.664,3.84c0,1.707,0.512,2.934,1.535,3.68
		C2150.722,419.539,2152.215,419.912,2154.178,419.912z"/>
	<path style="fill:#FFFFFF;" d="M2191.105,424.968c-1.707,0-3.232-0.256-4.576-0.768c-1.344-0.512-2.391-1.354-3.136-2.528
		c-0.747-1.173-1.12-2.72-1.12-4.64V397.32h-3.584v-5.696h3.775l2.624-10.432h4.608v10.432h7.616v5.696h-7.616v18.24
		c0,1.878,0.384,3.072,1.152,3.584c0.768,0.512,1.6,0.768,2.495,0.768c0.47,0,1.12-0.106,1.952-0.32
		c0.832-0.213,1.504-0.426,2.017-0.64v4.8c-0.513,0.256-1.131,0.48-1.856,0.672c-0.726,0.192-1.472,0.33-2.24,0.416
		C2192.449,424.925,2191.745,424.968,2191.105,424.968z"/>
	<path style="fill:#FFFFFF;" d="M2205.312,384.264v-6.016h7.808v6.016H2205.312z M2205.505,424.328v-32.704h7.424v32.704H2205.505z"
		/>
	<path style="fill:#FFFFFF;" d="M2236.608,424.968c-2.901,0-5.504-0.661-7.808-1.984c-2.305-1.322-4.107-3.221-5.408-5.696
		c-1.302-2.474-1.952-5.397-1.952-8.768v-1.088c0-3.413,0.65-6.346,1.952-8.8c1.301-2.453,3.093-4.341,5.376-5.664
		c2.282-1.322,4.874-1.984,7.776-1.984h1.023c2.944,0,5.558,0.662,7.84,1.984c2.282,1.323,4.074,3.211,5.376,5.664
		c1.302,2.454,1.952,5.387,1.952,8.8v1.088c0,3.371-0.65,6.294-1.952,8.768c-1.302,2.475-3.094,4.374-5.376,5.696
		c-2.282,1.323-4.875,1.984-7.775,1.984H2236.608z M2237.057,419.912c1.493,0,2.826-0.352,4-1.056
		c1.173-0.704,2.112-1.76,2.815-3.168c0.704-1.408,1.057-3.114,1.057-5.12v-5.184c0-2.048-0.353-3.765-1.057-5.152
		c-0.703-1.386-1.643-2.432-2.815-3.136c-1.174-0.704-2.507-1.056-4-1.056c-1.451,0-2.763,0.352-3.937,1.056
		s-2.111,1.75-2.815,3.136c-0.704,1.387-1.056,3.104-1.056,5.152v5.184c0,2.006,0.352,3.712,1.056,5.12
		c0.704,1.408,1.642,2.464,2.815,3.168C2234.294,419.56,2235.605,419.912,2237.057,419.912z"/>
	<path style="fill:#FFFFFF;" d="M2260.8,424.328v-32.704h5.439l0.961,4.8c1.236-1.792,2.772-3.146,4.607-4.064
		c1.834-0.917,3.882-1.376,6.145-1.376c2.261,0,4.244,0.427,5.951,1.28c1.706,0.854,3.04,2.102,4,3.744
		c0.96,1.643,1.44,3.659,1.44,6.048v22.272h-7.424v-20.928c0-2.432-0.566-4.17-1.696-5.216c-1.131-1.045-2.699-1.568-4.704-1.568
		c-1.323,0-2.539,0.331-3.647,0.992c-1.11,0.662-1.995,1.547-2.656,2.656c-0.662,1.11-0.992,2.368-0.992,3.776v20.288H2260.8z"/>
	<path style="fill:#FFFFFF;" d="M2294.977,434.375c1.535-2.432,2.911-5.142,4.128-8.128c1.216-2.986,2.165-6.101,2.848-9.344
		c0.682-3.242,1.024-6.421,1.024-9.536c0-3.157-0.353-6.336-1.057-9.536c-0.704-3.2-1.653-6.293-2.848-9.28
		c-1.195-2.986-2.561-5.696-4.096-8.128h4.096c3.285,3.712,5.802,7.894,7.552,12.544c1.749,4.651,2.624,9.451,2.624,14.4
		c0,4.992-0.875,9.814-2.624,14.464c-1.75,4.65-4.267,8.832-7.552,12.544H2294.977z"/>
</g>
<g>
	<path style="fill:#FFFFFF;" d="M1188.249,257.528c-4.641,0-8.94-0.741-12.9-2.221s-7.4-3.779-10.32-6.899
		c-2.921-3.12-5.181-7.12-6.78-12c-1.601-4.879-2.4-10.72-2.4-17.521v-7.439c0-6.799,0.84-12.64,2.52-17.521
		c1.68-4.879,4.06-8.88,7.14-12c3.079-3.12,6.699-5.419,10.86-6.899c4.159-1.479,8.679-2.221,13.56-2.221h1.8
		c4.24,0,8.26,0.601,12.06,1.8c3.799,1.2,7.159,3.021,10.08,5.461c2.919,2.44,5.22,5.561,6.9,9.359c1.68,3.801,2.52,8.301,2.52,13.5
		h-13.92c0-4.719-0.861-8.419-2.58-11.1c-1.721-2.68-4.001-4.6-6.84-5.76c-2.841-1.159-6.021-1.74-9.54-1.74
		c-2.721,0-5.241,0.401-7.56,1.2c-2.321,0.8-4.341,2.12-6.06,3.96c-1.721,1.841-3.041,4.301-3.96,7.38
		c-0.92,3.08-1.38,6.899-1.38,11.46v13.68c0,4.561,0.459,8.381,1.38,11.46c0.919,3.081,2.239,5.541,3.96,7.38
		c1.719,1.842,3.739,3.161,6.06,3.96c2.319,0.801,4.839,1.2,7.56,1.2c2.64,0,5.119-0.3,7.44-0.9c2.319-0.6,4.359-1.619,6.12-3.06
		c1.759-1.44,3.139-3.379,4.14-5.82c0.999-2.439,1.5-5.499,1.5-9.18v-4.2h-21.72v-10.319h35.4v28.199c0,4.002,0.1,7.261,0.3,9.78
		c0.199,2.521,0.339,4.461,0.42,5.82h-8.4l-2.52-10.08c-2.481,3.681-5.921,6.479-10.32,8.399c-4.4,1.921-8.96,2.881-13.68,2.881
		H1188.249z"/>
	<path style="fill:#FFFFFF;" d="M1241.529,256.328v-82.32h14.88v34.32h33.24v-34.32h14.88v82.32h-14.76v-36h-33.24v36H1241.529z"/>
	<path style="fill:#FFFFFF;" d="M1355.289,257.528c-4.721,0-9.141-0.681-13.26-2.04c-4.122-1.359-7.721-3.56-10.8-6.601
		c-3.081-3.039-5.501-7.02-7.26-11.939c-1.761-4.92-2.64-10.939-2.64-18.061v-7.439c0-6.96,0.879-12.9,2.64-17.82
		c1.759-4.92,4.179-8.919,7.26-12c3.079-3.079,6.64-5.319,10.68-6.72c4.039-1.399,8.379-2.101,13.02-2.101h1.8
		c4.32,0,8.419,0.601,12.3,1.8c3.879,1.2,7.299,3.102,10.26,5.7c2.959,2.601,5.299,6,7.02,10.2c1.719,4.2,2.58,9.3,2.58,15.3h-14.04
		c0-5.679-0.821-10.06-2.46-13.14c-1.641-3.079-3.9-5.239-6.78-6.48c-2.88-1.239-6.162-1.859-9.84-1.859
		c-2.721,0-5.241,0.401-7.56,1.2c-2.321,0.8-4.32,2.12-6,3.96c-1.68,1.841-2.981,4.301-3.9,7.38c-0.92,3.08-1.38,6.899-1.38,11.46
		v13.68c0,6.081,0.799,10.86,2.4,14.34c1.6,3.48,3.819,5.961,6.66,7.44c2.839,1.481,6.099,2.22,9.78,2.22
		c3.919,0,7.339-0.619,10.26-1.86c2.919-1.239,5.199-3.399,6.84-6.479c1.639-3.079,2.46-7.42,2.46-13.021h13.56
		c0,5.761-0.84,10.722-2.52,14.881c-1.68,4.16-3.98,7.56-6.9,10.199c-2.921,2.641-6.3,4.602-10.14,5.88
		c-3.84,1.279-7.92,1.921-12.24,1.921H1355.289z"/>
	<path style="fill:#FFFFFF;" d="M1172.771,377.528c-4.721,0-9.141-0.681-13.26-2.04c-4.122-1.359-7.721-3.56-10.8-6.601
		c-3.081-3.039-5.501-7.02-7.26-11.939c-1.761-4.92-2.64-10.939-2.64-18.061v-7.439c0-6.96,0.879-12.9,2.64-17.82
		c1.759-4.92,4.179-8.919,7.26-12c3.079-3.079,6.64-5.319,10.68-6.72c4.039-1.399,8.379-2.101,13.02-2.101h1.8
		c4.32,0,8.419,0.601,12.3,1.8c3.879,1.2,7.299,3.102,10.26,5.7c2.959,2.601,5.299,6,7.02,10.2c1.719,4.2,2.58,9.3,2.58,15.3h-14.04
		c0-5.679-0.821-10.06-2.46-13.14c-1.641-3.079-3.9-5.239-6.78-6.48c-2.88-1.239-6.162-1.859-9.84-1.859
		c-2.721,0-5.241,0.401-7.56,1.2c-2.321,0.8-4.32,2.12-6,3.96c-1.68,1.841-2.981,4.301-3.9,7.38c-0.92,3.08-1.38,6.899-1.38,11.46
		v13.68c0,6.081,0.799,10.86,2.4,14.34c1.6,3.48,3.819,5.961,6.66,7.44c2.839,1.481,6.099,2.22,9.78,2.22
		c3.919,0,7.339-0.619,10.26-1.86c2.919-1.239,5.199-3.399,6.84-6.479c1.639-3.079,2.46-7.42,2.46-13.021h13.56
		c0,5.761-0.84,10.722-2.52,14.881c-1.68,4.16-3.98,7.56-6.9,10.199c-2.921,2.641-6.3,4.602-10.14,5.88
		c-3.84,1.279-7.92,1.921-12.24,1.921H1172.771z"/>
	<path style="fill:#FFFFFF;" d="M1247.171,377.528c-5.441,0-10.32-1.24-14.64-3.721c-4.32-2.479-7.701-6.039-10.14-10.68
		c-2.441-4.639-3.66-10.119-3.66-16.44v-2.04c0-6.399,1.219-11.898,3.66-16.5c2.439-4.599,5.799-8.139,10.08-10.619
		c4.279-2.479,9.139-3.721,14.58-3.721h1.92c5.52,0,10.419,1.241,14.7,3.721c4.279,2.48,7.639,6.021,10.08,10.619
		c2.439,4.602,3.66,10.101,3.66,16.5v2.04c0,6.321-1.221,11.802-3.66,16.44c-2.441,4.641-5.801,8.201-10.08,10.68
		c-4.281,2.48-9.141,3.721-14.58,3.721H1247.171z M1248.011,368.048c2.799,0,5.299-0.66,7.5-1.979c2.199-1.32,3.96-3.301,5.28-5.94
		c1.32-2.64,1.98-5.839,1.98-9.6v-9.721c0-3.84-0.66-7.06-1.98-9.66c-1.32-2.599-3.081-4.56-5.28-5.88
		c-2.201-1.319-4.701-1.979-7.5-1.979c-2.721,0-5.181,0.66-7.38,1.979c-2.201,1.32-3.96,3.281-5.28,5.88
		c-1.32,2.601-1.98,5.82-1.98,9.66v9.721c0,3.761,0.66,6.96,1.98,9.6c1.32,2.64,3.079,4.62,5.28,5.94
		C1242.83,367.388,1245.29,368.048,1248.011,368.048z"/>
	<path style="fill:#FFFFFF;" d="M1292.529,376.328v-61.32h10.44l1.8,9c0.159-0.24,0.559-0.879,1.2-1.92
		c0.64-1.039,1.639-2.199,3-3.48c1.359-1.278,3.079-2.399,5.16-3.359c2.08-0.96,4.6-1.44,7.56-1.44c4.239,0,7.699,0.84,10.38,2.521
		c2.68,1.68,4.68,3.98,6,6.899c1.32,2.922,1.98,6.261,1.98,10.021c0,0.881-0.041,1.781-0.12,2.7c-0.081,0.92-0.161,1.7-0.24,2.34
		h-11.76v-2.4c0-1.68-0.32-3.399-0.96-5.16c-0.641-1.759-1.721-3.239-3.24-4.439c-1.521-1.2-3.641-1.8-6.36-1.8
		c-2.001,0-3.702,0.42-5.1,1.26c-1.401,0.84-2.541,1.901-3.42,3.18c-0.881,1.281-1.5,2.661-1.86,4.141
		c-0.36,1.48-0.54,2.86-0.54,4.14v39.12H1292.529z"/>
	<path style="fill:#FFFFFF;" d="M1377.248,377.528c-5.601,0-10.521-1.182-14.76-3.54c-4.241-2.359-7.542-5.82-9.9-10.381
		c-2.361-4.56-3.54-10.079-3.54-16.56v-2.76c0-6.48,1.26-12,3.78-16.561c2.52-4.56,5.959-8.019,10.32-10.38
		c4.359-2.358,9.339-3.54,14.94-3.54h1.56c5.199,0,9.759,1.062,13.68,3.181c3.919,2.12,6.96,5.141,9.12,9.06
		c2.16,3.921,3.24,8.521,3.24,13.8v7.561h-42.12c0,4.241,0.559,7.92,1.68,11.04c1.12,3.12,2.779,5.501,4.98,7.14
		c2.2,1.641,4.939,2.46,8.22,2.46c2.719,0,5.139-0.54,7.26-1.62c2.119-1.08,3.799-2.7,5.04-4.859c1.24-2.16,1.86-4.84,1.86-8.04
		h13.08c0,4.8-1.2,9-3.6,12.6c-2.4,3.6-5.64,6.401-9.72,8.4c-4.08,1.998-8.721,3-13.92,3H1377.248z M1363.688,339.728h28.32
		c0-5.599-1.221-9.738-3.66-12.42c-2.441-2.679-5.781-4.02-10.02-4.02c-4.001,0-7.38,1.38-10.14,4.14
		C1365.428,330.188,1363.928,334.288,1363.688,339.728z"/>
</g>
</svg>
