<?xml version="1.0" encoding="iso-8859-1"?>
<!-- Generator: Adobe Illustrator 29.6.0, SVG Export Plug-In . SVG Version: 9.03 Build 0)  -->
<svg version="1.1" id="Content" xmlns="http://www.w3.org/2000/svg" xmlns:xlink="http://www.w3.org/1999/xlink" x="0px" y="0px"
	 viewBox="0 0 4000 1200" style="enable-background:new 0 0 4000 1200;" xml:space="preserve">
<g>
	<circle style="fill:#9CDEF6;" cx="3412.032" cy="354.212" r="299.805"/>
	<g>
		<path style="fill:#444647;" d="M3636.275,552.957c47.001-52.959,75.562-122.563,75.562-198.745
			c0-79.258-30.938-151.395-81.364-205.053c-0.052-0.052-0.103-0.103-0.103-0.155c-52.558-55.777-126.104-91.522-207.934-94.339
			l-5.854-0.155c-1.512-0.052-3.037-0.103-4.549-0.103c-1.512,0-3.024,0.052-4.536,0.103l-5.816,0.155
			c-81.83,2.817-155.427,38.563-207.921,94.339c-0.052,0.052-0.103,0.103-0.103,0.155c0,0,0,0-0.052,0
			c-50.387,53.657-81.377,125.794-81.377,205.053c0,76.182,28.625,145.786,75.575,198.745c0.091,0.103,0.091,0.207,0.142,0.31
			c0.207,0.246,0.466,0.349,0.659,0.595c52.804,59.02,128.521,97.027,213.077,99.909l5.816,0.207c1.512,0,3.024,0.039,4.536,0.039
			c1.512,0,3.037-0.039,4.549-0.09l5.803-0.155h0.051c84.608-2.882,160.429-40.992,213.232-100.103
			c0.104-0.207,0.349-0.258,0.452-0.452C3636.223,553.164,3636.223,553.061,3636.275,552.957L3636.275,552.957z M3133.175,364.563
			h124.088c1.15,43.822,9.744,86.417,24.981,126.298c-29.426,10.661-57.547,24.89-83.897,42.711
			C3159.629,487.489,3135.502,428.779,3133.175,364.563L3133.175,364.563z M3204.007,168.389
			c25.743,16.71,53.102,30.085,81.675,40.14c-17.472,42.453-27.165,88.239-28.418,135.331h-124.088
			C3135.644,276.621,3161.955,215.339,3204.007,168.389L3204.007,168.389z M3690.94,343.86h-124.127
			c-1.267-47.092-10.907-92.879-28.418-135.331c28.573-10.054,55.983-23.43,81.675-40.14
			C3662.121,215.339,3688.471,276.621,3690.94,343.86L3690.94,343.86z M3401.68,209.084c-29.878-0.814-59.214-5.298-87.529-13.233
			c20.948-43.008,50.53-81.83,87.529-114.138V209.084z M3401.68,229.774V343.86h-123.726c1.266-44.921,10.7-88.537,27.565-128.921
			C3336.56,223.92,3368.817,228.921,3401.68,229.774L3401.68,229.774z M3422.384,229.774c32.864-0.853,65.12-5.854,96.213-14.836
			c16.865,40.385,26.298,84,27.565,128.921h-123.778V229.774z M3422.384,209.084V81.713c37.05,32.308,66.632,71.129,87.581,114.138
			C3481.598,203.786,3452.262,208.27,3422.384,209.084L3422.384,209.084z M3530.007,189.545
			c-19.889-41.6-47.453-79.504-81.571-112.019c60.571,7.922,115.042,35.293,156.991,75.678
			C3581.597,168.286,3556.307,180.459,3530.007,189.545L3530.007,189.545z M3294.108,189.545
			c-26.35-9.085-51.641-21.259-75.42-36.34c41.949-40.385,96.42-67.756,156.952-75.678
			C3341.51,110.041,3313.945,147.945,3294.108,189.545L3294.108,189.545z M3277.954,364.563h123.726v103.786
			c-34.168,0.918-67.64,6.216-99.844,15.908C3287.297,446.496,3279.117,406.111,3277.954,364.563L3277.954,364.563z M3401.68,489
			v137.71c-39.622-34.582-70.664-76.583-91.819-123.222C3339.494,494.752,3370.29,489.906,3401.68,489L3401.68,489z
			 M3422.384,626.71V489c31.403,0.905,62.187,5.751,91.819,14.487C3493.112,550.127,3462.006,592.128,3422.384,626.71
			L3422.384,626.71z M3422.384,468.349V364.563h123.778c-1.163,41.548-9.343,81.933-23.921,119.747
			C3490.075,474.565,3456.565,469.267,3422.384,468.349L3422.384,468.349z M3566.813,364.563h124.127
			c-2.365,64.216-26.454,122.926-65.224,169.009c-26.35-17.821-54.458-32.05-83.845-42.711
			C3557.121,450.981,3565.65,408.386,3566.813,364.563L3566.813,364.563z M3212.433,549.068
			c24.438-16.245,50.478-29.323,77.694-39.067c20.135,45.024,48.966,86.12,85.513,120.896
			C3312.032,622.574,3255.145,592.839,3212.433,549.068L3212.433,549.068z M3448.437,630.897
			c36.547-34.776,65.417-75.82,85.513-120.896c27.204,9.744,53.256,22.822,77.733,39.067
			C3568.932,592.839,3512.044,622.574,3448.437,630.897L3448.437,630.897z M3448.437,630.897"/>
	</g>
</g>
<g>
	<path d="M1601.743,197.689c-3.128,0-5.674-0.766-7.636-2.3c-1.963-1.533-2.944-4.108-2.944-7.728c0-5.274-0.69-9.384-2.07-12.328
		c-1.38-2.944-3.972-4.416-7.774-4.416h-10.672v26.128h-13.984v-63.112h28.244c6.01,0,11.054,1.228,15.134,3.68
		c4.078,2.454,6.118,6.44,6.118,11.96c0,2.208-0.492,4.386-1.472,6.532c-0.982,2.147-2.346,3.988-4.094,5.52
		c-1.748,1.534-3.666,2.484-5.75,2.852v0.46c2.698,0.859,5.06,2.7,7.084,5.52c2.024,2.822,3.036,6.594,3.036,11.316
		c0,6.748,1.564,10.612,4.693,11.592v3.128C1607.63,197.29,1604.993,197.689,1601.743,197.689z M1589.645,157.761
		c1.44-1.348,2.162-2.974,2.162-4.876v-0.644c0-2.024-0.69-3.694-2.07-5.014c-1.38-1.318-3.144-1.978-5.29-1.978h-13.8v14.536h13.8
		C1586.471,159.786,1588.203,159.111,1589.645,157.761z"/>
	<path d="M1657.954,189.823c-1.964,2.792-4.555,4.846-7.774,6.164c-3.22,1.318-6.731,1.978-10.534,1.978h-1.472
		c-4.355,0-8.28-0.92-11.776-2.76c-3.496-1.84-6.241-4.492-8.233-7.958c-1.994-3.464-2.99-7.59-2.99-12.374v-2.668
		c0-4.722,1.012-8.832,3.036-12.328c2.023-3.496,4.768-6.164,8.233-8.004c3.465-1.84,7.375-2.76,11.73-2.76h1.472
		c3.803,0,7.329,0.782,10.58,2.346c3.25,1.564,5.856,3.834,7.82,6.808c1.962,2.976,2.944,6.486,2.944,10.534v6.992h-32.2v2.208
		c0,3.067,0.904,5.628,2.714,7.682c1.809,2.056,4.278,3.082,7.406,3.082c2.82,0,5.044-0.782,6.67-2.346
		c1.624-1.564,2.438-3.878,2.438-6.946h12.88C1660.897,183.583,1659.916,187.033,1657.954,189.823z M1631.688,161.166
		c-1.688,1.902-2.653,4.324-2.897,7.268h18.584c0-3.128-0.722-5.596-2.162-7.406c-1.442-1.808-3.758-2.714-6.946-2.714
		C1635.566,158.314,1633.374,159.265,1631.688,161.166z"/>
	<path d="M1694.708,196.126c-2.239,1.226-4.83,1.84-7.773,1.84c-3.436,0-6.518-0.89-9.246-2.668
		c-2.73-1.778-4.892-4.446-6.486-8.004c-1.596-3.557-2.392-7.88-2.392-12.972v-1.012c0-5.336,0.858-9.812,2.576-13.432
		c1.716-3.618,4.048-6.316,6.991-8.096c2.944-1.778,6.257-2.668,9.937-2.668c3.372,0,6.378,0.69,9.016,2.07
		c2.637,1.38,4.845,3.39,6.624,6.026l1.564-2.392c0.612-1.042,1.195-1.946,1.748-2.714c0.552-0.766,1.012-1.456,1.38-2.07h4.876
		v63.572h-13.433v-21.988C1698.74,193.397,1696.946,194.899,1694.708,196.126z M1684.91,185.315
		c1.656,1.932,3.772,2.898,6.348,2.898c2.576,0,4.692-0.966,6.349-2.898s2.483-4.676,2.483-8.234v-7.636
		c0-3.618-0.827-6.378-2.483-8.28c-1.656-1.9-3.772-2.852-6.349-2.852c-2.575,0-4.691,0.952-6.348,2.852
		c-1.656,1.902-2.483,4.662-2.483,8.28v7.636C1682.427,180.639,1683.254,183.383,1684.91,185.315z"/>
	<path d="M1769.364,188.075c0.553,0.46,1.165,0.69,1.84,0.69c0.613,0,1.288-0.123,2.024-0.368c0.736-0.245,1.318-0.46,1.748-0.644
		v8.28c-2.27,1.288-4.968,1.932-8.096,1.932c-6.134,0-9.692-2.238-10.672-6.716c-3.864,4.478-8.588,6.716-14.168,6.716
		c-4.784,0-8.726-1.288-11.822-3.864c-3.098-2.576-4.646-6.316-4.646-11.224v-32.844h13.433v29.9c0,2.392,0.689,4.37,2.069,5.934
		c1.38,1.564,3.143,2.346,5.29,2.346c2.393,0,4.446-0.904,6.164-2.714c1.717-1.809,2.576-4.002,2.576-6.578v-28.888h13.432v35.972
		C1768.536,186.925,1768.812,187.615,1769.364,188.075z"/>
	<path d="M1822.725,189.823c-1.964,2.792-4.555,4.846-7.774,6.164c-3.22,1.318-6.731,1.978-10.534,1.978h-1.472
		c-4.355,0-8.28-0.92-11.776-2.76c-3.496-1.84-6.241-4.492-8.233-7.958c-1.994-3.464-2.99-7.59-2.99-12.374v-2.668
		c0-4.722,1.012-8.832,3.036-12.328c2.023-3.496,4.768-6.164,8.233-8.004c3.465-1.84,7.375-2.76,11.73-2.76h1.472
		c3.803,0,7.329,0.782,10.58,2.346c3.25,1.564,5.856,3.834,7.82,6.808c1.962,2.976,2.944,6.486,2.944,10.534v6.992h-32.2v2.208
		c0,3.067,0.904,5.628,2.714,7.682c1.809,2.056,4.278,3.082,7.406,3.082c2.82,0,5.044-0.782,6.67-2.346
		c1.624-1.564,2.438-3.878,2.438-6.946h12.88C1825.668,183.583,1824.687,187.033,1822.725,189.823z M1796.458,161.166
		c-1.688,1.902-2.653,4.324-2.897,7.268h18.584c0-3.128-0.722-5.596-2.162-7.406c-1.442-1.808-3.758-2.714-6.946-2.714
		C1800.337,158.314,1798.145,159.265,1796.458,161.166z"/>
	<path d="M1844.253,182.693c0,2.147,0.95,3.696,2.852,4.646c1.9,0.952,4.263,1.426,7.084,1.426c2.453,0,4.646-0.368,6.578-1.104
		c1.933-0.736,2.898-1.9,2.898-3.496c0-1.716-0.89-2.944-2.668-3.68c-1.78-0.736-4.54-1.38-8.28-1.932
		c-3.926-0.674-7.146-1.41-9.66-2.208c-2.516-0.796-4.678-2.176-6.486-4.14c-1.81-1.962-2.714-4.692-2.714-8.188
		c0-3.188,0.935-5.902,2.807-8.142c1.87-2.238,4.354-3.924,7.452-5.06c3.096-1.134,6.485-1.702,10.166-1.702h1.84
		c3.25,0,6.332,0.538,9.246,1.61c2.912,1.074,5.258,2.576,7.038,4.508c1.777,1.932,2.668,4.125,2.668,6.578
		c0,0.492-0.032,0.936-0.093,1.334c-0.062,0.399-0.092,0.629-0.092,0.69h-11.775c0-3.68-2.822-5.52-8.465-5.52
		c-2.575,0-4.646,0.368-6.21,1.104c-1.563,0.736-2.346,1.748-2.346,3.036c0,1.534,0.843,2.607,2.53,3.22
		c1.686,0.614,4.338,1.196,7.958,1.748c4.108,0.676,7.436,1.396,9.981,2.162c2.545,0.768,4.769,2.147,6.67,4.14
		c1.9,1.994,2.853,4.8,2.853,8.418c0,5.582-1.964,9.614-5.888,12.098c-3.927,2.484-8.925,3.726-14.996,3.726h-3.036
		c-3.804,0-7.208-0.583-10.212-1.748c-3.006-1.164-5.353-2.82-7.038-4.968c-1.688-2.146-2.53-4.6-2.53-7.36l0.092-1.84h11.776
		V182.693z"/>
	<path d="M1906.029,197.46c-1.993,0.336-3.757,0.506-5.29,0.506c-4.724,0-8.279-1.012-10.672-3.036
		c-2.392-2.024-3.588-5.396-3.588-10.12v-25.576h-5.151v-9.2h5.611l4.692-14.996h8.28v14.996h10.947v9.2h-10.947v23.276
		c0,2.454,0.474,4.11,1.426,4.968c0.95,0.859,2.223,1.288,3.817,1.288c0.736,0,1.687-0.123,2.853-0.368
		c1.164-0.245,2.116-0.521,2.852-0.828v8.648C1909.632,196.709,1908.022,197.122,1906.029,197.46z"/>
	<path d="M1963.573,197.045h-14.996l-14.353-47.012h13.893l8.096,29.072h0.552c1.595-5.642,2.82-9.874,3.681-12.696l4.691-16.376
		h13.433l8.188,29.072h0.552c3.681-12.88,6.408-22.57,8.188-29.072h13.063l-14.352,47.012h-14.812l-7.728-26.22h-0.552
		C1967.805,182.479,1965.289,191.219,1963.573,197.045z"/>
	<path d="M2055.849,189.823c-1.964,2.792-4.555,4.846-7.774,6.164c-3.22,1.318-6.731,1.978-10.534,1.978h-1.472
		c-4.355,0-8.28-0.92-11.776-2.76c-3.496-1.84-6.241-4.492-8.233-7.958c-1.994-3.464-2.99-7.59-2.99-12.374v-2.668
		c0-4.722,1.012-8.832,3.036-12.328c2.023-3.496,4.768-6.164,8.233-8.004c3.465-1.84,7.375-2.76,11.73-2.76h1.472
		c3.803,0,7.329,0.782,10.58,2.346c3.25,1.564,5.856,3.834,7.82,6.808c1.962,2.976,2.944,6.486,2.944,10.534v6.992h-32.2v2.208
		c0,3.067,0.904,5.628,2.714,7.682c1.809,2.056,4.278,3.082,7.406,3.082c2.82,0,5.044-0.782,6.67-2.346
		c1.624-1.564,2.438-3.878,2.438-6.946h12.88C2058.792,183.583,2057.811,187.033,2055.849,189.823z M2029.582,161.166
		c-1.688,1.902-2.653,4.324-2.897,7.268h18.584c0-3.128-0.722-5.596-2.162-7.406c-1.442-1.808-3.758-2.714-6.946-2.714
		C2033.461,158.314,2031.269,159.265,2029.582,161.166z"/>
	<path d="M2087.726,150.954c2.238-1.227,4.83-1.84,7.774-1.84c3.434,0,6.516,0.89,9.246,2.668c2.729,1.78,4.89,4.448,6.485,8.004
		c1.595,3.558,2.393,7.881,2.393,12.972v1.012c0,5.336-0.859,9.813-2.576,13.432c-1.718,3.62-4.048,6.318-6.992,8.096
		c-2.943,1.778-6.256,2.668-9.936,2.668c-3.374,0-6.38-0.69-9.017-2.07c-2.638-1.38-4.846-3.388-6.624-6.026l-1.563,2.392
		c-0.614,1.044-1.196,1.948-1.748,2.714c-0.552,0.768-1.012,1.458-1.38,2.07h-4.876v-66.24h13.432v24.656
		C2083.692,153.683,2085.486,152.181,2087.726,150.954z M2097.523,161.717c-1.655-1.9-3.771-2.852-6.348-2.852
		s-4.692,0.952-6.348,2.852c-1.656,1.902-2.484,4.662-2.484,8.28v7.636c0,3.558,0.828,6.302,2.484,8.234
		c1.655,1.932,3.771,2.898,6.348,2.898s4.692-0.966,6.348-2.898c1.656-1.932,2.484-4.676,2.484-8.234v-7.636
		C2100.008,166.379,2099.18,163.619,2097.523,161.717z"/>
	<path d="M2155.85,155.921c3.434-4.538,7.85-6.808,13.248-6.808c3.68,0,6.992,0.89,9.936,2.668c2.944,1.78,5.274,4.478,6.992,8.096
		c1.717,3.62,2.576,8.096,2.576,13.432v1.012c0,5.092-0.798,9.416-2.393,12.972c-1.596,3.558-3.757,6.226-6.485,8.004
		c-2.73,1.778-5.812,2.668-9.246,2.668c-2.944,0-5.536-0.614-7.774-1.84c-2.239-1.226-4.033-2.729-5.382-4.508v22.08h-13.432
		v-63.664h10.58L2155.85,155.921z M2172.501,161.166c-1.655-1.9-3.771-2.852-6.348-2.852s-4.692,0.952-6.348,2.852
		c-1.656,1.902-2.484,4.662-2.484,8.28v7.636c0,3.558,0.828,6.302,2.484,8.234c1.655,1.932,3.771,2.898,6.348,2.898
		s4.692-0.966,6.348-2.898c1.656-1.932,2.484-4.676,2.484-8.234v-7.636C2174.985,165.827,2174.157,163.067,2172.501,161.166z"/>
	<path d="M2225.445,160.246c-1.319-1.288-3.449-1.932-6.394-1.932c-1.718,0-3.189,0.292-4.416,0.874
		c-1.228,0.583-2.162,1.304-2.806,2.162c-0.645,0.859-0.967,1.656-0.967,2.392v0.736h-12.972c-0.124-0.736-0.184-1.288-0.184-1.656
		c0-2.636,0.874-4.998,2.622-7.084c1.748-2.084,4.186-3.71,7.313-4.876c3.128-1.164,6.716-1.748,10.764-1.748h1.933
		c6.624,0,11.652,1.304,15.088,3.91c3.435,2.607,5.152,6.18,5.152,10.718v21.712c0,1.104,0.26,1.932,0.781,2.484
		c0.521,0.552,1.15,0.828,1.887,0.828c0.612,0,1.288-0.123,2.023-0.368c0.736-0.245,1.318-0.46,1.748-0.644v8.28
		c-2.27,1.288-4.968,1.932-8.096,1.932c-3.374,0-5.95-0.69-7.729-2.07c-1.779-1.38-2.821-3.327-3.128-5.842
		c-4.294,5.276-9.567,7.912-15.823,7.912c-4.662,0-8.496-0.95-11.5-2.852c-3.006-1.9-4.509-5.52-4.509-10.856
		c0-4.354,1.242-7.682,3.727-9.982c2.483-2.3,5.934-3.848,10.35-4.646c4.416-0.796,10.12-1.196,17.112-1.196v-3.128
		C2227.424,163.221,2226.764,161.533,2225.445,160.246z M2214.405,177.679c-2.852,1.136-4.277,2.99-4.277,5.566
		c0,2.024,0.566,3.45,1.702,4.278c1.134,0.828,2.866,1.242,5.197,1.242c1.595,0,3.188-0.429,4.784-1.288
		c1.595-0.858,2.929-2.084,4.002-3.68c1.072-1.594,1.61-3.373,1.61-5.336v-2.484
		C2221.596,175.978,2217.258,176.545,2214.405,177.679z"/>
	<path d="M2295.825,190.007c2.3,2.424,3.45,5.598,3.45,9.522c0,2.82-0.798,5.366-2.393,7.636c-1.595,2.268-3.757,4.032-6.485,5.29
		c-2.73,1.256-5.75,1.886-9.062,1.886h-19.412c-3.741,0-6.885-1.028-9.43-3.082c-2.546-2.056-3.818-4.892-3.818-8.51
		c0-2.208,0.659-4.218,1.979-6.026c1.318-1.809,2.99-3.174,5.014-4.094c-1.411-0.92-2.483-2.054-3.22-3.404
		c-0.736-1.349-1.104-2.82-1.104-4.416c0-2.269,0.735-4.247,2.208-5.934c1.472-1.686,3.372-2.898,5.703-3.634
		c-2.085-1.288-3.711-2.928-4.876-4.922c-1.165-1.992-1.748-4.124-1.748-6.394c0-4.354,1.702-7.912,5.106-10.672
		s8.387-4.14,14.95-4.14h1.472c2.882,0,5.458,0.368,7.729,1.104c2.514-1.472,4.262-2.974,5.243-4.508
		c0.98-1.532,1.533-2.913,1.656-4.14h10.488c0,6.502-3.252,10.55-9.752,12.144l-0.092,0.276c3.25,2.76,4.876,6.072,4.876,9.936
		c0,2.7-0.768,5.168-2.301,7.406c-1.533,2.239-3.695,4.018-6.485,5.336c-2.792,1.319-5.996,1.978-9.614,1.978h-6.348
		c-1.84,0-3.267,0.399-4.278,1.196c-1.012,0.798-1.518,1.688-1.518,2.668c0,1.228,0.474,2.178,1.426,2.852
		c0.95,0.676,2.406,1.012,4.37,1.012h16.376C2290.228,186.374,2293.525,187.585,2295.825,190.007z M2285.107,204.635
		c1.164-0.952,1.748-2.07,1.748-3.358c0-1.228-0.492-2.254-1.473-3.082c-0.981-0.828-2.27-1.242-3.863-1.242h-16.008
		c-1.351,0-2.516,0.444-3.496,1.334c-0.982,0.888-1.473,1.946-1.473,3.174c0,1.226,0.49,2.3,1.473,3.22
		c0.98,0.92,2.146,1.38,3.496,1.38h15.456C2282.562,206.062,2283.941,205.585,2285.107,204.635z M2267.812,168.939
		c1.532,1.196,3.464,1.794,5.796,1.794c2.392,0,4.354-0.598,5.888-1.794c1.532-1.196,2.3-2.866,2.3-5.014
		c0-2.146-0.768-3.818-2.3-5.014c-1.533-1.196-3.496-1.794-5.888-1.794c-2.332,0-4.264,0.598-5.796,1.794
		c-1.534,1.196-2.3,2.868-2.3,5.014C2265.512,166.073,2266.277,167.744,2267.812,168.939z"/>
	<path d="M2346.931,189.823c-1.964,2.792-4.555,4.846-7.774,6.164c-3.22,1.318-6.731,1.978-10.534,1.978h-1.472
		c-4.355,0-8.28-0.92-11.776-2.76c-3.496-1.84-6.241-4.492-8.233-7.958c-1.994-3.464-2.99-7.59-2.99-12.374v-2.668
		c0-4.722,1.012-8.832,3.036-12.328c2.023-3.496,4.768-6.164,8.233-8.004c3.465-1.84,7.375-2.76,11.73-2.76h1.472
		c3.803,0,7.329,0.782,10.58,2.346c3.25,1.564,5.856,3.834,7.82,6.808c1.962,2.976,2.944,6.486,2.944,10.534v6.992h-32.2v2.208
		c0,3.067,0.904,5.628,2.714,7.682c1.809,2.056,4.278,3.082,7.406,3.082c2.82,0,5.044-0.782,6.67-2.346
		c1.624-1.564,2.438-3.878,2.438-6.946h12.88C2349.874,183.583,2348.893,187.033,2346.931,189.823z M2320.664,161.166
		c-1.688,1.902-2.653,4.324-2.897,7.268h18.584c0-3.128-0.722-5.596-2.162-7.406c-1.442-1.808-3.758-2.714-6.946-2.714
		C2324.543,158.314,2322.351,159.265,2320.664,161.166z"/>
</g>
<g>
	<path d="M1516.159,540.688c-3.128,0-5.674-0.766-7.636-2.3c-1.963-1.533-2.944-4.108-2.944-7.728c0-5.274-0.69-9.384-2.07-12.328
		c-1.38-2.944-3.972-4.416-7.774-4.416h-10.672v26.128h-13.984v-63.112h28.244c6.01,0,11.054,1.228,15.134,3.68
		c4.078,2.454,6.118,6.44,6.118,11.96c0,2.208-0.492,4.386-1.472,6.532c-0.982,2.147-2.346,3.988-4.094,5.52
		c-1.748,1.534-3.666,2.484-5.75,2.852v0.46c2.698,0.859,5.06,2.7,7.084,5.52c2.024,2.822,3.036,6.594,3.036,11.316
		c0,6.748,1.564,10.612,4.692,11.592v3.128C1522.047,540.289,1519.409,540.688,1516.159,540.688z M1504.061,500.76
		c1.44-1.348,2.162-2.974,2.162-4.876v-0.644c0-2.024-0.69-3.694-2.07-5.014c-1.38-1.318-3.144-1.978-5.29-1.978h-13.8v14.536h13.8
		C1500.887,502.785,1502.619,502.11,1504.061,500.76z"/>
	<path d="M1572.37,532.822c-1.963,2.792-4.554,4.846-7.774,6.164c-3.22,1.318-6.732,1.978-10.534,1.978h-1.472
		c-4.355,0-8.28-0.92-11.776-2.76c-3.496-1.84-6.242-4.492-8.234-7.958c-1.994-3.464-2.99-7.59-2.99-12.374v-2.668
		c0-4.722,1.012-8.832,3.036-12.328c2.024-3.496,4.768-6.164,8.234-8.004c3.464-1.84,7.375-2.76,11.73-2.76h1.472
		c3.802,0,7.328,0.782,10.58,2.346c3.25,1.564,5.856,3.834,7.82,6.808c1.962,2.976,2.944,6.486,2.944,10.534v6.992h-32.2V521
		c0,3.067,0.904,5.628,2.714,7.682c1.808,2.056,4.278,3.082,7.406,3.082c2.82,0,5.044-0.782,6.67-2.346
		c1.625-1.564,2.438-3.878,2.438-6.946h12.88C1575.314,526.582,1574.333,530.032,1572.37,532.822z M1546.104,504.165
		c-1.688,1.902-2.654,4.324-2.898,7.268h18.584c0-3.128-0.721-5.596-2.162-7.406c-1.442-1.808-3.758-2.714-6.946-2.714
		C1549.982,501.313,1547.791,502.264,1546.104,504.165z"/>
	<path d="M1593.898,525.692c0,2.147,0.95,3.696,2.852,4.646c1.9,0.952,4.262,1.426,7.084,1.426c2.452,0,4.646-0.368,6.578-1.104
		c1.932-0.736,2.898-1.9,2.898-3.496c0-1.716-0.89-2.944-2.668-3.68c-1.779-0.736-4.54-1.38-8.28-1.932
		c-3.926-0.674-7.146-1.41-9.66-2.208c-2.516-0.796-4.677-2.176-6.486-4.14c-1.81-1.962-2.714-4.692-2.714-8.188
		c0-3.188,0.934-5.902,2.806-8.142c1.871-2.238,4.354-3.924,7.452-5.06c3.096-1.134,6.486-1.702,10.166-1.702h1.84
		c3.25,0,6.333,0.538,9.246,1.61c2.913,1.074,5.258,2.576,7.038,4.508c1.778,1.932,2.668,4.125,2.668,6.578
		c0,0.492-0.032,0.936-0.092,1.334c-0.062,0.399-0.092,0.629-0.092,0.69h-11.776c0-3.68-2.822-5.52-8.464-5.52
		c-2.576,0-4.646,0.368-6.21,1.104s-2.346,1.748-2.346,3.036c0,1.534,0.842,2.607,2.53,3.22c1.687,0.614,4.338,1.196,7.958,1.748
		c4.108,0.676,7.437,1.396,9.982,2.162c2.544,0.768,4.768,2.147,6.67,4.14c1.9,1.994,2.852,4.8,2.852,8.418
		c0,5.582-1.964,9.614-5.888,12.098c-3.926,2.484-8.924,3.726-14.996,3.726h-3.036c-3.804,0-7.208-0.583-10.212-1.748
		c-3.006-1.164-5.352-2.82-7.038-4.968c-1.688-2.146-2.53-4.6-2.53-7.36l0.092-1.84h11.776V525.692z"/>
	<path d="M1646.981,498.92c3.434-4.538,7.85-6.808,13.248-6.808c3.68,0,6.992,0.89,9.936,2.668c2.944,1.78,5.274,4.478,6.992,8.096
		c1.716,3.62,2.576,8.096,2.576,13.432v1.012c0,5.092-0.798,9.416-2.392,12.972c-1.596,3.558-3.758,6.226-6.486,8.004
		c-2.729,1.778-5.812,2.668-9.246,2.668c-2.944,0-5.536-0.614-7.774-1.84c-2.24-1.226-4.034-2.729-5.382-4.508v22.08h-13.432
		v-63.664h10.58L1646.981,498.92z M1663.633,504.165c-1.656-1.9-3.772-2.852-6.348-2.852s-4.692,0.952-6.348,2.852
		c-1.656,1.902-2.484,4.662-2.484,8.28v7.636c0,3.558,0.828,6.302,2.484,8.234c1.656,1.932,3.772,2.898,6.348,2.898
		s4.692-0.966,6.348-2.898c1.656-1.932,2.484-4.676,2.484-8.234v-7.636C1666.117,508.826,1665.289,506.066,1663.633,504.165z"/>
	<path d="M1732.126,530.2c-1.994,3.496-4.738,6.164-8.234,8.004c-3.496,1.84-7.422,2.76-11.776,2.76h-1.472
		c-4.355,0-8.28-0.92-11.776-2.76c-3.496-1.84-6.242-4.508-8.234-8.004c-1.994-3.496-2.99-7.604-2.99-12.328v-2.668
		c0-4.722,0.996-8.832,2.99-12.328c1.993-3.496,4.738-6.164,8.234-8.004c3.496-1.84,7.42-2.76,11.776-2.76h1.472
		c4.354,0,8.28,0.92,11.776,2.76c3.496,1.84,6.24,4.508,8.234,8.004c1.992,3.496,2.99,7.606,2.99,12.328v2.668
		C1735.116,522.596,1734.118,526.705,1732.126,530.2z M1718.694,504.256c-1.872-1.962-4.31-2.944-7.314-2.944
		c-3.006,0-5.444,0.982-7.314,2.944c-1.872,1.964-2.806,4.816-2.806,8.556v7.452c0,3.742,0.935,6.594,2.806,8.556
		c1.87,1.964,4.308,2.944,7.314,2.944c3.004,0,5.442-0.98,7.314-2.944c1.87-1.962,2.806-4.814,2.806-8.556v-7.452
		C1721.5,509.072,1720.564,506.22,1718.694,504.256z"/>
	<path d="M1756.643,499.933c3.864-5.212,8.862-7.82,14.996-7.82c4.784,0,8.724,1.288,11.822,3.864
		c3.096,2.576,4.646,6.318,4.646,11.224v32.844h-13.432v-29.9c0-2.392-0.69-4.37-2.07-5.934c-1.38-1.564-3.144-2.346-5.29-2.346
		c-2.392,0-4.448,0.906-6.164,2.714c-1.718,1.81-2.576,4.002-2.576,6.578v28.888h-13.432v-47.012h10.028L1756.643,499.933z"/>
	<path d="M1830.702,534.156c-3.436,4.54-7.852,6.808-13.248,6.808c-3.68,0-6.992-0.89-9.936-2.668s-5.275-4.477-6.992-8.096
		c-1.718-3.618-2.576-8.096-2.576-13.432v-1.012c0-5.09,0.796-9.414,2.392-12.972c1.594-3.557,3.756-6.225,6.486-8.004
		c2.729-1.778,5.811-2.668,9.246-2.668c2.944,0,5.534,0.614,7.774,1.84c2.238,1.228,4.032,2.729,5.382,4.508v-24.656h13.432v66.24
		h-10.58L1830.702,534.156z M1814.05,528.866c1.656,1.932,3.772,2.898,6.348,2.898c2.576,0,4.692-0.966,6.348-2.898
		c1.656-1.932,2.484-4.676,2.484-8.234v-7.636c0-3.618-0.828-6.378-2.484-8.28c-1.656-1.9-3.772-2.852-6.348-2.852
		c-2.576,0-4.692,0.952-6.348,2.852c-1.656,1.902-2.484,4.662-2.484,8.28v7.636C1811.565,524.19,1812.394,526.935,1814.05,528.866z"
		/>
	<path d="M1898.871,540.044h-14.996l-14.352-47.012h13.892l8.096,29.072h0.552c1.594-5.642,2.821-9.874,3.68-12.696l4.692-16.376
		h13.432l8.188,29.072h0.552c3.68-12.88,6.408-22.57,8.188-29.072h13.063l-14.352,47.012h-14.812l-7.728-26.22h-0.552
		C1903.103,525.478,1900.587,534.218,1898.871,540.044z"/>
	<path d="M1950.391,473.804h13.615v10.58h-13.615V473.804z M1950.482,540.044v-47.012h13.432v47.012H1950.482z"/>
	<path d="M1996.712,540.458c-1.993,0.336-3.757,0.506-5.29,0.506c-4.724,0-8.279-1.012-10.672-3.036
		c-2.392-2.024-3.588-5.396-3.588-10.12v-25.576h-5.151v-9.2h5.611l4.692-14.996h8.28v14.996h10.947v9.2h-10.947v23.276
		c0,2.454,0.474,4.11,1.426,4.968c0.95,0.859,2.223,1.288,3.817,1.288c0.736,0,1.687-0.123,2.853-0.368
		c1.164-0.245,2.116-0.521,2.852-0.828v8.648C2000.314,539.708,1998.705,540.121,1996.712,540.458z"/>
	<path d="M2023.621,497.632c3.557-3.68,7.912-5.52,13.064-5.52c4.783,0,8.724,1.288,11.821,3.864
		c3.097,2.576,4.646,6.318,4.646,11.224v32.844h-13.433v-29.9c0-2.392-0.689-4.37-2.069-5.934s-3.144-2.346-5.29-2.346
		c-2.393,0-4.448,0.906-6.164,2.714c-1.718,1.81-2.576,4.002-2.576,6.578v28.888h-13.432v-66.24h13.432V497.632z"/>
	<path d="M2109.271,540.044h-14.996l-14.353-47.012h13.893l8.096,29.072h0.552c1.595-5.642,2.82-9.874,3.681-12.696l4.691-16.376
		h13.433l8.188,29.072h0.552c3.681-12.88,6.408-22.57,8.188-29.072h13.063l-14.352,47.012h-14.812l-7.728-26.22h-0.552
		C2113.503,525.478,2110.987,534.218,2109.271,540.044z"/>
	<path d="M2201.547,532.822c-1.964,2.792-4.555,4.846-7.774,6.164c-3.22,1.318-6.731,1.978-10.534,1.978h-1.472
		c-4.355,0-8.28-0.92-11.776-2.76c-3.496-1.84-6.241-4.492-8.233-7.958c-1.994-3.464-2.99-7.59-2.99-12.374v-2.668
		c0-4.722,1.012-8.832,3.036-12.328c2.023-3.496,4.768-6.164,8.233-8.004c3.465-1.84,7.375-2.76,11.73-2.76h1.472
		c3.803,0,7.329,0.782,10.58,2.346c3.25,1.564,5.856,3.834,7.82,6.808c1.962,2.976,2.944,6.486,2.944,10.534v6.992h-32.2V521
		c0,3.067,0.904,5.628,2.714,7.682c1.809,2.056,4.278,3.082,7.406,3.082c2.82,0,5.044-0.782,6.67-2.346
		c1.624-1.564,2.438-3.878,2.438-6.946h12.88C2204.49,526.582,2203.509,530.032,2201.547,532.822z M2175.28,504.165
		c-1.688,1.902-2.653,4.324-2.897,7.268h18.584c0-3.128-0.722-5.596-2.162-7.406c-1.442-1.808-3.758-2.714-6.946-2.714
		C2179.159,501.313,2176.967,502.264,2175.28,504.165z"/>
	<path d="M2233.424,493.953c2.238-1.227,4.83-1.84,7.774-1.84c3.434,0,6.516,0.89,9.246,2.668c2.729,1.78,4.89,4.448,6.485,8.004
		c1.595,3.558,2.393,7.881,2.393,12.972v1.012c0,5.336-0.859,9.813-2.576,13.432c-1.718,3.62-4.048,6.318-6.992,8.096
		c-2.943,1.778-6.256,2.668-9.936,2.668c-3.374,0-6.38-0.69-9.017-2.07c-2.638-1.38-4.846-3.388-6.624-6.026l-1.563,2.392
		c-0.614,1.044-1.196,1.948-1.748,2.714c-0.552,0.768-1.012,1.458-1.38,2.07h-4.876v-66.24h13.432v24.656
		C2229.391,496.682,2231.185,495.18,2233.424,493.953z M2243.222,504.716c-1.655-1.9-3.771-2.852-6.348-2.852
		s-4.692,0.952-6.348,2.852c-1.656,1.902-2.484,4.662-2.484,8.28v7.636c0,3.558,0.828,6.302,2.484,8.234
		c1.655,1.932,3.771,2.898,6.348,2.898s4.692-0.966,6.348-2.898c1.656-1.932,2.484-4.676,2.484-8.234v-7.636
		C2245.706,509.378,2244.878,506.618,2243.222,504.716z"/>
	<path d="M2301.548,498.92c3.434-4.538,7.85-6.808,13.248-6.808c3.68,0,6.992,0.89,9.936,2.668c2.944,1.78,5.274,4.478,6.992,8.096
		c1.717,3.62,2.576,8.096,2.576,13.432v1.012c0,5.092-0.798,9.416-2.393,12.972c-1.596,3.558-3.757,6.226-6.485,8.004
		c-2.73,1.778-5.812,2.668-9.246,2.668c-2.944,0-5.536-0.614-7.774-1.84c-2.239-1.226-4.033-2.729-5.382-4.508v22.08h-13.432
		v-63.664h10.58L2301.548,498.92z M2318.199,504.165c-1.655-1.9-3.771-2.852-6.348-2.852s-4.692,0.952-6.348,2.852
		c-1.656,1.902-2.484,4.662-2.484,8.28v7.636c0,3.558,0.828,6.302,2.484,8.234c1.655,1.932,3.771,2.898,6.348,2.898
		s4.692-0.966,6.348-2.898c1.656-1.932,2.484-4.676,2.484-8.234v-7.636C2320.684,508.826,2319.855,506.066,2318.199,504.165z"/>
	<path d="M2371.144,503.245c-1.319-1.288-3.449-1.932-6.394-1.932c-1.718,0-3.189,0.292-4.416,0.874
		c-1.228,0.583-2.162,1.304-2.806,2.162c-0.645,0.859-0.967,1.656-0.967,2.392v0.736h-12.972c-0.124-0.736-0.184-1.288-0.184-1.656
		c0-2.636,0.874-4.998,2.622-7.084c1.748-2.084,4.186-3.71,7.313-4.876c3.128-1.164,6.716-1.748,10.764-1.748h1.933
		c6.624,0,11.652,1.304,15.088,3.91c3.435,2.607,5.152,6.18,5.152,10.718v21.712c0,1.104,0.26,1.932,0.781,2.484
		c0.521,0.552,1.15,0.828,1.887,0.828c0.612,0,1.288-0.123,2.023-0.368c0.736-0.245,1.318-0.46,1.748-0.644v8.28
		c-2.27,1.288-4.968,1.932-8.096,1.932c-3.374,0-5.95-0.69-7.729-2.07c-1.779-1.38-2.821-3.327-3.128-5.842
		c-4.294,5.276-9.567,7.912-15.823,7.912c-4.662,0-8.496-0.95-11.5-2.852c-3.006-1.9-4.509-5.52-4.509-10.856
		c0-4.354,1.242-7.682,3.727-9.982c2.483-2.3,5.934-3.848,10.35-4.646c4.416-0.796,10.12-1.196,17.112-1.196v-3.128
		C2373.122,506.22,2372.462,504.532,2371.144,503.245z M2360.104,520.678c-2.852,1.136-4.277,2.99-4.277,5.566
		c0,2.024,0.566,3.45,1.702,4.278c1.134,0.828,2.866,1.242,5.197,1.242c1.595,0,3.188-0.429,4.784-1.288
		c1.595-0.858,2.929-2.084,4.002-3.68c1.072-1.594,1.61-3.373,1.61-5.336v-2.484
		C2367.294,518.977,2362.956,519.544,2360.104,520.678z"/>
	<path d="M2441.523,533.006c2.3,2.424,3.45,5.598,3.45,9.522c0,2.82-0.798,5.366-2.393,7.636c-1.595,2.268-3.757,4.032-6.485,5.29
		c-2.73,1.256-5.75,1.886-9.062,1.886h-19.412c-3.741,0-6.885-1.028-9.43-3.082c-2.546-2.056-3.818-4.892-3.818-8.51
		c0-2.208,0.659-4.218,1.979-6.026c1.318-1.809,2.99-3.174,5.014-4.094c-1.411-0.92-2.483-2.054-3.22-3.404
		c-0.736-1.349-1.104-2.82-1.104-4.416c0-2.269,0.735-4.247,2.208-5.934c1.472-1.686,3.372-2.898,5.703-3.634
		c-2.085-1.288-3.711-2.928-4.876-4.922c-1.165-1.992-1.748-4.124-1.748-6.394c0-4.354,1.702-7.912,5.106-10.672
		s8.387-4.14,14.95-4.14h1.472c2.882,0,5.458,0.368,7.729,1.104c2.514-1.472,4.262-2.974,5.243-4.508
		c0.98-1.532,1.533-2.913,1.656-4.14h10.488c0,6.502-3.252,10.55-9.752,12.144l-0.092,0.276c3.25,2.76,4.876,6.072,4.876,9.936
		c0,2.7-0.768,5.168-2.301,7.406c-1.533,2.239-3.695,4.018-6.485,5.336c-2.792,1.319-5.996,1.978-9.614,1.978h-6.348
		c-1.84,0-3.267,0.399-4.278,1.196c-1.012,0.798-1.518,1.688-1.518,2.668c0,1.228,0.474,2.178,1.426,2.852
		c0.95,0.676,2.406,1.012,4.37,1.012h16.376C2435.926,529.373,2439.224,530.584,2441.523,533.006z M2430.806,547.634
		c1.164-0.952,1.748-2.07,1.748-3.358c0-1.228-0.492-2.254-1.473-3.082c-0.981-0.828-2.27-1.242-3.863-1.242h-16.008
		c-1.351,0-2.516,0.444-3.496,1.334c-0.982,0.888-1.473,1.946-1.473,3.174c0,1.226,0.49,2.3,1.473,3.22
		c0.98,0.92,2.146,1.38,3.496,1.38h15.456C2428.26,549.061,2429.64,548.584,2430.806,547.634z M2413.51,511.939
		c1.532,1.196,3.464,1.794,5.796,1.794c2.392,0,4.354-0.598,5.888-1.794c1.532-1.196,2.3-2.866,2.3-5.014
		c0-2.146-0.768-3.818-2.3-5.014c-1.533-1.196-3.496-1.794-5.888-1.794c-2.332,0-4.264,0.598-5.796,1.794
		c-1.534,1.196-2.3,2.868-2.3,5.014C2411.21,509.072,2411.976,510.743,2413.51,511.939z"/>
	<path d="M2492.629,532.822c-1.964,2.792-4.555,4.846-7.774,6.164c-3.22,1.318-6.731,1.978-10.534,1.978h-1.472
		c-4.355,0-8.28-0.92-11.776-2.76c-3.496-1.84-6.241-4.492-8.233-7.958c-1.994-3.464-2.99-7.59-2.99-12.374v-2.668
		c0-4.722,1.012-8.832,3.036-12.328c2.023-3.496,4.768-6.164,8.233-8.004c3.465-1.84,7.375-2.76,11.73-2.76h1.472
		c3.803,0,7.329,0.782,10.58,2.346c3.25,1.564,5.856,3.834,7.82,6.808c1.962,2.976,2.944,6.486,2.944,10.534v6.992h-32.2V521
		c0,3.067,0.904,5.628,2.714,7.682c1.809,2.056,4.278,3.082,7.406,3.082c2.82,0,5.044-0.782,6.67-2.346
		c1.624-1.564,2.438-3.878,2.438-6.946h12.88C2495.572,526.582,2494.591,530.032,2492.629,532.822z M2466.362,504.165
		c-1.688,1.902-2.653,4.324-2.897,7.268h18.584c0-3.128-0.722-5.596-2.162-7.406c-1.442-1.808-3.758-2.714-6.946-2.714
		C2470.241,501.313,2468.049,502.264,2466.362,504.165z"/>
	<path d="M1618.359,645.035c-3.594-4.06-6.347-8.634-8.26-13.72c-1.914-5.086-2.87-10.36-2.87-15.82
		c0-5.413,0.956-10.663,2.87-15.75c1.913-5.086,4.666-9.66,8.26-13.72h5.25c-1.587,2.66-3.022,5.635-4.305,8.925
		c-1.284,3.29-2.299,6.685-3.045,10.185c-0.747,3.5-1.12,6.954-1.12,10.36c0,3.314,0.373,6.744,1.12,10.29
		c0.746,3.547,1.75,6.977,3.01,10.29c1.26,3.313,2.706,6.3,4.34,8.96H1618.359z"/>
	<path d="M1631.239,634.044v-48.02h10.22v19.46h17.36v-19.46h10.22v48.02h-10.15v-20.44h-17.36v20.44H1631.239z"/>
	<path d="M1689.829,634.044v-40.11h-13.79v-7.91h37.73v7.91h-13.79v40.11H1689.829z"/>
	<path d="M1720.768,634.044v-48.02h16.52l11.9,32.9h0.21l11.83-32.9h16.59v48.02h-10.15v-36.19h-0.28l-12.95,36.19h-11.27
		l-12.88-36.19h-0.35v36.19H1720.768z"/>
	<path d="M1788.738,634.044v-48.02h10.22v40.04h20.09l1.19,7.98H1788.738z"/>
	<path d="M1850.197,634.745c-1.914,0-3.745-0.315-5.495-0.945s-3.185-1.68-4.305-3.15c-1.12-1.47-1.68-3.465-1.68-5.985
		c0-2.566,0.571-4.643,1.715-6.23c1.143-1.586,2.753-2.811,4.83-3.675c2.076-0.863,4.573-1.458,7.49-1.785
		c2.916-0.326,6.195-0.49,9.835-0.49v-3.15c0-2.053-0.56-3.511-1.68-4.375c-1.12-0.863-2.754-1.295-4.9-1.295
		c-1.82,0-3.419,0.409-4.795,1.225c-1.377,0.817-2.065,2.065-2.065,3.745v0.56h-9.17c-0.047-0.14-0.07-0.338-0.07-0.595
		c0-0.256,0-0.478,0-0.665c0-2.053,0.653-3.861,1.96-5.425c1.306-1.563,3.126-2.776,5.46-3.64c2.333-0.863,5.04-1.295,8.12-1.295
		h1.47c5.04,0,8.796,0.992,11.27,2.975c2.473,1.984,3.71,4.655,3.71,8.015v17.43c0,0.887,0.221,1.517,0.665,1.89
		c0.443,0.374,0.921,0.56,1.435,0.56c0.42,0,0.886-0.081,1.4-0.245c0.513-0.163,1.003-0.361,1.47-0.595v5.6
		c-0.607,0.467-1.412,0.84-2.415,1.12c-1.004,0.28-2.205,0.42-3.605,0.42c-1.68,0-3.08-0.269-4.2-0.805
		c-1.12-0.536-1.972-1.271-2.555-2.205c-0.584-0.933-0.945-2.006-1.085-3.22c-1.307,1.867-3.034,3.372-5.18,4.515
		C1855.68,634.172,1853.137,634.745,1850.197,634.745z M1854.677,628.444c1.306,0,2.555-0.303,3.745-0.91
		c1.19-0.606,2.181-1.505,2.975-2.695c0.793-1.19,1.19-2.671,1.19-4.445v-2.87c-2.987,0-5.519,0.187-7.595,0.56
		c-2.077,0.374-3.652,0.992-4.725,1.855c-1.074,0.864-1.61,2.112-1.61,3.745c0,1.727,0.525,2.952,1.575,3.675
		C1851.282,628.083,1852.763,628.444,1854.677,628.444z"/>
	<path d="M1883.375,634.044v-35.77h7.07l1.12,5.25c1.4-2.006,3.091-3.5,5.075-4.48c1.983-0.98,4.235-1.47,6.755-1.47
		c2.426,0,4.561,0.467,6.405,1.4c1.843,0.934,3.266,2.264,4.27,3.99c1.003,1.727,1.505,3.827,1.505,6.3v24.78h-9.52v-22.75
		c0-2.286-0.56-3.966-1.68-5.04c-1.12-1.073-2.637-1.61-4.55-1.61c-1.214,0-2.357,0.315-3.43,0.945
		c-1.074,0.63-1.914,1.482-2.52,2.555c-0.607,1.074-0.91,2.287-0.91,3.64v22.26H1883.375z"/>
	<path d="M1938.254,634.745c-2.799,0-5.297-0.654-7.488-1.96c-2.195-1.306-3.933-3.336-5.216-6.09
		c-1.284-2.753-1.925-6.253-1.925-10.5v-0.77c0-3.966,0.641-7.268,1.925-9.905c1.283-2.636,2.998-4.62,5.146-5.95
		c2.145-1.33,4.479-1.995,7-1.995c2.52,0,4.631,0.467,6.334,1.4c1.703,0.934,2.998,2.1,3.885,3.5v-18.83h9.521v50.4h-7.49
		l-1.051-4.76c-1.119,1.587-2.543,2.894-4.27,3.92S1940.775,634.745,1938.254,634.745z M1940.705,628.444
		c1.354,0,2.566-0.326,3.641-0.98c1.072-0.653,1.936-1.668,2.59-3.045c0.652-1.376,0.979-3.138,0.979-5.285v-6.23
		c0-1.96-0.314-3.593-0.943-4.9c-0.631-1.306-1.494-2.298-2.592-2.975c-1.096-0.676-2.32-1.015-3.674-1.015
		c-1.961,0-3.617,0.759-4.971,2.275c-1.354,1.517-2.029,3.722-2.029,6.615v6.23c0,2.147,0.314,3.909,0.945,5.285
		c0.629,1.377,1.469,2.392,2.52,3.045C1938.221,628.119,1939.398,628.444,1940.705,628.444z"/>
	<path d="M1993.272,634.745c-2.8,0-5.284-0.502-7.455-1.505c-2.17-1.003-3.861-2.485-5.074-4.445c-1.215-1.96-1.82-4.316-1.82-7.07
		v-3.5h9.31v2.94c0,1.96,0.536,3.419,1.61,4.375c1.073,0.957,2.403,1.435,3.99,1.435c1.12,0,2.11-0.221,2.975-0.665
		c0.863-0.443,1.54-1.085,2.03-1.925c0.49-0.84,0.735-1.913,0.735-3.22v-35.14h10.08v34.93c0,2.847-0.654,5.297-1.961,7.35
		c-1.307,2.054-3.079,3.64-5.319,4.76s-4.808,1.68-7.7,1.68H1993.272z"/>
	<path d="M2028.762,634.745c-1.914,0-3.745-0.315-5.495-0.945s-3.185-1.68-4.305-3.15s-1.68-3.465-1.68-5.985
		c0-2.566,0.57-4.643,1.715-6.23c1.143-1.586,2.753-2.811,4.83-3.675c2.076-0.863,4.573-1.458,7.49-1.785
		c2.916-0.326,6.194-0.49,9.835-0.49v-3.15c0-2.053-0.561-3.511-1.681-4.375c-1.119-0.863-2.754-1.295-4.899-1.295
		c-1.82,0-3.419,0.409-4.795,1.225c-1.377,0.817-2.065,2.065-2.065,3.745v0.56h-9.17c-0.047-0.14-0.07-0.338-0.07-0.595
		c0-0.256,0-0.478,0-0.665c0-2.053,0.653-3.861,1.96-5.425c1.307-1.563,3.126-2.776,5.46-3.64c2.333-0.863,5.04-1.295,8.12-1.295
		h1.471c5.04,0,8.796,0.992,11.27,2.975c2.473,1.984,3.71,4.655,3.71,8.015v17.43c0,0.887,0.221,1.517,0.665,1.89
		c0.443,0.374,0.921,0.56,1.436,0.56c0.42,0,0.886-0.081,1.399-0.245c0.513-0.163,1.003-0.361,1.47-0.595v5.6
		c-0.606,0.467-1.411,0.84-2.415,1.12c-1.004,0.28-2.204,0.42-3.604,0.42c-1.68,0-3.08-0.269-4.2-0.805s-1.972-1.271-2.555-2.205
		c-0.584-0.933-0.945-2.006-1.085-3.22c-1.308,1.867-3.034,3.372-5.181,4.515S2031.702,634.745,2028.762,634.745z M2033.242,628.444
		c1.306,0,2.555-0.303,3.745-0.91c1.189-0.606,2.181-1.505,2.975-2.695c0.793-1.19,1.19-2.671,1.19-4.445v-2.87
		c-2.987,0-5.52,0.187-7.596,0.56c-2.076,0.374-3.651,0.992-4.725,1.855c-1.074,0.864-1.61,2.112-1.61,3.745
		c0,1.727,0.525,2.952,1.575,3.675C2029.847,628.083,2031.328,628.444,2033.242,628.444z"/>
	<path d="M2070.411,634.044l-12.74-35.77h10.221l8.12,24.71h0.42l8.189-24.71h9.311l-12.88,35.77H2070.411z"/>
	<path d="M2108.841,634.745c-1.914,0-3.745-0.315-5.495-0.945s-3.185-1.68-4.305-3.15s-1.68-3.465-1.68-5.985
		c0-2.566,0.57-4.643,1.715-6.23c1.143-1.586,2.753-2.811,4.83-3.675c2.076-0.863,4.573-1.458,7.49-1.785
		c2.916-0.326,6.194-0.49,9.835-0.49v-3.15c0-2.053-0.561-3.511-1.681-4.375c-1.119-0.863-2.754-1.295-4.899-1.295
		c-1.82,0-3.419,0.409-4.795,1.225c-1.377,0.817-2.065,2.065-2.065,3.745v0.56h-9.17c-0.047-0.14-0.07-0.338-0.07-0.595
		c0-0.256,0-0.478,0-0.665c0-2.053,0.653-3.861,1.96-5.425c1.307-1.563,3.126-2.776,5.46-3.64c2.333-0.863,5.04-1.295,8.12-1.295
		h1.471c5.04,0,8.796,0.992,11.27,2.975c2.473,1.984,3.71,4.655,3.71,8.015v17.43c0,0.887,0.221,1.517,0.665,1.89
		c0.443,0.374,0.921,0.56,1.436,0.56c0.42,0,0.886-0.081,1.399-0.245c0.513-0.163,1.003-0.361,1.47-0.595v5.6
		c-0.606,0.467-1.411,0.84-2.415,1.12c-1.004,0.28-2.204,0.42-3.604,0.42c-1.68,0-3.08-0.269-4.2-0.805s-1.972-1.271-2.555-2.205
		c-0.584-0.933-0.945-2.006-1.085-3.22c-1.308,1.867-3.034,3.372-5.181,4.515S2111.781,634.745,2108.841,634.745z M2113.321,628.444
		c1.306,0,2.555-0.303,3.745-0.91c1.189-0.606,2.181-1.505,2.975-2.695c0.793-1.19,1.19-2.671,1.19-4.445v-2.87
		c-2.987,0-5.52,0.187-7.596,0.56c-2.076,0.374-3.651,0.992-4.725,1.855c-1.074,0.864-1.61,2.112-1.61,3.745
		c0,1.727,0.525,2.952,1.575,3.675C2109.926,628.083,2111.407,628.444,2113.321,628.444z"/>
	<path d="M2154.83,634.745c-2.24,0-4.271-0.28-6.09-0.84c-1.82-0.56-3.396-1.318-4.726-2.275c-1.33-0.956-2.345-2.076-3.045-3.36
		c-0.7-1.283-1.05-2.671-1.05-4.165c0-0.28,0-0.513,0-0.7c0-0.186,0.022-0.443,0.07-0.77h8.119c-0.047,0.14-0.069,0.269-0.069,0.385
		c0,0.117,0,0.222,0,0.315c0,1.167,0.396,2.135,1.189,2.905c0.793,0.77,1.82,1.33,3.08,1.68s2.613,0.525,4.061,0.525
		c1.166,0,2.345-0.14,3.534-0.42c1.19-0.28,2.182-0.735,2.976-1.365c0.793-0.63,1.189-1.435,1.189-2.415
		c0-1.073-0.408-1.901-1.225-2.485c-0.817-0.583-1.914-1.05-3.29-1.4c-1.377-0.35-2.882-0.653-4.515-0.91
		c-1.635-0.256-3.279-0.583-4.936-0.98c-1.657-0.396-3.174-0.968-4.55-1.715c-1.377-0.746-2.474-1.761-3.29-3.045
		c-0.817-1.283-1.225-2.975-1.225-5.075c0-1.773,0.407-3.36,1.225-4.76c0.816-1.4,1.937-2.566,3.36-3.5
		c1.423-0.933,3.056-1.633,4.899-2.1c1.844-0.466,3.769-0.7,5.775-0.7h1.4c1.865,0,3.65,0.234,5.354,0.7
		c1.703,0.467,3.231,1.132,4.585,1.995c1.354,0.864,2.415,1.89,3.186,3.08c0.77,1.19,1.154,2.485,1.154,3.885
		c0,0.234-0.012,0.502-0.035,0.805c-0.023,0.304-0.059,0.502-0.104,0.595h-8.12v-0.56c0-0.513-0.129-1.015-0.385-1.505
		c-0.257-0.49-0.677-0.945-1.26-1.365c-0.585-0.42-1.33-0.758-2.24-1.015c-0.91-0.256-1.995-0.385-3.255-0.385
		c-1.12,0-2.124,0.105-3.011,0.315s-1.634,0.49-2.239,0.84c-0.607,0.35-1.051,0.759-1.33,1.225c-0.28,0.467-0.42,0.934-0.42,1.4
		c0,0.98,0.42,1.739,1.26,2.275c0.84,0.537,1.948,0.957,3.325,1.26c1.376,0.304,2.893,0.584,4.55,0.84
		c1.656,0.257,3.301,0.572,4.935,0.945c1.634,0.374,3.15,0.945,4.551,1.715c1.399,0.77,2.508,1.809,3.324,3.115
		c0.816,1.307,1.226,3.01,1.226,5.11c0,2.194-0.42,4.06-1.26,5.6c-0.841,1.54-2.008,2.765-3.5,3.675
		c-1.494,0.91-3.175,1.575-5.04,1.995c-1.867,0.42-3.827,0.63-5.881,0.63H2154.83z"/>
	<path d="M2195.01,634.745c-3.034,0-5.775-0.746-8.226-2.24c-2.45-1.493-4.375-3.558-5.774-6.195
		c-1.4-2.636-2.101-5.658-2.101-9.065v-2.17c0-2.566,0.432-4.911,1.295-7.035c0.863-2.123,2.041-3.978,3.535-5.565
		c1.493-1.586,3.243-2.8,5.25-3.64c2.006-0.84,4.153-1.26,6.44-1.26h1.33c3.126,0,5.845,0.619,8.154,1.855
		c2.311,1.237,4.083,2.964,5.32,5.18c1.236,2.217,1.855,4.819,1.855,7.805h-8.33c0-1.913-0.292-3.5-0.875-4.76
		c-0.584-1.26-1.412-2.216-2.485-2.87c-1.074-0.653-2.357-0.98-3.85-0.98c-2.147,0-3.944,0.735-5.391,2.205
		c-1.446,1.47-2.17,3.629-2.17,6.475v7.21c0,2.8,0.688,4.959,2.065,6.475c1.376,1.517,3.23,2.275,5.564,2.275
		c1.633,0,3.011-0.28,4.13-0.84c1.12-0.56,1.972-1.47,2.556-2.73c0.583-1.26,0.875-2.94,0.875-5.04h7.91
		c0,3.174-0.678,5.869-2.03,8.085c-1.354,2.217-3.22,3.909-5.601,5.075c-2.38,1.166-5.087,1.75-8.119,1.75H2195.01z"/>
	<path d="M2219.649,634.044v-35.77h7.141l1.189,5.25c0.093-0.186,0.338-0.583,0.735-1.19c0.396-0.606,0.991-1.283,1.785-2.03
		c0.793-0.746,1.784-1.388,2.975-1.925c1.19-0.536,2.625-0.805,4.305-0.805c2.427,0,4.398,0.467,5.915,1.4
		c1.517,0.934,2.648,2.24,3.396,3.92c0.746,1.68,1.12,3.64,1.12,5.88c0,0.514-0.024,1.074-0.07,1.68
		c-0.047,0.607-0.094,1.144-0.14,1.61h-7.98v-1.47c0-0.886-0.175-1.785-0.524-2.695c-0.351-0.91-0.91-1.668-1.681-2.275
		c-0.77-0.606-1.832-0.91-3.185-0.91c-0.98,0-1.82,0.21-2.521,0.63c-0.7,0.42-1.271,0.945-1.715,1.575
		c-0.444,0.63-0.77,1.33-0.979,2.1s-0.315,1.482-0.315,2.135v22.89H2219.649z"/>
	<path d="M2254.648,591.064v-7.42h9.87v7.42H2254.648z M2254.789,634.044v-35.77h9.59v35.77H2254.789z"/>
	<path d="M2274.179,646.714v-48.44h7.489l1.051,4.62c1.072-1.54,2.508-2.811,4.305-3.815c1.796-1.003,3.908-1.505,6.335-1.505
		c2.753,0,5.238,0.595,7.455,1.785c2.216,1.19,3.966,3.092,5.25,5.705c1.283,2.614,1.925,6.044,1.925,10.29v1.47
		c0,3.92-0.63,7.222-1.89,9.905c-1.261,2.684-2.965,4.69-5.11,6.02c-2.147,1.33-4.504,1.995-7.07,1.995
		c-2.474,0-4.55-0.467-6.229-1.4c-1.681-0.933-2.964-2.123-3.851-3.57v16.94H2274.179z M2290.908,628.375
		c1.354,0,2.555-0.35,3.605-1.05c1.05-0.7,1.878-1.703,2.484-3.01c0.606-1.306,0.91-2.916,0.91-4.83v-6.23
		c0-2.146-0.304-3.908-0.91-5.285c-0.606-1.376-1.435-2.403-2.484-3.08c-1.051-0.676-2.252-1.015-3.605-1.015
		c-1.26,0-2.439,0.327-3.535,0.98c-1.097,0.654-1.972,1.657-2.625,3.01c-0.654,1.354-0.979,3.127-0.979,5.32v6.3
		c0,1.914,0.314,3.535,0.944,4.865c0.631,1.33,1.493,2.334,2.591,3.01C2288.399,628.037,2289.602,628.375,2290.908,628.375z"/>
	<path d="M2328.009,634.745c-2.007,0-3.804-0.28-5.39-0.84c-1.588-0.56-2.824-1.505-3.711-2.835s-1.329-3.091-1.329-5.285v-20.37
		h-3.921v-7.14h4.2l3.36-11.41h5.88v11.41h8.4v7.14h-8.4v18.27c0,2.054,0.42,3.36,1.26,3.92s1.75,0.84,2.73,0.84
		c0.513,0,1.225-0.105,2.135-0.315s1.646-0.431,2.205-0.665v5.88c-0.607,0.327-1.354,0.595-2.24,0.805
		c-0.887,0.21-1.785,0.361-2.694,0.455C2329.584,634.697,2328.755,634.745,2328.009,634.745z"/>
	<path d="M2339.767,645.035c1.681-2.66,3.161-5.647,4.445-8.96c1.283-3.313,2.286-6.743,3.01-10.29
		c0.724-3.546,1.085-6.976,1.085-10.29c0-3.406-0.374-6.86-1.12-10.36c-0.747-3.5-1.75-6.895-3.01-10.185
		c-1.26-3.29-2.729-6.265-4.41-8.925h5.25c3.593,4.06,6.347,8.634,8.261,13.72c1.912,5.087,2.869,10.337,2.869,15.75
		c0,5.46-0.957,10.734-2.869,15.82c-1.914,5.086-4.668,9.66-8.261,13.72H2339.767z"/>
</g>
<g>
	<path d="M1553.747,1055.118c4.262,2.208,7.65,5.428,10.166,9.66c2.514,4.232,3.772,9.232,3.772,14.996v7.176
		c0,5.766-1.258,10.764-3.772,14.996c-2.516,4.232-5.904,7.452-10.166,9.66c-4.264,2.208-9.001,3.312-14.214,3.312h-23.92v-63.112
		h23.92C1544.746,1051.806,1549.483,1052.91,1553.747,1055.118z M1529.873,1103.602h9.66c3.924,0,7.114-1.272,9.568-3.818
		c2.453-2.544,3.68-6.148,3.68-10.81v-11.224c0-4.661-1.228-8.264-3.68-10.81c-2.454-2.544-5.644-3.818-9.568-3.818h-9.66V1103.602z
		"/>
	<path d="M1604.99,1078.118c-1.32-1.288-3.45-1.932-6.394-1.932c-1.718,0-3.19,0.292-4.416,0.874
		c-1.228,0.583-2.162,1.304-2.806,2.162c-0.644,0.859-0.966,1.656-0.966,2.392v0.736h-12.972c-0.124-0.736-0.184-1.288-0.184-1.656
		c0-2.636,0.874-4.998,2.622-7.084c1.748-2.084,4.186-3.71,7.314-4.876c3.128-1.164,6.716-1.748,10.764-1.748h1.932
		c6.624,0,11.652,1.304,15.088,3.91c3.434,2.607,5.152,6.18,5.152,10.718v21.712c0,1.104,0.26,1.932,0.782,2.484
		c0.52,0.552,1.15,0.828,1.886,0.828c0.612,0,1.288-0.123,2.024-0.368c0.736-0.245,1.318-0.46,1.748-0.644v8.28
		c-2.27,1.288-4.968,1.932-8.096,1.932c-3.374,0-5.95-0.69-7.728-2.07c-1.78-1.38-2.822-3.327-3.128-5.842
		c-4.294,5.276-9.568,7.912-15.824,7.912c-4.662,0-8.496-0.95-11.5-2.852c-3.006-1.9-4.508-5.52-4.508-10.856
		c0-4.354,1.242-7.682,3.726-9.982c2.484-2.3,5.934-3.848,10.35-4.646c4.416-0.796,10.12-1.196,17.112-1.196v-3.128
		C1606.968,1081.093,1606.308,1079.405,1604.99,1078.118z M1593.95,1095.551c-2.852,1.136-4.278,2.99-4.278,5.566
		c0,2.024,0.566,3.45,1.702,4.278c1.134,0.828,2.866,1.242,5.198,1.242c1.594,0,3.188-0.429,4.784-1.288
		c1.594-0.858,2.928-2.084,4.002-3.68c1.073-1.594,1.61-3.373,1.61-5.336v-2.484
		C1601.141,1093.85,1596.802,1094.417,1593.95,1095.551z"/>
	<path d="M1653.842,1115.332c-1.994,0.336-3.758,0.506-5.29,0.506c-4.724,0-8.28-1.012-10.672-3.036
		c-2.392-2.024-3.588-5.396-3.588-10.12v-25.576h-5.152v-9.2h5.612l4.692-14.996h8.28v14.996h10.948v9.2h-10.948v23.276
		c0,2.454,0.475,4.11,1.426,4.968c0.95,0.859,2.222,1.288,3.818,1.288c0.736,0,1.686-0.123,2.852-0.368
		c1.164-0.245,2.116-0.521,2.852-0.828v8.648C1657.444,1114.581,1655.834,1114.994,1653.842,1115.332z"/>
	<path d="M1694.137,1078.118c-1.32-1.288-3.45-1.932-6.394-1.932c-1.718,0-3.19,0.292-4.416,0.874
		c-1.228,0.583-2.162,1.304-2.806,2.162c-0.644,0.859-0.966,1.656-0.966,2.392v0.736h-12.972c-0.124-0.736-0.184-1.288-0.184-1.656
		c0-2.636,0.874-4.998,2.622-7.084c1.748-2.084,4.186-3.71,7.314-4.876c3.128-1.164,6.716-1.748,10.764-1.748h1.932
		c6.624,0,11.652,1.304,15.088,3.91c3.434,2.607,5.152,6.18,5.152,10.718v21.712c0,1.104,0.26,1.932,0.782,2.484
		c0.52,0.552,1.15,0.828,1.886,0.828c0.612,0,1.288-0.123,2.024-0.368c0.736-0.245,1.318-0.46,1.748-0.644v8.28
		c-2.27,1.288-4.968,1.932-8.096,1.932c-3.374,0-5.95-0.69-7.728-2.07c-1.78-1.38-2.822-3.327-3.128-5.842
		c-4.294,5.276-9.568,7.912-15.824,7.912c-4.662,0-8.496-0.95-11.5-2.852c-3.006-1.9-4.508-5.52-4.508-10.856
		c0-4.354,1.242-7.682,3.726-9.982c2.484-2.3,5.934-3.848,10.35-4.646c4.416-0.796,10.12-1.196,17.112-1.196v-3.128
		C1696.115,1081.093,1695.455,1079.405,1694.137,1078.118z M1683.097,1095.551c-2.852,1.136-4.278,2.99-4.278,5.566
		c0,2.024,0.566,3.45,1.702,4.278c1.134,0.828,2.866,1.242,5.198,1.242c1.594,0,3.188-0.429,4.784-1.288
		c1.594-0.858,2.928-2.084,4.002-3.68c1.073-1.594,1.61-3.373,1.61-5.336v-2.484
		C1690.287,1093.85,1685.949,1094.417,1683.097,1095.551z"/>
	<path d="M1769.391,1078.118c-1.32-1.288-3.45-1.932-6.394-1.932c-1.718,0-3.19,0.292-4.416,0.874
		c-1.228,0.583-2.162,1.304-2.806,2.162c-0.644,0.859-0.966,1.656-0.966,2.392v0.736h-12.972c-0.124-0.736-0.184-1.288-0.184-1.656
		c0-2.636,0.874-4.998,2.622-7.084c1.748-2.084,4.186-3.71,7.314-4.876c3.128-1.164,6.716-1.748,10.764-1.748h1.932
		c6.624,0,11.652,1.304,15.088,3.91c3.434,2.607,5.152,6.18,5.152,10.718v21.712c0,1.104,0.26,1.932,0.782,2.484
		c0.52,0.552,1.15,0.828,1.886,0.828c0.612,0,1.288-0.123,2.024-0.368c0.736-0.245,1.318-0.46,1.748-0.644v8.28
		c-2.27,1.288-4.968,1.932-8.096,1.932c-3.374,0-5.95-0.69-7.728-2.07c-1.78-1.38-2.822-3.327-3.128-5.842
		c-4.294,5.276-9.568,7.912-15.824,7.912c-4.662,0-8.496-0.95-11.5-2.852c-3.006-1.9-4.508-5.52-4.508-10.856
		c0-4.354,1.242-7.682,3.726-9.982c2.484-2.3,5.934-3.848,10.35-4.646c4.416-0.796,10.12-1.196,17.112-1.196v-3.128
		C1771.369,1081.093,1770.708,1079.405,1769.391,1078.118z M1758.351,1095.551c-2.852,1.136-4.278,2.99-4.278,5.566
		c0,2.024,0.566,3.45,1.702,4.278c1.134,0.828,2.866,1.242,5.198,1.242c1.594,0,3.188-0.429,4.784-1.288
		c1.594-0.858,2.928-2.084,4.002-3.68c1.073-1.594,1.61-3.373,1.61-5.336v-2.484
		C1765.541,1093.85,1761.203,1094.417,1758.351,1095.551z"/>
	<path d="M1809.087,1074.806c3.864-5.212,8.862-7.82,14.996-7.82c4.784,0,8.724,1.288,11.822,3.864
		c3.096,2.576,4.646,6.318,4.646,11.224v32.844h-13.432v-29.9c0-2.392-0.69-4.37-2.07-5.934c-1.38-1.564-3.144-2.346-5.29-2.346
		c-2.392,0-4.448,0.906-6.164,2.714c-1.718,1.81-2.576,4.002-2.576,6.578v28.888h-13.432v-47.012h10.028L1809.087,1074.806z"/>
	<path d="M1883.146,1109.029c-3.436,4.54-7.852,6.808-13.248,6.808c-3.68,0-6.992-0.89-9.936-2.668s-5.275-4.477-6.992-8.096
		c-1.718-3.618-2.576-8.096-2.576-13.432v-1.012c0-5.09,0.796-9.414,2.392-12.972c1.594-3.557,3.756-6.225,6.486-8.004
		c2.729-1.778,5.811-2.668,9.246-2.668c2.944,0,5.534,0.614,7.774,1.84c2.238,1.228,4.032,2.729,5.382,4.508v-24.656h13.432v66.24
		h-10.58L1883.146,1109.029z M1866.494,1103.739c1.656,1.932,3.772,2.898,6.348,2.898c2.576,0,4.692-0.966,6.348-2.898
		c1.656-1.932,2.484-4.676,2.484-8.234v-7.636c0-3.618-0.828-6.378-2.484-8.28c-1.656-1.9-3.772-2.852-6.348-2.852
		c-2.576,0-4.692,0.952-6.348,2.852c-1.656,1.902-2.484,4.662-2.484,8.28v7.636
		C1864.01,1099.063,1864.838,1101.808,1866.494,1103.739z"/>
	<path d="M1927.396,1048.677h13.616v10.58h-13.616V1048.677z M1927.487,1114.917v-47.012h13.432v47.012H1927.487z"/>
	<path d="M1964.563,1074.806c3.864-5.212,8.862-7.82,14.996-7.82c4.784,0,8.724,1.288,11.822,3.864
		c3.096,2.576,4.646,6.318,4.646,11.224v32.844h-13.432v-29.9c0-2.392-0.69-4.37-2.07-5.934c-1.38-1.564-3.144-2.346-5.29-2.346
		c-2.392,0-4.448,0.906-6.164,2.714c-1.718,1.81-2.576,4.002-2.576,6.578v28.888h-13.432v-47.012h10.028L1964.563,1074.806z"/>
	<path d="M2028.64,1115.332c-1.993,0.336-3.757,0.506-5.29,0.506c-4.724,0-8.279-1.012-10.672-3.036
		c-2.392-2.024-3.588-5.396-3.588-10.12v-25.576h-5.151v-9.2h5.611l4.692-14.996h8.28v14.996h10.947v9.2h-10.947v23.276
		c0,2.454,0.474,4.11,1.426,4.968c0.95,0.859,2.223,1.288,3.817,1.288c0.736,0,1.687-0.123,2.853-0.368
		c1.164-0.245,2.116-0.521,2.852-0.828v8.648C2032.242,1114.581,2030.633,1114.994,2028.64,1115.332z"/>
	<path d="M2082.781,1107.695c-1.964,2.792-4.555,4.846-7.774,6.164c-3.22,1.318-6.731,1.978-10.534,1.978h-1.472
		c-4.355,0-8.28-0.92-11.776-2.76c-3.496-1.84-6.241-4.492-8.233-7.958c-1.994-3.464-2.99-7.59-2.99-12.374v-2.668
		c0-4.722,1.012-8.832,3.036-12.328c2.023-3.496,4.768-6.164,8.233-8.004c3.465-1.84,7.375-2.76,11.73-2.76h1.472
		c3.803,0,7.329,0.782,10.58,2.346c3.25,1.564,5.856,3.834,7.82,6.808c1.962,2.976,2.944,6.486,2.944,10.534v6.992h-32.2v2.208
		c0,3.067,0.904,5.628,2.714,7.682c1.809,2.056,4.278,3.082,7.406,3.082c2.82,0,5.044-0.782,6.67-2.346
		c1.624-1.564,2.438-3.878,2.438-6.946h12.88C2085.725,1101.455,2084.743,1104.905,2082.781,1107.695z M2056.515,1079.038
		c-1.688,1.902-2.653,4.324-2.897,7.268h18.584c0-3.128-0.722-5.596-2.162-7.406c-1.442-1.808-3.758-2.714-6.946-2.714
		C2060.394,1076.186,2058.201,1077.137,2056.515,1079.038z"/>
	<path d="M2122.248,1084.005c0-1.9-0.521-3.542-1.563-4.922c-1.044-1.38-2.7-2.07-4.968-2.07c-2.148,0-3.788,0.844-4.922,2.53
		c-1.136,1.688-1.702,3.788-1.702,6.302v29.072h-13.248v-47.012h9.936l1.656,6.9c0.244-0.674,0.874-1.625,1.886-2.852
		c1.012-1.227,2.484-2.36,4.416-3.404c1.933-1.042,4.217-1.564,6.854-1.564c4.231,0,7.498,1.32,9.798,3.956
		c2.3,2.638,3.45,6.134,3.45,10.488c0,0.92-0.046,1.84-0.139,2.76c-0.092,0.92-0.169,1.564-0.229,1.932h-11.225V1084.005z"/>
	<path d="M2167.65,1078.118c-1.319-1.288-3.449-1.932-6.394-1.932c-1.718,0-3.189,0.292-4.416,0.874
		c-1.228,0.583-2.162,1.304-2.806,2.162c-0.645,0.859-0.967,1.656-0.967,2.392v0.736h-12.972c-0.124-0.736-0.184-1.288-0.184-1.656
		c0-2.636,0.874-4.998,2.622-7.084c1.748-2.084,4.186-3.71,7.313-4.876c3.128-1.164,6.716-1.748,10.764-1.748h1.933
		c6.624,0,11.652,1.304,15.088,3.91c3.435,2.607,5.152,6.18,5.152,10.718v21.712c0,1.104,0.26,1.932,0.781,2.484
		c0.521,0.552,1.15,0.828,1.887,0.828c0.612,0,1.288-0.123,2.023-0.368c0.736-0.245,1.318-0.46,1.748-0.644v8.28
		c-2.27,1.288-4.968,1.932-8.096,1.932c-3.374,0-5.95-0.69-7.729-2.07c-1.779-1.38-2.821-3.327-3.128-5.842
		c-4.294,5.276-9.567,7.912-15.823,7.912c-4.662,0-8.496-0.95-11.5-2.852c-3.006-1.9-4.509-5.52-4.509-10.856
		c0-4.354,1.242-7.682,3.727-9.982c2.483-2.3,5.934-3.848,10.35-4.646c4.416-0.796,10.12-1.196,17.112-1.196v-3.128
		C2169.629,1081.093,2168.969,1079.405,2167.65,1078.118z M2156.61,1095.551c-2.852,1.136-4.277,2.99-4.277,5.566
		c0,2.024,0.566,3.45,1.702,4.278c1.134,0.828,2.866,1.242,5.197,1.242c1.595,0,3.188-0.429,4.784-1.288
		c1.595-0.858,2.929-2.084,4.002-3.68c1.072-1.594,1.61-3.373,1.61-5.336v-2.484
		C2163.801,1093.85,2159.463,1094.417,2156.61,1095.551z"/>
	<path d="M2209.739,1103.556c1.595,2.056,3.74,3.082,6.44,3.082c2.82,0,5.044-0.874,6.67-2.622c1.624-1.748,2.438-4.338,2.438-7.774
		h12.696c0,4.355-0.936,8.004-2.806,10.948c-1.872,2.944-4.34,5.122-7.406,6.532c-3.067,1.41-6.44,2.116-10.12,2.116h-1.472
		c-6.87,0-12.328-2.038-16.376-6.118c-4.048-4.078-6.072-9.736-6.072-16.974v-2.668c0-4.784,0.966-8.908,2.897-12.374
		c1.933-3.464,4.585-6.118,7.958-7.958c3.373-1.84,7.237-2.76,11.593-2.76h1.472c3.618,0,6.977,0.782,10.074,2.346
		c3.096,1.564,5.58,3.834,7.452,6.808c1.87,2.976,2.806,6.486,2.806,10.534h-13.34c0-3.188-0.706-5.734-2.116-7.636
		c-1.411-1.9-3.496-2.852-6.256-2.852s-4.938,1.089-6.532,3.266c-1.596,2.178-2.392,4.922-2.392,8.234v8.188
		C2207.348,1098.941,2208.144,1101.501,2209.739,1103.556z"/>
	<path d="M2268.664,1115.332c-1.993,0.336-3.757,0.506-5.29,0.506c-4.724,0-8.279-1.012-10.672-3.036
		c-2.392-2.024-3.588-5.396-3.588-10.12v-25.576h-5.151v-9.2h5.611l4.692-14.996h8.28v14.996h10.947v9.2h-10.947v23.276
		c0,2.454,0.474,4.11,1.426,4.968c0.95,0.859,2.223,1.288,3.817,1.288c0.736,0,1.687-0.123,2.853-0.368
		c1.164-0.245,2.116-0.521,2.852-0.828v8.648C2272.267,1114.581,2270.657,1114.994,2268.664,1115.332z"/>
	<path d="M2282.05,1048.677h13.615v10.58h-13.615V1048.677z M2282.142,1114.917v-47.012h13.432v47.012H2282.142z"/>
	<path d="M2350.084,1105.073c-1.994,3.496-4.738,6.164-8.234,8.004c-3.496,1.84-7.422,2.76-11.776,2.76h-1.472
		c-4.355,0-8.28-0.92-11.776-2.76c-3.496-1.84-6.241-4.508-8.233-8.004c-1.994-3.496-2.99-7.604-2.99-12.328v-2.668
		c0-4.722,0.996-8.832,2.99-12.328c1.992-3.496,4.737-6.164,8.233-8.004c3.496-1.84,7.421-2.76,11.776-2.76h1.472
		c4.354,0,8.28,0.92,11.776,2.76c3.496,1.84,6.24,4.508,8.234,8.004c1.992,3.496,2.989,7.606,2.989,12.328v2.668
		C2353.073,1097.469,2352.076,1101.578,2350.084,1105.073z M2336.651,1079.129c-1.871-1.962-4.31-2.944-7.313-2.944
		c-3.006,0-5.444,0.982-7.314,2.944c-1.871,1.964-2.806,4.816-2.806,8.556v7.452c0,3.742,0.935,6.594,2.806,8.556
		c1.87,1.964,4.309,2.944,7.314,2.944c3.004,0,5.442-0.98,7.313-2.944c1.87-1.962,2.806-4.814,2.806-8.556v-7.452
		C2339.457,1083.945,2338.521,1081.093,2336.651,1079.129z"/>
	<path d="M2374.601,1074.806c3.863-5.212,8.862-7.82,14.996-7.82c4.783,0,8.724,1.288,11.821,3.864
		c3.097,2.576,4.646,6.318,4.646,11.224v32.844h-13.433v-29.9c0-2.392-0.689-4.37-2.069-5.934s-3.144-2.346-5.29-2.346
		c-2.393,0-4.448,0.906-6.164,2.714c-1.718,1.81-2.576,4.002-2.576,6.578v28.888h-13.432v-47.012h10.027L2374.601,1074.806z"/>
	<path d="M2481.869,1105.947c0.553,0.46,1.165,0.69,1.84,0.69c0.613,0,1.288-0.123,2.024-0.368c0.736-0.245,1.318-0.46,1.748-0.644
		v8.28c-2.27,1.288-4.968,1.932-8.096,1.932c-6.134,0-9.692-2.238-10.672-6.716c-3.864,4.478-8.588,6.716-14.168,6.716
		c-4.784,0-8.726-1.288-11.822-3.864c-3.098-2.576-4.646-6.316-4.646-11.224v-32.844h13.433v29.9c0,2.392,0.689,4.37,2.069,5.934
		c1.38,1.564,3.143,2.346,5.29,2.346c2.393,0,4.446-0.904,6.164-2.714c1.717-1.809,2.576-4.002,2.576-6.578v-28.888h13.432v35.972
		C2481.041,1104.797,2481.317,1105.487,2481.869,1105.947z"/>
	<path d="M2506.525,1073.793c3.434-4.538,7.85-6.808,13.248-6.808c3.68,0,6.992,0.89,9.936,2.668
		c2.944,1.78,5.274,4.478,6.992,8.096c1.717,3.62,2.576,8.096,2.576,13.432v1.012c0,5.092-0.798,9.416-2.393,12.972
		c-1.596,3.558-3.757,6.226-6.485,8.004c-2.73,1.778-5.812,2.668-9.246,2.668c-2.944,0-5.536-0.614-7.774-1.84
		c-2.239-1.226-4.033-2.729-5.382-4.508v22.08h-13.432v-63.664h10.58L2506.525,1073.793z M2523.177,1079.038
		c-1.655-1.9-3.771-2.852-6.348-2.852s-4.692,0.952-6.348,2.852c-1.656,1.902-2.484,4.662-2.484,8.28v7.636
		c0,3.558,0.828,6.302,2.484,8.234c1.655,1.932,3.771,2.898,6.348,2.898s4.692-0.966,6.348-2.898
		c1.656-1.932,2.484-4.676,2.484-8.234v-7.636C2525.661,1083.699,2524.833,1080.939,2523.177,1079.038z"/>
	<path d="M2579.94,1109.029c-3.436,4.54-7.852,6.808-13.248,6.808c-3.68,0-6.992-0.89-9.936-2.668
		c-2.944-1.778-5.276-4.477-6.992-8.096c-1.718-3.618-2.576-8.096-2.576-13.432v-1.012c0-5.09,0.796-9.414,2.392-12.972
		c1.595-3.557,3.757-6.225,6.486-8.004c2.729-1.778,5.811-2.668,9.246-2.668c2.944,0,5.534,0.614,7.773,1.84
		c2.238,1.228,4.032,2.729,5.383,4.508v-24.656h13.432v66.24h-10.58L2579.94,1109.029z M2563.288,1103.739
		c1.656,1.932,3.772,2.898,6.349,2.898s4.691-0.966,6.348-2.898c1.656-1.932,2.484-4.676,2.484-8.234v-7.636
		c0-3.618-0.828-6.378-2.484-8.28c-1.656-1.9-3.771-2.852-6.348-2.852s-4.692,0.952-6.349,2.852
		c-1.655,1.902-2.483,4.662-2.483,8.28v7.636C2560.805,1099.063,2561.633,1101.808,2563.288,1103.739z"/>
	<path d="M2630.86,1078.118c-1.319-1.288-3.449-1.932-6.394-1.932c-1.718,0-3.189,0.292-4.416,0.874
		c-1.228,0.583-2.162,1.304-2.806,2.162c-0.645,0.859-0.967,1.656-0.967,2.392v0.736h-12.972c-0.124-0.736-0.184-1.288-0.184-1.656
		c0-2.636,0.874-4.998,2.622-7.084c1.748-2.084,4.186-3.71,7.313-4.876c3.128-1.164,6.716-1.748,10.764-1.748h1.933
		c6.624,0,11.652,1.304,15.088,3.91c3.435,2.607,5.152,6.18,5.152,10.718v21.712c0,1.104,0.26,1.932,0.781,2.484
		c0.521,0.552,1.15,0.828,1.887,0.828c0.612,0,1.288-0.123,2.023-0.368c0.736-0.245,1.318-0.46,1.748-0.644v8.28
		c-2.27,1.288-4.968,1.932-8.096,1.932c-3.374,0-5.95-0.69-7.729-2.07c-1.779-1.38-2.821-3.327-3.128-5.842
		c-4.294,5.276-9.567,7.912-15.823,7.912c-4.662,0-8.496-0.95-11.5-2.852c-3.006-1.9-4.509-5.52-4.509-10.856
		c0-4.354,1.242-7.682,3.727-9.982c2.483-2.3,5.934-3.848,10.35-4.646c4.416-0.796,10.12-1.196,17.112-1.196v-3.128
		C2632.839,1081.093,2632.179,1079.405,2630.86,1078.118z M2619.82,1095.551c-2.852,1.136-4.277,2.99-4.277,5.566
		c0,2.024,0.566,3.45,1.702,4.278c1.134,0.828,2.866,1.242,5.197,1.242c1.595,0,3.188-0.429,4.784-1.288
		c1.595-0.858,2.929-2.084,4.002-3.68c1.072-1.594,1.61-3.373,1.61-5.336v-2.484
		C2627.011,1093.85,2622.673,1094.417,2619.82,1095.551z"/>
	<path d="M2679.712,1115.332c-1.993,0.336-3.757,0.506-5.29,0.506c-4.724,0-8.279-1.012-10.672-3.036
		c-2.392-2.024-3.588-5.396-3.588-10.12v-25.576h-5.151v-9.2h5.611l4.692-14.996h8.28v14.996h10.947v9.2h-10.947v23.276
		c0,2.454,0.474,4.11,1.426,4.968c0.95,0.859,2.223,1.288,3.817,1.288c0.736,0,1.687-0.123,2.853-0.368
		c1.164-0.245,2.116-0.521,2.852-0.828v8.648C2683.314,1114.581,2681.705,1114.994,2679.712,1115.332z"/>
	<path d="M2733.854,1107.695c-1.964,2.792-4.555,4.846-7.774,6.164c-3.22,1.318-6.731,1.978-10.534,1.978h-1.472
		c-4.355,0-8.28-0.92-11.776-2.76c-3.496-1.84-6.241-4.492-8.233-7.958c-1.994-3.464-2.99-7.59-2.99-12.374v-2.668
		c0-4.722,1.012-8.832,3.036-12.328c2.023-3.496,4.768-6.164,8.233-8.004c3.465-1.84,7.375-2.76,11.73-2.76h1.472
		c3.803,0,7.329,0.782,10.58,2.346c3.25,1.564,5.856,3.834,7.82,6.808c1.962,2.976,2.944,6.486,2.944,10.534v6.992h-32.2v2.208
		c0,3.067,0.904,5.628,2.714,7.682c1.809,2.056,4.278,3.082,7.406,3.082c2.82,0,5.044-0.782,6.67-2.346
		c1.624-1.564,2.438-3.878,2.438-6.946h12.88C2736.797,1101.455,2735.815,1104.905,2733.854,1107.695z M2707.587,1079.038
		c-1.688,1.902-2.653,4.324-2.897,7.268h18.584c0-3.128-0.722-5.596-2.162-7.406c-1.442-1.808-3.758-2.714-6.946-2.714
		C2711.466,1076.186,2709.273,1077.137,2707.587,1079.038z"/>
	<path d="M2755.381,1100.565c0,2.147,0.95,3.696,2.852,4.646c1.9,0.952,4.263,1.426,7.084,1.426c2.453,0,4.646-0.368,6.578-1.104
		c1.933-0.736,2.898-1.9,2.898-3.496c0-1.716-0.89-2.944-2.668-3.68c-1.78-0.736-4.54-1.38-8.28-1.932
		c-3.926-0.674-7.146-1.41-9.66-2.208c-2.516-0.796-4.678-2.176-6.486-4.14c-1.81-1.962-2.714-4.692-2.714-8.188
		c0-3.188,0.935-5.902,2.807-8.142c1.87-2.238,4.354-3.924,7.452-5.06c3.096-1.134,6.485-1.702,10.166-1.702h1.84
		c3.25,0,6.332,0.538,9.246,1.61c2.912,1.074,5.258,2.576,7.038,4.508c1.777,1.932,2.668,4.125,2.668,6.578
		c0,0.492-0.032,0.936-0.093,1.334c-0.062,0.399-0.092,0.629-0.092,0.69h-11.775c0-3.68-2.822-5.52-8.465-5.52
		c-2.575,0-4.646,0.368-6.21,1.104c-1.563,0.736-2.346,1.748-2.346,3.036c0,1.534,0.843,2.607,2.53,3.22
		c1.686,0.614,4.338,1.196,7.958,1.748c4.108,0.676,7.436,1.396,9.981,2.162c2.545,0.768,4.769,2.147,6.67,4.14
		c1.9,1.994,2.853,4.8,2.853,8.418c0,5.582-1.964,9.614-5.888,12.098c-3.927,2.484-8.925,3.726-14.996,3.726h-3.036
		c-3.804,0-7.208-0.583-10.212-1.748c-3.006-1.164-5.353-2.82-7.038-4.968c-1.688-2.146-2.53-4.6-2.53-7.36l0.092-1.84h11.776
		V1100.565z"/>
</g>
<g>
	<g>
		<g>
			<g>
				<rect x="3469.783" y="282.467" style="fill:#3B7982;" width="487.443" height="863.126"/>
			</g>
		</g>
		<g>
			<g>
				<rect x="3567.105" y="329.655" style="fill:#CCCCCC;" width="280.32" height="54.907"/>
			</g>
		</g>
		<g>
			<g>
				<rect x="3567.105" y="422.171" style="fill:#CCCCCC;" width="280.32" height="54.871"/>
			</g>
		</g>
		<g>
			<g>
				<rect x="3567.105" y="514.646" style="fill:#CCCCCC;" width="280.32" height="54.871"/>
			</g>
		</g>
		<g>
			<g>
				<rect x="3567.105" y="607.104" style="fill:#CCCCCC;" width="280.32" height="54.911"/>
			</g>
		</g>
		<g>
			<g>
				<rect x="3567.105" y="699.584" style="fill:#CCCCCC;" width="280.32" height="54.953"/>
			</g>
		</g>
		<g>
			<g>
				<rect x="3567.105" y="792.053" style="fill:#CCCCCC;" width="280.32" height="54.929"/>
			</g>
		</g>
		<g>
			<g>
				<rect x="3567.105" y="884.558" style="fill:#CCCCCC;" width="280.32" height="54.907"/>
			</g>
		</g>
		<g>
			<g>
				<rect x="3737.613" y="1069.531" style="fill:#CDBB15;" width="28.898" height="76.062"/>
			</g>
		</g>
		<g>
			<g>
				<rect x="3783.842" y="1069.531" style="fill:#93B300;" width="28.896" height="76.062"/>
			</g>
		</g>
		<g>
			<g>
				<rect x="3830.082" y="1069.531" style="fill:#FF6401;" width="28.908" height="76.062"/>
			</g>
		</g>
		<g>
			<g>
				<rect x="3491.956" y="329.655" style="fill:#444647;" width="40.452" height="777.93"/>
			</g>
		</g>
		<g>
			<g>
				<rect x="3885" y="329.655" style="fill:#444647;" width="40.463" height="777.93"/>
			</g>
		</g>
		<g>
			<g>
				<rect x="3567.105" y="357.137" style="fill:#999999;" width="280.32" height="27.425"/>
			</g>
		</g>
		<g>
			<g>
				<rect x="3567.105" y="449.091" style="fill:#999999;" width="280.32" height="27.425"/>
			</g>
		</g>
		<g>
			<g>
				<rect x="3567.105" y="540.999" style="fill:#999999;" width="280.32" height="27.465"/>
			</g>
		</g>
		<g>
			<g>
				<rect x="3567.105" y="634.527" style="fill:#999999;" width="280.32" height="27.488"/>
			</g>
		</g>
		<g>
			<g>
				<rect x="3567.105" y="727.09" style="fill:#999999;" width="280.32" height="27.447"/>
			</g>
		</g>
		<g>
			<g>
				<rect x="3567.105" y="819.523" style="fill:#999999;" width="280.32" height="27.459"/>
			</g>
		</g>
		<g>
			<g>
				<rect x="3567.105" y="911.993" style="fill:#999999;" width="280.32" height="27.471"/>
			</g>
		</g>
	</g>
</g>
<g>
	<g>
		<g>
			<g>
				<g>
					<g>
						<path style="fill:#444647;" d="M1007.896,824.087v-562.69c0-12.86-10.395-23.182-23.202-23.182H100.8
							c-12.824,0-23.177,10.322-23.177,23.182v562.69H1007.896z"/>
					</g>
				</g>
			</g>
			<g>
				<g>
					<g>
						<g>
							<rect x="112.325" y="278.775" style="fill:#91DDF2;" width="854.076" height="511.283"/>
						</g>
					</g>
				</g>
			</g>
			<g>
				<g>
					<g>
						<g>
							<rect x="143.534" y="351.711" style="fill:#FFFFFF;" width="666.712" height="438.346"/>
						</g>
					</g>
				</g>
				<g>
					<g>
						<g>
							<rect x="143.534" y="337.629" style="fill:#565C64;" width="666.712" height="90.285"/>
						</g>
					</g>
				</g>
				<g>
					<g>
						<g>
							<rect x="433.455" y="376.639" style="fill:#EAEAE5;" width="213.612" height="22.946"/>
						</g>
					</g>
				</g>
				<g>
					<g>
						<g>
							<rect x="687.033" y="376.639" style="fill:#EAEAE5;" width="88.045" height="22.946"/>
						</g>
					</g>
				</g>
				<g>
					<g>
						<g>
							<rect x="165.858" y="365.958" style="fill:#EAEAE5;" width="33.449" height="33.627"/>
						</g>
					</g>
				</g>
				<g>
					<g>
						<g>
							<rect x="222.238" y="365.958" style="fill:#EAEAE5;" width="33.401" height="33.627"/>
						</g>
					</g>
				</g>
				<g>
					<g>
						<g>
							<rect x="278.559" y="365.958" style="fill:#EAEAE5;" width="33.438" height="33.627"/>
						</g>
					</g>
				</g>
			</g>
			<g>
				<g>
					<rect x="30" y="813.035" style="fill:#0088A0;" width="1028.985" height="55.917"/>
				</g>
			</g>
			<g>
				<g>
					<rect x="30" y="841.014" style="fill:#00737F;" width="1028.985" height="27.937"/>
				</g>
			</g>
		</g>
	</g>
	<g>
		<path style="fill:#F7DF1E;" d="M703.758,508.205h243.169v243.169H703.758V508.205z"/>
		<path d="M767.696,711.414l18.608-11.262c3.591,6.365,6.856,11.751,14.69,11.751c7.509,0,12.244-2.937,12.244-14.362v-77.698
			h22.851v78.021c0,23.668-13.874,34.442-34.116,34.442c-18.28,0-28.892-9.467-34.278-20.893 M848.501,708.966l18.606-10.773
			c4.898,7.999,11.265,13.875,22.526,13.875c9.469,0,15.507-4.734,15.507-11.264c0-7.835-6.203-10.61-16.649-15.179l-5.712-2.451
			c-16.487-7.017-27.423-15.832-27.423-34.44c0-17.14,13.058-30.199,33.462-30.199c14.527,0,24.974,5.061,32.482,18.282
			l-17.793,11.427c-3.918-7.019-8.16-9.793-14.69-9.793c-6.693,0-10.937,4.244-10.937,9.793c0,6.855,4.244,9.632,14.037,13.876
			l5.713,2.448c19.425,8.326,30.361,16.813,30.361,35.909c0,20.569-16.159,31.83-37.869,31.83
			C868.904,732.309,855.192,722.189,848.501,708.966"/>
	</g>
	<g>
		<path style="fill:#E6E6E6;" d="M782.552,297.055H639.263c-3.989,0-7.223,3.234-7.223,9.509v262.039
			c0,1.703,3.234,4.937,7.223,4.937h197.855c3.989,0,7.223-3.234,7.223-4.937V361.13c0-3.436-0.459-4.542-1.269-5.357l-57.45-57.45
			C784.808,297.514,783.702,297.055,782.552,297.055z"/>
		<polygon style="fill:#CCCCCC;" points="785.095,297.8 785.095,356.302 843.596,356.302 		"/>
		<path style="fill:#22B573;" d="M837.118,573.54H639.263c-3.989,0-7.223-3.234-7.223-7.223v-76.71h212.302v76.71
			C844.342,570.306,841.108,573.54,837.118,573.54z"/>
		<g>
			<path style="fill:#FFFFFF;" d="M686.128,508.981v49.748h-8.102v-22.41h-21.531v22.41h-8.235v-49.748h8.235v21.803h21.531v-21.803
				H686.128z"/>
			<path style="fill:#FFFFFF;" d="M733.782,508.981v5.535h-14.846v44.213h-8.166v-44.213h-14.851v-5.535H733.782z"/>
			<path style="fill:#FFFFFF;" d="M781.17,508.981h8.235v49.748h-8.235v-34.225l-11.138,27.673h-7.154l-11.208-27.673v34.225h-8.235
				v-49.748h8.235l14.782,34.023L781.17,508.981z"/>
			<path style="fill:#FFFFFF;" d="M810.127,508.981v43.606h22.884v6.142h-31.119v-49.748H810.127z"/>
		</g>
		<g>
			<path style="fill:#22B573;" d="M714.527,377.497c-1.93-1.93-5.051-1.93-6.981,0l-29.623,29.623c-1.93,1.93-1.93,5.051,0,6.981
				l29.623,29.623c0.963,0.963,2.227,1.447,3.491,1.447c1.264,0,2.528-0.484,3.491-1.447c1.93-1.93,1.93-5.051,0-6.981
				l-26.133-26.133l26.133-26.133C716.457,382.548,716.457,379.428,714.527,377.497z"/>
			<path style="fill:#22B573;" d="M803.397,407.121l-29.623-29.623c-1.93-1.93-5.051-1.93-6.981,0s-1.93,5.051,0,6.981
				l26.133,26.133l-26.133,26.133c-1.93,1.93-1.93,5.051,0,6.981c0.963,0.963,2.227,1.447,3.491,1.447
				c1.264,0,2.528-0.484,3.491-1.447l29.623-29.623C805.328,412.171,805.328,409.051,803.397,407.121z"/>
		</g>
	</g>
	<g>
		<circle style="fill:#9CDEF6;" cx="476.89" cy="609.775" r="146.031"/>
		<g>
			<path style="fill:#444647;" d="M586.116,706.581c22.894-25.796,36.805-59.699,36.805-96.806
				c0-38.606-15.069-73.743-39.632-99.879c-0.025-0.025-0.05-0.05-0.05-0.076c-25.601-27.168-61.424-44.579-101.282-45.951
				l-2.851-0.076c-0.737-0.025-1.479-0.05-2.216-0.05c-0.736,0-1.473,0.025-2.209,0.05l-2.833,0.076
				c-39.858,1.372-75.707,18.783-101.276,45.951c-0.025,0.025-0.05,0.05-0.05,0.076c0,0,0,0-0.025,0
				c-24.543,26.136-39.638,61.273-39.638,99.879c0,37.107,13.943,71.011,36.812,96.806c0.044,0.05,0.044,0.101,0.069,0.151
				c0.101,0.12,0.227,0.17,0.321,0.29c25.72,28.748,62.601,47.261,103.788,48.664l2.833,0.101c0.737,0,1.473,0.019,2.209,0.019
				c0.737,0,1.479-0.019,2.216-0.044l2.826-0.076h0.025c41.212-1.404,78.143-19.967,103.863-48.759
				c0.051-0.101,0.17-0.126,0.22-0.22C586.091,706.682,586.091,706.632,586.116,706.581L586.116,706.581z M341.062,614.817h60.442
				c0.56,21.345,4.746,42.093,12.168,61.518c-14.333,5.193-28.03,12.124-40.865,20.804
				C353.948,674.692,342.196,646.095,341.062,614.817L341.062,614.817z M375.564,519.263c12.539,8.139,25.865,14.654,39.783,19.552
				c-8.511,20.678-13.232,42.98-13.842,65.918h-60.442C342.265,571.981,355.081,542.132,375.564,519.263L375.564,519.263z
				 M612.743,604.733h-60.461c-0.617-22.938-5.313-45.24-13.842-65.918c13.918-4.897,27.269-11.412,39.783-19.552
				C598.706,542.132,611.541,571.981,612.743,604.733L612.743,604.733z M471.848,539.085c-14.553-0.396-28.842-2.581-42.634-6.446
				c10.204-20.949,24.613-39.858,42.634-55.595V539.085z M471.848,549.163v55.57h-60.266c0.617-21.881,5.212-43.125,13.426-62.796
				C440.129,546.311,455.841,548.747,471.848,549.163L471.848,549.163z M481.932,549.163c16.008-0.415,31.719-2.852,46.864-7.226
				c8.215,19.671,12.81,40.916,13.426,62.796h-60.291V549.163z M481.932,539.085v-62.041c18.047,15.737,32.456,34.646,42.659,55.595
				C510.775,536.504,496.486,538.688,481.932,539.085L481.932,539.085z M534.355,529.567c-9.688-20.263-23.114-38.725-39.732-54.563
				c29.503,3.859,56.036,17.191,76.468,36.862C559.484,519.212,547.165,525.142,534.355,529.567L534.355,529.567z M419.451,529.567
				c-12.835-4.425-25.154-10.355-36.736-17.701c20.433-19.671,46.965-33.003,76.45-36.862
				C442.54,490.842,429.113,509.305,419.451,529.567L419.451,529.567z M411.582,614.817h60.266v50.553
				c-16.643,0.447-32.947,3.028-48.633,7.749C416.133,654.726,412.149,635.054,411.582,614.817L411.582,614.817z M471.848,675.429
				v67.077c-19.299-16.845-34.419-37.303-44.724-60.02C441.558,678.23,456.558,675.87,471.848,675.429L471.848,675.429z
				 M481.932,742.505v-67.077c15.296,0.441,30.29,2.801,44.724,7.057C516.383,705.203,501.232,725.661,481.932,742.505
				L481.932,742.505z M481.932,665.37v-50.553h60.291c-0.567,20.238-4.551,39.909-11.651,58.327
				C514.904,668.397,498.582,665.817,481.932,665.37L481.932,665.37z M552.282,614.817h60.461
				c-1.152,31.279-12.885,59.876-31.77,82.323c-12.835-8.68-26.526-15.611-40.84-20.804
				C547.561,656.91,551.716,636.162,552.282,614.817L552.282,614.817z M379.668,704.687c11.903-7.913,24.587-14.283,37.844-19.029
				c9.807,21.931,23.851,41.948,41.652,58.887C428.181,740.491,400.472,726.007,379.668,704.687L379.668,704.687z M494.622,744.545
				c17.802-16.939,31.864-36.931,41.652-58.887c13.25,4.746,25.94,11.116,37.863,19.029
				C553.315,726.007,525.605,740.491,494.622,744.545L494.622,744.545z M494.622,744.545"/>
		</g>
	</g>
</g>
<g>
	<g>
		<path style="stroke:#231F20;stroke-width:42.1054;stroke-linecap:round;stroke-linejoin:round;stroke-miterlimit:5;" d="
			M3281.796,296.306c-64.998-79.19-181.193-95.438-265.735-34.966c-13.226,9.461-24.914,20.269-35.035,32.092
			c77.959-31.048,169.191-9.023,224.02,57.772l-26.86,19.212l135.785,52.891l-6.186-145.591L3281.796,296.306z"/>
	</g>
	<g>
		<path style="fill:#39B54A;" d="M3281.796,296.306c-64.998-79.19-181.193-95.438-265.735-34.966
			c-13.226,9.461-24.914,20.269-35.035,32.092c77.959-31.048,169.191-9.023,224.02,57.772l-26.86,19.212l135.785,52.891
			l-6.186-145.591L3281.796,296.306z"/>
	</g>
</g>
<g>
	<g>
		
			<line style="fill:none;stroke:#000000;stroke-width:8.135;stroke-linecap:round;stroke-miterlimit:10;" x1="1115.364" y1="265.789" x2="2869.343" y2="265.789"/>
		<g>
			<polygon points="2861.034,294.184 2910.208,265.789 2861.034,237.394 			"/>
		</g>
	</g>
</g>
<g>
	<g>
		
			<line style="fill:none;stroke:#000000;stroke-width:8.135;stroke-linecap:round;stroke-miterlimit:10;" x1="3054.207" y1="426.818" x2="1156.229" y2="426.818"/>
		<g>
			<polygon points="1164.537,398.423 1115.364,426.818 1164.537,455.213 			"/>
		</g>
	</g>
</g>
<g>
	<g>
		
			<line style="fill:none;stroke:#000000;stroke-width:8.135;stroke-linecap:round;stroke-miterlimit:10;stroke-dasharray:0,30.5063;" x1="3102.903" y1="743.687" x2="1154.548" y2="831.769"/>
		<g>
			<polygon points="3093.321,715.696 3143.726,741.841 3095.885,772.428 			"/>
		</g>
		<g>
			<polygon points="1161.566,803.028 1113.725,833.614 1164.13,859.759 			"/>
		</g>
	</g>
</g>
<g>
	<g>
		<ellipse style="fill:#E6E6E6;" cx="1355.283" cy="371.429" rx="99.195" ry="21.256"/>
		<path style="fill:#0033AD;" d="M1355.59,373.14l39.482-40.061h-79.577C1327.78,346.464,1355.59,373.14,1355.59,373.14z"/>
		<path style="fill:#0033AD;" d="M1441.373,99.824h-172.18c-22.098,0-40.12,18.036-40.12,40.145v156.343
			c0,22.12,18.022,40.144,40.12,40.144h6.285h159.991h5.905c21.984,0,40.122-18.024,40.122-40.144V139.969
			C1481.495,117.86,1463.356,99.824,1441.373,99.824z"/>
	</g>
	<g>
		<path style="fill:#FFFFFF;" d="M1322.145,253.152h27.008V189.21h-27.171v-14.48c6.073-0.432,12.96-1.978,20.663-4.637
			c7.701-2.657,14.969-5.883,21.802-9.681h8.624v92.739h26.52v19.687h-77.445V253.152z"/>
	</g>
</g>
<g>
	<g>
		<ellipse style="fill:#E6E6E6;" cx="2760.753" cy="661.965" rx="99.195" ry="21.256"/>
		<path style="fill:#0033AD;" d="M2761.059,663.677l39.482-40.061h-79.577C2733.249,637,2761.059,663.677,2761.059,663.677z"/>
		<path style="fill:#0033AD;" d="M2846.842,390.36h-172.18c-22.098,0-40.12,18.036-40.12,40.145v156.343
			c0,22.12,18.022,40.144,40.12,40.144h6.285h159.99h5.905c21.983,0,40.122-18.024,40.122-40.144V430.506
			C2886.964,408.396,2868.826,390.36,2846.842,390.36z"/>
	</g>
	<g>
		<path style="fill:#FFFFFF;" d="M2727.695,541.491c2.44-4.174,5.883-7.998,10.331-11.47l31.727-24.893
			c4.121-3.145,6.969-6.371,8.542-9.681c1.571-3.308,2.359-6.752,2.359-10.332c0-4.012-1.302-7.51-3.905-10.494
			c-2.604-2.982-6.508-4.474-11.714-4.474c-4.23,0-7.729,0.951-10.494,2.847c-2.767,1.899-4.8,4.149-6.102,6.752
			s-1.952,4.881-1.952,6.833c0,1.952,0.053,3.417,0.162,4.393h-22.29c-0.109-0.867-0.162-1.896-0.162-3.091
			c0-5.857,1.302-11.633,3.904-17.327c2.604-5.695,7.05-10.52,13.342-14.48c6.289-3.958,14.533-5.938,24.73-5.938h2.44
			c7.81,0,14.506,1.627,20.094,4.881c5.585,3.254,9.787,7.512,12.609,12.772c2.818,5.262,4.229,10.875,4.229,16.839
			c0,6.401-1.22,12.068-3.66,17.002c-2.44,4.937-6.646,9.899-12.609,14.887c-6.834,5.75-15.078,12.259-24.73,19.524
			c-1.086,0.869-2.44,2.062-4.067,3.579c-1.627,1.521-2.44,2.497-2.44,2.929h47.833v20.826h-81.838v-4.881
			C2724.034,551.334,2725.255,545.668,2727.695,541.491z"/>
	</g>
</g>
<g>
	<g>
		<ellipse style="fill:#E6E6E6;" cx="2115.376" cy="987.365" rx="99.195" ry="21.256"/>
		<path style="fill:#0033AD;" d="M2115.682,989.077l39.482-40.061h-79.577C2087.873,962.4,2115.682,989.077,2115.682,989.077z"/>
		<path style="fill:#0033AD;" d="M2201.466,715.76h-172.18c-22.098,0-40.12,18.036-40.12,40.145v156.343
			c0,22.12,18.022,40.144,40.12,40.144h6.285h159.99h5.905c21.983,0,40.122-18.024,40.122-40.144V755.906
			C2241.587,733.796,2223.449,715.76,2201.466,715.76z"/>
	</g>
	<g>
		<path style="fill:#FFFFFF;" d="M2097.53,855.421c0,10.413,6.399,15.619,19.199,15.619c6.398,0,11.308-1.302,14.724-3.905
			c3.417-2.603,5.126-6.508,5.126-11.714c0-5.964-1.899-9.925-5.695-11.877c-3.798-1.953-8.895-2.929-15.294-2.929h-11.714v-17.409
			h13.342c4.881,0,8.893-1.246,12.039-3.742c3.145-2.494,4.719-6.073,4.719-10.738c0-4.556-1.655-7.998-4.963-10.332
			c-3.31-2.332-7.402-3.498-12.283-3.498c-4.665,0-8.623,1.276-11.877,3.823c-3.255,2.55-4.882,6.102-4.882,10.657h-21.639v-3.417
			c0-5.748,1.652-10.954,4.962-15.619c3.308-4.663,7.892-8.298,13.748-10.901c5.857-2.604,12.528-3.905,20.013-3.905h3.091
			c7.266,0,13.749,1.301,19.443,3.905c5.694,2.603,10.169,6.21,13.423,10.819c3.254,4.612,4.881,9.79,4.881,15.538
			c0,5.857-1.492,10.848-4.475,14.968c-2.984,4.124-7.023,7.322-12.121,9.6v0.813c6.073,2.062,10.845,5.397,14.317,10.006
			c3.471,4.611,5.207,10.387,5.207,17.328c0,6.076-1.684,11.552-5.044,16.433c-3.363,4.881-8.109,8.679-14.236,11.389
			c-6.129,2.71-13.26,4.067-21.396,4.067h-4.393c-8.46,0-15.757-1.411-21.883-4.23c-6.13-2.819-10.767-6.696-13.911-11.633
			c-3.147-4.935-4.719-10.547-4.719-16.839v-2.278H2097.53z"/>
	</g>
</g>
</svg>
