<?xml version="1.0" encoding="UTF-8"?>
<?xml-stylesheet href="https://cdnjs.cloudflare.com/ajax/libs/font-awesome/6.7.2/css/all.min.css" type="text/css"?>
<svg id="graph-3" width="100%" xmlns="http://www.w3.org/2000/svg" style="max-width: 100%;" viewBox="-170.4921875 -34.70000076293945 528.4921875 504.70001220703125" role="graphics-document document" aria-roledescription="gitGraph" height="100%" xmlns:xlink="http://www.w3.org/1999/xlink"><style>#graph-3{font-family:"trebuchet ms",verdana,arial,sans-serif;font-size:16px;fill:#333;}@keyframes edge-animation-frame{from{stroke-dashoffset:0;}}@keyframes dash{to{stroke-dashoffset:0;}}#graph-3 .edge-animation-slow{stroke-dasharray:9,5!important;stroke-dashoffset:900;animation:dash 50s linear infinite;stroke-linecap:round;}#graph-3 .edge-animation-fast{stroke-dasharray:9,5!important;stroke-dashoffset:900;animation:dash 20s linear infinite;stroke-linecap:round;}#graph-3 .error-icon{fill:#552222;}#graph-3 .error-text{fill:#552222;stroke:#552222;}#graph-3 .edge-thickness-normal{stroke-width:1px;}#graph-3 .edge-thickness-thick{stroke-width:3.5px;}#graph-3 .edge-pattern-solid{stroke-dasharray:0;}#graph-3 .edge-thickness-invisible{stroke-width:0;fill:none;}#graph-3 .edge-pattern-dashed{stroke-dasharray:3;}#graph-3 .edge-pattern-dotted{stroke-dasharray:2;}#graph-3 .marker{fill:#333333;stroke:#333333;}#graph-3 .marker.cross{stroke:#333333;}#graph-3 svg{font-family:"trebuchet ms",verdana,arial,sans-serif;font-size:16px;}#graph-3 p{margin:0;}#graph-3 .commit-id,#graph-3 .commit-msg,#graph-3 .branch-label{fill:lightgrey;color:lightgrey;font-family:'trebuchet ms',verdana,arial,sans-serif;font-family:var(--mermaid-font-family);}#graph-3 .branch-label0{fill:#ffffff;}#graph-3 .commit0{stroke:hsl(240, 100%, 46.2745098039%);fill:hsl(240, 100%, 46.2745098039%);}#graph-3 .commit-highlight0{stroke:hsl(60, 100%, 3.7254901961%);fill:hsl(60, 100%, 3.7254901961%);}#graph-3 .label0{fill:hsl(240, 100%, 46.2745098039%);}#graph-3 .arrow0{stroke:hsl(240, 100%, 46.2745098039%);}#graph-3 .branch-label1{fill:black;}#graph-3 .commit1{stroke:hsl(60, 100%, 43.5294117647%);fill:hsl(60, 100%, 43.5294117647%);}#graph-3 .commit-highlight1{stroke:rgb(0, 0, 160.5);fill:rgb(0, 0, 160.5);}#graph-3 .label1{fill:hsl(60, 100%, 43.5294117647%);}#graph-3 .arrow1{stroke:hsl(60, 100%, 43.5294117647%);}#graph-3 .branch-label2{fill:black;}#graph-3 .commit2{stroke:hsl(80, 100%, 46.2745098039%);fill:hsl(80, 100%, 46.2745098039%);}#graph-3 .commit-highlight2{stroke:rgb(48.8333333334, 0, 146.5000000001);fill:rgb(48.8333333334, 0, 146.5000000001);}#graph-3 .label2{fill:hsl(80, 100%, 46.2745098039%);}#graph-3 .arrow2{stroke:hsl(80, 100%, 46.2745098039%);}#graph-3 .branch-label3{fill:#ffffff;}#graph-3 .commit3{stroke:hsl(210, 100%, 46.2745098039%);fill:hsl(210, 100%, 46.2745098039%);}#graph-3 .commit-highlight3{stroke:rgb(146.5000000001, 73.2500000001, 0);fill:rgb(146.5000000001, 73.2500000001, 0);}#graph-3 .label3{fill:hsl(210, 100%, 46.2745098039%);}#graph-3 .arrow3{stroke:hsl(210, 100%, 46.2745098039%);}#graph-3 .branch-label4{fill:black;}#graph-3 .commit4{stroke:hsl(180, 100%, 46.2745098039%);fill:hsl(180, 100%, 46.2745098039%);}#graph-3 .commit-highlight4{stroke:rgb(146.5000000001, 0, 0);fill:rgb(146.5000000001, 0, 0);}#graph-3 .label4{fill:hsl(180, 100%, 46.2745098039%);}#graph-3 .arrow4{stroke:hsl(180, 100%, 46.2745098039%);}#graph-3 .branch-label5{fill:black;}#graph-3 .commit5{stroke:hsl(150, 100%, 46.2745098039%);fill:hsl(150, 100%, 46.2745098039%);}#graph-3 .commit-highlight5{stroke:rgb(146.5000000001, 0, 73.2500000001);fill:rgb(146.5000000001, 0, 73.2500000001);}#graph-3 .label5{fill:hsl(150, 100%, 46.2745098039%);}#graph-3 .arrow5{stroke:hsl(150, 100%, 46.2745098039%);}#graph-3 .branch-label6{fill:black;}#graph-3 .commit6{stroke:hsl(300, 100%, 46.2745098039%);fill:hsl(300, 100%, 46.2745098039%);}#graph-3 .commit-highlight6{stroke:rgb(0, 146.5000000001, 0);fill:rgb(0, 146.5000000001, 0);}#graph-3 .label6{fill:hsl(300, 100%, 46.2745098039%);}#graph-3 .arrow6{stroke:hsl(300, 100%, 46.2745098039%);}#graph-3 .branch-label7{fill:black;}#graph-3 .commit7{stroke:hsl(0, 100%, 46.2745098039%);fill:hsl(0, 100%, 46.2745098039%);}#graph-3 .commit-highlight7{stroke:rgb(0, 146.5000000001, 146.5000000001);fill:rgb(0, 146.5000000001, 146.5000000001);}#graph-3 .label7{fill:hsl(0, 100%, 46.2745098039%);}#graph-3 .arrow7{stroke:hsl(0, 100%, 46.2745098039%);}#graph-3 .branch{stroke-width:1;stroke:#333333;stroke-dasharray:2;}#graph-3 .commit-label{font-size:10px;fill:#000021;}#graph-3 .commit-label-bkg{font-size:10px;fill:#ffffde;opacity:0.5;}#graph-3 .tag-label{font-size:10px;fill:#131300;}#graph-3 .tag-label-bkg{fill:#ECECFF;stroke:hsl(240, 60%, 86.2745098039%);}#graph-3 .tag-hole{fill:#333;}#graph-3 .commit-merge{stroke:#ECECFF;fill:#ECECFF;}#graph-3 .commit-reverse{stroke:#ECECFF;fill:#ECECFF;stroke-width:3;}#graph-3 .commit-highlight-inner{stroke:#ECECFF;fill:#ECECFF;}#graph-3 .arrow{stroke-width:8;stroke-linecap:round;fill:none;}#graph-3 .gitTitleText{text-anchor:middle;font-size:18px;fill:#333;}#graph-3 :root{--mermaid-font-family:"trebuchet ms",verdana,arial,sans-serif;}</style><g></g><g class="commit-bullets"></g><g class="commit-labels"></g><g><line x1="0" y1="0" x2="350" y2="0" class="branch branch0"></line><rect class="branchLabelBkg label0" rx="4" ry="4" x="-75" y="-0.5" width="59" height="21" transform="translate(-19, -8.5)"></rect><g class="branchLabel"><g class="label branch-label0" transform="translate(-85, -9.5)"><text><tspan xml:space="preserve" dy="1em" x="0" class="row">Africa</tspan></text></g></g><line x1="0" y1="90" x2="350" y2="90" class="branch branch1"></line><rect class="branchLabelBkg label1" rx="4" ry="4" x="-65.2265625" y="-0.5" width="49.2265625" height="21" transform="translate(-19, 81.5)"></rect><g class="branchLabel"><g class="label branch-label1" transform="translate(-75.2265625, 80.5)"><text><tspan xml:space="preserve" dy="1em" x="0" class="row">Asia</tspan></text></g></g><line x1="0" y1="180" x2="350" y2="180" class="branch branch2"></line><rect class="branchLabelBkg label2" rx="4" ry="4" x="-68.6875" y="-0.5" width="52.6875" height="21" transform="translate(-19, 171.5)"></rect><g class="branchLabel"><g class="label branch-label2" transform="translate(-78.6875, 170.5)"><text><tspan xml:space="preserve" dy="1em" x="0" class="row">main</tspan></text></g></g><line x1="0" y1="270" x2="350" y2="270" class="branch branch3"></line><rect class="branchLabelBkg label3" rx="4" ry="4" x="-85.6953125" y="-0.5" width="69.6953125" height="21" transform="translate(-19, 261.5)"></rect><g class="branchLabel"><g class="label branch-label3" transform="translate(-95.6953125, 260.5)"><text><tspan xml:space="preserve" dy="1em" x="0" class="row">Europe</tspan></text></g></g><line x1="0" y1="360" x2="350" y2="360" class="branch branch4"></line><rect class="branchLabelBkg label4" rx="4" ry="4" x="-140.8046875" y="-1" width="124.8046875" height="22" transform="translate(-19, 351)"></rect><g class="branchLabel"><g class="label branch-label4" transform="translate(-150.8046875, 350)"><text><tspan xml:space="preserve" dy="1em" x="0" class="row">North_America</tspan></text></g></g><line x1="0" y1="450" x2="350" y2="450" class="branch branch5"></line><rect class="branchLabelBkg label5" rx="4" ry="4" x="-143.4921875" y="-1" width="127.4921875" height="22" transform="translate(-19, 441)"></rect><g class="branchLabel"><g class="label branch-label5" transform="translate(-153.4921875, 440)"><text><tspan xml:space="preserve" dy="1em" x="0" class="row">South_America</tspan></text></g></g></g><g class="commit-arrows"><path d="M 10 180 L 60 180" class="arrow arrow2"></path><path d="M 60 180 L 110 180" class="arrow arrow2"></path><path d="M 110 180 L 160 180" class="arrow arrow2"></path><path d="M 160 180 L 210 180" class="arrow arrow2"></path><path d="M 210 180 L 260 180" class="arrow arrow2"></path><path d="M 260 180 L 260 20 A 20 20, 0, 0, 1, 280 0 L 310 0" class="arrow arrow0"></path><path d="M 260 180 L 260 110 A 20 20, 0, 0, 1, 280 90 L 310 90" class="arrow arrow1"></path><path d="M 260 180 L 260 250 A 20 20, 0, 0, 0, 280 270 L 310 270" class="arrow arrow3"></path><path d="M 260 180 L 260 340 A 20 20, 0, 0, 0, 280 360 L 310 360" class="arrow arrow4"></path><path d="M 260 180 L 260 430 A 20 20, 0, 0, 0, 280 450 L 310 450" class="arrow arrow5"></path></g><g class="commit-bullets"><circle cx="10" cy="180" r="10" class="commit tip - 5 commit2"></circle><circle cx="60" cy="180" r="10" class="commit tip - 4 commit2"></circle><circle cx="110" cy="180" r="10" class="commit tip - 3 commit2"></circle><circle cx="160" cy="180" r="10" class="commit tip - 2 commit2"></circle><circle cx="210" cy="180" r="10" class="commit tip - 1 commit2"></circle><circle cx="260" cy="180" r="10" class="commit tip commit2"></circle><circle cx="310" cy="0" r="10" class="commit 6-25e9c6e commit0"></circle><circle cx="310" cy="90" r="10" class="commit 7-010f516 commit1"></circle><circle cx="310" cy="270" r="10" class="commit 8-a8fe0e4 commit3"></circle><circle cx="310" cy="360" r="10" class="commit 9-6838007 commit4"></circle><circle cx="310" cy="450" r="10" class="commit 10-ebda663 commit5"></circle></g><g class="commit-labels"><polygon class="tag-label-bkg" points="277.4296875,-17.2  
      277.4296875,-21.2
      285.4296875,-26.7
      334.5703125,-26.7
      334.5703125,-11.7
      285.4296875,-11.7"></polygon><circle cy="-19.2" cx="281.4296875" r="1.5" class="tag-hole"></circle><text y="-16" class="tag-label" x="289.4296875">mempool</text><polygon class="tag-label-bkg" points="277.4296875,72.8  
      277.4296875,68.8
      285.4296875,63.3
      334.5703125,63.3
      334.5703125,78.3
      285.4296875,78.3"></polygon><circle cy="70.8" cx="281.4296875" r="1.5" class="tag-hole"></circle><text y="74" class="tag-label" x="289.4296875">mempool</text><polygon class="tag-label-bkg" points="277.4296875,252.8  
      277.4296875,248.8
      285.4296875,243.3
      334.5703125,243.3
      334.5703125,258.3
      285.4296875,258.3"></polygon><circle cy="250.8" cx="281.4296875" r="1.5" class="tag-hole"></circle><text y="254" class="tag-label" x="289.4296875">mempool</text><polygon class="tag-label-bkg" points="277.4296875,342.8  
      277.4296875,338.8
      285.4296875,333.3
      334.5703125,333.3
      334.5703125,348.3
      285.4296875,348.3"></polygon><circle cy="340.8" cx="281.4296875" r="1.5" class="tag-hole"></circle><text y="344" class="tag-label" x="289.4296875">mempool</text><polygon class="tag-label-bkg" points="277.4296875,432.8  
      277.4296875,428.8
      285.4296875,423.3
      334.5703125,423.3
      334.5703125,438.3
      285.4296875,438.3"></polygon><circle cy="430.8" cx="281.4296875" r="1.5" class="tag-hole"></circle><text y="434" class="tag-label" x="289.4296875">mempool</text></g></svg>